%TF.GenerationSoftware,KiCad,Pcbnew,4.0.5-e0-6337~49~ubuntu16.04.1*%
%TF.CreationDate,2017-05-26T06:28:51-07:00*%
%TF.ProjectId,2x2-Slide-Switch-CL-SB-SMT,3278322D536C6964652D537769746368,v1.1*%
%TF.FileFunction,Soldermask,Bot*%
%FSLAX46Y46*%
G04 Gerber Fmt 4.6, Leading zero omitted, Abs format (unit mm)*
G04 Created by KiCad (PCBNEW 4.0.5-e0-6337~49~ubuntu16.04.1) date Fri May 26 06:28:51 2017*
%MOMM*%
%LPD*%
G01*
G04 APERTURE LIST*
%ADD10C,0.350000*%
%ADD11C,0.500000*%
%ADD12C,7.200000*%
G04 APERTURE END LIST*
D10*
D11*
X16384000Y-40195500D02*
X16384000Y-31432500D01*
D12*
X8382000Y-31686500D02*
X8851900Y-31699200D01*
X16638000Y-40005000D02*
X16638000Y-31686500D01*
X8407400Y-40043100D02*
X8877300Y-40055800D01*
D10*
G36*
X16768610Y-36803847D02*
X17359555Y-36925151D01*
X17915698Y-37158932D01*
X18415834Y-37496278D01*
X18840921Y-37924343D01*
X19174766Y-38426821D01*
X19404656Y-38984576D01*
X19521764Y-39576014D01*
X19521764Y-39576024D01*
X19521831Y-39576363D01*
X19512210Y-40265416D01*
X19512133Y-40265754D01*
X19512133Y-40265762D01*
X19378557Y-40853701D01*
X19133185Y-41404816D01*
X18785437Y-41897778D01*
X18348562Y-42313809D01*
X17839200Y-42637061D01*
X17276754Y-42855219D01*
X16682647Y-42959976D01*
X16079503Y-42947342D01*
X15490300Y-42817797D01*
X14937482Y-42576277D01*
X14442107Y-42231982D01*
X14023037Y-41798023D01*
X13696238Y-41290930D01*
X13474156Y-40730014D01*
X13365255Y-40136658D01*
X13373677Y-39533441D01*
X13499106Y-38943347D01*
X13736759Y-38388858D01*
X14077591Y-37891088D01*
X14508612Y-37469000D01*
X15013413Y-37138668D01*
X15572759Y-36912677D01*
X16165345Y-36799636D01*
X16768610Y-36803847D01*
X16768610Y-36803847D01*
G37*
G36*
X8715043Y-37313507D02*
X9208015Y-37414700D01*
X9671956Y-37609723D01*
X10089175Y-37891141D01*
X10443788Y-38248237D01*
X10722285Y-38667410D01*
X10914062Y-39132695D01*
X11011743Y-39626022D01*
X11011743Y-39626032D01*
X11011810Y-39626371D01*
X11003784Y-40201186D01*
X11003707Y-40201524D01*
X11003707Y-40201533D01*
X10892289Y-40691942D01*
X10687598Y-41151687D01*
X10397502Y-41562922D01*
X10033056Y-41909980D01*
X9608142Y-42179639D01*
X9138940Y-42361630D01*
X8643331Y-42449020D01*
X8140181Y-42438480D01*
X7648661Y-42330412D01*
X7187494Y-42128933D01*
X6774247Y-41841719D01*
X6424654Y-41479705D01*
X6152035Y-41056682D01*
X5966771Y-40588759D01*
X5875925Y-40093776D01*
X5882950Y-39590565D01*
X5987585Y-39098302D01*
X6185838Y-38635741D01*
X6470163Y-38220495D01*
X6829726Y-37868385D01*
X7250837Y-37592818D01*
X7717450Y-37404294D01*
X8211791Y-37309994D01*
X8715043Y-37313507D01*
X8715043Y-37313507D01*
G37*
G36*
X11728020Y-40094177D02*
X11808537Y-40110704D01*
X11884297Y-40142552D01*
X11952437Y-40188513D01*
X12010353Y-40246833D01*
X12055837Y-40315293D01*
X12087157Y-40391282D01*
X12103051Y-40471552D01*
X12103051Y-40471566D01*
X12103118Y-40471905D01*
X12101807Y-40565781D01*
X12101731Y-40566115D01*
X12101731Y-40566128D01*
X12083600Y-40645932D01*
X12050172Y-40721013D01*
X12002794Y-40788174D01*
X11943273Y-40844856D01*
X11873877Y-40888896D01*
X11797250Y-40918617D01*
X11716311Y-40932889D01*
X11634136Y-40931167D01*
X11553863Y-40913519D01*
X11478545Y-40880613D01*
X11411059Y-40833709D01*
X11353964Y-40774586D01*
X11309441Y-40705498D01*
X11279182Y-40629075D01*
X11264347Y-40548242D01*
X11265494Y-40466058D01*
X11282583Y-40385662D01*
X11314960Y-40310119D01*
X11361396Y-40242302D01*
X11420117Y-40184798D01*
X11488893Y-40139793D01*
X11565099Y-40109003D01*
X11645830Y-40093603D01*
X11728020Y-40094177D01*
X11728020Y-40094177D01*
G37*
G36*
X17189520Y-35458677D02*
X17270037Y-35475204D01*
X17345797Y-35507052D01*
X17413937Y-35553013D01*
X17471853Y-35611333D01*
X17517337Y-35679793D01*
X17548657Y-35755782D01*
X17564551Y-35836052D01*
X17564551Y-35836066D01*
X17564618Y-35836405D01*
X17563307Y-35930281D01*
X17563231Y-35930615D01*
X17563231Y-35930628D01*
X17545100Y-36010432D01*
X17511672Y-36085513D01*
X17464294Y-36152674D01*
X17404773Y-36209356D01*
X17335377Y-36253396D01*
X17258750Y-36283117D01*
X17177811Y-36297389D01*
X17095636Y-36295667D01*
X17015363Y-36278019D01*
X16940045Y-36245113D01*
X16872559Y-36198209D01*
X16815464Y-36139086D01*
X16770941Y-36069998D01*
X16740682Y-35993575D01*
X16725847Y-35912742D01*
X16726994Y-35830558D01*
X16744083Y-35750162D01*
X16776460Y-35674619D01*
X16822896Y-35606802D01*
X16881617Y-35549298D01*
X16950393Y-35504293D01*
X17026599Y-35473503D01*
X17107330Y-35458103D01*
X17189520Y-35458677D01*
X17189520Y-35458677D01*
G37*
G36*
X16768610Y-28803847D02*
X17359555Y-28925151D01*
X17915698Y-29158932D01*
X18415834Y-29496278D01*
X18840921Y-29924343D01*
X19174766Y-30426821D01*
X19404656Y-30984576D01*
X19521764Y-31576014D01*
X19521764Y-31576024D01*
X19521831Y-31576363D01*
X19512210Y-32265416D01*
X19512133Y-32265754D01*
X19512133Y-32265762D01*
X19378557Y-32853701D01*
X19133185Y-33404816D01*
X18785437Y-33897778D01*
X18348562Y-34313809D01*
X17839200Y-34637061D01*
X17276754Y-34855219D01*
X16682647Y-34959976D01*
X16079503Y-34947342D01*
X15490300Y-34817797D01*
X14937482Y-34576277D01*
X14442107Y-34231982D01*
X14023037Y-33798023D01*
X13696238Y-33290930D01*
X13474156Y-32730014D01*
X13365255Y-32136658D01*
X13373677Y-31533441D01*
X13499106Y-30943347D01*
X13736759Y-30388858D01*
X14077591Y-29891088D01*
X14508612Y-29469000D01*
X15013413Y-29138668D01*
X15572759Y-28912677D01*
X16165345Y-28799636D01*
X16768610Y-28803847D01*
X16768610Y-28803847D01*
G37*
G36*
X8715043Y-29313507D02*
X9208015Y-29414700D01*
X9671956Y-29609723D01*
X10089175Y-29891141D01*
X10443788Y-30248237D01*
X10722285Y-30667410D01*
X10914062Y-31132695D01*
X11011743Y-31626022D01*
X11011743Y-31626032D01*
X11011810Y-31626371D01*
X11003784Y-32201186D01*
X11003707Y-32201524D01*
X11003707Y-32201533D01*
X10892289Y-32691942D01*
X10687598Y-33151687D01*
X10397502Y-33562922D01*
X10033056Y-33909980D01*
X9608142Y-34179639D01*
X9138940Y-34361630D01*
X8643331Y-34449020D01*
X8140181Y-34438480D01*
X7648661Y-34330412D01*
X7187494Y-34128933D01*
X6774247Y-33841719D01*
X6424654Y-33479705D01*
X6152035Y-33056682D01*
X5966771Y-32588759D01*
X5875925Y-32093776D01*
X5882950Y-31590565D01*
X5987585Y-31098302D01*
X6185838Y-30635741D01*
X6470163Y-30220495D01*
X6829726Y-29868385D01*
X7250837Y-29592818D01*
X7717450Y-29404294D01*
X8211791Y-29309994D01*
X8715043Y-29313507D01*
X8715043Y-29313507D01*
G37*
G36*
X11601020Y-31204177D02*
X11681537Y-31220704D01*
X11757297Y-31252552D01*
X11825437Y-31298513D01*
X11883353Y-31356833D01*
X11928837Y-31425293D01*
X11960157Y-31501282D01*
X11976051Y-31581552D01*
X11976051Y-31581566D01*
X11976118Y-31581905D01*
X11974807Y-31675781D01*
X11974731Y-31676115D01*
X11974731Y-31676128D01*
X11956600Y-31755932D01*
X11923172Y-31831013D01*
X11875794Y-31898174D01*
X11816273Y-31954856D01*
X11746877Y-31998896D01*
X11670250Y-32028617D01*
X11589311Y-32042889D01*
X11507136Y-32041167D01*
X11426863Y-32023519D01*
X11351545Y-31990613D01*
X11284059Y-31943709D01*
X11226964Y-31884586D01*
X11182441Y-31815498D01*
X11152182Y-31739075D01*
X11137347Y-31658242D01*
X11138494Y-31576058D01*
X11155583Y-31495662D01*
X11187960Y-31420119D01*
X11234396Y-31352302D01*
X11293117Y-31294798D01*
X11361893Y-31249793D01*
X11438099Y-31219003D01*
X11518830Y-31203603D01*
X11601020Y-31204177D01*
X11601020Y-31204177D01*
G37*
M02*
