%TF.GenerationSoftware,KiCad,Pcbnew,4.0.5-e0-6337~49~ubuntu16.04.1*%
%TF.CreationDate,2017-05-26T06:28:51-07:00*%
%TF.ProjectId,2x2-Slide-Switch-CL-SB-SMT,3278322D536C6964652D537769746368,v1.1*%
%TF.FileFunction,Legend,Top*%
%FSLAX46Y46*%
G04 Gerber Fmt 4.6, Leading zero omitted, Abs format (unit mm)*
G04 Created by KiCad (PCBNEW 4.0.5-e0-6337~49~ubuntu16.04.1) date Fri May 26 06:28:51 2017*
%MOMM*%
%LPD*%
G01*
G04 APERTURE LIST*
%ADD10C,0.350000*%
%ADD11C,0.500000*%
%ADD12C,0.150000*%
%ADD13C,0.600000*%
%ADD14R,1.752600X1.351280*%
%ADD15C,6.152400*%
G04 APERTURE END LIST*
D10*
D11*
X16384000Y-40195500D02*
X16384000Y-31432500D01*
D12*
X7445500Y-35393381D02*
X7635977Y-35393381D01*
X7731215Y-35441000D01*
X7826453Y-35536238D01*
X7874072Y-35726714D01*
X7874072Y-36060048D01*
X7826453Y-36250524D01*
X7731215Y-36345762D01*
X7635977Y-36393381D01*
X7445500Y-36393381D01*
X7350262Y-36345762D01*
X7255024Y-36250524D01*
X7207405Y-36060048D01*
X7207405Y-35726714D01*
X7255024Y-35536238D01*
X7350262Y-35441000D01*
X7445500Y-35393381D01*
X8302643Y-35393381D02*
X8302643Y-36202905D01*
X8350262Y-36298143D01*
X8397881Y-36345762D01*
X8493119Y-36393381D01*
X8683596Y-36393381D01*
X8778834Y-36345762D01*
X8826453Y-36298143D01*
X8874072Y-36202905D01*
X8874072Y-35393381D01*
X9207405Y-35393381D02*
X9778834Y-35393381D01*
X9493119Y-36393381D02*
X9493119Y-35393381D01*
X17430786Y-35488619D02*
X17478405Y-35441000D01*
X17573643Y-35393381D01*
X17811739Y-35393381D01*
X17906977Y-35441000D01*
X17954596Y-35488619D01*
X18002215Y-35583857D01*
X18002215Y-35679095D01*
X17954596Y-35821952D01*
X17383167Y-36393381D01*
X18002215Y-36393381D01*
X18780191Y-36393381D02*
X18780191Y-35393381D01*
X19256381Y-36393381D02*
X19256381Y-35393381D01*
X19827810Y-36393381D01*
X19827810Y-35393381D01*
X10906167Y-41679881D02*
X11525215Y-41679881D01*
X11191881Y-42060833D01*
X11334739Y-42060833D01*
X11429977Y-42108452D01*
X11477596Y-42156071D01*
X11525215Y-42251310D01*
X11525215Y-42489405D01*
X11477596Y-42584643D01*
X11429977Y-42632262D01*
X11334739Y-42679881D01*
X11049024Y-42679881D01*
X10953786Y-42632262D01*
X10906167Y-42584643D01*
X11525215Y-30233881D02*
X10953786Y-30233881D01*
X11239500Y-30233881D02*
X11239500Y-29233881D01*
X11144262Y-29376738D01*
X11049024Y-29471976D01*
X10953786Y-29519595D01*
%LPC*%
D13*
X8445500Y-37084000D02*
G75*
G03X8445500Y-42672000I0J-2794000D01*
G01*
X8445500Y-29083000D02*
G75*
G03X8445500Y-34671000I0J-2794000D01*
G01*
D14*
X11554460Y-33378140D03*
X14353540Y-35877500D03*
X11554460Y-38376860D03*
D15*
X16445500Y-31878000D03*
X16445500Y-39878000D03*
M02*
