G04 This is an RS-274x file exported by *
G04 gerbv version 2.6.0 *
G04 More information is available about gerbv at *
G04 http://gerbv.gpleda.org/ *
G04 --End of header info--*
%MOIN*%
%FSLAX34Y34*%
%IPPOS*%
G04 --Define apertures--*
%ADD10C,0.0138*%
%ADD11C,0.0016*%
%ADD12C,0.0059*%
G04 --Start main section--*
G54D11*
G01X0003901Y-014000D02*
G01X0005801Y-014000D01*
G01X0003901Y-010900D02*
G01X0003901Y-014000D01*
G01X0005801Y-010900D02*
G01X0003901Y-010900D01*
G01X0005076Y-013780D02*
G75*
G03X0005076Y-013780I-000195J0000000D01*
G01X0005051Y-011125D02*
G75*
G03X0005051Y-011125I-000177J0000000D01*
G01X0005801Y-010900D02*
G01X0005801Y-014000D01*
G01X0003101Y-009354D02*
G75*
G03X0001647Y-010890I0000042J-001496D01*
G01X0001644Y-014000D02*
G75*
G03X0003263Y-015496I0001501J0000000D01*
G01X0006251Y-015497D02*
G75*
G03X0007747Y-013961I0000000J0001497D01*
G01X0007747Y-010850D02*
G75*
G03X0006211Y-009354I-001497J0000000D01*
G01X0007747Y-010850D02*
G01X0007747Y-014000D01*
G01X0006290Y-009354D02*
G01X0003101Y-009354D01*
G01X0006329Y-015496D02*
G01X0003219Y-015496D01*
G01X0001644Y-010850D02*
G01X0001644Y-014000D01*
G54D12*
G01X0004351Y-012659D02*
G01X0004407Y-012678D01*
G01X0004407Y-012678D02*
G01X0004501Y-012678D01*
G01X0004501Y-012678D02*
G01X0004539Y-012659D01*
G01X0004539Y-012659D02*
G01X0004557Y-012641D01*
G01X0004557Y-012641D02*
G01X0004576Y-012603D01*
G01X0004576Y-012603D02*
G01X0004576Y-012566D01*
G01X0004576Y-012566D02*
G01X0004557Y-012528D01*
G01X0004557Y-012528D02*
G01X0004539Y-012509D01*
G01X0004539Y-012509D02*
G01X0004501Y-012491D01*
G01X0004501Y-012491D02*
G01X0004426Y-012472D01*
G01X0004426Y-012472D02*
G01X0004389Y-012453D01*
G01X0004389Y-012453D02*
G01X0004370Y-012434D01*
G01X0004370Y-012434D02*
G01X0004351Y-012397D01*
G01X0004351Y-012397D02*
G01X0004351Y-012359D01*
G01X0004351Y-012359D02*
G01X0004370Y-012322D01*
G01X0004370Y-012322D02*
G01X0004389Y-012303D01*
G01X0004389Y-012303D02*
G01X0004426Y-012284D01*
G01X0004426Y-012284D02*
G01X0004520Y-012284D01*
G01X0004520Y-012284D02*
G01X0004576Y-012303D01*
G01X0004707Y-012284D02*
G01X0004801Y-012678D01*
G01X0004801Y-012678D02*
G01X0004876Y-012397D01*
G01X0004876Y-012397D02*
G01X0004951Y-012678D01*
G01X0004951Y-012678D02*
G01X0005045Y-012284D01*
G01X0005401Y-012678D02*
G01X0005176Y-012678D01*
G01X0005288Y-012678D02*
G01X0005288Y-012284D01*
G01X0005288Y-012284D02*
G01X0005251Y-012341D01*
G01X0005251Y-012341D02*
G01X0005213Y-012378D01*
G01X0005213Y-012378D02*
G01X0005176Y-012397D01*
G01X0000000Y0000000D02*
G54D11*
G01X0003101Y-009354D02*
G75*
G03X0001647Y-010890I0000042J-001496D01*
G01X0001644Y-014000D02*
G75*
G03X0003263Y-015496I0001501J0000000D01*
G01X0006251Y-015497D02*
G75*
G03X0007747Y-013961I0000000J0001497D01*
G01X0007747Y-010850D02*
G75*
G03X0006211Y-009354I-001497J0000000D01*
G01X0007747Y-010850D02*
G01X0007747Y-014000D01*
G01X0006251Y-009354D02*
G01X0003101Y-009354D01*
G01X0006290Y-015496D02*
G01X0003219Y-015496D01*
G01X0001644Y-010850D02*
G01X0001644Y-014000D01*
M02*
