%TF.GenerationSoftware,KiCad,Pcbnew,4.0.5-e0-6337~49~ubuntu16.04.1*%
%TF.CreationDate,2017-02-13T23:15:32-08:00*%
%TF.ProjectId,2x3-6mm-Square-SMT-Pushbutton,3278332D366D6D2D5371756172652D53,1.0*%
%TF.FileFunction,Soldermask,Bot*%
%FSLAX46Y46*%
G04 Gerber Fmt 4.6, Leading zero omitted, Abs format (unit mm)*
G04 Created by KiCad (PCBNEW 4.0.5-e0-6337~49~ubuntu16.04.1) date Mon Feb 13 23:15:32 2017*
%MOMM*%
%LPD*%
G01*
G04 APERTURE LIST*
%ADD10C,0.350000*%
%ADD11C,7.200000*%
G04 APERTURE END LIST*
D10*
D11*
X39393800Y-56667400D02*
X23293800Y-56667400D01*
X39293800Y-48567400D02*
X23193800Y-48567400D01*
D10*
G36*
X23616910Y-53593247D02*
X24207855Y-53714551D01*
X24763998Y-53948332D01*
X25264134Y-54285678D01*
X25689221Y-54713743D01*
X26023066Y-55216221D01*
X26252956Y-55773976D01*
X26370064Y-56365414D01*
X26370064Y-56365424D01*
X26370131Y-56365763D01*
X26360510Y-57054816D01*
X26360433Y-57055154D01*
X26360433Y-57055162D01*
X26226857Y-57643101D01*
X25981485Y-58194216D01*
X25633737Y-58687178D01*
X25196862Y-59103209D01*
X24687500Y-59426461D01*
X24125054Y-59644619D01*
X23530947Y-59749376D01*
X22927803Y-59736742D01*
X22338600Y-59607197D01*
X21785782Y-59365677D01*
X21290407Y-59021382D01*
X20871337Y-58587423D01*
X20544538Y-58080330D01*
X20322456Y-57519414D01*
X20213555Y-56926058D01*
X20221977Y-56322841D01*
X20347406Y-55732747D01*
X20585059Y-55178258D01*
X20925891Y-54680488D01*
X21356912Y-54258400D01*
X21861713Y-53928068D01*
X22421059Y-53702077D01*
X23013645Y-53589036D01*
X23616910Y-53593247D01*
X23616910Y-53593247D01*
G37*
G36*
X31616910Y-53593247D02*
X32207855Y-53714551D01*
X32763998Y-53948332D01*
X33264134Y-54285678D01*
X33689221Y-54713743D01*
X34023066Y-55216221D01*
X34252956Y-55773976D01*
X34370064Y-56365414D01*
X34370064Y-56365424D01*
X34370131Y-56365763D01*
X34360510Y-57054816D01*
X34360433Y-57055154D01*
X34360433Y-57055162D01*
X34226857Y-57643101D01*
X33981485Y-58194216D01*
X33633737Y-58687178D01*
X33196862Y-59103209D01*
X32687500Y-59426461D01*
X32125054Y-59644619D01*
X31530947Y-59749376D01*
X30927803Y-59736742D01*
X30338600Y-59607197D01*
X29785782Y-59365677D01*
X29290407Y-59021382D01*
X28871337Y-58587423D01*
X28544538Y-58080330D01*
X28322456Y-57519414D01*
X28213555Y-56926058D01*
X28221977Y-56322841D01*
X28347406Y-55732747D01*
X28585059Y-55178258D01*
X28925891Y-54680488D01*
X29356912Y-54258400D01*
X29861713Y-53928068D01*
X30421059Y-53702077D01*
X31013645Y-53589036D01*
X31616910Y-53593247D01*
X31616910Y-53593247D01*
G37*
G36*
X39616910Y-53593247D02*
X40207855Y-53714551D01*
X40763998Y-53948332D01*
X41264134Y-54285678D01*
X41689221Y-54713743D01*
X42023066Y-55216221D01*
X42252956Y-55773976D01*
X42370064Y-56365414D01*
X42370064Y-56365424D01*
X42370131Y-56365763D01*
X42360510Y-57054816D01*
X42360433Y-57055154D01*
X42360433Y-57055162D01*
X42226857Y-57643101D01*
X41981485Y-58194216D01*
X41633737Y-58687178D01*
X41196862Y-59103209D01*
X40687500Y-59426461D01*
X40125054Y-59644619D01*
X39530947Y-59749376D01*
X38927803Y-59736742D01*
X38338600Y-59607197D01*
X37785782Y-59365677D01*
X37290407Y-59021382D01*
X36871337Y-58587423D01*
X36544538Y-58080330D01*
X36322456Y-57519414D01*
X36213555Y-56926058D01*
X36221977Y-56322841D01*
X36347406Y-55732747D01*
X36585059Y-55178258D01*
X36925891Y-54680488D01*
X37356912Y-54258400D01*
X37861713Y-53928068D01*
X38421059Y-53702077D01*
X39013645Y-53589036D01*
X39616910Y-53593247D01*
X39616910Y-53593247D01*
G37*
G36*
X23616910Y-45593247D02*
X24207855Y-45714551D01*
X24763998Y-45948332D01*
X25264134Y-46285678D01*
X25689221Y-46713743D01*
X26023066Y-47216221D01*
X26252956Y-47773976D01*
X26370064Y-48365414D01*
X26370064Y-48365424D01*
X26370131Y-48365763D01*
X26360510Y-49054816D01*
X26360433Y-49055154D01*
X26360433Y-49055162D01*
X26226857Y-49643101D01*
X25981485Y-50194216D01*
X25633737Y-50687178D01*
X25196862Y-51103209D01*
X24687500Y-51426461D01*
X24125054Y-51644619D01*
X23530947Y-51749376D01*
X22927803Y-51736742D01*
X22338600Y-51607197D01*
X21785782Y-51365677D01*
X21290407Y-51021382D01*
X20871337Y-50587423D01*
X20544538Y-50080330D01*
X20322456Y-49519414D01*
X20213555Y-48926058D01*
X20221977Y-48322841D01*
X20347406Y-47732747D01*
X20585059Y-47178258D01*
X20925891Y-46680488D01*
X21356912Y-46258400D01*
X21861713Y-45928068D01*
X22421059Y-45702077D01*
X23013645Y-45589036D01*
X23616910Y-45593247D01*
X23616910Y-45593247D01*
G37*
G36*
X31616910Y-45593247D02*
X32207855Y-45714551D01*
X32763998Y-45948332D01*
X33264134Y-46285678D01*
X33689221Y-46713743D01*
X34023066Y-47216221D01*
X34252956Y-47773976D01*
X34370064Y-48365414D01*
X34370064Y-48365424D01*
X34370131Y-48365763D01*
X34360510Y-49054816D01*
X34360433Y-49055154D01*
X34360433Y-49055162D01*
X34226857Y-49643101D01*
X33981485Y-50194216D01*
X33633737Y-50687178D01*
X33196862Y-51103209D01*
X32687500Y-51426461D01*
X32125054Y-51644619D01*
X31530947Y-51749376D01*
X30927803Y-51736742D01*
X30338600Y-51607197D01*
X29785782Y-51365677D01*
X29290407Y-51021382D01*
X28871337Y-50587423D01*
X28544538Y-50080330D01*
X28322456Y-49519414D01*
X28213555Y-48926058D01*
X28221977Y-48322841D01*
X28347406Y-47732747D01*
X28585059Y-47178258D01*
X28925891Y-46680488D01*
X29356912Y-46258400D01*
X29861713Y-45928068D01*
X30421059Y-45702077D01*
X31013645Y-45589036D01*
X31616910Y-45593247D01*
X31616910Y-45593247D01*
G37*
G36*
X39616910Y-45593247D02*
X40207855Y-45714551D01*
X40763998Y-45948332D01*
X41264134Y-46285678D01*
X41689221Y-46713743D01*
X42023066Y-47216221D01*
X42252956Y-47773976D01*
X42370064Y-48365414D01*
X42370064Y-48365424D01*
X42370131Y-48365763D01*
X42360510Y-49054816D01*
X42360433Y-49055154D01*
X42360433Y-49055162D01*
X42226857Y-49643101D01*
X41981485Y-50194216D01*
X41633737Y-50687178D01*
X41196862Y-51103209D01*
X40687500Y-51426461D01*
X40125054Y-51644619D01*
X39530947Y-51749376D01*
X38927803Y-51736742D01*
X38338600Y-51607197D01*
X37785782Y-51365677D01*
X37290407Y-51021382D01*
X36871337Y-50587423D01*
X36544538Y-50080330D01*
X36322456Y-49519414D01*
X36213555Y-48926058D01*
X36221977Y-48322841D01*
X36347406Y-47732747D01*
X36585059Y-47178258D01*
X36925891Y-46680488D01*
X37356912Y-46258400D01*
X37861713Y-45928068D01*
X38421059Y-45702077D01*
X39013645Y-45589036D01*
X39616910Y-45593247D01*
X39616910Y-45593247D01*
G37*
M02*
