G04 This is an RS-274x file exported by *
G04 gerbv version 2.6.0 *
G04 More information is available about gerbv at *
G04 http://gerbv.gpleda.org/ *
G04 --End of header info--*
%MOIN*%
%FSLAX34Y34*%
%IPPOS*%
G04 --Define apertures--*
%ADD10C,0.0050*%
%ADD11C,0.0079*%
%ADD12C,0.0118*%
%ADD13C,0.0138*%
%ADD14C,0.0016*%
%ADD15C,0.0100*%
G04 --Start main section--*
G54D11*
G01X0008190Y-018180D02*
G01X0010151Y-020141D01*
G01X0010151Y-018180D02*
G01X0008190Y-020141D01*
G01X0008190Y-021330D02*
G01X0010151Y-023290D01*
G01X0010151Y-021330D02*
G01X0008190Y-023290D01*
G01X0011340Y-018180D02*
G01X0013301Y-020141D01*
G01X0013301Y-018180D02*
G01X0011340Y-020141D01*
G01X0011340Y-021330D02*
G01X0013301Y-023290D01*
G01X0013301Y-021330D02*
G01X0011340Y-023290D01*
G01X0014490Y-018180D02*
G01X0016450Y-020141D01*
G01X0016450Y-018180D02*
G01X0014490Y-020141D01*
G01X0014490Y-021330D02*
G01X0016450Y-023290D01*
G01X0016450Y-021330D02*
G01X0014490Y-023290D01*
G54D12*
G01X0001069Y-001834D02*
G01X0001069Y-000652D01*
G01X0001069Y-000652D02*
G01X0001350Y-000652D01*
G01X0001350Y-000652D02*
G01X0001519Y-000709D01*
G01X0001519Y-000709D02*
G01X0001631Y-000821D01*
G01X0001631Y-000821D02*
G01X0001687Y-000934D01*
G01X0001687Y-000934D02*
G01X0001744Y-001159D01*
G01X0001744Y-001159D02*
G01X0001744Y-001327D01*
G01X0001744Y-001327D02*
G01X0001687Y-001552D01*
G01X0001687Y-001552D02*
G01X0001631Y-001665D01*
G01X0001631Y-001665D02*
G01X0001519Y-001777D01*
G01X0001519Y-001777D02*
G01X0001350Y-001834D01*
G01X0001350Y-001834D02*
G01X0001069Y-001834D01*
G01X0002250Y-001834D02*
G01X0002250Y-001046D01*
G01X0002250Y-001271D02*
G01X0002306Y-001159D01*
G01X0002306Y-001159D02*
G01X0002362Y-001102D01*
G01X0002362Y-001102D02*
G01X0002475Y-001046D01*
G01X0002475Y-001046D02*
G01X0002587Y-001046D01*
G01X0002981Y-001834D02*
G01X0002981Y-001046D01*
G01X0002981Y-000652D02*
G01X0002925Y-000709D01*
G01X0002925Y-000709D02*
G01X0002981Y-000765D01*
G01X0002981Y-000765D02*
G01X0003037Y-000709D01*
G01X0003037Y-000709D02*
G01X0002981Y-000652D01*
G01X0002981Y-000652D02*
G01X0002981Y-000765D01*
G01X0003712Y-001834D02*
G01X0003600Y-001777D01*
G01X0003600Y-001777D02*
G01X0003543Y-001665D01*
G01X0003543Y-001665D02*
G01X0003543Y-000652D01*
G01X0004331Y-001834D02*
G01X0004218Y-001777D01*
G01X0004218Y-001777D02*
G01X0004162Y-001665D01*
G01X0004162Y-001665D02*
G01X0004162Y-000652D01*
G01X0005681Y-001834D02*
G01X0005681Y-000652D01*
G01X0005681Y-000652D02*
G01X0006074Y-001496D01*
G01X0006074Y-001496D02*
G01X0006468Y-000652D01*
G01X0006468Y-000652D02*
G01X0006468Y-001834D01*
G01X0007537Y-001834D02*
G01X0007537Y-001215D01*
G01X0007537Y-001215D02*
G01X0007480Y-001102D01*
G01X0007480Y-001102D02*
G01X0007368Y-001046D01*
G01X0007368Y-001046D02*
G01X0007143Y-001046D01*
G01X0007143Y-001046D02*
G01X0007030Y-001102D01*
G01X0007537Y-001777D02*
G01X0007424Y-001834D01*
G01X0007424Y-001834D02*
G01X0007143Y-001834D01*
G01X0007143Y-001834D02*
G01X0007030Y-001777D01*
G01X0007030Y-001777D02*
G01X0006974Y-001665D01*
G01X0006974Y-001665D02*
G01X0006974Y-001552D01*
G01X0006974Y-001552D02*
G01X0007030Y-001440D01*
G01X0007030Y-001440D02*
G01X0007143Y-001384D01*
G01X0007143Y-001384D02*
G01X0007424Y-001384D01*
G01X0007424Y-001384D02*
G01X0007537Y-001327D01*
G01X0008099Y-001046D02*
G01X0008099Y-002227D01*
G01X0008099Y-001102D02*
G01X0008211Y-001046D01*
G01X0008211Y-001046D02*
G01X0008436Y-001046D01*
G01X0008436Y-001046D02*
G01X0008549Y-001102D01*
G01X0008549Y-001102D02*
G01X0008605Y-001159D01*
G01X0008605Y-001159D02*
G01X0008661Y-001271D01*
G01X0008661Y-001271D02*
G01X0008661Y-001609D01*
G01X0008661Y-001609D02*
G01X0008605Y-001721D01*
G01X0008605Y-001721D02*
G01X0008549Y-001777D01*
G01X0008549Y-001777D02*
G01X0008436Y-001834D01*
G01X0008436Y-001834D02*
G01X0008211Y-001834D01*
G01X0008211Y-001834D02*
G01X0008099Y-001777D01*
G01X0009168Y-001721D02*
G01X0009224Y-001777D01*
G01X0009224Y-001777D02*
G01X0009168Y-001834D01*
G01X0009168Y-001834D02*
G01X0009111Y-001777D01*
G01X0009111Y-001777D02*
G01X0009168Y-001721D01*
G01X0009168Y-001721D02*
G01X0009168Y-001834D01*
G01X0009168Y-001102D02*
G01X0009224Y-001159D01*
G01X0009224Y-001159D02*
G01X0009168Y-001215D01*
G01X0009168Y-001215D02*
G01X0009111Y-001159D01*
G01X0009111Y-001159D02*
G01X0009168Y-001102D01*
G01X0009168Y-001102D02*
G01X0009168Y-001215D01*
G01X-001961Y-002799D02*
G01X0000000Y-004760D01*
G01X0000000Y-002799D02*
G01X-001961Y-004760D01*
G01X0001575Y-003526D02*
G01X0001575Y-004314D01*
G01X0001294Y-003076D02*
G01X0001012Y-003920D01*
G01X0001012Y-003920D02*
G01X0001744Y-003920D01*
G01X0002193Y-004201D02*
G01X0002250Y-004258D01*
G01X0002250Y-004258D02*
G01X0002193Y-004314D01*
G01X0002193Y-004314D02*
G01X0002137Y-004258D01*
G01X0002137Y-004258D02*
G01X0002193Y-004201D01*
G01X0002193Y-004201D02*
G01X0002193Y-004314D01*
G01X0002812Y-004314D02*
G01X0003037Y-004314D01*
G01X0003037Y-004314D02*
G01X0003150Y-004258D01*
G01X0003150Y-004258D02*
G01X0003206Y-004201D01*
G01X0003206Y-004201D02*
G01X0003318Y-004033D01*
G01X0003318Y-004033D02*
G01X0003375Y-003808D01*
G01X0003375Y-003808D02*
G01X0003375Y-003358D01*
G01X0003375Y-003358D02*
G01X0003318Y-003245D01*
G01X0003318Y-003245D02*
G01X0003262Y-003189D01*
G01X0003262Y-003189D02*
G01X0003150Y-003133D01*
G01X0003150Y-003133D02*
G01X0002925Y-003133D01*
G01X0002925Y-003133D02*
G01X0002812Y-003189D01*
G01X0002812Y-003189D02*
G01X0002756Y-003245D01*
G01X0002756Y-003245D02*
G01X0002700Y-003358D01*
G01X0002700Y-003358D02*
G01X0002700Y-003639D01*
G01X0002700Y-003639D02*
G01X0002756Y-003751D01*
G01X0002756Y-003751D02*
G01X0002812Y-003808D01*
G01X0002812Y-003808D02*
G01X0002925Y-003864D01*
G01X0002925Y-003864D02*
G01X0003150Y-003864D01*
G01X0003150Y-003864D02*
G01X0003262Y-003808D01*
G01X0003262Y-003808D02*
G01X0003318Y-003751D01*
G01X0003318Y-003751D02*
G01X0003375Y-003639D01*
G01X0004049Y-003639D02*
G01X0003937Y-003583D01*
G01X0003937Y-003583D02*
G01X0003881Y-003526D01*
G01X0003881Y-003526D02*
G01X0003825Y-003414D01*
G01X0003825Y-003414D02*
G01X0003825Y-003358D01*
G01X0003825Y-003358D02*
G01X0003881Y-003245D01*
G01X0003881Y-003245D02*
G01X0003937Y-003189D01*
G01X0003937Y-003189D02*
G01X0004049Y-003133D01*
G01X0004049Y-003133D02*
G01X0004274Y-003133D01*
G01X0004274Y-003133D02*
G01X0004387Y-003189D01*
G01X0004387Y-003189D02*
G01X0004443Y-003245D01*
G01X0004443Y-003245D02*
G01X0004499Y-003358D01*
G01X0004499Y-003358D02*
G01X0004499Y-003414D01*
G01X0004499Y-003414D02*
G01X0004443Y-003526D01*
G01X0004443Y-003526D02*
G01X0004387Y-003583D01*
G01X0004387Y-003583D02*
G01X0004274Y-003639D01*
G01X0004274Y-003639D02*
G01X0004049Y-003639D01*
G01X0004049Y-003639D02*
G01X0003937Y-003695D01*
G01X0003937Y-003695D02*
G01X0003881Y-003751D01*
G01X0003881Y-003751D02*
G01X0003825Y-003864D01*
G01X0003825Y-003864D02*
G01X0003825Y-004089D01*
G01X0003825Y-004089D02*
G01X0003881Y-004201D01*
G01X0003881Y-004201D02*
G01X0003937Y-004258D01*
G01X0003937Y-004258D02*
G01X0004049Y-004314D01*
G01X0004049Y-004314D02*
G01X0004274Y-004314D01*
G01X0004274Y-004314D02*
G01X0004387Y-004258D01*
G01X0004387Y-004258D02*
G01X0004443Y-004201D01*
G01X0004443Y-004201D02*
G01X0004499Y-004089D01*
G01X0004499Y-004089D02*
G01X0004499Y-003864D01*
G01X0004499Y-003864D02*
G01X0004443Y-003751D01*
G01X0004443Y-003751D02*
G01X0004387Y-003695D01*
G01X0004387Y-003695D02*
G01X0004274Y-003639D01*
G01X0005006Y-004314D02*
G01X0005006Y-003526D01*
G01X0005006Y-003639D02*
G01X0005062Y-003583D01*
G01X0005062Y-003583D02*
G01X0005174Y-003526D01*
G01X0005174Y-003526D02*
G01X0005343Y-003526D01*
G01X0005343Y-003526D02*
G01X0005456Y-003583D01*
G01X0005456Y-003583D02*
G01X0005512Y-003695D01*
G01X0005512Y-003695D02*
G01X0005512Y-004314D01*
G01X0005512Y-003695D02*
G01X0005568Y-003583D01*
G01X0005568Y-003583D02*
G01X0005681Y-003526D01*
G01X0005681Y-003526D02*
G01X0005849Y-003526D01*
G01X0005849Y-003526D02*
G01X0005962Y-003583D01*
G01X0005962Y-003583D02*
G01X0006018Y-003695D01*
G01X0006018Y-003695D02*
G01X0006018Y-004314D01*
G01X0006580Y-004314D02*
G01X0006580Y-003526D01*
G01X0006580Y-003639D02*
G01X0006637Y-003583D01*
G01X0006637Y-003583D02*
G01X0006749Y-003526D01*
G01X0006749Y-003526D02*
G01X0006918Y-003526D01*
G01X0006918Y-003526D02*
G01X0007030Y-003583D01*
G01X0007030Y-003583D02*
G01X0007087Y-003695D01*
G01X0007087Y-003695D02*
G01X0007087Y-004314D01*
G01X0007087Y-003695D02*
G01X0007143Y-003583D01*
G01X0007143Y-003583D02*
G01X0007255Y-003526D01*
G01X0007255Y-003526D02*
G01X0007424Y-003526D01*
G01X0007424Y-003526D02*
G01X0007537Y-003583D01*
G01X0007537Y-003583D02*
G01X0007593Y-003695D01*
G01X0007593Y-003695D02*
G01X0007593Y-004314D01*
G01X0009899Y-003076D02*
G01X0008886Y-004595D01*
G01X0011417Y-003133D02*
G01X0011530Y-003133D01*
G01X0011530Y-003133D02*
G01X0011642Y-003189D01*
G01X0011642Y-003189D02*
G01X0011699Y-003245D01*
G01X0011699Y-003245D02*
G01X0011755Y-003358D01*
G01X0011755Y-003358D02*
G01X0011811Y-003583D01*
G01X0011811Y-003583D02*
G01X0011811Y-003864D01*
G01X0011811Y-003864D02*
G01X0011755Y-004089D01*
G01X0011755Y-004089D02*
G01X0011699Y-004201D01*
G01X0011699Y-004201D02*
G01X0011642Y-004258D01*
G01X0011642Y-004258D02*
G01X0011530Y-004314D01*
G01X0011530Y-004314D02*
G01X0011417Y-004314D01*
G01X0011417Y-004314D02*
G01X0011305Y-004258D01*
G01X0011305Y-004258D02*
G01X0011249Y-004201D01*
G01X0011249Y-004201D02*
G01X0011192Y-004089D01*
G01X0011192Y-004089D02*
G01X0011136Y-003864D01*
G01X0011136Y-003864D02*
G01X0011136Y-003583D01*
G01X0011136Y-003583D02*
G01X0011192Y-003358D01*
G01X0011192Y-003358D02*
G01X0011249Y-003245D01*
G01X0011249Y-003245D02*
G01X0011305Y-003189D01*
G01X0011305Y-003189D02*
G01X0011417Y-003133D01*
G01X0012317Y-004201D02*
G01X0012373Y-004258D01*
G01X0012373Y-004258D02*
G01X0012317Y-004314D01*
G01X0012317Y-004314D02*
G01X0012261Y-004258D01*
G01X0012261Y-004258D02*
G01X0012317Y-004201D01*
G01X0012317Y-004201D02*
G01X0012317Y-004314D01*
G01X0013498Y-004314D02*
G01X0012823Y-004314D01*
G01X0013161Y-004314D02*
G01X0013161Y-003133D01*
G01X0013161Y-003133D02*
G01X0013048Y-003301D01*
G01X0013048Y-003301D02*
G01X0012936Y-003414D01*
G01X0012936Y-003414D02*
G01X0012823Y-003470D01*
G01X0014061Y-004314D02*
G01X0014286Y-004314D01*
G01X0014286Y-004314D02*
G01X0014398Y-004258D01*
G01X0014398Y-004258D02*
G01X0014454Y-004201D01*
G01X0014454Y-004201D02*
G01X0014567Y-004033D01*
G01X0014567Y-004033D02*
G01X0014623Y-003808D01*
G01X0014623Y-003808D02*
G01X0014623Y-003358D01*
G01X0014623Y-003358D02*
G01X0014567Y-003245D01*
G01X0014567Y-003245D02*
G01X0014511Y-003189D01*
G01X0014511Y-003189D02*
G01X0014398Y-003133D01*
G01X0014398Y-003133D02*
G01X0014173Y-003133D01*
G01X0014173Y-003133D02*
G01X0014061Y-003189D01*
G01X0014061Y-003189D02*
G01X0014005Y-003245D01*
G01X0014005Y-003245D02*
G01X0013948Y-003358D01*
G01X0013948Y-003358D02*
G01X0013948Y-003639D01*
G01X0013948Y-003639D02*
G01X0014005Y-003751D01*
G01X0014005Y-003751D02*
G01X0014061Y-003808D01*
G01X0014061Y-003808D02*
G01X0014173Y-003864D01*
G01X0014173Y-003864D02*
G01X0014398Y-003864D01*
G01X0014398Y-003864D02*
G01X0014511Y-003808D01*
G01X0014511Y-003808D02*
G01X0014567Y-003751D01*
G01X0014567Y-003751D02*
G01X0014623Y-003639D01*
G01X0015636Y-003133D02*
G01X0015411Y-003133D01*
G01X0015411Y-003133D02*
G01X0015298Y-003189D01*
G01X0015298Y-003189D02*
G01X0015242Y-003245D01*
G01X0015242Y-003245D02*
G01X0015129Y-003414D01*
G01X0015129Y-003414D02*
G01X0015073Y-003639D01*
G01X0015073Y-003639D02*
G01X0015073Y-004089D01*
G01X0015073Y-004089D02*
G01X0015129Y-004201D01*
G01X0015129Y-004201D02*
G01X0015186Y-004258D01*
G01X0015186Y-004258D02*
G01X0015298Y-004314D01*
G01X0015298Y-004314D02*
G01X0015523Y-004314D01*
G01X0015523Y-004314D02*
G01X0015636Y-004258D01*
G01X0015636Y-004258D02*
G01X0015692Y-004201D01*
G01X0015692Y-004201D02*
G01X0015748Y-004089D01*
G01X0015748Y-004089D02*
G01X0015748Y-003808D01*
G01X0015748Y-003808D02*
G01X0015692Y-003695D01*
G01X0015692Y-003695D02*
G01X0015636Y-003639D01*
G01X0015636Y-003639D02*
G01X0015523Y-003583D01*
G01X0015523Y-003583D02*
G01X0015298Y-003583D01*
G01X0015298Y-003583D02*
G01X0015186Y-003639D01*
G01X0015186Y-003639D02*
G01X0015129Y-003695D01*
G01X0015129Y-003695D02*
G01X0015073Y-003808D01*
G01X0016198Y-003133D02*
G01X0016198Y-003358D01*
G01X0016648Y-003133D02*
G01X0016648Y-003358D01*
G01X0018391Y-004764D02*
G01X0018335Y-004708D01*
G01X0018335Y-004708D02*
G01X0018223Y-004539D01*
G01X0018223Y-004539D02*
G01X0018166Y-004426D01*
G01X0018166Y-004426D02*
G01X0018110Y-004258D01*
G01X0018110Y-004258D02*
G01X0018054Y-003976D01*
G01X0018054Y-003976D02*
G01X0018054Y-003751D01*
G01X0018054Y-003751D02*
G01X0018110Y-003470D01*
G01X0018110Y-003470D02*
G01X0018166Y-003301D01*
G01X0018166Y-003301D02*
G01X0018223Y-003189D01*
G01X0018223Y-003189D02*
G01X0018335Y-003020D01*
G01X0018335Y-003020D02*
G01X0018391Y-002964D01*
G01X0019348Y-003133D02*
G01X0019123Y-003133D01*
G01X0019123Y-003133D02*
G01X0019010Y-003189D01*
G01X0019010Y-003189D02*
G01X0018954Y-003245D01*
G01X0018954Y-003245D02*
G01X0018841Y-003414D01*
G01X0018841Y-003414D02*
G01X0018785Y-003639D01*
G01X0018785Y-003639D02*
G01X0018785Y-004089D01*
G01X0018785Y-004089D02*
G01X0018841Y-004201D01*
G01X0018841Y-004201D02*
G01X0018898Y-004258D01*
G01X0018898Y-004258D02*
G01X0019010Y-004314D01*
G01X0019010Y-004314D02*
G01X0019235Y-004314D01*
G01X0019235Y-004314D02*
G01X0019348Y-004258D01*
G01X0019348Y-004258D02*
G01X0019404Y-004201D01*
G01X0019404Y-004201D02*
G01X0019460Y-004089D01*
G01X0019460Y-004089D02*
G01X0019460Y-003808D01*
G01X0019460Y-003808D02*
G01X0019404Y-003695D01*
G01X0019404Y-003695D02*
G01X0019348Y-003639D01*
G01X0019348Y-003639D02*
G01X0019235Y-003583D01*
G01X0019235Y-003583D02*
G01X0019010Y-003583D01*
G01X0019010Y-003583D02*
G01X0018898Y-003639D01*
G01X0018898Y-003639D02*
G01X0018841Y-003695D01*
G01X0018841Y-003695D02*
G01X0018785Y-003808D01*
G01X0020866Y-004314D02*
G01X0020866Y-003133D01*
G01X0021372Y-004314D02*
G01X0021372Y-003695D01*
G01X0021372Y-003695D02*
G01X0021316Y-003583D01*
G01X0021316Y-003583D02*
G01X0021204Y-003526D01*
G01X0021204Y-003526D02*
G01X0021035Y-003526D01*
G01X0021035Y-003526D02*
G01X0020922Y-003583D01*
G01X0020922Y-003583D02*
G01X0020866Y-003639D01*
G01X0022103Y-004314D02*
G01X0021991Y-004258D01*
G01X0021991Y-004258D02*
G01X0021935Y-004201D01*
G01X0021935Y-004201D02*
G01X0021879Y-004089D01*
G01X0021879Y-004089D02*
G01X0021879Y-003751D01*
G01X0021879Y-003751D02*
G01X0021935Y-003639D01*
G01X0021935Y-003639D02*
G01X0021991Y-003583D01*
G01X0021991Y-003583D02*
G01X0022103Y-003526D01*
G01X0022103Y-003526D02*
G01X0022272Y-003526D01*
G01X0022272Y-003526D02*
G01X0022385Y-003583D01*
G01X0022385Y-003583D02*
G01X0022441Y-003639D01*
G01X0022441Y-003639D02*
G01X0022497Y-003751D01*
G01X0022497Y-003751D02*
G01X0022497Y-004089D01*
G01X0022497Y-004089D02*
G01X0022441Y-004201D01*
G01X0022441Y-004201D02*
G01X0022385Y-004258D01*
G01X0022385Y-004258D02*
G01X0022272Y-004314D01*
G01X0022272Y-004314D02*
G01X0022103Y-004314D01*
G01X0023172Y-004314D02*
G01X0023060Y-004258D01*
G01X0023060Y-004258D02*
G01X0023003Y-004145D01*
G01X0023003Y-004145D02*
G01X0023003Y-003133D01*
G01X0024072Y-004258D02*
G01X0023960Y-004314D01*
G01X0023960Y-004314D02*
G01X0023735Y-004314D01*
G01X0023735Y-004314D02*
G01X0023622Y-004258D01*
G01X0023622Y-004258D02*
G01X0023566Y-004145D01*
G01X0023566Y-004145D02*
G01X0023566Y-003695D01*
G01X0023566Y-003695D02*
G01X0023622Y-003583D01*
G01X0023622Y-003583D02*
G01X0023735Y-003526D01*
G01X0023735Y-003526D02*
G01X0023960Y-003526D01*
G01X0023960Y-003526D02*
G01X0024072Y-003583D01*
G01X0024072Y-003583D02*
G01X0024128Y-003695D01*
G01X0024128Y-003695D02*
G01X0024128Y-003808D01*
G01X0024128Y-003808D02*
G01X0023566Y-003920D01*
G01X0024578Y-004258D02*
G01X0024691Y-004314D01*
G01X0024691Y-004314D02*
G01X0024916Y-004314D01*
G01X0024916Y-004314D02*
G01X0025028Y-004258D01*
G01X0025028Y-004258D02*
G01X0025084Y-004145D01*
G01X0025084Y-004145D02*
G01X0025084Y-004089D01*
G01X0025084Y-004089D02*
G01X0025028Y-003976D01*
G01X0025028Y-003976D02*
G01X0024916Y-003920D01*
G01X0024916Y-003920D02*
G01X0024747Y-003920D01*
G01X0024747Y-003920D02*
G01X0024634Y-003864D01*
G01X0024634Y-003864D02*
G01X0024578Y-003751D01*
G01X0024578Y-003751D02*
G01X0024578Y-003695D01*
G01X0024578Y-003695D02*
G01X0024634Y-003583D01*
G01X0024634Y-003583D02*
G01X0024747Y-003526D01*
G01X0024747Y-003526D02*
G01X0024916Y-003526D01*
G01X0024916Y-003526D02*
G01X0025028Y-003583D01*
G01X0025478Y-004764D02*
G01X0025534Y-004708D01*
G01X0025534Y-004708D02*
G01X0025647Y-004539D01*
G01X0025647Y-004539D02*
G01X0025703Y-004426D01*
G01X0025703Y-004426D02*
G01X0025759Y-004258D01*
G01X0025759Y-004258D02*
G01X0025816Y-003976D01*
G01X0025816Y-003976D02*
G01X0025816Y-003751D01*
G01X0025816Y-003751D02*
G01X0025759Y-003470D01*
G01X0025759Y-003470D02*
G01X0025703Y-003301D01*
G01X0025703Y-003301D02*
G01X0025647Y-003189D01*
G01X0025647Y-003189D02*
G01X0025534Y-003020D01*
G01X0025534Y-003020D02*
G01X0025478Y-002964D01*
G01X0000000Y0000000D02*
G54D14*
G01X0009171Y-017664D02*
G75*
G03X0007717Y-019200I0000042J-001496D01*
G01X0007718Y-022310D02*
G75*
G03X0009171Y-023806I0001497J0000000D01*
G01X0015470Y-023807D02*
G75*
G03X0016966Y-022271I0000000J0001497D01*
G01X0016967Y-019160D02*
G75*
G03X0015431Y-017664I-001497J0000000D01*
G01X0016966Y-019160D02*
G01X0016966Y-022310D01*
G01X0015431Y-017664D02*
G01X0009171Y-017664D01*
G01X0015509Y-023806D02*
G01X0009171Y-023806D01*
G01X0007714Y-019160D02*
G01X0007714Y-022310D01*
G01X0000000Y0000000D02*
G54D15*
G01X0001821Y-033699D02*
G01X0001488Y-033699D01*
G01X0001488Y-034222D02*
G01X0001488Y-033222D01*
G01X0001488Y-033222D02*
G01X0001964Y-033222D01*
G01X0002298Y-033937D02*
G01X0002774Y-033937D01*
G01X0002202Y-034222D02*
G01X0002536Y-033222D01*
G01X0002536Y-033222D02*
G01X0002869Y-034222D01*
G01X0003536Y-033699D02*
G01X0003679Y-033746D01*
G01X0003679Y-033746D02*
G01X0003726Y-033794D01*
G01X0003726Y-033794D02*
G01X0003774Y-033889D01*
G01X0003774Y-033889D02*
G01X0003774Y-034032D01*
G01X0003774Y-034032D02*
G01X0003726Y-034127D01*
G01X0003726Y-034127D02*
G01X0003679Y-034175D01*
G01X0003679Y-034175D02*
G01X0003583Y-034222D01*
G01X0003583Y-034222D02*
G01X0003202Y-034222D01*
G01X0003202Y-034222D02*
G01X0003202Y-033222D01*
G01X0003202Y-033222D02*
G01X0003536Y-033222D01*
G01X0003536Y-033222D02*
G01X0003631Y-033270D01*
G01X0003631Y-033270D02*
G01X0003679Y-033318D01*
G01X0003679Y-033318D02*
G01X0003726Y-033413D01*
G01X0003726Y-033413D02*
G01X0003726Y-033508D01*
G01X0003726Y-033508D02*
G01X0003679Y-033603D01*
G01X0003679Y-033603D02*
G01X0003631Y-033651D01*
G01X0003631Y-033651D02*
G01X0003536Y-033699D01*
G01X0003536Y-033699D02*
G01X0003202Y-033699D01*
G01X0004774Y-034222D02*
G01X0004440Y-033746D01*
G01X0004202Y-034222D02*
G01X0004202Y-033222D01*
G01X0004202Y-033222D02*
G01X0004583Y-033222D01*
G01X0004583Y-033222D02*
G01X0004679Y-033270D01*
G01X0004679Y-033270D02*
G01X0004726Y-033318D01*
G01X0004726Y-033318D02*
G01X0004774Y-033413D01*
G01X0004774Y-033413D02*
G01X0004774Y-033556D01*
G01X0004774Y-033556D02*
G01X0004726Y-033651D01*
G01X0004726Y-033651D02*
G01X0004679Y-033699D01*
G01X0004679Y-033699D02*
G01X0004583Y-033746D01*
G01X0004583Y-033746D02*
G01X0004202Y-033746D01*
G01X0005202Y-034222D02*
G01X0005202Y-033222D01*
G01X0006250Y-034127D02*
G01X0006202Y-034175D01*
G01X0006202Y-034175D02*
G01X0006060Y-034222D01*
G01X0006060Y-034222D02*
G01X0005964Y-034222D01*
G01X0005964Y-034222D02*
G01X0005821Y-034175D01*
G01X0005821Y-034175D02*
G01X0005726Y-034080D01*
G01X0005726Y-034080D02*
G01X0005679Y-033984D01*
G01X0005679Y-033984D02*
G01X0005631Y-033794D01*
G01X0005631Y-033794D02*
G01X0005631Y-033651D01*
G01X0005631Y-033651D02*
G01X0005679Y-033460D01*
G01X0005679Y-033460D02*
G01X0005726Y-033365D01*
G01X0005726Y-033365D02*
G01X0005821Y-033270D01*
G01X0005821Y-033270D02*
G01X0005964Y-033222D01*
G01X0005964Y-033222D02*
G01X0006060Y-033222D01*
G01X0006060Y-033222D02*
G01X0006202Y-033270D01*
G01X0006202Y-033270D02*
G01X0006250Y-033318D01*
G01X0006631Y-033937D02*
G01X0007107Y-033937D01*
G01X0006536Y-034222D02*
G01X0006869Y-033222D01*
G01X0006869Y-033222D02*
G01X0007202Y-034222D01*
G01X0007393Y-033222D02*
G01X0007964Y-033222D01*
G01X0007679Y-034222D02*
G01X0007679Y-033222D01*
G01X0008298Y-034222D02*
G01X0008298Y-033222D01*
G01X0008964Y-033222D02*
G01X0009155Y-033222D01*
G01X0009155Y-033222D02*
G01X0009250Y-033270D01*
G01X0009250Y-033270D02*
G01X0009345Y-033365D01*
G01X0009345Y-033365D02*
G01X0009393Y-033556D01*
G01X0009393Y-033556D02*
G01X0009393Y-033889D01*
G01X0009393Y-033889D02*
G01X0009345Y-034080D01*
G01X0009345Y-034080D02*
G01X0009250Y-034175D01*
G01X0009250Y-034175D02*
G01X0009155Y-034222D01*
G01X0009155Y-034222D02*
G01X0008964Y-034222D01*
G01X0008964Y-034222D02*
G01X0008869Y-034175D01*
G01X0008869Y-034175D02*
G01X0008774Y-034080D01*
G01X0008774Y-034080D02*
G01X0008726Y-033889D01*
G01X0008726Y-033889D02*
G01X0008726Y-033556D01*
G01X0008726Y-033556D02*
G01X0008774Y-033365D01*
G01X0008774Y-033365D02*
G01X0008869Y-033270D01*
G01X0008869Y-033270D02*
G01X0008964Y-033222D01*
G01X0009821Y-034222D02*
G01X0009821Y-033222D01*
G01X0009821Y-033222D02*
G01X0010393Y-034222D01*
G01X0010393Y-034222D02*
G01X0010393Y-033222D01*
G01X0011631Y-034222D02*
G01X0011631Y-033222D01*
G01X0011631Y-033222D02*
G01X0012202Y-034222D01*
G01X0012202Y-034222D02*
G01X0012202Y-033222D01*
G01X0012869Y-033222D02*
G01X0013060Y-033222D01*
G01X0013060Y-033222D02*
G01X0013155Y-033270D01*
G01X0013155Y-033270D02*
G01X0013250Y-033365D01*
G01X0013250Y-033365D02*
G01X0013298Y-033556D01*
G01X0013298Y-033556D02*
G01X0013298Y-033889D01*
G01X0013298Y-033889D02*
G01X0013250Y-034080D01*
G01X0013250Y-034080D02*
G01X0013155Y-034175D01*
G01X0013155Y-034175D02*
G01X0013060Y-034222D01*
G01X0013060Y-034222D02*
G01X0012869Y-034222D01*
G01X0012869Y-034222D02*
G01X0012774Y-034175D01*
G01X0012774Y-034175D02*
G01X0012679Y-034080D01*
G01X0012679Y-034080D02*
G01X0012631Y-033889D01*
G01X0012631Y-033889D02*
G01X0012631Y-033556D01*
G01X0012631Y-033556D02*
G01X0012679Y-033365D01*
G01X0012679Y-033365D02*
G01X0012774Y-033270D01*
G01X0012774Y-033270D02*
G01X0012869Y-033222D01*
G01X0013583Y-033222D02*
G01X0014155Y-033222D01*
G01X0013869Y-034222D02*
G01X0013869Y-033222D01*
G01X0014488Y-033699D02*
G01X0014821Y-033699D01*
G01X0014964Y-034222D02*
G01X0014488Y-034222D01*
G01X0014488Y-034222D02*
G01X0014488Y-033222D01*
G01X0014488Y-033222D02*
G01X0014964Y-033222D01*
G01X0015345Y-034175D02*
G01X0015488Y-034222D01*
G01X0015488Y-034222D02*
G01X0015726Y-034222D01*
G01X0015726Y-034222D02*
G01X0015821Y-034175D01*
G01X0015821Y-034175D02*
G01X0015869Y-034127D01*
G01X0015869Y-034127D02*
G01X0015917Y-034032D01*
G01X0015917Y-034032D02*
G01X0015917Y-033937D01*
G01X0015917Y-033937D02*
G01X0015869Y-033841D01*
G01X0015869Y-033841D02*
G01X0015821Y-033794D01*
G01X0015821Y-033794D02*
G01X0015726Y-033746D01*
G01X0015726Y-033746D02*
G01X0015536Y-033699D01*
G01X0015536Y-033699D02*
G01X0015440Y-033651D01*
G01X0015440Y-033651D02*
G01X0015393Y-033603D01*
G01X0015393Y-033603D02*
G01X0015345Y-033508D01*
G01X0015345Y-033508D02*
G01X0015345Y-033413D01*
G01X0015345Y-033413D02*
G01X0015393Y-033318D01*
G01X0015393Y-033318D02*
G01X0015440Y-033270D01*
G01X0015440Y-033270D02*
G01X0015536Y-033222D01*
G01X0015536Y-033222D02*
G01X0015774Y-033222D01*
G01X0015774Y-033222D02*
G01X0015917Y-033270D01*
G01X0002012Y-037422D02*
G01X0001440Y-037422D01*
G01X0001726Y-037422D02*
G01X0001726Y-036422D01*
G01X0001726Y-036422D02*
G01X0001631Y-036565D01*
G01X0001631Y-036565D02*
G01X0001536Y-036660D01*
G01X0001536Y-036660D02*
G01X0001440Y-036708D01*
G01X0002440Y-037327D02*
G01X0002488Y-037375D01*
G01X0002488Y-037375D02*
G01X0002440Y-037422D01*
G01X0002440Y-037422D02*
G01X0002393Y-037375D01*
G01X0002393Y-037375D02*
G01X0002440Y-037327D01*
G01X0002440Y-037327D02*
G01X0002440Y-037422D01*
G01X0003536Y-036422D02*
G01X0004107Y-036422D01*
G01X0003821Y-037422D02*
G01X0003821Y-036422D01*
G01X0004440Y-037422D02*
G01X0004440Y-036422D01*
G01X0004440Y-036899D02*
G01X0005012Y-036899D01*
G01X0005012Y-037422D02*
G01X0005012Y-036422D01*
G01X0005488Y-037422D02*
G01X0005488Y-036422D01*
G01X0005917Y-037375D02*
G01X0006060Y-037422D01*
G01X0006060Y-037422D02*
G01X0006298Y-037422D01*
G01X0006298Y-037422D02*
G01X0006393Y-037375D01*
G01X0006393Y-037375D02*
G01X0006440Y-037327D01*
G01X0006440Y-037327D02*
G01X0006488Y-037232D01*
G01X0006488Y-037232D02*
G01X0006488Y-037137D01*
G01X0006488Y-037137D02*
G01X0006440Y-037041D01*
G01X0006440Y-037041D02*
G01X0006393Y-036994D01*
G01X0006393Y-036994D02*
G01X0006298Y-036946D01*
G01X0006298Y-036946D02*
G01X0006107Y-036899D01*
G01X0006107Y-036899D02*
G01X0006012Y-036851D01*
G01X0006012Y-036851D02*
G01X0005964Y-036803D01*
G01X0005964Y-036803D02*
G01X0005917Y-036708D01*
G01X0005917Y-036708D02*
G01X0005917Y-036613D01*
G01X0005917Y-036613D02*
G01X0005964Y-036518D01*
G01X0005964Y-036518D02*
G01X0006012Y-036470D01*
G01X0006012Y-036470D02*
G01X0006107Y-036422D01*
G01X0006107Y-036422D02*
G01X0006345Y-036422D01*
G01X0006345Y-036422D02*
G01X0006488Y-036470D01*
G01X0007679Y-037422D02*
G01X0007679Y-036422D01*
G01X0008107Y-037375D02*
G01X0008250Y-037422D01*
G01X0008250Y-037422D02*
G01X0008488Y-037422D01*
G01X0008488Y-037422D02*
G01X0008583Y-037375D01*
G01X0008583Y-037375D02*
G01X0008631Y-037327D01*
G01X0008631Y-037327D02*
G01X0008679Y-037232D01*
G01X0008679Y-037232D02*
G01X0008679Y-037137D01*
G01X0008679Y-037137D02*
G01X0008631Y-037041D01*
G01X0008631Y-037041D02*
G01X0008583Y-036994D01*
G01X0008583Y-036994D02*
G01X0008488Y-036946D01*
G01X0008488Y-036946D02*
G01X0008298Y-036899D01*
G01X0008298Y-036899D02*
G01X0008202Y-036851D01*
G01X0008202Y-036851D02*
G01X0008155Y-036803D01*
G01X0008155Y-036803D02*
G01X0008107Y-036708D01*
G01X0008107Y-036708D02*
G01X0008107Y-036613D01*
G01X0008107Y-036613D02*
G01X0008155Y-036518D01*
G01X0008155Y-036518D02*
G01X0008202Y-036470D01*
G01X0008202Y-036470D02*
G01X0008298Y-036422D01*
G01X0008298Y-036422D02*
G01X0008536Y-036422D01*
G01X0008536Y-036422D02*
G01X0008679Y-036470D01*
G01X0009821Y-037137D02*
G01X0010298Y-037137D01*
G01X0009726Y-037422D02*
G01X0010060Y-036422D01*
G01X0010060Y-036422D02*
G01X0010393Y-037422D01*
G01X0011440Y-036518D02*
G01X0011488Y-036470D01*
G01X0011488Y-036470D02*
G01X0011583Y-036422D01*
G01X0011583Y-036422D02*
G01X0011821Y-036422D01*
G01X0011821Y-036422D02*
G01X0011917Y-036470D01*
G01X0011917Y-036470D02*
G01X0011964Y-036518D01*
G01X0011964Y-036518D02*
G01X0012012Y-036613D01*
G01X0012012Y-036613D02*
G01X0012012Y-036708D01*
G01X0012012Y-036708D02*
G01X0011964Y-036851D01*
G01X0011964Y-036851D02*
G01X0011393Y-037422D01*
G01X0011393Y-037422D02*
G01X0012012Y-037422D01*
G01X0013679Y-037422D02*
G01X0013202Y-037422D01*
G01X0013202Y-037422D02*
G01X0013202Y-036422D01*
G01X0013964Y-037137D02*
G01X0014440Y-037137D01*
G01X0013869Y-037422D02*
G01X0014202Y-036422D01*
G01X0014202Y-036422D02*
G01X0014536Y-037422D01*
G01X0015060Y-036946D02*
G01X0015060Y-037422D01*
G01X0014726Y-036422D02*
G01X0015060Y-036946D01*
G01X0015060Y-036946D02*
G01X0015393Y-036422D01*
G01X0015726Y-036899D02*
G01X0016060Y-036899D01*
G01X0016202Y-037422D02*
G01X0015726Y-037422D01*
G01X0015726Y-037422D02*
G01X0015726Y-036422D01*
G01X0015726Y-036422D02*
G01X0016202Y-036422D01*
G01X0017202Y-037422D02*
G01X0016869Y-036946D01*
G01X0016631Y-037422D02*
G01X0016631Y-036422D01*
G01X0016631Y-036422D02*
G01X0017012Y-036422D01*
G01X0017012Y-036422D02*
G01X0017107Y-036470D01*
G01X0017107Y-036470D02*
G01X0017155Y-036518D01*
G01X0017155Y-036518D02*
G01X0017202Y-036613D01*
G01X0017202Y-036613D02*
G01X0017202Y-036756D01*
G01X0017202Y-036756D02*
G01X0017155Y-036851D01*
G01X0017155Y-036851D02*
G01X0017107Y-036899D01*
G01X0017107Y-036899D02*
G01X0017012Y-036946D01*
G01X0017012Y-036946D02*
G01X0016631Y-036946D01*
G01X0018726Y-036899D02*
G01X0018869Y-036946D01*
G01X0018869Y-036946D02*
G01X0018917Y-036994D01*
G01X0018917Y-036994D02*
G01X0018964Y-037089D01*
G01X0018964Y-037089D02*
G01X0018964Y-037232D01*
G01X0018964Y-037232D02*
G01X0018917Y-037327D01*
G01X0018917Y-037327D02*
G01X0018869Y-037375D01*
G01X0018869Y-037375D02*
G01X0018774Y-037422D01*
G01X0018774Y-037422D02*
G01X0018393Y-037422D01*
G01X0018393Y-037422D02*
G01X0018393Y-036422D01*
G01X0018393Y-036422D02*
G01X0018726Y-036422D01*
G01X0018726Y-036422D02*
G01X0018821Y-036470D01*
G01X0018821Y-036470D02*
G01X0018869Y-036518D01*
G01X0018869Y-036518D02*
G01X0018917Y-036613D01*
G01X0018917Y-036613D02*
G01X0018917Y-036708D01*
G01X0018917Y-036708D02*
G01X0018869Y-036803D01*
G01X0018869Y-036803D02*
G01X0018821Y-036851D01*
G01X0018821Y-036851D02*
G01X0018726Y-036899D01*
G01X0018726Y-036899D02*
G01X0018393Y-036899D01*
G01X0019583Y-036422D02*
G01X0019774Y-036422D01*
G01X0019774Y-036422D02*
G01X0019869Y-036470D01*
G01X0019869Y-036470D02*
G01X0019964Y-036565D01*
G01X0019964Y-036565D02*
G01X0020012Y-036756D01*
G01X0020012Y-036756D02*
G01X0020012Y-037089D01*
G01X0020012Y-037089D02*
G01X0019964Y-037280D01*
G01X0019964Y-037280D02*
G01X0019869Y-037375D01*
G01X0019869Y-037375D02*
G01X0019774Y-037422D01*
G01X0019774Y-037422D02*
G01X0019583Y-037422D01*
G01X0019583Y-037422D02*
G01X0019488Y-037375D01*
G01X0019488Y-037375D02*
G01X0019393Y-037280D01*
G01X0019393Y-037280D02*
G01X0019345Y-037089D01*
G01X0019345Y-037089D02*
G01X0019345Y-036756D01*
G01X0019345Y-036756D02*
G01X0019393Y-036565D01*
G01X0019393Y-036565D02*
G01X0019488Y-036470D01*
G01X0019488Y-036470D02*
G01X0019583Y-036422D01*
G01X0020393Y-037137D02*
G01X0020869Y-037137D01*
G01X0020298Y-037422D02*
G01X0020631Y-036422D01*
G01X0020631Y-036422D02*
G01X0020964Y-037422D01*
G01X0021869Y-037422D02*
G01X0021536Y-036946D01*
G01X0021298Y-037422D02*
G01X0021298Y-036422D01*
G01X0021298Y-036422D02*
G01X0021679Y-036422D01*
G01X0021679Y-036422D02*
G01X0021774Y-036470D01*
G01X0021774Y-036470D02*
G01X0021821Y-036518D01*
G01X0021821Y-036518D02*
G01X0021869Y-036613D01*
G01X0021869Y-036613D02*
G01X0021869Y-036756D01*
G01X0021869Y-036756D02*
G01X0021821Y-036851D01*
G01X0021821Y-036851D02*
G01X0021774Y-036899D01*
G01X0021774Y-036899D02*
G01X0021679Y-036946D01*
G01X0021679Y-036946D02*
G01X0021298Y-036946D01*
G01X0022298Y-037422D02*
G01X0022298Y-036422D01*
G01X0022298Y-036422D02*
G01X0022536Y-036422D01*
G01X0022536Y-036422D02*
G01X0022679Y-036470D01*
G01X0022679Y-036470D02*
G01X0022774Y-036565D01*
G01X0022774Y-036565D02*
G01X0022821Y-036660D01*
G01X0022821Y-036660D02*
G01X0022869Y-036851D01*
G01X0022869Y-036851D02*
G01X0022869Y-036994D01*
G01X0022869Y-036994D02*
G01X0022821Y-037184D01*
G01X0022821Y-037184D02*
G01X0022774Y-037280D01*
G01X0022774Y-037280D02*
G01X0022679Y-037375D01*
G01X0022679Y-037375D02*
G01X0022536Y-037422D01*
G01X0022536Y-037422D02*
G01X0022298Y-037422D01*
G01X0023298Y-037327D02*
G01X0023345Y-037375D01*
G01X0023345Y-037375D02*
G01X0023298Y-037422D01*
G01X0023298Y-037422D02*
G01X0023250Y-037375D01*
G01X0023250Y-037375D02*
G01X0023298Y-037327D01*
G01X0023298Y-037327D02*
G01X0023298Y-037422D01*
G01X0001440Y-038118D02*
G01X0001488Y-038070D01*
G01X0001488Y-038070D02*
G01X0001583Y-038022D01*
G01X0001583Y-038022D02*
G01X0001821Y-038022D01*
G01X0001821Y-038022D02*
G01X0001917Y-038070D01*
G01X0001917Y-038070D02*
G01X0001964Y-038118D01*
G01X0001964Y-038118D02*
G01X0002012Y-038213D01*
G01X0002012Y-038213D02*
G01X0002012Y-038308D01*
G01X0002012Y-038308D02*
G01X0001964Y-038451D01*
G01X0001964Y-038451D02*
G01X0001393Y-039022D01*
G01X0001393Y-039022D02*
G01X0002012Y-039022D01*
G01X0002440Y-038927D02*
G01X0002488Y-038975D01*
G01X0002488Y-038975D02*
G01X0002440Y-039022D01*
G01X0002440Y-039022D02*
G01X0002393Y-038975D01*
G01X0002393Y-038975D02*
G01X0002440Y-038927D01*
G01X0002440Y-038927D02*
G01X0002440Y-039022D01*
G01X0003679Y-038499D02*
G01X0004012Y-038499D01*
G01X0004155Y-039022D02*
G01X0003679Y-039022D01*
G01X0003679Y-039022D02*
G01X0003679Y-038022D01*
G01X0003679Y-038022D02*
G01X0004155Y-038022D01*
G01X0004488Y-038022D02*
G01X0005155Y-039022D01*
G01X0005155Y-038022D02*
G01X0004488Y-039022D01*
G01X0005393Y-038022D02*
G01X0005964Y-038022D01*
G01X0005679Y-039022D02*
G01X0005679Y-038022D01*
G01X0006298Y-038499D02*
G01X0006631Y-038499D01*
G01X0006774Y-039022D02*
G01X0006298Y-039022D01*
G01X0006298Y-039022D02*
G01X0006298Y-038022D01*
G01X0006298Y-038022D02*
G01X0006774Y-038022D01*
G01X0007774Y-039022D02*
G01X0007440Y-038546D01*
G01X0007202Y-039022D02*
G01X0007202Y-038022D01*
G01X0007202Y-038022D02*
G01X0007583Y-038022D01*
G01X0007583Y-038022D02*
G01X0007679Y-038070D01*
G01X0007679Y-038070D02*
G01X0007726Y-038118D01*
G01X0007726Y-038118D02*
G01X0007774Y-038213D01*
G01X0007774Y-038213D02*
G01X0007774Y-038356D01*
G01X0007774Y-038356D02*
G01X0007726Y-038451D01*
G01X0007726Y-038451D02*
G01X0007679Y-038499D01*
G01X0007679Y-038499D02*
G01X0007583Y-038546D01*
G01X0007583Y-038546D02*
G01X0007202Y-038546D01*
G01X0008202Y-039022D02*
G01X0008202Y-038022D01*
G01X0008202Y-038022D02*
G01X0008774Y-039022D01*
G01X0008774Y-039022D02*
G01X0008774Y-038022D01*
G01X0009202Y-038737D02*
G01X0009679Y-038737D01*
G01X0009107Y-039022D02*
G01X0009440Y-038022D01*
G01X0009440Y-038022D02*
G01X0009774Y-039022D01*
G01X0010583Y-039022D02*
G01X0010107Y-039022D01*
G01X0010107Y-039022D02*
G01X0010107Y-038022D01*
G01X0012155Y-039022D02*
G01X0011679Y-039022D01*
G01X0011679Y-039022D02*
G01X0011679Y-038022D01*
G01X0012440Y-038737D02*
G01X0012917Y-038737D01*
G01X0012345Y-039022D02*
G01X0012679Y-038022D01*
G01X0012679Y-038022D02*
G01X0013012Y-039022D01*
G01X0013536Y-038546D02*
G01X0013536Y-039022D01*
G01X0013202Y-038022D02*
G01X0013536Y-038546D01*
G01X0013536Y-038546D02*
G01X0013869Y-038022D01*
G01X0014202Y-038499D02*
G01X0014536Y-038499D01*
G01X0014679Y-039022D02*
G01X0014202Y-039022D01*
G01X0014202Y-039022D02*
G01X0014202Y-038022D01*
G01X0014202Y-038022D02*
G01X0014679Y-038022D01*
G01X0015679Y-039022D02*
G01X0015345Y-038546D01*
G01X0015107Y-039022D02*
G01X0015107Y-038022D01*
G01X0015107Y-038022D02*
G01X0015488Y-038022D01*
G01X0015488Y-038022D02*
G01X0015583Y-038070D01*
G01X0015583Y-038070D02*
G01X0015631Y-038118D01*
G01X0015631Y-038118D02*
G01X0015679Y-038213D01*
G01X0015679Y-038213D02*
G01X0015679Y-038356D01*
G01X0015679Y-038356D02*
G01X0015631Y-038451D01*
G01X0015631Y-038451D02*
G01X0015583Y-038499D01*
G01X0015583Y-038499D02*
G01X0015488Y-038546D01*
G01X0015488Y-038546D02*
G01X0015107Y-038546D01*
G01X0016060Y-038975D02*
G01X0016202Y-039022D01*
G01X0016202Y-039022D02*
G01X0016440Y-039022D01*
G01X0016440Y-039022D02*
G01X0016536Y-038975D01*
G01X0016536Y-038975D02*
G01X0016583Y-038927D01*
G01X0016583Y-038927D02*
G01X0016631Y-038832D01*
G01X0016631Y-038832D02*
G01X0016631Y-038737D01*
G01X0016631Y-038737D02*
G01X0016583Y-038641D01*
G01X0016583Y-038641D02*
G01X0016536Y-038594D01*
G01X0016536Y-038594D02*
G01X0016440Y-038546D01*
G01X0016440Y-038546D02*
G01X0016250Y-038499D01*
G01X0016250Y-038499D02*
G01X0016155Y-038451D01*
G01X0016155Y-038451D02*
G01X0016107Y-038403D01*
G01X0016107Y-038403D02*
G01X0016060Y-038308D01*
G01X0016060Y-038308D02*
G01X0016060Y-038213D01*
G01X0016060Y-038213D02*
G01X0016107Y-038118D01*
G01X0016107Y-038118D02*
G01X0016155Y-038070D01*
G01X0016155Y-038070D02*
G01X0016250Y-038022D01*
G01X0016250Y-038022D02*
G01X0016488Y-038022D01*
G01X0016488Y-038022D02*
G01X0016631Y-038070D01*
G01X0017774Y-038975D02*
G01X0017917Y-039022D01*
G01X0017917Y-039022D02*
G01X0018155Y-039022D01*
G01X0018155Y-039022D02*
G01X0018250Y-038975D01*
G01X0018250Y-038975D02*
G01X0018298Y-038927D01*
G01X0018298Y-038927D02*
G01X0018345Y-038832D01*
G01X0018345Y-038832D02*
G01X0018345Y-038737D01*
G01X0018345Y-038737D02*
G01X0018298Y-038641D01*
G01X0018298Y-038641D02*
G01X0018250Y-038594D01*
G01X0018250Y-038594D02*
G01X0018155Y-038546D01*
G01X0018155Y-038546D02*
G01X0017964Y-038499D01*
G01X0017964Y-038499D02*
G01X0017869Y-038451D01*
G01X0017869Y-038451D02*
G01X0017821Y-038403D01*
G01X0017821Y-038403D02*
G01X0017774Y-038308D01*
G01X0017774Y-038308D02*
G01X0017774Y-038213D01*
G01X0017774Y-038213D02*
G01X0017821Y-038118D01*
G01X0017821Y-038118D02*
G01X0017869Y-038070D01*
G01X0017869Y-038070D02*
G01X0017964Y-038022D01*
G01X0017964Y-038022D02*
G01X0018202Y-038022D01*
G01X0018202Y-038022D02*
G01X0018345Y-038070D01*
G01X0018774Y-039022D02*
G01X0018774Y-038022D01*
G01X0018774Y-038499D02*
G01X0019345Y-038499D01*
G01X0019345Y-039022D02*
G01X0019345Y-038022D01*
G01X0019774Y-038737D02*
G01X0020250Y-038737D01*
G01X0019679Y-039022D02*
G01X0020012Y-038022D01*
G01X0020012Y-038022D02*
G01X0020345Y-039022D01*
G01X0021155Y-039022D02*
G01X0020679Y-039022D01*
G01X0020679Y-039022D02*
G01X0020679Y-038022D01*
G01X0021964Y-039022D02*
G01X0021488Y-039022D01*
G01X0021488Y-039022D02*
G01X0021488Y-038022D01*
G01X0023060Y-039022D02*
G01X0023060Y-038022D01*
G01X0023060Y-038499D02*
G01X0023631Y-038499D01*
G01X0023631Y-039022D02*
G01X0023631Y-038022D01*
G01X0024060Y-038737D02*
G01X0024536Y-038737D01*
G01X0023964Y-039022D02*
G01X0024298Y-038022D01*
G01X0024298Y-038022D02*
G01X0024631Y-039022D01*
G01X0024821Y-038022D02*
G01X0025155Y-039022D01*
G01X0025155Y-039022D02*
G01X0025488Y-038022D01*
G01X0025821Y-038499D02*
G01X0026155Y-038499D01*
G01X0026298Y-039022D02*
G01X0025821Y-039022D01*
G01X0025821Y-039022D02*
G01X0025821Y-038022D01*
G01X0025821Y-038022D02*
G01X0026298Y-038022D01*
G01X0028012Y-039022D02*
G01X0027440Y-039022D01*
G01X0027726Y-039022D02*
G01X0027726Y-038022D01*
G01X0027726Y-038022D02*
G01X0027631Y-038165D01*
G01X0027631Y-038165D02*
G01X0027536Y-038260D01*
G01X0027536Y-038260D02*
G01X0027440Y-038308D01*
G01X0029393Y-038022D02*
G01X0029583Y-038022D01*
G01X0029583Y-038022D02*
G01X0029679Y-038070D01*
G01X0029679Y-038070D02*
G01X0029774Y-038165D01*
G01X0029774Y-038165D02*
G01X0029821Y-038356D01*
G01X0029821Y-038356D02*
G01X0029821Y-038689D01*
G01X0029821Y-038689D02*
G01X0029774Y-038880D01*
G01X0029774Y-038880D02*
G01X0029679Y-038975D01*
G01X0029679Y-038975D02*
G01X0029583Y-039022D01*
G01X0029583Y-039022D02*
G01X0029393Y-039022D01*
G01X0029393Y-039022D02*
G01X0029298Y-038975D01*
G01X0029298Y-038975D02*
G01X0029202Y-038880D01*
G01X0029202Y-038880D02*
G01X0029155Y-038689D01*
G01X0029155Y-038689D02*
G01X0029155Y-038356D01*
G01X0029155Y-038356D02*
G01X0029202Y-038165D01*
G01X0029202Y-038165D02*
G01X0029298Y-038070D01*
G01X0029298Y-038070D02*
G01X0029393Y-038022D01*
G01X0030155Y-038022D02*
G01X0030821Y-038022D01*
G01X0030821Y-038022D02*
G01X0030155Y-039022D01*
G01X0030155Y-039022D02*
G01X0030821Y-039022D01*
G01X0032536Y-038927D02*
G01X0032488Y-038975D01*
G01X0032488Y-038975D02*
G01X0032345Y-039022D01*
G01X0032345Y-039022D02*
G01X0032250Y-039022D01*
G01X0032250Y-039022D02*
G01X0032107Y-038975D01*
G01X0032107Y-038975D02*
G01X0032012Y-038880D01*
G01X0032012Y-038880D02*
G01X0031964Y-038784D01*
G01X0031964Y-038784D02*
G01X0031917Y-038594D01*
G01X0031917Y-038594D02*
G01X0031917Y-038451D01*
G01X0031917Y-038451D02*
G01X0031964Y-038260D01*
G01X0031964Y-038260D02*
G01X0032012Y-038165D01*
G01X0032012Y-038165D02*
G01X0032107Y-038070D01*
G01X0032107Y-038070D02*
G01X0032250Y-038022D01*
G01X0032250Y-038022D02*
G01X0032345Y-038022D01*
G01X0032345Y-038022D02*
G01X0032488Y-038070D01*
G01X0032488Y-038070D02*
G01X0032536Y-038118D01*
G01X0033155Y-038022D02*
G01X0033345Y-038022D01*
G01X0033345Y-038022D02*
G01X0033440Y-038070D01*
G01X0033440Y-038070D02*
G01X0033536Y-038165D01*
G01X0033536Y-038165D02*
G01X0033583Y-038356D01*
G01X0033583Y-038356D02*
G01X0033583Y-038689D01*
G01X0033583Y-038689D02*
G01X0033536Y-038880D01*
G01X0033536Y-038880D02*
G01X0033440Y-038975D01*
G01X0033440Y-038975D02*
G01X0033345Y-039022D01*
G01X0033345Y-039022D02*
G01X0033155Y-039022D01*
G01X0033155Y-039022D02*
G01X0033060Y-038975D01*
G01X0033060Y-038975D02*
G01X0032964Y-038880D01*
G01X0032964Y-038880D02*
G01X0032917Y-038689D01*
G01X0032917Y-038689D02*
G01X0032917Y-038356D01*
G01X0032917Y-038356D02*
G01X0032964Y-038165D01*
G01X0032964Y-038165D02*
G01X0033060Y-038070D01*
G01X0033060Y-038070D02*
G01X0033155Y-038022D01*
G01X0034012Y-039022D02*
G01X0034012Y-038022D01*
G01X0034012Y-038022D02*
G01X0034393Y-038022D01*
G01X0034393Y-038022D02*
G01X0034488Y-038070D01*
G01X0034488Y-038070D02*
G01X0034536Y-038118D01*
G01X0034536Y-038118D02*
G01X0034583Y-038213D01*
G01X0034583Y-038213D02*
G01X0034583Y-038356D01*
G01X0034583Y-038356D02*
G01X0034536Y-038451D01*
G01X0034536Y-038451D02*
G01X0034488Y-038499D01*
G01X0034488Y-038499D02*
G01X0034393Y-038546D01*
G01X0034393Y-038546D02*
G01X0034012Y-038546D01*
G01X0035012Y-039022D02*
G01X0035012Y-038022D01*
G01X0035012Y-038022D02*
G01X0035393Y-038022D01*
G01X0035393Y-038022D02*
G01X0035488Y-038070D01*
G01X0035488Y-038070D02*
G01X0035536Y-038118D01*
G01X0035536Y-038118D02*
G01X0035583Y-038213D01*
G01X0035583Y-038213D02*
G01X0035583Y-038356D01*
G01X0035583Y-038356D02*
G01X0035536Y-038451D01*
G01X0035536Y-038451D02*
G01X0035488Y-038499D01*
G01X0035488Y-038499D02*
G01X0035393Y-038546D01*
G01X0035393Y-038546D02*
G01X0035012Y-038546D01*
G01X0036012Y-038499D02*
G01X0036345Y-038499D01*
G01X0036488Y-039022D02*
G01X0036012Y-039022D01*
G01X0036012Y-039022D02*
G01X0036012Y-038022D01*
G01X0036012Y-038022D02*
G01X0036488Y-038022D01*
G01X0037488Y-039022D02*
G01X0037155Y-038546D01*
G01X0036917Y-039022D02*
G01X0036917Y-038022D01*
G01X0036917Y-038022D02*
G01X0037298Y-038022D01*
G01X0037298Y-038022D02*
G01X0037393Y-038070D01*
G01X0037393Y-038070D02*
G01X0037440Y-038118D01*
G01X0037440Y-038118D02*
G01X0037488Y-038213D01*
G01X0037488Y-038213D02*
G01X0037488Y-038356D01*
G01X0037488Y-038356D02*
G01X0037440Y-038451D01*
G01X0037440Y-038451D02*
G01X0037393Y-038499D01*
G01X0037393Y-038499D02*
G01X0037298Y-038546D01*
G01X0037298Y-038546D02*
G01X0036917Y-038546D01*
G01X0037917Y-038927D02*
G01X0037964Y-038975D01*
G01X0037964Y-038975D02*
G01X0037917Y-039022D01*
G01X0037917Y-039022D02*
G01X0037869Y-038975D01*
G01X0037869Y-038975D02*
G01X0037917Y-038927D01*
G01X0037917Y-038927D02*
G01X0037917Y-039022D01*
G01X0001393Y-039622D02*
G01X0002012Y-039622D01*
G01X0002012Y-039622D02*
G01X0001679Y-040003D01*
G01X0001679Y-040003D02*
G01X0001821Y-040003D01*
G01X0001821Y-040003D02*
G01X0001917Y-040051D01*
G01X0001917Y-040051D02*
G01X0001964Y-040099D01*
G01X0001964Y-040099D02*
G01X0002012Y-040194D01*
G01X0002012Y-040194D02*
G01X0002012Y-040432D01*
G01X0002012Y-040432D02*
G01X0001964Y-040527D01*
G01X0001964Y-040527D02*
G01X0001917Y-040575D01*
G01X0001917Y-040575D02*
G01X0001821Y-040622D01*
G01X0001821Y-040622D02*
G01X0001536Y-040622D01*
G01X0001536Y-040622D02*
G01X0001440Y-040575D01*
G01X0001440Y-040575D02*
G01X0001393Y-040527D01*
G01X0002440Y-040527D02*
G01X0002488Y-040575D01*
G01X0002488Y-040575D02*
G01X0002440Y-040622D01*
G01X0002440Y-040622D02*
G01X0002393Y-040575D01*
G01X0002393Y-040575D02*
G01X0002440Y-040527D01*
G01X0002440Y-040527D02*
G01X0002440Y-040622D01*
G01X0003679Y-040622D02*
G01X0003679Y-039622D01*
G01X0003679Y-039622D02*
G01X0004012Y-040337D01*
G01X0004012Y-040337D02*
G01X0004345Y-039622D01*
G01X0004345Y-039622D02*
G01X0004345Y-040622D01*
G01X0004774Y-040337D02*
G01X0005250Y-040337D01*
G01X0004679Y-040622D02*
G01X0005012Y-039622D01*
G01X0005012Y-039622D02*
G01X0005345Y-040622D01*
G01X0005536Y-039622D02*
G01X0006107Y-039622D01*
G01X0005821Y-040622D02*
G01X0005821Y-039622D01*
G01X0006440Y-040099D02*
G01X0006774Y-040099D01*
G01X0006917Y-040622D02*
G01X0006440Y-040622D01*
G01X0006440Y-040622D02*
G01X0006440Y-039622D01*
G01X0006440Y-039622D02*
G01X0006917Y-039622D01*
G01X0007917Y-040622D02*
G01X0007583Y-040146D01*
G01X0007345Y-040622D02*
G01X0007345Y-039622D01*
G01X0007345Y-039622D02*
G01X0007726Y-039622D01*
G01X0007726Y-039622D02*
G01X0007821Y-039670D01*
G01X0007821Y-039670D02*
G01X0007869Y-039718D01*
G01X0007869Y-039718D02*
G01X0007917Y-039813D01*
G01X0007917Y-039813D02*
G01X0007917Y-039956D01*
G01X0007917Y-039956D02*
G01X0007869Y-040051D01*
G01X0007869Y-040051D02*
G01X0007821Y-040099D01*
G01X0007821Y-040099D02*
G01X0007726Y-040146D01*
G01X0007726Y-040146D02*
G01X0007345Y-040146D01*
G01X0008345Y-040622D02*
G01X0008345Y-039622D01*
G01X0008774Y-040337D02*
G01X0009250Y-040337D01*
G01X0008679Y-040622D02*
G01X0009012Y-039622D01*
G01X0009012Y-039622D02*
G01X0009345Y-040622D01*
G01X0010155Y-040622D02*
G01X0009679Y-040622D01*
G01X0009679Y-040622D02*
G01X0009679Y-039622D01*
G01X0010488Y-040527D02*
G01X0010536Y-040575D01*
G01X0010536Y-040575D02*
G01X0010488Y-040622D01*
G01X0010488Y-040622D02*
G01X0010440Y-040575D01*
G01X0010440Y-040575D02*
G01X0010488Y-040527D01*
G01X0010488Y-040527D02*
G01X0010488Y-040622D01*
G01X0010488Y-040003D02*
G01X0010536Y-040051D01*
G01X0010536Y-040051D02*
G01X0010488Y-040099D01*
G01X0010488Y-040099D02*
G01X0010440Y-040051D01*
G01X0010440Y-040051D02*
G01X0010488Y-040003D01*
G01X0010488Y-040003D02*
G01X0010488Y-040099D01*
G01X0012060Y-040099D02*
G01X0011726Y-040099D01*
G01X0011726Y-040622D02*
G01X0011726Y-039622D01*
G01X0011726Y-039622D02*
G01X0012202Y-039622D01*
G01X0013155Y-040622D02*
G01X0012821Y-040146D01*
G01X0012583Y-040622D02*
G01X0012583Y-039622D01*
G01X0012583Y-039622D02*
G01X0012964Y-039622D01*
G01X0012964Y-039622D02*
G01X0013060Y-039670D01*
G01X0013060Y-039670D02*
G01X0013107Y-039718D01*
G01X0013107Y-039718D02*
G01X0013155Y-039813D01*
G01X0013155Y-039813D02*
G01X0013155Y-039956D01*
G01X0013155Y-039956D02*
G01X0013107Y-040051D01*
G01X0013107Y-040051D02*
G01X0013060Y-040099D01*
G01X0013060Y-040099D02*
G01X0012964Y-040146D01*
G01X0012964Y-040146D02*
G01X0012583Y-040146D01*
G01X0014012Y-039956D02*
G01X0014012Y-040622D01*
G01X0013774Y-039575D02*
G01X0013536Y-040289D01*
G01X0013536Y-040289D02*
G01X0014155Y-040289D01*
G01X0015250Y-040337D02*
G01X0015726Y-040337D01*
G01X0015155Y-040622D02*
G01X0015488Y-039622D01*
G01X0015488Y-039622D02*
G01X0015821Y-040622D01*
G01X0016155Y-040622D02*
G01X0016155Y-039622D01*
G01X0016155Y-039622D02*
G01X0016726Y-040622D01*
G01X0016726Y-040622D02*
G01X0016726Y-039622D01*
G01X0017202Y-040622D02*
G01X0017202Y-039622D01*
G01X0017202Y-039622D02*
G01X0017440Y-039622D01*
G01X0017440Y-039622D02*
G01X0017583Y-039670D01*
G01X0017583Y-039670D02*
G01X0017679Y-039765D01*
G01X0017679Y-039765D02*
G01X0017726Y-039860D01*
G01X0017726Y-039860D02*
G01X0017774Y-040051D01*
G01X0017774Y-040051D02*
G01X0017774Y-040194D01*
G01X0017774Y-040194D02*
G01X0017726Y-040384D01*
G01X0017726Y-040384D02*
G01X0017679Y-040480D01*
G01X0017679Y-040480D02*
G01X0017583Y-040575D01*
G01X0017583Y-040575D02*
G01X0017440Y-040622D01*
G01X0017440Y-040622D02*
G01X0017202Y-040622D01*
G01X0019155Y-039622D02*
G01X0019250Y-039622D01*
G01X0019250Y-039622D02*
G01X0019345Y-039670D01*
G01X0019345Y-039670D02*
G01X0019393Y-039718D01*
G01X0019393Y-039718D02*
G01X0019440Y-039813D01*
G01X0019440Y-039813D02*
G01X0019488Y-040003D01*
G01X0019488Y-040003D02*
G01X0019488Y-040241D01*
G01X0019488Y-040241D02*
G01X0019440Y-040432D01*
G01X0019440Y-040432D02*
G01X0019393Y-040527D01*
G01X0019393Y-040527D02*
G01X0019345Y-040575D01*
G01X0019345Y-040575D02*
G01X0019250Y-040622D01*
G01X0019250Y-040622D02*
G01X0019155Y-040622D01*
G01X0019155Y-040622D02*
G01X0019060Y-040575D01*
G01X0019060Y-040575D02*
G01X0019012Y-040527D01*
G01X0019012Y-040527D02*
G01X0018964Y-040432D01*
G01X0018964Y-040432D02*
G01X0018917Y-040241D01*
G01X0018917Y-040241D02*
G01X0018917Y-040003D01*
G01X0018917Y-040003D02*
G01X0018964Y-039813D01*
G01X0018964Y-039813D02*
G01X0019012Y-039718D01*
G01X0019012Y-039718D02*
G01X0019060Y-039670D01*
G01X0019060Y-039670D02*
G01X0019155Y-039622D01*
G01X0019917Y-040527D02*
G01X0019964Y-040575D01*
G01X0019964Y-040575D02*
G01X0019917Y-040622D01*
G01X0019917Y-040622D02*
G01X0019869Y-040575D01*
G01X0019869Y-040575D02*
G01X0019917Y-040527D01*
G01X0019917Y-040527D02*
G01X0019917Y-040622D01*
G01X0020583Y-039622D02*
G01X0020679Y-039622D01*
G01X0020679Y-039622D02*
G01X0020774Y-039670D01*
G01X0020774Y-039670D02*
G01X0020821Y-039718D01*
G01X0020821Y-039718D02*
G01X0020869Y-039813D01*
G01X0020869Y-039813D02*
G01X0020917Y-040003D01*
G01X0020917Y-040003D02*
G01X0020917Y-040241D01*
G01X0020917Y-040241D02*
G01X0020869Y-040432D01*
G01X0020869Y-040432D02*
G01X0020821Y-040527D01*
G01X0020821Y-040527D02*
G01X0020774Y-040575D01*
G01X0020774Y-040575D02*
G01X0020679Y-040622D01*
G01X0020679Y-040622D02*
G01X0020583Y-040622D01*
G01X0020583Y-040622D02*
G01X0020488Y-040575D01*
G01X0020488Y-040575D02*
G01X0020440Y-040527D01*
G01X0020440Y-040527D02*
G01X0020393Y-040432D01*
G01X0020393Y-040432D02*
G01X0020345Y-040241D01*
G01X0020345Y-040241D02*
G01X0020345Y-040003D01*
G01X0020345Y-040003D02*
G01X0020393Y-039813D01*
G01X0020393Y-039813D02*
G01X0020440Y-039718D01*
G01X0020440Y-039718D02*
G01X0020488Y-039670D01*
G01X0020488Y-039670D02*
G01X0020583Y-039622D01*
G01X0021774Y-039622D02*
G01X0021583Y-039622D01*
G01X0021583Y-039622D02*
G01X0021488Y-039670D01*
G01X0021488Y-039670D02*
G01X0021440Y-039718D01*
G01X0021440Y-039718D02*
G01X0021345Y-039860D01*
G01X0021345Y-039860D02*
G01X0021298Y-040051D01*
G01X0021298Y-040051D02*
G01X0021298Y-040432D01*
G01X0021298Y-040432D02*
G01X0021345Y-040527D01*
G01X0021345Y-040527D02*
G01X0021393Y-040575D01*
G01X0021393Y-040575D02*
G01X0021488Y-040622D01*
G01X0021488Y-040622D02*
G01X0021679Y-040622D01*
G01X0021679Y-040622D02*
G01X0021774Y-040575D01*
G01X0021774Y-040575D02*
G01X0021821Y-040527D01*
G01X0021821Y-040527D02*
G01X0021869Y-040432D01*
G01X0021869Y-040432D02*
G01X0021869Y-040194D01*
G01X0021869Y-040194D02*
G01X0021821Y-040099D01*
G01X0021821Y-040099D02*
G01X0021774Y-040051D01*
G01X0021774Y-040051D02*
G01X0021679Y-040003D01*
G01X0021679Y-040003D02*
G01X0021488Y-040003D01*
G01X0021488Y-040003D02*
G01X0021393Y-040051D01*
G01X0021393Y-040051D02*
G01X0021345Y-040099D01*
G01X0021345Y-040099D02*
G01X0021298Y-040194D01*
G01X0022250Y-039718D02*
G01X0022298Y-039670D01*
G01X0022298Y-039670D02*
G01X0022393Y-039622D01*
G01X0022393Y-039622D02*
G01X0022631Y-039622D01*
G01X0022631Y-039622D02*
G01X0022726Y-039670D01*
G01X0022726Y-039670D02*
G01X0022774Y-039718D01*
G01X0022774Y-039718D02*
G01X0022821Y-039813D01*
G01X0022821Y-039813D02*
G01X0022821Y-039908D01*
G01X0022821Y-039908D02*
G01X0022774Y-040051D01*
G01X0022774Y-040051D02*
G01X0022202Y-040622D01*
G01X0022202Y-040622D02*
G01X0022821Y-040622D01*
G01X0024012Y-040622D02*
G01X0024012Y-039622D01*
G01X0024488Y-040622D02*
G01X0024488Y-039622D01*
G01X0024488Y-039622D02*
G01X0025060Y-040622D01*
G01X0025060Y-040622D02*
G01X0025060Y-039622D01*
G01X0026107Y-040527D02*
G01X0026060Y-040575D01*
G01X0026060Y-040575D02*
G01X0025917Y-040622D01*
G01X0025917Y-040622D02*
G01X0025821Y-040622D01*
G01X0025821Y-040622D02*
G01X0025679Y-040575D01*
G01X0025679Y-040575D02*
G01X0025583Y-040480D01*
G01X0025583Y-040480D02*
G01X0025536Y-040384D01*
G01X0025536Y-040384D02*
G01X0025488Y-040194D01*
G01X0025488Y-040194D02*
G01X0025488Y-040051D01*
G01X0025488Y-040051D02*
G01X0025536Y-039860D01*
G01X0025536Y-039860D02*
G01X0025583Y-039765D01*
G01X0025583Y-039765D02*
G01X0025679Y-039670D01*
G01X0025679Y-039670D02*
G01X0025821Y-039622D01*
G01X0025821Y-039622D02*
G01X0025917Y-039622D01*
G01X0025917Y-039622D02*
G01X0026060Y-039670D01*
G01X0026060Y-039670D02*
G01X0026107Y-039718D01*
G01X0026536Y-040622D02*
G01X0026536Y-039622D01*
G01X0026536Y-040099D02*
G01X0027107Y-040099D01*
G01X0027107Y-040622D02*
G01X0027107Y-039622D01*
G01X0028345Y-040241D02*
G01X0029107Y-040241D01*
G01X0028726Y-040622D02*
G01X0028726Y-039860D01*
G01X0030298Y-039575D02*
G01X0029440Y-040860D01*
G01X0030631Y-040241D02*
G01X0031393Y-040241D01*
G01X0033155Y-040622D02*
G01X0032583Y-040622D01*
G01X0032869Y-040622D02*
G01X0032869Y-039622D01*
G01X0032869Y-039622D02*
G01X0032774Y-039765D01*
G01X0032774Y-039765D02*
G01X0032679Y-039860D01*
G01X0032679Y-039860D02*
G01X0032583Y-039908D01*
G01X0033774Y-039622D02*
G01X0033869Y-039622D01*
G01X0033869Y-039622D02*
G01X0033964Y-039670D01*
G01X0033964Y-039670D02*
G01X0034012Y-039718D01*
G01X0034012Y-039718D02*
G01X0034060Y-039813D01*
G01X0034060Y-039813D02*
G01X0034107Y-040003D01*
G01X0034107Y-040003D02*
G01X0034107Y-040241D01*
G01X0034107Y-040241D02*
G01X0034060Y-040432D01*
G01X0034060Y-040432D02*
G01X0034012Y-040527D01*
G01X0034012Y-040527D02*
G01X0033964Y-040575D01*
G01X0033964Y-040575D02*
G01X0033869Y-040622D01*
G01X0033869Y-040622D02*
G01X0033774Y-040622D01*
G01X0033774Y-040622D02*
G01X0033679Y-040575D01*
G01X0033679Y-040575D02*
G01X0033631Y-040527D01*
G01X0033631Y-040527D02*
G01X0033583Y-040432D01*
G01X0033583Y-040432D02*
G01X0033536Y-040241D01*
G01X0033536Y-040241D02*
G01X0033536Y-040003D01*
G01X0033536Y-040003D02*
G01X0033583Y-039813D01*
G01X0033583Y-039813D02*
G01X0033631Y-039718D01*
G01X0033631Y-039718D02*
G01X0033679Y-039670D01*
G01X0033679Y-039670D02*
G01X0033774Y-039622D01*
G01X0034488Y-040622D02*
G01X0035250Y-039622D01*
G01X0034631Y-039622D02*
G01X0034726Y-039670D01*
G01X0034726Y-039670D02*
G01X0034774Y-039765D01*
G01X0034774Y-039765D02*
G01X0034726Y-039860D01*
G01X0034726Y-039860D02*
G01X0034631Y-039908D01*
G01X0034631Y-039908D02*
G01X0034536Y-039860D01*
G01X0034536Y-039860D02*
G01X0034488Y-039765D01*
G01X0034488Y-039765D02*
G01X0034536Y-039670D01*
G01X0034536Y-039670D02*
G01X0034631Y-039622D01*
G01X0035202Y-040575D02*
G01X0035250Y-040480D01*
G01X0035250Y-040480D02*
G01X0035202Y-040384D01*
G01X0035202Y-040384D02*
G01X0035107Y-040337D01*
G01X0035107Y-040337D02*
G01X0035012Y-040384D01*
G01X0035012Y-040384D02*
G01X0034964Y-040480D01*
G01X0034964Y-040480D02*
G01X0035012Y-040575D01*
G01X0035012Y-040575D02*
G01X0035107Y-040622D01*
G01X0035107Y-040622D02*
G01X0035202Y-040575D01*
G01X0036298Y-039622D02*
G01X0036869Y-039622D01*
G01X0036583Y-040622D02*
G01X0036583Y-039622D01*
G01X0037202Y-040622D02*
G01X0037202Y-039622D01*
G01X0037202Y-040099D02*
G01X0037774Y-040099D01*
G01X0037774Y-040622D02*
G01X0037774Y-039622D01*
G01X0038250Y-040622D02*
G01X0038250Y-039622D01*
G01X0039298Y-040527D02*
G01X0039250Y-040575D01*
G01X0039250Y-040575D02*
G01X0039107Y-040622D01*
G01X0039107Y-040622D02*
G01X0039012Y-040622D01*
G01X0039012Y-040622D02*
G01X0038869Y-040575D01*
G01X0038869Y-040575D02*
G01X0038774Y-040480D01*
G01X0038774Y-040480D02*
G01X0038726Y-040384D01*
G01X0038726Y-040384D02*
G01X0038679Y-040194D01*
G01X0038679Y-040194D02*
G01X0038679Y-040051D01*
G01X0038679Y-040051D02*
G01X0038726Y-039860D01*
G01X0038726Y-039860D02*
G01X0038774Y-039765D01*
G01X0038774Y-039765D02*
G01X0038869Y-039670D01*
G01X0038869Y-039670D02*
G01X0039012Y-039622D01*
G01X0039012Y-039622D02*
G01X0039107Y-039622D01*
G01X0039107Y-039622D02*
G01X0039250Y-039670D01*
G01X0039250Y-039670D02*
G01X0039298Y-039718D01*
G01X0039726Y-040622D02*
G01X0039726Y-039622D01*
G01X0040298Y-040622D02*
G01X0039869Y-040051D01*
G01X0040298Y-039622D02*
G01X0039726Y-040194D01*
G01X0040726Y-040527D02*
G01X0040774Y-040575D01*
G01X0040774Y-040575D02*
G01X0040726Y-040622D01*
G01X0040726Y-040622D02*
G01X0040679Y-040575D01*
G01X0040679Y-040575D02*
G01X0040726Y-040527D01*
G01X0040726Y-040527D02*
G01X0040726Y-040622D01*
G01X0001917Y-041556D02*
G01X0001917Y-042222D01*
G01X0001679Y-041175D02*
G01X0001440Y-041889D01*
G01X0001440Y-041889D02*
G01X0002060Y-041889D01*
G01X0002440Y-042127D02*
G01X0002488Y-042175D01*
G01X0002488Y-042175D02*
G01X0002440Y-042222D01*
G01X0002440Y-042222D02*
G01X0002393Y-042175D01*
G01X0002393Y-042175D02*
G01X0002440Y-042127D01*
G01X0002440Y-042127D02*
G01X0002440Y-042222D01*
G01X0004012Y-041699D02*
G01X0004155Y-041746D01*
G01X0004155Y-041746D02*
G01X0004202Y-041794D01*
G01X0004202Y-041794D02*
G01X0004250Y-041889D01*
G01X0004250Y-041889D02*
G01X0004250Y-042032D01*
G01X0004250Y-042032D02*
G01X0004202Y-042127D01*
G01X0004202Y-042127D02*
G01X0004155Y-042175D01*
G01X0004155Y-042175D02*
G01X0004060Y-042222D01*
G01X0004060Y-042222D02*
G01X0003679Y-042222D01*
G01X0003679Y-042222D02*
G01X0003679Y-041222D01*
G01X0003679Y-041222D02*
G01X0004012Y-041222D01*
G01X0004012Y-041222D02*
G01X0004107Y-041270D01*
G01X0004107Y-041270D02*
G01X0004155Y-041318D01*
G01X0004155Y-041318D02*
G01X0004202Y-041413D01*
G01X0004202Y-041413D02*
G01X0004202Y-041508D01*
G01X0004202Y-041508D02*
G01X0004155Y-041603D01*
G01X0004155Y-041603D02*
G01X0004107Y-041651D01*
G01X0004107Y-041651D02*
G01X0004012Y-041699D01*
G01X0004012Y-041699D02*
G01X0003679Y-041699D01*
G01X0004869Y-041222D02*
G01X0005060Y-041222D01*
G01X0005060Y-041222D02*
G01X0005155Y-041270D01*
G01X0005155Y-041270D02*
G01X0005250Y-041365D01*
G01X0005250Y-041365D02*
G01X0005298Y-041556D01*
G01X0005298Y-041556D02*
G01X0005298Y-041889D01*
G01X0005298Y-041889D02*
G01X0005250Y-042080D01*
G01X0005250Y-042080D02*
G01X0005155Y-042175D01*
G01X0005155Y-042175D02*
G01X0005060Y-042222D01*
G01X0005060Y-042222D02*
G01X0004869Y-042222D01*
G01X0004869Y-042222D02*
G01X0004774Y-042175D01*
G01X0004774Y-042175D02*
G01X0004679Y-042080D01*
G01X0004679Y-042080D02*
G01X0004631Y-041889D01*
G01X0004631Y-041889D02*
G01X0004631Y-041556D01*
G01X0004631Y-041556D02*
G01X0004679Y-041365D01*
G01X0004679Y-041365D02*
G01X0004774Y-041270D01*
G01X0004774Y-041270D02*
G01X0004869Y-041222D01*
G01X0005679Y-041937D02*
G01X0006155Y-041937D01*
G01X0005583Y-042222D02*
G01X0005917Y-041222D01*
G01X0005917Y-041222D02*
G01X0006250Y-042222D01*
G01X0007155Y-042222D02*
G01X0006821Y-041746D01*
G01X0006583Y-042222D02*
G01X0006583Y-041222D01*
G01X0006583Y-041222D02*
G01X0006964Y-041222D01*
G01X0006964Y-041222D02*
G01X0007060Y-041270D01*
G01X0007060Y-041270D02*
G01X0007107Y-041318D01*
G01X0007107Y-041318D02*
G01X0007155Y-041413D01*
G01X0007155Y-041413D02*
G01X0007155Y-041556D01*
G01X0007155Y-041556D02*
G01X0007107Y-041651D01*
G01X0007107Y-041651D02*
G01X0007060Y-041699D01*
G01X0007060Y-041699D02*
G01X0006964Y-041746D01*
G01X0006964Y-041746D02*
G01X0006583Y-041746D01*
G01X0007583Y-042222D02*
G01X0007583Y-041222D01*
G01X0007583Y-041222D02*
G01X0007821Y-041222D01*
G01X0007821Y-041222D02*
G01X0007964Y-041270D01*
G01X0007964Y-041270D02*
G01X0008060Y-041365D01*
G01X0008060Y-041365D02*
G01X0008107Y-041460D01*
G01X0008107Y-041460D02*
G01X0008155Y-041651D01*
G01X0008155Y-041651D02*
G01X0008155Y-041794D01*
G01X0008155Y-041794D02*
G01X0008107Y-041984D01*
G01X0008107Y-041984D02*
G01X0008060Y-042080D01*
G01X0008060Y-042080D02*
G01X0007964Y-042175D01*
G01X0007964Y-042175D02*
G01X0007821Y-042222D01*
G01X0007821Y-042222D02*
G01X0007583Y-042222D01*
G01X0008536Y-042175D02*
G01X0008679Y-042222D01*
G01X0008679Y-042222D02*
G01X0008917Y-042222D01*
G01X0008917Y-042222D02*
G01X0009012Y-042175D01*
G01X0009012Y-042175D02*
G01X0009060Y-042127D01*
G01X0009060Y-042127D02*
G01X0009107Y-042032D01*
G01X0009107Y-042032D02*
G01X0009107Y-041937D01*
G01X0009107Y-041937D02*
G01X0009060Y-041841D01*
G01X0009060Y-041841D02*
G01X0009012Y-041794D01*
G01X0009012Y-041794D02*
G01X0008917Y-041746D01*
G01X0008917Y-041746D02*
G01X0008726Y-041699D01*
G01X0008726Y-041699D02*
G01X0008631Y-041651D01*
G01X0008631Y-041651D02*
G01X0008583Y-041603D01*
G01X0008583Y-041603D02*
G01X0008536Y-041508D01*
G01X0008536Y-041508D02*
G01X0008536Y-041413D01*
G01X0008536Y-041413D02*
G01X0008583Y-041318D01*
G01X0008583Y-041318D02*
G01X0008631Y-041270D01*
G01X0008631Y-041270D02*
G01X0008726Y-041222D01*
G01X0008726Y-041222D02*
G01X0008964Y-041222D01*
G01X0008964Y-041222D02*
G01X0009107Y-041270D01*
G01X0010250Y-042175D02*
G01X0010393Y-042222D01*
G01X0010393Y-042222D02*
G01X0010631Y-042222D01*
G01X0010631Y-042222D02*
G01X0010726Y-042175D01*
G01X0010726Y-042175D02*
G01X0010774Y-042127D01*
G01X0010774Y-042127D02*
G01X0010821Y-042032D01*
G01X0010821Y-042032D02*
G01X0010821Y-041937D01*
G01X0010821Y-041937D02*
G01X0010774Y-041841D01*
G01X0010774Y-041841D02*
G01X0010726Y-041794D01*
G01X0010726Y-041794D02*
G01X0010631Y-041746D01*
G01X0010631Y-041746D02*
G01X0010440Y-041699D01*
G01X0010440Y-041699D02*
G01X0010345Y-041651D01*
G01X0010345Y-041651D02*
G01X0010298Y-041603D01*
G01X0010298Y-041603D02*
G01X0010250Y-041508D01*
G01X0010250Y-041508D02*
G01X0010250Y-041413D01*
G01X0010250Y-041413D02*
G01X0010298Y-041318D01*
G01X0010298Y-041318D02*
G01X0010345Y-041270D01*
G01X0010345Y-041270D02*
G01X0010440Y-041222D01*
G01X0010440Y-041222D02*
G01X0010679Y-041222D01*
G01X0010679Y-041222D02*
G01X0010821Y-041270D01*
G01X0011250Y-042222D02*
G01X0011250Y-041222D01*
G01X0011250Y-041699D02*
G01X0011821Y-041699D01*
G01X0011821Y-042222D02*
G01X0011821Y-041222D01*
G01X0012250Y-041937D02*
G01X0012726Y-041937D01*
G01X0012155Y-042222D02*
G01X0012488Y-041222D01*
G01X0012488Y-041222D02*
G01X0012821Y-042222D01*
G01X0013631Y-042222D02*
G01X0013155Y-042222D01*
G01X0013155Y-042222D02*
G01X0013155Y-041222D01*
G01X0014440Y-042222D02*
G01X0013964Y-042222D01*
G01X0013964Y-042222D02*
G01X0013964Y-041222D01*
G01X0015869Y-041699D02*
G01X0016012Y-041746D01*
G01X0016012Y-041746D02*
G01X0016060Y-041794D01*
G01X0016060Y-041794D02*
G01X0016107Y-041889D01*
G01X0016107Y-041889D02*
G01X0016107Y-042032D01*
G01X0016107Y-042032D02*
G01X0016060Y-042127D01*
G01X0016060Y-042127D02*
G01X0016012Y-042175D01*
G01X0016012Y-042175D02*
G01X0015917Y-042222D01*
G01X0015917Y-042222D02*
G01X0015536Y-042222D01*
G01X0015536Y-042222D02*
G01X0015536Y-041222D01*
G01X0015536Y-041222D02*
G01X0015869Y-041222D01*
G01X0015869Y-041222D02*
G01X0015964Y-041270D01*
G01X0015964Y-041270D02*
G01X0016012Y-041318D01*
G01X0016012Y-041318D02*
G01X0016060Y-041413D01*
G01X0016060Y-041413D02*
G01X0016060Y-041508D01*
G01X0016060Y-041508D02*
G01X0016012Y-041603D01*
G01X0016012Y-041603D02*
G01X0015964Y-041651D01*
G01X0015964Y-041651D02*
G01X0015869Y-041699D01*
G01X0015869Y-041699D02*
G01X0015536Y-041699D01*
G01X0016536Y-041699D02*
G01X0016869Y-041699D01*
G01X0017012Y-042222D02*
G01X0016536Y-042222D01*
G01X0016536Y-042222D02*
G01X0016536Y-041222D01*
G01X0016536Y-041222D02*
G01X0017012Y-041222D01*
G01X0018774Y-042222D02*
G01X0018440Y-041746D01*
G01X0018202Y-042222D02*
G01X0018202Y-041222D01*
G01X0018202Y-041222D02*
G01X0018583Y-041222D01*
G01X0018583Y-041222D02*
G01X0018679Y-041270D01*
G01X0018679Y-041270D02*
G01X0018726Y-041318D01*
G01X0018726Y-041318D02*
G01X0018774Y-041413D01*
G01X0018774Y-041413D02*
G01X0018774Y-041556D01*
G01X0018774Y-041556D02*
G01X0018726Y-041651D01*
G01X0018726Y-041651D02*
G01X0018679Y-041699D01*
G01X0018679Y-041699D02*
G01X0018583Y-041746D01*
G01X0018583Y-041746D02*
G01X0018202Y-041746D01*
G01X0019393Y-041222D02*
G01X0019583Y-041222D01*
G01X0019583Y-041222D02*
G01X0019679Y-041270D01*
G01X0019679Y-041270D02*
G01X0019774Y-041365D01*
G01X0019774Y-041365D02*
G01X0019821Y-041556D01*
G01X0019821Y-041556D02*
G01X0019821Y-041889D01*
G01X0019821Y-041889D02*
G01X0019774Y-042080D01*
G01X0019774Y-042080D02*
G01X0019679Y-042175D01*
G01X0019679Y-042175D02*
G01X0019583Y-042222D01*
G01X0019583Y-042222D02*
G01X0019393Y-042222D01*
G01X0019393Y-042222D02*
G01X0019298Y-042175D01*
G01X0019298Y-042175D02*
G01X0019202Y-042080D01*
G01X0019202Y-042080D02*
G01X0019155Y-041889D01*
G01X0019155Y-041889D02*
G01X0019155Y-041556D01*
G01X0019155Y-041556D02*
G01X0019202Y-041365D01*
G01X0019202Y-041365D02*
G01X0019298Y-041270D01*
G01X0019298Y-041270D02*
G01X0019393Y-041222D01*
G01X0020250Y-042222D02*
G01X0020250Y-041222D01*
G01X0020250Y-041699D02*
G01X0020821Y-041699D01*
G01X0020821Y-042222D02*
G01X0020821Y-041222D01*
G01X0021250Y-042175D02*
G01X0021393Y-042222D01*
G01X0021393Y-042222D02*
G01X0021631Y-042222D01*
G01X0021631Y-042222D02*
G01X0021726Y-042175D01*
G01X0021726Y-042175D02*
G01X0021774Y-042127D01*
G01X0021774Y-042127D02*
G01X0021821Y-042032D01*
G01X0021821Y-042032D02*
G01X0021821Y-041937D01*
G01X0021821Y-041937D02*
G01X0021774Y-041841D01*
G01X0021774Y-041841D02*
G01X0021726Y-041794D01*
G01X0021726Y-041794D02*
G01X0021631Y-041746D01*
G01X0021631Y-041746D02*
G01X0021440Y-041699D01*
G01X0021440Y-041699D02*
G01X0021345Y-041651D01*
G01X0021345Y-041651D02*
G01X0021298Y-041603D01*
G01X0021298Y-041603D02*
G01X0021250Y-041508D01*
G01X0021250Y-041508D02*
G01X0021250Y-041413D01*
G01X0021250Y-041413D02*
G01X0021298Y-041318D01*
G01X0021298Y-041318D02*
G01X0021345Y-041270D01*
G01X0021345Y-041270D02*
G01X0021440Y-041222D01*
G01X0021440Y-041222D02*
G01X0021679Y-041222D01*
G01X0021679Y-041222D02*
G01X0021821Y-041270D01*
G01X0023583Y-042127D02*
G01X0023536Y-042175D01*
G01X0023536Y-042175D02*
G01X0023393Y-042222D01*
G01X0023393Y-042222D02*
G01X0023298Y-042222D01*
G01X0023298Y-042222D02*
G01X0023155Y-042175D01*
G01X0023155Y-042175D02*
G01X0023060Y-042080D01*
G01X0023060Y-042080D02*
G01X0023012Y-041984D01*
G01X0023012Y-041984D02*
G01X0022964Y-041794D01*
G01X0022964Y-041794D02*
G01X0022964Y-041651D01*
G01X0022964Y-041651D02*
G01X0023012Y-041460D01*
G01X0023012Y-041460D02*
G01X0023060Y-041365D01*
G01X0023060Y-041365D02*
G01X0023155Y-041270D01*
G01X0023155Y-041270D02*
G01X0023298Y-041222D01*
G01X0023298Y-041222D02*
G01X0023393Y-041222D01*
G01X0023393Y-041222D02*
G01X0023536Y-041270D01*
G01X0023536Y-041270D02*
G01X0023583Y-041318D01*
G01X0024202Y-041222D02*
G01X0024393Y-041222D01*
G01X0024393Y-041222D02*
G01X0024488Y-041270D01*
G01X0024488Y-041270D02*
G01X0024583Y-041365D01*
G01X0024583Y-041365D02*
G01X0024631Y-041556D01*
G01X0024631Y-041556D02*
G01X0024631Y-041889D01*
G01X0024631Y-041889D02*
G01X0024583Y-042080D01*
G01X0024583Y-042080D02*
G01X0024488Y-042175D01*
G01X0024488Y-042175D02*
G01X0024393Y-042222D01*
G01X0024393Y-042222D02*
G01X0024202Y-042222D01*
G01X0024202Y-042222D02*
G01X0024107Y-042175D01*
G01X0024107Y-042175D02*
G01X0024012Y-042080D01*
G01X0024012Y-042080D02*
G01X0023964Y-041889D01*
G01X0023964Y-041889D02*
G01X0023964Y-041556D01*
G01X0023964Y-041556D02*
G01X0024012Y-041365D01*
G01X0024012Y-041365D02*
G01X0024107Y-041270D01*
G01X0024107Y-041270D02*
G01X0024202Y-041222D01*
G01X0025060Y-042222D02*
G01X0025060Y-041222D01*
G01X0025060Y-041222D02*
G01X0025393Y-041937D01*
G01X0025393Y-041937D02*
G01X0025726Y-041222D01*
G01X0025726Y-041222D02*
G01X0025726Y-042222D01*
G01X0026202Y-042222D02*
G01X0026202Y-041222D01*
G01X0026202Y-041222D02*
G01X0026583Y-041222D01*
G01X0026583Y-041222D02*
G01X0026679Y-041270D01*
G01X0026679Y-041270D02*
G01X0026726Y-041318D01*
G01X0026726Y-041318D02*
G01X0026774Y-041413D01*
G01X0026774Y-041413D02*
G01X0026774Y-041556D01*
G01X0026774Y-041556D02*
G01X0026726Y-041651D01*
G01X0026726Y-041651D02*
G01X0026679Y-041699D01*
G01X0026679Y-041699D02*
G01X0026583Y-041746D01*
G01X0026583Y-041746D02*
G01X0026202Y-041746D01*
G01X0027679Y-042222D02*
G01X0027202Y-042222D01*
G01X0027202Y-042222D02*
G01X0027202Y-041222D01*
G01X0028012Y-042222D02*
G01X0028012Y-041222D01*
G01X0028440Y-041937D02*
G01X0028917Y-041937D01*
G01X0028345Y-042222D02*
G01X0028679Y-041222D01*
G01X0028679Y-041222D02*
G01X0029012Y-042222D01*
G01X0029345Y-042222D02*
G01X0029345Y-041222D01*
G01X0029345Y-041222D02*
G01X0029917Y-042222D01*
G01X0029917Y-042222D02*
G01X0029917Y-041222D01*
G01X0030250Y-041222D02*
G01X0030821Y-041222D01*
G01X0030536Y-042222D02*
G01X0030536Y-041222D01*
G01X0031155Y-042127D02*
G01X0031202Y-042175D01*
G01X0031202Y-042175D02*
G01X0031155Y-042222D01*
G01X0031155Y-042222D02*
G01X0031107Y-042175D01*
G01X0031107Y-042175D02*
G01X0031155Y-042127D01*
G01X0031155Y-042127D02*
G01X0031155Y-042222D01*
G01X0001964Y-042822D02*
G01X0001488Y-042822D01*
G01X0001488Y-042822D02*
G01X0001440Y-043299D01*
G01X0001440Y-043299D02*
G01X0001488Y-043251D01*
G01X0001488Y-043251D02*
G01X0001583Y-043203D01*
G01X0001583Y-043203D02*
G01X0001821Y-043203D01*
G01X0001821Y-043203D02*
G01X0001917Y-043251D01*
G01X0001917Y-043251D02*
G01X0001964Y-043299D01*
G01X0001964Y-043299D02*
G01X0002012Y-043394D01*
G01X0002012Y-043394D02*
G01X0002012Y-043632D01*
G01X0002012Y-043632D02*
G01X0001964Y-043727D01*
G01X0001964Y-043727D02*
G01X0001917Y-043775D01*
G01X0001917Y-043775D02*
G01X0001821Y-043822D01*
G01X0001821Y-043822D02*
G01X0001583Y-043822D01*
G01X0001583Y-043822D02*
G01X0001488Y-043775D01*
G01X0001488Y-043775D02*
G01X0001440Y-043727D01*
G01X0002440Y-043727D02*
G01X0002488Y-043775D01*
G01X0002488Y-043775D02*
G01X0002440Y-043822D01*
G01X0002440Y-043822D02*
G01X0002393Y-043775D01*
G01X0002393Y-043775D02*
G01X0002440Y-043727D01*
G01X0002440Y-043727D02*
G01X0002440Y-043822D01*
G01X0003679Y-043822D02*
G01X0003679Y-042822D01*
G01X0003679Y-042822D02*
G01X0004012Y-043537D01*
G01X0004012Y-043537D02*
G01X0004345Y-042822D01*
G01X0004345Y-042822D02*
G01X0004345Y-043822D01*
G01X0004774Y-043537D02*
G01X0005250Y-043537D01*
G01X0004679Y-043822D02*
G01X0005012Y-042822D01*
G01X0005012Y-042822D02*
G01X0005345Y-043822D01*
G01X0005679Y-043822D02*
G01X0005679Y-042822D01*
G01X0005679Y-042822D02*
G01X0006250Y-043822D01*
G01X0006250Y-043822D02*
G01X0006250Y-042822D01*
G01X0006726Y-042822D02*
G01X0006726Y-043632D01*
G01X0006726Y-043632D02*
G01X0006774Y-043727D01*
G01X0006774Y-043727D02*
G01X0006821Y-043775D01*
G01X0006821Y-043775D02*
G01X0006917Y-043822D01*
G01X0006917Y-043822D02*
G01X0007107Y-043822D01*
G01X0007107Y-043822D02*
G01X0007202Y-043775D01*
G01X0007202Y-043775D02*
G01X0007250Y-043727D01*
G01X0007250Y-043727D02*
G01X0007298Y-043632D01*
G01X0007298Y-043632D02*
G01X0007298Y-042822D01*
G01X0008107Y-043299D02*
G01X0007774Y-043299D01*
G01X0007774Y-043822D02*
G01X0007774Y-042822D01*
G01X0007774Y-042822D02*
G01X0008250Y-042822D01*
G01X0008583Y-043537D02*
G01X0009060Y-043537D01*
G01X0008488Y-043822D02*
G01X0008821Y-042822D01*
G01X0008821Y-042822D02*
G01X0009155Y-043822D01*
G01X0010060Y-043727D02*
G01X0010012Y-043775D01*
G01X0010012Y-043775D02*
G01X0009869Y-043822D01*
G01X0009869Y-043822D02*
G01X0009774Y-043822D01*
G01X0009774Y-043822D02*
G01X0009631Y-043775D01*
G01X0009631Y-043775D02*
G01X0009536Y-043680D01*
G01X0009536Y-043680D02*
G01X0009488Y-043584D01*
G01X0009488Y-043584D02*
G01X0009440Y-043394D01*
G01X0009440Y-043394D02*
G01X0009440Y-043251D01*
G01X0009440Y-043251D02*
G01X0009488Y-043060D01*
G01X0009488Y-043060D02*
G01X0009536Y-042965D01*
G01X0009536Y-042965D02*
G01X0009631Y-042870D01*
G01X0009631Y-042870D02*
G01X0009774Y-042822D01*
G01X0009774Y-042822D02*
G01X0009869Y-042822D01*
G01X0009869Y-042822D02*
G01X0010012Y-042870D01*
G01X0010012Y-042870D02*
G01X0010060Y-042918D01*
G01X0010345Y-042822D02*
G01X0010917Y-042822D01*
G01X0010631Y-043822D02*
G01X0010631Y-042822D01*
G01X0011250Y-042822D02*
G01X0011250Y-043632D01*
G01X0011250Y-043632D02*
G01X0011298Y-043727D01*
G01X0011298Y-043727D02*
G01X0011345Y-043775D01*
G01X0011345Y-043775D02*
G01X0011440Y-043822D01*
G01X0011440Y-043822D02*
G01X0011631Y-043822D01*
G01X0011631Y-043822D02*
G01X0011726Y-043775D01*
G01X0011726Y-043775D02*
G01X0011774Y-043727D01*
G01X0011774Y-043727D02*
G01X0011821Y-043632D01*
G01X0011821Y-043632D02*
G01X0011821Y-042822D01*
G01X0012869Y-043822D02*
G01X0012536Y-043346D01*
G01X0012298Y-043822D02*
G01X0012298Y-042822D01*
G01X0012298Y-042822D02*
G01X0012679Y-042822D01*
G01X0012679Y-042822D02*
G01X0012774Y-042870D01*
G01X0012774Y-042870D02*
G01X0012821Y-042918D01*
G01X0012821Y-042918D02*
G01X0012869Y-043013D01*
G01X0012869Y-043013D02*
G01X0012869Y-043156D01*
G01X0012869Y-043156D02*
G01X0012821Y-043251D01*
G01X0012821Y-043251D02*
G01X0012774Y-043299D01*
G01X0012774Y-043299D02*
G01X0012679Y-043346D01*
G01X0012679Y-043346D02*
G01X0012298Y-043346D01*
G01X0013298Y-043299D02*
G01X0013631Y-043299D01*
G01X0013774Y-043822D02*
G01X0013298Y-043822D01*
G01X0013298Y-043822D02*
G01X0013298Y-042822D01*
G01X0013298Y-042822D02*
G01X0013774Y-042822D01*
G01X0014964Y-043822D02*
G01X0014964Y-042822D01*
G01X0015440Y-043822D02*
G01X0015440Y-042822D01*
G01X0015440Y-042822D02*
G01X0016012Y-043822D01*
G01X0016012Y-043822D02*
G01X0016012Y-042822D01*
G01X0017202Y-043537D02*
G01X0017679Y-043537D01*
G01X0017107Y-043822D02*
G01X0017440Y-042822D01*
G01X0017440Y-042822D02*
G01X0017774Y-043822D01*
G01X0018679Y-043727D02*
G01X0018631Y-043775D01*
G01X0018631Y-043775D02*
G01X0018488Y-043822D01*
G01X0018488Y-043822D02*
G01X0018393Y-043822D01*
G01X0018393Y-043822D02*
G01X0018250Y-043775D01*
G01X0018250Y-043775D02*
G01X0018155Y-043680D01*
G01X0018155Y-043680D02*
G01X0018107Y-043584D01*
G01X0018107Y-043584D02*
G01X0018060Y-043394D01*
G01X0018060Y-043394D02*
G01X0018060Y-043251D01*
G01X0018060Y-043251D02*
G01X0018107Y-043060D01*
G01X0018107Y-043060D02*
G01X0018155Y-042965D01*
G01X0018155Y-042965D02*
G01X0018250Y-042870D01*
G01X0018250Y-042870D02*
G01X0018393Y-042822D01*
G01X0018393Y-042822D02*
G01X0018488Y-042822D01*
G01X0018488Y-042822D02*
G01X0018631Y-042870D01*
G01X0018631Y-042870D02*
G01X0018679Y-042918D01*
G01X0019679Y-043727D02*
G01X0019631Y-043775D01*
G01X0019631Y-043775D02*
G01X0019488Y-043822D01*
G01X0019488Y-043822D02*
G01X0019393Y-043822D01*
G01X0019393Y-043822D02*
G01X0019250Y-043775D01*
G01X0019250Y-043775D02*
G01X0019155Y-043680D01*
G01X0019155Y-043680D02*
G01X0019107Y-043584D01*
G01X0019107Y-043584D02*
G01X0019060Y-043394D01*
G01X0019060Y-043394D02*
G01X0019060Y-043251D01*
G01X0019060Y-043251D02*
G01X0019107Y-043060D01*
G01X0019107Y-043060D02*
G01X0019155Y-042965D01*
G01X0019155Y-042965D02*
G01X0019250Y-042870D01*
G01X0019250Y-042870D02*
G01X0019393Y-042822D01*
G01X0019393Y-042822D02*
G01X0019488Y-042822D01*
G01X0019488Y-042822D02*
G01X0019631Y-042870D01*
G01X0019631Y-042870D02*
G01X0019679Y-042918D01*
G01X0020298Y-042822D02*
G01X0020488Y-042822D01*
G01X0020488Y-042822D02*
G01X0020583Y-042870D01*
G01X0020583Y-042870D02*
G01X0020679Y-042965D01*
G01X0020679Y-042965D02*
G01X0020726Y-043156D01*
G01X0020726Y-043156D02*
G01X0020726Y-043489D01*
G01X0020726Y-043489D02*
G01X0020679Y-043680D01*
G01X0020679Y-043680D02*
G01X0020583Y-043775D01*
G01X0020583Y-043775D02*
G01X0020488Y-043822D01*
G01X0020488Y-043822D02*
G01X0020298Y-043822D01*
G01X0020298Y-043822D02*
G01X0020202Y-043775D01*
G01X0020202Y-043775D02*
G01X0020107Y-043680D01*
G01X0020107Y-043680D02*
G01X0020060Y-043489D01*
G01X0020060Y-043489D02*
G01X0020060Y-043156D01*
G01X0020060Y-043156D02*
G01X0020107Y-042965D01*
G01X0020107Y-042965D02*
G01X0020202Y-042870D01*
G01X0020202Y-042870D02*
G01X0020298Y-042822D01*
G01X0021726Y-043822D02*
G01X0021393Y-043346D01*
G01X0021155Y-043822D02*
G01X0021155Y-042822D01*
G01X0021155Y-042822D02*
G01X0021536Y-042822D01*
G01X0021536Y-042822D02*
G01X0021631Y-042870D01*
G01X0021631Y-042870D02*
G01X0021679Y-042918D01*
G01X0021679Y-042918D02*
G01X0021726Y-043013D01*
G01X0021726Y-043013D02*
G01X0021726Y-043156D01*
G01X0021726Y-043156D02*
G01X0021679Y-043251D01*
G01X0021679Y-043251D02*
G01X0021631Y-043299D01*
G01X0021631Y-043299D02*
G01X0021536Y-043346D01*
G01X0021536Y-043346D02*
G01X0021155Y-043346D01*
G01X0022155Y-043822D02*
G01X0022155Y-042822D01*
G01X0022155Y-042822D02*
G01X0022393Y-042822D01*
G01X0022393Y-042822D02*
G01X0022536Y-042870D01*
G01X0022536Y-042870D02*
G01X0022631Y-042965D01*
G01X0022631Y-042965D02*
G01X0022679Y-043060D01*
G01X0022679Y-043060D02*
G01X0022726Y-043251D01*
G01X0022726Y-043251D02*
G01X0022726Y-043394D01*
G01X0022726Y-043394D02*
G01X0022679Y-043584D01*
G01X0022679Y-043584D02*
G01X0022631Y-043680D01*
G01X0022631Y-043680D02*
G01X0022536Y-043775D01*
G01X0022536Y-043775D02*
G01X0022393Y-043822D01*
G01X0022393Y-043822D02*
G01X0022155Y-043822D01*
G01X0023107Y-043537D02*
G01X0023583Y-043537D01*
G01X0023012Y-043822D02*
G01X0023345Y-042822D01*
G01X0023345Y-042822D02*
G01X0023679Y-043822D01*
G01X0024012Y-043822D02*
G01X0024012Y-042822D01*
G01X0024012Y-042822D02*
G01X0024583Y-043822D01*
G01X0024583Y-043822D02*
G01X0024583Y-042822D01*
G01X0025631Y-043727D02*
G01X0025583Y-043775D01*
G01X0025583Y-043775D02*
G01X0025440Y-043822D01*
G01X0025440Y-043822D02*
G01X0025345Y-043822D01*
G01X0025345Y-043822D02*
G01X0025202Y-043775D01*
G01X0025202Y-043775D02*
G01X0025107Y-043680D01*
G01X0025107Y-043680D02*
G01X0025060Y-043584D01*
G01X0025060Y-043584D02*
G01X0025012Y-043394D01*
G01X0025012Y-043394D02*
G01X0025012Y-043251D01*
G01X0025012Y-043251D02*
G01X0025060Y-043060D01*
G01X0025060Y-043060D02*
G01X0025107Y-042965D01*
G01X0025107Y-042965D02*
G01X0025202Y-042870D01*
G01X0025202Y-042870D02*
G01X0025345Y-042822D01*
G01X0025345Y-042822D02*
G01X0025440Y-042822D01*
G01X0025440Y-042822D02*
G01X0025583Y-042870D01*
G01X0025583Y-042870D02*
G01X0025631Y-042918D01*
G01X0026060Y-043299D02*
G01X0026393Y-043299D01*
G01X0026536Y-043822D02*
G01X0026060Y-043822D01*
G01X0026060Y-043822D02*
G01X0026060Y-042822D01*
G01X0026060Y-042822D02*
G01X0026536Y-042822D01*
G01X0027631Y-042822D02*
G01X0027869Y-043822D01*
G01X0027869Y-043822D02*
G01X0028060Y-043108D01*
G01X0028060Y-043108D02*
G01X0028250Y-043822D01*
G01X0028250Y-043822D02*
G01X0028488Y-042822D01*
G01X0028869Y-043822D02*
G01X0028869Y-042822D01*
G01X0029202Y-042822D02*
G01X0029774Y-042822D01*
G01X0029488Y-043822D02*
G01X0029488Y-042822D01*
G01X0030107Y-043822D02*
G01X0030107Y-042822D01*
G01X0030107Y-043299D02*
G01X0030679Y-043299D01*
G01X0030679Y-043822D02*
G01X0030679Y-042822D01*
G01X0031917Y-043822D02*
G01X0031917Y-042822D01*
G01X0032393Y-043822D02*
G01X0032393Y-042822D01*
G01X0032393Y-042822D02*
G01X0032774Y-042822D01*
G01X0032774Y-042822D02*
G01X0032869Y-042870D01*
G01X0032869Y-042870D02*
G01X0032917Y-042918D01*
G01X0032917Y-042918D02*
G01X0032964Y-043013D01*
G01X0032964Y-043013D02*
G01X0032964Y-043156D01*
G01X0032964Y-043156D02*
G01X0032917Y-043251D01*
G01X0032917Y-043251D02*
G01X0032869Y-043299D01*
G01X0032869Y-043299D02*
G01X0032774Y-043346D01*
G01X0032774Y-043346D02*
G01X0032393Y-043346D01*
G01X0033964Y-043727D02*
G01X0033917Y-043775D01*
G01X0033917Y-043775D02*
G01X0033774Y-043822D01*
G01X0033774Y-043822D02*
G01X0033679Y-043822D01*
G01X0033679Y-043822D02*
G01X0033536Y-043775D01*
G01X0033536Y-043775D02*
G01X0033440Y-043680D01*
G01X0033440Y-043680D02*
G01X0033393Y-043584D01*
G01X0033393Y-043584D02*
G01X0033345Y-043394D01*
G01X0033345Y-043394D02*
G01X0033345Y-043251D01*
G01X0033345Y-043251D02*
G01X0033393Y-043060D01*
G01X0033393Y-043060D02*
G01X0033440Y-042965D01*
G01X0033440Y-042965D02*
G01X0033536Y-042870D01*
G01X0033536Y-042870D02*
G01X0033679Y-042822D01*
G01X0033679Y-042822D02*
G01X0033774Y-042822D01*
G01X0033774Y-042822D02*
G01X0033917Y-042870D01*
G01X0033917Y-042870D02*
G01X0033964Y-042918D01*
G01X0034393Y-043441D02*
G01X0035155Y-043441D01*
G01X0036060Y-042822D02*
G01X0035869Y-042822D01*
G01X0035869Y-042822D02*
G01X0035774Y-042870D01*
G01X0035774Y-042870D02*
G01X0035726Y-042918D01*
G01X0035726Y-042918D02*
G01X0035631Y-043060D01*
G01X0035631Y-043060D02*
G01X0035583Y-043251D01*
G01X0035583Y-043251D02*
G01X0035583Y-043632D01*
G01X0035583Y-043632D02*
G01X0035631Y-043727D01*
G01X0035631Y-043727D02*
G01X0035679Y-043775D01*
G01X0035679Y-043775D02*
G01X0035774Y-043822D01*
G01X0035774Y-043822D02*
G01X0035964Y-043822D01*
G01X0035964Y-043822D02*
G01X0036060Y-043775D01*
G01X0036060Y-043775D02*
G01X0036107Y-043727D01*
G01X0036107Y-043727D02*
G01X0036155Y-043632D01*
G01X0036155Y-043632D02*
G01X0036155Y-043394D01*
G01X0036155Y-043394D02*
G01X0036107Y-043299D01*
G01X0036107Y-043299D02*
G01X0036060Y-043251D01*
G01X0036060Y-043251D02*
G01X0035964Y-043203D01*
G01X0035964Y-043203D02*
G01X0035774Y-043203D01*
G01X0035774Y-043203D02*
G01X0035679Y-043251D01*
G01X0035679Y-043251D02*
G01X0035631Y-043299D01*
G01X0035631Y-043299D02*
G01X0035583Y-043394D01*
G01X0036774Y-042822D02*
G01X0036869Y-042822D01*
G01X0036869Y-042822D02*
G01X0036964Y-042870D01*
G01X0036964Y-042870D02*
G01X0037012Y-042918D01*
G01X0037012Y-042918D02*
G01X0037060Y-043013D01*
G01X0037060Y-043013D02*
G01X0037107Y-043203D01*
G01X0037107Y-043203D02*
G01X0037107Y-043441D01*
G01X0037107Y-043441D02*
G01X0037060Y-043632D01*
G01X0037060Y-043632D02*
G01X0037012Y-043727D01*
G01X0037012Y-043727D02*
G01X0036964Y-043775D01*
G01X0036964Y-043775D02*
G01X0036869Y-043822D01*
G01X0036869Y-043822D02*
G01X0036774Y-043822D01*
G01X0036774Y-043822D02*
G01X0036679Y-043775D01*
G01X0036679Y-043775D02*
G01X0036631Y-043727D01*
G01X0036631Y-043727D02*
G01X0036583Y-043632D01*
G01X0036583Y-043632D02*
G01X0036536Y-043441D01*
G01X0036536Y-043441D02*
G01X0036536Y-043203D01*
G01X0036536Y-043203D02*
G01X0036583Y-043013D01*
G01X0036583Y-043013D02*
G01X0036631Y-042918D01*
G01X0036631Y-042918D02*
G01X0036679Y-042870D01*
G01X0036679Y-042870D02*
G01X0036774Y-042822D01*
G01X0038060Y-043822D02*
G01X0037488Y-043822D01*
G01X0037774Y-043822D02*
G01X0037774Y-042822D01*
G01X0037774Y-042822D02*
G01X0037679Y-042965D01*
G01X0037679Y-042965D02*
G01X0037583Y-043060D01*
G01X0037583Y-043060D02*
G01X0037488Y-043108D01*
G01X0038440Y-042918D02*
G01X0038488Y-042870D01*
G01X0038488Y-042870D02*
G01X0038583Y-042822D01*
G01X0038583Y-042822D02*
G01X0038821Y-042822D01*
G01X0038821Y-042822D02*
G01X0038917Y-042870D01*
G01X0038917Y-042870D02*
G01X0038964Y-042918D01*
G01X0038964Y-042918D02*
G01X0039012Y-043013D01*
G01X0039012Y-043013D02*
G01X0039012Y-043108D01*
G01X0039012Y-043108D02*
G01X0038964Y-043251D01*
G01X0038964Y-043251D02*
G01X0038393Y-043822D01*
G01X0038393Y-043822D02*
G01X0039012Y-043822D01*
G01X0040774Y-043727D02*
G01X0040726Y-043775D01*
G01X0040726Y-043775D02*
G01X0040583Y-043822D01*
G01X0040583Y-043822D02*
G01X0040488Y-043822D01*
G01X0040488Y-043822D02*
G01X0040345Y-043775D01*
G01X0040345Y-043775D02*
G01X0040250Y-043680D01*
G01X0040250Y-043680D02*
G01X0040202Y-043584D01*
G01X0040202Y-043584D02*
G01X0040155Y-043394D01*
G01X0040155Y-043394D02*
G01X0040155Y-043251D01*
G01X0040155Y-043251D02*
G01X0040202Y-043060D01*
G01X0040202Y-043060D02*
G01X0040250Y-042965D01*
G01X0040250Y-042965D02*
G01X0040345Y-042870D01*
G01X0040345Y-042870D02*
G01X0040488Y-042822D01*
G01X0040488Y-042822D02*
G01X0040583Y-042822D01*
G01X0040583Y-042822D02*
G01X0040726Y-042870D01*
G01X0040726Y-042870D02*
G01X0040774Y-042918D01*
G01X0041679Y-043822D02*
G01X0041202Y-043822D01*
G01X0041202Y-043822D02*
G01X0041202Y-042822D01*
G01X0041964Y-043537D02*
G01X0042440Y-043537D01*
G01X0041869Y-043822D02*
G01X0042202Y-042822D01*
G01X0042202Y-042822D02*
G01X0042536Y-043822D01*
G01X0042821Y-043775D02*
G01X0042964Y-043822D01*
G01X0042964Y-043822D02*
G01X0043202Y-043822D01*
G01X0043202Y-043822D02*
G01X0043298Y-043775D01*
G01X0043298Y-043775D02*
G01X0043345Y-043727D01*
G01X0043345Y-043727D02*
G01X0043393Y-043632D01*
G01X0043393Y-043632D02*
G01X0043393Y-043537D01*
G01X0043393Y-043537D02*
G01X0043345Y-043441D01*
G01X0043345Y-043441D02*
G01X0043298Y-043394D01*
G01X0043298Y-043394D02*
G01X0043202Y-043346D01*
G01X0043202Y-043346D02*
G01X0043012Y-043299D01*
G01X0043012Y-043299D02*
G01X0042917Y-043251D01*
G01X0042917Y-043251D02*
G01X0042869Y-043203D01*
G01X0042869Y-043203D02*
G01X0042821Y-043108D01*
G01X0042821Y-043108D02*
G01X0042821Y-043013D01*
G01X0042821Y-043013D02*
G01X0042869Y-042918D01*
G01X0042869Y-042918D02*
G01X0042917Y-042870D01*
G01X0042917Y-042870D02*
G01X0043012Y-042822D01*
G01X0043012Y-042822D02*
G01X0043250Y-042822D01*
G01X0043250Y-042822D02*
G01X0043393Y-042870D01*
G01X0043774Y-043775D02*
G01X0043917Y-043822D01*
G01X0043917Y-043822D02*
G01X0044155Y-043822D01*
G01X0044155Y-043822D02*
G01X0044250Y-043775D01*
G01X0044250Y-043775D02*
G01X0044298Y-043727D01*
G01X0044298Y-043727D02*
G01X0044345Y-043632D01*
G01X0044345Y-043632D02*
G01X0044345Y-043537D01*
G01X0044345Y-043537D02*
G01X0044298Y-043441D01*
G01X0044298Y-043441D02*
G01X0044250Y-043394D01*
G01X0044250Y-043394D02*
G01X0044155Y-043346D01*
G01X0044155Y-043346D02*
G01X0043964Y-043299D01*
G01X0043964Y-043299D02*
G01X0043869Y-043251D01*
G01X0043869Y-043251D02*
G01X0043821Y-043203D01*
G01X0043821Y-043203D02*
G01X0043774Y-043108D01*
G01X0043774Y-043108D02*
G01X0043774Y-043013D01*
G01X0043774Y-043013D02*
G01X0043821Y-042918D01*
G01X0043821Y-042918D02*
G01X0043869Y-042870D01*
G01X0043869Y-042870D02*
G01X0043964Y-042822D01*
G01X0043964Y-042822D02*
G01X0044202Y-042822D01*
G01X0044202Y-042822D02*
G01X0044345Y-042870D01*
G01X0045488Y-042918D02*
G01X0045536Y-042870D01*
G01X0045536Y-042870D02*
G01X0045631Y-042822D01*
G01X0045631Y-042822D02*
G01X0045869Y-042822D01*
G01X0045869Y-042822D02*
G01X0045964Y-042870D01*
G01X0045964Y-042870D02*
G01X0046012Y-042918D01*
G01X0046012Y-042918D02*
G01X0046060Y-043013D01*
G01X0046060Y-043013D02*
G01X0046060Y-043108D01*
G01X0046060Y-043108D02*
G01X0046012Y-043251D01*
G01X0046012Y-043251D02*
G01X0045440Y-043822D01*
G01X0045440Y-043822D02*
G01X0046060Y-043822D01*
G01X0001917Y-044422D02*
G01X0001726Y-044422D01*
G01X0001726Y-044422D02*
G01X0001631Y-044470D01*
G01X0001631Y-044470D02*
G01X0001583Y-044518D01*
G01X0001583Y-044518D02*
G01X0001488Y-044660D01*
G01X0001488Y-044660D02*
G01X0001440Y-044851D01*
G01X0001440Y-044851D02*
G01X0001440Y-045232D01*
G01X0001440Y-045232D02*
G01X0001488Y-045327D01*
G01X0001488Y-045327D02*
G01X0001536Y-045375D01*
G01X0001536Y-045375D02*
G01X0001631Y-045422D01*
G01X0001631Y-045422D02*
G01X0001821Y-045422D01*
G01X0001821Y-045422D02*
G01X0001917Y-045375D01*
G01X0001917Y-045375D02*
G01X0001964Y-045327D01*
G01X0001964Y-045327D02*
G01X0002012Y-045232D01*
G01X0002012Y-045232D02*
G01X0002012Y-044994D01*
G01X0002012Y-044994D02*
G01X0001964Y-044899D01*
G01X0001964Y-044899D02*
G01X0001917Y-044851D01*
G01X0001917Y-044851D02*
G01X0001821Y-044803D01*
G01X0001821Y-044803D02*
G01X0001631Y-044803D01*
G01X0001631Y-044803D02*
G01X0001536Y-044851D01*
G01X0001536Y-044851D02*
G01X0001488Y-044899D01*
G01X0001488Y-044899D02*
G01X0001440Y-044994D01*
G01X0002440Y-045327D02*
G01X0002488Y-045375D01*
G01X0002488Y-045375D02*
G01X0002440Y-045422D01*
G01X0002440Y-045422D02*
G01X0002393Y-045375D01*
G01X0002393Y-045375D02*
G01X0002440Y-045327D01*
G01X0002440Y-045327D02*
G01X0002440Y-045422D01*
G01X0003679Y-045422D02*
G01X0003679Y-044422D01*
G01X0003679Y-044422D02*
G01X0004012Y-045137D01*
G01X0004012Y-045137D02*
G01X0004345Y-044422D01*
G01X0004345Y-044422D02*
G01X0004345Y-045422D01*
G01X0004774Y-045137D02*
G01X0005250Y-045137D01*
G01X0004679Y-045422D02*
G01X0005012Y-044422D01*
G01X0005012Y-044422D02*
G01X0005345Y-045422D01*
G01X0005631Y-045375D02*
G01X0005774Y-045422D01*
G01X0005774Y-045422D02*
G01X0006012Y-045422D01*
G01X0006012Y-045422D02*
G01X0006107Y-045375D01*
G01X0006107Y-045375D02*
G01X0006155Y-045327D01*
G01X0006155Y-045327D02*
G01X0006202Y-045232D01*
G01X0006202Y-045232D02*
G01X0006202Y-045137D01*
G01X0006202Y-045137D02*
G01X0006155Y-045041D01*
G01X0006155Y-045041D02*
G01X0006107Y-044994D01*
G01X0006107Y-044994D02*
G01X0006012Y-044946D01*
G01X0006012Y-044946D02*
G01X0005821Y-044899D01*
G01X0005821Y-044899D02*
G01X0005726Y-044851D01*
G01X0005726Y-044851D02*
G01X0005679Y-044803D01*
G01X0005679Y-044803D02*
G01X0005631Y-044708D01*
G01X0005631Y-044708D02*
G01X0005631Y-044613D01*
G01X0005631Y-044613D02*
G01X0005679Y-044518D01*
G01X0005679Y-044518D02*
G01X0005726Y-044470D01*
G01X0005726Y-044470D02*
G01X0005821Y-044422D01*
G01X0005821Y-044422D02*
G01X0006060Y-044422D01*
G01X0006060Y-044422D02*
G01X0006202Y-044470D01*
G01X0006631Y-045422D02*
G01X0006631Y-044422D01*
G01X0007202Y-045422D02*
G01X0006774Y-044851D01*
G01X0007202Y-044422D02*
G01X0006631Y-044994D01*
G01X0007631Y-045327D02*
G01X0007679Y-045375D01*
G01X0007679Y-045375D02*
G01X0007631Y-045422D01*
G01X0007631Y-045422D02*
G01X0007583Y-045375D01*
G01X0007583Y-045375D02*
G01X0007631Y-045327D01*
G01X0007631Y-045327D02*
G01X0007631Y-045422D01*
G01X0007631Y-044803D02*
G01X0007679Y-044851D01*
G01X0007679Y-044851D02*
G01X0007631Y-044899D01*
G01X0007631Y-044899D02*
G01X0007583Y-044851D01*
G01X0007583Y-044851D02*
G01X0007631Y-044803D01*
G01X0007631Y-044803D02*
G01X0007631Y-044899D01*
G01X0009202Y-044899D02*
G01X0009345Y-044946D01*
G01X0009345Y-044946D02*
G01X0009393Y-044994D01*
G01X0009393Y-044994D02*
G01X0009440Y-045089D01*
G01X0009440Y-045089D02*
G01X0009440Y-045232D01*
G01X0009440Y-045232D02*
G01X0009393Y-045327D01*
G01X0009393Y-045327D02*
G01X0009345Y-045375D01*
G01X0009345Y-045375D02*
G01X0009250Y-045422D01*
G01X0009250Y-045422D02*
G01X0008869Y-045422D01*
G01X0008869Y-045422D02*
G01X0008869Y-044422D01*
G01X0008869Y-044422D02*
G01X0009202Y-044422D01*
G01X0009202Y-044422D02*
G01X0009298Y-044470D01*
G01X0009298Y-044470D02*
G01X0009345Y-044518D01*
G01X0009345Y-044518D02*
G01X0009393Y-044613D01*
G01X0009393Y-044613D02*
G01X0009393Y-044708D01*
G01X0009393Y-044708D02*
G01X0009345Y-044803D01*
G01X0009345Y-044803D02*
G01X0009298Y-044851D01*
G01X0009298Y-044851D02*
G01X0009202Y-044899D01*
G01X0009202Y-044899D02*
G01X0008869Y-044899D01*
G01X0010060Y-044422D02*
G01X0010250Y-044422D01*
G01X0010250Y-044422D02*
G01X0010345Y-044470D01*
G01X0010345Y-044470D02*
G01X0010440Y-044565D01*
G01X0010440Y-044565D02*
G01X0010488Y-044756D01*
G01X0010488Y-044756D02*
G01X0010488Y-045089D01*
G01X0010488Y-045089D02*
G01X0010440Y-045280D01*
G01X0010440Y-045280D02*
G01X0010345Y-045375D01*
G01X0010345Y-045375D02*
G01X0010250Y-045422D01*
G01X0010250Y-045422D02*
G01X0010060Y-045422D01*
G01X0010060Y-045422D02*
G01X0009964Y-045375D01*
G01X0009964Y-045375D02*
G01X0009869Y-045280D01*
G01X0009869Y-045280D02*
G01X0009821Y-045089D01*
G01X0009821Y-045089D02*
G01X0009821Y-044756D01*
G01X0009821Y-044756D02*
G01X0009869Y-044565D01*
G01X0009869Y-044565D02*
G01X0009964Y-044470D01*
G01X0009964Y-044470D02*
G01X0010060Y-044422D01*
G01X0010774Y-044422D02*
G01X0011345Y-044422D01*
G01X0011060Y-045422D02*
G01X0011060Y-044422D01*
G01X0011679Y-045422D02*
G01X0011679Y-044422D01*
G01X0011679Y-044899D02*
G01X0012250Y-044899D01*
G01X0012250Y-045422D02*
G01X0012250Y-044422D01*
G01X0013440Y-045375D02*
G01X0013583Y-045422D01*
G01X0013583Y-045422D02*
G01X0013821Y-045422D01*
G01X0013821Y-045422D02*
G01X0013917Y-045375D01*
G01X0013917Y-045375D02*
G01X0013964Y-045327D01*
G01X0013964Y-045327D02*
G01X0014012Y-045232D01*
G01X0014012Y-045232D02*
G01X0014012Y-045137D01*
G01X0014012Y-045137D02*
G01X0013964Y-045041D01*
G01X0013964Y-045041D02*
G01X0013917Y-044994D01*
G01X0013917Y-044994D02*
G01X0013821Y-044946D01*
G01X0013821Y-044946D02*
G01X0013631Y-044899D01*
G01X0013631Y-044899D02*
G01X0013536Y-044851D01*
G01X0013536Y-044851D02*
G01X0013488Y-044803D01*
G01X0013488Y-044803D02*
G01X0013440Y-044708D01*
G01X0013440Y-044708D02*
G01X0013440Y-044613D01*
G01X0013440Y-044613D02*
G01X0013488Y-044518D01*
G01X0013488Y-044518D02*
G01X0013536Y-044470D01*
G01X0013536Y-044470D02*
G01X0013631Y-044422D01*
G01X0013631Y-044422D02*
G01X0013869Y-044422D01*
G01X0013869Y-044422D02*
G01X0014012Y-044470D01*
G01X0014440Y-045422D02*
G01X0014440Y-044422D01*
G01X0014917Y-045422D02*
G01X0014917Y-044422D01*
G01X0014917Y-044422D02*
G01X0015155Y-044422D01*
G01X0015155Y-044422D02*
G01X0015298Y-044470D01*
G01X0015298Y-044470D02*
G01X0015393Y-044565D01*
G01X0015393Y-044565D02*
G01X0015440Y-044660D01*
G01X0015440Y-044660D02*
G01X0015488Y-044851D01*
G01X0015488Y-044851D02*
G01X0015488Y-044994D01*
G01X0015488Y-044994D02*
G01X0015440Y-045184D01*
G01X0015440Y-045184D02*
G01X0015393Y-045280D01*
G01X0015393Y-045280D02*
G01X0015298Y-045375D01*
G01X0015298Y-045375D02*
G01X0015155Y-045422D01*
G01X0015155Y-045422D02*
G01X0014917Y-045422D01*
G01X0015917Y-044899D02*
G01X0016250Y-044899D01*
G01X0016393Y-045422D02*
G01X0015917Y-045422D01*
G01X0015917Y-045422D02*
G01X0015917Y-044422D01*
G01X0015917Y-044422D02*
G01X0016393Y-044422D01*
G01X0016774Y-045375D02*
G01X0016917Y-045422D01*
G01X0016917Y-045422D02*
G01X0017155Y-045422D01*
G01X0017155Y-045422D02*
G01X0017250Y-045375D01*
G01X0017250Y-045375D02*
G01X0017298Y-045327D01*
G01X0017298Y-045327D02*
G01X0017345Y-045232D01*
G01X0017345Y-045232D02*
G01X0017345Y-045137D01*
G01X0017345Y-045137D02*
G01X0017298Y-045041D01*
G01X0017298Y-045041D02*
G01X0017250Y-044994D01*
G01X0017250Y-044994D02*
G01X0017155Y-044946D01*
G01X0017155Y-044946D02*
G01X0016964Y-044899D01*
G01X0016964Y-044899D02*
G01X0016869Y-044851D01*
G01X0016869Y-044851D02*
G01X0016821Y-044803D01*
G01X0016821Y-044803D02*
G01X0016774Y-044708D01*
G01X0016774Y-044708D02*
G01X0016774Y-044613D01*
G01X0016774Y-044613D02*
G01X0016821Y-044518D01*
G01X0016821Y-044518D02*
G01X0016869Y-044470D01*
G01X0016869Y-044470D02*
G01X0016964Y-044422D01*
G01X0016964Y-044422D02*
G01X0017202Y-044422D01*
G01X0017202Y-044422D02*
G01X0017345Y-044470D01*
G01X0018726Y-044422D02*
G01X0018917Y-044422D01*
G01X0018917Y-044422D02*
G01X0019012Y-044470D01*
G01X0019012Y-044470D02*
G01X0019107Y-044565D01*
G01X0019107Y-044565D02*
G01X0019155Y-044756D01*
G01X0019155Y-044756D02*
G01X0019155Y-045089D01*
G01X0019155Y-045089D02*
G01X0019107Y-045280D01*
G01X0019107Y-045280D02*
G01X0019012Y-045375D01*
G01X0019012Y-045375D02*
G01X0018917Y-045422D01*
G01X0018917Y-045422D02*
G01X0018726Y-045422D01*
G01X0018726Y-045422D02*
G01X0018631Y-045375D01*
G01X0018631Y-045375D02*
G01X0018536Y-045280D01*
G01X0018536Y-045280D02*
G01X0018488Y-045089D01*
G01X0018488Y-045089D02*
G01X0018488Y-044756D01*
G01X0018488Y-044756D02*
G01X0018536Y-044565D01*
G01X0018536Y-044565D02*
G01X0018631Y-044470D01*
G01X0018631Y-044470D02*
G01X0018726Y-044422D01*
G01X0019917Y-044899D02*
G01X0019583Y-044899D01*
G01X0019583Y-045422D02*
G01X0019583Y-044422D01*
G01X0019583Y-044422D02*
G01X0020060Y-044422D01*
G01X0021060Y-044422D02*
G01X0021631Y-044422D01*
G01X0021345Y-045422D02*
G01X0021345Y-044422D01*
G01X0021964Y-045422D02*
G01X0021964Y-044422D01*
G01X0021964Y-044899D02*
G01X0022536Y-044899D01*
G01X0022536Y-045422D02*
G01X0022536Y-044422D01*
G01X0023012Y-044899D02*
G01X0023345Y-044899D01*
G01X0023488Y-045422D02*
G01X0023012Y-045422D01*
G01X0023012Y-045422D02*
G01X0023012Y-044422D01*
G01X0023012Y-044422D02*
G01X0023488Y-044422D01*
G01X0025012Y-044899D02*
G01X0025155Y-044946D01*
G01X0025155Y-044946D02*
G01X0025202Y-044994D01*
G01X0025202Y-044994D02*
G01X0025250Y-045089D01*
G01X0025250Y-045089D02*
G01X0025250Y-045232D01*
G01X0025250Y-045232D02*
G01X0025202Y-045327D01*
G01X0025202Y-045327D02*
G01X0025155Y-045375D01*
G01X0025155Y-045375D02*
G01X0025060Y-045422D01*
G01X0025060Y-045422D02*
G01X0024679Y-045422D01*
G01X0024679Y-045422D02*
G01X0024679Y-044422D01*
G01X0024679Y-044422D02*
G01X0025012Y-044422D01*
G01X0025012Y-044422D02*
G01X0025107Y-044470D01*
G01X0025107Y-044470D02*
G01X0025155Y-044518D01*
G01X0025155Y-044518D02*
G01X0025202Y-044613D01*
G01X0025202Y-044613D02*
G01X0025202Y-044708D01*
G01X0025202Y-044708D02*
G01X0025155Y-044803D01*
G01X0025155Y-044803D02*
G01X0025107Y-044851D01*
G01X0025107Y-044851D02*
G01X0025012Y-044899D01*
G01X0025012Y-044899D02*
G01X0024679Y-044899D01*
G01X0025869Y-044422D02*
G01X0026060Y-044422D01*
G01X0026060Y-044422D02*
G01X0026155Y-044470D01*
G01X0026155Y-044470D02*
G01X0026250Y-044565D01*
G01X0026250Y-044565D02*
G01X0026298Y-044756D01*
G01X0026298Y-044756D02*
G01X0026298Y-045089D01*
G01X0026298Y-045089D02*
G01X0026250Y-045280D01*
G01X0026250Y-045280D02*
G01X0026155Y-045375D01*
G01X0026155Y-045375D02*
G01X0026060Y-045422D01*
G01X0026060Y-045422D02*
G01X0025869Y-045422D01*
G01X0025869Y-045422D02*
G01X0025774Y-045375D01*
G01X0025774Y-045375D02*
G01X0025679Y-045280D01*
G01X0025679Y-045280D02*
G01X0025631Y-045089D01*
G01X0025631Y-045089D02*
G01X0025631Y-044756D01*
G01X0025631Y-044756D02*
G01X0025679Y-044565D01*
G01X0025679Y-044565D02*
G01X0025774Y-044470D01*
G01X0025774Y-044470D02*
G01X0025869Y-044422D01*
G01X0026679Y-045137D02*
G01X0027155Y-045137D01*
G01X0026583Y-045422D02*
G01X0026917Y-044422D01*
G01X0026917Y-044422D02*
G01X0027250Y-045422D01*
G01X0028155Y-045422D02*
G01X0027821Y-044946D01*
G01X0027583Y-045422D02*
G01X0027583Y-044422D01*
G01X0027583Y-044422D02*
G01X0027964Y-044422D01*
G01X0027964Y-044422D02*
G01X0028060Y-044470D01*
G01X0028060Y-044470D02*
G01X0028107Y-044518D01*
G01X0028107Y-044518D02*
G01X0028155Y-044613D01*
G01X0028155Y-044613D02*
G01X0028155Y-044756D01*
G01X0028155Y-044756D02*
G01X0028107Y-044851D01*
G01X0028107Y-044851D02*
G01X0028060Y-044899D01*
G01X0028060Y-044899D02*
G01X0027964Y-044946D01*
G01X0027964Y-044946D02*
G01X0027583Y-044946D01*
G01X0028583Y-045422D02*
G01X0028583Y-044422D01*
G01X0028583Y-044422D02*
G01X0028821Y-044422D01*
G01X0028821Y-044422D02*
G01X0028964Y-044470D01*
G01X0028964Y-044470D02*
G01X0029060Y-044565D01*
G01X0029060Y-044565D02*
G01X0029107Y-044660D01*
G01X0029107Y-044660D02*
G01X0029155Y-044851D01*
G01X0029155Y-044851D02*
G01X0029155Y-044994D01*
G01X0029155Y-044994D02*
G01X0029107Y-045184D01*
G01X0029107Y-045184D02*
G01X0029060Y-045280D01*
G01X0029060Y-045280D02*
G01X0028964Y-045375D01*
G01X0028964Y-045375D02*
G01X0028821Y-045422D01*
G01X0028821Y-045422D02*
G01X0028583Y-045422D01*
G01X0030298Y-045375D02*
G01X0030440Y-045422D01*
G01X0030440Y-045422D02*
G01X0030679Y-045422D01*
G01X0030679Y-045422D02*
G01X0030774Y-045375D01*
G01X0030774Y-045375D02*
G01X0030821Y-045327D01*
G01X0030821Y-045327D02*
G01X0030869Y-045232D01*
G01X0030869Y-045232D02*
G01X0030869Y-045137D01*
G01X0030869Y-045137D02*
G01X0030821Y-045041D01*
G01X0030821Y-045041D02*
G01X0030774Y-044994D01*
G01X0030774Y-044994D02*
G01X0030679Y-044946D01*
G01X0030679Y-044946D02*
G01X0030488Y-044899D01*
G01X0030488Y-044899D02*
G01X0030393Y-044851D01*
G01X0030393Y-044851D02*
G01X0030345Y-044803D01*
G01X0030345Y-044803D02*
G01X0030298Y-044708D01*
G01X0030298Y-044708D02*
G01X0030298Y-044613D01*
G01X0030298Y-044613D02*
G01X0030345Y-044518D01*
G01X0030345Y-044518D02*
G01X0030393Y-044470D01*
G01X0030393Y-044470D02*
G01X0030488Y-044422D01*
G01X0030488Y-044422D02*
G01X0030726Y-044422D01*
G01X0030726Y-044422D02*
G01X0030869Y-044470D01*
G01X0031298Y-045422D02*
G01X0031298Y-044422D01*
G01X0031298Y-044899D02*
G01X0031869Y-044899D01*
G01X0031869Y-045422D02*
G01X0031869Y-044422D01*
G01X0032298Y-045137D02*
G01X0032774Y-045137D01*
G01X0032202Y-045422D02*
G01X0032536Y-044422D01*
G01X0032536Y-044422D02*
G01X0032869Y-045422D01*
G01X0033679Y-045422D02*
G01X0033202Y-045422D01*
G01X0033202Y-045422D02*
G01X0033202Y-044422D01*
G01X0034488Y-045422D02*
G01X0034012Y-045422D01*
G01X0034012Y-045422D02*
G01X0034012Y-044422D01*
G01X0035583Y-045422D02*
G01X0035583Y-044422D01*
G01X0035583Y-044899D02*
G01X0036155Y-044899D01*
G01X0036155Y-045422D02*
G01X0036155Y-044422D01*
G01X0036583Y-045137D02*
G01X0037060Y-045137D01*
G01X0036488Y-045422D02*
G01X0036821Y-044422D01*
G01X0036821Y-044422D02*
G01X0037155Y-045422D01*
G01X0037345Y-044422D02*
G01X0037679Y-045422D01*
G01X0037679Y-045422D02*
G01X0038012Y-044422D01*
G01X0038345Y-044899D02*
G01X0038679Y-044899D01*
G01X0038821Y-045422D02*
G01X0038345Y-045422D01*
G01X0038345Y-045422D02*
G01X0038345Y-044422D01*
G01X0038345Y-044422D02*
G01X0038821Y-044422D01*
G01X0003726Y-046975D02*
G01X0003869Y-047022D01*
G01X0003869Y-047022D02*
G01X0004107Y-047022D01*
G01X0004107Y-047022D02*
G01X0004202Y-046975D01*
G01X0004202Y-046975D02*
G01X0004250Y-046927D01*
G01X0004250Y-046927D02*
G01X0004298Y-046832D01*
G01X0004298Y-046832D02*
G01X0004298Y-046737D01*
G01X0004298Y-046737D02*
G01X0004250Y-046641D01*
G01X0004250Y-046641D02*
G01X0004202Y-046594D01*
G01X0004202Y-046594D02*
G01X0004107Y-046546D01*
G01X0004107Y-046546D02*
G01X0003917Y-046499D01*
G01X0003917Y-046499D02*
G01X0003821Y-046451D01*
G01X0003821Y-046451D02*
G01X0003774Y-046403D01*
G01X0003774Y-046403D02*
G01X0003726Y-046308D01*
G01X0003726Y-046308D02*
G01X0003726Y-046213D01*
G01X0003726Y-046213D02*
G01X0003774Y-046118D01*
G01X0003774Y-046118D02*
G01X0003821Y-046070D01*
G01X0003821Y-046070D02*
G01X0003917Y-046022D01*
G01X0003917Y-046022D02*
G01X0004155Y-046022D01*
G01X0004155Y-046022D02*
G01X0004298Y-046070D01*
G01X0004917Y-046022D02*
G01X0005107Y-046022D01*
G01X0005107Y-046022D02*
G01X0005202Y-046070D01*
G01X0005202Y-046070D02*
G01X0005298Y-046165D01*
G01X0005298Y-046165D02*
G01X0005345Y-046356D01*
G01X0005345Y-046356D02*
G01X0005345Y-046689D01*
G01X0005345Y-046689D02*
G01X0005298Y-046880D01*
G01X0005298Y-046880D02*
G01X0005202Y-046975D01*
G01X0005202Y-046975D02*
G01X0005107Y-047022D01*
G01X0005107Y-047022D02*
G01X0004917Y-047022D01*
G01X0004917Y-047022D02*
G01X0004821Y-046975D01*
G01X0004821Y-046975D02*
G01X0004726Y-046880D01*
G01X0004726Y-046880D02*
G01X0004679Y-046689D01*
G01X0004679Y-046689D02*
G01X0004679Y-046356D01*
G01X0004679Y-046356D02*
G01X0004726Y-046165D01*
G01X0004726Y-046165D02*
G01X0004821Y-046070D01*
G01X0004821Y-046070D02*
G01X0004917Y-046022D01*
G01X0006250Y-047022D02*
G01X0005774Y-047022D01*
G01X0005774Y-047022D02*
G01X0005774Y-046022D01*
G01X0006583Y-047022D02*
G01X0006583Y-046022D01*
G01X0006583Y-046022D02*
G01X0006821Y-046022D01*
G01X0006821Y-046022D02*
G01X0006964Y-046070D01*
G01X0006964Y-046070D02*
G01X0007060Y-046165D01*
G01X0007060Y-046165D02*
G01X0007107Y-046260D01*
G01X0007107Y-046260D02*
G01X0007155Y-046451D01*
G01X0007155Y-046451D02*
G01X0007155Y-046594D01*
G01X0007155Y-046594D02*
G01X0007107Y-046784D01*
G01X0007107Y-046784D02*
G01X0007060Y-046880D01*
G01X0007060Y-046880D02*
G01X0006964Y-046975D01*
G01X0006964Y-046975D02*
G01X0006821Y-047022D01*
G01X0006821Y-047022D02*
G01X0006583Y-047022D01*
G01X0007583Y-046499D02*
G01X0007917Y-046499D01*
G01X0008060Y-047022D02*
G01X0007583Y-047022D01*
G01X0007583Y-047022D02*
G01X0007583Y-046022D01*
G01X0007583Y-046022D02*
G01X0008060Y-046022D01*
G01X0009060Y-047022D02*
G01X0008726Y-046546D01*
G01X0008488Y-047022D02*
G01X0008488Y-046022D01*
G01X0008488Y-046022D02*
G01X0008869Y-046022D01*
G01X0008869Y-046022D02*
G01X0008964Y-046070D01*
G01X0008964Y-046070D02*
G01X0009012Y-046118D01*
G01X0009012Y-046118D02*
G01X0009060Y-046213D01*
G01X0009060Y-046213D02*
G01X0009060Y-046356D01*
G01X0009060Y-046356D02*
G01X0009012Y-046451D01*
G01X0009012Y-046451D02*
G01X0008964Y-046499D01*
G01X0008964Y-046499D02*
G01X0008869Y-046546D01*
G01X0008869Y-046546D02*
G01X0008488Y-046546D01*
G01X0010250Y-047022D02*
G01X0010250Y-046022D01*
G01X0010250Y-046022D02*
G01X0010583Y-046737D01*
G01X0010583Y-046737D02*
G01X0010917Y-046022D01*
G01X0010917Y-046022D02*
G01X0010917Y-047022D01*
G01X0011345Y-046737D02*
G01X0011821Y-046737D01*
G01X0011250Y-047022D02*
G01X0011583Y-046022D01*
G01X0011583Y-046022D02*
G01X0011917Y-047022D01*
G01X0012202Y-046975D02*
G01X0012345Y-047022D01*
G01X0012345Y-047022D02*
G01X0012583Y-047022D01*
G01X0012583Y-047022D02*
G01X0012679Y-046975D01*
G01X0012679Y-046975D02*
G01X0012726Y-046927D01*
G01X0012726Y-046927D02*
G01X0012774Y-046832D01*
G01X0012774Y-046832D02*
G01X0012774Y-046737D01*
G01X0012774Y-046737D02*
G01X0012726Y-046641D01*
G01X0012726Y-046641D02*
G01X0012679Y-046594D01*
G01X0012679Y-046594D02*
G01X0012583Y-046546D01*
G01X0012583Y-046546D02*
G01X0012393Y-046499D01*
G01X0012393Y-046499D02*
G01X0012298Y-046451D01*
G01X0012298Y-046451D02*
G01X0012250Y-046403D01*
G01X0012250Y-046403D02*
G01X0012202Y-046308D01*
G01X0012202Y-046308D02*
G01X0012202Y-046213D01*
G01X0012202Y-046213D02*
G01X0012250Y-046118D01*
G01X0012250Y-046118D02*
G01X0012298Y-046070D01*
G01X0012298Y-046070D02*
G01X0012393Y-046022D01*
G01X0012393Y-046022D02*
G01X0012631Y-046022D01*
G01X0012631Y-046022D02*
G01X0012774Y-046070D01*
G01X0013202Y-047022D02*
G01X0013202Y-046022D01*
G01X0013774Y-047022D02*
G01X0013345Y-046451D01*
G01X0013774Y-046022D02*
G01X0013202Y-046594D01*
G01X0015250Y-047403D02*
G01X0015202Y-047356D01*
G01X0015202Y-047356D02*
G01X0015107Y-047213D01*
G01X0015107Y-047213D02*
G01X0015060Y-047118D01*
G01X0015060Y-047118D02*
G01X0015012Y-046975D01*
G01X0015012Y-046975D02*
G01X0014964Y-046737D01*
G01X0014964Y-046737D02*
G01X0014964Y-046546D01*
G01X0014964Y-046546D02*
G01X0015012Y-046308D01*
G01X0015012Y-046308D02*
G01X0015060Y-046165D01*
G01X0015060Y-046165D02*
G01X0015107Y-046070D01*
G01X0015107Y-046070D02*
G01X0015202Y-045927D01*
G01X0015202Y-045927D02*
G01X0015250Y-045880D01*
G01X0016202Y-047022D02*
G01X0015869Y-046546D01*
G01X0015631Y-047022D02*
G01X0015631Y-046022D01*
G01X0015631Y-046022D02*
G01X0016012Y-046022D01*
G01X0016012Y-046022D02*
G01X0016107Y-046070D01*
G01X0016107Y-046070D02*
G01X0016155Y-046118D01*
G01X0016155Y-046118D02*
G01X0016202Y-046213D01*
G01X0016202Y-046213D02*
G01X0016202Y-046356D01*
G01X0016202Y-046356D02*
G01X0016155Y-046451D01*
G01X0016155Y-046451D02*
G01X0016107Y-046499D01*
G01X0016107Y-046499D02*
G01X0016012Y-046546D01*
G01X0016012Y-046546D02*
G01X0015631Y-046546D01*
G01X0016631Y-046499D02*
G01X0016964Y-046499D01*
G01X0017107Y-047022D02*
G01X0016631Y-047022D01*
G01X0016631Y-047022D02*
G01X0016631Y-046022D01*
G01X0016631Y-046022D02*
G01X0017107Y-046022D01*
G01X0017536Y-047022D02*
G01X0017536Y-046022D01*
G01X0017536Y-046022D02*
G01X0017774Y-046022D01*
G01X0017774Y-046022D02*
G01X0017917Y-046070D01*
G01X0017917Y-046070D02*
G01X0018012Y-046165D01*
G01X0018012Y-046165D02*
G01X0018060Y-046260D01*
G01X0018060Y-046260D02*
G01X0018107Y-046451D01*
G01X0018107Y-046451D02*
G01X0018107Y-046594D01*
G01X0018107Y-046594D02*
G01X0018060Y-046784D01*
G01X0018060Y-046784D02*
G01X0018012Y-046880D01*
G01X0018012Y-046880D02*
G01X0017917Y-046975D01*
G01X0017917Y-046975D02*
G01X0017774Y-047022D01*
G01X0017774Y-047022D02*
G01X0017536Y-047022D01*
G01X0018440Y-047403D02*
G01X0018488Y-047356D01*
G01X0018488Y-047356D02*
G01X0018583Y-047213D01*
G01X0018583Y-047213D02*
G01X0018631Y-047118D01*
G01X0018631Y-047118D02*
G01X0018679Y-046975D01*
G01X0018679Y-046975D02*
G01X0018726Y-046737D01*
G01X0018726Y-046737D02*
G01X0018726Y-046546D01*
G01X0018726Y-046546D02*
G01X0018679Y-046308D01*
G01X0018679Y-046308D02*
G01X0018631Y-046165D01*
G01X0018631Y-046165D02*
G01X0018583Y-046070D01*
G01X0018583Y-046070D02*
G01X0018488Y-045927D01*
G01X0018488Y-045927D02*
G01X0018440Y-045880D01*
G01X0020155Y-046022D02*
G01X0020345Y-046022D01*
G01X0020345Y-046022D02*
G01X0020440Y-046070D01*
G01X0020440Y-046070D02*
G01X0020536Y-046165D01*
G01X0020536Y-046165D02*
G01X0020583Y-046356D01*
G01X0020583Y-046356D02*
G01X0020583Y-046689D01*
G01X0020583Y-046689D02*
G01X0020536Y-046880D01*
G01X0020536Y-046880D02*
G01X0020440Y-046975D01*
G01X0020440Y-046975D02*
G01X0020345Y-047022D01*
G01X0020345Y-047022D02*
G01X0020155Y-047022D01*
G01X0020155Y-047022D02*
G01X0020060Y-046975D01*
G01X0020060Y-046975D02*
G01X0019964Y-046880D01*
G01X0019964Y-046880D02*
G01X0019917Y-046689D01*
G01X0019917Y-046689D02*
G01X0019917Y-046356D01*
G01X0019917Y-046356D02*
G01X0019964Y-046165D01*
G01X0019964Y-046165D02*
G01X0020060Y-046070D01*
G01X0020060Y-046070D02*
G01X0020155Y-046022D01*
G01X0020869Y-046022D02*
G01X0021202Y-047022D01*
G01X0021202Y-047022D02*
G01X0021536Y-046022D01*
G01X0021869Y-046499D02*
G01X0022202Y-046499D01*
G01X0022345Y-047022D02*
G01X0021869Y-047022D01*
G01X0021869Y-047022D02*
G01X0021869Y-046022D01*
G01X0021869Y-046022D02*
G01X0022345Y-046022D01*
G01X0023345Y-047022D02*
G01X0023012Y-046546D01*
G01X0022774Y-047022D02*
G01X0022774Y-046022D01*
G01X0022774Y-046022D02*
G01X0023155Y-046022D01*
G01X0023155Y-046022D02*
G01X0023250Y-046070D01*
G01X0023250Y-046070D02*
G01X0023298Y-046118D01*
G01X0023298Y-046118D02*
G01X0023345Y-046213D01*
G01X0023345Y-046213D02*
G01X0023345Y-046356D01*
G01X0023345Y-046356D02*
G01X0023298Y-046451D01*
G01X0023298Y-046451D02*
G01X0023250Y-046499D01*
G01X0023250Y-046499D02*
G01X0023155Y-046546D01*
G01X0023155Y-046546D02*
G01X0022774Y-046546D01*
G01X0024869Y-046499D02*
G01X0025012Y-046546D01*
G01X0025012Y-046546D02*
G01X0025060Y-046594D01*
G01X0025060Y-046594D02*
G01X0025107Y-046689D01*
G01X0025107Y-046689D02*
G01X0025107Y-046832D01*
G01X0025107Y-046832D02*
G01X0025060Y-046927D01*
G01X0025060Y-046927D02*
G01X0025012Y-046975D01*
G01X0025012Y-046975D02*
G01X0024917Y-047022D01*
G01X0024917Y-047022D02*
G01X0024536Y-047022D01*
G01X0024536Y-047022D02*
G01X0024536Y-046022D01*
G01X0024536Y-046022D02*
G01X0024869Y-046022D01*
G01X0024869Y-046022D02*
G01X0024964Y-046070D01*
G01X0024964Y-046070D02*
G01X0025012Y-046118D01*
G01X0025012Y-046118D02*
G01X0025060Y-046213D01*
G01X0025060Y-046213D02*
G01X0025060Y-046308D01*
G01X0025060Y-046308D02*
G01X0025012Y-046403D01*
G01X0025012Y-046403D02*
G01X0024964Y-046451D01*
G01X0024964Y-046451D02*
G01X0024869Y-046499D01*
G01X0024869Y-046499D02*
G01X0024536Y-046499D01*
G01X0025488Y-046737D02*
G01X0025964Y-046737D01*
G01X0025393Y-047022D02*
G01X0025726Y-046022D01*
G01X0025726Y-046022D02*
G01X0026060Y-047022D01*
G01X0026964Y-047022D02*
G01X0026631Y-046546D01*
G01X0026393Y-047022D02*
G01X0026393Y-046022D01*
G01X0026393Y-046022D02*
G01X0026774Y-046022D01*
G01X0026774Y-046022D02*
G01X0026869Y-046070D01*
G01X0026869Y-046070D02*
G01X0026917Y-046118D01*
G01X0026917Y-046118D02*
G01X0026964Y-046213D01*
G01X0026964Y-046213D02*
G01X0026964Y-046356D01*
G01X0026964Y-046356D02*
G01X0026917Y-046451D01*
G01X0026917Y-046451D02*
G01X0026869Y-046499D01*
G01X0026869Y-046499D02*
G01X0026774Y-046546D01*
G01X0026774Y-046546D02*
G01X0026393Y-046546D01*
G01X0027393Y-046499D02*
G01X0027726Y-046499D01*
G01X0027869Y-047022D02*
G01X0027393Y-047022D01*
G01X0027393Y-047022D02*
G01X0027393Y-046022D01*
G01X0027393Y-046022D02*
G01X0027869Y-046022D01*
G01X0029631Y-046927D02*
G01X0029583Y-046975D01*
G01X0029583Y-046975D02*
G01X0029440Y-047022D01*
G01X0029440Y-047022D02*
G01X0029345Y-047022D01*
G01X0029345Y-047022D02*
G01X0029202Y-046975D01*
G01X0029202Y-046975D02*
G01X0029107Y-046880D01*
G01X0029107Y-046880D02*
G01X0029060Y-046784D01*
G01X0029060Y-046784D02*
G01X0029012Y-046594D01*
G01X0029012Y-046594D02*
G01X0029012Y-046451D01*
G01X0029012Y-046451D02*
G01X0029060Y-046260D01*
G01X0029060Y-046260D02*
G01X0029107Y-046165D01*
G01X0029107Y-046165D02*
G01X0029202Y-046070D01*
G01X0029202Y-046070D02*
G01X0029345Y-046022D01*
G01X0029345Y-046022D02*
G01X0029440Y-046022D01*
G01X0029440Y-046022D02*
G01X0029583Y-046070D01*
G01X0029583Y-046070D02*
G01X0029631Y-046118D01*
G01X0030250Y-046022D02*
G01X0030440Y-046022D01*
G01X0030440Y-046022D02*
G01X0030536Y-046070D01*
G01X0030536Y-046070D02*
G01X0030631Y-046165D01*
G01X0030631Y-046165D02*
G01X0030679Y-046356D01*
G01X0030679Y-046356D02*
G01X0030679Y-046689D01*
G01X0030679Y-046689D02*
G01X0030631Y-046880D01*
G01X0030631Y-046880D02*
G01X0030536Y-046975D01*
G01X0030536Y-046975D02*
G01X0030440Y-047022D01*
G01X0030440Y-047022D02*
G01X0030250Y-047022D01*
G01X0030250Y-047022D02*
G01X0030155Y-046975D01*
G01X0030155Y-046975D02*
G01X0030060Y-046880D01*
G01X0030060Y-046880D02*
G01X0030012Y-046689D01*
G01X0030012Y-046689D02*
G01X0030012Y-046356D01*
G01X0030012Y-046356D02*
G01X0030060Y-046165D01*
G01X0030060Y-046165D02*
G01X0030155Y-046070D01*
G01X0030155Y-046070D02*
G01X0030250Y-046022D01*
G01X0031107Y-047022D02*
G01X0031107Y-046022D01*
G01X0031107Y-046022D02*
G01X0031488Y-046022D01*
G01X0031488Y-046022D02*
G01X0031583Y-046070D01*
G01X0031583Y-046070D02*
G01X0031631Y-046118D01*
G01X0031631Y-046118D02*
G01X0031679Y-046213D01*
G01X0031679Y-046213D02*
G01X0031679Y-046356D01*
G01X0031679Y-046356D02*
G01X0031631Y-046451D01*
G01X0031631Y-046451D02*
G01X0031583Y-046499D01*
G01X0031583Y-046499D02*
G01X0031488Y-046546D01*
G01X0031488Y-046546D02*
G01X0031107Y-046546D01*
G01X0032107Y-047022D02*
G01X0032107Y-046022D01*
G01X0032107Y-046022D02*
G01X0032488Y-046022D01*
G01X0032488Y-046022D02*
G01X0032583Y-046070D01*
G01X0032583Y-046070D02*
G01X0032631Y-046118D01*
G01X0032631Y-046118D02*
G01X0032679Y-046213D01*
G01X0032679Y-046213D02*
G01X0032679Y-046356D01*
G01X0032679Y-046356D02*
G01X0032631Y-046451D01*
G01X0032631Y-046451D02*
G01X0032583Y-046499D01*
G01X0032583Y-046499D02*
G01X0032488Y-046546D01*
G01X0032488Y-046546D02*
G01X0032107Y-046546D01*
G01X0033107Y-046499D02*
G01X0033440Y-046499D01*
G01X0033583Y-047022D02*
G01X0033107Y-047022D01*
G01X0033107Y-047022D02*
G01X0033107Y-046022D01*
G01X0033107Y-046022D02*
G01X0033583Y-046022D01*
G01X0034583Y-047022D02*
G01X0034250Y-046546D01*
G01X0034012Y-047022D02*
G01X0034012Y-046022D01*
G01X0034012Y-046022D02*
G01X0034393Y-046022D01*
G01X0034393Y-046022D02*
G01X0034488Y-046070D01*
G01X0034488Y-046070D02*
G01X0034536Y-046118D01*
G01X0034536Y-046118D02*
G01X0034583Y-046213D01*
G01X0034583Y-046213D02*
G01X0034583Y-046356D01*
G01X0034583Y-046356D02*
G01X0034536Y-046451D01*
G01X0034536Y-046451D02*
G01X0034488Y-046499D01*
G01X0034488Y-046499D02*
G01X0034393Y-046546D01*
G01X0034393Y-046546D02*
G01X0034012Y-046546D01*
G01X0035012Y-046927D02*
G01X0035060Y-046975D01*
G01X0035060Y-046975D02*
G01X0035012Y-047022D01*
G01X0035012Y-047022D02*
G01X0034964Y-046975D01*
G01X0034964Y-046975D02*
G01X0035012Y-046927D01*
G01X0035012Y-046927D02*
G01X0035012Y-047022D01*
G01X0001393Y-047622D02*
G01X0002060Y-047622D01*
G01X0002060Y-047622D02*
G01X0001631Y-048622D01*
G01X0002440Y-048527D02*
G01X0002488Y-048575D01*
G01X0002488Y-048575D02*
G01X0002440Y-048622D01*
G01X0002440Y-048622D02*
G01X0002393Y-048575D01*
G01X0002393Y-048575D02*
G01X0002440Y-048527D01*
G01X0002440Y-048527D02*
G01X0002440Y-048622D01*
G01X0003631Y-048575D02*
G01X0003774Y-048622D01*
G01X0003774Y-048622D02*
G01X0004012Y-048622D01*
G01X0004012Y-048622D02*
G01X0004107Y-048575D01*
G01X0004107Y-048575D02*
G01X0004155Y-048527D01*
G01X0004155Y-048527D02*
G01X0004202Y-048432D01*
G01X0004202Y-048432D02*
G01X0004202Y-048337D01*
G01X0004202Y-048337D02*
G01X0004155Y-048241D01*
G01X0004155Y-048241D02*
G01X0004107Y-048194D01*
G01X0004107Y-048194D02*
G01X0004012Y-048146D01*
G01X0004012Y-048146D02*
G01X0003821Y-048099D01*
G01X0003821Y-048099D02*
G01X0003726Y-048051D01*
G01X0003726Y-048051D02*
G01X0003679Y-048003D01*
G01X0003679Y-048003D02*
G01X0003631Y-047908D01*
G01X0003631Y-047908D02*
G01X0003631Y-047813D01*
G01X0003631Y-047813D02*
G01X0003679Y-047718D01*
G01X0003679Y-047718D02*
G01X0003726Y-047670D01*
G01X0003726Y-047670D02*
G01X0003821Y-047622D01*
G01X0003821Y-047622D02*
G01X0004060Y-047622D01*
G01X0004060Y-047622D02*
G01X0004202Y-047670D01*
G01X0004631Y-048622D02*
G01X0004631Y-047622D01*
G01X0005583Y-048622D02*
G01X0005107Y-048622D01*
G01X0005107Y-048622D02*
G01X0005107Y-047622D01*
G01X0005917Y-048622D02*
G01X0005917Y-047622D01*
G01X0006488Y-048622D02*
G01X0006060Y-048051D01*
G01X0006488Y-047622D02*
G01X0005917Y-048194D01*
G01X0006917Y-048527D02*
G01X0006964Y-048575D01*
G01X0006964Y-048575D02*
G01X0006917Y-048622D01*
G01X0006917Y-048622D02*
G01X0006869Y-048575D01*
G01X0006869Y-048575D02*
G01X0006917Y-048527D01*
G01X0006917Y-048527D02*
G01X0006917Y-048622D01*
G01X0006917Y-048003D02*
G01X0006964Y-048051D01*
G01X0006964Y-048051D02*
G01X0006917Y-048099D01*
G01X0006917Y-048099D02*
G01X0006869Y-048051D01*
G01X0006869Y-048051D02*
G01X0006917Y-048003D01*
G01X0006917Y-048003D02*
G01X0006917Y-048099D01*
G01X0008488Y-048099D02*
G01X0008631Y-048146D01*
G01X0008631Y-048146D02*
G01X0008679Y-048194D01*
G01X0008679Y-048194D02*
G01X0008726Y-048289D01*
G01X0008726Y-048289D02*
G01X0008726Y-048432D01*
G01X0008726Y-048432D02*
G01X0008679Y-048527D01*
G01X0008679Y-048527D02*
G01X0008631Y-048575D01*
G01X0008631Y-048575D02*
G01X0008536Y-048622D01*
G01X0008536Y-048622D02*
G01X0008155Y-048622D01*
G01X0008155Y-048622D02*
G01X0008155Y-047622D01*
G01X0008155Y-047622D02*
G01X0008488Y-047622D01*
G01X0008488Y-047622D02*
G01X0008583Y-047670D01*
G01X0008583Y-047670D02*
G01X0008631Y-047718D01*
G01X0008631Y-047718D02*
G01X0008679Y-047813D01*
G01X0008679Y-047813D02*
G01X0008679Y-047908D01*
G01X0008679Y-047908D02*
G01X0008631Y-048003D01*
G01X0008631Y-048003D02*
G01X0008583Y-048051D01*
G01X0008583Y-048051D02*
G01X0008488Y-048099D01*
G01X0008488Y-048099D02*
G01X0008155Y-048099D01*
G01X0009345Y-047622D02*
G01X0009536Y-047622D01*
G01X0009536Y-047622D02*
G01X0009631Y-047670D01*
G01X0009631Y-047670D02*
G01X0009726Y-047765D01*
G01X0009726Y-047765D02*
G01X0009774Y-047956D01*
G01X0009774Y-047956D02*
G01X0009774Y-048289D01*
G01X0009774Y-048289D02*
G01X0009726Y-048480D01*
G01X0009726Y-048480D02*
G01X0009631Y-048575D01*
G01X0009631Y-048575D02*
G01X0009536Y-048622D01*
G01X0009536Y-048622D02*
G01X0009345Y-048622D01*
G01X0009345Y-048622D02*
G01X0009250Y-048575D01*
G01X0009250Y-048575D02*
G01X0009155Y-048480D01*
G01X0009155Y-048480D02*
G01X0009107Y-048289D01*
G01X0009107Y-048289D02*
G01X0009107Y-047956D01*
G01X0009107Y-047956D02*
G01X0009155Y-047765D01*
G01X0009155Y-047765D02*
G01X0009250Y-047670D01*
G01X0009250Y-047670D02*
G01X0009345Y-047622D01*
G01X0010060Y-047622D02*
G01X0010631Y-047622D01*
G01X0010345Y-048622D02*
G01X0010345Y-047622D01*
G01X0010964Y-048622D02*
G01X0010964Y-047622D01*
G01X0010964Y-048099D02*
G01X0011536Y-048099D01*
G01X0011536Y-048622D02*
G01X0011536Y-047622D01*
G01X0012726Y-048575D02*
G01X0012869Y-048622D01*
G01X0012869Y-048622D02*
G01X0013107Y-048622D01*
G01X0013107Y-048622D02*
G01X0013202Y-048575D01*
G01X0013202Y-048575D02*
G01X0013250Y-048527D01*
G01X0013250Y-048527D02*
G01X0013298Y-048432D01*
G01X0013298Y-048432D02*
G01X0013298Y-048337D01*
G01X0013298Y-048337D02*
G01X0013250Y-048241D01*
G01X0013250Y-048241D02*
G01X0013202Y-048194D01*
G01X0013202Y-048194D02*
G01X0013107Y-048146D01*
G01X0013107Y-048146D02*
G01X0012917Y-048099D01*
G01X0012917Y-048099D02*
G01X0012821Y-048051D01*
G01X0012821Y-048051D02*
G01X0012774Y-048003D01*
G01X0012774Y-048003D02*
G01X0012726Y-047908D01*
G01X0012726Y-047908D02*
G01X0012726Y-047813D01*
G01X0012726Y-047813D02*
G01X0012774Y-047718D01*
G01X0012774Y-047718D02*
G01X0012821Y-047670D01*
G01X0012821Y-047670D02*
G01X0012917Y-047622D01*
G01X0012917Y-047622D02*
G01X0013155Y-047622D01*
G01X0013155Y-047622D02*
G01X0013298Y-047670D01*
G01X0013726Y-048622D02*
G01X0013726Y-047622D01*
G01X0014202Y-048622D02*
G01X0014202Y-047622D01*
G01X0014202Y-047622D02*
G01X0014440Y-047622D01*
G01X0014440Y-047622D02*
G01X0014583Y-047670D01*
G01X0014583Y-047670D02*
G01X0014679Y-047765D01*
G01X0014679Y-047765D02*
G01X0014726Y-047860D01*
G01X0014726Y-047860D02*
G01X0014774Y-048051D01*
G01X0014774Y-048051D02*
G01X0014774Y-048194D01*
G01X0014774Y-048194D02*
G01X0014726Y-048384D01*
G01X0014726Y-048384D02*
G01X0014679Y-048480D01*
G01X0014679Y-048480D02*
G01X0014583Y-048575D01*
G01X0014583Y-048575D02*
G01X0014440Y-048622D01*
G01X0014440Y-048622D02*
G01X0014202Y-048622D01*
G01X0015202Y-048099D02*
G01X0015536Y-048099D01*
G01X0015679Y-048622D02*
G01X0015202Y-048622D01*
G01X0015202Y-048622D02*
G01X0015202Y-047622D01*
G01X0015202Y-047622D02*
G01X0015679Y-047622D01*
G01X0016060Y-048575D02*
G01X0016202Y-048622D01*
G01X0016202Y-048622D02*
G01X0016440Y-048622D01*
G01X0016440Y-048622D02*
G01X0016536Y-048575D01*
G01X0016536Y-048575D02*
G01X0016583Y-048527D01*
G01X0016583Y-048527D02*
G01X0016631Y-048432D01*
G01X0016631Y-048432D02*
G01X0016631Y-048337D01*
G01X0016631Y-048337D02*
G01X0016583Y-048241D01*
G01X0016583Y-048241D02*
G01X0016536Y-048194D01*
G01X0016536Y-048194D02*
G01X0016440Y-048146D01*
G01X0016440Y-048146D02*
G01X0016250Y-048099D01*
G01X0016250Y-048099D02*
G01X0016155Y-048051D01*
G01X0016155Y-048051D02*
G01X0016107Y-048003D01*
G01X0016107Y-048003D02*
G01X0016060Y-047908D01*
G01X0016060Y-047908D02*
G01X0016060Y-047813D01*
G01X0016060Y-047813D02*
G01X0016107Y-047718D01*
G01X0016107Y-047718D02*
G01X0016155Y-047670D01*
G01X0016155Y-047670D02*
G01X0016250Y-047622D01*
G01X0016250Y-047622D02*
G01X0016488Y-047622D01*
G01X0016488Y-047622D02*
G01X0016631Y-047670D01*
G01X0018012Y-047622D02*
G01X0018202Y-047622D01*
G01X0018202Y-047622D02*
G01X0018298Y-047670D01*
G01X0018298Y-047670D02*
G01X0018393Y-047765D01*
G01X0018393Y-047765D02*
G01X0018440Y-047956D01*
G01X0018440Y-047956D02*
G01X0018440Y-048289D01*
G01X0018440Y-048289D02*
G01X0018393Y-048480D01*
G01X0018393Y-048480D02*
G01X0018298Y-048575D01*
G01X0018298Y-048575D02*
G01X0018202Y-048622D01*
G01X0018202Y-048622D02*
G01X0018012Y-048622D01*
G01X0018012Y-048622D02*
G01X0017917Y-048575D01*
G01X0017917Y-048575D02*
G01X0017821Y-048480D01*
G01X0017821Y-048480D02*
G01X0017774Y-048289D01*
G01X0017774Y-048289D02*
G01X0017774Y-047956D01*
G01X0017774Y-047956D02*
G01X0017821Y-047765D01*
G01X0017821Y-047765D02*
G01X0017917Y-047670D01*
G01X0017917Y-047670D02*
G01X0018012Y-047622D01*
G01X0019202Y-048099D02*
G01X0018869Y-048099D01*
G01X0018869Y-048622D02*
G01X0018869Y-047622D01*
G01X0018869Y-047622D02*
G01X0019345Y-047622D01*
G01X0020345Y-047622D02*
G01X0020917Y-047622D01*
G01X0020631Y-048622D02*
G01X0020631Y-047622D01*
G01X0021250Y-048622D02*
G01X0021250Y-047622D01*
G01X0021250Y-048099D02*
G01X0021821Y-048099D01*
G01X0021821Y-048622D02*
G01X0021821Y-047622D01*
G01X0022298Y-048099D02*
G01X0022631Y-048099D01*
G01X0022774Y-048622D02*
G01X0022298Y-048622D01*
G01X0022298Y-048622D02*
G01X0022298Y-047622D01*
G01X0022298Y-047622D02*
G01X0022774Y-047622D01*
G01X0024298Y-048099D02*
G01X0024440Y-048146D01*
G01X0024440Y-048146D02*
G01X0024488Y-048194D01*
G01X0024488Y-048194D02*
G01X0024536Y-048289D01*
G01X0024536Y-048289D02*
G01X0024536Y-048432D01*
G01X0024536Y-048432D02*
G01X0024488Y-048527D01*
G01X0024488Y-048527D02*
G01X0024440Y-048575D01*
G01X0024440Y-048575D02*
G01X0024345Y-048622D01*
G01X0024345Y-048622D02*
G01X0023964Y-048622D01*
G01X0023964Y-048622D02*
G01X0023964Y-047622D01*
G01X0023964Y-047622D02*
G01X0024298Y-047622D01*
G01X0024298Y-047622D02*
G01X0024393Y-047670D01*
G01X0024393Y-047670D02*
G01X0024440Y-047718D01*
G01X0024440Y-047718D02*
G01X0024488Y-047813D01*
G01X0024488Y-047813D02*
G01X0024488Y-047908D01*
G01X0024488Y-047908D02*
G01X0024440Y-048003D01*
G01X0024440Y-048003D02*
G01X0024393Y-048051D01*
G01X0024393Y-048051D02*
G01X0024298Y-048099D01*
G01X0024298Y-048099D02*
G01X0023964Y-048099D01*
G01X0025155Y-047622D02*
G01X0025345Y-047622D01*
G01X0025345Y-047622D02*
G01X0025440Y-047670D01*
G01X0025440Y-047670D02*
G01X0025536Y-047765D01*
G01X0025536Y-047765D02*
G01X0025583Y-047956D01*
G01X0025583Y-047956D02*
G01X0025583Y-048289D01*
G01X0025583Y-048289D02*
G01X0025536Y-048480D01*
G01X0025536Y-048480D02*
G01X0025440Y-048575D01*
G01X0025440Y-048575D02*
G01X0025345Y-048622D01*
G01X0025345Y-048622D02*
G01X0025155Y-048622D01*
G01X0025155Y-048622D02*
G01X0025060Y-048575D01*
G01X0025060Y-048575D02*
G01X0024964Y-048480D01*
G01X0024964Y-048480D02*
G01X0024917Y-048289D01*
G01X0024917Y-048289D02*
G01X0024917Y-047956D01*
G01X0024917Y-047956D02*
G01X0024964Y-047765D01*
G01X0024964Y-047765D02*
G01X0025060Y-047670D01*
G01X0025060Y-047670D02*
G01X0025155Y-047622D01*
G01X0025964Y-048337D02*
G01X0026440Y-048337D01*
G01X0025869Y-048622D02*
G01X0026202Y-047622D01*
G01X0026202Y-047622D02*
G01X0026536Y-048622D01*
G01X0027440Y-048622D02*
G01X0027107Y-048146D01*
G01X0026869Y-048622D02*
G01X0026869Y-047622D01*
G01X0026869Y-047622D02*
G01X0027250Y-047622D01*
G01X0027250Y-047622D02*
G01X0027345Y-047670D01*
G01X0027345Y-047670D02*
G01X0027393Y-047718D01*
G01X0027393Y-047718D02*
G01X0027440Y-047813D01*
G01X0027440Y-047813D02*
G01X0027440Y-047956D01*
G01X0027440Y-047956D02*
G01X0027393Y-048051D01*
G01X0027393Y-048051D02*
G01X0027345Y-048099D01*
G01X0027345Y-048099D02*
G01X0027250Y-048146D01*
G01X0027250Y-048146D02*
G01X0026869Y-048146D01*
G01X0027869Y-048622D02*
G01X0027869Y-047622D01*
G01X0027869Y-047622D02*
G01X0028107Y-047622D01*
G01X0028107Y-047622D02*
G01X0028250Y-047670D01*
G01X0028250Y-047670D02*
G01X0028345Y-047765D01*
G01X0028345Y-047765D02*
G01X0028393Y-047860D01*
G01X0028393Y-047860D02*
G01X0028440Y-048051D01*
G01X0028440Y-048051D02*
G01X0028440Y-048194D01*
G01X0028440Y-048194D02*
G01X0028393Y-048384D01*
G01X0028393Y-048384D02*
G01X0028345Y-048480D01*
G01X0028345Y-048480D02*
G01X0028250Y-048575D01*
G01X0028250Y-048575D02*
G01X0028107Y-048622D01*
G01X0028107Y-048622D02*
G01X0027869Y-048622D01*
G01X0029583Y-048575D02*
G01X0029726Y-048622D01*
G01X0029726Y-048622D02*
G01X0029964Y-048622D01*
G01X0029964Y-048622D02*
G01X0030060Y-048575D01*
G01X0030060Y-048575D02*
G01X0030107Y-048527D01*
G01X0030107Y-048527D02*
G01X0030155Y-048432D01*
G01X0030155Y-048432D02*
G01X0030155Y-048337D01*
G01X0030155Y-048337D02*
G01X0030107Y-048241D01*
G01X0030107Y-048241D02*
G01X0030060Y-048194D01*
G01X0030060Y-048194D02*
G01X0029964Y-048146D01*
G01X0029964Y-048146D02*
G01X0029774Y-048099D01*
G01X0029774Y-048099D02*
G01X0029679Y-048051D01*
G01X0029679Y-048051D02*
G01X0029631Y-048003D01*
G01X0029631Y-048003D02*
G01X0029583Y-047908D01*
G01X0029583Y-047908D02*
G01X0029583Y-047813D01*
G01X0029583Y-047813D02*
G01X0029631Y-047718D01*
G01X0029631Y-047718D02*
G01X0029679Y-047670D01*
G01X0029679Y-047670D02*
G01X0029774Y-047622D01*
G01X0029774Y-047622D02*
G01X0030012Y-047622D01*
G01X0030012Y-047622D02*
G01X0030155Y-047670D01*
G01X0030583Y-048622D02*
G01X0030583Y-047622D01*
G01X0030583Y-048099D02*
G01X0031155Y-048099D01*
G01X0031155Y-048622D02*
G01X0031155Y-047622D01*
G01X0031583Y-048337D02*
G01X0032060Y-048337D01*
G01X0031488Y-048622D02*
G01X0031821Y-047622D01*
G01X0031821Y-047622D02*
G01X0032155Y-048622D01*
G01X0032964Y-048622D02*
G01X0032488Y-048622D01*
G01X0032488Y-048622D02*
G01X0032488Y-047622D01*
G01X0033774Y-048622D02*
G01X0033298Y-048622D01*
G01X0033298Y-048622D02*
G01X0033298Y-047622D01*
G01X0034869Y-048622D02*
G01X0034869Y-047622D01*
G01X0034869Y-048099D02*
G01X0035440Y-048099D01*
G01X0035440Y-048622D02*
G01X0035440Y-047622D01*
G01X0035869Y-048337D02*
G01X0036345Y-048337D01*
G01X0035774Y-048622D02*
G01X0036107Y-047622D01*
G01X0036107Y-047622D02*
G01X0036440Y-048622D01*
G01X0036631Y-047622D02*
G01X0036964Y-048622D01*
G01X0036964Y-048622D02*
G01X0037298Y-047622D01*
G01X0037631Y-048099D02*
G01X0037964Y-048099D01*
G01X0038107Y-048622D02*
G01X0037631Y-048622D01*
G01X0037631Y-048622D02*
G01X0037631Y-047622D01*
G01X0037631Y-047622D02*
G01X0038107Y-047622D01*
G01X0039202Y-047622D02*
G01X0039440Y-048622D01*
G01X0039440Y-048622D02*
G01X0039631Y-047908D01*
G01X0039631Y-047908D02*
G01X0039821Y-048622D01*
G01X0039821Y-048622D02*
G01X0040060Y-047622D01*
G01X0040440Y-048622D02*
G01X0040440Y-047622D01*
G01X0040440Y-048099D02*
G01X0041012Y-048099D01*
G01X0041012Y-048622D02*
G01X0041012Y-047622D01*
G01X0041488Y-048622D02*
G01X0041488Y-047622D01*
G01X0041821Y-047622D02*
G01X0042393Y-047622D01*
G01X0042107Y-048622D02*
G01X0042107Y-047622D01*
G01X0042726Y-048099D02*
G01X0043060Y-048099D01*
G01X0043202Y-048622D02*
G01X0042726Y-048622D01*
G01X0042726Y-048622D02*
G01X0042726Y-047622D01*
G01X0042726Y-047622D02*
G01X0043202Y-047622D01*
G01X0044345Y-048575D02*
G01X0044488Y-048622D01*
G01X0044488Y-048622D02*
G01X0044726Y-048622D01*
G01X0044726Y-048622D02*
G01X0044821Y-048575D01*
G01X0044821Y-048575D02*
G01X0044869Y-048527D01*
G01X0044869Y-048527D02*
G01X0044917Y-048432D01*
G01X0044917Y-048432D02*
G01X0044917Y-048337D01*
G01X0044917Y-048337D02*
G01X0044869Y-048241D01*
G01X0044869Y-048241D02*
G01X0044821Y-048194D01*
G01X0044821Y-048194D02*
G01X0044726Y-048146D01*
G01X0044726Y-048146D02*
G01X0044536Y-048099D01*
G01X0044536Y-048099D02*
G01X0044440Y-048051D01*
G01X0044440Y-048051D02*
G01X0044393Y-048003D01*
G01X0044393Y-048003D02*
G01X0044345Y-047908D01*
G01X0044345Y-047908D02*
G01X0044345Y-047813D01*
G01X0044345Y-047813D02*
G01X0044393Y-047718D01*
G01X0044393Y-047718D02*
G01X0044440Y-047670D01*
G01X0044440Y-047670D02*
G01X0044536Y-047622D01*
G01X0044536Y-047622D02*
G01X0044774Y-047622D01*
G01X0044774Y-047622D02*
G01X0044917Y-047670D01*
G01X0045345Y-048622D02*
G01X0045345Y-047622D01*
G01X0046298Y-048622D02*
G01X0045821Y-048622D01*
G01X0045821Y-048622D02*
G01X0045821Y-047622D01*
G01X0046631Y-048622D02*
G01X0046631Y-047622D01*
G01X0047202Y-048622D02*
G01X0046774Y-048051D01*
G01X0047202Y-047622D02*
G01X0046631Y-048194D01*
G01X0047631Y-048527D02*
G01X0047679Y-048575D01*
G01X0047679Y-048575D02*
G01X0047631Y-048622D01*
G01X0047631Y-048622D02*
G01X0047583Y-048575D01*
G01X0047583Y-048575D02*
G01X0047631Y-048527D01*
G01X0047631Y-048527D02*
G01X0047631Y-048622D01*
G01X0003774Y-050222D02*
G01X0003774Y-049222D01*
G01X0003774Y-049222D02*
G01X0004012Y-049222D01*
G01X0004012Y-049222D02*
G01X0004155Y-049270D01*
G01X0004155Y-049270D02*
G01X0004250Y-049365D01*
G01X0004250Y-049365D02*
G01X0004298Y-049460D01*
G01X0004298Y-049460D02*
G01X0004345Y-049651D01*
G01X0004345Y-049651D02*
G01X0004345Y-049794D01*
G01X0004345Y-049794D02*
G01X0004298Y-049984D01*
G01X0004298Y-049984D02*
G01X0004250Y-050080D01*
G01X0004250Y-050080D02*
G01X0004155Y-050175D01*
G01X0004155Y-050175D02*
G01X0004012Y-050222D01*
G01X0004012Y-050222D02*
G01X0003774Y-050222D01*
G01X0004964Y-049222D02*
G01X0005155Y-049222D01*
G01X0005155Y-049222D02*
G01X0005250Y-049270D01*
G01X0005250Y-049270D02*
G01X0005345Y-049365D01*
G01X0005345Y-049365D02*
G01X0005393Y-049556D01*
G01X0005393Y-049556D02*
G01X0005393Y-049889D01*
G01X0005393Y-049889D02*
G01X0005345Y-050080D01*
G01X0005345Y-050080D02*
G01X0005250Y-050175D01*
G01X0005250Y-050175D02*
G01X0005155Y-050222D01*
G01X0005155Y-050222D02*
G01X0004964Y-050222D01*
G01X0004964Y-050222D02*
G01X0004869Y-050175D01*
G01X0004869Y-050175D02*
G01X0004774Y-050080D01*
G01X0004774Y-050080D02*
G01X0004726Y-049889D01*
G01X0004726Y-049889D02*
G01X0004726Y-049556D01*
G01X0004726Y-049556D02*
G01X0004774Y-049365D01*
G01X0004774Y-049365D02*
G01X0004869Y-049270D01*
G01X0004869Y-049270D02*
G01X0004964Y-049222D01*
G01X0006583Y-050222D02*
G01X0006583Y-049222D01*
G01X0006583Y-049222D02*
G01X0007155Y-050222D01*
G01X0007155Y-050222D02*
G01X0007155Y-049222D01*
G01X0007821Y-049222D02*
G01X0008012Y-049222D01*
G01X0008012Y-049222D02*
G01X0008107Y-049270D01*
G01X0008107Y-049270D02*
G01X0008202Y-049365D01*
G01X0008202Y-049365D02*
G01X0008250Y-049556D01*
G01X0008250Y-049556D02*
G01X0008250Y-049889D01*
G01X0008250Y-049889D02*
G01X0008202Y-050080D01*
G01X0008202Y-050080D02*
G01X0008107Y-050175D01*
G01X0008107Y-050175D02*
G01X0008012Y-050222D01*
G01X0008012Y-050222D02*
G01X0007821Y-050222D01*
G01X0007821Y-050222D02*
G01X0007726Y-050175D01*
G01X0007726Y-050175D02*
G01X0007631Y-050080D01*
G01X0007631Y-050080D02*
G01X0007583Y-049889D01*
G01X0007583Y-049889D02*
G01X0007583Y-049556D01*
G01X0007583Y-049556D02*
G01X0007631Y-049365D01*
G01X0007631Y-049365D02*
G01X0007726Y-049270D01*
G01X0007726Y-049270D02*
G01X0007821Y-049222D01*
G01X0008536Y-049222D02*
G01X0009107Y-049222D01*
G01X0008821Y-050222D02*
G01X0008821Y-049222D01*
G01X0010202Y-050222D02*
G01X0010202Y-049222D01*
G01X0010202Y-049222D02*
G01X0010583Y-049222D01*
G01X0010583Y-049222D02*
G01X0010679Y-049270D01*
G01X0010679Y-049270D02*
G01X0010726Y-049318D01*
G01X0010726Y-049318D02*
G01X0010774Y-049413D01*
G01X0010774Y-049413D02*
G01X0010774Y-049556D01*
G01X0010774Y-049556D02*
G01X0010726Y-049651D01*
G01X0010726Y-049651D02*
G01X0010679Y-049699D01*
G01X0010679Y-049699D02*
G01X0010583Y-049746D01*
G01X0010583Y-049746D02*
G01X0010202Y-049746D01*
G01X0011679Y-050222D02*
G01X0011202Y-050222D01*
G01X0011202Y-050222D02*
G01X0011202Y-049222D01*
G01X0011964Y-049937D02*
G01X0012440Y-049937D01*
G01X0011869Y-050222D02*
G01X0012202Y-049222D01*
G01X0012202Y-049222D02*
G01X0012536Y-050222D01*
G01X0013440Y-050127D02*
G01X0013393Y-050175D01*
G01X0013393Y-050175D02*
G01X0013250Y-050222D01*
G01X0013250Y-050222D02*
G01X0013155Y-050222D01*
G01X0013155Y-050222D02*
G01X0013012Y-050175D01*
G01X0013012Y-050175D02*
G01X0012917Y-050080D01*
G01X0012917Y-050080D02*
G01X0012869Y-049984D01*
G01X0012869Y-049984D02*
G01X0012821Y-049794D01*
G01X0012821Y-049794D02*
G01X0012821Y-049651D01*
G01X0012821Y-049651D02*
G01X0012869Y-049460D01*
G01X0012869Y-049460D02*
G01X0012917Y-049365D01*
G01X0012917Y-049365D02*
G01X0013012Y-049270D01*
G01X0013012Y-049270D02*
G01X0013155Y-049222D01*
G01X0013155Y-049222D02*
G01X0013250Y-049222D01*
G01X0013250Y-049222D02*
G01X0013393Y-049270D01*
G01X0013393Y-049270D02*
G01X0013440Y-049318D01*
G01X0013869Y-049699D02*
G01X0014202Y-049699D01*
G01X0014345Y-050222D02*
G01X0013869Y-050222D01*
G01X0013869Y-050222D02*
G01X0013869Y-049222D01*
G01X0013869Y-049222D02*
G01X0014345Y-049222D01*
G01X0015488Y-050175D02*
G01X0015631Y-050222D01*
G01X0015631Y-050222D02*
G01X0015869Y-050222D01*
G01X0015869Y-050222D02*
G01X0015964Y-050175D01*
G01X0015964Y-050175D02*
G01X0016012Y-050127D01*
G01X0016012Y-050127D02*
G01X0016060Y-050032D01*
G01X0016060Y-050032D02*
G01X0016060Y-049937D01*
G01X0016060Y-049937D02*
G01X0016012Y-049841D01*
G01X0016012Y-049841D02*
G01X0015964Y-049794D01*
G01X0015964Y-049794D02*
G01X0015869Y-049746D01*
G01X0015869Y-049746D02*
G01X0015679Y-049699D01*
G01X0015679Y-049699D02*
G01X0015583Y-049651D01*
G01X0015583Y-049651D02*
G01X0015536Y-049603D01*
G01X0015536Y-049603D02*
G01X0015488Y-049508D01*
G01X0015488Y-049508D02*
G01X0015488Y-049413D01*
G01X0015488Y-049413D02*
G01X0015536Y-049318D01*
G01X0015536Y-049318D02*
G01X0015583Y-049270D01*
G01X0015583Y-049270D02*
G01X0015679Y-049222D01*
G01X0015679Y-049222D02*
G01X0015917Y-049222D01*
G01X0015917Y-049222D02*
G01X0016060Y-049270D01*
G01X0016488Y-050222D02*
G01X0016488Y-049222D01*
G01X0017440Y-050222D02*
G01X0016964Y-050222D01*
G01X0016964Y-050222D02*
G01X0016964Y-049222D01*
G01X0017774Y-050222D02*
G01X0017774Y-049222D01*
G01X0018345Y-050222D02*
G01X0017917Y-049651D01*
G01X0018345Y-049222D02*
G01X0017774Y-049794D01*
G01X0019726Y-049222D02*
G01X0019917Y-049222D01*
G01X0019917Y-049222D02*
G01X0020012Y-049270D01*
G01X0020012Y-049270D02*
G01X0020107Y-049365D01*
G01X0020107Y-049365D02*
G01X0020155Y-049556D01*
G01X0020155Y-049556D02*
G01X0020155Y-049889D01*
G01X0020155Y-049889D02*
G01X0020107Y-050080D01*
G01X0020107Y-050080D02*
G01X0020012Y-050175D01*
G01X0020012Y-050175D02*
G01X0019917Y-050222D01*
G01X0019917Y-050222D02*
G01X0019726Y-050222D01*
G01X0019726Y-050222D02*
G01X0019631Y-050175D01*
G01X0019631Y-050175D02*
G01X0019536Y-050080D01*
G01X0019536Y-050080D02*
G01X0019488Y-049889D01*
G01X0019488Y-049889D02*
G01X0019488Y-049556D01*
G01X0019488Y-049556D02*
G01X0019536Y-049365D01*
G01X0019536Y-049365D02*
G01X0019631Y-049270D01*
G01X0019631Y-049270D02*
G01X0019726Y-049222D01*
G01X0020440Y-049222D02*
G01X0020774Y-050222D01*
G01X0020774Y-050222D02*
G01X0021107Y-049222D01*
G01X0021440Y-049699D02*
G01X0021774Y-049699D01*
G01X0021917Y-050222D02*
G01X0021440Y-050222D01*
G01X0021440Y-050222D02*
G01X0021440Y-049222D01*
G01X0021440Y-049222D02*
G01X0021917Y-049222D01*
G01X0022917Y-050222D02*
G01X0022583Y-049746D01*
G01X0022345Y-050222D02*
G01X0022345Y-049222D01*
G01X0022345Y-049222D02*
G01X0022726Y-049222D01*
G01X0022726Y-049222D02*
G01X0022821Y-049270D01*
G01X0022821Y-049270D02*
G01X0022869Y-049318D01*
G01X0022869Y-049318D02*
G01X0022917Y-049413D01*
G01X0022917Y-049413D02*
G01X0022917Y-049556D01*
G01X0022917Y-049556D02*
G01X0022869Y-049651D01*
G01X0022869Y-049651D02*
G01X0022821Y-049699D01*
G01X0022821Y-049699D02*
G01X0022726Y-049746D01*
G01X0022726Y-049746D02*
G01X0022345Y-049746D01*
G01X0024440Y-049699D02*
G01X0024583Y-049746D01*
G01X0024583Y-049746D02*
G01X0024631Y-049794D01*
G01X0024631Y-049794D02*
G01X0024679Y-049889D01*
G01X0024679Y-049889D02*
G01X0024679Y-050032D01*
G01X0024679Y-050032D02*
G01X0024631Y-050127D01*
G01X0024631Y-050127D02*
G01X0024583Y-050175D01*
G01X0024583Y-050175D02*
G01X0024488Y-050222D01*
G01X0024488Y-050222D02*
G01X0024107Y-050222D01*
G01X0024107Y-050222D02*
G01X0024107Y-049222D01*
G01X0024107Y-049222D02*
G01X0024440Y-049222D01*
G01X0024440Y-049222D02*
G01X0024536Y-049270D01*
G01X0024536Y-049270D02*
G01X0024583Y-049318D01*
G01X0024583Y-049318D02*
G01X0024631Y-049413D01*
G01X0024631Y-049413D02*
G01X0024631Y-049508D01*
G01X0024631Y-049508D02*
G01X0024583Y-049603D01*
G01X0024583Y-049603D02*
G01X0024536Y-049651D01*
G01X0024536Y-049651D02*
G01X0024440Y-049699D01*
G01X0024440Y-049699D02*
G01X0024107Y-049699D01*
G01X0025060Y-049937D02*
G01X0025536Y-049937D01*
G01X0024964Y-050222D02*
G01X0025298Y-049222D01*
G01X0025298Y-049222D02*
G01X0025631Y-050222D01*
G01X0026536Y-050222D02*
G01X0026202Y-049746D01*
G01X0025964Y-050222D02*
G01X0025964Y-049222D01*
G01X0025964Y-049222D02*
G01X0026345Y-049222D01*
G01X0026345Y-049222D02*
G01X0026440Y-049270D01*
G01X0026440Y-049270D02*
G01X0026488Y-049318D01*
G01X0026488Y-049318D02*
G01X0026536Y-049413D01*
G01X0026536Y-049413D02*
G01X0026536Y-049556D01*
G01X0026536Y-049556D02*
G01X0026488Y-049651D01*
G01X0026488Y-049651D02*
G01X0026440Y-049699D01*
G01X0026440Y-049699D02*
G01X0026345Y-049746D01*
G01X0026345Y-049746D02*
G01X0025964Y-049746D01*
G01X0026964Y-049699D02*
G01X0027298Y-049699D01*
G01X0027440Y-050222D02*
G01X0026964Y-050222D01*
G01X0026964Y-050222D02*
G01X0026964Y-049222D01*
G01X0026964Y-049222D02*
G01X0027440Y-049222D01*
G01X0029202Y-050127D02*
G01X0029155Y-050175D01*
G01X0029155Y-050175D02*
G01X0029012Y-050222D01*
G01X0029012Y-050222D02*
G01X0028917Y-050222D01*
G01X0028917Y-050222D02*
G01X0028774Y-050175D01*
G01X0028774Y-050175D02*
G01X0028679Y-050080D01*
G01X0028679Y-050080D02*
G01X0028631Y-049984D01*
G01X0028631Y-049984D02*
G01X0028583Y-049794D01*
G01X0028583Y-049794D02*
G01X0028583Y-049651D01*
G01X0028583Y-049651D02*
G01X0028631Y-049460D01*
G01X0028631Y-049460D02*
G01X0028679Y-049365D01*
G01X0028679Y-049365D02*
G01X0028774Y-049270D01*
G01X0028774Y-049270D02*
G01X0028917Y-049222D01*
G01X0028917Y-049222D02*
G01X0029012Y-049222D01*
G01X0029012Y-049222D02*
G01X0029155Y-049270D01*
G01X0029155Y-049270D02*
G01X0029202Y-049318D01*
G01X0029821Y-049222D02*
G01X0030012Y-049222D01*
G01X0030012Y-049222D02*
G01X0030107Y-049270D01*
G01X0030107Y-049270D02*
G01X0030202Y-049365D01*
G01X0030202Y-049365D02*
G01X0030250Y-049556D01*
G01X0030250Y-049556D02*
G01X0030250Y-049889D01*
G01X0030250Y-049889D02*
G01X0030202Y-050080D01*
G01X0030202Y-050080D02*
G01X0030107Y-050175D01*
G01X0030107Y-050175D02*
G01X0030012Y-050222D01*
G01X0030012Y-050222D02*
G01X0029821Y-050222D01*
G01X0029821Y-050222D02*
G01X0029726Y-050175D01*
G01X0029726Y-050175D02*
G01X0029631Y-050080D01*
G01X0029631Y-050080D02*
G01X0029583Y-049889D01*
G01X0029583Y-049889D02*
G01X0029583Y-049556D01*
G01X0029583Y-049556D02*
G01X0029631Y-049365D01*
G01X0029631Y-049365D02*
G01X0029726Y-049270D01*
G01X0029726Y-049270D02*
G01X0029821Y-049222D01*
G01X0030679Y-050222D02*
G01X0030679Y-049222D01*
G01X0030679Y-049222D02*
G01X0031060Y-049222D01*
G01X0031060Y-049222D02*
G01X0031155Y-049270D01*
G01X0031155Y-049270D02*
G01X0031202Y-049318D01*
G01X0031202Y-049318D02*
G01X0031250Y-049413D01*
G01X0031250Y-049413D02*
G01X0031250Y-049556D01*
G01X0031250Y-049556D02*
G01X0031202Y-049651D01*
G01X0031202Y-049651D02*
G01X0031155Y-049699D01*
G01X0031155Y-049699D02*
G01X0031060Y-049746D01*
G01X0031060Y-049746D02*
G01X0030679Y-049746D01*
G01X0031679Y-050222D02*
G01X0031679Y-049222D01*
G01X0031679Y-049222D02*
G01X0032060Y-049222D01*
G01X0032060Y-049222D02*
G01X0032155Y-049270D01*
G01X0032155Y-049270D02*
G01X0032202Y-049318D01*
G01X0032202Y-049318D02*
G01X0032250Y-049413D01*
G01X0032250Y-049413D02*
G01X0032250Y-049556D01*
G01X0032250Y-049556D02*
G01X0032202Y-049651D01*
G01X0032202Y-049651D02*
G01X0032155Y-049699D01*
G01X0032155Y-049699D02*
G01X0032060Y-049746D01*
G01X0032060Y-049746D02*
G01X0031679Y-049746D01*
G01X0032679Y-049699D02*
G01X0033012Y-049699D01*
G01X0033155Y-050222D02*
G01X0032679Y-050222D01*
G01X0032679Y-050222D02*
G01X0032679Y-049222D01*
G01X0032679Y-049222D02*
G01X0033155Y-049222D01*
G01X0034155Y-050222D02*
G01X0033821Y-049746D01*
G01X0033583Y-050222D02*
G01X0033583Y-049222D01*
G01X0033583Y-049222D02*
G01X0033964Y-049222D01*
G01X0033964Y-049222D02*
G01X0034060Y-049270D01*
G01X0034060Y-049270D02*
G01X0034107Y-049318D01*
G01X0034107Y-049318D02*
G01X0034155Y-049413D01*
G01X0034155Y-049413D02*
G01X0034155Y-049556D01*
G01X0034155Y-049556D02*
G01X0034107Y-049651D01*
G01X0034107Y-049651D02*
G01X0034060Y-049699D01*
G01X0034060Y-049699D02*
G01X0033964Y-049746D01*
G01X0033964Y-049746D02*
G01X0033583Y-049746D01*
G01X0034583Y-050127D02*
G01X0034631Y-050175D01*
G01X0034631Y-050175D02*
G01X0034583Y-050222D01*
G01X0034583Y-050222D02*
G01X0034536Y-050175D01*
G01X0034536Y-050175D02*
G01X0034583Y-050127D01*
G01X0034583Y-050127D02*
G01X0034583Y-050222D01*
G01X0001631Y-051251D02*
G01X0001536Y-051203D01*
G01X0001536Y-051203D02*
G01X0001488Y-051156D01*
G01X0001488Y-051156D02*
G01X0001440Y-051060D01*
G01X0001440Y-051060D02*
G01X0001440Y-051013D01*
G01X0001440Y-051013D02*
G01X0001488Y-050918D01*
G01X0001488Y-050918D02*
G01X0001536Y-050870D01*
G01X0001536Y-050870D02*
G01X0001631Y-050822D01*
G01X0001631Y-050822D02*
G01X0001821Y-050822D01*
G01X0001821Y-050822D02*
G01X0001917Y-050870D01*
G01X0001917Y-050870D02*
G01X0001964Y-050918D01*
G01X0001964Y-050918D02*
G01X0002012Y-051013D01*
G01X0002012Y-051013D02*
G01X0002012Y-051060D01*
G01X0002012Y-051060D02*
G01X0001964Y-051156D01*
G01X0001964Y-051156D02*
G01X0001917Y-051203D01*
G01X0001917Y-051203D02*
G01X0001821Y-051251D01*
G01X0001821Y-051251D02*
G01X0001631Y-051251D01*
G01X0001631Y-051251D02*
G01X0001536Y-051299D01*
G01X0001536Y-051299D02*
G01X0001488Y-051346D01*
G01X0001488Y-051346D02*
G01X0001440Y-051441D01*
G01X0001440Y-051441D02*
G01X0001440Y-051632D01*
G01X0001440Y-051632D02*
G01X0001488Y-051727D01*
G01X0001488Y-051727D02*
G01X0001536Y-051775D01*
G01X0001536Y-051775D02*
G01X0001631Y-051822D01*
G01X0001631Y-051822D02*
G01X0001821Y-051822D01*
G01X0001821Y-051822D02*
G01X0001917Y-051775D01*
G01X0001917Y-051775D02*
G01X0001964Y-051727D01*
G01X0001964Y-051727D02*
G01X0002012Y-051632D01*
G01X0002012Y-051632D02*
G01X0002012Y-051441D01*
G01X0002012Y-051441D02*
G01X0001964Y-051346D01*
G01X0001964Y-051346D02*
G01X0001917Y-051299D01*
G01X0001917Y-051299D02*
G01X0001821Y-051251D01*
G01X0002440Y-051727D02*
G01X0002488Y-051775D01*
G01X0002488Y-051775D02*
G01X0002440Y-051822D01*
G01X0002440Y-051822D02*
G01X0002393Y-051775D01*
G01X0002393Y-051775D02*
G01X0002440Y-051727D01*
G01X0002440Y-051727D02*
G01X0002440Y-051822D01*
G01X0004012Y-051299D02*
G01X0003679Y-051299D01*
G01X0003679Y-051822D02*
G01X0003679Y-050822D01*
G01X0003679Y-050822D02*
G01X0004155Y-050822D01*
G01X0004536Y-051822D02*
G01X0004536Y-050822D01*
G01X0005012Y-051822D02*
G01X0005012Y-050822D01*
G01X0005012Y-050822D02*
G01X0005583Y-051822D01*
G01X0005583Y-051822D02*
G01X0005583Y-050822D01*
G01X0006060Y-051822D02*
G01X0006060Y-050822D01*
G01X0006488Y-051775D02*
G01X0006631Y-051822D01*
G01X0006631Y-051822D02*
G01X0006869Y-051822D01*
G01X0006869Y-051822D02*
G01X0006964Y-051775D01*
G01X0006964Y-051775D02*
G01X0007012Y-051727D01*
G01X0007012Y-051727D02*
G01X0007060Y-051632D01*
G01X0007060Y-051632D02*
G01X0007060Y-051537D01*
G01X0007060Y-051537D02*
G01X0007012Y-051441D01*
G01X0007012Y-051441D02*
G01X0006964Y-051394D01*
G01X0006964Y-051394D02*
G01X0006869Y-051346D01*
G01X0006869Y-051346D02*
G01X0006679Y-051299D01*
G01X0006679Y-051299D02*
G01X0006583Y-051251D01*
G01X0006583Y-051251D02*
G01X0006536Y-051203D01*
G01X0006536Y-051203D02*
G01X0006488Y-051108D01*
G01X0006488Y-051108D02*
G01X0006488Y-051013D01*
G01X0006488Y-051013D02*
G01X0006536Y-050918D01*
G01X0006536Y-050918D02*
G01X0006583Y-050870D01*
G01X0006583Y-050870D02*
G01X0006679Y-050822D01*
G01X0006679Y-050822D02*
G01X0006917Y-050822D01*
G01X0006917Y-050822D02*
G01X0007060Y-050870D01*
G01X0007488Y-051822D02*
G01X0007488Y-050822D01*
G01X0007488Y-051299D02*
G01X0008060Y-051299D01*
G01X0008060Y-051822D02*
G01X0008060Y-050822D01*
G01X0008536Y-051727D02*
G01X0008583Y-051775D01*
G01X0008583Y-051775D02*
G01X0008536Y-051822D01*
G01X0008536Y-051822D02*
G01X0008488Y-051775D01*
G01X0008488Y-051775D02*
G01X0008536Y-051727D01*
G01X0008536Y-051727D02*
G01X0008536Y-051822D01*
G01X0008536Y-051203D02*
G01X0008583Y-051251D01*
G01X0008583Y-051251D02*
G01X0008536Y-051299D01*
G01X0008536Y-051299D02*
G01X0008488Y-051251D01*
G01X0008488Y-051251D02*
G01X0008536Y-051203D01*
G01X0008536Y-051203D02*
G01X0008536Y-051299D01*
G01X0009774Y-051299D02*
G01X0010107Y-051299D01*
G01X0010250Y-051822D02*
G01X0009774Y-051822D01*
G01X0009774Y-051822D02*
G01X0009774Y-050822D01*
G01X0009774Y-050822D02*
G01X0010250Y-050822D01*
G01X0010679Y-051822D02*
G01X0010679Y-050822D01*
G01X0010679Y-050822D02*
G01X0011250Y-051822D01*
G01X0011250Y-051822D02*
G01X0011250Y-050822D01*
G01X0011726Y-051822D02*
G01X0011726Y-050822D01*
G01X0012726Y-050870D02*
G01X0012631Y-050822D01*
G01X0012631Y-050822D02*
G01X0012488Y-050822D01*
G01X0012488Y-050822D02*
G01X0012345Y-050870D01*
G01X0012345Y-050870D02*
G01X0012250Y-050965D01*
G01X0012250Y-050965D02*
G01X0012202Y-051060D01*
G01X0012202Y-051060D02*
G01X0012155Y-051251D01*
G01X0012155Y-051251D02*
G01X0012155Y-051394D01*
G01X0012155Y-051394D02*
G01X0012202Y-051584D01*
G01X0012202Y-051584D02*
G01X0012250Y-051680D01*
G01X0012250Y-051680D02*
G01X0012345Y-051775D01*
G01X0012345Y-051775D02*
G01X0012488Y-051822D01*
G01X0012488Y-051822D02*
G01X0012583Y-051822D01*
G01X0012583Y-051822D02*
G01X0012726Y-051775D01*
G01X0012726Y-051775D02*
G01X0012774Y-051727D01*
G01X0012774Y-051727D02*
G01X0012774Y-051394D01*
G01X0012774Y-051394D02*
G01X0012583Y-051394D01*
G01X0013202Y-051727D02*
G01X0013250Y-051775D01*
G01X0013250Y-051775D02*
G01X0013202Y-051822D01*
G01X0013202Y-051822D02*
G01X0013155Y-051775D01*
G01X0013155Y-051775D02*
G01X0013202Y-051727D01*
G01X0013202Y-051727D02*
G01X0013202Y-051822D01*
G01X0001536Y-053422D02*
G01X0001726Y-053422D01*
G01X0001726Y-053422D02*
G01X0001821Y-053375D01*
G01X0001821Y-053375D02*
G01X0001869Y-053327D01*
G01X0001869Y-053327D02*
G01X0001964Y-053184D01*
G01X0001964Y-053184D02*
G01X0002012Y-052994D01*
G01X0002012Y-052994D02*
G01X0002012Y-052613D01*
G01X0002012Y-052613D02*
G01X0001964Y-052518D01*
G01X0001964Y-052518D02*
G01X0001917Y-052470D01*
G01X0001917Y-052470D02*
G01X0001821Y-052422D01*
G01X0001821Y-052422D02*
G01X0001631Y-052422D01*
G01X0001631Y-052422D02*
G01X0001536Y-052470D01*
G01X0001536Y-052470D02*
G01X0001488Y-052518D01*
G01X0001488Y-052518D02*
G01X0001440Y-052613D01*
G01X0001440Y-052613D02*
G01X0001440Y-052851D01*
G01X0001440Y-052851D02*
G01X0001488Y-052946D01*
G01X0001488Y-052946D02*
G01X0001536Y-052994D01*
G01X0001536Y-052994D02*
G01X0001631Y-053041D01*
G01X0001631Y-053041D02*
G01X0001821Y-053041D01*
G01X0001821Y-053041D02*
G01X0001917Y-052994D01*
G01X0001917Y-052994D02*
G01X0001964Y-052946D01*
G01X0001964Y-052946D02*
G01X0002012Y-052851D01*
G01X0002440Y-053327D02*
G01X0002488Y-053375D01*
G01X0002488Y-053375D02*
G01X0002440Y-053422D01*
G01X0002440Y-053422D02*
G01X0002393Y-053375D01*
G01X0002393Y-053375D02*
G01X0002440Y-053327D01*
G01X0002440Y-053327D02*
G01X0002440Y-053422D01*
G01X0003679Y-053422D02*
G01X0003679Y-052422D01*
G01X0003679Y-052422D02*
G01X0004012Y-053137D01*
G01X0004012Y-053137D02*
G01X0004345Y-052422D01*
G01X0004345Y-052422D02*
G01X0004345Y-053422D01*
G01X0004821Y-053422D02*
G01X0004821Y-052422D01*
G01X0005298Y-053422D02*
G01X0005298Y-052422D01*
G01X0005298Y-052422D02*
G01X0005869Y-053422D01*
G01X0005869Y-053422D02*
G01X0005869Y-052422D01*
G01X0006345Y-053422D02*
G01X0006345Y-052422D01*
G01X0006821Y-053422D02*
G01X0006821Y-052422D01*
G01X0006821Y-052422D02*
G01X0007155Y-053137D01*
G01X0007155Y-053137D02*
G01X0007488Y-052422D01*
G01X0007488Y-052422D02*
G01X0007488Y-053422D01*
G01X0007964Y-052422D02*
G01X0007964Y-053232D01*
G01X0007964Y-053232D02*
G01X0008012Y-053327D01*
G01X0008012Y-053327D02*
G01X0008060Y-053375D01*
G01X0008060Y-053375D02*
G01X0008155Y-053422D01*
G01X0008155Y-053422D02*
G01X0008345Y-053422D01*
G01X0008345Y-053422D02*
G01X0008440Y-053375D01*
G01X0008440Y-053375D02*
G01X0008488Y-053327D01*
G01X0008488Y-053327D02*
G01X0008536Y-053232D01*
G01X0008536Y-053232D02*
G01X0008536Y-052422D01*
G01X0009012Y-053422D02*
G01X0009012Y-052422D01*
G01X0009012Y-052422D02*
G01X0009345Y-053137D01*
G01X0009345Y-053137D02*
G01X0009679Y-052422D01*
G01X0009679Y-052422D02*
G01X0009679Y-053422D01*
G01X0010774Y-052422D02*
G01X0011345Y-052422D01*
G01X0011060Y-053422D02*
G01X0011060Y-052422D01*
G01X0012250Y-053422D02*
G01X0011917Y-052946D01*
G01X0011679Y-053422D02*
G01X0011679Y-052422D01*
G01X0011679Y-052422D02*
G01X0012060Y-052422D01*
G01X0012060Y-052422D02*
G01X0012155Y-052470D01*
G01X0012155Y-052470D02*
G01X0012202Y-052518D01*
G01X0012202Y-052518D02*
G01X0012250Y-052613D01*
G01X0012250Y-052613D02*
G01X0012250Y-052756D01*
G01X0012250Y-052756D02*
G01X0012202Y-052851D01*
G01X0012202Y-052851D02*
G01X0012155Y-052899D01*
G01X0012155Y-052899D02*
G01X0012060Y-052946D01*
G01X0012060Y-052946D02*
G01X0011679Y-052946D01*
G01X0012631Y-053137D02*
G01X0013107Y-053137D01*
G01X0012536Y-053422D02*
G01X0012869Y-052422D01*
G01X0012869Y-052422D02*
G01X0013202Y-053422D01*
G01X0014107Y-053327D02*
G01X0014060Y-053375D01*
G01X0014060Y-053375D02*
G01X0013917Y-053422D01*
G01X0013917Y-053422D02*
G01X0013821Y-053422D01*
G01X0013821Y-053422D02*
G01X0013679Y-053375D01*
G01X0013679Y-053375D02*
G01X0013583Y-053280D01*
G01X0013583Y-053280D02*
G01X0013536Y-053184D01*
G01X0013536Y-053184D02*
G01X0013488Y-052994D01*
G01X0013488Y-052994D02*
G01X0013488Y-052851D01*
G01X0013488Y-052851D02*
G01X0013536Y-052660D01*
G01X0013536Y-052660D02*
G01X0013583Y-052565D01*
G01X0013583Y-052565D02*
G01X0013679Y-052470D01*
G01X0013679Y-052470D02*
G01X0013821Y-052422D01*
G01X0013821Y-052422D02*
G01X0013917Y-052422D01*
G01X0013917Y-052422D02*
G01X0014060Y-052470D01*
G01X0014060Y-052470D02*
G01X0014107Y-052518D01*
G01X0014536Y-052899D02*
G01X0014869Y-052899D01*
G01X0015012Y-053422D02*
G01X0014536Y-053422D01*
G01X0014536Y-053422D02*
G01X0014536Y-052422D01*
G01X0014536Y-052422D02*
G01X0015012Y-052422D01*
G01X0016107Y-052422D02*
G01X0016345Y-053422D01*
G01X0016345Y-053422D02*
G01X0016536Y-052708D01*
G01X0016536Y-052708D02*
G01X0016726Y-053422D01*
G01X0016726Y-053422D02*
G01X0016964Y-052422D01*
G01X0017345Y-053422D02*
G01X0017345Y-052422D01*
G01X0017821Y-053422D02*
G01X0017821Y-052422D01*
G01X0017821Y-052422D02*
G01X0018060Y-052422D01*
G01X0018060Y-052422D02*
G01X0018202Y-052470D01*
G01X0018202Y-052470D02*
G01X0018298Y-052565D01*
G01X0018298Y-052565D02*
G01X0018345Y-052660D01*
G01X0018345Y-052660D02*
G01X0018393Y-052851D01*
G01X0018393Y-052851D02*
G01X0018393Y-052994D01*
G01X0018393Y-052994D02*
G01X0018345Y-053184D01*
G01X0018345Y-053184D02*
G01X0018298Y-053280D01*
G01X0018298Y-053280D02*
G01X0018202Y-053375D01*
G01X0018202Y-053375D02*
G01X0018060Y-053422D01*
G01X0018060Y-053422D02*
G01X0017821Y-053422D01*
G01X0018679Y-052422D02*
G01X0019250Y-052422D01*
G01X0018964Y-053422D02*
G01X0018964Y-052422D01*
G01X0019583Y-053422D02*
G01X0019583Y-052422D01*
G01X0019583Y-052899D02*
G01X0020155Y-052899D01*
G01X0020155Y-053422D02*
G01X0020155Y-052422D01*
G01X0021393Y-053041D02*
G01X0022155Y-053041D01*
G01X0023583Y-052422D02*
G01X0023679Y-052422D01*
G01X0023679Y-052422D02*
G01X0023774Y-052470D01*
G01X0023774Y-052470D02*
G01X0023821Y-052518D01*
G01X0023821Y-052518D02*
G01X0023869Y-052613D01*
G01X0023869Y-052613D02*
G01X0023917Y-052803D01*
G01X0023917Y-052803D02*
G01X0023917Y-053041D01*
G01X0023917Y-053041D02*
G01X0023869Y-053232D01*
G01X0023869Y-053232D02*
G01X0023821Y-053327D01*
G01X0023821Y-053327D02*
G01X0023774Y-053375D01*
G01X0023774Y-053375D02*
G01X0023679Y-053422D01*
G01X0023679Y-053422D02*
G01X0023583Y-053422D01*
G01X0023583Y-053422D02*
G01X0023488Y-053375D01*
G01X0023488Y-053375D02*
G01X0023440Y-053327D01*
G01X0023440Y-053327D02*
G01X0023393Y-053232D01*
G01X0023393Y-053232D02*
G01X0023345Y-053041D01*
G01X0023345Y-053041D02*
G01X0023345Y-052803D01*
G01X0023345Y-052803D02*
G01X0023393Y-052613D01*
G01X0023393Y-052613D02*
G01X0023440Y-052518D01*
G01X0023440Y-052518D02*
G01X0023488Y-052470D01*
G01X0023488Y-052470D02*
G01X0023583Y-052422D01*
G01X0024345Y-053327D02*
G01X0024393Y-053375D01*
G01X0024393Y-053375D02*
G01X0024345Y-053422D01*
G01X0024345Y-053422D02*
G01X0024298Y-053375D01*
G01X0024298Y-053375D02*
G01X0024345Y-053327D01*
G01X0024345Y-053327D02*
G01X0024345Y-053422D01*
G01X0025012Y-052422D02*
G01X0025107Y-052422D01*
G01X0025107Y-052422D02*
G01X0025202Y-052470D01*
G01X0025202Y-052470D02*
G01X0025250Y-052518D01*
G01X0025250Y-052518D02*
G01X0025298Y-052613D01*
G01X0025298Y-052613D02*
G01X0025345Y-052803D01*
G01X0025345Y-052803D02*
G01X0025345Y-053041D01*
G01X0025345Y-053041D02*
G01X0025298Y-053232D01*
G01X0025298Y-053232D02*
G01X0025250Y-053327D01*
G01X0025250Y-053327D02*
G01X0025202Y-053375D01*
G01X0025202Y-053375D02*
G01X0025107Y-053422D01*
G01X0025107Y-053422D02*
G01X0025012Y-053422D01*
G01X0025012Y-053422D02*
G01X0024917Y-053375D01*
G01X0024917Y-053375D02*
G01X0024869Y-053327D01*
G01X0024869Y-053327D02*
G01X0024821Y-053232D01*
G01X0024821Y-053232D02*
G01X0024774Y-053041D01*
G01X0024774Y-053041D02*
G01X0024774Y-052803D01*
G01X0024774Y-052803D02*
G01X0024821Y-052613D01*
G01X0024821Y-052613D02*
G01X0024869Y-052518D01*
G01X0024869Y-052518D02*
G01X0024917Y-052470D01*
G01X0024917Y-052470D02*
G01X0025012Y-052422D01*
G01X0025964Y-052422D02*
G01X0026060Y-052422D01*
G01X0026060Y-052422D02*
G01X0026155Y-052470D01*
G01X0026155Y-052470D02*
G01X0026202Y-052518D01*
G01X0026202Y-052518D02*
G01X0026250Y-052613D01*
G01X0026250Y-052613D02*
G01X0026298Y-052803D01*
G01X0026298Y-052803D02*
G01X0026298Y-053041D01*
G01X0026298Y-053041D02*
G01X0026250Y-053232D01*
G01X0026250Y-053232D02*
G01X0026202Y-053327D01*
G01X0026202Y-053327D02*
G01X0026155Y-053375D01*
G01X0026155Y-053375D02*
G01X0026060Y-053422D01*
G01X0026060Y-053422D02*
G01X0025964Y-053422D01*
G01X0025964Y-053422D02*
G01X0025869Y-053375D01*
G01X0025869Y-053375D02*
G01X0025821Y-053327D01*
G01X0025821Y-053327D02*
G01X0025774Y-053232D01*
G01X0025774Y-053232D02*
G01X0025726Y-053041D01*
G01X0025726Y-053041D02*
G01X0025726Y-052803D01*
G01X0025726Y-052803D02*
G01X0025774Y-052613D01*
G01X0025774Y-052613D02*
G01X0025821Y-052518D01*
G01X0025821Y-052518D02*
G01X0025869Y-052470D01*
G01X0025869Y-052470D02*
G01X0025964Y-052422D01*
G01X0027155Y-052422D02*
G01X0026964Y-052422D01*
G01X0026964Y-052422D02*
G01X0026869Y-052470D01*
G01X0026869Y-052470D02*
G01X0026821Y-052518D01*
G01X0026821Y-052518D02*
G01X0026726Y-052660D01*
G01X0026726Y-052660D02*
G01X0026679Y-052851D01*
G01X0026679Y-052851D02*
G01X0026679Y-053232D01*
G01X0026679Y-053232D02*
G01X0026726Y-053327D01*
G01X0026726Y-053327D02*
G01X0026774Y-053375D01*
G01X0026774Y-053375D02*
G01X0026869Y-053422D01*
G01X0026869Y-053422D02*
G01X0027060Y-053422D01*
G01X0027060Y-053422D02*
G01X0027155Y-053375D01*
G01X0027155Y-053375D02*
G01X0027202Y-053327D01*
G01X0027202Y-053327D02*
G01X0027250Y-053232D01*
G01X0027250Y-053232D02*
G01X0027250Y-052994D01*
G01X0027250Y-052994D02*
G01X0027202Y-052899D01*
G01X0027202Y-052899D02*
G01X0027155Y-052851D01*
G01X0027155Y-052851D02*
G01X0027060Y-052803D01*
G01X0027060Y-052803D02*
G01X0026869Y-052803D01*
G01X0026869Y-052803D02*
G01X0026774Y-052851D01*
G01X0026774Y-052851D02*
G01X0026726Y-052899D01*
G01X0026726Y-052899D02*
G01X0026679Y-052994D01*
G01X0028440Y-053422D02*
G01X0028440Y-052422D01*
G01X0028917Y-053422D02*
G01X0028917Y-052422D01*
G01X0028917Y-052422D02*
G01X0029488Y-053422D01*
G01X0029488Y-053422D02*
G01X0029488Y-052422D01*
G01X0030536Y-053327D02*
G01X0030488Y-053375D01*
G01X0030488Y-053375D02*
G01X0030345Y-053422D01*
G01X0030345Y-053422D02*
G01X0030250Y-053422D01*
G01X0030250Y-053422D02*
G01X0030107Y-053375D01*
G01X0030107Y-053375D02*
G01X0030012Y-053280D01*
G01X0030012Y-053280D02*
G01X0029964Y-053184D01*
G01X0029964Y-053184D02*
G01X0029917Y-052994D01*
G01X0029917Y-052994D02*
G01X0029917Y-052851D01*
G01X0029917Y-052851D02*
G01X0029964Y-052660D01*
G01X0029964Y-052660D02*
G01X0030012Y-052565D01*
G01X0030012Y-052565D02*
G01X0030107Y-052470D01*
G01X0030107Y-052470D02*
G01X0030250Y-052422D01*
G01X0030250Y-052422D02*
G01X0030345Y-052422D01*
G01X0030345Y-052422D02*
G01X0030488Y-052470D01*
G01X0030488Y-052470D02*
G01X0030536Y-052518D01*
G01X0030964Y-053422D02*
G01X0030964Y-052422D01*
G01X0030964Y-052899D02*
G01X0031536Y-052899D01*
G01X0031536Y-053422D02*
G01X0031536Y-052422D01*
G01X0032012Y-053327D02*
G01X0032060Y-053375D01*
G01X0032060Y-053375D02*
G01X0032012Y-053422D01*
G01X0032012Y-053422D02*
G01X0031964Y-053375D01*
G01X0031964Y-053375D02*
G01X0032012Y-053327D01*
G01X0032012Y-053327D02*
G01X0032012Y-053422D01*
G01X0003774Y-055022D02*
G01X0003774Y-054022D01*
G01X0003774Y-054022D02*
G01X0004107Y-054737D01*
G01X0004107Y-054737D02*
G01X0004440Y-054022D01*
G01X0004440Y-054022D02*
G01X0004440Y-055022D01*
G01X0004917Y-055022D02*
G01X0004917Y-054022D01*
G01X0005393Y-055022D02*
G01X0005393Y-054022D01*
G01X0005393Y-054022D02*
G01X0005964Y-055022D01*
G01X0005964Y-055022D02*
G01X0005964Y-054022D01*
G01X0006440Y-055022D02*
G01X0006440Y-054022D01*
G01X0006917Y-055022D02*
G01X0006917Y-054022D01*
G01X0006917Y-054022D02*
G01X0007250Y-054737D01*
G01X0007250Y-054737D02*
G01X0007583Y-054022D01*
G01X0007583Y-054022D02*
G01X0007583Y-055022D01*
G01X0008060Y-054022D02*
G01X0008060Y-054832D01*
G01X0008060Y-054832D02*
G01X0008107Y-054927D01*
G01X0008107Y-054927D02*
G01X0008155Y-054975D01*
G01X0008155Y-054975D02*
G01X0008250Y-055022D01*
G01X0008250Y-055022D02*
G01X0008440Y-055022D01*
G01X0008440Y-055022D02*
G01X0008536Y-054975D01*
G01X0008536Y-054975D02*
G01X0008583Y-054927D01*
G01X0008583Y-054927D02*
G01X0008631Y-054832D01*
G01X0008631Y-054832D02*
G01X0008631Y-054022D01*
G01X0009107Y-055022D02*
G01X0009107Y-054022D01*
G01X0009107Y-054022D02*
G01X0009440Y-054737D01*
G01X0009440Y-054737D02*
G01X0009774Y-054022D01*
G01X0009774Y-054022D02*
G01X0009774Y-055022D01*
G01X0010964Y-054975D02*
G01X0011107Y-055022D01*
G01X0011107Y-055022D02*
G01X0011345Y-055022D01*
G01X0011345Y-055022D02*
G01X0011440Y-054975D01*
G01X0011440Y-054975D02*
G01X0011488Y-054927D01*
G01X0011488Y-054927D02*
G01X0011536Y-054832D01*
G01X0011536Y-054832D02*
G01X0011536Y-054737D01*
G01X0011536Y-054737D02*
G01X0011488Y-054641D01*
G01X0011488Y-054641D02*
G01X0011440Y-054594D01*
G01X0011440Y-054594D02*
G01X0011345Y-054546D01*
G01X0011345Y-054546D02*
G01X0011155Y-054499D01*
G01X0011155Y-054499D02*
G01X0011060Y-054451D01*
G01X0011060Y-054451D02*
G01X0011012Y-054403D01*
G01X0011012Y-054403D02*
G01X0010964Y-054308D01*
G01X0010964Y-054308D02*
G01X0010964Y-054213D01*
G01X0010964Y-054213D02*
G01X0011012Y-054118D01*
G01X0011012Y-054118D02*
G01X0011060Y-054070D01*
G01X0011060Y-054070D02*
G01X0011155Y-054022D01*
G01X0011155Y-054022D02*
G01X0011393Y-054022D01*
G01X0011393Y-054022D02*
G01X0011536Y-054070D01*
G01X0011964Y-055022D02*
G01X0011964Y-054022D01*
G01X0011964Y-054022D02*
G01X0012345Y-054022D01*
G01X0012345Y-054022D02*
G01X0012440Y-054070D01*
G01X0012440Y-054070D02*
G01X0012488Y-054118D01*
G01X0012488Y-054118D02*
G01X0012536Y-054213D01*
G01X0012536Y-054213D02*
G01X0012536Y-054356D01*
G01X0012536Y-054356D02*
G01X0012488Y-054451D01*
G01X0012488Y-054451D02*
G01X0012440Y-054499D01*
G01X0012440Y-054499D02*
G01X0012345Y-054546D01*
G01X0012345Y-054546D02*
G01X0011964Y-054546D01*
G01X0012917Y-054737D02*
G01X0013393Y-054737D01*
G01X0012821Y-055022D02*
G01X0013155Y-054022D01*
G01X0013155Y-054022D02*
G01X0013488Y-055022D01*
G01X0014393Y-054927D02*
G01X0014345Y-054975D01*
G01X0014345Y-054975D02*
G01X0014202Y-055022D01*
G01X0014202Y-055022D02*
G01X0014107Y-055022D01*
G01X0014107Y-055022D02*
G01X0013964Y-054975D01*
G01X0013964Y-054975D02*
G01X0013869Y-054880D01*
G01X0013869Y-054880D02*
G01X0013821Y-054784D01*
G01X0013821Y-054784D02*
G01X0013774Y-054594D01*
G01X0013774Y-054594D02*
G01X0013774Y-054451D01*
G01X0013774Y-054451D02*
G01X0013821Y-054260D01*
G01X0013821Y-054260D02*
G01X0013869Y-054165D01*
G01X0013869Y-054165D02*
G01X0013964Y-054070D01*
G01X0013964Y-054070D02*
G01X0014107Y-054022D01*
G01X0014107Y-054022D02*
G01X0014202Y-054022D01*
G01X0014202Y-054022D02*
G01X0014345Y-054070D01*
G01X0014345Y-054070D02*
G01X0014393Y-054118D01*
G01X0014821Y-054499D02*
G01X0015155Y-054499D01*
G01X0015298Y-055022D02*
G01X0014821Y-055022D01*
G01X0014821Y-055022D02*
G01X0014821Y-054022D01*
G01X0014821Y-054022D02*
G01X0015298Y-054022D01*
G01X0016488Y-054641D02*
G01X0017250Y-054641D01*
G01X0018679Y-054022D02*
G01X0018774Y-054022D01*
G01X0018774Y-054022D02*
G01X0018869Y-054070D01*
G01X0018869Y-054070D02*
G01X0018917Y-054118D01*
G01X0018917Y-054118D02*
G01X0018964Y-054213D01*
G01X0018964Y-054213D02*
G01X0019012Y-054403D01*
G01X0019012Y-054403D02*
G01X0019012Y-054641D01*
G01X0019012Y-054641D02*
G01X0018964Y-054832D01*
G01X0018964Y-054832D02*
G01X0018917Y-054927D01*
G01X0018917Y-054927D02*
G01X0018869Y-054975D01*
G01X0018869Y-054975D02*
G01X0018774Y-055022D01*
G01X0018774Y-055022D02*
G01X0018679Y-055022D01*
G01X0018679Y-055022D02*
G01X0018583Y-054975D01*
G01X0018583Y-054975D02*
G01X0018536Y-054927D01*
G01X0018536Y-054927D02*
G01X0018488Y-054832D01*
G01X0018488Y-054832D02*
G01X0018440Y-054641D01*
G01X0018440Y-054641D02*
G01X0018440Y-054403D01*
G01X0018440Y-054403D02*
G01X0018488Y-054213D01*
G01X0018488Y-054213D02*
G01X0018536Y-054118D01*
G01X0018536Y-054118D02*
G01X0018583Y-054070D01*
G01X0018583Y-054070D02*
G01X0018679Y-054022D01*
G01X0019440Y-054927D02*
G01X0019488Y-054975D01*
G01X0019488Y-054975D02*
G01X0019440Y-055022D01*
G01X0019440Y-055022D02*
G01X0019393Y-054975D01*
G01X0019393Y-054975D02*
G01X0019440Y-054927D01*
G01X0019440Y-054927D02*
G01X0019440Y-055022D01*
G01X0020107Y-054022D02*
G01X0020202Y-054022D01*
G01X0020202Y-054022D02*
G01X0020298Y-054070D01*
G01X0020298Y-054070D02*
G01X0020345Y-054118D01*
G01X0020345Y-054118D02*
G01X0020393Y-054213D01*
G01X0020393Y-054213D02*
G01X0020440Y-054403D01*
G01X0020440Y-054403D02*
G01X0020440Y-054641D01*
G01X0020440Y-054641D02*
G01X0020393Y-054832D01*
G01X0020393Y-054832D02*
G01X0020345Y-054927D01*
G01X0020345Y-054927D02*
G01X0020298Y-054975D01*
G01X0020298Y-054975D02*
G01X0020202Y-055022D01*
G01X0020202Y-055022D02*
G01X0020107Y-055022D01*
G01X0020107Y-055022D02*
G01X0020012Y-054975D01*
G01X0020012Y-054975D02*
G01X0019964Y-054927D01*
G01X0019964Y-054927D02*
G01X0019917Y-054832D01*
G01X0019917Y-054832D02*
G01X0019869Y-054641D01*
G01X0019869Y-054641D02*
G01X0019869Y-054403D01*
G01X0019869Y-054403D02*
G01X0019917Y-054213D01*
G01X0019917Y-054213D02*
G01X0019964Y-054118D01*
G01X0019964Y-054118D02*
G01X0020012Y-054070D01*
G01X0020012Y-054070D02*
G01X0020107Y-054022D01*
G01X0021060Y-054022D02*
G01X0021155Y-054022D01*
G01X0021155Y-054022D02*
G01X0021250Y-054070D01*
G01X0021250Y-054070D02*
G01X0021298Y-054118D01*
G01X0021298Y-054118D02*
G01X0021345Y-054213D01*
G01X0021345Y-054213D02*
G01X0021393Y-054403D01*
G01X0021393Y-054403D02*
G01X0021393Y-054641D01*
G01X0021393Y-054641D02*
G01X0021345Y-054832D01*
G01X0021345Y-054832D02*
G01X0021298Y-054927D01*
G01X0021298Y-054927D02*
G01X0021250Y-054975D01*
G01X0021250Y-054975D02*
G01X0021155Y-055022D01*
G01X0021155Y-055022D02*
G01X0021060Y-055022D01*
G01X0021060Y-055022D02*
G01X0020964Y-054975D01*
G01X0020964Y-054975D02*
G01X0020917Y-054927D01*
G01X0020917Y-054927D02*
G01X0020869Y-054832D01*
G01X0020869Y-054832D02*
G01X0020821Y-054641D01*
G01X0020821Y-054641D02*
G01X0020821Y-054403D01*
G01X0020821Y-054403D02*
G01X0020869Y-054213D01*
G01X0020869Y-054213D02*
G01X0020917Y-054118D01*
G01X0020917Y-054118D02*
G01X0020964Y-054070D01*
G01X0020964Y-054070D02*
G01X0021060Y-054022D01*
G01X0022250Y-054022D02*
G01X0022060Y-054022D01*
G01X0022060Y-054022D02*
G01X0021964Y-054070D01*
G01X0021964Y-054070D02*
G01X0021917Y-054118D01*
G01X0021917Y-054118D02*
G01X0021821Y-054260D01*
G01X0021821Y-054260D02*
G01X0021774Y-054451D01*
G01X0021774Y-054451D02*
G01X0021774Y-054832D01*
G01X0021774Y-054832D02*
G01X0021821Y-054927D01*
G01X0021821Y-054927D02*
G01X0021869Y-054975D01*
G01X0021869Y-054975D02*
G01X0021964Y-055022D01*
G01X0021964Y-055022D02*
G01X0022155Y-055022D01*
G01X0022155Y-055022D02*
G01X0022250Y-054975D01*
G01X0022250Y-054975D02*
G01X0022298Y-054927D01*
G01X0022298Y-054927D02*
G01X0022345Y-054832D01*
G01X0022345Y-054832D02*
G01X0022345Y-054594D01*
G01X0022345Y-054594D02*
G01X0022298Y-054499D01*
G01X0022298Y-054499D02*
G01X0022250Y-054451D01*
G01X0022250Y-054451D02*
G01X0022155Y-054403D01*
G01X0022155Y-054403D02*
G01X0021964Y-054403D01*
G01X0021964Y-054403D02*
G01X0021869Y-054451D01*
G01X0021869Y-054451D02*
G01X0021821Y-054499D01*
G01X0021821Y-054499D02*
G01X0021774Y-054594D01*
G01X0023536Y-055022D02*
G01X0023536Y-054022D01*
G01X0024012Y-055022D02*
G01X0024012Y-054022D01*
G01X0024012Y-054022D02*
G01X0024583Y-055022D01*
G01X0024583Y-055022D02*
G01X0024583Y-054022D01*
G01X0025631Y-054927D02*
G01X0025583Y-054975D01*
G01X0025583Y-054975D02*
G01X0025440Y-055022D01*
G01X0025440Y-055022D02*
G01X0025345Y-055022D01*
G01X0025345Y-055022D02*
G01X0025202Y-054975D01*
G01X0025202Y-054975D02*
G01X0025107Y-054880D01*
G01X0025107Y-054880D02*
G01X0025060Y-054784D01*
G01X0025060Y-054784D02*
G01X0025012Y-054594D01*
G01X0025012Y-054594D02*
G01X0025012Y-054451D01*
G01X0025012Y-054451D02*
G01X0025060Y-054260D01*
G01X0025060Y-054260D02*
G01X0025107Y-054165D01*
G01X0025107Y-054165D02*
G01X0025202Y-054070D01*
G01X0025202Y-054070D02*
G01X0025345Y-054022D01*
G01X0025345Y-054022D02*
G01X0025440Y-054022D01*
G01X0025440Y-054022D02*
G01X0025583Y-054070D01*
G01X0025583Y-054070D02*
G01X0025631Y-054118D01*
G01X0026060Y-055022D02*
G01X0026060Y-054022D01*
G01X0026060Y-054499D02*
G01X0026631Y-054499D01*
G01X0026631Y-055022D02*
G01X0026631Y-054022D01*
G01X0027107Y-054927D02*
G01X0027155Y-054975D01*
G01X0027155Y-054975D02*
G01X0027107Y-055022D01*
G01X0027107Y-055022D02*
G01X0027060Y-054975D01*
G01X0027060Y-054975D02*
G01X0027107Y-054927D01*
G01X0027107Y-054927D02*
G01X0027107Y-055022D01*
G01X0003774Y-056622D02*
G01X0003774Y-055622D01*
G01X0003774Y-055622D02*
G01X0004107Y-056337D01*
G01X0004107Y-056337D02*
G01X0004440Y-055622D01*
G01X0004440Y-055622D02*
G01X0004440Y-056622D01*
G01X0004917Y-056622D02*
G01X0004917Y-055622D01*
G01X0005393Y-056622D02*
G01X0005393Y-055622D01*
G01X0005393Y-055622D02*
G01X0005964Y-056622D01*
G01X0005964Y-056622D02*
G01X0005964Y-055622D01*
G01X0006440Y-056622D02*
G01X0006440Y-055622D01*
G01X0006917Y-056622D02*
G01X0006917Y-055622D01*
G01X0006917Y-055622D02*
G01X0007250Y-056337D01*
G01X0007250Y-056337D02*
G01X0007583Y-055622D01*
G01X0007583Y-055622D02*
G01X0007583Y-056622D01*
G01X0008060Y-055622D02*
G01X0008060Y-056432D01*
G01X0008060Y-056432D02*
G01X0008107Y-056527D01*
G01X0008107Y-056527D02*
G01X0008155Y-056575D01*
G01X0008155Y-056575D02*
G01X0008250Y-056622D01*
G01X0008250Y-056622D02*
G01X0008440Y-056622D01*
G01X0008440Y-056622D02*
G01X0008536Y-056575D01*
G01X0008536Y-056575D02*
G01X0008583Y-056527D01*
G01X0008583Y-056527D02*
G01X0008631Y-056432D01*
G01X0008631Y-056432D02*
G01X0008631Y-055622D01*
G01X0009107Y-056622D02*
G01X0009107Y-055622D01*
G01X0009107Y-055622D02*
G01X0009440Y-056337D01*
G01X0009440Y-056337D02*
G01X0009774Y-055622D01*
G01X0009774Y-055622D02*
G01X0009774Y-056622D01*
G01X0011012Y-056622D02*
G01X0011012Y-055622D01*
G01X0011012Y-056099D02*
G01X0011583Y-056099D01*
G01X0011583Y-056622D02*
G01X0011583Y-055622D01*
G01X0012250Y-055622D02*
G01X0012440Y-055622D01*
G01X0012440Y-055622D02*
G01X0012536Y-055670D01*
G01X0012536Y-055670D02*
G01X0012631Y-055765D01*
G01X0012631Y-055765D02*
G01X0012679Y-055956D01*
G01X0012679Y-055956D02*
G01X0012679Y-056289D01*
G01X0012679Y-056289D02*
G01X0012631Y-056480D01*
G01X0012631Y-056480D02*
G01X0012536Y-056575D01*
G01X0012536Y-056575D02*
G01X0012440Y-056622D01*
G01X0012440Y-056622D02*
G01X0012250Y-056622D01*
G01X0012250Y-056622D02*
G01X0012155Y-056575D01*
G01X0012155Y-056575D02*
G01X0012060Y-056480D01*
G01X0012060Y-056480D02*
G01X0012012Y-056289D01*
G01X0012012Y-056289D02*
G01X0012012Y-055956D01*
G01X0012012Y-055956D02*
G01X0012060Y-055765D01*
G01X0012060Y-055765D02*
G01X0012155Y-055670D01*
G01X0012155Y-055670D02*
G01X0012250Y-055622D01*
G01X0013583Y-056622D02*
G01X0013107Y-056622D01*
G01X0013107Y-056622D02*
G01X0013107Y-055622D01*
G01X0013917Y-056099D02*
G01X0014250Y-056099D01*
G01X0014393Y-056622D02*
G01X0013917Y-056622D01*
G01X0013917Y-056622D02*
G01X0013917Y-055622D01*
G01X0013917Y-055622D02*
G01X0014393Y-055622D01*
G01X0015583Y-056622D02*
G01X0015583Y-055622D01*
G01X0015583Y-055622D02*
G01X0015821Y-055622D01*
G01X0015821Y-055622D02*
G01X0015964Y-055670D01*
G01X0015964Y-055670D02*
G01X0016060Y-055765D01*
G01X0016060Y-055765D02*
G01X0016107Y-055860D01*
G01X0016107Y-055860D02*
G01X0016155Y-056051D01*
G01X0016155Y-056051D02*
G01X0016155Y-056194D01*
G01X0016155Y-056194D02*
G01X0016107Y-056384D01*
G01X0016107Y-056384D02*
G01X0016060Y-056480D01*
G01X0016060Y-056480D02*
G01X0015964Y-056575D01*
G01X0015964Y-056575D02*
G01X0015821Y-056622D01*
G01X0015821Y-056622D02*
G01X0015583Y-056622D01*
G01X0016583Y-056622D02*
G01X0016583Y-055622D01*
G01X0017012Y-056337D02*
G01X0017488Y-056337D01*
G01X0016917Y-056622D02*
G01X0017250Y-055622D01*
G01X0017250Y-055622D02*
G01X0017583Y-056622D01*
G01X0018679Y-056241D02*
G01X0019440Y-056241D01*
G01X0020869Y-055622D02*
G01X0020964Y-055622D01*
G01X0020964Y-055622D02*
G01X0021060Y-055670D01*
G01X0021060Y-055670D02*
G01X0021107Y-055718D01*
G01X0021107Y-055718D02*
G01X0021155Y-055813D01*
G01X0021155Y-055813D02*
G01X0021202Y-056003D01*
G01X0021202Y-056003D02*
G01X0021202Y-056241D01*
G01X0021202Y-056241D02*
G01X0021155Y-056432D01*
G01X0021155Y-056432D02*
G01X0021107Y-056527D01*
G01X0021107Y-056527D02*
G01X0021060Y-056575D01*
G01X0021060Y-056575D02*
G01X0020964Y-056622D01*
G01X0020964Y-056622D02*
G01X0020869Y-056622D01*
G01X0020869Y-056622D02*
G01X0020774Y-056575D01*
G01X0020774Y-056575D02*
G01X0020726Y-056527D01*
G01X0020726Y-056527D02*
G01X0020679Y-056432D01*
G01X0020679Y-056432D02*
G01X0020631Y-056241D01*
G01X0020631Y-056241D02*
G01X0020631Y-056003D01*
G01X0020631Y-056003D02*
G01X0020679Y-055813D01*
G01X0020679Y-055813D02*
G01X0020726Y-055718D01*
G01X0020726Y-055718D02*
G01X0020774Y-055670D01*
G01X0020774Y-055670D02*
G01X0020869Y-055622D01*
G01X0021631Y-056527D02*
G01X0021679Y-056575D01*
G01X0021679Y-056575D02*
G01X0021631Y-056622D01*
G01X0021631Y-056622D02*
G01X0021583Y-056575D01*
G01X0021583Y-056575D02*
G01X0021631Y-056527D01*
G01X0021631Y-056527D02*
G01X0021631Y-056622D01*
G01X0022298Y-055622D02*
G01X0022393Y-055622D01*
G01X0022393Y-055622D02*
G01X0022488Y-055670D01*
G01X0022488Y-055670D02*
G01X0022536Y-055718D01*
G01X0022536Y-055718D02*
G01X0022583Y-055813D01*
G01X0022583Y-055813D02*
G01X0022631Y-056003D01*
G01X0022631Y-056003D02*
G01X0022631Y-056241D01*
G01X0022631Y-056241D02*
G01X0022583Y-056432D01*
G01X0022583Y-056432D02*
G01X0022536Y-056527D01*
G01X0022536Y-056527D02*
G01X0022488Y-056575D01*
G01X0022488Y-056575D02*
G01X0022393Y-056622D01*
G01X0022393Y-056622D02*
G01X0022298Y-056622D01*
G01X0022298Y-056622D02*
G01X0022202Y-056575D01*
G01X0022202Y-056575D02*
G01X0022155Y-056527D01*
G01X0022155Y-056527D02*
G01X0022107Y-056432D01*
G01X0022107Y-056432D02*
G01X0022060Y-056241D01*
G01X0022060Y-056241D02*
G01X0022060Y-056003D01*
G01X0022060Y-056003D02*
G01X0022107Y-055813D01*
G01X0022107Y-055813D02*
G01X0022155Y-055718D01*
G01X0022155Y-055718D02*
G01X0022202Y-055670D01*
G01X0022202Y-055670D02*
G01X0022298Y-055622D01*
G01X0023583Y-056622D02*
G01X0023012Y-056622D01*
G01X0023298Y-056622D02*
G01X0023298Y-055622D01*
G01X0023298Y-055622D02*
G01X0023202Y-055765D01*
G01X0023202Y-055765D02*
G01X0023107Y-055860D01*
G01X0023107Y-055860D02*
G01X0023012Y-055908D01*
G01X0023917Y-055622D02*
G01X0024536Y-055622D01*
G01X0024536Y-055622D02*
G01X0024202Y-056003D01*
G01X0024202Y-056003D02*
G01X0024345Y-056003D01*
G01X0024345Y-056003D02*
G01X0024440Y-056051D01*
G01X0024440Y-056051D02*
G01X0024488Y-056099D01*
G01X0024488Y-056099D02*
G01X0024536Y-056194D01*
G01X0024536Y-056194D02*
G01X0024536Y-056432D01*
G01X0024536Y-056432D02*
G01X0024488Y-056527D01*
G01X0024488Y-056527D02*
G01X0024440Y-056575D01*
G01X0024440Y-056575D02*
G01X0024345Y-056622D01*
G01X0024345Y-056622D02*
G01X0024060Y-056622D01*
G01X0024060Y-056622D02*
G01X0023964Y-056575D01*
G01X0023964Y-056575D02*
G01X0023917Y-056527D01*
G01X0025726Y-056622D02*
G01X0025726Y-055622D01*
G01X0026202Y-056622D02*
G01X0026202Y-055622D01*
G01X0026202Y-055622D02*
G01X0026774Y-056622D01*
G01X0026774Y-056622D02*
G01X0026774Y-055622D01*
G01X0027821Y-056527D02*
G01X0027774Y-056575D01*
G01X0027774Y-056575D02*
G01X0027631Y-056622D01*
G01X0027631Y-056622D02*
G01X0027536Y-056622D01*
G01X0027536Y-056622D02*
G01X0027393Y-056575D01*
G01X0027393Y-056575D02*
G01X0027298Y-056480D01*
G01X0027298Y-056480D02*
G01X0027250Y-056384D01*
G01X0027250Y-056384D02*
G01X0027202Y-056194D01*
G01X0027202Y-056194D02*
G01X0027202Y-056051D01*
G01X0027202Y-056051D02*
G01X0027250Y-055860D01*
G01X0027250Y-055860D02*
G01X0027298Y-055765D01*
G01X0027298Y-055765D02*
G01X0027393Y-055670D01*
G01X0027393Y-055670D02*
G01X0027536Y-055622D01*
G01X0027536Y-055622D02*
G01X0027631Y-055622D01*
G01X0027631Y-055622D02*
G01X0027774Y-055670D01*
G01X0027774Y-055670D02*
G01X0027821Y-055718D01*
G01X0028250Y-056622D02*
G01X0028250Y-055622D01*
G01X0028250Y-056099D02*
G01X0028821Y-056099D01*
G01X0028821Y-056622D02*
G01X0028821Y-055622D01*
G01X0029298Y-056527D02*
G01X0029345Y-056575D01*
G01X0029345Y-056575D02*
G01X0029298Y-056622D01*
G01X0029298Y-056622D02*
G01X0029250Y-056575D01*
G01X0029250Y-056575D02*
G01X0029298Y-056527D01*
G01X0029298Y-056527D02*
G01X0029298Y-056622D01*
G01X0002012Y-058222D02*
G01X0001440Y-058222D01*
G01X0001726Y-058222D02*
G01X0001726Y-057222D01*
G01X0001726Y-057222D02*
G01X0001631Y-057365D01*
G01X0001631Y-057365D02*
G01X0001536Y-057460D01*
G01X0001536Y-057460D02*
G01X0001440Y-057508D01*
G01X0002631Y-057222D02*
G01X0002726Y-057222D01*
G01X0002726Y-057222D02*
G01X0002821Y-057270D01*
G01X0002821Y-057270D02*
G01X0002869Y-057318D01*
G01X0002869Y-057318D02*
G01X0002917Y-057413D01*
G01X0002917Y-057413D02*
G01X0002964Y-057603D01*
G01X0002964Y-057603D02*
G01X0002964Y-057841D01*
G01X0002964Y-057841D02*
G01X0002917Y-058032D01*
G01X0002917Y-058032D02*
G01X0002869Y-058127D01*
G01X0002869Y-058127D02*
G01X0002821Y-058175D01*
G01X0002821Y-058175D02*
G01X0002726Y-058222D01*
G01X0002726Y-058222D02*
G01X0002631Y-058222D01*
G01X0002631Y-058222D02*
G01X0002536Y-058175D01*
G01X0002536Y-058175D02*
G01X0002488Y-058127D01*
G01X0002488Y-058127D02*
G01X0002440Y-058032D01*
G01X0002440Y-058032D02*
G01X0002393Y-057841D01*
G01X0002393Y-057841D02*
G01X0002393Y-057603D01*
G01X0002393Y-057603D02*
G01X0002440Y-057413D01*
G01X0002440Y-057413D02*
G01X0002488Y-057318D01*
G01X0002488Y-057318D02*
G01X0002536Y-057270D01*
G01X0002536Y-057270D02*
G01X0002631Y-057222D01*
G01X0003393Y-058127D02*
G01X0003440Y-058175D01*
G01X0003440Y-058175D02*
G01X0003393Y-058222D01*
G01X0003393Y-058222D02*
G01X0003345Y-058175D01*
G01X0003345Y-058175D02*
G01X0003393Y-058127D01*
G01X0003393Y-058127D02*
G01X0003393Y-058222D01*
G01X0004631Y-058222D02*
G01X0004631Y-057222D01*
G01X0004631Y-057222D02*
G01X0004964Y-057937D01*
G01X0004964Y-057937D02*
G01X0005298Y-057222D01*
G01X0005298Y-057222D02*
G01X0005298Y-058222D01*
G01X0005726Y-057937D02*
G01X0006202Y-057937D01*
G01X0005631Y-058222D02*
G01X0005964Y-057222D01*
G01X0005964Y-057222D02*
G01X0006298Y-058222D01*
G01X0006536Y-057222D02*
G01X0007202Y-058222D01*
G01X0007202Y-057222D02*
G01X0006536Y-058222D01*
G01X0008345Y-058222D02*
G01X0008345Y-057222D01*
G01X0008345Y-057699D02*
G01X0008917Y-057699D01*
G01X0008917Y-058222D02*
G01X0008917Y-057222D01*
G01X0009583Y-057222D02*
G01X0009774Y-057222D01*
G01X0009774Y-057222D02*
G01X0009869Y-057270D01*
G01X0009869Y-057270D02*
G01X0009964Y-057365D01*
G01X0009964Y-057365D02*
G01X0010012Y-057556D01*
G01X0010012Y-057556D02*
G01X0010012Y-057889D01*
G01X0010012Y-057889D02*
G01X0009964Y-058080D01*
G01X0009964Y-058080D02*
G01X0009869Y-058175D01*
G01X0009869Y-058175D02*
G01X0009774Y-058222D01*
G01X0009774Y-058222D02*
G01X0009583Y-058222D01*
G01X0009583Y-058222D02*
G01X0009488Y-058175D01*
G01X0009488Y-058175D02*
G01X0009393Y-058080D01*
G01X0009393Y-058080D02*
G01X0009345Y-057889D01*
G01X0009345Y-057889D02*
G01X0009345Y-057556D01*
G01X0009345Y-057556D02*
G01X0009393Y-057365D01*
G01X0009393Y-057365D02*
G01X0009488Y-057270D01*
G01X0009488Y-057270D02*
G01X0009583Y-057222D01*
G01X0010917Y-058222D02*
G01X0010440Y-058222D01*
G01X0010440Y-058222D02*
G01X0010440Y-057222D01*
G01X0011250Y-057699D02*
G01X0011583Y-057699D01*
G01X0011726Y-058222D02*
G01X0011250Y-058222D01*
G01X0011250Y-058222D02*
G01X0011250Y-057222D01*
G01X0011250Y-057222D02*
G01X0011726Y-057222D01*
G01X0012917Y-058222D02*
G01X0012917Y-057222D01*
G01X0012917Y-057222D02*
G01X0013298Y-057222D01*
G01X0013298Y-057222D02*
G01X0013393Y-057270D01*
G01X0013393Y-057270D02*
G01X0013440Y-057318D01*
G01X0013440Y-057318D02*
G01X0013488Y-057413D01*
G01X0013488Y-057413D02*
G01X0013488Y-057556D01*
G01X0013488Y-057556D02*
G01X0013440Y-057651D01*
G01X0013440Y-057651D02*
G01X0013393Y-057699D01*
G01X0013393Y-057699D02*
G01X0013298Y-057746D01*
G01X0013298Y-057746D02*
G01X0012917Y-057746D01*
G01X0014393Y-058222D02*
G01X0013917Y-058222D01*
G01X0013917Y-058222D02*
G01X0013917Y-057222D01*
G01X0014679Y-057937D02*
G01X0015155Y-057937D01*
G01X0014583Y-058222D02*
G01X0014917Y-057222D01*
G01X0014917Y-057222D02*
G01X0015250Y-058222D01*
G01X0016155Y-058127D02*
G01X0016107Y-058175D01*
G01X0016107Y-058175D02*
G01X0015964Y-058222D01*
G01X0015964Y-058222D02*
G01X0015869Y-058222D01*
G01X0015869Y-058222D02*
G01X0015726Y-058175D01*
G01X0015726Y-058175D02*
G01X0015631Y-058080D01*
G01X0015631Y-058080D02*
G01X0015583Y-057984D01*
G01X0015583Y-057984D02*
G01X0015536Y-057794D01*
G01X0015536Y-057794D02*
G01X0015536Y-057651D01*
G01X0015536Y-057651D02*
G01X0015583Y-057460D01*
G01X0015583Y-057460D02*
G01X0015631Y-057365D01*
G01X0015631Y-057365D02*
G01X0015726Y-057270D01*
G01X0015726Y-057270D02*
G01X0015869Y-057222D01*
G01X0015869Y-057222D02*
G01X0015964Y-057222D01*
G01X0015964Y-057222D02*
G01X0016107Y-057270D01*
G01X0016107Y-057270D02*
G01X0016155Y-057318D01*
G01X0016583Y-057699D02*
G01X0016917Y-057699D01*
G01X0017060Y-058222D02*
G01X0016583Y-058222D01*
G01X0016583Y-058222D02*
G01X0016583Y-057222D01*
G01X0016583Y-057222D02*
G01X0017060Y-057222D01*
G01X0017488Y-058222D02*
G01X0017488Y-057222D01*
G01X0017488Y-057222D02*
G01X0017821Y-057937D01*
G01X0017821Y-057937D02*
G01X0018155Y-057222D01*
G01X0018155Y-057222D02*
G01X0018155Y-058222D01*
G01X0018631Y-057699D02*
G01X0018964Y-057699D01*
G01X0019107Y-058222D02*
G01X0018631Y-058222D01*
G01X0018631Y-058222D02*
G01X0018631Y-057222D01*
G01X0018631Y-057222D02*
G01X0019107Y-057222D01*
G01X0019536Y-058222D02*
G01X0019536Y-057222D01*
G01X0019536Y-057222D02*
G01X0020107Y-058222D01*
G01X0020107Y-058222D02*
G01X0020107Y-057222D01*
G01X0020440Y-057222D02*
G01X0021012Y-057222D01*
G01X0020726Y-058222D02*
G01X0020726Y-057222D01*
G01X0021964Y-057222D02*
G01X0022536Y-057222D01*
G01X0022250Y-058222D02*
G01X0022250Y-057222D01*
G01X0023060Y-057222D02*
G01X0023250Y-057222D01*
G01X0023250Y-057222D02*
G01X0023345Y-057270D01*
G01X0023345Y-057270D02*
G01X0023440Y-057365D01*
G01X0023440Y-057365D02*
G01X0023488Y-057556D01*
G01X0023488Y-057556D02*
G01X0023488Y-057889D01*
G01X0023488Y-057889D02*
G01X0023440Y-058080D01*
G01X0023440Y-058080D02*
G01X0023345Y-058175D01*
G01X0023345Y-058175D02*
G01X0023250Y-058222D01*
G01X0023250Y-058222D02*
G01X0023060Y-058222D01*
G01X0023060Y-058222D02*
G01X0022964Y-058175D01*
G01X0022964Y-058175D02*
G01X0022869Y-058080D01*
G01X0022869Y-058080D02*
G01X0022821Y-057889D01*
G01X0022821Y-057889D02*
G01X0022821Y-057556D01*
G01X0022821Y-057556D02*
G01X0022869Y-057365D01*
G01X0022869Y-057365D02*
G01X0022964Y-057270D01*
G01X0022964Y-057270D02*
G01X0023060Y-057222D01*
G01X0024393Y-058222D02*
G01X0023917Y-058222D01*
G01X0023917Y-058222D02*
G01X0023917Y-057222D01*
G01X0024726Y-057699D02*
G01X0025060Y-057699D01*
G01X0025202Y-058222D02*
G01X0024726Y-058222D01*
G01X0024726Y-058222D02*
G01X0024726Y-057222D01*
G01X0024726Y-057222D02*
G01X0025202Y-057222D01*
G01X0026202Y-058222D02*
G01X0025869Y-057746D01*
G01X0025631Y-058222D02*
G01X0025631Y-057222D01*
G01X0025631Y-057222D02*
G01X0026012Y-057222D01*
G01X0026012Y-057222D02*
G01X0026107Y-057270D01*
G01X0026107Y-057270D02*
G01X0026155Y-057318D01*
G01X0026155Y-057318D02*
G01X0026202Y-057413D01*
G01X0026202Y-057413D02*
G01X0026202Y-057556D01*
G01X0026202Y-057556D02*
G01X0026155Y-057651D01*
G01X0026155Y-057651D02*
G01X0026107Y-057699D01*
G01X0026107Y-057699D02*
G01X0026012Y-057746D01*
G01X0026012Y-057746D02*
G01X0025631Y-057746D01*
G01X0026583Y-057937D02*
G01X0027060Y-057937D01*
G01X0026488Y-058222D02*
G01X0026821Y-057222D01*
G01X0026821Y-057222D02*
G01X0027155Y-058222D01*
G01X0027488Y-058222D02*
G01X0027488Y-057222D01*
G01X0027488Y-057222D02*
G01X0028060Y-058222D01*
G01X0028060Y-058222D02*
G01X0028060Y-057222D01*
G01X0029107Y-058127D02*
G01X0029060Y-058175D01*
G01X0029060Y-058175D02*
G01X0028917Y-058222D01*
G01X0028917Y-058222D02*
G01X0028821Y-058222D01*
G01X0028821Y-058222D02*
G01X0028679Y-058175D01*
G01X0028679Y-058175D02*
G01X0028583Y-058080D01*
G01X0028583Y-058080D02*
G01X0028536Y-057984D01*
G01X0028536Y-057984D02*
G01X0028488Y-057794D01*
G01X0028488Y-057794D02*
G01X0028488Y-057651D01*
G01X0028488Y-057651D02*
G01X0028536Y-057460D01*
G01X0028536Y-057460D02*
G01X0028583Y-057365D01*
G01X0028583Y-057365D02*
G01X0028679Y-057270D01*
G01X0028679Y-057270D02*
G01X0028821Y-057222D01*
G01X0028821Y-057222D02*
G01X0028917Y-057222D01*
G01X0028917Y-057222D02*
G01X0029060Y-057270D01*
G01X0029060Y-057270D02*
G01X0029107Y-057318D01*
G01X0029536Y-057699D02*
G01X0029869Y-057699D01*
G01X0030012Y-058222D02*
G01X0029536Y-058222D01*
G01X0029536Y-058222D02*
G01X0029536Y-057222D01*
G01X0029536Y-057222D02*
G01X0030012Y-057222D01*
G01X0031393Y-057222D02*
G01X0031583Y-057222D01*
G01X0031583Y-057222D02*
G01X0031679Y-057270D01*
G01X0031679Y-057270D02*
G01X0031774Y-057365D01*
G01X0031774Y-057365D02*
G01X0031821Y-057556D01*
G01X0031821Y-057556D02*
G01X0031821Y-057889D01*
G01X0031821Y-057889D02*
G01X0031774Y-058080D01*
G01X0031774Y-058080D02*
G01X0031679Y-058175D01*
G01X0031679Y-058175D02*
G01X0031583Y-058222D01*
G01X0031583Y-058222D02*
G01X0031393Y-058222D01*
G01X0031393Y-058222D02*
G01X0031298Y-058175D01*
G01X0031298Y-058175D02*
G01X0031202Y-058080D01*
G01X0031202Y-058080D02*
G01X0031155Y-057889D01*
G01X0031155Y-057889D02*
G01X0031155Y-057556D01*
G01X0031155Y-057556D02*
G01X0031202Y-057365D01*
G01X0031202Y-057365D02*
G01X0031298Y-057270D01*
G01X0031298Y-057270D02*
G01X0031393Y-057222D01*
G01X0032583Y-057699D02*
G01X0032250Y-057699D01*
G01X0032250Y-058222D02*
G01X0032250Y-057222D01*
G01X0032250Y-057222D02*
G01X0032726Y-057222D01*
G01X0033869Y-057841D02*
G01X0034631Y-057841D01*
G01X0034250Y-058222D02*
G01X0034250Y-057460D01*
G01X0035821Y-057175D02*
G01X0034964Y-058460D01*
G01X0036155Y-057841D02*
G01X0036917Y-057841D01*
G01X0038345Y-057222D02*
G01X0038440Y-057222D01*
G01X0038440Y-057222D02*
G01X0038536Y-057270D01*
G01X0038536Y-057270D02*
G01X0038583Y-057318D01*
G01X0038583Y-057318D02*
G01X0038631Y-057413D01*
G01X0038631Y-057413D02*
G01X0038679Y-057603D01*
G01X0038679Y-057603D02*
G01X0038679Y-057841D01*
G01X0038679Y-057841D02*
G01X0038631Y-058032D01*
G01X0038631Y-058032D02*
G01X0038583Y-058127D01*
G01X0038583Y-058127D02*
G01X0038536Y-058175D01*
G01X0038536Y-058175D02*
G01X0038440Y-058222D01*
G01X0038440Y-058222D02*
G01X0038345Y-058222D01*
G01X0038345Y-058222D02*
G01X0038250Y-058175D01*
G01X0038250Y-058175D02*
G01X0038202Y-058127D01*
G01X0038202Y-058127D02*
G01X0038155Y-058032D01*
G01X0038155Y-058032D02*
G01X0038107Y-057841D01*
G01X0038107Y-057841D02*
G01X0038107Y-057603D01*
G01X0038107Y-057603D02*
G01X0038155Y-057413D01*
G01X0038155Y-057413D02*
G01X0038202Y-057318D01*
G01X0038202Y-057318D02*
G01X0038250Y-057270D01*
G01X0038250Y-057270D02*
G01X0038345Y-057222D01*
G01X0039107Y-058127D02*
G01X0039155Y-058175D01*
G01X0039155Y-058175D02*
G01X0039107Y-058222D01*
G01X0039107Y-058222D02*
G01X0039060Y-058175D01*
G01X0039060Y-058175D02*
G01X0039107Y-058127D01*
G01X0039107Y-058127D02*
G01X0039107Y-058222D01*
G01X0039774Y-057222D02*
G01X0039869Y-057222D01*
G01X0039869Y-057222D02*
G01X0039964Y-057270D01*
G01X0039964Y-057270D02*
G01X0040012Y-057318D01*
G01X0040012Y-057318D02*
G01X0040060Y-057413D01*
G01X0040060Y-057413D02*
G01X0040107Y-057603D01*
G01X0040107Y-057603D02*
G01X0040107Y-057841D01*
G01X0040107Y-057841D02*
G01X0040060Y-058032D01*
G01X0040060Y-058032D02*
G01X0040012Y-058127D01*
G01X0040012Y-058127D02*
G01X0039964Y-058175D01*
G01X0039964Y-058175D02*
G01X0039869Y-058222D01*
G01X0039869Y-058222D02*
G01X0039774Y-058222D01*
G01X0039774Y-058222D02*
G01X0039679Y-058175D01*
G01X0039679Y-058175D02*
G01X0039631Y-058127D01*
G01X0039631Y-058127D02*
G01X0039583Y-058032D01*
G01X0039583Y-058032D02*
G01X0039536Y-057841D01*
G01X0039536Y-057841D02*
G01X0039536Y-057603D01*
G01X0039536Y-057603D02*
G01X0039583Y-057413D01*
G01X0039583Y-057413D02*
G01X0039631Y-057318D01*
G01X0039631Y-057318D02*
G01X0039679Y-057270D01*
G01X0039679Y-057270D02*
G01X0039774Y-057222D01*
G01X0040726Y-057222D02*
G01X0040821Y-057222D01*
G01X0040821Y-057222D02*
G01X0040917Y-057270D01*
G01X0040917Y-057270D02*
G01X0040964Y-057318D01*
G01X0040964Y-057318D02*
G01X0041012Y-057413D01*
G01X0041012Y-057413D02*
G01X0041060Y-057603D01*
G01X0041060Y-057603D02*
G01X0041060Y-057841D01*
G01X0041060Y-057841D02*
G01X0041012Y-058032D01*
G01X0041012Y-058032D02*
G01X0040964Y-058127D01*
G01X0040964Y-058127D02*
G01X0040917Y-058175D01*
G01X0040917Y-058175D02*
G01X0040821Y-058222D01*
G01X0040821Y-058222D02*
G01X0040726Y-058222D01*
G01X0040726Y-058222D02*
G01X0040631Y-058175D01*
G01X0040631Y-058175D02*
G01X0040583Y-058127D01*
G01X0040583Y-058127D02*
G01X0040536Y-058032D01*
G01X0040536Y-058032D02*
G01X0040488Y-057841D01*
G01X0040488Y-057841D02*
G01X0040488Y-057603D01*
G01X0040488Y-057603D02*
G01X0040536Y-057413D01*
G01X0040536Y-057413D02*
G01X0040583Y-057318D01*
G01X0040583Y-057318D02*
G01X0040631Y-057270D01*
G01X0040631Y-057270D02*
G01X0040726Y-057222D01*
G01X0041393Y-057222D02*
G01X0042012Y-057222D01*
G01X0042012Y-057222D02*
G01X0041679Y-057603D01*
G01X0041679Y-057603D02*
G01X0041821Y-057603D01*
G01X0041821Y-057603D02*
G01X0041917Y-057651D01*
G01X0041917Y-057651D02*
G01X0041964Y-057699D01*
G01X0041964Y-057699D02*
G01X0042012Y-057794D01*
G01X0042012Y-057794D02*
G01X0042012Y-058032D01*
G01X0042012Y-058032D02*
G01X0041964Y-058127D01*
G01X0041964Y-058127D02*
G01X0041917Y-058175D01*
G01X0041917Y-058175D02*
G01X0041821Y-058222D01*
G01X0041821Y-058222D02*
G01X0041536Y-058222D01*
G01X0041536Y-058222D02*
G01X0041440Y-058175D01*
G01X0041440Y-058175D02*
G01X0041393Y-058127D01*
G01X0043202Y-058222D02*
G01X0043202Y-057222D01*
G01X0043679Y-058222D02*
G01X0043679Y-057222D01*
G01X0043679Y-057222D02*
G01X0044250Y-058222D01*
G01X0044250Y-058222D02*
G01X0044250Y-057222D01*
G01X0045298Y-058127D02*
G01X0045250Y-058175D01*
G01X0045250Y-058175D02*
G01X0045107Y-058222D01*
G01X0045107Y-058222D02*
G01X0045012Y-058222D01*
G01X0045012Y-058222D02*
G01X0044869Y-058175D01*
G01X0044869Y-058175D02*
G01X0044774Y-058080D01*
G01X0044774Y-058080D02*
G01X0044726Y-057984D01*
G01X0044726Y-057984D02*
G01X0044679Y-057794D01*
G01X0044679Y-057794D02*
G01X0044679Y-057651D01*
G01X0044679Y-057651D02*
G01X0044726Y-057460D01*
G01X0044726Y-057460D02*
G01X0044774Y-057365D01*
G01X0044774Y-057365D02*
G01X0044869Y-057270D01*
G01X0044869Y-057270D02*
G01X0045012Y-057222D01*
G01X0045012Y-057222D02*
G01X0045107Y-057222D01*
G01X0045107Y-057222D02*
G01X0045250Y-057270D01*
G01X0045250Y-057270D02*
G01X0045298Y-057318D01*
G01X0045726Y-058222D02*
G01X0045726Y-057222D01*
G01X0045726Y-057699D02*
G01X0046298Y-057699D01*
G01X0046298Y-058222D02*
G01X0046298Y-057222D01*
G01X0046774Y-058127D02*
G01X0046821Y-058175D01*
G01X0046821Y-058175D02*
G01X0046774Y-058222D01*
G01X0046774Y-058222D02*
G01X0046726Y-058175D01*
G01X0046726Y-058175D02*
G01X0046774Y-058127D01*
G01X0046774Y-058127D02*
G01X0046774Y-058222D01*
G01X0002012Y-059822D02*
G01X0001440Y-059822D01*
G01X0001726Y-059822D02*
G01X0001726Y-058822D01*
G01X0001726Y-058822D02*
G01X0001631Y-058965D01*
G01X0001631Y-058965D02*
G01X0001536Y-059060D01*
G01X0001536Y-059060D02*
G01X0001440Y-059108D01*
G01X0002964Y-059822D02*
G01X0002393Y-059822D01*
G01X0002679Y-059822D02*
G01X0002679Y-058822D01*
G01X0002679Y-058822D02*
G01X0002583Y-058965D01*
G01X0002583Y-058965D02*
G01X0002488Y-059060D01*
G01X0002488Y-059060D02*
G01X0002393Y-059108D01*
G01X0003393Y-059727D02*
G01X0003440Y-059775D01*
G01X0003440Y-059775D02*
G01X0003393Y-059822D01*
G01X0003393Y-059822D02*
G01X0003345Y-059775D01*
G01X0003345Y-059775D02*
G01X0003393Y-059727D01*
G01X0003393Y-059727D02*
G01X0003393Y-059822D01*
G01X0004631Y-059822D02*
G01X0004631Y-058822D01*
G01X0004631Y-058822D02*
G01X0004964Y-059537D01*
G01X0004964Y-059537D02*
G01X0005298Y-058822D01*
G01X0005298Y-058822D02*
G01X0005298Y-059822D01*
G01X0005726Y-059537D02*
G01X0006202Y-059537D01*
G01X0005631Y-059822D02*
G01X0005964Y-058822D01*
G01X0005964Y-058822D02*
G01X0006298Y-059822D01*
G01X0006536Y-058822D02*
G01X0007202Y-059822D01*
G01X0007202Y-058822D02*
G01X0006536Y-059822D01*
G01X0008345Y-059822D02*
G01X0008345Y-058822D01*
G01X0008345Y-059299D02*
G01X0008917Y-059299D01*
G01X0008917Y-059822D02*
G01X0008917Y-058822D01*
G01X0009583Y-058822D02*
G01X0009774Y-058822D01*
G01X0009774Y-058822D02*
G01X0009869Y-058870D01*
G01X0009869Y-058870D02*
G01X0009964Y-058965D01*
G01X0009964Y-058965D02*
G01X0010012Y-059156D01*
G01X0010012Y-059156D02*
G01X0010012Y-059489D01*
G01X0010012Y-059489D02*
G01X0009964Y-059680D01*
G01X0009964Y-059680D02*
G01X0009869Y-059775D01*
G01X0009869Y-059775D02*
G01X0009774Y-059822D01*
G01X0009774Y-059822D02*
G01X0009583Y-059822D01*
G01X0009583Y-059822D02*
G01X0009488Y-059775D01*
G01X0009488Y-059775D02*
G01X0009393Y-059680D01*
G01X0009393Y-059680D02*
G01X0009345Y-059489D01*
G01X0009345Y-059489D02*
G01X0009345Y-059156D01*
G01X0009345Y-059156D02*
G01X0009393Y-058965D01*
G01X0009393Y-058965D02*
G01X0009488Y-058870D01*
G01X0009488Y-058870D02*
G01X0009583Y-058822D01*
G01X0010917Y-059822D02*
G01X0010440Y-059822D01*
G01X0010440Y-059822D02*
G01X0010440Y-058822D01*
G01X0011250Y-059299D02*
G01X0011583Y-059299D01*
G01X0011726Y-059822D02*
G01X0011250Y-059822D01*
G01X0011250Y-059822D02*
G01X0011250Y-058822D01*
G01X0011250Y-058822D02*
G01X0011726Y-058822D01*
G01X0012917Y-059822D02*
G01X0012917Y-058822D01*
G01X0012917Y-058822D02*
G01X0013155Y-058822D01*
G01X0013155Y-058822D02*
G01X0013298Y-058870D01*
G01X0013298Y-058870D02*
G01X0013393Y-058965D01*
G01X0013393Y-058965D02*
G01X0013440Y-059060D01*
G01X0013440Y-059060D02*
G01X0013488Y-059251D01*
G01X0013488Y-059251D02*
G01X0013488Y-059394D01*
G01X0013488Y-059394D02*
G01X0013440Y-059584D01*
G01X0013440Y-059584D02*
G01X0013393Y-059680D01*
G01X0013393Y-059680D02*
G01X0013298Y-059775D01*
G01X0013298Y-059775D02*
G01X0013155Y-059822D01*
G01X0013155Y-059822D02*
G01X0012917Y-059822D01*
G01X0013917Y-059822D02*
G01X0013917Y-058822D01*
G01X0014345Y-059537D02*
G01X0014821Y-059537D01*
G01X0014250Y-059822D02*
G01X0014583Y-058822D01*
G01X0014583Y-058822D02*
G01X0014917Y-059822D01*
G01X0015250Y-059822D02*
G01X0015250Y-058822D01*
G01X0015250Y-058822D02*
G01X0015583Y-059537D01*
G01X0015583Y-059537D02*
G01X0015917Y-058822D01*
G01X0015917Y-058822D02*
G01X0015917Y-059822D01*
G01X0016393Y-059299D02*
G01X0016726Y-059299D01*
G01X0016869Y-059822D02*
G01X0016393Y-059822D01*
G01X0016393Y-059822D02*
G01X0016393Y-058822D01*
G01X0016393Y-058822D02*
G01X0016869Y-058822D01*
G01X0017155Y-058822D02*
G01X0017726Y-058822D01*
G01X0017440Y-059822D02*
G01X0017440Y-058822D01*
G01X0018060Y-059299D02*
G01X0018393Y-059299D01*
G01X0018536Y-059822D02*
G01X0018060Y-059822D01*
G01X0018060Y-059822D02*
G01X0018060Y-058822D01*
G01X0018060Y-058822D02*
G01X0018536Y-058822D01*
G01X0019536Y-059822D02*
G01X0019202Y-059346D01*
G01X0018964Y-059822D02*
G01X0018964Y-058822D01*
G01X0018964Y-058822D02*
G01X0019345Y-058822D01*
G01X0019345Y-058822D02*
G01X0019440Y-058870D01*
G01X0019440Y-058870D02*
G01X0019488Y-058918D01*
G01X0019488Y-058918D02*
G01X0019536Y-059013D01*
G01X0019536Y-059013D02*
G01X0019536Y-059156D01*
G01X0019536Y-059156D02*
G01X0019488Y-059251D01*
G01X0019488Y-059251D02*
G01X0019440Y-059299D01*
G01X0019440Y-059299D02*
G01X0019345Y-059346D01*
G01X0019345Y-059346D02*
G01X0018964Y-059346D01*
G01X0020583Y-058822D02*
G01X0021155Y-058822D01*
G01X0020869Y-059822D02*
G01X0020869Y-058822D01*
G01X0021679Y-058822D02*
G01X0021869Y-058822D01*
G01X0021869Y-058822D02*
G01X0021964Y-058870D01*
G01X0021964Y-058870D02*
G01X0022060Y-058965D01*
G01X0022060Y-058965D02*
G01X0022107Y-059156D01*
G01X0022107Y-059156D02*
G01X0022107Y-059489D01*
G01X0022107Y-059489D02*
G01X0022060Y-059680D01*
G01X0022060Y-059680D02*
G01X0021964Y-059775D01*
G01X0021964Y-059775D02*
G01X0021869Y-059822D01*
G01X0021869Y-059822D02*
G01X0021679Y-059822D01*
G01X0021679Y-059822D02*
G01X0021583Y-059775D01*
G01X0021583Y-059775D02*
G01X0021488Y-059680D01*
G01X0021488Y-059680D02*
G01X0021440Y-059489D01*
G01X0021440Y-059489D02*
G01X0021440Y-059156D01*
G01X0021440Y-059156D02*
G01X0021488Y-058965D01*
G01X0021488Y-058965D02*
G01X0021583Y-058870D01*
G01X0021583Y-058870D02*
G01X0021679Y-058822D01*
G01X0023012Y-059822D02*
G01X0022536Y-059822D01*
G01X0022536Y-059822D02*
G01X0022536Y-058822D01*
G01X0023345Y-059299D02*
G01X0023679Y-059299D01*
G01X0023821Y-059822D02*
G01X0023345Y-059822D01*
G01X0023345Y-059822D02*
G01X0023345Y-058822D01*
G01X0023345Y-058822D02*
G01X0023821Y-058822D01*
G01X0024821Y-059822D02*
G01X0024488Y-059346D01*
G01X0024250Y-059822D02*
G01X0024250Y-058822D01*
G01X0024250Y-058822D02*
G01X0024631Y-058822D01*
G01X0024631Y-058822D02*
G01X0024726Y-058870D01*
G01X0024726Y-058870D02*
G01X0024774Y-058918D01*
G01X0024774Y-058918D02*
G01X0024821Y-059013D01*
G01X0024821Y-059013D02*
G01X0024821Y-059156D01*
G01X0024821Y-059156D02*
G01X0024774Y-059251D01*
G01X0024774Y-059251D02*
G01X0024726Y-059299D01*
G01X0024726Y-059299D02*
G01X0024631Y-059346D01*
G01X0024631Y-059346D02*
G01X0024250Y-059346D01*
G01X0025202Y-059537D02*
G01X0025679Y-059537D01*
G01X0025107Y-059822D02*
G01X0025440Y-058822D01*
G01X0025440Y-058822D02*
G01X0025774Y-059822D01*
G01X0026107Y-059822D02*
G01X0026107Y-058822D01*
G01X0026107Y-058822D02*
G01X0026679Y-059822D01*
G01X0026679Y-059822D02*
G01X0026679Y-058822D01*
G01X0027726Y-059727D02*
G01X0027679Y-059775D01*
G01X0027679Y-059775D02*
G01X0027536Y-059822D01*
G01X0027536Y-059822D02*
G01X0027440Y-059822D01*
G01X0027440Y-059822D02*
G01X0027298Y-059775D01*
G01X0027298Y-059775D02*
G01X0027202Y-059680D01*
G01X0027202Y-059680D02*
G01X0027155Y-059584D01*
G01X0027155Y-059584D02*
G01X0027107Y-059394D01*
G01X0027107Y-059394D02*
G01X0027107Y-059251D01*
G01X0027107Y-059251D02*
G01X0027155Y-059060D01*
G01X0027155Y-059060D02*
G01X0027202Y-058965D01*
G01X0027202Y-058965D02*
G01X0027298Y-058870D01*
G01X0027298Y-058870D02*
G01X0027440Y-058822D01*
G01X0027440Y-058822D02*
G01X0027536Y-058822D01*
G01X0027536Y-058822D02*
G01X0027679Y-058870D01*
G01X0027679Y-058870D02*
G01X0027726Y-058918D01*
G01X0028155Y-059299D02*
G01X0028488Y-059299D01*
G01X0028631Y-059822D02*
G01X0028155Y-059822D01*
G01X0028155Y-059822D02*
G01X0028155Y-058822D01*
G01X0028155Y-058822D02*
G01X0028631Y-058822D01*
G01X0030012Y-058822D02*
G01X0030202Y-058822D01*
G01X0030202Y-058822D02*
G01X0030298Y-058870D01*
G01X0030298Y-058870D02*
G01X0030393Y-058965D01*
G01X0030393Y-058965D02*
G01X0030440Y-059156D01*
G01X0030440Y-059156D02*
G01X0030440Y-059489D01*
G01X0030440Y-059489D02*
G01X0030393Y-059680D01*
G01X0030393Y-059680D02*
G01X0030298Y-059775D01*
G01X0030298Y-059775D02*
G01X0030202Y-059822D01*
G01X0030202Y-059822D02*
G01X0030012Y-059822D01*
G01X0030012Y-059822D02*
G01X0029917Y-059775D01*
G01X0029917Y-059775D02*
G01X0029821Y-059680D01*
G01X0029821Y-059680D02*
G01X0029774Y-059489D01*
G01X0029774Y-059489D02*
G01X0029774Y-059156D01*
G01X0029774Y-059156D02*
G01X0029821Y-058965D01*
G01X0029821Y-058965D02*
G01X0029917Y-058870D01*
G01X0029917Y-058870D02*
G01X0030012Y-058822D01*
G01X0031202Y-059299D02*
G01X0030869Y-059299D01*
G01X0030869Y-059822D02*
G01X0030869Y-058822D01*
G01X0030869Y-058822D02*
G01X0031345Y-058822D01*
G01X0032488Y-059441D02*
G01X0033250Y-059441D01*
G01X0032869Y-059822D02*
G01X0032869Y-059060D01*
G01X0034440Y-058775D02*
G01X0033583Y-060060D01*
G01X0034774Y-059441D02*
G01X0035536Y-059441D01*
G01X0036964Y-058822D02*
G01X0037060Y-058822D01*
G01X0037060Y-058822D02*
G01X0037155Y-058870D01*
G01X0037155Y-058870D02*
G01X0037202Y-058918D01*
G01X0037202Y-058918D02*
G01X0037250Y-059013D01*
G01X0037250Y-059013D02*
G01X0037298Y-059203D01*
G01X0037298Y-059203D02*
G01X0037298Y-059441D01*
G01X0037298Y-059441D02*
G01X0037250Y-059632D01*
G01X0037250Y-059632D02*
G01X0037202Y-059727D01*
G01X0037202Y-059727D02*
G01X0037155Y-059775D01*
G01X0037155Y-059775D02*
G01X0037060Y-059822D01*
G01X0037060Y-059822D02*
G01X0036964Y-059822D01*
G01X0036964Y-059822D02*
G01X0036869Y-059775D01*
G01X0036869Y-059775D02*
G01X0036821Y-059727D01*
G01X0036821Y-059727D02*
G01X0036774Y-059632D01*
G01X0036774Y-059632D02*
G01X0036726Y-059441D01*
G01X0036726Y-059441D02*
G01X0036726Y-059203D01*
G01X0036726Y-059203D02*
G01X0036774Y-059013D01*
G01X0036774Y-059013D02*
G01X0036821Y-058918D01*
G01X0036821Y-058918D02*
G01X0036869Y-058870D01*
G01X0036869Y-058870D02*
G01X0036964Y-058822D01*
G01X0037726Y-059727D02*
G01X0037774Y-059775D01*
G01X0037774Y-059775D02*
G01X0037726Y-059822D01*
G01X0037726Y-059822D02*
G01X0037679Y-059775D01*
G01X0037679Y-059775D02*
G01X0037726Y-059727D01*
G01X0037726Y-059727D02*
G01X0037726Y-059822D01*
G01X0038393Y-058822D02*
G01X0038488Y-058822D01*
G01X0038488Y-058822D02*
G01X0038583Y-058870D01*
G01X0038583Y-058870D02*
G01X0038631Y-058918D01*
G01X0038631Y-058918D02*
G01X0038679Y-059013D01*
G01X0038679Y-059013D02*
G01X0038726Y-059203D01*
G01X0038726Y-059203D02*
G01X0038726Y-059441D01*
G01X0038726Y-059441D02*
G01X0038679Y-059632D01*
G01X0038679Y-059632D02*
G01X0038631Y-059727D01*
G01X0038631Y-059727D02*
G01X0038583Y-059775D01*
G01X0038583Y-059775D02*
G01X0038488Y-059822D01*
G01X0038488Y-059822D02*
G01X0038393Y-059822D01*
G01X0038393Y-059822D02*
G01X0038298Y-059775D01*
G01X0038298Y-059775D02*
G01X0038250Y-059727D01*
G01X0038250Y-059727D02*
G01X0038202Y-059632D01*
G01X0038202Y-059632D02*
G01X0038155Y-059441D01*
G01X0038155Y-059441D02*
G01X0038155Y-059203D01*
G01X0038155Y-059203D02*
G01X0038202Y-059013D01*
G01X0038202Y-059013D02*
G01X0038250Y-058918D01*
G01X0038250Y-058918D02*
G01X0038298Y-058870D01*
G01X0038298Y-058870D02*
G01X0038393Y-058822D01*
G01X0039345Y-058822D02*
G01X0039440Y-058822D01*
G01X0039440Y-058822D02*
G01X0039536Y-058870D01*
G01X0039536Y-058870D02*
G01X0039583Y-058918D01*
G01X0039583Y-058918D02*
G01X0039631Y-059013D01*
G01X0039631Y-059013D02*
G01X0039679Y-059203D01*
G01X0039679Y-059203D02*
G01X0039679Y-059441D01*
G01X0039679Y-059441D02*
G01X0039631Y-059632D01*
G01X0039631Y-059632D02*
G01X0039583Y-059727D01*
G01X0039583Y-059727D02*
G01X0039536Y-059775D01*
G01X0039536Y-059775D02*
G01X0039440Y-059822D01*
G01X0039440Y-059822D02*
G01X0039345Y-059822D01*
G01X0039345Y-059822D02*
G01X0039250Y-059775D01*
G01X0039250Y-059775D02*
G01X0039202Y-059727D01*
G01X0039202Y-059727D02*
G01X0039155Y-059632D01*
G01X0039155Y-059632D02*
G01X0039107Y-059441D01*
G01X0039107Y-059441D02*
G01X0039107Y-059203D01*
G01X0039107Y-059203D02*
G01X0039155Y-059013D01*
G01X0039155Y-059013D02*
G01X0039202Y-058918D01*
G01X0039202Y-058918D02*
G01X0039250Y-058870D01*
G01X0039250Y-058870D02*
G01X0039345Y-058822D01*
G01X0040012Y-058822D02*
G01X0040631Y-058822D01*
G01X0040631Y-058822D02*
G01X0040298Y-059203D01*
G01X0040298Y-059203D02*
G01X0040440Y-059203D01*
G01X0040440Y-059203D02*
G01X0040536Y-059251D01*
G01X0040536Y-059251D02*
G01X0040583Y-059299D01*
G01X0040583Y-059299D02*
G01X0040631Y-059394D01*
G01X0040631Y-059394D02*
G01X0040631Y-059632D01*
G01X0040631Y-059632D02*
G01X0040583Y-059727D01*
G01X0040583Y-059727D02*
G01X0040536Y-059775D01*
G01X0040536Y-059775D02*
G01X0040440Y-059822D01*
G01X0040440Y-059822D02*
G01X0040155Y-059822D01*
G01X0040155Y-059822D02*
G01X0040060Y-059775D01*
G01X0040060Y-059775D02*
G01X0040012Y-059727D01*
G01X0041821Y-059822D02*
G01X0041821Y-058822D01*
G01X0042298Y-059822D02*
G01X0042298Y-058822D01*
G01X0042298Y-058822D02*
G01X0042869Y-059822D01*
G01X0042869Y-059822D02*
G01X0042869Y-058822D01*
G01X0043917Y-059727D02*
G01X0043869Y-059775D01*
G01X0043869Y-059775D02*
G01X0043726Y-059822D01*
G01X0043726Y-059822D02*
G01X0043631Y-059822D01*
G01X0043631Y-059822D02*
G01X0043488Y-059775D01*
G01X0043488Y-059775D02*
G01X0043393Y-059680D01*
G01X0043393Y-059680D02*
G01X0043345Y-059584D01*
G01X0043345Y-059584D02*
G01X0043298Y-059394D01*
G01X0043298Y-059394D02*
G01X0043298Y-059251D01*
G01X0043298Y-059251D02*
G01X0043345Y-059060D01*
G01X0043345Y-059060D02*
G01X0043393Y-058965D01*
G01X0043393Y-058965D02*
G01X0043488Y-058870D01*
G01X0043488Y-058870D02*
G01X0043631Y-058822D01*
G01X0043631Y-058822D02*
G01X0043726Y-058822D01*
G01X0043726Y-058822D02*
G01X0043869Y-058870D01*
G01X0043869Y-058870D02*
G01X0043917Y-058918D01*
G01X0044345Y-059822D02*
G01X0044345Y-058822D01*
G01X0044345Y-059299D02*
G01X0044917Y-059299D01*
G01X0044917Y-059822D02*
G01X0044917Y-058822D01*
G01X0046107Y-059537D02*
G01X0046583Y-059537D01*
G01X0046012Y-059822D02*
G01X0046345Y-058822D01*
G01X0046345Y-058822D02*
G01X0046679Y-059822D01*
G01X0047345Y-059299D02*
G01X0047012Y-059299D01*
G01X0047012Y-059822D02*
G01X0047012Y-058822D01*
G01X0047012Y-058822D02*
G01X0047488Y-058822D01*
G01X0047726Y-058822D02*
G01X0048298Y-058822D01*
G01X0048012Y-059822D02*
G01X0048012Y-058822D01*
G01X0048631Y-059299D02*
G01X0048964Y-059299D01*
G01X0049107Y-059822D02*
G01X0048631Y-059822D01*
G01X0048631Y-059822D02*
G01X0048631Y-058822D01*
G01X0048631Y-058822D02*
G01X0049107Y-058822D01*
G01X0050107Y-059822D02*
G01X0049774Y-059346D01*
G01X0049536Y-059822D02*
G01X0049536Y-058822D01*
G01X0049536Y-058822D02*
G01X0049917Y-058822D01*
G01X0049917Y-058822D02*
G01X0050012Y-058870D01*
G01X0050012Y-058870D02*
G01X0050060Y-058918D01*
G01X0050060Y-058918D02*
G01X0050107Y-059013D01*
G01X0050107Y-059013D02*
G01X0050107Y-059156D01*
G01X0050107Y-059156D02*
G01X0050060Y-059251D01*
G01X0050060Y-059251D02*
G01X0050012Y-059299D01*
G01X0050012Y-059299D02*
G01X0049917Y-059346D01*
G01X0049917Y-059346D02*
G01X0049536Y-059346D01*
G01X0051298Y-059822D02*
G01X0051298Y-058822D01*
G01X0051298Y-058822D02*
G01X0051679Y-058822D01*
G01X0051679Y-058822D02*
G01X0051774Y-058870D01*
G01X0051774Y-058870D02*
G01X0051821Y-058918D01*
G01X0051821Y-058918D02*
G01X0051869Y-059013D01*
G01X0051869Y-059013D02*
G01X0051869Y-059156D01*
G01X0051869Y-059156D02*
G01X0051821Y-059251D01*
G01X0051821Y-059251D02*
G01X0051774Y-059299D01*
G01X0051774Y-059299D02*
G01X0051679Y-059346D01*
G01X0051679Y-059346D02*
G01X0051298Y-059346D01*
G01X0052774Y-059822D02*
G01X0052298Y-059822D01*
G01X0052298Y-059822D02*
G01X0052298Y-058822D01*
G01X0053060Y-059537D02*
G01X0053536Y-059537D01*
G01X0052964Y-059822D02*
G01X0053298Y-058822D01*
G01X0053298Y-058822D02*
G01X0053631Y-059822D01*
G01X0053821Y-058822D02*
G01X0054393Y-058822D01*
G01X0054107Y-059822D02*
G01X0054107Y-058822D01*
G01X0054726Y-059822D02*
G01X0054726Y-058822D01*
G01X0055202Y-059822D02*
G01X0055202Y-058822D01*
G01X0055202Y-058822D02*
G01X0055774Y-059822D01*
G01X0055774Y-059822D02*
G01X0055774Y-058822D01*
G01X0056774Y-058870D02*
G01X0056679Y-058822D01*
G01X0056679Y-058822D02*
G01X0056536Y-058822D01*
G01X0056536Y-058822D02*
G01X0056393Y-058870D01*
G01X0056393Y-058870D02*
G01X0056298Y-058965D01*
G01X0056298Y-058965D02*
G01X0056250Y-059060D01*
G01X0056250Y-059060D02*
G01X0056202Y-059251D01*
G01X0056202Y-059251D02*
G01X0056202Y-059394D01*
G01X0056202Y-059394D02*
G01X0056250Y-059584D01*
G01X0056250Y-059584D02*
G01X0056298Y-059680D01*
G01X0056298Y-059680D02*
G01X0056393Y-059775D01*
G01X0056393Y-059775D02*
G01X0056536Y-059822D01*
G01X0056536Y-059822D02*
G01X0056631Y-059822D01*
G01X0056631Y-059822D02*
G01X0056774Y-059775D01*
G01X0056774Y-059775D02*
G01X0056821Y-059727D01*
G01X0056821Y-059727D02*
G01X0056821Y-059394D01*
G01X0056821Y-059394D02*
G01X0056631Y-059394D01*
G01X0057250Y-059727D02*
G01X0057298Y-059775D01*
G01X0057298Y-059775D02*
G01X0057250Y-059822D01*
G01X0057250Y-059822D02*
G01X0057202Y-059775D01*
G01X0057202Y-059775D02*
G01X0057250Y-059727D01*
G01X0057250Y-059727D02*
G01X0057250Y-059822D01*
M02*
