%TF.GenerationSoftware,KiCad,Pcbnew,4.0.5-e0-6337~49~ubuntu16.04.1*%
%TF.CreationDate,2017-01-31T10:23:04-08:00*%
%TF.ProjectId,2x3-6mm-Square-SMT-Pushbutton,3278332D366D6D2D5371756172652D53,1.0*%
%TF.FileFunction,Other,Fab,Top*%
%FSLAX46Y46*%
G04 Gerber Fmt 4.6, Leading zero omitted, Abs format (unit mm)*
G04 Created by KiCad (PCBNEW 4.0.5-e0-6337~49~ubuntu16.04.1) date Tue Jan 31 10:23:04 2017*
%MOMM*%
%LPD*%
G01*
G04 APERTURE LIST*
%ADD10C,0.350000*%
%ADD11C,0.040640*%
%ADD12C,0.150000*%
G04 APERTURE END LIST*
D10*
D11*
X145570000Y-106410000D02*
X139570000Y-106410000D01*
X145570000Y-100410000D02*
X145570000Y-106410000D01*
X139570000Y-100410000D02*
X145570000Y-100410000D01*
X139570000Y-106410000D02*
X139570000Y-100410000D01*
X134570000Y-96110000D02*
G75*
G03X130876632Y-100009820I106632J-3799820D01*
G01*
X130880179Y-107910000D02*
G75*
G03X134570000Y-111710000I3801645J0D01*
G01*
X150570000Y-111711316D02*
G75*
G03X154370000Y-107810000I0J3801316D01*
G01*
X154371316Y-99910000D02*
G75*
G03X150470000Y-96110000I-3801316J0D01*
G01*
X154370000Y-99910000D02*
X154370000Y-107910000D01*
X150470000Y-96110000D02*
X134570000Y-96110000D01*
X150570000Y-111710000D02*
X134570000Y-111710000D01*
X130870000Y-99910000D02*
X130870000Y-107910000D01*
D12*
X141236667Y-104314762D02*
X141379524Y-104362381D01*
X141617620Y-104362381D01*
X141712858Y-104314762D01*
X141760477Y-104267143D01*
X141808096Y-104171905D01*
X141808096Y-104076667D01*
X141760477Y-103981429D01*
X141712858Y-103933810D01*
X141617620Y-103886190D01*
X141427143Y-103838571D01*
X141331905Y-103790952D01*
X141284286Y-103743333D01*
X141236667Y-103648095D01*
X141236667Y-103552857D01*
X141284286Y-103457619D01*
X141331905Y-103410000D01*
X141427143Y-103362381D01*
X141665239Y-103362381D01*
X141808096Y-103410000D01*
X142141429Y-103362381D02*
X142379524Y-104362381D01*
X142570001Y-103648095D01*
X142760477Y-104362381D01*
X142998572Y-103362381D01*
X143903334Y-104362381D02*
X143331905Y-104362381D01*
X143617619Y-104362381D02*
X143617619Y-103362381D01*
X143522381Y-103505238D01*
X143427143Y-103600476D01*
X143331905Y-103648095D01*
M02*
