%TF.GenerationSoftware,KiCad,Pcbnew,4.0.5-e0-6337~49~ubuntu16.04.1*%
%TF.CreationDate,2017-02-13T23:15:32-08:00*%
%TF.ProjectId,2x3-6mm-Square-SMT-Pushbutton,3278332D366D6D2D5371756172652D53,1.0*%
%TF.FileFunction,Other,Fab,Top*%
%FSLAX46Y46*%
G04 Gerber Fmt 4.6, Leading zero omitted, Abs format (unit mm)*
G04 Created by KiCad (PCBNEW 4.0.5-e0-6337~49~ubuntu16.04.1) date Mon Feb 13 23:15:32 2017*
%MOMM*%
%LPD*%
G01*
G04 APERTURE LIST*
%ADD10C,0.350000*%
%ADD11C,0.040640*%
%ADD12C,0.150000*%
G04 APERTURE END LIST*
D10*
D11*
X34293800Y-55167400D02*
X28293800Y-55167400D01*
X34293800Y-49167400D02*
X34293800Y-55167400D01*
X28293800Y-49167400D02*
X34293800Y-49167400D01*
X28293800Y-55167400D02*
X28293800Y-49167400D01*
X23293800Y-44867400D02*
G75*
G03X19600432Y-48767220I106632J-3799820D01*
G01*
X19603979Y-56667400D02*
G75*
G03X23293800Y-60467400I3801645J0D01*
G01*
X39293800Y-60468716D02*
G75*
G03X43093800Y-56567400I0J3801316D01*
G01*
X43095116Y-48667400D02*
G75*
G03X39193800Y-44867400I-3801316J0D01*
G01*
X43093800Y-48667400D02*
X43093800Y-56667400D01*
X39193800Y-44867400D02*
X23293800Y-44867400D01*
X39293800Y-60467400D02*
X23293800Y-60467400D01*
X19593800Y-48667400D02*
X19593800Y-56667400D01*
D12*
X29960467Y-53072162D02*
X30103324Y-53119781D01*
X30341420Y-53119781D01*
X30436658Y-53072162D01*
X30484277Y-53024543D01*
X30531896Y-52929305D01*
X30531896Y-52834067D01*
X30484277Y-52738829D01*
X30436658Y-52691210D01*
X30341420Y-52643590D01*
X30150943Y-52595971D01*
X30055705Y-52548352D01*
X30008086Y-52500733D01*
X29960467Y-52405495D01*
X29960467Y-52310257D01*
X30008086Y-52215019D01*
X30055705Y-52167400D01*
X30150943Y-52119781D01*
X30389039Y-52119781D01*
X30531896Y-52167400D01*
X30865229Y-52119781D02*
X31103324Y-53119781D01*
X31293801Y-52405495D01*
X31484277Y-53119781D01*
X31722372Y-52119781D01*
X32627134Y-53119781D02*
X32055705Y-53119781D01*
X32341419Y-53119781D02*
X32341419Y-52119781D01*
X32246181Y-52262638D01*
X32150943Y-52357876D01*
X32055705Y-52405495D01*
M02*
