%TF.GenerationSoftware,KiCad,Pcbnew,4.0.5-e0-6337~49~ubuntu16.04.1*%
%TF.CreationDate,2017-01-20T22:37:02-08:00*%
%TF.ProjectId,4x10-Teensy-LC-Breakout,347831302D5465656E73792D4C432D42,1.0*%
%TF.FileFunction,Copper,L2,Bot,Signal*%
%FSLAX46Y46*%
G04 Gerber Fmt 4.6, Leading zero omitted, Abs format (unit mm)*
G04 Created by KiCad (PCBNEW 4.0.5-e0-6337~49~ubuntu16.04.1) date Fri Jan 20 22:37:02 2017*
%MOMM*%
%LPD*%
G01*
G04 APERTURE LIST*
%ADD10C,0.350000*%
%ADD11C,1.727200*%
%ADD12C,6.000000*%
%ADD13C,0.685800*%
%ADD14C,0.762000*%
%ADD15C,0.330200*%
%ADD16C,0.350000*%
G04 APERTURE END LIST*
D10*
D11*
X163548320Y-123503280D03*
X163548320Y-120963280D03*
X163548320Y-118423280D03*
X163548320Y-115883280D03*
X163548320Y-113343280D03*
X163548320Y-110803280D03*
X163548320Y-108263280D03*
X163548320Y-105723280D03*
X163548320Y-103183280D03*
X163548320Y-100643280D03*
X163548320Y-98103280D03*
X163548320Y-95563280D03*
X163548320Y-93023280D03*
X163548320Y-90483280D03*
X148308320Y-90483280D03*
X148308320Y-98103280D03*
X148308320Y-118423280D03*
X148308320Y-103183280D03*
X148308320Y-100643280D03*
X148308320Y-120963280D03*
X148308320Y-113343280D03*
X148308320Y-123503280D03*
X148308320Y-110803280D03*
X148308320Y-108263280D03*
X148308320Y-105723280D03*
X148308320Y-115883280D03*
X148308320Y-93023280D03*
X148308320Y-95563280D03*
D12*
X137688320Y-102442280D03*
X137689320Y-110442280D03*
X137689320Y-126442280D03*
X137689320Y-94442280D03*
X137689320Y-134442280D03*
X137689320Y-118442280D03*
X137688320Y-86442280D03*
X137688320Y-78442280D03*
X137689320Y-142442280D03*
X145688320Y-142442280D03*
X153688320Y-142442280D03*
X161688320Y-142442280D03*
X153688320Y-70442280D03*
X161688320Y-70442280D03*
X137689320Y-70442280D03*
X145688320Y-70442280D03*
D13*
X152476200Y-118805960D03*
X150764240Y-133771640D03*
X150764240Y-130972560D03*
D14*
X143982440Y-132394960D02*
X143982440Y-136149160D01*
X143982440Y-136149160D02*
X137689320Y-142442280D01*
X152476200Y-123901200D02*
X143982440Y-132394960D01*
X152476200Y-118805960D02*
X152476200Y-123901200D01*
X161688320Y-142442280D02*
X161688320Y-122823280D01*
X161688320Y-122823280D02*
X163548320Y-120963280D01*
X153688320Y-142442280D02*
X153688320Y-128283280D01*
X153688320Y-128283280D02*
X163548320Y-118423280D01*
X150764240Y-130972560D02*
X150764240Y-133771640D01*
D15*
X152476200Y-118805960D03*
X150764240Y-133771640D03*
X150764240Y-130972560D03*
D16*
X163548320Y-123503280D03*
X163548320Y-120963280D03*
X163548320Y-118423280D03*
X163548320Y-115883280D03*
X163548320Y-113343280D03*
X163548320Y-110803280D03*
X163548320Y-108263280D03*
X163548320Y-105723280D03*
X163548320Y-103183280D03*
X163548320Y-100643280D03*
X163548320Y-98103280D03*
X163548320Y-95563280D03*
X163548320Y-93023280D03*
X163548320Y-90483280D03*
X148308320Y-90483280D03*
X148308320Y-98103280D03*
X148308320Y-118423280D03*
X148308320Y-103183280D03*
X148308320Y-100643280D03*
X148308320Y-120963280D03*
X148308320Y-113343280D03*
X148308320Y-123503280D03*
X148308320Y-110803280D03*
X148308320Y-108263280D03*
X148308320Y-105723280D03*
X148308320Y-115883280D03*
X148308320Y-93023280D03*
X148308320Y-95563280D03*
X137688320Y-102442280D03*
X137689320Y-110442280D03*
X137689320Y-126442280D03*
X137689320Y-94442280D03*
X137689320Y-134442280D03*
X137689320Y-118442280D03*
X137688320Y-86442280D03*
X137688320Y-78442280D03*
X137689320Y-142442280D03*
X145688320Y-142442280D03*
X153688320Y-142442280D03*
X161688320Y-142442280D03*
X153688320Y-70442280D03*
X161688320Y-70442280D03*
X137689320Y-70442280D03*
X145688320Y-70442280D03*
M02*
