%TF.GenerationSoftware,KiCad,Pcbnew,4.0.5-e0-6337~49~ubuntu16.04.1*%
%TF.CreationDate,2017-01-20T22:37:02-08:00*%
%TF.ProjectId,4x10-Teensy-LC-Breakout,347831302D5465656E73792D4C432D42,1.0*%
%TF.FileFunction,Other,Fab,Top*%
%FSLAX46Y46*%
G04 Gerber Fmt 4.6, Leading zero omitted, Abs format (unit mm)*
G04 Created by KiCad (PCBNEW 4.0.5-e0-6337~49~ubuntu16.04.1) date Fri Jan 20 22:37:02 2017*
%MOMM*%
%LPD*%
G01*
G04 APERTURE LIST*
%ADD10C,0.350000*%
%ADD11C,0.040640*%
%ADD12C,0.150000*%
G04 APERTURE END LIST*
D10*
D11*
X137688320Y-146342280D02*
X161688320Y-146342280D01*
X161688320Y-66542280D02*
X137688320Y-66542280D01*
X133788320Y-70442280D02*
X133788320Y-142442280D01*
X133788326Y-142449087D02*
G75*
G03X137688320Y-146342280I3899994J6807D01*
G01*
X137688320Y-66542280D02*
G75*
G03X133788320Y-70442280I0J-3900000D01*
G01*
X165588320Y-142442280D02*
X165588320Y-70442280D01*
X165588314Y-70435473D02*
G75*
G03X161688320Y-66542280I-3899994J-6807D01*
G01*
X161688320Y-146342280D02*
G75*
G03X165588320Y-142442280I0J3900000D01*
G01*
D12*
X152690653Y-105186461D02*
X153262082Y-105186461D01*
X152976367Y-106186461D02*
X152976367Y-105186461D01*
X153976368Y-106138842D02*
X153881130Y-106186461D01*
X153690653Y-106186461D01*
X153595415Y-106138842D01*
X153547796Y-106043604D01*
X153547796Y-105662651D01*
X153595415Y-105567413D01*
X153690653Y-105519794D01*
X153881130Y-105519794D01*
X153976368Y-105567413D01*
X154023987Y-105662651D01*
X154023987Y-105757890D01*
X153547796Y-105853128D01*
X154833511Y-106138842D02*
X154738273Y-106186461D01*
X154547796Y-106186461D01*
X154452558Y-106138842D01*
X154404939Y-106043604D01*
X154404939Y-105662651D01*
X154452558Y-105567413D01*
X154547796Y-105519794D01*
X154738273Y-105519794D01*
X154833511Y-105567413D01*
X154881130Y-105662651D01*
X154881130Y-105757890D01*
X154404939Y-105853128D01*
X155309701Y-105519794D02*
X155309701Y-106186461D01*
X155309701Y-105615032D02*
X155357320Y-105567413D01*
X155452558Y-105519794D01*
X155595416Y-105519794D01*
X155690654Y-105567413D01*
X155738273Y-105662651D01*
X155738273Y-106186461D01*
X156166844Y-106138842D02*
X156262082Y-106186461D01*
X156452558Y-106186461D01*
X156547797Y-106138842D01*
X156595416Y-106043604D01*
X156595416Y-105995985D01*
X156547797Y-105900747D01*
X156452558Y-105853128D01*
X156309701Y-105853128D01*
X156214463Y-105805509D01*
X156166844Y-105710270D01*
X156166844Y-105662651D01*
X156214463Y-105567413D01*
X156309701Y-105519794D01*
X156452558Y-105519794D01*
X156547797Y-105567413D01*
X156928749Y-105519794D02*
X157166844Y-106186461D01*
X157404940Y-105519794D02*
X157166844Y-106186461D01*
X157071606Y-106424556D01*
X157023987Y-106472175D01*
X156928749Y-106519794D01*
X159023988Y-106186461D02*
X158547797Y-106186461D01*
X158547797Y-105186461D01*
X159928750Y-106091223D02*
X159881131Y-106138842D01*
X159738274Y-106186461D01*
X159643036Y-106186461D01*
X159500178Y-106138842D01*
X159404940Y-106043604D01*
X159357321Y-105948366D01*
X159309702Y-105757890D01*
X159309702Y-105615032D01*
X159357321Y-105424556D01*
X159404940Y-105329318D01*
X159500178Y-105234080D01*
X159643036Y-105186461D01*
X159738274Y-105186461D01*
X159881131Y-105234080D01*
X159928750Y-105281699D01*
M02*
