%TF.GenerationSoftware,KiCad,Pcbnew,4.0.5-e0-6337~49~ubuntu16.04.1*%
%TF.CreationDate,2017-02-14T00:46:06-08:00*%
%TF.ProjectId,4x10-Teensy-LC-Breakout,347831302D5465656E73792D4C432D42,1.0*%
%TF.FileFunction,Legend,Top*%
%FSLAX46Y46*%
G04 Gerber Fmt 4.6, Leading zero omitted, Abs format (unit mm)*
G04 Created by KiCad (PCBNEW 4.0.5-e0-6337~49~ubuntu16.04.1) date Tue Feb 14 00:46:06 2017*
%MOMM*%
%LPD*%
G01*
G04 APERTURE LIST*
%ADD10C,0.350000*%
%ADD11C,0.152400*%
%ADD12C,0.127000*%
%ADD13C,0.150000*%
%ADD14C,0.318000*%
%ADD15C,0.254000*%
%ADD16C,1.879600*%
%ADD17C,6.152400*%
G04 APERTURE END LIST*
D10*
D11*
X36189920Y-74284840D02*
X46857920Y-74284840D01*
X36127353Y-74284840D02*
G75*
G03X36127353Y-74284840I-508933J0D01*
G01*
D12*
X34124920Y-81076280D02*
X50124920Y-81076280D01*
X44824920Y-114977280D02*
X39824920Y-114977280D01*
X44824920Y-116977280D02*
X44824920Y-114977280D01*
X44824920Y-116977280D02*
X47824920Y-116977280D01*
X39824920Y-116977280D02*
X39824920Y-114977280D01*
X39824920Y-116977280D02*
X39824920Y-114977280D01*
X36824920Y-116977280D02*
X39824920Y-116977280D01*
X36824920Y-116977280D02*
X39824920Y-116977280D01*
D13*
X31029682Y-66874141D02*
X31363015Y-67874141D01*
X31696349Y-66874141D01*
X32029682Y-67874141D02*
X32029682Y-66874141D01*
X32505872Y-67874141D02*
X32505872Y-66874141D01*
X33077301Y-67874141D01*
X33077301Y-66874141D01*
X42848301Y-112420662D02*
X42848301Y-112230185D01*
X42895920Y-112134947D01*
X42991158Y-112039709D01*
X43181634Y-111992090D01*
X43514968Y-111992090D01*
X43705444Y-112039709D01*
X43800682Y-112134947D01*
X43848301Y-112230185D01*
X43848301Y-112420662D01*
X43800682Y-112515900D01*
X43705444Y-112611138D01*
X43514968Y-112658757D01*
X43181634Y-112658757D01*
X42991158Y-112611138D01*
X42895920Y-112515900D01*
X42848301Y-112420662D01*
X43848301Y-110992090D02*
X43372110Y-111325424D01*
X43848301Y-111563519D02*
X42848301Y-111563519D01*
X42848301Y-111182566D01*
X42895920Y-111087328D01*
X42943539Y-111039709D01*
X43038777Y-110992090D01*
X43181634Y-110992090D01*
X43276872Y-111039709D01*
X43324491Y-111087328D01*
X43372110Y-111182566D01*
X43372110Y-111563519D01*
X42848301Y-109944471D02*
X42848301Y-109373042D01*
X43848301Y-109658757D02*
X42848301Y-109658757D01*
X43324491Y-109039709D02*
X43324491Y-108706375D01*
X43848301Y-108563518D02*
X43848301Y-109039709D01*
X42848301Y-109039709D01*
X42848301Y-108563518D01*
X43324491Y-108134947D02*
X43324491Y-107801613D01*
X43848301Y-107658756D02*
X43848301Y-108134947D01*
X42848301Y-108134947D01*
X42848301Y-107658756D01*
X43848301Y-107230185D02*
X42848301Y-107230185D01*
X43848301Y-106658756D01*
X42848301Y-106658756D01*
X43800682Y-106230185D02*
X43848301Y-106087328D01*
X43848301Y-105849232D01*
X43800682Y-105753994D01*
X43753063Y-105706375D01*
X43657825Y-105658756D01*
X43562587Y-105658756D01*
X43467349Y-105706375D01*
X43419730Y-105753994D01*
X43372110Y-105849232D01*
X43324491Y-106039709D01*
X43276872Y-106134947D01*
X43229253Y-106182566D01*
X43134015Y-106230185D01*
X43038777Y-106230185D01*
X42943539Y-106182566D01*
X42895920Y-106134947D01*
X42848301Y-106039709D01*
X42848301Y-105801613D01*
X42895920Y-105658756D01*
X43372110Y-105039709D02*
X43848301Y-105039709D01*
X42848301Y-105373042D02*
X43372110Y-105039709D01*
X42848301Y-104706375D01*
X42848301Y-103706375D02*
X42848301Y-103087327D01*
X43229253Y-103420661D01*
X43229253Y-103277803D01*
X43276872Y-103182565D01*
X43324491Y-103134946D01*
X43419730Y-103087327D01*
X43657825Y-103087327D01*
X43753063Y-103134946D01*
X43800682Y-103182565D01*
X43848301Y-103277803D01*
X43848301Y-103563518D01*
X43800682Y-103658756D01*
X43753063Y-103706375D01*
X43753063Y-102658756D02*
X43800682Y-102611137D01*
X43848301Y-102658756D01*
X43800682Y-102706375D01*
X43753063Y-102658756D01*
X43848301Y-102658756D01*
X42943539Y-102230185D02*
X42895920Y-102182566D01*
X42848301Y-102087328D01*
X42848301Y-101849232D01*
X42895920Y-101753994D01*
X42943539Y-101706375D01*
X43038777Y-101658756D01*
X43134015Y-101658756D01*
X43276872Y-101706375D01*
X43848301Y-102277804D01*
X43848301Y-101658756D01*
X43753063Y-99896851D02*
X43800682Y-99944470D01*
X43848301Y-100087327D01*
X43848301Y-100182565D01*
X43800682Y-100325423D01*
X43705444Y-100420661D01*
X43610206Y-100468280D01*
X43419730Y-100515899D01*
X43276872Y-100515899D01*
X43086396Y-100468280D01*
X42991158Y-100420661D01*
X42895920Y-100325423D01*
X42848301Y-100182565D01*
X42848301Y-100087327D01*
X42895920Y-99944470D01*
X42943539Y-99896851D01*
X42848301Y-99277804D02*
X42848301Y-99087327D01*
X42895920Y-98992089D01*
X42991158Y-98896851D01*
X43181634Y-98849232D01*
X43514968Y-98849232D01*
X43705444Y-98896851D01*
X43800682Y-98992089D01*
X43848301Y-99087327D01*
X43848301Y-99277804D01*
X43800682Y-99373042D01*
X43705444Y-99468280D01*
X43514968Y-99515899D01*
X43181634Y-99515899D01*
X42991158Y-99468280D01*
X42895920Y-99373042D01*
X42848301Y-99277804D01*
X43848301Y-98420661D02*
X42848301Y-98420661D01*
X43562587Y-98087327D01*
X42848301Y-97753994D01*
X43848301Y-97753994D01*
X43848301Y-97277804D02*
X42848301Y-97277804D01*
X42848301Y-96896851D01*
X42895920Y-96801613D01*
X42943539Y-96753994D01*
X43038777Y-96706375D01*
X43181634Y-96706375D01*
X43276872Y-96753994D01*
X43324491Y-96801613D01*
X43372110Y-96896851D01*
X43372110Y-97277804D01*
X43562587Y-96325423D02*
X43562587Y-95849232D01*
X43848301Y-96420661D02*
X42848301Y-96087328D01*
X43848301Y-95753994D01*
X42848301Y-95563518D02*
X42848301Y-94992089D01*
X43848301Y-95277804D02*
X42848301Y-95277804D01*
X43848301Y-94658756D02*
X42848301Y-94658756D01*
X43324491Y-93849232D02*
X43372110Y-93706375D01*
X43419730Y-93658756D01*
X43514968Y-93611137D01*
X43657825Y-93611137D01*
X43753063Y-93658756D01*
X43800682Y-93706375D01*
X43848301Y-93801613D01*
X43848301Y-94182566D01*
X42848301Y-94182566D01*
X42848301Y-93849232D01*
X42895920Y-93753994D01*
X42943539Y-93706375D01*
X43038777Y-93658756D01*
X43134015Y-93658756D01*
X43229253Y-93706375D01*
X43276872Y-93753994D01*
X43324491Y-93849232D01*
X43324491Y-94182566D01*
X43848301Y-92706375D02*
X43848301Y-93182566D01*
X42848301Y-93182566D01*
X43324491Y-92373042D02*
X43324491Y-92039708D01*
X43848301Y-91896851D02*
X43848301Y-92373042D01*
X42848301Y-92373042D01*
X42848301Y-91896851D01*
X43324491Y-90373041D02*
X43372110Y-90230184D01*
X43419730Y-90182565D01*
X43514968Y-90134946D01*
X43657825Y-90134946D01*
X43753063Y-90182565D01*
X43800682Y-90230184D01*
X43848301Y-90325422D01*
X43848301Y-90706375D01*
X42848301Y-90706375D01*
X42848301Y-90373041D01*
X42895920Y-90277803D01*
X42943539Y-90230184D01*
X43038777Y-90182565D01*
X43134015Y-90182565D01*
X43229253Y-90230184D01*
X43276872Y-90277803D01*
X43324491Y-90373041D01*
X43324491Y-90706375D01*
X42848301Y-89515899D02*
X42848301Y-89325422D01*
X42895920Y-89230184D01*
X42991158Y-89134946D01*
X43181634Y-89087327D01*
X43514968Y-89087327D01*
X43705444Y-89134946D01*
X43800682Y-89230184D01*
X43848301Y-89325422D01*
X43848301Y-89515899D01*
X43800682Y-89611137D01*
X43705444Y-89706375D01*
X43514968Y-89753994D01*
X43181634Y-89753994D01*
X42991158Y-89706375D01*
X42895920Y-89611137D01*
X42848301Y-89515899D01*
X43562587Y-88706375D02*
X43562587Y-88230184D01*
X43848301Y-88801613D02*
X42848301Y-88468280D01*
X43848301Y-88134946D01*
X43848301Y-87230184D02*
X43372110Y-87563518D01*
X43848301Y-87801613D02*
X42848301Y-87801613D01*
X42848301Y-87420660D01*
X42895920Y-87325422D01*
X42943539Y-87277803D01*
X43038777Y-87230184D01*
X43181634Y-87230184D01*
X43276872Y-87277803D01*
X43324491Y-87325422D01*
X43372110Y-87420660D01*
X43372110Y-87801613D01*
X43848301Y-86801613D02*
X42848301Y-86801613D01*
X42848301Y-86563518D01*
X42895920Y-86420660D01*
X42991158Y-86325422D01*
X43086396Y-86277803D01*
X43276872Y-86230184D01*
X43419730Y-86230184D01*
X43610206Y-86277803D01*
X43705444Y-86325422D01*
X43800682Y-86420660D01*
X43848301Y-86563518D01*
X43848301Y-86801613D01*
X43800682Y-85849232D02*
X43848301Y-85706375D01*
X43848301Y-85468279D01*
X43800682Y-85373041D01*
X43753063Y-85325422D01*
X43657825Y-85277803D01*
X43562587Y-85277803D01*
X43467349Y-85325422D01*
X43419730Y-85373041D01*
X43372110Y-85468279D01*
X43324491Y-85658756D01*
X43276872Y-85753994D01*
X43229253Y-85801613D01*
X43134015Y-85849232D01*
X43038777Y-85849232D01*
X42943539Y-85801613D01*
X42895920Y-85753994D01*
X42848301Y-85658756D01*
X42848301Y-85420660D01*
X42895920Y-85277803D01*
X39546301Y-108920662D02*
X40355825Y-108920662D01*
X40451063Y-108873043D01*
X40498682Y-108825424D01*
X40546301Y-108730186D01*
X40546301Y-108539709D01*
X40498682Y-108444471D01*
X40451063Y-108396852D01*
X40355825Y-108349233D01*
X39546301Y-108349233D01*
X40498682Y-107920662D02*
X40546301Y-107777805D01*
X40546301Y-107539709D01*
X40498682Y-107444471D01*
X40451063Y-107396852D01*
X40355825Y-107349233D01*
X40260587Y-107349233D01*
X40165349Y-107396852D01*
X40117730Y-107444471D01*
X40070110Y-107539709D01*
X40022491Y-107730186D01*
X39974872Y-107825424D01*
X39927253Y-107873043D01*
X39832015Y-107920662D01*
X39736777Y-107920662D01*
X39641539Y-107873043D01*
X39593920Y-107825424D01*
X39546301Y-107730186D01*
X39546301Y-107492090D01*
X39593920Y-107349233D01*
X40022491Y-106920662D02*
X40022491Y-106587328D01*
X40546301Y-106444471D02*
X40546301Y-106920662D01*
X39546301Y-106920662D01*
X39546301Y-106444471D01*
X39546301Y-105063519D02*
X39546301Y-104873042D01*
X39593920Y-104777804D01*
X39689158Y-104682566D01*
X39879634Y-104634947D01*
X40212968Y-104634947D01*
X40403444Y-104682566D01*
X40498682Y-104777804D01*
X40546301Y-104873042D01*
X40546301Y-105063519D01*
X40498682Y-105158757D01*
X40403444Y-105253995D01*
X40212968Y-105301614D01*
X39879634Y-105301614D01*
X39689158Y-105253995D01*
X39593920Y-105158757D01*
X39546301Y-105063519D01*
X40546301Y-104206376D02*
X39546301Y-104206376D01*
X40546301Y-103634947D01*
X39546301Y-103634947D01*
X40546301Y-102682566D02*
X40546301Y-103158757D01*
X39546301Y-103158757D01*
X40070110Y-102158757D02*
X40546301Y-102158757D01*
X39546301Y-102492090D02*
X40070110Y-102158757D01*
X39546301Y-101825423D01*
X39546301Y-100825423D02*
X40546301Y-100587328D01*
X39832015Y-100396851D01*
X40546301Y-100206375D01*
X39546301Y-99968280D01*
X40546301Y-99587328D02*
X39546301Y-99587328D01*
X39546301Y-99253995D02*
X39546301Y-98682566D01*
X40546301Y-98968281D02*
X39546301Y-98968281D01*
X40546301Y-98349233D02*
X39546301Y-98349233D01*
X40022491Y-98349233D02*
X40022491Y-97777804D01*
X40546301Y-97777804D02*
X39546301Y-97777804D01*
X39546301Y-96682566D02*
X39546301Y-96111137D01*
X40546301Y-96396852D02*
X39546301Y-96396852D01*
X40022491Y-95777804D02*
X40022491Y-95444470D01*
X40546301Y-95301613D02*
X40546301Y-95777804D01*
X39546301Y-95777804D01*
X39546301Y-95301613D01*
X40022491Y-94873042D02*
X40022491Y-94539708D01*
X40546301Y-94396851D02*
X40546301Y-94873042D01*
X39546301Y-94873042D01*
X39546301Y-94396851D01*
X40546301Y-93968280D02*
X39546301Y-93968280D01*
X40546301Y-93396851D01*
X39546301Y-93396851D01*
X40498682Y-92968280D02*
X40546301Y-92825423D01*
X40546301Y-92587327D01*
X40498682Y-92492089D01*
X40451063Y-92444470D01*
X40355825Y-92396851D01*
X40260587Y-92396851D01*
X40165349Y-92444470D01*
X40117730Y-92492089D01*
X40070110Y-92587327D01*
X40022491Y-92777804D01*
X39974872Y-92873042D01*
X39927253Y-92920661D01*
X39832015Y-92968280D01*
X39736777Y-92968280D01*
X39641539Y-92920661D01*
X39593920Y-92873042D01*
X39546301Y-92777804D01*
X39546301Y-92539708D01*
X39593920Y-92396851D01*
X40070110Y-91777804D02*
X40546301Y-91777804D01*
X39546301Y-92111137D02*
X40070110Y-91777804D01*
X39546301Y-91444470D01*
X40546301Y-89873041D02*
X40546301Y-90349232D01*
X39546301Y-90349232D01*
X40451063Y-88968279D02*
X40498682Y-89015898D01*
X40546301Y-89158755D01*
X40546301Y-89253993D01*
X40498682Y-89396851D01*
X40403444Y-89492089D01*
X40308206Y-89539708D01*
X40117730Y-89587327D01*
X39974872Y-89587327D01*
X39784396Y-89539708D01*
X39689158Y-89492089D01*
X39593920Y-89396851D01*
X39546301Y-89253993D01*
X39546301Y-89158755D01*
X39593920Y-89015898D01*
X39641539Y-88968279D01*
X28474444Y-103718661D02*
X27903015Y-103718661D01*
X28188729Y-103718661D02*
X28188729Y-102718661D01*
X28093491Y-102861518D01*
X27998253Y-102956756D01*
X27903015Y-103004375D01*
X29045872Y-103147232D02*
X28950634Y-103099613D01*
X28903015Y-103051994D01*
X28855396Y-102956756D01*
X28855396Y-102909137D01*
X28903015Y-102813899D01*
X28950634Y-102766280D01*
X29045872Y-102718661D01*
X29236349Y-102718661D01*
X29331587Y-102766280D01*
X29379206Y-102813899D01*
X29426825Y-102909137D01*
X29426825Y-102956756D01*
X29379206Y-103051994D01*
X29331587Y-103099613D01*
X29236349Y-103147232D01*
X29045872Y-103147232D01*
X28950634Y-103194851D01*
X28903015Y-103242470D01*
X28855396Y-103337709D01*
X28855396Y-103528185D01*
X28903015Y-103623423D01*
X28950634Y-103671042D01*
X29045872Y-103718661D01*
X29236349Y-103718661D01*
X29331587Y-103671042D01*
X29379206Y-103623423D01*
X29426825Y-103528185D01*
X29426825Y-103337709D01*
X29379206Y-103242470D01*
X29331587Y-103194851D01*
X29236349Y-103147232D01*
X28474444Y-95468661D02*
X27903015Y-95468661D01*
X28188729Y-95468661D02*
X28188729Y-94468661D01*
X28093491Y-94611518D01*
X27998253Y-94706756D01*
X27903015Y-94754375D01*
X28807777Y-94468661D02*
X29474444Y-94468661D01*
X29045872Y-95468661D01*
X28153015Y-118813899D02*
X28200634Y-118766280D01*
X28295872Y-118718661D01*
X28533968Y-118718661D01*
X28629206Y-118766280D01*
X28676825Y-118813899D01*
X28724444Y-118909137D01*
X28724444Y-119004375D01*
X28676825Y-119147232D01*
X28105396Y-119718661D01*
X28724444Y-119718661D01*
X29343491Y-118718661D02*
X29438730Y-118718661D01*
X29533968Y-118766280D01*
X29581587Y-118813899D01*
X29629206Y-118909137D01*
X29676825Y-119099613D01*
X29676825Y-119337709D01*
X29629206Y-119528185D01*
X29581587Y-119623423D01*
X29533968Y-119671042D01*
X29438730Y-119718661D01*
X29343491Y-119718661D01*
X29248253Y-119671042D01*
X29200634Y-119623423D01*
X29153015Y-119528185D01*
X29105396Y-119337709D01*
X29105396Y-119099613D01*
X29153015Y-118909137D01*
X29200634Y-118813899D01*
X29248253Y-118766280D01*
X29343491Y-118718661D01*
X28724444Y-111468661D02*
X28153015Y-111468661D01*
X28438729Y-111468661D02*
X28438729Y-110468661D01*
X28343491Y-110611518D01*
X28248253Y-110706756D01*
X28153015Y-110754375D01*
X29200634Y-111468661D02*
X29391110Y-111468661D01*
X29486349Y-111421042D01*
X29533968Y-111373423D01*
X29629206Y-111230566D01*
X29676825Y-111040090D01*
X29676825Y-110659137D01*
X29629206Y-110563899D01*
X29581587Y-110516280D01*
X29486349Y-110468661D01*
X29295872Y-110468661D01*
X29200634Y-110516280D01*
X29153015Y-110563899D01*
X29105396Y-110659137D01*
X29105396Y-110897232D01*
X29153015Y-110992470D01*
X29200634Y-111040090D01*
X29295872Y-111087709D01*
X29486349Y-111087709D01*
X29581587Y-111040090D01*
X29629206Y-110992470D01*
X29676825Y-110897232D01*
X27808015Y-126628899D02*
X27855634Y-126581280D01*
X27950872Y-126533661D01*
X28188968Y-126533661D01*
X28284206Y-126581280D01*
X28331825Y-126628899D01*
X28379444Y-126724137D01*
X28379444Y-126819375D01*
X28331825Y-126962232D01*
X27760396Y-127533661D01*
X28379444Y-127533661D01*
X29331825Y-127533661D02*
X28760396Y-127533661D01*
X29046110Y-127533661D02*
X29046110Y-126533661D01*
X28950872Y-126676518D01*
X28855634Y-126771756D01*
X28760396Y-126819375D01*
X26163016Y-131076280D02*
X26067778Y-131028661D01*
X25924921Y-131028661D01*
X25782063Y-131076280D01*
X25686825Y-131171518D01*
X25639206Y-131266756D01*
X25591587Y-131457232D01*
X25591587Y-131600090D01*
X25639206Y-131790566D01*
X25686825Y-131885804D01*
X25782063Y-131981042D01*
X25924921Y-132028661D01*
X26020159Y-132028661D01*
X26163016Y-131981042D01*
X26210635Y-131933423D01*
X26210635Y-131600090D01*
X26020159Y-131600090D01*
X26639206Y-132028661D02*
X26639206Y-131028661D01*
X27210635Y-132028661D01*
X27210635Y-131028661D01*
X27686825Y-132028661D02*
X27686825Y-131028661D01*
X27924920Y-131028661D01*
X28067778Y-131076280D01*
X28163016Y-131171518D01*
X28210635Y-131266756D01*
X28258254Y-131457232D01*
X28258254Y-131600090D01*
X28210635Y-131790566D01*
X28163016Y-131885804D01*
X28067778Y-131981042D01*
X27924920Y-132028661D01*
X27686825Y-132028661D01*
X30929682Y-130328661D02*
X31263015Y-131328661D01*
X31596349Y-130328661D01*
X31929682Y-131328661D02*
X31929682Y-130328661D01*
X32405872Y-131328661D02*
X32405872Y-130328661D01*
X32977301Y-131328661D01*
X32977301Y-130328661D01*
X25863016Y-66176280D02*
X25767778Y-66128661D01*
X25624921Y-66128661D01*
X25482063Y-66176280D01*
X25386825Y-66271518D01*
X25339206Y-66366756D01*
X25291587Y-66557232D01*
X25291587Y-66700090D01*
X25339206Y-66890566D01*
X25386825Y-66985804D01*
X25482063Y-67081042D01*
X25624921Y-67128661D01*
X25720159Y-67128661D01*
X25863016Y-67081042D01*
X25910635Y-67033423D01*
X25910635Y-66700090D01*
X25720159Y-66700090D01*
X26339206Y-67128661D02*
X26339206Y-66128661D01*
X26910635Y-67128661D01*
X26910635Y-66128661D01*
X27386825Y-67128661D02*
X27386825Y-66128661D01*
X27624920Y-66128661D01*
X27767778Y-66176280D01*
X27863016Y-66271518D01*
X27910635Y-66366756D01*
X27958254Y-66557232D01*
X27958254Y-66700090D01*
X27910635Y-66890566D01*
X27863016Y-66985804D01*
X27767778Y-67081042D01*
X27624920Y-67128661D01*
X27386825Y-67128661D01*
X28474444Y-87528661D02*
X27903015Y-87528661D01*
X28188729Y-87528661D02*
X28188729Y-86528661D01*
X28093491Y-86671518D01*
X27998253Y-86766756D01*
X27903015Y-86814375D01*
X29331587Y-86528661D02*
X29141110Y-86528661D01*
X29045872Y-86576280D01*
X28998253Y-86623899D01*
X28903015Y-86766756D01*
X28855396Y-86957232D01*
X28855396Y-87338185D01*
X28903015Y-87433423D01*
X28950634Y-87481042D01*
X29045872Y-87528661D01*
X29236349Y-87528661D01*
X29331587Y-87481042D01*
X29379206Y-87433423D01*
X29426825Y-87338185D01*
X29426825Y-87100090D01*
X29379206Y-87004851D01*
X29331587Y-86957232D01*
X29236349Y-86909613D01*
X29045872Y-86909613D01*
X28950634Y-86957232D01*
X28903015Y-87004851D01*
X28855396Y-87100090D01*
X28474444Y-79528661D02*
X27903015Y-79528661D01*
X28188729Y-79528661D02*
X28188729Y-78528661D01*
X28093491Y-78671518D01*
X27998253Y-78766756D01*
X27903015Y-78814375D01*
X29379206Y-78528661D02*
X28903015Y-78528661D01*
X28855396Y-79004851D01*
X28903015Y-78957232D01*
X28998253Y-78909613D01*
X29236349Y-78909613D01*
X29331587Y-78957232D01*
X29379206Y-79004851D01*
X29426825Y-79100090D01*
X29426825Y-79338185D01*
X29379206Y-79433423D01*
X29331587Y-79481042D01*
X29236349Y-79528661D01*
X28998253Y-79528661D01*
X28903015Y-79481042D01*
X28855396Y-79433423D01*
X28474444Y-71528661D02*
X27903015Y-71528661D01*
X28188729Y-71528661D02*
X28188729Y-70528661D01*
X28093491Y-70671518D01*
X27998253Y-70766756D01*
X27903015Y-70814375D01*
X29331587Y-70861994D02*
X29331587Y-71528661D01*
X29093491Y-70481042D02*
X28855396Y-71195328D01*
X29474444Y-71195328D01*
X46573275Y-67874141D02*
X46001846Y-67874141D01*
X46287560Y-67874141D02*
X46287560Y-66874141D01*
X46192322Y-67016998D01*
X46097084Y-67112236D01*
X46001846Y-67159855D01*
X47716132Y-66826522D02*
X46858989Y-68112236D01*
X48620894Y-67874141D02*
X48287560Y-67397950D01*
X48049465Y-67874141D02*
X48049465Y-66874141D01*
X48430418Y-66874141D01*
X48525656Y-66921760D01*
X48573275Y-66969379D01*
X48620894Y-67064617D01*
X48620894Y-67207474D01*
X48573275Y-67302712D01*
X48525656Y-67350331D01*
X48430418Y-67397950D01*
X48049465Y-67397950D01*
X48954227Y-66874141D02*
X49620894Y-67874141D01*
X49620894Y-66874141D02*
X48954227Y-67874141D01*
X46516468Y-130328661D02*
X46611707Y-130328661D01*
X46706945Y-130376280D01*
X46754564Y-130423899D01*
X46802183Y-130519137D01*
X46849802Y-130709613D01*
X46849802Y-130947709D01*
X46802183Y-131138185D01*
X46754564Y-131233423D01*
X46706945Y-131281042D01*
X46611707Y-131328661D01*
X46516468Y-131328661D01*
X46421230Y-131281042D01*
X46373611Y-131233423D01*
X46325992Y-131138185D01*
X46278373Y-130947709D01*
X46278373Y-130709613D01*
X46325992Y-130519137D01*
X46373611Y-130423899D01*
X46421230Y-130376280D01*
X46516468Y-130328661D01*
X47992659Y-130281042D02*
X47135516Y-131566756D01*
X48183135Y-130328661D02*
X48754564Y-130328661D01*
X48468849Y-131328661D02*
X48468849Y-130328661D01*
X48992659Y-130328661D02*
X49659326Y-131328661D01*
X49659326Y-130328661D02*
X48992659Y-131328661D01*
X38848730Y-66874141D02*
X39467778Y-66874141D01*
X39134444Y-67255093D01*
X39277302Y-67255093D01*
X39372540Y-67302712D01*
X39420159Y-67350331D01*
X39467778Y-67445570D01*
X39467778Y-67683665D01*
X39420159Y-67778903D01*
X39372540Y-67826522D01*
X39277302Y-67874141D01*
X38991587Y-67874141D01*
X38896349Y-67826522D01*
X38848730Y-67778903D01*
X39896349Y-67778903D02*
X39943968Y-67826522D01*
X39896349Y-67874141D01*
X39848730Y-67826522D01*
X39896349Y-67778903D01*
X39896349Y-67874141D01*
X40277301Y-66874141D02*
X40896349Y-66874141D01*
X40563015Y-67255093D01*
X40705873Y-67255093D01*
X40801111Y-67302712D01*
X40848730Y-67350331D01*
X40896349Y-67445570D01*
X40896349Y-67683665D01*
X40848730Y-67778903D01*
X40801111Y-67826522D01*
X40705873Y-67874141D01*
X40420158Y-67874141D01*
X40324920Y-67826522D01*
X40277301Y-67778903D01*
X41182063Y-66874141D02*
X41515396Y-67874141D01*
X41848730Y-66874141D01*
X38448730Y-130328661D02*
X39067778Y-130328661D01*
X38734444Y-130709613D01*
X38877302Y-130709613D01*
X38972540Y-130757232D01*
X39020159Y-130804851D01*
X39067778Y-130900090D01*
X39067778Y-131138185D01*
X39020159Y-131233423D01*
X38972540Y-131281042D01*
X38877302Y-131328661D01*
X38591587Y-131328661D01*
X38496349Y-131281042D01*
X38448730Y-131233423D01*
X39496349Y-131233423D02*
X39543968Y-131281042D01*
X39496349Y-131328661D01*
X39448730Y-131281042D01*
X39496349Y-131233423D01*
X39496349Y-131328661D01*
X39877301Y-130328661D02*
X40496349Y-130328661D01*
X40163015Y-130709613D01*
X40305873Y-130709613D01*
X40401111Y-130757232D01*
X40448730Y-130804851D01*
X40496349Y-130900090D01*
X40496349Y-131138185D01*
X40448730Y-131233423D01*
X40401111Y-131281042D01*
X40305873Y-131328661D01*
X40020158Y-131328661D01*
X39924920Y-131281042D01*
X39877301Y-131233423D01*
X40782063Y-130328661D02*
X41115396Y-131328661D01*
X41448730Y-130328661D01*
%LPC*%
D14*
X38184909Y-76617286D02*
X38112338Y-76689857D01*
X37894624Y-76762429D01*
X37749481Y-76762429D01*
X37531766Y-76689857D01*
X37386624Y-76544714D01*
X37314052Y-76399571D01*
X37241481Y-76109286D01*
X37241481Y-75891571D01*
X37314052Y-75601286D01*
X37386624Y-75456143D01*
X37531766Y-75311000D01*
X37749481Y-75238429D01*
X37894624Y-75238429D01*
X38112338Y-75311000D01*
X38184909Y-75383571D01*
X38838052Y-76762429D02*
X38838052Y-75238429D01*
X40434623Y-76762429D02*
X39926623Y-76036714D01*
X39563766Y-76762429D02*
X39563766Y-75238429D01*
X40144338Y-75238429D01*
X40289480Y-75311000D01*
X40362052Y-75383571D01*
X40434623Y-75528714D01*
X40434623Y-75746429D01*
X40362052Y-75891571D01*
X40289480Y-75964143D01*
X40144338Y-76036714D01*
X39563766Y-76036714D01*
X41958623Y-76617286D02*
X41886052Y-76689857D01*
X41668338Y-76762429D01*
X41523195Y-76762429D01*
X41305480Y-76689857D01*
X41160338Y-76544714D01*
X41087766Y-76399571D01*
X41015195Y-76109286D01*
X41015195Y-75891571D01*
X41087766Y-75601286D01*
X41160338Y-75456143D01*
X41305480Y-75311000D01*
X41523195Y-75238429D01*
X41668338Y-75238429D01*
X41886052Y-75311000D01*
X41958623Y-75383571D01*
X42611766Y-75238429D02*
X42611766Y-76472143D01*
X42684338Y-76617286D01*
X42756909Y-76689857D01*
X42902052Y-76762429D01*
X43192338Y-76762429D01*
X43337480Y-76689857D01*
X43410052Y-76617286D01*
X43482623Y-76472143D01*
X43482623Y-75238429D01*
X44208337Y-76762429D02*
X44208337Y-75238429D01*
X44716337Y-75238429D02*
X45587194Y-75238429D01*
X45151765Y-76762429D02*
X45151765Y-75238429D01*
X46022623Y-76689857D02*
X46240337Y-76762429D01*
X46603194Y-76762429D01*
X46748337Y-76689857D01*
X46820908Y-76617286D01*
X46893480Y-76472143D01*
X46893480Y-76327000D01*
X46820908Y-76181857D01*
X46748337Y-76109286D01*
X46603194Y-76036714D01*
X46312908Y-75964143D01*
X46167766Y-75891571D01*
X46095194Y-75819000D01*
X46022623Y-75673857D01*
X46022623Y-75528714D01*
X46095194Y-75383571D01*
X46167766Y-75311000D01*
X46312908Y-75238429D01*
X46675766Y-75238429D01*
X46893480Y-75311000D01*
X37433794Y-73310206D02*
X37361223Y-73382777D01*
X37143509Y-73455349D01*
X36998366Y-73455349D01*
X36780651Y-73382777D01*
X36635509Y-73237634D01*
X36562937Y-73092491D01*
X36490366Y-72802206D01*
X36490366Y-72584491D01*
X36562937Y-72294206D01*
X36635509Y-72149063D01*
X36780651Y-72003920D01*
X36998366Y-71931349D01*
X37143509Y-71931349D01*
X37361223Y-72003920D01*
X37433794Y-72076491D01*
X38957794Y-73455349D02*
X38449794Y-72729634D01*
X38086937Y-73455349D02*
X38086937Y-71931349D01*
X38667509Y-71931349D01*
X38812651Y-72003920D01*
X38885223Y-72076491D01*
X38957794Y-72221634D01*
X38957794Y-72439349D01*
X38885223Y-72584491D01*
X38812651Y-72657063D01*
X38667509Y-72729634D01*
X38086937Y-72729634D01*
X39538366Y-73019920D02*
X40264080Y-73019920D01*
X39393223Y-73455349D02*
X39901223Y-71931349D01*
X40409223Y-73455349D01*
X40772080Y-71931349D02*
X41788080Y-71931349D01*
X40772080Y-73455349D01*
X41788080Y-73455349D01*
X42658938Y-72729634D02*
X42658938Y-73455349D01*
X42150938Y-71931349D02*
X42658938Y-72729634D01*
X43166938Y-71931349D01*
X37449034Y-73325446D02*
X37376463Y-73398017D01*
X37158749Y-73470589D01*
X37013606Y-73470589D01*
X36795891Y-73398017D01*
X36650749Y-73252874D01*
X36578177Y-73107731D01*
X36505606Y-72817446D01*
X36505606Y-72599731D01*
X36578177Y-72309446D01*
X36650749Y-72164303D01*
X36795891Y-72019160D01*
X37013606Y-71946589D01*
X37158749Y-71946589D01*
X37376463Y-72019160D01*
X37449034Y-72091731D01*
X38973034Y-73470589D02*
X38465034Y-72744874D01*
X38102177Y-73470589D02*
X38102177Y-71946589D01*
X38682749Y-71946589D01*
X38827891Y-72019160D01*
X38900463Y-72091731D01*
X38973034Y-72236874D01*
X38973034Y-72454589D01*
X38900463Y-72599731D01*
X38827891Y-72672303D01*
X38682749Y-72744874D01*
X38102177Y-72744874D01*
X39553606Y-73035160D02*
X40279320Y-73035160D01*
X39408463Y-73470589D02*
X39916463Y-71946589D01*
X40424463Y-73470589D01*
X40787320Y-71946589D02*
X41803320Y-71946589D01*
X40787320Y-73470589D01*
X41803320Y-73470589D01*
X42674178Y-72744874D02*
X42674178Y-73470589D01*
X42166178Y-71946589D02*
X42674178Y-72744874D01*
X43182178Y-71946589D01*
D11*
X47873920Y-73078340D02*
X46730920Y-74030840D01*
X46540420Y-74030840D02*
X47873920Y-73078340D01*
X47492920Y-73205340D02*
X46540420Y-74030840D01*
X46413420Y-73967340D02*
X47492920Y-73205340D01*
X47302420Y-73268840D02*
X46413420Y-73967340D01*
X46159420Y-74030840D02*
X47302420Y-73268840D01*
X46984920Y-73395840D02*
X46159420Y-74030840D01*
X46032420Y-73967340D02*
X46984920Y-73395840D01*
X46794420Y-73395840D02*
X46032420Y-73967340D01*
X46032420Y-73840340D02*
X46794420Y-73395840D01*
X46540420Y-73395840D02*
X46032420Y-73840340D01*
X45968920Y-73713340D02*
X46540420Y-73395840D01*
X46540420Y-73205340D02*
X45968920Y-73713340D01*
X46540420Y-73078340D02*
X45905420Y-73586340D01*
X46667420Y-72887840D02*
X45841920Y-73459340D01*
X46667420Y-72760840D02*
X45841920Y-73332340D01*
D15*
X44825920Y-73967340D02*
X44190920Y-73078340D01*
D11*
X46730920Y-74094340D02*
X44762420Y-74094340D01*
X48318420Y-72951340D02*
X46730920Y-74094340D01*
X46540420Y-73395840D02*
X48318420Y-72951340D01*
X46857920Y-72506840D02*
X46540420Y-73395840D01*
X45778420Y-73205340D02*
X46857920Y-72506840D01*
X44952920Y-71744840D02*
X45778420Y-73268840D01*
X45016420Y-73141840D02*
X44952920Y-71744840D01*
X43936920Y-72887840D02*
X45016420Y-73141840D01*
X44762420Y-74094340D02*
X43936920Y-72887840D01*
D15*
X45016420Y-73967340D02*
X44381420Y-73078340D01*
X45206920Y-73967340D02*
X44635420Y-73141840D01*
X45333920Y-73967340D02*
X44889420Y-73205340D01*
X45587920Y-73967340D02*
X45143420Y-73141840D01*
X45778420Y-73967340D02*
X45206920Y-72887840D01*
X45968920Y-73967340D02*
X45079920Y-72252840D01*
X45143420Y-72951340D02*
X45079920Y-72125840D01*
D16*
X49984920Y-116137280D03*
X49984920Y-113597280D03*
X49984920Y-111057280D03*
X49984920Y-108517280D03*
X49984920Y-105977280D03*
X49984920Y-103437280D03*
X49984920Y-100897280D03*
X49984920Y-98357280D03*
X49984920Y-95817280D03*
X49984920Y-93277280D03*
X49984920Y-90737280D03*
X49984920Y-88197280D03*
X49984920Y-85657280D03*
X49984920Y-83117280D03*
X34744920Y-83117280D03*
X34744920Y-90737280D03*
X34744920Y-111057280D03*
X34744920Y-95817280D03*
X34744920Y-93277280D03*
X34744920Y-113597280D03*
X34744920Y-105977280D03*
X34744920Y-116137280D03*
X34744920Y-103437280D03*
X34744920Y-100897280D03*
X34744920Y-98357280D03*
X34744920Y-108517280D03*
X34744920Y-85657280D03*
X34744920Y-88197280D03*
D17*
X24124920Y-95076280D03*
X24125920Y-103076280D03*
X24125920Y-119076280D03*
X24125920Y-87076280D03*
X24125920Y-127076280D03*
X24125920Y-111076280D03*
X24124920Y-79076280D03*
X24124920Y-71076280D03*
X24125920Y-135076280D03*
X32124920Y-135076280D03*
X40124920Y-135076280D03*
X48124920Y-135076280D03*
X40124920Y-63076280D03*
X48124920Y-63076280D03*
X24125920Y-63076280D03*
X32124920Y-63076280D03*
M02*
