%TF.GenerationSoftware,KiCad,Pcbnew,4.0.5-e0-6337~49~ubuntu16.04.1*%
%TF.CreationDate,2017-01-24T12:31:17-08:00*%
%TF.ProjectId,4x10-Teensy-LC-Breakout,347831302D5465656E73792D4C432D42,1.0*%
%TF.FileFunction,Legend,Bot*%
%FSLAX46Y46*%
G04 Gerber Fmt 4.6, Leading zero omitted, Abs format (unit mm)*
G04 Created by KiCad (PCBNEW 4.0.5-e0-6337~49~ubuntu16.04.1) date Tue Jan 24 12:31:17 2017*
%MOMM*%
%LPD*%
G01*
G04 APERTURE LIST*
%ADD10C,0.350000*%
%ADD11C,0.177800*%
G04 APERTURE END LIST*
D10*
D11*
X162063248Y-82113483D02*
X162172105Y-82167911D01*
X162389819Y-82167911D01*
X162498677Y-82113483D01*
X162553105Y-82059054D01*
X162607534Y-81950197D01*
X162607534Y-81623626D01*
X162553105Y-81514769D01*
X162498677Y-81460340D01*
X162389819Y-81405911D01*
X162172105Y-81405911D01*
X162063248Y-81460340D01*
X161573391Y-82167911D02*
X161573391Y-81405911D01*
X161573391Y-81623626D02*
X161518963Y-81514769D01*
X161464534Y-81460340D01*
X161355677Y-81405911D01*
X161246820Y-81405911D01*
X160375963Y-82167911D02*
X160375963Y-81569197D01*
X160430392Y-81460340D01*
X160539249Y-81405911D01*
X160756963Y-81405911D01*
X160865820Y-81460340D01*
X160375963Y-82113483D02*
X160484820Y-82167911D01*
X160756963Y-82167911D01*
X160865820Y-82113483D01*
X160920249Y-82004626D01*
X160920249Y-81895769D01*
X160865820Y-81786911D01*
X160756963Y-81732483D01*
X160484820Y-81732483D01*
X160375963Y-81678054D01*
X159940534Y-81405911D02*
X159341820Y-81405911D01*
X159940534Y-82167911D01*
X159341820Y-82167911D01*
X159015248Y-81405911D02*
X158743105Y-82167911D01*
X158470963Y-81405911D02*
X158743105Y-82167911D01*
X158851963Y-82440054D01*
X158906391Y-82494483D01*
X159015248Y-82548911D01*
X157545677Y-82113483D02*
X157654534Y-82167911D01*
X157872248Y-82167911D01*
X157981106Y-82113483D01*
X158035534Y-82059054D01*
X158089963Y-81950197D01*
X158089963Y-81623626D01*
X158035534Y-81514769D01*
X157981106Y-81460340D01*
X157872248Y-81405911D01*
X157654534Y-81405911D01*
X157545677Y-81460340D01*
X157055820Y-82167911D02*
X157055820Y-81405911D01*
X157055820Y-81024911D02*
X157110249Y-81079340D01*
X157055820Y-81133769D01*
X157001392Y-81079340D01*
X157055820Y-81024911D01*
X157055820Y-81133769D01*
X156511534Y-82167911D02*
X156511534Y-81405911D01*
X156511534Y-81623626D02*
X156457106Y-81514769D01*
X156402677Y-81460340D01*
X156293820Y-81405911D01*
X156184963Y-81405911D01*
X155314106Y-82113483D02*
X155422963Y-82167911D01*
X155640677Y-82167911D01*
X155749535Y-82113483D01*
X155803963Y-82059054D01*
X155858392Y-81950197D01*
X155858392Y-81623626D01*
X155803963Y-81514769D01*
X155749535Y-81460340D01*
X155640677Y-81405911D01*
X155422963Y-81405911D01*
X155314106Y-81460340D01*
X154334392Y-81405911D02*
X154334392Y-82167911D01*
X154824249Y-81405911D02*
X154824249Y-82004626D01*
X154769821Y-82113483D01*
X154660963Y-82167911D01*
X154497678Y-82167911D01*
X154388821Y-82113483D01*
X154334392Y-82059054D01*
X153790106Y-82167911D02*
X153790106Y-81405911D01*
X153790106Y-81024911D02*
X153844535Y-81079340D01*
X153790106Y-81133769D01*
X153735678Y-81079340D01*
X153790106Y-81024911D01*
X153790106Y-81133769D01*
X153409106Y-81405911D02*
X152973677Y-81405911D01*
X153245820Y-81024911D02*
X153245820Y-82004626D01*
X153191392Y-82113483D01*
X153082534Y-82167911D01*
X152973677Y-82167911D01*
X152647106Y-82113483D02*
X152538249Y-82167911D01*
X152320534Y-82167911D01*
X152211677Y-82113483D01*
X152157249Y-82004626D01*
X152157249Y-81950197D01*
X152211677Y-81841340D01*
X152320534Y-81786911D01*
X152483820Y-81786911D01*
X152592677Y-81732483D01*
X152647106Y-81623626D01*
X152647106Y-81569197D01*
X152592677Y-81460340D01*
X152483820Y-81405911D01*
X152320534Y-81405911D01*
X152211677Y-81460340D01*
X151667391Y-82059054D02*
X151612963Y-82113483D01*
X151667391Y-82167911D01*
X151721820Y-82113483D01*
X151667391Y-82059054D01*
X151667391Y-82167911D01*
X150633248Y-82113483D02*
X150742105Y-82167911D01*
X150959819Y-82167911D01*
X151068677Y-82113483D01*
X151123105Y-82059054D01*
X151177534Y-81950197D01*
X151177534Y-81623626D01*
X151123105Y-81514769D01*
X151068677Y-81460340D01*
X150959819Y-81405911D01*
X150742105Y-81405911D01*
X150633248Y-81460340D01*
X149980105Y-82167911D02*
X150088963Y-82113483D01*
X150143391Y-82059054D01*
X150197820Y-81950197D01*
X150197820Y-81623626D01*
X150143391Y-81514769D01*
X150088963Y-81460340D01*
X149980105Y-81405911D01*
X149816820Y-81405911D01*
X149707963Y-81460340D01*
X149653534Y-81514769D01*
X149599105Y-81623626D01*
X149599105Y-81950197D01*
X149653534Y-82059054D01*
X149707963Y-82113483D01*
X149816820Y-82167911D01*
X149980105Y-82167911D01*
X149109248Y-82167911D02*
X149109248Y-81405911D01*
X149109248Y-81514769D02*
X149054820Y-81460340D01*
X148945962Y-81405911D01*
X148782677Y-81405911D01*
X148673820Y-81460340D01*
X148619391Y-81569197D01*
X148619391Y-82167911D01*
X148619391Y-81569197D02*
X148564962Y-81460340D01*
X148456105Y-81405911D01*
X148292820Y-81405911D01*
X148183962Y-81460340D01*
X148129534Y-81569197D01*
X148129534Y-82167911D01*
M02*
