%TF.GenerationSoftware,KiCad,Pcbnew,4.0.5-e0-6337~49~ubuntu16.04.1*%
%TF.CreationDate,2017-02-14T03:20:44-08:00*%
%TF.ProjectId,10mmLED-Button-Battery,31306D6D4C45442D427574746F6E2D42,v1.2*%
%TF.FileFunction,Soldermask,Top*%
%FSLAX46Y46*%
G04 Gerber Fmt 4.6, Leading zero omitted, Abs format (unit mm)*
G04 Created by KiCad (PCBNEW 4.0.5-e0-6337~49~ubuntu16.04.1) date Tue Feb 14 03:20:44 2017*
%MOMM*%
%LPD*%
G01*
G04 APERTURE LIST*
%ADD10C,0.350000*%
%ADD11C,0.317500*%
%ADD12C,0.152400*%
%ADD13C,0.254000*%
G04 APERTURE END LIST*
D10*
D11*
X57191124Y-58949771D02*
X57130648Y-59010248D01*
X56949219Y-59070724D01*
X56828267Y-59070724D01*
X56646839Y-59010248D01*
X56525886Y-58889295D01*
X56465410Y-58768343D01*
X56404934Y-58526438D01*
X56404934Y-58345010D01*
X56465410Y-58103105D01*
X56525886Y-57982152D01*
X56646839Y-57861200D01*
X56828267Y-57800724D01*
X56949219Y-57800724D01*
X57130648Y-57861200D01*
X57191124Y-57921676D01*
X57735410Y-59070724D02*
X57735410Y-57800724D01*
X59065886Y-59070724D02*
X58642553Y-58465962D01*
X58340172Y-59070724D02*
X58340172Y-57800724D01*
X58823981Y-57800724D01*
X58944934Y-57861200D01*
X59005410Y-57921676D01*
X59065886Y-58042629D01*
X59065886Y-58224057D01*
X59005410Y-58345010D01*
X58944934Y-58405486D01*
X58823981Y-58465962D01*
X58340172Y-58465962D01*
X60335886Y-58949771D02*
X60275410Y-59010248D01*
X60093981Y-59070724D01*
X59973029Y-59070724D01*
X59791601Y-59010248D01*
X59670648Y-58889295D01*
X59610172Y-58768343D01*
X59549696Y-58526438D01*
X59549696Y-58345010D01*
X59610172Y-58103105D01*
X59670648Y-57982152D01*
X59791601Y-57861200D01*
X59973029Y-57800724D01*
X60093981Y-57800724D01*
X60275410Y-57861200D01*
X60335886Y-57921676D01*
X60880172Y-57800724D02*
X60880172Y-58828819D01*
X60940648Y-58949771D01*
X61001124Y-59010248D01*
X61122077Y-59070724D01*
X61363981Y-59070724D01*
X61484934Y-59010248D01*
X61545410Y-58949771D01*
X61605886Y-58828819D01*
X61605886Y-57800724D01*
X62210648Y-59070724D02*
X62210648Y-57800724D01*
X62633981Y-57800724D02*
X63359696Y-57800724D01*
X62996839Y-59070724D02*
X62996839Y-57800724D01*
X63722553Y-59010248D02*
X63903981Y-59070724D01*
X64206362Y-59070724D01*
X64327315Y-59010248D01*
X64387791Y-58949771D01*
X64448267Y-58828819D01*
X64448267Y-58707867D01*
X64387791Y-58586914D01*
X64327315Y-58526438D01*
X64206362Y-58465962D01*
X63964458Y-58405486D01*
X63843505Y-58345010D01*
X63783029Y-58284533D01*
X63722553Y-58163581D01*
X63722553Y-58042629D01*
X63783029Y-57921676D01*
X63843505Y-57861200D01*
X63964458Y-57800724D01*
X64266838Y-57800724D01*
X64448267Y-57861200D01*
X56014862Y-56409771D02*
X55954386Y-56470248D01*
X55772957Y-56530724D01*
X55652005Y-56530724D01*
X55470577Y-56470248D01*
X55349624Y-56349295D01*
X55289148Y-56228343D01*
X55228672Y-55986438D01*
X55228672Y-55805010D01*
X55289148Y-55563105D01*
X55349624Y-55442152D01*
X55470577Y-55321200D01*
X55652005Y-55260724D01*
X55772957Y-55260724D01*
X55954386Y-55321200D01*
X56014862Y-55381676D01*
X57284862Y-56530724D02*
X56861529Y-55925962D01*
X56559148Y-56530724D02*
X56559148Y-55260724D01*
X57042957Y-55260724D01*
X57163910Y-55321200D01*
X57224386Y-55381676D01*
X57284862Y-55502629D01*
X57284862Y-55684057D01*
X57224386Y-55805010D01*
X57163910Y-55865486D01*
X57042957Y-55925962D01*
X56559148Y-55925962D01*
X57768672Y-56167867D02*
X58373434Y-56167867D01*
X57647719Y-56530724D02*
X58071053Y-55260724D01*
X58494386Y-56530724D01*
X58796767Y-55260724D02*
X59643433Y-55260724D01*
X58796767Y-56530724D01*
X59643433Y-56530724D01*
X60369148Y-55925962D02*
X60369148Y-56530724D01*
X59945814Y-55260724D02*
X60369148Y-55925962D01*
X60792481Y-55260724D01*
D12*
X66586100Y-56019700D02*
X65443100Y-56972200D01*
X65252600Y-56972200D02*
X66586100Y-56019700D01*
X66205100Y-56146700D02*
X65252600Y-56972200D01*
X65125600Y-56908700D02*
X66205100Y-56146700D01*
X66014600Y-56210200D02*
X65125600Y-56908700D01*
X64871600Y-56972200D02*
X66014600Y-56210200D01*
X65697100Y-56337200D02*
X64871600Y-56972200D01*
X64744600Y-56908700D02*
X65697100Y-56337200D01*
X65506600Y-56337200D02*
X64744600Y-56908700D01*
X64744600Y-56781700D02*
X65506600Y-56337200D01*
X65252600Y-56337200D02*
X64744600Y-56781700D01*
X64681100Y-56654700D02*
X65252600Y-56337200D01*
X65252600Y-56146700D02*
X64681100Y-56654700D01*
X65252600Y-56019700D02*
X64617600Y-56527700D01*
X65379600Y-55829200D02*
X64554100Y-56400700D01*
X65379600Y-55702200D02*
X64554100Y-56273700D01*
D13*
X63538100Y-56908700D02*
X62903100Y-56019700D01*
D12*
X65443100Y-57035700D02*
X63474600Y-57035700D01*
X67030600Y-55892700D02*
X65443100Y-57035700D01*
X65252600Y-56337200D02*
X67030600Y-55892700D01*
X65570100Y-55448200D02*
X65252600Y-56337200D01*
X64490600Y-56146700D02*
X65570100Y-55448200D01*
X63665100Y-54686200D02*
X64490600Y-56210200D01*
X63728600Y-56083200D02*
X63665100Y-54686200D01*
X62649100Y-55829200D02*
X63728600Y-56083200D01*
X63474600Y-57035700D02*
X62649100Y-55829200D01*
D13*
X63728600Y-56908700D02*
X63093600Y-56019700D01*
X63919100Y-56908700D02*
X63347600Y-56083200D01*
X64046100Y-56908700D02*
X63601600Y-56146700D01*
X64300100Y-56908700D02*
X63855600Y-56083200D01*
X64490600Y-56908700D02*
X63919100Y-55829200D01*
X64681100Y-56908700D02*
X63792100Y-55194200D01*
X63855600Y-55892700D02*
X63792100Y-55067200D01*
D10*
G36*
X42349000Y-60137400D02*
X33196600Y-60137400D01*
X33196600Y-46185000D01*
X42349000Y-46185000D01*
X42349000Y-60137400D01*
X42349000Y-60137400D01*
G37*
G36*
X49345000Y-56271400D02*
X46592600Y-56271400D01*
X46592600Y-50559000D01*
X49345000Y-50559000D01*
X49345000Y-56271400D01*
X49345000Y-56271400D01*
G37*
G36*
X28945000Y-56271400D02*
X26192600Y-56271400D01*
X26192600Y-50559000D01*
X28945000Y-50559000D01*
X28945000Y-56271400D01*
X28945000Y-56271400D01*
G37*
G36*
X60931800Y-40836900D02*
X58779400Y-40836900D01*
X58779400Y-38784500D01*
X60931800Y-38784500D01*
X60931800Y-40836900D01*
X60931800Y-40836900D01*
G37*
G36*
X59963390Y-36245181D02*
X60160521Y-36285647D01*
X60346051Y-36363637D01*
X60512892Y-36476173D01*
X60654698Y-36618972D01*
X60766066Y-36786595D01*
X60842756Y-36972658D01*
X60881776Y-37169727D01*
X60881776Y-37169732D01*
X60881844Y-37170076D01*
X60878634Y-37399939D01*
X60878557Y-37400277D01*
X60878557Y-37400286D01*
X60834049Y-37596190D01*
X60752196Y-37780035D01*
X60636188Y-37944486D01*
X60490450Y-38083271D01*
X60320531Y-38191105D01*
X60132899Y-38263882D01*
X59934712Y-38298828D01*
X59733505Y-38294613D01*
X59536951Y-38251399D01*
X59352533Y-38170828D01*
X59187282Y-38055975D01*
X59047482Y-37911209D01*
X58938464Y-37742045D01*
X58864377Y-37554924D01*
X58828049Y-37356988D01*
X58830858Y-37155758D01*
X58872702Y-36958905D01*
X58951980Y-36773932D01*
X59065680Y-36607878D01*
X59209465Y-36467073D01*
X59377865Y-36356876D01*
X59564460Y-36281486D01*
X59762140Y-36243777D01*
X59963390Y-36245181D01*
X59963390Y-36245181D01*
G37*
G36*
X34855487Y-36378216D02*
X35033408Y-36414738D01*
X35200859Y-36485128D01*
X35351442Y-36586698D01*
X35479430Y-36715582D01*
X35579944Y-36866870D01*
X35649163Y-37034806D01*
X35684373Y-37212628D01*
X35684373Y-37212643D01*
X35684440Y-37212982D01*
X35681543Y-37420446D01*
X35681467Y-37420780D01*
X35681467Y-37420793D01*
X35641303Y-37597573D01*
X35567427Y-37763503D01*
X35462724Y-37911928D01*
X35331186Y-38037189D01*
X35177824Y-38134517D01*
X35008480Y-38200201D01*
X34829604Y-38231742D01*
X34648005Y-38227937D01*
X34470603Y-38188933D01*
X34304156Y-38116214D01*
X34155008Y-38012554D01*
X34028832Y-37881895D01*
X33930437Y-37729214D01*
X33863569Y-37560328D01*
X33830782Y-37381681D01*
X33833317Y-37200060D01*
X33871083Y-37022389D01*
X33942636Y-36855441D01*
X34045256Y-36705569D01*
X34175030Y-36578485D01*
X34327020Y-36479026D01*
X34495432Y-36410983D01*
X34673849Y-36376948D01*
X34855487Y-36378216D01*
X34855487Y-36378216D01*
G37*
G36*
X40855487Y-36378216D02*
X41033408Y-36414738D01*
X41200859Y-36485128D01*
X41351442Y-36586698D01*
X41479430Y-36715582D01*
X41579944Y-36866870D01*
X41649163Y-37034806D01*
X41684373Y-37212628D01*
X41684373Y-37212643D01*
X41684440Y-37212982D01*
X41681543Y-37420446D01*
X41681467Y-37420780D01*
X41681467Y-37420793D01*
X41641303Y-37597573D01*
X41567427Y-37763503D01*
X41462724Y-37911928D01*
X41331186Y-38037189D01*
X41177824Y-38134517D01*
X41008480Y-38200201D01*
X40829604Y-38231742D01*
X40648005Y-38227937D01*
X40470603Y-38188933D01*
X40304156Y-38116214D01*
X40155008Y-38012554D01*
X40028832Y-37881895D01*
X39930437Y-37729214D01*
X39863569Y-37560328D01*
X39830782Y-37381681D01*
X39833317Y-37200060D01*
X39871083Y-37022389D01*
X39942636Y-36855441D01*
X40045256Y-36705569D01*
X40175030Y-36578485D01*
X40327020Y-36479026D01*
X40495432Y-36410983D01*
X40673849Y-36376948D01*
X40855487Y-36378216D01*
X40855487Y-36378216D01*
G37*
G36*
X34855487Y-32378216D02*
X35033408Y-32414738D01*
X35200859Y-32485128D01*
X35351442Y-32586698D01*
X35479430Y-32715582D01*
X35579944Y-32866870D01*
X35649163Y-33034806D01*
X35684373Y-33212628D01*
X35684373Y-33212643D01*
X35684440Y-33212982D01*
X35681543Y-33420446D01*
X35681467Y-33420780D01*
X35681467Y-33420793D01*
X35641303Y-33597573D01*
X35567427Y-33763503D01*
X35462724Y-33911928D01*
X35331186Y-34037189D01*
X35177824Y-34134517D01*
X35008480Y-34200201D01*
X34829604Y-34231742D01*
X34648005Y-34227937D01*
X34470603Y-34188933D01*
X34304156Y-34116214D01*
X34155008Y-34012554D01*
X34028832Y-33881895D01*
X33930437Y-33729214D01*
X33863569Y-33560328D01*
X33830782Y-33381681D01*
X33833317Y-33200060D01*
X33871083Y-33022389D01*
X33942636Y-32855441D01*
X34045256Y-32705569D01*
X34175030Y-32578485D01*
X34327020Y-32479026D01*
X34495432Y-32410983D01*
X34673849Y-32376948D01*
X34855487Y-32378216D01*
X34855487Y-32378216D01*
G37*
G36*
X40855487Y-32378216D02*
X41033408Y-32414738D01*
X41200859Y-32485128D01*
X41351442Y-32586698D01*
X41479430Y-32715582D01*
X41579944Y-32866870D01*
X41649163Y-33034806D01*
X41684373Y-33212628D01*
X41684373Y-33212643D01*
X41684440Y-33212982D01*
X41681543Y-33420446D01*
X41681467Y-33420780D01*
X41681467Y-33420793D01*
X41641303Y-33597573D01*
X41567427Y-33763503D01*
X41462724Y-33911928D01*
X41331186Y-34037189D01*
X41177824Y-34134517D01*
X41008480Y-34200201D01*
X40829604Y-34231742D01*
X40648005Y-34227937D01*
X40470603Y-34188933D01*
X40304156Y-34116214D01*
X40155008Y-34012554D01*
X40028832Y-33881895D01*
X39930437Y-33729214D01*
X39863569Y-33560328D01*
X39830782Y-33381681D01*
X39833317Y-33200060D01*
X39871083Y-33022389D01*
X39942636Y-32855441D01*
X40045256Y-32705569D01*
X40175030Y-32578485D01*
X40327020Y-32479026D01*
X40495432Y-32410983D01*
X40673849Y-32376948D01*
X40855487Y-32378216D01*
X40855487Y-32378216D01*
G37*
M02*
