%TF.GenerationSoftware,KiCad,Pcbnew,4.0.4+e1-6308~48~ubuntu16.04.1-stable*%
%TF.CreationDate,2016-12-29T12:32:38-08:00*%
%TF.ProjectId,10mmLED-Button-Battery,31306D6D4C45442D427574746F6E2D42,rev?*%
%TF.FileFunction,Other,Fab,Top*%
%FSLAX46Y46*%
G04 Gerber Fmt 4.6, Leading zero omitted, Abs format (unit mm)*
G04 Created by KiCad (PCBNEW 4.0.4+e1-6308~48~ubuntu16.04.1-stable) date Thu Dec 29 12:32:38 2016*
%MOMM*%
%LPD*%
G01*
G04 APERTURE LIST*
%ADD10C,0.350000*%
%ADD11C,0.152400*%
%ADD12C,0.040640*%
%ADD13C,0.050000*%
%ADD14C,0.150000*%
G04 APERTURE END LIST*
D10*
D11*
X172899010Y-122049419D02*
X172560344Y-121565610D01*
X172318439Y-122049419D02*
X172318439Y-121033419D01*
X172705486Y-121033419D01*
X172802248Y-121081800D01*
X172850629Y-121130181D01*
X172899010Y-121226943D01*
X172899010Y-121372086D01*
X172850629Y-121468848D01*
X172802248Y-121517229D01*
X172705486Y-121565610D01*
X172318439Y-121565610D01*
X173721486Y-122001038D02*
X173624724Y-122049419D01*
X173431201Y-122049419D01*
X173334439Y-122001038D01*
X173286058Y-121904276D01*
X173286058Y-121517229D01*
X173334439Y-121420467D01*
X173431201Y-121372086D01*
X173624724Y-121372086D01*
X173721486Y-121420467D01*
X173769867Y-121517229D01*
X173769867Y-121613990D01*
X173286058Y-121710752D01*
X174108534Y-121372086D02*
X174302058Y-122049419D01*
X174495581Y-121565610D01*
X174689105Y-122049419D01*
X174882629Y-121372086D01*
X175269677Y-122049419D02*
X175269677Y-121372086D01*
X175269677Y-121033419D02*
X175221296Y-121081800D01*
X175269677Y-121130181D01*
X175318058Y-121081800D01*
X175269677Y-121033419D01*
X175269677Y-121130181D01*
X175753487Y-122049419D02*
X175753487Y-121372086D01*
X175753487Y-121565610D02*
X175801868Y-121468848D01*
X175850249Y-121420467D01*
X175947011Y-121372086D01*
X176043772Y-121372086D01*
X176769486Y-122001038D02*
X176672724Y-122049419D01*
X176479201Y-122049419D01*
X176382439Y-122001038D01*
X176334058Y-121904276D01*
X176334058Y-121517229D01*
X176382439Y-121420467D01*
X176479201Y-121372086D01*
X176672724Y-121372086D01*
X176769486Y-121420467D01*
X176817867Y-121517229D01*
X176817867Y-121613990D01*
X176334058Y-121710752D01*
X178607962Y-121952657D02*
X178559581Y-122001038D01*
X178414438Y-122049419D01*
X178317676Y-122049419D01*
X178172534Y-122001038D01*
X178075772Y-121904276D01*
X178027391Y-121807514D01*
X177979010Y-121613990D01*
X177979010Y-121468848D01*
X178027391Y-121275324D01*
X178075772Y-121178562D01*
X178172534Y-121081800D01*
X178317676Y-121033419D01*
X178414438Y-121033419D01*
X178559581Y-121081800D01*
X178607962Y-121130181D01*
X179043391Y-122049419D02*
X179043391Y-121372086D01*
X179043391Y-121033419D02*
X178995010Y-121081800D01*
X179043391Y-121130181D01*
X179091772Y-121081800D01*
X179043391Y-121033419D01*
X179043391Y-121130181D01*
X179527201Y-122049419D02*
X179527201Y-121372086D01*
X179527201Y-121565610D02*
X179575582Y-121468848D01*
X179623963Y-121420467D01*
X179720725Y-121372086D01*
X179817486Y-121372086D01*
X180591581Y-122001038D02*
X180494819Y-122049419D01*
X180301296Y-122049419D01*
X180204534Y-122001038D01*
X180156153Y-121952657D01*
X180107772Y-121855895D01*
X180107772Y-121565610D01*
X180156153Y-121468848D01*
X180204534Y-121420467D01*
X180301296Y-121372086D01*
X180494819Y-121372086D01*
X180591581Y-121420467D01*
X181462438Y-121372086D02*
X181462438Y-122049419D01*
X181027010Y-121372086D02*
X181027010Y-121904276D01*
X181075391Y-122001038D01*
X181172153Y-122049419D01*
X181317295Y-122049419D01*
X181414057Y-122001038D01*
X181462438Y-121952657D01*
X181946248Y-122049419D02*
X181946248Y-121372086D01*
X181946248Y-121033419D02*
X181897867Y-121081800D01*
X181946248Y-121130181D01*
X181994629Y-121081800D01*
X181946248Y-121033419D01*
X181946248Y-121130181D01*
X182284915Y-121372086D02*
X182671963Y-121372086D01*
X182430058Y-121033419D02*
X182430058Y-121904276D01*
X182478439Y-122001038D01*
X182575201Y-122049419D01*
X182671963Y-122049419D01*
X183784724Y-122049419D02*
X183784724Y-121033419D01*
X184365295Y-122049419D02*
X183929867Y-121468848D01*
X184365295Y-121033419D02*
X183784724Y-121613990D01*
X184800724Y-122049419D02*
X184800724Y-121372086D01*
X184800724Y-121033419D02*
X184752343Y-121081800D01*
X184800724Y-121130181D01*
X184849105Y-121081800D01*
X184800724Y-121033419D01*
X184800724Y-121130181D01*
X185139391Y-121372086D02*
X185526439Y-121372086D01*
X185284534Y-121033419D02*
X185284534Y-121904276D01*
X185332915Y-122001038D01*
X185429677Y-122049419D01*
X185526439Y-122049419D01*
X178462819Y-123725819D02*
X177882248Y-123725819D01*
X178172534Y-123725819D02*
X178172534Y-122709819D01*
X178075772Y-122854962D01*
X177979010Y-122951724D01*
X177882248Y-123000105D01*
X178849867Y-122806581D02*
X178898248Y-122758200D01*
X178995010Y-122709819D01*
X179236914Y-122709819D01*
X179333676Y-122758200D01*
X179382057Y-122806581D01*
X179430438Y-122903343D01*
X179430438Y-123000105D01*
X179382057Y-123145248D01*
X178801486Y-123725819D01*
X179430438Y-123725819D01*
X180591581Y-122661438D02*
X179720724Y-123967724D01*
X180881867Y-122806581D02*
X180930248Y-122758200D01*
X181027010Y-122709819D01*
X181268914Y-122709819D01*
X181365676Y-122758200D01*
X181414057Y-122806581D01*
X181462438Y-122903343D01*
X181462438Y-123000105D01*
X181414057Y-123145248D01*
X180833486Y-123725819D01*
X181462438Y-123725819D01*
X181801105Y-122709819D02*
X182478438Y-122709819D01*
X182043010Y-123725819D01*
X183591200Y-122661438D02*
X182720343Y-123967724D01*
X184462057Y-123725819D02*
X183881486Y-123725819D01*
X184171772Y-123725819D02*
X184171772Y-122709819D01*
X184075010Y-122854962D01*
X183978248Y-122951724D01*
X183881486Y-123000105D01*
X185332914Y-122709819D02*
X185139391Y-122709819D01*
X185042629Y-122758200D01*
X184994248Y-122806581D01*
X184897486Y-122951724D01*
X184849105Y-123145248D01*
X184849105Y-123532295D01*
X184897486Y-123629057D01*
X184945867Y-123677438D01*
X185042629Y-123725819D01*
X185236152Y-123725819D01*
X185332914Y-123677438D01*
X185381295Y-123629057D01*
X185429676Y-123532295D01*
X185429676Y-123290390D01*
X185381295Y-123193629D01*
X185332914Y-123145248D01*
X185236152Y-123096867D01*
X185042629Y-123096867D01*
X184945867Y-123145248D01*
X184897486Y-123193629D01*
X184849105Y-123290390D01*
X169367202Y-81017533D02*
X169851011Y-81017533D01*
X169270440Y-81307819D02*
X169609107Y-80291819D01*
X169947773Y-81307819D01*
X170238059Y-81259438D02*
X170334821Y-81307819D01*
X170528345Y-81307819D01*
X170625106Y-81259438D01*
X170673487Y-81162676D01*
X170673487Y-81114295D01*
X170625106Y-81017533D01*
X170528345Y-80969152D01*
X170383202Y-80969152D01*
X170286440Y-80920771D01*
X170238059Y-80824010D01*
X170238059Y-80775629D01*
X170286440Y-80678867D01*
X170383202Y-80630486D01*
X170528345Y-80630486D01*
X170625106Y-80678867D01*
X171060535Y-81259438D02*
X171157297Y-81307819D01*
X171350821Y-81307819D01*
X171447582Y-81259438D01*
X171495963Y-81162676D01*
X171495963Y-81114295D01*
X171447582Y-81017533D01*
X171350821Y-80969152D01*
X171205678Y-80969152D01*
X171108916Y-80920771D01*
X171060535Y-80824010D01*
X171060535Y-80775629D01*
X171108916Y-80678867D01*
X171205678Y-80630486D01*
X171350821Y-80630486D01*
X171447582Y-80678867D01*
X172318439Y-81259438D02*
X172221677Y-81307819D01*
X172028154Y-81307819D01*
X171931392Y-81259438D01*
X171883011Y-81162676D01*
X171883011Y-80775629D01*
X171931392Y-80678867D01*
X172028154Y-80630486D01*
X172221677Y-80630486D01*
X172318439Y-80678867D01*
X172366820Y-80775629D01*
X172366820Y-80872390D01*
X171883011Y-80969152D01*
X172802249Y-81307819D02*
X172802249Y-80630486D01*
X172802249Y-80727248D02*
X172850630Y-80678867D01*
X172947392Y-80630486D01*
X173092534Y-80630486D01*
X173189296Y-80678867D01*
X173237677Y-80775629D01*
X173237677Y-81307819D01*
X173237677Y-80775629D02*
X173286058Y-80678867D01*
X173382820Y-80630486D01*
X173527963Y-80630486D01*
X173624725Y-80678867D01*
X173673106Y-80775629D01*
X173673106Y-81307819D01*
X174156916Y-81307819D02*
X174156916Y-80291819D01*
X174156916Y-80678867D02*
X174253678Y-80630486D01*
X174447201Y-80630486D01*
X174543963Y-80678867D01*
X174592344Y-80727248D01*
X174640725Y-80824010D01*
X174640725Y-81114295D01*
X174592344Y-81211057D01*
X174543963Y-81259438D01*
X174447201Y-81307819D01*
X174253678Y-81307819D01*
X174156916Y-81259438D01*
X175221297Y-81307819D02*
X175124535Y-81259438D01*
X175076154Y-81162676D01*
X175076154Y-80291819D01*
X175511582Y-80630486D02*
X175753487Y-81307819D01*
X175995391Y-80630486D02*
X175753487Y-81307819D01*
X175656725Y-81549724D01*
X175608344Y-81598105D01*
X175511582Y-81646486D01*
X177156534Y-81307819D02*
X177156534Y-80291819D01*
X177640344Y-80630486D02*
X177640344Y-81307819D01*
X177640344Y-80727248D02*
X177688725Y-80678867D01*
X177785487Y-80630486D01*
X177930629Y-80630486D01*
X178027391Y-80678867D01*
X178075772Y-80775629D01*
X178075772Y-81307819D01*
X178414439Y-80630486D02*
X178801487Y-80630486D01*
X178559582Y-81307819D02*
X178559582Y-80436962D01*
X178607963Y-80340200D01*
X178704725Y-80291819D01*
X178801487Y-80291819D01*
X179285296Y-81307819D02*
X179188534Y-81259438D01*
X179140153Y-81211057D01*
X179091772Y-81114295D01*
X179091772Y-80824010D01*
X179140153Y-80727248D01*
X179188534Y-80678867D01*
X179285296Y-80630486D01*
X179430438Y-80630486D01*
X179527200Y-80678867D01*
X179575581Y-80727248D01*
X179623962Y-80824010D01*
X179623962Y-81114295D01*
X179575581Y-81211057D01*
X179527200Y-81259438D01*
X179430438Y-81307819D01*
X179285296Y-81307819D01*
X180059391Y-81307819D02*
X180059391Y-80630486D01*
X180059391Y-80824010D02*
X180107772Y-80727248D01*
X180156153Y-80678867D01*
X180252915Y-80630486D01*
X180349676Y-80630486D01*
X180688343Y-81307819D02*
X180688343Y-80630486D01*
X180688343Y-80727248D02*
X180736724Y-80678867D01*
X180833486Y-80630486D01*
X180978628Y-80630486D01*
X181075390Y-80678867D01*
X181123771Y-80775629D01*
X181123771Y-81307819D01*
X181123771Y-80775629D02*
X181172152Y-80678867D01*
X181268914Y-80630486D01*
X181414057Y-80630486D01*
X181510819Y-80678867D01*
X181559200Y-80775629D01*
X181559200Y-81307819D01*
X182478438Y-81307819D02*
X182478438Y-80775629D01*
X182430057Y-80678867D01*
X182333295Y-80630486D01*
X182139772Y-80630486D01*
X182043010Y-80678867D01*
X182478438Y-81259438D02*
X182381676Y-81307819D01*
X182139772Y-81307819D01*
X182043010Y-81259438D01*
X181994629Y-81162676D01*
X181994629Y-81065914D01*
X182043010Y-80969152D01*
X182139772Y-80920771D01*
X182381676Y-80920771D01*
X182478438Y-80872390D01*
X182817105Y-80630486D02*
X183204153Y-80630486D01*
X182962248Y-80291819D02*
X182962248Y-81162676D01*
X183010629Y-81259438D01*
X183107391Y-81307819D01*
X183204153Y-81307819D01*
X183542819Y-81307819D02*
X183542819Y-80630486D01*
X183542819Y-80291819D02*
X183494438Y-80340200D01*
X183542819Y-80388581D01*
X183591200Y-80340200D01*
X183542819Y-80291819D01*
X183542819Y-80388581D01*
X184171772Y-81307819D02*
X184075010Y-81259438D01*
X184026629Y-81211057D01*
X183978248Y-81114295D01*
X183978248Y-80824010D01*
X184026629Y-80727248D01*
X184075010Y-80678867D01*
X184171772Y-80630486D01*
X184316914Y-80630486D01*
X184413676Y-80678867D01*
X184462057Y-80727248D01*
X184510438Y-80824010D01*
X184510438Y-81114295D01*
X184462057Y-81211057D01*
X184413676Y-81259438D01*
X184316914Y-81307819D01*
X184171772Y-81307819D01*
X184945867Y-80630486D02*
X184945867Y-81307819D01*
X184945867Y-80727248D02*
X184994248Y-80678867D01*
X185091010Y-80630486D01*
X185236152Y-80630486D01*
X185332914Y-80678867D01*
X185381295Y-80775629D01*
X185381295Y-81307819D01*
X162206821Y-82984219D02*
X161626250Y-82984219D01*
X161916536Y-82984219D02*
X161916536Y-81968219D01*
X161819774Y-82113362D01*
X161723012Y-82210124D01*
X161626250Y-82258505D01*
X162835774Y-81968219D02*
X162932535Y-81968219D01*
X163029297Y-82016600D01*
X163077678Y-82064981D01*
X163126059Y-82161743D01*
X163174440Y-82355267D01*
X163174440Y-82597171D01*
X163126059Y-82790695D01*
X163077678Y-82887457D01*
X163029297Y-82935838D01*
X162932535Y-82984219D01*
X162835774Y-82984219D01*
X162739012Y-82935838D01*
X162690631Y-82887457D01*
X162642250Y-82790695D01*
X162593869Y-82597171D01*
X162593869Y-82355267D01*
X162642250Y-82161743D01*
X162690631Y-82064981D01*
X162739012Y-82016600D01*
X162835774Y-81968219D01*
X163609869Y-82984219D02*
X163609869Y-82306886D01*
X163609869Y-82403648D02*
X163658250Y-82355267D01*
X163755012Y-82306886D01*
X163900154Y-82306886D01*
X163996916Y-82355267D01*
X164045297Y-82452029D01*
X164045297Y-82984219D01*
X164045297Y-82452029D02*
X164093678Y-82355267D01*
X164190440Y-82306886D01*
X164335583Y-82306886D01*
X164432345Y-82355267D01*
X164480726Y-82452029D01*
X164480726Y-82984219D01*
X164964536Y-82984219D02*
X164964536Y-82306886D01*
X164964536Y-82403648D02*
X165012917Y-82355267D01*
X165109679Y-82306886D01*
X165254821Y-82306886D01*
X165351583Y-82355267D01*
X165399964Y-82452029D01*
X165399964Y-82984219D01*
X165399964Y-82452029D02*
X165448345Y-82355267D01*
X165545107Y-82306886D01*
X165690250Y-82306886D01*
X165787012Y-82355267D01*
X165835393Y-82452029D01*
X165835393Y-82984219D01*
X166803012Y-82984219D02*
X166319203Y-82984219D01*
X166319203Y-81968219D01*
X167141679Y-82452029D02*
X167480345Y-82452029D01*
X167625488Y-82984219D02*
X167141679Y-82984219D01*
X167141679Y-81968219D01*
X167625488Y-81968219D01*
X168060917Y-82984219D02*
X168060917Y-81968219D01*
X168302822Y-81968219D01*
X168447964Y-82016600D01*
X168544726Y-82113362D01*
X168593107Y-82210124D01*
X168641488Y-82403648D01*
X168641488Y-82548790D01*
X168593107Y-82742314D01*
X168544726Y-82839076D01*
X168447964Y-82935838D01*
X168302822Y-82984219D01*
X168060917Y-82984219D01*
X169076917Y-82597171D02*
X169851012Y-82597171D01*
X170673488Y-82452029D02*
X170818631Y-82500410D01*
X170867012Y-82548790D01*
X170915393Y-82645552D01*
X170915393Y-82790695D01*
X170867012Y-82887457D01*
X170818631Y-82935838D01*
X170721869Y-82984219D01*
X170334822Y-82984219D01*
X170334822Y-81968219D01*
X170673488Y-81968219D01*
X170770250Y-82016600D01*
X170818631Y-82064981D01*
X170867012Y-82161743D01*
X170867012Y-82258505D01*
X170818631Y-82355267D01*
X170770250Y-82403648D01*
X170673488Y-82452029D01*
X170334822Y-82452029D01*
X171786250Y-82306886D02*
X171786250Y-82984219D01*
X171350822Y-82306886D02*
X171350822Y-82839076D01*
X171399203Y-82935838D01*
X171495965Y-82984219D01*
X171641107Y-82984219D01*
X171737869Y-82935838D01*
X171786250Y-82887457D01*
X172124917Y-82306886D02*
X172511965Y-82306886D01*
X172270060Y-81968219D02*
X172270060Y-82839076D01*
X172318441Y-82935838D01*
X172415203Y-82984219D01*
X172511965Y-82984219D01*
X172705488Y-82306886D02*
X173092536Y-82306886D01*
X172850631Y-81968219D02*
X172850631Y-82839076D01*
X172899012Y-82935838D01*
X172995774Y-82984219D01*
X173092536Y-82984219D01*
X173576345Y-82984219D02*
X173479583Y-82935838D01*
X173431202Y-82887457D01*
X173382821Y-82790695D01*
X173382821Y-82500410D01*
X173431202Y-82403648D01*
X173479583Y-82355267D01*
X173576345Y-82306886D01*
X173721487Y-82306886D01*
X173818249Y-82355267D01*
X173866630Y-82403648D01*
X173915011Y-82500410D01*
X173915011Y-82790695D01*
X173866630Y-82887457D01*
X173818249Y-82935838D01*
X173721487Y-82984219D01*
X173576345Y-82984219D01*
X174350440Y-82306886D02*
X174350440Y-82984219D01*
X174350440Y-82403648D02*
X174398821Y-82355267D01*
X174495583Y-82306886D01*
X174640725Y-82306886D01*
X174737487Y-82355267D01*
X174785868Y-82452029D01*
X174785868Y-82984219D01*
X175269678Y-82597171D02*
X176043773Y-82597171D01*
X176866249Y-82452029D02*
X177011392Y-82500410D01*
X177059773Y-82548790D01*
X177108154Y-82645552D01*
X177108154Y-82790695D01*
X177059773Y-82887457D01*
X177011392Y-82935838D01*
X176914630Y-82984219D01*
X176527583Y-82984219D01*
X176527583Y-81968219D01*
X176866249Y-81968219D01*
X176963011Y-82016600D01*
X177011392Y-82064981D01*
X177059773Y-82161743D01*
X177059773Y-82258505D01*
X177011392Y-82355267D01*
X176963011Y-82403648D01*
X176866249Y-82452029D01*
X176527583Y-82452029D01*
X177979011Y-82984219D02*
X177979011Y-82452029D01*
X177930630Y-82355267D01*
X177833868Y-82306886D01*
X177640345Y-82306886D01*
X177543583Y-82355267D01*
X177979011Y-82935838D02*
X177882249Y-82984219D01*
X177640345Y-82984219D01*
X177543583Y-82935838D01*
X177495202Y-82839076D01*
X177495202Y-82742314D01*
X177543583Y-82645552D01*
X177640345Y-82597171D01*
X177882249Y-82597171D01*
X177979011Y-82548790D01*
X178317678Y-82306886D02*
X178704726Y-82306886D01*
X178462821Y-81968219D02*
X178462821Y-82839076D01*
X178511202Y-82935838D01*
X178607964Y-82984219D01*
X178704726Y-82984219D01*
X178898249Y-82306886D02*
X179285297Y-82306886D01*
X179043392Y-81968219D02*
X179043392Y-82839076D01*
X179091773Y-82935838D01*
X179188535Y-82984219D01*
X179285297Y-82984219D01*
X180011010Y-82935838D02*
X179914248Y-82984219D01*
X179720725Y-82984219D01*
X179623963Y-82935838D01*
X179575582Y-82839076D01*
X179575582Y-82452029D01*
X179623963Y-82355267D01*
X179720725Y-82306886D01*
X179914248Y-82306886D01*
X180011010Y-82355267D01*
X180059391Y-82452029D01*
X180059391Y-82548790D01*
X179575582Y-82645552D01*
X180494820Y-82984219D02*
X180494820Y-82306886D01*
X180494820Y-82500410D02*
X180543201Y-82403648D01*
X180591582Y-82355267D01*
X180688344Y-82306886D01*
X180785105Y-82306886D01*
X181027010Y-82306886D02*
X181268915Y-82984219D01*
X181510819Y-82306886D02*
X181268915Y-82984219D01*
X181172153Y-83226124D01*
X181123772Y-83274505D01*
X181027010Y-83322886D01*
X182575200Y-82306886D02*
X182817105Y-82984219D01*
X183059009Y-82306886D01*
X183978247Y-82984219D02*
X183397676Y-82984219D01*
X183687962Y-82984219D02*
X183687962Y-81968219D01*
X183591200Y-82113362D01*
X183494438Y-82210124D01*
X183397676Y-82258505D01*
X184413676Y-82887457D02*
X184462057Y-82935838D01*
X184413676Y-82984219D01*
X184365295Y-82935838D01*
X184413676Y-82887457D01*
X184413676Y-82984219D01*
X184800724Y-81968219D02*
X185429676Y-81968219D01*
X185091010Y-82355267D01*
X185236152Y-82355267D01*
X185332914Y-82403648D01*
X185381295Y-82452029D01*
X185429676Y-82548790D01*
X185429676Y-82790695D01*
X185381295Y-82887457D01*
X185332914Y-82935838D01*
X185236152Y-82984219D01*
X184945867Y-82984219D01*
X184849105Y-82935838D01*
X184800724Y-82887457D01*
D12*
X148590000Y-95758000D02*
X148590000Y-93218000D01*
X150114000Y-95758000D02*
X150114000Y-93218000D01*
X163576000Y-95758000D02*
X163576000Y-93218000D01*
X165100000Y-95758000D02*
X165100000Y-93218000D01*
X169037000Y-113030000D02*
X171577000Y-113030000D01*
X169037000Y-114554000D02*
X171577000Y-114554000D01*
X179832000Y-100838000D02*
X179832000Y-103378000D01*
X178308000Y-100838000D02*
X178308000Y-103378000D01*
X171577000Y-90170000D02*
X169037000Y-90170000D01*
X171577000Y-88646000D02*
X169037000Y-88646000D01*
D13*
X165297201Y-93242401D02*
X149297201Y-93242401D01*
X149297201Y-85642401D02*
X165297201Y-85642401D01*
X149297201Y-85642401D02*
G75*
G03X149297201Y-93242401I0J-3800000D01*
G01*
X165297201Y-93242401D02*
G75*
G03X165297201Y-85642401I0J3800000D01*
G01*
X165301200Y-95768000D02*
X149301200Y-95768000D01*
X169101200Y-115568000D02*
X169101200Y-99568000D01*
X145501200Y-115568000D02*
X145501200Y-99568000D01*
X165301200Y-119368000D02*
X149301200Y-119368000D01*
X165301200Y-119368000D02*
G75*
G03X169101200Y-115568000I0J3800000D01*
G01*
X169101200Y-99568000D02*
G75*
G03X165301200Y-95768000I-3800000J0D01*
G01*
X149301200Y-95768000D02*
G75*
G03X145501200Y-99568000I0J-3800000D01*
G01*
X145501200Y-115568000D02*
G75*
G03X149301200Y-119368000I3800000J0D01*
G01*
D12*
X183223500Y-85228000D02*
X175423500Y-85228000D01*
X183223500Y-100828000D02*
X175423500Y-100828000D01*
X187123500Y-96928000D02*
X187123500Y-89128000D01*
X171523500Y-96928000D02*
X171523500Y-89128000D01*
X187123500Y-89128000D02*
G75*
G03X183223500Y-85228000I-3900000J0D01*
G01*
X183223500Y-100828000D02*
G75*
G03X187123500Y-96928000I0J3900000D01*
G01*
X171523500Y-96928000D02*
G75*
G03X175423500Y-100828000I3900000J0D01*
G01*
X175423500Y-85228000D02*
G75*
G03X171523500Y-89128000I0J-3900000D01*
G01*
X183224000Y-103452000D02*
X175424000Y-103452000D01*
X183224000Y-119052000D02*
X175424000Y-119052000D01*
X187124000Y-115152000D02*
X187124000Y-107352000D01*
X171524000Y-115152000D02*
X171524000Y-107352000D01*
X187124000Y-107352000D02*
G75*
G03X183224000Y-103452000I-3900000J0D01*
G01*
X183224000Y-119052000D02*
G75*
G03X187124000Y-115152000I0J3900000D01*
G01*
X171524000Y-115152000D02*
G75*
G03X175424000Y-119052000I3900000J0D01*
G01*
X175424000Y-103452000D02*
G75*
G03X171524000Y-107352000I0J-3900000D01*
G01*
D14*
X156013868Y-89997163D02*
X156156725Y-90044782D01*
X156394821Y-90044782D01*
X156490059Y-89997163D01*
X156537678Y-89949544D01*
X156585297Y-89854306D01*
X156585297Y-89759068D01*
X156537678Y-89663830D01*
X156490059Y-89616211D01*
X156394821Y-89568591D01*
X156204344Y-89520972D01*
X156109106Y-89473353D01*
X156061487Y-89425734D01*
X156013868Y-89330496D01*
X156013868Y-89235258D01*
X156061487Y-89140020D01*
X156109106Y-89092401D01*
X156204344Y-89044782D01*
X156442440Y-89044782D01*
X156585297Y-89092401D01*
X156918630Y-89044782D02*
X157156725Y-90044782D01*
X157347202Y-89330496D01*
X157537678Y-90044782D01*
X157775773Y-89044782D01*
X158680535Y-90044782D02*
X158109106Y-90044782D01*
X158394820Y-90044782D02*
X158394820Y-89044782D01*
X158299582Y-89187639D01*
X158204344Y-89282877D01*
X158109106Y-89330496D01*
X156515486Y-107496571D02*
X156658343Y-107544190D01*
X156705962Y-107591810D01*
X156753581Y-107687048D01*
X156753581Y-107829905D01*
X156705962Y-107925143D01*
X156658343Y-107972762D01*
X156563105Y-108020381D01*
X156182152Y-108020381D01*
X156182152Y-107020381D01*
X156515486Y-107020381D01*
X156610724Y-107068000D01*
X156658343Y-107115619D01*
X156705962Y-107210857D01*
X156705962Y-107306095D01*
X156658343Y-107401333D01*
X156610724Y-107448952D01*
X156515486Y-107496571D01*
X156182152Y-107496571D01*
X157039295Y-107020381D02*
X157610724Y-107020381D01*
X157325009Y-108020381D02*
X157325009Y-107020381D01*
X158467867Y-108020381D02*
X157896438Y-108020381D01*
X158182152Y-108020381D02*
X158182152Y-107020381D01*
X158086914Y-107163238D01*
X157991676Y-107258476D01*
X157896438Y-107306095D01*
X178670643Y-93490381D02*
X178194452Y-93490381D01*
X178194452Y-92490381D01*
X179003976Y-92966571D02*
X179337310Y-92966571D01*
X179480167Y-93490381D02*
X179003976Y-93490381D01*
X179003976Y-92490381D01*
X179480167Y-92490381D01*
X179908738Y-93490381D02*
X179908738Y-92490381D01*
X180146833Y-92490381D01*
X180289691Y-92538000D01*
X180384929Y-92633238D01*
X180432548Y-92728476D01*
X180480167Y-92918952D01*
X180480167Y-93061810D01*
X180432548Y-93252286D01*
X180384929Y-93347524D01*
X180289691Y-93442762D01*
X180146833Y-93490381D01*
X179908738Y-93490381D01*
X178085905Y-111704381D02*
X177609714Y-111704381D01*
X177609714Y-110704381D01*
X178609714Y-110704381D02*
X178800191Y-110704381D01*
X178895429Y-110752000D01*
X178990667Y-110847238D01*
X179038286Y-111037714D01*
X179038286Y-111371048D01*
X178990667Y-111561524D01*
X178895429Y-111656762D01*
X178800191Y-111704381D01*
X178609714Y-111704381D01*
X178514476Y-111656762D01*
X178419238Y-111561524D01*
X178371619Y-111371048D01*
X178371619Y-111037714D01*
X178419238Y-110847238D01*
X178514476Y-110752000D01*
X178609714Y-110704381D01*
X179990667Y-110752000D02*
X179895429Y-110704381D01*
X179752572Y-110704381D01*
X179609714Y-110752000D01*
X179514476Y-110847238D01*
X179466857Y-110942476D01*
X179419238Y-111132952D01*
X179419238Y-111275810D01*
X179466857Y-111466286D01*
X179514476Y-111561524D01*
X179609714Y-111656762D01*
X179752572Y-111704381D01*
X179847810Y-111704381D01*
X179990667Y-111656762D01*
X180038286Y-111609143D01*
X180038286Y-111275810D01*
X179847810Y-111275810D01*
X180657333Y-110704381D02*
X180847810Y-110704381D01*
X180943048Y-110752000D01*
X181038286Y-110847238D01*
X181085905Y-111037714D01*
X181085905Y-111371048D01*
X181038286Y-111561524D01*
X180943048Y-111656762D01*
X180847810Y-111704381D01*
X180657333Y-111704381D01*
X180562095Y-111656762D01*
X180466857Y-111561524D01*
X180419238Y-111371048D01*
X180419238Y-111037714D01*
X180466857Y-110847238D01*
X180562095Y-110752000D01*
X180657333Y-110704381D01*
M02*
