M48
;DRILL file {KiCad 4.0.7-e2-6376~58~ubuntu16.04.1} date Sat Oct  7 16:10:48 2017
;FORMAT={-:-/ absolute / metric / decimal}
FMAT,2
METRIC,TZ
T1C0.500
T2C1.000
T3C1.001
T4C4.980
T5C4.980
%
G90
G05
M71
T1
X29.312Y-39.294
X29.312Y-41.326
X30.328Y-39.294
X30.328Y-41.326
X44.298Y-39.319
X44.298Y-41.351
X45.314Y-39.319
X45.314Y-41.351
X49.759Y-34.747
X49.759Y-35.763
X49.784Y-59.157
X49.784Y-60.173
X51.791Y-34.747
X51.791Y-35.763
X51.816Y-59.157
X51.816Y-60.173
X59.004Y-46.99
X59.004Y-49.022
X60.02Y-46.99
X60.02Y-49.022
T2
X34.758Y-33.304
X34.758Y-37.304
X40.758Y-33.304
X40.758Y-37.304
T3
X59.856Y-37.271
X59.856Y-39.811
T4
X29.765Y-35.29
X29.769Y-45.415
X29.769Y-61.415
X45.765Y-35.29
X45.769Y-45.415
X45.769Y-61.415
X55.856Y-34.811
X55.856Y-42.811
X63.856Y-34.811
X63.856Y-42.811
T5
X29.769Y-53.415
X37.765Y-35.29
X37.769Y-45.415
X37.769Y-53.415
X37.769Y-61.415
X45.769Y-53.415
T0
M30
