%TF.GenerationSoftware,KiCad,Pcbnew,4.0.7-e2-6376~58~ubuntu16.04.1*%
%TF.CreationDate,2017-10-07T16:10:48-07:00*%
%TF.ProjectId,10mmLED-Button-Battery,31306D6D4C45442D427574746F6E2D42,v1.2*%
%TF.FileFunction,Copper,L1,Top,Signal*%
%FSLAX46Y46*%
G04 Gerber Fmt 4.6, Leading zero omitted, Abs format (unit mm)*
G04 Created by KiCad (PCBNEW 4.0.7-e2-6376~58~ubuntu16.04.1) date Sat Oct  7 16:10:48 2017*
%MOMM*%
%LPD*%
G01*
G04 APERTURE LIST*
%ADD10C,0.350000*%
%ADD11C,2.540000*%
%ADD12C,1.270000*%
%ADD13C,0.500000*%
%ADD14C,1.700000*%
%ADD15C,7.200000*%
%ADD16O,15.240000X7.620000*%
%ADD17O,7.620000X15.240000*%
%ADD18R,2.600000X5.560000*%
%ADD19R,9.000000X13.800000*%
%ADD20C,6.000000*%
%ADD21C,2.000000*%
%ADD22C,1.900000*%
%ADD23C,0.152400*%
%ADD24C,0.203200*%
%ADD25C,0.350000*%
G04 APERTURE END LIST*
D10*
D11*
X45768800Y-61544200D02*
X37767800Y-53289200D01*
X46149800Y-45288200D02*
X37894800Y-53289200D01*
D12*
X29766800Y-61290200D02*
X26845800Y-55829200D01*
X29766800Y-45542200D02*
X26718800Y-51130200D01*
D13*
X59004200Y-46990000D03*
X60020200Y-46990000D03*
X60020200Y-49022000D03*
X59004200Y-49022000D03*
X51816000Y-59156600D03*
X51816000Y-60172600D03*
X49784000Y-60172600D03*
X49784000Y-59156600D03*
X30327600Y-41325800D03*
X29311600Y-41325800D03*
X29311600Y-39293800D03*
X30327600Y-39293800D03*
X45313600Y-41351200D03*
X44297600Y-41351200D03*
X44297600Y-39319200D03*
X45313600Y-39319200D03*
D14*
X40758201Y-37303801D03*
X34758201Y-37303801D03*
X40758201Y-33303801D03*
X34758201Y-33303801D03*
D15*
X29764801Y-35289601D03*
X45764801Y-35289601D03*
D16*
X59791600Y-53289200D03*
D17*
X55981600Y-57099200D03*
D16*
X59728100Y-60909200D03*
D17*
X63538100Y-57035700D03*
D18*
X27568800Y-53415200D03*
D19*
X37772800Y-53161200D03*
D18*
X47968800Y-53415200D03*
D20*
X45768800Y-61415200D03*
X29768800Y-61415200D03*
X45768800Y-45415200D03*
X29768800Y-45415200D03*
D13*
X49758600Y-35763200D03*
X49758600Y-34747200D03*
X51790600Y-34747200D03*
X51790600Y-35763200D03*
D21*
X59855600Y-39810700D03*
D22*
X59855600Y-37270700D03*
D20*
X63855600Y-34810700D03*
X63855600Y-42810700D03*
X55855600Y-42810700D03*
X55855600Y-34810700D03*
D23*
X56617600Y-43637200D02*
X59537600Y-43637200D01*
X48818800Y-60502800D02*
X46681200Y-60502800D01*
X46681200Y-60502800D02*
X45768800Y-61415200D01*
X48818800Y-59639200D02*
X48818800Y-60502800D01*
X47189200Y-59994800D02*
X45768800Y-61415200D01*
X52497801Y-59639200D02*
X48818800Y-59639200D01*
X59537600Y-43637200D02*
X59537600Y-49733200D01*
X55727600Y-50495200D02*
X54457600Y-51765200D01*
X59537600Y-49733200D02*
X58521600Y-49733200D01*
X58521600Y-49733200D02*
X57759600Y-50495200D01*
X57759600Y-50495200D02*
X55727600Y-50495200D01*
X54457600Y-57099200D02*
X52497801Y-59058999D01*
X54457600Y-51765200D02*
X54457600Y-57099200D01*
X47544800Y-59639200D02*
X45768800Y-61415200D01*
X52497801Y-59058999D02*
X52497801Y-59639200D01*
X45768800Y-61415200D02*
X46474001Y-60709999D01*
X45748200Y-35273000D02*
X55455800Y-35273000D01*
X55455800Y-35273000D02*
X55854600Y-34874200D01*
X29764801Y-41304399D02*
X29768800Y-41308398D01*
D24*
X29768800Y-41308398D02*
X29768800Y-45415200D01*
D23*
X29748200Y-35273000D02*
X29764801Y-35289601D01*
D24*
X29764801Y-35289601D02*
X29764801Y-41304399D01*
D25*
X59004200Y-46990000D03*
X60020200Y-46990000D03*
X60020200Y-49022000D03*
X59004200Y-49022000D03*
X51816000Y-59156600D03*
X51816000Y-60172600D03*
X49784000Y-60172600D03*
X49784000Y-59156600D03*
X30327600Y-41325800D03*
X29311600Y-41325800D03*
X29311600Y-39293800D03*
X30327600Y-39293800D03*
X45313600Y-41351200D03*
X44297600Y-41351200D03*
X44297600Y-39319200D03*
X45313600Y-39319200D03*
X40758201Y-37303801D03*
X34758201Y-37303801D03*
X40758201Y-33303801D03*
X34758201Y-33303801D03*
X37764801Y-35289601D03*
X29764801Y-35289601D03*
X45764801Y-35289601D03*
X37768800Y-53415200D03*
X45768800Y-53415200D03*
X29768800Y-53415200D03*
X45768800Y-61415200D03*
X37768800Y-61415200D03*
X29768800Y-61415200D03*
X45768800Y-45415200D03*
X37768800Y-45415200D03*
X29768800Y-45415200D03*
X49758600Y-35763200D03*
X49758600Y-34747200D03*
X51790600Y-34747200D03*
X51790600Y-35763200D03*
X59855600Y-39810700D03*
X59855600Y-37270700D03*
X63855600Y-34810700D03*
X63855600Y-42810700D03*
X55855600Y-42810700D03*
X55855600Y-34810700D03*
M02*
