%TF.GenerationSoftware,KiCad,Pcbnew,4.0.5-e0-6337~49~ubuntu16.04.1*%
%TF.CreationDate,2017-02-14T03:20:44-08:00*%
%TF.ProjectId,10mmLED-Button-Battery,31306D6D4C45442D427574746F6E2D42,v1.2*%
%TF.FileFunction,Other,Fab,Top*%
%FSLAX46Y46*%
G04 Gerber Fmt 4.6, Leading zero omitted, Abs format (unit mm)*
G04 Created by KiCad (PCBNEW 4.0.5-e0-6337~49~ubuntu16.04.1) date Tue Feb 14 03:20:44 2017*
%MOMM*%
%LPD*%
G01*
G04 APERTURE LIST*
%ADD10C,0.350000*%
%ADD11C,0.152400*%
%ADD12C,0.040640*%
%ADD13C,0.076200*%
%ADD14C,0.046400*%
%ADD15C,0.050000*%
%ADD16C,0.127000*%
%ADD17C,0.150000*%
G04 APERTURE END LIST*
D10*
D11*
X49834802Y-26864733D02*
X50318611Y-26864733D01*
X49738040Y-27155019D02*
X50076707Y-26139019D01*
X50415373Y-27155019D01*
X50705659Y-27106638D02*
X50802421Y-27155019D01*
X50995945Y-27155019D01*
X51092706Y-27106638D01*
X51141087Y-27009876D01*
X51141087Y-26961495D01*
X51092706Y-26864733D01*
X50995945Y-26816352D01*
X50850802Y-26816352D01*
X50754040Y-26767971D01*
X50705659Y-26671210D01*
X50705659Y-26622829D01*
X50754040Y-26526067D01*
X50850802Y-26477686D01*
X50995945Y-26477686D01*
X51092706Y-26526067D01*
X51528135Y-27106638D02*
X51624897Y-27155019D01*
X51818421Y-27155019D01*
X51915182Y-27106638D01*
X51963563Y-27009876D01*
X51963563Y-26961495D01*
X51915182Y-26864733D01*
X51818421Y-26816352D01*
X51673278Y-26816352D01*
X51576516Y-26767971D01*
X51528135Y-26671210D01*
X51528135Y-26622829D01*
X51576516Y-26526067D01*
X51673278Y-26477686D01*
X51818421Y-26477686D01*
X51915182Y-26526067D01*
X52786039Y-27106638D02*
X52689277Y-27155019D01*
X52495754Y-27155019D01*
X52398992Y-27106638D01*
X52350611Y-27009876D01*
X52350611Y-26622829D01*
X52398992Y-26526067D01*
X52495754Y-26477686D01*
X52689277Y-26477686D01*
X52786039Y-26526067D01*
X52834420Y-26622829D01*
X52834420Y-26719590D01*
X52350611Y-26816352D01*
X53269849Y-27155019D02*
X53269849Y-26477686D01*
X53269849Y-26574448D02*
X53318230Y-26526067D01*
X53414992Y-26477686D01*
X53560134Y-26477686D01*
X53656896Y-26526067D01*
X53705277Y-26622829D01*
X53705277Y-27155019D01*
X53705277Y-26622829D02*
X53753658Y-26526067D01*
X53850420Y-26477686D01*
X53995563Y-26477686D01*
X54092325Y-26526067D01*
X54140706Y-26622829D01*
X54140706Y-27155019D01*
X54624516Y-27155019D02*
X54624516Y-26139019D01*
X54624516Y-26526067D02*
X54721278Y-26477686D01*
X54914801Y-26477686D01*
X55011563Y-26526067D01*
X55059944Y-26574448D01*
X55108325Y-26671210D01*
X55108325Y-26961495D01*
X55059944Y-27058257D01*
X55011563Y-27106638D01*
X54914801Y-27155019D01*
X54721278Y-27155019D01*
X54624516Y-27106638D01*
X55688897Y-27155019D02*
X55592135Y-27106638D01*
X55543754Y-27009876D01*
X55543754Y-26139019D01*
X55979182Y-26477686D02*
X56221087Y-27155019D01*
X56462991Y-26477686D02*
X56221087Y-27155019D01*
X56124325Y-27396924D01*
X56075944Y-27445305D01*
X55979182Y-27493686D01*
X57624134Y-27155019D02*
X57624134Y-26139019D01*
X58107944Y-26477686D02*
X58107944Y-27155019D01*
X58107944Y-26574448D02*
X58156325Y-26526067D01*
X58253087Y-26477686D01*
X58398229Y-26477686D01*
X58494991Y-26526067D01*
X58543372Y-26622829D01*
X58543372Y-27155019D01*
X58882039Y-26477686D02*
X59269087Y-26477686D01*
X59027182Y-27155019D02*
X59027182Y-26284162D01*
X59075563Y-26187400D01*
X59172325Y-26139019D01*
X59269087Y-26139019D01*
X59752896Y-27155019D02*
X59656134Y-27106638D01*
X59607753Y-27058257D01*
X59559372Y-26961495D01*
X59559372Y-26671210D01*
X59607753Y-26574448D01*
X59656134Y-26526067D01*
X59752896Y-26477686D01*
X59898038Y-26477686D01*
X59994800Y-26526067D01*
X60043181Y-26574448D01*
X60091562Y-26671210D01*
X60091562Y-26961495D01*
X60043181Y-27058257D01*
X59994800Y-27106638D01*
X59898038Y-27155019D01*
X59752896Y-27155019D01*
X60526991Y-27155019D02*
X60526991Y-26477686D01*
X60526991Y-26671210D02*
X60575372Y-26574448D01*
X60623753Y-26526067D01*
X60720515Y-26477686D01*
X60817276Y-26477686D01*
X61155943Y-27155019D02*
X61155943Y-26477686D01*
X61155943Y-26574448D02*
X61204324Y-26526067D01*
X61301086Y-26477686D01*
X61446228Y-26477686D01*
X61542990Y-26526067D01*
X61591371Y-26622829D01*
X61591371Y-27155019D01*
X61591371Y-26622829D02*
X61639752Y-26526067D01*
X61736514Y-26477686D01*
X61881657Y-26477686D01*
X61978419Y-26526067D01*
X62026800Y-26622829D01*
X62026800Y-27155019D01*
X62946038Y-27155019D02*
X62946038Y-26622829D01*
X62897657Y-26526067D01*
X62800895Y-26477686D01*
X62607372Y-26477686D01*
X62510610Y-26526067D01*
X62946038Y-27106638D02*
X62849276Y-27155019D01*
X62607372Y-27155019D01*
X62510610Y-27106638D01*
X62462229Y-27009876D01*
X62462229Y-26913114D01*
X62510610Y-26816352D01*
X62607372Y-26767971D01*
X62849276Y-26767971D01*
X62946038Y-26719590D01*
X63284705Y-26477686D02*
X63671753Y-26477686D01*
X63429848Y-26139019D02*
X63429848Y-27009876D01*
X63478229Y-27106638D01*
X63574991Y-27155019D01*
X63671753Y-27155019D01*
X64010419Y-27155019D02*
X64010419Y-26477686D01*
X64010419Y-26139019D02*
X63962038Y-26187400D01*
X64010419Y-26235781D01*
X64058800Y-26187400D01*
X64010419Y-26139019D01*
X64010419Y-26235781D01*
X64639372Y-27155019D02*
X64542610Y-27106638D01*
X64494229Y-27058257D01*
X64445848Y-26961495D01*
X64445848Y-26671210D01*
X64494229Y-26574448D01*
X64542610Y-26526067D01*
X64639372Y-26477686D01*
X64784514Y-26477686D01*
X64881276Y-26526067D01*
X64929657Y-26574448D01*
X64978038Y-26671210D01*
X64978038Y-26961495D01*
X64929657Y-27058257D01*
X64881276Y-27106638D01*
X64784514Y-27155019D01*
X64639372Y-27155019D01*
X65413467Y-26477686D02*
X65413467Y-27155019D01*
X65413467Y-26574448D02*
X65461848Y-26526067D01*
X65558610Y-26477686D01*
X65703752Y-26477686D01*
X65800514Y-26526067D01*
X65848895Y-26622829D01*
X65848895Y-27155019D01*
X42674421Y-28831419D02*
X42093850Y-28831419D01*
X42384136Y-28831419D02*
X42384136Y-27815419D01*
X42287374Y-27960562D01*
X42190612Y-28057324D01*
X42093850Y-28105705D01*
X43303374Y-27815419D02*
X43400135Y-27815419D01*
X43496897Y-27863800D01*
X43545278Y-27912181D01*
X43593659Y-28008943D01*
X43642040Y-28202467D01*
X43642040Y-28444371D01*
X43593659Y-28637895D01*
X43545278Y-28734657D01*
X43496897Y-28783038D01*
X43400135Y-28831419D01*
X43303374Y-28831419D01*
X43206612Y-28783038D01*
X43158231Y-28734657D01*
X43109850Y-28637895D01*
X43061469Y-28444371D01*
X43061469Y-28202467D01*
X43109850Y-28008943D01*
X43158231Y-27912181D01*
X43206612Y-27863800D01*
X43303374Y-27815419D01*
X44077469Y-28831419D02*
X44077469Y-28154086D01*
X44077469Y-28250848D02*
X44125850Y-28202467D01*
X44222612Y-28154086D01*
X44367754Y-28154086D01*
X44464516Y-28202467D01*
X44512897Y-28299229D01*
X44512897Y-28831419D01*
X44512897Y-28299229D02*
X44561278Y-28202467D01*
X44658040Y-28154086D01*
X44803183Y-28154086D01*
X44899945Y-28202467D01*
X44948326Y-28299229D01*
X44948326Y-28831419D01*
X45432136Y-28831419D02*
X45432136Y-28154086D01*
X45432136Y-28250848D02*
X45480517Y-28202467D01*
X45577279Y-28154086D01*
X45722421Y-28154086D01*
X45819183Y-28202467D01*
X45867564Y-28299229D01*
X45867564Y-28831419D01*
X45867564Y-28299229D02*
X45915945Y-28202467D01*
X46012707Y-28154086D01*
X46157850Y-28154086D01*
X46254612Y-28202467D01*
X46302993Y-28299229D01*
X46302993Y-28831419D01*
X47270612Y-28831419D02*
X46786803Y-28831419D01*
X46786803Y-27815419D01*
X47609279Y-28299229D02*
X47947945Y-28299229D01*
X48093088Y-28831419D02*
X47609279Y-28831419D01*
X47609279Y-27815419D01*
X48093088Y-27815419D01*
X48528517Y-28831419D02*
X48528517Y-27815419D01*
X48770422Y-27815419D01*
X48915564Y-27863800D01*
X49012326Y-27960562D01*
X49060707Y-28057324D01*
X49109088Y-28250848D01*
X49109088Y-28395990D01*
X49060707Y-28589514D01*
X49012326Y-28686276D01*
X48915564Y-28783038D01*
X48770422Y-28831419D01*
X48528517Y-28831419D01*
X49544517Y-28444371D02*
X50318612Y-28444371D01*
X51141088Y-28299229D02*
X51286231Y-28347610D01*
X51334612Y-28395990D01*
X51382993Y-28492752D01*
X51382993Y-28637895D01*
X51334612Y-28734657D01*
X51286231Y-28783038D01*
X51189469Y-28831419D01*
X50802422Y-28831419D01*
X50802422Y-27815419D01*
X51141088Y-27815419D01*
X51237850Y-27863800D01*
X51286231Y-27912181D01*
X51334612Y-28008943D01*
X51334612Y-28105705D01*
X51286231Y-28202467D01*
X51237850Y-28250848D01*
X51141088Y-28299229D01*
X50802422Y-28299229D01*
X52253850Y-28154086D02*
X52253850Y-28831419D01*
X51818422Y-28154086D02*
X51818422Y-28686276D01*
X51866803Y-28783038D01*
X51963565Y-28831419D01*
X52108707Y-28831419D01*
X52205469Y-28783038D01*
X52253850Y-28734657D01*
X52592517Y-28154086D02*
X52979565Y-28154086D01*
X52737660Y-27815419D02*
X52737660Y-28686276D01*
X52786041Y-28783038D01*
X52882803Y-28831419D01*
X52979565Y-28831419D01*
X53173088Y-28154086D02*
X53560136Y-28154086D01*
X53318231Y-27815419D02*
X53318231Y-28686276D01*
X53366612Y-28783038D01*
X53463374Y-28831419D01*
X53560136Y-28831419D01*
X54043945Y-28831419D02*
X53947183Y-28783038D01*
X53898802Y-28734657D01*
X53850421Y-28637895D01*
X53850421Y-28347610D01*
X53898802Y-28250848D01*
X53947183Y-28202467D01*
X54043945Y-28154086D01*
X54189087Y-28154086D01*
X54285849Y-28202467D01*
X54334230Y-28250848D01*
X54382611Y-28347610D01*
X54382611Y-28637895D01*
X54334230Y-28734657D01*
X54285849Y-28783038D01*
X54189087Y-28831419D01*
X54043945Y-28831419D01*
X54818040Y-28154086D02*
X54818040Y-28831419D01*
X54818040Y-28250848D02*
X54866421Y-28202467D01*
X54963183Y-28154086D01*
X55108325Y-28154086D01*
X55205087Y-28202467D01*
X55253468Y-28299229D01*
X55253468Y-28831419D01*
X55737278Y-28444371D02*
X56511373Y-28444371D01*
X57333849Y-28299229D02*
X57478992Y-28347610D01*
X57527373Y-28395990D01*
X57575754Y-28492752D01*
X57575754Y-28637895D01*
X57527373Y-28734657D01*
X57478992Y-28783038D01*
X57382230Y-28831419D01*
X56995183Y-28831419D01*
X56995183Y-27815419D01*
X57333849Y-27815419D01*
X57430611Y-27863800D01*
X57478992Y-27912181D01*
X57527373Y-28008943D01*
X57527373Y-28105705D01*
X57478992Y-28202467D01*
X57430611Y-28250848D01*
X57333849Y-28299229D01*
X56995183Y-28299229D01*
X58446611Y-28831419D02*
X58446611Y-28299229D01*
X58398230Y-28202467D01*
X58301468Y-28154086D01*
X58107945Y-28154086D01*
X58011183Y-28202467D01*
X58446611Y-28783038D02*
X58349849Y-28831419D01*
X58107945Y-28831419D01*
X58011183Y-28783038D01*
X57962802Y-28686276D01*
X57962802Y-28589514D01*
X58011183Y-28492752D01*
X58107945Y-28444371D01*
X58349849Y-28444371D01*
X58446611Y-28395990D01*
X58785278Y-28154086D02*
X59172326Y-28154086D01*
X58930421Y-27815419D02*
X58930421Y-28686276D01*
X58978802Y-28783038D01*
X59075564Y-28831419D01*
X59172326Y-28831419D01*
X59365849Y-28154086D02*
X59752897Y-28154086D01*
X59510992Y-27815419D02*
X59510992Y-28686276D01*
X59559373Y-28783038D01*
X59656135Y-28831419D01*
X59752897Y-28831419D01*
X60478610Y-28783038D02*
X60381848Y-28831419D01*
X60188325Y-28831419D01*
X60091563Y-28783038D01*
X60043182Y-28686276D01*
X60043182Y-28299229D01*
X60091563Y-28202467D01*
X60188325Y-28154086D01*
X60381848Y-28154086D01*
X60478610Y-28202467D01*
X60526991Y-28299229D01*
X60526991Y-28395990D01*
X60043182Y-28492752D01*
X60962420Y-28831419D02*
X60962420Y-28154086D01*
X60962420Y-28347610D02*
X61010801Y-28250848D01*
X61059182Y-28202467D01*
X61155944Y-28154086D01*
X61252705Y-28154086D01*
X61494610Y-28154086D02*
X61736515Y-28831419D01*
X61978419Y-28154086D02*
X61736515Y-28831419D01*
X61639753Y-29073324D01*
X61591372Y-29121705D01*
X61494610Y-29170086D01*
X63042800Y-28154086D02*
X63284705Y-28831419D01*
X63526609Y-28154086D01*
X64445847Y-28831419D02*
X63865276Y-28831419D01*
X64155562Y-28831419D02*
X64155562Y-27815419D01*
X64058800Y-27960562D01*
X63962038Y-28057324D01*
X63865276Y-28105705D01*
X64881276Y-28734657D02*
X64929657Y-28783038D01*
X64881276Y-28831419D01*
X64832895Y-28783038D01*
X64881276Y-28734657D01*
X64881276Y-28831419D01*
X65316705Y-27912181D02*
X65365086Y-27863800D01*
X65461848Y-27815419D01*
X65703752Y-27815419D01*
X65800514Y-27863800D01*
X65848895Y-27912181D01*
X65897276Y-28008943D01*
X65897276Y-28105705D01*
X65848895Y-28250848D01*
X65268324Y-28831419D01*
X65897276Y-28831419D01*
D12*
X58750200Y-49276000D02*
X58750200Y-46736000D01*
X60274200Y-49276000D02*
X60274200Y-46736000D01*
X49530000Y-58902600D02*
X52070000Y-58902600D01*
X49530000Y-60426600D02*
X52070000Y-60426600D01*
X30581600Y-39039800D02*
X30581600Y-41579800D01*
X29057600Y-39039800D02*
X29057600Y-41579800D01*
X45567600Y-39065200D02*
X45567600Y-41605200D01*
X44043600Y-39065200D02*
X44043600Y-41605200D01*
D13*
X60553600Y-42176700D02*
X59410600Y-42176700D01*
D14*
X61569600Y-41541701D02*
G75*
G03X58267600Y-41541700I-1651000J2921001D01*
G01*
X61569600Y-41541700D02*
X58267600Y-41541700D01*
D15*
X67659225Y-34800728D02*
G75*
G03X63855600Y-31010700I-3999066J-209764D01*
G01*
X52055600Y-42810700D02*
X52055600Y-34810700D01*
X63855600Y-46610700D02*
X55855600Y-46610700D01*
X63855600Y-31010700D02*
X55855600Y-31010700D01*
X67655600Y-42810700D02*
X67655600Y-34810700D01*
X55845628Y-31007075D02*
G75*
G03X52055600Y-34810700I209764J-3999066D01*
G01*
X63865572Y-46614325D02*
G75*
G03X67655600Y-42810700I-209764J3999066D01*
G01*
X52051975Y-42820672D02*
G75*
G03X55855600Y-46610700I3999066J209764D01*
G01*
D16*
X60172600Y-34175700D02*
X59156600Y-34175700D01*
X59664600Y-33604200D02*
X59664600Y-34747200D01*
D15*
X45764801Y-39089601D02*
X29764801Y-39089601D01*
X29764801Y-31489601D02*
X45764801Y-31489601D01*
X29764801Y-31489601D02*
G75*
G03X29764801Y-39089601I0J-3800000D01*
G01*
X45764801Y-39089601D02*
G75*
G03X45764801Y-31489601I0J3800000D01*
G01*
D12*
X63691600Y-49426200D02*
X55891600Y-49426200D01*
X63691600Y-65026200D02*
X55891600Y-65026200D01*
X67591600Y-61126200D02*
X67591600Y-53326200D01*
X51991600Y-61126200D02*
X51991600Y-53326200D01*
X67591600Y-53326200D02*
G75*
G03X63691600Y-49426200I-3900000J0D01*
G01*
X63691600Y-65026200D02*
G75*
G03X67591600Y-61126200I0J3900000D01*
G01*
X51991600Y-61126200D02*
G75*
G03X55891600Y-65026200I3900000J0D01*
G01*
X55891600Y-49426200D02*
G75*
G03X51991600Y-53326200I0J-3900000D01*
G01*
D15*
X45768800Y-41615200D02*
X29768800Y-41615200D01*
X49568800Y-61415200D02*
X49568800Y-45415200D01*
X25968800Y-61415200D02*
X25968800Y-45415200D01*
X45768800Y-65215200D02*
X29768800Y-65215200D01*
X45768800Y-65215200D02*
G75*
G03X49568800Y-61415200I0J3800000D01*
G01*
X49568800Y-45415200D02*
G75*
G03X45768800Y-41615200I-3800000J0D01*
G01*
X29768800Y-41615200D02*
G75*
G03X25968800Y-45415200I0J-3800000D01*
G01*
X25968800Y-61415200D02*
G75*
G03X29768800Y-65215200I3800000J0D01*
G01*
D12*
X52044600Y-36017200D02*
X49504600Y-36017200D01*
X52044600Y-34493200D02*
X49504600Y-34493200D01*
D17*
X60307981Y-39929747D02*
X60307981Y-40405938D01*
X59307981Y-40405938D01*
X59784171Y-39596414D02*
X59784171Y-39263080D01*
X60307981Y-39120223D02*
X60307981Y-39596414D01*
X59307981Y-39596414D01*
X59307981Y-39120223D01*
X60307981Y-38691652D02*
X59307981Y-38691652D01*
X59307981Y-38453557D01*
X59355600Y-38310699D01*
X59450838Y-38215461D01*
X59546076Y-38167842D01*
X59736552Y-38120223D01*
X59879410Y-38120223D01*
X60069886Y-38167842D01*
X60165124Y-38215461D01*
X60260362Y-38310699D01*
X60307981Y-38453557D01*
X60307981Y-38691652D01*
X60307981Y-37167842D02*
X60307981Y-37739271D01*
X60307981Y-37453557D02*
X59307981Y-37453557D01*
X59450838Y-37548795D01*
X59546076Y-37644033D01*
X59593695Y-37739271D01*
X36481468Y-35844363D02*
X36624325Y-35891982D01*
X36862421Y-35891982D01*
X36957659Y-35844363D01*
X37005278Y-35796744D01*
X37052897Y-35701506D01*
X37052897Y-35606268D01*
X37005278Y-35511030D01*
X36957659Y-35463411D01*
X36862421Y-35415791D01*
X36671944Y-35368172D01*
X36576706Y-35320553D01*
X36529087Y-35272934D01*
X36481468Y-35177696D01*
X36481468Y-35082458D01*
X36529087Y-34987220D01*
X36576706Y-34939601D01*
X36671944Y-34891982D01*
X36910040Y-34891982D01*
X37052897Y-34939601D01*
X37386230Y-34891982D02*
X37624325Y-35891982D01*
X37814802Y-35177696D01*
X38005278Y-35891982D01*
X38243373Y-34891982D01*
X39148135Y-35891982D02*
X38576706Y-35891982D01*
X38862420Y-35891982D02*
X38862420Y-34891982D01*
X38767182Y-35034839D01*
X38671944Y-35130077D01*
X38576706Y-35177696D01*
X58553505Y-57678581D02*
X58077314Y-57678581D01*
X58077314Y-56678581D01*
X59077314Y-56678581D02*
X59267791Y-56678581D01*
X59363029Y-56726200D01*
X59458267Y-56821438D01*
X59505886Y-57011914D01*
X59505886Y-57345248D01*
X59458267Y-57535724D01*
X59363029Y-57630962D01*
X59267791Y-57678581D01*
X59077314Y-57678581D01*
X58982076Y-57630962D01*
X58886838Y-57535724D01*
X58839219Y-57345248D01*
X58839219Y-57011914D01*
X58886838Y-56821438D01*
X58982076Y-56726200D01*
X59077314Y-56678581D01*
X60458267Y-56726200D02*
X60363029Y-56678581D01*
X60220172Y-56678581D01*
X60077314Y-56726200D01*
X59982076Y-56821438D01*
X59934457Y-56916676D01*
X59886838Y-57107152D01*
X59886838Y-57250010D01*
X59934457Y-57440486D01*
X59982076Y-57535724D01*
X60077314Y-57630962D01*
X60220172Y-57678581D01*
X60315410Y-57678581D01*
X60458267Y-57630962D01*
X60505886Y-57583343D01*
X60505886Y-57250010D01*
X60315410Y-57250010D01*
X61124933Y-56678581D02*
X61315410Y-56678581D01*
X61410648Y-56726200D01*
X61505886Y-56821438D01*
X61553505Y-57011914D01*
X61553505Y-57345248D01*
X61505886Y-57535724D01*
X61410648Y-57630962D01*
X61315410Y-57678581D01*
X61124933Y-57678581D01*
X61029695Y-57630962D01*
X60934457Y-57535724D01*
X60886838Y-57345248D01*
X60886838Y-57011914D01*
X60934457Y-56821438D01*
X61029695Y-56726200D01*
X61124933Y-56678581D01*
X36983086Y-53343771D02*
X37125943Y-53391390D01*
X37173562Y-53439010D01*
X37221181Y-53534248D01*
X37221181Y-53677105D01*
X37173562Y-53772343D01*
X37125943Y-53819962D01*
X37030705Y-53867581D01*
X36649752Y-53867581D01*
X36649752Y-52867581D01*
X36983086Y-52867581D01*
X37078324Y-52915200D01*
X37125943Y-52962819D01*
X37173562Y-53058057D01*
X37173562Y-53153295D01*
X37125943Y-53248533D01*
X37078324Y-53296152D01*
X36983086Y-53343771D01*
X36649752Y-53343771D01*
X37506895Y-52867581D02*
X38078324Y-52867581D01*
X37792609Y-53867581D02*
X37792609Y-52867581D01*
X38935467Y-53867581D02*
X38364038Y-53867581D01*
X38649752Y-53867581D02*
X38649752Y-52867581D01*
X38554514Y-53010438D01*
X38459276Y-53105676D01*
X38364038Y-53153295D01*
M02*
