%TF.GenerationSoftware,KiCad,Pcbnew,4.0.5-e0-6337~49~ubuntu16.04.1*%
%TF.CreationDate,2017-01-12T22:38:57-08:00*%
%TF.ProjectId,10mmLED-Button-Battery,31306D6D4C45442D427574746F6E2D42,rev?*%
%TF.FileFunction,Copper,L1,Top,Signal*%
%FSLAX46Y46*%
G04 Gerber Fmt 4.6, Leading zero omitted, Abs format (unit mm)*
G04 Created by KiCad (PCBNEW 4.0.5-e0-6337~49~ubuntu16.04.1) date Thu Jan 12 22:38:57 2017*
%MOMM*%
%LPD*%
G01*
G04 APERTURE LIST*
%ADD10C,0.350000*%
%ADD11R,2.000000X1.900000*%
%ADD12C,1.900000*%
%ADD13C,6.000000*%
%ADD14R,2.600000X5.560000*%
%ADD15R,9.000000X13.800000*%
%ADD16C,1.700000*%
%ADD17C,4.880000*%
%ADD18O,15.240000X7.620000*%
%ADD19O,7.620000X15.240000*%
%ADD20C,0.152400*%
%ADD21C,0.203200*%
%ADD22C,0.350000*%
G04 APERTURE END LIST*
D10*
D11*
X179388000Y-93963500D03*
D12*
X179388000Y-91423500D03*
D13*
X183388000Y-88963500D03*
X183388000Y-96963500D03*
X175388000Y-96963500D03*
X175388000Y-88963500D03*
X157301200Y-107568000D03*
X165301200Y-107568000D03*
X149301200Y-107568000D03*
D14*
X147101200Y-107568000D03*
D15*
X157305200Y-107314000D03*
D14*
X167501200Y-107568000D03*
D13*
X165301200Y-115568000D03*
X157301200Y-115568000D03*
X149301200Y-115568000D03*
X165301200Y-99568000D03*
X157301200Y-99568000D03*
X149301200Y-99568000D03*
D16*
X160290601Y-91456601D03*
X154290601Y-91456601D03*
X160290601Y-87456601D03*
X154290601Y-87456601D03*
D17*
X157297201Y-89442401D03*
D13*
X149297201Y-89442401D03*
X165297201Y-89442401D03*
D18*
X179324000Y-107442000D03*
D19*
X175514000Y-111252000D03*
D18*
X179260500Y-115062000D03*
D19*
X183070500Y-111188500D03*
D20*
X176150000Y-97790000D02*
X179070000Y-97790000D01*
X168351200Y-114655600D02*
X166213600Y-114655600D01*
X166213600Y-114655600D02*
X165301200Y-115568000D01*
X168351200Y-113792000D02*
X168351200Y-114655600D01*
X166721600Y-114147600D02*
X165301200Y-115568000D01*
X172030201Y-113792000D02*
X168351200Y-113792000D01*
X179070000Y-97790000D02*
X179070000Y-103886000D01*
X175260000Y-104648000D02*
X173990000Y-105918000D01*
X179070000Y-103886000D02*
X178054000Y-103886000D01*
X178054000Y-103886000D02*
X177292000Y-104648000D01*
X177292000Y-104648000D02*
X175260000Y-104648000D01*
X173990000Y-111252000D02*
X172030201Y-113211799D01*
X173990000Y-105918000D02*
X173990000Y-111252000D01*
X167077200Y-113792000D02*
X165301200Y-115568000D01*
X172030201Y-113211799D02*
X172030201Y-113792000D01*
X165301200Y-115568000D02*
X166006401Y-114862799D01*
X165280600Y-89425800D02*
X174988200Y-89425800D01*
X174988200Y-89425800D02*
X175387000Y-89027000D01*
X149297201Y-95457199D02*
X149301200Y-95461198D01*
D21*
X149301200Y-95461198D02*
X149301200Y-99568000D01*
D20*
X149280600Y-89425800D02*
X149297201Y-89442401D01*
D21*
X149297201Y-89442401D02*
X149297201Y-95457199D01*
D22*
X179388000Y-93963500D03*
X179388000Y-91423500D03*
X183388000Y-88963500D03*
X183388000Y-96963500D03*
X175388000Y-96963500D03*
X175388000Y-88963500D03*
X157301200Y-107568000D03*
X165301200Y-107568000D03*
X149301200Y-107568000D03*
X165301200Y-115568000D03*
X157301200Y-115568000D03*
X149301200Y-115568000D03*
X165301200Y-99568000D03*
X157301200Y-99568000D03*
X149301200Y-99568000D03*
X160290601Y-91456601D03*
X154290601Y-91456601D03*
X160290601Y-87456601D03*
X154290601Y-87456601D03*
X157297201Y-89442401D03*
X149297201Y-89442401D03*
X165297201Y-89442401D03*
M02*
