%TF.GenerationSoftware,KiCad,Pcbnew,4.0.5-e0-6337~49~ubuntu16.04.1*%
%TF.CreationDate,2017-05-27T11:30:19-07:00*%
%TF.ProjectId,2x2-LED-SMT,3278322D4C45442D534D542E6B696361,v1.2*%
%TF.FileFunction,Soldermask,Top*%
%FSLAX46Y46*%
G04 Gerber Fmt 4.6, Leading zero omitted, Abs format (unit mm)*
G04 Created by KiCad (PCBNEW 4.0.5-e0-6337~49~ubuntu16.04.1) date Sat May 27 11:30:19 2017*
%MOMM*%
%LPD*%
G01*
G04 APERTURE LIST*
%ADD10C,0.350000*%
G04 APERTURE END LIST*
D10*
G36*
X27374610Y-31591847D02*
X27965555Y-31713151D01*
X28521698Y-31946932D01*
X29021834Y-32284278D01*
X29446921Y-32712343D01*
X29780766Y-33214821D01*
X30010656Y-33772576D01*
X30127764Y-34364014D01*
X30127764Y-34364024D01*
X30127831Y-34364363D01*
X30118210Y-35053416D01*
X30118133Y-35053754D01*
X30118133Y-35053762D01*
X29984557Y-35641701D01*
X29739185Y-36192816D01*
X29391437Y-36685778D01*
X28954562Y-37101809D01*
X28445200Y-37425061D01*
X27882754Y-37643219D01*
X27288647Y-37747976D01*
X26685503Y-37735342D01*
X26096300Y-37605797D01*
X25543482Y-37364277D01*
X25048107Y-37019982D01*
X24629037Y-36586023D01*
X24302238Y-36078930D01*
X24080156Y-35518014D01*
X23971255Y-34924658D01*
X23979677Y-34321441D01*
X24105106Y-33731347D01*
X24342759Y-33176858D01*
X24683591Y-32679088D01*
X25114612Y-32257000D01*
X25619413Y-31926668D01*
X26178759Y-31700677D01*
X26771345Y-31587636D01*
X27374610Y-31591847D01*
X27374610Y-31591847D01*
G37*
G36*
X35374610Y-31591847D02*
X35965555Y-31713151D01*
X36521698Y-31946932D01*
X37021834Y-32284278D01*
X37446921Y-32712343D01*
X37780766Y-33214821D01*
X38010656Y-33772576D01*
X38127764Y-34364014D01*
X38127764Y-34364024D01*
X38127831Y-34364363D01*
X38118210Y-35053416D01*
X38118133Y-35053754D01*
X38118133Y-35053762D01*
X37984557Y-35641701D01*
X37739185Y-36192816D01*
X37391437Y-36685778D01*
X36954562Y-37101809D01*
X36445200Y-37425061D01*
X35882754Y-37643219D01*
X35288647Y-37747976D01*
X34685503Y-37735342D01*
X34096300Y-37605797D01*
X33543482Y-37364277D01*
X33048107Y-37019982D01*
X32629037Y-36586023D01*
X32302238Y-36078930D01*
X32080156Y-35518014D01*
X31971255Y-34924658D01*
X31979677Y-34321441D01*
X32105106Y-33731347D01*
X32342759Y-33176858D01*
X32683591Y-32679088D01*
X33114612Y-32257000D01*
X33619413Y-31926668D01*
X34178759Y-31700677D01*
X34771345Y-31587636D01*
X35374610Y-31591847D01*
X35374610Y-31591847D01*
G37*
G36*
X31749900Y-33151400D02*
X30353100Y-33151400D01*
X30353100Y-31600600D01*
X31749900Y-31600600D01*
X31749900Y-33151400D01*
X31749900Y-33151400D01*
G37*
G36*
X27374610Y-23591847D02*
X27965555Y-23713151D01*
X28521698Y-23946932D01*
X29021834Y-24284278D01*
X29446921Y-24712343D01*
X29780766Y-25214821D01*
X30010656Y-25772576D01*
X30127764Y-26364014D01*
X30127764Y-26364024D01*
X30127831Y-26364363D01*
X30118210Y-27053416D01*
X30118133Y-27053754D01*
X30118133Y-27053762D01*
X29984557Y-27641701D01*
X29739185Y-28192816D01*
X29391437Y-28685778D01*
X28954562Y-29101809D01*
X28445200Y-29425061D01*
X27882754Y-29643219D01*
X27288647Y-29747976D01*
X26685503Y-29735342D01*
X26096300Y-29605797D01*
X25543482Y-29364277D01*
X25048107Y-29019982D01*
X24629037Y-28586023D01*
X24302238Y-28078930D01*
X24080156Y-27518014D01*
X23971255Y-26924658D01*
X23979677Y-26321441D01*
X24105106Y-25731347D01*
X24342759Y-25176858D01*
X24683591Y-24679088D01*
X25114612Y-24257000D01*
X25619413Y-23926668D01*
X26178759Y-23700677D01*
X26771345Y-23587636D01*
X27374610Y-23591847D01*
X27374610Y-23591847D01*
G37*
G36*
X35374610Y-23591847D02*
X35965555Y-23713151D01*
X36521698Y-23946932D01*
X37021834Y-24284278D01*
X37446921Y-24712343D01*
X37780766Y-25214821D01*
X38010656Y-25772576D01*
X38127764Y-26364014D01*
X38127764Y-26364024D01*
X38127831Y-26364363D01*
X38118210Y-27053416D01*
X38118133Y-27053754D01*
X38118133Y-27053762D01*
X37984557Y-27641701D01*
X37739185Y-28192816D01*
X37391437Y-28685778D01*
X36954562Y-29101809D01*
X36445200Y-29425061D01*
X35882754Y-29643219D01*
X35288647Y-29747976D01*
X34685503Y-29735342D01*
X34096300Y-29605797D01*
X33543482Y-29364277D01*
X33048107Y-29019982D01*
X32629037Y-28586023D01*
X32302238Y-28078930D01*
X32080156Y-27518014D01*
X31971255Y-26924658D01*
X31979677Y-26321441D01*
X32105106Y-25731347D01*
X32342759Y-25176858D01*
X32683591Y-24679088D01*
X33114612Y-24257000D01*
X33619413Y-23926668D01*
X34178759Y-23700677D01*
X34771345Y-23587636D01*
X35374610Y-23591847D01*
X35374610Y-23591847D01*
G37*
G36*
X31749900Y-29731400D02*
X30353100Y-29731400D01*
X30353100Y-28180600D01*
X31749900Y-28180600D01*
X31749900Y-29731400D01*
X31749900Y-29731400D01*
G37*
M02*
