%TF.GenerationSoftware,KiCad,Pcbnew,4.0.5-e0-6337~49~ubuntu16.04.1*%
%TF.CreationDate,2017-05-27T11:15:56-07:00*%
%TF.ProjectId,2x2-LED-SMT,3278322D4C45442D534D542E6B696361,v1.2*%
%TF.FileFunction,Soldermask,Bot*%
%FSLAX46Y46*%
G04 Gerber Fmt 4.6, Leading zero omitted, Abs format (unit mm)*
G04 Created by KiCad (PCBNEW 4.0.5-e0-6337~49~ubuntu16.04.1) date Sat May 27 11:15:56 2017*
%MOMM*%
%LPD*%
G01*
G04 APERTURE LIST*
%ADD10C,0.350000*%
%ADD11C,7.000000*%
G04 APERTURE END LIST*
D10*
D11*
X27052000Y-34671000D02*
X34952000Y-34671000D01*
X27077000Y-26746000D02*
X34977000Y-26746000D01*
D10*
G36*
X27375110Y-31596847D02*
X27966055Y-31718151D01*
X28522198Y-31951932D01*
X29022334Y-32289278D01*
X29447421Y-32717343D01*
X29781266Y-33219821D01*
X30011156Y-33777576D01*
X30128264Y-34369014D01*
X30128264Y-34369024D01*
X30128331Y-34369363D01*
X30118710Y-35058416D01*
X30118633Y-35058754D01*
X30118633Y-35058762D01*
X29985057Y-35646701D01*
X29739685Y-36197816D01*
X29391937Y-36690778D01*
X28955062Y-37106809D01*
X28445700Y-37430061D01*
X27883254Y-37648219D01*
X27289147Y-37752976D01*
X26686003Y-37740342D01*
X26096800Y-37610797D01*
X25543982Y-37369277D01*
X25048607Y-37024982D01*
X24629537Y-36591023D01*
X24302738Y-36083930D01*
X24080656Y-35523014D01*
X23971755Y-34929658D01*
X23980177Y-34326441D01*
X24105606Y-33736347D01*
X24343259Y-33181858D01*
X24684091Y-32684088D01*
X25115112Y-32262000D01*
X25619913Y-31931668D01*
X26179259Y-31705677D01*
X26771845Y-31592636D01*
X27375110Y-31596847D01*
X27375110Y-31596847D01*
G37*
G36*
X35375110Y-31596847D02*
X35966055Y-31718151D01*
X36522198Y-31951932D01*
X37022334Y-32289278D01*
X37447421Y-32717343D01*
X37781266Y-33219821D01*
X38011156Y-33777576D01*
X38128264Y-34369014D01*
X38128264Y-34369024D01*
X38128331Y-34369363D01*
X38118710Y-35058416D01*
X38118633Y-35058754D01*
X38118633Y-35058762D01*
X37985057Y-35646701D01*
X37739685Y-36197816D01*
X37391937Y-36690778D01*
X36955062Y-37106809D01*
X36445700Y-37430061D01*
X35883254Y-37648219D01*
X35289147Y-37752976D01*
X34686003Y-37740342D01*
X34096800Y-37610797D01*
X33543982Y-37369277D01*
X33048607Y-37024982D01*
X32629537Y-36591023D01*
X32302738Y-36083930D01*
X32080656Y-35523014D01*
X31971755Y-34929658D01*
X31980177Y-34326441D01*
X32105606Y-33736347D01*
X32343259Y-33181858D01*
X32684091Y-32684088D01*
X33115112Y-32262000D01*
X33619913Y-31931668D01*
X34179259Y-31705677D01*
X34771845Y-31592636D01*
X35375110Y-31596847D01*
X35375110Y-31596847D01*
G37*
G36*
X27375110Y-23596847D02*
X27966055Y-23718151D01*
X28522198Y-23951932D01*
X29022334Y-24289278D01*
X29447421Y-24717343D01*
X29781266Y-25219821D01*
X30011156Y-25777576D01*
X30128264Y-26369014D01*
X30128264Y-26369024D01*
X30128331Y-26369363D01*
X30118710Y-27058416D01*
X30118633Y-27058754D01*
X30118633Y-27058762D01*
X29985057Y-27646701D01*
X29739685Y-28197816D01*
X29391937Y-28690778D01*
X28955062Y-29106809D01*
X28445700Y-29430061D01*
X27883254Y-29648219D01*
X27289147Y-29752976D01*
X26686003Y-29740342D01*
X26096800Y-29610797D01*
X25543982Y-29369277D01*
X25048607Y-29024982D01*
X24629537Y-28591023D01*
X24302738Y-28083930D01*
X24080656Y-27523014D01*
X23971755Y-26929658D01*
X23980177Y-26326441D01*
X24105606Y-25736347D01*
X24343259Y-25181858D01*
X24684091Y-24684088D01*
X25115112Y-24262000D01*
X25619913Y-23931668D01*
X26179259Y-23705677D01*
X26771845Y-23592636D01*
X27375110Y-23596847D01*
X27375110Y-23596847D01*
G37*
G36*
X35375110Y-23596847D02*
X35966055Y-23718151D01*
X36522198Y-23951932D01*
X37022334Y-24289278D01*
X37447421Y-24717343D01*
X37781266Y-25219821D01*
X38011156Y-25777576D01*
X38128264Y-26369014D01*
X38128264Y-26369024D01*
X38128331Y-26369363D01*
X38118710Y-27058416D01*
X38118633Y-27058754D01*
X38118633Y-27058762D01*
X37985057Y-27646701D01*
X37739685Y-28197816D01*
X37391937Y-28690778D01*
X36955062Y-29106809D01*
X36445700Y-29430061D01*
X35883254Y-29648219D01*
X35289147Y-29752976D01*
X34686003Y-29740342D01*
X34096800Y-29610797D01*
X33543982Y-29369277D01*
X33048607Y-29024982D01*
X32629537Y-28591023D01*
X32302738Y-28083930D01*
X32080656Y-27523014D01*
X31971755Y-26929658D01*
X31980177Y-26326441D01*
X32105606Y-25736347D01*
X32343259Y-25181858D01*
X32684091Y-24684088D01*
X33115112Y-24262000D01*
X33619913Y-23931668D01*
X34179259Y-23705677D01*
X34771845Y-23592636D01*
X35375110Y-23596847D01*
X35375110Y-23596847D01*
G37*
M02*
