G04 This is an RS-274x file exported by *
G04 gerbv version 2.6.0 *
G04 More information is available about gerbv at *
G04 http://gerbv.gpleda.org/ *
G04 --End of header info--*
%MOIN*%
%FSLAX34Y34*%
%IPPOS*%
G04 --Define apertures--*
%ADD10C,0.0138*%
%ADD11C,0.0016*%
%ADD12C,0.0059*%
G04 --Start main section--*
G54D11*
G01X0011831Y-013254D02*
G01X0011831Y-010892D01*
G01X0012619Y-013254D02*
G01X0011831Y-013254D01*
G01X0012619Y-010892D02*
G01X0012619Y-013254D01*
G01X0011831Y-010892D02*
G01X0012619Y-010892D01*
G01X0013760Y-009002D02*
G01X0010690Y-009002D01*
G01X0013760Y-015144D02*
G01X0010690Y-015144D01*
G01X0015296Y-013609D02*
G01X0015296Y-010538D01*
G01X0009154Y-013609D02*
G01X0009154Y-010538D01*
G01X0015296Y-010538D02*
G75*
G03X0013760Y-009002I-001535J0000000D01*
G01X0013760Y-015144D02*
G75*
G03X0015296Y-013609I0000000J0001535D01*
G01X0009154Y-013609D02*
G75*
G03X0010690Y-015144I0001535J0000000D01*
G01X0010690Y-009002D02*
G75*
G03X0009154Y-010538I0000000J-001535D01*
G54D12*
G01X0012428Y-012539D02*
G01X0012428Y-012726D01*
G01X0012428Y-012726D02*
G01X0012035Y-012726D01*
G01X0012222Y-012407D02*
G01X0012222Y-012276D01*
G01X0012428Y-012220D02*
G01X0012428Y-012407D01*
G01X0012428Y-012407D02*
G01X0012035Y-012407D01*
G01X0012035Y-012407D02*
G01X0012035Y-012220D01*
G01X0012428Y-012051D02*
G01X0012035Y-012051D01*
G01X0012035Y-012051D02*
G01X0012035Y-011957D01*
G01X0012035Y-011957D02*
G01X0012053Y-011901D01*
G01X0012053Y-011901D02*
G01X0012091Y-011864D01*
G01X0012091Y-011864D02*
G01X0012128Y-011845D01*
G01X0012128Y-011845D02*
G01X0012203Y-011826D01*
G01X0012203Y-011826D02*
G01X0012260Y-011826D01*
G01X0012260Y-011826D02*
G01X0012335Y-011845D01*
G01X0012335Y-011845D02*
G01X0012372Y-011864D01*
G01X0012372Y-011864D02*
G01X0012410Y-011901D01*
G01X0012410Y-011901D02*
G01X0012428Y-011957D01*
G01X0012428Y-011957D02*
G01X0012428Y-012051D01*
G01X0012428Y-011451D02*
G01X0012428Y-011676D01*
G01X0012428Y-011564D02*
G01X0012035Y-011564D01*
G01X0012035Y-011564D02*
G01X0012091Y-011601D01*
G01X0012091Y-011601D02*
G01X0012128Y-011639D01*
G01X0012128Y-011639D02*
G01X0012147Y-011676D01*
G01X0012075Y-010527D02*
G01X0012375Y-010527D01*
G01X0012225Y-010677D02*
G01X0012225Y-010377D01*
G01X0012075Y-013676D02*
G01X0012375Y-013676D01*
G01X0000000Y0000000D02*
G54D11*
G01X0013760Y-009002D02*
G01X0010690Y-009002D01*
G01X0013760Y-015144D02*
G01X0010690Y-015144D01*
G01X0015296Y-013609D02*
G01X0015296Y-010538D01*
G01X0009154Y-013609D02*
G01X0009154Y-010538D01*
G01X0015296Y-010538D02*
G75*
G03X0013760Y-009002I-001535J0000000D01*
G01X0013760Y-015144D02*
G75*
G03X0015296Y-013609I0000000J0001535D01*
G01X0009154Y-013609D02*
G75*
G03X0010690Y-015144I0001535J0000000D01*
G01X0010690Y-009002D02*
G75*
G03X0009154Y-010538I0000000J-001535D01*
M02*
