G04 This is an RS-274x file exported by *
G04 gerbv version 2.6.0 *
G04 More information is available about gerbv at *
G04 http://gerbv.gpleda.org/ *
G04 --End of header info--*
%MOIN*%
%FSLAX34Y34*%
%IPPOS*%
G04 --Define apertures--*
%ADD10C,0.0050*%
%ADD11C,0.0079*%
%ADD12C,0.0118*%
%ADD13C,0.0138*%
%ADD14C,0.0016*%
%ADD15C,0.0100*%
G04 --Start main section--*
G54D11*
G01X0006342Y-011754D02*
G01X0008303Y-013715D01*
G01X0008303Y-011754D02*
G01X0006342Y-013715D01*
G01X0009492Y-011754D02*
G01X0011453Y-013715D01*
G01X0011453Y-011754D02*
G01X0009492Y-013715D01*
G54D12*
G01X0001069Y-001834D02*
G01X0001069Y-000652D01*
G01X0001069Y-000652D02*
G01X0001350Y-000652D01*
G01X0001350Y-000652D02*
G01X0001519Y-000709D01*
G01X0001519Y-000709D02*
G01X0001631Y-000821D01*
G01X0001631Y-000821D02*
G01X0001687Y-000934D01*
G01X0001687Y-000934D02*
G01X0001744Y-001159D01*
G01X0001744Y-001159D02*
G01X0001744Y-001327D01*
G01X0001744Y-001327D02*
G01X0001687Y-001552D01*
G01X0001687Y-001552D02*
G01X0001631Y-001665D01*
G01X0001631Y-001665D02*
G01X0001519Y-001777D01*
G01X0001519Y-001777D02*
G01X0001350Y-001834D01*
G01X0001350Y-001834D02*
G01X0001069Y-001834D01*
G01X0002250Y-001834D02*
G01X0002250Y-001046D01*
G01X0002250Y-001271D02*
G01X0002306Y-001159D01*
G01X0002306Y-001159D02*
G01X0002362Y-001102D01*
G01X0002362Y-001102D02*
G01X0002475Y-001046D01*
G01X0002475Y-001046D02*
G01X0002587Y-001046D01*
G01X0002981Y-001834D02*
G01X0002981Y-001046D01*
G01X0002981Y-000652D02*
G01X0002925Y-000709D01*
G01X0002925Y-000709D02*
G01X0002981Y-000765D01*
G01X0002981Y-000765D02*
G01X0003037Y-000709D01*
G01X0003037Y-000709D02*
G01X0002981Y-000652D01*
G01X0002981Y-000652D02*
G01X0002981Y-000765D01*
G01X0003712Y-001834D02*
G01X0003600Y-001777D01*
G01X0003600Y-001777D02*
G01X0003543Y-001665D01*
G01X0003543Y-001665D02*
G01X0003543Y-000652D01*
G01X0004331Y-001834D02*
G01X0004218Y-001777D01*
G01X0004218Y-001777D02*
G01X0004162Y-001665D01*
G01X0004162Y-001665D02*
G01X0004162Y-000652D01*
G01X0005681Y-001834D02*
G01X0005681Y-000652D01*
G01X0005681Y-000652D02*
G01X0006074Y-001496D01*
G01X0006074Y-001496D02*
G01X0006468Y-000652D01*
G01X0006468Y-000652D02*
G01X0006468Y-001834D01*
G01X0007537Y-001834D02*
G01X0007537Y-001215D01*
G01X0007537Y-001215D02*
G01X0007480Y-001102D01*
G01X0007480Y-001102D02*
G01X0007368Y-001046D01*
G01X0007368Y-001046D02*
G01X0007143Y-001046D01*
G01X0007143Y-001046D02*
G01X0007030Y-001102D01*
G01X0007537Y-001777D02*
G01X0007424Y-001834D01*
G01X0007424Y-001834D02*
G01X0007143Y-001834D01*
G01X0007143Y-001834D02*
G01X0007030Y-001777D01*
G01X0007030Y-001777D02*
G01X0006974Y-001665D01*
G01X0006974Y-001665D02*
G01X0006974Y-001552D01*
G01X0006974Y-001552D02*
G01X0007030Y-001440D01*
G01X0007030Y-001440D02*
G01X0007143Y-001384D01*
G01X0007143Y-001384D02*
G01X0007424Y-001384D01*
G01X0007424Y-001384D02*
G01X0007537Y-001327D01*
G01X0008099Y-001046D02*
G01X0008099Y-002227D01*
G01X0008099Y-001102D02*
G01X0008211Y-001046D01*
G01X0008211Y-001046D02*
G01X0008436Y-001046D01*
G01X0008436Y-001046D02*
G01X0008549Y-001102D01*
G01X0008549Y-001102D02*
G01X0008605Y-001159D01*
G01X0008605Y-001159D02*
G01X0008661Y-001271D01*
G01X0008661Y-001271D02*
G01X0008661Y-001609D01*
G01X0008661Y-001609D02*
G01X0008605Y-001721D01*
G01X0008605Y-001721D02*
G01X0008549Y-001777D01*
G01X0008549Y-001777D02*
G01X0008436Y-001834D01*
G01X0008436Y-001834D02*
G01X0008211Y-001834D01*
G01X0008211Y-001834D02*
G01X0008099Y-001777D01*
G01X0009168Y-001721D02*
G01X0009224Y-001777D01*
G01X0009224Y-001777D02*
G01X0009168Y-001834D01*
G01X0009168Y-001834D02*
G01X0009111Y-001777D01*
G01X0009111Y-001777D02*
G01X0009168Y-001721D01*
G01X0009168Y-001721D02*
G01X0009168Y-001834D01*
G01X0009168Y-001102D02*
G01X0009224Y-001159D01*
G01X0009224Y-001159D02*
G01X0009168Y-001215D01*
G01X0009168Y-001215D02*
G01X0009111Y-001159D01*
G01X0009111Y-001159D02*
G01X0009168Y-001102D01*
G01X0009168Y-001102D02*
G01X0009168Y-001215D01*
G01X-001961Y-002799D02*
G01X0000000Y-004760D01*
G01X0000000Y-002799D02*
G01X-001961Y-004760D01*
G01X0001575Y-003526D02*
G01X0001575Y-004314D01*
G01X0001294Y-003076D02*
G01X0001012Y-003920D01*
G01X0001012Y-003920D02*
G01X0001744Y-003920D01*
G01X0002193Y-004201D02*
G01X0002250Y-004258D01*
G01X0002250Y-004258D02*
G01X0002193Y-004314D01*
G01X0002193Y-004314D02*
G01X0002137Y-004258D01*
G01X0002137Y-004258D02*
G01X0002193Y-004201D01*
G01X0002193Y-004201D02*
G01X0002193Y-004314D01*
G01X0002812Y-004314D02*
G01X0003037Y-004314D01*
G01X0003037Y-004314D02*
G01X0003150Y-004258D01*
G01X0003150Y-004258D02*
G01X0003206Y-004201D01*
G01X0003206Y-004201D02*
G01X0003318Y-004033D01*
G01X0003318Y-004033D02*
G01X0003375Y-003808D01*
G01X0003375Y-003808D02*
G01X0003375Y-003358D01*
G01X0003375Y-003358D02*
G01X0003318Y-003245D01*
G01X0003318Y-003245D02*
G01X0003262Y-003189D01*
G01X0003262Y-003189D02*
G01X0003150Y-003133D01*
G01X0003150Y-003133D02*
G01X0002925Y-003133D01*
G01X0002925Y-003133D02*
G01X0002812Y-003189D01*
G01X0002812Y-003189D02*
G01X0002756Y-003245D01*
G01X0002756Y-003245D02*
G01X0002700Y-003358D01*
G01X0002700Y-003358D02*
G01X0002700Y-003639D01*
G01X0002700Y-003639D02*
G01X0002756Y-003751D01*
G01X0002756Y-003751D02*
G01X0002812Y-003808D01*
G01X0002812Y-003808D02*
G01X0002925Y-003864D01*
G01X0002925Y-003864D02*
G01X0003150Y-003864D01*
G01X0003150Y-003864D02*
G01X0003262Y-003808D01*
G01X0003262Y-003808D02*
G01X0003318Y-003751D01*
G01X0003318Y-003751D02*
G01X0003375Y-003639D01*
G01X0004049Y-003639D02*
G01X0003937Y-003583D01*
G01X0003937Y-003583D02*
G01X0003881Y-003526D01*
G01X0003881Y-003526D02*
G01X0003825Y-003414D01*
G01X0003825Y-003414D02*
G01X0003825Y-003358D01*
G01X0003825Y-003358D02*
G01X0003881Y-003245D01*
G01X0003881Y-003245D02*
G01X0003937Y-003189D01*
G01X0003937Y-003189D02*
G01X0004049Y-003133D01*
G01X0004049Y-003133D02*
G01X0004274Y-003133D01*
G01X0004274Y-003133D02*
G01X0004387Y-003189D01*
G01X0004387Y-003189D02*
G01X0004443Y-003245D01*
G01X0004443Y-003245D02*
G01X0004499Y-003358D01*
G01X0004499Y-003358D02*
G01X0004499Y-003414D01*
G01X0004499Y-003414D02*
G01X0004443Y-003526D01*
G01X0004443Y-003526D02*
G01X0004387Y-003583D01*
G01X0004387Y-003583D02*
G01X0004274Y-003639D01*
G01X0004274Y-003639D02*
G01X0004049Y-003639D01*
G01X0004049Y-003639D02*
G01X0003937Y-003695D01*
G01X0003937Y-003695D02*
G01X0003881Y-003751D01*
G01X0003881Y-003751D02*
G01X0003825Y-003864D01*
G01X0003825Y-003864D02*
G01X0003825Y-004089D01*
G01X0003825Y-004089D02*
G01X0003881Y-004201D01*
G01X0003881Y-004201D02*
G01X0003937Y-004258D01*
G01X0003937Y-004258D02*
G01X0004049Y-004314D01*
G01X0004049Y-004314D02*
G01X0004274Y-004314D01*
G01X0004274Y-004314D02*
G01X0004387Y-004258D01*
G01X0004387Y-004258D02*
G01X0004443Y-004201D01*
G01X0004443Y-004201D02*
G01X0004499Y-004089D01*
G01X0004499Y-004089D02*
G01X0004499Y-003864D01*
G01X0004499Y-003864D02*
G01X0004443Y-003751D01*
G01X0004443Y-003751D02*
G01X0004387Y-003695D01*
G01X0004387Y-003695D02*
G01X0004274Y-003639D01*
G01X0005006Y-004314D02*
G01X0005006Y-003526D01*
G01X0005006Y-003639D02*
G01X0005062Y-003583D01*
G01X0005062Y-003583D02*
G01X0005174Y-003526D01*
G01X0005174Y-003526D02*
G01X0005343Y-003526D01*
G01X0005343Y-003526D02*
G01X0005456Y-003583D01*
G01X0005456Y-003583D02*
G01X0005512Y-003695D01*
G01X0005512Y-003695D02*
G01X0005512Y-004314D01*
G01X0005512Y-003695D02*
G01X0005568Y-003583D01*
G01X0005568Y-003583D02*
G01X0005681Y-003526D01*
G01X0005681Y-003526D02*
G01X0005849Y-003526D01*
G01X0005849Y-003526D02*
G01X0005962Y-003583D01*
G01X0005962Y-003583D02*
G01X0006018Y-003695D01*
G01X0006018Y-003695D02*
G01X0006018Y-004314D01*
G01X0006580Y-004314D02*
G01X0006580Y-003526D01*
G01X0006580Y-003639D02*
G01X0006637Y-003583D01*
G01X0006637Y-003583D02*
G01X0006749Y-003526D01*
G01X0006749Y-003526D02*
G01X0006918Y-003526D01*
G01X0006918Y-003526D02*
G01X0007030Y-003583D01*
G01X0007030Y-003583D02*
G01X0007087Y-003695D01*
G01X0007087Y-003695D02*
G01X0007087Y-004314D01*
G01X0007087Y-003695D02*
G01X0007143Y-003583D01*
G01X0007143Y-003583D02*
G01X0007255Y-003526D01*
G01X0007255Y-003526D02*
G01X0007424Y-003526D01*
G01X0007424Y-003526D02*
G01X0007537Y-003583D01*
G01X0007537Y-003583D02*
G01X0007593Y-003695D01*
G01X0007593Y-003695D02*
G01X0007593Y-004314D01*
G01X0009899Y-003076D02*
G01X0008886Y-004595D01*
G01X0011417Y-003133D02*
G01X0011530Y-003133D01*
G01X0011530Y-003133D02*
G01X0011642Y-003189D01*
G01X0011642Y-003189D02*
G01X0011699Y-003245D01*
G01X0011699Y-003245D02*
G01X0011755Y-003358D01*
G01X0011755Y-003358D02*
G01X0011811Y-003583D01*
G01X0011811Y-003583D02*
G01X0011811Y-003864D01*
G01X0011811Y-003864D02*
G01X0011755Y-004089D01*
G01X0011755Y-004089D02*
G01X0011699Y-004201D01*
G01X0011699Y-004201D02*
G01X0011642Y-004258D01*
G01X0011642Y-004258D02*
G01X0011530Y-004314D01*
G01X0011530Y-004314D02*
G01X0011417Y-004314D01*
G01X0011417Y-004314D02*
G01X0011305Y-004258D01*
G01X0011305Y-004258D02*
G01X0011249Y-004201D01*
G01X0011249Y-004201D02*
G01X0011192Y-004089D01*
G01X0011192Y-004089D02*
G01X0011136Y-003864D01*
G01X0011136Y-003864D02*
G01X0011136Y-003583D01*
G01X0011136Y-003583D02*
G01X0011192Y-003358D01*
G01X0011192Y-003358D02*
G01X0011249Y-003245D01*
G01X0011249Y-003245D02*
G01X0011305Y-003189D01*
G01X0011305Y-003189D02*
G01X0011417Y-003133D01*
G01X0012317Y-004201D02*
G01X0012373Y-004258D01*
G01X0012373Y-004258D02*
G01X0012317Y-004314D01*
G01X0012317Y-004314D02*
G01X0012261Y-004258D01*
G01X0012261Y-004258D02*
G01X0012317Y-004201D01*
G01X0012317Y-004201D02*
G01X0012317Y-004314D01*
G01X0013498Y-004314D02*
G01X0012823Y-004314D01*
G01X0013161Y-004314D02*
G01X0013161Y-003133D01*
G01X0013161Y-003133D02*
G01X0013048Y-003301D01*
G01X0013048Y-003301D02*
G01X0012936Y-003414D01*
G01X0012936Y-003414D02*
G01X0012823Y-003470D01*
G01X0014061Y-004314D02*
G01X0014286Y-004314D01*
G01X0014286Y-004314D02*
G01X0014398Y-004258D01*
G01X0014398Y-004258D02*
G01X0014454Y-004201D01*
G01X0014454Y-004201D02*
G01X0014567Y-004033D01*
G01X0014567Y-004033D02*
G01X0014623Y-003808D01*
G01X0014623Y-003808D02*
G01X0014623Y-003358D01*
G01X0014623Y-003358D02*
G01X0014567Y-003245D01*
G01X0014567Y-003245D02*
G01X0014511Y-003189D01*
G01X0014511Y-003189D02*
G01X0014398Y-003133D01*
G01X0014398Y-003133D02*
G01X0014173Y-003133D01*
G01X0014173Y-003133D02*
G01X0014061Y-003189D01*
G01X0014061Y-003189D02*
G01X0014005Y-003245D01*
G01X0014005Y-003245D02*
G01X0013948Y-003358D01*
G01X0013948Y-003358D02*
G01X0013948Y-003639D01*
G01X0013948Y-003639D02*
G01X0014005Y-003751D01*
G01X0014005Y-003751D02*
G01X0014061Y-003808D01*
G01X0014061Y-003808D02*
G01X0014173Y-003864D01*
G01X0014173Y-003864D02*
G01X0014398Y-003864D01*
G01X0014398Y-003864D02*
G01X0014511Y-003808D01*
G01X0014511Y-003808D02*
G01X0014567Y-003751D01*
G01X0014567Y-003751D02*
G01X0014623Y-003639D01*
G01X0015636Y-003133D02*
G01X0015411Y-003133D01*
G01X0015411Y-003133D02*
G01X0015298Y-003189D01*
G01X0015298Y-003189D02*
G01X0015242Y-003245D01*
G01X0015242Y-003245D02*
G01X0015129Y-003414D01*
G01X0015129Y-003414D02*
G01X0015073Y-003639D01*
G01X0015073Y-003639D02*
G01X0015073Y-004089D01*
G01X0015073Y-004089D02*
G01X0015129Y-004201D01*
G01X0015129Y-004201D02*
G01X0015186Y-004258D01*
G01X0015186Y-004258D02*
G01X0015298Y-004314D01*
G01X0015298Y-004314D02*
G01X0015523Y-004314D01*
G01X0015523Y-004314D02*
G01X0015636Y-004258D01*
G01X0015636Y-004258D02*
G01X0015692Y-004201D01*
G01X0015692Y-004201D02*
G01X0015748Y-004089D01*
G01X0015748Y-004089D02*
G01X0015748Y-003808D01*
G01X0015748Y-003808D02*
G01X0015692Y-003695D01*
G01X0015692Y-003695D02*
G01X0015636Y-003639D01*
G01X0015636Y-003639D02*
G01X0015523Y-003583D01*
G01X0015523Y-003583D02*
G01X0015298Y-003583D01*
G01X0015298Y-003583D02*
G01X0015186Y-003639D01*
G01X0015186Y-003639D02*
G01X0015129Y-003695D01*
G01X0015129Y-003695D02*
G01X0015073Y-003808D01*
G01X0016198Y-003133D02*
G01X0016198Y-003358D01*
G01X0016648Y-003133D02*
G01X0016648Y-003358D01*
G01X0018391Y-004764D02*
G01X0018335Y-004708D01*
G01X0018335Y-004708D02*
G01X0018223Y-004539D01*
G01X0018223Y-004539D02*
G01X0018166Y-004426D01*
G01X0018166Y-004426D02*
G01X0018110Y-004258D01*
G01X0018110Y-004258D02*
G01X0018054Y-003976D01*
G01X0018054Y-003976D02*
G01X0018054Y-003751D01*
G01X0018054Y-003751D02*
G01X0018110Y-003470D01*
G01X0018110Y-003470D02*
G01X0018166Y-003301D01*
G01X0018166Y-003301D02*
G01X0018223Y-003189D01*
G01X0018223Y-003189D02*
G01X0018335Y-003020D01*
G01X0018335Y-003020D02*
G01X0018391Y-002964D01*
G01X0018785Y-003245D02*
G01X0018841Y-003189D01*
G01X0018841Y-003189D02*
G01X0018954Y-003133D01*
G01X0018954Y-003133D02*
G01X0019235Y-003133D01*
G01X0019235Y-003133D02*
G01X0019348Y-003189D01*
G01X0019348Y-003189D02*
G01X0019404Y-003245D01*
G01X0019404Y-003245D02*
G01X0019460Y-003358D01*
G01X0019460Y-003358D02*
G01X0019460Y-003470D01*
G01X0019460Y-003470D02*
G01X0019404Y-003639D01*
G01X0019404Y-003639D02*
G01X0018729Y-004314D01*
G01X0018729Y-004314D02*
G01X0019460Y-004314D01*
G01X0020866Y-004314D02*
G01X0020866Y-003133D01*
G01X0021372Y-004314D02*
G01X0021372Y-003695D01*
G01X0021372Y-003695D02*
G01X0021316Y-003583D01*
G01X0021316Y-003583D02*
G01X0021204Y-003526D01*
G01X0021204Y-003526D02*
G01X0021035Y-003526D01*
G01X0021035Y-003526D02*
G01X0020922Y-003583D01*
G01X0020922Y-003583D02*
G01X0020866Y-003639D01*
G01X0022103Y-004314D02*
G01X0021991Y-004258D01*
G01X0021991Y-004258D02*
G01X0021935Y-004201D01*
G01X0021935Y-004201D02*
G01X0021879Y-004089D01*
G01X0021879Y-004089D02*
G01X0021879Y-003751D01*
G01X0021879Y-003751D02*
G01X0021935Y-003639D01*
G01X0021935Y-003639D02*
G01X0021991Y-003583D01*
G01X0021991Y-003583D02*
G01X0022103Y-003526D01*
G01X0022103Y-003526D02*
G01X0022272Y-003526D01*
G01X0022272Y-003526D02*
G01X0022385Y-003583D01*
G01X0022385Y-003583D02*
G01X0022441Y-003639D01*
G01X0022441Y-003639D02*
G01X0022497Y-003751D01*
G01X0022497Y-003751D02*
G01X0022497Y-004089D01*
G01X0022497Y-004089D02*
G01X0022441Y-004201D01*
G01X0022441Y-004201D02*
G01X0022385Y-004258D01*
G01X0022385Y-004258D02*
G01X0022272Y-004314D01*
G01X0022272Y-004314D02*
G01X0022103Y-004314D01*
G01X0023172Y-004314D02*
G01X0023060Y-004258D01*
G01X0023060Y-004258D02*
G01X0023003Y-004145D01*
G01X0023003Y-004145D02*
G01X0023003Y-003133D01*
G01X0024072Y-004258D02*
G01X0023960Y-004314D01*
G01X0023960Y-004314D02*
G01X0023735Y-004314D01*
G01X0023735Y-004314D02*
G01X0023622Y-004258D01*
G01X0023622Y-004258D02*
G01X0023566Y-004145D01*
G01X0023566Y-004145D02*
G01X0023566Y-003695D01*
G01X0023566Y-003695D02*
G01X0023622Y-003583D01*
G01X0023622Y-003583D02*
G01X0023735Y-003526D01*
G01X0023735Y-003526D02*
G01X0023960Y-003526D01*
G01X0023960Y-003526D02*
G01X0024072Y-003583D01*
G01X0024072Y-003583D02*
G01X0024128Y-003695D01*
G01X0024128Y-003695D02*
G01X0024128Y-003808D01*
G01X0024128Y-003808D02*
G01X0023566Y-003920D01*
G01X0024578Y-004258D02*
G01X0024691Y-004314D01*
G01X0024691Y-004314D02*
G01X0024916Y-004314D01*
G01X0024916Y-004314D02*
G01X0025028Y-004258D01*
G01X0025028Y-004258D02*
G01X0025084Y-004145D01*
G01X0025084Y-004145D02*
G01X0025084Y-004089D01*
G01X0025084Y-004089D02*
G01X0025028Y-003976D01*
G01X0025028Y-003976D02*
G01X0024916Y-003920D01*
G01X0024916Y-003920D02*
G01X0024747Y-003920D01*
G01X0024747Y-003920D02*
G01X0024634Y-003864D01*
G01X0024634Y-003864D02*
G01X0024578Y-003751D01*
G01X0024578Y-003751D02*
G01X0024578Y-003695D01*
G01X0024578Y-003695D02*
G01X0024634Y-003583D01*
G01X0024634Y-003583D02*
G01X0024747Y-003526D01*
G01X0024747Y-003526D02*
G01X0024916Y-003526D01*
G01X0024916Y-003526D02*
G01X0025028Y-003583D01*
G01X0025478Y-004764D02*
G01X0025534Y-004708D01*
G01X0025534Y-004708D02*
G01X0025647Y-004539D01*
G01X0025647Y-004539D02*
G01X0025703Y-004426D01*
G01X0025703Y-004426D02*
G01X0025759Y-004258D01*
G01X0025759Y-004258D02*
G01X0025816Y-003976D01*
G01X0025816Y-003976D02*
G01X0025816Y-003751D01*
G01X0025816Y-003751D02*
G01X0025759Y-003470D01*
G01X0025759Y-003470D02*
G01X0025703Y-003301D01*
G01X0025703Y-003301D02*
G01X0025647Y-003189D01*
G01X0025647Y-003189D02*
G01X0025534Y-003020D01*
G01X0025534Y-003020D02*
G01X0025478Y-002964D01*
G01X0000000Y0000000D02*
G54D14*
G01X0010512Y-011199D02*
G01X0007283Y-011199D01*
G01X0010447Y-014270D02*
G75*
G03X0010472Y-011199I-000014J0001536D01*
G01X0007323Y-011199D02*
G75*
G03X0007362Y-014270I0000000J-001536D01*
G01X0010472Y-014270D02*
G01X0007362Y-014270D01*
G01X0000000Y0000000D02*
G54D15*
G01X0000911Y-024369D02*
G01X0000578Y-024369D01*
G01X0000578Y-024892D02*
G01X0000578Y-023892D01*
G01X0000578Y-023892D02*
G01X0001054Y-023892D01*
G01X0001388Y-024607D02*
G01X0001864Y-024607D01*
G01X0001292Y-024892D02*
G01X0001626Y-023892D01*
G01X0001626Y-023892D02*
G01X0001959Y-024892D01*
G01X0002626Y-024369D02*
G01X0002769Y-024416D01*
G01X0002769Y-024416D02*
G01X0002816Y-024464D01*
G01X0002816Y-024464D02*
G01X0002864Y-024559D01*
G01X0002864Y-024559D02*
G01X0002864Y-024702D01*
G01X0002864Y-024702D02*
G01X0002816Y-024797D01*
G01X0002816Y-024797D02*
G01X0002769Y-024845D01*
G01X0002769Y-024845D02*
G01X0002673Y-024892D01*
G01X0002673Y-024892D02*
G01X0002292Y-024892D01*
G01X0002292Y-024892D02*
G01X0002292Y-023892D01*
G01X0002292Y-023892D02*
G01X0002626Y-023892D01*
G01X0002626Y-023892D02*
G01X0002721Y-023940D01*
G01X0002721Y-023940D02*
G01X0002769Y-023988D01*
G01X0002769Y-023988D02*
G01X0002816Y-024083D01*
G01X0002816Y-024083D02*
G01X0002816Y-024178D01*
G01X0002816Y-024178D02*
G01X0002769Y-024273D01*
G01X0002769Y-024273D02*
G01X0002721Y-024321D01*
G01X0002721Y-024321D02*
G01X0002626Y-024369D01*
G01X0002626Y-024369D02*
G01X0002292Y-024369D01*
G01X0003864Y-024892D02*
G01X0003530Y-024416D01*
G01X0003292Y-024892D02*
G01X0003292Y-023892D01*
G01X0003292Y-023892D02*
G01X0003673Y-023892D01*
G01X0003673Y-023892D02*
G01X0003769Y-023940D01*
G01X0003769Y-023940D02*
G01X0003816Y-023988D01*
G01X0003816Y-023988D02*
G01X0003864Y-024083D01*
G01X0003864Y-024083D02*
G01X0003864Y-024226D01*
G01X0003864Y-024226D02*
G01X0003816Y-024321D01*
G01X0003816Y-024321D02*
G01X0003769Y-024369D01*
G01X0003769Y-024369D02*
G01X0003673Y-024416D01*
G01X0003673Y-024416D02*
G01X0003292Y-024416D01*
G01X0004292Y-024892D02*
G01X0004292Y-023892D01*
G01X0005340Y-024797D02*
G01X0005292Y-024845D01*
G01X0005292Y-024845D02*
G01X0005150Y-024892D01*
G01X0005150Y-024892D02*
G01X0005054Y-024892D01*
G01X0005054Y-024892D02*
G01X0004911Y-024845D01*
G01X0004911Y-024845D02*
G01X0004816Y-024750D01*
G01X0004816Y-024750D02*
G01X0004769Y-024654D01*
G01X0004769Y-024654D02*
G01X0004721Y-024464D01*
G01X0004721Y-024464D02*
G01X0004721Y-024321D01*
G01X0004721Y-024321D02*
G01X0004769Y-024130D01*
G01X0004769Y-024130D02*
G01X0004816Y-024035D01*
G01X0004816Y-024035D02*
G01X0004911Y-023940D01*
G01X0004911Y-023940D02*
G01X0005054Y-023892D01*
G01X0005054Y-023892D02*
G01X0005150Y-023892D01*
G01X0005150Y-023892D02*
G01X0005292Y-023940D01*
G01X0005292Y-023940D02*
G01X0005340Y-023988D01*
G01X0005721Y-024607D02*
G01X0006197Y-024607D01*
G01X0005626Y-024892D02*
G01X0005959Y-023892D01*
G01X0005959Y-023892D02*
G01X0006292Y-024892D01*
G01X0006483Y-023892D02*
G01X0007054Y-023892D01*
G01X0006769Y-024892D02*
G01X0006769Y-023892D01*
G01X0007388Y-024892D02*
G01X0007388Y-023892D01*
G01X0008054Y-023892D02*
G01X0008245Y-023892D01*
G01X0008245Y-023892D02*
G01X0008340Y-023940D01*
G01X0008340Y-023940D02*
G01X0008435Y-024035D01*
G01X0008435Y-024035D02*
G01X0008483Y-024226D01*
G01X0008483Y-024226D02*
G01X0008483Y-024559D01*
G01X0008483Y-024559D02*
G01X0008435Y-024750D01*
G01X0008435Y-024750D02*
G01X0008340Y-024845D01*
G01X0008340Y-024845D02*
G01X0008245Y-024892D01*
G01X0008245Y-024892D02*
G01X0008054Y-024892D01*
G01X0008054Y-024892D02*
G01X0007959Y-024845D01*
G01X0007959Y-024845D02*
G01X0007864Y-024750D01*
G01X0007864Y-024750D02*
G01X0007816Y-024559D01*
G01X0007816Y-024559D02*
G01X0007816Y-024226D01*
G01X0007816Y-024226D02*
G01X0007864Y-024035D01*
G01X0007864Y-024035D02*
G01X0007959Y-023940D01*
G01X0007959Y-023940D02*
G01X0008054Y-023892D01*
G01X0008911Y-024892D02*
G01X0008911Y-023892D01*
G01X0008911Y-023892D02*
G01X0009483Y-024892D01*
G01X0009483Y-024892D02*
G01X0009483Y-023892D01*
G01X0010721Y-024892D02*
G01X0010721Y-023892D01*
G01X0010721Y-023892D02*
G01X0011292Y-024892D01*
G01X0011292Y-024892D02*
G01X0011292Y-023892D01*
G01X0011959Y-023892D02*
G01X0012150Y-023892D01*
G01X0012150Y-023892D02*
G01X0012245Y-023940D01*
G01X0012245Y-023940D02*
G01X0012340Y-024035D01*
G01X0012340Y-024035D02*
G01X0012388Y-024226D01*
G01X0012388Y-024226D02*
G01X0012388Y-024559D01*
G01X0012388Y-024559D02*
G01X0012340Y-024750D01*
G01X0012340Y-024750D02*
G01X0012245Y-024845D01*
G01X0012245Y-024845D02*
G01X0012150Y-024892D01*
G01X0012150Y-024892D02*
G01X0011959Y-024892D01*
G01X0011959Y-024892D02*
G01X0011864Y-024845D01*
G01X0011864Y-024845D02*
G01X0011769Y-024750D01*
G01X0011769Y-024750D02*
G01X0011721Y-024559D01*
G01X0011721Y-024559D02*
G01X0011721Y-024226D01*
G01X0011721Y-024226D02*
G01X0011769Y-024035D01*
G01X0011769Y-024035D02*
G01X0011864Y-023940D01*
G01X0011864Y-023940D02*
G01X0011959Y-023892D01*
G01X0012673Y-023892D02*
G01X0013245Y-023892D01*
G01X0012959Y-024892D02*
G01X0012959Y-023892D01*
G01X0013578Y-024369D02*
G01X0013911Y-024369D01*
G01X0014054Y-024892D02*
G01X0013578Y-024892D01*
G01X0013578Y-024892D02*
G01X0013578Y-023892D01*
G01X0013578Y-023892D02*
G01X0014054Y-023892D01*
G01X0014435Y-024845D02*
G01X0014578Y-024892D01*
G01X0014578Y-024892D02*
G01X0014816Y-024892D01*
G01X0014816Y-024892D02*
G01X0014911Y-024845D01*
G01X0014911Y-024845D02*
G01X0014959Y-024797D01*
G01X0014959Y-024797D02*
G01X0015007Y-024702D01*
G01X0015007Y-024702D02*
G01X0015007Y-024607D01*
G01X0015007Y-024607D02*
G01X0014959Y-024511D01*
G01X0014959Y-024511D02*
G01X0014911Y-024464D01*
G01X0014911Y-024464D02*
G01X0014816Y-024416D01*
G01X0014816Y-024416D02*
G01X0014626Y-024369D01*
G01X0014626Y-024369D02*
G01X0014530Y-024321D01*
G01X0014530Y-024321D02*
G01X0014483Y-024273D01*
G01X0014483Y-024273D02*
G01X0014435Y-024178D01*
G01X0014435Y-024178D02*
G01X0014435Y-024083D01*
G01X0014435Y-024083D02*
G01X0014483Y-023988D01*
G01X0014483Y-023988D02*
G01X0014530Y-023940D01*
G01X0014530Y-023940D02*
G01X0014626Y-023892D01*
G01X0014626Y-023892D02*
G01X0014864Y-023892D01*
G01X0014864Y-023892D02*
G01X0015007Y-023940D01*
G01X0001102Y-028092D02*
G01X0000530Y-028092D01*
G01X0000816Y-028092D02*
G01X0000816Y-027092D01*
G01X0000816Y-027092D02*
G01X0000721Y-027235D01*
G01X0000721Y-027235D02*
G01X0000626Y-027330D01*
G01X0000626Y-027330D02*
G01X0000530Y-027378D01*
G01X0001530Y-027997D02*
G01X0001578Y-028045D01*
G01X0001578Y-028045D02*
G01X0001530Y-028092D01*
G01X0001530Y-028092D02*
G01X0001483Y-028045D01*
G01X0001483Y-028045D02*
G01X0001530Y-027997D01*
G01X0001530Y-027997D02*
G01X0001530Y-028092D01*
G01X0002769Y-028092D02*
G01X0002769Y-027092D01*
G01X0002769Y-027092D02*
G01X0003102Y-027807D01*
G01X0003102Y-027807D02*
G01X0003435Y-027092D01*
G01X0003435Y-027092D02*
G01X0003435Y-028092D01*
G01X0003864Y-027807D02*
G01X0004340Y-027807D01*
G01X0003769Y-028092D02*
G01X0004102Y-027092D01*
G01X0004102Y-027092D02*
G01X0004435Y-028092D01*
G01X0004626Y-027092D02*
G01X0005197Y-027092D01*
G01X0004911Y-028092D02*
G01X0004911Y-027092D01*
G01X0005530Y-027569D02*
G01X0005864Y-027569D01*
G01X0006007Y-028092D02*
G01X0005530Y-028092D01*
G01X0005530Y-028092D02*
G01X0005530Y-027092D01*
G01X0005530Y-027092D02*
G01X0006007Y-027092D01*
G01X0007007Y-028092D02*
G01X0006673Y-027616D01*
G01X0006435Y-028092D02*
G01X0006435Y-027092D01*
G01X0006435Y-027092D02*
G01X0006816Y-027092D01*
G01X0006816Y-027092D02*
G01X0006911Y-027140D01*
G01X0006911Y-027140D02*
G01X0006959Y-027188D01*
G01X0006959Y-027188D02*
G01X0007007Y-027283D01*
G01X0007007Y-027283D02*
G01X0007007Y-027426D01*
G01X0007007Y-027426D02*
G01X0006959Y-027521D01*
G01X0006959Y-027521D02*
G01X0006911Y-027569D01*
G01X0006911Y-027569D02*
G01X0006816Y-027616D01*
G01X0006816Y-027616D02*
G01X0006435Y-027616D01*
G01X0007435Y-028092D02*
G01X0007435Y-027092D01*
G01X0007864Y-027807D02*
G01X0008340Y-027807D01*
G01X0007769Y-028092D02*
G01X0008102Y-027092D01*
G01X0008102Y-027092D02*
G01X0008435Y-028092D01*
G01X0009245Y-028092D02*
G01X0008769Y-028092D01*
G01X0008769Y-028092D02*
G01X0008769Y-027092D01*
G01X0010340Y-027997D02*
G01X0010388Y-028045D01*
G01X0010388Y-028045D02*
G01X0010340Y-028092D01*
G01X0010340Y-028092D02*
G01X0010292Y-028045D01*
G01X0010292Y-028045D02*
G01X0010340Y-027997D01*
G01X0010340Y-027997D02*
G01X0010340Y-028092D01*
G01X0011007Y-027092D02*
G01X0011102Y-027092D01*
G01X0011102Y-027092D02*
G01X0011197Y-027140D01*
G01X0011197Y-027140D02*
G01X0011245Y-027188D01*
G01X0011245Y-027188D02*
G01X0011292Y-027283D01*
G01X0011292Y-027283D02*
G01X0011340Y-027473D01*
G01X0011340Y-027473D02*
G01X0011340Y-027711D01*
G01X0011340Y-027711D02*
G01X0011292Y-027902D01*
G01X0011292Y-027902D02*
G01X0011245Y-027997D01*
G01X0011245Y-027997D02*
G01X0011197Y-028045D01*
G01X0011197Y-028045D02*
G01X0011102Y-028092D01*
G01X0011102Y-028092D02*
G01X0011007Y-028092D01*
G01X0011007Y-028092D02*
G01X0010911Y-028045D01*
G01X0010911Y-028045D02*
G01X0010864Y-027997D01*
G01X0010864Y-027997D02*
G01X0010816Y-027902D01*
G01X0010816Y-027902D02*
G01X0010769Y-027711D01*
G01X0010769Y-027711D02*
G01X0010769Y-027473D01*
G01X0010769Y-027473D02*
G01X0010816Y-027283D01*
G01X0010816Y-027283D02*
G01X0010864Y-027188D01*
G01X0010864Y-027188D02*
G01X0010911Y-027140D01*
G01X0010911Y-027140D02*
G01X0011007Y-027092D01*
G01X0012197Y-027092D02*
G01X0012007Y-027092D01*
G01X0012007Y-027092D02*
G01X0011911Y-027140D01*
G01X0011911Y-027140D02*
G01X0011864Y-027188D01*
G01X0011864Y-027188D02*
G01X0011769Y-027330D01*
G01X0011769Y-027330D02*
G01X0011721Y-027521D01*
G01X0011721Y-027521D02*
G01X0011721Y-027902D01*
G01X0011721Y-027902D02*
G01X0011769Y-027997D01*
G01X0011769Y-027997D02*
G01X0011816Y-028045D01*
G01X0011816Y-028045D02*
G01X0011911Y-028092D01*
G01X0011911Y-028092D02*
G01X0012102Y-028092D01*
G01X0012102Y-028092D02*
G01X0012197Y-028045D01*
G01X0012197Y-028045D02*
G01X0012245Y-027997D01*
G01X0012245Y-027997D02*
G01X0012292Y-027902D01*
G01X0012292Y-027902D02*
G01X0012292Y-027664D01*
G01X0012292Y-027664D02*
G01X0012245Y-027569D01*
G01X0012245Y-027569D02*
G01X0012197Y-027521D01*
G01X0012197Y-027521D02*
G01X0012102Y-027473D01*
G01X0012102Y-027473D02*
G01X0011911Y-027473D01*
G01X0011911Y-027473D02*
G01X0011816Y-027521D01*
G01X0011816Y-027521D02*
G01X0011769Y-027569D01*
G01X0011769Y-027569D02*
G01X0011721Y-027664D01*
G01X0012673Y-027188D02*
G01X0012721Y-027140D01*
G01X0012721Y-027140D02*
G01X0012816Y-027092D01*
G01X0012816Y-027092D02*
G01X0013054Y-027092D01*
G01X0013054Y-027092D02*
G01X0013150Y-027140D01*
G01X0013150Y-027140D02*
G01X0013197Y-027188D01*
G01X0013197Y-027188D02*
G01X0013245Y-027283D01*
G01X0013245Y-027283D02*
G01X0013245Y-027378D01*
G01X0013245Y-027378D02*
G01X0013197Y-027521D01*
G01X0013197Y-027521D02*
G01X0012626Y-028092D01*
G01X0012626Y-028092D02*
G01X0013245Y-028092D01*
G01X0014435Y-028092D02*
G01X0014435Y-027092D01*
G01X0014911Y-028092D02*
G01X0014911Y-027092D01*
G01X0014911Y-027092D02*
G01X0015483Y-028092D01*
G01X0015483Y-028092D02*
G01X0015483Y-027092D01*
G01X0016530Y-027997D02*
G01X0016483Y-028045D01*
G01X0016483Y-028045D02*
G01X0016340Y-028092D01*
G01X0016340Y-028092D02*
G01X0016245Y-028092D01*
G01X0016245Y-028092D02*
G01X0016102Y-028045D01*
G01X0016102Y-028045D02*
G01X0016007Y-027950D01*
G01X0016007Y-027950D02*
G01X0015959Y-027854D01*
G01X0015959Y-027854D02*
G01X0015911Y-027664D01*
G01X0015911Y-027664D02*
G01X0015911Y-027521D01*
G01X0015911Y-027521D02*
G01X0015959Y-027330D01*
G01X0015959Y-027330D02*
G01X0016007Y-027235D01*
G01X0016007Y-027235D02*
G01X0016102Y-027140D01*
G01X0016102Y-027140D02*
G01X0016245Y-027092D01*
G01X0016245Y-027092D02*
G01X0016340Y-027092D01*
G01X0016340Y-027092D02*
G01X0016483Y-027140D01*
G01X0016483Y-027140D02*
G01X0016530Y-027188D01*
G01X0016959Y-028092D02*
G01X0016959Y-027092D01*
G01X0016959Y-027569D02*
G01X0017530Y-027569D01*
G01X0017530Y-028092D02*
G01X0017530Y-027092D01*
G01X0018769Y-027711D02*
G01X0019530Y-027711D01*
G01X0019150Y-028092D02*
G01X0019150Y-027330D01*
G01X0020721Y-027045D02*
G01X0019864Y-028330D01*
G01X0021054Y-027711D02*
G01X0021816Y-027711D01*
G01X0023578Y-028092D02*
G01X0023007Y-028092D01*
G01X0023292Y-028092D02*
G01X0023292Y-027092D01*
G01X0023292Y-027092D02*
G01X0023197Y-027235D01*
G01X0023197Y-027235D02*
G01X0023102Y-027330D01*
G01X0023102Y-027330D02*
G01X0023007Y-027378D01*
G01X0024197Y-027092D02*
G01X0024292Y-027092D01*
G01X0024292Y-027092D02*
G01X0024388Y-027140D01*
G01X0024388Y-027140D02*
G01X0024435Y-027188D01*
G01X0024435Y-027188D02*
G01X0024483Y-027283D01*
G01X0024483Y-027283D02*
G01X0024530Y-027473D01*
G01X0024530Y-027473D02*
G01X0024530Y-027711D01*
G01X0024530Y-027711D02*
G01X0024483Y-027902D01*
G01X0024483Y-027902D02*
G01X0024435Y-027997D01*
G01X0024435Y-027997D02*
G01X0024388Y-028045D01*
G01X0024388Y-028045D02*
G01X0024292Y-028092D01*
G01X0024292Y-028092D02*
G01X0024197Y-028092D01*
G01X0024197Y-028092D02*
G01X0024102Y-028045D01*
G01X0024102Y-028045D02*
G01X0024054Y-027997D01*
G01X0024054Y-027997D02*
G01X0024007Y-027902D01*
G01X0024007Y-027902D02*
G01X0023959Y-027711D01*
G01X0023959Y-027711D02*
G01X0023959Y-027473D01*
G01X0023959Y-027473D02*
G01X0024007Y-027283D01*
G01X0024007Y-027283D02*
G01X0024054Y-027188D01*
G01X0024054Y-027188D02*
G01X0024102Y-027140D01*
G01X0024102Y-027140D02*
G01X0024197Y-027092D01*
G01X0024911Y-028092D02*
G01X0025673Y-027092D01*
G01X0025054Y-027092D02*
G01X0025150Y-027140D01*
G01X0025150Y-027140D02*
G01X0025197Y-027235D01*
G01X0025197Y-027235D02*
G01X0025150Y-027330D01*
G01X0025150Y-027330D02*
G01X0025054Y-027378D01*
G01X0025054Y-027378D02*
G01X0024959Y-027330D01*
G01X0024959Y-027330D02*
G01X0024911Y-027235D01*
G01X0024911Y-027235D02*
G01X0024959Y-027140D01*
G01X0024959Y-027140D02*
G01X0025054Y-027092D01*
G01X0025626Y-028045D02*
G01X0025673Y-027950D01*
G01X0025673Y-027950D02*
G01X0025626Y-027854D01*
G01X0025626Y-027854D02*
G01X0025530Y-027807D01*
G01X0025530Y-027807D02*
G01X0025435Y-027854D01*
G01X0025435Y-027854D02*
G01X0025388Y-027950D01*
G01X0025388Y-027950D02*
G01X0025435Y-028045D01*
G01X0025435Y-028045D02*
G01X0025530Y-028092D01*
G01X0025530Y-028092D02*
G01X0025626Y-028045D01*
G01X0026721Y-027092D02*
G01X0027292Y-027092D01*
G01X0027007Y-028092D02*
G01X0027007Y-027092D01*
G01X0027626Y-028092D02*
G01X0027626Y-027092D01*
G01X0027626Y-027569D02*
G01X0028197Y-027569D01*
G01X0028197Y-028092D02*
G01X0028197Y-027092D01*
G01X0028673Y-028092D02*
G01X0028673Y-027092D01*
G01X0029721Y-027997D02*
G01X0029673Y-028045D01*
G01X0029673Y-028045D02*
G01X0029530Y-028092D01*
G01X0029530Y-028092D02*
G01X0029435Y-028092D01*
G01X0029435Y-028092D02*
G01X0029292Y-028045D01*
G01X0029292Y-028045D02*
G01X0029197Y-027950D01*
G01X0029197Y-027950D02*
G01X0029150Y-027854D01*
G01X0029150Y-027854D02*
G01X0029102Y-027664D01*
G01X0029102Y-027664D02*
G01X0029102Y-027521D01*
G01X0029102Y-027521D02*
G01X0029150Y-027330D01*
G01X0029150Y-027330D02*
G01X0029197Y-027235D01*
G01X0029197Y-027235D02*
G01X0029292Y-027140D01*
G01X0029292Y-027140D02*
G01X0029435Y-027092D01*
G01X0029435Y-027092D02*
G01X0029530Y-027092D01*
G01X0029530Y-027092D02*
G01X0029673Y-027140D01*
G01X0029673Y-027140D02*
G01X0029721Y-027188D01*
G01X0030150Y-028092D02*
G01X0030150Y-027092D01*
G01X0030721Y-028092D02*
G01X0030292Y-027521D01*
G01X0030721Y-027092D02*
G01X0030150Y-027664D01*
G01X0032245Y-027569D02*
G01X0031911Y-027569D01*
G01X0031911Y-028092D02*
G01X0031911Y-027092D01*
G01X0031911Y-027092D02*
G01X0032388Y-027092D01*
G01X0033340Y-028092D02*
G01X0033007Y-027616D01*
G01X0032769Y-028092D02*
G01X0032769Y-027092D01*
G01X0032769Y-027092D02*
G01X0033150Y-027092D01*
G01X0033150Y-027092D02*
G01X0033245Y-027140D01*
G01X0033245Y-027140D02*
G01X0033292Y-027188D01*
G01X0033292Y-027188D02*
G01X0033340Y-027283D01*
G01X0033340Y-027283D02*
G01X0033340Y-027426D01*
G01X0033340Y-027426D02*
G01X0033292Y-027521D01*
G01X0033292Y-027521D02*
G01X0033245Y-027569D01*
G01X0033245Y-027569D02*
G01X0033150Y-027616D01*
G01X0033150Y-027616D02*
G01X0032769Y-027616D01*
G01X0034197Y-027426D02*
G01X0034197Y-028092D01*
G01X0033959Y-027045D02*
G01X0033721Y-027759D01*
G01X0033721Y-027759D02*
G01X0034340Y-027759D01*
G01X0034721Y-027997D02*
G01X0034769Y-028045D01*
G01X0034769Y-028045D02*
G01X0034721Y-028092D01*
G01X0034721Y-028092D02*
G01X0034673Y-028045D01*
G01X0034673Y-028045D02*
G01X0034721Y-027997D01*
G01X0034721Y-027997D02*
G01X0034721Y-028092D01*
G01X0036483Y-028092D02*
G01X0035911Y-028092D01*
G01X0036197Y-028092D02*
G01X0036197Y-027092D01*
G01X0036197Y-027092D02*
G01X0036102Y-027235D01*
G01X0036102Y-027235D02*
G01X0036007Y-027330D01*
G01X0036007Y-027330D02*
G01X0035911Y-027378D01*
G01X0037864Y-027092D02*
G01X0038054Y-027092D01*
G01X0038054Y-027092D02*
G01X0038150Y-027140D01*
G01X0038150Y-027140D02*
G01X0038245Y-027235D01*
G01X0038245Y-027235D02*
G01X0038292Y-027426D01*
G01X0038292Y-027426D02*
G01X0038292Y-027759D01*
G01X0038292Y-027759D02*
G01X0038245Y-027950D01*
G01X0038245Y-027950D02*
G01X0038150Y-028045D01*
G01X0038150Y-028045D02*
G01X0038054Y-028092D01*
G01X0038054Y-028092D02*
G01X0037864Y-028092D01*
G01X0037864Y-028092D02*
G01X0037769Y-028045D01*
G01X0037769Y-028045D02*
G01X0037673Y-027950D01*
G01X0037673Y-027950D02*
G01X0037626Y-027759D01*
G01X0037626Y-027759D02*
G01X0037626Y-027426D01*
G01X0037626Y-027426D02*
G01X0037673Y-027235D01*
G01X0037673Y-027235D02*
G01X0037769Y-027140D01*
G01X0037769Y-027140D02*
G01X0037864Y-027092D01*
G01X0038626Y-027092D02*
G01X0039292Y-027092D01*
G01X0039292Y-027092D02*
G01X0038626Y-028092D01*
G01X0038626Y-028092D02*
G01X0039292Y-028092D01*
G01X0041007Y-027997D02*
G01X0040959Y-028045D01*
G01X0040959Y-028045D02*
G01X0040816Y-028092D01*
G01X0040816Y-028092D02*
G01X0040721Y-028092D01*
G01X0040721Y-028092D02*
G01X0040578Y-028045D01*
G01X0040578Y-028045D02*
G01X0040483Y-027950D01*
G01X0040483Y-027950D02*
G01X0040435Y-027854D01*
G01X0040435Y-027854D02*
G01X0040388Y-027664D01*
G01X0040388Y-027664D02*
G01X0040388Y-027521D01*
G01X0040388Y-027521D02*
G01X0040435Y-027330D01*
G01X0040435Y-027330D02*
G01X0040483Y-027235D01*
G01X0040483Y-027235D02*
G01X0040578Y-027140D01*
G01X0040578Y-027140D02*
G01X0040721Y-027092D01*
G01X0040721Y-027092D02*
G01X0040816Y-027092D01*
G01X0040816Y-027092D02*
G01X0040959Y-027140D01*
G01X0040959Y-027140D02*
G01X0041007Y-027188D01*
G01X0041626Y-027092D02*
G01X0041816Y-027092D01*
G01X0041816Y-027092D02*
G01X0041911Y-027140D01*
G01X0041911Y-027140D02*
G01X0042007Y-027235D01*
G01X0042007Y-027235D02*
G01X0042054Y-027426D01*
G01X0042054Y-027426D02*
G01X0042054Y-027759D01*
G01X0042054Y-027759D02*
G01X0042007Y-027950D01*
G01X0042007Y-027950D02*
G01X0041911Y-028045D01*
G01X0041911Y-028045D02*
G01X0041816Y-028092D01*
G01X0041816Y-028092D02*
G01X0041626Y-028092D01*
G01X0041626Y-028092D02*
G01X0041530Y-028045D01*
G01X0041530Y-028045D02*
G01X0041435Y-027950D01*
G01X0041435Y-027950D02*
G01X0041388Y-027759D01*
G01X0041388Y-027759D02*
G01X0041388Y-027426D01*
G01X0041388Y-027426D02*
G01X0041435Y-027235D01*
G01X0041435Y-027235D02*
G01X0041530Y-027140D01*
G01X0041530Y-027140D02*
G01X0041626Y-027092D01*
G01X0042483Y-028092D02*
G01X0042483Y-027092D01*
G01X0042483Y-027092D02*
G01X0042864Y-027092D01*
G01X0042864Y-027092D02*
G01X0042959Y-027140D01*
G01X0042959Y-027140D02*
G01X0043007Y-027188D01*
G01X0043007Y-027188D02*
G01X0043054Y-027283D01*
G01X0043054Y-027283D02*
G01X0043054Y-027426D01*
G01X0043054Y-027426D02*
G01X0043007Y-027521D01*
G01X0043007Y-027521D02*
G01X0042959Y-027569D01*
G01X0042959Y-027569D02*
G01X0042864Y-027616D01*
G01X0042864Y-027616D02*
G01X0042483Y-027616D01*
G01X0043483Y-028092D02*
G01X0043483Y-027092D01*
G01X0043483Y-027092D02*
G01X0043864Y-027092D01*
G01X0043864Y-027092D02*
G01X0043959Y-027140D01*
G01X0043959Y-027140D02*
G01X0044007Y-027188D01*
G01X0044007Y-027188D02*
G01X0044054Y-027283D01*
G01X0044054Y-027283D02*
G01X0044054Y-027426D01*
G01X0044054Y-027426D02*
G01X0044007Y-027521D01*
G01X0044007Y-027521D02*
G01X0043959Y-027569D01*
G01X0043959Y-027569D02*
G01X0043864Y-027616D01*
G01X0043864Y-027616D02*
G01X0043483Y-027616D01*
G01X0044483Y-027569D02*
G01X0044816Y-027569D01*
G01X0044959Y-028092D02*
G01X0044483Y-028092D01*
G01X0044483Y-028092D02*
G01X0044483Y-027092D01*
G01X0044483Y-027092D02*
G01X0044959Y-027092D01*
G01X0045959Y-028092D02*
G01X0045626Y-027616D01*
G01X0045388Y-028092D02*
G01X0045388Y-027092D01*
G01X0045388Y-027092D02*
G01X0045769Y-027092D01*
G01X0045769Y-027092D02*
G01X0045864Y-027140D01*
G01X0045864Y-027140D02*
G01X0045911Y-027188D01*
G01X0045911Y-027188D02*
G01X0045959Y-027283D01*
G01X0045959Y-027283D02*
G01X0045959Y-027426D01*
G01X0045959Y-027426D02*
G01X0045911Y-027521D01*
G01X0045911Y-027521D02*
G01X0045864Y-027569D01*
G01X0045864Y-027569D02*
G01X0045769Y-027616D01*
G01X0045769Y-027616D02*
G01X0045388Y-027616D01*
G01X0046388Y-027997D02*
G01X0046435Y-028045D01*
G01X0046435Y-028045D02*
G01X0046388Y-028092D01*
G01X0046388Y-028092D02*
G01X0046340Y-028045D01*
G01X0046340Y-028045D02*
G01X0046388Y-027997D01*
G01X0046388Y-027997D02*
G01X0046388Y-028092D01*
G01X0000530Y-028788D02*
G01X0000578Y-028740D01*
G01X0000578Y-028740D02*
G01X0000673Y-028692D01*
G01X0000673Y-028692D02*
G01X0000911Y-028692D01*
G01X0000911Y-028692D02*
G01X0001007Y-028740D01*
G01X0001007Y-028740D02*
G01X0001054Y-028788D01*
G01X0001054Y-028788D02*
G01X0001102Y-028883D01*
G01X0001102Y-028883D02*
G01X0001102Y-028978D01*
G01X0001102Y-028978D02*
G01X0001054Y-029121D01*
G01X0001054Y-029121D02*
G01X0000483Y-029692D01*
G01X0000483Y-029692D02*
G01X0001102Y-029692D01*
G01X0001530Y-029597D02*
G01X0001578Y-029645D01*
G01X0001578Y-029645D02*
G01X0001530Y-029692D01*
G01X0001530Y-029692D02*
G01X0001483Y-029645D01*
G01X0001483Y-029645D02*
G01X0001530Y-029597D01*
G01X0001530Y-029597D02*
G01X0001530Y-029692D01*
G01X0003102Y-029169D02*
G01X0003245Y-029216D01*
G01X0003245Y-029216D02*
G01X0003292Y-029264D01*
G01X0003292Y-029264D02*
G01X0003340Y-029359D01*
G01X0003340Y-029359D02*
G01X0003340Y-029502D01*
G01X0003340Y-029502D02*
G01X0003292Y-029597D01*
G01X0003292Y-029597D02*
G01X0003245Y-029645D01*
G01X0003245Y-029645D02*
G01X0003150Y-029692D01*
G01X0003150Y-029692D02*
G01X0002769Y-029692D01*
G01X0002769Y-029692D02*
G01X0002769Y-028692D01*
G01X0002769Y-028692D02*
G01X0003102Y-028692D01*
G01X0003102Y-028692D02*
G01X0003197Y-028740D01*
G01X0003197Y-028740D02*
G01X0003245Y-028788D01*
G01X0003245Y-028788D02*
G01X0003292Y-028883D01*
G01X0003292Y-028883D02*
G01X0003292Y-028978D01*
G01X0003292Y-028978D02*
G01X0003245Y-029073D01*
G01X0003245Y-029073D02*
G01X0003197Y-029121D01*
G01X0003197Y-029121D02*
G01X0003102Y-029169D01*
G01X0003102Y-029169D02*
G01X0002769Y-029169D01*
G01X0003959Y-028692D02*
G01X0004150Y-028692D01*
G01X0004150Y-028692D02*
G01X0004245Y-028740D01*
G01X0004245Y-028740D02*
G01X0004340Y-028835D01*
G01X0004340Y-028835D02*
G01X0004388Y-029026D01*
G01X0004388Y-029026D02*
G01X0004388Y-029359D01*
G01X0004388Y-029359D02*
G01X0004340Y-029550D01*
G01X0004340Y-029550D02*
G01X0004245Y-029645D01*
G01X0004245Y-029645D02*
G01X0004150Y-029692D01*
G01X0004150Y-029692D02*
G01X0003959Y-029692D01*
G01X0003959Y-029692D02*
G01X0003864Y-029645D01*
G01X0003864Y-029645D02*
G01X0003769Y-029550D01*
G01X0003769Y-029550D02*
G01X0003721Y-029359D01*
G01X0003721Y-029359D02*
G01X0003721Y-029026D01*
G01X0003721Y-029026D02*
G01X0003769Y-028835D01*
G01X0003769Y-028835D02*
G01X0003864Y-028740D01*
G01X0003864Y-028740D02*
G01X0003959Y-028692D01*
G01X0004769Y-029407D02*
G01X0005245Y-029407D01*
G01X0004673Y-029692D02*
G01X0005007Y-028692D01*
G01X0005007Y-028692D02*
G01X0005340Y-029692D01*
G01X0006245Y-029692D02*
G01X0005911Y-029216D01*
G01X0005673Y-029692D02*
G01X0005673Y-028692D01*
G01X0005673Y-028692D02*
G01X0006054Y-028692D01*
G01X0006054Y-028692D02*
G01X0006150Y-028740D01*
G01X0006150Y-028740D02*
G01X0006197Y-028788D01*
G01X0006197Y-028788D02*
G01X0006245Y-028883D01*
G01X0006245Y-028883D02*
G01X0006245Y-029026D01*
G01X0006245Y-029026D02*
G01X0006197Y-029121D01*
G01X0006197Y-029121D02*
G01X0006150Y-029169D01*
G01X0006150Y-029169D02*
G01X0006054Y-029216D01*
G01X0006054Y-029216D02*
G01X0005673Y-029216D01*
G01X0006673Y-029692D02*
G01X0006673Y-028692D01*
G01X0006673Y-028692D02*
G01X0006911Y-028692D01*
G01X0006911Y-028692D02*
G01X0007054Y-028740D01*
G01X0007054Y-028740D02*
G01X0007150Y-028835D01*
G01X0007150Y-028835D02*
G01X0007197Y-028930D01*
G01X0007197Y-028930D02*
G01X0007245Y-029121D01*
G01X0007245Y-029121D02*
G01X0007245Y-029264D01*
G01X0007245Y-029264D02*
G01X0007197Y-029454D01*
G01X0007197Y-029454D02*
G01X0007150Y-029550D01*
G01X0007150Y-029550D02*
G01X0007054Y-029645D01*
G01X0007054Y-029645D02*
G01X0006911Y-029692D01*
G01X0006911Y-029692D02*
G01X0006673Y-029692D01*
G01X0007626Y-029645D02*
G01X0007769Y-029692D01*
G01X0007769Y-029692D02*
G01X0008007Y-029692D01*
G01X0008007Y-029692D02*
G01X0008102Y-029645D01*
G01X0008102Y-029645D02*
G01X0008150Y-029597D01*
G01X0008150Y-029597D02*
G01X0008197Y-029502D01*
G01X0008197Y-029502D02*
G01X0008197Y-029407D01*
G01X0008197Y-029407D02*
G01X0008150Y-029311D01*
G01X0008150Y-029311D02*
G01X0008102Y-029264D01*
G01X0008102Y-029264D02*
G01X0008007Y-029216D01*
G01X0008007Y-029216D02*
G01X0007816Y-029169D01*
G01X0007816Y-029169D02*
G01X0007721Y-029121D01*
G01X0007721Y-029121D02*
G01X0007673Y-029073D01*
G01X0007673Y-029073D02*
G01X0007626Y-028978D01*
G01X0007626Y-028978D02*
G01X0007626Y-028883D01*
G01X0007626Y-028883D02*
G01X0007673Y-028788D01*
G01X0007673Y-028788D02*
G01X0007721Y-028740D01*
G01X0007721Y-028740D02*
G01X0007816Y-028692D01*
G01X0007816Y-028692D02*
G01X0008054Y-028692D01*
G01X0008054Y-028692D02*
G01X0008197Y-028740D01*
G01X0009340Y-029645D02*
G01X0009483Y-029692D01*
G01X0009483Y-029692D02*
G01X0009721Y-029692D01*
G01X0009721Y-029692D02*
G01X0009816Y-029645D01*
G01X0009816Y-029645D02*
G01X0009864Y-029597D01*
G01X0009864Y-029597D02*
G01X0009911Y-029502D01*
G01X0009911Y-029502D02*
G01X0009911Y-029407D01*
G01X0009911Y-029407D02*
G01X0009864Y-029311D01*
G01X0009864Y-029311D02*
G01X0009816Y-029264D01*
G01X0009816Y-029264D02*
G01X0009721Y-029216D01*
G01X0009721Y-029216D02*
G01X0009530Y-029169D01*
G01X0009530Y-029169D02*
G01X0009435Y-029121D01*
G01X0009435Y-029121D02*
G01X0009388Y-029073D01*
G01X0009388Y-029073D02*
G01X0009340Y-028978D01*
G01X0009340Y-028978D02*
G01X0009340Y-028883D01*
G01X0009340Y-028883D02*
G01X0009388Y-028788D01*
G01X0009388Y-028788D02*
G01X0009435Y-028740D01*
G01X0009435Y-028740D02*
G01X0009530Y-028692D01*
G01X0009530Y-028692D02*
G01X0009769Y-028692D01*
G01X0009769Y-028692D02*
G01X0009911Y-028740D01*
G01X0010340Y-029692D02*
G01X0010340Y-028692D01*
G01X0010340Y-029169D02*
G01X0010911Y-029169D01*
G01X0010911Y-029692D02*
G01X0010911Y-028692D01*
G01X0011340Y-029407D02*
G01X0011816Y-029407D01*
G01X0011245Y-029692D02*
G01X0011578Y-028692D01*
G01X0011578Y-028692D02*
G01X0011911Y-029692D01*
G01X0012721Y-029692D02*
G01X0012245Y-029692D01*
G01X0012245Y-029692D02*
G01X0012245Y-028692D01*
G01X0013530Y-029692D02*
G01X0013054Y-029692D01*
G01X0013054Y-029692D02*
G01X0013054Y-028692D01*
G01X0014959Y-029169D02*
G01X0015102Y-029216D01*
G01X0015102Y-029216D02*
G01X0015150Y-029264D01*
G01X0015150Y-029264D02*
G01X0015197Y-029359D01*
G01X0015197Y-029359D02*
G01X0015197Y-029502D01*
G01X0015197Y-029502D02*
G01X0015150Y-029597D01*
G01X0015150Y-029597D02*
G01X0015102Y-029645D01*
G01X0015102Y-029645D02*
G01X0015007Y-029692D01*
G01X0015007Y-029692D02*
G01X0014626Y-029692D01*
G01X0014626Y-029692D02*
G01X0014626Y-028692D01*
G01X0014626Y-028692D02*
G01X0014959Y-028692D01*
G01X0014959Y-028692D02*
G01X0015054Y-028740D01*
G01X0015054Y-028740D02*
G01X0015102Y-028788D01*
G01X0015102Y-028788D02*
G01X0015150Y-028883D01*
G01X0015150Y-028883D02*
G01X0015150Y-028978D01*
G01X0015150Y-028978D02*
G01X0015102Y-029073D01*
G01X0015102Y-029073D02*
G01X0015054Y-029121D01*
G01X0015054Y-029121D02*
G01X0014959Y-029169D01*
G01X0014959Y-029169D02*
G01X0014626Y-029169D01*
G01X0015626Y-029169D02*
G01X0015959Y-029169D01*
G01X0016102Y-029692D02*
G01X0015626Y-029692D01*
G01X0015626Y-029692D02*
G01X0015626Y-028692D01*
G01X0015626Y-028692D02*
G01X0016102Y-028692D01*
G01X0017864Y-029692D02*
G01X0017530Y-029216D01*
G01X0017292Y-029692D02*
G01X0017292Y-028692D01*
G01X0017292Y-028692D02*
G01X0017673Y-028692D01*
G01X0017673Y-028692D02*
G01X0017769Y-028740D01*
G01X0017769Y-028740D02*
G01X0017816Y-028788D01*
G01X0017816Y-028788D02*
G01X0017864Y-028883D01*
G01X0017864Y-028883D02*
G01X0017864Y-029026D01*
G01X0017864Y-029026D02*
G01X0017816Y-029121D01*
G01X0017816Y-029121D02*
G01X0017769Y-029169D01*
G01X0017769Y-029169D02*
G01X0017673Y-029216D01*
G01X0017673Y-029216D02*
G01X0017292Y-029216D01*
G01X0018483Y-028692D02*
G01X0018673Y-028692D01*
G01X0018673Y-028692D02*
G01X0018769Y-028740D01*
G01X0018769Y-028740D02*
G01X0018864Y-028835D01*
G01X0018864Y-028835D02*
G01X0018911Y-029026D01*
G01X0018911Y-029026D02*
G01X0018911Y-029359D01*
G01X0018911Y-029359D02*
G01X0018864Y-029550D01*
G01X0018864Y-029550D02*
G01X0018769Y-029645D01*
G01X0018769Y-029645D02*
G01X0018673Y-029692D01*
G01X0018673Y-029692D02*
G01X0018483Y-029692D01*
G01X0018483Y-029692D02*
G01X0018388Y-029645D01*
G01X0018388Y-029645D02*
G01X0018292Y-029550D01*
G01X0018292Y-029550D02*
G01X0018245Y-029359D01*
G01X0018245Y-029359D02*
G01X0018245Y-029026D01*
G01X0018245Y-029026D02*
G01X0018292Y-028835D01*
G01X0018292Y-028835D02*
G01X0018388Y-028740D01*
G01X0018388Y-028740D02*
G01X0018483Y-028692D01*
G01X0019340Y-029692D02*
G01X0019340Y-028692D01*
G01X0019340Y-029169D02*
G01X0019911Y-029169D01*
G01X0019911Y-029692D02*
G01X0019911Y-028692D01*
G01X0020340Y-029645D02*
G01X0020483Y-029692D01*
G01X0020483Y-029692D02*
G01X0020721Y-029692D01*
G01X0020721Y-029692D02*
G01X0020816Y-029645D01*
G01X0020816Y-029645D02*
G01X0020864Y-029597D01*
G01X0020864Y-029597D02*
G01X0020911Y-029502D01*
G01X0020911Y-029502D02*
G01X0020911Y-029407D01*
G01X0020911Y-029407D02*
G01X0020864Y-029311D01*
G01X0020864Y-029311D02*
G01X0020816Y-029264D01*
G01X0020816Y-029264D02*
G01X0020721Y-029216D01*
G01X0020721Y-029216D02*
G01X0020530Y-029169D01*
G01X0020530Y-029169D02*
G01X0020435Y-029121D01*
G01X0020435Y-029121D02*
G01X0020388Y-029073D01*
G01X0020388Y-029073D02*
G01X0020340Y-028978D01*
G01X0020340Y-028978D02*
G01X0020340Y-028883D01*
G01X0020340Y-028883D02*
G01X0020388Y-028788D01*
G01X0020388Y-028788D02*
G01X0020435Y-028740D01*
G01X0020435Y-028740D02*
G01X0020530Y-028692D01*
G01X0020530Y-028692D02*
G01X0020769Y-028692D01*
G01X0020769Y-028692D02*
G01X0020911Y-028740D01*
G01X0022673Y-029597D02*
G01X0022626Y-029645D01*
G01X0022626Y-029645D02*
G01X0022483Y-029692D01*
G01X0022483Y-029692D02*
G01X0022388Y-029692D01*
G01X0022388Y-029692D02*
G01X0022245Y-029645D01*
G01X0022245Y-029645D02*
G01X0022150Y-029550D01*
G01X0022150Y-029550D02*
G01X0022102Y-029454D01*
G01X0022102Y-029454D02*
G01X0022054Y-029264D01*
G01X0022054Y-029264D02*
G01X0022054Y-029121D01*
G01X0022054Y-029121D02*
G01X0022102Y-028930D01*
G01X0022102Y-028930D02*
G01X0022150Y-028835D01*
G01X0022150Y-028835D02*
G01X0022245Y-028740D01*
G01X0022245Y-028740D02*
G01X0022388Y-028692D01*
G01X0022388Y-028692D02*
G01X0022483Y-028692D01*
G01X0022483Y-028692D02*
G01X0022626Y-028740D01*
G01X0022626Y-028740D02*
G01X0022673Y-028788D01*
G01X0023292Y-028692D02*
G01X0023483Y-028692D01*
G01X0023483Y-028692D02*
G01X0023578Y-028740D01*
G01X0023578Y-028740D02*
G01X0023673Y-028835D01*
G01X0023673Y-028835D02*
G01X0023721Y-029026D01*
G01X0023721Y-029026D02*
G01X0023721Y-029359D01*
G01X0023721Y-029359D02*
G01X0023673Y-029550D01*
G01X0023673Y-029550D02*
G01X0023578Y-029645D01*
G01X0023578Y-029645D02*
G01X0023483Y-029692D01*
G01X0023483Y-029692D02*
G01X0023292Y-029692D01*
G01X0023292Y-029692D02*
G01X0023197Y-029645D01*
G01X0023197Y-029645D02*
G01X0023102Y-029550D01*
G01X0023102Y-029550D02*
G01X0023054Y-029359D01*
G01X0023054Y-029359D02*
G01X0023054Y-029026D01*
G01X0023054Y-029026D02*
G01X0023102Y-028835D01*
G01X0023102Y-028835D02*
G01X0023197Y-028740D01*
G01X0023197Y-028740D02*
G01X0023292Y-028692D01*
G01X0024150Y-029692D02*
G01X0024150Y-028692D01*
G01X0024150Y-028692D02*
G01X0024483Y-029407D01*
G01X0024483Y-029407D02*
G01X0024816Y-028692D01*
G01X0024816Y-028692D02*
G01X0024816Y-029692D01*
G01X0025292Y-029692D02*
G01X0025292Y-028692D01*
G01X0025292Y-028692D02*
G01X0025673Y-028692D01*
G01X0025673Y-028692D02*
G01X0025769Y-028740D01*
G01X0025769Y-028740D02*
G01X0025816Y-028788D01*
G01X0025816Y-028788D02*
G01X0025864Y-028883D01*
G01X0025864Y-028883D02*
G01X0025864Y-029026D01*
G01X0025864Y-029026D02*
G01X0025816Y-029121D01*
G01X0025816Y-029121D02*
G01X0025769Y-029169D01*
G01X0025769Y-029169D02*
G01X0025673Y-029216D01*
G01X0025673Y-029216D02*
G01X0025292Y-029216D01*
G01X0026769Y-029692D02*
G01X0026292Y-029692D01*
G01X0026292Y-029692D02*
G01X0026292Y-028692D01*
G01X0027102Y-029692D02*
G01X0027102Y-028692D01*
G01X0027530Y-029407D02*
G01X0028007Y-029407D01*
G01X0027435Y-029692D02*
G01X0027769Y-028692D01*
G01X0027769Y-028692D02*
G01X0028102Y-029692D01*
G01X0028435Y-029692D02*
G01X0028435Y-028692D01*
G01X0028435Y-028692D02*
G01X0029007Y-029692D01*
G01X0029007Y-029692D02*
G01X0029007Y-028692D01*
G01X0029340Y-028692D02*
G01X0029911Y-028692D01*
G01X0029626Y-029692D02*
G01X0029626Y-028692D01*
G01X0030245Y-029597D02*
G01X0030292Y-029645D01*
G01X0030292Y-029645D02*
G01X0030245Y-029692D01*
G01X0030245Y-029692D02*
G01X0030197Y-029645D01*
G01X0030197Y-029645D02*
G01X0030245Y-029597D01*
G01X0030245Y-029597D02*
G01X0030245Y-029692D01*
G01X0000483Y-030292D02*
G01X0001102Y-030292D01*
G01X0001102Y-030292D02*
G01X0000769Y-030673D01*
G01X0000769Y-030673D02*
G01X0000911Y-030673D01*
G01X0000911Y-030673D02*
G01X0001007Y-030721D01*
G01X0001007Y-030721D02*
G01X0001054Y-030769D01*
G01X0001054Y-030769D02*
G01X0001102Y-030864D01*
G01X0001102Y-030864D02*
G01X0001102Y-031102D01*
G01X0001102Y-031102D02*
G01X0001054Y-031197D01*
G01X0001054Y-031197D02*
G01X0001007Y-031245D01*
G01X0001007Y-031245D02*
G01X0000911Y-031292D01*
G01X0000911Y-031292D02*
G01X0000626Y-031292D01*
G01X0000626Y-031292D02*
G01X0000530Y-031245D01*
G01X0000530Y-031245D02*
G01X0000483Y-031197D01*
G01X0001530Y-031197D02*
G01X0001578Y-031245D01*
G01X0001578Y-031245D02*
G01X0001530Y-031292D01*
G01X0001530Y-031292D02*
G01X0001483Y-031245D01*
G01X0001483Y-031245D02*
G01X0001530Y-031197D01*
G01X0001530Y-031197D02*
G01X0001530Y-031292D01*
G01X0002769Y-031292D02*
G01X0002769Y-030292D01*
G01X0002769Y-030292D02*
G01X0003102Y-031007D01*
G01X0003102Y-031007D02*
G01X0003435Y-030292D01*
G01X0003435Y-030292D02*
G01X0003435Y-031292D01*
G01X0003864Y-031007D02*
G01X0004340Y-031007D01*
G01X0003769Y-031292D02*
G01X0004102Y-030292D01*
G01X0004102Y-030292D02*
G01X0004435Y-031292D01*
G01X0004769Y-031292D02*
G01X0004769Y-030292D01*
G01X0004769Y-030292D02*
G01X0005340Y-031292D01*
G01X0005340Y-031292D02*
G01X0005340Y-030292D01*
G01X0005816Y-030292D02*
G01X0005816Y-031102D01*
G01X0005816Y-031102D02*
G01X0005864Y-031197D01*
G01X0005864Y-031197D02*
G01X0005911Y-031245D01*
G01X0005911Y-031245D02*
G01X0006007Y-031292D01*
G01X0006007Y-031292D02*
G01X0006197Y-031292D01*
G01X0006197Y-031292D02*
G01X0006292Y-031245D01*
G01X0006292Y-031245D02*
G01X0006340Y-031197D01*
G01X0006340Y-031197D02*
G01X0006388Y-031102D01*
G01X0006388Y-031102D02*
G01X0006388Y-030292D01*
G01X0007197Y-030769D02*
G01X0006864Y-030769D01*
G01X0006864Y-031292D02*
G01X0006864Y-030292D01*
G01X0006864Y-030292D02*
G01X0007340Y-030292D01*
G01X0007673Y-031007D02*
G01X0008150Y-031007D01*
G01X0007578Y-031292D02*
G01X0007911Y-030292D01*
G01X0007911Y-030292D02*
G01X0008245Y-031292D01*
G01X0009150Y-031197D02*
G01X0009102Y-031245D01*
G01X0009102Y-031245D02*
G01X0008959Y-031292D01*
G01X0008959Y-031292D02*
G01X0008864Y-031292D01*
G01X0008864Y-031292D02*
G01X0008721Y-031245D01*
G01X0008721Y-031245D02*
G01X0008626Y-031150D01*
G01X0008626Y-031150D02*
G01X0008578Y-031054D01*
G01X0008578Y-031054D02*
G01X0008530Y-030864D01*
G01X0008530Y-030864D02*
G01X0008530Y-030721D01*
G01X0008530Y-030721D02*
G01X0008578Y-030530D01*
G01X0008578Y-030530D02*
G01X0008626Y-030435D01*
G01X0008626Y-030435D02*
G01X0008721Y-030340D01*
G01X0008721Y-030340D02*
G01X0008864Y-030292D01*
G01X0008864Y-030292D02*
G01X0008959Y-030292D01*
G01X0008959Y-030292D02*
G01X0009102Y-030340D01*
G01X0009102Y-030340D02*
G01X0009150Y-030388D01*
G01X0009435Y-030292D02*
G01X0010007Y-030292D01*
G01X0009721Y-031292D02*
G01X0009721Y-030292D01*
G01X0010340Y-030292D02*
G01X0010340Y-031102D01*
G01X0010340Y-031102D02*
G01X0010388Y-031197D01*
G01X0010388Y-031197D02*
G01X0010435Y-031245D01*
G01X0010435Y-031245D02*
G01X0010530Y-031292D01*
G01X0010530Y-031292D02*
G01X0010721Y-031292D01*
G01X0010721Y-031292D02*
G01X0010816Y-031245D01*
G01X0010816Y-031245D02*
G01X0010864Y-031197D01*
G01X0010864Y-031197D02*
G01X0010911Y-031102D01*
G01X0010911Y-031102D02*
G01X0010911Y-030292D01*
G01X0011959Y-031292D02*
G01X0011626Y-030816D01*
G01X0011388Y-031292D02*
G01X0011388Y-030292D01*
G01X0011388Y-030292D02*
G01X0011769Y-030292D01*
G01X0011769Y-030292D02*
G01X0011864Y-030340D01*
G01X0011864Y-030340D02*
G01X0011911Y-030388D01*
G01X0011911Y-030388D02*
G01X0011959Y-030483D01*
G01X0011959Y-030483D02*
G01X0011959Y-030626D01*
G01X0011959Y-030626D02*
G01X0011911Y-030721D01*
G01X0011911Y-030721D02*
G01X0011864Y-030769D01*
G01X0011864Y-030769D02*
G01X0011769Y-030816D01*
G01X0011769Y-030816D02*
G01X0011388Y-030816D01*
G01X0012388Y-030769D02*
G01X0012721Y-030769D01*
G01X0012864Y-031292D02*
G01X0012388Y-031292D01*
G01X0012388Y-031292D02*
G01X0012388Y-030292D01*
G01X0012388Y-030292D02*
G01X0012864Y-030292D01*
G01X0014054Y-031292D02*
G01X0014054Y-030292D01*
G01X0014530Y-031292D02*
G01X0014530Y-030292D01*
G01X0014530Y-030292D02*
G01X0015102Y-031292D01*
G01X0015102Y-031292D02*
G01X0015102Y-030292D01*
G01X0016292Y-031007D02*
G01X0016769Y-031007D01*
G01X0016197Y-031292D02*
G01X0016530Y-030292D01*
G01X0016530Y-030292D02*
G01X0016864Y-031292D01*
G01X0017769Y-031197D02*
G01X0017721Y-031245D01*
G01X0017721Y-031245D02*
G01X0017578Y-031292D01*
G01X0017578Y-031292D02*
G01X0017483Y-031292D01*
G01X0017483Y-031292D02*
G01X0017340Y-031245D01*
G01X0017340Y-031245D02*
G01X0017245Y-031150D01*
G01X0017245Y-031150D02*
G01X0017197Y-031054D01*
G01X0017197Y-031054D02*
G01X0017150Y-030864D01*
G01X0017150Y-030864D02*
G01X0017150Y-030721D01*
G01X0017150Y-030721D02*
G01X0017197Y-030530D01*
G01X0017197Y-030530D02*
G01X0017245Y-030435D01*
G01X0017245Y-030435D02*
G01X0017340Y-030340D01*
G01X0017340Y-030340D02*
G01X0017483Y-030292D01*
G01X0017483Y-030292D02*
G01X0017578Y-030292D01*
G01X0017578Y-030292D02*
G01X0017721Y-030340D01*
G01X0017721Y-030340D02*
G01X0017769Y-030388D01*
G01X0018769Y-031197D02*
G01X0018721Y-031245D01*
G01X0018721Y-031245D02*
G01X0018578Y-031292D01*
G01X0018578Y-031292D02*
G01X0018483Y-031292D01*
G01X0018483Y-031292D02*
G01X0018340Y-031245D01*
G01X0018340Y-031245D02*
G01X0018245Y-031150D01*
G01X0018245Y-031150D02*
G01X0018197Y-031054D01*
G01X0018197Y-031054D02*
G01X0018150Y-030864D01*
G01X0018150Y-030864D02*
G01X0018150Y-030721D01*
G01X0018150Y-030721D02*
G01X0018197Y-030530D01*
G01X0018197Y-030530D02*
G01X0018245Y-030435D01*
G01X0018245Y-030435D02*
G01X0018340Y-030340D01*
G01X0018340Y-030340D02*
G01X0018483Y-030292D01*
G01X0018483Y-030292D02*
G01X0018578Y-030292D01*
G01X0018578Y-030292D02*
G01X0018721Y-030340D01*
G01X0018721Y-030340D02*
G01X0018769Y-030388D01*
G01X0019388Y-030292D02*
G01X0019578Y-030292D01*
G01X0019578Y-030292D02*
G01X0019673Y-030340D01*
G01X0019673Y-030340D02*
G01X0019769Y-030435D01*
G01X0019769Y-030435D02*
G01X0019816Y-030626D01*
G01X0019816Y-030626D02*
G01X0019816Y-030959D01*
G01X0019816Y-030959D02*
G01X0019769Y-031150D01*
G01X0019769Y-031150D02*
G01X0019673Y-031245D01*
G01X0019673Y-031245D02*
G01X0019578Y-031292D01*
G01X0019578Y-031292D02*
G01X0019388Y-031292D01*
G01X0019388Y-031292D02*
G01X0019292Y-031245D01*
G01X0019292Y-031245D02*
G01X0019197Y-031150D01*
G01X0019197Y-031150D02*
G01X0019150Y-030959D01*
G01X0019150Y-030959D02*
G01X0019150Y-030626D01*
G01X0019150Y-030626D02*
G01X0019197Y-030435D01*
G01X0019197Y-030435D02*
G01X0019292Y-030340D01*
G01X0019292Y-030340D02*
G01X0019388Y-030292D01*
G01X0020816Y-031292D02*
G01X0020483Y-030816D01*
G01X0020245Y-031292D02*
G01X0020245Y-030292D01*
G01X0020245Y-030292D02*
G01X0020626Y-030292D01*
G01X0020626Y-030292D02*
G01X0020721Y-030340D01*
G01X0020721Y-030340D02*
G01X0020769Y-030388D01*
G01X0020769Y-030388D02*
G01X0020816Y-030483D01*
G01X0020816Y-030483D02*
G01X0020816Y-030626D01*
G01X0020816Y-030626D02*
G01X0020769Y-030721D01*
G01X0020769Y-030721D02*
G01X0020721Y-030769D01*
G01X0020721Y-030769D02*
G01X0020626Y-030816D01*
G01X0020626Y-030816D02*
G01X0020245Y-030816D01*
G01X0021245Y-031292D02*
G01X0021245Y-030292D01*
G01X0021245Y-030292D02*
G01X0021483Y-030292D01*
G01X0021483Y-030292D02*
G01X0021626Y-030340D01*
G01X0021626Y-030340D02*
G01X0021721Y-030435D01*
G01X0021721Y-030435D02*
G01X0021769Y-030530D01*
G01X0021769Y-030530D02*
G01X0021816Y-030721D01*
G01X0021816Y-030721D02*
G01X0021816Y-030864D01*
G01X0021816Y-030864D02*
G01X0021769Y-031054D01*
G01X0021769Y-031054D02*
G01X0021721Y-031150D01*
G01X0021721Y-031150D02*
G01X0021626Y-031245D01*
G01X0021626Y-031245D02*
G01X0021483Y-031292D01*
G01X0021483Y-031292D02*
G01X0021245Y-031292D01*
G01X0022197Y-031007D02*
G01X0022673Y-031007D01*
G01X0022102Y-031292D02*
G01X0022435Y-030292D01*
G01X0022435Y-030292D02*
G01X0022769Y-031292D01*
G01X0023102Y-031292D02*
G01X0023102Y-030292D01*
G01X0023102Y-030292D02*
G01X0023673Y-031292D01*
G01X0023673Y-031292D02*
G01X0023673Y-030292D01*
G01X0024721Y-031197D02*
G01X0024673Y-031245D01*
G01X0024673Y-031245D02*
G01X0024530Y-031292D01*
G01X0024530Y-031292D02*
G01X0024435Y-031292D01*
G01X0024435Y-031292D02*
G01X0024292Y-031245D01*
G01X0024292Y-031245D02*
G01X0024197Y-031150D01*
G01X0024197Y-031150D02*
G01X0024150Y-031054D01*
G01X0024150Y-031054D02*
G01X0024102Y-030864D01*
G01X0024102Y-030864D02*
G01X0024102Y-030721D01*
G01X0024102Y-030721D02*
G01X0024150Y-030530D01*
G01X0024150Y-030530D02*
G01X0024197Y-030435D01*
G01X0024197Y-030435D02*
G01X0024292Y-030340D01*
G01X0024292Y-030340D02*
G01X0024435Y-030292D01*
G01X0024435Y-030292D02*
G01X0024530Y-030292D01*
G01X0024530Y-030292D02*
G01X0024673Y-030340D01*
G01X0024673Y-030340D02*
G01X0024721Y-030388D01*
G01X0025150Y-030769D02*
G01X0025483Y-030769D01*
G01X0025626Y-031292D02*
G01X0025150Y-031292D01*
G01X0025150Y-031292D02*
G01X0025150Y-030292D01*
G01X0025150Y-030292D02*
G01X0025626Y-030292D01*
G01X0026721Y-030292D02*
G01X0026959Y-031292D01*
G01X0026959Y-031292D02*
G01X0027150Y-030578D01*
G01X0027150Y-030578D02*
G01X0027340Y-031292D01*
G01X0027340Y-031292D02*
G01X0027578Y-030292D01*
G01X0027959Y-031292D02*
G01X0027959Y-030292D01*
G01X0028292Y-030292D02*
G01X0028864Y-030292D01*
G01X0028578Y-031292D02*
G01X0028578Y-030292D01*
G01X0029197Y-031292D02*
G01X0029197Y-030292D01*
G01X0029197Y-030769D02*
G01X0029769Y-030769D01*
G01X0029769Y-031292D02*
G01X0029769Y-030292D01*
G01X0031007Y-031292D02*
G01X0031007Y-030292D01*
G01X0031483Y-031292D02*
G01X0031483Y-030292D01*
G01X0031483Y-030292D02*
G01X0031864Y-030292D01*
G01X0031864Y-030292D02*
G01X0031959Y-030340D01*
G01X0031959Y-030340D02*
G01X0032007Y-030388D01*
G01X0032007Y-030388D02*
G01X0032054Y-030483D01*
G01X0032054Y-030483D02*
G01X0032054Y-030626D01*
G01X0032054Y-030626D02*
G01X0032007Y-030721D01*
G01X0032007Y-030721D02*
G01X0031959Y-030769D01*
G01X0031959Y-030769D02*
G01X0031864Y-030816D01*
G01X0031864Y-030816D02*
G01X0031483Y-030816D01*
G01X0033054Y-031197D02*
G01X0033007Y-031245D01*
G01X0033007Y-031245D02*
G01X0032864Y-031292D01*
G01X0032864Y-031292D02*
G01X0032769Y-031292D01*
G01X0032769Y-031292D02*
G01X0032626Y-031245D01*
G01X0032626Y-031245D02*
G01X0032530Y-031150D01*
G01X0032530Y-031150D02*
G01X0032483Y-031054D01*
G01X0032483Y-031054D02*
G01X0032435Y-030864D01*
G01X0032435Y-030864D02*
G01X0032435Y-030721D01*
G01X0032435Y-030721D02*
G01X0032483Y-030530D01*
G01X0032483Y-030530D02*
G01X0032530Y-030435D01*
G01X0032530Y-030435D02*
G01X0032626Y-030340D01*
G01X0032626Y-030340D02*
G01X0032769Y-030292D01*
G01X0032769Y-030292D02*
G01X0032864Y-030292D01*
G01X0032864Y-030292D02*
G01X0033007Y-030340D01*
G01X0033007Y-030340D02*
G01X0033054Y-030388D01*
G01X0033483Y-030911D02*
G01X0034245Y-030911D01*
G01X0035150Y-030292D02*
G01X0034959Y-030292D01*
G01X0034959Y-030292D02*
G01X0034864Y-030340D01*
G01X0034864Y-030340D02*
G01X0034816Y-030388D01*
G01X0034816Y-030388D02*
G01X0034721Y-030530D01*
G01X0034721Y-030530D02*
G01X0034673Y-030721D01*
G01X0034673Y-030721D02*
G01X0034673Y-031102D01*
G01X0034673Y-031102D02*
G01X0034721Y-031197D01*
G01X0034721Y-031197D02*
G01X0034769Y-031245D01*
G01X0034769Y-031245D02*
G01X0034864Y-031292D01*
G01X0034864Y-031292D02*
G01X0035054Y-031292D01*
G01X0035054Y-031292D02*
G01X0035150Y-031245D01*
G01X0035150Y-031245D02*
G01X0035197Y-031197D01*
G01X0035197Y-031197D02*
G01X0035245Y-031102D01*
G01X0035245Y-031102D02*
G01X0035245Y-030864D01*
G01X0035245Y-030864D02*
G01X0035197Y-030769D01*
G01X0035197Y-030769D02*
G01X0035150Y-030721D01*
G01X0035150Y-030721D02*
G01X0035054Y-030673D01*
G01X0035054Y-030673D02*
G01X0034864Y-030673D01*
G01X0034864Y-030673D02*
G01X0034769Y-030721D01*
G01X0034769Y-030721D02*
G01X0034721Y-030769D01*
G01X0034721Y-030769D02*
G01X0034673Y-030864D01*
G01X0035864Y-030292D02*
G01X0035959Y-030292D01*
G01X0035959Y-030292D02*
G01X0036054Y-030340D01*
G01X0036054Y-030340D02*
G01X0036102Y-030388D01*
G01X0036102Y-030388D02*
G01X0036150Y-030483D01*
G01X0036150Y-030483D02*
G01X0036197Y-030673D01*
G01X0036197Y-030673D02*
G01X0036197Y-030911D01*
G01X0036197Y-030911D02*
G01X0036150Y-031102D01*
G01X0036150Y-031102D02*
G01X0036102Y-031197D01*
G01X0036102Y-031197D02*
G01X0036054Y-031245D01*
G01X0036054Y-031245D02*
G01X0035959Y-031292D01*
G01X0035959Y-031292D02*
G01X0035864Y-031292D01*
G01X0035864Y-031292D02*
G01X0035769Y-031245D01*
G01X0035769Y-031245D02*
G01X0035721Y-031197D01*
G01X0035721Y-031197D02*
G01X0035673Y-031102D01*
G01X0035673Y-031102D02*
G01X0035626Y-030911D01*
G01X0035626Y-030911D02*
G01X0035626Y-030673D01*
G01X0035626Y-030673D02*
G01X0035673Y-030483D01*
G01X0035673Y-030483D02*
G01X0035721Y-030388D01*
G01X0035721Y-030388D02*
G01X0035769Y-030340D01*
G01X0035769Y-030340D02*
G01X0035864Y-030292D01*
G01X0037150Y-031292D02*
G01X0036578Y-031292D01*
G01X0036864Y-031292D02*
G01X0036864Y-030292D01*
G01X0036864Y-030292D02*
G01X0036769Y-030435D01*
G01X0036769Y-030435D02*
G01X0036673Y-030530D01*
G01X0036673Y-030530D02*
G01X0036578Y-030578D01*
G01X0037530Y-030388D02*
G01X0037578Y-030340D01*
G01X0037578Y-030340D02*
G01X0037673Y-030292D01*
G01X0037673Y-030292D02*
G01X0037911Y-030292D01*
G01X0037911Y-030292D02*
G01X0038007Y-030340D01*
G01X0038007Y-030340D02*
G01X0038054Y-030388D01*
G01X0038054Y-030388D02*
G01X0038102Y-030483D01*
G01X0038102Y-030483D02*
G01X0038102Y-030578D01*
G01X0038102Y-030578D02*
G01X0038054Y-030721D01*
G01X0038054Y-030721D02*
G01X0037483Y-031292D01*
G01X0037483Y-031292D02*
G01X0038102Y-031292D01*
G01X0039864Y-031197D02*
G01X0039816Y-031245D01*
G01X0039816Y-031245D02*
G01X0039673Y-031292D01*
G01X0039673Y-031292D02*
G01X0039578Y-031292D01*
G01X0039578Y-031292D02*
G01X0039435Y-031245D01*
G01X0039435Y-031245D02*
G01X0039340Y-031150D01*
G01X0039340Y-031150D02*
G01X0039292Y-031054D01*
G01X0039292Y-031054D02*
G01X0039245Y-030864D01*
G01X0039245Y-030864D02*
G01X0039245Y-030721D01*
G01X0039245Y-030721D02*
G01X0039292Y-030530D01*
G01X0039292Y-030530D02*
G01X0039340Y-030435D01*
G01X0039340Y-030435D02*
G01X0039435Y-030340D01*
G01X0039435Y-030340D02*
G01X0039578Y-030292D01*
G01X0039578Y-030292D02*
G01X0039673Y-030292D01*
G01X0039673Y-030292D02*
G01X0039816Y-030340D01*
G01X0039816Y-030340D02*
G01X0039864Y-030388D01*
G01X0040769Y-031292D02*
G01X0040292Y-031292D01*
G01X0040292Y-031292D02*
G01X0040292Y-030292D01*
G01X0041054Y-031007D02*
G01X0041530Y-031007D01*
G01X0040959Y-031292D02*
G01X0041292Y-030292D01*
G01X0041292Y-030292D02*
G01X0041626Y-031292D01*
G01X0041911Y-031245D02*
G01X0042054Y-031292D01*
G01X0042054Y-031292D02*
G01X0042292Y-031292D01*
G01X0042292Y-031292D02*
G01X0042388Y-031245D01*
G01X0042388Y-031245D02*
G01X0042435Y-031197D01*
G01X0042435Y-031197D02*
G01X0042483Y-031102D01*
G01X0042483Y-031102D02*
G01X0042483Y-031007D01*
G01X0042483Y-031007D02*
G01X0042435Y-030911D01*
G01X0042435Y-030911D02*
G01X0042388Y-030864D01*
G01X0042388Y-030864D02*
G01X0042292Y-030816D01*
G01X0042292Y-030816D02*
G01X0042102Y-030769D01*
G01X0042102Y-030769D02*
G01X0042007Y-030721D01*
G01X0042007Y-030721D02*
G01X0041959Y-030673D01*
G01X0041959Y-030673D02*
G01X0041911Y-030578D01*
G01X0041911Y-030578D02*
G01X0041911Y-030483D01*
G01X0041911Y-030483D02*
G01X0041959Y-030388D01*
G01X0041959Y-030388D02*
G01X0042007Y-030340D01*
G01X0042007Y-030340D02*
G01X0042102Y-030292D01*
G01X0042102Y-030292D02*
G01X0042340Y-030292D01*
G01X0042340Y-030292D02*
G01X0042483Y-030340D01*
G01X0042864Y-031245D02*
G01X0043007Y-031292D01*
G01X0043007Y-031292D02*
G01X0043245Y-031292D01*
G01X0043245Y-031292D02*
G01X0043340Y-031245D01*
G01X0043340Y-031245D02*
G01X0043388Y-031197D01*
G01X0043388Y-031197D02*
G01X0043435Y-031102D01*
G01X0043435Y-031102D02*
G01X0043435Y-031007D01*
G01X0043435Y-031007D02*
G01X0043388Y-030911D01*
G01X0043388Y-030911D02*
G01X0043340Y-030864D01*
G01X0043340Y-030864D02*
G01X0043245Y-030816D01*
G01X0043245Y-030816D02*
G01X0043054Y-030769D01*
G01X0043054Y-030769D02*
G01X0042959Y-030721D01*
G01X0042959Y-030721D02*
G01X0042911Y-030673D01*
G01X0042911Y-030673D02*
G01X0042864Y-030578D01*
G01X0042864Y-030578D02*
G01X0042864Y-030483D01*
G01X0042864Y-030483D02*
G01X0042911Y-030388D01*
G01X0042911Y-030388D02*
G01X0042959Y-030340D01*
G01X0042959Y-030340D02*
G01X0043054Y-030292D01*
G01X0043054Y-030292D02*
G01X0043292Y-030292D01*
G01X0043292Y-030292D02*
G01X0043435Y-030340D01*
G01X0044578Y-030388D02*
G01X0044626Y-030340D01*
G01X0044626Y-030340D02*
G01X0044721Y-030292D01*
G01X0044721Y-030292D02*
G01X0044959Y-030292D01*
G01X0044959Y-030292D02*
G01X0045054Y-030340D01*
G01X0045054Y-030340D02*
G01X0045102Y-030388D01*
G01X0045102Y-030388D02*
G01X0045150Y-030483D01*
G01X0045150Y-030483D02*
G01X0045150Y-030578D01*
G01X0045150Y-030578D02*
G01X0045102Y-030721D01*
G01X0045102Y-030721D02*
G01X0044530Y-031292D01*
G01X0044530Y-031292D02*
G01X0045150Y-031292D01*
G01X0001007Y-032226D02*
G01X0001007Y-032892D01*
G01X0000769Y-031845D02*
G01X0000530Y-032559D01*
G01X0000530Y-032559D02*
G01X0001150Y-032559D01*
G01X0001530Y-032797D02*
G01X0001578Y-032845D01*
G01X0001578Y-032845D02*
G01X0001530Y-032892D01*
G01X0001530Y-032892D02*
G01X0001483Y-032845D01*
G01X0001483Y-032845D02*
G01X0001530Y-032797D01*
G01X0001530Y-032797D02*
G01X0001530Y-032892D01*
G01X0002769Y-032892D02*
G01X0002769Y-031892D01*
G01X0002769Y-031892D02*
G01X0003102Y-032607D01*
G01X0003102Y-032607D02*
G01X0003435Y-031892D01*
G01X0003435Y-031892D02*
G01X0003435Y-032892D01*
G01X0003864Y-032607D02*
G01X0004340Y-032607D01*
G01X0003769Y-032892D02*
G01X0004102Y-031892D01*
G01X0004102Y-031892D02*
G01X0004435Y-032892D01*
G01X0004673Y-031892D02*
G01X0005340Y-032892D01*
G01X0005340Y-031892D02*
G01X0004673Y-032892D01*
G01X0005721Y-032892D02*
G01X0005721Y-031892D01*
G01X0006197Y-032892D02*
G01X0006197Y-031892D01*
G01X0006197Y-031892D02*
G01X0006530Y-032607D01*
G01X0006530Y-032607D02*
G01X0006864Y-031892D01*
G01X0006864Y-031892D02*
G01X0006864Y-032892D01*
G01X0007340Y-031892D02*
G01X0007340Y-032702D01*
G01X0007340Y-032702D02*
G01X0007388Y-032797D01*
G01X0007388Y-032797D02*
G01X0007435Y-032845D01*
G01X0007435Y-032845D02*
G01X0007530Y-032892D01*
G01X0007530Y-032892D02*
G01X0007721Y-032892D01*
G01X0007721Y-032892D02*
G01X0007816Y-032845D01*
G01X0007816Y-032845D02*
G01X0007864Y-032797D01*
G01X0007864Y-032797D02*
G01X0007911Y-032702D01*
G01X0007911Y-032702D02*
G01X0007911Y-031892D01*
G01X0008388Y-032892D02*
G01X0008388Y-031892D01*
G01X0008388Y-031892D02*
G01X0008721Y-032607D01*
G01X0008721Y-032607D02*
G01X0009054Y-031892D01*
G01X0009054Y-031892D02*
G01X0009054Y-032892D01*
G01X0010292Y-032892D02*
G01X0010292Y-031892D01*
G01X0010292Y-032369D02*
G01X0010864Y-032369D01*
G01X0010864Y-032892D02*
G01X0010864Y-031892D01*
G01X0011530Y-031892D02*
G01X0011721Y-031892D01*
G01X0011721Y-031892D02*
G01X0011816Y-031940D01*
G01X0011816Y-031940D02*
G01X0011911Y-032035D01*
G01X0011911Y-032035D02*
G01X0011959Y-032226D01*
G01X0011959Y-032226D02*
G01X0011959Y-032559D01*
G01X0011959Y-032559D02*
G01X0011911Y-032750D01*
G01X0011911Y-032750D02*
G01X0011816Y-032845D01*
G01X0011816Y-032845D02*
G01X0011721Y-032892D01*
G01X0011721Y-032892D02*
G01X0011530Y-032892D01*
G01X0011530Y-032892D02*
G01X0011435Y-032845D01*
G01X0011435Y-032845D02*
G01X0011340Y-032750D01*
G01X0011340Y-032750D02*
G01X0011292Y-032559D01*
G01X0011292Y-032559D02*
G01X0011292Y-032226D01*
G01X0011292Y-032226D02*
G01X0011340Y-032035D01*
G01X0011340Y-032035D02*
G01X0011435Y-031940D01*
G01X0011435Y-031940D02*
G01X0011530Y-031892D01*
G01X0012864Y-032892D02*
G01X0012388Y-032892D01*
G01X0012388Y-032892D02*
G01X0012388Y-031892D01*
G01X0013197Y-032369D02*
G01X0013530Y-032369D01*
G01X0013673Y-032892D02*
G01X0013197Y-032892D01*
G01X0013197Y-032892D02*
G01X0013197Y-031892D01*
G01X0013197Y-031892D02*
G01X0013673Y-031892D01*
G01X0014864Y-032892D02*
G01X0014864Y-031892D01*
G01X0014864Y-031892D02*
G01X0015245Y-031892D01*
G01X0015245Y-031892D02*
G01X0015340Y-031940D01*
G01X0015340Y-031940D02*
G01X0015388Y-031988D01*
G01X0015388Y-031988D02*
G01X0015435Y-032083D01*
G01X0015435Y-032083D02*
G01X0015435Y-032226D01*
G01X0015435Y-032226D02*
G01X0015388Y-032321D01*
G01X0015388Y-032321D02*
G01X0015340Y-032369D01*
G01X0015340Y-032369D02*
G01X0015245Y-032416D01*
G01X0015245Y-032416D02*
G01X0014864Y-032416D01*
G01X0016340Y-032892D02*
G01X0015864Y-032892D01*
G01X0015864Y-032892D02*
G01X0015864Y-031892D01*
G01X0016626Y-032607D02*
G01X0017102Y-032607D01*
G01X0016530Y-032892D02*
G01X0016864Y-031892D01*
G01X0016864Y-031892D02*
G01X0017197Y-032892D01*
G01X0018102Y-032797D02*
G01X0018054Y-032845D01*
G01X0018054Y-032845D02*
G01X0017911Y-032892D01*
G01X0017911Y-032892D02*
G01X0017816Y-032892D01*
G01X0017816Y-032892D02*
G01X0017673Y-032845D01*
G01X0017673Y-032845D02*
G01X0017578Y-032750D01*
G01X0017578Y-032750D02*
G01X0017530Y-032654D01*
G01X0017530Y-032654D02*
G01X0017483Y-032464D01*
G01X0017483Y-032464D02*
G01X0017483Y-032321D01*
G01X0017483Y-032321D02*
G01X0017530Y-032130D01*
G01X0017530Y-032130D02*
G01X0017578Y-032035D01*
G01X0017578Y-032035D02*
G01X0017673Y-031940D01*
G01X0017673Y-031940D02*
G01X0017816Y-031892D01*
G01X0017816Y-031892D02*
G01X0017911Y-031892D01*
G01X0017911Y-031892D02*
G01X0018054Y-031940D01*
G01X0018054Y-031940D02*
G01X0018102Y-031988D01*
G01X0018530Y-032369D02*
G01X0018864Y-032369D01*
G01X0019007Y-032892D02*
G01X0018530Y-032892D01*
G01X0018530Y-032892D02*
G01X0018530Y-031892D01*
G01X0018530Y-031892D02*
G01X0019007Y-031892D01*
G01X0019435Y-032892D02*
G01X0019435Y-031892D01*
G01X0019435Y-031892D02*
G01X0019769Y-032607D01*
G01X0019769Y-032607D02*
G01X0020102Y-031892D01*
G01X0020102Y-031892D02*
G01X0020102Y-032892D01*
G01X0020578Y-032369D02*
G01X0020911Y-032369D01*
G01X0021054Y-032892D02*
G01X0020578Y-032892D01*
G01X0020578Y-032892D02*
G01X0020578Y-031892D01*
G01X0020578Y-031892D02*
G01X0021054Y-031892D01*
G01X0021483Y-032892D02*
G01X0021483Y-031892D01*
G01X0021483Y-031892D02*
G01X0022054Y-032892D01*
G01X0022054Y-032892D02*
G01X0022054Y-031892D01*
G01X0022388Y-031892D02*
G01X0022959Y-031892D01*
G01X0022673Y-032892D02*
G01X0022673Y-031892D01*
G01X0023911Y-031892D02*
G01X0024483Y-031892D01*
G01X0024197Y-032892D02*
G01X0024197Y-031892D01*
G01X0025007Y-031892D02*
G01X0025197Y-031892D01*
G01X0025197Y-031892D02*
G01X0025292Y-031940D01*
G01X0025292Y-031940D02*
G01X0025388Y-032035D01*
G01X0025388Y-032035D02*
G01X0025435Y-032226D01*
G01X0025435Y-032226D02*
G01X0025435Y-032559D01*
G01X0025435Y-032559D02*
G01X0025388Y-032750D01*
G01X0025388Y-032750D02*
G01X0025292Y-032845D01*
G01X0025292Y-032845D02*
G01X0025197Y-032892D01*
G01X0025197Y-032892D02*
G01X0025007Y-032892D01*
G01X0025007Y-032892D02*
G01X0024911Y-032845D01*
G01X0024911Y-032845D02*
G01X0024816Y-032750D01*
G01X0024816Y-032750D02*
G01X0024769Y-032559D01*
G01X0024769Y-032559D02*
G01X0024769Y-032226D01*
G01X0024769Y-032226D02*
G01X0024816Y-032035D01*
G01X0024816Y-032035D02*
G01X0024911Y-031940D01*
G01X0024911Y-031940D02*
G01X0025007Y-031892D01*
G01X0026340Y-032892D02*
G01X0025864Y-032892D01*
G01X0025864Y-032892D02*
G01X0025864Y-031892D01*
G01X0026673Y-032369D02*
G01X0027007Y-032369D01*
G01X0027150Y-032892D02*
G01X0026673Y-032892D01*
G01X0026673Y-032892D02*
G01X0026673Y-031892D01*
G01X0026673Y-031892D02*
G01X0027150Y-031892D01*
G01X0028150Y-032892D02*
G01X0027816Y-032416D01*
G01X0027578Y-032892D02*
G01X0027578Y-031892D01*
G01X0027578Y-031892D02*
G01X0027959Y-031892D01*
G01X0027959Y-031892D02*
G01X0028054Y-031940D01*
G01X0028054Y-031940D02*
G01X0028102Y-031988D01*
G01X0028102Y-031988D02*
G01X0028150Y-032083D01*
G01X0028150Y-032083D02*
G01X0028150Y-032226D01*
G01X0028150Y-032226D02*
G01X0028102Y-032321D01*
G01X0028102Y-032321D02*
G01X0028054Y-032369D01*
G01X0028054Y-032369D02*
G01X0027959Y-032416D01*
G01X0027959Y-032416D02*
G01X0027578Y-032416D01*
G01X0028530Y-032607D02*
G01X0029007Y-032607D01*
G01X0028435Y-032892D02*
G01X0028769Y-031892D01*
G01X0028769Y-031892D02*
G01X0029102Y-032892D01*
G01X0029435Y-032892D02*
G01X0029435Y-031892D01*
G01X0029435Y-031892D02*
G01X0030007Y-032892D01*
G01X0030007Y-032892D02*
G01X0030007Y-031892D01*
G01X0031054Y-032797D02*
G01X0031007Y-032845D01*
G01X0031007Y-032845D02*
G01X0030864Y-032892D01*
G01X0030864Y-032892D02*
G01X0030769Y-032892D01*
G01X0030769Y-032892D02*
G01X0030626Y-032845D01*
G01X0030626Y-032845D02*
G01X0030530Y-032750D01*
G01X0030530Y-032750D02*
G01X0030483Y-032654D01*
G01X0030483Y-032654D02*
G01X0030435Y-032464D01*
G01X0030435Y-032464D02*
G01X0030435Y-032321D01*
G01X0030435Y-032321D02*
G01X0030483Y-032130D01*
G01X0030483Y-032130D02*
G01X0030530Y-032035D01*
G01X0030530Y-032035D02*
G01X0030626Y-031940D01*
G01X0030626Y-031940D02*
G01X0030769Y-031892D01*
G01X0030769Y-031892D02*
G01X0030864Y-031892D01*
G01X0030864Y-031892D02*
G01X0031007Y-031940D01*
G01X0031007Y-031940D02*
G01X0031054Y-031988D01*
G01X0031483Y-032369D02*
G01X0031816Y-032369D01*
G01X0031959Y-032892D02*
G01X0031483Y-032892D01*
G01X0031483Y-032892D02*
G01X0031483Y-031892D01*
G01X0031483Y-031892D02*
G01X0031959Y-031892D01*
G01X0033340Y-031892D02*
G01X0033530Y-031892D01*
G01X0033530Y-031892D02*
G01X0033626Y-031940D01*
G01X0033626Y-031940D02*
G01X0033721Y-032035D01*
G01X0033721Y-032035D02*
G01X0033769Y-032226D01*
G01X0033769Y-032226D02*
G01X0033769Y-032559D01*
G01X0033769Y-032559D02*
G01X0033721Y-032750D01*
G01X0033721Y-032750D02*
G01X0033626Y-032845D01*
G01X0033626Y-032845D02*
G01X0033530Y-032892D01*
G01X0033530Y-032892D02*
G01X0033340Y-032892D01*
G01X0033340Y-032892D02*
G01X0033245Y-032845D01*
G01X0033245Y-032845D02*
G01X0033150Y-032750D01*
G01X0033150Y-032750D02*
G01X0033102Y-032559D01*
G01X0033102Y-032559D02*
G01X0033102Y-032226D01*
G01X0033102Y-032226D02*
G01X0033150Y-032035D01*
G01X0033150Y-032035D02*
G01X0033245Y-031940D01*
G01X0033245Y-031940D02*
G01X0033340Y-031892D01*
G01X0034530Y-032369D02*
G01X0034197Y-032369D01*
G01X0034197Y-032892D02*
G01X0034197Y-031892D01*
G01X0034197Y-031892D02*
G01X0034673Y-031892D01*
G01X0035816Y-032511D02*
G01X0036578Y-032511D01*
G01X0036197Y-032892D02*
G01X0036197Y-032130D01*
G01X0037769Y-031845D02*
G01X0036911Y-033130D01*
G01X0038102Y-032511D02*
G01X0038864Y-032511D01*
G01X0040292Y-031892D02*
G01X0040388Y-031892D01*
G01X0040388Y-031892D02*
G01X0040483Y-031940D01*
G01X0040483Y-031940D02*
G01X0040530Y-031988D01*
G01X0040530Y-031988D02*
G01X0040578Y-032083D01*
G01X0040578Y-032083D02*
G01X0040626Y-032273D01*
G01X0040626Y-032273D02*
G01X0040626Y-032511D01*
G01X0040626Y-032511D02*
G01X0040578Y-032702D01*
G01X0040578Y-032702D02*
G01X0040530Y-032797D01*
G01X0040530Y-032797D02*
G01X0040483Y-032845D01*
G01X0040483Y-032845D02*
G01X0040388Y-032892D01*
G01X0040388Y-032892D02*
G01X0040292Y-032892D01*
G01X0040292Y-032892D02*
G01X0040197Y-032845D01*
G01X0040197Y-032845D02*
G01X0040150Y-032797D01*
G01X0040150Y-032797D02*
G01X0040102Y-032702D01*
G01X0040102Y-032702D02*
G01X0040054Y-032511D01*
G01X0040054Y-032511D02*
G01X0040054Y-032273D01*
G01X0040054Y-032273D02*
G01X0040102Y-032083D01*
G01X0040102Y-032083D02*
G01X0040150Y-031988D01*
G01X0040150Y-031988D02*
G01X0040197Y-031940D01*
G01X0040197Y-031940D02*
G01X0040292Y-031892D01*
G01X0041054Y-032797D02*
G01X0041102Y-032845D01*
G01X0041102Y-032845D02*
G01X0041054Y-032892D01*
G01X0041054Y-032892D02*
G01X0041007Y-032845D01*
G01X0041007Y-032845D02*
G01X0041054Y-032797D01*
G01X0041054Y-032797D02*
G01X0041054Y-032892D01*
G01X0041721Y-031892D02*
G01X0041816Y-031892D01*
G01X0041816Y-031892D02*
G01X0041911Y-031940D01*
G01X0041911Y-031940D02*
G01X0041959Y-031988D01*
G01X0041959Y-031988D02*
G01X0042007Y-032083D01*
G01X0042007Y-032083D02*
G01X0042054Y-032273D01*
G01X0042054Y-032273D02*
G01X0042054Y-032511D01*
G01X0042054Y-032511D02*
G01X0042007Y-032702D01*
G01X0042007Y-032702D02*
G01X0041959Y-032797D01*
G01X0041959Y-032797D02*
G01X0041911Y-032845D01*
G01X0041911Y-032845D02*
G01X0041816Y-032892D01*
G01X0041816Y-032892D02*
G01X0041721Y-032892D01*
G01X0041721Y-032892D02*
G01X0041626Y-032845D01*
G01X0041626Y-032845D02*
G01X0041578Y-032797D01*
G01X0041578Y-032797D02*
G01X0041530Y-032702D01*
G01X0041530Y-032702D02*
G01X0041483Y-032511D01*
G01X0041483Y-032511D02*
G01X0041483Y-032273D01*
G01X0041483Y-032273D02*
G01X0041530Y-032083D01*
G01X0041530Y-032083D02*
G01X0041578Y-031988D01*
G01X0041578Y-031988D02*
G01X0041626Y-031940D01*
G01X0041626Y-031940D02*
G01X0041721Y-031892D01*
G01X0042673Y-031892D02*
G01X0042769Y-031892D01*
G01X0042769Y-031892D02*
G01X0042864Y-031940D01*
G01X0042864Y-031940D02*
G01X0042911Y-031988D01*
G01X0042911Y-031988D02*
G01X0042959Y-032083D01*
G01X0042959Y-032083D02*
G01X0043007Y-032273D01*
G01X0043007Y-032273D02*
G01X0043007Y-032511D01*
G01X0043007Y-032511D02*
G01X0042959Y-032702D01*
G01X0042959Y-032702D02*
G01X0042911Y-032797D01*
G01X0042911Y-032797D02*
G01X0042864Y-032845D01*
G01X0042864Y-032845D02*
G01X0042769Y-032892D01*
G01X0042769Y-032892D02*
G01X0042673Y-032892D01*
G01X0042673Y-032892D02*
G01X0042578Y-032845D01*
G01X0042578Y-032845D02*
G01X0042530Y-032797D01*
G01X0042530Y-032797D02*
G01X0042483Y-032702D01*
G01X0042483Y-032702D02*
G01X0042435Y-032511D01*
G01X0042435Y-032511D02*
G01X0042435Y-032273D01*
G01X0042435Y-032273D02*
G01X0042483Y-032083D01*
G01X0042483Y-032083D02*
G01X0042530Y-031988D01*
G01X0042530Y-031988D02*
G01X0042578Y-031940D01*
G01X0042578Y-031940D02*
G01X0042673Y-031892D01*
G01X0043340Y-031892D02*
G01X0043959Y-031892D01*
G01X0043959Y-031892D02*
G01X0043626Y-032273D01*
G01X0043626Y-032273D02*
G01X0043769Y-032273D01*
G01X0043769Y-032273D02*
G01X0043864Y-032321D01*
G01X0043864Y-032321D02*
G01X0043911Y-032369D01*
G01X0043911Y-032369D02*
G01X0043959Y-032464D01*
G01X0043959Y-032464D02*
G01X0043959Y-032702D01*
G01X0043959Y-032702D02*
G01X0043911Y-032797D01*
G01X0043911Y-032797D02*
G01X0043864Y-032845D01*
G01X0043864Y-032845D02*
G01X0043769Y-032892D01*
G01X0043769Y-032892D02*
G01X0043483Y-032892D01*
G01X0043483Y-032892D02*
G01X0043388Y-032845D01*
G01X0043388Y-032845D02*
G01X0043340Y-032797D01*
G01X0045150Y-032892D02*
G01X0045150Y-031892D01*
G01X0045626Y-032892D02*
G01X0045626Y-031892D01*
G01X0045626Y-031892D02*
G01X0046197Y-032892D01*
G01X0046197Y-032892D02*
G01X0046197Y-031892D01*
G01X0047245Y-032797D02*
G01X0047197Y-032845D01*
G01X0047197Y-032845D02*
G01X0047054Y-032892D01*
G01X0047054Y-032892D02*
G01X0046959Y-032892D01*
G01X0046959Y-032892D02*
G01X0046816Y-032845D01*
G01X0046816Y-032845D02*
G01X0046721Y-032750D01*
G01X0046721Y-032750D02*
G01X0046673Y-032654D01*
G01X0046673Y-032654D02*
G01X0046626Y-032464D01*
G01X0046626Y-032464D02*
G01X0046626Y-032321D01*
G01X0046626Y-032321D02*
G01X0046673Y-032130D01*
G01X0046673Y-032130D02*
G01X0046721Y-032035D01*
G01X0046721Y-032035D02*
G01X0046816Y-031940D01*
G01X0046816Y-031940D02*
G01X0046959Y-031892D01*
G01X0046959Y-031892D02*
G01X0047054Y-031892D01*
G01X0047054Y-031892D02*
G01X0047197Y-031940D01*
G01X0047197Y-031940D02*
G01X0047245Y-031988D01*
G01X0047673Y-032892D02*
G01X0047673Y-031892D01*
G01X0047673Y-032369D02*
G01X0048245Y-032369D01*
G01X0048245Y-032892D02*
G01X0048245Y-031892D01*
G01X0001054Y-033492D02*
G01X0000578Y-033492D01*
G01X0000578Y-033492D02*
G01X0000530Y-033969D01*
G01X0000530Y-033969D02*
G01X0000578Y-033921D01*
G01X0000578Y-033921D02*
G01X0000673Y-033873D01*
G01X0000673Y-033873D02*
G01X0000911Y-033873D01*
G01X0000911Y-033873D02*
G01X0001007Y-033921D01*
G01X0001007Y-033921D02*
G01X0001054Y-033969D01*
G01X0001054Y-033969D02*
G01X0001102Y-034064D01*
G01X0001102Y-034064D02*
G01X0001102Y-034302D01*
G01X0001102Y-034302D02*
G01X0001054Y-034397D01*
G01X0001054Y-034397D02*
G01X0001007Y-034445D01*
G01X0001007Y-034445D02*
G01X0000911Y-034492D01*
G01X0000911Y-034492D02*
G01X0000673Y-034492D01*
G01X0000673Y-034492D02*
G01X0000578Y-034445D01*
G01X0000578Y-034445D02*
G01X0000530Y-034397D01*
G01X0001530Y-034397D02*
G01X0001578Y-034445D01*
G01X0001578Y-034445D02*
G01X0001530Y-034492D01*
G01X0001530Y-034492D02*
G01X0001483Y-034445D01*
G01X0001483Y-034445D02*
G01X0001530Y-034397D01*
G01X0001530Y-034397D02*
G01X0001530Y-034492D01*
G01X0002769Y-034492D02*
G01X0002769Y-033492D01*
G01X0002769Y-033492D02*
G01X0003102Y-034207D01*
G01X0003102Y-034207D02*
G01X0003435Y-033492D01*
G01X0003435Y-033492D02*
G01X0003435Y-034492D01*
G01X0003864Y-034207D02*
G01X0004340Y-034207D01*
G01X0003769Y-034492D02*
G01X0004102Y-033492D01*
G01X0004102Y-033492D02*
G01X0004435Y-034492D01*
G01X0004673Y-033492D02*
G01X0005340Y-034492D01*
G01X0005340Y-033492D02*
G01X0004673Y-034492D01*
G01X0005721Y-034492D02*
G01X0005721Y-033492D01*
G01X0006197Y-034492D02*
G01X0006197Y-033492D01*
G01X0006197Y-033492D02*
G01X0006530Y-034207D01*
G01X0006530Y-034207D02*
G01X0006864Y-033492D01*
G01X0006864Y-033492D02*
G01X0006864Y-034492D01*
G01X0007340Y-033492D02*
G01X0007340Y-034302D01*
G01X0007340Y-034302D02*
G01X0007388Y-034397D01*
G01X0007388Y-034397D02*
G01X0007435Y-034445D01*
G01X0007435Y-034445D02*
G01X0007530Y-034492D01*
G01X0007530Y-034492D02*
G01X0007721Y-034492D01*
G01X0007721Y-034492D02*
G01X0007816Y-034445D01*
G01X0007816Y-034445D02*
G01X0007864Y-034397D01*
G01X0007864Y-034397D02*
G01X0007911Y-034302D01*
G01X0007911Y-034302D02*
G01X0007911Y-033492D01*
G01X0008388Y-034492D02*
G01X0008388Y-033492D01*
G01X0008388Y-033492D02*
G01X0008721Y-034207D01*
G01X0008721Y-034207D02*
G01X0009054Y-033492D01*
G01X0009054Y-033492D02*
G01X0009054Y-034492D01*
G01X0010292Y-034492D02*
G01X0010292Y-033492D01*
G01X0010292Y-033969D02*
G01X0010864Y-033969D01*
G01X0010864Y-034492D02*
G01X0010864Y-033492D01*
G01X0011530Y-033492D02*
G01X0011721Y-033492D01*
G01X0011721Y-033492D02*
G01X0011816Y-033540D01*
G01X0011816Y-033540D02*
G01X0011911Y-033635D01*
G01X0011911Y-033635D02*
G01X0011959Y-033826D01*
G01X0011959Y-033826D02*
G01X0011959Y-034159D01*
G01X0011959Y-034159D02*
G01X0011911Y-034350D01*
G01X0011911Y-034350D02*
G01X0011816Y-034445D01*
G01X0011816Y-034445D02*
G01X0011721Y-034492D01*
G01X0011721Y-034492D02*
G01X0011530Y-034492D01*
G01X0011530Y-034492D02*
G01X0011435Y-034445D01*
G01X0011435Y-034445D02*
G01X0011340Y-034350D01*
G01X0011340Y-034350D02*
G01X0011292Y-034159D01*
G01X0011292Y-034159D02*
G01X0011292Y-033826D01*
G01X0011292Y-033826D02*
G01X0011340Y-033635D01*
G01X0011340Y-033635D02*
G01X0011435Y-033540D01*
G01X0011435Y-033540D02*
G01X0011530Y-033492D01*
G01X0012864Y-034492D02*
G01X0012388Y-034492D01*
G01X0012388Y-034492D02*
G01X0012388Y-033492D01*
G01X0013197Y-033969D02*
G01X0013530Y-033969D01*
G01X0013673Y-034492D02*
G01X0013197Y-034492D01*
G01X0013197Y-034492D02*
G01X0013197Y-033492D01*
G01X0013197Y-033492D02*
G01X0013673Y-033492D01*
G01X0014864Y-034492D02*
G01X0014864Y-033492D01*
G01X0014864Y-033492D02*
G01X0015102Y-033492D01*
G01X0015102Y-033492D02*
G01X0015245Y-033540D01*
G01X0015245Y-033540D02*
G01X0015340Y-033635D01*
G01X0015340Y-033635D02*
G01X0015388Y-033730D01*
G01X0015388Y-033730D02*
G01X0015435Y-033921D01*
G01X0015435Y-033921D02*
G01X0015435Y-034064D01*
G01X0015435Y-034064D02*
G01X0015388Y-034254D01*
G01X0015388Y-034254D02*
G01X0015340Y-034350D01*
G01X0015340Y-034350D02*
G01X0015245Y-034445D01*
G01X0015245Y-034445D02*
G01X0015102Y-034492D01*
G01X0015102Y-034492D02*
G01X0014864Y-034492D01*
G01X0015864Y-034492D02*
G01X0015864Y-033492D01*
G01X0016292Y-034207D02*
G01X0016769Y-034207D01*
G01X0016197Y-034492D02*
G01X0016530Y-033492D01*
G01X0016530Y-033492D02*
G01X0016864Y-034492D01*
G01X0017197Y-034492D02*
G01X0017197Y-033492D01*
G01X0017197Y-033492D02*
G01X0017530Y-034207D01*
G01X0017530Y-034207D02*
G01X0017864Y-033492D01*
G01X0017864Y-033492D02*
G01X0017864Y-034492D01*
G01X0018340Y-033969D02*
G01X0018673Y-033969D01*
G01X0018816Y-034492D02*
G01X0018340Y-034492D01*
G01X0018340Y-034492D02*
G01X0018340Y-033492D01*
G01X0018340Y-033492D02*
G01X0018816Y-033492D01*
G01X0019102Y-033492D02*
G01X0019673Y-033492D01*
G01X0019388Y-034492D02*
G01X0019388Y-033492D01*
G01X0020007Y-033969D02*
G01X0020340Y-033969D01*
G01X0020483Y-034492D02*
G01X0020007Y-034492D01*
G01X0020007Y-034492D02*
G01X0020007Y-033492D01*
G01X0020007Y-033492D02*
G01X0020483Y-033492D01*
G01X0021483Y-034492D02*
G01X0021150Y-034016D01*
G01X0020911Y-034492D02*
G01X0020911Y-033492D01*
G01X0020911Y-033492D02*
G01X0021292Y-033492D01*
G01X0021292Y-033492D02*
G01X0021388Y-033540D01*
G01X0021388Y-033540D02*
G01X0021435Y-033588D01*
G01X0021435Y-033588D02*
G01X0021483Y-033683D01*
G01X0021483Y-033683D02*
G01X0021483Y-033826D01*
G01X0021483Y-033826D02*
G01X0021435Y-033921D01*
G01X0021435Y-033921D02*
G01X0021388Y-033969D01*
G01X0021388Y-033969D02*
G01X0021292Y-034016D01*
G01X0021292Y-034016D02*
G01X0020911Y-034016D01*
G01X0022530Y-033492D02*
G01X0023102Y-033492D01*
G01X0022816Y-034492D02*
G01X0022816Y-033492D01*
G01X0023626Y-033492D02*
G01X0023816Y-033492D01*
G01X0023816Y-033492D02*
G01X0023911Y-033540D01*
G01X0023911Y-033540D02*
G01X0024007Y-033635D01*
G01X0024007Y-033635D02*
G01X0024054Y-033826D01*
G01X0024054Y-033826D02*
G01X0024054Y-034159D01*
G01X0024054Y-034159D02*
G01X0024007Y-034350D01*
G01X0024007Y-034350D02*
G01X0023911Y-034445D01*
G01X0023911Y-034445D02*
G01X0023816Y-034492D01*
G01X0023816Y-034492D02*
G01X0023626Y-034492D01*
G01X0023626Y-034492D02*
G01X0023530Y-034445D01*
G01X0023530Y-034445D02*
G01X0023435Y-034350D01*
G01X0023435Y-034350D02*
G01X0023388Y-034159D01*
G01X0023388Y-034159D02*
G01X0023388Y-033826D01*
G01X0023388Y-033826D02*
G01X0023435Y-033635D01*
G01X0023435Y-033635D02*
G01X0023530Y-033540D01*
G01X0023530Y-033540D02*
G01X0023626Y-033492D01*
G01X0024959Y-034492D02*
G01X0024483Y-034492D01*
G01X0024483Y-034492D02*
G01X0024483Y-033492D01*
G01X0025292Y-033969D02*
G01X0025626Y-033969D01*
G01X0025769Y-034492D02*
G01X0025292Y-034492D01*
G01X0025292Y-034492D02*
G01X0025292Y-033492D01*
G01X0025292Y-033492D02*
G01X0025769Y-033492D01*
G01X0026769Y-034492D02*
G01X0026435Y-034016D01*
G01X0026197Y-034492D02*
G01X0026197Y-033492D01*
G01X0026197Y-033492D02*
G01X0026578Y-033492D01*
G01X0026578Y-033492D02*
G01X0026673Y-033540D01*
G01X0026673Y-033540D02*
G01X0026721Y-033588D01*
G01X0026721Y-033588D02*
G01X0026769Y-033683D01*
G01X0026769Y-033683D02*
G01X0026769Y-033826D01*
G01X0026769Y-033826D02*
G01X0026721Y-033921D01*
G01X0026721Y-033921D02*
G01X0026673Y-033969D01*
G01X0026673Y-033969D02*
G01X0026578Y-034016D01*
G01X0026578Y-034016D02*
G01X0026197Y-034016D01*
G01X0027197Y-034492D02*
G01X0027197Y-033492D01*
G01X0027197Y-033492D02*
G01X0027769Y-034492D01*
G01X0027769Y-034492D02*
G01X0027769Y-033492D01*
G01X0028197Y-034207D02*
G01X0028673Y-034207D01*
G01X0028102Y-034492D02*
G01X0028435Y-033492D01*
G01X0028435Y-033492D02*
G01X0028769Y-034492D01*
G01X0029673Y-034397D02*
G01X0029626Y-034445D01*
G01X0029626Y-034445D02*
G01X0029483Y-034492D01*
G01X0029483Y-034492D02*
G01X0029388Y-034492D01*
G01X0029388Y-034492D02*
G01X0029245Y-034445D01*
G01X0029245Y-034445D02*
G01X0029150Y-034350D01*
G01X0029150Y-034350D02*
G01X0029102Y-034254D01*
G01X0029102Y-034254D02*
G01X0029054Y-034064D01*
G01X0029054Y-034064D02*
G01X0029054Y-033921D01*
G01X0029054Y-033921D02*
G01X0029102Y-033730D01*
G01X0029102Y-033730D02*
G01X0029150Y-033635D01*
G01X0029150Y-033635D02*
G01X0029245Y-033540D01*
G01X0029245Y-033540D02*
G01X0029388Y-033492D01*
G01X0029388Y-033492D02*
G01X0029483Y-033492D01*
G01X0029483Y-033492D02*
G01X0029626Y-033540D01*
G01X0029626Y-033540D02*
G01X0029673Y-033588D01*
G01X0030102Y-033969D02*
G01X0030435Y-033969D01*
G01X0030578Y-034492D02*
G01X0030102Y-034492D01*
G01X0030102Y-034492D02*
G01X0030102Y-033492D01*
G01X0030102Y-033492D02*
G01X0030578Y-033492D01*
G01X0031959Y-033492D02*
G01X0032150Y-033492D01*
G01X0032150Y-033492D02*
G01X0032245Y-033540D01*
G01X0032245Y-033540D02*
G01X0032340Y-033635D01*
G01X0032340Y-033635D02*
G01X0032388Y-033826D01*
G01X0032388Y-033826D02*
G01X0032388Y-034159D01*
G01X0032388Y-034159D02*
G01X0032340Y-034350D01*
G01X0032340Y-034350D02*
G01X0032245Y-034445D01*
G01X0032245Y-034445D02*
G01X0032150Y-034492D01*
G01X0032150Y-034492D02*
G01X0031959Y-034492D01*
G01X0031959Y-034492D02*
G01X0031864Y-034445D01*
G01X0031864Y-034445D02*
G01X0031769Y-034350D01*
G01X0031769Y-034350D02*
G01X0031721Y-034159D01*
G01X0031721Y-034159D02*
G01X0031721Y-033826D01*
G01X0031721Y-033826D02*
G01X0031769Y-033635D01*
G01X0031769Y-033635D02*
G01X0031864Y-033540D01*
G01X0031864Y-033540D02*
G01X0031959Y-033492D01*
G01X0033150Y-033969D02*
G01X0032816Y-033969D01*
G01X0032816Y-034492D02*
G01X0032816Y-033492D01*
G01X0032816Y-033492D02*
G01X0033292Y-033492D01*
G01X0034435Y-034111D02*
G01X0035197Y-034111D01*
G01X0034816Y-034492D02*
G01X0034816Y-033730D01*
G01X0036388Y-033445D02*
G01X0035530Y-034730D01*
G01X0036721Y-034111D02*
G01X0037483Y-034111D01*
G01X0038911Y-033492D02*
G01X0039007Y-033492D01*
G01X0039007Y-033492D02*
G01X0039102Y-033540D01*
G01X0039102Y-033540D02*
G01X0039150Y-033588D01*
G01X0039150Y-033588D02*
G01X0039197Y-033683D01*
G01X0039197Y-033683D02*
G01X0039245Y-033873D01*
G01X0039245Y-033873D02*
G01X0039245Y-034111D01*
G01X0039245Y-034111D02*
G01X0039197Y-034302D01*
G01X0039197Y-034302D02*
G01X0039150Y-034397D01*
G01X0039150Y-034397D02*
G01X0039102Y-034445D01*
G01X0039102Y-034445D02*
G01X0039007Y-034492D01*
G01X0039007Y-034492D02*
G01X0038911Y-034492D01*
G01X0038911Y-034492D02*
G01X0038816Y-034445D01*
G01X0038816Y-034445D02*
G01X0038769Y-034397D01*
G01X0038769Y-034397D02*
G01X0038721Y-034302D01*
G01X0038721Y-034302D02*
G01X0038673Y-034111D01*
G01X0038673Y-034111D02*
G01X0038673Y-033873D01*
G01X0038673Y-033873D02*
G01X0038721Y-033683D01*
G01X0038721Y-033683D02*
G01X0038769Y-033588D01*
G01X0038769Y-033588D02*
G01X0038816Y-033540D01*
G01X0038816Y-033540D02*
G01X0038911Y-033492D01*
G01X0039673Y-034397D02*
G01X0039721Y-034445D01*
G01X0039721Y-034445D02*
G01X0039673Y-034492D01*
G01X0039673Y-034492D02*
G01X0039626Y-034445D01*
G01X0039626Y-034445D02*
G01X0039673Y-034397D01*
G01X0039673Y-034397D02*
G01X0039673Y-034492D01*
G01X0040340Y-033492D02*
G01X0040435Y-033492D01*
G01X0040435Y-033492D02*
G01X0040530Y-033540D01*
G01X0040530Y-033540D02*
G01X0040578Y-033588D01*
G01X0040578Y-033588D02*
G01X0040626Y-033683D01*
G01X0040626Y-033683D02*
G01X0040673Y-033873D01*
G01X0040673Y-033873D02*
G01X0040673Y-034111D01*
G01X0040673Y-034111D02*
G01X0040626Y-034302D01*
G01X0040626Y-034302D02*
G01X0040578Y-034397D01*
G01X0040578Y-034397D02*
G01X0040530Y-034445D01*
G01X0040530Y-034445D02*
G01X0040435Y-034492D01*
G01X0040435Y-034492D02*
G01X0040340Y-034492D01*
G01X0040340Y-034492D02*
G01X0040245Y-034445D01*
G01X0040245Y-034445D02*
G01X0040197Y-034397D01*
G01X0040197Y-034397D02*
G01X0040150Y-034302D01*
G01X0040150Y-034302D02*
G01X0040102Y-034111D01*
G01X0040102Y-034111D02*
G01X0040102Y-033873D01*
G01X0040102Y-033873D02*
G01X0040150Y-033683D01*
G01X0040150Y-033683D02*
G01X0040197Y-033588D01*
G01X0040197Y-033588D02*
G01X0040245Y-033540D01*
G01X0040245Y-033540D02*
G01X0040340Y-033492D01*
G01X0041292Y-033492D02*
G01X0041388Y-033492D01*
G01X0041388Y-033492D02*
G01X0041483Y-033540D01*
G01X0041483Y-033540D02*
G01X0041530Y-033588D01*
G01X0041530Y-033588D02*
G01X0041578Y-033683D01*
G01X0041578Y-033683D02*
G01X0041626Y-033873D01*
G01X0041626Y-033873D02*
G01X0041626Y-034111D01*
G01X0041626Y-034111D02*
G01X0041578Y-034302D01*
G01X0041578Y-034302D02*
G01X0041530Y-034397D01*
G01X0041530Y-034397D02*
G01X0041483Y-034445D01*
G01X0041483Y-034445D02*
G01X0041388Y-034492D01*
G01X0041388Y-034492D02*
G01X0041292Y-034492D01*
G01X0041292Y-034492D02*
G01X0041197Y-034445D01*
G01X0041197Y-034445D02*
G01X0041150Y-034397D01*
G01X0041150Y-034397D02*
G01X0041102Y-034302D01*
G01X0041102Y-034302D02*
G01X0041054Y-034111D01*
G01X0041054Y-034111D02*
G01X0041054Y-033873D01*
G01X0041054Y-033873D02*
G01X0041102Y-033683D01*
G01X0041102Y-033683D02*
G01X0041150Y-033588D01*
G01X0041150Y-033588D02*
G01X0041197Y-033540D01*
G01X0041197Y-033540D02*
G01X0041292Y-033492D01*
G01X0041959Y-033492D02*
G01X0042578Y-033492D01*
G01X0042578Y-033492D02*
G01X0042245Y-033873D01*
G01X0042245Y-033873D02*
G01X0042388Y-033873D01*
G01X0042388Y-033873D02*
G01X0042483Y-033921D01*
G01X0042483Y-033921D02*
G01X0042530Y-033969D01*
G01X0042530Y-033969D02*
G01X0042578Y-034064D01*
G01X0042578Y-034064D02*
G01X0042578Y-034302D01*
G01X0042578Y-034302D02*
G01X0042530Y-034397D01*
G01X0042530Y-034397D02*
G01X0042483Y-034445D01*
G01X0042483Y-034445D02*
G01X0042388Y-034492D01*
G01X0042388Y-034492D02*
G01X0042102Y-034492D01*
G01X0042102Y-034492D02*
G01X0042007Y-034445D01*
G01X0042007Y-034445D02*
G01X0041959Y-034397D01*
G01X0043769Y-034492D02*
G01X0043769Y-033492D01*
G01X0044245Y-034492D02*
G01X0044245Y-033492D01*
G01X0044245Y-033492D02*
G01X0044816Y-034492D01*
G01X0044816Y-034492D02*
G01X0044816Y-033492D01*
G01X0045864Y-034397D02*
G01X0045816Y-034445D01*
G01X0045816Y-034445D02*
G01X0045673Y-034492D01*
G01X0045673Y-034492D02*
G01X0045578Y-034492D01*
G01X0045578Y-034492D02*
G01X0045435Y-034445D01*
G01X0045435Y-034445D02*
G01X0045340Y-034350D01*
G01X0045340Y-034350D02*
G01X0045292Y-034254D01*
G01X0045292Y-034254D02*
G01X0045245Y-034064D01*
G01X0045245Y-034064D02*
G01X0045245Y-033921D01*
G01X0045245Y-033921D02*
G01X0045292Y-033730D01*
G01X0045292Y-033730D02*
G01X0045340Y-033635D01*
G01X0045340Y-033635D02*
G01X0045435Y-033540D01*
G01X0045435Y-033540D02*
G01X0045578Y-033492D01*
G01X0045578Y-033492D02*
G01X0045673Y-033492D01*
G01X0045673Y-033492D02*
G01X0045816Y-033540D01*
G01X0045816Y-033540D02*
G01X0045864Y-033588D01*
G01X0046292Y-034492D02*
G01X0046292Y-033492D01*
G01X0046292Y-033969D02*
G01X0046864Y-033969D01*
G01X0046864Y-034492D02*
G01X0046864Y-033492D01*
G01X0048054Y-034207D02*
G01X0048530Y-034207D01*
G01X0047959Y-034492D02*
G01X0048292Y-033492D01*
G01X0048292Y-033492D02*
G01X0048626Y-034492D01*
G01X0049292Y-033969D02*
G01X0048959Y-033969D01*
G01X0048959Y-034492D02*
G01X0048959Y-033492D01*
G01X0048959Y-033492D02*
G01X0049435Y-033492D01*
G01X0049673Y-033492D02*
G01X0050245Y-033492D01*
G01X0049959Y-034492D02*
G01X0049959Y-033492D01*
G01X0050578Y-033969D02*
G01X0050911Y-033969D01*
G01X0051054Y-034492D02*
G01X0050578Y-034492D01*
G01X0050578Y-034492D02*
G01X0050578Y-033492D01*
G01X0050578Y-033492D02*
G01X0051054Y-033492D01*
G01X0052054Y-034492D02*
G01X0051721Y-034016D01*
G01X0051483Y-034492D02*
G01X0051483Y-033492D01*
G01X0051483Y-033492D02*
G01X0051864Y-033492D01*
G01X0051864Y-033492D02*
G01X0051959Y-033540D01*
G01X0051959Y-033540D02*
G01X0052007Y-033588D01*
G01X0052007Y-033588D02*
G01X0052054Y-033683D01*
G01X0052054Y-033683D02*
G01X0052054Y-033826D01*
G01X0052054Y-033826D02*
G01X0052007Y-033921D01*
G01X0052007Y-033921D02*
G01X0051959Y-033969D01*
G01X0051959Y-033969D02*
G01X0051864Y-034016D01*
G01X0051864Y-034016D02*
G01X0051483Y-034016D01*
G01X0053245Y-034492D02*
G01X0053245Y-033492D01*
G01X0053245Y-033492D02*
G01X0053626Y-033492D01*
G01X0053626Y-033492D02*
G01X0053721Y-033540D01*
G01X0053721Y-033540D02*
G01X0053769Y-033588D01*
G01X0053769Y-033588D02*
G01X0053816Y-033683D01*
G01X0053816Y-033683D02*
G01X0053816Y-033826D01*
G01X0053816Y-033826D02*
G01X0053769Y-033921D01*
G01X0053769Y-033921D02*
G01X0053721Y-033969D01*
G01X0053721Y-033969D02*
G01X0053626Y-034016D01*
G01X0053626Y-034016D02*
G01X0053245Y-034016D01*
G01X0054721Y-034492D02*
G01X0054245Y-034492D01*
G01X0054245Y-034492D02*
G01X0054245Y-033492D01*
G01X0055007Y-034207D02*
G01X0055483Y-034207D01*
G01X0054911Y-034492D02*
G01X0055245Y-033492D01*
G01X0055245Y-033492D02*
G01X0055578Y-034492D01*
G01X0055769Y-033492D02*
G01X0056340Y-033492D01*
G01X0056054Y-034492D02*
G01X0056054Y-033492D01*
G01X0056673Y-034492D02*
G01X0056673Y-033492D01*
G01X0057150Y-034492D02*
G01X0057150Y-033492D01*
G01X0057150Y-033492D02*
G01X0057721Y-034492D01*
G01X0057721Y-034492D02*
G01X0057721Y-033492D01*
G01X0058721Y-033540D02*
G01X0058626Y-033492D01*
G01X0058626Y-033492D02*
G01X0058483Y-033492D01*
G01X0058483Y-033492D02*
G01X0058340Y-033540D01*
G01X0058340Y-033540D02*
G01X0058245Y-033635D01*
G01X0058245Y-033635D02*
G01X0058197Y-033730D01*
G01X0058197Y-033730D02*
G01X0058150Y-033921D01*
G01X0058150Y-033921D02*
G01X0058150Y-034064D01*
G01X0058150Y-034064D02*
G01X0058197Y-034254D01*
G01X0058197Y-034254D02*
G01X0058245Y-034350D01*
G01X0058245Y-034350D02*
G01X0058340Y-034445D01*
G01X0058340Y-034445D02*
G01X0058483Y-034492D01*
G01X0058483Y-034492D02*
G01X0058578Y-034492D01*
G01X0058578Y-034492D02*
G01X0058721Y-034445D01*
G01X0058721Y-034445D02*
G01X0058769Y-034397D01*
G01X0058769Y-034397D02*
G01X0058769Y-034064D01*
G01X0058769Y-034064D02*
G01X0058578Y-034064D01*
G01X0001007Y-035092D02*
G01X0000816Y-035092D01*
G01X0000816Y-035092D02*
G01X0000721Y-035140D01*
G01X0000721Y-035140D02*
G01X0000673Y-035188D01*
G01X0000673Y-035188D02*
G01X0000578Y-035330D01*
G01X0000578Y-035330D02*
G01X0000530Y-035521D01*
G01X0000530Y-035521D02*
G01X0000530Y-035902D01*
G01X0000530Y-035902D02*
G01X0000578Y-035997D01*
G01X0000578Y-035997D02*
G01X0000626Y-036045D01*
G01X0000626Y-036045D02*
G01X0000721Y-036092D01*
G01X0000721Y-036092D02*
G01X0000911Y-036092D01*
G01X0000911Y-036092D02*
G01X0001007Y-036045D01*
G01X0001007Y-036045D02*
G01X0001054Y-035997D01*
G01X0001054Y-035997D02*
G01X0001102Y-035902D01*
G01X0001102Y-035902D02*
G01X0001102Y-035664D01*
G01X0001102Y-035664D02*
G01X0001054Y-035569D01*
G01X0001054Y-035569D02*
G01X0001007Y-035521D01*
G01X0001007Y-035521D02*
G01X0000911Y-035473D01*
G01X0000911Y-035473D02*
G01X0000721Y-035473D01*
G01X0000721Y-035473D02*
G01X0000626Y-035521D01*
G01X0000626Y-035521D02*
G01X0000578Y-035569D01*
G01X0000578Y-035569D02*
G01X0000530Y-035664D01*
G01X0001530Y-035997D02*
G01X0001578Y-036045D01*
G01X0001578Y-036045D02*
G01X0001530Y-036092D01*
G01X0001530Y-036092D02*
G01X0001483Y-036045D01*
G01X0001483Y-036045D02*
G01X0001530Y-035997D01*
G01X0001530Y-035997D02*
G01X0001530Y-036092D01*
G01X0003102Y-035569D02*
G01X0003245Y-035616D01*
G01X0003245Y-035616D02*
G01X0003292Y-035664D01*
G01X0003292Y-035664D02*
G01X0003340Y-035759D01*
G01X0003340Y-035759D02*
G01X0003340Y-035902D01*
G01X0003340Y-035902D02*
G01X0003292Y-035997D01*
G01X0003292Y-035997D02*
G01X0003245Y-036045D01*
G01X0003245Y-036045D02*
G01X0003150Y-036092D01*
G01X0003150Y-036092D02*
G01X0002769Y-036092D01*
G01X0002769Y-036092D02*
G01X0002769Y-035092D01*
G01X0002769Y-035092D02*
G01X0003102Y-035092D01*
G01X0003102Y-035092D02*
G01X0003197Y-035140D01*
G01X0003197Y-035140D02*
G01X0003245Y-035188D01*
G01X0003245Y-035188D02*
G01X0003292Y-035283D01*
G01X0003292Y-035283D02*
G01X0003292Y-035378D01*
G01X0003292Y-035378D02*
G01X0003245Y-035473D01*
G01X0003245Y-035473D02*
G01X0003197Y-035521D01*
G01X0003197Y-035521D02*
G01X0003102Y-035569D01*
G01X0003102Y-035569D02*
G01X0002769Y-035569D01*
G01X0003959Y-035092D02*
G01X0004150Y-035092D01*
G01X0004150Y-035092D02*
G01X0004245Y-035140D01*
G01X0004245Y-035140D02*
G01X0004340Y-035235D01*
G01X0004340Y-035235D02*
G01X0004388Y-035426D01*
G01X0004388Y-035426D02*
G01X0004388Y-035759D01*
G01X0004388Y-035759D02*
G01X0004340Y-035950D01*
G01X0004340Y-035950D02*
G01X0004245Y-036045D01*
G01X0004245Y-036045D02*
G01X0004150Y-036092D01*
G01X0004150Y-036092D02*
G01X0003959Y-036092D01*
G01X0003959Y-036092D02*
G01X0003864Y-036045D01*
G01X0003864Y-036045D02*
G01X0003769Y-035950D01*
G01X0003769Y-035950D02*
G01X0003721Y-035759D01*
G01X0003721Y-035759D02*
G01X0003721Y-035426D01*
G01X0003721Y-035426D02*
G01X0003769Y-035235D01*
G01X0003769Y-035235D02*
G01X0003864Y-035140D01*
G01X0003864Y-035140D02*
G01X0003959Y-035092D01*
G01X0004673Y-035092D02*
G01X0005245Y-035092D01*
G01X0004959Y-036092D02*
G01X0004959Y-035092D01*
G01X0005578Y-036092D02*
G01X0005578Y-035092D01*
G01X0005578Y-035569D02*
G01X0006150Y-035569D01*
G01X0006150Y-036092D02*
G01X0006150Y-035092D01*
G01X0007340Y-036045D02*
G01X0007483Y-036092D01*
G01X0007483Y-036092D02*
G01X0007721Y-036092D01*
G01X0007721Y-036092D02*
G01X0007816Y-036045D01*
G01X0007816Y-036045D02*
G01X0007864Y-035997D01*
G01X0007864Y-035997D02*
G01X0007911Y-035902D01*
G01X0007911Y-035902D02*
G01X0007911Y-035807D01*
G01X0007911Y-035807D02*
G01X0007864Y-035711D01*
G01X0007864Y-035711D02*
G01X0007816Y-035664D01*
G01X0007816Y-035664D02*
G01X0007721Y-035616D01*
G01X0007721Y-035616D02*
G01X0007530Y-035569D01*
G01X0007530Y-035569D02*
G01X0007435Y-035521D01*
G01X0007435Y-035521D02*
G01X0007388Y-035473D01*
G01X0007388Y-035473D02*
G01X0007340Y-035378D01*
G01X0007340Y-035378D02*
G01X0007340Y-035283D01*
G01X0007340Y-035283D02*
G01X0007388Y-035188D01*
G01X0007388Y-035188D02*
G01X0007435Y-035140D01*
G01X0007435Y-035140D02*
G01X0007530Y-035092D01*
G01X0007530Y-035092D02*
G01X0007769Y-035092D01*
G01X0007769Y-035092D02*
G01X0007911Y-035140D01*
G01X0008340Y-036092D02*
G01X0008340Y-035092D01*
G01X0008816Y-036092D02*
G01X0008816Y-035092D01*
G01X0008816Y-035092D02*
G01X0009054Y-035092D01*
G01X0009054Y-035092D02*
G01X0009197Y-035140D01*
G01X0009197Y-035140D02*
G01X0009292Y-035235D01*
G01X0009292Y-035235D02*
G01X0009340Y-035330D01*
G01X0009340Y-035330D02*
G01X0009388Y-035521D01*
G01X0009388Y-035521D02*
G01X0009388Y-035664D01*
G01X0009388Y-035664D02*
G01X0009340Y-035854D01*
G01X0009340Y-035854D02*
G01X0009292Y-035950D01*
G01X0009292Y-035950D02*
G01X0009197Y-036045D01*
G01X0009197Y-036045D02*
G01X0009054Y-036092D01*
G01X0009054Y-036092D02*
G01X0008816Y-036092D01*
G01X0009816Y-035569D02*
G01X0010150Y-035569D01*
G01X0010292Y-036092D02*
G01X0009816Y-036092D01*
G01X0009816Y-036092D02*
G01X0009816Y-035092D01*
G01X0009816Y-035092D02*
G01X0010292Y-035092D01*
G01X0010673Y-036045D02*
G01X0010816Y-036092D01*
G01X0010816Y-036092D02*
G01X0011054Y-036092D01*
G01X0011054Y-036092D02*
G01X0011150Y-036045D01*
G01X0011150Y-036045D02*
G01X0011197Y-035997D01*
G01X0011197Y-035997D02*
G01X0011245Y-035902D01*
G01X0011245Y-035902D02*
G01X0011245Y-035807D01*
G01X0011245Y-035807D02*
G01X0011197Y-035711D01*
G01X0011197Y-035711D02*
G01X0011150Y-035664D01*
G01X0011150Y-035664D02*
G01X0011054Y-035616D01*
G01X0011054Y-035616D02*
G01X0010864Y-035569D01*
G01X0010864Y-035569D02*
G01X0010769Y-035521D01*
G01X0010769Y-035521D02*
G01X0010721Y-035473D01*
G01X0010721Y-035473D02*
G01X0010673Y-035378D01*
G01X0010673Y-035378D02*
G01X0010673Y-035283D01*
G01X0010673Y-035283D02*
G01X0010721Y-035188D01*
G01X0010721Y-035188D02*
G01X0010769Y-035140D01*
G01X0010769Y-035140D02*
G01X0010864Y-035092D01*
G01X0010864Y-035092D02*
G01X0011102Y-035092D01*
G01X0011102Y-035092D02*
G01X0011245Y-035140D01*
G01X0012626Y-035092D02*
G01X0012816Y-035092D01*
G01X0012816Y-035092D02*
G01X0012911Y-035140D01*
G01X0012911Y-035140D02*
G01X0013007Y-035235D01*
G01X0013007Y-035235D02*
G01X0013054Y-035426D01*
G01X0013054Y-035426D02*
G01X0013054Y-035759D01*
G01X0013054Y-035759D02*
G01X0013007Y-035950D01*
G01X0013007Y-035950D02*
G01X0012911Y-036045D01*
G01X0012911Y-036045D02*
G01X0012816Y-036092D01*
G01X0012816Y-036092D02*
G01X0012626Y-036092D01*
G01X0012626Y-036092D02*
G01X0012530Y-036045D01*
G01X0012530Y-036045D02*
G01X0012435Y-035950D01*
G01X0012435Y-035950D02*
G01X0012388Y-035759D01*
G01X0012388Y-035759D02*
G01X0012388Y-035426D01*
G01X0012388Y-035426D02*
G01X0012435Y-035235D01*
G01X0012435Y-035235D02*
G01X0012530Y-035140D01*
G01X0012530Y-035140D02*
G01X0012626Y-035092D01*
G01X0013816Y-035569D02*
G01X0013483Y-035569D01*
G01X0013483Y-036092D02*
G01X0013483Y-035092D01*
G01X0013483Y-035092D02*
G01X0013959Y-035092D01*
G01X0014959Y-035092D02*
G01X0015530Y-035092D01*
G01X0015245Y-036092D02*
G01X0015245Y-035092D01*
G01X0015864Y-036092D02*
G01X0015864Y-035092D01*
G01X0015864Y-035569D02*
G01X0016435Y-035569D01*
G01X0016435Y-036092D02*
G01X0016435Y-035092D01*
G01X0016911Y-035569D02*
G01X0017245Y-035569D01*
G01X0017388Y-036092D02*
G01X0016911Y-036092D01*
G01X0016911Y-036092D02*
G01X0016911Y-035092D01*
G01X0016911Y-035092D02*
G01X0017388Y-035092D01*
G01X0018911Y-035569D02*
G01X0019054Y-035616D01*
G01X0019054Y-035616D02*
G01X0019102Y-035664D01*
G01X0019102Y-035664D02*
G01X0019150Y-035759D01*
G01X0019150Y-035759D02*
G01X0019150Y-035902D01*
G01X0019150Y-035902D02*
G01X0019102Y-035997D01*
G01X0019102Y-035997D02*
G01X0019054Y-036045D01*
G01X0019054Y-036045D02*
G01X0018959Y-036092D01*
G01X0018959Y-036092D02*
G01X0018578Y-036092D01*
G01X0018578Y-036092D02*
G01X0018578Y-035092D01*
G01X0018578Y-035092D02*
G01X0018911Y-035092D01*
G01X0018911Y-035092D02*
G01X0019007Y-035140D01*
G01X0019007Y-035140D02*
G01X0019054Y-035188D01*
G01X0019054Y-035188D02*
G01X0019102Y-035283D01*
G01X0019102Y-035283D02*
G01X0019102Y-035378D01*
G01X0019102Y-035378D02*
G01X0019054Y-035473D01*
G01X0019054Y-035473D02*
G01X0019007Y-035521D01*
G01X0019007Y-035521D02*
G01X0018911Y-035569D01*
G01X0018911Y-035569D02*
G01X0018578Y-035569D01*
G01X0019769Y-035092D02*
G01X0019959Y-035092D01*
G01X0019959Y-035092D02*
G01X0020054Y-035140D01*
G01X0020054Y-035140D02*
G01X0020150Y-035235D01*
G01X0020150Y-035235D02*
G01X0020197Y-035426D01*
G01X0020197Y-035426D02*
G01X0020197Y-035759D01*
G01X0020197Y-035759D02*
G01X0020150Y-035950D01*
G01X0020150Y-035950D02*
G01X0020054Y-036045D01*
G01X0020054Y-036045D02*
G01X0019959Y-036092D01*
G01X0019959Y-036092D02*
G01X0019769Y-036092D01*
G01X0019769Y-036092D02*
G01X0019673Y-036045D01*
G01X0019673Y-036045D02*
G01X0019578Y-035950D01*
G01X0019578Y-035950D02*
G01X0019530Y-035759D01*
G01X0019530Y-035759D02*
G01X0019530Y-035426D01*
G01X0019530Y-035426D02*
G01X0019578Y-035235D01*
G01X0019578Y-035235D02*
G01X0019673Y-035140D01*
G01X0019673Y-035140D02*
G01X0019769Y-035092D01*
G01X0020578Y-035807D02*
G01X0021054Y-035807D01*
G01X0020483Y-036092D02*
G01X0020816Y-035092D01*
G01X0020816Y-035092D02*
G01X0021150Y-036092D01*
G01X0022054Y-036092D02*
G01X0021721Y-035616D01*
G01X0021483Y-036092D02*
G01X0021483Y-035092D01*
G01X0021483Y-035092D02*
G01X0021864Y-035092D01*
G01X0021864Y-035092D02*
G01X0021959Y-035140D01*
G01X0021959Y-035140D02*
G01X0022007Y-035188D01*
G01X0022007Y-035188D02*
G01X0022054Y-035283D01*
G01X0022054Y-035283D02*
G01X0022054Y-035426D01*
G01X0022054Y-035426D02*
G01X0022007Y-035521D01*
G01X0022007Y-035521D02*
G01X0021959Y-035569D01*
G01X0021959Y-035569D02*
G01X0021864Y-035616D01*
G01X0021864Y-035616D02*
G01X0021483Y-035616D01*
G01X0022483Y-036092D02*
G01X0022483Y-035092D01*
G01X0022483Y-035092D02*
G01X0022721Y-035092D01*
G01X0022721Y-035092D02*
G01X0022864Y-035140D01*
G01X0022864Y-035140D02*
G01X0022959Y-035235D01*
G01X0022959Y-035235D02*
G01X0023007Y-035330D01*
G01X0023007Y-035330D02*
G01X0023054Y-035521D01*
G01X0023054Y-035521D02*
G01X0023054Y-035664D01*
G01X0023054Y-035664D02*
G01X0023007Y-035854D01*
G01X0023007Y-035854D02*
G01X0022959Y-035950D01*
G01X0022959Y-035950D02*
G01X0022864Y-036045D01*
G01X0022864Y-036045D02*
G01X0022721Y-036092D01*
G01X0022721Y-036092D02*
G01X0022483Y-036092D01*
G01X0024197Y-036045D02*
G01X0024340Y-036092D01*
G01X0024340Y-036092D02*
G01X0024578Y-036092D01*
G01X0024578Y-036092D02*
G01X0024673Y-036045D01*
G01X0024673Y-036045D02*
G01X0024721Y-035997D01*
G01X0024721Y-035997D02*
G01X0024769Y-035902D01*
G01X0024769Y-035902D02*
G01X0024769Y-035807D01*
G01X0024769Y-035807D02*
G01X0024721Y-035711D01*
G01X0024721Y-035711D02*
G01X0024673Y-035664D01*
G01X0024673Y-035664D02*
G01X0024578Y-035616D01*
G01X0024578Y-035616D02*
G01X0024388Y-035569D01*
G01X0024388Y-035569D02*
G01X0024292Y-035521D01*
G01X0024292Y-035521D02*
G01X0024245Y-035473D01*
G01X0024245Y-035473D02*
G01X0024197Y-035378D01*
G01X0024197Y-035378D02*
G01X0024197Y-035283D01*
G01X0024197Y-035283D02*
G01X0024245Y-035188D01*
G01X0024245Y-035188D02*
G01X0024292Y-035140D01*
G01X0024292Y-035140D02*
G01X0024388Y-035092D01*
G01X0024388Y-035092D02*
G01X0024626Y-035092D01*
G01X0024626Y-035092D02*
G01X0024769Y-035140D01*
G01X0025197Y-036092D02*
G01X0025197Y-035092D01*
G01X0025197Y-035569D02*
G01X0025769Y-035569D01*
G01X0025769Y-036092D02*
G01X0025769Y-035092D01*
G01X0026197Y-035807D02*
G01X0026673Y-035807D01*
G01X0026102Y-036092D02*
G01X0026435Y-035092D01*
G01X0026435Y-035092D02*
G01X0026769Y-036092D01*
G01X0027578Y-036092D02*
G01X0027102Y-036092D01*
G01X0027102Y-036092D02*
G01X0027102Y-035092D01*
G01X0028388Y-036092D02*
G01X0027911Y-036092D01*
G01X0027911Y-036092D02*
G01X0027911Y-035092D01*
G01X0029483Y-036092D02*
G01X0029483Y-035092D01*
G01X0029483Y-035569D02*
G01X0030054Y-035569D01*
G01X0030054Y-036092D02*
G01X0030054Y-035092D01*
G01X0030483Y-035807D02*
G01X0030959Y-035807D01*
G01X0030388Y-036092D02*
G01X0030721Y-035092D01*
G01X0030721Y-035092D02*
G01X0031054Y-036092D01*
G01X0031245Y-035092D02*
G01X0031578Y-036092D01*
G01X0031578Y-036092D02*
G01X0031911Y-035092D01*
G01X0032245Y-035569D02*
G01X0032578Y-035569D01*
G01X0032721Y-036092D02*
G01X0032245Y-036092D01*
G01X0032245Y-036092D02*
G01X0032245Y-035092D01*
G01X0032245Y-035092D02*
G01X0032721Y-035092D01*
G01X0033864Y-036045D02*
G01X0034007Y-036092D01*
G01X0034007Y-036092D02*
G01X0034245Y-036092D01*
G01X0034245Y-036092D02*
G01X0034340Y-036045D01*
G01X0034340Y-036045D02*
G01X0034388Y-035997D01*
G01X0034388Y-035997D02*
G01X0034435Y-035902D01*
G01X0034435Y-035902D02*
G01X0034435Y-035807D01*
G01X0034435Y-035807D02*
G01X0034388Y-035711D01*
G01X0034388Y-035711D02*
G01X0034340Y-035664D01*
G01X0034340Y-035664D02*
G01X0034245Y-035616D01*
G01X0034245Y-035616D02*
G01X0034054Y-035569D01*
G01X0034054Y-035569D02*
G01X0033959Y-035521D01*
G01X0033959Y-035521D02*
G01X0033911Y-035473D01*
G01X0033911Y-035473D02*
G01X0033864Y-035378D01*
G01X0033864Y-035378D02*
G01X0033864Y-035283D01*
G01X0033864Y-035283D02*
G01X0033911Y-035188D01*
G01X0033911Y-035188D02*
G01X0033959Y-035140D01*
G01X0033959Y-035140D02*
G01X0034054Y-035092D01*
G01X0034054Y-035092D02*
G01X0034292Y-035092D01*
G01X0034292Y-035092D02*
G01X0034435Y-035140D01*
G01X0035054Y-035092D02*
G01X0035245Y-035092D01*
G01X0035245Y-035092D02*
G01X0035340Y-035140D01*
G01X0035340Y-035140D02*
G01X0035435Y-035235D01*
G01X0035435Y-035235D02*
G01X0035483Y-035426D01*
G01X0035483Y-035426D02*
G01X0035483Y-035759D01*
G01X0035483Y-035759D02*
G01X0035435Y-035950D01*
G01X0035435Y-035950D02*
G01X0035340Y-036045D01*
G01X0035340Y-036045D02*
G01X0035245Y-036092D01*
G01X0035245Y-036092D02*
G01X0035054Y-036092D01*
G01X0035054Y-036092D02*
G01X0034959Y-036045D01*
G01X0034959Y-036045D02*
G01X0034864Y-035950D01*
G01X0034864Y-035950D02*
G01X0034816Y-035759D01*
G01X0034816Y-035759D02*
G01X0034816Y-035426D01*
G01X0034816Y-035426D02*
G01X0034864Y-035235D01*
G01X0034864Y-035235D02*
G01X0034959Y-035140D01*
G01X0034959Y-035140D02*
G01X0035054Y-035092D01*
G01X0036388Y-036092D02*
G01X0035911Y-036092D01*
G01X0035911Y-036092D02*
G01X0035911Y-035092D01*
G01X0036721Y-036092D02*
G01X0036721Y-035092D01*
G01X0036721Y-035092D02*
G01X0036959Y-035092D01*
G01X0036959Y-035092D02*
G01X0037102Y-035140D01*
G01X0037102Y-035140D02*
G01X0037197Y-035235D01*
G01X0037197Y-035235D02*
G01X0037245Y-035330D01*
G01X0037245Y-035330D02*
G01X0037292Y-035521D01*
G01X0037292Y-035521D02*
G01X0037292Y-035664D01*
G01X0037292Y-035664D02*
G01X0037245Y-035854D01*
G01X0037245Y-035854D02*
G01X0037197Y-035950D01*
G01X0037197Y-035950D02*
G01X0037102Y-036045D01*
G01X0037102Y-036045D02*
G01X0036959Y-036092D01*
G01X0036959Y-036092D02*
G01X0036721Y-036092D01*
G01X0037721Y-035569D02*
G01X0038054Y-035569D01*
G01X0038197Y-036092D02*
G01X0037721Y-036092D01*
G01X0037721Y-036092D02*
G01X0037721Y-035092D01*
G01X0037721Y-035092D02*
G01X0038197Y-035092D01*
G01X0039197Y-036092D02*
G01X0038864Y-035616D01*
G01X0038626Y-036092D02*
G01X0038626Y-035092D01*
G01X0038626Y-035092D02*
G01X0039007Y-035092D01*
G01X0039007Y-035092D02*
G01X0039102Y-035140D01*
G01X0039102Y-035140D02*
G01X0039150Y-035188D01*
G01X0039150Y-035188D02*
G01X0039197Y-035283D01*
G01X0039197Y-035283D02*
G01X0039197Y-035426D01*
G01X0039197Y-035426D02*
G01X0039150Y-035521D01*
G01X0039150Y-035521D02*
G01X0039102Y-035569D01*
G01X0039102Y-035569D02*
G01X0039007Y-035616D01*
G01X0039007Y-035616D02*
G01X0038626Y-035616D01*
G01X0040388Y-036092D02*
G01X0040388Y-035092D01*
G01X0040388Y-035092D02*
G01X0040721Y-035807D01*
G01X0040721Y-035807D02*
G01X0041054Y-035092D01*
G01X0041054Y-035092D02*
G01X0041054Y-036092D01*
G01X0041483Y-035807D02*
G01X0041959Y-035807D01*
G01X0041388Y-036092D02*
G01X0041721Y-035092D01*
G01X0041721Y-035092D02*
G01X0042054Y-036092D01*
G01X0042340Y-036045D02*
G01X0042483Y-036092D01*
G01X0042483Y-036092D02*
G01X0042721Y-036092D01*
G01X0042721Y-036092D02*
G01X0042816Y-036045D01*
G01X0042816Y-036045D02*
G01X0042864Y-035997D01*
G01X0042864Y-035997D02*
G01X0042911Y-035902D01*
G01X0042911Y-035902D02*
G01X0042911Y-035807D01*
G01X0042911Y-035807D02*
G01X0042864Y-035711D01*
G01X0042864Y-035711D02*
G01X0042816Y-035664D01*
G01X0042816Y-035664D02*
G01X0042721Y-035616D01*
G01X0042721Y-035616D02*
G01X0042530Y-035569D01*
G01X0042530Y-035569D02*
G01X0042435Y-035521D01*
G01X0042435Y-035521D02*
G01X0042388Y-035473D01*
G01X0042388Y-035473D02*
G01X0042340Y-035378D01*
G01X0042340Y-035378D02*
G01X0042340Y-035283D01*
G01X0042340Y-035283D02*
G01X0042388Y-035188D01*
G01X0042388Y-035188D02*
G01X0042435Y-035140D01*
G01X0042435Y-035140D02*
G01X0042530Y-035092D01*
G01X0042530Y-035092D02*
G01X0042769Y-035092D01*
G01X0042769Y-035092D02*
G01X0042911Y-035140D01*
G01X0043340Y-036092D02*
G01X0043340Y-035092D01*
G01X0043911Y-036092D02*
G01X0043483Y-035521D01*
G01X0043911Y-035092D02*
G01X0043340Y-035664D01*
G01X0045388Y-036473D02*
G01X0045340Y-036426D01*
G01X0045340Y-036426D02*
G01X0045245Y-036283D01*
G01X0045245Y-036283D02*
G01X0045197Y-036188D01*
G01X0045197Y-036188D02*
G01X0045150Y-036045D01*
G01X0045150Y-036045D02*
G01X0045102Y-035807D01*
G01X0045102Y-035807D02*
G01X0045102Y-035616D01*
G01X0045102Y-035616D02*
G01X0045150Y-035378D01*
G01X0045150Y-035378D02*
G01X0045197Y-035235D01*
G01X0045197Y-035235D02*
G01X0045245Y-035140D01*
G01X0045245Y-035140D02*
G01X0045340Y-034997D01*
G01X0045340Y-034997D02*
G01X0045388Y-034950D01*
G01X0046102Y-035569D02*
G01X0046245Y-035616D01*
G01X0046245Y-035616D02*
G01X0046292Y-035664D01*
G01X0046292Y-035664D02*
G01X0046340Y-035759D01*
G01X0046340Y-035759D02*
G01X0046340Y-035902D01*
G01X0046340Y-035902D02*
G01X0046292Y-035997D01*
G01X0046292Y-035997D02*
G01X0046245Y-036045D01*
G01X0046245Y-036045D02*
G01X0046150Y-036092D01*
G01X0046150Y-036092D02*
G01X0045769Y-036092D01*
G01X0045769Y-036092D02*
G01X0045769Y-035092D01*
G01X0045769Y-035092D02*
G01X0046102Y-035092D01*
G01X0046102Y-035092D02*
G01X0046197Y-035140D01*
G01X0046197Y-035140D02*
G01X0046245Y-035188D01*
G01X0046245Y-035188D02*
G01X0046292Y-035283D01*
G01X0046292Y-035283D02*
G01X0046292Y-035378D01*
G01X0046292Y-035378D02*
G01X0046245Y-035473D01*
G01X0046245Y-035473D02*
G01X0046197Y-035521D01*
G01X0046197Y-035521D02*
G01X0046102Y-035569D01*
G01X0046102Y-035569D02*
G01X0045769Y-035569D01*
G01X0047245Y-036092D02*
G01X0046769Y-036092D01*
G01X0046769Y-036092D02*
G01X0046769Y-035092D01*
G01X0047530Y-035807D02*
G01X0048007Y-035807D01*
G01X0047435Y-036092D02*
G01X0047769Y-035092D01*
G01X0047769Y-035092D02*
G01X0048102Y-036092D01*
G01X0049007Y-035997D02*
G01X0048959Y-036045D01*
G01X0048959Y-036045D02*
G01X0048816Y-036092D01*
G01X0048816Y-036092D02*
G01X0048721Y-036092D01*
G01X0048721Y-036092D02*
G01X0048578Y-036045D01*
G01X0048578Y-036045D02*
G01X0048483Y-035950D01*
G01X0048483Y-035950D02*
G01X0048435Y-035854D01*
G01X0048435Y-035854D02*
G01X0048388Y-035664D01*
G01X0048388Y-035664D02*
G01X0048388Y-035521D01*
G01X0048388Y-035521D02*
G01X0048435Y-035330D01*
G01X0048435Y-035330D02*
G01X0048483Y-035235D01*
G01X0048483Y-035235D02*
G01X0048578Y-035140D01*
G01X0048578Y-035140D02*
G01X0048721Y-035092D01*
G01X0048721Y-035092D02*
G01X0048816Y-035092D01*
G01X0048816Y-035092D02*
G01X0048959Y-035140D01*
G01X0048959Y-035140D02*
G01X0049007Y-035188D01*
G01X0049435Y-036092D02*
G01X0049435Y-035092D01*
G01X0050007Y-036092D02*
G01X0049578Y-035521D01*
G01X0050007Y-035092D02*
G01X0049435Y-035664D01*
G01X0050340Y-036473D02*
G01X0050388Y-036426D01*
G01X0050388Y-036426D02*
G01X0050483Y-036283D01*
G01X0050483Y-036283D02*
G01X0050530Y-036188D01*
G01X0050530Y-036188D02*
G01X0050578Y-036045D01*
G01X0050578Y-036045D02*
G01X0050626Y-035807D01*
G01X0050626Y-035807D02*
G01X0050626Y-035616D01*
G01X0050626Y-035616D02*
G01X0050578Y-035378D01*
G01X0050578Y-035378D02*
G01X0050530Y-035235D01*
G01X0050530Y-035235D02*
G01X0050483Y-035140D01*
G01X0050483Y-035140D02*
G01X0050388Y-034997D01*
G01X0050388Y-034997D02*
G01X0050340Y-034950D01*
G01X0052054Y-035092D02*
G01X0052245Y-035092D01*
G01X0052245Y-035092D02*
G01X0052340Y-035140D01*
G01X0052340Y-035140D02*
G01X0052435Y-035235D01*
G01X0052435Y-035235D02*
G01X0052483Y-035426D01*
G01X0052483Y-035426D02*
G01X0052483Y-035759D01*
G01X0052483Y-035759D02*
G01X0052435Y-035950D01*
G01X0052435Y-035950D02*
G01X0052340Y-036045D01*
G01X0052340Y-036045D02*
G01X0052245Y-036092D01*
G01X0052245Y-036092D02*
G01X0052054Y-036092D01*
G01X0052054Y-036092D02*
G01X0051959Y-036045D01*
G01X0051959Y-036045D02*
G01X0051864Y-035950D01*
G01X0051864Y-035950D02*
G01X0051816Y-035759D01*
G01X0051816Y-035759D02*
G01X0051816Y-035426D01*
G01X0051816Y-035426D02*
G01X0051864Y-035235D01*
G01X0051864Y-035235D02*
G01X0051959Y-035140D01*
G01X0051959Y-035140D02*
G01X0052054Y-035092D01*
G01X0052769Y-035092D02*
G01X0053102Y-036092D01*
G01X0053102Y-036092D02*
G01X0053435Y-035092D01*
G01X0053769Y-035569D02*
G01X0054102Y-035569D01*
G01X0054245Y-036092D02*
G01X0053769Y-036092D01*
G01X0053769Y-036092D02*
G01X0053769Y-035092D01*
G01X0053769Y-035092D02*
G01X0054245Y-035092D01*
G01X0055245Y-036092D02*
G01X0054911Y-035616D01*
G01X0054673Y-036092D02*
G01X0054673Y-035092D01*
G01X0054673Y-035092D02*
G01X0055054Y-035092D01*
G01X0055054Y-035092D02*
G01X0055150Y-035140D01*
G01X0055150Y-035140D02*
G01X0055197Y-035188D01*
G01X0055197Y-035188D02*
G01X0055245Y-035283D01*
G01X0055245Y-035283D02*
G01X0055245Y-035426D01*
G01X0055245Y-035426D02*
G01X0055197Y-035521D01*
G01X0055197Y-035521D02*
G01X0055150Y-035569D01*
G01X0055150Y-035569D02*
G01X0055054Y-035616D01*
G01X0055054Y-035616D02*
G01X0054673Y-035616D01*
G01X0056769Y-035569D02*
G01X0056911Y-035616D01*
G01X0056911Y-035616D02*
G01X0056959Y-035664D01*
G01X0056959Y-035664D02*
G01X0057007Y-035759D01*
G01X0057007Y-035759D02*
G01X0057007Y-035902D01*
G01X0057007Y-035902D02*
G01X0056959Y-035997D01*
G01X0056959Y-035997D02*
G01X0056911Y-036045D01*
G01X0056911Y-036045D02*
G01X0056816Y-036092D01*
G01X0056816Y-036092D02*
G01X0056435Y-036092D01*
G01X0056435Y-036092D02*
G01X0056435Y-035092D01*
G01X0056435Y-035092D02*
G01X0056769Y-035092D01*
G01X0056769Y-035092D02*
G01X0056864Y-035140D01*
G01X0056864Y-035140D02*
G01X0056911Y-035188D01*
G01X0056911Y-035188D02*
G01X0056959Y-035283D01*
G01X0056959Y-035283D02*
G01X0056959Y-035378D01*
G01X0056959Y-035378D02*
G01X0056911Y-035473D01*
G01X0056911Y-035473D02*
G01X0056864Y-035521D01*
G01X0056864Y-035521D02*
G01X0056769Y-035569D01*
G01X0056769Y-035569D02*
G01X0056435Y-035569D01*
G01X0057388Y-035807D02*
G01X0057864Y-035807D01*
G01X0057292Y-036092D02*
G01X0057626Y-035092D01*
G01X0057626Y-035092D02*
G01X0057959Y-036092D01*
G01X0058864Y-036092D02*
G01X0058530Y-035616D01*
G01X0058292Y-036092D02*
G01X0058292Y-035092D01*
G01X0058292Y-035092D02*
G01X0058673Y-035092D01*
G01X0058673Y-035092D02*
G01X0058769Y-035140D01*
G01X0058769Y-035140D02*
G01X0058816Y-035188D01*
G01X0058816Y-035188D02*
G01X0058864Y-035283D01*
G01X0058864Y-035283D02*
G01X0058864Y-035426D01*
G01X0058864Y-035426D02*
G01X0058816Y-035521D01*
G01X0058816Y-035521D02*
G01X0058769Y-035569D01*
G01X0058769Y-035569D02*
G01X0058673Y-035616D01*
G01X0058673Y-035616D02*
G01X0058292Y-035616D01*
G01X0059292Y-035569D02*
G01X0059626Y-035569D01*
G01X0059769Y-036092D02*
G01X0059292Y-036092D01*
G01X0059292Y-036092D02*
G01X0059292Y-035092D01*
G01X0059292Y-035092D02*
G01X0059769Y-035092D01*
G01X0061530Y-035997D02*
G01X0061483Y-036045D01*
G01X0061483Y-036045D02*
G01X0061340Y-036092D01*
G01X0061340Y-036092D02*
G01X0061245Y-036092D01*
G01X0061245Y-036092D02*
G01X0061102Y-036045D01*
G01X0061102Y-036045D02*
G01X0061007Y-035950D01*
G01X0061007Y-035950D02*
G01X0060959Y-035854D01*
G01X0060959Y-035854D02*
G01X0060911Y-035664D01*
G01X0060911Y-035664D02*
G01X0060911Y-035521D01*
G01X0060911Y-035521D02*
G01X0060959Y-035330D01*
G01X0060959Y-035330D02*
G01X0061007Y-035235D01*
G01X0061007Y-035235D02*
G01X0061102Y-035140D01*
G01X0061102Y-035140D02*
G01X0061245Y-035092D01*
G01X0061245Y-035092D02*
G01X0061340Y-035092D01*
G01X0061340Y-035092D02*
G01X0061483Y-035140D01*
G01X0061483Y-035140D02*
G01X0061530Y-035188D01*
G01X0062150Y-035092D02*
G01X0062340Y-035092D01*
G01X0062340Y-035092D02*
G01X0062435Y-035140D01*
G01X0062435Y-035140D02*
G01X0062530Y-035235D01*
G01X0062530Y-035235D02*
G01X0062578Y-035426D01*
G01X0062578Y-035426D02*
G01X0062578Y-035759D01*
G01X0062578Y-035759D02*
G01X0062530Y-035950D01*
G01X0062530Y-035950D02*
G01X0062435Y-036045D01*
G01X0062435Y-036045D02*
G01X0062340Y-036092D01*
G01X0062340Y-036092D02*
G01X0062150Y-036092D01*
G01X0062150Y-036092D02*
G01X0062054Y-036045D01*
G01X0062054Y-036045D02*
G01X0061959Y-035950D01*
G01X0061959Y-035950D02*
G01X0061911Y-035759D01*
G01X0061911Y-035759D02*
G01X0061911Y-035426D01*
G01X0061911Y-035426D02*
G01X0061959Y-035235D01*
G01X0061959Y-035235D02*
G01X0062054Y-035140D01*
G01X0062054Y-035140D02*
G01X0062150Y-035092D01*
G01X0063007Y-036092D02*
G01X0063007Y-035092D01*
G01X0063007Y-035092D02*
G01X0063388Y-035092D01*
G01X0063388Y-035092D02*
G01X0063483Y-035140D01*
G01X0063483Y-035140D02*
G01X0063530Y-035188D01*
G01X0063530Y-035188D02*
G01X0063578Y-035283D01*
G01X0063578Y-035283D02*
G01X0063578Y-035426D01*
G01X0063578Y-035426D02*
G01X0063530Y-035521D01*
G01X0063530Y-035521D02*
G01X0063483Y-035569D01*
G01X0063483Y-035569D02*
G01X0063388Y-035616D01*
G01X0063388Y-035616D02*
G01X0063007Y-035616D01*
G01X0064007Y-036092D02*
G01X0064007Y-035092D01*
G01X0064007Y-035092D02*
G01X0064388Y-035092D01*
G01X0064388Y-035092D02*
G01X0064483Y-035140D01*
G01X0064483Y-035140D02*
G01X0064530Y-035188D01*
G01X0064530Y-035188D02*
G01X0064578Y-035283D01*
G01X0064578Y-035283D02*
G01X0064578Y-035426D01*
G01X0064578Y-035426D02*
G01X0064530Y-035521D01*
G01X0064530Y-035521D02*
G01X0064483Y-035569D01*
G01X0064483Y-035569D02*
G01X0064388Y-035616D01*
G01X0064388Y-035616D02*
G01X0064007Y-035616D01*
G01X0065007Y-035569D02*
G01X0065340Y-035569D01*
G01X0065483Y-036092D02*
G01X0065007Y-036092D01*
G01X0065007Y-036092D02*
G01X0065007Y-035092D01*
G01X0065007Y-035092D02*
G01X0065483Y-035092D01*
G01X0066483Y-036092D02*
G01X0066150Y-035616D01*
G01X0065911Y-036092D02*
G01X0065911Y-035092D01*
G01X0065911Y-035092D02*
G01X0066292Y-035092D01*
G01X0066292Y-035092D02*
G01X0066388Y-035140D01*
G01X0066388Y-035140D02*
G01X0066435Y-035188D01*
G01X0066435Y-035188D02*
G01X0066483Y-035283D01*
G01X0066483Y-035283D02*
G01X0066483Y-035426D01*
G01X0066483Y-035426D02*
G01X0066435Y-035521D01*
G01X0066435Y-035521D02*
G01X0066388Y-035569D01*
G01X0066388Y-035569D02*
G01X0066292Y-035616D01*
G01X0066292Y-035616D02*
G01X0065911Y-035616D01*
G01X0066911Y-035997D02*
G01X0066959Y-036045D01*
G01X0066959Y-036045D02*
G01X0066911Y-036092D01*
G01X0066911Y-036092D02*
G01X0066864Y-036045D01*
G01X0066864Y-036045D02*
G01X0066911Y-035997D01*
G01X0066911Y-035997D02*
G01X0066911Y-036092D01*
G01X0000483Y-036692D02*
G01X0001150Y-036692D01*
G01X0001150Y-036692D02*
G01X0000721Y-037692D01*
G01X0001530Y-037597D02*
G01X0001578Y-037645D01*
G01X0001578Y-037645D02*
G01X0001530Y-037692D01*
G01X0001530Y-037692D02*
G01X0001483Y-037645D01*
G01X0001483Y-037645D02*
G01X0001530Y-037597D01*
G01X0001530Y-037597D02*
G01X0001530Y-037692D01*
G01X0003102Y-037169D02*
G01X0003245Y-037216D01*
G01X0003245Y-037216D02*
G01X0003292Y-037264D01*
G01X0003292Y-037264D02*
G01X0003340Y-037359D01*
G01X0003340Y-037359D02*
G01X0003340Y-037502D01*
G01X0003340Y-037502D02*
G01X0003292Y-037597D01*
G01X0003292Y-037597D02*
G01X0003245Y-037645D01*
G01X0003245Y-037645D02*
G01X0003150Y-037692D01*
G01X0003150Y-037692D02*
G01X0002769Y-037692D01*
G01X0002769Y-037692D02*
G01X0002769Y-036692D01*
G01X0002769Y-036692D02*
G01X0003102Y-036692D01*
G01X0003102Y-036692D02*
G01X0003197Y-036740D01*
G01X0003197Y-036740D02*
G01X0003245Y-036788D01*
G01X0003245Y-036788D02*
G01X0003292Y-036883D01*
G01X0003292Y-036883D02*
G01X0003292Y-036978D01*
G01X0003292Y-036978D02*
G01X0003245Y-037073D01*
G01X0003245Y-037073D02*
G01X0003197Y-037121D01*
G01X0003197Y-037121D02*
G01X0003102Y-037169D01*
G01X0003102Y-037169D02*
G01X0002769Y-037169D01*
G01X0003959Y-036692D02*
G01X0004150Y-036692D01*
G01X0004150Y-036692D02*
G01X0004245Y-036740D01*
G01X0004245Y-036740D02*
G01X0004340Y-036835D01*
G01X0004340Y-036835D02*
G01X0004388Y-037026D01*
G01X0004388Y-037026D02*
G01X0004388Y-037359D01*
G01X0004388Y-037359D02*
G01X0004340Y-037550D01*
G01X0004340Y-037550D02*
G01X0004245Y-037645D01*
G01X0004245Y-037645D02*
G01X0004150Y-037692D01*
G01X0004150Y-037692D02*
G01X0003959Y-037692D01*
G01X0003959Y-037692D02*
G01X0003864Y-037645D01*
G01X0003864Y-037645D02*
G01X0003769Y-037550D01*
G01X0003769Y-037550D02*
G01X0003721Y-037359D01*
G01X0003721Y-037359D02*
G01X0003721Y-037026D01*
G01X0003721Y-037026D02*
G01X0003769Y-036835D01*
G01X0003769Y-036835D02*
G01X0003864Y-036740D01*
G01X0003864Y-036740D02*
G01X0003959Y-036692D01*
G01X0004673Y-036692D02*
G01X0005245Y-036692D01*
G01X0004959Y-037692D02*
G01X0004959Y-036692D01*
G01X0005578Y-037692D02*
G01X0005578Y-036692D01*
G01X0005578Y-037169D02*
G01X0006150Y-037169D01*
G01X0006150Y-037692D02*
G01X0006150Y-036692D01*
G01X0007340Y-037645D02*
G01X0007483Y-037692D01*
G01X0007483Y-037692D02*
G01X0007721Y-037692D01*
G01X0007721Y-037692D02*
G01X0007816Y-037645D01*
G01X0007816Y-037645D02*
G01X0007864Y-037597D01*
G01X0007864Y-037597D02*
G01X0007911Y-037502D01*
G01X0007911Y-037502D02*
G01X0007911Y-037407D01*
G01X0007911Y-037407D02*
G01X0007864Y-037311D01*
G01X0007864Y-037311D02*
G01X0007816Y-037264D01*
G01X0007816Y-037264D02*
G01X0007721Y-037216D01*
G01X0007721Y-037216D02*
G01X0007530Y-037169D01*
G01X0007530Y-037169D02*
G01X0007435Y-037121D01*
G01X0007435Y-037121D02*
G01X0007388Y-037073D01*
G01X0007388Y-037073D02*
G01X0007340Y-036978D01*
G01X0007340Y-036978D02*
G01X0007340Y-036883D01*
G01X0007340Y-036883D02*
G01X0007388Y-036788D01*
G01X0007388Y-036788D02*
G01X0007435Y-036740D01*
G01X0007435Y-036740D02*
G01X0007530Y-036692D01*
G01X0007530Y-036692D02*
G01X0007769Y-036692D01*
G01X0007769Y-036692D02*
G01X0007911Y-036740D01*
G01X0008340Y-037692D02*
G01X0008340Y-036692D01*
G01X0008816Y-037692D02*
G01X0008816Y-036692D01*
G01X0008816Y-036692D02*
G01X0009054Y-036692D01*
G01X0009054Y-036692D02*
G01X0009197Y-036740D01*
G01X0009197Y-036740D02*
G01X0009292Y-036835D01*
G01X0009292Y-036835D02*
G01X0009340Y-036930D01*
G01X0009340Y-036930D02*
G01X0009388Y-037121D01*
G01X0009388Y-037121D02*
G01X0009388Y-037264D01*
G01X0009388Y-037264D02*
G01X0009340Y-037454D01*
G01X0009340Y-037454D02*
G01X0009292Y-037550D01*
G01X0009292Y-037550D02*
G01X0009197Y-037645D01*
G01X0009197Y-037645D02*
G01X0009054Y-037692D01*
G01X0009054Y-037692D02*
G01X0008816Y-037692D01*
G01X0009816Y-037169D02*
G01X0010150Y-037169D01*
G01X0010292Y-037692D02*
G01X0009816Y-037692D01*
G01X0009816Y-037692D02*
G01X0009816Y-036692D01*
G01X0009816Y-036692D02*
G01X0010292Y-036692D01*
G01X0010673Y-037645D02*
G01X0010816Y-037692D01*
G01X0010816Y-037692D02*
G01X0011054Y-037692D01*
G01X0011054Y-037692D02*
G01X0011150Y-037645D01*
G01X0011150Y-037645D02*
G01X0011197Y-037597D01*
G01X0011197Y-037597D02*
G01X0011245Y-037502D01*
G01X0011245Y-037502D02*
G01X0011245Y-037407D01*
G01X0011245Y-037407D02*
G01X0011197Y-037311D01*
G01X0011197Y-037311D02*
G01X0011150Y-037264D01*
G01X0011150Y-037264D02*
G01X0011054Y-037216D01*
G01X0011054Y-037216D02*
G01X0010864Y-037169D01*
G01X0010864Y-037169D02*
G01X0010769Y-037121D01*
G01X0010769Y-037121D02*
G01X0010721Y-037073D01*
G01X0010721Y-037073D02*
G01X0010673Y-036978D01*
G01X0010673Y-036978D02*
G01X0010673Y-036883D01*
G01X0010673Y-036883D02*
G01X0010721Y-036788D01*
G01X0010721Y-036788D02*
G01X0010769Y-036740D01*
G01X0010769Y-036740D02*
G01X0010864Y-036692D01*
G01X0010864Y-036692D02*
G01X0011102Y-036692D01*
G01X0011102Y-036692D02*
G01X0011245Y-036740D01*
G01X0012626Y-036692D02*
G01X0012816Y-036692D01*
G01X0012816Y-036692D02*
G01X0012911Y-036740D01*
G01X0012911Y-036740D02*
G01X0013007Y-036835D01*
G01X0013007Y-036835D02*
G01X0013054Y-037026D01*
G01X0013054Y-037026D02*
G01X0013054Y-037359D01*
G01X0013054Y-037359D02*
G01X0013007Y-037550D01*
G01X0013007Y-037550D02*
G01X0012911Y-037645D01*
G01X0012911Y-037645D02*
G01X0012816Y-037692D01*
G01X0012816Y-037692D02*
G01X0012626Y-037692D01*
G01X0012626Y-037692D02*
G01X0012530Y-037645D01*
G01X0012530Y-037645D02*
G01X0012435Y-037550D01*
G01X0012435Y-037550D02*
G01X0012388Y-037359D01*
G01X0012388Y-037359D02*
G01X0012388Y-037026D01*
G01X0012388Y-037026D02*
G01X0012435Y-036835D01*
G01X0012435Y-036835D02*
G01X0012530Y-036740D01*
G01X0012530Y-036740D02*
G01X0012626Y-036692D01*
G01X0013816Y-037169D02*
G01X0013483Y-037169D01*
G01X0013483Y-037692D02*
G01X0013483Y-036692D01*
G01X0013483Y-036692D02*
G01X0013959Y-036692D01*
G01X0014959Y-036692D02*
G01X0015530Y-036692D01*
G01X0015245Y-037692D02*
G01X0015245Y-036692D01*
G01X0015864Y-037692D02*
G01X0015864Y-036692D01*
G01X0015864Y-037169D02*
G01X0016435Y-037169D01*
G01X0016435Y-037692D02*
G01X0016435Y-036692D01*
G01X0016911Y-037169D02*
G01X0017245Y-037169D01*
G01X0017388Y-037692D02*
G01X0016911Y-037692D01*
G01X0016911Y-037692D02*
G01X0016911Y-036692D01*
G01X0016911Y-036692D02*
G01X0017388Y-036692D01*
G01X0018911Y-037169D02*
G01X0019054Y-037216D01*
G01X0019054Y-037216D02*
G01X0019102Y-037264D01*
G01X0019102Y-037264D02*
G01X0019150Y-037359D01*
G01X0019150Y-037359D02*
G01X0019150Y-037502D01*
G01X0019150Y-037502D02*
G01X0019102Y-037597D01*
G01X0019102Y-037597D02*
G01X0019054Y-037645D01*
G01X0019054Y-037645D02*
G01X0018959Y-037692D01*
G01X0018959Y-037692D02*
G01X0018578Y-037692D01*
G01X0018578Y-037692D02*
G01X0018578Y-036692D01*
G01X0018578Y-036692D02*
G01X0018911Y-036692D01*
G01X0018911Y-036692D02*
G01X0019007Y-036740D01*
G01X0019007Y-036740D02*
G01X0019054Y-036788D01*
G01X0019054Y-036788D02*
G01X0019102Y-036883D01*
G01X0019102Y-036883D02*
G01X0019102Y-036978D01*
G01X0019102Y-036978D02*
G01X0019054Y-037073D01*
G01X0019054Y-037073D02*
G01X0019007Y-037121D01*
G01X0019007Y-037121D02*
G01X0018911Y-037169D01*
G01X0018911Y-037169D02*
G01X0018578Y-037169D01*
G01X0019769Y-036692D02*
G01X0019959Y-036692D01*
G01X0019959Y-036692D02*
G01X0020054Y-036740D01*
G01X0020054Y-036740D02*
G01X0020150Y-036835D01*
G01X0020150Y-036835D02*
G01X0020197Y-037026D01*
G01X0020197Y-037026D02*
G01X0020197Y-037359D01*
G01X0020197Y-037359D02*
G01X0020150Y-037550D01*
G01X0020150Y-037550D02*
G01X0020054Y-037645D01*
G01X0020054Y-037645D02*
G01X0019959Y-037692D01*
G01X0019959Y-037692D02*
G01X0019769Y-037692D01*
G01X0019769Y-037692D02*
G01X0019673Y-037645D01*
G01X0019673Y-037645D02*
G01X0019578Y-037550D01*
G01X0019578Y-037550D02*
G01X0019530Y-037359D01*
G01X0019530Y-037359D02*
G01X0019530Y-037026D01*
G01X0019530Y-037026D02*
G01X0019578Y-036835D01*
G01X0019578Y-036835D02*
G01X0019673Y-036740D01*
G01X0019673Y-036740D02*
G01X0019769Y-036692D01*
G01X0020578Y-037407D02*
G01X0021054Y-037407D01*
G01X0020483Y-037692D02*
G01X0020816Y-036692D01*
G01X0020816Y-036692D02*
G01X0021150Y-037692D01*
G01X0022054Y-037692D02*
G01X0021721Y-037216D01*
G01X0021483Y-037692D02*
G01X0021483Y-036692D01*
G01X0021483Y-036692D02*
G01X0021864Y-036692D01*
G01X0021864Y-036692D02*
G01X0021959Y-036740D01*
G01X0021959Y-036740D02*
G01X0022007Y-036788D01*
G01X0022007Y-036788D02*
G01X0022054Y-036883D01*
G01X0022054Y-036883D02*
G01X0022054Y-037026D01*
G01X0022054Y-037026D02*
G01X0022007Y-037121D01*
G01X0022007Y-037121D02*
G01X0021959Y-037169D01*
G01X0021959Y-037169D02*
G01X0021864Y-037216D01*
G01X0021864Y-037216D02*
G01X0021483Y-037216D01*
G01X0022483Y-037692D02*
G01X0022483Y-036692D01*
G01X0022483Y-036692D02*
G01X0022721Y-036692D01*
G01X0022721Y-036692D02*
G01X0022864Y-036740D01*
G01X0022864Y-036740D02*
G01X0022959Y-036835D01*
G01X0022959Y-036835D02*
G01X0023007Y-036930D01*
G01X0023007Y-036930D02*
G01X0023054Y-037121D01*
G01X0023054Y-037121D02*
G01X0023054Y-037264D01*
G01X0023054Y-037264D02*
G01X0023007Y-037454D01*
G01X0023007Y-037454D02*
G01X0022959Y-037550D01*
G01X0022959Y-037550D02*
G01X0022864Y-037645D01*
G01X0022864Y-037645D02*
G01X0022721Y-037692D01*
G01X0022721Y-037692D02*
G01X0022483Y-037692D01*
G01X0024197Y-037645D02*
G01X0024340Y-037692D01*
G01X0024340Y-037692D02*
G01X0024578Y-037692D01*
G01X0024578Y-037692D02*
G01X0024673Y-037645D01*
G01X0024673Y-037645D02*
G01X0024721Y-037597D01*
G01X0024721Y-037597D02*
G01X0024769Y-037502D01*
G01X0024769Y-037502D02*
G01X0024769Y-037407D01*
G01X0024769Y-037407D02*
G01X0024721Y-037311D01*
G01X0024721Y-037311D02*
G01X0024673Y-037264D01*
G01X0024673Y-037264D02*
G01X0024578Y-037216D01*
G01X0024578Y-037216D02*
G01X0024388Y-037169D01*
G01X0024388Y-037169D02*
G01X0024292Y-037121D01*
G01X0024292Y-037121D02*
G01X0024245Y-037073D01*
G01X0024245Y-037073D02*
G01X0024197Y-036978D01*
G01X0024197Y-036978D02*
G01X0024197Y-036883D01*
G01X0024197Y-036883D02*
G01X0024245Y-036788D01*
G01X0024245Y-036788D02*
G01X0024292Y-036740D01*
G01X0024292Y-036740D02*
G01X0024388Y-036692D01*
G01X0024388Y-036692D02*
G01X0024626Y-036692D01*
G01X0024626Y-036692D02*
G01X0024769Y-036740D01*
G01X0025197Y-037692D02*
G01X0025197Y-036692D01*
G01X0025197Y-037169D02*
G01X0025769Y-037169D01*
G01X0025769Y-037692D02*
G01X0025769Y-036692D01*
G01X0026197Y-037407D02*
G01X0026673Y-037407D01*
G01X0026102Y-037692D02*
G01X0026435Y-036692D01*
G01X0026435Y-036692D02*
G01X0026769Y-037692D01*
G01X0027578Y-037692D02*
G01X0027102Y-037692D01*
G01X0027102Y-037692D02*
G01X0027102Y-036692D01*
G01X0028388Y-037692D02*
G01X0027911Y-037692D01*
G01X0027911Y-037692D02*
G01X0027911Y-036692D01*
G01X0029483Y-037692D02*
G01X0029483Y-036692D01*
G01X0029483Y-037169D02*
G01X0030054Y-037169D01*
G01X0030054Y-037692D02*
G01X0030054Y-036692D01*
G01X0030483Y-037407D02*
G01X0030959Y-037407D01*
G01X0030388Y-037692D02*
G01X0030721Y-036692D01*
G01X0030721Y-036692D02*
G01X0031054Y-037692D01*
G01X0031245Y-036692D02*
G01X0031578Y-037692D01*
G01X0031578Y-037692D02*
G01X0031911Y-036692D01*
G01X0032245Y-037169D02*
G01X0032578Y-037169D01*
G01X0032721Y-037692D02*
G01X0032245Y-037692D01*
G01X0032245Y-037692D02*
G01X0032245Y-036692D01*
G01X0032245Y-036692D02*
G01X0032721Y-036692D01*
G01X0033816Y-036692D02*
G01X0034054Y-037692D01*
G01X0034054Y-037692D02*
G01X0034245Y-036978D01*
G01X0034245Y-036978D02*
G01X0034435Y-037692D01*
G01X0034435Y-037692D02*
G01X0034673Y-036692D01*
G01X0035054Y-037692D02*
G01X0035054Y-036692D01*
G01X0035054Y-037169D02*
G01X0035626Y-037169D01*
G01X0035626Y-037692D02*
G01X0035626Y-036692D01*
G01X0036102Y-037692D02*
G01X0036102Y-036692D01*
G01X0036435Y-036692D02*
G01X0037007Y-036692D01*
G01X0036721Y-037692D02*
G01X0036721Y-036692D01*
G01X0037340Y-037169D02*
G01X0037673Y-037169D01*
G01X0037816Y-037692D02*
G01X0037340Y-037692D01*
G01X0037340Y-037692D02*
G01X0037340Y-036692D01*
G01X0037340Y-036692D02*
G01X0037816Y-036692D01*
G01X0038959Y-037645D02*
G01X0039102Y-037692D01*
G01X0039102Y-037692D02*
G01X0039340Y-037692D01*
G01X0039340Y-037692D02*
G01X0039435Y-037645D01*
G01X0039435Y-037645D02*
G01X0039483Y-037597D01*
G01X0039483Y-037597D02*
G01X0039530Y-037502D01*
G01X0039530Y-037502D02*
G01X0039530Y-037407D01*
G01X0039530Y-037407D02*
G01X0039483Y-037311D01*
G01X0039483Y-037311D02*
G01X0039435Y-037264D01*
G01X0039435Y-037264D02*
G01X0039340Y-037216D01*
G01X0039340Y-037216D02*
G01X0039150Y-037169D01*
G01X0039150Y-037169D02*
G01X0039054Y-037121D01*
G01X0039054Y-037121D02*
G01X0039007Y-037073D01*
G01X0039007Y-037073D02*
G01X0038959Y-036978D01*
G01X0038959Y-036978D02*
G01X0038959Y-036883D01*
G01X0038959Y-036883D02*
G01X0039007Y-036788D01*
G01X0039007Y-036788D02*
G01X0039054Y-036740D01*
G01X0039054Y-036740D02*
G01X0039150Y-036692D01*
G01X0039150Y-036692D02*
G01X0039388Y-036692D01*
G01X0039388Y-036692D02*
G01X0039530Y-036740D01*
G01X0039959Y-037692D02*
G01X0039959Y-036692D01*
G01X0040911Y-037692D02*
G01X0040435Y-037692D01*
G01X0040435Y-037692D02*
G01X0040435Y-036692D01*
G01X0041245Y-037692D02*
G01X0041245Y-036692D01*
G01X0041816Y-037692D02*
G01X0041388Y-037121D01*
G01X0041816Y-036692D02*
G01X0041245Y-037264D01*
G01X0042197Y-037645D02*
G01X0042340Y-037692D01*
G01X0042340Y-037692D02*
G01X0042578Y-037692D01*
G01X0042578Y-037692D02*
G01X0042673Y-037645D01*
G01X0042673Y-037645D02*
G01X0042721Y-037597D01*
G01X0042721Y-037597D02*
G01X0042769Y-037502D01*
G01X0042769Y-037502D02*
G01X0042769Y-037407D01*
G01X0042769Y-037407D02*
G01X0042721Y-037311D01*
G01X0042721Y-037311D02*
G01X0042673Y-037264D01*
G01X0042673Y-037264D02*
G01X0042578Y-037216D01*
G01X0042578Y-037216D02*
G01X0042388Y-037169D01*
G01X0042388Y-037169D02*
G01X0042292Y-037121D01*
G01X0042292Y-037121D02*
G01X0042245Y-037073D01*
G01X0042245Y-037073D02*
G01X0042197Y-036978D01*
G01X0042197Y-036978D02*
G01X0042197Y-036883D01*
G01X0042197Y-036883D02*
G01X0042245Y-036788D01*
G01X0042245Y-036788D02*
G01X0042292Y-036740D01*
G01X0042292Y-036740D02*
G01X0042388Y-036692D01*
G01X0042388Y-036692D02*
G01X0042626Y-036692D01*
G01X0042626Y-036692D02*
G01X0042769Y-036740D01*
G01X0043769Y-037597D02*
G01X0043721Y-037645D01*
G01X0043721Y-037645D02*
G01X0043578Y-037692D01*
G01X0043578Y-037692D02*
G01X0043483Y-037692D01*
G01X0043483Y-037692D02*
G01X0043340Y-037645D01*
G01X0043340Y-037645D02*
G01X0043245Y-037550D01*
G01X0043245Y-037550D02*
G01X0043197Y-037454D01*
G01X0043197Y-037454D02*
G01X0043150Y-037264D01*
G01X0043150Y-037264D02*
G01X0043150Y-037121D01*
G01X0043150Y-037121D02*
G01X0043197Y-036930D01*
G01X0043197Y-036930D02*
G01X0043245Y-036835D01*
G01X0043245Y-036835D02*
G01X0043340Y-036740D01*
G01X0043340Y-036740D02*
G01X0043483Y-036692D01*
G01X0043483Y-036692D02*
G01X0043578Y-036692D01*
G01X0043578Y-036692D02*
G01X0043721Y-036740D01*
G01X0043721Y-036740D02*
G01X0043769Y-036788D01*
G01X0044769Y-037692D02*
G01X0044435Y-037216D01*
G01X0044197Y-037692D02*
G01X0044197Y-036692D01*
G01X0044197Y-036692D02*
G01X0044578Y-036692D01*
G01X0044578Y-036692D02*
G01X0044673Y-036740D01*
G01X0044673Y-036740D02*
G01X0044721Y-036788D01*
G01X0044721Y-036788D02*
G01X0044769Y-036883D01*
G01X0044769Y-036883D02*
G01X0044769Y-037026D01*
G01X0044769Y-037026D02*
G01X0044721Y-037121D01*
G01X0044721Y-037121D02*
G01X0044673Y-037169D01*
G01X0044673Y-037169D02*
G01X0044578Y-037216D01*
G01X0044578Y-037216D02*
G01X0044197Y-037216D01*
G01X0045197Y-037169D02*
G01X0045530Y-037169D01*
G01X0045673Y-037692D02*
G01X0045197Y-037692D01*
G01X0045197Y-037692D02*
G01X0045197Y-036692D01*
G01X0045197Y-036692D02*
G01X0045673Y-036692D01*
G01X0046102Y-037169D02*
G01X0046435Y-037169D01*
G01X0046578Y-037692D02*
G01X0046102Y-037692D01*
G01X0046102Y-037692D02*
G01X0046102Y-036692D01*
G01X0046102Y-036692D02*
G01X0046578Y-036692D01*
G01X0047007Y-037692D02*
G01X0047007Y-036692D01*
G01X0047007Y-036692D02*
G01X0047578Y-037692D01*
G01X0047578Y-037692D02*
G01X0047578Y-036692D01*
G01X0048054Y-037597D02*
G01X0048102Y-037645D01*
G01X0048102Y-037645D02*
G01X0048054Y-037692D01*
G01X0048054Y-037692D02*
G01X0048007Y-037645D01*
G01X0048007Y-037645D02*
G01X0048054Y-037597D01*
G01X0048054Y-037597D02*
G01X0048054Y-037692D01*
G01X0049292Y-037692D02*
G01X0049292Y-036692D01*
G01X0049292Y-036692D02*
G01X0049530Y-036692D01*
G01X0049530Y-036692D02*
G01X0049673Y-036740D01*
G01X0049673Y-036740D02*
G01X0049769Y-036835D01*
G01X0049769Y-036835D02*
G01X0049816Y-036930D01*
G01X0049816Y-036930D02*
G01X0049864Y-037121D01*
G01X0049864Y-037121D02*
G01X0049864Y-037264D01*
G01X0049864Y-037264D02*
G01X0049816Y-037454D01*
G01X0049816Y-037454D02*
G01X0049769Y-037550D01*
G01X0049769Y-037550D02*
G01X0049673Y-037645D01*
G01X0049673Y-037645D02*
G01X0049530Y-037692D01*
G01X0049530Y-037692D02*
G01X0049292Y-037692D01*
G01X0050483Y-036692D02*
G01X0050673Y-036692D01*
G01X0050673Y-036692D02*
G01X0050769Y-036740D01*
G01X0050769Y-036740D02*
G01X0050864Y-036835D01*
G01X0050864Y-036835D02*
G01X0050911Y-037026D01*
G01X0050911Y-037026D02*
G01X0050911Y-037359D01*
G01X0050911Y-037359D02*
G01X0050864Y-037550D01*
G01X0050864Y-037550D02*
G01X0050769Y-037645D01*
G01X0050769Y-037645D02*
G01X0050673Y-037692D01*
G01X0050673Y-037692D02*
G01X0050483Y-037692D01*
G01X0050483Y-037692D02*
G01X0050388Y-037645D01*
G01X0050388Y-037645D02*
G01X0050292Y-037550D01*
G01X0050292Y-037550D02*
G01X0050245Y-037359D01*
G01X0050245Y-037359D02*
G01X0050245Y-037026D01*
G01X0050245Y-037026D02*
G01X0050292Y-036835D01*
G01X0050292Y-036835D02*
G01X0050388Y-036740D01*
G01X0050388Y-036740D02*
G01X0050483Y-036692D01*
G01X0052102Y-037692D02*
G01X0052102Y-036692D01*
G01X0052102Y-036692D02*
G01X0052673Y-037692D01*
G01X0052673Y-037692D02*
G01X0052673Y-036692D01*
G01X0053340Y-036692D02*
G01X0053530Y-036692D01*
G01X0053530Y-036692D02*
G01X0053626Y-036740D01*
G01X0053626Y-036740D02*
G01X0053721Y-036835D01*
G01X0053721Y-036835D02*
G01X0053769Y-037026D01*
G01X0053769Y-037026D02*
G01X0053769Y-037359D01*
G01X0053769Y-037359D02*
G01X0053721Y-037550D01*
G01X0053721Y-037550D02*
G01X0053626Y-037645D01*
G01X0053626Y-037645D02*
G01X0053530Y-037692D01*
G01X0053530Y-037692D02*
G01X0053340Y-037692D01*
G01X0053340Y-037692D02*
G01X0053245Y-037645D01*
G01X0053245Y-037645D02*
G01X0053150Y-037550D01*
G01X0053150Y-037550D02*
G01X0053102Y-037359D01*
G01X0053102Y-037359D02*
G01X0053102Y-037026D01*
G01X0053102Y-037026D02*
G01X0053150Y-036835D01*
G01X0053150Y-036835D02*
G01X0053245Y-036740D01*
G01X0053245Y-036740D02*
G01X0053340Y-036692D01*
G01X0054054Y-036692D02*
G01X0054626Y-036692D01*
G01X0054340Y-037692D02*
G01X0054340Y-036692D01*
G01X0055721Y-037692D02*
G01X0055721Y-036692D01*
G01X0055721Y-036692D02*
G01X0056102Y-036692D01*
G01X0056102Y-036692D02*
G01X0056197Y-036740D01*
G01X0056197Y-036740D02*
G01X0056245Y-036788D01*
G01X0056245Y-036788D02*
G01X0056292Y-036883D01*
G01X0056292Y-036883D02*
G01X0056292Y-037026D01*
G01X0056292Y-037026D02*
G01X0056245Y-037121D01*
G01X0056245Y-037121D02*
G01X0056197Y-037169D01*
G01X0056197Y-037169D02*
G01X0056102Y-037216D01*
G01X0056102Y-037216D02*
G01X0055721Y-037216D01*
G01X0057197Y-037692D02*
G01X0056721Y-037692D01*
G01X0056721Y-037692D02*
G01X0056721Y-036692D01*
G01X0057483Y-037407D02*
G01X0057959Y-037407D01*
G01X0057388Y-037692D02*
G01X0057721Y-036692D01*
G01X0057721Y-036692D02*
G01X0058054Y-037692D01*
G01X0058959Y-037597D02*
G01X0058911Y-037645D01*
G01X0058911Y-037645D02*
G01X0058769Y-037692D01*
G01X0058769Y-037692D02*
G01X0058673Y-037692D01*
G01X0058673Y-037692D02*
G01X0058530Y-037645D01*
G01X0058530Y-037645D02*
G01X0058435Y-037550D01*
G01X0058435Y-037550D02*
G01X0058388Y-037454D01*
G01X0058388Y-037454D02*
G01X0058340Y-037264D01*
G01X0058340Y-037264D02*
G01X0058340Y-037121D01*
G01X0058340Y-037121D02*
G01X0058388Y-036930D01*
G01X0058388Y-036930D02*
G01X0058435Y-036835D01*
G01X0058435Y-036835D02*
G01X0058530Y-036740D01*
G01X0058530Y-036740D02*
G01X0058673Y-036692D01*
G01X0058673Y-036692D02*
G01X0058769Y-036692D01*
G01X0058769Y-036692D02*
G01X0058911Y-036740D01*
G01X0058911Y-036740D02*
G01X0058959Y-036788D01*
G01X0059388Y-037169D02*
G01X0059721Y-037169D01*
G01X0059864Y-037692D02*
G01X0059388Y-037692D01*
G01X0059388Y-037692D02*
G01X0059388Y-036692D01*
G01X0059388Y-036692D02*
G01X0059864Y-036692D01*
G01X0061007Y-037645D02*
G01X0061150Y-037692D01*
G01X0061150Y-037692D02*
G01X0061388Y-037692D01*
G01X0061388Y-037692D02*
G01X0061483Y-037645D01*
G01X0061483Y-037645D02*
G01X0061530Y-037597D01*
G01X0061530Y-037597D02*
G01X0061578Y-037502D01*
G01X0061578Y-037502D02*
G01X0061578Y-037407D01*
G01X0061578Y-037407D02*
G01X0061530Y-037311D01*
G01X0061530Y-037311D02*
G01X0061483Y-037264D01*
G01X0061483Y-037264D02*
G01X0061388Y-037216D01*
G01X0061388Y-037216D02*
G01X0061197Y-037169D01*
G01X0061197Y-037169D02*
G01X0061102Y-037121D01*
G01X0061102Y-037121D02*
G01X0061054Y-037073D01*
G01X0061054Y-037073D02*
G01X0061007Y-036978D01*
G01X0061007Y-036978D02*
G01X0061007Y-036883D01*
G01X0061007Y-036883D02*
G01X0061054Y-036788D01*
G01X0061054Y-036788D02*
G01X0061102Y-036740D01*
G01X0061102Y-036740D02*
G01X0061197Y-036692D01*
G01X0061197Y-036692D02*
G01X0061435Y-036692D01*
G01X0061435Y-036692D02*
G01X0061578Y-036740D01*
G01X0062007Y-037692D02*
G01X0062007Y-036692D01*
G01X0062959Y-037692D02*
G01X0062483Y-037692D01*
G01X0062483Y-037692D02*
G01X0062483Y-036692D01*
G01X0063292Y-037692D02*
G01X0063292Y-036692D01*
G01X0063864Y-037692D02*
G01X0063435Y-037121D01*
G01X0063864Y-036692D02*
G01X0063292Y-037264D01*
G01X0065245Y-036692D02*
G01X0065435Y-036692D01*
G01X0065435Y-036692D02*
G01X0065530Y-036740D01*
G01X0065530Y-036740D02*
G01X0065626Y-036835D01*
G01X0065626Y-036835D02*
G01X0065673Y-037026D01*
G01X0065673Y-037026D02*
G01X0065673Y-037359D01*
G01X0065673Y-037359D02*
G01X0065626Y-037550D01*
G01X0065626Y-037550D02*
G01X0065530Y-037645D01*
G01X0065530Y-037645D02*
G01X0065435Y-037692D01*
G01X0065435Y-037692D02*
G01X0065245Y-037692D01*
G01X0065245Y-037692D02*
G01X0065150Y-037645D01*
G01X0065150Y-037645D02*
G01X0065054Y-037550D01*
G01X0065054Y-037550D02*
G01X0065007Y-037359D01*
G01X0065007Y-037359D02*
G01X0065007Y-037026D01*
G01X0065007Y-037026D02*
G01X0065054Y-036835D01*
G01X0065054Y-036835D02*
G01X0065150Y-036740D01*
G01X0065150Y-036740D02*
G01X0065245Y-036692D01*
G01X0065959Y-036692D02*
G01X0066292Y-037692D01*
G01X0066292Y-037692D02*
G01X0066626Y-036692D01*
G01X0066959Y-037169D02*
G01X0067292Y-037169D01*
G01X0067435Y-037692D02*
G01X0066959Y-037692D01*
G01X0066959Y-037692D02*
G01X0066959Y-036692D01*
G01X0066959Y-036692D02*
G01X0067435Y-036692D01*
G01X0068435Y-037692D02*
G01X0068102Y-037216D01*
G01X0067864Y-037692D02*
G01X0067864Y-036692D01*
G01X0067864Y-036692D02*
G01X0068245Y-036692D01*
G01X0068245Y-036692D02*
G01X0068340Y-036740D01*
G01X0068340Y-036740D02*
G01X0068388Y-036788D01*
G01X0068388Y-036788D02*
G01X0068435Y-036883D01*
G01X0068435Y-036883D02*
G01X0068435Y-037026D01*
G01X0068435Y-037026D02*
G01X0068388Y-037121D01*
G01X0068388Y-037121D02*
G01X0068340Y-037169D01*
G01X0068340Y-037169D02*
G01X0068245Y-037216D01*
G01X0068245Y-037216D02*
G01X0067864Y-037216D01*
G01X0069959Y-037169D02*
G01X0070102Y-037216D01*
G01X0070102Y-037216D02*
G01X0070150Y-037264D01*
G01X0070150Y-037264D02*
G01X0070197Y-037359D01*
G01X0070197Y-037359D02*
G01X0070197Y-037502D01*
G01X0070197Y-037502D02*
G01X0070150Y-037597D01*
G01X0070150Y-037597D02*
G01X0070102Y-037645D01*
G01X0070102Y-037645D02*
G01X0070007Y-037692D01*
G01X0070007Y-037692D02*
G01X0069626Y-037692D01*
G01X0069626Y-037692D02*
G01X0069626Y-036692D01*
G01X0069626Y-036692D02*
G01X0069959Y-036692D01*
G01X0069959Y-036692D02*
G01X0070054Y-036740D01*
G01X0070054Y-036740D02*
G01X0070102Y-036788D01*
G01X0070102Y-036788D02*
G01X0070150Y-036883D01*
G01X0070150Y-036883D02*
G01X0070150Y-036978D01*
G01X0070150Y-036978D02*
G01X0070102Y-037073D01*
G01X0070102Y-037073D02*
G01X0070054Y-037121D01*
G01X0070054Y-037121D02*
G01X0069959Y-037169D01*
G01X0069959Y-037169D02*
G01X0069626Y-037169D01*
G01X0070578Y-037407D02*
G01X0071054Y-037407D01*
G01X0070483Y-037692D02*
G01X0070816Y-036692D01*
G01X0070816Y-036692D02*
G01X0071150Y-037692D01*
G01X0072054Y-037692D02*
G01X0071721Y-037216D01*
G01X0071483Y-037692D02*
G01X0071483Y-036692D01*
G01X0071483Y-036692D02*
G01X0071864Y-036692D01*
G01X0071864Y-036692D02*
G01X0071959Y-036740D01*
G01X0071959Y-036740D02*
G01X0072007Y-036788D01*
G01X0072007Y-036788D02*
G01X0072054Y-036883D01*
G01X0072054Y-036883D02*
G01X0072054Y-037026D01*
G01X0072054Y-037026D02*
G01X0072007Y-037121D01*
G01X0072007Y-037121D02*
G01X0071959Y-037169D01*
G01X0071959Y-037169D02*
G01X0071864Y-037216D01*
G01X0071864Y-037216D02*
G01X0071483Y-037216D01*
G01X0072483Y-037169D02*
G01X0072816Y-037169D01*
G01X0072959Y-037692D02*
G01X0072483Y-037692D01*
G01X0072483Y-037692D02*
G01X0072483Y-036692D01*
G01X0072483Y-036692D02*
G01X0072959Y-036692D01*
G01X0074721Y-037597D02*
G01X0074673Y-037645D01*
G01X0074673Y-037645D02*
G01X0074530Y-037692D01*
G01X0074530Y-037692D02*
G01X0074435Y-037692D01*
G01X0074435Y-037692D02*
G01X0074292Y-037645D01*
G01X0074292Y-037645D02*
G01X0074197Y-037550D01*
G01X0074197Y-037550D02*
G01X0074150Y-037454D01*
G01X0074150Y-037454D02*
G01X0074102Y-037264D01*
G01X0074102Y-037264D02*
G01X0074102Y-037121D01*
G01X0074102Y-037121D02*
G01X0074150Y-036930D01*
G01X0074150Y-036930D02*
G01X0074197Y-036835D01*
G01X0074197Y-036835D02*
G01X0074292Y-036740D01*
G01X0074292Y-036740D02*
G01X0074435Y-036692D01*
G01X0074435Y-036692D02*
G01X0074530Y-036692D01*
G01X0074530Y-036692D02*
G01X0074673Y-036740D01*
G01X0074673Y-036740D02*
G01X0074721Y-036788D01*
G01X0075340Y-036692D02*
G01X0075530Y-036692D01*
G01X0075530Y-036692D02*
G01X0075626Y-036740D01*
G01X0075626Y-036740D02*
G01X0075721Y-036835D01*
G01X0075721Y-036835D02*
G01X0075769Y-037026D01*
G01X0075769Y-037026D02*
G01X0075769Y-037359D01*
G01X0075769Y-037359D02*
G01X0075721Y-037550D01*
G01X0075721Y-037550D02*
G01X0075626Y-037645D01*
G01X0075626Y-037645D02*
G01X0075530Y-037692D01*
G01X0075530Y-037692D02*
G01X0075340Y-037692D01*
G01X0075340Y-037692D02*
G01X0075245Y-037645D01*
G01X0075245Y-037645D02*
G01X0075150Y-037550D01*
G01X0075150Y-037550D02*
G01X0075102Y-037359D01*
G01X0075102Y-037359D02*
G01X0075102Y-037026D01*
G01X0075102Y-037026D02*
G01X0075150Y-036835D01*
G01X0075150Y-036835D02*
G01X0075245Y-036740D01*
G01X0075245Y-036740D02*
G01X0075340Y-036692D01*
G01X0076197Y-037692D02*
G01X0076197Y-036692D01*
G01X0076197Y-036692D02*
G01X0076578Y-036692D01*
G01X0076578Y-036692D02*
G01X0076673Y-036740D01*
G01X0076673Y-036740D02*
G01X0076721Y-036788D01*
G01X0076721Y-036788D02*
G01X0076769Y-036883D01*
G01X0076769Y-036883D02*
G01X0076769Y-037026D01*
G01X0076769Y-037026D02*
G01X0076721Y-037121D01*
G01X0076721Y-037121D02*
G01X0076673Y-037169D01*
G01X0076673Y-037169D02*
G01X0076578Y-037216D01*
G01X0076578Y-037216D02*
G01X0076197Y-037216D01*
G01X0077197Y-037692D02*
G01X0077197Y-036692D01*
G01X0077197Y-036692D02*
G01X0077578Y-036692D01*
G01X0077578Y-036692D02*
G01X0077673Y-036740D01*
G01X0077673Y-036740D02*
G01X0077721Y-036788D01*
G01X0077721Y-036788D02*
G01X0077769Y-036883D01*
G01X0077769Y-036883D02*
G01X0077769Y-037026D01*
G01X0077769Y-037026D02*
G01X0077721Y-037121D01*
G01X0077721Y-037121D02*
G01X0077673Y-037169D01*
G01X0077673Y-037169D02*
G01X0077578Y-037216D01*
G01X0077578Y-037216D02*
G01X0077197Y-037216D01*
G01X0078197Y-037169D02*
G01X0078530Y-037169D01*
G01X0078673Y-037692D02*
G01X0078197Y-037692D01*
G01X0078197Y-037692D02*
G01X0078197Y-036692D01*
G01X0078197Y-036692D02*
G01X0078673Y-036692D01*
G01X0079673Y-037692D02*
G01X0079340Y-037216D01*
G01X0079102Y-037692D02*
G01X0079102Y-036692D01*
G01X0079102Y-036692D02*
G01X0079483Y-036692D01*
G01X0079483Y-036692D02*
G01X0079578Y-036740D01*
G01X0079578Y-036740D02*
G01X0079626Y-036788D01*
G01X0079626Y-036788D02*
G01X0079673Y-036883D01*
G01X0079673Y-036883D02*
G01X0079673Y-037026D01*
G01X0079673Y-037026D02*
G01X0079626Y-037121D01*
G01X0079626Y-037121D02*
G01X0079578Y-037169D01*
G01X0079578Y-037169D02*
G01X0079483Y-037216D01*
G01X0079483Y-037216D02*
G01X0079102Y-037216D01*
G01X0080102Y-037597D02*
G01X0080150Y-037645D01*
G01X0080150Y-037645D02*
G01X0080102Y-037692D01*
G01X0080102Y-037692D02*
G01X0080054Y-037645D01*
G01X0080054Y-037645D02*
G01X0080102Y-037597D01*
G01X0080102Y-037597D02*
G01X0080102Y-037692D01*
G01X0000721Y-038721D02*
G01X0000626Y-038673D01*
G01X0000626Y-038673D02*
G01X0000578Y-038626D01*
G01X0000578Y-038626D02*
G01X0000530Y-038530D01*
G01X0000530Y-038530D02*
G01X0000530Y-038483D01*
G01X0000530Y-038483D02*
G01X0000578Y-038388D01*
G01X0000578Y-038388D02*
G01X0000626Y-038340D01*
G01X0000626Y-038340D02*
G01X0000721Y-038292D01*
G01X0000721Y-038292D02*
G01X0000911Y-038292D01*
G01X0000911Y-038292D02*
G01X0001007Y-038340D01*
G01X0001007Y-038340D02*
G01X0001054Y-038388D01*
G01X0001054Y-038388D02*
G01X0001102Y-038483D01*
G01X0001102Y-038483D02*
G01X0001102Y-038530D01*
G01X0001102Y-038530D02*
G01X0001054Y-038626D01*
G01X0001054Y-038626D02*
G01X0001007Y-038673D01*
G01X0001007Y-038673D02*
G01X0000911Y-038721D01*
G01X0000911Y-038721D02*
G01X0000721Y-038721D01*
G01X0000721Y-038721D02*
G01X0000626Y-038769D01*
G01X0000626Y-038769D02*
G01X0000578Y-038816D01*
G01X0000578Y-038816D02*
G01X0000530Y-038911D01*
G01X0000530Y-038911D02*
G01X0000530Y-039102D01*
G01X0000530Y-039102D02*
G01X0000578Y-039197D01*
G01X0000578Y-039197D02*
G01X0000626Y-039245D01*
G01X0000626Y-039245D02*
G01X0000721Y-039292D01*
G01X0000721Y-039292D02*
G01X0000911Y-039292D01*
G01X0000911Y-039292D02*
G01X0001007Y-039245D01*
G01X0001007Y-039245D02*
G01X0001054Y-039197D01*
G01X0001054Y-039197D02*
G01X0001102Y-039102D01*
G01X0001102Y-039102D02*
G01X0001102Y-038911D01*
G01X0001102Y-038911D02*
G01X0001054Y-038816D01*
G01X0001054Y-038816D02*
G01X0001007Y-038769D01*
G01X0001007Y-038769D02*
G01X0000911Y-038721D01*
G01X0001530Y-039197D02*
G01X0001578Y-039245D01*
G01X0001578Y-039245D02*
G01X0001530Y-039292D01*
G01X0001530Y-039292D02*
G01X0001483Y-039245D01*
G01X0001483Y-039245D02*
G01X0001530Y-039197D01*
G01X0001530Y-039197D02*
G01X0001530Y-039292D01*
G01X0003102Y-038769D02*
G01X0003245Y-038816D01*
G01X0003245Y-038816D02*
G01X0003292Y-038864D01*
G01X0003292Y-038864D02*
G01X0003340Y-038959D01*
G01X0003340Y-038959D02*
G01X0003340Y-039102D01*
G01X0003340Y-039102D02*
G01X0003292Y-039197D01*
G01X0003292Y-039197D02*
G01X0003245Y-039245D01*
G01X0003245Y-039245D02*
G01X0003150Y-039292D01*
G01X0003150Y-039292D02*
G01X0002769Y-039292D01*
G01X0002769Y-039292D02*
G01X0002769Y-038292D01*
G01X0002769Y-038292D02*
G01X0003102Y-038292D01*
G01X0003102Y-038292D02*
G01X0003197Y-038340D01*
G01X0003197Y-038340D02*
G01X0003245Y-038388D01*
G01X0003245Y-038388D02*
G01X0003292Y-038483D01*
G01X0003292Y-038483D02*
G01X0003292Y-038578D01*
G01X0003292Y-038578D02*
G01X0003245Y-038673D01*
G01X0003245Y-038673D02*
G01X0003197Y-038721D01*
G01X0003197Y-038721D02*
G01X0003102Y-038769D01*
G01X0003102Y-038769D02*
G01X0002769Y-038769D01*
G01X0003959Y-038292D02*
G01X0004150Y-038292D01*
G01X0004150Y-038292D02*
G01X0004245Y-038340D01*
G01X0004245Y-038340D02*
G01X0004340Y-038435D01*
G01X0004340Y-038435D02*
G01X0004388Y-038626D01*
G01X0004388Y-038626D02*
G01X0004388Y-038959D01*
G01X0004388Y-038959D02*
G01X0004340Y-039150D01*
G01X0004340Y-039150D02*
G01X0004245Y-039245D01*
G01X0004245Y-039245D02*
G01X0004150Y-039292D01*
G01X0004150Y-039292D02*
G01X0003959Y-039292D01*
G01X0003959Y-039292D02*
G01X0003864Y-039245D01*
G01X0003864Y-039245D02*
G01X0003769Y-039150D01*
G01X0003769Y-039150D02*
G01X0003721Y-038959D01*
G01X0003721Y-038959D02*
G01X0003721Y-038626D01*
G01X0003721Y-038626D02*
G01X0003769Y-038435D01*
G01X0003769Y-038435D02*
G01X0003864Y-038340D01*
G01X0003864Y-038340D02*
G01X0003959Y-038292D01*
G01X0004769Y-039007D02*
G01X0005245Y-039007D01*
G01X0004673Y-039292D02*
G01X0005007Y-038292D01*
G01X0005007Y-038292D02*
G01X0005340Y-039292D01*
G01X0006245Y-039292D02*
G01X0005911Y-038816D01*
G01X0005673Y-039292D02*
G01X0005673Y-038292D01*
G01X0005673Y-038292D02*
G01X0006054Y-038292D01*
G01X0006054Y-038292D02*
G01X0006150Y-038340D01*
G01X0006150Y-038340D02*
G01X0006197Y-038388D01*
G01X0006197Y-038388D02*
G01X0006245Y-038483D01*
G01X0006245Y-038483D02*
G01X0006245Y-038626D01*
G01X0006245Y-038626D02*
G01X0006197Y-038721D01*
G01X0006197Y-038721D02*
G01X0006150Y-038769D01*
G01X0006150Y-038769D02*
G01X0006054Y-038816D01*
G01X0006054Y-038816D02*
G01X0005673Y-038816D01*
G01X0006673Y-039292D02*
G01X0006673Y-038292D01*
G01X0006673Y-038292D02*
G01X0006911Y-038292D01*
G01X0006911Y-038292D02*
G01X0007054Y-038340D01*
G01X0007054Y-038340D02*
G01X0007150Y-038435D01*
G01X0007150Y-038435D02*
G01X0007197Y-038530D01*
G01X0007197Y-038530D02*
G01X0007245Y-038721D01*
G01X0007245Y-038721D02*
G01X0007245Y-038864D01*
G01X0007245Y-038864D02*
G01X0007197Y-039054D01*
G01X0007197Y-039054D02*
G01X0007150Y-039150D01*
G01X0007150Y-039150D02*
G01X0007054Y-039245D01*
G01X0007054Y-039245D02*
G01X0006911Y-039292D01*
G01X0006911Y-039292D02*
G01X0006673Y-039292D01*
G01X0007626Y-039245D02*
G01X0007769Y-039292D01*
G01X0007769Y-039292D02*
G01X0008007Y-039292D01*
G01X0008007Y-039292D02*
G01X0008102Y-039245D01*
G01X0008102Y-039245D02*
G01X0008150Y-039197D01*
G01X0008150Y-039197D02*
G01X0008197Y-039102D01*
G01X0008197Y-039102D02*
G01X0008197Y-039007D01*
G01X0008197Y-039007D02*
G01X0008150Y-038911D01*
G01X0008150Y-038911D02*
G01X0008102Y-038864D01*
G01X0008102Y-038864D02*
G01X0008007Y-038816D01*
G01X0008007Y-038816D02*
G01X0007816Y-038769D01*
G01X0007816Y-038769D02*
G01X0007721Y-038721D01*
G01X0007721Y-038721D02*
G01X0007673Y-038673D01*
G01X0007673Y-038673D02*
G01X0007626Y-038578D01*
G01X0007626Y-038578D02*
G01X0007626Y-038483D01*
G01X0007626Y-038483D02*
G01X0007673Y-038388D01*
G01X0007673Y-038388D02*
G01X0007721Y-038340D01*
G01X0007721Y-038340D02*
G01X0007816Y-038292D01*
G01X0007816Y-038292D02*
G01X0008054Y-038292D01*
G01X0008054Y-038292D02*
G01X0008197Y-038340D01*
G01X0009340Y-039245D02*
G01X0009483Y-039292D01*
G01X0009483Y-039292D02*
G01X0009721Y-039292D01*
G01X0009721Y-039292D02*
G01X0009816Y-039245D01*
G01X0009816Y-039245D02*
G01X0009864Y-039197D01*
G01X0009864Y-039197D02*
G01X0009911Y-039102D01*
G01X0009911Y-039102D02*
G01X0009911Y-039007D01*
G01X0009911Y-039007D02*
G01X0009864Y-038911D01*
G01X0009864Y-038911D02*
G01X0009816Y-038864D01*
G01X0009816Y-038864D02*
G01X0009721Y-038816D01*
G01X0009721Y-038816D02*
G01X0009530Y-038769D01*
G01X0009530Y-038769D02*
G01X0009435Y-038721D01*
G01X0009435Y-038721D02*
G01X0009388Y-038673D01*
G01X0009388Y-038673D02*
G01X0009340Y-038578D01*
G01X0009340Y-038578D02*
G01X0009340Y-038483D01*
G01X0009340Y-038483D02*
G01X0009388Y-038388D01*
G01X0009388Y-038388D02*
G01X0009435Y-038340D01*
G01X0009435Y-038340D02*
G01X0009530Y-038292D01*
G01X0009530Y-038292D02*
G01X0009769Y-038292D01*
G01X0009769Y-038292D02*
G01X0009911Y-038340D01*
G01X0010340Y-039292D02*
G01X0010340Y-038292D01*
G01X0010340Y-038769D02*
G01X0010911Y-038769D01*
G01X0010911Y-039292D02*
G01X0010911Y-038292D01*
G01X0011340Y-039007D02*
G01X0011816Y-039007D01*
G01X0011245Y-039292D02*
G01X0011578Y-038292D01*
G01X0011578Y-038292D02*
G01X0011911Y-039292D01*
G01X0012721Y-039292D02*
G01X0012245Y-039292D01*
G01X0012245Y-039292D02*
G01X0012245Y-038292D01*
G01X0013530Y-039292D02*
G01X0013054Y-039292D01*
G01X0013054Y-039292D02*
G01X0013054Y-038292D01*
G01X0014626Y-039292D02*
G01X0014626Y-038292D01*
G01X0014626Y-038769D02*
G01X0015197Y-038769D01*
G01X0015197Y-039292D02*
G01X0015197Y-038292D01*
G01X0015626Y-039007D02*
G01X0016102Y-039007D01*
G01X0015530Y-039292D02*
G01X0015864Y-038292D01*
G01X0015864Y-038292D02*
G01X0016197Y-039292D01*
G01X0016388Y-038292D02*
G01X0016721Y-039292D01*
G01X0016721Y-039292D02*
G01X0017054Y-038292D01*
G01X0017388Y-038769D02*
G01X0017721Y-038769D01*
G01X0017864Y-039292D02*
G01X0017388Y-039292D01*
G01X0017388Y-039292D02*
G01X0017388Y-038292D01*
G01X0017388Y-038292D02*
G01X0017864Y-038292D01*
G01X0019054Y-038769D02*
G01X0019388Y-038769D01*
G01X0019530Y-039292D02*
G01X0019054Y-039292D01*
G01X0019054Y-039292D02*
G01X0019054Y-038292D01*
G01X0019054Y-038292D02*
G01X0019530Y-038292D01*
G01X0019959Y-039292D02*
G01X0019959Y-038292D01*
G01X0019959Y-038292D02*
G01X0020530Y-039292D01*
G01X0020530Y-039292D02*
G01X0020530Y-038292D01*
G01X0021007Y-039292D02*
G01X0021007Y-038292D01*
G01X0022007Y-038340D02*
G01X0021911Y-038292D01*
G01X0021911Y-038292D02*
G01X0021769Y-038292D01*
G01X0021769Y-038292D02*
G01X0021626Y-038340D01*
G01X0021626Y-038340D02*
G01X0021530Y-038435D01*
G01X0021530Y-038435D02*
G01X0021483Y-038530D01*
G01X0021483Y-038530D02*
G01X0021435Y-038721D01*
G01X0021435Y-038721D02*
G01X0021435Y-038864D01*
G01X0021435Y-038864D02*
G01X0021483Y-039054D01*
G01X0021483Y-039054D02*
G01X0021530Y-039150D01*
G01X0021530Y-039150D02*
G01X0021626Y-039245D01*
G01X0021626Y-039245D02*
G01X0021769Y-039292D01*
G01X0021769Y-039292D02*
G01X0021864Y-039292D01*
G01X0021864Y-039292D02*
G01X0022007Y-039245D01*
G01X0022007Y-039245D02*
G01X0022054Y-039197D01*
G01X0022054Y-039197D02*
G01X0022054Y-038864D01*
G01X0022054Y-038864D02*
G01X0021864Y-038864D01*
G01X0023578Y-038769D02*
G01X0023245Y-038769D01*
G01X0023245Y-039292D02*
G01X0023245Y-038292D01*
G01X0023245Y-038292D02*
G01X0023721Y-038292D01*
G01X0024102Y-039292D02*
G01X0024102Y-038292D01*
G01X0024578Y-039292D02*
G01X0024578Y-038292D01*
G01X0024578Y-038292D02*
G01X0025150Y-039292D01*
G01X0025150Y-039292D02*
G01X0025150Y-038292D01*
G01X0025626Y-039292D02*
G01X0025626Y-038292D01*
G01X0026054Y-039245D02*
G01X0026197Y-039292D01*
G01X0026197Y-039292D02*
G01X0026435Y-039292D01*
G01X0026435Y-039292D02*
G01X0026530Y-039245D01*
G01X0026530Y-039245D02*
G01X0026578Y-039197D01*
G01X0026578Y-039197D02*
G01X0026626Y-039102D01*
G01X0026626Y-039102D02*
G01X0026626Y-039007D01*
G01X0026626Y-039007D02*
G01X0026578Y-038911D01*
G01X0026578Y-038911D02*
G01X0026530Y-038864D01*
G01X0026530Y-038864D02*
G01X0026435Y-038816D01*
G01X0026435Y-038816D02*
G01X0026245Y-038769D01*
G01X0026245Y-038769D02*
G01X0026150Y-038721D01*
G01X0026150Y-038721D02*
G01X0026102Y-038673D01*
G01X0026102Y-038673D02*
G01X0026054Y-038578D01*
G01X0026054Y-038578D02*
G01X0026054Y-038483D01*
G01X0026054Y-038483D02*
G01X0026102Y-038388D01*
G01X0026102Y-038388D02*
G01X0026150Y-038340D01*
G01X0026150Y-038340D02*
G01X0026245Y-038292D01*
G01X0026245Y-038292D02*
G01X0026483Y-038292D01*
G01X0026483Y-038292D02*
G01X0026626Y-038340D01*
G01X0027054Y-039292D02*
G01X0027054Y-038292D01*
G01X0027054Y-038769D02*
G01X0027626Y-038769D01*
G01X0027626Y-039292D02*
G01X0027626Y-038292D01*
G01X0028102Y-039197D02*
G01X0028150Y-039245D01*
G01X0028150Y-039245D02*
G01X0028102Y-039292D01*
G01X0028102Y-039292D02*
G01X0028054Y-039245D01*
G01X0028054Y-039245D02*
G01X0028102Y-039197D01*
G01X0028102Y-039197D02*
G01X0028102Y-039292D01*
G01X0000626Y-040892D02*
G01X0000816Y-040892D01*
G01X0000816Y-040892D02*
G01X0000911Y-040845D01*
G01X0000911Y-040845D02*
G01X0000959Y-040797D01*
G01X0000959Y-040797D02*
G01X0001054Y-040654D01*
G01X0001054Y-040654D02*
G01X0001102Y-040464D01*
G01X0001102Y-040464D02*
G01X0001102Y-040083D01*
G01X0001102Y-040083D02*
G01X0001054Y-039988D01*
G01X0001054Y-039988D02*
G01X0001007Y-039940D01*
G01X0001007Y-039940D02*
G01X0000911Y-039892D01*
G01X0000911Y-039892D02*
G01X0000721Y-039892D01*
G01X0000721Y-039892D02*
G01X0000626Y-039940D01*
G01X0000626Y-039940D02*
G01X0000578Y-039988D01*
G01X0000578Y-039988D02*
G01X0000530Y-040083D01*
G01X0000530Y-040083D02*
G01X0000530Y-040321D01*
G01X0000530Y-040321D02*
G01X0000578Y-040416D01*
G01X0000578Y-040416D02*
G01X0000626Y-040464D01*
G01X0000626Y-040464D02*
G01X0000721Y-040511D01*
G01X0000721Y-040511D02*
G01X0000911Y-040511D01*
G01X0000911Y-040511D02*
G01X0001007Y-040464D01*
G01X0001007Y-040464D02*
G01X0001054Y-040416D01*
G01X0001054Y-040416D02*
G01X0001102Y-040321D01*
G01X0001530Y-040797D02*
G01X0001578Y-040845D01*
G01X0001578Y-040845D02*
G01X0001530Y-040892D01*
G01X0001530Y-040892D02*
G01X0001483Y-040845D01*
G01X0001483Y-040845D02*
G01X0001530Y-040797D01*
G01X0001530Y-040797D02*
G01X0001530Y-040892D01*
G01X0002769Y-040892D02*
G01X0002769Y-039892D01*
G01X0002769Y-039892D02*
G01X0003102Y-040607D01*
G01X0003102Y-040607D02*
G01X0003435Y-039892D01*
G01X0003435Y-039892D02*
G01X0003435Y-040892D01*
G01X0003911Y-040892D02*
G01X0003911Y-039892D01*
G01X0004388Y-040892D02*
G01X0004388Y-039892D01*
G01X0004388Y-039892D02*
G01X0004959Y-040892D01*
G01X0004959Y-040892D02*
G01X0004959Y-039892D01*
G01X0005435Y-040892D02*
G01X0005435Y-039892D01*
G01X0005911Y-040892D02*
G01X0005911Y-039892D01*
G01X0005911Y-039892D02*
G01X0006245Y-040607D01*
G01X0006245Y-040607D02*
G01X0006578Y-039892D01*
G01X0006578Y-039892D02*
G01X0006578Y-040892D01*
G01X0007054Y-039892D02*
G01X0007054Y-040702D01*
G01X0007054Y-040702D02*
G01X0007102Y-040797D01*
G01X0007102Y-040797D02*
G01X0007150Y-040845D01*
G01X0007150Y-040845D02*
G01X0007245Y-040892D01*
G01X0007245Y-040892D02*
G01X0007435Y-040892D01*
G01X0007435Y-040892D02*
G01X0007530Y-040845D01*
G01X0007530Y-040845D02*
G01X0007578Y-040797D01*
G01X0007578Y-040797D02*
G01X0007626Y-040702D01*
G01X0007626Y-040702D02*
G01X0007626Y-039892D01*
G01X0008102Y-040892D02*
G01X0008102Y-039892D01*
G01X0008102Y-039892D02*
G01X0008435Y-040607D01*
G01X0008435Y-040607D02*
G01X0008769Y-039892D01*
G01X0008769Y-039892D02*
G01X0008769Y-040892D01*
G01X0009864Y-039892D02*
G01X0010435Y-039892D01*
G01X0010150Y-040892D02*
G01X0010150Y-039892D01*
G01X0011340Y-040892D02*
G01X0011007Y-040416D01*
G01X0010769Y-040892D02*
G01X0010769Y-039892D01*
G01X0010769Y-039892D02*
G01X0011150Y-039892D01*
G01X0011150Y-039892D02*
G01X0011245Y-039940D01*
G01X0011245Y-039940D02*
G01X0011292Y-039988D01*
G01X0011292Y-039988D02*
G01X0011340Y-040083D01*
G01X0011340Y-040083D02*
G01X0011340Y-040226D01*
G01X0011340Y-040226D02*
G01X0011292Y-040321D01*
G01X0011292Y-040321D02*
G01X0011245Y-040369D01*
G01X0011245Y-040369D02*
G01X0011150Y-040416D01*
G01X0011150Y-040416D02*
G01X0010769Y-040416D01*
G01X0011721Y-040607D02*
G01X0012197Y-040607D01*
G01X0011626Y-040892D02*
G01X0011959Y-039892D01*
G01X0011959Y-039892D02*
G01X0012292Y-040892D01*
G01X0013197Y-040797D02*
G01X0013150Y-040845D01*
G01X0013150Y-040845D02*
G01X0013007Y-040892D01*
G01X0013007Y-040892D02*
G01X0012911Y-040892D01*
G01X0012911Y-040892D02*
G01X0012769Y-040845D01*
G01X0012769Y-040845D02*
G01X0012673Y-040750D01*
G01X0012673Y-040750D02*
G01X0012626Y-040654D01*
G01X0012626Y-040654D02*
G01X0012578Y-040464D01*
G01X0012578Y-040464D02*
G01X0012578Y-040321D01*
G01X0012578Y-040321D02*
G01X0012626Y-040130D01*
G01X0012626Y-040130D02*
G01X0012673Y-040035D01*
G01X0012673Y-040035D02*
G01X0012769Y-039940D01*
G01X0012769Y-039940D02*
G01X0012911Y-039892D01*
G01X0012911Y-039892D02*
G01X0013007Y-039892D01*
G01X0013007Y-039892D02*
G01X0013150Y-039940D01*
G01X0013150Y-039940D02*
G01X0013197Y-039988D01*
G01X0013626Y-040369D02*
G01X0013959Y-040369D01*
G01X0014102Y-040892D02*
G01X0013626Y-040892D01*
G01X0013626Y-040892D02*
G01X0013626Y-039892D01*
G01X0013626Y-039892D02*
G01X0014102Y-039892D01*
G01X0015197Y-039892D02*
G01X0015435Y-040892D01*
G01X0015435Y-040892D02*
G01X0015626Y-040178D01*
G01X0015626Y-040178D02*
G01X0015816Y-040892D01*
G01X0015816Y-040892D02*
G01X0016054Y-039892D01*
G01X0016435Y-040892D02*
G01X0016435Y-039892D01*
G01X0016911Y-040892D02*
G01X0016911Y-039892D01*
G01X0016911Y-039892D02*
G01X0017150Y-039892D01*
G01X0017150Y-039892D02*
G01X0017292Y-039940D01*
G01X0017292Y-039940D02*
G01X0017388Y-040035D01*
G01X0017388Y-040035D02*
G01X0017435Y-040130D01*
G01X0017435Y-040130D02*
G01X0017483Y-040321D01*
G01X0017483Y-040321D02*
G01X0017483Y-040464D01*
G01X0017483Y-040464D02*
G01X0017435Y-040654D01*
G01X0017435Y-040654D02*
G01X0017388Y-040750D01*
G01X0017388Y-040750D02*
G01X0017292Y-040845D01*
G01X0017292Y-040845D02*
G01X0017150Y-040892D01*
G01X0017150Y-040892D02*
G01X0016911Y-040892D01*
G01X0017769Y-039892D02*
G01X0018340Y-039892D01*
G01X0018054Y-040892D02*
G01X0018054Y-039892D01*
G01X0018673Y-040892D02*
G01X0018673Y-039892D01*
G01X0018673Y-040369D02*
G01X0019245Y-040369D01*
G01X0019245Y-040892D02*
G01X0019245Y-039892D01*
G01X0020483Y-040511D02*
G01X0021245Y-040511D01*
G01X0022673Y-039892D02*
G01X0022769Y-039892D01*
G01X0022769Y-039892D02*
G01X0022864Y-039940D01*
G01X0022864Y-039940D02*
G01X0022911Y-039988D01*
G01X0022911Y-039988D02*
G01X0022959Y-040083D01*
G01X0022959Y-040083D02*
G01X0023007Y-040273D01*
G01X0023007Y-040273D02*
G01X0023007Y-040511D01*
G01X0023007Y-040511D02*
G01X0022959Y-040702D01*
G01X0022959Y-040702D02*
G01X0022911Y-040797D01*
G01X0022911Y-040797D02*
G01X0022864Y-040845D01*
G01X0022864Y-040845D02*
G01X0022769Y-040892D01*
G01X0022769Y-040892D02*
G01X0022673Y-040892D01*
G01X0022673Y-040892D02*
G01X0022578Y-040845D01*
G01X0022578Y-040845D02*
G01X0022530Y-040797D01*
G01X0022530Y-040797D02*
G01X0022483Y-040702D01*
G01X0022483Y-040702D02*
G01X0022435Y-040511D01*
G01X0022435Y-040511D02*
G01X0022435Y-040273D01*
G01X0022435Y-040273D02*
G01X0022483Y-040083D01*
G01X0022483Y-040083D02*
G01X0022530Y-039988D01*
G01X0022530Y-039988D02*
G01X0022578Y-039940D01*
G01X0022578Y-039940D02*
G01X0022673Y-039892D01*
G01X0023435Y-040797D02*
G01X0023483Y-040845D01*
G01X0023483Y-040845D02*
G01X0023435Y-040892D01*
G01X0023435Y-040892D02*
G01X0023388Y-040845D01*
G01X0023388Y-040845D02*
G01X0023435Y-040797D01*
G01X0023435Y-040797D02*
G01X0023435Y-040892D01*
G01X0024102Y-039892D02*
G01X0024197Y-039892D01*
G01X0024197Y-039892D02*
G01X0024292Y-039940D01*
G01X0024292Y-039940D02*
G01X0024340Y-039988D01*
G01X0024340Y-039988D02*
G01X0024388Y-040083D01*
G01X0024388Y-040083D02*
G01X0024435Y-040273D01*
G01X0024435Y-040273D02*
G01X0024435Y-040511D01*
G01X0024435Y-040511D02*
G01X0024388Y-040702D01*
G01X0024388Y-040702D02*
G01X0024340Y-040797D01*
G01X0024340Y-040797D02*
G01X0024292Y-040845D01*
G01X0024292Y-040845D02*
G01X0024197Y-040892D01*
G01X0024197Y-040892D02*
G01X0024102Y-040892D01*
G01X0024102Y-040892D02*
G01X0024007Y-040845D01*
G01X0024007Y-040845D02*
G01X0023959Y-040797D01*
G01X0023959Y-040797D02*
G01X0023911Y-040702D01*
G01X0023911Y-040702D02*
G01X0023864Y-040511D01*
G01X0023864Y-040511D02*
G01X0023864Y-040273D01*
G01X0023864Y-040273D02*
G01X0023911Y-040083D01*
G01X0023911Y-040083D02*
G01X0023959Y-039988D01*
G01X0023959Y-039988D02*
G01X0024007Y-039940D01*
G01X0024007Y-039940D02*
G01X0024102Y-039892D01*
G01X0025054Y-039892D02*
G01X0025150Y-039892D01*
G01X0025150Y-039892D02*
G01X0025245Y-039940D01*
G01X0025245Y-039940D02*
G01X0025292Y-039988D01*
G01X0025292Y-039988D02*
G01X0025340Y-040083D01*
G01X0025340Y-040083D02*
G01X0025388Y-040273D01*
G01X0025388Y-040273D02*
G01X0025388Y-040511D01*
G01X0025388Y-040511D02*
G01X0025340Y-040702D01*
G01X0025340Y-040702D02*
G01X0025292Y-040797D01*
G01X0025292Y-040797D02*
G01X0025245Y-040845D01*
G01X0025245Y-040845D02*
G01X0025150Y-040892D01*
G01X0025150Y-040892D02*
G01X0025054Y-040892D01*
G01X0025054Y-040892D02*
G01X0024959Y-040845D01*
G01X0024959Y-040845D02*
G01X0024911Y-040797D01*
G01X0024911Y-040797D02*
G01X0024864Y-040702D01*
G01X0024864Y-040702D02*
G01X0024816Y-040511D01*
G01X0024816Y-040511D02*
G01X0024816Y-040273D01*
G01X0024816Y-040273D02*
G01X0024864Y-040083D01*
G01X0024864Y-040083D02*
G01X0024911Y-039988D01*
G01X0024911Y-039988D02*
G01X0024959Y-039940D01*
G01X0024959Y-039940D02*
G01X0025054Y-039892D01*
G01X0026245Y-039892D02*
G01X0026054Y-039892D01*
G01X0026054Y-039892D02*
G01X0025959Y-039940D01*
G01X0025959Y-039940D02*
G01X0025911Y-039988D01*
G01X0025911Y-039988D02*
G01X0025816Y-040130D01*
G01X0025816Y-040130D02*
G01X0025769Y-040321D01*
G01X0025769Y-040321D02*
G01X0025769Y-040702D01*
G01X0025769Y-040702D02*
G01X0025816Y-040797D01*
G01X0025816Y-040797D02*
G01X0025864Y-040845D01*
G01X0025864Y-040845D02*
G01X0025959Y-040892D01*
G01X0025959Y-040892D02*
G01X0026150Y-040892D01*
G01X0026150Y-040892D02*
G01X0026245Y-040845D01*
G01X0026245Y-040845D02*
G01X0026292Y-040797D01*
G01X0026292Y-040797D02*
G01X0026340Y-040702D01*
G01X0026340Y-040702D02*
G01X0026340Y-040464D01*
G01X0026340Y-040464D02*
G01X0026292Y-040369D01*
G01X0026292Y-040369D02*
G01X0026245Y-040321D01*
G01X0026245Y-040321D02*
G01X0026150Y-040273D01*
G01X0026150Y-040273D02*
G01X0025959Y-040273D01*
G01X0025959Y-040273D02*
G01X0025864Y-040321D01*
G01X0025864Y-040321D02*
G01X0025816Y-040369D01*
G01X0025816Y-040369D02*
G01X0025769Y-040464D01*
G01X0027530Y-040892D02*
G01X0027530Y-039892D01*
G01X0028007Y-040892D02*
G01X0028007Y-039892D01*
G01X0028007Y-039892D02*
G01X0028578Y-040892D01*
G01X0028578Y-040892D02*
G01X0028578Y-039892D01*
G01X0029626Y-040797D02*
G01X0029578Y-040845D01*
G01X0029578Y-040845D02*
G01X0029435Y-040892D01*
G01X0029435Y-040892D02*
G01X0029340Y-040892D01*
G01X0029340Y-040892D02*
G01X0029197Y-040845D01*
G01X0029197Y-040845D02*
G01X0029102Y-040750D01*
G01X0029102Y-040750D02*
G01X0029054Y-040654D01*
G01X0029054Y-040654D02*
G01X0029007Y-040464D01*
G01X0029007Y-040464D02*
G01X0029007Y-040321D01*
G01X0029007Y-040321D02*
G01X0029054Y-040130D01*
G01X0029054Y-040130D02*
G01X0029102Y-040035D01*
G01X0029102Y-040035D02*
G01X0029197Y-039940D01*
G01X0029197Y-039940D02*
G01X0029340Y-039892D01*
G01X0029340Y-039892D02*
G01X0029435Y-039892D01*
G01X0029435Y-039892D02*
G01X0029578Y-039940D01*
G01X0029578Y-039940D02*
G01X0029626Y-039988D01*
G01X0030054Y-040892D02*
G01X0030054Y-039892D01*
G01X0030054Y-040369D02*
G01X0030626Y-040369D01*
G01X0030626Y-040892D02*
G01X0030626Y-039892D01*
G01X0002864Y-042492D02*
G01X0002864Y-041492D01*
G01X0002864Y-041492D02*
G01X0003197Y-042207D01*
G01X0003197Y-042207D02*
G01X0003530Y-041492D01*
G01X0003530Y-041492D02*
G01X0003530Y-042492D01*
G01X0004007Y-042492D02*
G01X0004007Y-041492D01*
G01X0004483Y-042492D02*
G01X0004483Y-041492D01*
G01X0004483Y-041492D02*
G01X0005054Y-042492D01*
G01X0005054Y-042492D02*
G01X0005054Y-041492D01*
G01X0005530Y-042492D02*
G01X0005530Y-041492D01*
G01X0006007Y-042492D02*
G01X0006007Y-041492D01*
G01X0006007Y-041492D02*
G01X0006340Y-042207D01*
G01X0006340Y-042207D02*
G01X0006673Y-041492D01*
G01X0006673Y-041492D02*
G01X0006673Y-042492D01*
G01X0007150Y-041492D02*
G01X0007150Y-042302D01*
G01X0007150Y-042302D02*
G01X0007197Y-042397D01*
G01X0007197Y-042397D02*
G01X0007245Y-042445D01*
G01X0007245Y-042445D02*
G01X0007340Y-042492D01*
G01X0007340Y-042492D02*
G01X0007530Y-042492D01*
G01X0007530Y-042492D02*
G01X0007626Y-042445D01*
G01X0007626Y-042445D02*
G01X0007673Y-042397D01*
G01X0007673Y-042397D02*
G01X0007721Y-042302D01*
G01X0007721Y-042302D02*
G01X0007721Y-041492D01*
G01X0008197Y-042492D02*
G01X0008197Y-041492D01*
G01X0008197Y-041492D02*
G01X0008530Y-042207D01*
G01X0008530Y-042207D02*
G01X0008864Y-041492D01*
G01X0008864Y-041492D02*
G01X0008864Y-042492D01*
G01X0010054Y-042445D02*
G01X0010197Y-042492D01*
G01X0010197Y-042492D02*
G01X0010435Y-042492D01*
G01X0010435Y-042492D02*
G01X0010530Y-042445D01*
G01X0010530Y-042445D02*
G01X0010578Y-042397D01*
G01X0010578Y-042397D02*
G01X0010626Y-042302D01*
G01X0010626Y-042302D02*
G01X0010626Y-042207D01*
G01X0010626Y-042207D02*
G01X0010578Y-042111D01*
G01X0010578Y-042111D02*
G01X0010530Y-042064D01*
G01X0010530Y-042064D02*
G01X0010435Y-042016D01*
G01X0010435Y-042016D02*
G01X0010245Y-041969D01*
G01X0010245Y-041969D02*
G01X0010150Y-041921D01*
G01X0010150Y-041921D02*
G01X0010102Y-041873D01*
G01X0010102Y-041873D02*
G01X0010054Y-041778D01*
G01X0010054Y-041778D02*
G01X0010054Y-041683D01*
G01X0010054Y-041683D02*
G01X0010102Y-041588D01*
G01X0010102Y-041588D02*
G01X0010150Y-041540D01*
G01X0010150Y-041540D02*
G01X0010245Y-041492D01*
G01X0010245Y-041492D02*
G01X0010483Y-041492D01*
G01X0010483Y-041492D02*
G01X0010626Y-041540D01*
G01X0011054Y-042492D02*
G01X0011054Y-041492D01*
G01X0011054Y-041492D02*
G01X0011435Y-041492D01*
G01X0011435Y-041492D02*
G01X0011530Y-041540D01*
G01X0011530Y-041540D02*
G01X0011578Y-041588D01*
G01X0011578Y-041588D02*
G01X0011626Y-041683D01*
G01X0011626Y-041683D02*
G01X0011626Y-041826D01*
G01X0011626Y-041826D02*
G01X0011578Y-041921D01*
G01X0011578Y-041921D02*
G01X0011530Y-041969D01*
G01X0011530Y-041969D02*
G01X0011435Y-042016D01*
G01X0011435Y-042016D02*
G01X0011054Y-042016D01*
G01X0012007Y-042207D02*
G01X0012483Y-042207D01*
G01X0011911Y-042492D02*
G01X0012245Y-041492D01*
G01X0012245Y-041492D02*
G01X0012578Y-042492D01*
G01X0013483Y-042397D02*
G01X0013435Y-042445D01*
G01X0013435Y-042445D02*
G01X0013292Y-042492D01*
G01X0013292Y-042492D02*
G01X0013197Y-042492D01*
G01X0013197Y-042492D02*
G01X0013054Y-042445D01*
G01X0013054Y-042445D02*
G01X0012959Y-042350D01*
G01X0012959Y-042350D02*
G01X0012911Y-042254D01*
G01X0012911Y-042254D02*
G01X0012864Y-042064D01*
G01X0012864Y-042064D02*
G01X0012864Y-041921D01*
G01X0012864Y-041921D02*
G01X0012911Y-041730D01*
G01X0012911Y-041730D02*
G01X0012959Y-041635D01*
G01X0012959Y-041635D02*
G01X0013054Y-041540D01*
G01X0013054Y-041540D02*
G01X0013197Y-041492D01*
G01X0013197Y-041492D02*
G01X0013292Y-041492D01*
G01X0013292Y-041492D02*
G01X0013435Y-041540D01*
G01X0013435Y-041540D02*
G01X0013483Y-041588D01*
G01X0013911Y-041969D02*
G01X0014245Y-041969D01*
G01X0014388Y-042492D02*
G01X0013911Y-042492D01*
G01X0013911Y-042492D02*
G01X0013911Y-041492D01*
G01X0013911Y-041492D02*
G01X0014388Y-041492D01*
G01X0015578Y-042111D02*
G01X0016340Y-042111D01*
G01X0017769Y-041492D02*
G01X0017864Y-041492D01*
G01X0017864Y-041492D02*
G01X0017959Y-041540D01*
G01X0017959Y-041540D02*
G01X0018007Y-041588D01*
G01X0018007Y-041588D02*
G01X0018054Y-041683D01*
G01X0018054Y-041683D02*
G01X0018102Y-041873D01*
G01X0018102Y-041873D02*
G01X0018102Y-042111D01*
G01X0018102Y-042111D02*
G01X0018054Y-042302D01*
G01X0018054Y-042302D02*
G01X0018007Y-042397D01*
G01X0018007Y-042397D02*
G01X0017959Y-042445D01*
G01X0017959Y-042445D02*
G01X0017864Y-042492D01*
G01X0017864Y-042492D02*
G01X0017769Y-042492D01*
G01X0017769Y-042492D02*
G01X0017673Y-042445D01*
G01X0017673Y-042445D02*
G01X0017626Y-042397D01*
G01X0017626Y-042397D02*
G01X0017578Y-042302D01*
G01X0017578Y-042302D02*
G01X0017530Y-042111D01*
G01X0017530Y-042111D02*
G01X0017530Y-041873D01*
G01X0017530Y-041873D02*
G01X0017578Y-041683D01*
G01X0017578Y-041683D02*
G01X0017626Y-041588D01*
G01X0017626Y-041588D02*
G01X0017673Y-041540D01*
G01X0017673Y-041540D02*
G01X0017769Y-041492D01*
G01X0018530Y-042397D02*
G01X0018578Y-042445D01*
G01X0018578Y-042445D02*
G01X0018530Y-042492D01*
G01X0018530Y-042492D02*
G01X0018483Y-042445D01*
G01X0018483Y-042445D02*
G01X0018530Y-042397D01*
G01X0018530Y-042397D02*
G01X0018530Y-042492D01*
G01X0019197Y-041492D02*
G01X0019292Y-041492D01*
G01X0019292Y-041492D02*
G01X0019388Y-041540D01*
G01X0019388Y-041540D02*
G01X0019435Y-041588D01*
G01X0019435Y-041588D02*
G01X0019483Y-041683D01*
G01X0019483Y-041683D02*
G01X0019530Y-041873D01*
G01X0019530Y-041873D02*
G01X0019530Y-042111D01*
G01X0019530Y-042111D02*
G01X0019483Y-042302D01*
G01X0019483Y-042302D02*
G01X0019435Y-042397D01*
G01X0019435Y-042397D02*
G01X0019388Y-042445D01*
G01X0019388Y-042445D02*
G01X0019292Y-042492D01*
G01X0019292Y-042492D02*
G01X0019197Y-042492D01*
G01X0019197Y-042492D02*
G01X0019102Y-042445D01*
G01X0019102Y-042445D02*
G01X0019054Y-042397D01*
G01X0019054Y-042397D02*
G01X0019007Y-042302D01*
G01X0019007Y-042302D02*
G01X0018959Y-042111D01*
G01X0018959Y-042111D02*
G01X0018959Y-041873D01*
G01X0018959Y-041873D02*
G01X0019007Y-041683D01*
G01X0019007Y-041683D02*
G01X0019054Y-041588D01*
G01X0019054Y-041588D02*
G01X0019102Y-041540D01*
G01X0019102Y-041540D02*
G01X0019197Y-041492D01*
G01X0020150Y-041492D02*
G01X0020245Y-041492D01*
G01X0020245Y-041492D02*
G01X0020340Y-041540D01*
G01X0020340Y-041540D02*
G01X0020388Y-041588D01*
G01X0020388Y-041588D02*
G01X0020435Y-041683D01*
G01X0020435Y-041683D02*
G01X0020483Y-041873D01*
G01X0020483Y-041873D02*
G01X0020483Y-042111D01*
G01X0020483Y-042111D02*
G01X0020435Y-042302D01*
G01X0020435Y-042302D02*
G01X0020388Y-042397D01*
G01X0020388Y-042397D02*
G01X0020340Y-042445D01*
G01X0020340Y-042445D02*
G01X0020245Y-042492D01*
G01X0020245Y-042492D02*
G01X0020150Y-042492D01*
G01X0020150Y-042492D02*
G01X0020054Y-042445D01*
G01X0020054Y-042445D02*
G01X0020007Y-042397D01*
G01X0020007Y-042397D02*
G01X0019959Y-042302D01*
G01X0019959Y-042302D02*
G01X0019911Y-042111D01*
G01X0019911Y-042111D02*
G01X0019911Y-041873D01*
G01X0019911Y-041873D02*
G01X0019959Y-041683D01*
G01X0019959Y-041683D02*
G01X0020007Y-041588D01*
G01X0020007Y-041588D02*
G01X0020054Y-041540D01*
G01X0020054Y-041540D02*
G01X0020150Y-041492D01*
G01X0021340Y-041492D02*
G01X0021150Y-041492D01*
G01X0021150Y-041492D02*
G01X0021054Y-041540D01*
G01X0021054Y-041540D02*
G01X0021007Y-041588D01*
G01X0021007Y-041588D02*
G01X0020911Y-041730D01*
G01X0020911Y-041730D02*
G01X0020864Y-041921D01*
G01X0020864Y-041921D02*
G01X0020864Y-042302D01*
G01X0020864Y-042302D02*
G01X0020911Y-042397D01*
G01X0020911Y-042397D02*
G01X0020959Y-042445D01*
G01X0020959Y-042445D02*
G01X0021054Y-042492D01*
G01X0021054Y-042492D02*
G01X0021245Y-042492D01*
G01X0021245Y-042492D02*
G01X0021340Y-042445D01*
G01X0021340Y-042445D02*
G01X0021388Y-042397D01*
G01X0021388Y-042397D02*
G01X0021435Y-042302D01*
G01X0021435Y-042302D02*
G01X0021435Y-042064D01*
G01X0021435Y-042064D02*
G01X0021388Y-041969D01*
G01X0021388Y-041969D02*
G01X0021340Y-041921D01*
G01X0021340Y-041921D02*
G01X0021245Y-041873D01*
G01X0021245Y-041873D02*
G01X0021054Y-041873D01*
G01X0021054Y-041873D02*
G01X0020959Y-041921D01*
G01X0020959Y-041921D02*
G01X0020911Y-041969D01*
G01X0020911Y-041969D02*
G01X0020864Y-042064D01*
G01X0022626Y-042492D02*
G01X0022626Y-041492D01*
G01X0023102Y-042492D02*
G01X0023102Y-041492D01*
G01X0023102Y-041492D02*
G01X0023673Y-042492D01*
G01X0023673Y-042492D02*
G01X0023673Y-041492D01*
G01X0024721Y-042397D02*
G01X0024673Y-042445D01*
G01X0024673Y-042445D02*
G01X0024530Y-042492D01*
G01X0024530Y-042492D02*
G01X0024435Y-042492D01*
G01X0024435Y-042492D02*
G01X0024292Y-042445D01*
G01X0024292Y-042445D02*
G01X0024197Y-042350D01*
G01X0024197Y-042350D02*
G01X0024150Y-042254D01*
G01X0024150Y-042254D02*
G01X0024102Y-042064D01*
G01X0024102Y-042064D02*
G01X0024102Y-041921D01*
G01X0024102Y-041921D02*
G01X0024150Y-041730D01*
G01X0024150Y-041730D02*
G01X0024197Y-041635D01*
G01X0024197Y-041635D02*
G01X0024292Y-041540D01*
G01X0024292Y-041540D02*
G01X0024435Y-041492D01*
G01X0024435Y-041492D02*
G01X0024530Y-041492D01*
G01X0024530Y-041492D02*
G01X0024673Y-041540D01*
G01X0024673Y-041540D02*
G01X0024721Y-041588D01*
G01X0025150Y-042492D02*
G01X0025150Y-041492D01*
G01X0025150Y-041969D02*
G01X0025721Y-041969D01*
G01X0025721Y-042492D02*
G01X0025721Y-041492D01*
G01X0002864Y-044092D02*
G01X0002864Y-043092D01*
G01X0002864Y-043092D02*
G01X0003197Y-043807D01*
G01X0003197Y-043807D02*
G01X0003530Y-043092D01*
G01X0003530Y-043092D02*
G01X0003530Y-044092D01*
G01X0004007Y-044092D02*
G01X0004007Y-043092D01*
G01X0004483Y-044092D02*
G01X0004483Y-043092D01*
G01X0004483Y-043092D02*
G01X0005054Y-044092D01*
G01X0005054Y-044092D02*
G01X0005054Y-043092D01*
G01X0005530Y-044092D02*
G01X0005530Y-043092D01*
G01X0006007Y-044092D02*
G01X0006007Y-043092D01*
G01X0006007Y-043092D02*
G01X0006340Y-043807D01*
G01X0006340Y-043807D02*
G01X0006673Y-043092D01*
G01X0006673Y-043092D02*
G01X0006673Y-044092D01*
G01X0007150Y-043092D02*
G01X0007150Y-043902D01*
G01X0007150Y-043902D02*
G01X0007197Y-043997D01*
G01X0007197Y-043997D02*
G01X0007245Y-044045D01*
G01X0007245Y-044045D02*
G01X0007340Y-044092D01*
G01X0007340Y-044092D02*
G01X0007530Y-044092D01*
G01X0007530Y-044092D02*
G01X0007626Y-044045D01*
G01X0007626Y-044045D02*
G01X0007673Y-043997D01*
G01X0007673Y-043997D02*
G01X0007721Y-043902D01*
G01X0007721Y-043902D02*
G01X0007721Y-043092D01*
G01X0008197Y-044092D02*
G01X0008197Y-043092D01*
G01X0008197Y-043092D02*
G01X0008530Y-043807D01*
G01X0008530Y-043807D02*
G01X0008864Y-043092D01*
G01X0008864Y-043092D02*
G01X0008864Y-044092D01*
G01X0010102Y-044092D02*
G01X0010102Y-043092D01*
G01X0010102Y-043569D02*
G01X0010673Y-043569D01*
G01X0010673Y-044092D02*
G01X0010673Y-043092D01*
G01X0011340Y-043092D02*
G01X0011530Y-043092D01*
G01X0011530Y-043092D02*
G01X0011626Y-043140D01*
G01X0011626Y-043140D02*
G01X0011721Y-043235D01*
G01X0011721Y-043235D02*
G01X0011769Y-043426D01*
G01X0011769Y-043426D02*
G01X0011769Y-043759D01*
G01X0011769Y-043759D02*
G01X0011721Y-043950D01*
G01X0011721Y-043950D02*
G01X0011626Y-044045D01*
G01X0011626Y-044045D02*
G01X0011530Y-044092D01*
G01X0011530Y-044092D02*
G01X0011340Y-044092D01*
G01X0011340Y-044092D02*
G01X0011245Y-044045D01*
G01X0011245Y-044045D02*
G01X0011150Y-043950D01*
G01X0011150Y-043950D02*
G01X0011102Y-043759D01*
G01X0011102Y-043759D02*
G01X0011102Y-043426D01*
G01X0011102Y-043426D02*
G01X0011150Y-043235D01*
G01X0011150Y-043235D02*
G01X0011245Y-043140D01*
G01X0011245Y-043140D02*
G01X0011340Y-043092D01*
G01X0012673Y-044092D02*
G01X0012197Y-044092D01*
G01X0012197Y-044092D02*
G01X0012197Y-043092D01*
G01X0013007Y-043569D02*
G01X0013340Y-043569D01*
G01X0013483Y-044092D02*
G01X0013007Y-044092D01*
G01X0013007Y-044092D02*
G01X0013007Y-043092D01*
G01X0013007Y-043092D02*
G01X0013483Y-043092D01*
G01X0014673Y-044092D02*
G01X0014673Y-043092D01*
G01X0014673Y-043092D02*
G01X0014911Y-043092D01*
G01X0014911Y-043092D02*
G01X0015054Y-043140D01*
G01X0015054Y-043140D02*
G01X0015150Y-043235D01*
G01X0015150Y-043235D02*
G01X0015197Y-043330D01*
G01X0015197Y-043330D02*
G01X0015245Y-043521D01*
G01X0015245Y-043521D02*
G01X0015245Y-043664D01*
G01X0015245Y-043664D02*
G01X0015197Y-043854D01*
G01X0015197Y-043854D02*
G01X0015150Y-043950D01*
G01X0015150Y-043950D02*
G01X0015054Y-044045D01*
G01X0015054Y-044045D02*
G01X0014911Y-044092D01*
G01X0014911Y-044092D02*
G01X0014673Y-044092D01*
G01X0015673Y-044092D02*
G01X0015673Y-043092D01*
G01X0016102Y-043807D02*
G01X0016578Y-043807D01*
G01X0016007Y-044092D02*
G01X0016340Y-043092D01*
G01X0016340Y-043092D02*
G01X0016673Y-044092D01*
G01X0017769Y-043711D02*
G01X0018530Y-043711D01*
G01X0019959Y-043092D02*
G01X0020054Y-043092D01*
G01X0020054Y-043092D02*
G01X0020150Y-043140D01*
G01X0020150Y-043140D02*
G01X0020197Y-043188D01*
G01X0020197Y-043188D02*
G01X0020245Y-043283D01*
G01X0020245Y-043283D02*
G01X0020292Y-043473D01*
G01X0020292Y-043473D02*
G01X0020292Y-043711D01*
G01X0020292Y-043711D02*
G01X0020245Y-043902D01*
G01X0020245Y-043902D02*
G01X0020197Y-043997D01*
G01X0020197Y-043997D02*
G01X0020150Y-044045D01*
G01X0020150Y-044045D02*
G01X0020054Y-044092D01*
G01X0020054Y-044092D02*
G01X0019959Y-044092D01*
G01X0019959Y-044092D02*
G01X0019864Y-044045D01*
G01X0019864Y-044045D02*
G01X0019816Y-043997D01*
G01X0019816Y-043997D02*
G01X0019769Y-043902D01*
G01X0019769Y-043902D02*
G01X0019721Y-043711D01*
G01X0019721Y-043711D02*
G01X0019721Y-043473D01*
G01X0019721Y-043473D02*
G01X0019769Y-043283D01*
G01X0019769Y-043283D02*
G01X0019816Y-043188D01*
G01X0019816Y-043188D02*
G01X0019864Y-043140D01*
G01X0019864Y-043140D02*
G01X0019959Y-043092D01*
G01X0020721Y-043997D02*
G01X0020769Y-044045D01*
G01X0020769Y-044045D02*
G01X0020721Y-044092D01*
G01X0020721Y-044092D02*
G01X0020673Y-044045D01*
G01X0020673Y-044045D02*
G01X0020721Y-043997D01*
G01X0020721Y-043997D02*
G01X0020721Y-044092D01*
G01X0021388Y-043092D02*
G01X0021483Y-043092D01*
G01X0021483Y-043092D02*
G01X0021578Y-043140D01*
G01X0021578Y-043140D02*
G01X0021626Y-043188D01*
G01X0021626Y-043188D02*
G01X0021673Y-043283D01*
G01X0021673Y-043283D02*
G01X0021721Y-043473D01*
G01X0021721Y-043473D02*
G01X0021721Y-043711D01*
G01X0021721Y-043711D02*
G01X0021673Y-043902D01*
G01X0021673Y-043902D02*
G01X0021626Y-043997D01*
G01X0021626Y-043997D02*
G01X0021578Y-044045D01*
G01X0021578Y-044045D02*
G01X0021483Y-044092D01*
G01X0021483Y-044092D02*
G01X0021388Y-044092D01*
G01X0021388Y-044092D02*
G01X0021292Y-044045D01*
G01X0021292Y-044045D02*
G01X0021245Y-043997D01*
G01X0021245Y-043997D02*
G01X0021197Y-043902D01*
G01X0021197Y-043902D02*
G01X0021150Y-043711D01*
G01X0021150Y-043711D02*
G01X0021150Y-043473D01*
G01X0021150Y-043473D02*
G01X0021197Y-043283D01*
G01X0021197Y-043283D02*
G01X0021245Y-043188D01*
G01X0021245Y-043188D02*
G01X0021292Y-043140D01*
G01X0021292Y-043140D02*
G01X0021388Y-043092D01*
G01X0022673Y-044092D02*
G01X0022102Y-044092D01*
G01X0022388Y-044092D02*
G01X0022388Y-043092D01*
G01X0022388Y-043092D02*
G01X0022292Y-043235D01*
G01X0022292Y-043235D02*
G01X0022197Y-043330D01*
G01X0022197Y-043330D02*
G01X0022102Y-043378D01*
G01X0023007Y-043092D02*
G01X0023626Y-043092D01*
G01X0023626Y-043092D02*
G01X0023292Y-043473D01*
G01X0023292Y-043473D02*
G01X0023435Y-043473D01*
G01X0023435Y-043473D02*
G01X0023530Y-043521D01*
G01X0023530Y-043521D02*
G01X0023578Y-043569D01*
G01X0023578Y-043569D02*
G01X0023626Y-043664D01*
G01X0023626Y-043664D02*
G01X0023626Y-043902D01*
G01X0023626Y-043902D02*
G01X0023578Y-043997D01*
G01X0023578Y-043997D02*
G01X0023530Y-044045D01*
G01X0023530Y-044045D02*
G01X0023435Y-044092D01*
G01X0023435Y-044092D02*
G01X0023150Y-044092D01*
G01X0023150Y-044092D02*
G01X0023054Y-044045D01*
G01X0023054Y-044045D02*
G01X0023007Y-043997D01*
G01X0024816Y-044092D02*
G01X0024816Y-043092D01*
G01X0025292Y-044092D02*
G01X0025292Y-043092D01*
G01X0025292Y-043092D02*
G01X0025864Y-044092D01*
G01X0025864Y-044092D02*
G01X0025864Y-043092D01*
G01X0026911Y-043997D02*
G01X0026864Y-044045D01*
G01X0026864Y-044045D02*
G01X0026721Y-044092D01*
G01X0026721Y-044092D02*
G01X0026626Y-044092D01*
G01X0026626Y-044092D02*
G01X0026483Y-044045D01*
G01X0026483Y-044045D02*
G01X0026388Y-043950D01*
G01X0026388Y-043950D02*
G01X0026340Y-043854D01*
G01X0026340Y-043854D02*
G01X0026292Y-043664D01*
G01X0026292Y-043664D02*
G01X0026292Y-043521D01*
G01X0026292Y-043521D02*
G01X0026340Y-043330D01*
G01X0026340Y-043330D02*
G01X0026388Y-043235D01*
G01X0026388Y-043235D02*
G01X0026483Y-043140D01*
G01X0026483Y-043140D02*
G01X0026626Y-043092D01*
G01X0026626Y-043092D02*
G01X0026721Y-043092D01*
G01X0026721Y-043092D02*
G01X0026864Y-043140D01*
G01X0026864Y-043140D02*
G01X0026911Y-043188D01*
G01X0027340Y-044092D02*
G01X0027340Y-043092D01*
G01X0027340Y-043569D02*
G01X0027911Y-043569D01*
G01X0027911Y-044092D02*
G01X0027911Y-043092D01*
M02*
