G04 This is an RS-274x file exported by *
G04 gerbv version 2.6.0 *
G04 More information is available about gerbv at *
G04 http://gerbv.gpleda.org/ *
G04 --End of header info--*
%MOIN*%
%FSLAX34Y34*%
%IPPOS*%
G04 --Define apertures--*
%ADD10C,0.0138*%
%ADD11C,0.0018*%
%ADD12C,0.0016*%
%ADD13C,0.0059*%
G04 --Start main section--*
G54D11*
G01X0008504Y-011553D02*
G01X0008504Y-013916D01*
G01X0009291Y-011553D02*
G01X0008504Y-011553D01*
G01X0009291Y-013916D02*
G01X0009291Y-011553D01*
G01X0008504Y-013916D02*
G01X0009291Y-013916D01*
G54D12*
G01X0010512Y-011199D02*
G01X0007283Y-011199D01*
G01X0010447Y-014270D02*
G75*
G03X0010472Y-011199I-000014J0001536D01*
G01X0007323Y-011199D02*
G75*
G03X0007362Y-014270I0000000J-001536D01*
G01X0010472Y-014270D02*
G01X0007362Y-014270D01*
G54D13*
G01X0008748Y-011818D02*
G01X0009048Y-011818D01*
G01X0008748Y-013668D02*
G01X0009048Y-013668D01*
G01X0008898Y-013818D02*
G01X0008898Y-013518D01*
G01X0009076Y-013175D02*
G01X0009076Y-013363D01*
G01X0009076Y-013363D02*
G01X0008682Y-013363D01*
G01X0008869Y-013044D02*
G01X0008869Y-012913D01*
G01X0009076Y-012856D02*
G01X0009076Y-013044D01*
G01X0009076Y-013044D02*
G01X0008682Y-013044D01*
G01X0008682Y-013044D02*
G01X0008682Y-012856D01*
G01X0009076Y-012688D02*
G01X0008682Y-012688D01*
G01X0008682Y-012688D02*
G01X0008682Y-012594D01*
G01X0008682Y-012594D02*
G01X0008701Y-012538D01*
G01X0008701Y-012538D02*
G01X0008738Y-012500D01*
G01X0008738Y-012500D02*
G01X0008776Y-012481D01*
G01X0008776Y-012481D02*
G01X0008851Y-012463D01*
G01X0008851Y-012463D02*
G01X0008907Y-012463D01*
G01X0008907Y-012463D02*
G01X0008982Y-012481D01*
G01X0008982Y-012481D02*
G01X0009019Y-012500D01*
G01X0009019Y-012500D02*
G01X0009057Y-012538D01*
G01X0009057Y-012538D02*
G01X0009076Y-012594D01*
G01X0009076Y-012594D02*
G01X0009076Y-012688D01*
G01X0009076Y-012088D02*
G01X0009076Y-012313D01*
G01X0009076Y-012200D02*
G01X0008682Y-012200D01*
G01X0008682Y-012200D02*
G01X0008738Y-012238D01*
G01X0008738Y-012238D02*
G01X0008776Y-012275D01*
G01X0008776Y-012275D02*
G01X0008794Y-012313D01*
G01X0000000Y0000000D02*
G54D12*
G01X0010512Y-011199D02*
G01X0007283Y-011199D01*
G01X0010447Y-014270D02*
G75*
G03X0010472Y-011199I-000014J0001536D01*
G01X0007323Y-011199D02*
G75*
G03X0007362Y-014270I0000000J-001536D01*
G01X0010472Y-014270D02*
G01X0007362Y-014270D01*
M02*
