%TF.GenerationSoftware,KiCad,Pcbnew,4.0.5-e0-6337~49~ubuntu16.04.1*%
%TF.CreationDate,2017-05-27T17:28:00-07:00*%
%TF.ProjectId,3x3-CR2032-Coin-Cell,3378332D4352323033322D436F696E2D,v1.2*%
%TF.FileFunction,Legend,Top*%
%FSLAX46Y46*%
G04 Gerber Fmt 4.6, Leading zero omitted, Abs format (unit mm)*
G04 Created by KiCad (PCBNEW 4.0.5-e0-6337~49~ubuntu16.04.1) date Sat May 27 17:28:00 2017*
%MOMM*%
%LPD*%
G01*
G04 APERTURE LIST*
%ADD10C,0.350000*%
%ADD11C,8.000000*%
%ADD12C,0.150000*%
%ADD13C,0.600000*%
%ADD14R,2.752400X5.712400*%
%ADD15R,9.152400X13.952400*%
G04 APERTURE END LIST*
D10*
D11*
X29287200Y-71374000D02*
X29287200Y-55374000D01*
X21287200Y-71374000D02*
X29287200Y-71374000D01*
X21387200Y-55374000D02*
X29387200Y-55374000D01*
D12*
X34615771Y-67302571D02*
X34758628Y-67350190D01*
X34806247Y-67397810D01*
X34853866Y-67493048D01*
X34853866Y-67635905D01*
X34806247Y-67731143D01*
X34758628Y-67778762D01*
X34663390Y-67826381D01*
X34282437Y-67826381D01*
X34282437Y-66826381D01*
X34615771Y-66826381D01*
X34711009Y-66874000D01*
X34758628Y-66921619D01*
X34806247Y-67016857D01*
X34806247Y-67112095D01*
X34758628Y-67207333D01*
X34711009Y-67254952D01*
X34615771Y-67302571D01*
X34282437Y-67302571D01*
X35711009Y-67826381D02*
X35711009Y-67302571D01*
X35663390Y-67207333D01*
X35568152Y-67159714D01*
X35377675Y-67159714D01*
X35282437Y-67207333D01*
X35711009Y-67778762D02*
X35615771Y-67826381D01*
X35377675Y-67826381D01*
X35282437Y-67778762D01*
X35234818Y-67683524D01*
X35234818Y-67588286D01*
X35282437Y-67493048D01*
X35377675Y-67445429D01*
X35615771Y-67445429D01*
X35711009Y-67397810D01*
X36044342Y-67159714D02*
X36425294Y-67159714D01*
X36187199Y-66826381D02*
X36187199Y-67683524D01*
X36234818Y-67778762D01*
X36330056Y-67826381D01*
X36425294Y-67826381D01*
X36615771Y-67159714D02*
X36996723Y-67159714D01*
X36758628Y-66826381D02*
X36758628Y-67683524D01*
X36806247Y-67778762D01*
X36901485Y-67826381D01*
X36996723Y-67826381D01*
X37711010Y-67778762D02*
X37615772Y-67826381D01*
X37425295Y-67826381D01*
X37330057Y-67778762D01*
X37282438Y-67683524D01*
X37282438Y-67302571D01*
X37330057Y-67207333D01*
X37425295Y-67159714D01*
X37615772Y-67159714D01*
X37711010Y-67207333D01*
X37758629Y-67302571D01*
X37758629Y-67397810D01*
X37282438Y-67493048D01*
X38187200Y-67826381D02*
X38187200Y-67159714D01*
X38187200Y-67350190D02*
X38234819Y-67254952D01*
X38282438Y-67207333D01*
X38377676Y-67159714D01*
X38472915Y-67159714D01*
X38711010Y-67159714D02*
X38949105Y-67826381D01*
X39187201Y-67159714D02*
X38949105Y-67826381D01*
X38853867Y-68064476D01*
X38806248Y-68112095D01*
X38711010Y-68159714D01*
X39906248Y-59245429D02*
X40668153Y-59245429D01*
X40287201Y-59626381D02*
X40287201Y-58864476D01*
X39906248Y-68045429D02*
X40668153Y-68045429D01*
X40287201Y-68426381D02*
X40287201Y-67664476D01*
%LPC*%
D13*
X21998024Y-68767642D02*
G75*
G03X23763700Y-72453500I-710824J-2606358D01*
G01*
X23924562Y-54831816D02*
G75*
G03X21922200Y-57975500I-2640220J-527860D01*
G01*
X34715338Y-71914184D02*
G75*
G03X36717700Y-68770500I2640220J527860D01*
G01*
X36578376Y-57978358D02*
G75*
G03X34812700Y-54292500I710824J2606358D01*
G01*
D14*
X39487200Y-63374000D03*
D15*
X29283200Y-63628000D03*
D14*
X19087200Y-63374000D03*
M02*
