G04 This is an RS-274x file exported by *
G04 gerbv version 2.6.0 *
G04 More information is available about gerbv at *
G04 http://gerbv.gpleda.org/ *
G04 --End of header info--*
%MOIN*%
%FSLAX34Y34*%
%IPPOS*%
G04 --Define apertures--*
%ADD10C,0.0060*%
%ADD11C,0.0050*%
%ADD12C,0.0020*%
%ADD13C,0.0059*%
G04 --Start main section--*
G54D10*
G01X0014916Y-012258D02*
G01X0010258Y-012154D01*
G01X0014824Y-011341D02*
G01X0014690Y-011341D01*
G01X0014690Y-011551D02*
G01X0014690Y-011151D01*
G01X0014690Y-011151D02*
G01X0014881Y-011151D01*
G01X0015224Y-011551D02*
G01X0015033Y-011551D01*
G01X0015033Y-011551D02*
G01X0015033Y-011151D01*
G01X0015433Y-011151D02*
G01X0015509Y-011151D01*
G01X0015509Y-011151D02*
G01X0015547Y-011170D01*
G01X0015547Y-011170D02*
G01X0015586Y-011208D01*
G01X0015586Y-011208D02*
G01X0015605Y-011284D01*
G01X0015605Y-011284D02*
G01X0015605Y-011418D01*
G01X0015605Y-011418D02*
G01X0015586Y-011494D01*
G01X0015586Y-011494D02*
G01X0015547Y-011532D01*
G01X0015547Y-011532D02*
G01X0015509Y-011551D01*
G01X0015509Y-011551D02*
G01X0015433Y-011551D01*
G01X0015433Y-011551D02*
G01X0015395Y-011532D01*
G01X0015395Y-011532D02*
G01X0015357Y-011494D01*
G01X0015357Y-011494D02*
G01X0015338Y-011418D01*
G01X0015338Y-011418D02*
G01X0015338Y-011284D01*
G01X0015338Y-011284D02*
G01X0015357Y-011208D01*
G01X0015357Y-011208D02*
G01X0015395Y-011170D01*
G01X0015395Y-011170D02*
G01X0015433Y-011151D01*
G01X0015852Y-011151D02*
G01X0015928Y-011151D01*
G01X0015928Y-011151D02*
G01X0015966Y-011170D01*
G01X0015966Y-011170D02*
G01X0016005Y-011208D01*
G01X0016005Y-011208D02*
G01X0016024Y-011284D01*
G01X0016024Y-011284D02*
G01X0016024Y-011418D01*
G01X0016024Y-011418D02*
G01X0016005Y-011494D01*
G01X0016005Y-011494D02*
G01X0015966Y-011532D01*
G01X0015966Y-011532D02*
G01X0015928Y-011551D01*
G01X0015928Y-011551D02*
G01X0015852Y-011551D01*
G01X0015852Y-011551D02*
G01X0015814Y-011532D01*
G01X0015814Y-011532D02*
G01X0015776Y-011494D01*
G01X0015776Y-011494D02*
G01X0015757Y-011418D01*
G01X0015757Y-011418D02*
G01X0015757Y-011284D01*
G01X0015757Y-011284D02*
G01X0015776Y-011208D01*
G01X0015776Y-011208D02*
G01X0015814Y-011170D01*
G01X0015814Y-011170D02*
G01X0015852Y-011151D01*
G01X0016195Y-011551D02*
G01X0016195Y-011151D01*
G01X0016195Y-011151D02*
G01X0016290Y-011151D01*
G01X0016290Y-011151D02*
G01X0016347Y-011170D01*
G01X0016347Y-011170D02*
G01X0016386Y-011208D01*
G01X0016386Y-011208D02*
G01X0016405Y-011246D01*
G01X0016405Y-011246D02*
G01X0016424Y-011322D01*
G01X0016424Y-011322D02*
G01X0016424Y-011380D01*
G01X0016424Y-011380D02*
G01X0016405Y-011456D01*
G01X0016405Y-011456D02*
G01X0016386Y-011494D01*
G01X0016386Y-011494D02*
G01X0016347Y-011532D01*
G01X0016347Y-011532D02*
G01X0016290Y-011551D01*
G01X0016290Y-011551D02*
G01X0016195Y-011551D01*
G01X0017033Y-011341D02*
G01X0016900Y-011341D01*
G01X0016900Y-011551D02*
G01X0016900Y-011151D01*
G01X0016900Y-011151D02*
G01X0017090Y-011151D01*
G01X0017243Y-011551D02*
G01X0017243Y-011151D01*
G01X0017624Y-011551D02*
G01X0017433Y-011551D01*
G01X0017433Y-011551D02*
G01X0017433Y-011151D01*
G01X0017947Y-011551D02*
G01X0017757Y-011551D01*
G01X0017757Y-011551D02*
G01X0017757Y-011151D01*
G01X0018328Y-011151D02*
G01X0018557Y-011151D01*
G01X0018443Y-011551D02*
G01X0018443Y-011151D01*
G01X0018690Y-011551D02*
G01X0018690Y-011151D01*
G01X0018690Y-011341D02*
G01X0018919Y-011341D01*
G01X0018919Y-011551D02*
G01X0018919Y-011151D01*
G01X0019109Y-011341D02*
G01X0019243Y-011341D01*
G01X0019300Y-011551D02*
G01X0019109Y-011551D01*
G01X0019109Y-011551D02*
G01X0019109Y-011151D01*
G01X0019109Y-011151D02*
G01X0019300Y-011151D01*
G01X0020005Y-011513D02*
G01X0019986Y-011532D01*
G01X0019986Y-011532D02*
G01X0019928Y-011551D01*
G01X0019928Y-011551D02*
G01X0019890Y-011551D01*
G01X0019890Y-011551D02*
G01X0019833Y-011532D01*
G01X0019833Y-011532D02*
G01X0019795Y-011494D01*
G01X0019795Y-011494D02*
G01X0019776Y-011456D01*
G01X0019776Y-011456D02*
G01X0019757Y-011380D01*
G01X0019757Y-011380D02*
G01X0019757Y-011322D01*
G01X0019757Y-011322D02*
G01X0019776Y-011246D01*
G01X0019776Y-011246D02*
G01X0019795Y-011208D01*
G01X0019795Y-011208D02*
G01X0019833Y-011170D01*
G01X0019833Y-011170D02*
G01X0019890Y-011151D01*
G01X0019890Y-011151D02*
G01X0019928Y-011151D01*
G01X0019928Y-011151D02*
G01X0019986Y-011170D01*
G01X0019986Y-011170D02*
G01X0020005Y-011189D01*
G01X0020176Y-011341D02*
G01X0020309Y-011341D01*
G01X0020366Y-011551D02*
G01X0020176Y-011551D01*
G01X0020176Y-011551D02*
G01X0020176Y-011151D01*
G01X0020176Y-011151D02*
G01X0020366Y-011151D01*
G01X0020538Y-011551D02*
G01X0020538Y-011151D01*
G01X0020538Y-011151D02*
G01X0020766Y-011551D01*
G01X0020766Y-011551D02*
G01X0020766Y-011151D01*
G01X0020900Y-011151D02*
G01X0021128Y-011151D01*
G01X0021014Y-011551D02*
G01X0021014Y-011151D01*
G01X0021490Y-011551D02*
G01X0021357Y-011360D01*
G01X0021262Y-011551D02*
G01X0021262Y-011151D01*
G01X0021262Y-011151D02*
G01X0021414Y-011151D01*
G01X0021414Y-011151D02*
G01X0021452Y-011170D01*
G01X0021452Y-011170D02*
G01X0021471Y-011189D01*
G01X0021471Y-011189D02*
G01X0021490Y-011227D01*
G01X0021490Y-011227D02*
G01X0021490Y-011284D01*
G01X0021490Y-011284D02*
G01X0021471Y-011322D01*
G01X0021471Y-011322D02*
G01X0021452Y-011341D01*
G01X0021452Y-011341D02*
G01X0021414Y-011360D01*
G01X0021414Y-011360D02*
G01X0021262Y-011360D01*
G01X0021643Y-011437D02*
G01X0021833Y-011437D01*
G01X0021605Y-011551D02*
G01X0021738Y-011151D01*
G01X0021738Y-011151D02*
G01X0021871Y-011551D01*
G01X0022195Y-011551D02*
G01X0022005Y-011551D01*
G01X0022005Y-011551D02*
G01X0022005Y-011151D01*
G01X0022862Y-011551D02*
G01X0022728Y-011360D01*
G01X0022633Y-011551D02*
G01X0022633Y-011151D01*
G01X0022633Y-011151D02*
G01X0022786Y-011151D01*
G01X0022786Y-011151D02*
G01X0022824Y-011170D01*
G01X0022824Y-011170D02*
G01X0022843Y-011189D01*
G01X0022843Y-011189D02*
G01X0022862Y-011227D01*
G01X0022862Y-011227D02*
G01X0022862Y-011284D01*
G01X0022862Y-011284D02*
G01X0022843Y-011322D01*
G01X0022843Y-011322D02*
G01X0022824Y-011341D01*
G01X0022824Y-011341D02*
G01X0022786Y-011360D01*
G01X0022786Y-011360D02*
G01X0022633Y-011360D01*
G01X0023033Y-011341D02*
G01X0023166Y-011341D01*
G01X0023224Y-011551D02*
G01X0023033Y-011551D01*
G01X0023033Y-011551D02*
G01X0023033Y-011151D01*
G01X0023033Y-011151D02*
G01X0023224Y-011151D01*
G01X0023624Y-011513D02*
G01X0023605Y-011532D01*
G01X0023605Y-011532D02*
G01X0023547Y-011551D01*
G01X0023547Y-011551D02*
G01X0023509Y-011551D01*
G01X0023509Y-011551D02*
G01X0023452Y-011532D01*
G01X0023452Y-011532D02*
G01X0023414Y-011494D01*
G01X0023414Y-011494D02*
G01X0023395Y-011456D01*
G01X0023395Y-011456D02*
G01X0023376Y-011380D01*
G01X0023376Y-011380D02*
G01X0023376Y-011322D01*
G01X0023376Y-011322D02*
G01X0023395Y-011246D01*
G01X0023395Y-011246D02*
G01X0023414Y-011208D01*
G01X0023414Y-011208D02*
G01X0023452Y-011170D01*
G01X0023452Y-011170D02*
G01X0023509Y-011151D01*
G01X0023509Y-011151D02*
G01X0023547Y-011151D01*
G01X0023547Y-011151D02*
G01X0023605Y-011170D01*
G01X0023605Y-011170D02*
G01X0023624Y-011189D01*
G01X0023738Y-011151D02*
G01X0023966Y-011151D01*
G01X0023852Y-011551D02*
G01X0023852Y-011151D01*
G01X0024081Y-011437D02*
G01X0024271Y-011437D01*
G01X0024043Y-011551D02*
G01X0024176Y-011151D01*
G01X0024176Y-011151D02*
G01X0024309Y-011551D01*
G01X0024443Y-011551D02*
G01X0024443Y-011151D01*
G01X0024443Y-011151D02*
G01X0024671Y-011551D01*
G01X0024671Y-011551D02*
G01X0024671Y-011151D01*
G01X0025071Y-011170D02*
G01X0025033Y-011151D01*
G01X0025033Y-011151D02*
G01X0024976Y-011151D01*
G01X0024976Y-011151D02*
G01X0024919Y-011170D01*
G01X0024919Y-011170D02*
G01X0024881Y-011208D01*
G01X0024881Y-011208D02*
G01X0024862Y-011246D01*
G01X0024862Y-011246D02*
G01X0024843Y-011322D01*
G01X0024843Y-011322D02*
G01X0024843Y-011380D01*
G01X0024843Y-011380D02*
G01X0024862Y-011456D01*
G01X0024862Y-011456D02*
G01X0024881Y-011494D01*
G01X0024881Y-011494D02*
G01X0024919Y-011532D01*
G01X0024919Y-011532D02*
G01X0024976Y-011551D01*
G01X0024976Y-011551D02*
G01X0025014Y-011551D01*
G01X0025014Y-011551D02*
G01X0025071Y-011532D01*
G01X0025071Y-011532D02*
G01X0025090Y-011513D01*
G01X0025090Y-011513D02*
G01X0025090Y-011380D01*
G01X0025090Y-011380D02*
G01X0025014Y-011380D01*
G01X0025262Y-011151D02*
G01X0025262Y-011475D01*
G01X0025262Y-011475D02*
G01X0025281Y-011513D01*
G01X0025281Y-011513D02*
G01X0025300Y-011532D01*
G01X0025300Y-011532D02*
G01X0025338Y-011551D01*
G01X0025338Y-011551D02*
G01X0025414Y-011551D01*
G01X0025414Y-011551D02*
G01X0025452Y-011532D01*
G01X0025452Y-011532D02*
G01X0025471Y-011513D01*
G01X0025471Y-011513D02*
G01X0025490Y-011475D01*
G01X0025490Y-011475D02*
G01X0025490Y-011151D01*
G01X0025871Y-011551D02*
G01X0025681Y-011551D01*
G01X0025681Y-011551D02*
G01X0025681Y-011151D01*
G01X0025986Y-011437D02*
G01X0026176Y-011437D01*
G01X0025947Y-011551D02*
G01X0026081Y-011151D01*
G01X0026081Y-011151D02*
G01X0026214Y-011551D01*
G01X0026576Y-011551D02*
G01X0026443Y-011360D01*
G01X0026347Y-011551D02*
G01X0026347Y-011151D01*
G01X0026347Y-011151D02*
G01X0026500Y-011151D01*
G01X0026500Y-011151D02*
G01X0026538Y-011170D01*
G01X0026538Y-011170D02*
G01X0026557Y-011189D01*
G01X0026557Y-011189D02*
G01X0026576Y-011227D01*
G01X0026576Y-011227D02*
G01X0026576Y-011284D01*
G01X0026576Y-011284D02*
G01X0026557Y-011322D01*
G01X0026557Y-011322D02*
G01X0026538Y-011341D01*
G01X0026538Y-011341D02*
G01X0026500Y-011360D01*
G01X0026500Y-011360D02*
G01X0026347Y-011360D01*
G01X0015500Y-011830D02*
G01X0015462Y-011811D01*
G01X0015462Y-011811D02*
G01X0015405Y-011811D01*
G01X0015405Y-011811D02*
G01X0015347Y-011830D01*
G01X0015347Y-011830D02*
G01X0015309Y-011868D01*
G01X0015309Y-011868D02*
G01X0015290Y-011906D01*
G01X0015290Y-011906D02*
G01X0015271Y-011982D01*
G01X0015271Y-011982D02*
G01X0015271Y-012040D01*
G01X0015271Y-012040D02*
G01X0015290Y-012116D01*
G01X0015290Y-012116D02*
G01X0015309Y-012154D01*
G01X0015309Y-012154D02*
G01X0015347Y-012192D01*
G01X0015347Y-012192D02*
G01X0015405Y-012211D01*
G01X0015405Y-012211D02*
G01X0015443Y-012211D01*
G01X0015443Y-012211D02*
G01X0015500Y-012192D01*
G01X0015500Y-012192D02*
G01X0015519Y-012173D01*
G01X0015519Y-012173D02*
G01X0015519Y-012040D01*
G01X0015519Y-012040D02*
G01X0015443Y-012040D01*
G01X0015919Y-012211D02*
G01X0015786Y-012020D01*
G01X0015690Y-012211D02*
G01X0015690Y-011811D01*
G01X0015690Y-011811D02*
G01X0015843Y-011811D01*
G01X0015843Y-011811D02*
G01X0015881Y-011830D01*
G01X0015881Y-011830D02*
G01X0015900Y-011849D01*
G01X0015900Y-011849D02*
G01X0015919Y-011887D01*
G01X0015919Y-011887D02*
G01X0015919Y-011944D01*
G01X0015919Y-011944D02*
G01X0015900Y-011982D01*
G01X0015900Y-011982D02*
G01X0015881Y-012001D01*
G01X0015881Y-012001D02*
G01X0015843Y-012020D01*
G01X0015843Y-012020D02*
G01X0015690Y-012020D01*
G01X0016166Y-011811D02*
G01X0016243Y-011811D01*
G01X0016243Y-011811D02*
G01X0016281Y-011830D01*
G01X0016281Y-011830D02*
G01X0016319Y-011868D01*
G01X0016319Y-011868D02*
G01X0016338Y-011944D01*
G01X0016338Y-011944D02*
G01X0016338Y-012078D01*
G01X0016338Y-012078D02*
G01X0016319Y-012154D01*
G01X0016319Y-012154D02*
G01X0016281Y-012192D01*
G01X0016281Y-012192D02*
G01X0016243Y-012211D01*
G01X0016243Y-012211D02*
G01X0016166Y-012211D01*
G01X0016166Y-012211D02*
G01X0016128Y-012192D01*
G01X0016128Y-012192D02*
G01X0016090Y-012154D01*
G01X0016090Y-012154D02*
G01X0016071Y-012078D01*
G01X0016071Y-012078D02*
G01X0016071Y-011944D01*
G01X0016071Y-011944D02*
G01X0016090Y-011868D01*
G01X0016090Y-011868D02*
G01X0016128Y-011830D01*
G01X0016128Y-011830D02*
G01X0016166Y-011811D01*
G01X0016509Y-011811D02*
G01X0016509Y-012135D01*
G01X0016509Y-012135D02*
G01X0016528Y-012173D01*
G01X0016528Y-012173D02*
G01X0016547Y-012192D01*
G01X0016547Y-012192D02*
G01X0016586Y-012211D01*
G01X0016586Y-012211D02*
G01X0016662Y-012211D01*
G01X0016662Y-012211D02*
G01X0016700Y-012192D01*
G01X0016700Y-012192D02*
G01X0016719Y-012173D01*
G01X0016719Y-012173D02*
G01X0016738Y-012135D01*
G01X0016738Y-012135D02*
G01X0016738Y-011811D01*
G01X0016928Y-012211D02*
G01X0016928Y-011811D01*
G01X0016928Y-011811D02*
G01X0017157Y-012211D01*
G01X0017157Y-012211D02*
G01X0017157Y-011811D01*
G01X0017347Y-012211D02*
G01X0017347Y-011811D01*
G01X0017347Y-011811D02*
G01X0017443Y-011811D01*
G01X0017443Y-011811D02*
G01X0017500Y-011830D01*
G01X0017500Y-011830D02*
G01X0017538Y-011868D01*
G01X0017538Y-011868D02*
G01X0017557Y-011906D01*
G01X0017557Y-011906D02*
G01X0017576Y-011982D01*
G01X0017576Y-011982D02*
G01X0017576Y-012040D01*
G01X0017576Y-012040D02*
G01X0017557Y-012116D01*
G01X0017557Y-012116D02*
G01X0017538Y-012154D01*
G01X0017538Y-012154D02*
G01X0017500Y-012192D01*
G01X0017500Y-012192D02*
G01X0017443Y-012211D01*
G01X0017443Y-012211D02*
G01X0017347Y-012211D01*
G01X0018052Y-012211D02*
G01X0018052Y-011811D01*
G01X0018052Y-011811D02*
G01X0018205Y-011811D01*
G01X0018205Y-011811D02*
G01X0018243Y-011830D01*
G01X0018243Y-011830D02*
G01X0018262Y-011849D01*
G01X0018262Y-011849D02*
G01X0018281Y-011887D01*
G01X0018281Y-011887D02*
G01X0018281Y-011944D01*
G01X0018281Y-011944D02*
G01X0018262Y-011982D01*
G01X0018262Y-011982D02*
G01X0018243Y-012001D01*
G01X0018243Y-012001D02*
G01X0018205Y-012020D01*
G01X0018205Y-012020D02*
G01X0018052Y-012020D01*
G01X0018433Y-012097D02*
G01X0018624Y-012097D01*
G01X0018395Y-012211D02*
G01X0018528Y-011811D01*
G01X0018528Y-011811D02*
G01X0018662Y-012211D01*
G01X0018795Y-012211D02*
G01X0018795Y-011811D01*
G01X0018795Y-011811D02*
G01X0018890Y-011811D01*
G01X0018890Y-011811D02*
G01X0018947Y-011830D01*
G01X0018947Y-011830D02*
G01X0018986Y-011868D01*
G01X0018986Y-011868D02*
G01X0019005Y-011906D01*
G01X0019005Y-011906D02*
G01X0019024Y-011982D01*
G01X0019024Y-011982D02*
G01X0019024Y-012040D01*
G01X0019024Y-012040D02*
G01X0019005Y-012116D01*
G01X0019005Y-012116D02*
G01X0018986Y-012154D01*
G01X0018986Y-012154D02*
G01X0018947Y-012192D01*
G01X0018947Y-012192D02*
G01X0018890Y-012211D01*
G01X0018890Y-012211D02*
G01X0018795Y-012211D01*
G01X0019443Y-011811D02*
G01X0019671Y-011811D01*
G01X0019557Y-012211D02*
G01X0019557Y-011811D01*
G01X0019881Y-011811D02*
G01X0019957Y-011811D01*
G01X0019957Y-011811D02*
G01X0019995Y-011830D01*
G01X0019995Y-011830D02*
G01X0020033Y-011868D01*
G01X0020033Y-011868D02*
G01X0020052Y-011944D01*
G01X0020052Y-011944D02*
G01X0020052Y-012078D01*
G01X0020052Y-012078D02*
G01X0020033Y-012154D01*
G01X0020033Y-012154D02*
G01X0019995Y-012192D01*
G01X0019995Y-012192D02*
G01X0019957Y-012211D01*
G01X0019957Y-012211D02*
G01X0019881Y-012211D01*
G01X0019881Y-012211D02*
G01X0019843Y-012192D01*
G01X0019843Y-012192D02*
G01X0019805Y-012154D01*
G01X0019805Y-012154D02*
G01X0019786Y-012078D01*
G01X0019786Y-012078D02*
G01X0019786Y-011944D01*
G01X0019786Y-011944D02*
G01X0019805Y-011868D01*
G01X0019805Y-011868D02*
G01X0019843Y-011830D01*
G01X0019843Y-011830D02*
G01X0019881Y-011811D01*
G01X0020662Y-012001D02*
G01X0020719Y-012020D01*
G01X0020719Y-012020D02*
G01X0020738Y-012040D01*
G01X0020738Y-012040D02*
G01X0020757Y-012078D01*
G01X0020757Y-012078D02*
G01X0020757Y-012135D01*
G01X0020757Y-012135D02*
G01X0020738Y-012173D01*
G01X0020738Y-012173D02*
G01X0020719Y-012192D01*
G01X0020719Y-012192D02*
G01X0020681Y-012211D01*
G01X0020681Y-012211D02*
G01X0020528Y-012211D01*
G01X0020528Y-012211D02*
G01X0020528Y-011811D01*
G01X0020528Y-011811D02*
G01X0020662Y-011811D01*
G01X0020662Y-011811D02*
G01X0020700Y-011830D01*
G01X0020700Y-011830D02*
G01X0020719Y-011849D01*
G01X0020719Y-011849D02*
G01X0020738Y-011887D01*
G01X0020738Y-011887D02*
G01X0020738Y-011925D01*
G01X0020738Y-011925D02*
G01X0020719Y-011963D01*
G01X0020719Y-011963D02*
G01X0020700Y-011982D01*
G01X0020700Y-011982D02*
G01X0020662Y-012001D01*
G01X0020662Y-012001D02*
G01X0020528Y-012001D01*
G01X0020928Y-012001D02*
G01X0021062Y-012001D01*
G01X0021119Y-012211D02*
G01X0020928Y-012211D01*
G01X0020928Y-012211D02*
G01X0020928Y-011811D01*
G01X0020928Y-011811D02*
G01X0021119Y-011811D01*
G01X0021576Y-012097D02*
G01X0021766Y-012097D01*
G01X0021538Y-012211D02*
G01X0021671Y-011811D01*
G01X0021671Y-011811D02*
G01X0021805Y-012211D01*
G01X0021881Y-011811D02*
G01X0022109Y-011811D01*
G01X0021995Y-012211D02*
G01X0021995Y-011811D01*
G01X0022738Y-012211D02*
G01X0022547Y-012211D01*
G01X0022547Y-012211D02*
G01X0022547Y-011811D01*
G01X0022871Y-012001D02*
G01X0023005Y-012001D01*
G01X0023062Y-012211D02*
G01X0022871Y-012211D01*
G01X0022871Y-012211D02*
G01X0022871Y-011811D01*
G01X0022871Y-011811D02*
G01X0023062Y-011811D01*
G01X0023214Y-012097D02*
G01X0023405Y-012097D01*
G01X0023176Y-012211D02*
G01X0023309Y-011811D01*
G01X0023309Y-011811D02*
G01X0023443Y-012211D01*
G01X0023557Y-012192D02*
G01X0023614Y-012211D01*
G01X0023614Y-012211D02*
G01X0023709Y-012211D01*
G01X0023709Y-012211D02*
G01X0023747Y-012192D01*
G01X0023747Y-012192D02*
G01X0023766Y-012173D01*
G01X0023766Y-012173D02*
G01X0023786Y-012135D01*
G01X0023786Y-012135D02*
G01X0023786Y-012097D01*
G01X0023786Y-012097D02*
G01X0023766Y-012059D01*
G01X0023766Y-012059D02*
G01X0023747Y-012040D01*
G01X0023747Y-012040D02*
G01X0023709Y-012020D01*
G01X0023709Y-012020D02*
G01X0023633Y-012001D01*
G01X0023633Y-012001D02*
G01X0023595Y-011982D01*
G01X0023595Y-011982D02*
G01X0023576Y-011963D01*
G01X0023576Y-011963D02*
G01X0023557Y-011925D01*
G01X0023557Y-011925D02*
G01X0023557Y-011887D01*
G01X0023557Y-011887D02*
G01X0023576Y-011849D01*
G01X0023576Y-011849D02*
G01X0023595Y-011830D01*
G01X0023595Y-011830D02*
G01X0023633Y-011811D01*
G01X0023633Y-011811D02*
G01X0023728Y-011811D01*
G01X0023728Y-011811D02*
G01X0023786Y-011830D01*
G01X0023900Y-011811D02*
G01X0024128Y-011811D01*
G01X0024014Y-012211D02*
G01X0024014Y-011811D01*
G01X0024700Y-012001D02*
G01X0024566Y-012001D01*
G01X0024566Y-012211D02*
G01X0024566Y-011811D01*
G01X0024566Y-011811D02*
G01X0024757Y-011811D01*
G01X0025100Y-012211D02*
G01X0024909Y-012211D01*
G01X0024909Y-012211D02*
G01X0024909Y-011811D01*
G01X0025233Y-011811D02*
G01X0025233Y-012135D01*
G01X0025233Y-012135D02*
G01X0025252Y-012173D01*
G01X0025252Y-012173D02*
G01X0025271Y-012192D01*
G01X0025271Y-012192D02*
G01X0025309Y-012211D01*
G01X0025309Y-012211D02*
G01X0025386Y-012211D01*
G01X0025386Y-012211D02*
G01X0025424Y-012192D01*
G01X0025424Y-012192D02*
G01X0025443Y-012173D01*
G01X0025443Y-012173D02*
G01X0025462Y-012135D01*
G01X0025462Y-012135D02*
G01X0025462Y-011811D01*
G01X0025633Y-012192D02*
G01X0025690Y-012211D01*
G01X0025690Y-012211D02*
G01X0025786Y-012211D01*
G01X0025786Y-012211D02*
G01X0025824Y-012192D01*
G01X0025824Y-012192D02*
G01X0025843Y-012173D01*
G01X0025843Y-012173D02*
G01X0025862Y-012135D01*
G01X0025862Y-012135D02*
G01X0025862Y-012097D01*
G01X0025862Y-012097D02*
G01X0025843Y-012059D01*
G01X0025843Y-012059D02*
G01X0025824Y-012040D01*
G01X0025824Y-012040D02*
G01X0025786Y-012020D01*
G01X0025786Y-012020D02*
G01X0025709Y-012001D01*
G01X0025709Y-012001D02*
G01X0025671Y-011982D01*
G01X0025671Y-011982D02*
G01X0025652Y-011963D01*
G01X0025652Y-011963D02*
G01X0025633Y-011925D01*
G01X0025633Y-011925D02*
G01X0025633Y-011887D01*
G01X0025633Y-011887D02*
G01X0025652Y-011849D01*
G01X0025652Y-011849D02*
G01X0025671Y-011830D01*
G01X0025671Y-011830D02*
G01X0025709Y-011811D01*
G01X0025709Y-011811D02*
G01X0025805Y-011811D01*
G01X0025805Y-011811D02*
G01X0025862Y-011830D01*
G01X0026033Y-012211D02*
G01X0026033Y-011811D01*
G01X0026033Y-012001D02*
G01X0026262Y-012001D01*
G01X0026262Y-012211D02*
G01X0026262Y-011811D01*
G01X0015224Y-012471D02*
G01X0015319Y-012871D01*
G01X0015319Y-012871D02*
G01X0015395Y-012585D01*
G01X0015395Y-012585D02*
G01X0015471Y-012871D01*
G01X0015471Y-012871D02*
G01X0015566Y-012471D01*
G01X0015719Y-012871D02*
G01X0015719Y-012471D01*
G01X0015852Y-012471D02*
G01X0016081Y-012471D01*
G01X0015966Y-012871D02*
G01X0015966Y-012471D01*
G01X0016214Y-012871D02*
G01X0016214Y-012471D01*
G01X0016214Y-012661D02*
G01X0016443Y-012661D01*
G01X0016443Y-012871D02*
G01X0016443Y-012471D01*
G01X0016881Y-012471D02*
G01X0017109Y-012471D01*
G01X0016995Y-012871D02*
G01X0016995Y-012471D01*
G01X0017243Y-012871D02*
G01X0017243Y-012471D01*
G01X0017243Y-012661D02*
G01X0017471Y-012661D01*
G01X0017471Y-012871D02*
G01X0017471Y-012471D01*
G01X0017662Y-012661D02*
G01X0017795Y-012661D01*
G01X0017852Y-012871D02*
G01X0017662Y-012871D01*
G01X0017662Y-012871D02*
G01X0017662Y-012471D01*
G01X0017662Y-012471D02*
G01X0017852Y-012471D01*
G01X0018309Y-012852D02*
G01X0018366Y-012871D01*
G01X0018366Y-012871D02*
G01X0018462Y-012871D01*
G01X0018462Y-012871D02*
G01X0018500Y-012852D01*
G01X0018500Y-012852D02*
G01X0018519Y-012833D01*
G01X0018519Y-012833D02*
G01X0018538Y-012795D01*
G01X0018538Y-012795D02*
G01X0018538Y-012757D01*
G01X0018538Y-012757D02*
G01X0018519Y-012719D01*
G01X0018519Y-012719D02*
G01X0018500Y-012700D01*
G01X0018500Y-012700D02*
G01X0018462Y-012680D01*
G01X0018462Y-012680D02*
G01X0018386Y-012661D01*
G01X0018386Y-012661D02*
G01X0018347Y-012642D01*
G01X0018347Y-012642D02*
G01X0018328Y-012623D01*
G01X0018328Y-012623D02*
G01X0018309Y-012585D01*
G01X0018309Y-012585D02*
G01X0018309Y-012547D01*
G01X0018309Y-012547D02*
G01X0018328Y-012509D01*
G01X0018328Y-012509D02*
G01X0018347Y-012490D01*
G01X0018347Y-012490D02*
G01X0018386Y-012471D01*
G01X0018386Y-012471D02*
G01X0018481Y-012471D01*
G01X0018481Y-012471D02*
G01X0018538Y-012490D01*
G01X0018786Y-012471D02*
G01X0018862Y-012471D01*
G01X0018862Y-012471D02*
G01X0018900Y-012490D01*
G01X0018900Y-012490D02*
G01X0018938Y-012528D01*
G01X0018938Y-012528D02*
G01X0018957Y-012604D01*
G01X0018957Y-012604D02*
G01X0018957Y-012738D01*
G01X0018957Y-012738D02*
G01X0018938Y-012814D01*
G01X0018938Y-012814D02*
G01X0018900Y-012852D01*
G01X0018900Y-012852D02*
G01X0018862Y-012871D01*
G01X0018862Y-012871D02*
G01X0018786Y-012871D01*
G01X0018786Y-012871D02*
G01X0018747Y-012852D01*
G01X0018747Y-012852D02*
G01X0018709Y-012814D01*
G01X0018709Y-012814D02*
G01X0018690Y-012738D01*
G01X0018690Y-012738D02*
G01X0018690Y-012604D01*
G01X0018690Y-012604D02*
G01X0018709Y-012528D01*
G01X0018709Y-012528D02*
G01X0018747Y-012490D01*
G01X0018747Y-012490D02*
G01X0018786Y-012471D01*
G01X0019319Y-012871D02*
G01X0019128Y-012871D01*
G01X0019128Y-012871D02*
G01X0019128Y-012471D01*
G01X0019452Y-012871D02*
G01X0019452Y-012471D01*
G01X0019452Y-012471D02*
G01X0019547Y-012471D01*
G01X0019547Y-012471D02*
G01X0019605Y-012490D01*
G01X0019605Y-012490D02*
G01X0019643Y-012528D01*
G01X0019643Y-012528D02*
G01X0019662Y-012566D01*
G01X0019662Y-012566D02*
G01X0019681Y-012642D01*
G01X0019681Y-012642D02*
G01X0019681Y-012700D01*
G01X0019681Y-012700D02*
G01X0019662Y-012776D01*
G01X0019662Y-012776D02*
G01X0019643Y-012814D01*
G01X0019643Y-012814D02*
G01X0019605Y-012852D01*
G01X0019605Y-012852D02*
G01X0019547Y-012871D01*
G01X0019547Y-012871D02*
G01X0019452Y-012871D01*
G01X0019852Y-012661D02*
G01X0019986Y-012661D01*
G01X0020043Y-012871D02*
G01X0019852Y-012871D01*
G01X0019852Y-012871D02*
G01X0019852Y-012471D01*
G01X0019852Y-012471D02*
G01X0020043Y-012471D01*
G01X0020443Y-012871D02*
G01X0020309Y-012680D01*
G01X0020214Y-012871D02*
G01X0020214Y-012471D01*
G01X0020214Y-012471D02*
G01X0020366Y-012471D01*
G01X0020366Y-012471D02*
G01X0020405Y-012490D01*
G01X0020405Y-012490D02*
G01X0020424Y-012509D01*
G01X0020424Y-012509D02*
G01X0020443Y-012547D01*
G01X0020443Y-012547D02*
G01X0020443Y-012604D01*
G01X0020443Y-012604D02*
G01X0020424Y-012642D01*
G01X0020424Y-012642D02*
G01X0020405Y-012661D01*
G01X0020405Y-012661D02*
G01X0020366Y-012680D01*
G01X0020366Y-012680D02*
G01X0020214Y-012680D01*
G01X0020919Y-012871D02*
G01X0020919Y-012471D01*
G01X0020919Y-012471D02*
G01X0021052Y-012757D01*
G01X0021052Y-012757D02*
G01X0021186Y-012471D01*
G01X0021186Y-012471D02*
G01X0021186Y-012871D01*
G01X0021357Y-012757D02*
G01X0021547Y-012757D01*
G01X0021319Y-012871D02*
G01X0021452Y-012471D01*
G01X0021452Y-012471D02*
G01X0021586Y-012871D01*
G01X0021700Y-012852D02*
G01X0021757Y-012871D01*
G01X0021757Y-012871D02*
G01X0021852Y-012871D01*
G01X0021852Y-012871D02*
G01X0021890Y-012852D01*
G01X0021890Y-012852D02*
G01X0021909Y-012833D01*
G01X0021909Y-012833D02*
G01X0021928Y-012795D01*
G01X0021928Y-012795D02*
G01X0021928Y-012757D01*
G01X0021928Y-012757D02*
G01X0021909Y-012719D01*
G01X0021909Y-012719D02*
G01X0021890Y-012700D01*
G01X0021890Y-012700D02*
G01X0021852Y-012680D01*
G01X0021852Y-012680D02*
G01X0021776Y-012661D01*
G01X0021776Y-012661D02*
G01X0021738Y-012642D01*
G01X0021738Y-012642D02*
G01X0021719Y-012623D01*
G01X0021719Y-012623D02*
G01X0021700Y-012585D01*
G01X0021700Y-012585D02*
G01X0021700Y-012547D01*
G01X0021700Y-012547D02*
G01X0021719Y-012509D01*
G01X0021719Y-012509D02*
G01X0021738Y-012490D01*
G01X0021738Y-012490D02*
G01X0021776Y-012471D01*
G01X0021776Y-012471D02*
G01X0021871Y-012471D01*
G01X0021871Y-012471D02*
G01X0021928Y-012490D01*
G01X0022100Y-012871D02*
G01X0022100Y-012471D01*
G01X0022328Y-012871D02*
G01X0022157Y-012642D01*
G01X0022328Y-012471D02*
G01X0022100Y-012700D01*
G01X0022747Y-012471D02*
G01X0022976Y-012471D01*
G01X0022862Y-012871D02*
G01X0022862Y-012471D01*
G01X0023186Y-012471D02*
G01X0023262Y-012471D01*
G01X0023262Y-012471D02*
G01X0023300Y-012490D01*
G01X0023300Y-012490D02*
G01X0023338Y-012528D01*
G01X0023338Y-012528D02*
G01X0023357Y-012604D01*
G01X0023357Y-012604D02*
G01X0023357Y-012738D01*
G01X0023357Y-012738D02*
G01X0023338Y-012814D01*
G01X0023338Y-012814D02*
G01X0023300Y-012852D01*
G01X0023300Y-012852D02*
G01X0023262Y-012871D01*
G01X0023262Y-012871D02*
G01X0023186Y-012871D01*
G01X0023186Y-012871D02*
G01X0023147Y-012852D01*
G01X0023147Y-012852D02*
G01X0023109Y-012814D01*
G01X0023109Y-012814D02*
G01X0023090Y-012738D01*
G01X0023090Y-012738D02*
G01X0023090Y-012604D01*
G01X0023090Y-012604D02*
G01X0023109Y-012528D01*
G01X0023109Y-012528D02*
G01X0023147Y-012490D01*
G01X0023147Y-012490D02*
G01X0023186Y-012471D01*
G01X0023833Y-012661D02*
G01X0023966Y-012661D01*
G01X0024024Y-012871D02*
G01X0023833Y-012871D01*
G01X0023833Y-012871D02*
G01X0023833Y-012471D01*
G01X0023833Y-012471D02*
G01X0024024Y-012471D01*
G01X0024195Y-012871D02*
G01X0024195Y-012471D01*
G01X0024195Y-012471D02*
G01X0024424Y-012871D01*
G01X0024424Y-012871D02*
G01X0024424Y-012471D01*
G01X0024595Y-012852D02*
G01X0024652Y-012871D01*
G01X0024652Y-012871D02*
G01X0024747Y-012871D01*
G01X0024747Y-012871D02*
G01X0024786Y-012852D01*
G01X0024786Y-012852D02*
G01X0024805Y-012833D01*
G01X0024805Y-012833D02*
G01X0024824Y-012795D01*
G01X0024824Y-012795D02*
G01X0024824Y-012757D01*
G01X0024824Y-012757D02*
G01X0024805Y-012719D01*
G01X0024805Y-012719D02*
G01X0024786Y-012700D01*
G01X0024786Y-012700D02*
G01X0024747Y-012680D01*
G01X0024747Y-012680D02*
G01X0024671Y-012661D01*
G01X0024671Y-012661D02*
G01X0024633Y-012642D01*
G01X0024633Y-012642D02*
G01X0024614Y-012623D01*
G01X0024614Y-012623D02*
G01X0024595Y-012585D01*
G01X0024595Y-012585D02*
G01X0024595Y-012547D01*
G01X0024595Y-012547D02*
G01X0024614Y-012509D01*
G01X0024614Y-012509D02*
G01X0024633Y-012490D01*
G01X0024633Y-012490D02*
G01X0024671Y-012471D01*
G01X0024671Y-012471D02*
G01X0024766Y-012471D01*
G01X0024766Y-012471D02*
G01X0024824Y-012490D01*
G01X0024995Y-012471D02*
G01X0024995Y-012795D01*
G01X0024995Y-012795D02*
G01X0025014Y-012833D01*
G01X0025014Y-012833D02*
G01X0025033Y-012852D01*
G01X0025033Y-012852D02*
G01X0025071Y-012871D01*
G01X0025071Y-012871D02*
G01X0025147Y-012871D01*
G01X0025147Y-012871D02*
G01X0025186Y-012852D01*
G01X0025186Y-012852D02*
G01X0025205Y-012833D01*
G01X0025205Y-012833D02*
G01X0025224Y-012795D01*
G01X0025224Y-012795D02*
G01X0025224Y-012471D01*
G01X0025643Y-012871D02*
G01X0025509Y-012680D01*
G01X0025414Y-012871D02*
G01X0025414Y-012471D01*
G01X0025414Y-012471D02*
G01X0025566Y-012471D01*
G01X0025566Y-012471D02*
G01X0025605Y-012490D01*
G01X0025605Y-012490D02*
G01X0025624Y-012509D01*
G01X0025624Y-012509D02*
G01X0025643Y-012547D01*
G01X0025643Y-012547D02*
G01X0025643Y-012604D01*
G01X0025643Y-012604D02*
G01X0025624Y-012642D01*
G01X0025624Y-012642D02*
G01X0025605Y-012661D01*
G01X0025605Y-012661D02*
G01X0025566Y-012680D01*
G01X0025566Y-012680D02*
G01X0025414Y-012680D01*
G01X0025814Y-012661D02*
G01X0025947Y-012661D01*
G01X0026005Y-012871D02*
G01X0025814Y-012871D01*
G01X0025814Y-012871D02*
G01X0025814Y-012471D01*
G01X0025814Y-012471D02*
G01X0026005Y-012471D01*
G01X0017433Y-013150D02*
G01X0017395Y-013131D01*
G01X0017395Y-013131D02*
G01X0017338Y-013131D01*
G01X0017338Y-013131D02*
G01X0017281Y-013150D01*
G01X0017281Y-013150D02*
G01X0017243Y-013188D01*
G01X0017243Y-013188D02*
G01X0017224Y-013226D01*
G01X0017224Y-013226D02*
G01X0017205Y-013302D01*
G01X0017205Y-013302D02*
G01X0017205Y-013360D01*
G01X0017205Y-013360D02*
G01X0017224Y-013436D01*
G01X0017224Y-013436D02*
G01X0017243Y-013474D01*
G01X0017243Y-013474D02*
G01X0017281Y-013512D01*
G01X0017281Y-013512D02*
G01X0017338Y-013531D01*
G01X0017338Y-013531D02*
G01X0017376Y-013531D01*
G01X0017376Y-013531D02*
G01X0017433Y-013512D01*
G01X0017433Y-013512D02*
G01X0017452Y-013493D01*
G01X0017452Y-013493D02*
G01X0017452Y-013360D01*
G01X0017452Y-013360D02*
G01X0017376Y-013360D01*
G01X0017700Y-013131D02*
G01X0017776Y-013131D01*
G01X0017776Y-013131D02*
G01X0017814Y-013150D01*
G01X0017814Y-013150D02*
G01X0017852Y-013188D01*
G01X0017852Y-013188D02*
G01X0017871Y-013264D01*
G01X0017871Y-013264D02*
G01X0017871Y-013398D01*
G01X0017871Y-013398D02*
G01X0017852Y-013474D01*
G01X0017852Y-013474D02*
G01X0017814Y-013512D01*
G01X0017814Y-013512D02*
G01X0017776Y-013531D01*
G01X0017776Y-013531D02*
G01X0017700Y-013531D01*
G01X0017700Y-013531D02*
G01X0017662Y-013512D01*
G01X0017662Y-013512D02*
G01X0017624Y-013474D01*
G01X0017624Y-013474D02*
G01X0017605Y-013398D01*
G01X0017605Y-013398D02*
G01X0017605Y-013264D01*
G01X0017605Y-013264D02*
G01X0017624Y-013188D01*
G01X0017624Y-013188D02*
G01X0017662Y-013150D01*
G01X0017662Y-013150D02*
G01X0017700Y-013131D01*
G01X0018119Y-013131D02*
G01X0018195Y-013131D01*
G01X0018195Y-013131D02*
G01X0018233Y-013150D01*
G01X0018233Y-013150D02*
G01X0018271Y-013188D01*
G01X0018271Y-013188D02*
G01X0018290Y-013264D01*
G01X0018290Y-013264D02*
G01X0018290Y-013398D01*
G01X0018290Y-013398D02*
G01X0018271Y-013474D01*
G01X0018271Y-013474D02*
G01X0018233Y-013512D01*
G01X0018233Y-013512D02*
G01X0018195Y-013531D01*
G01X0018195Y-013531D02*
G01X0018119Y-013531D01*
G01X0018119Y-013531D02*
G01X0018081Y-013512D01*
G01X0018081Y-013512D02*
G01X0018043Y-013474D01*
G01X0018043Y-013474D02*
G01X0018024Y-013398D01*
G01X0018024Y-013398D02*
G01X0018024Y-013264D01*
G01X0018024Y-013264D02*
G01X0018043Y-013188D01*
G01X0018043Y-013188D02*
G01X0018081Y-013150D01*
G01X0018081Y-013150D02*
G01X0018119Y-013131D01*
G01X0018462Y-013531D02*
G01X0018462Y-013131D01*
G01X0018462Y-013131D02*
G01X0018557Y-013131D01*
G01X0018557Y-013131D02*
G01X0018614Y-013150D01*
G01X0018614Y-013150D02*
G01X0018652Y-013188D01*
G01X0018652Y-013188D02*
G01X0018671Y-013226D01*
G01X0018671Y-013226D02*
G01X0018690Y-013302D01*
G01X0018690Y-013302D02*
G01X0018690Y-013360D01*
G01X0018690Y-013360D02*
G01X0018671Y-013436D01*
G01X0018671Y-013436D02*
G01X0018652Y-013474D01*
G01X0018652Y-013474D02*
G01X0018614Y-013512D01*
G01X0018614Y-013512D02*
G01X0018557Y-013531D01*
G01X0018557Y-013531D02*
G01X0018462Y-013531D01*
G01X0019300Y-013321D02*
G01X0019357Y-013340D01*
G01X0019357Y-013340D02*
G01X0019376Y-013360D01*
G01X0019376Y-013360D02*
G01X0019395Y-013398D01*
G01X0019395Y-013398D02*
G01X0019395Y-013455D01*
G01X0019395Y-013455D02*
G01X0019376Y-013493D01*
G01X0019376Y-013493D02*
G01X0019357Y-013512D01*
G01X0019357Y-013512D02*
G01X0019319Y-013531D01*
G01X0019319Y-013531D02*
G01X0019166Y-013531D01*
G01X0019166Y-013531D02*
G01X0019166Y-013131D01*
G01X0019166Y-013131D02*
G01X0019300Y-013131D01*
G01X0019300Y-013131D02*
G01X0019338Y-013150D01*
G01X0019338Y-013150D02*
G01X0019357Y-013169D01*
G01X0019357Y-013169D02*
G01X0019376Y-013207D01*
G01X0019376Y-013207D02*
G01X0019376Y-013245D01*
G01X0019376Y-013245D02*
G01X0019357Y-013283D01*
G01X0019357Y-013283D02*
G01X0019338Y-013302D01*
G01X0019338Y-013302D02*
G01X0019300Y-013321D01*
G01X0019300Y-013321D02*
G01X0019166Y-013321D01*
G01X0019547Y-013417D02*
G01X0019738Y-013417D01*
G01X0019509Y-013531D02*
G01X0019643Y-013131D01*
G01X0019643Y-013131D02*
G01X0019776Y-013531D01*
G01X0019852Y-013131D02*
G01X0020081Y-013131D01*
G01X0019966Y-013531D02*
G01X0019966Y-013131D01*
G01X0020157Y-013131D02*
G01X0020386Y-013131D01*
G01X0020271Y-013531D02*
G01X0020271Y-013131D01*
G01X0020519Y-013321D02*
G01X0020652Y-013321D01*
G01X0020709Y-013531D02*
G01X0020519Y-013531D01*
G01X0020519Y-013531D02*
G01X0020519Y-013131D01*
G01X0020519Y-013131D02*
G01X0020709Y-013131D01*
G01X0021109Y-013531D02*
G01X0020976Y-013340D01*
G01X0020881Y-013531D02*
G01X0020881Y-013131D01*
G01X0020881Y-013131D02*
G01X0021033Y-013131D01*
G01X0021033Y-013131D02*
G01X0021071Y-013150D01*
G01X0021071Y-013150D02*
G01X0021090Y-013169D01*
G01X0021090Y-013169D02*
G01X0021109Y-013207D01*
G01X0021109Y-013207D02*
G01X0021109Y-013264D01*
G01X0021109Y-013264D02*
G01X0021090Y-013302D01*
G01X0021090Y-013302D02*
G01X0021071Y-013321D01*
G01X0021071Y-013321D02*
G01X0021033Y-013340D01*
G01X0021033Y-013340D02*
G01X0020881Y-013340D01*
G01X0021357Y-013340D02*
G01X0021357Y-013531D01*
G01X0021224Y-013131D02*
G01X0021357Y-013340D01*
G01X0021357Y-013340D02*
G01X0021490Y-013131D01*
G01X0022157Y-013493D02*
G01X0022138Y-013512D01*
G01X0022138Y-013512D02*
G01X0022081Y-013531D01*
G01X0022081Y-013531D02*
G01X0022043Y-013531D01*
G01X0022043Y-013531D02*
G01X0021986Y-013512D01*
G01X0021986Y-013512D02*
G01X0021947Y-013474D01*
G01X0021947Y-013474D02*
G01X0021928Y-013436D01*
G01X0021928Y-013436D02*
G01X0021909Y-013360D01*
G01X0021909Y-013360D02*
G01X0021909Y-013302D01*
G01X0021909Y-013302D02*
G01X0021928Y-013226D01*
G01X0021928Y-013226D02*
G01X0021947Y-013188D01*
G01X0021947Y-013188D02*
G01X0021986Y-013150D01*
G01X0021986Y-013150D02*
G01X0022043Y-013131D01*
G01X0022043Y-013131D02*
G01X0022081Y-013131D01*
G01X0022081Y-013131D02*
G01X0022138Y-013150D01*
G01X0022138Y-013150D02*
G01X0022157Y-013169D01*
G01X0022405Y-013131D02*
G01X0022481Y-013131D01*
G01X0022481Y-013131D02*
G01X0022519Y-013150D01*
G01X0022519Y-013150D02*
G01X0022557Y-013188D01*
G01X0022557Y-013188D02*
G01X0022576Y-013264D01*
G01X0022576Y-013264D02*
G01X0022576Y-013398D01*
G01X0022576Y-013398D02*
G01X0022557Y-013474D01*
G01X0022557Y-013474D02*
G01X0022519Y-013512D01*
G01X0022519Y-013512D02*
G01X0022481Y-013531D01*
G01X0022481Y-013531D02*
G01X0022405Y-013531D01*
G01X0022405Y-013531D02*
G01X0022366Y-013512D01*
G01X0022366Y-013512D02*
G01X0022328Y-013474D01*
G01X0022328Y-013474D02*
G01X0022309Y-013398D01*
G01X0022309Y-013398D02*
G01X0022309Y-013264D01*
G01X0022309Y-013264D02*
G01X0022328Y-013188D01*
G01X0022328Y-013188D02*
G01X0022366Y-013150D01*
G01X0022366Y-013150D02*
G01X0022405Y-013131D01*
G01X0022747Y-013531D02*
G01X0022747Y-013131D01*
G01X0022747Y-013131D02*
G01X0022976Y-013531D01*
G01X0022976Y-013531D02*
G01X0022976Y-013131D01*
G01X0023109Y-013131D02*
G01X0023338Y-013131D01*
G01X0023224Y-013531D02*
G01X0023224Y-013131D01*
G01X0023452Y-013417D02*
G01X0023643Y-013417D01*
G01X0023414Y-013531D02*
G01X0023547Y-013131D01*
G01X0023547Y-013131D02*
G01X0023681Y-013531D01*
G01X0024043Y-013493D02*
G01X0024024Y-013512D01*
G01X0024024Y-013512D02*
G01X0023966Y-013531D01*
G01X0023966Y-013531D02*
G01X0023928Y-013531D01*
G01X0023928Y-013531D02*
G01X0023871Y-013512D01*
G01X0023871Y-013512D02*
G01X0023833Y-013474D01*
G01X0023833Y-013474D02*
G01X0023814Y-013436D01*
G01X0023814Y-013436D02*
G01X0023795Y-013360D01*
G01X0023795Y-013360D02*
G01X0023795Y-013302D01*
G01X0023795Y-013302D02*
G01X0023814Y-013226D01*
G01X0023814Y-013226D02*
G01X0023833Y-013188D01*
G01X0023833Y-013188D02*
G01X0023871Y-013150D01*
G01X0023871Y-013150D02*
G01X0023928Y-013131D01*
G01X0023928Y-013131D02*
G01X0023966Y-013131D01*
G01X0023966Y-013131D02*
G01X0024024Y-013150D01*
G01X0024024Y-013150D02*
G01X0024043Y-013169D01*
G01X0024157Y-013131D02*
G01X0024386Y-013131D01*
G01X0024271Y-013531D02*
G01X0024271Y-013131D01*
G01X0006804Y-011220D02*
G01X0006874Y-011222D01*
G01X0006804Y-016670D02*
G01X0006804Y-011220D01*
G01X0010638Y-016696D02*
G01X0006804Y-016670D01*
G01X0010638Y-011220D02*
G01X0010638Y-016696D01*
G01X0006886Y-011220D02*
G01X0010638Y-011220D01*
G54D11*
G01X0008750Y-011134D02*
G01X0008907Y-010819D01*
G01X0008750Y-011134D02*
G01X0008553Y-010819D01*
G01X0008750Y-010504D02*
G01X0008750Y-011134D01*
G01X0009744Y-012374D02*
G75*
G02X0007726Y-012394I-000995J-001516D01*
G54D12*
G01X0013395Y-010701D02*
G75*
G03X0011899Y-009205I-001496J0000000D01*
G01X0011899Y-018496D02*
G75*
G03X0013395Y-017000I0000000J0001496D01*
G01X0004104Y-017000D02*
G75*
G03X0005600Y-018496I0001496J0000000D01*
G01X0005600Y-009205D02*
G75*
G03X0004104Y-010701I0000000J-001496D01*
G01X0005600Y-009205D02*
G01X0011899Y-009205D01*
G01X0013395Y-010701D02*
G01X0013395Y-017000D01*
G01X0004104Y-010701D02*
G01X0004104Y-017000D01*
G01X0005600Y-018496D02*
G01X0011899Y-018496D01*
G54D13*
G01X0007831Y-011903D02*
G01X0007831Y-011509D01*
G01X0008018Y-011903D02*
G01X0008018Y-011509D01*
G01X0008018Y-011509D02*
G01X0008243Y-011903D01*
G01X0008243Y-011903D02*
G01X0008243Y-011509D01*
G01X0008412Y-011884D02*
G01X0008468Y-011903D01*
G01X0008468Y-011903D02*
G01X0008562Y-011903D01*
G01X0008562Y-011903D02*
G01X0008600Y-011884D01*
G01X0008600Y-011884D02*
G01X0008618Y-011865D01*
G01X0008618Y-011865D02*
G01X0008637Y-011828D01*
G01X0008637Y-011828D02*
G01X0008637Y-011790D01*
G01X0008637Y-011790D02*
G01X0008618Y-011753D01*
G01X0008618Y-011753D02*
G01X0008600Y-011734D01*
G01X0008600Y-011734D02*
G01X0008562Y-011715D01*
G01X0008562Y-011715D02*
G01X0008487Y-011696D01*
G01X0008487Y-011696D02*
G01X0008450Y-011678D01*
G01X0008450Y-011678D02*
G01X0008431Y-011659D01*
G01X0008431Y-011659D02*
G01X0008412Y-011621D01*
G01X0008412Y-011621D02*
G01X0008412Y-011584D01*
G01X0008412Y-011584D02*
G01X0008431Y-011546D01*
G01X0008431Y-011546D02*
G01X0008450Y-011528D01*
G01X0008450Y-011528D02*
G01X0008487Y-011509D01*
G01X0008487Y-011509D02*
G01X0008581Y-011509D01*
G01X0008581Y-011509D02*
G01X0008637Y-011528D01*
G01X0008806Y-011696D02*
G01X0008937Y-011696D01*
G01X0008993Y-011903D02*
G01X0008806Y-011903D01*
G01X0008806Y-011903D02*
G01X0008806Y-011509D01*
G01X0008806Y-011509D02*
G01X0008993Y-011509D01*
G01X0009387Y-011903D02*
G01X0009256Y-011715D01*
G01X0009162Y-011903D02*
G01X0009162Y-011509D01*
G01X0009162Y-011509D02*
G01X0009312Y-011509D01*
G01X0009312Y-011509D02*
G01X0009350Y-011528D01*
G01X0009350Y-011528D02*
G01X0009368Y-011546D01*
G01X0009368Y-011546D02*
G01X0009387Y-011584D01*
G01X0009387Y-011584D02*
G01X0009387Y-011640D01*
G01X0009387Y-011640D02*
G01X0009368Y-011678D01*
G01X0009368Y-011678D02*
G01X0009350Y-011696D01*
G01X0009350Y-011696D02*
G01X0009312Y-011715D01*
G01X0009312Y-011715D02*
G01X0009162Y-011715D01*
G01X0009500Y-011509D02*
G01X0009724Y-011509D01*
G01X0009612Y-011903D02*
G01X0009612Y-011509D01*
G01X0008440Y-013822D02*
G01X0008497Y-013841D01*
G01X0008497Y-013841D02*
G01X0008515Y-013860D01*
G01X0008515Y-013860D02*
G01X0008534Y-013897D01*
G01X0008534Y-013897D02*
G01X0008534Y-013954D01*
G01X0008534Y-013954D02*
G01X0008515Y-013991D01*
G01X0008515Y-013991D02*
G01X0008497Y-014010D01*
G01X0008497Y-014010D02*
G01X0008459Y-014028D01*
G01X0008459Y-014028D02*
G01X0008309Y-014028D01*
G01X0008309Y-014028D02*
G01X0008309Y-013635D01*
G01X0008309Y-013635D02*
G01X0008440Y-013635D01*
G01X0008440Y-013635D02*
G01X0008478Y-013654D01*
G01X0008478Y-013654D02*
G01X0008497Y-013672D01*
G01X0008497Y-013672D02*
G01X0008515Y-013710D01*
G01X0008515Y-013710D02*
G01X0008515Y-013747D01*
G01X0008515Y-013747D02*
G01X0008497Y-013785D01*
G01X0008497Y-013785D02*
G01X0008478Y-013804D01*
G01X0008478Y-013804D02*
G01X0008440Y-013822D01*
G01X0008440Y-013822D02*
G01X0008309Y-013822D01*
G01X0008646Y-013635D02*
G01X0008871Y-013635D01*
G01X0008759Y-014028D02*
G01X0008759Y-013635D01*
G01X0009209Y-014028D02*
G01X0008984Y-014028D01*
G01X0009096Y-014028D02*
G01X0009096Y-013635D01*
G01X0009096Y-013635D02*
G01X0009059Y-013691D01*
G01X0009059Y-013691D02*
G01X0009021Y-013729D01*
G01X0009021Y-013729D02*
G01X0008984Y-013747D01*
G01X0000000Y0000000D02*
G54D12*
G01X0013395Y-010701D02*
G75*
G03X0011899Y-009205I-001496J0000000D01*
G01X0011899Y-018496D02*
G75*
G03X0013395Y-017000I0000000J0001496D01*
G01X0004104Y-017000D02*
G75*
G03X0005600Y-018496I0001496J0000000D01*
G01X0005600Y-009205D02*
G75*
G03X0004104Y-010701I0000000J-001496D01*
G01X0005600Y-009205D02*
G01X0011899Y-009205D01*
G01X0013395Y-010701D02*
G01X0013395Y-017000D01*
G01X0004104Y-010701D02*
G01X0004104Y-017000D01*
G01X0005600Y-018496D02*
G01X0011899Y-018496D01*
M02*
