%TF.GenerationSoftware,KiCad,Pcbnew,4.0.5-e0-6337~49~ubuntu16.04.1*%
%TF.CreationDate,2017-02-13T23:52:32-08:00*%
%TF.ProjectId,3x3-CR2032-Coin-Cell,3378332D4352323033322D436F696E2D,1.0*%
%TF.FileFunction,Other,Fab,Top*%
%FSLAX46Y46*%
G04 Gerber Fmt 4.6, Leading zero omitted, Abs format (unit mm)*
G04 Created by KiCad (PCBNEW 4.0.5-e0-6337~49~ubuntu16.04.1) date Mon Feb 13 23:52:32 2017*
%MOMM*%
%LPD*%
G01*
G04 APERTURE LIST*
%ADD10C,0.350000*%
%ADD11C,0.050000*%
%ADD12C,0.150000*%
G04 APERTURE END LIST*
D10*
D11*
X21287200Y-75174000D02*
X37287200Y-75174000D01*
X17487200Y-55374000D02*
X17487200Y-71374000D01*
X41087200Y-55374000D02*
X41087200Y-71374000D01*
X21287200Y-51574000D02*
X37287200Y-51574000D01*
X21287200Y-51574000D02*
G75*
G03X17487200Y-55374000I0J-3800000D01*
G01*
X17487200Y-71374000D02*
G75*
G03X21287200Y-75174000I3800000J0D01*
G01*
X37287200Y-75174000D02*
G75*
G03X41087200Y-71374000I0J3800000D01*
G01*
X41087200Y-55374000D02*
G75*
G03X37287200Y-51574000I-3800000J0D01*
G01*
D12*
X28501486Y-63302571D02*
X28644343Y-63350190D01*
X28691962Y-63397810D01*
X28739581Y-63493048D01*
X28739581Y-63635905D01*
X28691962Y-63731143D01*
X28644343Y-63778762D01*
X28549105Y-63826381D01*
X28168152Y-63826381D01*
X28168152Y-62826381D01*
X28501486Y-62826381D01*
X28596724Y-62874000D01*
X28644343Y-62921619D01*
X28691962Y-63016857D01*
X28691962Y-63112095D01*
X28644343Y-63207333D01*
X28596724Y-63254952D01*
X28501486Y-63302571D01*
X28168152Y-63302571D01*
X29025295Y-62826381D02*
X29596724Y-62826381D01*
X29311009Y-63826381D02*
X29311009Y-62826381D01*
X30453867Y-63826381D02*
X29882438Y-63826381D01*
X30168152Y-63826381D02*
X30168152Y-62826381D01*
X30072914Y-62969238D01*
X29977676Y-63064476D01*
X29882438Y-63112095D01*
M02*
