%TF.GenerationSoftware,KiCad,Pcbnew,4.0.5-e0-6337~49~ubuntu16.04.1*%
%TF.CreationDate,2017-05-27T17:28:00-07:00*%
%TF.ProjectId,3x3-CR2032-Coin-Cell,3378332D4352323033322D436F696E2D,v1.2*%
%TF.FileFunction,Soldermask,Bot*%
%FSLAX46Y46*%
G04 Gerber Fmt 4.6, Leading zero omitted, Abs format (unit mm)*
G04 Created by KiCad (PCBNEW 4.0.5-e0-6337~49~ubuntu16.04.1) date Sat May 27 17:28:00 2017*
%MOMM*%
%LPD*%
G01*
G04 APERTURE LIST*
%ADD10C,0.350000*%
%ADD11C,7.200000*%
G04 APERTURE END LIST*
D10*
D11*
X29287200Y-55374000D02*
X21287200Y-55374000D01*
X29287200Y-71374000D02*
X29287200Y-55374000D01*
X21287200Y-71374000D02*
X29287200Y-71374000D01*
X37287200Y-55374000D02*
X37287200Y-71374000D01*
D10*
G36*
X37610310Y-68299847D02*
X38201255Y-68421151D01*
X38757398Y-68654932D01*
X39257534Y-68992278D01*
X39682621Y-69420343D01*
X40016466Y-69922821D01*
X40246356Y-70480576D01*
X40363464Y-71072014D01*
X40363464Y-71072024D01*
X40363531Y-71072363D01*
X40353910Y-71761416D01*
X40353833Y-71761754D01*
X40353833Y-71761762D01*
X40220257Y-72349701D01*
X39974885Y-72900816D01*
X39627137Y-73393778D01*
X39190262Y-73809809D01*
X38680900Y-74133061D01*
X38118454Y-74351219D01*
X37524347Y-74455976D01*
X36921203Y-74443342D01*
X36332000Y-74313797D01*
X35779182Y-74072277D01*
X35283807Y-73727982D01*
X34864737Y-73294023D01*
X34537938Y-72786930D01*
X34315856Y-72226014D01*
X34206955Y-71632658D01*
X34215377Y-71029441D01*
X34340806Y-70439347D01*
X34578459Y-69884858D01*
X34919291Y-69387088D01*
X35350312Y-68965000D01*
X35855113Y-68634668D01*
X36414459Y-68408677D01*
X37007045Y-68295636D01*
X37610310Y-68299847D01*
X37610310Y-68299847D01*
G37*
G36*
X21610310Y-68299847D02*
X22201255Y-68421151D01*
X22757398Y-68654932D01*
X23257534Y-68992278D01*
X23682621Y-69420343D01*
X24016466Y-69922821D01*
X24246356Y-70480576D01*
X24363464Y-71072014D01*
X24363464Y-71072024D01*
X24363531Y-71072363D01*
X24353910Y-71761416D01*
X24353833Y-71761754D01*
X24353833Y-71761762D01*
X24220257Y-72349701D01*
X23974885Y-72900816D01*
X23627137Y-73393778D01*
X23190262Y-73809809D01*
X22680900Y-74133061D01*
X22118454Y-74351219D01*
X21524347Y-74455976D01*
X20921203Y-74443342D01*
X20332000Y-74313797D01*
X19779182Y-74072277D01*
X19283807Y-73727982D01*
X18864737Y-73294023D01*
X18537938Y-72786930D01*
X18315856Y-72226014D01*
X18206955Y-71632658D01*
X18215377Y-71029441D01*
X18340806Y-70439347D01*
X18578459Y-69884858D01*
X18919291Y-69387088D01*
X19350312Y-68965000D01*
X19855113Y-68634668D01*
X20414459Y-68408677D01*
X21007045Y-68295636D01*
X21610310Y-68299847D01*
X21610310Y-68299847D01*
G37*
G36*
X29556743Y-68809507D02*
X30049715Y-68910700D01*
X30513656Y-69105723D01*
X30930875Y-69387141D01*
X31285488Y-69744237D01*
X31563985Y-70163410D01*
X31755762Y-70628695D01*
X31853443Y-71122022D01*
X31853443Y-71122032D01*
X31853510Y-71122371D01*
X31845484Y-71697186D01*
X31845407Y-71697524D01*
X31845407Y-71697533D01*
X31733989Y-72187942D01*
X31529298Y-72647687D01*
X31239202Y-73058922D01*
X30874756Y-73405980D01*
X30449842Y-73675639D01*
X29980640Y-73857630D01*
X29485031Y-73945020D01*
X28981881Y-73934480D01*
X28490361Y-73826412D01*
X28029194Y-73624933D01*
X27615947Y-73337719D01*
X27266354Y-72975705D01*
X26993735Y-72552682D01*
X26808471Y-72084759D01*
X26717625Y-71589776D01*
X26724650Y-71086565D01*
X26829285Y-70594302D01*
X27027538Y-70131741D01*
X27311863Y-69716495D01*
X27671426Y-69364385D01*
X28092537Y-69088818D01*
X28559150Y-68900294D01*
X29053491Y-68805994D01*
X29556743Y-68809507D01*
X29556743Y-68809507D01*
G37*
G36*
X29556743Y-60809507D02*
X30049715Y-60910700D01*
X30513656Y-61105723D01*
X30930875Y-61387141D01*
X31285488Y-61744237D01*
X31563985Y-62163410D01*
X31755762Y-62628695D01*
X31853443Y-63122022D01*
X31853443Y-63122032D01*
X31853510Y-63122371D01*
X31845484Y-63697186D01*
X31845407Y-63697524D01*
X31845407Y-63697533D01*
X31733989Y-64187942D01*
X31529298Y-64647687D01*
X31239202Y-65058922D01*
X30874756Y-65405980D01*
X30449842Y-65675639D01*
X29980640Y-65857630D01*
X29485031Y-65945020D01*
X28981881Y-65934480D01*
X28490361Y-65826412D01*
X28029194Y-65624933D01*
X27615947Y-65337719D01*
X27266354Y-64975705D01*
X26993735Y-64552682D01*
X26808471Y-64084759D01*
X26717625Y-63589776D01*
X26724650Y-63086565D01*
X26829285Y-62594302D01*
X27027538Y-62131741D01*
X27311863Y-61716495D01*
X27671426Y-61364385D01*
X28092537Y-61088818D01*
X28559150Y-60900294D01*
X29053491Y-60805994D01*
X29556743Y-60809507D01*
X29556743Y-60809507D01*
G37*
G36*
X37556743Y-60809507D02*
X38049715Y-60910700D01*
X38513656Y-61105723D01*
X38930875Y-61387141D01*
X39285488Y-61744237D01*
X39563985Y-62163410D01*
X39755762Y-62628695D01*
X39853443Y-63122022D01*
X39853443Y-63122032D01*
X39853510Y-63122371D01*
X39845484Y-63697186D01*
X39845407Y-63697524D01*
X39845407Y-63697533D01*
X39733989Y-64187942D01*
X39529298Y-64647687D01*
X39239202Y-65058922D01*
X38874756Y-65405980D01*
X38449842Y-65675639D01*
X37980640Y-65857630D01*
X37485031Y-65945020D01*
X36981881Y-65934480D01*
X36490361Y-65826412D01*
X36029194Y-65624933D01*
X35615947Y-65337719D01*
X35266354Y-64975705D01*
X34993735Y-64552682D01*
X34808471Y-64084759D01*
X34717625Y-63589776D01*
X34724650Y-63086565D01*
X34829285Y-62594302D01*
X35027538Y-62131741D01*
X35311863Y-61716495D01*
X35671426Y-61364385D01*
X36092537Y-61088818D01*
X36559150Y-60900294D01*
X37053491Y-60805994D01*
X37556743Y-60809507D01*
X37556743Y-60809507D01*
G37*
G36*
X21556743Y-60809507D02*
X22049715Y-60910700D01*
X22513656Y-61105723D01*
X22930875Y-61387141D01*
X23285488Y-61744237D01*
X23563985Y-62163410D01*
X23755762Y-62628695D01*
X23853443Y-63122022D01*
X23853443Y-63122032D01*
X23853510Y-63122371D01*
X23845484Y-63697186D01*
X23845407Y-63697524D01*
X23845407Y-63697533D01*
X23733989Y-64187942D01*
X23529298Y-64647687D01*
X23239202Y-65058922D01*
X22874756Y-65405980D01*
X22449842Y-65675639D01*
X21980640Y-65857630D01*
X21485031Y-65945020D01*
X20981881Y-65934480D01*
X20490361Y-65826412D01*
X20029194Y-65624933D01*
X19615947Y-65337719D01*
X19266354Y-64975705D01*
X18993735Y-64552682D01*
X18808471Y-64084759D01*
X18717625Y-63589776D01*
X18724650Y-63086565D01*
X18829285Y-62594302D01*
X19027538Y-62131741D01*
X19311863Y-61716495D01*
X19671426Y-61364385D01*
X20092537Y-61088818D01*
X20559150Y-60900294D01*
X21053491Y-60805994D01*
X21556743Y-60809507D01*
X21556743Y-60809507D01*
G37*
G36*
X21610310Y-52299847D02*
X22201255Y-52421151D01*
X22757398Y-52654932D01*
X23257534Y-52992278D01*
X23682621Y-53420343D01*
X24016466Y-53922821D01*
X24246356Y-54480576D01*
X24363464Y-55072014D01*
X24363464Y-55072024D01*
X24363531Y-55072363D01*
X24353910Y-55761416D01*
X24353833Y-55761754D01*
X24353833Y-55761762D01*
X24220257Y-56349701D01*
X23974885Y-56900816D01*
X23627137Y-57393778D01*
X23190262Y-57809809D01*
X22680900Y-58133061D01*
X22118454Y-58351219D01*
X21524347Y-58455976D01*
X20921203Y-58443342D01*
X20332000Y-58313797D01*
X19779182Y-58072277D01*
X19283807Y-57727982D01*
X18864737Y-57294023D01*
X18537938Y-56786930D01*
X18315856Y-56226014D01*
X18206955Y-55632658D01*
X18215377Y-55029441D01*
X18340806Y-54439347D01*
X18578459Y-53884858D01*
X18919291Y-53387088D01*
X19350312Y-52965000D01*
X19855113Y-52634668D01*
X20414459Y-52408677D01*
X21007045Y-52295636D01*
X21610310Y-52299847D01*
X21610310Y-52299847D01*
G37*
G36*
X37610310Y-52299847D02*
X38201255Y-52421151D01*
X38757398Y-52654932D01*
X39257534Y-52992278D01*
X39682621Y-53420343D01*
X40016466Y-53922821D01*
X40246356Y-54480576D01*
X40363464Y-55072014D01*
X40363464Y-55072024D01*
X40363531Y-55072363D01*
X40353910Y-55761416D01*
X40353833Y-55761754D01*
X40353833Y-55761762D01*
X40220257Y-56349701D01*
X39974885Y-56900816D01*
X39627137Y-57393778D01*
X39190262Y-57809809D01*
X38680900Y-58133061D01*
X38118454Y-58351219D01*
X37524347Y-58455976D01*
X36921203Y-58443342D01*
X36332000Y-58313797D01*
X35779182Y-58072277D01*
X35283807Y-57727982D01*
X34864737Y-57294023D01*
X34537938Y-56786930D01*
X34315856Y-56226014D01*
X34206955Y-55632658D01*
X34215377Y-55029441D01*
X34340806Y-54439347D01*
X34578459Y-53884858D01*
X34919291Y-53387088D01*
X35350312Y-52965000D01*
X35855113Y-52634668D01*
X36414459Y-52408677D01*
X37007045Y-52295636D01*
X37610310Y-52299847D01*
X37610310Y-52299847D01*
G37*
G36*
X29556743Y-52809507D02*
X30049715Y-52910700D01*
X30513656Y-53105723D01*
X30930875Y-53387141D01*
X31285488Y-53744237D01*
X31563985Y-54163410D01*
X31755762Y-54628695D01*
X31853443Y-55122022D01*
X31853443Y-55122032D01*
X31853510Y-55122371D01*
X31845484Y-55697186D01*
X31845407Y-55697524D01*
X31845407Y-55697533D01*
X31733989Y-56187942D01*
X31529298Y-56647687D01*
X31239202Y-57058922D01*
X30874756Y-57405980D01*
X30449842Y-57675639D01*
X29980640Y-57857630D01*
X29485031Y-57945020D01*
X28981881Y-57934480D01*
X28490361Y-57826412D01*
X28029194Y-57624933D01*
X27615947Y-57337719D01*
X27266354Y-56975705D01*
X26993735Y-56552682D01*
X26808471Y-56084759D01*
X26717625Y-55589776D01*
X26724650Y-55086565D01*
X26829285Y-54594302D01*
X27027538Y-54131741D01*
X27311863Y-53716495D01*
X27671426Y-53364385D01*
X28092537Y-53088818D01*
X28559150Y-52900294D01*
X29053491Y-52805994D01*
X29556743Y-52809507D01*
X29556743Y-52809507D01*
G37*
M02*
