%TF.GenerationSoftware,KiCad,Pcbnew,4.0.4+e1-6308~48~ubuntu16.04.1-stable*%
%TF.CreationDate,2016-12-19T13:34:43-08:00*%
%TF.ProjectId,3x3-CR2032-Coin-Cell,3378332D4352323033322D436F696E2D,1.0*%
%TF.FileFunction,Other,Fab,Top*%
%FSLAX46Y46*%
G04 Gerber Fmt 4.6, Leading zero omitted, Abs format (unit mm)*
G04 Created by KiCad (PCBNEW 4.0.4+e1-6308~48~ubuntu16.04.1-stable) date Mon Dec 19 13:34:43 2016*
%MOMM*%
%LPD*%
G01*
G04 APERTURE LIST*
%ADD10C,0.350000*%
%ADD11C,0.050000*%
%ADD12C,0.150000*%
G04 APERTURE END LIST*
D10*
D11*
X133860000Y-110480000D02*
X149860000Y-110480000D01*
X130060000Y-90680000D02*
X130060000Y-106680000D01*
X153660000Y-90680000D02*
X153660000Y-106680000D01*
X133860000Y-86880000D02*
X149860000Y-86880000D01*
X133860000Y-86880000D02*
G75*
G03X130060000Y-90680000I0J-3800000D01*
G01*
X130060000Y-106680000D02*
G75*
G03X133860000Y-110480000I3800000J0D01*
G01*
X149860000Y-110480000D02*
G75*
G03X153660000Y-106680000I0J3800000D01*
G01*
X153660000Y-90680000D02*
G75*
G03X149860000Y-86880000I-3800000J0D01*
G01*
D12*
X141074286Y-98608571D02*
X141217143Y-98656190D01*
X141264762Y-98703810D01*
X141312381Y-98799048D01*
X141312381Y-98941905D01*
X141264762Y-99037143D01*
X141217143Y-99084762D01*
X141121905Y-99132381D01*
X140740952Y-99132381D01*
X140740952Y-98132381D01*
X141074286Y-98132381D01*
X141169524Y-98180000D01*
X141217143Y-98227619D01*
X141264762Y-98322857D01*
X141264762Y-98418095D01*
X141217143Y-98513333D01*
X141169524Y-98560952D01*
X141074286Y-98608571D01*
X140740952Y-98608571D01*
X141598095Y-98132381D02*
X142169524Y-98132381D01*
X141883809Y-99132381D02*
X141883809Y-98132381D01*
X143026667Y-99132381D02*
X142455238Y-99132381D01*
X142740952Y-99132381D02*
X142740952Y-98132381D01*
X142645714Y-98275238D01*
X142550476Y-98370476D01*
X142455238Y-98418095D01*
M02*
