M48
;DRILL file {KiCad 4.0.4+e1-6308~48~ubuntu16.04.1-stable} date Sun Dec 11 21:09:08 2016
;FORMAT={-:-/ absolute / metric / decimal}
FMAT,2
METRIC,TZ
T1C0.500
T2C1.000
T3C1.001
T4C4.980
T5C4.980
%
G90
G05
M71
T1
X148.844Y-93.472
X148.844Y-95.504
X149.86Y-93.472
X149.86Y-95.504
X163.83Y-93.472
X163.83Y-95.504
X164.846Y-93.472
X164.846Y-95.504
X169.291Y-88.9
X169.291Y-89.916
X169.291Y-113.284
X169.291Y-114.3
X171.323Y-88.9
X171.323Y-89.916
X171.323Y-113.284
X171.323Y-114.3
X178.562Y-101.092
X178.562Y-103.124
X179.578Y-101.092
X179.578Y-103.124
T2
X154.291Y-87.457
X154.291Y-91.457
X160.291Y-87.457
X160.291Y-91.457
T3
X179.387Y-91.487
X179.387Y-94.027
T4
X149.297Y-89.442
X149.301Y-99.568
X149.301Y-107.568
X149.301Y-115.568
X157.301Y-99.568
X157.301Y-107.568
X157.301Y-115.568
X165.297Y-89.442
X165.301Y-99.568
X165.301Y-107.568
X165.301Y-115.568
X175.387Y-89.027
X175.387Y-97.027
X183.387Y-89.027
X183.387Y-97.027
T5
X157.297Y-89.442
T0
M30
