%TF.GenerationSoftware,KiCad,Pcbnew,4.0.4+e1-6308~48~ubuntu14.04.1-stable*%
%TF.CreationDate,2016-11-18T09:45:06-08:00*%
%TF.ProjectId,LegoLED-Button-Battery,4C65676F4C45442D427574746F6E2D42,rev?*%
%TF.FileFunction,Copper,L2,Bot,Signal*%
%FSLAX46Y46*%
G04 Gerber Fmt 4.6, Leading zero omitted, Abs format (unit mm)*
G04 Created by KiCad (PCBNEW 4.0.4+e1-6308~48~ubuntu14.04.1-stable) date Fri Nov 18 09:45:06 2016*
%MOMM*%
%LPD*%
G01*
G04 APERTURE LIST*
%ADD10C,0.350000*%
%ADD11C,2.000000*%
%ADD12C,5.000000*%
%ADD13C,1.700000*%
%ADD14C,4.880000*%
%ADD15C,6.000000*%
%ADD16R,2.000000X1.900000*%
%ADD17C,1.900000*%
%ADD18C,0.500000*%
%ADD19C,0.350000*%
G04 APERTURE END LIST*
D10*
D11*
X154230600Y-87425800D02*
X149280600Y-87425800D01*
X165280600Y-91425800D02*
X160330600Y-91425800D01*
X179387000Y-94227000D02*
X179387000Y-95327000D01*
D12*
X175387000Y-97027000D02*
X183387000Y-97027000D01*
X175387000Y-89027000D02*
X183387000Y-89027000D01*
D11*
X179387000Y-90377000D02*
X179387000Y-91477000D01*
D12*
X157301200Y-115568000D02*
X157301200Y-99568000D01*
X165301200Y-115568000D02*
X157301200Y-115568000D01*
X165301200Y-99568000D02*
X157301200Y-99568000D01*
X149301200Y-99568000D02*
X149301200Y-115568000D01*
D13*
X160274000Y-91440000D03*
X154274000Y-91440000D03*
X160274000Y-87440000D03*
X154274000Y-87440000D03*
D14*
X157280600Y-89425800D03*
D15*
X149280600Y-89425800D03*
X165280600Y-89425800D03*
D16*
X179387000Y-94027000D03*
D17*
X179387000Y-91487000D03*
D15*
X183387000Y-89027000D03*
X183387000Y-97027000D03*
X175387000Y-97027000D03*
X175387000Y-89027000D03*
D18*
X169291000Y-89916000D03*
X169291000Y-88900000D03*
X171323000Y-88900000D03*
X171323000Y-89916000D03*
X179578000Y-103124000D03*
X178562000Y-103124000D03*
X178562000Y-101092000D03*
X179578000Y-101092000D03*
X171323000Y-113284000D03*
X171323000Y-114300000D03*
X169291000Y-114300000D03*
X169291000Y-113284000D03*
X163830000Y-93472000D03*
X164846000Y-93472000D03*
X164846000Y-95504000D03*
X163830000Y-95504000D03*
D15*
X157301200Y-107568000D03*
X165301200Y-107568000D03*
X149301200Y-107568000D03*
X165301200Y-115568000D03*
X157301200Y-115568000D03*
X149301200Y-115568000D03*
X165301200Y-99568000D03*
X157301200Y-99568000D03*
X149301200Y-99568000D03*
D18*
X148844000Y-93472000D03*
X149860000Y-93472000D03*
X149860000Y-95504000D03*
X148844000Y-95504000D03*
D19*
X160274000Y-91440000D03*
X154274000Y-91440000D03*
X160274000Y-87440000D03*
X154274000Y-87440000D03*
X157280600Y-89425800D03*
X149280600Y-89425800D03*
X165280600Y-89425800D03*
X179387000Y-94027000D03*
X179387000Y-91487000D03*
X183387000Y-89027000D03*
X183387000Y-97027000D03*
X175387000Y-97027000D03*
X175387000Y-89027000D03*
X169291000Y-89916000D03*
X169291000Y-88900000D03*
X171323000Y-88900000D03*
X171323000Y-89916000D03*
X179578000Y-103124000D03*
X178562000Y-103124000D03*
X178562000Y-101092000D03*
X179578000Y-101092000D03*
X171323000Y-113284000D03*
X171323000Y-114300000D03*
X169291000Y-114300000D03*
X169291000Y-113284000D03*
X163830000Y-93472000D03*
X164846000Y-93472000D03*
X164846000Y-95504000D03*
X163830000Y-95504000D03*
X157301200Y-107568000D03*
X165301200Y-107568000D03*
X149301200Y-107568000D03*
X165301200Y-115568000D03*
X157301200Y-115568000D03*
X149301200Y-115568000D03*
X165301200Y-99568000D03*
X157301200Y-99568000D03*
X149301200Y-99568000D03*
X148844000Y-93472000D03*
X149860000Y-93472000D03*
X149860000Y-95504000D03*
X148844000Y-95504000D03*
M02*
