<?xml version="1.0" standalone="no"?>
 <!DOCTYPE svg PUBLIC "-//W3C//DTD SVG 1.1//EN" 
 "http://www.w3.org/Graphics/SVG/1.1/DTD/svg11.dtd"> 
<svg xmlns="http://www.w3.org/2000/svg" version="1.1" 
    width="27.94cm" height="21.59cm" viewBox="0 0 110000 85000 ">
<title>SVG Picture created as LegoLED-Button-Battery-Assembly.svg date 2016/11/18 09:45:06 </title>
  <desc>Picture generated by PCBNEW </desc>
<g style="fill:#000000; fill-opacity:1;stroke:#000000; stroke-opacity:1;
stroke-linecap:round; stroke-linejoin:round; "
 transform="translate(0 0) scale(1 1)">
</g>
<g style="fill:#000000; fill-opacity:0.0; 
stroke:#000000; stroke-width:-0.000393701; stroke-opacity:1; 
stroke-linecap:round; stroke-linejoin:round;">
</g>
<g style="fill:#000000; fill-opacity:0.0; 
stroke:#000000; stroke-width:60; stroke-opacity:1; 
stroke-linecap:round; stroke-linejoin:round;">
<path d="M68070 48050
L67937 47860
" />
<path d="M67841 48050
L67841 47650
L67994 47650
L68032 47670
L68051 47689
L68070 47727
L68070 47784
L68051 47822
L68032 47841
L67994 47860
L67841 47860
" />
<path d="M68394 48031
L68356 48050
L68280 48050
L68241 48031
L68222 47993
L68222 47841
L68241 47803
L68280 47784
L68356 47784
L68394 47803
L68413 47841
L68413 47879
L68222 47917
" />
<path d="M68546 47784
L68622 48050
L68699 47860
L68775 48050
L68851 47784
" />
<path d="M69003 48050
L69003 47784
" />
<path d="M69003 47650
L68984 47670
L69003 47689
L69022 47670
L69003 47650
L69003 47689
" />
<path d="M69194 48050
L69194 47784
" />
<path d="M69194 47860
L69213 47822
L69232 47803
L69270 47784
L69308 47784
" />
<path d="M69594 48031
L69556 48050
L69480 48050
L69441 48031
L69422 47993
L69422 47841
L69441 47803
L69480 47784
L69556 47784
L69594 47803
L69613 47841
L69613 47879
L69422 47917
" />
<path d="M70318 48012
L70299 48031
L70241 48050
L70203 48050
L70146 48031
L70108 47993
L70089 47955
L70070 47879
L70070 47822
L70089 47746
L70108 47708
L70146 47670
L70203 47650
L70241 47650
L70299 47670
L70318 47689
" />
<path d="M70489 48050
L70489 47784
" />
<path d="M70489 47650
L70470 47670
L70489 47689
L70508 47670
L70489 47650
L70489 47689
" />
<path d="M70680 48050
L70680 47784
" />
<path d="M70680 47860
L70699 47822
L70718 47803
L70756 47784
L70794 47784
" />
<path d="M71099 48031
L71060 48050
L70984 48050
L70946 48031
L70927 48012
L70908 47974
L70908 47860
L70927 47822
L70946 47803
L70984 47784
L71060 47784
L71099 47803
" />
<path d="M71441 47784
L71441 48050
" />
<path d="M71270 47784
L71270 47993
L71289 48031
L71327 48050
L71384 48050
L71422 48031
L71441 48012
" />
<path d="M71632 48050
L71632 47784
" />
<path d="M71632 47650
L71613 47670
L71632 47689
L71651 47670
L71632 47650
L71632 47689
" />
<path d="M71765 47784
L71918 47784
" />
<path d="M71822 47650
L71822 47993
L71841 48031
L71880 48050
L71918 48050
" />
<path d="M72356 48050
L72356 47650
" />
<path d="M72584 48050
L72413 47822
" />
<path d="M72584 47650
L72356 47879
" />
<path d="M72756 48050
L72756 47784
" />
<path d="M72756 47650
L72737 47670
L72756 47689
L72775 47670
L72756 47650
L72756 47689
" />
<path d="M72889 47784
L73041 47784
" />
<path d="M72946 47650
L72946 47993
L72965 48031
L73003 48050
L73041 48050
" />
<path d="M70260 48710
L70032 48710
" />
<path d="M70146 48710
L70146 48310
L70108 48368
L70070 48406
L70032 48425
" />
<path d="M70641 48710
L70413 48710
" />
<path d="M70527 48710
L70527 48310
L70489 48368
L70451 48406
L70413 48425
" />
<path d="M71099 48291
L70756 48806
" />
<path d="M71441 48710
L71213 48710
" />
<path d="M71327 48710
L71327 48310
L71289 48368
L71251 48406
L71213 48425
" />
<path d="M71670 48482
L71632 48463
L71613 48444
L71594 48406
L71594 48387
L71613 48349
L71632 48330
L71670 48310
L71746 48310
L71784 48330
L71803 48349
L71822 48387
L71822 48406
L71803 48444
L71784 48463
L71746 48482
L71670 48482
L71632 48501
L71613 48520
L71594 48558
L71594 48634
L71613 48672
L71632 48691
L71670 48710
L71746 48710
L71784 48691
L71803 48672
L71822 48634
L71822 48558
L71803 48520
L71784 48501
L71746 48482
" />
<path d="M72280 48291
L71937 48806
" />
<path d="M72622 48710
L72394 48710
" />
<path d="M72508 48710
L72508 48310
L72470 48368
L72432 48406
L72394 48425
" />
<path d="M72965 48310
L72889 48310
L72851 48330
L72832 48349
L72794 48406
L72775 48482
L72775 48634
L72794 48672
L72813 48691
L72851 48710
L72927 48710
L72965 48691
L72984 48672
L73003 48634
L73003 48539
L72984 48501
L72965 48482
L72927 48463
L72851 48463
L72813 48482
L72794 48501
L72775 48539
" />
<path d="M66680 31896
L66870 31896
" />
<path d="M66641 32010
L66775 31610
L66908 32010
" />
<path d="M67022 31991
L67060 32010
L67137 32010
L67175 31991
L67194 31953
L67194 31934
L67175 31896
L67137 31877
L67080 31877
L67041 31858
L67022 31820
L67022 31801
L67041 31763
L67080 31744
L67137 31744
L67175 31763
" />
<path d="M67346 31991
L67384 32010
L67460 32010
L67499 31991
L67518 31953
L67518 31934
L67499 31896
L67460 31877
L67403 31877
L67365 31858
L67346 31820
L67346 31801
L67365 31763
L67403 31744
L67460 31744
L67499 31763
" />
<path d="M67841 31991
L67803 32010
L67727 32010
L67689 31991
L67670 31953
L67670 31801
L67689 31763
L67727 31744
L67803 31744
L67841 31763
L67860 31801
L67860 31839
L67670 31877
" />
<path d="M68032 32010
L68032 31744
" />
<path d="M68032 31782
L68051 31763
L68089 31744
L68146 31744
L68184 31763
L68203 31801
L68203 32010
" />
<path d="M68203 31801
L68222 31763
L68260 31744
L68318 31744
L68356 31763
L68375 31801
L68375 32010
" />
<path d="M68565 32010
L68565 31610
" />
<path d="M68565 31763
L68603 31744
L68680 31744
L68718 31763
L68737 31782
L68756 31820
L68756 31934
L68737 31972
L68718 31991
L68680 32010
L68603 32010
L68565 31991
" />
<path d="M68984 32010
L68946 31991
L68927 31953
L68927 31610
" />
<path d="M69099 31744
L69194 32010
" />
<path d="M69289 31744
L69194 32010
L69156 32106
L69137 32125
L69099 32144
" />
<path d="M69746 32010
L69746 31610
" />
<path d="M69937 31744
L69937 32010
" />
<path d="M69937 31782
L69956 31763
L69994 31744
L70051 31744
L70089 31763
L70108 31801
L70108 32010
" />
<path d="M70241 31744
L70394 31744
" />
<path d="M70299 32010
L70299 31668
L70318 31630
L70356 31610
L70394 31610
" />
<path d="M70584 32010
L70546 31991
L70527 31972
L70508 31934
L70508 31820
L70527 31782
L70546 31763
L70584 31744
L70641 31744
L70680 31763
L70699 31782
L70718 31820
L70718 31934
L70699 31972
L70680 31991
L70641 32010
L70584 32010
" />
<path d="M70889 32010
L70889 31744
" />
<path d="M70889 31820
L70908 31782
L70927 31763
L70965 31744
L71003 31744
" />
<path d="M71137 32010
L71137 31744
" />
<path d="M71137 31782
L71156 31763
L71194 31744
L71251 31744
L71289 31763
L71308 31801
L71308 32010
" />
<path d="M71308 31801
L71327 31763
L71365 31744
L71422 31744
L71460 31763
L71480 31801
L71480 32010
" />
<path d="M71841 32010
L71841 31801
L71822 31763
L71784 31744
L71708 31744
L71670 31763
" />
<path d="M71841 31991
L71803 32010
L71708 32010
L71670 31991
L71651 31953
L71651 31915
L71670 31877
L71708 31858
L71803 31858
L71841 31839
" />
<path d="M71975 31744
L72127 31744
" />
<path d="M72032 31610
L72032 31953
L72051 31991
L72089 32010
L72127 32010
" />
<path d="M72260 32010
L72260 31744
" />
<path d="M72260 31610
L72241 31630
L72260 31649
L72280 31630
L72260 31610
L72260 31649
" />
<path d="M72508 32010
L72470 31991
L72451 31972
L72432 31934
L72432 31820
L72451 31782
L72470 31763
L72508 31744
L72565 31744
L72603 31763
L72622 31782
L72641 31820
L72641 31934
L72622 31972
L72603 31991
L72565 32010
L72508 32010
" />
<path d="M72813 31744
L72813 32010
" />
<path d="M72813 31782
L72832 31763
L72870 31744
L72927 31744
L72965 31763
L72984 31801
L72984 32010
" />
<path d="M64280 32670
L64089 32670
L64089 32270
" />
<path d="M64565 32651
L64527 32670
L64451 32670
L64413 32651
L64394 32613
L64394 32461
L64413 32423
L64451 32404
L64527 32404
L64565 32423
L64584 32461
L64584 32499
L64394 32537
" />
<path d="M64927 32404
L64927 32728
L64908 32766
L64889 32785
L64851 32804
L64794 32804
L64756 32785
" />
<path d="M64927 32651
L64889 32670
L64813 32670
L64775 32651
L64756 32632
L64737 32594
L64737 32480
L64756 32442
L64775 32423
L64813 32404
L64889 32404
L64927 32423
" />
<path d="M65175 32670
L65137 32651
L65118 32632
L65099 32594
L65099 32480
L65118 32442
L65137 32423
L65175 32404
L65232 32404
L65270 32423
L65289 32442
L65308 32480
L65308 32594
L65289 32632
L65270 32651
L65232 32670
L65175 32670
" />
<path d="M65670 32670
L65480 32670
L65480 32270
" />
<path d="M65803 32461
L65937 32461
" />
<path d="M65994 32670
L65803 32670
L65803 32270
L65994 32270
" />
<path d="M66165 32670
L66165 32270
L66260 32270
L66318 32290
L66356 32328
L66375 32366
L66394 32442
L66394 32499
L66375 32575
L66356 32613
L66318 32651
L66260 32670
L66165 32670
" />
<path d="M66565 32518
L66870 32518
" />
<path d="M67194 32461
L67251 32480
L67270 32499
L67289 32537
L67289 32594
L67270 32632
L67251 32651
L67213 32670
L67060 32670
L67060 32270
L67194 32270
L67232 32290
L67251 32309
L67270 32347
L67270 32385
L67251 32423
L67232 32442
L67194 32461
L67060 32461
" />
<path d="M67632 32404
L67632 32670
" />
<path d="M67460 32404
L67460 32613
L67480 32651
L67518 32670
L67575 32670
L67613 32651
L67632 32632
" />
<path d="M67765 32404
L67918 32404
" />
<path d="M67822 32270
L67822 32613
L67841 32651
L67880 32670
L67918 32670
" />
<path d="M67994 32404
L68146 32404
" />
<path d="M68051 32270
L68051 32613
L68070 32651
L68108 32670
L68146 32670
" />
<path d="M68337 32670
L68299 32651
L68280 32632
L68260 32594
L68260 32480
L68280 32442
L68299 32423
L68337 32404
L68394 32404
L68432 32423
L68451 32442
L68470 32480
L68470 32594
L68451 32632
L68432 32651
L68394 32670
L68337 32670
" />
<path d="M68641 32404
L68641 32670
" />
<path d="M68641 32442
L68660 32423
L68699 32404
L68756 32404
L68794 32423
L68813 32461
L68813 32670
" />
<path d="M69003 32518
L69308 32518
" />
<path d="M69632 32461
L69689 32480
L69708 32499
L69727 32537
L69727 32594
L69708 32632
L69689 32651
L69651 32670
L69499 32670
L69499 32270
L69632 32270
L69670 32290
L69689 32309
L69708 32347
L69708 32385
L69689 32423
L69670 32442
L69632 32461
L69499 32461
" />
<path d="M70070 32670
L70070 32461
L70051 32423
L70013 32404
L69937 32404
L69899 32423
" />
<path d="M70070 32651
L70032 32670
L69937 32670
L69899 32651
L69880 32613
L69880 32575
L69899 32537
L69937 32518
L70032 32518
L70070 32499
" />
<path d="M70203 32404
L70356 32404
" />
<path d="M70260 32270
L70260 32613
L70280 32651
L70318 32670
L70356 32670
" />
<path d="M70432 32404
L70584 32404
" />
<path d="M70489 32270
L70489 32613
L70508 32651
L70546 32670
L70584 32670
" />
<path d="M70870 32651
L70832 32670
L70756 32670
L70718 32651
L70699 32613
L70699 32461
L70718 32423
L70756 32404
L70832 32404
L70870 32423
L70889 32461
L70889 32499
L70699 32537
" />
<path d="M71060 32670
L71060 32404
" />
<path d="M71060 32480
L71080 32442
L71099 32423
L71137 32404
L71175 32404
" />
<path d="M71270 32404
L71365 32670
" />
<path d="M71460 32404
L71365 32670
L71327 32766
L71308 32785
L71270 32804
" />
<path d="M71880 32404
L71975 32670
L72070 32404
" />
<path d="M72432 32670
L72203 32670
" />
<path d="M72318 32670
L72318 32270
L72280 32328
L72241 32366
L72203 32385
" />
<path d="M72603 32632
L72622 32651
L72603 32670
L72584 32651
L72603 32632
L72603 32670
" />
<path d="M72756 32270
L73003 32270
L72870 32423
L72927 32423
L72965 32442
L72984 32461
L73003 32499
L73003 32594
L72984 32632
L72965 32651
L72927 32670
L72813 32670
L72775 32651
L72756 32632
" />
</g>
<g style="fill:#000000; fill-opacity:0.0; 
stroke:#000000; stroke-width:19.685; stroke-opacity:1; 
stroke-linecap:round; stroke-linejoin:round;">
<path d="M67527.7 45378.7 A1576.6 1576.6 0.0 0 0 69025.2 46870.9 " />
<path d="M73670 42225
L73670 45374
" />
<path d="M69025 40729
L72174 40729
" />
<path d="M69025 46870
L72174 46870
" />
<path d="M67529 42225
L67529 45374
" />
<path d="M72178.7 46872.3 A1576.6 1576.6 0.0 0 0 73670.9 45374.8 " />
<path d="M69021.3 40727.7 A1576.6 1576.6 0.0 0 0 67529.1 42225.2 " />
<path d="M73672.3 42221.3 A1576.6 1576.6 0.0 0 0 72174.8 40729.1 " />
<path d="M65071 36703
L58771 36703
" />
<path d="M58771 33710
L65071 33710
" />
<path d="M58771.9 33710.9 A1496.06 1496.06 0.0 0 0 58771.9 36703.1 " />
<path d="M65071.1 36703.1 A1496.06 1496.06 0.0 0 0 65071.1 33710.9 " />
<path d="M73697.1 35046.1 A1576.6 1576.6 0.0 0 0 72199.6 33553.9 " />
<path d="M67553 38199
L67553 35050
" />
<path d="M72199 39695
L69050 39695
" />
<path d="M72199 33553
L69050 33553
" />
<path d="M73695 38199
L73695 35050
" />
<path d="M69046.1 33552.5 A1576.6 1576.6 0.0 0 0 67553.9 35050 " />
<path d="M72203.5 39697.1 A1576.6 1576.6 0.0 0 0 73695.7 38199.6 " />
<path d="M67552.5 38203.5 A1576.6 1576.6 0.0 0 0 69050 39695.7 " />
</g>
<g style="fill:#000000; fill-opacity:0.0; 
stroke:#000000; stroke-width:60; stroke-opacity:1; 
stroke-linecap:round; stroke-linejoin:round;">
<path d="M67550 35500
L66550 35500
" />
<path d="M67550 34900
L66550 34900
" />
<path d="M70800 39700
L70800 40700
" />
<path d="M70200 39700
L70200 40700
" />
<path d="M66550 44500
L67550 44500
" />
<path d="M66550 45100
L67550 45100
" />
<path d="M64400 37700
L64400 36700
" />
<path d="M65000 37700
L65000 36700
" />
</g>
<g style="fill:#000000; fill-opacity:0.0; 
stroke:#000000; stroke-width:19.685; stroke-opacity:1; 
stroke-linecap:round; stroke-linejoin:round;">
<path d="M65079 37703
L58780 37703
" />
<path d="M66575 45499
L66575 39200
" />
<path d="M57283 45499
L57283 39200
" />
<path d="M65079 46995
L58780 46995
" />
<path d="M65079.2 46995.3 A1496.06 1496.06 0.0 0 0 66575.3 45499.2 " />
<path d="M66575.3 39200 A1496.06 1496.06 0.0 0 0 65079.2 37703.9 " />
<path d="M58780 37703.9 A1496.06 1496.06 0.0 0 0 57283.9 39200 " />
<path d="M57283.9 45499.2 A1496.06 1496.06 0.0 0 0 58780 46995.3 " />
</g>
<g style="fill:#000000; fill-opacity:0.0; 
stroke:#000000; stroke-width:16; stroke-opacity:1; 
stroke-linecap:round; stroke-linejoin:round;">
<path d="M58500 37700
L58500 36700
" />
<path d="M59100 37700
L59100 36700
" />
</g>
<g style="fill:#000000; fill-opacity:0.0; 
stroke:#000000; stroke-width:59.0551; stroke-opacity:1; 
stroke-linecap:round; stroke-linejoin:round;">
<path d="M70112 43978
L69925 43978
L69925 43584
" />
<path d="M70318 43584
L70393 43584
L70431 43603
L70468 43640
L70487 43715
L70487 43846
L70468 43921
L70431 43959
L70393 43978
L70318 43978
L70281 43959
L70243 43921
L70225 43846
L70225 43715
L70243 43640
L70281 43603
L70318 43584
" />
<path d="M70862 43603
L70824 43584
L70768 43584
L70712 43603
L70674 43640
L70656 43678
L70637 43753
L70637 43809
L70656 43884
L70674 43921
L70712 43959
L70768 43978
L70806 43978
L70862 43959
L70881 43940
L70881 43809
L70806 43809
" />
<path d="M71124 43584
L71199 43584
L71237 43603
L71274 43640
L71293 43715
L71293 43846
L71274 43921
L71237 43959
L71199 43978
L71124 43978
L71087 43959
L71049 43921
L71031 43846
L71031 43715
L71049 43640
L71087 43603
L71124 43584
" />
<path d="M61416 35425
L61472 35444
L61566 35444
L61603 35425
L61622 35406
L61641 35369
L61641 35331
L61622 35294
L61603 35275
L61566 35256
L61491 35237
L61453 35219
L61434 35200
L61416 35162
L61416 35125
L61434 35087
L61453 35069
L61491 35050
L61584 35050
L61641 35069
" />
<path d="M61772 35050
L61866 35444
L61941 35162
L62016 35444
L62109 35050
" />
<path d="M62466 35444
L62241 35444
" />
<path d="M62353 35444
L62353 35050
L62316 35106
L62278 35144
L62241 35162
" />
<path d="M70184 36802
L69996 36802
L69996 36409
" />
<path d="M70315 36596
L70446 36596
" />
<path d="M70502 36802
L70315 36802
L70315 36409
L70502 36409
" />
<path d="M70671 36802
L70671 36409
L70765 36409
L70821 36427
L70859 36465
L70877 36502
L70896 36577
L70896 36634
L70877 36709
L70859 36746
L70821 36784
L70765 36802
L70671 36802
" />
<path d="M71271 36802
L71046 36802
" />
<path d="M71159 36802
L71159 36409
L71121 36465
L71084 36502
L71046 36521
" />
<path d="M61620 42321
L61676 42340
L61695 42358
L61714 42396
L61714 42452
L61695 42490
L61676 42508
L61639 42527
L61489 42527
L61489 42134
L61620 42134
L61657 42152
L61676 42171
L61695 42208
L61695 42246
L61676 42283
L61657 42302
L61620 42321
L61489 42321
" />
<path d="M61826 42134
L62051 42134
" />
<path d="M61938 42527
L61938 42134
" />
<path d="M62388 42527
L62163 42527
" />
<path d="M62276 42527
L62276 42134
L62238 42190
L62201 42227
L62163 42246
" />
</g> 
</svg>
