%TF.GenerationSoftware,KiCad,Pcbnew,4.0.4+e1-6308~48~ubuntu14.04.1-stable*%
%TF.CreationDate,2016-11-18T09:45:06-08:00*%
%TF.ProjectId,LegoLED-Button-Battery,4C65676F4C45442D427574746F6E2D42,rev?*%
%TF.FileFunction,Soldermask,Top*%
%FSLAX46Y46*%
G04 Gerber Fmt 4.6, Leading zero omitted, Abs format (unit mm)*
G04 Created by KiCad (PCBNEW 4.0.4+e1-6308~48~ubuntu14.04.1-stable) date Fri Nov 18 09:45:06 2016*
%MOMM*%
%LPD*%
G01*
G04 APERTURE LIST*
%ADD10C,0.350000*%
G04 APERTURE END LIST*
D10*
G36*
X165624310Y-112493847D02*
X166215255Y-112615151D01*
X166771398Y-112848932D01*
X167271534Y-113186278D01*
X167696621Y-113614343D01*
X168030466Y-114116821D01*
X168260356Y-114674576D01*
X168377464Y-115266014D01*
X168377464Y-115266024D01*
X168377531Y-115266363D01*
X168367910Y-115955416D01*
X168367833Y-115955754D01*
X168367833Y-115955762D01*
X168234257Y-116543701D01*
X167988885Y-117094816D01*
X167641137Y-117587778D01*
X167204262Y-118003809D01*
X166694900Y-118327061D01*
X166132454Y-118545219D01*
X165538347Y-118649976D01*
X164935203Y-118637342D01*
X164346000Y-118507797D01*
X163793182Y-118266277D01*
X163297807Y-117921982D01*
X162878737Y-117488023D01*
X162551938Y-116980930D01*
X162329856Y-116420014D01*
X162220955Y-115826658D01*
X162229377Y-115223441D01*
X162354806Y-114633347D01*
X162592459Y-114078858D01*
X162933291Y-113581088D01*
X163364312Y-113159000D01*
X163869113Y-112828668D01*
X164428459Y-112602677D01*
X165021045Y-112489636D01*
X165624310Y-112493847D01*
X165624310Y-112493847D01*
G37*
G36*
X149624310Y-112493847D02*
X150215255Y-112615151D01*
X150771398Y-112848932D01*
X151271534Y-113186278D01*
X151696621Y-113614343D01*
X152030466Y-114116821D01*
X152260356Y-114674576D01*
X152377464Y-115266014D01*
X152377464Y-115266024D01*
X152377531Y-115266363D01*
X152367910Y-115955416D01*
X152367833Y-115955754D01*
X152367833Y-115955762D01*
X152234257Y-116543701D01*
X151988885Y-117094816D01*
X151641137Y-117587778D01*
X151204262Y-118003809D01*
X150694900Y-118327061D01*
X150132454Y-118545219D01*
X149538347Y-118649976D01*
X148935203Y-118637342D01*
X148346000Y-118507797D01*
X147793182Y-118266277D01*
X147297807Y-117921982D01*
X146878737Y-117488023D01*
X146551938Y-116980930D01*
X146329856Y-116420014D01*
X146220955Y-115826658D01*
X146229377Y-115223441D01*
X146354806Y-114633347D01*
X146592459Y-114078858D01*
X146933291Y-113581088D01*
X147364312Y-113159000D01*
X147869113Y-112828668D01*
X148428459Y-112602677D01*
X149021045Y-112489636D01*
X149624310Y-112493847D01*
X149624310Y-112493847D01*
G37*
G36*
X157624310Y-96493847D02*
X158215255Y-96615151D01*
X158771398Y-96848932D01*
X159271534Y-97186278D01*
X159696621Y-97614343D01*
X160030466Y-98116821D01*
X160260356Y-98674576D01*
X160377464Y-99266014D01*
X160377464Y-99266024D01*
X160377531Y-99266363D01*
X160367910Y-99955416D01*
X160367833Y-99955754D01*
X160367833Y-99955762D01*
X160295135Y-100275745D01*
X160293961Y-100289992D01*
X160296802Y-100304001D01*
X160303434Y-100316665D01*
X160313331Y-100326979D01*
X160325710Y-100334128D01*
X160344673Y-100337800D01*
X161881400Y-100337800D01*
X161881400Y-114290200D01*
X160177812Y-114290200D01*
X160163659Y-114292211D01*
X160150628Y-114298086D01*
X160139748Y-114307358D01*
X160131883Y-114319294D01*
X160127654Y-114332949D01*
X160127397Y-114347242D01*
X160130845Y-114360358D01*
X160260356Y-114674576D01*
X160377464Y-115266014D01*
X160377464Y-115266024D01*
X160377531Y-115266363D01*
X160367910Y-115955416D01*
X160367833Y-115955754D01*
X160367833Y-115955762D01*
X160234257Y-116543701D01*
X159988885Y-117094816D01*
X159641137Y-117587778D01*
X159204262Y-118003809D01*
X158694900Y-118327061D01*
X158132454Y-118545219D01*
X157538347Y-118649976D01*
X156935203Y-118637342D01*
X156346000Y-118507797D01*
X155793182Y-118266277D01*
X155297807Y-117921982D01*
X154878737Y-117488023D01*
X154551938Y-116980930D01*
X154329856Y-116420014D01*
X154220955Y-115826658D01*
X154229377Y-115223441D01*
X154354806Y-114633347D01*
X154471528Y-114361012D01*
X154475255Y-114347212D01*
X154474989Y-114332920D01*
X154470752Y-114319267D01*
X154462880Y-114307335D01*
X154451995Y-114298069D01*
X154438960Y-114292203D01*
X154424836Y-114290200D01*
X152729000Y-114290200D01*
X152729000Y-100337800D01*
X154253795Y-100337800D01*
X154267948Y-100335789D01*
X154280979Y-100329914D01*
X154291859Y-100320642D01*
X154299724Y-100308706D01*
X154303953Y-100295051D01*
X154303760Y-100277830D01*
X154220955Y-99826658D01*
X154229377Y-99223441D01*
X154354806Y-98633347D01*
X154592459Y-98078858D01*
X154933291Y-97581088D01*
X155364312Y-97159000D01*
X155869113Y-96828668D01*
X156428459Y-96602677D01*
X157021045Y-96489636D01*
X157624310Y-96493847D01*
X157624310Y-96493847D01*
G37*
G36*
X149624310Y-104493847D02*
X150215255Y-104615151D01*
X150771398Y-104848932D01*
X151271534Y-105186278D01*
X151696621Y-105614343D01*
X152030466Y-106116821D01*
X152260356Y-106674576D01*
X152377464Y-107266014D01*
X152377464Y-107266024D01*
X152377531Y-107266363D01*
X152367910Y-107955416D01*
X152367833Y-107955754D01*
X152367833Y-107955762D01*
X152234257Y-108543701D01*
X151988885Y-109094816D01*
X151641137Y-109587778D01*
X151204262Y-110003809D01*
X150694900Y-110327061D01*
X150132454Y-110545219D01*
X149538347Y-110649976D01*
X148935203Y-110637342D01*
X148346000Y-110507797D01*
X148164379Y-110428449D01*
X148144041Y-110424200D01*
X145725000Y-110424200D01*
X145725000Y-104711800D01*
X148148496Y-104711800D01*
X148167526Y-104708101D01*
X148428459Y-104602677D01*
X149021045Y-104489636D01*
X149624310Y-104493847D01*
X149624310Y-104493847D01*
G37*
G36*
X165624310Y-104493847D02*
X166215255Y-104615151D01*
X166435733Y-104707831D01*
X166455419Y-104711800D01*
X168877400Y-104711800D01*
X168877400Y-110424200D01*
X166453967Y-110424200D01*
X166435597Y-110427638D01*
X166132454Y-110545219D01*
X165538347Y-110649976D01*
X164935203Y-110637342D01*
X164346000Y-110507797D01*
X163793182Y-110266277D01*
X163297807Y-109921982D01*
X162878737Y-109488023D01*
X162551938Y-108980930D01*
X162329856Y-108420014D01*
X162220955Y-107826658D01*
X162229377Y-107223441D01*
X162354806Y-106633347D01*
X162592459Y-106078858D01*
X162933291Y-105581088D01*
X163364312Y-105159000D01*
X163869113Y-104828668D01*
X164428459Y-104602677D01*
X165021045Y-104489636D01*
X165624310Y-104493847D01*
X165624310Y-104493847D01*
G37*
G36*
X165624310Y-96493847D02*
X166215255Y-96615151D01*
X166771398Y-96848932D01*
X167271534Y-97186278D01*
X167696621Y-97614343D01*
X168030466Y-98116821D01*
X168260356Y-98674576D01*
X168377464Y-99266014D01*
X168377464Y-99266024D01*
X168377531Y-99266363D01*
X168367910Y-99955416D01*
X168367833Y-99955754D01*
X168367833Y-99955762D01*
X168234257Y-100543701D01*
X167988885Y-101094816D01*
X167641137Y-101587778D01*
X167204262Y-102003809D01*
X166694900Y-102327061D01*
X166132454Y-102545219D01*
X165538347Y-102649976D01*
X164935203Y-102637342D01*
X164346000Y-102507797D01*
X163793182Y-102266277D01*
X163297807Y-101921982D01*
X162878737Y-101488023D01*
X162551938Y-100980930D01*
X162329856Y-100420014D01*
X162220955Y-99826658D01*
X162229377Y-99223441D01*
X162354806Y-98633347D01*
X162592459Y-98078858D01*
X162933291Y-97581088D01*
X163364312Y-97159000D01*
X163869113Y-96828668D01*
X164428459Y-96602677D01*
X165021045Y-96489636D01*
X165624310Y-96493847D01*
X165624310Y-96493847D01*
G37*
G36*
X149624310Y-96493847D02*
X150215255Y-96615151D01*
X150771398Y-96848932D01*
X151271534Y-97186278D01*
X151696621Y-97614343D01*
X152030466Y-98116821D01*
X152260356Y-98674576D01*
X152377464Y-99266014D01*
X152377464Y-99266024D01*
X152377531Y-99266363D01*
X152367910Y-99955416D01*
X152367833Y-99955754D01*
X152367833Y-99955762D01*
X152234257Y-100543701D01*
X151988885Y-101094816D01*
X151641137Y-101587778D01*
X151204262Y-102003809D01*
X150694900Y-102327061D01*
X150132454Y-102545219D01*
X149538347Y-102649976D01*
X148935203Y-102637342D01*
X148346000Y-102507797D01*
X147793182Y-102266277D01*
X147297807Y-101921982D01*
X146878737Y-101488023D01*
X146551938Y-100980930D01*
X146329856Y-100420014D01*
X146220955Y-99826658D01*
X146229377Y-99223441D01*
X146354806Y-98633347D01*
X146592459Y-98078858D01*
X146933291Y-97581088D01*
X147364312Y-97159000D01*
X147869113Y-96828668D01*
X148428459Y-96602677D01*
X149021045Y-96489636D01*
X149624310Y-96493847D01*
X149624310Y-96493847D01*
G37*
G36*
X175710110Y-93952847D02*
X176301055Y-94074151D01*
X176857198Y-94307932D01*
X177357334Y-94645278D01*
X177782421Y-95073343D01*
X178116266Y-95575821D01*
X178346156Y-96133576D01*
X178463264Y-96725014D01*
X178463264Y-96725024D01*
X178463331Y-96725363D01*
X178453710Y-97414416D01*
X178453633Y-97414754D01*
X178453633Y-97414762D01*
X178320057Y-98002701D01*
X178074685Y-98553816D01*
X177726937Y-99046778D01*
X177290062Y-99462809D01*
X176780700Y-99786061D01*
X176218254Y-100004219D01*
X175624147Y-100108976D01*
X175021003Y-100096342D01*
X174431800Y-99966797D01*
X173878982Y-99725277D01*
X173383607Y-99380982D01*
X172964537Y-98947023D01*
X172637738Y-98439930D01*
X172415656Y-97879014D01*
X172306755Y-97285658D01*
X172315177Y-96682441D01*
X172440606Y-96092347D01*
X172678259Y-95537858D01*
X173019091Y-95040088D01*
X173450112Y-94618000D01*
X173954913Y-94287668D01*
X174514259Y-94061677D01*
X175106845Y-93948636D01*
X175710110Y-93952847D01*
X175710110Y-93952847D01*
G37*
G36*
X183710110Y-93952847D02*
X184301055Y-94074151D01*
X184857198Y-94307932D01*
X185357334Y-94645278D01*
X185782421Y-95073343D01*
X186116266Y-95575821D01*
X186346156Y-96133576D01*
X186463264Y-96725014D01*
X186463264Y-96725024D01*
X186463331Y-96725363D01*
X186453710Y-97414416D01*
X186453633Y-97414754D01*
X186453633Y-97414762D01*
X186320057Y-98002701D01*
X186074685Y-98553816D01*
X185726937Y-99046778D01*
X185290062Y-99462809D01*
X184780700Y-99786061D01*
X184218254Y-100004219D01*
X183624147Y-100108976D01*
X183021003Y-100096342D01*
X182431800Y-99966797D01*
X181878982Y-99725277D01*
X181383607Y-99380982D01*
X180964537Y-98947023D01*
X180637738Y-98439930D01*
X180415656Y-97879014D01*
X180306755Y-97285658D01*
X180315177Y-96682441D01*
X180440606Y-96092347D01*
X180678259Y-95537858D01*
X181019091Y-95040088D01*
X181450112Y-94618000D01*
X181954913Y-94287668D01*
X182514259Y-94061677D01*
X183106845Y-93948636D01*
X183710110Y-93952847D01*
X183710110Y-93952847D01*
G37*
G36*
X180463200Y-95053200D02*
X178310800Y-95053200D01*
X178310800Y-93000800D01*
X180463200Y-93000800D01*
X180463200Y-95053200D01*
X180463200Y-95053200D01*
G37*
G36*
X179494790Y-90461481D02*
X179691921Y-90501947D01*
X179877451Y-90579937D01*
X180044292Y-90692473D01*
X180186098Y-90835272D01*
X180297466Y-91002895D01*
X180374156Y-91188958D01*
X180413176Y-91386027D01*
X180413176Y-91386032D01*
X180413244Y-91386376D01*
X180410034Y-91616239D01*
X180409957Y-91616577D01*
X180409957Y-91616586D01*
X180365449Y-91812490D01*
X180283596Y-91996335D01*
X180167588Y-92160786D01*
X180021850Y-92299571D01*
X179851931Y-92407405D01*
X179664299Y-92480182D01*
X179466112Y-92515128D01*
X179264905Y-92510913D01*
X179068351Y-92467699D01*
X178883933Y-92387128D01*
X178718682Y-92272275D01*
X178578882Y-92127509D01*
X178469864Y-91958345D01*
X178395777Y-91771224D01*
X178359449Y-91573288D01*
X178362258Y-91372058D01*
X178404102Y-91175205D01*
X178483380Y-90990232D01*
X178597080Y-90824178D01*
X178740865Y-90683373D01*
X178909265Y-90573176D01*
X179095860Y-90497786D01*
X179293540Y-90460077D01*
X179494790Y-90461481D01*
X179494790Y-90461481D01*
G37*
G36*
X149603710Y-86351647D02*
X150194655Y-86472951D01*
X150750798Y-86706732D01*
X151250934Y-87044078D01*
X151676021Y-87472143D01*
X152009866Y-87974621D01*
X152239756Y-88532376D01*
X152356864Y-89123814D01*
X152356864Y-89123824D01*
X152356931Y-89124163D01*
X152347310Y-89813216D01*
X152347233Y-89813554D01*
X152347233Y-89813562D01*
X152213657Y-90401501D01*
X151968285Y-90952616D01*
X151620537Y-91445578D01*
X151183662Y-91861609D01*
X150674300Y-92184861D01*
X150111854Y-92403019D01*
X149517747Y-92507776D01*
X148914603Y-92495142D01*
X148325400Y-92365597D01*
X147772582Y-92124077D01*
X147277207Y-91779782D01*
X146858137Y-91345823D01*
X146531338Y-90838730D01*
X146309256Y-90277814D01*
X146200355Y-89684458D01*
X146208777Y-89081241D01*
X146334206Y-88491147D01*
X146571859Y-87936658D01*
X146912691Y-87438888D01*
X147343712Y-87016800D01*
X147848513Y-86686468D01*
X148407859Y-86460477D01*
X149000445Y-86347436D01*
X149603710Y-86351647D01*
X149603710Y-86351647D01*
G37*
G36*
X165603710Y-86351647D02*
X166194655Y-86472951D01*
X166750798Y-86706732D01*
X167250934Y-87044078D01*
X167676021Y-87472143D01*
X168009866Y-87974621D01*
X168239756Y-88532376D01*
X168356864Y-89123814D01*
X168356864Y-89123824D01*
X168356931Y-89124163D01*
X168347310Y-89813216D01*
X168347233Y-89813554D01*
X168347233Y-89813562D01*
X168213657Y-90401501D01*
X167968285Y-90952616D01*
X167620537Y-91445578D01*
X167183662Y-91861609D01*
X166674300Y-92184861D01*
X166111854Y-92403019D01*
X165517747Y-92507776D01*
X164914603Y-92495142D01*
X164325400Y-92365597D01*
X163772582Y-92124077D01*
X163277207Y-91779782D01*
X162858137Y-91345823D01*
X162531338Y-90838730D01*
X162309256Y-90277814D01*
X162200355Y-89684458D01*
X162208777Y-89081241D01*
X162334206Y-88491147D01*
X162571859Y-87936658D01*
X162912691Y-87438888D01*
X163343712Y-87016800D01*
X163848513Y-86686468D01*
X164407859Y-86460477D01*
X165000445Y-86347436D01*
X165603710Y-86351647D01*
X165603710Y-86351647D01*
G37*
G36*
X154371286Y-90514415D02*
X154549207Y-90550937D01*
X154716658Y-90621327D01*
X154867241Y-90722897D01*
X154995229Y-90851781D01*
X155095743Y-91003069D01*
X155164962Y-91171005D01*
X155200172Y-91348827D01*
X155200172Y-91348842D01*
X155200239Y-91349181D01*
X155197342Y-91556645D01*
X155197266Y-91556979D01*
X155197266Y-91556992D01*
X155157102Y-91733772D01*
X155083226Y-91899702D01*
X154978523Y-92048127D01*
X154846985Y-92173388D01*
X154693623Y-92270716D01*
X154524279Y-92336400D01*
X154345403Y-92367941D01*
X154163804Y-92364136D01*
X153986402Y-92325132D01*
X153819955Y-92252413D01*
X153670807Y-92148753D01*
X153544631Y-92018094D01*
X153446236Y-91865413D01*
X153379368Y-91696527D01*
X153346581Y-91517880D01*
X153349116Y-91336259D01*
X153386882Y-91158588D01*
X153458435Y-90991640D01*
X153561055Y-90841768D01*
X153690829Y-90714684D01*
X153842819Y-90615225D01*
X154011231Y-90547182D01*
X154189648Y-90513147D01*
X154371286Y-90514415D01*
X154371286Y-90514415D01*
G37*
G36*
X160371286Y-90514415D02*
X160549207Y-90550937D01*
X160716658Y-90621327D01*
X160867241Y-90722897D01*
X160995229Y-90851781D01*
X161095743Y-91003069D01*
X161164962Y-91171005D01*
X161200172Y-91348827D01*
X161200172Y-91348842D01*
X161200239Y-91349181D01*
X161197342Y-91556645D01*
X161197266Y-91556979D01*
X161197266Y-91556992D01*
X161157102Y-91733772D01*
X161083226Y-91899702D01*
X160978523Y-92048127D01*
X160846985Y-92173388D01*
X160693623Y-92270716D01*
X160524279Y-92336400D01*
X160345403Y-92367941D01*
X160163804Y-92364136D01*
X159986402Y-92325132D01*
X159819955Y-92252413D01*
X159670807Y-92148753D01*
X159544631Y-92018094D01*
X159446236Y-91865413D01*
X159379368Y-91696527D01*
X159346581Y-91517880D01*
X159349116Y-91336259D01*
X159386882Y-91158588D01*
X159458435Y-90991640D01*
X159561055Y-90841768D01*
X159690829Y-90714684D01*
X159842819Y-90615225D01*
X160011231Y-90547182D01*
X160189648Y-90513147D01*
X160371286Y-90514415D01*
X160371286Y-90514415D01*
G37*
G36*
X183710110Y-85952847D02*
X184301055Y-86074151D01*
X184857198Y-86307932D01*
X185357334Y-86645278D01*
X185782421Y-87073343D01*
X186116266Y-87575821D01*
X186346156Y-88133576D01*
X186463264Y-88725014D01*
X186463264Y-88725024D01*
X186463331Y-88725363D01*
X186453710Y-89414416D01*
X186453633Y-89414754D01*
X186453633Y-89414762D01*
X186320057Y-90002701D01*
X186074685Y-90553816D01*
X185726937Y-91046778D01*
X185290062Y-91462809D01*
X184780700Y-91786061D01*
X184218254Y-92004219D01*
X183624147Y-92108976D01*
X183021003Y-92096342D01*
X182431800Y-91966797D01*
X181878982Y-91725277D01*
X181383607Y-91380982D01*
X180964537Y-90947023D01*
X180637738Y-90439930D01*
X180415656Y-89879014D01*
X180306755Y-89285658D01*
X180315177Y-88682441D01*
X180440606Y-88092347D01*
X180678259Y-87537858D01*
X181019091Y-87040088D01*
X181450112Y-86618000D01*
X181954913Y-86287668D01*
X182514259Y-86061677D01*
X183106845Y-85948636D01*
X183710110Y-85952847D01*
X183710110Y-85952847D01*
G37*
G36*
X175710110Y-85952847D02*
X176301055Y-86074151D01*
X176857198Y-86307932D01*
X177357334Y-86645278D01*
X177782421Y-87073343D01*
X178116266Y-87575821D01*
X178346156Y-88133576D01*
X178463264Y-88725014D01*
X178463264Y-88725024D01*
X178463331Y-88725363D01*
X178453710Y-89414416D01*
X178453633Y-89414754D01*
X178453633Y-89414762D01*
X178320057Y-90002701D01*
X178074685Y-90553816D01*
X177726937Y-91046778D01*
X177290062Y-91462809D01*
X176780700Y-91786061D01*
X176218254Y-92004219D01*
X175624147Y-92108976D01*
X175021003Y-92096342D01*
X174431800Y-91966797D01*
X173878982Y-91725277D01*
X173383607Y-91380982D01*
X172964537Y-90947023D01*
X172637738Y-90439930D01*
X172415656Y-89879014D01*
X172306755Y-89285658D01*
X172315177Y-88682441D01*
X172440606Y-88092347D01*
X172678259Y-87537858D01*
X173019091Y-87040088D01*
X173450112Y-86618000D01*
X173954913Y-86287668D01*
X174514259Y-86061677D01*
X175106845Y-85948636D01*
X175710110Y-85952847D01*
X175710110Y-85952847D01*
G37*
G36*
X157544891Y-86911273D02*
X158028258Y-87010495D01*
X158483160Y-87201718D01*
X158892250Y-87477653D01*
X159239953Y-87827791D01*
X159513024Y-88238797D01*
X159701064Y-88695016D01*
X159796840Y-89178725D01*
X159796840Y-89178730D01*
X159796908Y-89179074D01*
X159789038Y-89742689D01*
X159788961Y-89743027D01*
X159788961Y-89743036D01*
X159679716Y-90223883D01*
X159479012Y-90674670D01*
X159194569Y-91077893D01*
X158837224Y-91418188D01*
X158420589Y-91682594D01*
X157960528Y-91861039D01*
X157474577Y-91946726D01*
X156981230Y-91936391D01*
X156499287Y-91830429D01*
X156047105Y-91632876D01*
X155641910Y-91351258D01*
X155299129Y-90996298D01*
X155031821Y-90581516D01*
X154850166Y-90122711D01*
X154761090Y-89637371D01*
X154767979Y-89143966D01*
X154870575Y-88661294D01*
X155064965Y-88207745D01*
X155343751Y-87800590D01*
X155696308Y-87455340D01*
X156109213Y-87185143D01*
X156566736Y-87000291D01*
X157051444Y-86907829D01*
X157544891Y-86911273D01*
X157544891Y-86911273D01*
G37*
G36*
X154371286Y-86514415D02*
X154549207Y-86550937D01*
X154716658Y-86621327D01*
X154867241Y-86722897D01*
X154995229Y-86851781D01*
X155095743Y-87003069D01*
X155164962Y-87171005D01*
X155200172Y-87348827D01*
X155200172Y-87348842D01*
X155200239Y-87349181D01*
X155197342Y-87556645D01*
X155197266Y-87556979D01*
X155197266Y-87556992D01*
X155157102Y-87733772D01*
X155083226Y-87899702D01*
X154978523Y-88048127D01*
X154846985Y-88173388D01*
X154693623Y-88270716D01*
X154524279Y-88336400D01*
X154345403Y-88367941D01*
X154163804Y-88364136D01*
X153986402Y-88325132D01*
X153819955Y-88252413D01*
X153670807Y-88148753D01*
X153544631Y-88018094D01*
X153446236Y-87865413D01*
X153379368Y-87696527D01*
X153346581Y-87517880D01*
X153349116Y-87336259D01*
X153386882Y-87158588D01*
X153458435Y-86991640D01*
X153561055Y-86841768D01*
X153690829Y-86714684D01*
X153842819Y-86615225D01*
X154011231Y-86547182D01*
X154189648Y-86513147D01*
X154371286Y-86514415D01*
X154371286Y-86514415D01*
G37*
G36*
X160371286Y-86514415D02*
X160549207Y-86550937D01*
X160716658Y-86621327D01*
X160867241Y-86722897D01*
X160995229Y-86851781D01*
X161095743Y-87003069D01*
X161164962Y-87171005D01*
X161200172Y-87348827D01*
X161200172Y-87348842D01*
X161200239Y-87349181D01*
X161197342Y-87556645D01*
X161197266Y-87556979D01*
X161197266Y-87556992D01*
X161157102Y-87733772D01*
X161083226Y-87899702D01*
X160978523Y-88048127D01*
X160846985Y-88173388D01*
X160693623Y-88270716D01*
X160524279Y-88336400D01*
X160345403Y-88367941D01*
X160163804Y-88364136D01*
X159986402Y-88325132D01*
X159819955Y-88252413D01*
X159670807Y-88148753D01*
X159544631Y-88018094D01*
X159446236Y-87865413D01*
X159379368Y-87696527D01*
X159346581Y-87517880D01*
X159349116Y-87336259D01*
X159386882Y-87158588D01*
X159458435Y-86991640D01*
X159561055Y-86841768D01*
X159690829Y-86714684D01*
X159842819Y-86615225D01*
X160011231Y-86547182D01*
X160189648Y-86513147D01*
X160371286Y-86514415D01*
X160371286Y-86514415D01*
G37*
M02*
