%TF.GenerationSoftware,KiCad,Pcbnew,4.0.5-e0-6337~49~ubuntu16.04.1*%
%TF.CreationDate,2017-02-14T02:06:53-08:00*%
%TF.ProjectId,2x3-Screw-Terminal-3.5mm-Pitch,3278332D53637265772D5465726D696E,1.0*%
%TF.FileFunction,Soldermask,Top*%
%FSLAX46Y46*%
G04 Gerber Fmt 4.6, Leading zero omitted, Abs format (unit mm)*
G04 Created by KiCad (PCBNEW 4.0.5-e0-6337~49~ubuntu16.04.1) date Tue Feb 14 02:06:53 2017*
%MOMM*%
%LPD*%
G01*
G04 APERTURE LIST*
%ADD10C,0.350000*%
G04 APERTURE END LIST*
D10*
G36*
X34080790Y-28540081D02*
X34277921Y-28580547D01*
X34463451Y-28658537D01*
X34630292Y-28771073D01*
X34772098Y-28913872D01*
X34883466Y-29081495D01*
X34960156Y-29267558D01*
X34999176Y-29464627D01*
X34999176Y-29464632D01*
X34999244Y-29464976D01*
X34996034Y-29694839D01*
X34995957Y-29695177D01*
X34995957Y-29695186D01*
X34951449Y-29891090D01*
X34869596Y-30074935D01*
X34753588Y-30239386D01*
X34607850Y-30378171D01*
X34437931Y-30486005D01*
X34250299Y-30558782D01*
X34052112Y-30593728D01*
X33850905Y-30589513D01*
X33654351Y-30546299D01*
X33469933Y-30465728D01*
X33304682Y-30350875D01*
X33164882Y-30206109D01*
X33055864Y-30036945D01*
X32981777Y-29849824D01*
X32945449Y-29651888D01*
X32948258Y-29450658D01*
X32990102Y-29253805D01*
X33069380Y-29068832D01*
X33183080Y-28902778D01*
X33326865Y-28761973D01*
X33495265Y-28651776D01*
X33681860Y-28576386D01*
X33879540Y-28538677D01*
X34080790Y-28540081D01*
X34080790Y-28540081D01*
G37*
G36*
X34086042Y-24990115D02*
X34292777Y-25032552D01*
X34487347Y-25114341D01*
X34662318Y-25232361D01*
X34811033Y-25382118D01*
X34927827Y-25557908D01*
X35008253Y-25753036D01*
X35049178Y-25959724D01*
X35049178Y-25959729D01*
X35049246Y-25960073D01*
X35045880Y-26201136D01*
X35045803Y-26201474D01*
X35045803Y-26201483D01*
X34999122Y-26406949D01*
X34913281Y-26599752D01*
X34791621Y-26772215D01*
X34638782Y-26917762D01*
X34460584Y-27030850D01*
X34263810Y-27107173D01*
X34055967Y-27143822D01*
X33844957Y-27139402D01*
X33638825Y-27094081D01*
X33445422Y-27009585D01*
X33272119Y-26889136D01*
X33125508Y-26737317D01*
X33011178Y-26559910D01*
X32933481Y-26363672D01*
X32895384Y-26156092D01*
X32898330Y-25945058D01*
X32942211Y-25738613D01*
X33025353Y-25544628D01*
X33144593Y-25370483D01*
X33295384Y-25222817D01*
X33471988Y-25107251D01*
X33667675Y-25028188D01*
X33874987Y-24988642D01*
X34086042Y-24990115D01*
X34086042Y-24990115D01*
G37*
M02*
