M48
;DRILL file {KiCad 4.0.1-3.201512221402+6198~38~ubuntu14.04.1-stable} date Thu 03 Mar 2016 09:20:14 PM PST
;FORMAT={-:-/ absolute / inch / decimal}
FMAT,2
INCH,TZ
T1C0.031
T2C0.039
T3C0.039
T4C0.193
T5C0.193
%
G90
G05
M72
T1
X4.5449Y-2.7306
X4.5449Y-2.8093
X4.5449Y-2.888
X5.2843Y-2.7306
X5.2843Y-2.8093
X5.2843Y-2.888
X7.5919Y-4.036
X7.5919Y-4.1147
X7.5919Y-4.1935
X8.2314Y-4.3263
X8.3613Y-4.3263
T2
X6.5688Y-4.0392
X6.5688Y-4.2754
X6.7263Y-4.0392
X6.7263Y-4.2754
X6.9625Y-4.0392
X6.9625Y-4.2754
X7.12Y-4.0392
X7.12Y-4.2754
X8.1721Y-2.3303
X8.2963Y-3.9248
X8.2963Y-4.3263
T3
X3.0471Y-1.9439
X3.0471Y-2.1408
X3.7847Y-4.3095
X3.7847Y-4.4095
X3.8095Y-1.9439
X3.8095Y-2.1408
X3.8095Y-2.7729
X3.8095Y-2.8729
X3.8095Y-3.5678
X3.8095Y-3.6678
X4.4487Y-3.6095
X4.5469Y-1.9924
X4.5469Y-2.0924
X4.5469Y-4.2595
X4.5469Y-4.4595
X4.5471Y-3.6095
X4.6455Y-3.6095
X5.1859Y-2.0424
X5.2159Y-4.3595
X5.2843Y-2.0424
X5.2967Y-3.5095
X5.2967Y-3.7095
X5.3143Y-4.3595
X5.3827Y-2.0424
X5.4127Y-4.3595
X5.7908Y-3.5971
X5.9876Y-3.5971
X6.0467Y-1.9473
X6.0467Y-2.1473
X8.1716Y-2.4327
X8.1717Y-1.9058
X8.1717Y-2.0058
T4
X2.8896Y-1.8849
X2.8896Y-2.1998
X2.8898Y-2.6646
X2.8898Y-2.9796
X2.8898Y-4.202
X2.8898Y-4.517
X2.9022Y-3.4396
X2.9022Y-3.7546
X3.2046Y-1.8849
X3.2046Y-2.1998
X3.2048Y-2.6646
X3.2048Y-2.9796
X3.2048Y-4.202
X3.2048Y-4.517
X3.2172Y-3.4396
X3.2172Y-3.7546
X3.6272Y-4.202
X3.6272Y-4.517
X3.652Y-1.8849
X3.652Y-2.1998
X3.652Y-2.6548
X3.652Y-2.9697
X3.652Y-3.4496
X3.652Y-3.7646
X3.9422Y-4.202
X3.9422Y-4.517
X3.967Y-1.8849
X3.967Y-2.1998
X3.967Y-2.6548
X3.967Y-2.9697
X3.967Y-3.4496
X3.967Y-3.7646
X4.3894Y-1.8849
X4.3894Y-2.1998
X4.3894Y-2.6548
X4.3894Y-2.9697
X4.3894Y-4.202
X4.3894Y-4.517
X4.3896Y-3.452
X4.3896Y-3.767
X4.7044Y-1.8849
X4.7044Y-2.1998
X4.7044Y-2.6548
X4.7044Y-2.9697
X4.7044Y-4.202
X4.7044Y-4.517
X4.7046Y-3.452
X4.7046Y-3.767
X5.1268Y-1.8849
X5.1268Y-2.1998
X5.1288Y-2.6548
X5.1288Y-2.9697
X5.1392Y-3.452
X5.1392Y-3.767
X5.1568Y-4.202
X5.1568Y-4.517
X5.4418Y-1.8849
X5.4418Y-2.1998
X5.4437Y-2.6548
X5.4437Y-2.9697
X5.4542Y-3.452
X5.4542Y-3.767
X5.4718Y-4.202
X5.4718Y-4.517
X5.8746Y-4.1946
X5.8892Y-1.8898
X5.8892Y-2.2048
X5.8892Y-2.6522
X5.8892Y-2.9672
X5.8892Y-3.4396
X5.8892Y-3.7546
X6.1896Y-4.1946
X6.2042Y-1.8898
X6.2042Y-2.2048
X6.2042Y-2.6522
X6.2042Y-2.9672
X6.2042Y-3.4396
X6.2042Y-3.7546
X6.647Y-3.842
X6.647Y-4.472
X6.6498Y-1.9449
X6.6498Y-2.3673
X6.6498Y-2.7898
X6.6498Y-3.1047
X6.6498Y-3.4197
X6.9648Y-1.9449
X6.9648Y-2.3673
X6.9648Y-2.7898
X6.9648Y-3.1047
X6.9648Y-3.4197
X7.0407Y-3.842
X7.0407Y-4.472
X7.2797Y-1.9449
X7.2797Y-2.3673
X7.2797Y-2.7898
X7.2797Y-3.1047
X7.2797Y-3.4197
X7.4344Y-3.8372
X7.4344Y-4.1521
X7.4344Y-4.4671
X7.5947Y-1.9449
X7.5947Y-2.3673
X7.7096Y-2.7898
X7.7096Y-3.1047
X7.7096Y-3.4197
X7.7494Y-3.8372
X7.7494Y-4.1521
X7.7494Y-4.4671
X8.0142Y-1.9499
X8.0146Y-2.3815
X8.0246Y-2.7898
X8.0246Y-3.1047
X8.0246Y-3.4197
X8.1418Y-3.8372
X8.1418Y-4.1521
X8.1418Y-4.4671
X8.3292Y-1.9499
X8.3296Y-2.3815
X8.3396Y-2.7898
X8.3396Y-3.1047
X8.3396Y-3.4197
X8.4568Y-3.8372
X8.4568Y-4.1521
X8.4568Y-4.4671
T5
X6.647Y-4.157
X7.0407Y-4.157
T0
M30
