G04 #@! TF.FileFunction,Legend,Bot*
%FSLAX46Y46*%
G04 Gerber Fmt 4.6, Leading zero omitted, Abs format (unit mm)*
G04 Created by KiCad (PCBNEW 4.0.1-3.201512221402+6198~38~ubuntu14.04.1-stable) date Thu 03 Mar 2016 09:20:13 PM PST*
%MOMM*%
G01*
G04 APERTURE LIST*
%ADD10C,0.100000*%
%ADD11C,8.000000*%
%ADD12C,2.000000*%
%ADD13C,6.000000*%
%ADD14C,0.150000*%
%ADD15C,5.000000*%
%ADD16C,7.800000*%
%ADD17C,1.000000*%
%ADD18C,0.254000*%
G04 APERTURE END LIST*
D10*
D11*
X130336000Y-95731000D02*
X138636000Y-95731000D01*
D12*
X176805000Y-57230000D02*
X185005000Y-57230000D01*
X176705000Y-63030000D02*
X184905000Y-63030000D01*
D11*
X149586000Y-87366000D02*
X157586000Y-87366000D01*
X149586000Y-67366000D02*
X157586000Y-67366000D01*
X149386000Y-56051000D02*
X157686000Y-56051000D01*
X111291000Y-114781000D02*
X119591000Y-114781000D01*
X111291000Y-55926000D02*
X119591000Y-55926000D01*
D13*
X206802000Y-113464000D02*
X206802000Y-97464000D01*
D11*
X138221000Y-47876000D02*
X130221000Y-47876000D01*
D14*
X73201000Y-109731000D02*
X73201000Y-109931000D01*
X75394400Y-107731000D02*
X79394400Y-107731000D01*
X75394400Y-113745200D02*
X79394400Y-113745200D01*
X73201000Y-110331000D02*
X73201000Y-110531000D01*
X73201000Y-110931000D02*
X73201000Y-111131000D01*
X73201000Y-111531000D02*
X73201000Y-111731000D01*
X81601000Y-110931000D02*
X81601000Y-111131000D01*
X81601000Y-109731000D02*
X81601000Y-109931000D01*
X81601000Y-110331000D02*
X81601000Y-110531000D01*
X81601000Y-111531000D02*
X81601000Y-111731000D01*
D11*
X73401000Y-106731000D02*
X81401000Y-106731000D01*
D14*
X73201000Y-70681000D02*
X73201000Y-70881000D01*
X75394400Y-68681000D02*
X79394400Y-68681000D01*
X75394400Y-74695200D02*
X79394400Y-74695200D01*
X73201000Y-71281000D02*
X73201000Y-71481000D01*
X73201000Y-71881000D02*
X73201000Y-72081000D01*
X73201000Y-72481000D02*
X73201000Y-72681000D01*
X81601000Y-71881000D02*
X81601000Y-72081000D01*
X81601000Y-70681000D02*
X81601000Y-70881000D01*
X81601000Y-71281000D02*
X81601000Y-71481000D01*
X81601000Y-72481000D02*
X81601000Y-72681000D01*
D11*
X73401000Y-67681000D02*
X81401000Y-67681000D01*
X91931000Y-114781000D02*
X100231000Y-114781000D01*
D15*
X204985214Y-60490000D02*
G75*
G03X204985214Y-60490000I-1414214J0D01*
G01*
D11*
X138983000Y-106731000D02*
X130983000Y-106731000D01*
X119496000Y-87681000D02*
X111496000Y-87681000D01*
D12*
X176805000Y-46500000D02*
X185005000Y-46500000D01*
X176705000Y-52300000D02*
X184905000Y-52300000D01*
D16*
X73396000Y-55876000D02*
X81396000Y-55876000D01*
X92761000Y-55876000D02*
X100761000Y-55876000D01*
D12*
X72716000Y-91366000D02*
X82716000Y-91366000D01*
D17*
X152855055Y-106542000D02*
G75*
G03X152855055Y-106542000I-3640055J0D01*
G01*
D14*
X190285952Y-57201429D02*
X189524047Y-57201429D01*
X189904999Y-57582381D02*
X189904999Y-56820476D01*
X172285952Y-57201429D02*
X171524047Y-57201429D01*
X171904999Y-57582381D02*
X171904999Y-56820476D01*
X188933571Y-59010953D02*
X188981190Y-59153810D01*
X189028810Y-59201429D01*
X189124048Y-59249048D01*
X189266905Y-59249048D01*
X189362143Y-59201429D01*
X189409762Y-59153810D01*
X189457381Y-59058572D01*
X189457381Y-58677619D01*
X188457381Y-58677619D01*
X188457381Y-59010953D01*
X188505000Y-59106191D01*
X188552619Y-59153810D01*
X188647857Y-59201429D01*
X188743095Y-59201429D01*
X188838333Y-59153810D01*
X188885952Y-59106191D01*
X188933571Y-59010953D01*
X188933571Y-58677619D01*
X189171667Y-59630000D02*
X189171667Y-60106191D01*
X189457381Y-59534762D02*
X188457381Y-59868095D01*
X189457381Y-60201429D01*
X188457381Y-60391905D02*
X188457381Y-60963334D01*
X189457381Y-60677619D02*
X188457381Y-60677619D01*
X188457381Y-61153810D02*
X188457381Y-61725239D01*
X189457381Y-61439524D02*
X188457381Y-61439524D01*
X172257381Y-59368095D02*
X172257381Y-59987143D01*
X172638333Y-59653809D01*
X172638333Y-59796667D01*
X172685952Y-59891905D01*
X172733571Y-59939524D01*
X172828810Y-59987143D01*
X173066905Y-59987143D01*
X173162143Y-59939524D01*
X173209762Y-59891905D01*
X173257381Y-59796667D01*
X173257381Y-59510952D01*
X173209762Y-59415714D01*
X173162143Y-59368095D01*
X172257381Y-60272857D02*
X173257381Y-60606190D01*
X172257381Y-60939524D01*
X155871714Y-92520762D02*
X155728857Y-92568381D01*
X155490761Y-92568381D01*
X155395523Y-92520762D01*
X155347904Y-92473143D01*
X155300285Y-92377905D01*
X155300285Y-92282667D01*
X155347904Y-92187429D01*
X155395523Y-92139810D01*
X155490761Y-92092190D01*
X155681238Y-92044571D01*
X155776476Y-91996952D01*
X155824095Y-91949333D01*
X155871714Y-91854095D01*
X155871714Y-91758857D01*
X155824095Y-91663619D01*
X155776476Y-91616000D01*
X155681238Y-91568381D01*
X155443142Y-91568381D01*
X155300285Y-91616000D01*
X154871714Y-92568381D02*
X154871714Y-91568381D01*
X154490761Y-91568381D01*
X154395523Y-91616000D01*
X154347904Y-91663619D01*
X154300285Y-91758857D01*
X154300285Y-91901714D01*
X154347904Y-91996952D01*
X154395523Y-92044571D01*
X154490761Y-92092190D01*
X154871714Y-92092190D01*
X153871714Y-92568381D02*
X153871714Y-91568381D01*
X153300285Y-92568381D02*
X153728857Y-91996952D01*
X153300285Y-91568381D02*
X153871714Y-92139810D01*
D18*
X155980857Y-70809619D02*
X155400286Y-70809619D01*
X155690571Y-71825619D02*
X155690571Y-70809619D01*
X154868095Y-70809619D02*
X154674572Y-70809619D01*
X154577810Y-70858000D01*
X154481048Y-70954762D01*
X154432667Y-71148286D01*
X154432667Y-71486952D01*
X154481048Y-71680476D01*
X154577810Y-71777238D01*
X154674572Y-71825619D01*
X154868095Y-71825619D01*
X154964857Y-71777238D01*
X155061619Y-71680476D01*
X155110000Y-71486952D01*
X155110000Y-71148286D01*
X155061619Y-70954762D01*
X154964857Y-70858000D01*
X154868095Y-70809619D01*
X153997238Y-70809619D02*
X153997238Y-71632095D01*
X153948857Y-71728857D01*
X153900476Y-71777238D01*
X153803714Y-71825619D01*
X153610191Y-71825619D01*
X153513429Y-71777238D01*
X153465048Y-71728857D01*
X153416667Y-71632095D01*
X153416667Y-70809619D01*
X152352286Y-71728857D02*
X152400667Y-71777238D01*
X152545810Y-71825619D01*
X152642572Y-71825619D01*
X152787714Y-71777238D01*
X152884476Y-71680476D01*
X152932857Y-71583714D01*
X152981238Y-71390190D01*
X152981238Y-71245048D01*
X152932857Y-71051524D01*
X152884476Y-70954762D01*
X152787714Y-70858000D01*
X152642572Y-70809619D01*
X152545810Y-70809619D01*
X152400667Y-70858000D01*
X152352286Y-70906381D01*
X151916857Y-71825619D02*
X151916857Y-70809619D01*
X151916857Y-71293429D02*
X151336286Y-71293429D01*
X151336286Y-71825619D02*
X151336286Y-70809619D01*
D14*
X153966952Y-75437429D02*
X153205047Y-75437429D01*
X153585999Y-75818381D02*
X153585999Y-75056476D01*
X153966952Y-67437429D02*
X153205047Y-67437429D01*
X153585999Y-67818381D02*
X153585999Y-67056476D01*
X140432905Y-71860762D02*
X140290048Y-71908381D01*
X140051952Y-71908381D01*
X139956714Y-71860762D01*
X139909095Y-71813143D01*
X139861476Y-71717905D01*
X139861476Y-71622667D01*
X139909095Y-71527429D01*
X139956714Y-71479810D01*
X140051952Y-71432190D01*
X140242429Y-71384571D01*
X140337667Y-71336952D01*
X140385286Y-71289333D01*
X140432905Y-71194095D01*
X140432905Y-71098857D01*
X140385286Y-71003619D01*
X140337667Y-70956000D01*
X140242429Y-70908381D01*
X140004333Y-70908381D01*
X139861476Y-70956000D01*
X138956714Y-71908381D02*
X139432905Y-71908381D01*
X139432905Y-70908381D01*
X138623381Y-71908381D02*
X138623381Y-70908381D01*
X138147191Y-71908381D02*
X138147191Y-70908381D01*
X137909096Y-70908381D01*
X137766238Y-70956000D01*
X137671000Y-71051238D01*
X137623381Y-71146476D01*
X137575762Y-71336952D01*
X137575762Y-71479810D01*
X137623381Y-71670286D01*
X137671000Y-71765524D01*
X137766238Y-71860762D01*
X137909096Y-71908381D01*
X138147191Y-71908381D01*
X137147191Y-71384571D02*
X136813857Y-71384571D01*
X136671000Y-71908381D02*
X137147191Y-71908381D01*
X137147191Y-70908381D01*
X136671000Y-70908381D01*
X132771000Y-71885762D02*
X132628143Y-71933381D01*
X132390047Y-71933381D01*
X132294809Y-71885762D01*
X132247190Y-71838143D01*
X132199571Y-71742905D01*
X132199571Y-71647667D01*
X132247190Y-71552429D01*
X132294809Y-71504810D01*
X132390047Y-71457190D01*
X132580524Y-71409571D01*
X132675762Y-71361952D01*
X132723381Y-71314333D01*
X132771000Y-71219095D01*
X132771000Y-71123857D01*
X132723381Y-71028619D01*
X132675762Y-70981000D01*
X132580524Y-70933381D01*
X132342428Y-70933381D01*
X132199571Y-70981000D01*
X131866238Y-70933381D02*
X131628143Y-71933381D01*
X131437666Y-71219095D01*
X131247190Y-71933381D01*
X131009095Y-70933381D01*
X130628143Y-71933381D02*
X130628143Y-70933381D01*
X130294810Y-70933381D02*
X129723381Y-70933381D01*
X130009096Y-71933381D02*
X130009096Y-70933381D01*
X128818619Y-71838143D02*
X128866238Y-71885762D01*
X129009095Y-71933381D01*
X129104333Y-71933381D01*
X129247191Y-71885762D01*
X129342429Y-71790524D01*
X129390048Y-71695286D01*
X129437667Y-71504810D01*
X129437667Y-71361952D01*
X129390048Y-71171476D01*
X129342429Y-71076238D01*
X129247191Y-70981000D01*
X129104333Y-70933381D01*
X129009095Y-70933381D01*
X128866238Y-70981000D01*
X128818619Y-71028619D01*
X128390048Y-71933381D02*
X128390048Y-70933381D01*
X128390048Y-71409571D02*
X127818619Y-71409571D01*
X127818619Y-71933381D02*
X127818619Y-70933381D01*
X191695905Y-101868762D02*
X191553048Y-101916381D01*
X191314952Y-101916381D01*
X191219714Y-101868762D01*
X191172095Y-101821143D01*
X191124476Y-101725905D01*
X191124476Y-101630667D01*
X191172095Y-101535429D01*
X191219714Y-101487810D01*
X191314952Y-101440190D01*
X191505429Y-101392571D01*
X191600667Y-101344952D01*
X191648286Y-101297333D01*
X191695905Y-101202095D01*
X191695905Y-101106857D01*
X191648286Y-101011619D01*
X191600667Y-100964000D01*
X191505429Y-100916381D01*
X191267333Y-100916381D01*
X191124476Y-100964000D01*
X190219714Y-101916381D02*
X190695905Y-101916381D01*
X190695905Y-100916381D01*
X189886381Y-101916381D02*
X189886381Y-100916381D01*
X189410191Y-101916381D02*
X189410191Y-100916381D01*
X189172096Y-100916381D01*
X189029238Y-100964000D01*
X188934000Y-101059238D01*
X188886381Y-101154476D01*
X188838762Y-101344952D01*
X188838762Y-101487810D01*
X188886381Y-101678286D01*
X188934000Y-101773524D01*
X189029238Y-101868762D01*
X189172096Y-101916381D01*
X189410191Y-101916381D01*
X188410191Y-101392571D02*
X188076857Y-101392571D01*
X187934000Y-101916381D02*
X188410191Y-101916381D01*
X188410191Y-100916381D01*
X187934000Y-100916381D01*
X191334000Y-109868762D02*
X191191143Y-109916381D01*
X190953047Y-109916381D01*
X190857809Y-109868762D01*
X190810190Y-109821143D01*
X190762571Y-109725905D01*
X190762571Y-109630667D01*
X190810190Y-109535429D01*
X190857809Y-109487810D01*
X190953047Y-109440190D01*
X191143524Y-109392571D01*
X191238762Y-109344952D01*
X191286381Y-109297333D01*
X191334000Y-109202095D01*
X191334000Y-109106857D01*
X191286381Y-109011619D01*
X191238762Y-108964000D01*
X191143524Y-108916381D01*
X190905428Y-108916381D01*
X190762571Y-108964000D01*
X190429238Y-108916381D02*
X190191143Y-109916381D01*
X190000666Y-109202095D01*
X189810190Y-109916381D01*
X189572095Y-108916381D01*
X189191143Y-109916381D02*
X189191143Y-108916381D01*
X188857810Y-108916381D02*
X188286381Y-108916381D01*
X188572096Y-109916381D02*
X188572096Y-108916381D01*
X187381619Y-109821143D02*
X187429238Y-109868762D01*
X187572095Y-109916381D01*
X187667333Y-109916381D01*
X187810191Y-109868762D01*
X187905429Y-109773524D01*
X187953048Y-109678286D01*
X188000667Y-109487810D01*
X188000667Y-109344952D01*
X187953048Y-109154476D01*
X187905429Y-109059238D01*
X187810191Y-108964000D01*
X187667333Y-108916381D01*
X187572095Y-108916381D01*
X187429238Y-108964000D01*
X187381619Y-109011619D01*
X186953048Y-109916381D02*
X186953048Y-108916381D01*
X186953048Y-109392571D02*
X186381619Y-109392571D01*
X186381619Y-109916381D02*
X186381619Y-108916381D01*
X121652905Y-71860762D02*
X121510048Y-71908381D01*
X121271952Y-71908381D01*
X121176714Y-71860762D01*
X121129095Y-71813143D01*
X121081476Y-71717905D01*
X121081476Y-71622667D01*
X121129095Y-71527429D01*
X121176714Y-71479810D01*
X121271952Y-71432190D01*
X121462429Y-71384571D01*
X121557667Y-71336952D01*
X121605286Y-71289333D01*
X121652905Y-71194095D01*
X121652905Y-71098857D01*
X121605286Y-71003619D01*
X121557667Y-70956000D01*
X121462429Y-70908381D01*
X121224333Y-70908381D01*
X121081476Y-70956000D01*
X120176714Y-71908381D02*
X120652905Y-71908381D01*
X120652905Y-70908381D01*
X119843381Y-71908381D02*
X119843381Y-70908381D01*
X119367191Y-71908381D02*
X119367191Y-70908381D01*
X119129096Y-70908381D01*
X118986238Y-70956000D01*
X118891000Y-71051238D01*
X118843381Y-71146476D01*
X118795762Y-71336952D01*
X118795762Y-71479810D01*
X118843381Y-71670286D01*
X118891000Y-71765524D01*
X118986238Y-71860762D01*
X119129096Y-71908381D01*
X119367191Y-71908381D01*
X118367191Y-71384571D02*
X118033857Y-71384571D01*
X117891000Y-71908381D02*
X118367191Y-71908381D01*
X118367191Y-70908381D01*
X117891000Y-70908381D01*
X113991000Y-71885762D02*
X113848143Y-71933381D01*
X113610047Y-71933381D01*
X113514809Y-71885762D01*
X113467190Y-71838143D01*
X113419571Y-71742905D01*
X113419571Y-71647667D01*
X113467190Y-71552429D01*
X113514809Y-71504810D01*
X113610047Y-71457190D01*
X113800524Y-71409571D01*
X113895762Y-71361952D01*
X113943381Y-71314333D01*
X113991000Y-71219095D01*
X113991000Y-71123857D01*
X113943381Y-71028619D01*
X113895762Y-70981000D01*
X113800524Y-70933381D01*
X113562428Y-70933381D01*
X113419571Y-70981000D01*
X113086238Y-70933381D02*
X112848143Y-71933381D01*
X112657666Y-71219095D01*
X112467190Y-71933381D01*
X112229095Y-70933381D01*
X111848143Y-71933381D02*
X111848143Y-70933381D01*
X111514810Y-70933381D02*
X110943381Y-70933381D01*
X111229096Y-71933381D02*
X111229096Y-70933381D01*
X110038619Y-71838143D02*
X110086238Y-71885762D01*
X110229095Y-71933381D01*
X110324333Y-71933381D01*
X110467191Y-71885762D01*
X110562429Y-71790524D01*
X110610048Y-71695286D01*
X110657667Y-71504810D01*
X110657667Y-71361952D01*
X110610048Y-71171476D01*
X110562429Y-71076238D01*
X110467191Y-70981000D01*
X110324333Y-70933381D01*
X110229095Y-70933381D01*
X110086238Y-70981000D01*
X110038619Y-71028619D01*
X109610048Y-71933381D02*
X109610048Y-70933381D01*
X109610048Y-71409571D02*
X109038619Y-71409571D01*
X109038619Y-71933381D02*
X109038619Y-70933381D01*
X211254381Y-102627095D02*
X210254381Y-102627095D01*
X210968667Y-102960429D01*
X210254381Y-103293762D01*
X211254381Y-103293762D01*
X210254381Y-103960428D02*
X210254381Y-104150905D01*
X210302000Y-104246143D01*
X210397238Y-104341381D01*
X210587714Y-104389000D01*
X210921048Y-104389000D01*
X211111524Y-104341381D01*
X211206762Y-104246143D01*
X211254381Y-104150905D01*
X211254381Y-103960428D01*
X211206762Y-103865190D01*
X211111524Y-103769952D01*
X210921048Y-103722333D01*
X210587714Y-103722333D01*
X210397238Y-103769952D01*
X210302000Y-103865190D01*
X210254381Y-103960428D01*
X210254381Y-104674714D02*
X210254381Y-105246143D01*
X211254381Y-104960428D02*
X210254381Y-104960428D01*
X210254381Y-105769952D02*
X210254381Y-105960429D01*
X210302000Y-106055667D01*
X210397238Y-106150905D01*
X210587714Y-106198524D01*
X210921048Y-106198524D01*
X211111524Y-106150905D01*
X211206762Y-106055667D01*
X211254381Y-105960429D01*
X211254381Y-105769952D01*
X211206762Y-105674714D01*
X211111524Y-105579476D01*
X210921048Y-105531857D01*
X210587714Y-105531857D01*
X210397238Y-105579476D01*
X210302000Y-105674714D01*
X210254381Y-105769952D01*
X211254381Y-107198524D02*
X210778190Y-106865190D01*
X211254381Y-106627095D02*
X210254381Y-106627095D01*
X210254381Y-107008048D01*
X210302000Y-107103286D01*
X210349619Y-107150905D01*
X210444857Y-107198524D01*
X210587714Y-107198524D01*
X210682952Y-107150905D01*
X210730571Y-107103286D01*
X210778190Y-107008048D01*
X210778190Y-106627095D01*
X215182952Y-109535429D02*
X214421047Y-109535429D01*
X214801999Y-109916381D02*
X214801999Y-109154476D01*
X215182952Y-101535429D02*
X214421047Y-101535429D01*
X214801999Y-101916381D02*
X214801999Y-101154476D01*
X129782905Y-51261715D02*
X129782905Y-50880762D01*
X128982905Y-50880762D01*
X129363857Y-51528381D02*
X129363857Y-51795048D01*
X129782905Y-51909334D02*
X129782905Y-51528381D01*
X128982905Y-51528381D01*
X128982905Y-51909334D01*
X129782905Y-52252191D02*
X128982905Y-52252191D01*
X128982905Y-52442667D01*
X129021000Y-52556953D01*
X129097190Y-52633144D01*
X129173381Y-52671239D01*
X129325762Y-52709334D01*
X129440048Y-52709334D01*
X129592429Y-52671239D01*
X129668619Y-52633144D01*
X129744810Y-52556953D01*
X129782905Y-52442667D01*
X129782905Y-52252191D01*
X79186714Y-111983381D02*
X79186714Y-110983381D01*
X78805761Y-110983381D01*
X78710523Y-111031000D01*
X78662904Y-111078619D01*
X78615285Y-111173857D01*
X78615285Y-111316714D01*
X78662904Y-111411952D01*
X78710523Y-111459571D01*
X78805761Y-111507190D01*
X79186714Y-111507190D01*
X78186714Y-110983381D02*
X78186714Y-111792905D01*
X78139095Y-111888143D01*
X78091476Y-111935762D01*
X77996238Y-111983381D01*
X77805761Y-111983381D01*
X77710523Y-111935762D01*
X77662904Y-111888143D01*
X77615285Y-111792905D01*
X77615285Y-110983381D01*
X77186714Y-111935762D02*
X77043857Y-111983381D01*
X76805761Y-111983381D01*
X76710523Y-111935762D01*
X76662904Y-111888143D01*
X76615285Y-111792905D01*
X76615285Y-111697667D01*
X76662904Y-111602429D01*
X76710523Y-111554810D01*
X76805761Y-111507190D01*
X76996238Y-111459571D01*
X77091476Y-111411952D01*
X77139095Y-111364333D01*
X77186714Y-111269095D01*
X77186714Y-111173857D01*
X77139095Y-111078619D01*
X77091476Y-111031000D01*
X76996238Y-110983381D01*
X76758142Y-110983381D01*
X76615285Y-111031000D01*
X76186714Y-111983381D02*
X76186714Y-110983381D01*
X76186714Y-111459571D02*
X75615285Y-111459571D01*
X75615285Y-111983381D02*
X75615285Y-110983381D01*
X79186714Y-72933381D02*
X79186714Y-71933381D01*
X78805761Y-71933381D01*
X78710523Y-71981000D01*
X78662904Y-72028619D01*
X78615285Y-72123857D01*
X78615285Y-72266714D01*
X78662904Y-72361952D01*
X78710523Y-72409571D01*
X78805761Y-72457190D01*
X79186714Y-72457190D01*
X78186714Y-71933381D02*
X78186714Y-72742905D01*
X78139095Y-72838143D01*
X78091476Y-72885762D01*
X77996238Y-72933381D01*
X77805761Y-72933381D01*
X77710523Y-72885762D01*
X77662904Y-72838143D01*
X77615285Y-72742905D01*
X77615285Y-71933381D01*
X77186714Y-72885762D02*
X77043857Y-72933381D01*
X76805761Y-72933381D01*
X76710523Y-72885762D01*
X76662904Y-72838143D01*
X76615285Y-72742905D01*
X76615285Y-72647667D01*
X76662904Y-72552429D01*
X76710523Y-72504810D01*
X76805761Y-72457190D01*
X76996238Y-72409571D01*
X77091476Y-72361952D01*
X77139095Y-72314333D01*
X77186714Y-72219095D01*
X77186714Y-72123857D01*
X77139095Y-72028619D01*
X77091476Y-71981000D01*
X76996238Y-71933381D01*
X76758142Y-71933381D01*
X76615285Y-71981000D01*
X76186714Y-72933381D02*
X76186714Y-71933381D01*
X76186714Y-72409571D02*
X75615285Y-72409571D01*
X75615285Y-72933381D02*
X75615285Y-71933381D01*
X208213857Y-64142381D02*
X208690048Y-64142381D01*
X208690048Y-63142381D01*
X207880524Y-63618571D02*
X207547190Y-63618571D01*
X207404333Y-64142381D02*
X207880524Y-64142381D01*
X207880524Y-63142381D01*
X207404333Y-63142381D01*
X206975762Y-64142381D02*
X206975762Y-63142381D01*
X206737667Y-63142381D01*
X206594809Y-63190000D01*
X206499571Y-63285238D01*
X206451952Y-63380476D01*
X206404333Y-63570952D01*
X206404333Y-63713810D01*
X206451952Y-63904286D01*
X206499571Y-63999524D01*
X206594809Y-64094762D01*
X206737667Y-64142381D01*
X206975762Y-64142381D01*
X207951952Y-57561429D02*
X207190047Y-57561429D01*
X130544905Y-110116715D02*
X130544905Y-109735762D01*
X129744905Y-109735762D01*
X130125857Y-110383381D02*
X130125857Y-110650048D01*
X130544905Y-110764334D02*
X130544905Y-110383381D01*
X129744905Y-110383381D01*
X129744905Y-110764334D01*
X130544905Y-111107191D02*
X129744905Y-111107191D01*
X129744905Y-111297667D01*
X129783000Y-111411953D01*
X129859190Y-111488144D01*
X129935381Y-111526239D01*
X130087762Y-111564334D01*
X130202048Y-111564334D01*
X130354429Y-111526239D01*
X130430619Y-111488144D01*
X130506810Y-111411953D01*
X130544905Y-111297667D01*
X130544905Y-111107191D01*
X111057905Y-91066715D02*
X111057905Y-90685762D01*
X110257905Y-90685762D01*
X110638857Y-91333381D02*
X110638857Y-91600048D01*
X111057905Y-91714334D02*
X111057905Y-91333381D01*
X110257905Y-91333381D01*
X110257905Y-91714334D01*
X111057905Y-92057191D02*
X110257905Y-92057191D01*
X110257905Y-92247667D01*
X110296000Y-92361953D01*
X110372190Y-92438144D01*
X110448381Y-92476239D01*
X110600762Y-92514334D01*
X110715048Y-92514334D01*
X110867429Y-92476239D01*
X110943619Y-92438144D01*
X111019810Y-92361953D01*
X111057905Y-92247667D01*
X111057905Y-92057191D01*
X190285952Y-46471429D02*
X189524047Y-46471429D01*
X189904999Y-46852381D02*
X189904999Y-46090476D01*
X172285952Y-46471429D02*
X171524047Y-46471429D01*
X171904999Y-46852381D02*
X171904999Y-46090476D01*
X188933571Y-48280953D02*
X188981190Y-48423810D01*
X189028810Y-48471429D01*
X189124048Y-48519048D01*
X189266905Y-48519048D01*
X189362143Y-48471429D01*
X189409762Y-48423810D01*
X189457381Y-48328572D01*
X189457381Y-47947619D01*
X188457381Y-47947619D01*
X188457381Y-48280953D01*
X188505000Y-48376191D01*
X188552619Y-48423810D01*
X188647857Y-48471429D01*
X188743095Y-48471429D01*
X188838333Y-48423810D01*
X188885952Y-48376191D01*
X188933571Y-48280953D01*
X188933571Y-47947619D01*
X189171667Y-48900000D02*
X189171667Y-49376191D01*
X189457381Y-48804762D02*
X188457381Y-49138095D01*
X189457381Y-49471429D01*
X188457381Y-49661905D02*
X188457381Y-50233334D01*
X189457381Y-49947619D02*
X188457381Y-49947619D01*
X188457381Y-50423810D02*
X188457381Y-50995239D01*
X189457381Y-50709524D02*
X188457381Y-50709524D01*
X172257381Y-48638095D02*
X172257381Y-49257143D01*
X172638333Y-48923809D01*
X172638333Y-49066667D01*
X172685952Y-49161905D01*
X172733571Y-49209524D01*
X172828810Y-49257143D01*
X173066905Y-49257143D01*
X173162143Y-49209524D01*
X173209762Y-49161905D01*
X173257381Y-49066667D01*
X173257381Y-48780952D01*
X173209762Y-48685714D01*
X173162143Y-48638095D01*
X172257381Y-49542857D02*
X173257381Y-49876190D01*
X172257381Y-50209524D01*
X97213381Y-75388143D02*
X97213381Y-74911952D01*
X96213381Y-74911952D01*
X96689571Y-75721476D02*
X96689571Y-76054810D01*
X97213381Y-76197667D02*
X97213381Y-75721476D01*
X96213381Y-75721476D01*
X96213381Y-76197667D01*
X97213381Y-76626238D02*
X96213381Y-76626238D01*
X96213381Y-76864333D01*
X96261000Y-77007191D01*
X96356238Y-77102429D01*
X96451476Y-77150048D01*
X96641952Y-77197667D01*
X96784810Y-77197667D01*
X96975286Y-77150048D01*
X97070524Y-77102429D01*
X97165762Y-77007191D01*
X97213381Y-76864333D01*
X97213381Y-76626238D01*
X77938857Y-51728381D02*
X78415048Y-51728381D01*
X78415048Y-50728381D01*
X77605524Y-51204571D02*
X77272190Y-51204571D01*
X77129333Y-51728381D02*
X77605524Y-51728381D01*
X77605524Y-50728381D01*
X77129333Y-50728381D01*
X76700762Y-51728381D02*
X76700762Y-50728381D01*
X76462667Y-50728381D01*
X76319809Y-50776000D01*
X76224571Y-50871238D01*
X76176952Y-50966476D01*
X76129333Y-51156952D01*
X76129333Y-51299810D01*
X76176952Y-51490286D01*
X76224571Y-51585524D01*
X76319809Y-51680762D01*
X76462667Y-51728381D01*
X76700762Y-51728381D01*
X77776952Y-45947429D02*
X77015047Y-45947429D01*
X77395999Y-46328381D02*
X77395999Y-45566476D01*
X97303857Y-51728381D02*
X97780048Y-51728381D01*
X97780048Y-50728381D01*
X96970524Y-51204571D02*
X96637190Y-51204571D01*
X96494333Y-51728381D02*
X96970524Y-51728381D01*
X96970524Y-50728381D01*
X96494333Y-50728381D01*
X96065762Y-51728381D02*
X96065762Y-50728381D01*
X95827667Y-50728381D01*
X95684809Y-50776000D01*
X95589571Y-50871238D01*
X95541952Y-50966476D01*
X95494333Y-51156952D01*
X95494333Y-51299810D01*
X95541952Y-51490286D01*
X95589571Y-51585524D01*
X95684809Y-51680762D01*
X95827667Y-51728381D01*
X96065762Y-51728381D01*
X97141952Y-45947429D02*
X96380047Y-45947429D01*
X96760999Y-46328381D02*
X96760999Y-45566476D01*
X97213381Y-95578143D02*
X97213381Y-95101952D01*
X96213381Y-95101952D01*
X96689571Y-95911476D02*
X96689571Y-96244810D01*
X97213381Y-96387667D02*
X97213381Y-95911476D01*
X96213381Y-95911476D01*
X96213381Y-96387667D01*
X97213381Y-96816238D02*
X96213381Y-96816238D01*
X96213381Y-97054333D01*
X96261000Y-97197191D01*
X96356238Y-97292429D01*
X96451476Y-97340048D01*
X96641952Y-97387667D01*
X96784810Y-97387667D01*
X96975286Y-97340048D01*
X97070524Y-97292429D01*
X97165762Y-97197191D01*
X97213381Y-97054333D01*
X97213381Y-96816238D01*
X181262143Y-70764762D02*
X181309762Y-70717143D01*
X181357381Y-70574286D01*
X181357381Y-70479048D01*
X181309762Y-70336190D01*
X181214524Y-70240952D01*
X181119286Y-70193333D01*
X180928810Y-70145714D01*
X180785952Y-70145714D01*
X180595476Y-70193333D01*
X180500238Y-70240952D01*
X180405000Y-70336190D01*
X180357381Y-70479048D01*
X180357381Y-70574286D01*
X180405000Y-70717143D01*
X180452619Y-70764762D01*
X181357381Y-71764762D02*
X180881190Y-71431428D01*
X181357381Y-71193333D02*
X180357381Y-71193333D01*
X180357381Y-71574286D01*
X180405000Y-71669524D01*
X180452619Y-71717143D01*
X180547857Y-71764762D01*
X180690714Y-71764762D01*
X180785952Y-71717143D01*
X180833571Y-71669524D01*
X180881190Y-71574286D01*
X180881190Y-71193333D01*
X180452619Y-72145714D02*
X180405000Y-72193333D01*
X180357381Y-72288571D01*
X180357381Y-72526667D01*
X180405000Y-72621905D01*
X180452619Y-72669524D01*
X180547857Y-72717143D01*
X180643095Y-72717143D01*
X180785952Y-72669524D01*
X181357381Y-72098095D01*
X181357381Y-72717143D01*
X180357381Y-73336190D02*
X180357381Y-73431429D01*
X180405000Y-73526667D01*
X180452619Y-73574286D01*
X180547857Y-73621905D01*
X180738333Y-73669524D01*
X180976429Y-73669524D01*
X181166905Y-73621905D01*
X181262143Y-73574286D01*
X181309762Y-73526667D01*
X181357381Y-73431429D01*
X181357381Y-73336190D01*
X181309762Y-73240952D01*
X181262143Y-73193333D01*
X181166905Y-73145714D01*
X180976429Y-73098095D01*
X180738333Y-73098095D01*
X180547857Y-73145714D01*
X180452619Y-73193333D01*
X180405000Y-73240952D01*
X180357381Y-73336190D01*
X180357381Y-74002857D02*
X180357381Y-74621905D01*
X180738333Y-74288571D01*
X180738333Y-74431429D01*
X180785952Y-74526667D01*
X180833571Y-74574286D01*
X180928810Y-74621905D01*
X181166905Y-74621905D01*
X181262143Y-74574286D01*
X181309762Y-74526667D01*
X181357381Y-74431429D01*
X181357381Y-74145714D01*
X181309762Y-74050476D01*
X181262143Y-74002857D01*
X180452619Y-75002857D02*
X180405000Y-75050476D01*
X180357381Y-75145714D01*
X180357381Y-75383810D01*
X180405000Y-75479048D01*
X180452619Y-75526667D01*
X180547857Y-75574286D01*
X180643095Y-75574286D01*
X180785952Y-75526667D01*
X181357381Y-74955238D01*
X181357381Y-75574286D01*
X171738334Y-82412381D02*
X171119286Y-82412381D01*
X171452620Y-82793333D01*
X171309762Y-82793333D01*
X171214524Y-82840952D01*
X171166905Y-82888571D01*
X171119286Y-82983810D01*
X171119286Y-83221905D01*
X171166905Y-83317143D01*
X171214524Y-83364762D01*
X171309762Y-83412381D01*
X171595477Y-83412381D01*
X171690715Y-83364762D01*
X171738334Y-83317143D01*
X170833572Y-82412381D02*
X170500239Y-83412381D01*
X170166905Y-82412381D01*
X168738333Y-82888571D02*
X168595476Y-82936190D01*
X168547857Y-82983810D01*
X168500238Y-83079048D01*
X168500238Y-83221905D01*
X168547857Y-83317143D01*
X168595476Y-83364762D01*
X168690714Y-83412381D01*
X169071667Y-83412381D01*
X169071667Y-82412381D01*
X168738333Y-82412381D01*
X168643095Y-82460000D01*
X168595476Y-82507619D01*
X168547857Y-82602857D01*
X168547857Y-82698095D01*
X168595476Y-82793333D01*
X168643095Y-82840952D01*
X168738333Y-82888571D01*
X169071667Y-82888571D01*
X168119286Y-83126667D02*
X167643095Y-83126667D01*
X168214524Y-83412381D02*
X167881191Y-82412381D01*
X167547857Y-83412381D01*
X167357381Y-82412381D02*
X166785952Y-82412381D01*
X167071667Y-83412381D02*
X167071667Y-82412381D01*
X166595476Y-82412381D02*
X166024047Y-82412381D01*
X166309762Y-83412381D02*
X166309762Y-82412381D01*
X187685952Y-74331429D02*
X186924047Y-74331429D01*
X187304999Y-74712381D02*
X187304999Y-73950476D01*
X172885952Y-89331429D02*
X172124047Y-89331429D01*
X172504999Y-89712381D02*
X172504999Y-88950476D01*
X208182143Y-70764762D02*
X208229762Y-70717143D01*
X208277381Y-70574286D01*
X208277381Y-70479048D01*
X208229762Y-70336190D01*
X208134524Y-70240952D01*
X208039286Y-70193333D01*
X207848810Y-70145714D01*
X207705952Y-70145714D01*
X207515476Y-70193333D01*
X207420238Y-70240952D01*
X207325000Y-70336190D01*
X207277381Y-70479048D01*
X207277381Y-70574286D01*
X207325000Y-70717143D01*
X207372619Y-70764762D01*
X208277381Y-71764762D02*
X207801190Y-71431428D01*
X208277381Y-71193333D02*
X207277381Y-71193333D01*
X207277381Y-71574286D01*
X207325000Y-71669524D01*
X207372619Y-71717143D01*
X207467857Y-71764762D01*
X207610714Y-71764762D01*
X207705952Y-71717143D01*
X207753571Y-71669524D01*
X207801190Y-71574286D01*
X207801190Y-71193333D01*
X207372619Y-72145714D02*
X207325000Y-72193333D01*
X207277381Y-72288571D01*
X207277381Y-72526667D01*
X207325000Y-72621905D01*
X207372619Y-72669524D01*
X207467857Y-72717143D01*
X207563095Y-72717143D01*
X207705952Y-72669524D01*
X208277381Y-72098095D01*
X208277381Y-72717143D01*
X207277381Y-73336190D02*
X207277381Y-73431429D01*
X207325000Y-73526667D01*
X207372619Y-73574286D01*
X207467857Y-73621905D01*
X207658333Y-73669524D01*
X207896429Y-73669524D01*
X208086905Y-73621905D01*
X208182143Y-73574286D01*
X208229762Y-73526667D01*
X208277381Y-73431429D01*
X208277381Y-73336190D01*
X208229762Y-73240952D01*
X208182143Y-73193333D01*
X208086905Y-73145714D01*
X207896429Y-73098095D01*
X207658333Y-73098095D01*
X207467857Y-73145714D01*
X207372619Y-73193333D01*
X207325000Y-73240952D01*
X207277381Y-73336190D01*
X207277381Y-74002857D02*
X207277381Y-74621905D01*
X207658333Y-74288571D01*
X207658333Y-74431429D01*
X207705952Y-74526667D01*
X207753571Y-74574286D01*
X207848810Y-74621905D01*
X208086905Y-74621905D01*
X208182143Y-74574286D01*
X208229762Y-74526667D01*
X208277381Y-74431429D01*
X208277381Y-74145714D01*
X208229762Y-74050476D01*
X208182143Y-74002857D01*
X207372619Y-75002857D02*
X207325000Y-75050476D01*
X207277381Y-75145714D01*
X207277381Y-75383810D01*
X207325000Y-75479048D01*
X207372619Y-75526667D01*
X207467857Y-75574286D01*
X207563095Y-75574286D01*
X207705952Y-75526667D01*
X208277381Y-74955238D01*
X208277381Y-75574286D01*
X198658334Y-82412381D02*
X198039286Y-82412381D01*
X198372620Y-82793333D01*
X198229762Y-82793333D01*
X198134524Y-82840952D01*
X198086905Y-82888571D01*
X198039286Y-82983810D01*
X198039286Y-83221905D01*
X198086905Y-83317143D01*
X198134524Y-83364762D01*
X198229762Y-83412381D01*
X198515477Y-83412381D01*
X198610715Y-83364762D01*
X198658334Y-83317143D01*
X197753572Y-82412381D02*
X197420239Y-83412381D01*
X197086905Y-82412381D01*
X195658333Y-82888571D02*
X195515476Y-82936190D01*
X195467857Y-82983810D01*
X195420238Y-83079048D01*
X195420238Y-83221905D01*
X195467857Y-83317143D01*
X195515476Y-83364762D01*
X195610714Y-83412381D01*
X195991667Y-83412381D01*
X195991667Y-82412381D01*
X195658333Y-82412381D01*
X195563095Y-82460000D01*
X195515476Y-82507619D01*
X195467857Y-82602857D01*
X195467857Y-82698095D01*
X195515476Y-82793333D01*
X195563095Y-82840952D01*
X195658333Y-82888571D01*
X195991667Y-82888571D01*
X195039286Y-83126667D02*
X194563095Y-83126667D01*
X195134524Y-83412381D02*
X194801191Y-82412381D01*
X194467857Y-83412381D01*
X194277381Y-82412381D02*
X193705952Y-82412381D01*
X193991667Y-83412381D02*
X193991667Y-82412381D01*
X193515476Y-82412381D02*
X192944047Y-82412381D01*
X193229762Y-83412381D02*
X193229762Y-82412381D01*
X214605952Y-74331429D02*
X213844047Y-74331429D01*
X214224999Y-74712381D02*
X214224999Y-73950476D01*
X199805952Y-89331429D02*
X199044047Y-89331429D01*
X199424999Y-89712381D02*
X199424999Y-88950476D01*
M02*
