G04 #@! TF.FileFunction,Soldermask,Bot*
%FSLAX46Y46*%
G04 Gerber Fmt 4.6, Leading zero omitted, Abs format (unit mm)*
G04 Created by KiCad (PCBNEW 4.0.1-3.201512221402+6198~38~ubuntu14.04.1-stable) date Thu 03 Mar 2016 09:20:13 PM PST*
%MOMM*%
G01*
G04 APERTURE LIST*
%ADD10C,0.100000*%
%ADD11C,6.000000*%
%ADD12C,5.000000*%
%ADD13C,1.500000*%
%ADD14C,2.400000*%
%ADD15C,2.300000*%
%ADD16C,6.400000*%
%ADD17C,1.650000*%
%ADD18C,1.700000*%
%ADD19C,2.000000*%
%ADD20R,2.400000X2.400000*%
%ADD21C,5.630000*%
%ADD22R,2.200000X2.300000*%
%ADD23R,2.400000X2.300000*%
%ADD24C,9.400000*%
%ADD25C,5.900000*%
%ADD26C,2.100000*%
%ADD27C,5.280000*%
G04 APERTURE END LIST*
D10*
D11*
X130336000Y-87681000D02*
X138636000Y-87681000D01*
X130336000Y-95681000D02*
X138636000Y-95681000D01*
D12*
X176905000Y-60130000D02*
X184905000Y-60130000D01*
X149586000Y-87366000D02*
X157586000Y-87366000D01*
X149586000Y-95366000D02*
X157586000Y-95366000D01*
X149586000Y-67366000D02*
X157586000Y-67366000D01*
X149586000Y-75366000D02*
X157586000Y-75366000D01*
D11*
X149386000Y-48001000D02*
X157686000Y-48001000D01*
X149386000Y-56001000D02*
X157686000Y-56001000D01*
X111291000Y-106731000D02*
X119591000Y-106731000D01*
X111291000Y-114731000D02*
X119591000Y-114731000D01*
D13*
X135271000Y-71431000D02*
X138271000Y-67431000D01*
X134271000Y-71431000D02*
X135271000Y-71431000D01*
D12*
X130271000Y-75431000D02*
X138271000Y-75431000D01*
D13*
X134271000Y-69431000D02*
X130271000Y-67431000D01*
X192834000Y-102464000D02*
X192834000Y-97964000D01*
X192834000Y-113464000D02*
X192834000Y-106464000D01*
X189334000Y-104464000D02*
X195834000Y-104464000D01*
D12*
X188834000Y-113464000D02*
X196834000Y-113464000D01*
X188834000Y-97464000D02*
X196834000Y-97464000D01*
X111491000Y-55876000D02*
X119491000Y-55876000D01*
X119491000Y-47876000D02*
X111491000Y-47876000D01*
D13*
X116491000Y-71431000D02*
X119491000Y-67431000D01*
X115491000Y-71431000D02*
X116491000Y-71431000D01*
D12*
X111491000Y-75431000D02*
X119491000Y-75431000D01*
D13*
X115491000Y-69431000D02*
X111491000Y-67431000D01*
D12*
X206802000Y-97464000D02*
X206802000Y-113464000D01*
X214802000Y-113464000D02*
X214802000Y-97464000D01*
X130221000Y-47876000D02*
X138221000Y-47876000D01*
X130221000Y-55876000D02*
X138221000Y-55876000D01*
X73401000Y-114731000D02*
X81401000Y-114731000D01*
X73401000Y-106731000D02*
X81401000Y-106731000D01*
X73401000Y-75681000D02*
X81401000Y-75681000D01*
X73401000Y-67681000D02*
X81401000Y-67681000D01*
X92131000Y-114731000D02*
X100131000Y-114731000D01*
X100131000Y-106731000D02*
X92131000Y-106731000D01*
X130983000Y-106731000D02*
X138983000Y-106731000D01*
X130983000Y-114731000D02*
X138983000Y-114731000D01*
X111496000Y-87681000D02*
X119496000Y-87681000D01*
X111496000Y-95681000D02*
X119496000Y-95681000D01*
X176905000Y-49400000D02*
X184905000Y-49400000D01*
X100761000Y-67431000D02*
X92761000Y-67431000D01*
X100761000Y-75431000D02*
X92761000Y-75431000D01*
X81396000Y-47876000D02*
X73396000Y-47876000D01*
X81396000Y-55876000D02*
X73396000Y-55876000D01*
X100761000Y-47876000D02*
X92761000Y-47876000D01*
X100761000Y-55876000D02*
X92761000Y-55876000D01*
X100761000Y-87621000D02*
X92761000Y-87621000D01*
X100761000Y-95621000D02*
X92761000Y-95621000D01*
X168905000Y-78860000D02*
X184905000Y-78860000D01*
X176905000Y-70860000D02*
X176905000Y-86860000D01*
X168905000Y-70860000D02*
X184905000Y-86860000D01*
X195825000Y-78860000D02*
X211825000Y-78860000D01*
X203825000Y-70860000D02*
X203825000Y-86860000D01*
X195825000Y-70860000D02*
X211825000Y-86860000D01*
X73716000Y-87366000D02*
X81716000Y-87366000D01*
X73716000Y-95366000D02*
X81716000Y-95366000D01*
D14*
X134536000Y-89141000D03*
D15*
X134536000Y-94221000D03*
D16*
X130536000Y-95681000D03*
X130536000Y-87681000D03*
X138536000Y-87681000D03*
X138536000Y-95681000D03*
X184905000Y-60130000D03*
X176905000Y-60130000D03*
X168905000Y-60130000D03*
X192905000Y-60130000D03*
D14*
X147086000Y-91366000D03*
X152086000Y-91366000D03*
D16*
X149586000Y-95366000D03*
X157586000Y-95366000D03*
X157586000Y-87366000D03*
X149586000Y-87366000D03*
X157586000Y-75366000D03*
X157586000Y-67366000D03*
X149586000Y-67366000D03*
X149586000Y-75366000D03*
D14*
X153586000Y-49461000D03*
D15*
X153586000Y-54541000D03*
D16*
X149586000Y-56001000D03*
X149586000Y-48001000D03*
X157586000Y-48001000D03*
X157586000Y-56001000D03*
D14*
X115491000Y-108191000D03*
D15*
X115491000Y-113271000D03*
D16*
X111491000Y-114731000D03*
X111491000Y-106731000D03*
X119491000Y-106731000D03*
X119491000Y-114731000D03*
X138271000Y-67431000D03*
D17*
X134221000Y-71356000D03*
X134221000Y-69356000D03*
X134221000Y-73356000D03*
D16*
X138271000Y-75431000D03*
X130271000Y-67431000D03*
X130271000Y-75431000D03*
X188834000Y-97464000D03*
X196834000Y-113464000D03*
D17*
X192834000Y-104514000D03*
X192834000Y-102514000D03*
X192834000Y-106514000D03*
D16*
X196834000Y-97464000D03*
X188834000Y-113464000D03*
X188834000Y-105464000D03*
X196834000Y-105464000D03*
D14*
X115491000Y-50606000D03*
D15*
X115491000Y-53146000D03*
D16*
X111491000Y-55876000D03*
X111491000Y-47876000D03*
X119491000Y-47876000D03*
X119491000Y-55876000D03*
X119491000Y-67431000D03*
D17*
X115441000Y-71356000D03*
X115441000Y-69356000D03*
X115441000Y-73356000D03*
D16*
X119491000Y-75431000D03*
X111491000Y-67431000D03*
X111491000Y-75431000D03*
D18*
X212377000Y-109889000D03*
D19*
X210727000Y-109889000D03*
D18*
X209077000Y-109889000D03*
D14*
X210727000Y-99689000D03*
D16*
X214802000Y-97464000D03*
X214802000Y-113464000D03*
X206802000Y-113464000D03*
X206802000Y-105464000D03*
X206802000Y-97464000D03*
X214802000Y-105464000D03*
D20*
X134221000Y-51876000D03*
D21*
X130221000Y-55876000D03*
X130221000Y-47876000D03*
X138221000Y-47876000D03*
X138221000Y-55876000D03*
D20*
X131721000Y-51876000D03*
D14*
X136721000Y-51876000D03*
D16*
X81401000Y-106731000D03*
X73401000Y-106731000D03*
X81401000Y-114731000D03*
X73401000Y-114731000D03*
X81401000Y-67681000D03*
X73401000Y-67681000D03*
X81401000Y-75681000D03*
X73401000Y-75681000D03*
D14*
X96131000Y-109461000D03*
D15*
X96131000Y-112001000D03*
D16*
X92131000Y-114731000D03*
X92131000Y-106731000D03*
X100131000Y-106731000D03*
X100131000Y-114731000D03*
D22*
X207571000Y-59190000D03*
D15*
X207558800Y-61790000D03*
D16*
X211571000Y-60490000D03*
X203571000Y-60490000D03*
D20*
X134983000Y-110731000D03*
D21*
X130983000Y-114731000D03*
X130983000Y-106731000D03*
X138983000Y-106731000D03*
X138983000Y-114731000D03*
D20*
X132483000Y-110731000D03*
D14*
X137483000Y-110731000D03*
D20*
X115496000Y-91681000D03*
D21*
X111496000Y-95681000D03*
X111496000Y-87681000D03*
X119496000Y-87681000D03*
X119496000Y-95681000D03*
D20*
X112996000Y-91681000D03*
D14*
X117996000Y-91681000D03*
D16*
X184905000Y-49400000D03*
X176905000Y-49400000D03*
X168905000Y-49400000D03*
X192905000Y-49400000D03*
D23*
X96761000Y-70431000D03*
D15*
X96761000Y-72971000D03*
D16*
X92761000Y-75431000D03*
X92761000Y-67431000D03*
X100761000Y-67431000D03*
X100761000Y-75431000D03*
D14*
X77396000Y-49376000D03*
D15*
X77396000Y-54376000D03*
D16*
X73396000Y-55876000D03*
X73396000Y-47876000D03*
X81396000Y-47876000D03*
X81396000Y-55876000D03*
D14*
X96761000Y-49376000D03*
D15*
X96761000Y-54376000D03*
D16*
X92761000Y-55876000D03*
X92761000Y-47876000D03*
X100761000Y-47876000D03*
X100761000Y-55876000D03*
D23*
X96761000Y-90621000D03*
D15*
X96761000Y-93161000D03*
D16*
X92761000Y-95621000D03*
X92761000Y-87621000D03*
X100761000Y-87621000D03*
X100761000Y-95621000D03*
D24*
X176905000Y-78860000D03*
D16*
X184905000Y-70860000D03*
X168905000Y-70860000D03*
X176905000Y-70860000D03*
X184905000Y-78860000D03*
X184905000Y-86860000D03*
X176905000Y-86860000D03*
X168905000Y-78860000D03*
X168905000Y-86860000D03*
D24*
X203825000Y-78860000D03*
D16*
X211825000Y-70860000D03*
X195825000Y-70860000D03*
X203825000Y-70860000D03*
X211825000Y-78860000D03*
X211825000Y-86860000D03*
X203825000Y-86860000D03*
X195825000Y-78860000D03*
X195825000Y-86860000D03*
X73716000Y-95366000D03*
X73716000Y-87366000D03*
X81716000Y-87366000D03*
X81716000Y-95366000D03*
X149215000Y-106542000D03*
X157215000Y-106542000D03*
D14*
X207561000Y-48407000D03*
D15*
X207561000Y-50947000D03*
D25*
X203561000Y-49527000D03*
X211561000Y-49527000D03*
D26*
X170848200Y-102594600D03*
X170848200Y-108594600D03*
X166848200Y-102594600D03*
X166848200Y-108594600D03*
D27*
X168834000Y-105588000D03*
D16*
X168834000Y-113588000D03*
X168834000Y-97588000D03*
D26*
X180848200Y-102594600D03*
X180848200Y-108594600D03*
X176848200Y-102594600D03*
X176848200Y-108594600D03*
D27*
X178834000Y-105588000D03*
D16*
X178834000Y-113588000D03*
X178834000Y-97588000D03*
M02*
