G04 #@! TF.FileFunction,Soldermask,Top*
%FSLAX46Y46*%
G04 Gerber Fmt 4.6, Leading zero omitted, Abs format (unit mm)*
G04 Created by KiCad (PCBNEW 4.0.1-3.201512221402+6198~38~ubuntu14.04.1-stable) date Thu 03 Mar 2016 09:20:13 PM PST*
%MOMM*%
G01*
G04 APERTURE LIST*
%ADD10C,0.100000*%
%ADD11C,2.400000*%
%ADD12C,2.300000*%
%ADD13C,6.400000*%
%ADD14R,15.400000X5.960000*%
%ADD15R,3.400000X0.900000*%
%ADD16R,2.200000X0.900000*%
%ADD17C,4.400000*%
%ADD18C,1.650000*%
%ADD19C,1.700000*%
%ADD20C,2.000000*%
%ADD21R,2.400000X2.400000*%
%ADD22C,5.630000*%
%ADD23R,2.200000X2.300000*%
%ADD24R,2.400000X2.300000*%
%ADD25C,9.400000*%
%ADD26R,2.000000X1.900000*%
%ADD27R,1.800000X1.900000*%
%ADD28R,1.800000X1.800000*%
%ADD29C,5.900000*%
%ADD30C,2.100000*%
%ADD31C,5.280000*%
G04 APERTURE END LIST*
D10*
D11*
X134536000Y-89141000D03*
D12*
X134536000Y-94221000D03*
D13*
X130536000Y-95681000D03*
X130536000Y-87681000D03*
X138536000Y-87681000D03*
X138536000Y-95681000D03*
X184905000Y-60130000D03*
X176905000Y-60130000D03*
X168905000Y-60130000D03*
X192905000Y-60130000D03*
D14*
X180837000Y-60130000D03*
D11*
X147086000Y-91366000D03*
X152086000Y-91366000D03*
D13*
X149586000Y-95366000D03*
X157586000Y-95366000D03*
X157586000Y-87366000D03*
X149586000Y-87366000D03*
D15*
X153536000Y-70366000D03*
D16*
X153536000Y-73001000D03*
D17*
X153536000Y-71366000D03*
D13*
X157586000Y-75366000D03*
X157586000Y-67366000D03*
X149586000Y-67366000D03*
X149586000Y-75366000D03*
D11*
X153586000Y-49461000D03*
D12*
X153586000Y-54541000D03*
D13*
X149586000Y-56001000D03*
X149586000Y-48001000D03*
X157586000Y-48001000D03*
X157586000Y-56001000D03*
D11*
X115491000Y-108191000D03*
D12*
X115491000Y-113271000D03*
D13*
X111491000Y-114731000D03*
X111491000Y-106731000D03*
X119491000Y-106731000D03*
X119491000Y-114731000D03*
X138271000Y-67431000D03*
D18*
X134221000Y-71356000D03*
X134221000Y-69356000D03*
X134221000Y-73356000D03*
D13*
X138271000Y-75431000D03*
X130271000Y-67431000D03*
X130271000Y-75431000D03*
X188834000Y-97464000D03*
X196834000Y-113464000D03*
D18*
X192834000Y-104514000D03*
X192834000Y-102514000D03*
X192834000Y-106514000D03*
D13*
X196834000Y-97464000D03*
X188834000Y-113464000D03*
X188834000Y-105464000D03*
X196834000Y-105464000D03*
D11*
X115491000Y-50606000D03*
D12*
X115491000Y-53146000D03*
D13*
X111491000Y-55876000D03*
X111491000Y-47876000D03*
X119491000Y-47876000D03*
X119491000Y-55876000D03*
X119491000Y-67431000D03*
D18*
X115441000Y-71356000D03*
X115441000Y-69356000D03*
X115441000Y-73356000D03*
D13*
X119491000Y-75431000D03*
X111491000Y-67431000D03*
X111491000Y-75431000D03*
D19*
X212377000Y-109889000D03*
D20*
X210727000Y-109889000D03*
D19*
X209077000Y-109889000D03*
D11*
X210727000Y-99689000D03*
D13*
X214802000Y-97464000D03*
X214802000Y-113464000D03*
X206802000Y-113464000D03*
X206802000Y-105464000D03*
X206802000Y-97464000D03*
X214802000Y-105464000D03*
D21*
X134221000Y-51876000D03*
D22*
X130221000Y-55876000D03*
X130221000Y-47876000D03*
X138221000Y-47876000D03*
X138221000Y-55876000D03*
D21*
X131721000Y-51876000D03*
D11*
X136721000Y-51876000D03*
D13*
X81401000Y-106731000D03*
X73401000Y-106731000D03*
X81401000Y-114731000D03*
X73401000Y-114731000D03*
X81401000Y-67681000D03*
X73401000Y-67681000D03*
X81401000Y-75681000D03*
X73401000Y-75681000D03*
D11*
X96131000Y-109461000D03*
D12*
X96131000Y-112001000D03*
D13*
X92131000Y-114731000D03*
X92131000Y-106731000D03*
X100131000Y-106731000D03*
X100131000Y-114731000D03*
D23*
X207571000Y-59190000D03*
D12*
X207558800Y-61790000D03*
D13*
X211571000Y-60490000D03*
X203571000Y-60490000D03*
D21*
X134983000Y-110731000D03*
D22*
X130983000Y-114731000D03*
X130983000Y-106731000D03*
X138983000Y-106731000D03*
X138983000Y-114731000D03*
D21*
X132483000Y-110731000D03*
D11*
X137483000Y-110731000D03*
D21*
X115496000Y-91681000D03*
D22*
X111496000Y-95681000D03*
X111496000Y-87681000D03*
X119496000Y-87681000D03*
X119496000Y-95681000D03*
D21*
X112996000Y-91681000D03*
D11*
X117996000Y-91681000D03*
D13*
X184905000Y-49400000D03*
X176905000Y-49400000D03*
X168905000Y-49400000D03*
X192905000Y-49400000D03*
D14*
X180837000Y-49400000D03*
D24*
X96761000Y-70431000D03*
D12*
X96761000Y-72971000D03*
D13*
X92761000Y-75431000D03*
X92761000Y-67431000D03*
X100761000Y-67431000D03*
X100761000Y-75431000D03*
D11*
X77396000Y-49376000D03*
D12*
X77396000Y-54376000D03*
D13*
X73396000Y-55876000D03*
X73396000Y-47876000D03*
X81396000Y-47876000D03*
X81396000Y-55876000D03*
D11*
X96761000Y-49376000D03*
D12*
X96761000Y-54376000D03*
D13*
X92761000Y-55876000D03*
X92761000Y-47876000D03*
X100761000Y-47876000D03*
X100761000Y-55876000D03*
D24*
X96761000Y-90621000D03*
D12*
X96761000Y-93161000D03*
D13*
X92761000Y-95621000D03*
X92761000Y-87621000D03*
X100761000Y-87621000D03*
X100761000Y-95621000D03*
D25*
X176905000Y-78860000D03*
D13*
X184905000Y-70860000D03*
X168905000Y-70860000D03*
X176905000Y-70860000D03*
X184905000Y-78860000D03*
X184905000Y-86860000D03*
X176905000Y-86860000D03*
X168905000Y-78860000D03*
X168905000Y-86860000D03*
D25*
X203825000Y-78860000D03*
D13*
X211825000Y-70860000D03*
X195825000Y-70860000D03*
X203825000Y-70860000D03*
X211825000Y-78860000D03*
X211825000Y-86860000D03*
X203825000Y-86860000D03*
X195825000Y-78860000D03*
X195825000Y-86860000D03*
D26*
X77716000Y-89656000D03*
D13*
X73716000Y-95366000D03*
X73716000Y-87366000D03*
X81716000Y-87366000D03*
X81716000Y-95366000D03*
D26*
X77716000Y-93076000D03*
D27*
X153215000Y-104832000D03*
D13*
X149215000Y-106542000D03*
X157215000Y-106542000D03*
D28*
X153215000Y-108252000D03*
D11*
X207561000Y-48407000D03*
D12*
X207561000Y-50947000D03*
D29*
X203561000Y-49527000D03*
X211561000Y-49527000D03*
D30*
X170848200Y-102594600D03*
X170848200Y-108594600D03*
X166848200Y-102594600D03*
X166848200Y-108594600D03*
D31*
X168834000Y-105588000D03*
D13*
X168834000Y-113588000D03*
X168834000Y-97588000D03*
D30*
X180848200Y-102594600D03*
X180848200Y-108594600D03*
X176848200Y-102594600D03*
X176848200Y-108594600D03*
D31*
X178834000Y-105588000D03*
D13*
X178834000Y-113588000D03*
X178834000Y-97588000D03*
M02*
