%TF.GenerationSoftware,KiCad,Pcbnew,4.0.5-e0-6337~49~ubuntu16.04.1*%
%TF.CreationDate,2017-01-18T23:33:55-08:00*%
%TF.ProjectId,2x3-Vibe-Motor-TH,3278332D566962652D4D6F746F722D54,1.0*%
%TF.FileFunction,Soldermask,Bot*%
%FSLAX46Y46*%
G04 Gerber Fmt 4.6, Leading zero omitted, Abs format (unit mm)*
G04 Created by KiCad (PCBNEW 4.0.5-e0-6337~49~ubuntu16.04.1) date Wed Jan 18 23:33:55 2017*
%MOMM*%
%LPD*%
G01*
G04 APERTURE LIST*
%ADD10C,0.350000*%
%ADD11C,6.000000*%
G04 APERTURE END LIST*
D10*
D11*
X144211040Y-89464880D02*
X128211040Y-89464880D01*
X128160240Y-98328480D02*
X144160240Y-98328480D01*
D10*
G36*
X136483350Y-94898727D02*
X137074295Y-95020031D01*
X137630438Y-95253812D01*
X138130574Y-95591158D01*
X138555661Y-96019223D01*
X138889506Y-96521701D01*
X139119396Y-97079456D01*
X139236504Y-97670894D01*
X139236504Y-97670904D01*
X139236571Y-97671243D01*
X139226950Y-98360296D01*
X139226873Y-98360634D01*
X139226873Y-98360642D01*
X139093297Y-98948581D01*
X138847925Y-99499696D01*
X138500177Y-99992658D01*
X138063302Y-100408689D01*
X137553940Y-100731941D01*
X136991494Y-100950099D01*
X136397387Y-101054856D01*
X135794243Y-101042222D01*
X135205040Y-100912677D01*
X134652222Y-100671157D01*
X134156847Y-100326862D01*
X133737777Y-99892903D01*
X133410978Y-99385810D01*
X133188896Y-98824894D01*
X133079995Y-98231538D01*
X133088417Y-97628321D01*
X133213846Y-97038227D01*
X133451499Y-96483738D01*
X133792331Y-95985968D01*
X134223352Y-95563880D01*
X134728153Y-95233548D01*
X135287499Y-95007557D01*
X135880085Y-94894516D01*
X136483350Y-94898727D01*
X136483350Y-94898727D01*
G37*
G36*
X144483350Y-94898727D02*
X145074295Y-95020031D01*
X145630438Y-95253812D01*
X146130574Y-95591158D01*
X146555661Y-96019223D01*
X146889506Y-96521701D01*
X147119396Y-97079456D01*
X147236504Y-97670894D01*
X147236504Y-97670904D01*
X147236571Y-97671243D01*
X147226950Y-98360296D01*
X147226873Y-98360634D01*
X147226873Y-98360642D01*
X147093297Y-98948581D01*
X146847925Y-99499696D01*
X146500177Y-99992658D01*
X146063302Y-100408689D01*
X145553940Y-100731941D01*
X144991494Y-100950099D01*
X144397387Y-101054856D01*
X143794243Y-101042222D01*
X143205040Y-100912677D01*
X142652222Y-100671157D01*
X142156847Y-100326862D01*
X141737777Y-99892903D01*
X141410978Y-99385810D01*
X141188896Y-98824894D01*
X141079995Y-98231538D01*
X141088417Y-97628321D01*
X141213846Y-97038227D01*
X141451499Y-96483738D01*
X141792331Y-95985968D01*
X142223352Y-95563880D01*
X142728153Y-95233548D01*
X143287499Y-95007557D01*
X143880085Y-94894516D01*
X144483350Y-94898727D01*
X144483350Y-94898727D01*
G37*
G36*
X128483350Y-94898727D02*
X129074295Y-95020031D01*
X129630438Y-95253812D01*
X130130574Y-95591158D01*
X130555661Y-96019223D01*
X130889506Y-96521701D01*
X131119396Y-97079456D01*
X131236504Y-97670894D01*
X131236504Y-97670904D01*
X131236571Y-97671243D01*
X131226950Y-98360296D01*
X131226873Y-98360634D01*
X131226873Y-98360642D01*
X131093297Y-98948581D01*
X130847925Y-99499696D01*
X130500177Y-99992658D01*
X130063302Y-100408689D01*
X129553940Y-100731941D01*
X128991494Y-100950099D01*
X128397387Y-101054856D01*
X127794243Y-101042222D01*
X127205040Y-100912677D01*
X126652222Y-100671157D01*
X126156847Y-100326862D01*
X125737777Y-99892903D01*
X125410978Y-99385810D01*
X125188896Y-98824894D01*
X125079995Y-98231538D01*
X125088417Y-97628321D01*
X125213846Y-97038227D01*
X125451499Y-96483738D01*
X125792331Y-95985968D01*
X126223352Y-95563880D01*
X126728153Y-95233548D01*
X127287499Y-95007557D01*
X127880085Y-94894516D01*
X128483350Y-94898727D01*
X128483350Y-94898727D01*
G37*
G36*
X131811520Y-94822161D02*
X131951019Y-94850797D01*
X132082313Y-94905988D01*
X132200380Y-94985625D01*
X132300731Y-95086678D01*
X132379540Y-95205297D01*
X132433811Y-95336967D01*
X132461404Y-95476323D01*
X132461404Y-95476333D01*
X132461471Y-95476672D01*
X132459200Y-95639337D01*
X132459123Y-95639675D01*
X132459123Y-95639684D01*
X132427649Y-95778217D01*
X132369726Y-95908316D01*
X132287631Y-96024691D01*
X132184498Y-96122904D01*
X132064253Y-96199214D01*
X131931473Y-96250716D01*
X131791225Y-96275446D01*
X131648839Y-96272463D01*
X131509744Y-96241881D01*
X131379239Y-96184865D01*
X131262298Y-96103589D01*
X131163367Y-96001143D01*
X131086219Y-95881432D01*
X131033790Y-95749013D01*
X131008083Y-95608943D01*
X131010071Y-95466541D01*
X131039682Y-95327235D01*
X131095784Y-95196337D01*
X131176245Y-95078827D01*
X131277996Y-94979185D01*
X131397166Y-94901203D01*
X131529212Y-94847852D01*
X131669102Y-94821167D01*
X131811520Y-94822161D01*
X131811520Y-94822161D01*
G37*
G36*
X142048282Y-92822395D02*
X142255017Y-92864832D01*
X142449587Y-92946621D01*
X142624558Y-93064641D01*
X142773273Y-93214398D01*
X142890067Y-93390188D01*
X142970493Y-93585316D01*
X143011418Y-93792004D01*
X143011418Y-93792009D01*
X143011486Y-93792353D01*
X143008120Y-94033416D01*
X143008043Y-94033754D01*
X143008043Y-94033763D01*
X142961362Y-94239229D01*
X142875521Y-94432032D01*
X142753861Y-94604495D01*
X142601022Y-94750042D01*
X142422824Y-94863130D01*
X142226050Y-94939453D01*
X142018207Y-94976102D01*
X141807197Y-94971682D01*
X141601065Y-94926361D01*
X141407662Y-94841865D01*
X141234359Y-94721416D01*
X141087748Y-94569597D01*
X140973418Y-94392190D01*
X140895721Y-94195952D01*
X140857624Y-93988372D01*
X140860570Y-93777338D01*
X140904451Y-93570893D01*
X140987593Y-93376908D01*
X141106833Y-93202763D01*
X141257624Y-93055097D01*
X141434228Y-92939531D01*
X141629915Y-92860468D01*
X141837227Y-92820922D01*
X142048282Y-92822395D01*
X142048282Y-92822395D01*
G37*
G36*
X131816771Y-93122195D02*
X131965876Y-93152803D01*
X132106209Y-93211793D01*
X132232402Y-93296912D01*
X132339664Y-93404924D01*
X132423902Y-93531714D01*
X132481907Y-93672445D01*
X132509330Y-93810940D01*
X132511474Y-93821770D01*
X132509046Y-93995634D01*
X132508968Y-93995977D01*
X132508968Y-93995981D01*
X132475322Y-94144076D01*
X132413410Y-94283132D01*
X132325664Y-94407520D01*
X132215429Y-94512495D01*
X132086904Y-94594060D01*
X131944986Y-94649106D01*
X131795080Y-94675539D01*
X131642889Y-94672350D01*
X131494220Y-94639664D01*
X131354728Y-94578721D01*
X131229736Y-94491849D01*
X131123994Y-94382350D01*
X131041534Y-94254397D01*
X130985496Y-94112862D01*
X130958018Y-93963146D01*
X130960143Y-93810940D01*
X130991793Y-93662043D01*
X131051757Y-93522133D01*
X131137758Y-93396533D01*
X131246515Y-93290030D01*
X131373890Y-93206679D01*
X131515027Y-93149655D01*
X131664548Y-93121133D01*
X131816771Y-93122195D01*
X131816771Y-93122195D01*
G37*
G36*
X128483350Y-86898727D02*
X129074295Y-87020031D01*
X129630438Y-87253812D01*
X130130574Y-87591158D01*
X130555661Y-88019223D01*
X130889506Y-88521701D01*
X131119396Y-89079456D01*
X131236504Y-89670894D01*
X131236504Y-89670904D01*
X131236571Y-89671243D01*
X131226950Y-90360296D01*
X131226873Y-90360634D01*
X131226873Y-90360642D01*
X131093297Y-90948581D01*
X130847925Y-91499696D01*
X130500177Y-91992658D01*
X130063302Y-92408689D01*
X129553940Y-92731941D01*
X128991494Y-92950099D01*
X128397387Y-93054856D01*
X127794243Y-93042222D01*
X127205040Y-92912677D01*
X126652222Y-92671157D01*
X126156847Y-92326862D01*
X125737777Y-91892903D01*
X125410978Y-91385810D01*
X125188896Y-90824894D01*
X125079995Y-90231538D01*
X125088417Y-89628321D01*
X125213846Y-89038227D01*
X125451499Y-88483738D01*
X125792331Y-87985968D01*
X126223352Y-87563880D01*
X126728153Y-87233548D01*
X127287499Y-87007557D01*
X127880085Y-86894516D01*
X128483350Y-86898727D01*
X128483350Y-86898727D01*
G37*
G36*
X136483350Y-86898727D02*
X137074295Y-87020031D01*
X137630438Y-87253812D01*
X138130574Y-87591158D01*
X138555661Y-88019223D01*
X138889506Y-88521701D01*
X139119396Y-89079456D01*
X139236504Y-89670894D01*
X139236504Y-89670904D01*
X139236571Y-89671243D01*
X139226950Y-90360296D01*
X139226873Y-90360634D01*
X139226873Y-90360642D01*
X139093297Y-90948581D01*
X138847925Y-91499696D01*
X138500177Y-91992658D01*
X138063302Y-92408689D01*
X137553940Y-92731941D01*
X136991494Y-92950099D01*
X136397387Y-93054856D01*
X135794243Y-93042222D01*
X135205040Y-92912677D01*
X134652222Y-92671157D01*
X134156847Y-92326862D01*
X133737777Y-91892903D01*
X133410978Y-91385810D01*
X133188896Y-90824894D01*
X133079995Y-90231538D01*
X133088417Y-89628321D01*
X133213846Y-89038227D01*
X133451499Y-88483738D01*
X133792331Y-87985968D01*
X134223352Y-87563880D01*
X134728153Y-87233548D01*
X135287499Y-87007557D01*
X135880085Y-86894516D01*
X136483350Y-86898727D01*
X136483350Y-86898727D01*
G37*
G36*
X144483350Y-86898727D02*
X145074295Y-87020031D01*
X145630438Y-87253812D01*
X146130574Y-87591158D01*
X146555661Y-88019223D01*
X146889506Y-88521701D01*
X147119396Y-89079456D01*
X147236504Y-89670894D01*
X147236504Y-89670904D01*
X147236571Y-89671243D01*
X147226950Y-90360296D01*
X147226873Y-90360634D01*
X147226873Y-90360642D01*
X147093297Y-90948581D01*
X146847925Y-91499696D01*
X146500177Y-91992658D01*
X146063302Y-92408689D01*
X145553940Y-92731941D01*
X144991494Y-92950099D01*
X144397387Y-93054856D01*
X143794243Y-93042222D01*
X143205040Y-92912677D01*
X142652222Y-92671157D01*
X142156847Y-92326862D01*
X141737777Y-91892903D01*
X141410978Y-91385810D01*
X141188896Y-90824894D01*
X141079995Y-90231538D01*
X141088417Y-89628321D01*
X141213846Y-89038227D01*
X141451499Y-88483738D01*
X141792331Y-87985968D01*
X142223352Y-87563880D01*
X142728153Y-87233548D01*
X143287499Y-87007557D01*
X143880085Y-86894516D01*
X144483350Y-86898727D01*
X144483350Y-86898727D01*
G37*
G36*
X131811520Y-91522161D02*
X131951019Y-91550797D01*
X132082313Y-91605988D01*
X132200380Y-91685625D01*
X132300731Y-91786678D01*
X132379540Y-91905297D01*
X132433811Y-92036967D01*
X132461404Y-92176323D01*
X132461404Y-92176333D01*
X132461471Y-92176672D01*
X132459200Y-92339337D01*
X132459123Y-92339675D01*
X132459123Y-92339684D01*
X132427649Y-92478217D01*
X132369726Y-92608316D01*
X132287631Y-92724691D01*
X132184498Y-92822904D01*
X132064253Y-92899214D01*
X131931473Y-92950716D01*
X131791225Y-92975446D01*
X131648839Y-92972463D01*
X131509744Y-92941881D01*
X131379239Y-92884865D01*
X131262298Y-92803589D01*
X131163367Y-92701143D01*
X131086219Y-92581432D01*
X131033790Y-92449013D01*
X131008083Y-92308943D01*
X131010071Y-92166541D01*
X131039682Y-92027235D01*
X131095784Y-91896337D01*
X131176245Y-91778827D01*
X131277996Y-91679185D01*
X131397166Y-91601203D01*
X131529212Y-91547852D01*
X131669102Y-91521167D01*
X131811520Y-91522161D01*
X131811520Y-91522161D01*
G37*
M02*
