%TF.GenerationSoftware,KiCad,Pcbnew,4.0.5-e0-6337~49~ubuntu16.04.1*%
%TF.CreationDate,2017-05-27T14:26:12-07:00*%
%TF.ProjectId,2x3-Vibe-Motor-TH,3278332D566962652D4D6F746F722D54,v1.1*%
%TF.FileFunction,Legend,Bot*%
%FSLAX46Y46*%
G04 Gerber Fmt 4.6, Leading zero omitted, Abs format (unit mm)*
G04 Created by KiCad (PCBNEW 4.0.5-e0-6337~49~ubuntu16.04.1) date Sat May 27 14:26:12 2017*
%MOMM*%
%LPD*%
G01*
G04 APERTURE LIST*
%ADD10C,0.350000*%
%ADD11C,0.150000*%
%ADD12C,6.000000*%
%ADD13C,1.452400*%
%ADD14C,1.552400*%
%ADD15C,2.152400*%
%ADD16C,6.152400*%
G04 APERTURE END LIST*
D10*
D11*
X20744905Y-42299381D02*
X20744905Y-41299381D01*
X20411571Y-42013667D01*
X20078238Y-41299381D01*
X20078238Y-42299381D01*
X19411572Y-41299381D02*
X19221095Y-41299381D01*
X19125857Y-41347000D01*
X19030619Y-41442238D01*
X18983000Y-41632714D01*
X18983000Y-41966048D01*
X19030619Y-42156524D01*
X19125857Y-42251762D01*
X19221095Y-42299381D01*
X19411572Y-42299381D01*
X19506810Y-42251762D01*
X19602048Y-42156524D01*
X19649667Y-41966048D01*
X19649667Y-41632714D01*
X19602048Y-41442238D01*
X19506810Y-41347000D01*
X19411572Y-41299381D01*
X18697286Y-41299381D02*
X18125857Y-41299381D01*
X18411572Y-42299381D02*
X18411572Y-41299381D01*
X17602048Y-41299381D02*
X17411571Y-41299381D01*
X17316333Y-41347000D01*
X17221095Y-41442238D01*
X17173476Y-41632714D01*
X17173476Y-41966048D01*
X17221095Y-42156524D01*
X17316333Y-42251762D01*
X17411571Y-42299381D01*
X17602048Y-42299381D01*
X17697286Y-42251762D01*
X17792524Y-42156524D01*
X17840143Y-41966048D01*
X17840143Y-41632714D01*
X17792524Y-41442238D01*
X17697286Y-41347000D01*
X17602048Y-41299381D01*
X16173476Y-42299381D02*
X16506810Y-41823190D01*
X16744905Y-42299381D02*
X16744905Y-41299381D01*
X16363952Y-41299381D01*
X16268714Y-41347000D01*
X16221095Y-41394619D01*
X16173476Y-41489857D01*
X16173476Y-41632714D01*
X16221095Y-41727952D01*
X16268714Y-41775571D01*
X16363952Y-41823190D01*
X16744905Y-41823190D01*
X13979429Y-45466048D02*
X13979429Y-46227953D01*
X14360381Y-45847001D02*
X13598476Y-45847001D01*
X21979429Y-45466048D02*
X21979429Y-46227953D01*
X22360381Y-45847001D02*
X21598476Y-45847001D01*
%LPC*%
D12*
X25958800Y-37339000D02*
X9958800Y-37339000D01*
X9908000Y-46202600D02*
X25908000Y-46202600D01*
D13*
X13483000Y-43422000D03*
D14*
X13483000Y-41772000D03*
D13*
X13483000Y-40122000D03*
D15*
X23683000Y-41772000D03*
D16*
X25908000Y-45847000D03*
X9908000Y-45847000D03*
X9908000Y-37847000D03*
X17908000Y-37847000D03*
X25908000Y-37847000D03*
X17908000Y-45847000D03*
M02*
