%TF.GenerationSoftware,KiCad,Pcbnew,4.0.7-e2-6376~58~ubuntu16.04.1*%
%TF.CreationDate,2018-07-15T21:42:55-07:00*%
%TF.ProjectId,6x9-Photon-Breakout,3678392D50686F746F6E2D427265616B,1.0*%
%TF.FileFunction,Copper,L2,Bot,Signal*%
%FSLAX46Y46*%
G04 Gerber Fmt 4.6, Leading zero omitted, Abs format (unit mm)*
G04 Created by KiCad (PCBNEW 4.0.7-e2-6376~58~ubuntu16.04.1) date Sun Jul 15 21:42:55 2018*
%MOMM*%
%LPD*%
G01*
G04 APERTURE LIST*
%ADD10C,0.350000*%
%ADD11R,2.032000X1.727200*%
%ADD12O,2.032000X1.727200*%
%ADD13C,6.000000*%
%ADD14C,1.727200*%
%ADD15C,0.685800*%
%ADD16C,0.762000*%
%ADD17C,0.330200*%
%ADD18C,0.330200*%
%ADD19C,0.350000*%
G04 APERTURE END LIST*
D10*
D11*
X87122000Y-40640000D03*
D12*
X87122000Y-43180000D03*
X87122000Y-45720000D03*
D11*
X82042000Y-40640000D03*
D12*
X82042000Y-43180000D03*
X82042000Y-45720000D03*
D11*
X76962000Y-40640000D03*
D12*
X76962000Y-43180000D03*
X76962000Y-45720000D03*
D11*
X71882000Y-40640000D03*
D12*
X71882000Y-43180000D03*
X71882000Y-45720000D03*
D13*
X98999000Y-71800000D03*
X99000000Y-79800000D03*
X99000000Y-95800000D03*
X99000000Y-63800000D03*
X99000000Y-87800000D03*
X98999000Y-55800000D03*
X98999000Y-47800000D03*
X59000000Y-103800000D03*
X66999000Y-103800000D03*
X74999000Y-103800000D03*
X90999000Y-103800000D03*
X74999000Y-31800000D03*
X82999000Y-31800000D03*
X59000000Y-31800000D03*
X66999000Y-31800000D03*
X98999000Y-31800000D03*
X58999000Y-47800000D03*
X58999000Y-55800000D03*
X58999000Y-63800000D03*
X58999000Y-71800000D03*
X58999000Y-79800000D03*
X58999000Y-87800000D03*
X58999000Y-95800000D03*
X98999000Y-103800000D03*
X98999000Y-39800000D03*
X58999000Y-39800000D03*
X82999000Y-103800000D03*
X90999000Y-31800000D03*
D14*
X89336238Y-81643854D03*
X89336238Y-79103854D03*
X89336238Y-76563854D03*
X89336238Y-74023854D03*
X89336238Y-71483854D03*
X89336238Y-68943854D03*
X89336238Y-66403854D03*
X89336238Y-63863854D03*
X89336238Y-61323854D03*
X89336238Y-58783854D03*
X89336238Y-56243854D03*
X89336238Y-53703854D03*
X69016238Y-56243854D03*
X69016238Y-76563854D03*
X69016238Y-61323854D03*
X69016238Y-58783854D03*
X69016238Y-79103854D03*
X69016238Y-71483854D03*
X69016238Y-81643854D03*
X69016238Y-68943854D03*
X69016238Y-66403854D03*
X69016238Y-63863854D03*
X69016238Y-74023854D03*
X69016238Y-53703854D03*
D15*
X69088000Y-40640000D03*
D16*
X92964000Y-43688000D02*
X92964000Y-78011092D01*
X92964000Y-78011092D02*
X89374238Y-81600854D01*
X92456000Y-43180000D02*
X92964000Y-43688000D01*
X87122000Y-43180000D02*
X92456000Y-43180000D01*
X75037000Y-103757000D02*
X83037000Y-103757000D01*
X79248000Y-43180000D02*
X76962000Y-43180000D01*
X82042000Y-43180000D02*
X79248000Y-43180000D01*
X79248000Y-43180000D02*
X79248000Y-31788640D01*
X79248000Y-31788640D02*
X79279640Y-31757000D01*
X71882000Y-43180000D02*
X76962000Y-43180000D01*
X87122000Y-43180000D02*
X82042000Y-43180000D01*
X75037000Y-31757000D02*
X79279640Y-31757000D01*
X79279640Y-31757000D02*
X83037000Y-31757000D01*
X91037000Y-93069000D02*
X79568854Y-81600854D01*
X79568854Y-81600854D02*
X69054238Y-81600854D01*
X91037000Y-103757000D02*
X91037000Y-93069000D01*
X63500000Y-31757000D02*
X63500000Y-79756000D01*
X63500000Y-79756000D02*
X65344854Y-81600854D01*
X65344854Y-81600854D02*
X69054238Y-81600854D01*
X63280640Y-31757000D02*
X63500000Y-31757000D01*
X63500000Y-31757000D02*
X67037000Y-31757000D01*
X91037000Y-103757000D02*
X99037000Y-103757000D01*
X59038000Y-31757000D02*
X63280640Y-31757000D01*
X91037000Y-77398092D02*
X91037000Y-45720000D01*
X88900000Y-45720000D02*
X91037000Y-45720000D01*
X89374238Y-79060854D02*
X91037000Y-77398092D01*
X74996854Y-73980854D02*
X80076854Y-79060854D01*
X80076854Y-79060854D02*
X89374238Y-79060854D01*
X69054238Y-73980854D02*
X74996854Y-73980854D01*
X59038000Y-103757000D02*
X67037000Y-103757000D01*
X87122000Y-45720000D02*
X88900000Y-45720000D01*
X82042000Y-45720000D02*
X87122000Y-45720000D01*
X76962000Y-45720000D02*
X82042000Y-45720000D01*
X71882000Y-45720000D02*
X76962000Y-45720000D01*
X91037000Y-31757000D02*
X95279640Y-31757000D01*
X95279640Y-31757000D02*
X99037000Y-31757000D01*
D17*
X59042000Y-47752000D02*
X59037000Y-47757000D01*
X69054238Y-53660854D02*
X69054238Y-40673762D01*
X69054238Y-40673762D02*
X69088000Y-40640000D01*
D18*
X69088000Y-40640000D03*
D19*
X87122000Y-40640000D03*
X87122000Y-43180000D03*
X87122000Y-45720000D03*
X82042000Y-40640000D03*
X82042000Y-43180000D03*
X82042000Y-45720000D03*
X76962000Y-40640000D03*
X76962000Y-43180000D03*
X76962000Y-45720000D03*
X71882000Y-40640000D03*
X71882000Y-43180000D03*
X71882000Y-45720000D03*
X98999000Y-71800000D03*
X99000000Y-79800000D03*
X99000000Y-95800000D03*
X99000000Y-63800000D03*
X99000000Y-87800000D03*
X98999000Y-55800000D03*
X98999000Y-47800000D03*
X59000000Y-103800000D03*
X66999000Y-103800000D03*
X74999000Y-103800000D03*
X90999000Y-103800000D03*
X74999000Y-31800000D03*
X82999000Y-31800000D03*
X59000000Y-31800000D03*
X66999000Y-31800000D03*
X98999000Y-31800000D03*
X58999000Y-47800000D03*
X58999000Y-55800000D03*
X58999000Y-63800000D03*
X58999000Y-71800000D03*
X58999000Y-79800000D03*
X58999000Y-87800000D03*
X58999000Y-95800000D03*
X98999000Y-103800000D03*
X98999000Y-39800000D03*
X58999000Y-39800000D03*
X82999000Y-103800000D03*
X90999000Y-31800000D03*
X89336238Y-81643854D03*
X89336238Y-79103854D03*
X89336238Y-76563854D03*
X89336238Y-74023854D03*
X89336238Y-71483854D03*
X89336238Y-68943854D03*
X89336238Y-66403854D03*
X89336238Y-63863854D03*
X89336238Y-61323854D03*
X89336238Y-58783854D03*
X89336238Y-56243854D03*
X89336238Y-53703854D03*
X69016238Y-56243854D03*
X69016238Y-76563854D03*
X69016238Y-61323854D03*
X69016238Y-58783854D03*
X69016238Y-79103854D03*
X69016238Y-71483854D03*
X69016238Y-81643854D03*
X69016238Y-68943854D03*
X69016238Y-66403854D03*
X69016238Y-63863854D03*
X69016238Y-74023854D03*
X69016238Y-53703854D03*
M02*
