%TF.GenerationSoftware,KiCad,Pcbnew,4.0.7-e2-6376~58~ubuntu16.04.1*%
%TF.CreationDate,2018-07-15T21:42:55-07:00*%
%TF.ProjectId,6x9-Photon-Breakout,3678392D50686F746F6E2D427265616B,1.0*%
%TF.FileFunction,Legend,Top*%
%FSLAX46Y46*%
G04 Gerber Fmt 4.6, Leading zero omitted, Abs format (unit mm)*
G04 Created by KiCad (PCBNEW 4.0.7-e2-6376~58~ubuntu16.04.1) date Sun Jul 15 21:42:55 2018*
%MOMM*%
%LPD*%
G01*
G04 APERTURE LIST*
%ADD10C,0.350000*%
%ADD11C,0.152400*%
%ADD12C,0.150000*%
%ADD13C,1.000000*%
%ADD14C,8.000000*%
%ADD15C,0.300000*%
%ADD16C,0.254000*%
%ADD17R,2.184400X1.879600*%
%ADD18O,2.184400X1.879600*%
%ADD19C,6.152400*%
%ADD20C,1.879600*%
G04 APERTURE END LIST*
D10*
D11*
X86396286Y-38269333D02*
X86880095Y-38269333D01*
X86299524Y-38559619D02*
X86638191Y-37543619D01*
X86976857Y-38559619D01*
X87799333Y-37543619D02*
X87315524Y-37543619D01*
X87267143Y-38027429D01*
X87315524Y-37979048D01*
X87412286Y-37930667D01*
X87654190Y-37930667D01*
X87750952Y-37979048D01*
X87799333Y-38027429D01*
X87847714Y-38124190D01*
X87847714Y-38366095D01*
X87799333Y-38462857D01*
X87750952Y-38511238D01*
X87654190Y-38559619D01*
X87412286Y-38559619D01*
X87315524Y-38511238D01*
X87267143Y-38462857D01*
X81316286Y-38269333D02*
X81800095Y-38269333D01*
X81219524Y-38559619D02*
X81558191Y-37543619D01*
X81896857Y-38559619D01*
X82670952Y-37882286D02*
X82670952Y-38559619D01*
X82429048Y-37495238D02*
X82187143Y-38220952D01*
X82816095Y-38220952D01*
X76212096Y-38559619D02*
X76212096Y-37543619D01*
X76454001Y-37543619D01*
X76599143Y-37592000D01*
X76695905Y-37688762D01*
X76744286Y-37785524D01*
X76792667Y-37979048D01*
X76792667Y-38124190D01*
X76744286Y-38317714D01*
X76695905Y-38414476D01*
X76599143Y-38511238D01*
X76454001Y-38559619D01*
X76212096Y-38559619D01*
X77760286Y-38559619D02*
X77179715Y-38559619D01*
X77470001Y-38559619D02*
X77470001Y-37543619D01*
X77373239Y-37688762D01*
X77276477Y-37785524D01*
X77179715Y-37833905D01*
X71132096Y-38559619D02*
X71132096Y-37543619D01*
X71374001Y-37543619D01*
X71519143Y-37592000D01*
X71615905Y-37688762D01*
X71664286Y-37785524D01*
X71712667Y-37979048D01*
X71712667Y-38124190D01*
X71664286Y-38317714D01*
X71615905Y-38414476D01*
X71519143Y-38511238D01*
X71374001Y-38559619D01*
X71132096Y-38559619D01*
X72341620Y-37543619D02*
X72438381Y-37543619D01*
X72535143Y-37592000D01*
X72583524Y-37640381D01*
X72631905Y-37737143D01*
X72680286Y-37930667D01*
X72680286Y-38172571D01*
X72631905Y-38366095D01*
X72583524Y-38462857D01*
X72535143Y-38511238D01*
X72438381Y-38559619D01*
X72341620Y-38559619D01*
X72244858Y-38511238D01*
X72196477Y-38462857D01*
X72148096Y-38366095D01*
X72099715Y-38172571D01*
X72099715Y-37930667D01*
X72148096Y-37737143D01*
X72196477Y-37640381D01*
X72244858Y-37592000D01*
X72341620Y-37543619D01*
X90109524Y-42623619D02*
X89625715Y-42623619D01*
X89577334Y-43107429D01*
X89625715Y-43059048D01*
X89722477Y-43010667D01*
X89964381Y-43010667D01*
X90061143Y-43059048D01*
X90109524Y-43107429D01*
X90157905Y-43204190D01*
X90157905Y-43446095D01*
X90109524Y-43542857D01*
X90061143Y-43591238D01*
X89964381Y-43639619D01*
X89722477Y-43639619D01*
X89625715Y-43591238D01*
X89577334Y-43542857D01*
X90448191Y-42623619D02*
X90786858Y-43639619D01*
X91125524Y-42623619D01*
X68507429Y-42623619D02*
X68023620Y-42623619D01*
X67975239Y-43107429D01*
X68023620Y-43059048D01*
X68120382Y-43010667D01*
X68362286Y-43010667D01*
X68459048Y-43059048D01*
X68507429Y-43107429D01*
X68555810Y-43204190D01*
X68555810Y-43446095D01*
X68507429Y-43542857D01*
X68459048Y-43591238D01*
X68362286Y-43639619D01*
X68120382Y-43639619D01*
X68023620Y-43591238D01*
X67975239Y-43542857D01*
X68846096Y-42623619D02*
X69184763Y-43639619D01*
X69523429Y-42623619D01*
X67297905Y-45212000D02*
X67201143Y-45163619D01*
X67056000Y-45163619D01*
X66910858Y-45212000D01*
X66814096Y-45308762D01*
X66765715Y-45405524D01*
X66717334Y-45599048D01*
X66717334Y-45744190D01*
X66765715Y-45937714D01*
X66814096Y-46034476D01*
X66910858Y-46131238D01*
X67056000Y-46179619D01*
X67152762Y-46179619D01*
X67297905Y-46131238D01*
X67346286Y-46082857D01*
X67346286Y-45744190D01*
X67152762Y-45744190D01*
X67781715Y-46179619D02*
X67781715Y-45163619D01*
X68362286Y-46179619D01*
X68362286Y-45163619D01*
X68846096Y-46179619D02*
X68846096Y-45163619D01*
X69088001Y-45163619D01*
X69233143Y-45212000D01*
X69329905Y-45308762D01*
X69378286Y-45405524D01*
X69426667Y-45599048D01*
X69426667Y-45744190D01*
X69378286Y-45937714D01*
X69329905Y-46034476D01*
X69233143Y-46131238D01*
X69088001Y-46179619D01*
X68846096Y-46179619D01*
X90157905Y-45212000D02*
X90061143Y-45163619D01*
X89916000Y-45163619D01*
X89770858Y-45212000D01*
X89674096Y-45308762D01*
X89625715Y-45405524D01*
X89577334Y-45599048D01*
X89577334Y-45744190D01*
X89625715Y-45937714D01*
X89674096Y-46034476D01*
X89770858Y-46131238D01*
X89916000Y-46179619D01*
X90012762Y-46179619D01*
X90157905Y-46131238D01*
X90206286Y-46082857D01*
X90206286Y-45744190D01*
X90012762Y-45744190D01*
X90641715Y-46179619D02*
X90641715Y-45163619D01*
X91222286Y-46179619D01*
X91222286Y-45163619D01*
X91706096Y-46179619D02*
X91706096Y-45163619D01*
X91948001Y-45163619D01*
X92093143Y-45212000D01*
X92189905Y-45308762D01*
X92238286Y-45405524D01*
X92286667Y-45599048D01*
X92286667Y-45744190D01*
X92238286Y-45937714D01*
X92189905Y-46034476D01*
X92093143Y-46131238D01*
X91948001Y-46179619D01*
X91706096Y-46179619D01*
D12*
X85852000Y-41910000D02*
X85852000Y-46990000D01*
X85852000Y-46990000D02*
X88392000Y-46990000D01*
X88392000Y-46990000D02*
X88392000Y-41910000D01*
X88392000Y-41910000D02*
X85852000Y-41910000D01*
X86122000Y-39140000D02*
X88122000Y-39140000D01*
X80772000Y-41910000D02*
X80772000Y-46990000D01*
X80772000Y-46990000D02*
X83312000Y-46990000D01*
X83312000Y-46990000D02*
X83312000Y-41910000D01*
X83312000Y-41910000D02*
X80772000Y-41910000D01*
X81042000Y-39140000D02*
X83042000Y-39140000D01*
X75692000Y-41910000D02*
X75692000Y-46990000D01*
X75692000Y-46990000D02*
X78232000Y-46990000D01*
X78232000Y-46990000D02*
X78232000Y-41910000D01*
X78232000Y-41910000D02*
X75692000Y-41910000D01*
X75962000Y-39140000D02*
X77962000Y-39140000D01*
D11*
X74422000Y-93726000D02*
X85090000Y-93726000D01*
X74359433Y-93726000D02*
G75*
G03X74359433Y-93726000I-508933J0D01*
G01*
D12*
X70612000Y-41910000D02*
X70612000Y-46990000D01*
X70612000Y-46990000D02*
X73152000Y-46990000D01*
X73152000Y-46990000D02*
X73152000Y-41910000D01*
X73152000Y-41910000D02*
X70612000Y-41910000D01*
X70882000Y-39140000D02*
X72882000Y-39140000D01*
D13*
X58799000Y-31664000D02*
X67435000Y-31664000D01*
D14*
X58959864Y-103792106D02*
X67435000Y-103800000D01*
D13*
X89787000Y-103800000D02*
X98423000Y-103800000D01*
D14*
X90799000Y-31872106D02*
X99023000Y-31860000D01*
D13*
X75055000Y-31664000D02*
X83691000Y-31664000D01*
X74039000Y-103800000D02*
X82675000Y-103800000D01*
D12*
X77679619Y-81169283D02*
X77679619Y-80978806D01*
X77727238Y-80883568D01*
X77822476Y-80788330D01*
X78012952Y-80740711D01*
X78346286Y-80740711D01*
X78536762Y-80788330D01*
X78632000Y-80883568D01*
X78679619Y-80978806D01*
X78679619Y-81169283D01*
X78632000Y-81264521D01*
X78536762Y-81359759D01*
X78346286Y-81407378D01*
X78012952Y-81407378D01*
X77822476Y-81359759D01*
X77727238Y-81264521D01*
X77679619Y-81169283D01*
X78679619Y-79740711D02*
X78203428Y-80074045D01*
X78679619Y-80312140D02*
X77679619Y-80312140D01*
X77679619Y-79931187D01*
X77727238Y-79835949D01*
X77774857Y-79788330D01*
X77870095Y-79740711D01*
X78012952Y-79740711D01*
X78108190Y-79788330D01*
X78155809Y-79835949D01*
X78203428Y-79931187D01*
X78203428Y-80312140D01*
X78679619Y-78550235D02*
X77679619Y-78550235D01*
X77679619Y-78312140D01*
X77727238Y-78169282D01*
X77822476Y-78074044D01*
X77917714Y-78026425D01*
X78108190Y-77978806D01*
X78251048Y-77978806D01*
X78441524Y-78026425D01*
X78536762Y-78074044D01*
X78632000Y-78169282D01*
X78679619Y-78312140D01*
X78679619Y-78550235D01*
X78679619Y-76978806D02*
X78203428Y-77312140D01*
X78679619Y-77550235D02*
X77679619Y-77550235D01*
X77679619Y-77169282D01*
X77727238Y-77074044D01*
X77774857Y-77026425D01*
X77870095Y-76978806D01*
X78012952Y-76978806D01*
X78108190Y-77026425D01*
X78155809Y-77074044D01*
X78203428Y-77169282D01*
X78203428Y-77550235D01*
X77679619Y-76359759D02*
X77679619Y-76169282D01*
X77727238Y-76074044D01*
X77822476Y-75978806D01*
X78012952Y-75931187D01*
X78346286Y-75931187D01*
X78536762Y-75978806D01*
X78632000Y-76074044D01*
X78679619Y-76169282D01*
X78679619Y-76359759D01*
X78632000Y-76454997D01*
X78536762Y-76550235D01*
X78346286Y-76597854D01*
X78012952Y-76597854D01*
X77822476Y-76550235D01*
X77727238Y-76454997D01*
X77679619Y-76359759D01*
X78679619Y-75502616D02*
X77679619Y-75502616D01*
X77679619Y-75121663D01*
X77727238Y-75026425D01*
X77774857Y-74978806D01*
X77870095Y-74931187D01*
X78012952Y-74931187D01*
X78108190Y-74978806D01*
X78155809Y-75026425D01*
X78203428Y-75121663D01*
X78203428Y-75502616D01*
X78298667Y-74502616D02*
X78298667Y-73740711D01*
X78679619Y-73264521D02*
X77679619Y-73264521D01*
X78679619Y-72788331D02*
X77679619Y-72788331D01*
X78679619Y-72216902D01*
X77679619Y-72216902D01*
X78584381Y-70407378D02*
X78632000Y-70454997D01*
X78679619Y-70597854D01*
X78679619Y-70693092D01*
X78632000Y-70835950D01*
X78536762Y-70931188D01*
X78441524Y-70978807D01*
X78251048Y-71026426D01*
X78108190Y-71026426D01*
X77917714Y-70978807D01*
X77822476Y-70931188D01*
X77727238Y-70835950D01*
X77679619Y-70693092D01*
X77679619Y-70597854D01*
X77727238Y-70454997D01*
X77774857Y-70407378D01*
X77679619Y-69788331D02*
X77679619Y-69597854D01*
X77727238Y-69502616D01*
X77822476Y-69407378D01*
X78012952Y-69359759D01*
X78346286Y-69359759D01*
X78536762Y-69407378D01*
X78632000Y-69502616D01*
X78679619Y-69597854D01*
X78679619Y-69788331D01*
X78632000Y-69883569D01*
X78536762Y-69978807D01*
X78346286Y-70026426D01*
X78012952Y-70026426D01*
X77822476Y-69978807D01*
X77727238Y-69883569D01*
X77679619Y-69788331D01*
X78679619Y-68931188D02*
X77679619Y-68931188D01*
X78393905Y-68597854D01*
X77679619Y-68264521D01*
X78679619Y-68264521D01*
X78679619Y-67788331D02*
X77679619Y-67788331D01*
X77679619Y-67407378D01*
X77727238Y-67312140D01*
X77774857Y-67264521D01*
X77870095Y-67216902D01*
X78012952Y-67216902D01*
X78108190Y-67264521D01*
X78155809Y-67312140D01*
X78203428Y-67407378D01*
X78203428Y-67788331D01*
X78393905Y-66835950D02*
X78393905Y-66359759D01*
X78679619Y-66931188D02*
X77679619Y-66597855D01*
X78679619Y-66264521D01*
X77679619Y-66074045D02*
X77679619Y-65502616D01*
X78679619Y-65788331D02*
X77679619Y-65788331D01*
X78679619Y-65169283D02*
X77679619Y-65169283D01*
X78155809Y-64359759D02*
X78203428Y-64216902D01*
X78251048Y-64169283D01*
X78346286Y-64121664D01*
X78489143Y-64121664D01*
X78584381Y-64169283D01*
X78632000Y-64216902D01*
X78679619Y-64312140D01*
X78679619Y-64693093D01*
X77679619Y-64693093D01*
X77679619Y-64359759D01*
X77727238Y-64264521D01*
X77774857Y-64216902D01*
X77870095Y-64169283D01*
X77965333Y-64169283D01*
X78060571Y-64216902D01*
X78108190Y-64264521D01*
X78155809Y-64359759D01*
X78155809Y-64693093D01*
X78679619Y-63216902D02*
X78679619Y-63693093D01*
X77679619Y-63693093D01*
X78155809Y-62883569D02*
X78155809Y-62550235D01*
X78679619Y-62407378D02*
X78679619Y-62883569D01*
X77679619Y-62883569D01*
X77679619Y-62407378D01*
X78155809Y-60883568D02*
X78203428Y-60740711D01*
X78251048Y-60693092D01*
X78346286Y-60645473D01*
X78489143Y-60645473D01*
X78584381Y-60693092D01*
X78632000Y-60740711D01*
X78679619Y-60835949D01*
X78679619Y-61216902D01*
X77679619Y-61216902D01*
X77679619Y-60883568D01*
X77727238Y-60788330D01*
X77774857Y-60740711D01*
X77870095Y-60693092D01*
X77965333Y-60693092D01*
X78060571Y-60740711D01*
X78108190Y-60788330D01*
X78155809Y-60883568D01*
X78155809Y-61216902D01*
X77679619Y-60026426D02*
X77679619Y-59835949D01*
X77727238Y-59740711D01*
X77822476Y-59645473D01*
X78012952Y-59597854D01*
X78346286Y-59597854D01*
X78536762Y-59645473D01*
X78632000Y-59740711D01*
X78679619Y-59835949D01*
X78679619Y-60026426D01*
X78632000Y-60121664D01*
X78536762Y-60216902D01*
X78346286Y-60264521D01*
X78012952Y-60264521D01*
X77822476Y-60216902D01*
X77727238Y-60121664D01*
X77679619Y-60026426D01*
X78393905Y-59216902D02*
X78393905Y-58740711D01*
X78679619Y-59312140D02*
X77679619Y-58978807D01*
X78679619Y-58645473D01*
X78679619Y-57740711D02*
X78203428Y-58074045D01*
X78679619Y-58312140D02*
X77679619Y-58312140D01*
X77679619Y-57931187D01*
X77727238Y-57835949D01*
X77774857Y-57788330D01*
X77870095Y-57740711D01*
X78012952Y-57740711D01*
X78108190Y-57788330D01*
X78155809Y-57835949D01*
X78203428Y-57931187D01*
X78203428Y-58312140D01*
X78679619Y-57312140D02*
X77679619Y-57312140D01*
X77679619Y-57074045D01*
X77727238Y-56931187D01*
X77822476Y-56835949D01*
X77917714Y-56788330D01*
X78108190Y-56740711D01*
X78251048Y-56740711D01*
X78441524Y-56788330D01*
X78536762Y-56835949D01*
X78632000Y-56931187D01*
X78679619Y-57074045D01*
X78679619Y-57312140D01*
X78632000Y-56359759D02*
X78679619Y-56216902D01*
X78679619Y-55978806D01*
X78632000Y-55883568D01*
X78584381Y-55835949D01*
X78489143Y-55788330D01*
X78393905Y-55788330D01*
X78298667Y-55835949D01*
X78251048Y-55883568D01*
X78203428Y-55978806D01*
X78155809Y-56169283D01*
X78108190Y-56264521D01*
X78060571Y-56312140D01*
X77965333Y-56359759D01*
X77870095Y-56359759D01*
X77774857Y-56312140D01*
X77727238Y-56264521D01*
X77679619Y-56169283D01*
X77679619Y-55931187D01*
X77727238Y-55788330D01*
X80981619Y-79764521D02*
X81791143Y-79764521D01*
X81886381Y-79716902D01*
X81934000Y-79669283D01*
X81981619Y-79574045D01*
X81981619Y-79383568D01*
X81934000Y-79288330D01*
X81886381Y-79240711D01*
X81791143Y-79193092D01*
X80981619Y-79193092D01*
X81934000Y-78764521D02*
X81981619Y-78621664D01*
X81981619Y-78383568D01*
X81934000Y-78288330D01*
X81886381Y-78240711D01*
X81791143Y-78193092D01*
X81695905Y-78193092D01*
X81600667Y-78240711D01*
X81553048Y-78288330D01*
X81505428Y-78383568D01*
X81457809Y-78574045D01*
X81410190Y-78669283D01*
X81362571Y-78716902D01*
X81267333Y-78764521D01*
X81172095Y-78764521D01*
X81076857Y-78716902D01*
X81029238Y-78669283D01*
X80981619Y-78574045D01*
X80981619Y-78335949D01*
X81029238Y-78193092D01*
X81457809Y-77764521D02*
X81457809Y-77431187D01*
X81981619Y-77288330D02*
X81981619Y-77764521D01*
X80981619Y-77764521D01*
X80981619Y-77288330D01*
X80981619Y-75907378D02*
X80981619Y-75716901D01*
X81029238Y-75621663D01*
X81124476Y-75526425D01*
X81314952Y-75478806D01*
X81648286Y-75478806D01*
X81838762Y-75526425D01*
X81934000Y-75621663D01*
X81981619Y-75716901D01*
X81981619Y-75907378D01*
X81934000Y-76002616D01*
X81838762Y-76097854D01*
X81648286Y-76145473D01*
X81314952Y-76145473D01*
X81124476Y-76097854D01*
X81029238Y-76002616D01*
X80981619Y-75907378D01*
X81981619Y-75050235D02*
X80981619Y-75050235D01*
X81981619Y-74478806D01*
X80981619Y-74478806D01*
X81981619Y-73526425D02*
X81981619Y-74002616D01*
X80981619Y-74002616D01*
X81505428Y-73002616D02*
X81981619Y-73002616D01*
X80981619Y-73335949D02*
X81505428Y-73002616D01*
X80981619Y-72669282D01*
X80981619Y-71669282D02*
X81981619Y-71431187D01*
X81267333Y-71240710D01*
X81981619Y-71050234D01*
X80981619Y-70812139D01*
X81981619Y-70431187D02*
X80981619Y-70431187D01*
X80981619Y-70097854D02*
X80981619Y-69526425D01*
X81981619Y-69812140D02*
X80981619Y-69812140D01*
X81981619Y-69193092D02*
X80981619Y-69193092D01*
X81457809Y-69193092D02*
X81457809Y-68621663D01*
X81981619Y-68621663D02*
X80981619Y-68621663D01*
X81981619Y-67383568D02*
X80981619Y-67383568D01*
X80981619Y-67002615D01*
X81029238Y-66907377D01*
X81076857Y-66859758D01*
X81172095Y-66812139D01*
X81314952Y-66812139D01*
X81410190Y-66859758D01*
X81457809Y-66907377D01*
X81505428Y-67002615D01*
X81505428Y-67383568D01*
X81981619Y-66383568D02*
X80981619Y-66383568D01*
X81457809Y-66383568D02*
X81457809Y-65812139D01*
X81981619Y-65812139D02*
X80981619Y-65812139D01*
X80981619Y-65145473D02*
X80981619Y-64954996D01*
X81029238Y-64859758D01*
X81124476Y-64764520D01*
X81314952Y-64716901D01*
X81648286Y-64716901D01*
X81838762Y-64764520D01*
X81934000Y-64859758D01*
X81981619Y-64954996D01*
X81981619Y-65145473D01*
X81934000Y-65240711D01*
X81838762Y-65335949D01*
X81648286Y-65383568D01*
X81314952Y-65383568D01*
X81124476Y-65335949D01*
X81029238Y-65240711D01*
X80981619Y-65145473D01*
X80981619Y-64431187D02*
X80981619Y-63859758D01*
X81981619Y-64145473D02*
X80981619Y-64145473D01*
X80981619Y-63335949D02*
X80981619Y-63145472D01*
X81029238Y-63050234D01*
X81124476Y-62954996D01*
X81314952Y-62907377D01*
X81648286Y-62907377D01*
X81838762Y-62954996D01*
X81934000Y-63050234D01*
X81981619Y-63145472D01*
X81981619Y-63335949D01*
X81934000Y-63431187D01*
X81838762Y-63526425D01*
X81648286Y-63574044D01*
X81314952Y-63574044D01*
X81124476Y-63526425D01*
X81029238Y-63431187D01*
X80981619Y-63335949D01*
X81981619Y-62478806D02*
X80981619Y-62478806D01*
X81981619Y-61907377D01*
X80981619Y-61907377D01*
X80981619Y-60812139D02*
X81981619Y-60478806D01*
X80981619Y-60145472D01*
X80981619Y-59621663D02*
X80981619Y-59526424D01*
X81029238Y-59431186D01*
X81076857Y-59383567D01*
X81172095Y-59335948D01*
X81362571Y-59288329D01*
X81600667Y-59288329D01*
X81791143Y-59335948D01*
X81886381Y-59383567D01*
X81934000Y-59431186D01*
X81981619Y-59526424D01*
X81981619Y-59621663D01*
X81934000Y-59716901D01*
X81886381Y-59764520D01*
X81791143Y-59812139D01*
X81600667Y-59859758D01*
X81362571Y-59859758D01*
X81172095Y-59812139D01*
X81076857Y-59764520D01*
X81029238Y-59716901D01*
X80981619Y-59621663D01*
X81981619Y-58335948D02*
X81981619Y-58907377D01*
X81981619Y-58621663D02*
X80981619Y-58621663D01*
X81124476Y-58716901D01*
X81219714Y-58812139D01*
X81267333Y-58907377D01*
X80981619Y-57478805D02*
X80981619Y-57669282D01*
X81029238Y-57764520D01*
X81076857Y-57812139D01*
X81219714Y-57907377D01*
X81410190Y-57954996D01*
X81791143Y-57954996D01*
X81886381Y-57907377D01*
X81934000Y-57859758D01*
X81981619Y-57764520D01*
X81981619Y-57574043D01*
X81934000Y-57478805D01*
X81886381Y-57431186D01*
X81791143Y-57383567D01*
X81553048Y-57383567D01*
X81457809Y-57431186D01*
X81410190Y-57478805D01*
X81362571Y-57574043D01*
X81362571Y-57764520D01*
X81410190Y-57859758D01*
X81457809Y-57907377D01*
X81553048Y-57954996D01*
X93047715Y-55966667D02*
X93523906Y-55966667D01*
X92952477Y-56252381D02*
X93285810Y-55252381D01*
X93619144Y-56252381D01*
X93904858Y-55347619D02*
X93952477Y-55300000D01*
X94047715Y-55252381D01*
X94285811Y-55252381D01*
X94381049Y-55300000D01*
X94428668Y-55347619D01*
X94476287Y-55442857D01*
X94476287Y-55538095D01*
X94428668Y-55680952D01*
X93857239Y-56252381D01*
X94476287Y-56252381D01*
X93047715Y-63966667D02*
X93523906Y-63966667D01*
X92952477Y-64252381D02*
X93285810Y-63252381D01*
X93619144Y-64252381D01*
X93857239Y-63252381D02*
X94476287Y-63252381D01*
X94142953Y-63633333D01*
X94285811Y-63633333D01*
X94381049Y-63680952D01*
X94428668Y-63728571D01*
X94476287Y-63823810D01*
X94476287Y-64061905D01*
X94428668Y-64157143D01*
X94381049Y-64204762D01*
X94285811Y-64252381D01*
X94000096Y-64252381D01*
X93904858Y-64204762D01*
X93857239Y-64157143D01*
X93047715Y-39966667D02*
X93523906Y-39966667D01*
X92952477Y-40252381D02*
X93285810Y-39252381D01*
X93619144Y-40252381D01*
X94142953Y-39252381D02*
X94238192Y-39252381D01*
X94333430Y-39300000D01*
X94381049Y-39347619D01*
X94428668Y-39442857D01*
X94476287Y-39633333D01*
X94476287Y-39871429D01*
X94428668Y-40061905D01*
X94381049Y-40157143D01*
X94333430Y-40204762D01*
X94238192Y-40252381D01*
X94142953Y-40252381D01*
X94047715Y-40204762D01*
X94000096Y-40157143D01*
X93952477Y-40061905D01*
X93904858Y-39871429D01*
X93904858Y-39633333D01*
X93952477Y-39442857D01*
X94000096Y-39347619D01*
X94047715Y-39300000D01*
X94142953Y-39252381D01*
X93047715Y-47966667D02*
X93523906Y-47966667D01*
X92952477Y-48252381D02*
X93285810Y-47252381D01*
X93619144Y-48252381D01*
X94476287Y-48252381D02*
X93904858Y-48252381D01*
X94190572Y-48252381D02*
X94190572Y-47252381D01*
X94095334Y-47395238D01*
X94000096Y-47490476D01*
X93904858Y-47538095D01*
X93047715Y-71966667D02*
X93523906Y-71966667D01*
X92952477Y-72252381D02*
X93285810Y-71252381D01*
X93619144Y-72252381D01*
X94381049Y-71585714D02*
X94381049Y-72252381D01*
X94142953Y-71204762D02*
X93904858Y-71919048D01*
X94523906Y-71919048D01*
X92047715Y-80252381D02*
X92047715Y-79252381D01*
X92285810Y-79252381D01*
X92428668Y-79300000D01*
X92523906Y-79395238D01*
X92571525Y-79490476D01*
X92619144Y-79680952D01*
X92619144Y-79823810D01*
X92571525Y-80014286D01*
X92523906Y-80109524D01*
X92428668Y-80204762D01*
X92285810Y-80252381D01*
X92047715Y-80252381D01*
X93000096Y-79966667D02*
X93476287Y-79966667D01*
X92904858Y-80252381D02*
X93238191Y-79252381D01*
X93571525Y-80252381D01*
X94476287Y-80157143D02*
X94428668Y-80204762D01*
X94285811Y-80252381D01*
X94190573Y-80252381D01*
X94047715Y-80204762D01*
X93952477Y-80109524D01*
X93904858Y-80014286D01*
X93857239Y-79823810D01*
X93857239Y-79680952D01*
X93904858Y-79490476D01*
X93952477Y-79395238D01*
X94047715Y-79300000D01*
X94190573Y-79252381D01*
X94285811Y-79252381D01*
X94428668Y-79300000D01*
X94476287Y-79347619D01*
X93523906Y-88252381D02*
X93190572Y-87776190D01*
X92952477Y-88252381D02*
X92952477Y-87252381D01*
X93333430Y-87252381D01*
X93428668Y-87300000D01*
X93476287Y-87347619D01*
X93523906Y-87442857D01*
X93523906Y-87585714D01*
X93476287Y-87680952D01*
X93428668Y-87728571D01*
X93333430Y-87776190D01*
X92952477Y-87776190D01*
X93857239Y-87252381D02*
X94523906Y-88252381D01*
X94523906Y-87252381D02*
X93857239Y-88252381D01*
X93517810Y-100712381D02*
X94136858Y-100712381D01*
X93803524Y-101093333D01*
X93946382Y-101093333D01*
X94041620Y-101140952D01*
X94089239Y-101188571D01*
X94136858Y-101283810D01*
X94136858Y-101521905D01*
X94089239Y-101617143D01*
X94041620Y-101664762D01*
X93946382Y-101712381D01*
X93660667Y-101712381D01*
X93565429Y-101664762D01*
X93517810Y-101617143D01*
X94565429Y-101617143D02*
X94613048Y-101664762D01*
X94565429Y-101712381D01*
X94517810Y-101664762D01*
X94565429Y-101617143D01*
X94565429Y-101712381D01*
X94946381Y-100712381D02*
X95565429Y-100712381D01*
X95232095Y-101093333D01*
X95374953Y-101093333D01*
X95470191Y-101140952D01*
X95517810Y-101188571D01*
X95565429Y-101283810D01*
X95565429Y-101521905D01*
X95517810Y-101617143D01*
X95470191Y-101664762D01*
X95374953Y-101712381D01*
X95089238Y-101712381D01*
X94994000Y-101664762D01*
X94946381Y-101617143D01*
X95851143Y-100712381D02*
X96184476Y-101712381D01*
X96517810Y-100712381D01*
X63264588Y-64252381D02*
X63264588Y-63252381D01*
X63502683Y-63252381D01*
X63645541Y-63300000D01*
X63740779Y-63395238D01*
X63788398Y-63490476D01*
X63836017Y-63680952D01*
X63836017Y-63823810D01*
X63788398Y-64014286D01*
X63740779Y-64109524D01*
X63645541Y-64204762D01*
X63502683Y-64252381D01*
X63264588Y-64252381D01*
X64169350Y-63252381D02*
X64788398Y-63252381D01*
X64455064Y-63633333D01*
X64597922Y-63633333D01*
X64693160Y-63680952D01*
X64740779Y-63728571D01*
X64788398Y-63823810D01*
X64788398Y-64061905D01*
X64740779Y-64157143D01*
X64693160Y-64204762D01*
X64597922Y-64252381D01*
X64312207Y-64252381D01*
X64216969Y-64204762D01*
X64169350Y-64157143D01*
X63264588Y-72252381D02*
X63264588Y-71252381D01*
X63502683Y-71252381D01*
X63645541Y-71300000D01*
X63740779Y-71395238D01*
X63788398Y-71490476D01*
X63836017Y-71680952D01*
X63836017Y-71823810D01*
X63788398Y-72014286D01*
X63740779Y-72109524D01*
X63645541Y-72204762D01*
X63502683Y-72252381D01*
X63264588Y-72252381D01*
X64693160Y-71585714D02*
X64693160Y-72252381D01*
X64455064Y-71204762D02*
X64216969Y-71919048D01*
X64836017Y-71919048D01*
X63264588Y-80252381D02*
X63264588Y-79252381D01*
X63502683Y-79252381D01*
X63645541Y-79300000D01*
X63740779Y-79395238D01*
X63788398Y-79490476D01*
X63836017Y-79680952D01*
X63836017Y-79823810D01*
X63788398Y-80014286D01*
X63740779Y-80109524D01*
X63645541Y-80204762D01*
X63502683Y-80252381D01*
X63264588Y-80252381D01*
X64740779Y-79252381D02*
X64264588Y-79252381D01*
X64216969Y-79728571D01*
X64264588Y-79680952D01*
X64359826Y-79633333D01*
X64597922Y-79633333D01*
X64693160Y-79680952D01*
X64740779Y-79728571D01*
X64788398Y-79823810D01*
X64788398Y-80061905D01*
X64740779Y-80157143D01*
X64693160Y-80204762D01*
X64597922Y-80252381D01*
X64359826Y-80252381D01*
X64264588Y-80204762D01*
X64216969Y-80157143D01*
X63264588Y-88252381D02*
X63264588Y-87252381D01*
X63502683Y-87252381D01*
X63645541Y-87300000D01*
X63740779Y-87395238D01*
X63788398Y-87490476D01*
X63836017Y-87680952D01*
X63836017Y-87823810D01*
X63788398Y-88014286D01*
X63740779Y-88109524D01*
X63645541Y-88204762D01*
X63502683Y-88252381D01*
X63264588Y-88252381D01*
X64693160Y-87252381D02*
X64502683Y-87252381D01*
X64407445Y-87300000D01*
X64359826Y-87347619D01*
X64264588Y-87490476D01*
X64216969Y-87680952D01*
X64216969Y-88061905D01*
X64264588Y-88157143D01*
X64312207Y-88204762D01*
X64407445Y-88252381D01*
X64597922Y-88252381D01*
X64693160Y-88204762D01*
X64740779Y-88157143D01*
X64788398Y-88061905D01*
X64788398Y-87823810D01*
X64740779Y-87728571D01*
X64693160Y-87680952D01*
X64597922Y-87633333D01*
X64407445Y-87633333D01*
X64312207Y-87680952D01*
X64264588Y-87728571D01*
X64216969Y-87823810D01*
X63264588Y-56252381D02*
X63264588Y-55252381D01*
X63502683Y-55252381D01*
X63645541Y-55300000D01*
X63740779Y-55395238D01*
X63788398Y-55490476D01*
X63836017Y-55680952D01*
X63836017Y-55823810D01*
X63788398Y-56014286D01*
X63740779Y-56109524D01*
X63645541Y-56204762D01*
X63502683Y-56252381D01*
X63264588Y-56252381D01*
X64216969Y-55347619D02*
X64264588Y-55300000D01*
X64359826Y-55252381D01*
X64597922Y-55252381D01*
X64693160Y-55300000D01*
X64740779Y-55347619D01*
X64788398Y-55442857D01*
X64788398Y-55538095D01*
X64740779Y-55680952D01*
X64169350Y-56252381D01*
X64788398Y-56252381D01*
X63264588Y-40252381D02*
X63264588Y-39252381D01*
X63502683Y-39252381D01*
X63645541Y-39300000D01*
X63740779Y-39395238D01*
X63788398Y-39490476D01*
X63836017Y-39680952D01*
X63836017Y-39823810D01*
X63788398Y-40014286D01*
X63740779Y-40109524D01*
X63645541Y-40204762D01*
X63502683Y-40252381D01*
X63264588Y-40252381D01*
X64455064Y-39252381D02*
X64550303Y-39252381D01*
X64645541Y-39300000D01*
X64693160Y-39347619D01*
X64740779Y-39442857D01*
X64788398Y-39633333D01*
X64788398Y-39871429D01*
X64740779Y-40061905D01*
X64693160Y-40157143D01*
X64645541Y-40204762D01*
X64550303Y-40252381D01*
X64455064Y-40252381D01*
X64359826Y-40204762D01*
X64312207Y-40157143D01*
X64264588Y-40061905D01*
X64216969Y-39871429D01*
X64216969Y-39633333D01*
X64264588Y-39442857D01*
X64312207Y-39347619D01*
X64359826Y-39300000D01*
X64455064Y-39252381D01*
X63264588Y-48252381D02*
X63264588Y-47252381D01*
X63502683Y-47252381D01*
X63645541Y-47300000D01*
X63740779Y-47395238D01*
X63788398Y-47490476D01*
X63836017Y-47680952D01*
X63836017Y-47823810D01*
X63788398Y-48014286D01*
X63740779Y-48109524D01*
X63645541Y-48204762D01*
X63502683Y-48252381D01*
X63264588Y-48252381D01*
X64788398Y-48252381D02*
X64216969Y-48252381D01*
X64502683Y-48252381D02*
X64502683Y-47252381D01*
X64407445Y-47395238D01*
X64312207Y-47490476D01*
X64216969Y-47538095D01*
X63264588Y-96252381D02*
X63264588Y-95252381D01*
X63502683Y-95252381D01*
X63645541Y-95300000D01*
X63740779Y-95395238D01*
X63788398Y-95490476D01*
X63836017Y-95680952D01*
X63836017Y-95823810D01*
X63788398Y-96014286D01*
X63740779Y-96109524D01*
X63645541Y-96204762D01*
X63502683Y-96252381D01*
X63264588Y-96252381D01*
X64169350Y-95252381D02*
X64836017Y-95252381D01*
X64407445Y-96252381D01*
X78928524Y-34164381D02*
X78452333Y-34164381D01*
X78404714Y-34640571D01*
X78452333Y-34592952D01*
X78547571Y-34545333D01*
X78785667Y-34545333D01*
X78880905Y-34592952D01*
X78928524Y-34640571D01*
X78976143Y-34735810D01*
X78976143Y-34973905D01*
X78928524Y-35069143D01*
X78880905Y-35116762D01*
X78785667Y-35164381D01*
X78547571Y-35164381D01*
X78452333Y-35116762D01*
X78404714Y-35069143D01*
X79261857Y-34164381D02*
X79595190Y-35164381D01*
X79928524Y-34164381D01*
X93047715Y-95252381D02*
X93619144Y-95252381D01*
X93333429Y-96252381D02*
X93333429Y-95252381D01*
X93857239Y-95252381D02*
X94523906Y-96252381D01*
X94523906Y-95252381D02*
X93857239Y-96252381D01*
X68254333Y-83315381D02*
X68254333Y-84124905D01*
X68301952Y-84220143D01*
X68349571Y-84267762D01*
X68444809Y-84315381D01*
X68635286Y-84315381D01*
X68730524Y-84267762D01*
X68778143Y-84220143D01*
X68825762Y-84124905D01*
X68825762Y-83315381D01*
X69825762Y-84315381D02*
X69254333Y-84315381D01*
X69540047Y-84315381D02*
X69540047Y-83315381D01*
X69444809Y-83458238D01*
X69349571Y-83553476D01*
X69254333Y-83601095D01*
X61386810Y-34164381D02*
X62005858Y-34164381D01*
X61672524Y-34545333D01*
X61815382Y-34545333D01*
X61910620Y-34592952D01*
X61958239Y-34640571D01*
X62005858Y-34735810D01*
X62005858Y-34973905D01*
X61958239Y-35069143D01*
X61910620Y-35116762D01*
X61815382Y-35164381D01*
X61529667Y-35164381D01*
X61434429Y-35116762D01*
X61386810Y-35069143D01*
X62434429Y-35069143D02*
X62482048Y-35116762D01*
X62434429Y-35164381D01*
X62386810Y-35116762D01*
X62434429Y-35069143D01*
X62434429Y-35164381D01*
X62815381Y-34164381D02*
X63434429Y-34164381D01*
X63101095Y-34545333D01*
X63243953Y-34545333D01*
X63339191Y-34592952D01*
X63386810Y-34640571D01*
X63434429Y-34735810D01*
X63434429Y-34973905D01*
X63386810Y-35069143D01*
X63339191Y-35116762D01*
X63243953Y-35164381D01*
X62958238Y-35164381D01*
X62863000Y-35116762D01*
X62815381Y-35069143D01*
X63720143Y-34164381D02*
X64053476Y-35164381D01*
X64386810Y-34164381D01*
X78928524Y-100712381D02*
X78452333Y-100712381D01*
X78404714Y-101188571D01*
X78452333Y-101140952D01*
X78547571Y-101093333D01*
X78785667Y-101093333D01*
X78880905Y-101140952D01*
X78928524Y-101188571D01*
X78976143Y-101283810D01*
X78976143Y-101521905D01*
X78928524Y-101617143D01*
X78880905Y-101664762D01*
X78785667Y-101712381D01*
X78547571Y-101712381D01*
X78452333Y-101664762D01*
X78404714Y-101617143D01*
X79261857Y-100712381D02*
X79595190Y-101712381D01*
X79928524Y-100712381D01*
%LPC*%
D15*
X76188572Y-95785714D02*
X76117143Y-95857143D01*
X75902857Y-95928571D01*
X75760000Y-95928571D01*
X75545715Y-95857143D01*
X75402857Y-95714286D01*
X75331429Y-95571429D01*
X75260000Y-95285714D01*
X75260000Y-95071429D01*
X75331429Y-94785714D01*
X75402857Y-94642857D01*
X75545715Y-94500000D01*
X75760000Y-94428571D01*
X75902857Y-94428571D01*
X76117143Y-94500000D01*
X76188572Y-94571429D01*
X76831429Y-95928571D02*
X76831429Y-94428571D01*
X78402858Y-95928571D02*
X77902858Y-95214286D01*
X77545715Y-95928571D02*
X77545715Y-94428571D01*
X78117143Y-94428571D01*
X78260001Y-94500000D01*
X78331429Y-94571429D01*
X78402858Y-94714286D01*
X78402858Y-94928571D01*
X78331429Y-95071429D01*
X78260001Y-95142857D01*
X78117143Y-95214286D01*
X77545715Y-95214286D01*
X79902858Y-95785714D02*
X79831429Y-95857143D01*
X79617143Y-95928571D01*
X79474286Y-95928571D01*
X79260001Y-95857143D01*
X79117143Y-95714286D01*
X79045715Y-95571429D01*
X78974286Y-95285714D01*
X78974286Y-95071429D01*
X79045715Y-94785714D01*
X79117143Y-94642857D01*
X79260001Y-94500000D01*
X79474286Y-94428571D01*
X79617143Y-94428571D01*
X79831429Y-94500000D01*
X79902858Y-94571429D01*
X80545715Y-94428571D02*
X80545715Y-95642857D01*
X80617143Y-95785714D01*
X80688572Y-95857143D01*
X80831429Y-95928571D01*
X81117143Y-95928571D01*
X81260001Y-95857143D01*
X81331429Y-95785714D01*
X81402858Y-95642857D01*
X81402858Y-94428571D01*
X82117144Y-95928571D02*
X82117144Y-94428571D01*
X82617144Y-94428571D02*
X83474287Y-94428571D01*
X83045716Y-95928571D02*
X83045716Y-94428571D01*
X83902858Y-95857143D02*
X84117144Y-95928571D01*
X84474287Y-95928571D01*
X84617144Y-95857143D01*
X84688573Y-95785714D01*
X84760001Y-95642857D01*
X84760001Y-95500000D01*
X84688573Y-95357143D01*
X84617144Y-95285714D01*
X84474287Y-95214286D01*
X84188573Y-95142857D01*
X84045715Y-95071429D01*
X83974287Y-95000000D01*
X83902858Y-94857143D01*
X83902858Y-94714286D01*
X83974287Y-94571429D01*
X84045715Y-94500000D01*
X84188573Y-94428571D01*
X84545715Y-94428571D01*
X84760001Y-94500000D01*
X75438287Y-92991714D02*
X75366858Y-93063143D01*
X75152572Y-93134571D01*
X75009715Y-93134571D01*
X74795430Y-93063143D01*
X74652572Y-92920286D01*
X74581144Y-92777429D01*
X74509715Y-92491714D01*
X74509715Y-92277429D01*
X74581144Y-91991714D01*
X74652572Y-91848857D01*
X74795430Y-91706000D01*
X75009715Y-91634571D01*
X75152572Y-91634571D01*
X75366858Y-91706000D01*
X75438287Y-91777429D01*
X76938287Y-93134571D02*
X76438287Y-92420286D01*
X76081144Y-93134571D02*
X76081144Y-91634571D01*
X76652572Y-91634571D01*
X76795430Y-91706000D01*
X76866858Y-91777429D01*
X76938287Y-91920286D01*
X76938287Y-92134571D01*
X76866858Y-92277429D01*
X76795430Y-92348857D01*
X76652572Y-92420286D01*
X76081144Y-92420286D01*
X77509715Y-92706000D02*
X78224001Y-92706000D01*
X77366858Y-93134571D02*
X77866858Y-91634571D01*
X78366858Y-93134571D01*
X78724001Y-91634571D02*
X79724001Y-91634571D01*
X78724001Y-93134571D01*
X79724001Y-93134571D01*
X80581143Y-92420286D02*
X80581143Y-93134571D01*
X80081143Y-91634571D02*
X80581143Y-92420286D01*
X81081143Y-91634571D01*
D11*
X86106000Y-92519500D02*
X84963000Y-93472000D01*
X84772500Y-93472000D02*
X86106000Y-92519500D01*
X85725000Y-92646500D02*
X84772500Y-93472000D01*
X84645500Y-93408500D02*
X85725000Y-92646500D01*
X85534500Y-92710000D02*
X84645500Y-93408500D01*
X84391500Y-93472000D02*
X85534500Y-92710000D01*
X85217000Y-92837000D02*
X84391500Y-93472000D01*
X84264500Y-93408500D02*
X85217000Y-92837000D01*
X85026500Y-92837000D02*
X84264500Y-93408500D01*
X84264500Y-93281500D02*
X85026500Y-92837000D01*
X84772500Y-92837000D02*
X84264500Y-93281500D01*
X84201000Y-93154500D02*
X84772500Y-92837000D01*
X84772500Y-92646500D02*
X84201000Y-93154500D01*
X84772500Y-92519500D02*
X84137500Y-93027500D01*
X84899500Y-92329000D02*
X84074000Y-92900500D01*
X84899500Y-92202000D02*
X84074000Y-92773500D01*
D16*
X83058000Y-93408500D02*
X82423000Y-92519500D01*
D11*
X84963000Y-93535500D02*
X82994500Y-93535500D01*
X86550500Y-92392500D02*
X84963000Y-93535500D01*
X84772500Y-92837000D02*
X86550500Y-92392500D01*
X85090000Y-91948000D02*
X84772500Y-92837000D01*
X84010500Y-92646500D02*
X85090000Y-91948000D01*
X83185000Y-91186000D02*
X84010500Y-92710000D01*
X83248500Y-92583000D02*
X83185000Y-91186000D01*
X82169000Y-92329000D02*
X83248500Y-92583000D01*
X82994500Y-93535500D02*
X82169000Y-92329000D01*
D16*
X83248500Y-93408500D02*
X82613500Y-92519500D01*
X83439000Y-93408500D02*
X82867500Y-92583000D01*
X83566000Y-93408500D02*
X83121500Y-92646500D01*
X83820000Y-93408500D02*
X83375500Y-92583000D01*
X84010500Y-93408500D02*
X83439000Y-92329000D01*
X84201000Y-93408500D02*
X83312000Y-91694000D01*
X83375500Y-92392500D02*
X83312000Y-91567000D01*
D17*
X87122000Y-40640000D03*
D18*
X87122000Y-43180000D03*
X87122000Y-45720000D03*
D17*
X82042000Y-40640000D03*
D18*
X82042000Y-43180000D03*
X82042000Y-45720000D03*
D17*
X76962000Y-40640000D03*
D18*
X76962000Y-43180000D03*
X76962000Y-45720000D03*
D17*
X71882000Y-40640000D03*
D18*
X71882000Y-43180000D03*
X71882000Y-45720000D03*
D19*
X98999000Y-71800000D03*
X99000000Y-79800000D03*
X99000000Y-95800000D03*
X99000000Y-63800000D03*
X99000000Y-87800000D03*
X98999000Y-55800000D03*
X98999000Y-47800000D03*
X59000000Y-103800000D03*
X66999000Y-103800000D03*
X74999000Y-103800000D03*
X90999000Y-103800000D03*
X74999000Y-31800000D03*
X82999000Y-31800000D03*
X59000000Y-31800000D03*
X66999000Y-31800000D03*
X98999000Y-31800000D03*
X58999000Y-47800000D03*
X58999000Y-55800000D03*
X58999000Y-63800000D03*
X58999000Y-71800000D03*
X58999000Y-79800000D03*
X58999000Y-87800000D03*
X58999000Y-95800000D03*
X98999000Y-103800000D03*
X98999000Y-39800000D03*
X58999000Y-39800000D03*
X82999000Y-103800000D03*
X90999000Y-31800000D03*
D20*
X89336238Y-81643854D03*
X89336238Y-79103854D03*
X89336238Y-76563854D03*
X89336238Y-74023854D03*
X89336238Y-71483854D03*
X89336238Y-68943854D03*
X89336238Y-66403854D03*
X89336238Y-63863854D03*
X89336238Y-61323854D03*
X89336238Y-58783854D03*
X89336238Y-56243854D03*
X89336238Y-53703854D03*
X69016238Y-56243854D03*
X69016238Y-76563854D03*
X69016238Y-61323854D03*
X69016238Y-58783854D03*
X69016238Y-79103854D03*
X69016238Y-71483854D03*
X69016238Y-81643854D03*
X69016238Y-68943854D03*
X69016238Y-66403854D03*
X69016238Y-63863854D03*
X69016238Y-74023854D03*
X69016238Y-53703854D03*
M02*
