%TF.GenerationSoftware,KiCad,Pcbnew,4.0.7-e2-6376~58~ubuntu16.04.1*%
%TF.CreationDate,2018-05-09T10:08:34-07:00*%
%TF.ProjectId,2x2-LED-BLUE-SMT-LIMITED,3278322D4C45442D424C55452D534D54,1.0*%
%TF.FileFunction,Soldermask,Bot*%
%FSLAX46Y46*%
G04 Gerber Fmt 4.6, Leading zero omitted, Abs format (unit mm)*
G04 Created by KiCad (PCBNEW 4.0.7-e2-6376~58~ubuntu16.04.1) date Wed May  9 10:08:34 2018*
%MOMM*%
%LPD*%
G01*
G04 APERTURE LIST*
%ADD10C,0.350000*%
%ADD11C,7.200000*%
G04 APERTURE END LIST*
D10*
D11*
X9018000Y-39116000D02*
X16918000Y-39116000D01*
X9018000Y-31116000D02*
X16918000Y-31116000D01*
D10*
G36*
X9341110Y-36041847D02*
X9932055Y-36163151D01*
X10488198Y-36396932D01*
X10988334Y-36734278D01*
X11413421Y-37162343D01*
X11747266Y-37664821D01*
X11977156Y-38222576D01*
X12094264Y-38814014D01*
X12094264Y-38814024D01*
X12094331Y-38814363D01*
X12084710Y-39503416D01*
X12084633Y-39503754D01*
X12084633Y-39503762D01*
X11951057Y-40091701D01*
X11705685Y-40642816D01*
X11357937Y-41135778D01*
X10921062Y-41551809D01*
X10411700Y-41875061D01*
X9849254Y-42093219D01*
X9255147Y-42197976D01*
X8652003Y-42185342D01*
X8062800Y-42055797D01*
X7509982Y-41814277D01*
X7014607Y-41469982D01*
X6595537Y-41036023D01*
X6268738Y-40528930D01*
X6046656Y-39968014D01*
X5937755Y-39374658D01*
X5946177Y-38771441D01*
X6071606Y-38181347D01*
X6309259Y-37626858D01*
X6650091Y-37129088D01*
X7081112Y-36707000D01*
X7585913Y-36376668D01*
X8145259Y-36150677D01*
X8737845Y-36037636D01*
X9341110Y-36041847D01*
X9341110Y-36041847D01*
G37*
G36*
X17341110Y-36041847D02*
X17932055Y-36163151D01*
X18488198Y-36396932D01*
X18988334Y-36734278D01*
X19413421Y-37162343D01*
X19747266Y-37664821D01*
X19977156Y-38222576D01*
X20094264Y-38814014D01*
X20094264Y-38814024D01*
X20094331Y-38814363D01*
X20084710Y-39503416D01*
X20084633Y-39503754D01*
X20084633Y-39503762D01*
X19951057Y-40091701D01*
X19705685Y-40642816D01*
X19357937Y-41135778D01*
X18921062Y-41551809D01*
X18411700Y-41875061D01*
X17849254Y-42093219D01*
X17255147Y-42197976D01*
X16652003Y-42185342D01*
X16062800Y-42055797D01*
X15509982Y-41814277D01*
X15014607Y-41469982D01*
X14595537Y-41036023D01*
X14268738Y-40528930D01*
X14046656Y-39968014D01*
X13937755Y-39374658D01*
X13946177Y-38771441D01*
X14071606Y-38181347D01*
X14309259Y-37626858D01*
X14650091Y-37129088D01*
X15081112Y-36707000D01*
X15585913Y-36376668D01*
X16145259Y-36150677D01*
X16737845Y-36037636D01*
X17341110Y-36041847D01*
X17341110Y-36041847D01*
G37*
G36*
X9341110Y-28041847D02*
X9932055Y-28163151D01*
X10488198Y-28396932D01*
X10988334Y-28734278D01*
X11413421Y-29162343D01*
X11747266Y-29664821D01*
X11977156Y-30222576D01*
X12094264Y-30814014D01*
X12094264Y-30814024D01*
X12094331Y-30814363D01*
X12084710Y-31503416D01*
X12084633Y-31503754D01*
X12084633Y-31503762D01*
X11951057Y-32091701D01*
X11705685Y-32642816D01*
X11357937Y-33135778D01*
X10921062Y-33551809D01*
X10411700Y-33875061D01*
X9849254Y-34093219D01*
X9255147Y-34197976D01*
X8652003Y-34185342D01*
X8062800Y-34055797D01*
X7509982Y-33814277D01*
X7014607Y-33469982D01*
X6595537Y-33036023D01*
X6268738Y-32528930D01*
X6046656Y-31968014D01*
X5937755Y-31374658D01*
X5946177Y-30771441D01*
X6071606Y-30181347D01*
X6309259Y-29626858D01*
X6650091Y-29129088D01*
X7081112Y-28707000D01*
X7585913Y-28376668D01*
X8145259Y-28150677D01*
X8737845Y-28037636D01*
X9341110Y-28041847D01*
X9341110Y-28041847D01*
G37*
G36*
X17341110Y-28041847D02*
X17932055Y-28163151D01*
X18488198Y-28396932D01*
X18988334Y-28734278D01*
X19413421Y-29162343D01*
X19747266Y-29664821D01*
X19977156Y-30222576D01*
X20094264Y-30814014D01*
X20094264Y-30814024D01*
X20094331Y-30814363D01*
X20084710Y-31503416D01*
X20084633Y-31503754D01*
X20084633Y-31503762D01*
X19951057Y-32091701D01*
X19705685Y-32642816D01*
X19357937Y-33135778D01*
X18921062Y-33551809D01*
X18411700Y-33875061D01*
X17849254Y-34093219D01*
X17255147Y-34197976D01*
X16652003Y-34185342D01*
X16062800Y-34055797D01*
X15509982Y-33814277D01*
X15014607Y-33469982D01*
X14595537Y-33036023D01*
X14268738Y-32528930D01*
X14046656Y-31968014D01*
X13937755Y-31374658D01*
X13946177Y-30771441D01*
X14071606Y-30181347D01*
X14309259Y-29626858D01*
X14650091Y-29129088D01*
X15081112Y-28707000D01*
X15585913Y-28376668D01*
X16145259Y-28150677D01*
X16737845Y-28037636D01*
X17341110Y-28041847D01*
X17341110Y-28041847D01*
G37*
M02*
