M48
;DRILL file {KiCad 4.0.5-e0-6337~49~ubuntu16.04.1} date Wed Jan 18 20:50:04 2017
;FORMAT={-:-/ absolute / metric / decimal}
FMAT,2
METRIC,TZ
T1C1.016
T2C4.980
%
G90
G05
M71
T1
X147.526Y-80.634
X147.526Y-83.174
X147.526Y-85.714
X147.526Y-88.254
X147.526Y-90.794
X147.526Y-93.334
X147.526Y-95.874
X147.526Y-98.414
X147.526Y-100.954
X147.526Y-103.494
X147.526Y-106.034
X147.526Y-108.574
X147.526Y-111.114
X147.526Y-113.654
X162.766Y-80.634
X162.766Y-83.174
X162.766Y-85.714
X162.766Y-88.254
X162.766Y-90.794
X162.766Y-93.334
X162.766Y-95.874
X162.766Y-98.414
X162.766Y-100.954
X162.766Y-103.494
X162.766Y-106.034
X162.766Y-108.574
X162.766Y-111.114
X162.766Y-113.654
T2
X136.906Y-80.593
X136.907Y-72.593
X136.907Y-88.593
X136.907Y-96.593
X136.907Y-104.593
X136.907Y-112.593
X136.907Y-120.593
X144.906Y-72.593
X144.906Y-120.593
X152.906Y-72.593
X152.906Y-120.593
X160.906Y-72.593
X160.906Y-120.593
T0
M30
