%TF.GenerationSoftware,KiCad,Pcbnew,4.0.5-e0-6337~49~ubuntu16.04.1*%
%TF.CreationDate,2017-01-18T20:50:04-08:00*%
%TF.ProjectId,4x7-Teensy-Breakout,3478372D5465656E73792D427265616B,1.0*%
%TF.FileFunction,Copper,L2,Bot,Signal*%
%FSLAX46Y46*%
G04 Gerber Fmt 4.6, Leading zero omitted, Abs format (unit mm)*
G04 Created by KiCad (PCBNEW 4.0.5-e0-6337~49~ubuntu16.04.1) date Wed Jan 18 20:50:04 2017*
%MOMM*%
%LPD*%
G01*
G04 APERTURE LIST*
%ADD10C,0.350000*%
%ADD11C,1.000000*%
%ADD12C,1.727200*%
%ADD13C,6.000000*%
%ADD14C,0.350000*%
G04 APERTURE END LIST*
D10*
D11*
X162656000Y-113843200D02*
X152906000Y-113843200D01*
X152906000Y-72843200D02*
X152906000Y-120593200D01*
D12*
X162766000Y-113654200D03*
X162766000Y-111114200D03*
X162766000Y-108574200D03*
X162766000Y-106034200D03*
X162766000Y-103494200D03*
X162766000Y-100954200D03*
X162766000Y-98414200D03*
X162766000Y-95874200D03*
X162766000Y-93334200D03*
X162766000Y-90794200D03*
X162766000Y-88254200D03*
X162766000Y-85714200D03*
X162766000Y-83174200D03*
X162766000Y-80634200D03*
X147526000Y-80634200D03*
X147526000Y-88254200D03*
X147526000Y-108574200D03*
X147526000Y-93334200D03*
X147526000Y-90794200D03*
X147526000Y-111114200D03*
X147526000Y-103494200D03*
X147526000Y-113654200D03*
X147526000Y-100954200D03*
X147526000Y-98414200D03*
X147526000Y-95874200D03*
X147526000Y-106034200D03*
X147526000Y-83174200D03*
X147526000Y-85714200D03*
D13*
X136906000Y-80593200D03*
X136907000Y-88593200D03*
X136907000Y-104593200D03*
X136907000Y-72593200D03*
X136907000Y-112593200D03*
X136907000Y-96593200D03*
X144906000Y-72593200D03*
X152906000Y-72593200D03*
X160906000Y-72593200D03*
X136907000Y-120593200D03*
X144906000Y-120593200D03*
X152906000Y-120593200D03*
X160906000Y-120593200D03*
D14*
X162766000Y-113654200D03*
X162766000Y-111114200D03*
X162766000Y-108574200D03*
X162766000Y-106034200D03*
X162766000Y-103494200D03*
X162766000Y-100954200D03*
X162766000Y-98414200D03*
X162766000Y-95874200D03*
X162766000Y-93334200D03*
X162766000Y-90794200D03*
X162766000Y-88254200D03*
X162766000Y-85714200D03*
X162766000Y-83174200D03*
X162766000Y-80634200D03*
X147526000Y-80634200D03*
X147526000Y-88254200D03*
X147526000Y-108574200D03*
X147526000Y-93334200D03*
X147526000Y-90794200D03*
X147526000Y-111114200D03*
X147526000Y-103494200D03*
X147526000Y-113654200D03*
X147526000Y-100954200D03*
X147526000Y-98414200D03*
X147526000Y-95874200D03*
X147526000Y-106034200D03*
X147526000Y-83174200D03*
X147526000Y-85714200D03*
X136906000Y-80593200D03*
X136907000Y-88593200D03*
X136907000Y-104593200D03*
X136907000Y-72593200D03*
X136907000Y-112593200D03*
X136907000Y-96593200D03*
X144906000Y-72593200D03*
X152906000Y-72593200D03*
X160906000Y-72593200D03*
X136907000Y-120593200D03*
X144906000Y-120593200D03*
X152906000Y-120593200D03*
X160906000Y-120593200D03*
M02*
