%TF.GenerationSoftware,KiCad,Pcbnew,4.0.5-e0-6337~49~ubuntu16.04.1*%
%TF.CreationDate,2017-02-14T00:48:36-08:00*%
%TF.ProjectId,4x7-Teensy-Breakout,3478372D5465656E73792D427265616B,1.0*%
%TF.FileFunction,Copper,L2,Bot,Signal*%
%FSLAX46Y46*%
G04 Gerber Fmt 4.6, Leading zero omitted, Abs format (unit mm)*
G04 Created by KiCad (PCBNEW 4.0.5-e0-6337~49~ubuntu16.04.1) date Tue Feb 14 00:48:36 2017*
%MOMM*%
%LPD*%
G01*
G04 APERTURE LIST*
%ADD10C,0.350000*%
%ADD11C,1.000000*%
%ADD12C,1.727200*%
%ADD13C,6.000000*%
%ADD14C,0.685800*%
%ADD15C,0.508000*%
%ADD16C,0.330200*%
%ADD17C,0.350000*%
G04 APERTURE END LIST*
D10*
D11*
X50667400Y-107417000D02*
X40917400Y-107417000D01*
X40917400Y-66417000D02*
X40917400Y-114167000D01*
D12*
X50777400Y-107228000D03*
X50777400Y-104688000D03*
X50777400Y-102148000D03*
X50777400Y-99608000D03*
X50777400Y-97068000D03*
X50777400Y-94528000D03*
X50777400Y-91988000D03*
X50777400Y-89448000D03*
X50777400Y-86908000D03*
X50777400Y-84368000D03*
X50777400Y-81828000D03*
X50777400Y-79288000D03*
X50777400Y-76748000D03*
X50777400Y-74208000D03*
X35537400Y-74208000D03*
X35537400Y-81828000D03*
X35537400Y-102148000D03*
X35537400Y-86908000D03*
X35537400Y-84368000D03*
X35537400Y-104688000D03*
X35537400Y-97068000D03*
X35537400Y-107228000D03*
X35537400Y-94528000D03*
X35537400Y-91988000D03*
X35537400Y-89448000D03*
X35537400Y-99608000D03*
X35537400Y-76748000D03*
X35537400Y-79288000D03*
D13*
X24917400Y-74167000D03*
X24918400Y-82167000D03*
X24918400Y-98167000D03*
X24918400Y-66167000D03*
X24918400Y-106167000D03*
X24918400Y-90167000D03*
X32917400Y-66167000D03*
X40917400Y-66167000D03*
X48917400Y-66167000D03*
X24918400Y-114167000D03*
X32917400Y-114167000D03*
X40917400Y-114167000D03*
X48917400Y-114167000D03*
D14*
X40707200Y-104688000D03*
X38351400Y-100083800D03*
D15*
X37177200Y-107228000D02*
X38351400Y-106053800D01*
X38351400Y-106053800D02*
X38351400Y-104063800D01*
X35537400Y-107228000D02*
X37177200Y-107228000D01*
X38351400Y-100083800D02*
X38351400Y-104063800D01*
D16*
X40707200Y-104688000D03*
X38351400Y-100083800D03*
D17*
X50777400Y-107228000D03*
X50777400Y-104688000D03*
X50777400Y-102148000D03*
X50777400Y-99608000D03*
X50777400Y-97068000D03*
X50777400Y-94528000D03*
X50777400Y-91988000D03*
X50777400Y-89448000D03*
X50777400Y-86908000D03*
X50777400Y-84368000D03*
X50777400Y-81828000D03*
X50777400Y-79288000D03*
X50777400Y-76748000D03*
X50777400Y-74208000D03*
X35537400Y-74208000D03*
X35537400Y-81828000D03*
X35537400Y-102148000D03*
X35537400Y-86908000D03*
X35537400Y-84368000D03*
X35537400Y-104688000D03*
X35537400Y-97068000D03*
X35537400Y-107228000D03*
X35537400Y-94528000D03*
X35537400Y-91988000D03*
X35537400Y-89448000D03*
X35537400Y-99608000D03*
X35537400Y-76748000D03*
X35537400Y-79288000D03*
X24917400Y-74167000D03*
X24918400Y-82167000D03*
X24918400Y-98167000D03*
X24918400Y-66167000D03*
X24918400Y-106167000D03*
X24918400Y-90167000D03*
X32917400Y-66167000D03*
X40917400Y-66167000D03*
X48917400Y-66167000D03*
X24918400Y-114167000D03*
X32917400Y-114167000D03*
X40917400Y-114167000D03*
X48917400Y-114167000D03*
M02*
