%TF.GenerationSoftware,KiCad,Pcbnew,4.0.5-e0-6337~49~ubuntu16.04.1*%
%TF.CreationDate,2017-02-13T22:17:35-08:00*%
%TF.ProjectId,1x2-Logo-Crazy-Circuits,3178322D4C6F676F2D4372617A792D43,1.0*%
%TF.FileFunction,Other,Fab,Top*%
%FSLAX46Y46*%
G04 Gerber Fmt 4.6, Leading zero omitted, Abs format (unit mm)*
G04 Created by KiCad (PCBNEW 4.0.5-e0-6337~49~ubuntu16.04.1) date Mon Feb 13 22:17:35 2017*
%MOMM*%
%LPD*%
G01*
G04 APERTURE LIST*
%ADD10C,0.350000*%
%ADD11C,0.040640*%
%ADD12C,0.150000*%
G04 APERTURE END LIST*
D10*
D11*
X31205000Y-35380000D02*
X23405000Y-35380000D01*
X31205000Y-43180000D02*
X23405000Y-43180000D01*
X35105000Y-39280000D02*
G75*
G03X31205000Y-35380000I-3900000J0D01*
G01*
X31205000Y-43180000D02*
G75*
G03X35105000Y-39280000I0J3900000D01*
G01*
X19505000Y-39280000D02*
G75*
G03X23405000Y-43180000I3900000J0D01*
G01*
X23405000Y-35380000D02*
G75*
G03X19505000Y-39280000I0J-3900000D01*
G01*
D12*
X26066905Y-40104321D02*
X25590714Y-40104321D01*
X25590714Y-39104321D01*
X26590714Y-39104321D02*
X26781191Y-39104321D01*
X26876429Y-39151940D01*
X26971667Y-39247178D01*
X27019286Y-39437654D01*
X27019286Y-39770988D01*
X26971667Y-39961464D01*
X26876429Y-40056702D01*
X26781191Y-40104321D01*
X26590714Y-40104321D01*
X26495476Y-40056702D01*
X26400238Y-39961464D01*
X26352619Y-39770988D01*
X26352619Y-39437654D01*
X26400238Y-39247178D01*
X26495476Y-39151940D01*
X26590714Y-39104321D01*
X27971667Y-39151940D02*
X27876429Y-39104321D01*
X27733572Y-39104321D01*
X27590714Y-39151940D01*
X27495476Y-39247178D01*
X27447857Y-39342416D01*
X27400238Y-39532892D01*
X27400238Y-39675750D01*
X27447857Y-39866226D01*
X27495476Y-39961464D01*
X27590714Y-40056702D01*
X27733572Y-40104321D01*
X27828810Y-40104321D01*
X27971667Y-40056702D01*
X28019286Y-40009083D01*
X28019286Y-39675750D01*
X27828810Y-39675750D01*
X28638333Y-39104321D02*
X28828810Y-39104321D01*
X28924048Y-39151940D01*
X29019286Y-39247178D01*
X29066905Y-39437654D01*
X29066905Y-39770988D01*
X29019286Y-39961464D01*
X28924048Y-40056702D01*
X28828810Y-40104321D01*
X28638333Y-40104321D01*
X28543095Y-40056702D01*
X28447857Y-39961464D01*
X28400238Y-39770988D01*
X28400238Y-39437654D01*
X28447857Y-39247178D01*
X28543095Y-39151940D01*
X28638333Y-39104321D01*
M02*
