%TF.GenerationSoftware,KiCad,Pcbnew,4.0.5-e0-6337~49~ubuntu16.04.1*%
%TF.CreationDate,2017-01-17T23:19:17-08:00*%
%TF.ProjectId,1x2-Logo-Crazy-Circuits,3178322D4C6F676F2D4372617A792D43,1.0*%
%TF.FileFunction,Other,Fab,Top*%
%FSLAX46Y46*%
G04 Gerber Fmt 4.6, Leading zero omitted, Abs format (unit mm)*
G04 Created by KiCad (PCBNEW 4.0.5-e0-6337~49~ubuntu16.04.1) date Tue Jan 17 23:19:17 2017*
%MOMM*%
%LPD*%
G01*
G04 APERTURE LIST*
%ADD10C,0.350000*%
%ADD11C,0.040640*%
%ADD12C,0.150000*%
G04 APERTURE END LIST*
D10*
D11*
X144997000Y-88593000D02*
X137197000Y-88593000D01*
X144997000Y-96393000D02*
X137197000Y-96393000D01*
X148897000Y-92493000D02*
G75*
G03X144997000Y-88593000I-3900000J0D01*
G01*
X144997000Y-96393000D02*
G75*
G03X148897000Y-92493000I0J3900000D01*
G01*
X133297000Y-92493000D02*
G75*
G03X137197000Y-96393000I3900000J0D01*
G01*
X137197000Y-88593000D02*
G75*
G03X133297000Y-92493000I0J-3900000D01*
G01*
D12*
X139858905Y-93317321D02*
X139382714Y-93317321D01*
X139382714Y-92317321D01*
X140382714Y-92317321D02*
X140573191Y-92317321D01*
X140668429Y-92364940D01*
X140763667Y-92460178D01*
X140811286Y-92650654D01*
X140811286Y-92983988D01*
X140763667Y-93174464D01*
X140668429Y-93269702D01*
X140573191Y-93317321D01*
X140382714Y-93317321D01*
X140287476Y-93269702D01*
X140192238Y-93174464D01*
X140144619Y-92983988D01*
X140144619Y-92650654D01*
X140192238Y-92460178D01*
X140287476Y-92364940D01*
X140382714Y-92317321D01*
X141763667Y-92364940D02*
X141668429Y-92317321D01*
X141525572Y-92317321D01*
X141382714Y-92364940D01*
X141287476Y-92460178D01*
X141239857Y-92555416D01*
X141192238Y-92745892D01*
X141192238Y-92888750D01*
X141239857Y-93079226D01*
X141287476Y-93174464D01*
X141382714Y-93269702D01*
X141525572Y-93317321D01*
X141620810Y-93317321D01*
X141763667Y-93269702D01*
X141811286Y-93222083D01*
X141811286Y-92888750D01*
X141620810Y-92888750D01*
X142430333Y-92317321D02*
X142620810Y-92317321D01*
X142716048Y-92364940D01*
X142811286Y-92460178D01*
X142858905Y-92650654D01*
X142858905Y-92983988D01*
X142811286Y-93174464D01*
X142716048Y-93269702D01*
X142620810Y-93317321D01*
X142430333Y-93317321D01*
X142335095Y-93269702D01*
X142239857Y-93174464D01*
X142192238Y-92983988D01*
X142192238Y-92650654D01*
X142239857Y-92460178D01*
X142335095Y-92364940D01*
X142430333Y-92317321D01*
M02*
