%TF.GenerationSoftware,KiCad,Pcbnew,4.0.5-e0-6337~49~ubuntu16.04.1*%
%TF.CreationDate,2017-03-17T11:18:28-07:00*%
%TF.ProjectId,2x2-Slide-Switch-EG1218-TH,3278322D536C6964652D537769746368,1.0*%
%TF.FileFunction,Soldermask,Bot*%
%FSLAX46Y46*%
G04 Gerber Fmt 4.6, Leading zero omitted, Abs format (unit mm)*
G04 Created by KiCad (PCBNEW 4.0.5-e0-6337~49~ubuntu16.04.1) date Fri Mar 17 11:18:28 2017*
%MOMM*%
%LPD*%
G01*
G04 APERTURE LIST*
%ADD10C,0.350000*%
%ADD11C,7.000000*%
%ADD12C,1.500000*%
G04 APERTURE END LIST*
D10*
D11*
X32092900Y-58305700D02*
X32156400Y-58369200D01*
X23837900Y-58254900D02*
X23774400Y-58318400D01*
X23787100Y-49822100D02*
X23723600Y-49758600D01*
X32169100Y-49822100D02*
X32232600Y-49758600D01*
D12*
X28957800Y-54135200D02*
X31957800Y-50135200D01*
X27957800Y-54135200D02*
X28957800Y-54135200D01*
X27907000Y-51601800D02*
X23907000Y-49601800D01*
X27381400Y-54145000D02*
X24381400Y-58145000D01*
X28381400Y-54145000D02*
X27381400Y-54145000D01*
X31894800Y-58586800D02*
X27894800Y-56586800D01*
D11*
X32259000Y-49987200D02*
X32386000Y-49860200D01*
X23877000Y-49987200D02*
X23750000Y-49860200D01*
X23750000Y-58369200D02*
X23623000Y-58496200D01*
X32259000Y-58115200D02*
X32386000Y-58242200D01*
D10*
G36*
X24327110Y-55041047D02*
X24918055Y-55162351D01*
X25474198Y-55396132D01*
X25974334Y-55733478D01*
X26399421Y-56161543D01*
X26733266Y-56664021D01*
X26963156Y-57221776D01*
X27080264Y-57813214D01*
X27080264Y-57813224D01*
X27080331Y-57813563D01*
X27070710Y-58502616D01*
X27070633Y-58502954D01*
X27070633Y-58502962D01*
X26937057Y-59090901D01*
X26691685Y-59642016D01*
X26343937Y-60134978D01*
X25907062Y-60551009D01*
X25397700Y-60874261D01*
X24835254Y-61092419D01*
X24241147Y-61197176D01*
X23638003Y-61184542D01*
X23048800Y-61054997D01*
X22495982Y-60813477D01*
X22000607Y-60469182D01*
X21581537Y-60035223D01*
X21254738Y-59528130D01*
X21032656Y-58967214D01*
X20923755Y-58373858D01*
X20932177Y-57770641D01*
X21057606Y-57180547D01*
X21295259Y-56626058D01*
X21636091Y-56128288D01*
X22067112Y-55706200D01*
X22571913Y-55375868D01*
X23131259Y-55149877D01*
X23723845Y-55036836D01*
X24327110Y-55041047D01*
X24327110Y-55041047D01*
G37*
G36*
X32327110Y-55041047D02*
X32918055Y-55162351D01*
X33474198Y-55396132D01*
X33974334Y-55733478D01*
X34399421Y-56161543D01*
X34733266Y-56664021D01*
X34963156Y-57221776D01*
X35080264Y-57813214D01*
X35080264Y-57813224D01*
X35080331Y-57813563D01*
X35070710Y-58502616D01*
X35070633Y-58502954D01*
X35070633Y-58502962D01*
X34937057Y-59090901D01*
X34691685Y-59642016D01*
X34343937Y-60134978D01*
X33907062Y-60551009D01*
X33397700Y-60874261D01*
X32835254Y-61092419D01*
X32241147Y-61197176D01*
X31638003Y-61184542D01*
X31048800Y-61054997D01*
X30495982Y-60813477D01*
X30000607Y-60469182D01*
X29581537Y-60035223D01*
X29254738Y-59528130D01*
X29032656Y-58967214D01*
X28923755Y-58373858D01*
X28932177Y-57770641D01*
X29057606Y-57180547D01*
X29295259Y-56626058D01*
X29636091Y-56128288D01*
X30067112Y-55706200D01*
X30571913Y-55375868D01*
X31131259Y-55149877D01*
X31723845Y-55036836D01*
X32327110Y-55041047D01*
X32327110Y-55041047D01*
G37*
G36*
X27989254Y-55915864D02*
X28123951Y-55943514D01*
X28250724Y-55996805D01*
X28364727Y-56073701D01*
X28461623Y-56171275D01*
X28537720Y-56285811D01*
X28590122Y-56412947D01*
X28616763Y-56547495D01*
X28616763Y-56547505D01*
X28616830Y-56547844D01*
X28614637Y-56704909D01*
X28614561Y-56705243D01*
X28614561Y-56705256D01*
X28584173Y-56839008D01*
X28528243Y-56964628D01*
X28448975Y-57076997D01*
X28349392Y-57171829D01*
X28233285Y-57245513D01*
X28105079Y-57295240D01*
X27969658Y-57319119D01*
X27832173Y-57316238D01*
X27697867Y-57286709D01*
X27571854Y-57231656D01*
X27458939Y-57153178D01*
X27363415Y-57054259D01*
X27288922Y-56938669D01*
X27238298Y-56810808D01*
X27213476Y-56675561D01*
X27215395Y-56538061D01*
X27243987Y-56403551D01*
X27298156Y-56277162D01*
X27375851Y-56163693D01*
X27474097Y-56067483D01*
X27589164Y-55992185D01*
X27716665Y-55940671D01*
X27851738Y-55914905D01*
X27989254Y-55915864D01*
X27989254Y-55915864D01*
G37*
G36*
X27989254Y-53415864D02*
X28123951Y-53443514D01*
X28250724Y-53496805D01*
X28364727Y-53573701D01*
X28461623Y-53671275D01*
X28537720Y-53785811D01*
X28590122Y-53912947D01*
X28616763Y-54047495D01*
X28616763Y-54047505D01*
X28616830Y-54047844D01*
X28614637Y-54204909D01*
X28614561Y-54205243D01*
X28614561Y-54205256D01*
X28584173Y-54339008D01*
X28528243Y-54464628D01*
X28448975Y-54576997D01*
X28349392Y-54671829D01*
X28233285Y-54745513D01*
X28105079Y-54795240D01*
X27969658Y-54819119D01*
X27832173Y-54816238D01*
X27697867Y-54786709D01*
X27571854Y-54731656D01*
X27458939Y-54653178D01*
X27363415Y-54554259D01*
X27288922Y-54438669D01*
X27238298Y-54310808D01*
X27213476Y-54175561D01*
X27215395Y-54038061D01*
X27243987Y-53903551D01*
X27298156Y-53777162D01*
X27375851Y-53663693D01*
X27474097Y-53567483D01*
X27589164Y-53492185D01*
X27716665Y-53440671D01*
X27851738Y-53414905D01*
X27989254Y-53415864D01*
X27989254Y-53415864D01*
G37*
G36*
X24327110Y-47041047D02*
X24918055Y-47162351D01*
X25474198Y-47396132D01*
X25974334Y-47733478D01*
X26399421Y-48161543D01*
X26733266Y-48664021D01*
X26963156Y-49221776D01*
X27080264Y-49813214D01*
X27080264Y-49813224D01*
X27080331Y-49813563D01*
X27070710Y-50502616D01*
X27070633Y-50502954D01*
X27070633Y-50502962D01*
X26937057Y-51090901D01*
X26691685Y-51642016D01*
X26343937Y-52134978D01*
X25907062Y-52551009D01*
X25397700Y-52874261D01*
X24835254Y-53092419D01*
X24241147Y-53197176D01*
X23638003Y-53184542D01*
X23048800Y-53054997D01*
X22495982Y-52813477D01*
X22000607Y-52469182D01*
X21581537Y-52035223D01*
X21254738Y-51528130D01*
X21032656Y-50967214D01*
X20923755Y-50373858D01*
X20932177Y-49770641D01*
X21057606Y-49180547D01*
X21295259Y-48626058D01*
X21636091Y-48128288D01*
X22067112Y-47706200D01*
X22571913Y-47375868D01*
X23131259Y-47149877D01*
X23723845Y-47036836D01*
X24327110Y-47041047D01*
X24327110Y-47041047D01*
G37*
G36*
X32327110Y-47041047D02*
X32918055Y-47162351D01*
X33474198Y-47396132D01*
X33974334Y-47733478D01*
X34399421Y-48161543D01*
X34733266Y-48664021D01*
X34963156Y-49221776D01*
X35080264Y-49813214D01*
X35080264Y-49813224D01*
X35080331Y-49813563D01*
X35070710Y-50502616D01*
X35070633Y-50502954D01*
X35070633Y-50502962D01*
X34937057Y-51090901D01*
X34691685Y-51642016D01*
X34343937Y-52134978D01*
X33907062Y-52551009D01*
X33397700Y-52874261D01*
X32835254Y-53092419D01*
X32241147Y-53197176D01*
X31638003Y-53184542D01*
X31048800Y-53054997D01*
X30495982Y-52813477D01*
X30000607Y-52469182D01*
X29581537Y-52035223D01*
X29254738Y-51528130D01*
X29032656Y-50967214D01*
X28923755Y-50373858D01*
X28932177Y-49770641D01*
X29057606Y-49180547D01*
X29295259Y-48626058D01*
X29636091Y-48128288D01*
X30067112Y-47706200D01*
X30571913Y-47375868D01*
X31131259Y-47149877D01*
X31723845Y-47036836D01*
X32327110Y-47041047D01*
X32327110Y-47041047D01*
G37*
G36*
X27989254Y-50915864D02*
X28123951Y-50943514D01*
X28250724Y-50996805D01*
X28364727Y-51073701D01*
X28461623Y-51171275D01*
X28537720Y-51285811D01*
X28590122Y-51412947D01*
X28616763Y-51547495D01*
X28616763Y-51547505D01*
X28616830Y-51547844D01*
X28614637Y-51704909D01*
X28614561Y-51705243D01*
X28614561Y-51705256D01*
X28584173Y-51839008D01*
X28528243Y-51964628D01*
X28448975Y-52076997D01*
X28349392Y-52171829D01*
X28233285Y-52245513D01*
X28105079Y-52295240D01*
X27969658Y-52319119D01*
X27832173Y-52316238D01*
X27697867Y-52286709D01*
X27571854Y-52231656D01*
X27458939Y-52153178D01*
X27363415Y-52054259D01*
X27288922Y-51938669D01*
X27238298Y-51810808D01*
X27213476Y-51675561D01*
X27215395Y-51538061D01*
X27243987Y-51403551D01*
X27298156Y-51277162D01*
X27375851Y-51163693D01*
X27474097Y-51067483D01*
X27589164Y-50992185D01*
X27716665Y-50940671D01*
X27851738Y-50914905D01*
X27989254Y-50915864D01*
X27989254Y-50915864D01*
G37*
M02*
