G04 This is an RS-274x file exported by *
G04 gerbv version 2.6.0 *
G04 More information is available about gerbv at *
G04 http://gerbv.gpleda.org/ *
G04 --End of header info--*
%MOIN*%
%FSLAX34Y34*%
%IPPOS*%
G04 --Define apertures--*
%ADD10C,0.0138*%
%ADD11C,0.0079*%
%ADD12C,0.0016*%
%ADD13C,0.0059*%
G04 --Start main section--*
G54D11*
G01X0007030Y-019650D02*
G75*
G03X0007030Y-019650I-000542J0000000D01*
G54D12*
G01X0009610Y-018154D02*
G01X0006539Y-018154D01*
G01X0009610Y-024296D02*
G01X0006539Y-024296D01*
G01X0011146Y-022760D02*
G01X0011146Y-019689D01*
G01X0005004Y-022760D02*
G01X0005004Y-019689D01*
G01X0011146Y-019689D02*
G75*
G03X0009610Y-018154I-001535J0000000D01*
G01X0009610Y-024296D02*
G75*
G03X0011146Y-022760I0000000J0001535D01*
G01X0005004Y-022760D02*
G75*
G03X0006539Y-024296I0001535J0000000D01*
G01X0006539Y-018154D02*
G75*
G03X0005004Y-019689I0000000J-001535D01*
G54D11*
G01X0010210Y-019680D02*
G75*
G03X0010210Y-019680I-000542J0000000D01*
G01X0007040Y-022800D02*
G75*
G03X0007040Y-022800I-000542J0000000D01*
G01X0010180Y-022800D02*
G75*
G03X0010180Y-022800I-000542J0000000D01*
G54D13*
G01X0007546Y-021400D02*
G01X0007602Y-021419D01*
G01X0007602Y-021419D02*
G01X0007696Y-021419D01*
G01X0007696Y-021419D02*
G01X0007733Y-021400D01*
G01X0007733Y-021400D02*
G01X0007752Y-021381D01*
G01X0007752Y-021381D02*
G01X0007771Y-021344D01*
G01X0007771Y-021344D02*
G01X0007771Y-021306D01*
G01X0007771Y-021306D02*
G01X0007752Y-021269D01*
G01X0007752Y-021269D02*
G01X0007733Y-021250D01*
G01X0007733Y-021250D02*
G01X0007696Y-021231D01*
G01X0007696Y-021231D02*
G01X0007621Y-021212D01*
G01X0007621Y-021212D02*
G01X0007583Y-021194D01*
G01X0007583Y-021194D02*
G01X0007565Y-021175D01*
G01X0007565Y-021175D02*
G01X0007546Y-021137D01*
G01X0007546Y-021137D02*
G01X0007546Y-021100D01*
G01X0007546Y-021100D02*
G01X0007565Y-021062D01*
G01X0007565Y-021062D02*
G01X0007583Y-021044D01*
G01X0007583Y-021044D02*
G01X0007621Y-021025D01*
G01X0007621Y-021025D02*
G01X0007715Y-021025D01*
G01X0007715Y-021025D02*
G01X0007771Y-021044D01*
G01X0007902Y-021025D02*
G01X0007996Y-021419D01*
G01X0007996Y-021419D02*
G01X0008071Y-021137D01*
G01X0008071Y-021137D02*
G01X0008146Y-021419D01*
G01X0008146Y-021419D02*
G01X0008240Y-021025D01*
G01X0008596Y-021419D02*
G01X0008371Y-021419D01*
G01X0008483Y-021419D02*
G01X0008483Y-021025D01*
G01X0008483Y-021025D02*
G01X0008446Y-021081D01*
G01X0008446Y-021081D02*
G01X0008408Y-021119D01*
G01X0008408Y-021119D02*
G01X0008371Y-021137D01*
G01X0009772Y-022938D02*
G01X0009548Y-022938D01*
G01X0009660Y-022938D02*
G01X0009660Y-022544D01*
G01X0009660Y-022544D02*
G01X0009623Y-022600D01*
G01X0009623Y-022600D02*
G01X0009585Y-022638D01*
G01X0009585Y-022638D02*
G01X0009548Y-022656D01*
G01X0006388Y-022592D02*
G01X0006406Y-022573D01*
G01X0006406Y-022573D02*
G01X0006444Y-022554D01*
G01X0006444Y-022554D02*
G01X0006537Y-022554D01*
G01X0006537Y-022554D02*
G01X0006575Y-022573D01*
G01X0006575Y-022573D02*
G01X0006594Y-022592D01*
G01X0006594Y-022592D02*
G01X0006612Y-022629D01*
G01X0006612Y-022629D02*
G01X0006612Y-022666D01*
G01X0006612Y-022666D02*
G01X0006594Y-022723D01*
G01X0006594Y-022723D02*
G01X0006369Y-022948D01*
G01X0006369Y-022948D02*
G01X0006612Y-022948D01*
G01X0006359Y-019444D02*
G01X0006602Y-019444D01*
G01X0006602Y-019444D02*
G01X0006471Y-019594D01*
G01X0006471Y-019594D02*
G01X0006527Y-019594D01*
G01X0006527Y-019594D02*
G01X0006565Y-019613D01*
G01X0006565Y-019613D02*
G01X0006584Y-019631D01*
G01X0006584Y-019631D02*
G01X0006602Y-019669D01*
G01X0006602Y-019669D02*
G01X0006602Y-019763D01*
G01X0006602Y-019763D02*
G01X0006584Y-019800D01*
G01X0006584Y-019800D02*
G01X0006565Y-019819D01*
G01X0006565Y-019819D02*
G01X0006527Y-019838D01*
G01X0006527Y-019838D02*
G01X0006415Y-019838D01*
G01X0006415Y-019838D02*
G01X0006378Y-019819D01*
G01X0006378Y-019819D02*
G01X0006359Y-019800D01*
G01X0009538Y-019522D02*
G01X0009556Y-019503D01*
G01X0009556Y-019503D02*
G01X0009594Y-019484D01*
G01X0009594Y-019484D02*
G01X0009687Y-019484D01*
G01X0009687Y-019484D02*
G01X0009725Y-019503D01*
G01X0009725Y-019503D02*
G01X0009744Y-019522D01*
G01X0009744Y-019522D02*
G01X0009762Y-019559D01*
G01X0009762Y-019559D02*
G01X0009762Y-019596D01*
G01X0009762Y-019596D02*
G01X0009744Y-019653D01*
G01X0009744Y-019653D02*
G01X0009519Y-019878D01*
G01X0009519Y-019878D02*
G01X0009762Y-019878D01*
G01X0000000Y0000000D02*
G54D12*
G01X0009610Y-018154D02*
G01X0006539Y-018154D01*
G01X0009610Y-024296D02*
G01X0006539Y-024296D01*
G01X0011146Y-022760D02*
G01X0011146Y-019689D01*
G01X0005004Y-022760D02*
G01X0005004Y-019689D01*
G01X0011146Y-019689D02*
G75*
G03X0009610Y-018154I-001535J0000000D01*
G01X0009610Y-024296D02*
G75*
G03X0011146Y-022760I0000000J0001535D01*
G01X0005004Y-022760D02*
G75*
G03X0006539Y-024296I0001535J0000000D01*
G01X0006539Y-018154D02*
G75*
G03X0005004Y-019689I0000000J-001535D01*
M02*
