%TF.GenerationSoftware,KiCad,Pcbnew,4.0.5-e0-6337~49~ubuntu16.04.1*%
%TF.CreationDate,2017-03-17T11:18:28-07:00*%
%TF.ProjectId,2x2-Slide-Switch-EG1218-TH,3278322D536C6964652D537769746368,1.0*%
%TF.FileFunction,Copper,L2,Bot,Signal*%
%FSLAX46Y46*%
G04 Gerber Fmt 4.6, Leading zero omitted, Abs format (unit mm)*
G04 Created by KiCad (PCBNEW 4.0.5-e0-6337~49~ubuntu16.04.1) date Fri Mar 17 11:18:28 2017*
%MOMM*%
%LPD*%
G01*
G04 APERTURE LIST*
%ADD10C,0.350000*%
%ADD11C,7.000000*%
%ADD12C,1.500000*%
%ADD13C,6.000000*%
%ADD14C,1.250000*%
%ADD15C,0.254000*%
%ADD16C,0.350000*%
G04 APERTURE END LIST*
D10*
D11*
X32259000Y-49987200D02*
X32386000Y-49860200D01*
D12*
X27957800Y-54135200D02*
X28957800Y-54135200D01*
X28957800Y-54135200D02*
X31957800Y-50135200D01*
X27915600Y-51612800D02*
X23915600Y-49612800D01*
X27381400Y-54145000D02*
X24381400Y-58145000D01*
X28381400Y-54145000D02*
X27381400Y-54145000D01*
X31903400Y-58597800D02*
X27903400Y-56597800D01*
D11*
X23877000Y-49987200D02*
X23750000Y-49860200D01*
X23750000Y-58369200D02*
X23623000Y-58496200D01*
X32259000Y-58115200D02*
X32386000Y-58242200D01*
D13*
X32004000Y-50115200D03*
D14*
X27915600Y-54116600D03*
X27915600Y-51616600D03*
X27915600Y-56616600D03*
D13*
X32004000Y-58115200D03*
X24004000Y-50115200D03*
X24004000Y-58115200D03*
D11*
X32258000Y-49631600D02*
X32258000Y-49885600D01*
D15*
X31978600Y-50012600D02*
X31978600Y-50013600D01*
D11*
X23774400Y-58470800D02*
X23774400Y-58216800D01*
X23622000Y-49733200D02*
X23876000Y-49733200D01*
X32308800Y-58318400D02*
X32054800Y-58318400D01*
D16*
X32004000Y-50115200D03*
X27915600Y-54116600D03*
X27915600Y-51616600D03*
X27915600Y-56616600D03*
X32004000Y-58115200D03*
X24004000Y-50115200D03*
X24004000Y-58115200D03*
M02*
