%TF.GenerationSoftware,KiCad,Pcbnew,4.0.5-e0-6337~49~ubuntu16.04.1*%
%TF.CreationDate,2017-01-18T00:34:39-08:00*%
%TF.ProjectId,2x2-Generic-2.54mm-Pitch,3278322D47656E657269632D322E3534,1.0*%
%TF.FileFunction,Other,Fab,Top*%
%FSLAX46Y46*%
G04 Gerber Fmt 4.6, Leading zero omitted, Abs format (unit mm)*
G04 Created by KiCad (PCBNEW 4.0.5-e0-6337~49~ubuntu16.04.1) date Wed Jan 18 00:34:39 2017*
%MOMM*%
%LPD*%
G01*
G04 APERTURE LIST*
%ADD10C,0.350000*%
%ADD11C,0.040640*%
%ADD12C,0.150000*%
G04 APERTURE END LIST*
D10*
D11*
X154458000Y-90435000D02*
X146658000Y-90435000D01*
X154458000Y-106035000D02*
X146658000Y-106035000D01*
X158358000Y-102135000D02*
X158358000Y-94335000D01*
X142758000Y-102135000D02*
X142758000Y-94335000D01*
X158358000Y-94335000D02*
G75*
G03X154458000Y-90435000I-3900000J0D01*
G01*
X154458000Y-106035000D02*
G75*
G03X158358000Y-102135000I0J3900000D01*
G01*
X142758000Y-102135000D02*
G75*
G03X146658000Y-106035000I3900000J0D01*
G01*
X146658000Y-90435000D02*
G75*
G03X142758000Y-94335000I0J-3900000D01*
G01*
D12*
X144129429Y-97735000D02*
X144034191Y-97687381D01*
X143891334Y-97687381D01*
X143748476Y-97735000D01*
X143653238Y-97830238D01*
X143605619Y-97925476D01*
X143558000Y-98115952D01*
X143558000Y-98258810D01*
X143605619Y-98449286D01*
X143653238Y-98544524D01*
X143748476Y-98639762D01*
X143891334Y-98687381D01*
X143986572Y-98687381D01*
X144129429Y-98639762D01*
X144177048Y-98592143D01*
X144177048Y-98258810D01*
X143986572Y-98258810D01*
X144605619Y-98163571D02*
X144938953Y-98163571D01*
X145081810Y-98687381D02*
X144605619Y-98687381D01*
X144605619Y-97687381D01*
X145081810Y-97687381D01*
X145510381Y-98687381D02*
X145510381Y-97687381D01*
X146081810Y-98687381D01*
X146081810Y-97687381D01*
X147272286Y-97782619D02*
X147319905Y-97735000D01*
X147415143Y-97687381D01*
X147653239Y-97687381D01*
X147748477Y-97735000D01*
X147796096Y-97782619D01*
X147843715Y-97877857D01*
X147843715Y-97973095D01*
X147796096Y-98115952D01*
X147224667Y-98687381D01*
X147843715Y-98687381D01*
X148272286Y-98592143D02*
X148319905Y-98639762D01*
X148272286Y-98687381D01*
X148224667Y-98639762D01*
X148272286Y-98592143D01*
X148272286Y-98687381D01*
X149224667Y-97687381D02*
X148748476Y-97687381D01*
X148700857Y-98163571D01*
X148748476Y-98115952D01*
X148843714Y-98068333D01*
X149081810Y-98068333D01*
X149177048Y-98115952D01*
X149224667Y-98163571D01*
X149272286Y-98258810D01*
X149272286Y-98496905D01*
X149224667Y-98592143D01*
X149177048Y-98639762D01*
X149081810Y-98687381D01*
X148843714Y-98687381D01*
X148748476Y-98639762D01*
X148700857Y-98592143D01*
X150129429Y-98020714D02*
X150129429Y-98687381D01*
X149891333Y-97639762D02*
X149653238Y-98354048D01*
X150272286Y-98354048D01*
X150653238Y-98687381D02*
X150653238Y-97687381D01*
X150986572Y-98401667D01*
X151319905Y-97687381D01*
X151319905Y-98687381D01*
X151796095Y-98687381D02*
X151796095Y-97687381D01*
X152129429Y-98401667D01*
X152462762Y-97687381D01*
X152462762Y-98687381D01*
X153700857Y-98687381D02*
X153700857Y-97687381D01*
X154081810Y-97687381D01*
X154177048Y-97735000D01*
X154224667Y-97782619D01*
X154272286Y-97877857D01*
X154272286Y-98020714D01*
X154224667Y-98115952D01*
X154177048Y-98163571D01*
X154081810Y-98211190D01*
X153700857Y-98211190D01*
X154700857Y-98687381D02*
X154700857Y-97687381D01*
X155034190Y-97687381D02*
X155605619Y-97687381D01*
X155319904Y-98687381D02*
X155319904Y-97687381D01*
X156510381Y-98592143D02*
X156462762Y-98639762D01*
X156319905Y-98687381D01*
X156224667Y-98687381D01*
X156081809Y-98639762D01*
X155986571Y-98544524D01*
X155938952Y-98449286D01*
X155891333Y-98258810D01*
X155891333Y-98115952D01*
X155938952Y-97925476D01*
X155986571Y-97830238D01*
X156081809Y-97735000D01*
X156224667Y-97687381D01*
X156319905Y-97687381D01*
X156462762Y-97735000D01*
X156510381Y-97782619D01*
X156938952Y-98687381D02*
X156938952Y-97687381D01*
X156938952Y-98163571D02*
X157510381Y-98163571D01*
X157510381Y-98687381D02*
X157510381Y-97687381D01*
M02*
