%TF.GenerationSoftware,KiCad,Pcbnew,4.0.5-e0-6337~49~ubuntu16.04.1*%
%TF.CreationDate,2017-01-13T08:23:04-08:00*%
%TF.ProjectId,2x2-Generic-2.54mm-Pitch,3278322D47656E657269632D322E3534,1.0*%
%TF.FileFunction,Soldermask,Top*%
%FSLAX46Y46*%
G04 Gerber Fmt 4.6, Leading zero omitted, Abs format (unit mm)*
G04 Created by KiCad (PCBNEW 4.0.5-e0-6337~49~ubuntu16.04.1) date Fri Jan 13 08:23:04 2017*
%MOMM*%
%LPD*%
G01*
G04 APERTURE LIST*
%ADD10C,0.350000*%
G04 APERTURE END LIST*
D10*
G36*
X146881110Y-99160847D02*
X147472055Y-99282151D01*
X148028198Y-99515932D01*
X148528334Y-99853278D01*
X148953421Y-100281343D01*
X149287266Y-100783821D01*
X149517156Y-101341576D01*
X149634264Y-101933014D01*
X149634264Y-101933024D01*
X149634331Y-101933363D01*
X149624710Y-102622416D01*
X149624633Y-102622754D01*
X149624633Y-102622762D01*
X149491057Y-103210701D01*
X149245685Y-103761816D01*
X148897937Y-104254778D01*
X148461062Y-104670809D01*
X147951700Y-104994061D01*
X147389254Y-105212219D01*
X146795147Y-105316976D01*
X146192003Y-105304342D01*
X145602800Y-105174797D01*
X145049982Y-104933277D01*
X144554607Y-104588982D01*
X144135537Y-104155023D01*
X143808738Y-103647930D01*
X143586656Y-103087014D01*
X143477755Y-102493658D01*
X143486177Y-101890441D01*
X143611606Y-101300347D01*
X143849259Y-100745858D01*
X144190091Y-100248088D01*
X144621112Y-99826000D01*
X145125913Y-99495668D01*
X145685259Y-99269677D01*
X146277845Y-99156636D01*
X146881110Y-99160847D01*
X146881110Y-99160847D01*
G37*
G36*
X154881110Y-99160847D02*
X155472055Y-99282151D01*
X156028198Y-99515932D01*
X156528334Y-99853278D01*
X156953421Y-100281343D01*
X157287266Y-100783821D01*
X157517156Y-101341576D01*
X157634264Y-101933014D01*
X157634264Y-101933024D01*
X157634331Y-101933363D01*
X157624710Y-102622416D01*
X157624633Y-102622754D01*
X157624633Y-102622762D01*
X157491057Y-103210701D01*
X157245685Y-103761816D01*
X156897937Y-104254778D01*
X156461062Y-104670809D01*
X155951700Y-104994061D01*
X155389254Y-105212219D01*
X154795147Y-105316976D01*
X154192003Y-105304342D01*
X153602800Y-105174797D01*
X153049982Y-104933277D01*
X152554607Y-104588982D01*
X152135537Y-104155023D01*
X151808738Y-103647930D01*
X151586656Y-103087014D01*
X151477755Y-102493658D01*
X151486177Y-101890441D01*
X151611606Y-101300347D01*
X151849259Y-100745858D01*
X152190091Y-100248088D01*
X152621112Y-99826000D01*
X153125913Y-99495668D01*
X153685259Y-99269677D01*
X154277845Y-99156636D01*
X154881110Y-99160847D01*
X154881110Y-99160847D01*
G37*
G36*
X150665790Y-98479481D02*
X150862921Y-98519947D01*
X151048451Y-98597937D01*
X151215292Y-98710473D01*
X151357098Y-98853272D01*
X151468466Y-99020895D01*
X151545156Y-99206958D01*
X151584176Y-99404027D01*
X151584176Y-99404032D01*
X151584244Y-99404376D01*
X151581034Y-99634239D01*
X151580957Y-99634577D01*
X151580957Y-99634586D01*
X151536449Y-99830490D01*
X151454596Y-100014335D01*
X151338588Y-100178786D01*
X151192850Y-100317571D01*
X151022931Y-100425405D01*
X150835299Y-100498182D01*
X150637112Y-100533128D01*
X150435905Y-100528913D01*
X150239351Y-100485699D01*
X150054933Y-100405128D01*
X149889682Y-100290275D01*
X149749882Y-100145509D01*
X149640864Y-99976345D01*
X149566777Y-99789224D01*
X149530449Y-99591288D01*
X149533258Y-99390058D01*
X149575102Y-99193205D01*
X149654380Y-99008232D01*
X149768080Y-98842178D01*
X149911865Y-98701373D01*
X150080265Y-98591176D01*
X150266860Y-98515786D01*
X150464540Y-98478077D01*
X150665790Y-98479481D01*
X150665790Y-98479481D01*
G37*
G36*
X150671042Y-95889515D02*
X150877777Y-95931952D01*
X151072347Y-96013741D01*
X151247318Y-96131761D01*
X151396033Y-96281518D01*
X151512827Y-96457308D01*
X151593253Y-96652436D01*
X151634178Y-96859124D01*
X151634178Y-96859129D01*
X151634246Y-96859473D01*
X151630880Y-97100536D01*
X151630803Y-97100874D01*
X151630803Y-97100883D01*
X151584122Y-97306349D01*
X151498281Y-97499152D01*
X151376621Y-97671615D01*
X151223782Y-97817162D01*
X151045584Y-97930250D01*
X150848810Y-98006573D01*
X150640967Y-98043222D01*
X150429957Y-98038802D01*
X150223825Y-97993481D01*
X150030422Y-97908985D01*
X149857119Y-97788536D01*
X149710508Y-97636717D01*
X149596178Y-97459310D01*
X149518481Y-97263072D01*
X149480384Y-97055492D01*
X149483330Y-96844458D01*
X149527211Y-96638013D01*
X149610353Y-96444028D01*
X149729593Y-96269883D01*
X149880384Y-96122217D01*
X150056988Y-96006651D01*
X150252675Y-95927588D01*
X150459987Y-95888042D01*
X150671042Y-95889515D01*
X150671042Y-95889515D01*
G37*
G36*
X146881110Y-91160847D02*
X147472055Y-91282151D01*
X148028198Y-91515932D01*
X148528334Y-91853278D01*
X148953421Y-92281343D01*
X149287266Y-92783821D01*
X149517156Y-93341576D01*
X149634264Y-93933014D01*
X149634264Y-93933024D01*
X149634331Y-93933363D01*
X149624710Y-94622416D01*
X149624633Y-94622754D01*
X149624633Y-94622762D01*
X149491057Y-95210701D01*
X149245685Y-95761816D01*
X148897937Y-96254778D01*
X148461062Y-96670809D01*
X147951700Y-96994061D01*
X147389254Y-97212219D01*
X146795147Y-97316976D01*
X146192003Y-97304342D01*
X145602800Y-97174797D01*
X145049982Y-96933277D01*
X144554607Y-96588982D01*
X144135537Y-96155023D01*
X143808738Y-95647930D01*
X143586656Y-95087014D01*
X143477755Y-94493658D01*
X143486177Y-93890441D01*
X143611606Y-93300347D01*
X143849259Y-92745858D01*
X144190091Y-92248088D01*
X144621112Y-91826000D01*
X145125913Y-91495668D01*
X145685259Y-91269677D01*
X146277845Y-91156636D01*
X146881110Y-91160847D01*
X146881110Y-91160847D01*
G37*
G36*
X154881110Y-91160847D02*
X155472055Y-91282151D01*
X156028198Y-91515932D01*
X156528334Y-91853278D01*
X156953421Y-92281343D01*
X157287266Y-92783821D01*
X157517156Y-93341576D01*
X157634264Y-93933014D01*
X157634264Y-93933024D01*
X157634331Y-93933363D01*
X157624710Y-94622416D01*
X157624633Y-94622754D01*
X157624633Y-94622762D01*
X157491057Y-95210701D01*
X157245685Y-95761816D01*
X156897937Y-96254778D01*
X156461062Y-96670809D01*
X155951700Y-96994061D01*
X155389254Y-97212219D01*
X154795147Y-97316976D01*
X154192003Y-97304342D01*
X153602800Y-97174797D01*
X153049982Y-96933277D01*
X152554607Y-96588982D01*
X152135537Y-96155023D01*
X151808738Y-95647930D01*
X151586656Y-95087014D01*
X151477755Y-94493658D01*
X151486177Y-93890441D01*
X151611606Y-93300347D01*
X151849259Y-92745858D01*
X152190091Y-92248088D01*
X152621112Y-91826000D01*
X153125913Y-91495668D01*
X153685259Y-91269677D01*
X154277845Y-91156636D01*
X154881110Y-91160847D01*
X154881110Y-91160847D01*
G37*
M02*
