%TF.GenerationSoftware,KiCad,Pcbnew,4.0.7-e2-6376~58~ubuntu16.04.1*%
%TF.CreationDate,2018-05-12T15:05:11-07:00*%
%TF.ProjectId,7x11-RasPi-Zero-Breakout,377831312D52617350692D5A65726F2D,1.0*%
%TF.FileFunction,Copper,L1,Top,Signal*%
%FSLAX46Y46*%
G04 Gerber Fmt 4.6, Leading zero omitted, Abs format (unit mm)*
G04 Created by KiCad (PCBNEW 4.0.7-e2-6376~58~ubuntu16.04.1) date Sat May 12 15:05:11 2018*
%MOMM*%
%LPD*%
G01*
G04 APERTURE LIST*
%ADD10C,0.350000*%
%ADD11O,15.240000X7.620000*%
%ADD12C,6.000000*%
%ADD13R,1.727200X1.727200*%
%ADD14O,1.727200X1.727200*%
%ADD15C,0.685800*%
%ADD16C,0.254000*%
%ADD17C,0.508000*%
%ADD18C,0.330200*%
%ADD19C,0.350000*%
G04 APERTURE END LIST*
D10*
D11*
X33274000Y-51943000D03*
D12*
X57304000Y-81046000D03*
X57303000Y-73046000D03*
X57303000Y-57046000D03*
X57303000Y-89046000D03*
X57303000Y-49046000D03*
X57303000Y-65046000D03*
X57304000Y-97046000D03*
X57304000Y-105046000D03*
X57303000Y-41046000D03*
X49304000Y-41046000D03*
X25304000Y-41046000D03*
X17304000Y-41046000D03*
X25304000Y-121046000D03*
X17304000Y-121046000D03*
X57303000Y-121046000D03*
X41304000Y-121046000D03*
X9304000Y-121046000D03*
X9304000Y-105046000D03*
X9304000Y-97046000D03*
X9304000Y-89046000D03*
X9304000Y-81046000D03*
X9304000Y-73046000D03*
X9304000Y-65046000D03*
X9304000Y-57046000D03*
X9304000Y-49046000D03*
X9304000Y-41046000D03*
X57304000Y-113046000D03*
X9304000Y-113046000D03*
X33304000Y-41046000D03*
X33304000Y-121046000D03*
X41304000Y-41046000D03*
X49304000Y-121046000D03*
D13*
X43434000Y-56896000D03*
D14*
X45974000Y-56896000D03*
X43434000Y-59436000D03*
X45974000Y-59436000D03*
X43434000Y-61976000D03*
X45974000Y-61976000D03*
X43434000Y-64516000D03*
X45974000Y-64516000D03*
X43434000Y-67056000D03*
X45974000Y-67056000D03*
X43434000Y-69596000D03*
X45974000Y-69596000D03*
X43434000Y-72136000D03*
X45974000Y-72136000D03*
X43434000Y-74676000D03*
X45974000Y-74676000D03*
X43434000Y-77216000D03*
X45974000Y-77216000D03*
X43434000Y-79756000D03*
X45974000Y-79756000D03*
X43434000Y-82296000D03*
X45974000Y-82296000D03*
X43434000Y-84836000D03*
X45974000Y-84836000D03*
X43434000Y-87376000D03*
X45974000Y-87376000D03*
X43434000Y-89916000D03*
X45974000Y-89916000D03*
X43434000Y-92456000D03*
X45974000Y-92456000D03*
X43434000Y-94996000D03*
X45974000Y-94996000D03*
X43434000Y-97536000D03*
X45974000Y-97536000D03*
X43434000Y-100076000D03*
X45974000Y-100076000D03*
X43434000Y-102616000D03*
X45974000Y-102616000D03*
X43434000Y-105156000D03*
X45974000Y-105156000D03*
D15*
X37592000Y-56896000D03*
X33304000Y-46228000D03*
D16*
X57304000Y-81046000D02*
X53474000Y-77216000D01*
X53474000Y-77216000D02*
X45974000Y-77216000D01*
X45974000Y-74676000D02*
X55673000Y-74676000D01*
X55673000Y-74676000D02*
X57303000Y-73046000D01*
X45974000Y-67056000D02*
X47293000Y-67056000D01*
X47293000Y-67056000D02*
X57303000Y-57046000D01*
X45974000Y-82296000D02*
X50553000Y-82296000D01*
X50553000Y-82296000D02*
X57303000Y-89046000D01*
X52070000Y-60198000D02*
X52070000Y-54279000D01*
X52070000Y-54279000D02*
X57303000Y-49046000D01*
X47752000Y-64516000D02*
X52070000Y-60198000D01*
X45974000Y-64516000D02*
X47752000Y-64516000D01*
X45974000Y-69596000D02*
X52753000Y-69596000D01*
X52753000Y-69596000D02*
X57303000Y-65046000D01*
X45974000Y-94996000D02*
X55254000Y-94996000D01*
X55254000Y-94996000D02*
X57304000Y-97046000D01*
X43434000Y-97536000D02*
X44678601Y-98780601D01*
X44678601Y-98780601D02*
X51038601Y-98780601D01*
X51038601Y-98780601D02*
X54304001Y-102046001D01*
X54304001Y-102046001D02*
X57304000Y-105046000D01*
X45974000Y-84836000D02*
X44729399Y-86080601D01*
X44729399Y-86080601D02*
X33553399Y-86080601D01*
X33553399Y-86080601D02*
X14588000Y-105046000D01*
X14588000Y-105046000D02*
X9304000Y-105046000D01*
X23555999Y-94046001D02*
X32766000Y-84836000D01*
X32766000Y-84836000D02*
X43434000Y-84836000D01*
X9304000Y-97046000D02*
X12303999Y-94046001D01*
X12303999Y-94046001D02*
X23555999Y-94046001D01*
X43434000Y-82296000D02*
X40132000Y-82296000D01*
X40132000Y-82296000D02*
X39116000Y-82296000D01*
X26524000Y-89046000D02*
X33274000Y-82296000D01*
X33274000Y-82296000D02*
X40132000Y-82296000D01*
X9304000Y-89046000D02*
X26524000Y-89046000D01*
X43434000Y-79756000D02*
X38608000Y-79756000D01*
X38608000Y-79756000D02*
X38100000Y-79756000D01*
X31730000Y-81046000D02*
X33020000Y-79756000D01*
X33020000Y-79756000D02*
X38608000Y-79756000D01*
X9304000Y-81046000D02*
X31730000Y-81046000D01*
X24130000Y-72136000D02*
X23220000Y-73046000D01*
X23220000Y-73046000D02*
X9304000Y-73046000D01*
X33782000Y-72136000D02*
X31750000Y-72136000D01*
X43434000Y-72136000D02*
X33782000Y-72136000D01*
X33782000Y-72136000D02*
X24130000Y-72136000D01*
X10214000Y-72136000D02*
X9304000Y-73046000D01*
X43434000Y-64516000D02*
X9834000Y-64516000D01*
X9834000Y-64516000D02*
X9304000Y-65046000D01*
X19304000Y-61976000D02*
X14374000Y-57046000D01*
X14374000Y-57046000D02*
X9304000Y-57046000D01*
X43434000Y-61976000D02*
X19304000Y-61976000D01*
X43434000Y-59436000D02*
X19694000Y-59436000D01*
X19694000Y-59436000D02*
X9304000Y-49046000D01*
X45974000Y-100076000D02*
X57304000Y-111406000D01*
X57304000Y-111406000D02*
X57304000Y-113046000D01*
X45974000Y-87376000D02*
X44729399Y-88620601D01*
X44729399Y-88620601D02*
X33729399Y-88620601D01*
X33729399Y-88620601D02*
X12303999Y-110046001D01*
X12303999Y-110046001D02*
X9304000Y-113046000D01*
D17*
X37592000Y-56896000D02*
X20574000Y-56896000D01*
X43434000Y-56896000D02*
X37592000Y-56896000D01*
X19812000Y-56896000D02*
X17304000Y-54388000D01*
X17304000Y-54388000D02*
X17304000Y-41046000D01*
X20574000Y-56896000D02*
X20320000Y-56896000D01*
X20574000Y-56896000D02*
X19812000Y-56896000D01*
X9304000Y-41046000D02*
X13546640Y-41046000D01*
X13546640Y-41046000D02*
X17304000Y-41046000D01*
X49304000Y-121046000D02*
X57303000Y-121046000D01*
X48768000Y-54102000D02*
X48768000Y-50546000D01*
X45974000Y-56896000D02*
X48768000Y-54102000D01*
X48768000Y-50546000D02*
X44450000Y-46228000D01*
X44450000Y-46228000D02*
X33304000Y-46228000D01*
X33304000Y-41046000D02*
X25304000Y-41046000D01*
X33304000Y-121046000D02*
X37546640Y-121046000D01*
X37546640Y-121046000D02*
X41304000Y-121046000D01*
X45974000Y-56896000D02*
X45974000Y-59436000D01*
X49304000Y-41046000D02*
X57303000Y-41046000D01*
X41304000Y-41046000D02*
X45546640Y-41046000D01*
X45546640Y-41046000D02*
X49304000Y-41046000D01*
X25304000Y-121046000D02*
X41194000Y-105156000D01*
X41194000Y-105156000D02*
X43434000Y-105156000D01*
X17304000Y-121046000D02*
X21546640Y-121046000D01*
X21546640Y-121046000D02*
X25304000Y-121046000D01*
X9304000Y-121046000D02*
X13546640Y-121046000D01*
X13546640Y-121046000D02*
X17304000Y-121046000D01*
D18*
X37592000Y-56896000D03*
X33304000Y-46228000D03*
D19*
X57304000Y-81046000D03*
X57303000Y-73046000D03*
X57303000Y-57046000D03*
X57303000Y-89046000D03*
X57303000Y-49046000D03*
X57303000Y-65046000D03*
X57304000Y-97046000D03*
X57304000Y-105046000D03*
X57303000Y-41046000D03*
X49304000Y-41046000D03*
X25304000Y-41046000D03*
X17304000Y-41046000D03*
X25304000Y-121046000D03*
X17304000Y-121046000D03*
X57303000Y-121046000D03*
X41304000Y-121046000D03*
X9304000Y-121046000D03*
X9304000Y-105046000D03*
X9304000Y-97046000D03*
X9304000Y-89046000D03*
X9304000Y-81046000D03*
X9304000Y-73046000D03*
X9304000Y-65046000D03*
X9304000Y-57046000D03*
X9304000Y-49046000D03*
X9304000Y-41046000D03*
X57304000Y-113046000D03*
X9304000Y-113046000D03*
X33304000Y-41046000D03*
X33304000Y-121046000D03*
X41304000Y-41046000D03*
X49304000Y-121046000D03*
X21704000Y-52046000D03*
X44704000Y-52046000D03*
X44704000Y-110046000D03*
X21704000Y-110046000D03*
X43434000Y-56896000D03*
X45974000Y-56896000D03*
X43434000Y-59436000D03*
X45974000Y-59436000D03*
X43434000Y-61976000D03*
X45974000Y-61976000D03*
X43434000Y-64516000D03*
X45974000Y-64516000D03*
X43434000Y-67056000D03*
X45974000Y-67056000D03*
X43434000Y-69596000D03*
X45974000Y-69596000D03*
X43434000Y-72136000D03*
X45974000Y-72136000D03*
X43434000Y-74676000D03*
X45974000Y-74676000D03*
X43434000Y-77216000D03*
X45974000Y-77216000D03*
X43434000Y-79756000D03*
X45974000Y-79756000D03*
X43434000Y-82296000D03*
X45974000Y-82296000D03*
X43434000Y-84836000D03*
X45974000Y-84836000D03*
X43434000Y-87376000D03*
X45974000Y-87376000D03*
X43434000Y-89916000D03*
X45974000Y-89916000D03*
X43434000Y-92456000D03*
X45974000Y-92456000D03*
X43434000Y-94996000D03*
X45974000Y-94996000D03*
X43434000Y-97536000D03*
X45974000Y-97536000D03*
X43434000Y-100076000D03*
X45974000Y-100076000D03*
X43434000Y-102616000D03*
X45974000Y-102616000D03*
X43434000Y-105156000D03*
X45974000Y-105156000D03*
M02*
