G04 This is an RS-274x file exported by *
G04 gerbv version 2.6.0 *
G04 More information is available about gerbv at *
G04 http://gerbv.gpleda.org/ *
G04 --End of header info--*
%MOIN*%
%FSLAX34Y34*%
%IPPOS*%
G04 --Define apertures--*
%ADD10C,0.0138*%
%ADD11C,0.0016*%
%ADD12C,0.0059*%
%ADD13C,0.0020*%
G04 --Start main section--*
G54D11*
G01X0014635Y-018929D02*
G01X0011565Y-018929D01*
G01X0014635Y-022000D02*
G01X0011565Y-022000D01*
G01X0016171Y-020465D02*
G75*
G03X0014635Y-018929I-001535J0000000D01*
G01X0014635Y-022000D02*
G75*
G03X0016171Y-020465I0000000J0001535D01*
G01X0010029Y-020465D02*
G75*
G03X0011565Y-022000I0001535J0000000D01*
G01X0011565Y-018929D02*
G75*
G03X0010029Y-020465I0000000J-001535D01*
G01X0022561Y-014624D02*
G01X0003663Y-014624D01*
G01X0006813Y-049191D02*
G01X0022561Y-049191D01*
G01X0024096Y-047656D02*
G01X0024096Y-016160D01*
G01X0024096Y-016157D02*
G75*
G03X0022561Y-014624I-001535J-000003D01*
G01X0022561Y-049191D02*
G75*
G03X0024096Y-047656I0000000J0001535D01*
G01X0002128Y-016160D02*
G01X0002128Y-047656D01*
G01X0002128Y-047659D02*
G75*
G03X0003663Y-049191I0001535J0000003D01*
G01X0003663Y-014624D02*
G75*
G03X0002128Y-016160I0000000J-001535D01*
G54D12*
G01X0019175Y-020491D02*
G75*
G03X0017797Y-019113I-001378J0000000D01*
G01X0009749Y-020491D02*
G75*
G03X0009749Y-020491I-001204J0000000D01*
G01X0019175Y-043325D02*
G01X0019175Y-020491D01*
G01X0007167Y-020491D02*
G01X0007167Y-043325D01*
G01X0017797Y-019113D02*
G01X0008545Y-019113D01*
G01X0008545Y-019113D02*
G75*
G03X0007167Y-020491I0000000J-001378D01*
G01X0018804Y-043325D02*
G75*
G03X0018804Y-043325I-001204J0000000D01*
G01X0007167Y-043325D02*
G75*
G03X0008545Y-044703I0001378J0000000D01*
G01X0008545Y-044703D02*
G01X0017797Y-044703D01*
G01X0017797Y-044703D02*
G75*
G03X0019175Y-043325I0000000J0001378D01*
G01X0018804Y-020491D02*
G75*
G03X0018804Y-020491I-001204J0000000D01*
G01X0009749Y-043325D02*
G75*
G03X0009749Y-043325I-001204J0000000D01*
G54D13*
G01X0016419Y-021869D02*
G01X0016419Y-041947D01*
G01X0018781Y-021869D02*
G01X0018781Y-041947D01*
G01X0016419Y-021869D02*
G01X0018781Y-021869D01*
G01X0016419Y-041947D02*
G01X0018781Y-041947D01*
G54D12*
G01X0012613Y-020789D02*
G01X0012425Y-020789D01*
G01X0012425Y-020789D02*
G01X0012425Y-020395D01*
G01X0012819Y-020395D02*
G01X0012894Y-020395D01*
G01X0012894Y-020395D02*
G01X0012931Y-020414D01*
G01X0012931Y-020414D02*
G01X0012969Y-020452D01*
G01X0012969Y-020452D02*
G01X0012988Y-020527D01*
G01X0012988Y-020527D02*
G01X0012988Y-020658D01*
G01X0012988Y-020658D02*
G01X0012969Y-020733D01*
G01X0012969Y-020733D02*
G01X0012931Y-020770D01*
G01X0012931Y-020770D02*
G01X0012894Y-020789D01*
G01X0012894Y-020789D02*
G01X0012819Y-020789D01*
G01X0012819Y-020789D02*
G01X0012781Y-020770D01*
G01X0012781Y-020770D02*
G01X0012744Y-020733D01*
G01X0012744Y-020733D02*
G01X0012725Y-020658D01*
G01X0012725Y-020658D02*
G01X0012725Y-020527D01*
G01X0012725Y-020527D02*
G01X0012744Y-020452D01*
G01X0012744Y-020452D02*
G01X0012781Y-020414D01*
G01X0012781Y-020414D02*
G01X0012819Y-020395D01*
G01X0013362Y-020414D02*
G01X0013325Y-020395D01*
G01X0013325Y-020395D02*
G01X0013269Y-020395D01*
G01X0013269Y-020395D02*
G01X0013212Y-020414D01*
G01X0013212Y-020414D02*
G01X0013175Y-020452D01*
G01X0013175Y-020452D02*
G01X0013156Y-020489D01*
G01X0013156Y-020489D02*
G01X0013137Y-020564D01*
G01X0013137Y-020564D02*
G01X0013137Y-020620D01*
G01X0013137Y-020620D02*
G01X0013156Y-020695D01*
G01X0013156Y-020695D02*
G01X0013175Y-020733D01*
G01X0013175Y-020733D02*
G01X0013212Y-020770D01*
G01X0013212Y-020770D02*
G01X0013269Y-020789D01*
G01X0013269Y-020789D02*
G01X0013306Y-020789D01*
G01X0013306Y-020789D02*
G01X0013362Y-020770D01*
G01X0013362Y-020770D02*
G01X0013381Y-020752D01*
G01X0013381Y-020752D02*
G01X0013381Y-020620D01*
G01X0013381Y-020620D02*
G01X0013306Y-020620D01*
G01X0013625Y-020395D02*
G01X0013700Y-020395D01*
G01X0013700Y-020395D02*
G01X0013737Y-020414D01*
G01X0013737Y-020414D02*
G01X0013775Y-020452D01*
G01X0013775Y-020452D02*
G01X0013794Y-020527D01*
G01X0013794Y-020527D02*
G01X0013794Y-020658D01*
G01X0013794Y-020658D02*
G01X0013775Y-020733D01*
G01X0013775Y-020733D02*
G01X0013737Y-020770D01*
G01X0013737Y-020770D02*
G01X0013700Y-020789D01*
G01X0013700Y-020789D02*
G01X0013625Y-020789D01*
G01X0013625Y-020789D02*
G01X0013587Y-020770D01*
G01X0013587Y-020770D02*
G01X0013550Y-020733D01*
G01X0013550Y-020733D02*
G01X0013531Y-020658D01*
G01X0013531Y-020658D02*
G01X0013531Y-020527D01*
G01X0013531Y-020527D02*
G01X0013550Y-020452D01*
G01X0013550Y-020452D02*
G01X0013587Y-020414D01*
G01X0013587Y-020414D02*
G01X0013625Y-020395D01*
G01X0016924Y-022648D02*
G01X0016699Y-022648D01*
G01X0016811Y-022648D02*
G01X0016811Y-022254D01*
G01X0016811Y-022254D02*
G01X0016774Y-022310D01*
G01X0016774Y-022310D02*
G01X0016736Y-022348D01*
G01X0016736Y-022348D02*
G01X0016699Y-022367D01*
G01X0016493Y-041152D02*
G01X0016736Y-041152D01*
G01X0016736Y-041152D02*
G01X0016605Y-041302D01*
G01X0016605Y-041302D02*
G01X0016662Y-041302D01*
G01X0016662Y-041302D02*
G01X0016699Y-041321D01*
G01X0016699Y-041321D02*
G01X0016718Y-041339D01*
G01X0016718Y-041339D02*
G01X0016736Y-041377D01*
G01X0016736Y-041377D02*
G01X0016736Y-041471D01*
G01X0016736Y-041471D02*
G01X0016718Y-041508D01*
G01X0016718Y-041508D02*
G01X0016699Y-041527D01*
G01X0016699Y-041527D02*
G01X0016662Y-041546D01*
G01X0016662Y-041546D02*
G01X0016549Y-041546D01*
G01X0016549Y-041546D02*
G01X0016512Y-041527D01*
G01X0016512Y-041527D02*
G01X0016493Y-041508D01*
G01X0016924Y-041546D02*
G01X0016999Y-041546D01*
G01X0016999Y-041546D02*
G01X0017036Y-041527D01*
G01X0017036Y-041527D02*
G01X0017055Y-041508D01*
G01X0017055Y-041508D02*
G01X0017093Y-041452D01*
G01X0017093Y-041452D02*
G01X0017111Y-041377D01*
G01X0017111Y-041377D02*
G01X0017111Y-041227D01*
G01X0017111Y-041227D02*
G01X0017093Y-041189D01*
G01X0017093Y-041189D02*
G01X0017074Y-041171D01*
G01X0017074Y-041171D02*
G01X0017036Y-041152D01*
G01X0017036Y-041152D02*
G01X0016961Y-041152D01*
G01X0016961Y-041152D02*
G01X0016924Y-041171D01*
G01X0016924Y-041171D02*
G01X0016905Y-041189D01*
G01X0016905Y-041189D02*
G01X0016886Y-041227D01*
G01X0016886Y-041227D02*
G01X0016886Y-041321D01*
G01X0016886Y-041321D02*
G01X0016905Y-041358D01*
G01X0016905Y-041358D02*
G01X0016924Y-041377D01*
G01X0016924Y-041377D02*
G01X0016961Y-041396D01*
G01X0016961Y-041396D02*
G01X0017036Y-041396D01*
G01X0017036Y-041396D02*
G01X0017074Y-041377D01*
G01X0017074Y-041377D02*
G01X0017093Y-041358D01*
G01X0017093Y-041358D02*
G01X0017111Y-041321D01*
G01X0018274Y-041283D02*
G01X0018274Y-041546D01*
G01X0018180Y-041133D02*
G01X0018086Y-041414D01*
G01X0018086Y-041414D02*
G01X0018330Y-041414D01*
G01X0018555Y-041152D02*
G01X0018593Y-041152D01*
G01X0018593Y-041152D02*
G01X0018630Y-041171D01*
G01X0018630Y-041171D02*
G01X0018649Y-041189D01*
G01X0018649Y-041189D02*
G01X0018667Y-041227D01*
G01X0018667Y-041227D02*
G01X0018686Y-041302D01*
G01X0018686Y-041302D02*
G01X0018686Y-041396D01*
G01X0018686Y-041396D02*
G01X0018667Y-041471D01*
G01X0018667Y-041471D02*
G01X0018649Y-041508D01*
G01X0018649Y-041508D02*
G01X0018630Y-041527D01*
G01X0018630Y-041527D02*
G01X0018593Y-041546D01*
G01X0018593Y-041546D02*
G01X0018555Y-041546D01*
G01X0018555Y-041546D02*
G01X0018518Y-041527D01*
G01X0018518Y-041527D02*
G01X0018499Y-041508D01*
G01X0018499Y-041508D02*
G01X0018480Y-041471D01*
G01X0018480Y-041471D02*
G01X0018461Y-041396D01*
G01X0018461Y-041396D02*
G01X0018461Y-041302D01*
G01X0018461Y-041302D02*
G01X0018480Y-041227D01*
G01X0018480Y-041227D02*
G01X0018499Y-041189D01*
G01X0018499Y-041189D02*
G01X0018518Y-041171D01*
G01X0018518Y-041171D02*
G01X0018555Y-041152D01*
G01X0017960Y-022292D02*
G01X0017979Y-022273D01*
G01X0017979Y-022273D02*
G01X0018016Y-022254D01*
G01X0018016Y-022254D02*
G01X0018110Y-022254D01*
G01X0018110Y-022254D02*
G01X0018147Y-022273D01*
G01X0018147Y-022273D02*
G01X0018166Y-022292D01*
G01X0018166Y-022292D02*
G01X0018185Y-022329D01*
G01X0018185Y-022329D02*
G01X0018185Y-022367D01*
G01X0018185Y-022367D02*
G01X0018166Y-022423D01*
G01X0018166Y-022423D02*
G01X0017941Y-022648D01*
G01X0017941Y-022648D02*
G01X0018185Y-022648D01*
G01X0000000Y0000000D02*
G54D11*
G01X0022561Y-014624D02*
G01X0003663Y-014624D01*
G01X0003624Y-049191D02*
G01X0022561Y-049191D01*
G01X0024096Y-047695D02*
G01X0024096Y-016160D01*
G01X0024096Y-016157D02*
G75*
G03X0022561Y-014624I-001535J-000003D01*
G01X0022561Y-049191D02*
G75*
G03X0024096Y-047656I0000000J0001535D01*
G01X0002128Y-016160D02*
G01X0002128Y-047656D01*
G01X0002128Y-047659D02*
G75*
G03X0003663Y-049191I0001535J0000003D01*
G01X0003663Y-014624D02*
G75*
G03X0002128Y-016160I0000000J-001535D01*
M02*
