%TF.GenerationSoftware,KiCad,Pcbnew,4.0.4+e1-6308~48~ubuntu14.04.1-stable*%
%TF.CreationDate,2016-11-21T12:12:41-08:00*%
%TF.ProjectId,Sample-Set,53616D706C652D5365742E6B69636164,rev?*%
%TF.FileFunction,Profile,NP*%
%FSLAX46Y46*%
G04 Gerber Fmt 4.6, Leading zero omitted, Abs format (unit mm)*
G04 Created by KiCad (PCBNEW 4.0.4+e1-6308~48~ubuntu14.04.1-stable) date Mon Nov 21 12:12:41 2016*
%MOMM*%
%LPD*%
G01*
G04 APERTURE LIST*
%ADD10C,0.350000*%
%ADD11C,0.152400*%
G04 APERTURE END LIST*
D10*
D11*
X84826000Y-168940000D02*
X68826000Y-168940000D01*
X68826000Y-161340000D02*
X84826000Y-161340000D01*
X68826000Y-161340000D02*
G75*
G03X68826000Y-168940000I0J-3800000D01*
G01*
X84826000Y-168940000D02*
G75*
G03X84826000Y-161340000I0J3800000D01*
G01*
X80370685Y-146223965D02*
G75*
G03X76572000Y-142324000I-3798685J99965D01*
G01*
X64772000Y-146124000D02*
X64772000Y-154324000D01*
X76572000Y-157924000D02*
G75*
G03X80372000Y-154124000I0J3800000D01*
G01*
X80372000Y-154124000D02*
X80372000Y-146224000D01*
X76572000Y-142324000D02*
X68672000Y-142324000D01*
X68771723Y-142329252D02*
G75*
G03X64772000Y-146124000I-199723J-3794748D01*
G01*
X68572000Y-157924000D02*
X76672000Y-157924000D01*
X64772000Y-154124000D02*
G75*
G03X68572000Y-157924000I3800000J0D01*
G01*
X80370685Y-128215965D02*
G75*
G03X76572000Y-124316000I-3798685J99965D01*
G01*
X64772000Y-128116000D02*
X64772000Y-136316000D01*
X76572000Y-139916000D02*
G75*
G03X80372000Y-136116000I0J3800000D01*
G01*
X80372000Y-136116000D02*
X80372000Y-128216000D01*
X76572000Y-124316000D02*
X68672000Y-124316000D01*
X68771723Y-124321252D02*
G75*
G03X64772000Y-128116000I-199723J-3794748D01*
G01*
X68572000Y-139916000D02*
X76672000Y-139916000D01*
X64772000Y-136116000D02*
G75*
G03X68572000Y-139916000I3800000J0D01*
G01*
X98378685Y-128215965D02*
G75*
G03X94580000Y-124316000I-3798685J99965D01*
G01*
X82780000Y-128116000D02*
X82780000Y-136316000D01*
X94580000Y-139916000D02*
G75*
G03X98380000Y-136116000I0J3800000D01*
G01*
X98380000Y-136116000D02*
X98380000Y-128216000D01*
X94580000Y-124316000D02*
X86680000Y-124316000D01*
X86779723Y-124321252D02*
G75*
G03X82780000Y-128116000I-199723J-3794748D01*
G01*
X86580000Y-139916000D02*
X94680000Y-139916000D01*
X82780000Y-136116000D02*
G75*
G03X86580000Y-139916000I3800000J0D01*
G01*
X98124685Y-146377965D02*
G75*
G03X94326000Y-142478000I-3798685J99965D01*
G01*
X82526000Y-146278000D02*
X82526000Y-154478000D01*
X94326000Y-158078000D02*
G75*
G03X98126000Y-154278000I0J3800000D01*
G01*
X98126000Y-154278000D02*
X98126000Y-146378000D01*
X94326000Y-142478000D02*
X86426000Y-142478000D01*
X86525723Y-142483252D02*
G75*
G03X82526000Y-146278000I-199723J-3794748D01*
G01*
X86326000Y-158078000D02*
X94426000Y-158078000D01*
X82526000Y-154278000D02*
G75*
G03X86326000Y-158078000I3800000J0D01*
G01*
X116640685Y-164593965D02*
G75*
G03X112842000Y-160694000I-3798685J99965D01*
G01*
X101042000Y-164494000D02*
X101042000Y-172694000D01*
X112842000Y-176294000D02*
G75*
G03X116642000Y-172494000I0J3800000D01*
G01*
X116642000Y-172494000D02*
X116642000Y-164594000D01*
X112842000Y-160694000D02*
X104942000Y-160694000D01*
X105041723Y-160699252D02*
G75*
G03X101042000Y-164494000I-199723J-3794748D01*
G01*
X104842000Y-176294000D02*
X112942000Y-176294000D01*
X101042000Y-172494000D02*
G75*
G03X104842000Y-176294000I3800000J0D01*
G01*
X116648685Y-146223965D02*
G75*
G03X112850000Y-142324000I-3798685J99965D01*
G01*
X101050000Y-146124000D02*
X101050000Y-154324000D01*
X112850000Y-157924000D02*
G75*
G03X116650000Y-154124000I0J3800000D01*
G01*
X116650000Y-154124000D02*
X116650000Y-146224000D01*
X112850000Y-142324000D02*
X104950000Y-142324000D01*
X105049723Y-142329252D02*
G75*
G03X101050000Y-146124000I-199723J-3794748D01*
G01*
X104850000Y-157924000D02*
X112950000Y-157924000D01*
X101050000Y-154124000D02*
G75*
G03X104850000Y-157924000I3800000J0D01*
G01*
X105041723Y-124067252D02*
G75*
G03X101042000Y-127862000I-199723J-3794748D01*
G01*
X101042000Y-127862000D02*
X101042000Y-136062000D01*
X112842000Y-124062000D02*
X104942000Y-124062000D01*
X116640685Y-127961965D02*
G75*
G03X112842000Y-124062000I-3798685J99965D01*
G01*
X116642000Y-135862000D02*
X116642000Y-127962000D01*
X112842000Y-139662000D02*
G75*
G03X116642000Y-135862000I0J3800000D01*
G01*
X104842000Y-139662000D02*
X112942000Y-139662000D01*
X101042000Y-135862000D02*
G75*
G03X104842000Y-139662000I3800000J0D01*
G01*
X116146000Y-87162000D02*
X100546000Y-87162000D01*
X96546000Y-67562000D02*
X96546000Y-83462000D01*
X96546000Y-83362000D02*
G75*
G03X100541009Y-87162250I3995009J199750D01*
G01*
X100546000Y-63562000D02*
G75*
G03X96546000Y-67562000I0J-4000000D01*
G01*
X116146000Y-63562000D02*
X100346000Y-63562000D01*
X116146000Y-87162000D02*
G75*
G03X120146000Y-83162000I0J4000000D01*
G01*
X120146000Y-83162000D02*
X120146000Y-67262000D01*
X120146000Y-67362000D02*
G75*
G03X116150991Y-63561750I-3995009J-199750D01*
G01*
X90038000Y-87216000D02*
X66138000Y-87216000D01*
X66138000Y-63616000D02*
X90138000Y-63616000D01*
X93938000Y-83216000D02*
X93938000Y-67316000D01*
X93938000Y-67416000D02*
G75*
G03X89942991Y-63615750I-3995009J-199750D01*
G01*
X89938000Y-87216000D02*
G75*
G03X93938000Y-83216000I0J4000000D01*
G01*
X62238000Y-67616000D02*
X62238000Y-83516000D01*
X62238000Y-83416000D02*
G75*
G03X66233009Y-87216250I3995009J199750D01*
G01*
X66238000Y-63616000D02*
G75*
G03X62238000Y-67616000I0J-4000000D01*
G01*
X118746000Y-93470000D02*
X118746000Y-117570000D01*
X118746000Y-93448120D02*
G75*
G03X114752159Y-89670000I-3993841J-221880D01*
G01*
X66546000Y-89770000D02*
X115082000Y-89682000D01*
X66546000Y-89770000D02*
G75*
G03X62946000Y-93370000I0J-3600000D01*
G01*
X62946000Y-117670000D02*
X62946000Y-93270000D01*
X62946000Y-117670000D02*
G75*
G03X66746000Y-121470000I3800000J0D01*
G01*
X114946000Y-121470000D02*
X66646000Y-121470000D01*
X114948596Y-121468650D02*
G75*
G03X118746000Y-117570000I-102596J3898650D01*
G01*
M02*
