M48
;DRILL file {KiCad (2015-08-15 BZR 6092)-product} date 2/28/2016 1:56:00 PM
;FORMAT={-:-/ absolute / inch / decimal}
FMAT,2
INCH,TZ
T1C0.013
T2C0.016
T3C0.031
T4C0.032
T5C0.039
T6C0.192
%
G90
G05
M72
T1
X5.7474Y-3.3071
X5.7874Y-3.3071
X5.8274Y-3.3071
X5.8661Y-3.3071
X5.9061Y-3.3071
X5.9449Y-3.3071
X6.023Y-3.3071
X6.063Y-3.3071
X6.103Y-3.3071
X6.1411Y-3.3071
X6.1811Y-3.3071
X6.2211Y-3.3071
X6.2992Y-2.4403
X6.2992Y-2.4803
X6.2992Y-2.5203
X6.2992Y-2.5584
X6.2992Y-2.5984
X6.2992Y-2.6384
X6.2992Y-2.6765
X6.2992Y-2.7165
X6.2992Y-2.7946
X6.2992Y-2.8346
X6.2992Y-2.8746
X6.2992Y-2.9128
X6.2992Y-2.9528
X6.2992Y-2.9928
X6.2992Y-3.0702
X6.2992Y-3.1102
X6.2992Y-3.149
X6.2992Y-3.189
X6.2992Y-3.229
X6.338Y-3.3071
X6.378Y-3.3071
X6.418Y-3.3071
X6.4561Y-3.3071
X6.4961Y-3.3071
X6.5361Y-3.3071
T2
X5.7087Y-3.622
X5.9941Y-3.3858
T3
X5.9193Y-2.9528
X6.0492Y-2.9528
T4
X6.3567Y-2.6846
X6.3567Y-2.9846
X6.5567Y-2.6846
X6.5567Y-2.9846
T5
X5.9843Y-2.5512
X5.9843Y-2.9528
T6
X5.8268Y-2.5197
X5.8268Y-2.8346
X5.8268Y-3.1496
X5.8268Y-3.4646
X5.8268Y-3.7795
X5.8268Y-4.0945
X6.1417Y-2.5197
X6.1417Y-2.8346
X6.1417Y-3.1496
X6.1417Y-3.4646
X6.1417Y-3.7795
X6.4567Y-2.5197
X6.4567Y-2.8346
X6.4567Y-3.1496
X6.4567Y-3.4646
X6.4567Y-3.7795
X6.4567Y-4.0945
T0
M30
