%TF.GenerationSoftware,KiCad,Pcbnew,4.0.5-e0-6337~49~ubuntu16.04.1*%
%TF.CreationDate,2017-01-17T12:09:01-08:00*%
%TF.ProjectId,2x2-LED-SMT-LIMITED,3278322D4C45442D534D542D4C494D49,1.0*%
%TF.FileFunction,Other,Fab,Top*%
%FSLAX46Y46*%
G04 Gerber Fmt 4.6, Leading zero omitted, Abs format (unit mm)*
G04 Created by KiCad (PCBNEW 4.0.5-e0-6337~49~ubuntu16.04.1) date Tue Jan 17 12:09:01 2017*
%MOMM*%
%LPD*%
G01*
G04 APERTURE LIST*
%ADD10C,0.350000*%
%ADD11C,0.040640*%
%ADD12C,0.150000*%
G04 APERTURE END LIST*
D10*
D11*
X130890000Y-78340000D02*
X130890000Y-79340000D01*
X132890000Y-78340000D02*
X130890000Y-78340000D01*
X132890000Y-84340000D02*
X132890000Y-78340000D01*
X130890000Y-84340000D02*
X132890000Y-84340000D01*
X130890000Y-79340000D02*
X130890000Y-84340000D01*
X130890000Y-82090000D02*
X124890000Y-82090000D01*
X130890000Y-80090000D02*
X130890000Y-82090000D01*
X124890000Y-80090000D02*
X130890000Y-80090000D01*
X124890000Y-82090000D02*
X124890000Y-80090000D01*
X135790000Y-73290000D02*
X127990000Y-73290000D01*
X135790000Y-88890000D02*
X127990000Y-88890000D01*
X139690000Y-84990000D02*
X139690000Y-77190000D01*
X124090000Y-84990000D02*
X124090000Y-77190000D01*
X139690000Y-77190000D02*
G75*
G03X135790000Y-73290000I-3900000J0D01*
G01*
X135790000Y-88890000D02*
G75*
G03X139690000Y-84990000I0J3900000D01*
G01*
X124090000Y-84990000D02*
G75*
G03X127990000Y-88890000I3900000J0D01*
G01*
X127990000Y-73290000D02*
G75*
G03X124090000Y-77190000I0J-3900000D01*
G01*
D12*
X131509048Y-83411429D02*
X132270953Y-83411429D01*
X131509048Y-79411429D02*
X132270953Y-79411429D01*
X131890001Y-79792381D02*
X131890001Y-79030476D01*
X132342381Y-81982857D02*
X132342381Y-82459048D01*
X131342381Y-82459048D01*
X131818571Y-81649524D02*
X131818571Y-81316190D01*
X132342381Y-81173333D02*
X132342381Y-81649524D01*
X131342381Y-81649524D01*
X131342381Y-81173333D01*
X132342381Y-80744762D02*
X131342381Y-80744762D01*
X131342381Y-80506667D01*
X131390000Y-80363809D01*
X131485238Y-80268571D01*
X131580476Y-80220952D01*
X131770952Y-80173333D01*
X131913810Y-80173333D01*
X132104286Y-80220952D01*
X132199524Y-80268571D01*
X132294762Y-80363809D01*
X132342381Y-80506667D01*
X132342381Y-80744762D01*
X127270953Y-81542381D02*
X126937619Y-81066190D01*
X126699524Y-81542381D02*
X126699524Y-80542381D01*
X127080477Y-80542381D01*
X127175715Y-80590000D01*
X127223334Y-80637619D01*
X127270953Y-80732857D01*
X127270953Y-80875714D01*
X127223334Y-80970952D01*
X127175715Y-81018571D01*
X127080477Y-81066190D01*
X126699524Y-81066190D01*
X127699524Y-81018571D02*
X128032858Y-81018571D01*
X128175715Y-81542381D02*
X127699524Y-81542381D01*
X127699524Y-80542381D01*
X128175715Y-80542381D01*
X128556667Y-81494762D02*
X128699524Y-81542381D01*
X128937620Y-81542381D01*
X129032858Y-81494762D01*
X129080477Y-81447143D01*
X129128096Y-81351905D01*
X129128096Y-81256667D01*
X129080477Y-81161429D01*
X129032858Y-81113810D01*
X128937620Y-81066190D01*
X128747143Y-81018571D01*
X128651905Y-80970952D01*
X128604286Y-80923333D01*
X128556667Y-80828095D01*
X128556667Y-80732857D01*
X128604286Y-80637619D01*
X128651905Y-80590000D01*
X128747143Y-80542381D01*
X128985239Y-80542381D01*
X129128096Y-80590000D01*
M02*
