%TF.GenerationSoftware,KiCad,Pcbnew,4.0.5-e0-6337~49~ubuntu16.04.1*%
%TF.CreationDate,2017-07-06T19:20:35-07:00*%
%TF.ProjectId,2x2-LED-SMT-LIMITED,3278322D4C45442D534D542D4C494D49,v1.3*%
%TF.FileFunction,Soldermask,Bot*%
%FSLAX46Y46*%
G04 Gerber Fmt 4.6, Leading zero omitted, Abs format (unit mm)*
G04 Created by KiCad (PCBNEW 4.0.5-e0-6337~49~ubuntu16.04.1) date Thu Jul  6 19:20:35 2017*
%MOMM*%
%LPD*%
G01*
G04 APERTURE LIST*
%ADD10C,0.350000*%
%ADD11C,7.200000*%
G04 APERTURE END LIST*
D10*
D11*
X25045400Y-35204400D02*
X32945400Y-35204400D01*
X25045400Y-27204400D02*
X32945400Y-27204400D01*
D10*
G36*
X25368510Y-32130247D02*
X25959455Y-32251551D01*
X26515598Y-32485332D01*
X27015734Y-32822678D01*
X27440821Y-33250743D01*
X27774666Y-33753221D01*
X28004556Y-34310976D01*
X28121664Y-34902414D01*
X28121664Y-34902424D01*
X28121731Y-34902763D01*
X28112110Y-35591816D01*
X28112033Y-35592154D01*
X28112033Y-35592162D01*
X27978457Y-36180101D01*
X27733085Y-36731216D01*
X27385337Y-37224178D01*
X26948462Y-37640209D01*
X26439100Y-37963461D01*
X25876654Y-38181619D01*
X25282547Y-38286376D01*
X24679403Y-38273742D01*
X24090200Y-38144197D01*
X23537382Y-37902677D01*
X23042007Y-37558382D01*
X22622937Y-37124423D01*
X22296138Y-36617330D01*
X22074056Y-36056414D01*
X21965155Y-35463058D01*
X21973577Y-34859841D01*
X22099006Y-34269747D01*
X22336659Y-33715258D01*
X22677491Y-33217488D01*
X23108512Y-32795400D01*
X23613313Y-32465068D01*
X24172659Y-32239077D01*
X24765245Y-32126036D01*
X25368510Y-32130247D01*
X25368510Y-32130247D01*
G37*
G36*
X33368510Y-32130247D02*
X33959455Y-32251551D01*
X34515598Y-32485332D01*
X35015734Y-32822678D01*
X35440821Y-33250743D01*
X35774666Y-33753221D01*
X36004556Y-34310976D01*
X36121664Y-34902414D01*
X36121664Y-34902424D01*
X36121731Y-34902763D01*
X36112110Y-35591816D01*
X36112033Y-35592154D01*
X36112033Y-35592162D01*
X35978457Y-36180101D01*
X35733085Y-36731216D01*
X35385337Y-37224178D01*
X34948462Y-37640209D01*
X34439100Y-37963461D01*
X33876654Y-38181619D01*
X33282547Y-38286376D01*
X32679403Y-38273742D01*
X32090200Y-38144197D01*
X31537382Y-37902677D01*
X31042007Y-37558382D01*
X30622937Y-37124423D01*
X30296138Y-36617330D01*
X30074056Y-36056414D01*
X29965155Y-35463058D01*
X29973577Y-34859841D01*
X30099006Y-34269747D01*
X30336659Y-33715258D01*
X30677491Y-33217488D01*
X31108512Y-32795400D01*
X31613313Y-32465068D01*
X32172659Y-32239077D01*
X32765245Y-32126036D01*
X33368510Y-32130247D01*
X33368510Y-32130247D01*
G37*
G36*
X25368510Y-24130247D02*
X25959455Y-24251551D01*
X26515598Y-24485332D01*
X27015734Y-24822678D01*
X27440821Y-25250743D01*
X27774666Y-25753221D01*
X28004556Y-26310976D01*
X28121664Y-26902414D01*
X28121664Y-26902424D01*
X28121731Y-26902763D01*
X28112110Y-27591816D01*
X28112033Y-27592154D01*
X28112033Y-27592162D01*
X27978457Y-28180101D01*
X27733085Y-28731216D01*
X27385337Y-29224178D01*
X26948462Y-29640209D01*
X26439100Y-29963461D01*
X25876654Y-30181619D01*
X25282547Y-30286376D01*
X24679403Y-30273742D01*
X24090200Y-30144197D01*
X23537382Y-29902677D01*
X23042007Y-29558382D01*
X22622937Y-29124423D01*
X22296138Y-28617330D01*
X22074056Y-28056414D01*
X21965155Y-27463058D01*
X21973577Y-26859841D01*
X22099006Y-26269747D01*
X22336659Y-25715258D01*
X22677491Y-25217488D01*
X23108512Y-24795400D01*
X23613313Y-24465068D01*
X24172659Y-24239077D01*
X24765245Y-24126036D01*
X25368510Y-24130247D01*
X25368510Y-24130247D01*
G37*
G36*
X33368510Y-24130247D02*
X33959455Y-24251551D01*
X34515598Y-24485332D01*
X35015734Y-24822678D01*
X35440821Y-25250743D01*
X35774666Y-25753221D01*
X36004556Y-26310976D01*
X36121664Y-26902414D01*
X36121664Y-26902424D01*
X36121731Y-26902763D01*
X36112110Y-27591816D01*
X36112033Y-27592154D01*
X36112033Y-27592162D01*
X35978457Y-28180101D01*
X35733085Y-28731216D01*
X35385337Y-29224178D01*
X34948462Y-29640209D01*
X34439100Y-29963461D01*
X33876654Y-30181619D01*
X33282547Y-30286376D01*
X32679403Y-30273742D01*
X32090200Y-30144197D01*
X31537382Y-29902677D01*
X31042007Y-29558382D01*
X30622937Y-29124423D01*
X30296138Y-28617330D01*
X30074056Y-28056414D01*
X29965155Y-27463058D01*
X29973577Y-26859841D01*
X30099006Y-26269747D01*
X30336659Y-25715258D01*
X30677491Y-25217488D01*
X31108512Y-24795400D01*
X31613313Y-24465068D01*
X32172659Y-24239077D01*
X32765245Y-24126036D01*
X33368510Y-24130247D01*
X33368510Y-24130247D01*
G37*
M02*
