%TF.GenerationSoftware,KiCad,Pcbnew,4.0.5-e0-6337~49~ubuntu16.04.1*%
%TF.CreationDate,2017-05-29T06:53:18-07:00*%
%TF.ProjectId,2x2-LED-SMT-LIMITED,3278322D4C45442D534D542D4C494D49,v1.2*%
%TF.FileFunction,Legend,Top*%
%FSLAX46Y46*%
G04 Gerber Fmt 4.6, Leading zero omitted, Abs format (unit mm)*
G04 Created by KiCad (PCBNEW 4.0.5-e0-6337~49~ubuntu16.04.1) date Mon May 29 06:53:18 2017*
%MOMM*%
%LPD*%
G01*
G04 APERTURE LIST*
%ADD10C,0.350000*%
%ADD11C,0.152400*%
%ADD12C,8.000000*%
%ADD13C,0.150000*%
%ADD14C,0.600000*%
%ADD15R,1.652400X1.752400*%
%ADD16R,1.752400X1.652400*%
G04 APERTURE END LIST*
D10*
D11*
X28455257Y-25250019D02*
X27971448Y-25250019D01*
X27971448Y-24234019D01*
X28793924Y-24717829D02*
X29132590Y-24717829D01*
X29277733Y-25250019D02*
X28793924Y-25250019D01*
X28793924Y-24234019D01*
X29277733Y-24234019D01*
X29713162Y-25250019D02*
X29713162Y-24234019D01*
X29955067Y-24234019D01*
X30100209Y-24282400D01*
X30196971Y-24379162D01*
X30245352Y-24475924D01*
X30293733Y-24669448D01*
X30293733Y-24814590D01*
X30245352Y-25008114D01*
X30196971Y-25104876D01*
X30100209Y-25201638D01*
X29955067Y-25250019D01*
X29713162Y-25250019D01*
D12*
X25045400Y-35204400D02*
X33045400Y-35204400D01*
D13*
X23339971Y-35893829D02*
X22614257Y-35893829D01*
X22614257Y-34369829D01*
X23847971Y-35095543D02*
X24355971Y-35095543D01*
X24573685Y-35893829D02*
X23847971Y-35893829D01*
X23847971Y-34369829D01*
X24573685Y-34369829D01*
X25226828Y-35893829D02*
X25226828Y-34369829D01*
X25589685Y-34369829D01*
X25807400Y-34442400D01*
X25952542Y-34587543D01*
X26025114Y-34732686D01*
X26097685Y-35022971D01*
X26097685Y-35240686D01*
X26025114Y-35530971D01*
X25952542Y-35676114D01*
X25807400Y-35821257D01*
X25589685Y-35893829D01*
X25226828Y-35893829D01*
X27549114Y-35893829D02*
X26678257Y-35893829D01*
X27113685Y-35893829D02*
X27113685Y-34369829D01*
X26968542Y-34587543D01*
X26823400Y-34732686D01*
X26678257Y-34805257D01*
X28727448Y-26766829D02*
X29489353Y-26766829D01*
X29108401Y-27147781D02*
X29108401Y-26385876D01*
%LPC*%
D14*
X22245400Y-35204400D02*
G75*
G03X27845400Y-35204400I2800000J0D01*
G01*
X30245400Y-35204400D02*
G75*
G03X33045400Y-32404400I2800000J0D01*
G01*
X33045400Y-30004400D02*
G75*
G03X30245400Y-27204400I0J2800000D01*
G01*
X27845400Y-27204400D02*
G75*
G03X22245400Y-27204400I-2800000J0D01*
G01*
D15*
X23235400Y-31204400D03*
X26655400Y-31204400D03*
D16*
X29045400Y-33164400D03*
X29045400Y-29744400D03*
M02*
