%TF.GenerationSoftware,KiCad,Pcbnew,4.0.7-e2-6376~58~ubuntu16.04.1*%
%TF.CreationDate,2018-05-09T10:16:15-07:00*%
%TF.ProjectId,2x2-LED-GREEN-SMT-LIMITED,3278322D4C45442D475245454E2D534D,1.0*%
%TF.FileFunction,Legend,Top*%
%FSLAX46Y46*%
G04 Gerber Fmt 4.6, Leading zero omitted, Abs format (unit mm)*
G04 Created by KiCad (PCBNEW 4.0.7-e2-6376~58~ubuntu16.04.1) date Wed May  9 10:16:15 2018*
%MOMM*%
%LPD*%
G01*
G04 APERTURE LIST*
%ADD10C,0.350000*%
%ADD11C,0.152400*%
%ADD12C,8.000000*%
%ADD13C,0.150000*%
%ADD14C,0.600000*%
%ADD15R,1.652400X1.752400*%
%ADD16R,1.752400X1.652400*%
G04 APERTURE END LIST*
D10*
D11*
X14490095Y-44450000D02*
X14393333Y-44401619D01*
X14248190Y-44401619D01*
X14103048Y-44450000D01*
X14006286Y-44546762D01*
X13957905Y-44643524D01*
X13909524Y-44837048D01*
X13909524Y-44982190D01*
X13957905Y-45175714D01*
X14006286Y-45272476D01*
X14103048Y-45369238D01*
X14248190Y-45417619D01*
X14344952Y-45417619D01*
X14490095Y-45369238D01*
X14538476Y-45320857D01*
X14538476Y-44982190D01*
X14344952Y-44982190D01*
D12*
X10288000Y-52832000D02*
X18288000Y-52832000D01*
D13*
X8582571Y-53521429D02*
X7856857Y-53521429D01*
X7856857Y-51997429D01*
X9090571Y-52723143D02*
X9598571Y-52723143D01*
X9816285Y-53521429D02*
X9090571Y-53521429D01*
X9090571Y-51997429D01*
X9816285Y-51997429D01*
X10469428Y-53521429D02*
X10469428Y-51997429D01*
X10832285Y-51997429D01*
X11050000Y-52070000D01*
X11195142Y-52215143D01*
X11267714Y-52360286D01*
X11340285Y-52650571D01*
X11340285Y-52868286D01*
X11267714Y-53158571D01*
X11195142Y-53303714D01*
X11050000Y-53448857D01*
X10832285Y-53521429D01*
X10469428Y-53521429D01*
X12791714Y-53521429D02*
X11920857Y-53521429D01*
X12356285Y-53521429D02*
X12356285Y-51997429D01*
X12211142Y-52215143D01*
X12066000Y-52360286D01*
X11920857Y-52432857D01*
X13581143Y-42784381D02*
X13104952Y-42784381D01*
X13104952Y-41784381D01*
X13914476Y-42260571D02*
X14247810Y-42260571D01*
X14390667Y-42784381D02*
X13914476Y-42784381D01*
X13914476Y-41784381D01*
X14390667Y-41784381D01*
X14819238Y-42784381D02*
X14819238Y-41784381D01*
X15057333Y-41784381D01*
X15200191Y-41832000D01*
X15295429Y-41927238D01*
X15343048Y-42022476D01*
X15390667Y-42212952D01*
X15390667Y-42355810D01*
X15343048Y-42546286D01*
X15295429Y-42641524D01*
X15200191Y-42736762D01*
X15057333Y-42784381D01*
X14819238Y-42784381D01*
%LPC*%
D14*
X7488000Y-52832000D02*
G75*
G03X13088000Y-52832000I2800000J0D01*
G01*
X15488000Y-52832000D02*
G75*
G03X18288000Y-50032000I2800000J0D01*
G01*
X18288000Y-47632000D02*
G75*
G03X15488000Y-44832000I0J2800000D01*
G01*
X13088000Y-44832000D02*
G75*
G03X7488000Y-44832000I-2800000J0D01*
G01*
D15*
X8478000Y-48832000D03*
X11898000Y-48832000D03*
D16*
X14288000Y-50792000D03*
X14288000Y-47372000D03*
M02*
