G04 This is an RS-274x file exported by *
G04 gerbv version 2.6.0 *
G04 More information is available about gerbv at *
G04 http://gerbv.gpleda.org/ *
G04 --End of header info--*
%MOIN*%
%FSLAX34Y34*%
%IPPOS*%
G04 --Define apertures--*
%ADD10C,0.0138*%
%ADD11C,0.0016*%
%ADD12C,0.0059*%
G04 --Start main section--*
G54D11*
G01X0005231Y-018143D02*
G01X0005231Y-018536D01*
G01X0006019Y-018143D02*
G01X0005231Y-018143D01*
G01X0006019Y-020505D02*
G01X0006019Y-018143D01*
G01X0005231Y-020505D02*
G01X0006019Y-020505D01*
G01X0005231Y-018536D02*
G01X0005231Y-020505D01*
G01X0005231Y-019619D02*
G01X0002869Y-019619D01*
G01X0005231Y-018831D02*
G01X0005231Y-019619D01*
G01X0002869Y-018831D02*
G01X0005231Y-018831D01*
G01X0002869Y-019619D02*
G01X0002869Y-018831D01*
G01X0007161Y-016154D02*
G01X0004090Y-016154D01*
G01X0007161Y-022296D02*
G01X0004090Y-022296D01*
G01X0008696Y-020761D02*
G01X0008696Y-017690D01*
G01X0002554Y-020761D02*
G01X0002554Y-017690D01*
G01X0008696Y-017690D02*
G75*
G03X0007161Y-016154I-001535J0000000D01*
G01X0007161Y-022296D02*
G75*
G03X0008696Y-020761I0000000J0001535D01*
G01X0002554Y-020761D02*
G75*
G03X0004090Y-022296I0001535J0000000D01*
G01X0004090Y-016154D02*
G75*
G03X0002554Y-017690I0000000J-001535D01*
G54D12*
G01X0005475Y-020139D02*
G01X0005775Y-020139D01*
G01X0005475Y-018564D02*
G01X0005775Y-018564D01*
G01X0005625Y-018714D02*
G01X0005625Y-018414D01*
G01X0005803Y-019577D02*
G01X0005803Y-019764D01*
G01X0005803Y-019764D02*
G01X0005410Y-019764D01*
G01X0005597Y-019445D02*
G01X0005597Y-019314D01*
G01X0005803Y-019258D02*
G01X0005803Y-019445D01*
G01X0005803Y-019445D02*
G01X0005410Y-019445D01*
G01X0005410Y-019445D02*
G01X0005410Y-019258D01*
G01X0005803Y-019089D02*
G01X0005410Y-019089D01*
G01X0005410Y-019089D02*
G01X0005410Y-018996D01*
G01X0005410Y-018996D02*
G01X0005428Y-018939D01*
G01X0005428Y-018939D02*
G01X0005466Y-018902D01*
G01X0005466Y-018902D02*
G01X0005503Y-018883D01*
G01X0005503Y-018883D02*
G01X0005578Y-018864D01*
G01X0005578Y-018864D02*
G01X0005635Y-018864D01*
G01X0005635Y-018864D02*
G01X0005710Y-018883D01*
G01X0005710Y-018883D02*
G01X0005747Y-018902D01*
G01X0005747Y-018902D02*
G01X0005785Y-018939D01*
G01X0005785Y-018939D02*
G01X0005803Y-018996D01*
G01X0005803Y-018996D02*
G01X0005803Y-019089D01*
G01X0003807Y-019403D02*
G01X0003675Y-019216D01*
G01X0003582Y-019403D02*
G01X0003582Y-019010D01*
G01X0003582Y-019010D02*
G01X0003732Y-019010D01*
G01X0003732Y-019010D02*
G01X0003769Y-019028D01*
G01X0003769Y-019028D02*
G01X0003788Y-019047D01*
G01X0003788Y-019047D02*
G01X0003807Y-019085D01*
G01X0003807Y-019085D02*
G01X0003807Y-019141D01*
G01X0003807Y-019141D02*
G01X0003788Y-019178D01*
G01X0003788Y-019178D02*
G01X0003769Y-019197D01*
G01X0003769Y-019197D02*
G01X0003732Y-019216D01*
G01X0003732Y-019216D02*
G01X0003582Y-019216D01*
G01X0003975Y-019197D02*
G01X0004107Y-019197D01*
G01X0004163Y-019403D02*
G01X0003975Y-019403D01*
G01X0003975Y-019403D02*
G01X0003975Y-019010D01*
G01X0003975Y-019010D02*
G01X0004163Y-019010D01*
G01X0004313Y-019385D02*
G01X0004369Y-019403D01*
G01X0004369Y-019403D02*
G01X0004463Y-019403D01*
G01X0004463Y-019403D02*
G01X0004500Y-019385D01*
G01X0004500Y-019385D02*
G01X0004519Y-019366D01*
G01X0004519Y-019366D02*
G01X0004538Y-019328D01*
G01X0004538Y-019328D02*
G01X0004538Y-019291D01*
G01X0004538Y-019291D02*
G01X0004519Y-019253D01*
G01X0004519Y-019253D02*
G01X0004500Y-019235D01*
G01X0004500Y-019235D02*
G01X0004463Y-019216D01*
G01X0004463Y-019216D02*
G01X0004388Y-019197D01*
G01X0004388Y-019197D02*
G01X0004350Y-019178D01*
G01X0004350Y-019178D02*
G01X0004332Y-019160D01*
G01X0004332Y-019160D02*
G01X0004313Y-019122D01*
G01X0004313Y-019122D02*
G01X0004313Y-019085D01*
G01X0004313Y-019085D02*
G01X0004332Y-019047D01*
G01X0004332Y-019047D02*
G01X0004350Y-019028D01*
G01X0004350Y-019028D02*
G01X0004388Y-019010D01*
G01X0004388Y-019010D02*
G01X0004482Y-019010D01*
G01X0004482Y-019010D02*
G01X0004538Y-019028D01*
G01X0000000Y0000000D02*
G54D11*
G01X0007161Y-016154D02*
G01X0004090Y-016154D01*
G01X0007161Y-022296D02*
G01X0004090Y-022296D01*
G01X0008696Y-020761D02*
G01X0008696Y-017690D01*
G01X0002554Y-020761D02*
G01X0002554Y-017690D01*
G01X0008696Y-017690D02*
G75*
G03X0007161Y-016154I-001535J0000000D01*
G01X0007161Y-022296D02*
G75*
G03X0008696Y-020761I0000000J0001535D01*
G01X0002554Y-020761D02*
G75*
G03X0004090Y-022296I0001535J0000000D01*
G01X0004090Y-016154D02*
G75*
G03X0002554Y-017690I0000000J-001535D01*
M02*
