%TF.GenerationSoftware,KiCad,Pcbnew,4.0.7-e2-6376~58~ubuntu16.04.1*%
%TF.CreationDate,2018-05-09T10:16:15-07:00*%
%TF.ProjectId,2x2-LED-GREEN-SMT-LIMITED,3278322D4C45442D475245454E2D534D,1.0*%
%TF.FileFunction,Soldermask,Bot*%
%FSLAX46Y46*%
G04 Gerber Fmt 4.6, Leading zero omitted, Abs format (unit mm)*
G04 Created by KiCad (PCBNEW 4.0.7-e2-6376~58~ubuntu16.04.1) date Wed May  9 10:16:15 2018*
%MOMM*%
%LPD*%
G01*
G04 APERTURE LIST*
%ADD10C,0.350000*%
%ADD11C,7.200000*%
G04 APERTURE END LIST*
D10*
D11*
X10288000Y-52832000D02*
X18188000Y-52832000D01*
X10288000Y-44832000D02*
X18188000Y-44832000D01*
D10*
G36*
X10611110Y-49757847D02*
X11202055Y-49879151D01*
X11758198Y-50112932D01*
X12258334Y-50450278D01*
X12683421Y-50878343D01*
X13017266Y-51380821D01*
X13247156Y-51938576D01*
X13364264Y-52530014D01*
X13364264Y-52530024D01*
X13364331Y-52530363D01*
X13354710Y-53219416D01*
X13354633Y-53219754D01*
X13354633Y-53219762D01*
X13221057Y-53807701D01*
X12975685Y-54358816D01*
X12627937Y-54851778D01*
X12191062Y-55267809D01*
X11681700Y-55591061D01*
X11119254Y-55809219D01*
X10525147Y-55913976D01*
X9922003Y-55901342D01*
X9332800Y-55771797D01*
X8779982Y-55530277D01*
X8284607Y-55185982D01*
X7865537Y-54752023D01*
X7538738Y-54244930D01*
X7316656Y-53684014D01*
X7207755Y-53090658D01*
X7216177Y-52487441D01*
X7341606Y-51897347D01*
X7579259Y-51342858D01*
X7920091Y-50845088D01*
X8351112Y-50423000D01*
X8855913Y-50092668D01*
X9415259Y-49866677D01*
X10007845Y-49753636D01*
X10611110Y-49757847D01*
X10611110Y-49757847D01*
G37*
G36*
X18611110Y-49757847D02*
X19202055Y-49879151D01*
X19758198Y-50112932D01*
X20258334Y-50450278D01*
X20683421Y-50878343D01*
X21017266Y-51380821D01*
X21247156Y-51938576D01*
X21364264Y-52530014D01*
X21364264Y-52530024D01*
X21364331Y-52530363D01*
X21354710Y-53219416D01*
X21354633Y-53219754D01*
X21354633Y-53219762D01*
X21221057Y-53807701D01*
X20975685Y-54358816D01*
X20627937Y-54851778D01*
X20191062Y-55267809D01*
X19681700Y-55591061D01*
X19119254Y-55809219D01*
X18525147Y-55913976D01*
X17922003Y-55901342D01*
X17332800Y-55771797D01*
X16779982Y-55530277D01*
X16284607Y-55185982D01*
X15865537Y-54752023D01*
X15538738Y-54244930D01*
X15316656Y-53684014D01*
X15207755Y-53090658D01*
X15216177Y-52487441D01*
X15341606Y-51897347D01*
X15579259Y-51342858D01*
X15920091Y-50845088D01*
X16351112Y-50423000D01*
X16855913Y-50092668D01*
X17415259Y-49866677D01*
X18007845Y-49753636D01*
X18611110Y-49757847D01*
X18611110Y-49757847D01*
G37*
G36*
X10611110Y-41757847D02*
X11202055Y-41879151D01*
X11758198Y-42112932D01*
X12258334Y-42450278D01*
X12683421Y-42878343D01*
X13017266Y-43380821D01*
X13247156Y-43938576D01*
X13364264Y-44530014D01*
X13364264Y-44530024D01*
X13364331Y-44530363D01*
X13354710Y-45219416D01*
X13354633Y-45219754D01*
X13354633Y-45219762D01*
X13221057Y-45807701D01*
X12975685Y-46358816D01*
X12627937Y-46851778D01*
X12191062Y-47267809D01*
X11681700Y-47591061D01*
X11119254Y-47809219D01*
X10525147Y-47913976D01*
X9922003Y-47901342D01*
X9332800Y-47771797D01*
X8779982Y-47530277D01*
X8284607Y-47185982D01*
X7865537Y-46752023D01*
X7538738Y-46244930D01*
X7316656Y-45684014D01*
X7207755Y-45090658D01*
X7216177Y-44487441D01*
X7341606Y-43897347D01*
X7579259Y-43342858D01*
X7920091Y-42845088D01*
X8351112Y-42423000D01*
X8855913Y-42092668D01*
X9415259Y-41866677D01*
X10007845Y-41753636D01*
X10611110Y-41757847D01*
X10611110Y-41757847D01*
G37*
G36*
X18611110Y-41757847D02*
X19202055Y-41879151D01*
X19758198Y-42112932D01*
X20258334Y-42450278D01*
X20683421Y-42878343D01*
X21017266Y-43380821D01*
X21247156Y-43938576D01*
X21364264Y-44530014D01*
X21364264Y-44530024D01*
X21364331Y-44530363D01*
X21354710Y-45219416D01*
X21354633Y-45219754D01*
X21354633Y-45219762D01*
X21221057Y-45807701D01*
X20975685Y-46358816D01*
X20627937Y-46851778D01*
X20191062Y-47267809D01*
X19681700Y-47591061D01*
X19119254Y-47809219D01*
X18525147Y-47913976D01*
X17922003Y-47901342D01*
X17332800Y-47771797D01*
X16779982Y-47530277D01*
X16284607Y-47185982D01*
X15865537Y-46752023D01*
X15538738Y-46244930D01*
X15316656Y-45684014D01*
X15207755Y-45090658D01*
X15216177Y-44487441D01*
X15341606Y-43897347D01*
X15579259Y-43342858D01*
X15920091Y-42845088D01*
X16351112Y-42423000D01*
X16855913Y-42092668D01*
X17415259Y-41866677D01*
X18007845Y-41753636D01*
X18611110Y-41757847D01*
X18611110Y-41757847D01*
G37*
M02*
