%TF.GenerationSoftware,KiCad,Pcbnew,4.0.5-e0-6337~49~ubuntu16.04.1*%
%TF.CreationDate,2017-05-28T07:05:38-07:00*%
%TF.ProjectId,3x4-ATtiny85-8SOIC-Breakout,3378342D415474696E7938352D38534F,v1.1*%
%TF.FileFunction,Legend,Top*%
%FSLAX46Y46*%
G04 Gerber Fmt 4.6, Leading zero omitted, Abs format (unit mm)*
G04 Created by KiCad (PCBNEW 4.0.5-e0-6337~49~ubuntu16.04.1) date Sun May 28 07:05:38 2017*
%MOMM*%
%LPD*%
G01*
G04 APERTURE LIST*
%ADD10C,0.350000*%
%ADD11C,0.406400*%
%ADD12C,0.150000*%
%ADD13C,7.400000*%
%ADD14C,0.200000*%
%ADD15C,1.000000*%
%ADD16C,7.152400*%
%ADD17R,1.702400X0.752400*%
G04 APERTURE END LIST*
D10*
D11*
X5183600Y-65144920D02*
X13433600Y-65144920D01*
D12*
X10390600Y-50636220D02*
X10390600Y-50781220D01*
X15750000Y-50636220D02*
X15750000Y-50781220D01*
X10407600Y-50631920D02*
X15707600Y-50631920D01*
X10433698Y-55957548D02*
X10433698Y-55812548D01*
X15793098Y-55957548D02*
X15793098Y-55812548D01*
X15776098Y-55961848D02*
X10476098Y-55961848D01*
D13*
X4929600Y-65144920D02*
X13362400Y-65195720D01*
X5056600Y-41078420D02*
X13489400Y-41129220D01*
D14*
X9492514Y-45939320D02*
X10063943Y-45939320D01*
X9378229Y-46282177D02*
X9778229Y-45082177D01*
X10178229Y-46282177D01*
X10406800Y-45082177D02*
X11092514Y-45082177D01*
X10749657Y-46282177D02*
X10749657Y-45082177D01*
X11321086Y-45482177D02*
X11778229Y-45482177D01*
X11492514Y-45082177D02*
X11492514Y-46110749D01*
X11549657Y-46225034D01*
X11663943Y-46282177D01*
X11778229Y-46282177D01*
X12178228Y-46282177D02*
X12178228Y-45482177D01*
X12178228Y-45082177D02*
X12121085Y-45139320D01*
X12178228Y-45196463D01*
X12235371Y-45139320D01*
X12178228Y-45082177D01*
X12178228Y-45196463D01*
X12749657Y-45482177D02*
X12749657Y-46282177D01*
X12749657Y-45596463D02*
X12806800Y-45539320D01*
X12921086Y-45482177D01*
X13092514Y-45482177D01*
X13206800Y-45539320D01*
X13263943Y-45653606D01*
X13263943Y-46282177D01*
X13721086Y-45482177D02*
X14006800Y-46282177D01*
X14292514Y-45482177D02*
X14006800Y-46282177D01*
X13892514Y-46567891D01*
X13835371Y-46625034D01*
X13721086Y-46682177D01*
X14921086Y-45596463D02*
X14806800Y-45539320D01*
X14749657Y-45482177D01*
X14692514Y-45367891D01*
X14692514Y-45310749D01*
X14749657Y-45196463D01*
X14806800Y-45139320D01*
X14921086Y-45082177D01*
X15149657Y-45082177D01*
X15263943Y-45139320D01*
X15321086Y-45196463D01*
X15378229Y-45310749D01*
X15378229Y-45367891D01*
X15321086Y-45482177D01*
X15263943Y-45539320D01*
X15149657Y-45596463D01*
X14921086Y-45596463D01*
X14806800Y-45653606D01*
X14749657Y-45710749D01*
X14692514Y-45825034D01*
X14692514Y-46053606D01*
X14749657Y-46167891D01*
X14806800Y-46225034D01*
X14921086Y-46282177D01*
X15149657Y-46282177D01*
X15263943Y-46225034D01*
X15321086Y-46167891D01*
X15378229Y-46053606D01*
X15378229Y-45825034D01*
X15321086Y-45710749D01*
X15263943Y-45653606D01*
X15149657Y-45596463D01*
X16463943Y-45082177D02*
X15892514Y-45082177D01*
X15835371Y-45653606D01*
X15892514Y-45596463D01*
X16006800Y-45539320D01*
X16292514Y-45539320D01*
X16406800Y-45596463D01*
X16463943Y-45653606D01*
X16521086Y-45767891D01*
X16521086Y-46053606D01*
X16463943Y-46167891D01*
X16406800Y-46225034D01*
X16292514Y-46282177D01*
X16006800Y-46282177D01*
X15892514Y-46225034D01*
X15835371Y-46167891D01*
D12*
X17851886Y-48690539D02*
X17899505Y-48642920D01*
X17994743Y-48595301D01*
X18232839Y-48595301D01*
X18328077Y-48642920D01*
X18375696Y-48690539D01*
X18423315Y-48785777D01*
X18423315Y-48881015D01*
X18375696Y-49023872D01*
X17804267Y-49595301D01*
X18423315Y-49595301D01*
X18550315Y-57723301D02*
X17978886Y-57723301D01*
X18264600Y-57723301D02*
X18264600Y-56723301D01*
X18169362Y-56866158D01*
X18074124Y-56961396D01*
X17978886Y-57009015D01*
X17962981Y-64597301D02*
X18058220Y-64597301D01*
X18153458Y-64644920D01*
X18201077Y-64692539D01*
X18248696Y-64787777D01*
X18296315Y-64978253D01*
X18296315Y-65216349D01*
X18248696Y-65406825D01*
X18201077Y-65502063D01*
X18153458Y-65549682D01*
X18058220Y-65597301D01*
X17962981Y-65597301D01*
X17867743Y-65549682D01*
X17820124Y-65502063D01*
X17772505Y-65406825D01*
X17724886Y-65216349D01*
X17724886Y-64978253D01*
X17772505Y-64787777D01*
X17820124Y-64692539D01*
X17867743Y-64644920D01*
X17962981Y-64597301D01*
X8485696Y-65914920D02*
X8390458Y-65867301D01*
X8247601Y-65867301D01*
X8104743Y-65914920D01*
X8009505Y-66010158D01*
X7961886Y-66105396D01*
X7914267Y-66295872D01*
X7914267Y-66438730D01*
X7961886Y-66629206D01*
X8009505Y-66724444D01*
X8104743Y-66819682D01*
X8247601Y-66867301D01*
X8342839Y-66867301D01*
X8485696Y-66819682D01*
X8533315Y-66772063D01*
X8533315Y-66438730D01*
X8342839Y-66438730D01*
X8961886Y-66867301D02*
X8961886Y-65867301D01*
X9533315Y-66867301D01*
X9533315Y-65867301D01*
X10009505Y-66867301D02*
X10009505Y-65867301D01*
X10247600Y-65867301D01*
X10390458Y-65914920D01*
X10485696Y-66010158D01*
X10533315Y-66105396D01*
X10580934Y-66295872D01*
X10580934Y-66438730D01*
X10533315Y-66629206D01*
X10485696Y-66724444D01*
X10390458Y-66819682D01*
X10247600Y-66867301D01*
X10009505Y-66867301D01*
X8152267Y-48595301D02*
X8771315Y-48595301D01*
X8437981Y-48976253D01*
X8580839Y-48976253D01*
X8676077Y-49023872D01*
X8723696Y-49071491D01*
X8771315Y-49166730D01*
X8771315Y-49404825D01*
X8723696Y-49500063D01*
X8676077Y-49547682D01*
X8580839Y-49595301D01*
X8295124Y-49595301D01*
X8199886Y-49547682D01*
X8152267Y-49500063D01*
X8549077Y-57183634D02*
X8549077Y-57850301D01*
X8310981Y-56802682D02*
X8072886Y-57516968D01*
X8691934Y-57516968D01*
X8088814Y-58834587D02*
X8565005Y-58834587D01*
X7993576Y-59120301D02*
X8326909Y-58120301D01*
X8660243Y-59120301D01*
X8945957Y-58215539D02*
X8993576Y-58167920D01*
X9088814Y-58120301D01*
X9326910Y-58120301D01*
X9422148Y-58167920D01*
X9469767Y-58215539D01*
X9517386Y-58310777D01*
X9517386Y-58406015D01*
X9469767Y-58548872D01*
X8898338Y-59120301D01*
X9517386Y-59120301D01*
X8152314Y-47912587D02*
X8628505Y-47912587D01*
X8057076Y-48198301D02*
X8390409Y-47198301D01*
X8723743Y-48198301D01*
X8961838Y-47198301D02*
X9580886Y-47198301D01*
X9247552Y-47579253D01*
X9390410Y-47579253D01*
X9485648Y-47626872D01*
X9533267Y-47674491D01*
X9580886Y-47769730D01*
X9580886Y-48007825D01*
X9533267Y-48103063D01*
X9485648Y-48150682D01*
X9390410Y-48198301D01*
X9104695Y-48198301D01*
X9009457Y-48150682D01*
X8961838Y-48103063D01*
X17169314Y-47849087D02*
X17645505Y-47849087D01*
X17074076Y-48134801D02*
X17407409Y-47134801D01*
X17740743Y-48134801D01*
X18597886Y-48134801D02*
X18026457Y-48134801D01*
X18312171Y-48134801D02*
X18312171Y-47134801D01*
X18216933Y-47277658D01*
X18121695Y-47372896D01*
X18026457Y-47420515D01*
X15716838Y-59056801D02*
X15716838Y-58056801D01*
X16097791Y-58056801D01*
X16193029Y-58104420D01*
X16240648Y-58152039D01*
X16288267Y-58247277D01*
X16288267Y-58390134D01*
X16240648Y-58485372D01*
X16193029Y-58532991D01*
X16097791Y-58580610D01*
X15716838Y-58580610D01*
X16621600Y-58056801D02*
X16859695Y-59056801D01*
X17050172Y-58342515D01*
X17240648Y-59056801D01*
X17478743Y-58056801D01*
X17859695Y-59056801D02*
X17859695Y-58056801D01*
X18193029Y-58771087D01*
X18526362Y-58056801D01*
X18526362Y-59056801D01*
X16732838Y-62803301D02*
X16732838Y-61803301D01*
X17113791Y-61803301D01*
X17209029Y-61850920D01*
X17256648Y-61898539D01*
X17304267Y-61993777D01*
X17304267Y-62136634D01*
X17256648Y-62231872D01*
X17209029Y-62279491D01*
X17113791Y-62327110D01*
X16732838Y-62327110D01*
X17637600Y-61803301D02*
X17875695Y-62803301D01*
X18066172Y-62089015D01*
X18256648Y-62803301D01*
X18494743Y-61803301D01*
X18875695Y-62803301D02*
X18875695Y-61803301D01*
X19209029Y-62517587D01*
X19542362Y-61803301D01*
X19542362Y-62803301D01*
X16994767Y-43515301D02*
X17328100Y-44515301D01*
X17661434Y-43515301D01*
X18566196Y-44420063D02*
X18518577Y-44467682D01*
X18375720Y-44515301D01*
X18280482Y-44515301D01*
X18137624Y-44467682D01*
X18042386Y-44372444D01*
X17994767Y-44277206D01*
X17947148Y-44086730D01*
X17947148Y-43943872D01*
X17994767Y-43753396D01*
X18042386Y-43658158D01*
X18137624Y-43562920D01*
X18280482Y-43515301D01*
X18375720Y-43515301D01*
X18518577Y-43562920D01*
X18566196Y-43610539D01*
X19566196Y-44420063D02*
X19518577Y-44467682D01*
X19375720Y-44515301D01*
X19280482Y-44515301D01*
X19137624Y-44467682D01*
X19042386Y-44372444D01*
X18994767Y-44277206D01*
X18947148Y-44086730D01*
X18947148Y-43943872D01*
X18994767Y-43753396D01*
X19042386Y-43658158D01*
X19137624Y-43562920D01*
X19280482Y-43515301D01*
X19375720Y-43515301D01*
X19518577Y-43562920D01*
X19566196Y-43610539D01*
%LPC*%
D15*
X21249100Y-44129121D02*
G75*
G03X18264600Y-41268920I0J2987201D01*
G01*
X21185600Y-52128095D02*
G75*
G03X21122100Y-46158420I0J2985175D01*
G01*
X21185600Y-60128420D02*
G75*
G03X21122100Y-54158745I0J2985175D01*
G01*
X18731212Y-66844111D02*
G75*
G03X21122100Y-62160420I2454388J1699191D01*
G01*
X5183600Y-54158745D02*
G75*
G03X5247100Y-60128420I0J-2985175D01*
G01*
X5183600Y-46158420D02*
G75*
G03X5247100Y-52128095I0J-2985175D01*
G01*
D16*
X5183600Y-65144920D03*
X13183600Y-65144920D03*
X5183600Y-41144920D03*
X13183600Y-41144920D03*
D17*
X9507600Y-51301920D03*
X9507600Y-52571920D03*
X9507600Y-53841920D03*
X9507600Y-55111920D03*
X16607600Y-55111920D03*
X16607600Y-53841920D03*
X16607600Y-52571920D03*
X16607600Y-51301920D03*
M02*
