%TF.GenerationSoftware,KiCad,Pcbnew,5.0.0-fee4fd1~66~ubuntu16.04.1*%
%TF.CreationDate,2018-09-25T00:11:39-07:00*%
%TF.ProjectId,3x4-ATtiny85-8SOIC-Breakout,3378342D415474696E7938352D38534F,v1.2*%
%TF.SameCoordinates,Original*%
%TF.FileFunction,Soldermask,Bot*%
%TF.FilePolarity,Negative*%
%FSLAX46Y46*%
G04 Gerber Fmt 4.6, Leading zero omitted, Abs format (unit mm)*
G04 Created by KiCad (PCBNEW 5.0.0-fee4fd1~66~ubuntu16.04.1) date Tue Sep 25 00:11:39 2018*
%MOMM*%
%LPD*%
G01*
G04 APERTURE LIST*
%ADD10C,7.200000*%
%ADD11C,0.350000*%
G04 APERTURE END LIST*
D10*
X4929600Y-65144920D02*
X13362400Y-65144920D01*
D11*
G36*
X13766130Y-61614530D02*
X14226741Y-61706151D01*
X14877564Y-61975731D01*
X14877566Y-61975732D01*
X15463295Y-62367104D01*
X15961415Y-62865224D01*
X16352789Y-63450956D01*
X16622369Y-64101779D01*
X16759800Y-64792696D01*
X16759800Y-65497144D01*
X16622369Y-66188061D01*
X16352789Y-66838884D01*
X16352788Y-66838886D01*
X15961416Y-67424615D01*
X15463295Y-67922736D01*
X14877566Y-68314108D01*
X14877565Y-68314109D01*
X14877564Y-68314109D01*
X14226741Y-68583689D01*
X13766130Y-68675310D01*
X13535825Y-68721120D01*
X12831375Y-68721120D01*
X12601070Y-68675310D01*
X12140459Y-68583689D01*
X11489636Y-68314109D01*
X11489635Y-68314109D01*
X11489634Y-68314108D01*
X10903905Y-67922736D01*
X10405784Y-67424615D01*
X10014412Y-66838886D01*
X10014411Y-66838884D01*
X9744831Y-66188061D01*
X9607400Y-65497144D01*
X9607400Y-64792696D01*
X9744831Y-64101779D01*
X10014411Y-63450956D01*
X10405785Y-62865224D01*
X10903905Y-62367104D01*
X11489634Y-61975732D01*
X11489636Y-61975731D01*
X12140459Y-61706151D01*
X12601070Y-61614530D01*
X12831375Y-61568720D01*
X13535825Y-61568720D01*
X13766130Y-61614530D01*
X13766130Y-61614530D01*
G37*
G36*
X21766130Y-61614530D02*
X22226741Y-61706151D01*
X22877564Y-61975731D01*
X22877566Y-61975732D01*
X23463295Y-62367104D01*
X23961415Y-62865224D01*
X24352789Y-63450956D01*
X24622369Y-64101779D01*
X24759800Y-64792696D01*
X24759800Y-65497144D01*
X24622369Y-66188061D01*
X24352789Y-66838884D01*
X24352788Y-66838886D01*
X23961416Y-67424615D01*
X23463295Y-67922736D01*
X22877566Y-68314108D01*
X22877565Y-68314109D01*
X22877564Y-68314109D01*
X22226741Y-68583689D01*
X21766130Y-68675310D01*
X21535825Y-68721120D01*
X20831375Y-68721120D01*
X20601070Y-68675310D01*
X20140459Y-68583689D01*
X19489636Y-68314109D01*
X19489635Y-68314109D01*
X19489634Y-68314108D01*
X18903905Y-67922736D01*
X18405784Y-67424615D01*
X18014412Y-66838886D01*
X18014411Y-66838884D01*
X17744831Y-66188061D01*
X17607400Y-65497144D01*
X17607400Y-64792696D01*
X17744831Y-64101779D01*
X18014411Y-63450956D01*
X18405785Y-62865224D01*
X18903905Y-62367104D01*
X19489634Y-61975732D01*
X19489636Y-61975731D01*
X20140459Y-61706151D01*
X20601070Y-61614530D01*
X20831375Y-61568720D01*
X21535825Y-61568720D01*
X21766130Y-61614530D01*
X21766130Y-61614530D01*
G37*
G36*
X5766130Y-61614530D02*
X6226741Y-61706151D01*
X6877564Y-61975731D01*
X6877566Y-61975732D01*
X7463295Y-62367104D01*
X7961415Y-62865224D01*
X8352789Y-63450956D01*
X8622369Y-64101779D01*
X8759800Y-64792696D01*
X8759800Y-65497144D01*
X8622369Y-66188061D01*
X8352789Y-66838884D01*
X8352788Y-66838886D01*
X7961416Y-67424615D01*
X7463295Y-67922736D01*
X6877566Y-68314108D01*
X6877565Y-68314109D01*
X6877564Y-68314109D01*
X6226741Y-68583689D01*
X5766130Y-68675310D01*
X5535825Y-68721120D01*
X4831375Y-68721120D01*
X4601070Y-68675310D01*
X4140459Y-68583689D01*
X3489636Y-68314109D01*
X3489635Y-68314109D01*
X3489634Y-68314108D01*
X2903905Y-67922736D01*
X2405784Y-67424615D01*
X2014412Y-66838886D01*
X2014411Y-66838884D01*
X1744831Y-66188061D01*
X1607400Y-65497144D01*
X1607400Y-64792696D01*
X1744831Y-64101779D01*
X2014411Y-63450956D01*
X2405785Y-62865224D01*
X2903905Y-62367104D01*
X3489634Y-61975732D01*
X3489636Y-61975731D01*
X4140459Y-61706151D01*
X4601070Y-61614530D01*
X4831375Y-61568720D01*
X5535825Y-61568720D01*
X5766130Y-61614530D01*
X5766130Y-61614530D01*
G37*
G36*
X5766130Y-53614530D02*
X6226741Y-53706151D01*
X6877564Y-53975731D01*
X6877566Y-53975732D01*
X7463295Y-54367104D01*
X7961415Y-54865224D01*
X8352789Y-55450956D01*
X8622369Y-56101779D01*
X8759800Y-56792696D01*
X8759800Y-57497144D01*
X8622369Y-58188061D01*
X8352789Y-58838884D01*
X8352788Y-58838886D01*
X7961416Y-59424615D01*
X7463295Y-59922736D01*
X6877566Y-60314108D01*
X6877565Y-60314109D01*
X6877564Y-60314109D01*
X6226741Y-60583689D01*
X5766130Y-60675310D01*
X5535825Y-60721120D01*
X4831375Y-60721120D01*
X4601070Y-60675310D01*
X4140459Y-60583689D01*
X3489636Y-60314109D01*
X3489635Y-60314109D01*
X3489634Y-60314108D01*
X2903905Y-59922736D01*
X2405784Y-59424615D01*
X2014412Y-58838886D01*
X2014411Y-58838884D01*
X1744831Y-58188061D01*
X1607400Y-57497144D01*
X1607400Y-56792696D01*
X1744831Y-56101779D01*
X2014411Y-55450956D01*
X2405785Y-54865224D01*
X2903905Y-54367104D01*
X3489634Y-53975732D01*
X3489636Y-53975731D01*
X4140459Y-53706151D01*
X4601070Y-53614530D01*
X4831375Y-53568720D01*
X5535825Y-53568720D01*
X5766130Y-53614530D01*
X5766130Y-53614530D01*
G37*
G36*
X21766130Y-53614530D02*
X22226741Y-53706151D01*
X22877564Y-53975731D01*
X22877566Y-53975732D01*
X23463295Y-54367104D01*
X23961415Y-54865224D01*
X24352789Y-55450956D01*
X24622369Y-56101779D01*
X24759800Y-56792696D01*
X24759800Y-57497144D01*
X24622369Y-58188061D01*
X24352789Y-58838884D01*
X24352788Y-58838886D01*
X23961416Y-59424615D01*
X23463295Y-59922736D01*
X22877566Y-60314108D01*
X22877565Y-60314109D01*
X22877564Y-60314109D01*
X22226741Y-60583689D01*
X21766130Y-60675310D01*
X21535825Y-60721120D01*
X20831375Y-60721120D01*
X20601070Y-60675310D01*
X20140459Y-60583689D01*
X19489636Y-60314109D01*
X19489635Y-60314109D01*
X19489634Y-60314108D01*
X18903905Y-59922736D01*
X18405784Y-59424615D01*
X18014412Y-58838886D01*
X18014411Y-58838884D01*
X17744831Y-58188061D01*
X17607400Y-57497144D01*
X17607400Y-56792696D01*
X17744831Y-56101779D01*
X18014411Y-55450956D01*
X18405785Y-54865224D01*
X18903905Y-54367104D01*
X19489634Y-53975732D01*
X19489636Y-53975731D01*
X20140459Y-53706151D01*
X20601070Y-53614530D01*
X20831375Y-53568720D01*
X21535825Y-53568720D01*
X21766130Y-53614530D01*
X21766130Y-53614530D01*
G37*
G36*
X21766130Y-45614530D02*
X22226741Y-45706151D01*
X22877564Y-45975731D01*
X22877566Y-45975732D01*
X23463295Y-46367104D01*
X23961415Y-46865224D01*
X24352789Y-47450956D01*
X24622369Y-48101779D01*
X24759800Y-48792696D01*
X24759800Y-49497144D01*
X24622369Y-50188061D01*
X24352789Y-50838884D01*
X24352788Y-50838886D01*
X23961416Y-51424615D01*
X23463295Y-51922736D01*
X22877566Y-52314108D01*
X22877565Y-52314109D01*
X22877564Y-52314109D01*
X22226741Y-52583689D01*
X21766130Y-52675310D01*
X21535825Y-52721120D01*
X20831375Y-52721120D01*
X20601070Y-52675310D01*
X20140459Y-52583689D01*
X19489636Y-52314109D01*
X19489635Y-52314109D01*
X19489634Y-52314108D01*
X18903905Y-51922736D01*
X18405784Y-51424615D01*
X18014412Y-50838886D01*
X18014411Y-50838884D01*
X17744831Y-50188061D01*
X17607400Y-49497144D01*
X17607400Y-48792696D01*
X17744831Y-48101779D01*
X18014411Y-47450956D01*
X18405785Y-46865224D01*
X18903905Y-46367104D01*
X19489634Y-45975732D01*
X19489636Y-45975731D01*
X20140459Y-45706151D01*
X20601070Y-45614530D01*
X20831375Y-45568720D01*
X21535825Y-45568720D01*
X21766130Y-45614530D01*
X21766130Y-45614530D01*
G37*
G36*
X5766130Y-45614530D02*
X6226741Y-45706151D01*
X6877564Y-45975731D01*
X6877566Y-45975732D01*
X7463295Y-46367104D01*
X7961415Y-46865224D01*
X8352789Y-47450956D01*
X8622369Y-48101779D01*
X8759800Y-48792696D01*
X8759800Y-49497144D01*
X8622369Y-50188061D01*
X8352789Y-50838884D01*
X8352788Y-50838886D01*
X7961416Y-51424615D01*
X7463295Y-51922736D01*
X6877566Y-52314108D01*
X6877565Y-52314109D01*
X6877564Y-52314109D01*
X6226741Y-52583689D01*
X5766130Y-52675310D01*
X5535825Y-52721120D01*
X4831375Y-52721120D01*
X4601070Y-52675310D01*
X4140459Y-52583689D01*
X3489636Y-52314109D01*
X3489635Y-52314109D01*
X3489634Y-52314108D01*
X2903905Y-51922736D01*
X2405784Y-51424615D01*
X2014412Y-50838886D01*
X2014411Y-50838884D01*
X1744831Y-50188061D01*
X1607400Y-49497144D01*
X1607400Y-48792696D01*
X1744831Y-48101779D01*
X2014411Y-47450956D01*
X2405785Y-46865224D01*
X2903905Y-46367104D01*
X3489634Y-45975732D01*
X3489636Y-45975731D01*
X4140459Y-45706151D01*
X4601070Y-45614530D01*
X4831375Y-45568720D01*
X5535825Y-45568720D01*
X5766130Y-45614530D01*
X5766130Y-45614530D01*
G37*
G36*
X21766130Y-37614530D02*
X22226741Y-37706151D01*
X22877564Y-37975731D01*
X22877566Y-37975732D01*
X23463295Y-38367104D01*
X23961415Y-38865224D01*
X24352789Y-39450956D01*
X24622369Y-40101779D01*
X24759800Y-40792696D01*
X24759800Y-41497144D01*
X24622369Y-42188061D01*
X24352789Y-42838884D01*
X24352788Y-42838886D01*
X23961416Y-43424615D01*
X23463295Y-43922736D01*
X22877566Y-44314108D01*
X22877565Y-44314109D01*
X22877564Y-44314109D01*
X22226741Y-44583689D01*
X21766130Y-44675310D01*
X21535825Y-44721120D01*
X20831375Y-44721120D01*
X20601070Y-44675310D01*
X20140459Y-44583689D01*
X19489636Y-44314109D01*
X19489635Y-44314109D01*
X19489634Y-44314108D01*
X18903905Y-43922736D01*
X18405784Y-43424615D01*
X18014412Y-42838886D01*
X18014411Y-42838884D01*
X17744831Y-42188061D01*
X17607400Y-41497144D01*
X17607400Y-40792696D01*
X17744831Y-40101779D01*
X18014411Y-39450956D01*
X18405785Y-38865224D01*
X18903905Y-38367104D01*
X19489634Y-37975732D01*
X19489636Y-37975731D01*
X20140459Y-37706151D01*
X20601070Y-37614530D01*
X20831375Y-37568720D01*
X21535825Y-37568720D01*
X21766130Y-37614530D01*
X21766130Y-37614530D01*
G37*
G36*
X13766130Y-37614530D02*
X14226741Y-37706151D01*
X14877564Y-37975731D01*
X14877566Y-37975732D01*
X15463295Y-38367104D01*
X15961415Y-38865224D01*
X16352789Y-39450956D01*
X16622369Y-40101779D01*
X16759800Y-40792696D01*
X16759800Y-41497144D01*
X16622369Y-42188061D01*
X16352789Y-42838884D01*
X16352788Y-42838886D01*
X15961416Y-43424615D01*
X15463295Y-43922736D01*
X14877566Y-44314108D01*
X14877565Y-44314109D01*
X14877564Y-44314109D01*
X14226741Y-44583689D01*
X13766130Y-44675310D01*
X13535825Y-44721120D01*
X12831375Y-44721120D01*
X12601070Y-44675310D01*
X12140459Y-44583689D01*
X11489636Y-44314109D01*
X11489635Y-44314109D01*
X11489634Y-44314108D01*
X10903905Y-43922736D01*
X10405784Y-43424615D01*
X10014412Y-42838886D01*
X10014411Y-42838884D01*
X9744831Y-42188061D01*
X9607400Y-41497144D01*
X9607400Y-40792696D01*
X9744831Y-40101779D01*
X10014411Y-39450956D01*
X10405785Y-38865224D01*
X10903905Y-38367104D01*
X11489634Y-37975732D01*
X11489636Y-37975731D01*
X12140459Y-37706151D01*
X12601070Y-37614530D01*
X12831375Y-37568720D01*
X13535825Y-37568720D01*
X13766130Y-37614530D01*
X13766130Y-37614530D01*
G37*
G36*
X5766130Y-37614530D02*
X6226741Y-37706151D01*
X6877564Y-37975731D01*
X6877566Y-37975732D01*
X7463295Y-38367104D01*
X7961415Y-38865224D01*
X8352789Y-39450956D01*
X8622369Y-40101779D01*
X8759800Y-40792696D01*
X8759800Y-41497144D01*
X8622369Y-42188061D01*
X8352789Y-42838884D01*
X8352788Y-42838886D01*
X7961416Y-43424615D01*
X7463295Y-43922736D01*
X6877566Y-44314108D01*
X6877565Y-44314109D01*
X6877564Y-44314109D01*
X6226741Y-44583689D01*
X5766130Y-44675310D01*
X5535825Y-44721120D01*
X4831375Y-44721120D01*
X4601070Y-44675310D01*
X4140459Y-44583689D01*
X3489636Y-44314109D01*
X3489635Y-44314109D01*
X3489634Y-44314108D01*
X2903905Y-43922736D01*
X2405784Y-43424615D01*
X2014412Y-42838886D01*
X2014411Y-42838884D01*
X1744831Y-42188061D01*
X1607400Y-41497144D01*
X1607400Y-40792696D01*
X1744831Y-40101779D01*
X2014411Y-39450956D01*
X2405785Y-38865224D01*
X2903905Y-38367104D01*
X3489634Y-37975732D01*
X3489636Y-37975731D01*
X4140459Y-37706151D01*
X4601070Y-37614530D01*
X4831375Y-37568720D01*
X5535825Y-37568720D01*
X5766130Y-37614530D01*
X5766130Y-37614530D01*
G37*
M02*
