%TF.GenerationSoftware,KiCad,Pcbnew,4.0.5-e0-6337~49~ubuntu16.04.1*%
%TF.CreationDate,2017-05-28T07:05:38-07:00*%
%TF.ProjectId,3x4-ATtiny85-8SOIC-Breakout,3378342D415474696E7938352D38534F,v1.1*%
%TF.FileFunction,Copper,L1,Top,Signal*%
%FSLAX46Y46*%
G04 Gerber Fmt 4.6, Leading zero omitted, Abs format (unit mm)*
G04 Created by KiCad (PCBNEW 4.0.5-e0-6337~49~ubuntu16.04.1) date Sun May 28 07:05:38 2017*
%MOMM*%
%LPD*%
G01*
G04 APERTURE LIST*
%ADD10C,0.350000*%
%ADD11C,0.406400*%
%ADD12C,7.000000*%
%ADD13R,1.550000X0.600000*%
%ADD14C,0.350000*%
G04 APERTURE END LIST*
D10*
D11*
X9501600Y-52508420D02*
X7469600Y-52508420D01*
X9692100Y-49523920D02*
X9692100Y-47618920D01*
X5183600Y-65144920D02*
X13183600Y-65144920D01*
X16677100Y-51111420D02*
X16677100Y-46285420D01*
X9692100Y-47618920D02*
X5183600Y-41014920D01*
X7469600Y-52508420D02*
X5183600Y-49206420D01*
X16169100Y-53841920D02*
X18201100Y-53841920D01*
X18201100Y-53841920D02*
X20487100Y-57143920D01*
X7469600Y-53841920D02*
X9501600Y-53841920D01*
X5120100Y-57207420D02*
X7469600Y-53841920D01*
X20550600Y-49183753D02*
X18181899Y-52571920D01*
X18201100Y-52571920D02*
X16169100Y-52571920D01*
X16613600Y-59175920D02*
X20931600Y-65271920D01*
X16613600Y-55111920D02*
X16613600Y-59175920D01*
X9247600Y-65144920D02*
X9247600Y-54984920D01*
X21312600Y-41332420D02*
X16740600Y-46285420D01*
X11724100Y-51746420D02*
X9692100Y-49523920D01*
X11724100Y-51746420D02*
X11724100Y-53841920D01*
X10708100Y-55175420D02*
X9755600Y-55175420D01*
X11724100Y-53841920D02*
X10708100Y-55175420D01*
D12*
X5183600Y-65144920D03*
X5183600Y-49144920D03*
X5183600Y-57144920D03*
X13183600Y-65144920D03*
X5183600Y-41144920D03*
X21183600Y-49144920D03*
X21183600Y-65144920D03*
X21183600Y-57144920D03*
X21183600Y-41144920D03*
X13183600Y-41144920D03*
D13*
X9507600Y-51301920D03*
X9507600Y-52571920D03*
X9507600Y-53841920D03*
X9507600Y-55111920D03*
X16607600Y-55111920D03*
X16607600Y-53841920D03*
X16607600Y-52571920D03*
X16607600Y-51301920D03*
D14*
X5183600Y-65144920D03*
X13183600Y-49144920D03*
X5183600Y-49144920D03*
X5183600Y-57144920D03*
X13183600Y-57144920D03*
X13183600Y-65144920D03*
X5183600Y-41144920D03*
X21183600Y-49144920D03*
X21183600Y-65144920D03*
X21183600Y-57144920D03*
X21183600Y-41144920D03*
X13183600Y-41144920D03*
M02*
