%TF.GenerationSoftware,KiCad,Pcbnew,4.0.5-e0-6337~49~ubuntu16.04.1*%
%TF.CreationDate,2017-01-24T12:53:19-08:00*%
%TF.ProjectId,1x4-CR2032,3178342D4352323033322E6B69636164,1.0*%
%TF.FileFunction,Soldermask,Bot*%
%FSLAX46Y46*%
G04 Gerber Fmt 4.6, Leading zero omitted, Abs format (unit mm)*
G04 Created by KiCad (PCBNEW 4.0.5-e0-6337~49~ubuntu16.04.1) date Tue Jan 24 12:53:19 2017*
%MOMM*%
%LPD*%
G01*
G04 APERTURE LIST*
%ADD10C,0.350000*%
%ADD11C,7.200000*%
%ADD12C,7.600000*%
G04 APERTURE END LIST*
D10*
D11*
X129745200Y-102412800D02*
X137745200Y-102412800D01*
D12*
X145722800Y-102412800D02*
X145824400Y-102463600D01*
X121694400Y-102362000D02*
X121796000Y-102412800D01*
D10*
G36*
X122068310Y-99338647D02*
X122659255Y-99459951D01*
X123215398Y-99693732D01*
X123715534Y-100031078D01*
X124140621Y-100459143D01*
X124474466Y-100961621D01*
X124704356Y-101519376D01*
X124821464Y-102110814D01*
X124821464Y-102110824D01*
X124821531Y-102111163D01*
X124811910Y-102800216D01*
X124811833Y-102800554D01*
X124811833Y-102800562D01*
X124678257Y-103388501D01*
X124432885Y-103939616D01*
X124085137Y-104432578D01*
X123648262Y-104848609D01*
X123138900Y-105171861D01*
X122576454Y-105390019D01*
X121982347Y-105494776D01*
X121379203Y-105482142D01*
X120790000Y-105352597D01*
X120237182Y-105111077D01*
X119741807Y-104766782D01*
X119322737Y-104332823D01*
X118995938Y-103825730D01*
X118773856Y-103264814D01*
X118664955Y-102671458D01*
X118673377Y-102068241D01*
X118798806Y-101478147D01*
X119036459Y-100923658D01*
X119377291Y-100425888D01*
X119808312Y-100003800D01*
X120313113Y-99673468D01*
X120872459Y-99447477D01*
X121465045Y-99334436D01*
X122068310Y-99338647D01*
X122068310Y-99338647D01*
G37*
G36*
X130068310Y-99338647D02*
X130659255Y-99459951D01*
X131215398Y-99693732D01*
X131715534Y-100031078D01*
X132140621Y-100459143D01*
X132474466Y-100961621D01*
X132704356Y-101519376D01*
X132821464Y-102110814D01*
X132821464Y-102110824D01*
X132821531Y-102111163D01*
X132811910Y-102800216D01*
X132811833Y-102800554D01*
X132811833Y-102800562D01*
X132678257Y-103388501D01*
X132432885Y-103939616D01*
X132085137Y-104432578D01*
X131648262Y-104848609D01*
X131138900Y-105171861D01*
X130576454Y-105390019D01*
X129982347Y-105494776D01*
X129379203Y-105482142D01*
X128790000Y-105352597D01*
X128237182Y-105111077D01*
X127741807Y-104766782D01*
X127322737Y-104332823D01*
X126995938Y-103825730D01*
X126773856Y-103264814D01*
X126664955Y-102671458D01*
X126673377Y-102068241D01*
X126798806Y-101478147D01*
X127036459Y-100923658D01*
X127377291Y-100425888D01*
X127808312Y-100003800D01*
X128313113Y-99673468D01*
X128872459Y-99447477D01*
X129465045Y-99334436D01*
X130068310Y-99338647D01*
X130068310Y-99338647D01*
G37*
G36*
X138068310Y-99338647D02*
X138659255Y-99459951D01*
X139215398Y-99693732D01*
X139715534Y-100031078D01*
X140140621Y-100459143D01*
X140474466Y-100961621D01*
X140704356Y-101519376D01*
X140821464Y-102110814D01*
X140821464Y-102110824D01*
X140821531Y-102111163D01*
X140811910Y-102800216D01*
X140811833Y-102800554D01*
X140811833Y-102800562D01*
X140678257Y-103388501D01*
X140432885Y-103939616D01*
X140085137Y-104432578D01*
X139648262Y-104848609D01*
X139138900Y-105171861D01*
X138576454Y-105390019D01*
X137982347Y-105494776D01*
X137379203Y-105482142D01*
X136790000Y-105352597D01*
X136237182Y-105111077D01*
X135741807Y-104766782D01*
X135322737Y-104332823D01*
X134995938Y-103825730D01*
X134773856Y-103264814D01*
X134664955Y-102671458D01*
X134673377Y-102068241D01*
X134798806Y-101478147D01*
X135036459Y-100923658D01*
X135377291Y-100425888D01*
X135808312Y-100003800D01*
X136313113Y-99673468D01*
X136872459Y-99447477D01*
X137465045Y-99334436D01*
X138068310Y-99338647D01*
X138068310Y-99338647D01*
G37*
G36*
X146068310Y-99338647D02*
X146659255Y-99459951D01*
X147215398Y-99693732D01*
X147715534Y-100031078D01*
X148140621Y-100459143D01*
X148474466Y-100961621D01*
X148704356Y-101519376D01*
X148821464Y-102110814D01*
X148821464Y-102110824D01*
X148821531Y-102111163D01*
X148811910Y-102800216D01*
X148811833Y-102800554D01*
X148811833Y-102800562D01*
X148678257Y-103388501D01*
X148432885Y-103939616D01*
X148085137Y-104432578D01*
X147648262Y-104848609D01*
X147138900Y-105171861D01*
X146576454Y-105390019D01*
X145982347Y-105494776D01*
X145379203Y-105482142D01*
X144790000Y-105352597D01*
X144237182Y-105111077D01*
X143741807Y-104766782D01*
X143322737Y-104332823D01*
X142995938Y-103825730D01*
X142773856Y-103264814D01*
X142664955Y-102671458D01*
X142673377Y-102068241D01*
X142798806Y-101478147D01*
X143036459Y-100923658D01*
X143377291Y-100425888D01*
X143808312Y-100003800D01*
X144313113Y-99673468D01*
X144872459Y-99447477D01*
X145465045Y-99334436D01*
X146068310Y-99338647D01*
X146068310Y-99338647D01*
G37*
M02*
