%TF.GenerationSoftware,KiCad,Pcbnew,4.0.5-e0-6337~49~ubuntu16.04.1*%
%TF.CreationDate,2017-05-23T16:40:37-07:00*%
%TF.ProjectId,2x2-Tilt-Switch-TH,3278322D54696C742D5377697463682D,v1.1*%
%TF.FileFunction,Soldermask,Top*%
%FSLAX46Y46*%
G04 Gerber Fmt 4.6, Leading zero omitted, Abs format (unit mm)*
G04 Created by KiCad (PCBNEW 4.0.5-e0-6337~49~ubuntu16.04.1) date Tue May 23 16:40:37 2017*
%MOMM*%
%LPD*%
G01*
G04 APERTURE LIST*
%ADD10C,0.350000*%
G04 APERTURE END LIST*
D10*
G36*
X4799590Y-26938487D02*
X5390535Y-27059791D01*
X5946678Y-27293572D01*
X6446814Y-27630918D01*
X6871901Y-28058983D01*
X7205746Y-28561461D01*
X7435636Y-29119216D01*
X7552744Y-29710654D01*
X7552744Y-29710664D01*
X7552811Y-29711003D01*
X7543190Y-30400056D01*
X7543113Y-30400394D01*
X7543113Y-30400402D01*
X7409537Y-30988341D01*
X7164165Y-31539456D01*
X6816417Y-32032418D01*
X6379542Y-32448449D01*
X5870180Y-32771701D01*
X5307734Y-32989859D01*
X4713627Y-33094616D01*
X4110483Y-33081982D01*
X3521280Y-32952437D01*
X2968462Y-32710917D01*
X2473087Y-32366622D01*
X2054017Y-31932663D01*
X1727218Y-31425570D01*
X1505136Y-30864654D01*
X1396235Y-30271298D01*
X1404657Y-29668081D01*
X1530086Y-29077987D01*
X1767739Y-28523498D01*
X2108571Y-28025728D01*
X2539592Y-27603640D01*
X3044393Y-27273308D01*
X3603739Y-27047317D01*
X4196325Y-26934276D01*
X4799590Y-26938487D01*
X4799590Y-26938487D01*
G37*
G36*
X12799590Y-26938487D02*
X13390535Y-27059791D01*
X13946678Y-27293572D01*
X14446814Y-27630918D01*
X14871901Y-28058983D01*
X15205746Y-28561461D01*
X15435636Y-29119216D01*
X15552744Y-29710654D01*
X15552744Y-29710664D01*
X15552811Y-29711003D01*
X15543190Y-30400056D01*
X15543113Y-30400394D01*
X15543113Y-30400402D01*
X15409537Y-30988341D01*
X15164165Y-31539456D01*
X14816417Y-32032418D01*
X14379542Y-32448449D01*
X13870180Y-32771701D01*
X13307734Y-32989859D01*
X12713627Y-33094616D01*
X12110483Y-33081982D01*
X11521280Y-32952437D01*
X10968462Y-32710917D01*
X10473087Y-32366622D01*
X10054017Y-31932663D01*
X9727218Y-31425570D01*
X9505136Y-30864654D01*
X9396235Y-30271298D01*
X9404657Y-29668081D01*
X9530086Y-29077987D01*
X9767739Y-28523498D01*
X10108571Y-28025728D01*
X10539592Y-27603640D01*
X11044393Y-27273308D01*
X11603739Y-27047317D01*
X12196325Y-26934276D01*
X12799590Y-26938487D01*
X12799590Y-26938487D01*
G37*
G36*
X8578363Y-25492081D02*
X8763775Y-25530141D01*
X8938277Y-25603495D01*
X9095201Y-25709342D01*
X9228578Y-25843652D01*
X9333325Y-26001311D01*
X9405457Y-26176314D01*
X9442154Y-26361648D01*
X9442154Y-26361658D01*
X9442221Y-26361997D01*
X9439202Y-26578197D01*
X9439126Y-26578531D01*
X9439126Y-26578544D01*
X9397268Y-26762782D01*
X9320280Y-26935699D01*
X9211168Y-27090375D01*
X9074093Y-27220910D01*
X8914274Y-27322334D01*
X8737796Y-27390785D01*
X8551390Y-27423654D01*
X8362142Y-27419689D01*
X8177273Y-27379044D01*
X8003816Y-27303262D01*
X7848388Y-27195237D01*
X7716899Y-27059076D01*
X7614361Y-26899968D01*
X7544678Y-26723970D01*
X7510509Y-26537798D01*
X7513151Y-26348531D01*
X7552507Y-26163379D01*
X7627073Y-25989401D01*
X7734015Y-25833218D01*
X7869253Y-25700782D01*
X8027643Y-25597136D01*
X8203146Y-25526227D01*
X8389076Y-25490760D01*
X8578363Y-25492081D01*
X8578363Y-25492081D01*
G37*
G36*
X4799590Y-18938487D02*
X5390535Y-19059791D01*
X5946678Y-19293572D01*
X6446814Y-19630918D01*
X6871901Y-20058983D01*
X7205746Y-20561461D01*
X7435636Y-21119216D01*
X7552744Y-21710654D01*
X7552744Y-21710664D01*
X7552811Y-21711003D01*
X7543190Y-22400056D01*
X7543113Y-22400394D01*
X7543113Y-22400402D01*
X7409537Y-22988341D01*
X7164165Y-23539456D01*
X6816417Y-24032418D01*
X6379542Y-24448449D01*
X5870180Y-24771701D01*
X5307734Y-24989859D01*
X4713627Y-25094616D01*
X4110483Y-25081982D01*
X3521280Y-24952437D01*
X2968462Y-24710917D01*
X2473087Y-24366622D01*
X2054017Y-23932663D01*
X1727218Y-23425570D01*
X1505136Y-22864654D01*
X1396235Y-22271298D01*
X1404657Y-21668081D01*
X1530086Y-21077987D01*
X1767739Y-20523498D01*
X2108571Y-20025728D01*
X2539592Y-19603640D01*
X3044393Y-19273308D01*
X3603739Y-19047317D01*
X4196325Y-18934276D01*
X4799590Y-18938487D01*
X4799590Y-18938487D01*
G37*
G36*
X12799590Y-18938487D02*
X13390535Y-19059791D01*
X13946678Y-19293572D01*
X14446814Y-19630918D01*
X14871901Y-20058983D01*
X15205746Y-20561461D01*
X15435636Y-21119216D01*
X15552744Y-21710654D01*
X15552744Y-21710664D01*
X15552811Y-21711003D01*
X15543190Y-22400056D01*
X15543113Y-22400394D01*
X15543113Y-22400402D01*
X15409537Y-22988341D01*
X15164165Y-23539456D01*
X14816417Y-24032418D01*
X14379542Y-24448449D01*
X13870180Y-24771701D01*
X13307734Y-24989859D01*
X12713627Y-25094616D01*
X12110483Y-25081982D01*
X11521280Y-24952437D01*
X10968462Y-24710917D01*
X10473087Y-24366622D01*
X10054017Y-23932663D01*
X9727218Y-23425570D01*
X9505136Y-22864654D01*
X9396235Y-22271298D01*
X9404657Y-21668081D01*
X9530086Y-21077987D01*
X9767739Y-20523498D01*
X10108571Y-20025728D01*
X10539592Y-19603640D01*
X11044393Y-19273308D01*
X11603739Y-19047317D01*
X12196325Y-18934276D01*
X12799590Y-18938487D01*
X12799590Y-18938487D01*
G37*
G36*
X8577863Y-22761581D02*
X8763275Y-22799641D01*
X8937777Y-22872995D01*
X9094701Y-22978842D01*
X9228078Y-23113152D01*
X9332825Y-23270811D01*
X9404957Y-23445814D01*
X9441654Y-23631148D01*
X9441654Y-23631158D01*
X9441721Y-23631497D01*
X9438702Y-23847697D01*
X9438626Y-23848031D01*
X9438626Y-23848044D01*
X9396768Y-24032282D01*
X9319780Y-24205199D01*
X9210668Y-24359875D01*
X9073593Y-24490410D01*
X8913774Y-24591834D01*
X8737296Y-24660285D01*
X8550890Y-24693154D01*
X8361642Y-24689189D01*
X8176773Y-24648544D01*
X8003316Y-24572762D01*
X7847888Y-24464737D01*
X7716399Y-24328576D01*
X7613861Y-24169468D01*
X7544178Y-23993470D01*
X7510009Y-23807298D01*
X7512651Y-23618031D01*
X7552007Y-23432879D01*
X7626573Y-23258901D01*
X7733515Y-23102718D01*
X7868753Y-22970282D01*
X8027143Y-22866636D01*
X8202646Y-22795727D01*
X8388576Y-22760260D01*
X8577863Y-22761581D01*
X8577863Y-22761581D01*
G37*
M02*
