%TF.GenerationSoftware,KiCad,Pcbnew,4.0.5-e0-6337~49~ubuntu16.04.1*%
%TF.CreationDate,2017-03-18T11:17:27-07:00*%
%TF.ProjectId,2x2-Tilt-Switch-TH,3278322D54696C742D5377697463682D,1.0*%
%TF.FileFunction,Soldermask,Bot*%
%FSLAX46Y46*%
G04 Gerber Fmt 4.6, Leading zero omitted, Abs format (unit mm)*
G04 Created by KiCad (PCBNEW 4.0.5-e0-6337~49~ubuntu16.04.1) date Sat Mar 18 11:17:27 2017*
%MOMM*%
%LPD*%
G01*
G04 APERTURE LIST*
%ADD10C,0.350000*%
%ADD11C,2.000000*%
%ADD12C,6.600000*%
%ADD13C,6.800000*%
G04 APERTURE END LIST*
D10*
D11*
X8476980Y-31473140D02*
X8476980Y-26456640D01*
D12*
X12794980Y-21503640D02*
X4095480Y-21503640D01*
D13*
X12858480Y-30393640D02*
X4158980Y-30393640D01*
D10*
G36*
X8578363Y-25492081D02*
X8763775Y-25530141D01*
X8938277Y-25603495D01*
X9095201Y-25709342D01*
X9228578Y-25843652D01*
X9333325Y-26001311D01*
X9405457Y-26176314D01*
X9442154Y-26361648D01*
X9442154Y-26361658D01*
X9442221Y-26361997D01*
X9439202Y-26578197D01*
X9439126Y-26578531D01*
X9439126Y-26578544D01*
X9397268Y-26762782D01*
X9320280Y-26935699D01*
X9211168Y-27090375D01*
X9074093Y-27220910D01*
X8914274Y-27322334D01*
X8737796Y-27390785D01*
X8551390Y-27423654D01*
X8362142Y-27419689D01*
X8177273Y-27379044D01*
X8003816Y-27303262D01*
X7848388Y-27195237D01*
X7716899Y-27059076D01*
X7614361Y-26899968D01*
X7544678Y-26723970D01*
X7510509Y-26537798D01*
X7513151Y-26348531D01*
X7552507Y-26163379D01*
X7627073Y-25989401D01*
X7734015Y-25833218D01*
X7869253Y-25700782D01*
X8027643Y-25597136D01*
X8203146Y-25526227D01*
X8389076Y-25490760D01*
X8578363Y-25492081D01*
X8578363Y-25492081D01*
G37*
G36*
X8577863Y-22761581D02*
X8763275Y-22799641D01*
X8937777Y-22872995D01*
X9094701Y-22978842D01*
X9228078Y-23113152D01*
X9332825Y-23270811D01*
X9404957Y-23445814D01*
X9441654Y-23631148D01*
X9441654Y-23631158D01*
X9441721Y-23631497D01*
X9438702Y-23847697D01*
X9438626Y-23848031D01*
X9438626Y-23848044D01*
X9396768Y-24032282D01*
X9319780Y-24205199D01*
X9210668Y-24359875D01*
X9073593Y-24490410D01*
X8913774Y-24591834D01*
X8737296Y-24660285D01*
X8550890Y-24693154D01*
X8361642Y-24689189D01*
X8176773Y-24648544D01*
X8003316Y-24572762D01*
X7847888Y-24464737D01*
X7716399Y-24328576D01*
X7613861Y-24169468D01*
X7544178Y-23993470D01*
X7510009Y-23807298D01*
X7512651Y-23618031D01*
X7552007Y-23432879D01*
X7626573Y-23258901D01*
X7733515Y-23102718D01*
X7868753Y-22970282D01*
X8027143Y-22866636D01*
X8202646Y-22795727D01*
X8388576Y-22760260D01*
X8577863Y-22761581D01*
X8577863Y-22761581D01*
G37*
M02*
