%TF.GenerationSoftware,KiCad,Pcbnew,4.0.5-e0-6337~49~ubuntu16.04.1*%
%TF.CreationDate,2017-03-18T10:44:46-07:00*%
%TF.ProjectId,2x2-Tilt-Switch-TH,3278322D54696C742D5377697463682D,1.0*%
%TF.FileFunction,Soldermask,Bot*%
%FSLAX46Y46*%
G04 Gerber Fmt 4.6, Leading zero omitted, Abs format (unit mm)*
G04 Created by KiCad (PCBNEW 4.0.5-e0-6337~49~ubuntu16.04.1) date Sat Mar 18 10:44:46 2017*
%MOMM*%
%LPD*%
G01*
G04 APERTURE LIST*
%ADD10C,0.350000*%
%ADD11C,7.000000*%
G04 APERTURE END LIST*
D10*
D11*
X12476480Y-22012640D02*
X4476480Y-22012640D01*
X12476480Y-30012640D02*
X4476480Y-30012640D01*
D10*
G36*
X4799590Y-26938487D02*
X5390535Y-27059791D01*
X5946678Y-27293572D01*
X6446814Y-27630918D01*
X6871901Y-28058983D01*
X7205746Y-28561461D01*
X7435636Y-29119216D01*
X7552744Y-29710654D01*
X7552744Y-29710664D01*
X7552811Y-29711003D01*
X7543190Y-30400056D01*
X7543113Y-30400394D01*
X7543113Y-30400402D01*
X7409537Y-30988341D01*
X7164165Y-31539456D01*
X6816417Y-32032418D01*
X6379542Y-32448449D01*
X5870180Y-32771701D01*
X5307734Y-32989859D01*
X4713627Y-33094616D01*
X4110483Y-33081982D01*
X3521280Y-32952437D01*
X2968462Y-32710917D01*
X2473087Y-32366622D01*
X2054017Y-31932663D01*
X1727218Y-31425570D01*
X1505136Y-30864654D01*
X1396235Y-30271298D01*
X1404657Y-29668081D01*
X1530086Y-29077987D01*
X1767739Y-28523498D01*
X2108571Y-28025728D01*
X2539592Y-27603640D01*
X3044393Y-27273308D01*
X3603739Y-27047317D01*
X4196325Y-26934276D01*
X4799590Y-26938487D01*
X4799590Y-26938487D01*
G37*
G36*
X12799590Y-26938487D02*
X13390535Y-27059791D01*
X13946678Y-27293572D01*
X14446814Y-27630918D01*
X14871901Y-28058983D01*
X15205746Y-28561461D01*
X15435636Y-29119216D01*
X15552744Y-29710654D01*
X15552744Y-29710664D01*
X15552811Y-29711003D01*
X15543190Y-30400056D01*
X15543113Y-30400394D01*
X15543113Y-30400402D01*
X15409537Y-30988341D01*
X15164165Y-31539456D01*
X14816417Y-32032418D01*
X14379542Y-32448449D01*
X13870180Y-32771701D01*
X13307734Y-32989859D01*
X12713627Y-33094616D01*
X12110483Y-33081982D01*
X11521280Y-32952437D01*
X10968462Y-32710917D01*
X10473087Y-32366622D01*
X10054017Y-31932663D01*
X9727218Y-31425570D01*
X9505136Y-30864654D01*
X9396235Y-30271298D01*
X9404657Y-29668081D01*
X9530086Y-29077987D01*
X9767739Y-28523498D01*
X10108571Y-28025728D01*
X10539592Y-27603640D01*
X11044393Y-27273308D01*
X11603739Y-27047317D01*
X12196325Y-26934276D01*
X12799590Y-26938487D01*
X12799590Y-26938487D01*
G37*
G36*
X8577863Y-26588081D02*
X8763275Y-26626141D01*
X8937777Y-26699495D01*
X9094701Y-26805342D01*
X9228078Y-26939652D01*
X9332825Y-27097311D01*
X9404957Y-27272314D01*
X9441654Y-27457648D01*
X9441654Y-27457658D01*
X9441721Y-27457997D01*
X9438702Y-27674197D01*
X9438626Y-27674531D01*
X9438626Y-27674544D01*
X9396768Y-27858782D01*
X9319780Y-28031699D01*
X9210668Y-28186375D01*
X9073593Y-28316910D01*
X8913774Y-28418334D01*
X8737296Y-28486785D01*
X8550890Y-28519654D01*
X8361642Y-28515689D01*
X8176773Y-28475044D01*
X8003316Y-28399262D01*
X7847888Y-28291237D01*
X7716399Y-28155076D01*
X7613861Y-27995968D01*
X7544178Y-27819970D01*
X7510009Y-27633798D01*
X7512651Y-27444531D01*
X7552007Y-27259379D01*
X7626573Y-27085401D01*
X7733515Y-26929218D01*
X7868753Y-26796782D01*
X8027143Y-26693136D01*
X8202646Y-26622227D01*
X8388576Y-26586760D01*
X8577863Y-26588081D01*
X8577863Y-26588081D01*
G37*
G36*
X8577863Y-24048081D02*
X8763275Y-24086141D01*
X8937777Y-24159495D01*
X9094701Y-24265342D01*
X9228078Y-24399652D01*
X9332825Y-24557311D01*
X9404957Y-24732314D01*
X9441654Y-24917648D01*
X9441654Y-24917658D01*
X9441721Y-24917997D01*
X9438702Y-25134197D01*
X9438626Y-25134531D01*
X9438626Y-25134544D01*
X9396768Y-25318782D01*
X9319780Y-25491699D01*
X9210668Y-25646375D01*
X9073593Y-25776910D01*
X8913774Y-25878334D01*
X8737296Y-25946785D01*
X8550890Y-25979654D01*
X8361642Y-25975689D01*
X8176773Y-25935044D01*
X8003316Y-25859262D01*
X7847888Y-25751237D01*
X7716399Y-25615076D01*
X7613861Y-25455968D01*
X7544178Y-25279970D01*
X7510009Y-25093798D01*
X7512651Y-24904531D01*
X7552007Y-24719379D01*
X7626573Y-24545401D01*
X7733515Y-24389218D01*
X7868753Y-24256782D01*
X8027143Y-24153136D01*
X8202646Y-24082227D01*
X8388576Y-24046760D01*
X8577863Y-24048081D01*
X8577863Y-24048081D01*
G37*
G36*
X4799590Y-18938487D02*
X5390535Y-19059791D01*
X5946678Y-19293572D01*
X6446814Y-19630918D01*
X6871901Y-20058983D01*
X7205746Y-20561461D01*
X7435636Y-21119216D01*
X7552744Y-21710654D01*
X7552744Y-21710664D01*
X7552811Y-21711003D01*
X7543190Y-22400056D01*
X7543113Y-22400394D01*
X7543113Y-22400402D01*
X7409537Y-22988341D01*
X7164165Y-23539456D01*
X6816417Y-24032418D01*
X6379542Y-24448449D01*
X5870180Y-24771701D01*
X5307734Y-24989859D01*
X4713627Y-25094616D01*
X4110483Y-25081982D01*
X3521280Y-24952437D01*
X2968462Y-24710917D01*
X2473087Y-24366622D01*
X2054017Y-23932663D01*
X1727218Y-23425570D01*
X1505136Y-22864654D01*
X1396235Y-22271298D01*
X1404657Y-21668081D01*
X1530086Y-21077987D01*
X1767739Y-20523498D01*
X2108571Y-20025728D01*
X2539592Y-19603640D01*
X3044393Y-19273308D01*
X3603739Y-19047317D01*
X4196325Y-18934276D01*
X4799590Y-18938487D01*
X4799590Y-18938487D01*
G37*
G36*
X12799590Y-18938487D02*
X13390535Y-19059791D01*
X13946678Y-19293572D01*
X14446814Y-19630918D01*
X14871901Y-20058983D01*
X15205746Y-20561461D01*
X15435636Y-21119216D01*
X15552744Y-21710654D01*
X15552744Y-21710664D01*
X15552811Y-21711003D01*
X15543190Y-22400056D01*
X15543113Y-22400394D01*
X15543113Y-22400402D01*
X15409537Y-22988341D01*
X15164165Y-23539456D01*
X14816417Y-24032418D01*
X14379542Y-24448449D01*
X13870180Y-24771701D01*
X13307734Y-24989859D01*
X12713627Y-25094616D01*
X12110483Y-25081982D01*
X11521280Y-24952437D01*
X10968462Y-24710917D01*
X10473087Y-24366622D01*
X10054017Y-23932663D01*
X9727218Y-23425570D01*
X9505136Y-22864654D01*
X9396235Y-22271298D01*
X9404657Y-21668081D01*
X9530086Y-21077987D01*
X9767739Y-20523498D01*
X10108571Y-20025728D01*
X10539592Y-19603640D01*
X11044393Y-19273308D01*
X11603739Y-19047317D01*
X12196325Y-18934276D01*
X12799590Y-18938487D01*
X12799590Y-18938487D01*
G37*
M02*
