%TF.GenerationSoftware,KiCad,Pcbnew,4.0.5-e0-6337~49~ubuntu16.04.1*%
%TF.CreationDate,2017-02-14T01:41:18-08:00*%
%TF.ProjectId,2x3-LED-RGB-SMT,3278332D4C45442D5247422D534D542E,1.0*%
%TF.FileFunction,Other,Fab,Top*%
%FSLAX46Y46*%
G04 Gerber Fmt 4.6, Leading zero omitted, Abs format (unit mm)*
G04 Created by KiCad (PCBNEW 4.0.5-e0-6337~49~ubuntu16.04.1) date Tue Feb 14 01:41:18 2017*
%MOMM*%
%LPD*%
G01*
G04 APERTURE LIST*
%ADD10C,0.350000*%
%ADD11C,0.100000*%
%ADD12C,0.040640*%
%ADD13C,0.150000*%
G04 APERTURE END LIST*
D10*
D11*
X28133821Y-32083779D02*
G75*
G03X28133821Y-32083779I-141421J0D01*
G01*
X29592400Y-33225200D02*
X29592400Y-31525200D01*
X27492400Y-33225200D02*
X29592400Y-33225200D01*
X27492400Y-32125200D02*
X27492400Y-33225200D01*
X27992400Y-31525200D02*
X27492400Y-32125200D01*
X27992400Y-31525200D02*
X29592400Y-31525200D01*
D12*
X40792400Y-24725200D02*
X24892400Y-24725200D01*
X40792400Y-40325200D02*
X24892400Y-40325200D01*
X44592400Y-36425200D02*
X44592400Y-28625200D01*
X20992400Y-36425200D02*
X20992400Y-28625200D01*
X44592400Y-28625200D02*
G75*
G03X40692400Y-24725200I-3900000J0D01*
G01*
X40692400Y-40325200D02*
G75*
G03X44592400Y-36425200I0J3900000D01*
G01*
X20992400Y-36425200D02*
G75*
G03X24892400Y-40325200I3900000J0D01*
G01*
X24892400Y-24725200D02*
G75*
G03X20992400Y-28625200I0J-3900000D01*
G01*
D13*
X27573353Y-34677581D02*
X27097162Y-34677581D01*
X27097162Y-33677581D01*
X27906686Y-34153771D02*
X28240020Y-34153771D01*
X28382877Y-34677581D02*
X27906686Y-34677581D01*
X27906686Y-33677581D01*
X28382877Y-33677581D01*
X28811448Y-34677581D02*
X28811448Y-33677581D01*
X29049543Y-33677581D01*
X29192401Y-33725200D01*
X29287639Y-33820438D01*
X29335258Y-33915676D01*
X29382877Y-34106152D01*
X29382877Y-34249010D01*
X29335258Y-34439486D01*
X29287639Y-34534724D01*
X29192401Y-34629962D01*
X29049543Y-34677581D01*
X28811448Y-34677581D01*
X30335258Y-34677581D02*
X29763829Y-34677581D01*
X30049543Y-34677581D02*
X30049543Y-33677581D01*
X29954305Y-33820438D01*
X29859067Y-33915676D01*
X29763829Y-33963295D01*
M02*
