G04 This is an RS-274x file exported by *
G04 gerbv version 2.6.0 *
G04 More information is available about gerbv at *
G04 http://gerbv.gpleda.org/ *
G04 --End of header info--*
%MOIN*%
%FSLAX34Y34*%
%IPPOS*%
G04 --Define apertures--*
%ADD10C,0.0138*%
%ADD11C,0.0039*%
%ADD12C,0.0016*%
%ADD13C,0.0059*%
G04 --Start main section--*
G54D11*
G01X0012044Y-012648D02*
G01X0012044Y-012451D01*
G01X0012044Y-012648D02*
G01X0012556Y-012136D01*
G01X0011824Y-012766D02*
G75*
G03X0011824Y-012766I-000056J0000000D01*
G01X0011651Y-013081D02*
G01X0011651Y-012411D01*
G01X0010824Y-013081D02*
G01X0011651Y-013081D01*
G01X0010824Y-012648D02*
G01X0010824Y-013081D01*
G01X0011021Y-012411D02*
G01X0010824Y-012648D01*
G01X0011021Y-012411D02*
G01X0011651Y-012411D01*
G54D12*
G01X0016060Y-009734D02*
G01X0009800Y-009734D01*
G01X0016060Y-015876D02*
G01X0009800Y-015876D01*
G01X0017556Y-014341D02*
G01X0017556Y-011270D01*
G01X0008265Y-014341D02*
G01X0008265Y-011270D01*
G01X0017556Y-011270D02*
G75*
G03X0016021Y-009734I-001535J0000000D01*
G01X0016021Y-015876D02*
G75*
G03X0017556Y-014341I0000000J0001535D01*
G01X0008265Y-014341D02*
G75*
G03X0009800Y-015876I0001535J0000000D01*
G01X0009800Y-009734D02*
G75*
G03X0008265Y-011270I0000000J-001535D01*
G54D11*
G01X0012241Y-012648D02*
G01X0012044Y-012648D01*
G54D13*
G01X0010856Y-013653D02*
G01X0010668Y-013653D01*
G01X0010668Y-013653D02*
G01X0010668Y-013259D01*
G01X0010987Y-013446D02*
G01X0011118Y-013446D01*
G01X0011174Y-013653D02*
G01X0010987Y-013653D01*
G01X0010987Y-013653D02*
G01X0010987Y-013259D01*
G01X0010987Y-013259D02*
G01X0011174Y-013259D01*
G01X0011343Y-013653D02*
G01X0011343Y-013259D01*
G01X0011343Y-013259D02*
G01X0011437Y-013259D01*
G01X0011437Y-013259D02*
G01X0011493Y-013278D01*
G01X0011493Y-013278D02*
G01X0011531Y-013315D01*
G01X0011531Y-013315D02*
G01X0011549Y-013353D01*
G01X0011549Y-013353D02*
G01X0011568Y-013428D01*
G01X0011568Y-013428D02*
G01X0011568Y-013484D01*
G01X0011568Y-013484D02*
G01X0011549Y-013559D01*
G01X0011549Y-013559D02*
G01X0011531Y-013596D01*
G01X0011531Y-013596D02*
G01X0011493Y-013634D01*
G01X0011493Y-013634D02*
G01X0011437Y-013653D01*
G01X0011437Y-013653D02*
G01X0011343Y-013653D01*
G01X0011943Y-013653D02*
G01X0011718Y-013653D01*
G01X0011831Y-013653D02*
G01X0011831Y-013259D01*
G01X0011831Y-013259D02*
G01X0011793Y-013315D01*
G01X0011793Y-013315D02*
G01X0011756Y-013353D01*
G01X0011756Y-013353D02*
G01X0011718Y-013371D01*
G01X0011823Y-011999D02*
G01X0011823Y-011605D01*
G01X0011823Y-011605D02*
G01X0011973Y-011605D01*
G01X0011973Y-011605D02*
G01X0012011Y-011624D01*
G01X0012011Y-011624D02*
G01X0012029Y-011643D01*
G01X0012029Y-011643D02*
G01X0012048Y-011680D01*
G01X0012048Y-011680D02*
G01X0012048Y-011737D01*
G01X0012048Y-011737D02*
G01X0012029Y-011774D01*
G01X0012029Y-011774D02*
G01X0012011Y-011793D01*
G01X0012011Y-011793D02*
G01X0011973Y-011812D01*
G01X0011973Y-011812D02*
G01X0011823Y-011812D01*
G01X0012273Y-011999D02*
G01X0012235Y-011980D01*
G01X0012235Y-011980D02*
G01X0012217Y-011962D01*
G01X0012217Y-011962D02*
G01X0012198Y-011924D01*
G01X0012198Y-011924D02*
G01X0012198Y-011812D01*
G01X0012198Y-011812D02*
G01X0012217Y-011774D01*
G01X0012217Y-011774D02*
G01X0012235Y-011755D01*
G01X0012235Y-011755D02*
G01X0012273Y-011737D01*
G01X0012273Y-011737D02*
G01X0012329Y-011737D01*
G01X0012329Y-011737D02*
G01X0012367Y-011755D01*
G01X0012367Y-011755D02*
G01X0012385Y-011774D01*
G01X0012385Y-011774D02*
G01X0012404Y-011812D01*
G01X0012404Y-011812D02*
G01X0012404Y-011924D01*
G01X0012404Y-011924D02*
G01X0012385Y-011962D01*
G01X0012385Y-011962D02*
G01X0012367Y-011980D01*
G01X0012367Y-011980D02*
G01X0012329Y-011999D01*
G01X0012329Y-011999D02*
G01X0012273Y-011999D01*
G01X0012629Y-011999D02*
G01X0012592Y-011980D01*
G01X0012592Y-011980D02*
G01X0012573Y-011943D01*
G01X0012573Y-011943D02*
G01X0012573Y-011605D01*
G01X0012948Y-011999D02*
G01X0012948Y-011793D01*
G01X0012948Y-011793D02*
G01X0012929Y-011755D01*
G01X0012929Y-011755D02*
G01X0012892Y-011737D01*
G01X0012892Y-011737D02*
G01X0012817Y-011737D01*
G01X0012817Y-011737D02*
G01X0012779Y-011755D01*
G01X0012948Y-011980D02*
G01X0012910Y-011999D01*
G01X0012910Y-011999D02*
G01X0012817Y-011999D01*
G01X0012817Y-011999D02*
G01X0012779Y-011980D01*
G01X0012779Y-011980D02*
G01X0012760Y-011943D01*
G01X0012760Y-011943D02*
G01X0012760Y-011905D01*
G01X0012760Y-011905D02*
G01X0012779Y-011868D01*
G01X0012779Y-011868D02*
G01X0012817Y-011849D01*
G01X0012817Y-011849D02*
G01X0012910Y-011849D01*
G01X0012910Y-011849D02*
G01X0012948Y-011830D01*
G01X0013135Y-011999D02*
G01X0013135Y-011737D01*
G01X0013135Y-011812D02*
G01X0013154Y-011774D01*
G01X0013154Y-011774D02*
G01X0013173Y-011755D01*
G01X0013173Y-011755D02*
G01X0013210Y-011737D01*
G01X0013210Y-011737D02*
G01X0013248Y-011737D01*
G01X0013379Y-011999D02*
G01X0013379Y-011737D01*
G01X0013379Y-011605D02*
G01X0013360Y-011624D01*
G01X0013360Y-011624D02*
G01X0013379Y-011643D01*
G01X0013379Y-011643D02*
G01X0013398Y-011624D01*
G01X0013398Y-011624D02*
G01X0013379Y-011605D01*
G01X0013379Y-011605D02*
G01X0013379Y-011643D01*
G01X0013510Y-011737D02*
G01X0013660Y-011737D01*
G01X0013567Y-011605D02*
G01X0013567Y-011943D01*
G01X0013567Y-011943D02*
G01X0013585Y-011980D01*
G01X0013585Y-011980D02*
G01X0013623Y-011999D01*
G01X0013623Y-011999D02*
G01X0013660Y-011999D01*
G01X0013754Y-011737D02*
G01X0013848Y-011999D01*
G01X0013942Y-011737D02*
G01X0013848Y-011999D01*
G01X0013848Y-011999D02*
G01X0013810Y-012093D01*
G01X0013810Y-012093D02*
G01X0013792Y-012112D01*
G01X0013792Y-012112D02*
G01X0013754Y-012130D01*
G01X0014391Y-011999D02*
G01X0014391Y-011605D01*
G01X0014391Y-011605D02*
G01X0014523Y-011887D01*
G01X0014523Y-011887D02*
G01X0014654Y-011605D01*
G01X0014654Y-011605D02*
G01X0014654Y-011999D01*
G01X0015010Y-011999D02*
G01X0015010Y-011793D01*
G01X0015010Y-011793D02*
G01X0014991Y-011755D01*
G01X0014991Y-011755D02*
G01X0014954Y-011737D01*
G01X0014954Y-011737D02*
G01X0014879Y-011737D01*
G01X0014879Y-011737D02*
G01X0014841Y-011755D01*
G01X0015010Y-011980D02*
G01X0014973Y-011999D01*
G01X0014973Y-011999D02*
G01X0014879Y-011999D01*
G01X0014879Y-011999D02*
G01X0014841Y-011980D01*
G01X0014841Y-011980D02*
G01X0014823Y-011943D01*
G01X0014823Y-011943D02*
G01X0014823Y-011905D01*
G01X0014823Y-011905D02*
G01X0014841Y-011868D01*
G01X0014841Y-011868D02*
G01X0014879Y-011849D01*
G01X0014879Y-011849D02*
G01X0014973Y-011849D01*
G01X0014973Y-011849D02*
G01X0015010Y-011830D01*
G01X0015198Y-011999D02*
G01X0015198Y-011737D01*
G01X0015198Y-011812D02*
G01X0015216Y-011774D01*
G01X0015216Y-011774D02*
G01X0015235Y-011755D01*
G01X0015235Y-011755D02*
G01X0015273Y-011737D01*
G01X0015273Y-011737D02*
G01X0015310Y-011737D01*
G01X0015441Y-011999D02*
G01X0015441Y-011605D01*
G01X0015479Y-011849D02*
G01X0015591Y-011999D01*
G01X0015591Y-011737D02*
G01X0015441Y-011887D01*
G01X0010661Y-012511D02*
G01X0010436Y-012511D01*
G01X0010548Y-012511D02*
G01X0010548Y-012117D01*
G01X0010548Y-012117D02*
G01X0010511Y-012173D01*
G01X0010511Y-012173D02*
G01X0010473Y-012211D01*
G01X0010473Y-012211D02*
G01X0010436Y-012230D01*
G01X0000000Y0000000D02*
G54D12*
G01X0016060Y-009734D02*
G01X0009800Y-009734D01*
G01X0016060Y-015876D02*
G01X0009800Y-015876D01*
G01X0017556Y-014341D02*
G01X0017556Y-011270D01*
G01X0008265Y-014341D02*
G01X0008265Y-011270D01*
G01X0017556Y-011270D02*
G75*
G03X0016021Y-009734I-001535J0000000D01*
G01X0016021Y-015876D02*
G75*
G03X0017556Y-014341I0000000J0001535D01*
G01X0008265Y-014341D02*
G75*
G03X0009800Y-015876I0001535J0000000D01*
G01X0009800Y-009734D02*
G75*
G03X0008265Y-011270I0000000J-001535D01*
M02*
