%TF.GenerationSoftware,KiCad,Pcbnew,5.0.0-fee4fd1~66~ubuntu16.04.1*%
%TF.CreationDate,2018-09-24T23:22:23-07:00*%
%TF.ProjectId,3x4-CR2032-Coin-Cell-On-Off-Switch,3378342D4352323033322D436F696E2D,v1.1*%
%TF.SameCoordinates,Original*%
%TF.FileFunction,Copper,L2,Bot,Signal*%
%TF.FilePolarity,Positive*%
%FSLAX46Y46*%
G04 Gerber Fmt 4.6, Leading zero omitted, Abs format (unit mm)*
G04 Created by KiCad (PCBNEW 5.0.0-fee4fd1~66~ubuntu16.04.1) date Mon Sep 24 23:22:23 2018*
%MOMM*%
%LPD*%
G01*
G04 APERTURE LIST*
%ADD10C,1.016000*%
%ADD11C,0.762000*%
%ADD12C,6.000000*%
%ADD13C,1.524000*%
%ADD14C,1.016000*%
%ADD15C,0.350000*%
G04 APERTURE END LIST*
D10*
X26510000Y-60090000D02*
X30304200Y-60096400D01*
X24960000Y-67140000D02*
X24960000Y-61890000D01*
X26510000Y-60090000D02*
X24960000Y-61890000D01*
X24960000Y-67140000D02*
X23710000Y-68140000D01*
D11*
X21210000Y-72890000D02*
X21210000Y-67890000D01*
D10*
X32010000Y-49490000D02*
X32010000Y-64190000D01*
X32010000Y-49490000D02*
X30010000Y-48490000D01*
X30710000Y-64190000D02*
X32010000Y-64190000D01*
D12*
X13210000Y-48390000D03*
X29210000Y-48390000D03*
X13210000Y-64390000D03*
X29210000Y-64390000D03*
X13210000Y-72390000D03*
X21210000Y-72390000D03*
X29210000Y-72390000D03*
D13*
X21270490Y-68078446D03*
X18781290Y-68078446D03*
X23759690Y-68078446D03*
D14*
X30310000Y-60096400D03*
D15*
X21210000Y-56390000D03*
X13210000Y-56390000D03*
X29210000Y-56390000D03*
X13210000Y-48390000D03*
X21210000Y-48390000D03*
X29210000Y-48390000D03*
X13210000Y-64390000D03*
X21210000Y-64390000D03*
X29210000Y-64390000D03*
X13210000Y-72390000D03*
X21210000Y-72390000D03*
X29210000Y-72390000D03*
X21270490Y-68078446D03*
X18781290Y-68078446D03*
X23759690Y-68078446D03*
X30310000Y-60096400D03*
M02*
