%TF.GenerationSoftware,KiCad,Pcbnew,4.0.7-e2-6376~58~ubuntu16.04.1*%
%TF.CreationDate,2018-08-07T12:57:56-07:00*%
%TF.ProjectId,3x4-CR2032-Coin-Cell-On-Off-Switch,3378342D4352323033322D436F696E2D,1.0*%
%TF.FileFunction,Legend,Top*%
%FSLAX46Y46*%
G04 Gerber Fmt 4.6, Leading zero omitted, Abs format (unit mm)*
G04 Created by KiCad (PCBNEW 4.0.7-e2-6376~58~ubuntu16.04.1) date Tue Aug  7 12:57:56 2018*
%MOMM*%
%LPD*%
G01*
G04 APERTURE LIST*
%ADD10C,0.350000*%
%ADD11C,8.000000*%
%ADD12C,0.152400*%
%ADD13C,0.762000*%
%ADD14C,0.150000*%
%ADD15C,0.600000*%
%ADD16R,2.752400X5.712400*%
%ADD17R,9.152400X13.952400*%
%ADD18C,6.152400*%
%ADD19C,1.676400*%
G04 APERTURE END LIST*
D10*
D11*
X13210000Y-48390000D02*
X13210000Y-72390000D01*
X13310000Y-48390000D02*
X29210000Y-48390000D01*
D12*
X27270490Y-70110446D02*
X27270490Y-66046446D01*
X15270490Y-70110446D02*
X27270490Y-70110446D01*
X15270490Y-66046446D02*
X27270490Y-66046446D01*
X15270490Y-70110446D02*
X15270490Y-66046446D01*
D13*
X29460000Y-72640000D02*
X20960000Y-72640000D01*
X29460000Y-72640000D02*
X29460000Y-64390000D01*
D14*
X30828152Y-67778381D02*
X31018629Y-67778381D01*
X31113867Y-67826000D01*
X31209105Y-67921238D01*
X31256724Y-68111714D01*
X31256724Y-68445048D01*
X31209105Y-68635524D01*
X31113867Y-68730762D01*
X31018629Y-68778381D01*
X30828152Y-68778381D01*
X30732914Y-68730762D01*
X30637676Y-68635524D01*
X30590057Y-68445048D01*
X30590057Y-68111714D01*
X30637676Y-67921238D01*
X30732914Y-67826000D01*
X30828152Y-67778381D01*
X31685295Y-68778381D02*
X31685295Y-67778381D01*
X32256724Y-68778381D01*
X32256724Y-67778381D01*
%LPC*%
D15*
X15159520Y-62438996D02*
G75*
G03X15940500Y-65088500I-1949520J-2014504D01*
G01*
X15886926Y-48261000D02*
G75*
G03X14797500Y-50544507I-2676926J-124507D01*
G01*
X28045013Y-50851851D02*
G75*
G03X26481500Y-48324500I1163873J2467314D01*
G01*
X26854846Y-65735677D02*
G75*
G03X27497500Y-62294500I2378027J1336491D01*
G01*
X19901195Y-69976767D02*
G75*
G03X22557200Y-69951600I1350897J-2403660D01*
G01*
D16*
X31410000Y-56390000D03*
D17*
X21206000Y-56644000D03*
D16*
X11010000Y-56390000D03*
D18*
X13210000Y-72390000D03*
X29210000Y-72390000D03*
D19*
X21270490Y-68078446D03*
X18781290Y-68078446D03*
X23759690Y-68078446D03*
M02*
