%TF.GenerationSoftware,KiCad,Pcbnew,5.0.2-bee76a0~70~ubuntu16.04.1*%
%TF.CreationDate,2019-04-24T07:44:42-07:00*%
%TF.ProjectId,3x4-CR2032-Coin-Cell-On-Off-Switch,3378342d-4352-4323-9033-322d436f696e,v1.2*%
%TF.SameCoordinates,Original*%
%TF.FileFunction,Soldermask,Bot*%
%TF.FilePolarity,Negative*%
%FSLAX46Y46*%
G04 Gerber Fmt 4.6, Leading zero omitted, Abs format (unit mm)*
G04 Created by KiCad (PCBNEW 5.0.2-bee76a0~70~ubuntu16.04.1) date Wed Apr 24 07:44:42 2019*
%MOMM*%
%LPD*%
G01*
G04 APERTURE LIST*
%ADD10C,0.350000*%
G04 APERTURE END LIST*
D10*
G36*
X13740046Y-69177683D02*
X14159159Y-69261049D01*
X14751345Y-69506341D01*
X14751347Y-69506342D01*
X15017826Y-69684398D01*
X15284306Y-69862454D01*
X15737546Y-70315694D01*
X16093659Y-70848655D01*
X16338951Y-71440841D01*
X16464000Y-72069510D01*
X16464000Y-72710490D01*
X16338951Y-73339159D01*
X16093659Y-73931345D01*
X15737546Y-74464306D01*
X15284306Y-74917546D01*
X15017825Y-75095603D01*
X14751347Y-75273658D01*
X14751346Y-75273659D01*
X14751345Y-75273659D01*
X14159159Y-75518951D01*
X13740046Y-75602317D01*
X13530491Y-75644000D01*
X12889509Y-75644000D01*
X12679954Y-75602317D01*
X12260841Y-75518951D01*
X11668655Y-75273659D01*
X11668654Y-75273659D01*
X11668653Y-75273658D01*
X11402175Y-75095603D01*
X11135694Y-74917546D01*
X10682454Y-74464306D01*
X10326341Y-73931345D01*
X10081049Y-73339159D01*
X9956000Y-72710490D01*
X9956000Y-72069510D01*
X10081049Y-71440841D01*
X10326341Y-70848655D01*
X10682454Y-70315694D01*
X11135694Y-69862454D01*
X11402174Y-69684398D01*
X11668653Y-69506342D01*
X11668655Y-69506341D01*
X12260841Y-69261049D01*
X12679954Y-69177683D01*
X12889509Y-69136000D01*
X13530491Y-69136000D01*
X13740046Y-69177683D01*
X13740046Y-69177683D01*
G37*
G36*
X29740046Y-69177683D02*
X30159159Y-69261049D01*
X30751345Y-69506341D01*
X30751347Y-69506342D01*
X31017826Y-69684398D01*
X31284306Y-69862454D01*
X31737546Y-70315694D01*
X32093659Y-70848655D01*
X32338951Y-71440841D01*
X32464000Y-72069510D01*
X32464000Y-72710490D01*
X32338951Y-73339159D01*
X32093659Y-73931345D01*
X31737546Y-74464306D01*
X31284306Y-74917546D01*
X31017825Y-75095603D01*
X30751347Y-75273658D01*
X30751346Y-75273659D01*
X30751345Y-75273659D01*
X30159159Y-75518951D01*
X29740046Y-75602317D01*
X29530491Y-75644000D01*
X28889509Y-75644000D01*
X28679954Y-75602317D01*
X28260841Y-75518951D01*
X27668655Y-75273659D01*
X27668654Y-75273659D01*
X27668653Y-75273658D01*
X27402175Y-75095603D01*
X27135694Y-74917546D01*
X26682454Y-74464306D01*
X26326341Y-73931345D01*
X26081049Y-73339159D01*
X25956000Y-72710490D01*
X25956000Y-72069510D01*
X26081049Y-71440841D01*
X26326341Y-70848655D01*
X26682454Y-70315694D01*
X27135694Y-69862454D01*
X27402174Y-69684398D01*
X27668653Y-69506342D01*
X27668655Y-69506341D01*
X28260841Y-69261049D01*
X28679954Y-69177683D01*
X28889509Y-69136000D01*
X29530491Y-69136000D01*
X29740046Y-69177683D01*
X29740046Y-69177683D01*
G37*
G36*
X24056047Y-67101490D02*
X24240944Y-67178077D01*
X24240946Y-67178078D01*
X24407352Y-67289267D01*
X24548868Y-67430783D01*
X24660059Y-67597192D01*
X24679448Y-67644000D01*
X24736646Y-67782090D01*
X24775690Y-67978379D01*
X24775690Y-68178513D01*
X24736646Y-68374802D01*
X24660058Y-68559702D01*
X24548869Y-68726108D01*
X24407352Y-68867625D01*
X24240946Y-68978814D01*
X24240945Y-68978815D01*
X24240944Y-68978815D01*
X24056047Y-69055402D01*
X23859758Y-69094446D01*
X23659622Y-69094446D01*
X23463333Y-69055402D01*
X23278436Y-68978815D01*
X23278435Y-68978815D01*
X23278434Y-68978814D01*
X23112028Y-68867625D01*
X22970511Y-68726108D01*
X22859322Y-68559702D01*
X22782734Y-68374802D01*
X22743690Y-68178513D01*
X22743690Y-67978379D01*
X22782734Y-67782090D01*
X22839933Y-67644000D01*
X22859321Y-67597192D01*
X22970512Y-67430783D01*
X23112028Y-67289267D01*
X23278434Y-67178078D01*
X23278436Y-67178077D01*
X23463333Y-67101490D01*
X23659622Y-67062446D01*
X23859758Y-67062446D01*
X24056047Y-67101490D01*
X24056047Y-67101490D01*
G37*
G36*
X19077647Y-67101490D02*
X19262544Y-67178077D01*
X19262546Y-67178078D01*
X19428952Y-67289267D01*
X19570468Y-67430783D01*
X19681659Y-67597192D01*
X19701048Y-67644000D01*
X19758246Y-67782090D01*
X19797290Y-67978379D01*
X19797290Y-68178513D01*
X19758246Y-68374802D01*
X19681658Y-68559702D01*
X19570469Y-68726108D01*
X19428952Y-68867625D01*
X19262546Y-68978814D01*
X19262545Y-68978815D01*
X19262544Y-68978815D01*
X19077647Y-69055402D01*
X18881358Y-69094446D01*
X18681222Y-69094446D01*
X18484933Y-69055402D01*
X18300036Y-68978815D01*
X18300035Y-68978815D01*
X18300034Y-68978814D01*
X18133628Y-68867625D01*
X17992111Y-68726108D01*
X17880922Y-68559702D01*
X17804334Y-68374802D01*
X17765290Y-68178513D01*
X17765290Y-67978379D01*
X17804334Y-67782090D01*
X17861533Y-67644000D01*
X17880921Y-67597192D01*
X17992112Y-67430783D01*
X18133628Y-67289267D01*
X18300034Y-67178078D01*
X18300036Y-67178077D01*
X18484933Y-67101490D01*
X18681222Y-67062446D01*
X18881358Y-67062446D01*
X19077647Y-67101490D01*
X19077647Y-67101490D01*
G37*
G36*
X22010397Y-61751450D02*
X22509769Y-61958297D01*
X22959199Y-62258597D01*
X23341403Y-62640801D01*
X23641703Y-63090231D01*
X23848550Y-63589603D01*
X23954000Y-64119740D01*
X23954000Y-64660260D01*
X23848550Y-65190397D01*
X23641703Y-65689769D01*
X23341403Y-66139199D01*
X22959199Y-66521403D01*
X22509769Y-66821703D01*
X22010397Y-67028550D01*
X21756026Y-67079147D01*
X21746497Y-67082038D01*
X21737714Y-67086732D01*
X21730016Y-67093050D01*
X21723698Y-67100748D01*
X21719004Y-67109531D01*
X21716113Y-67119060D01*
X21715137Y-67128971D01*
X21716113Y-67138882D01*
X21719004Y-67148411D01*
X21723698Y-67157194D01*
X21730016Y-67164892D01*
X21737714Y-67171210D01*
X21746495Y-67175903D01*
X21751746Y-67178078D01*
X21918152Y-67289267D01*
X22059668Y-67430783D01*
X22170859Y-67597192D01*
X22190248Y-67644000D01*
X22247446Y-67782090D01*
X22286490Y-67978379D01*
X22286490Y-68178513D01*
X22247446Y-68374802D01*
X22170858Y-68559702D01*
X22059669Y-68726108D01*
X21918152Y-68867625D01*
X21751746Y-68978814D01*
X21751745Y-68978815D01*
X21751744Y-68978815D01*
X21566847Y-69055402D01*
X21370558Y-69094446D01*
X21170422Y-69094446D01*
X20974133Y-69055402D01*
X20789236Y-68978815D01*
X20789235Y-68978815D01*
X20789234Y-68978814D01*
X20622828Y-68867625D01*
X20481311Y-68726108D01*
X20370122Y-68559702D01*
X20293534Y-68374802D01*
X20254490Y-68178513D01*
X20254490Y-67978379D01*
X20293534Y-67782090D01*
X20350733Y-67644000D01*
X20370121Y-67597192D01*
X20481312Y-67430783D01*
X20622828Y-67289267D01*
X20772630Y-67189172D01*
X20780320Y-67182861D01*
X20786638Y-67175163D01*
X20791332Y-67166380D01*
X20794223Y-67156851D01*
X20795199Y-67146940D01*
X20794223Y-67137030D01*
X20791332Y-67127500D01*
X20786638Y-67118717D01*
X20780320Y-67111019D01*
X20772622Y-67104701D01*
X20763839Y-67100007D01*
X20754310Y-67097116D01*
X20409603Y-67028550D01*
X19910231Y-66821703D01*
X19460801Y-66521403D01*
X19078597Y-66139199D01*
X18778297Y-65689769D01*
X18571450Y-65190397D01*
X18466000Y-64660260D01*
X18466000Y-64119740D01*
X18571450Y-63589603D01*
X18778297Y-63090231D01*
X19078597Y-62640801D01*
X19460801Y-62258597D01*
X19910231Y-61958297D01*
X20409603Y-61751450D01*
X20939740Y-61646000D01*
X21480260Y-61646000D01*
X22010397Y-61751450D01*
X22010397Y-61751450D01*
G37*
G36*
X29740046Y-61177683D02*
X30159159Y-61261049D01*
X30751345Y-61506341D01*
X30751347Y-61506342D01*
X30960360Y-61646000D01*
X31284306Y-61862454D01*
X31737546Y-62315694D01*
X31737547Y-62315696D01*
X31954776Y-62640801D01*
X32093659Y-62848655D01*
X32338951Y-63440841D01*
X32464000Y-64069510D01*
X32464000Y-64710490D01*
X32338951Y-65339159D01*
X32193723Y-65689769D01*
X32093658Y-65931347D01*
X31915603Y-66197825D01*
X31737546Y-66464306D01*
X31284306Y-66917546D01*
X31118177Y-67028550D01*
X30751347Y-67273658D01*
X30751346Y-67273659D01*
X30751345Y-67273659D01*
X30159159Y-67518951D01*
X29765822Y-67597190D01*
X29530491Y-67644000D01*
X28889509Y-67644000D01*
X28654178Y-67597190D01*
X28260841Y-67518951D01*
X27668655Y-67273659D01*
X27668654Y-67273659D01*
X27668653Y-67273658D01*
X27301823Y-67028550D01*
X27135694Y-66917546D01*
X26682454Y-66464306D01*
X26504397Y-66197825D01*
X26326342Y-65931347D01*
X26226277Y-65689769D01*
X26081049Y-65339159D01*
X25956000Y-64710490D01*
X25956000Y-64069510D01*
X26081049Y-63440841D01*
X26326341Y-62848655D01*
X26465225Y-62640801D01*
X26682453Y-62315696D01*
X26682454Y-62315694D01*
X27135694Y-61862454D01*
X27459640Y-61646000D01*
X27668653Y-61506342D01*
X27668655Y-61506341D01*
X28260841Y-61261049D01*
X28679954Y-61177683D01*
X28889509Y-61136000D01*
X29530491Y-61136000D01*
X29740046Y-61177683D01*
X29740046Y-61177683D01*
G37*
G36*
X13740046Y-61177683D02*
X14159159Y-61261049D01*
X14751345Y-61506341D01*
X14751347Y-61506342D01*
X14960360Y-61646000D01*
X15284306Y-61862454D01*
X15737546Y-62315694D01*
X15737547Y-62315696D01*
X15954776Y-62640801D01*
X16093659Y-62848655D01*
X16338951Y-63440841D01*
X16464000Y-64069510D01*
X16464000Y-64710490D01*
X16338951Y-65339159D01*
X16193723Y-65689769D01*
X16093658Y-65931347D01*
X15915603Y-66197825D01*
X15737546Y-66464306D01*
X15284306Y-66917546D01*
X15118177Y-67028550D01*
X14751347Y-67273658D01*
X14751346Y-67273659D01*
X14751345Y-67273659D01*
X14159159Y-67518951D01*
X13765822Y-67597190D01*
X13530491Y-67644000D01*
X12889509Y-67644000D01*
X12654178Y-67597190D01*
X12260841Y-67518951D01*
X11668655Y-67273659D01*
X11668654Y-67273659D01*
X11668653Y-67273658D01*
X11301823Y-67028550D01*
X11135694Y-66917546D01*
X10682454Y-66464306D01*
X10504397Y-66197825D01*
X10326342Y-65931347D01*
X10226277Y-65689769D01*
X10081049Y-65339159D01*
X9956000Y-64710490D01*
X9956000Y-64069510D01*
X10081049Y-63440841D01*
X10326341Y-62848655D01*
X10465225Y-62640801D01*
X10682453Y-62315696D01*
X10682454Y-62315694D01*
X11135694Y-61862454D01*
X11459640Y-61646000D01*
X11668653Y-61506342D01*
X11668655Y-61506341D01*
X12260841Y-61261049D01*
X12679954Y-61177683D01*
X12889509Y-61136000D01*
X13530491Y-61136000D01*
X13740046Y-61177683D01*
X13740046Y-61177683D01*
G37*
G36*
X22010397Y-53751450D02*
X22509769Y-53958297D01*
X22959199Y-54258597D01*
X23341403Y-54640801D01*
X23641703Y-55090231D01*
X23848550Y-55589603D01*
X23954000Y-56119740D01*
X23954000Y-56660260D01*
X23848550Y-57190397D01*
X23641703Y-57689769D01*
X23341403Y-58139199D01*
X22959199Y-58521403D01*
X22509769Y-58821703D01*
X22010397Y-59028550D01*
X21480260Y-59134000D01*
X20939740Y-59134000D01*
X20409603Y-59028550D01*
X19910231Y-58821703D01*
X19460801Y-58521403D01*
X19078597Y-58139199D01*
X18778297Y-57689769D01*
X18571450Y-57190397D01*
X18466000Y-56660260D01*
X18466000Y-56119740D01*
X18571450Y-55589603D01*
X18778297Y-55090231D01*
X19078597Y-54640801D01*
X19460801Y-54258597D01*
X19910231Y-53958297D01*
X20409603Y-53751450D01*
X20939740Y-53646000D01*
X21480260Y-53646000D01*
X22010397Y-53751450D01*
X22010397Y-53751450D01*
G37*
G36*
X30010397Y-53751450D02*
X30509769Y-53958297D01*
X30959199Y-54258597D01*
X31341403Y-54640801D01*
X31641703Y-55090231D01*
X31848550Y-55589603D01*
X31954000Y-56119740D01*
X31954000Y-56660260D01*
X31848550Y-57190397D01*
X31641703Y-57689769D01*
X31341403Y-58139199D01*
X30959199Y-58521403D01*
X30509769Y-58821703D01*
X30010397Y-59028550D01*
X29480260Y-59134000D01*
X28939740Y-59134000D01*
X28409603Y-59028550D01*
X27910231Y-58821703D01*
X27460801Y-58521403D01*
X27078597Y-58139199D01*
X26778297Y-57689769D01*
X26571450Y-57190397D01*
X26466000Y-56660260D01*
X26466000Y-56119740D01*
X26571450Y-55589603D01*
X26778297Y-55090231D01*
X27078597Y-54640801D01*
X27460801Y-54258597D01*
X27910231Y-53958297D01*
X28409603Y-53751450D01*
X28939740Y-53646000D01*
X29480260Y-53646000D01*
X30010397Y-53751450D01*
X30010397Y-53751450D01*
G37*
G36*
X14010397Y-53751450D02*
X14509769Y-53958297D01*
X14959199Y-54258597D01*
X15341403Y-54640801D01*
X15641703Y-55090231D01*
X15848550Y-55589603D01*
X15954000Y-56119740D01*
X15954000Y-56660260D01*
X15848550Y-57190397D01*
X15641703Y-57689769D01*
X15341403Y-58139199D01*
X14959199Y-58521403D01*
X14509769Y-58821703D01*
X14010397Y-59028550D01*
X13480260Y-59134000D01*
X12939740Y-59134000D01*
X12409603Y-59028550D01*
X11910231Y-58821703D01*
X11460801Y-58521403D01*
X11078597Y-58139199D01*
X10778297Y-57689769D01*
X10571450Y-57190397D01*
X10466000Y-56660260D01*
X10466000Y-56119740D01*
X10571450Y-55589603D01*
X10778297Y-55090231D01*
X11078597Y-54640801D01*
X11460801Y-54258597D01*
X11910231Y-53958297D01*
X12409603Y-53751450D01*
X12939740Y-53646000D01*
X13480260Y-53646000D01*
X14010397Y-53751450D01*
X14010397Y-53751450D01*
G37*
G36*
X13740046Y-45177683D02*
X14159159Y-45261049D01*
X14751345Y-45506341D01*
X14751347Y-45506342D01*
X14960360Y-45646000D01*
X15284306Y-45862454D01*
X15737546Y-46315694D01*
X15737547Y-46315696D01*
X15954776Y-46640801D01*
X16093659Y-46848655D01*
X16338951Y-47440841D01*
X16464000Y-48069510D01*
X16464000Y-48710490D01*
X16338951Y-49339159D01*
X16193723Y-49689769D01*
X16093658Y-49931347D01*
X15915602Y-50197826D01*
X15737546Y-50464306D01*
X15284306Y-50917546D01*
X15118177Y-51028550D01*
X14751347Y-51273658D01*
X14751346Y-51273659D01*
X14751345Y-51273659D01*
X14159159Y-51518951D01*
X13740046Y-51602317D01*
X13530491Y-51644000D01*
X12889509Y-51644000D01*
X12679954Y-51602317D01*
X12260841Y-51518951D01*
X11668655Y-51273659D01*
X11668654Y-51273659D01*
X11668653Y-51273658D01*
X11301823Y-51028550D01*
X11135694Y-50917546D01*
X10682454Y-50464306D01*
X10504398Y-50197826D01*
X10326342Y-49931347D01*
X10226277Y-49689769D01*
X10081049Y-49339159D01*
X9956000Y-48710490D01*
X9956000Y-48069510D01*
X10081049Y-47440841D01*
X10326341Y-46848655D01*
X10465225Y-46640801D01*
X10682453Y-46315696D01*
X10682454Y-46315694D01*
X11135694Y-45862454D01*
X11459640Y-45646000D01*
X11668653Y-45506342D01*
X11668655Y-45506341D01*
X12260841Y-45261049D01*
X12679954Y-45177683D01*
X12889509Y-45136000D01*
X13530491Y-45136000D01*
X13740046Y-45177683D01*
X13740046Y-45177683D01*
G37*
G36*
X29740046Y-45177683D02*
X30159159Y-45261049D01*
X30751345Y-45506341D01*
X30751347Y-45506342D01*
X30960360Y-45646000D01*
X31284306Y-45862454D01*
X31737546Y-46315694D01*
X31737547Y-46315696D01*
X31954776Y-46640801D01*
X32093659Y-46848655D01*
X32338951Y-47440841D01*
X32464000Y-48069510D01*
X32464000Y-48710490D01*
X32338951Y-49339159D01*
X32193723Y-49689769D01*
X32093658Y-49931347D01*
X31915602Y-50197826D01*
X31737546Y-50464306D01*
X31284306Y-50917546D01*
X31118177Y-51028550D01*
X30751347Y-51273658D01*
X30751346Y-51273659D01*
X30751345Y-51273659D01*
X30159159Y-51518951D01*
X29740046Y-51602317D01*
X29530491Y-51644000D01*
X28889509Y-51644000D01*
X28679954Y-51602317D01*
X28260841Y-51518951D01*
X27668655Y-51273659D01*
X27668654Y-51273659D01*
X27668653Y-51273658D01*
X27301823Y-51028550D01*
X27135694Y-50917546D01*
X26682454Y-50464306D01*
X26504398Y-50197826D01*
X26326342Y-49931347D01*
X26226277Y-49689769D01*
X26081049Y-49339159D01*
X25956000Y-48710490D01*
X25956000Y-48069510D01*
X26081049Y-47440841D01*
X26326341Y-46848655D01*
X26465225Y-46640801D01*
X26682453Y-46315696D01*
X26682454Y-46315694D01*
X27135694Y-45862454D01*
X27459640Y-45646000D01*
X27668653Y-45506342D01*
X27668655Y-45506341D01*
X28260841Y-45261049D01*
X28679954Y-45177683D01*
X28889509Y-45136000D01*
X29530491Y-45136000D01*
X29740046Y-45177683D01*
X29740046Y-45177683D01*
G37*
G36*
X22010397Y-45751450D02*
X22509769Y-45958297D01*
X22959199Y-46258597D01*
X23341403Y-46640801D01*
X23641703Y-47090231D01*
X23848550Y-47589603D01*
X23954000Y-48119740D01*
X23954000Y-48660260D01*
X23848550Y-49190397D01*
X23641703Y-49689769D01*
X23341403Y-50139199D01*
X22959199Y-50521403D01*
X22509769Y-50821703D01*
X22010397Y-51028550D01*
X21480260Y-51134000D01*
X20939740Y-51134000D01*
X20409603Y-51028550D01*
X19910231Y-50821703D01*
X19460801Y-50521403D01*
X19078597Y-50139199D01*
X18778297Y-49689769D01*
X18571450Y-49190397D01*
X18466000Y-48660260D01*
X18466000Y-48119740D01*
X18571450Y-47589603D01*
X18778297Y-47090231D01*
X19078597Y-46640801D01*
X19460801Y-46258597D01*
X19910231Y-45958297D01*
X20409603Y-45751450D01*
X20939740Y-45646000D01*
X21480260Y-45646000D01*
X22010397Y-45751450D01*
X22010397Y-45751450D01*
G37*
M02*
