%TF.GenerationSoftware,KiCad,Pcbnew,5.0.0-fee4fd1~66~ubuntu16.04.1*%
%TF.CreationDate,2018-09-25T11:06:20-07:00*%
%TF.ProjectId,3x4-CR2032-Coin-Cell-On-Off-Switch,3378342D4352323033322D436F696E2D,v1.1*%
%TF.SameCoordinates,Original*%
%TF.FileFunction,Legend,Top*%
%TF.FilePolarity,Positive*%
%FSLAX46Y46*%
G04 Gerber Fmt 4.6, Leading zero omitted, Abs format (unit mm)*
G04 Created by KiCad (PCBNEW 5.0.0-fee4fd1~66~ubuntu16.04.1) date Tue Sep 25 11:06:20 2018*
%MOMM*%
%LPD*%
G01*
G04 APERTURE LIST*
%ADD10C,8.000000*%
%ADD11C,0.762000*%
%ADD12C,0.152400*%
%ADD13C,0.150000*%
%ADD14C,0.500000*%
%ADD15C,1.676400*%
%ADD16C,6.152400*%
%ADD17R,2.752400X5.712400*%
%ADD18R,9.152400X13.952400*%
G04 APERTURE END LIST*
D10*
X13310000Y-72290000D02*
X13310000Y-64190000D01*
D11*
X29210000Y-71882000D02*
X29210000Y-48006000D01*
D12*
X15270490Y-70110446D02*
X15270490Y-66046446D01*
X15270490Y-66046446D02*
X27270490Y-66046446D01*
X15270490Y-70110446D02*
X27270490Y-70110446D01*
X27270490Y-70110446D02*
X27270490Y-66046446D01*
D10*
X13310000Y-48390000D02*
X13410000Y-48390000D01*
D13*
X30828152Y-67778380D02*
X31018628Y-67778380D01*
X31113866Y-67826000D01*
X31209104Y-67921238D01*
X31256723Y-68111714D01*
X31256723Y-68445047D01*
X31209104Y-68635523D01*
X31113866Y-68730761D01*
X31018628Y-68778380D01*
X30828152Y-68778380D01*
X30732914Y-68730761D01*
X30637676Y-68635523D01*
X30590057Y-68445047D01*
X30590057Y-68111714D01*
X30637676Y-67921238D01*
X30732914Y-67826000D01*
X30828152Y-67778380D01*
X31685295Y-68778380D02*
X31685295Y-67778380D01*
X32256723Y-68778380D01*
X32256723Y-67778380D01*
%LPC*%
D14*
X27566432Y-62182924D02*
G75*
G02X26460000Y-64290000I1643568J-2207076D01*
G01*
X14853568Y-50597076D02*
G75*
G02X15960000Y-48490000I-1643568J2207076D01*
G01*
X15943963Y-64758031D02*
G75*
G02X15110000Y-62390000I-2733963J368031D01*
G01*
X26473485Y-48638830D02*
G75*
G02X27760000Y-50740000I2748333J238322D01*
G01*
D15*
X23759690Y-68078446D03*
X18781290Y-68078446D03*
X21270490Y-68078446D03*
D16*
X29210000Y-72390000D03*
X13210000Y-72390000D03*
D17*
X11010000Y-56390000D03*
D18*
X21206000Y-56644000D03*
D17*
X31410000Y-56390000D03*
M02*
