%TF.GenerationSoftware,KiCad,Pcbnew,4.0.7-e2-6376~58~ubuntu16.04.1*%
%TF.CreationDate,2018-05-09T10:26:09-07:00*%
%TF.ProjectId,2x2-LED-YELLOW-SMT-LIMITED,3278322D4C45442D59454C4C4F572D53,1.0*%
%TF.FileFunction,Legend,Top*%
%FSLAX46Y46*%
G04 Gerber Fmt 4.6, Leading zero omitted, Abs format (unit mm)*
G04 Created by KiCad (PCBNEW 4.0.7-e2-6376~58~ubuntu16.04.1) date Wed May  9 10:26:09 2018*
%MOMM*%
%LPD*%
G01*
G04 APERTURE LIST*
%ADD10C,0.350000*%
%ADD11C,0.152400*%
%ADD12C,8.000000*%
%ADD13C,0.150000*%
%ADD14C,0.600000*%
%ADD15R,1.652400X1.752400*%
%ADD16R,1.752400X1.652400*%
G04 APERTURE END LIST*
D10*
D11*
X22860001Y-31725810D02*
X22860001Y-32209619D01*
X22521334Y-31193619D02*
X22860001Y-31725810D01*
X23198667Y-31193619D01*
D12*
X18860000Y-39632000D02*
X26860000Y-39632000D01*
D13*
X17154571Y-40321429D02*
X16428857Y-40321429D01*
X16428857Y-38797429D01*
X17662571Y-39523143D02*
X18170571Y-39523143D01*
X18388285Y-40321429D02*
X17662571Y-40321429D01*
X17662571Y-38797429D01*
X18388285Y-38797429D01*
X19041428Y-40321429D02*
X19041428Y-38797429D01*
X19404285Y-38797429D01*
X19622000Y-38870000D01*
X19767142Y-39015143D01*
X19839714Y-39160286D01*
X19912285Y-39450571D01*
X19912285Y-39668286D01*
X19839714Y-39958571D01*
X19767142Y-40103714D01*
X19622000Y-40248857D01*
X19404285Y-40321429D01*
X19041428Y-40321429D01*
X21363714Y-40321429D02*
X20492857Y-40321429D01*
X20928285Y-40321429D02*
X20928285Y-38797429D01*
X20783142Y-39015143D01*
X20638000Y-39160286D01*
X20492857Y-39232857D01*
X22292143Y-29662381D02*
X21815952Y-29662381D01*
X21815952Y-28662381D01*
X22625476Y-29138571D02*
X22958810Y-29138571D01*
X23101667Y-29662381D02*
X22625476Y-29662381D01*
X22625476Y-28662381D01*
X23101667Y-28662381D01*
X23530238Y-29662381D02*
X23530238Y-28662381D01*
X23768333Y-28662381D01*
X23911191Y-28710000D01*
X24006429Y-28805238D01*
X24054048Y-28900476D01*
X24101667Y-29090952D01*
X24101667Y-29233810D01*
X24054048Y-29424286D01*
X24006429Y-29519524D01*
X23911191Y-29614762D01*
X23768333Y-29662381D01*
X23530238Y-29662381D01*
%LPC*%
D14*
X16060000Y-39632000D02*
G75*
G03X21660000Y-39632000I2800000J0D01*
G01*
X24060000Y-39632000D02*
G75*
G03X26860000Y-36832000I2800000J0D01*
G01*
X26860000Y-34432000D02*
G75*
G03X24060000Y-31632000I0J2800000D01*
G01*
X21660000Y-31632000D02*
G75*
G03X16060000Y-31632000I-2800000J0D01*
G01*
D15*
X17050000Y-35632000D03*
X20470000Y-35632000D03*
D16*
X22860000Y-37592000D03*
X22860000Y-34172000D03*
M02*
