%TF.GenerationSoftware,KiCad,Pcbnew,4.0.5-e0-6337~49~ubuntu16.04.1*%
%TF.CreationDate,2017-01-18T12:09:22-08:00*%
%TF.ProjectId,2x2-LED-TH-2.54mm-Pitch,3278322D4C45442D54482D322E35346D,1.0*%
%TF.FileFunction,Other,Fab,Top*%
%FSLAX46Y46*%
G04 Gerber Fmt 4.6, Leading zero omitted, Abs format (unit mm)*
G04 Created by KiCad (PCBNEW 4.0.5-e0-6337~49~ubuntu16.04.1) date Wed Jan 18 12:09:22 2017*
%MOMM*%
%LPD*%
G01*
G04 APERTURE LIST*
%ADD10C,0.350000*%
%ADD11C,0.050000*%
%ADD12C,0.150000*%
G04 APERTURE END LIST*
D10*
D11*
X136531375Y-97926972D02*
G75*
G03X140335000Y-101717000I3999066J209764D01*
G01*
X152135000Y-89917000D02*
X152135000Y-97917000D01*
X140335000Y-86117000D02*
X148335000Y-86117000D01*
X140335000Y-101717000D02*
X148335000Y-101717000D01*
X136535000Y-89917000D02*
X136535000Y-97917000D01*
X148344972Y-101720625D02*
G75*
G03X152135000Y-97917000I-209764J3999066D01*
G01*
X140325028Y-86113375D02*
G75*
G03X136535000Y-89917000I209764J-3999066D01*
G01*
X152138625Y-89907028D02*
G75*
G03X148335000Y-86117000I-3999066J-209764D01*
G01*
D12*
X143215953Y-94369381D02*
X142739762Y-94369381D01*
X142739762Y-93369381D01*
X143549286Y-93845571D02*
X143882620Y-93845571D01*
X144025477Y-94369381D02*
X143549286Y-94369381D01*
X143549286Y-93369381D01*
X144025477Y-93369381D01*
X144454048Y-94369381D02*
X144454048Y-93369381D01*
X144692143Y-93369381D01*
X144835001Y-93417000D01*
X144930239Y-93512238D01*
X144977858Y-93607476D01*
X145025477Y-93797952D01*
X145025477Y-93940810D01*
X144977858Y-94131286D01*
X144930239Y-94226524D01*
X144835001Y-94321762D01*
X144692143Y-94369381D01*
X144454048Y-94369381D01*
X145977858Y-94369381D02*
X145406429Y-94369381D01*
X145692143Y-94369381D02*
X145692143Y-93369381D01*
X145596905Y-93512238D01*
X145501667Y-93607476D01*
X145406429Y-93655095D01*
M02*
