G04 This is an RS-274x file exported by *
G04 gerbv version 2.6.0 *
G04 More information is available about gerbv at *
G04 http://gerbv.gpleda.org/ *
G04 --End of header info--*
%MOIN*%
%FSLAX34Y34*%
%IPPOS*%
G04 --Define apertures--*
%ADD10C,0.0138*%
%ADD11C,0.0030*%
%ADD12C,0.0018*%
%ADD13C,0.0020*%
%ADD14C,0.0050*%
%ADD15C,0.0059*%
G04 --Start main section--*
G54D11*
G01X0011070Y-018530D02*
G01X0011520Y-018530D01*
G54D12*
G01X0010670Y-018780D02*
G75*
G03X0011970Y-018780I0000650J-001150D01*
G01X0010670Y-018780D02*
G01X0011970Y-018780D01*
G54D13*
G01X0008273Y-021434D02*
G75*
G03X0009770Y-022926I0001574J0000083D01*
G01X0014416Y-018280D02*
G01X0014416Y-021430D01*
G01X0009770Y-016784D02*
G01X0012920Y-016784D01*
G01X0009770Y-022926D02*
G01X0012920Y-022926D01*
G01X0008274Y-018280D02*
G01X0008274Y-021430D01*
G01X0012924Y-022927D02*
G75*
G03X0014416Y-021430I-000083J0001574D01*
G01X0009766Y-016783D02*
G75*
G03X0008274Y-018280I0000083J-001574D01*
G01X0014417Y-018276D02*
G75*
G03X0012920Y-016784I-001574J-000083D01*
G54D14*
G01X0011220Y-021680D02*
G01X0011620Y-021680D01*
G01X0011420Y-021905D02*
G01X0011420Y-021455D01*
G54D15*
G01X0011523Y-020296D02*
G01X0011523Y-020483D01*
G01X0011523Y-020483D02*
G01X0011130Y-020483D01*
G01X0011317Y-020165D02*
G01X0011317Y-020033D01*
G01X0011523Y-019977D02*
G01X0011523Y-020165D01*
G01X0011523Y-020165D02*
G01X0011130Y-020165D01*
G01X0011130Y-020165D02*
G01X0011130Y-019977D01*
G01X0011523Y-019808D02*
G01X0011130Y-019808D01*
G01X0011130Y-019808D02*
G01X0011130Y-019715D01*
G01X0011130Y-019715D02*
G01X0011148Y-019658D01*
G01X0011148Y-019658D02*
G01X0011186Y-019621D01*
G01X0011186Y-019621D02*
G01X0011223Y-019602D01*
G01X0011223Y-019602D02*
G01X0011298Y-019583D01*
G01X0011298Y-019583D02*
G01X0011355Y-019583D01*
G01X0011355Y-019583D02*
G01X0011430Y-019602D01*
G01X0011430Y-019602D02*
G01X0011467Y-019621D01*
G01X0011467Y-019621D02*
G01X0011505Y-019658D01*
G01X0011505Y-019658D02*
G01X0011523Y-019715D01*
G01X0011523Y-019715D02*
G01X0011523Y-019808D01*
G01X0011523Y-019208D02*
G01X0011523Y-019433D01*
G01X0011523Y-019321D02*
G01X0011130Y-019321D01*
G01X0011130Y-019321D02*
G01X0011186Y-019358D01*
G01X0011186Y-019358D02*
G01X0011223Y-019396D01*
G01X0011223Y-019396D02*
G01X0011242Y-019433D01*
G01X0000000Y0000000D02*
G54D13*
G01X0008273Y-021434D02*
G75*
G03X0009770Y-022926I0001574J0000083D01*
G01X0014416Y-018280D02*
G01X0014416Y-021430D01*
G01X0009770Y-016784D02*
G01X0012920Y-016784D01*
G01X0009770Y-022926D02*
G01X0012920Y-022926D01*
G01X0008274Y-018280D02*
G01X0008274Y-021430D01*
G01X0012924Y-022927D02*
G75*
G03X0014416Y-021430I-000083J0001574D01*
G01X0009766Y-016783D02*
G75*
G03X0008274Y-018280I0000083J-001574D01*
G01X0014417Y-018276D02*
G75*
G03X0012920Y-016784I-001574J-000083D01*
M02*
