%TF.GenerationSoftware,KiCad,Pcbnew,4.0.5-e0-6337~49~ubuntu16.04.1*%
%TF.CreationDate,2017-02-14T01:06:31-08:00*%
%TF.ProjectId,2x2-LED-TH-2.54mm-Pitch,3278322D4C45442D54482D322E35346D,1.0*%
%TF.FileFunction,Soldermask,Top*%
%FSLAX46Y46*%
G04 Gerber Fmt 4.6, Leading zero omitted, Abs format (unit mm)*
G04 Created by KiCad (PCBNEW 4.0.5-e0-6337~49~ubuntu16.04.1) date Tue Feb 14 01:06:31 2017*
%MOMM*%
%LPD*%
G01*
G04 APERTURE LIST*
%ADD10C,0.350000*%
G04 APERTURE END LIST*
D10*
G36*
X28924590Y-50946681D02*
X29121721Y-50987147D01*
X29307251Y-51065137D01*
X29474092Y-51177673D01*
X29615898Y-51320472D01*
X29727266Y-51488095D01*
X29803956Y-51674158D01*
X29842976Y-51871227D01*
X29842976Y-51871232D01*
X29843044Y-51871576D01*
X29839834Y-52101439D01*
X29839757Y-52101777D01*
X29839757Y-52101786D01*
X29795249Y-52297690D01*
X29713396Y-52481535D01*
X29597388Y-52645986D01*
X29451650Y-52784771D01*
X29281731Y-52892605D01*
X29094099Y-52965382D01*
X28895912Y-53000328D01*
X28694705Y-52996113D01*
X28498151Y-52952899D01*
X28313733Y-52872328D01*
X28148482Y-52757475D01*
X28008682Y-52612709D01*
X27899664Y-52443545D01*
X27825577Y-52256424D01*
X27789249Y-52058488D01*
X27792058Y-51857258D01*
X27833902Y-51660405D01*
X27913180Y-51475432D01*
X28026880Y-51309378D01*
X28170665Y-51168573D01*
X28339065Y-51058376D01*
X28525660Y-50982986D01*
X28723340Y-50945277D01*
X28924590Y-50946681D01*
X28924590Y-50946681D01*
G37*
G36*
X29893000Y-50458400D02*
X27740600Y-50458400D01*
X27740600Y-48406000D01*
X29893000Y-48406000D01*
X29893000Y-50458400D01*
X29893000Y-50458400D01*
G37*
M02*
