%TF.GenerationSoftware,KiCad,Pcbnew,4.0.7-e2-6376~58~ubuntu16.04.1*%
%TF.CreationDate,2017-09-07T09:08:13-07:00*%
%TF.ProjectId,2x2-LED-TH-2.54mm-Pitch,3278322D4C45442D54482D322E35346D,v1.3*%
%TF.FileFunction,Soldermask,Bot*%
%FSLAX46Y46*%
G04 Gerber Fmt 4.6, Leading zero omitted, Abs format (unit mm)*
G04 Created by KiCad (PCBNEW 4.0.7-e2-6376~58~ubuntu16.04.1) date Thu Sep  7 09:08:13 2017*
%MOMM*%
%LPD*%
G01*
G04 APERTURE LIST*
%ADD10C,0.350000*%
%ADD11C,4.000000*%
%ADD12C,1.000000*%
G04 APERTURE END LIST*
D10*
D11*
X32817800Y-44932600D02*
X24842200Y-44932600D01*
D12*
X29820491Y-54432200D02*
G75*
G03X32817800Y-51460400I2971909J0D01*
G01*
X24791400Y-51460291D02*
G75*
G03X27763200Y-54457600I0J-2971909D01*
G01*
X32817800Y-49377709D02*
G75*
G03X29846000Y-46380400I0J2971909D01*
G01*
X27788709Y-46405800D02*
G75*
G03X24791400Y-49377600I-2971909J0D01*
G01*
D11*
X33071800Y-55905400D02*
X25096200Y-55905400D01*
D10*
G36*
X28924590Y-50946681D02*
X29121721Y-50987147D01*
X29307251Y-51065137D01*
X29474092Y-51177673D01*
X29615898Y-51320472D01*
X29727266Y-51488095D01*
X29803956Y-51674158D01*
X29842976Y-51871227D01*
X29842976Y-51871232D01*
X29843044Y-51871576D01*
X29839834Y-52101439D01*
X29839757Y-52101777D01*
X29839757Y-52101786D01*
X29795249Y-52297690D01*
X29713396Y-52481535D01*
X29597388Y-52645986D01*
X29451650Y-52784771D01*
X29281731Y-52892605D01*
X29094099Y-52965382D01*
X28895912Y-53000328D01*
X28694705Y-52996113D01*
X28498151Y-52952899D01*
X28313733Y-52872328D01*
X28148482Y-52757475D01*
X28008682Y-52612709D01*
X27899664Y-52443545D01*
X27825577Y-52256424D01*
X27789249Y-52058488D01*
X27792058Y-51857258D01*
X27833902Y-51660405D01*
X27913180Y-51475432D01*
X28026880Y-51309378D01*
X28170665Y-51168573D01*
X28339065Y-51058376D01*
X28525660Y-50982986D01*
X28723340Y-50945277D01*
X28924590Y-50946681D01*
X28924590Y-50946681D01*
G37*
G36*
X28929842Y-48356715D02*
X29136577Y-48399152D01*
X29331147Y-48480941D01*
X29506118Y-48598961D01*
X29654833Y-48748718D01*
X29771627Y-48924508D01*
X29852053Y-49119636D01*
X29892978Y-49326324D01*
X29892978Y-49326329D01*
X29893046Y-49326673D01*
X29889680Y-49567736D01*
X29889603Y-49568074D01*
X29889603Y-49568083D01*
X29842922Y-49773549D01*
X29757081Y-49966352D01*
X29635421Y-50138815D01*
X29482582Y-50284362D01*
X29304384Y-50397450D01*
X29107610Y-50473773D01*
X28899767Y-50510422D01*
X28688757Y-50506002D01*
X28482625Y-50460681D01*
X28289222Y-50376185D01*
X28115919Y-50255736D01*
X27969308Y-50103917D01*
X27854978Y-49926510D01*
X27777281Y-49730272D01*
X27739184Y-49522692D01*
X27742130Y-49311658D01*
X27786011Y-49105213D01*
X27869153Y-48911228D01*
X27988393Y-48737083D01*
X28139184Y-48589417D01*
X28315788Y-48473851D01*
X28511475Y-48394788D01*
X28718787Y-48355242D01*
X28929842Y-48356715D01*
X28929842Y-48356715D01*
G37*
M02*
