%TF.GenerationSoftware,KiCad,Pcbnew,4.0.7-e2-6376~58~ubuntu16.04.1*%
%TF.CreationDate,2017-10-07T16:19:58-07:00*%
%TF.ProjectId,LegoLED-Button-Battery,4C65676F4C45442D427574746F6E2D42,v1.5*%
%TF.FileFunction,Soldermask,Bot*%
%FSLAX46Y46*%
G04 Gerber Fmt 4.6, Leading zero omitted, Abs format (unit mm)*
G04 Created by KiCad (PCBNEW 4.0.7-e2-6376~58~ubuntu16.04.1) date Sat Oct  7 16:19:58 2017*
%MOMM*%
%LPD*%
G01*
G04 APERTURE LIST*
%ADD10C,0.350000*%
%ADD11C,7.200000*%
%ADD12C,4.000000*%
%ADD13C,1.000000*%
G04 APERTURE END LIST*
D10*
D11*
X33069800Y-58494200D02*
X41069800Y-58494200D01*
X33069800Y-42494200D02*
X33069800Y-58494200D01*
X41069800Y-42494200D02*
X33069800Y-42494200D01*
X25069800Y-58494200D02*
X25069800Y-42494200D01*
D12*
X51155600Y-41390300D02*
X59131200Y-41390300D01*
D13*
X54152909Y-31890700D02*
G75*
G03X51155600Y-34862500I-2971909J0D01*
G01*
X59182000Y-34862609D02*
G75*
G03X56210200Y-31865300I0J2971909D01*
G01*
X51155600Y-36945191D02*
G75*
G03X54127400Y-39942500I0J-2971909D01*
G01*
X56184691Y-39917100D02*
G75*
G03X59182000Y-36945300I2971909J0D01*
G01*
D12*
X50901600Y-30417500D02*
X58877200Y-30417500D01*
D10*
G36*
X25392910Y-55420047D02*
X25983855Y-55541351D01*
X26539998Y-55775132D01*
X27040134Y-56112478D01*
X27465221Y-56540543D01*
X27799066Y-57043021D01*
X28028956Y-57600776D01*
X28146064Y-58192214D01*
X28146064Y-58192224D01*
X28146131Y-58192563D01*
X28136510Y-58881616D01*
X28136433Y-58881954D01*
X28136433Y-58881962D01*
X28002857Y-59469901D01*
X27757485Y-60021016D01*
X27409737Y-60513978D01*
X26972862Y-60930009D01*
X26463500Y-61253261D01*
X25901054Y-61471419D01*
X25306947Y-61576176D01*
X24703803Y-61563542D01*
X24114600Y-61433997D01*
X23561782Y-61192477D01*
X23066407Y-60848182D01*
X22647337Y-60414223D01*
X22320538Y-59907130D01*
X22098456Y-59346214D01*
X21989555Y-58752858D01*
X21997977Y-58149641D01*
X22123406Y-57559547D01*
X22361059Y-57005058D01*
X22701891Y-56507288D01*
X23132912Y-56085200D01*
X23637713Y-55754868D01*
X24197059Y-55528877D01*
X24789645Y-55415836D01*
X25392910Y-55420047D01*
X25392910Y-55420047D01*
G37*
G36*
X41392910Y-55420047D02*
X41983855Y-55541351D01*
X42539998Y-55775132D01*
X43040134Y-56112478D01*
X43465221Y-56540543D01*
X43799066Y-57043021D01*
X44028956Y-57600776D01*
X44146064Y-58192214D01*
X44146064Y-58192224D01*
X44146131Y-58192563D01*
X44136510Y-58881616D01*
X44136433Y-58881954D01*
X44136433Y-58881962D01*
X44002857Y-59469901D01*
X43757485Y-60021016D01*
X43409737Y-60513978D01*
X42972862Y-60930009D01*
X42463500Y-61253261D01*
X41901054Y-61471419D01*
X41306947Y-61576176D01*
X40703803Y-61563542D01*
X40114600Y-61433997D01*
X39561782Y-61192477D01*
X39066407Y-60848182D01*
X38647337Y-60414223D01*
X38320538Y-59907130D01*
X38098456Y-59346214D01*
X37989555Y-58752858D01*
X37997977Y-58149641D01*
X38123406Y-57559547D01*
X38361059Y-57005058D01*
X38701891Y-56507288D01*
X39132912Y-56085200D01*
X39637713Y-55754868D01*
X40197059Y-55528877D01*
X40789645Y-55415836D01*
X41392910Y-55420047D01*
X41392910Y-55420047D01*
G37*
G36*
X33339343Y-55929707D02*
X33832315Y-56030900D01*
X34296256Y-56225923D01*
X34713475Y-56507341D01*
X35068088Y-56864437D01*
X35346585Y-57283610D01*
X35538362Y-57748895D01*
X35636043Y-58242222D01*
X35636043Y-58242232D01*
X35636110Y-58242571D01*
X35628084Y-58817386D01*
X35628007Y-58817724D01*
X35628007Y-58817733D01*
X35516589Y-59308142D01*
X35311898Y-59767887D01*
X35021802Y-60179122D01*
X34657356Y-60526180D01*
X34232442Y-60795839D01*
X33763240Y-60977830D01*
X33267631Y-61065220D01*
X32764481Y-61054680D01*
X32272961Y-60946612D01*
X31811794Y-60745133D01*
X31398547Y-60457919D01*
X31048954Y-60095905D01*
X30776335Y-59672882D01*
X30591071Y-59204959D01*
X30500225Y-58709976D01*
X30507250Y-58206765D01*
X30611885Y-57714502D01*
X30810138Y-57251941D01*
X31094463Y-56836695D01*
X31454026Y-56484585D01*
X31875137Y-56209018D01*
X32341750Y-56020494D01*
X32836091Y-55926194D01*
X33339343Y-55929707D01*
X33339343Y-55929707D01*
G37*
G36*
X25339343Y-47929707D02*
X25832315Y-48030900D01*
X26296256Y-48225923D01*
X26713475Y-48507341D01*
X27068088Y-48864437D01*
X27346585Y-49283610D01*
X27538362Y-49748895D01*
X27636043Y-50242222D01*
X27636043Y-50242232D01*
X27636110Y-50242571D01*
X27628084Y-50817386D01*
X27628007Y-50817724D01*
X27628007Y-50817733D01*
X27516589Y-51308142D01*
X27311898Y-51767887D01*
X27021802Y-52179122D01*
X26657356Y-52526180D01*
X26232442Y-52795839D01*
X25763240Y-52977830D01*
X25267631Y-53065220D01*
X24764481Y-53054680D01*
X24272961Y-52946612D01*
X23811794Y-52745133D01*
X23398547Y-52457919D01*
X23048954Y-52095905D01*
X22776335Y-51672882D01*
X22591071Y-51204959D01*
X22500225Y-50709976D01*
X22507250Y-50206765D01*
X22611885Y-49714502D01*
X22810138Y-49251941D01*
X23094463Y-48836695D01*
X23454026Y-48484585D01*
X23875137Y-48209018D01*
X24341750Y-48020494D01*
X24836091Y-47926194D01*
X25339343Y-47929707D01*
X25339343Y-47929707D01*
G37*
G36*
X33339343Y-47929707D02*
X33832315Y-48030900D01*
X34296256Y-48225923D01*
X34713475Y-48507341D01*
X35068088Y-48864437D01*
X35346585Y-49283610D01*
X35538362Y-49748895D01*
X35636043Y-50242222D01*
X35636043Y-50242232D01*
X35636110Y-50242571D01*
X35628084Y-50817386D01*
X35628007Y-50817724D01*
X35628007Y-50817733D01*
X35516589Y-51308142D01*
X35311898Y-51767887D01*
X35021802Y-52179122D01*
X34657356Y-52526180D01*
X34232442Y-52795839D01*
X33763240Y-52977830D01*
X33267631Y-53065220D01*
X32764481Y-53054680D01*
X32272961Y-52946612D01*
X31811794Y-52745133D01*
X31398547Y-52457919D01*
X31048954Y-52095905D01*
X30776335Y-51672882D01*
X30591071Y-51204959D01*
X30500225Y-50709976D01*
X30507250Y-50206765D01*
X30611885Y-49714502D01*
X30810138Y-49251941D01*
X31094463Y-48836695D01*
X31454026Y-48484585D01*
X31875137Y-48209018D01*
X32341750Y-48020494D01*
X32836091Y-47926194D01*
X33339343Y-47929707D01*
X33339343Y-47929707D01*
G37*
G36*
X41339343Y-47929707D02*
X41832315Y-48030900D01*
X42296256Y-48225923D01*
X42713475Y-48507341D01*
X43068088Y-48864437D01*
X43346585Y-49283610D01*
X43538362Y-49748895D01*
X43636043Y-50242222D01*
X43636043Y-50242232D01*
X43636110Y-50242571D01*
X43628084Y-50817386D01*
X43628007Y-50817724D01*
X43628007Y-50817733D01*
X43516589Y-51308142D01*
X43311898Y-51767887D01*
X43021802Y-52179122D01*
X42657356Y-52526180D01*
X42232442Y-52795839D01*
X41763240Y-52977830D01*
X41267631Y-53065220D01*
X40764481Y-53054680D01*
X40272961Y-52946612D01*
X39811794Y-52745133D01*
X39398547Y-52457919D01*
X39048954Y-52095905D01*
X38776335Y-51672882D01*
X38591071Y-51204959D01*
X38500225Y-50709976D01*
X38507250Y-50206765D01*
X38611885Y-49714502D01*
X38810138Y-49251941D01*
X39094463Y-48836695D01*
X39454026Y-48484585D01*
X39875137Y-48209018D01*
X40341750Y-48020494D01*
X40836091Y-47926194D01*
X41339343Y-47929707D01*
X41339343Y-47929707D01*
G37*
G36*
X41392910Y-39420047D02*
X41983855Y-39541351D01*
X42539998Y-39775132D01*
X43040134Y-40112478D01*
X43465221Y-40540543D01*
X43799066Y-41043021D01*
X44028956Y-41600776D01*
X44146064Y-42192214D01*
X44146064Y-42192224D01*
X44146131Y-42192563D01*
X44136510Y-42881616D01*
X44136433Y-42881954D01*
X44136433Y-42881962D01*
X44002857Y-43469901D01*
X43757485Y-44021016D01*
X43409737Y-44513978D01*
X42972862Y-44930009D01*
X42463500Y-45253261D01*
X41901054Y-45471419D01*
X41306947Y-45576176D01*
X40703803Y-45563542D01*
X40114600Y-45433997D01*
X39561782Y-45192477D01*
X39066407Y-44848182D01*
X38647337Y-44414223D01*
X38320538Y-43907130D01*
X38098456Y-43346214D01*
X37989555Y-42752858D01*
X37997977Y-42149641D01*
X38123406Y-41559547D01*
X38361059Y-41005058D01*
X38701891Y-40507288D01*
X39132912Y-40085200D01*
X39637713Y-39754868D01*
X40197059Y-39528877D01*
X40789645Y-39415836D01*
X41392910Y-39420047D01*
X41392910Y-39420047D01*
G37*
G36*
X25392910Y-39420047D02*
X25983855Y-39541351D01*
X26539998Y-39775132D01*
X27040134Y-40112478D01*
X27465221Y-40540543D01*
X27799066Y-41043021D01*
X28028956Y-41600776D01*
X28146064Y-42192214D01*
X28146064Y-42192224D01*
X28146131Y-42192563D01*
X28136510Y-42881616D01*
X28136433Y-42881954D01*
X28136433Y-42881962D01*
X28002857Y-43469901D01*
X27757485Y-44021016D01*
X27409737Y-44513978D01*
X26972862Y-44930009D01*
X26463500Y-45253261D01*
X25901054Y-45471419D01*
X25306947Y-45576176D01*
X24703803Y-45563542D01*
X24114600Y-45433997D01*
X23561782Y-45192477D01*
X23066407Y-44848182D01*
X22647337Y-44414223D01*
X22320538Y-43907130D01*
X22098456Y-43346214D01*
X21989555Y-42752858D01*
X21997977Y-42149641D01*
X22123406Y-41559547D01*
X22361059Y-41005058D01*
X22701891Y-40507288D01*
X23132912Y-40085200D01*
X23637713Y-39754868D01*
X24197059Y-39528877D01*
X24789645Y-39415836D01*
X25392910Y-39420047D01*
X25392910Y-39420047D01*
G37*
G36*
X33339343Y-39929707D02*
X33832315Y-40030900D01*
X34296256Y-40225923D01*
X34713475Y-40507341D01*
X35068088Y-40864437D01*
X35346585Y-41283610D01*
X35538362Y-41748895D01*
X35636043Y-42242222D01*
X35636043Y-42242232D01*
X35636110Y-42242571D01*
X35628084Y-42817386D01*
X35628007Y-42817724D01*
X35628007Y-42817733D01*
X35516589Y-43308142D01*
X35311898Y-43767887D01*
X35021802Y-44179122D01*
X34657356Y-44526180D01*
X34232442Y-44795839D01*
X33763240Y-44977830D01*
X33267631Y-45065220D01*
X32764481Y-45054680D01*
X32272961Y-44946612D01*
X31811794Y-44745133D01*
X31398547Y-44457919D01*
X31048954Y-44095905D01*
X30776335Y-43672882D01*
X30591071Y-43204959D01*
X30500225Y-42709976D01*
X30507250Y-42206765D01*
X30611885Y-41714502D01*
X30810138Y-41251941D01*
X31094463Y-40836695D01*
X31454026Y-40484585D01*
X31875137Y-40209018D01*
X32341750Y-40020494D01*
X32836091Y-39926194D01*
X33339343Y-39929707D01*
X33339343Y-39929707D01*
G37*
G36*
X55269642Y-35815215D02*
X55476377Y-35857652D01*
X55670947Y-35939441D01*
X55845918Y-36057461D01*
X55994633Y-36207218D01*
X56111427Y-36383008D01*
X56191853Y-36578136D01*
X56232778Y-36784824D01*
X56232778Y-36784829D01*
X56232846Y-36785173D01*
X56229480Y-37026236D01*
X56229403Y-37026574D01*
X56229403Y-37026583D01*
X56182722Y-37232049D01*
X56096881Y-37424852D01*
X55975221Y-37597315D01*
X55822382Y-37742862D01*
X55644184Y-37855950D01*
X55447410Y-37932273D01*
X55239567Y-37968922D01*
X55028557Y-37964502D01*
X54822425Y-37919181D01*
X54629022Y-37834685D01*
X54455719Y-37714236D01*
X54309108Y-37562417D01*
X54194778Y-37385010D01*
X54117081Y-37188772D01*
X54078984Y-36981192D01*
X54081930Y-36770158D01*
X54125811Y-36563713D01*
X54208953Y-36369728D01*
X54328193Y-36195583D01*
X54478984Y-36047917D01*
X54655588Y-35932351D01*
X54851275Y-35853288D01*
X55058587Y-35813742D01*
X55269642Y-35815215D01*
X55269642Y-35815215D01*
G37*
G36*
X41451932Y-28694848D02*
X42158139Y-28839812D01*
X42822754Y-29119190D01*
X43420440Y-29522334D01*
X43928439Y-30033891D01*
X44327399Y-30634377D01*
X44602128Y-31300918D01*
X44604073Y-31310742D01*
X44742159Y-32008131D01*
X44730661Y-32831580D01*
X44730583Y-32831923D01*
X44730583Y-32831927D01*
X44570938Y-33534608D01*
X44277707Y-34193216D01*
X43862132Y-34782329D01*
X43340048Y-35279504D01*
X42731338Y-35665803D01*
X42059186Y-35926514D01*
X41349202Y-36051703D01*
X40628418Y-36036605D01*
X39924294Y-35881793D01*
X39263650Y-35593165D01*
X38671655Y-35181717D01*
X38170847Y-34663116D01*
X37780307Y-34057116D01*
X37514909Y-33386798D01*
X37384767Y-32677708D01*
X37394832Y-31956837D01*
X37544725Y-31251649D01*
X37828733Y-30589009D01*
X38236041Y-29994150D01*
X38751132Y-29489736D01*
X39354391Y-29094974D01*
X40022836Y-28824905D01*
X40731003Y-28689815D01*
X41451932Y-28694848D01*
X41451932Y-28694848D01*
G37*
G36*
X25451932Y-28694848D02*
X26158139Y-28839812D01*
X26822754Y-29119190D01*
X27420440Y-29522334D01*
X27928439Y-30033891D01*
X28327399Y-30634377D01*
X28602128Y-31300918D01*
X28604073Y-31310742D01*
X28742159Y-32008131D01*
X28730661Y-32831580D01*
X28730583Y-32831923D01*
X28730583Y-32831927D01*
X28570938Y-33534608D01*
X28277707Y-34193216D01*
X27862132Y-34782329D01*
X27340048Y-35279504D01*
X26731338Y-35665803D01*
X26059186Y-35926514D01*
X25349202Y-36051703D01*
X24628418Y-36036605D01*
X23924294Y-35881793D01*
X23263650Y-35593165D01*
X22671655Y-35181717D01*
X22170847Y-34663116D01*
X21780307Y-34057116D01*
X21514909Y-33386798D01*
X21384767Y-32677708D01*
X21394832Y-31956837D01*
X21544725Y-31251649D01*
X21828733Y-30589009D01*
X22236041Y-29994150D01*
X22751132Y-29489736D01*
X23354391Y-29094974D01*
X24022836Y-28824905D01*
X24731003Y-28689815D01*
X25451932Y-28694848D01*
X25451932Y-28694848D01*
G37*
G36*
X55264390Y-33325181D02*
X55461521Y-33365647D01*
X55647051Y-33443637D01*
X55813892Y-33556173D01*
X55955698Y-33698972D01*
X56067066Y-33866595D01*
X56143756Y-34052658D01*
X56182776Y-34249727D01*
X56182776Y-34249732D01*
X56182844Y-34250076D01*
X56179634Y-34479939D01*
X56179557Y-34480277D01*
X56179557Y-34480286D01*
X56135049Y-34676190D01*
X56053196Y-34860035D01*
X55937188Y-35024486D01*
X55791450Y-35163271D01*
X55621531Y-35271105D01*
X55433899Y-35343882D01*
X55235712Y-35378828D01*
X55034505Y-35374613D01*
X54837951Y-35331399D01*
X54653533Y-35250828D01*
X54488282Y-35135975D01*
X54348482Y-34991209D01*
X54239464Y-34822045D01*
X54165377Y-34634924D01*
X54129049Y-34436988D01*
X54131858Y-34235758D01*
X54173702Y-34038905D01*
X54252980Y-33853932D01*
X54366680Y-33687878D01*
X54510465Y-33547073D01*
X54678865Y-33436876D01*
X54865460Y-33361486D01*
X55063140Y-33323777D01*
X55264390Y-33325181D01*
X55264390Y-33325181D01*
G37*
G36*
X36156487Y-33457216D02*
X36334408Y-33493738D01*
X36501859Y-33564128D01*
X36652442Y-33665698D01*
X36780430Y-33794582D01*
X36880944Y-33945870D01*
X36950163Y-34113806D01*
X36985373Y-34291628D01*
X36985373Y-34291643D01*
X36985440Y-34291982D01*
X36982543Y-34499446D01*
X36982467Y-34499780D01*
X36982467Y-34499793D01*
X36942303Y-34676573D01*
X36868427Y-34842503D01*
X36763724Y-34990928D01*
X36632186Y-35116189D01*
X36478824Y-35213517D01*
X36309480Y-35279201D01*
X36130604Y-35310742D01*
X35949005Y-35306937D01*
X35771603Y-35267933D01*
X35605156Y-35195214D01*
X35456008Y-35091554D01*
X35329832Y-34960895D01*
X35231437Y-34808214D01*
X35164569Y-34639328D01*
X35131782Y-34460681D01*
X35134317Y-34279060D01*
X35172083Y-34101389D01*
X35243636Y-33934441D01*
X35346256Y-33784569D01*
X35476030Y-33657485D01*
X35628020Y-33558026D01*
X35796432Y-33489983D01*
X35974849Y-33455948D01*
X36156487Y-33457216D01*
X36156487Y-33457216D01*
G37*
G36*
X30156487Y-33457216D02*
X30334408Y-33493738D01*
X30501859Y-33564128D01*
X30652442Y-33665698D01*
X30780430Y-33794582D01*
X30880944Y-33945870D01*
X30950163Y-34113806D01*
X30985373Y-34291628D01*
X30985373Y-34291643D01*
X30985440Y-34291982D01*
X30982543Y-34499446D01*
X30982467Y-34499780D01*
X30982467Y-34499793D01*
X30942303Y-34676573D01*
X30868427Y-34842503D01*
X30763724Y-34990928D01*
X30632186Y-35116189D01*
X30478824Y-35213517D01*
X30309480Y-35279201D01*
X30130604Y-35310742D01*
X29949005Y-35306937D01*
X29771603Y-35267933D01*
X29605156Y-35195214D01*
X29456008Y-35091554D01*
X29329832Y-34960895D01*
X29231437Y-34808214D01*
X29164569Y-34639328D01*
X29131782Y-34460681D01*
X29134317Y-34279060D01*
X29172083Y-34101389D01*
X29243636Y-33934441D01*
X29346256Y-33784569D01*
X29476030Y-33657485D01*
X29628020Y-33558026D01*
X29796432Y-33489983D01*
X29974849Y-33455948D01*
X30156487Y-33457216D01*
X30156487Y-33457216D01*
G37*
G36*
X36156487Y-29457216D02*
X36334408Y-29493738D01*
X36501859Y-29564128D01*
X36652442Y-29665698D01*
X36780430Y-29794582D01*
X36880944Y-29945870D01*
X36950163Y-30113806D01*
X36985373Y-30291628D01*
X36985373Y-30291643D01*
X36985440Y-30291982D01*
X36982543Y-30499446D01*
X36982467Y-30499780D01*
X36982467Y-30499793D01*
X36942303Y-30676573D01*
X36868427Y-30842503D01*
X36763724Y-30990928D01*
X36632186Y-31116189D01*
X36478824Y-31213517D01*
X36309480Y-31279201D01*
X36130604Y-31310742D01*
X35949005Y-31306937D01*
X35771603Y-31267933D01*
X35605156Y-31195214D01*
X35456008Y-31091554D01*
X35329832Y-30960895D01*
X35231437Y-30808214D01*
X35164569Y-30639328D01*
X35131782Y-30460681D01*
X35134317Y-30279060D01*
X35172083Y-30101389D01*
X35243636Y-29934441D01*
X35346256Y-29784569D01*
X35476030Y-29657485D01*
X35628020Y-29558026D01*
X35796432Y-29489983D01*
X35974849Y-29455948D01*
X36156487Y-29457216D01*
X36156487Y-29457216D01*
G37*
G36*
X30156487Y-29457216D02*
X30334408Y-29493738D01*
X30501859Y-29564128D01*
X30652442Y-29665698D01*
X30780430Y-29794582D01*
X30880944Y-29945870D01*
X30950163Y-30113806D01*
X30985373Y-30291628D01*
X30985373Y-30291643D01*
X30985440Y-30291982D01*
X30982543Y-30499446D01*
X30982467Y-30499780D01*
X30982467Y-30499793D01*
X30942303Y-30676573D01*
X30868427Y-30842503D01*
X30763724Y-30990928D01*
X30632186Y-31116189D01*
X30478824Y-31213517D01*
X30309480Y-31279201D01*
X30130604Y-31310742D01*
X29949005Y-31306937D01*
X29771603Y-31267933D01*
X29605156Y-31195214D01*
X29456008Y-31091554D01*
X29329832Y-30960895D01*
X29231437Y-30808214D01*
X29164569Y-30639328D01*
X29131782Y-30460681D01*
X29134317Y-30279060D01*
X29172083Y-30101389D01*
X29243636Y-29934441D01*
X29346256Y-29784569D01*
X29476030Y-29657485D01*
X29628020Y-29558026D01*
X29796432Y-29489983D01*
X29974849Y-29455948D01*
X30156487Y-29457216D01*
X30156487Y-29457216D01*
G37*
M02*
