%TF.GenerationSoftware,KiCad,Pcbnew,4.0.7-e2-6376~58~ubuntu16.04.1*%
%TF.CreationDate,2017-10-07T16:19:58-07:00*%
%TF.ProjectId,LegoLED-Button-Battery,4C65676F4C45442D427574746F6E2D42,v1.5*%
%TF.FileFunction,Legend,Bot*%
%FSLAX46Y46*%
G04 Gerber Fmt 4.6, Leading zero omitted, Abs format (unit mm)*
G04 Created by KiCad (PCBNEW 4.0.7-e2-6376~58~ubuntu16.04.1) date Sat Oct  7 16:19:58 2017*
%MOMM*%
%LPD*%
G01*
G04 APERTURE LIST*
%ADD10C,0.350000*%
%ADD11C,8.000000*%
%ADD12C,0.150000*%
%ADD13C,0.254000*%
%ADD14C,7.200000*%
%ADD15C,4.000000*%
%ADD16C,1.000000*%
%ADD17C,1.852400*%
%ADD18C,7.352400*%
%ADD19C,5.132400*%
%ADD20C,6.152400*%
%ADD21C,2.152400*%
%ADD22C,2.052400*%
G04 APERTURE END LIST*
D10*
D11*
X41069800Y-42494200D02*
X33069800Y-42494200D01*
X41069800Y-58494200D02*
X33069800Y-58494200D01*
D12*
X22450752Y-45965629D02*
X21688847Y-45965629D01*
X22069799Y-46346581D02*
X22069799Y-45584676D01*
X22450752Y-54765629D02*
X21688847Y-54765629D01*
X22069799Y-55146581D02*
X22069799Y-54384676D01*
D13*
X61814528Y-54577343D02*
X61923385Y-54631771D01*
X62141099Y-54631771D01*
X62249957Y-54577343D01*
X62304385Y-54522914D01*
X62358814Y-54414057D01*
X62358814Y-54087486D01*
X62304385Y-53978629D01*
X62249957Y-53924200D01*
X62141099Y-53869771D01*
X61923385Y-53869771D01*
X61814528Y-53924200D01*
X61324671Y-54631771D02*
X61324671Y-53869771D01*
X61324671Y-54087486D02*
X61270243Y-53978629D01*
X61215814Y-53924200D01*
X61106957Y-53869771D01*
X60998100Y-53869771D01*
X60127243Y-54631771D02*
X60127243Y-54033057D01*
X60181672Y-53924200D01*
X60290529Y-53869771D01*
X60508243Y-53869771D01*
X60617100Y-53924200D01*
X60127243Y-54577343D02*
X60236100Y-54631771D01*
X60508243Y-54631771D01*
X60617100Y-54577343D01*
X60671529Y-54468486D01*
X60671529Y-54359629D01*
X60617100Y-54250771D01*
X60508243Y-54196343D01*
X60236100Y-54196343D01*
X60127243Y-54141914D01*
X59691814Y-53869771D02*
X59093100Y-53869771D01*
X59691814Y-54631771D01*
X59093100Y-54631771D01*
X58766528Y-53869771D02*
X58494385Y-54631771D01*
X58222243Y-53869771D02*
X58494385Y-54631771D01*
X58603243Y-54903914D01*
X58657671Y-54958343D01*
X58766528Y-55012771D01*
X57296957Y-54577343D02*
X57405814Y-54631771D01*
X57623528Y-54631771D01*
X57732386Y-54577343D01*
X57786814Y-54522914D01*
X57841243Y-54414057D01*
X57841243Y-54087486D01*
X57786814Y-53978629D01*
X57732386Y-53924200D01*
X57623528Y-53869771D01*
X57405814Y-53869771D01*
X57296957Y-53924200D01*
X56807100Y-54631771D02*
X56807100Y-53869771D01*
X56807100Y-53488771D02*
X56861529Y-53543200D01*
X56807100Y-53597629D01*
X56752672Y-53543200D01*
X56807100Y-53488771D01*
X56807100Y-53597629D01*
X56262814Y-54631771D02*
X56262814Y-53869771D01*
X56262814Y-54087486D02*
X56208386Y-53978629D01*
X56153957Y-53924200D01*
X56045100Y-53869771D01*
X55936243Y-53869771D01*
X55065386Y-54577343D02*
X55174243Y-54631771D01*
X55391957Y-54631771D01*
X55500815Y-54577343D01*
X55555243Y-54522914D01*
X55609672Y-54414057D01*
X55609672Y-54087486D01*
X55555243Y-53978629D01*
X55500815Y-53924200D01*
X55391957Y-53869771D01*
X55174243Y-53869771D01*
X55065386Y-53924200D01*
X54085672Y-53869771D02*
X54085672Y-54631771D01*
X54575529Y-53869771D02*
X54575529Y-54468486D01*
X54521101Y-54577343D01*
X54412243Y-54631771D01*
X54248958Y-54631771D01*
X54140101Y-54577343D01*
X54085672Y-54522914D01*
X53541386Y-54631771D02*
X53541386Y-53869771D01*
X53541386Y-53488771D02*
X53595815Y-53543200D01*
X53541386Y-53597629D01*
X53486958Y-53543200D01*
X53541386Y-53488771D01*
X53541386Y-53597629D01*
X53160386Y-53869771D02*
X52724957Y-53869771D01*
X52997100Y-53488771D02*
X52997100Y-54468486D01*
X52942672Y-54577343D01*
X52833814Y-54631771D01*
X52724957Y-54631771D01*
X52398386Y-54577343D02*
X52289529Y-54631771D01*
X52071814Y-54631771D01*
X51962957Y-54577343D01*
X51908529Y-54468486D01*
X51908529Y-54414057D01*
X51962957Y-54305200D01*
X52071814Y-54250771D01*
X52235100Y-54250771D01*
X52343957Y-54196343D01*
X52398386Y-54087486D01*
X52398386Y-54033057D01*
X52343957Y-53924200D01*
X52235100Y-53869771D01*
X52071814Y-53869771D01*
X51962957Y-53924200D01*
X51418671Y-54522914D02*
X51364243Y-54577343D01*
X51418671Y-54631771D01*
X51473100Y-54577343D01*
X51418671Y-54522914D01*
X51418671Y-54631771D01*
X50384528Y-54577343D02*
X50493385Y-54631771D01*
X50711099Y-54631771D01*
X50819957Y-54577343D01*
X50874385Y-54522914D01*
X50928814Y-54414057D01*
X50928814Y-54087486D01*
X50874385Y-53978629D01*
X50819957Y-53924200D01*
X50711099Y-53869771D01*
X50493385Y-53869771D01*
X50384528Y-53924200D01*
X49731385Y-54631771D02*
X49840243Y-54577343D01*
X49894671Y-54522914D01*
X49949100Y-54414057D01*
X49949100Y-54087486D01*
X49894671Y-53978629D01*
X49840243Y-53924200D01*
X49731385Y-53869771D01*
X49568100Y-53869771D01*
X49459243Y-53924200D01*
X49404814Y-53978629D01*
X49350385Y-54087486D01*
X49350385Y-54414057D01*
X49404814Y-54522914D01*
X49459243Y-54577343D01*
X49568100Y-54631771D01*
X49731385Y-54631771D01*
X48860528Y-54631771D02*
X48860528Y-53869771D01*
X48860528Y-53978629D02*
X48806100Y-53924200D01*
X48697242Y-53869771D01*
X48533957Y-53869771D01*
X48425100Y-53924200D01*
X48370671Y-54033057D01*
X48370671Y-54631771D01*
X48370671Y-54033057D02*
X48316242Y-53924200D01*
X48207385Y-53869771D01*
X48044100Y-53869771D01*
X47935242Y-53924200D01*
X47880814Y-54033057D01*
X47880814Y-54631771D01*
%LPC*%
D14*
X33069800Y-58494200D02*
X41069800Y-58494200D01*
X33069800Y-42494200D02*
X33069800Y-58494200D01*
X41069800Y-42494200D02*
X33069800Y-42494200D01*
X25069800Y-58494200D02*
X25069800Y-42494200D01*
D15*
X51155600Y-41390300D02*
X59131200Y-41390300D01*
D16*
X54152909Y-31890700D02*
G75*
G03X51155600Y-34862500I-2971909J0D01*
G01*
X59182000Y-34862609D02*
G75*
G03X56210200Y-31865300I0J2971909D01*
G01*
X51155600Y-36945191D02*
G75*
G03X54127400Y-39942500I0J-2971909D01*
G01*
X56184691Y-39917100D02*
G75*
G03X59182000Y-36945300I2971909J0D01*
G01*
D15*
X50901600Y-30417500D02*
X58877200Y-30417500D01*
D17*
X36059201Y-34382801D03*
X30059201Y-34382801D03*
X36059201Y-30382801D03*
X30059201Y-30382801D03*
D18*
X25065801Y-32368601D03*
X41065801Y-32368601D03*
D19*
X33069800Y-50494200D03*
X41069800Y-50494200D03*
X25069800Y-50494200D03*
D20*
X41069800Y-58494200D03*
D19*
X33069800Y-58494200D03*
D20*
X25069800Y-58494200D03*
X41069800Y-42494200D03*
D19*
X33069800Y-42494200D03*
D20*
X25069800Y-42494200D03*
D21*
X55156600Y-36890700D03*
D22*
X55156600Y-34350700D03*
M02*
