%TF.GenerationSoftware,KiCad,Pcbnew,4.0.7-e2-6376~58~ubuntu16.04.1*%
%TF.CreationDate,2017-10-07T16:19:58-07:00*%
%TF.ProjectId,LegoLED-Button-Battery,4C65676F4C45442D427574746F6E2D42,v1.5*%
%TF.FileFunction,Profile,NP*%
%FSLAX46Y46*%
G04 Gerber Fmt 4.6, Leading zero omitted, Abs format (unit mm)*
G04 Created by KiCad (PCBNEW 4.0.7-e2-6376~58~ubuntu16.04.1) date Sat Oct  7 16:19:58 2017*
%MOMM*%
%LPD*%
G01*
G04 APERTURE LIST*
%ADD10C,0.350000*%
%ADD11C,0.152400*%
%ADD12C,0.050000*%
%ADD13C,0.040640*%
G04 APERTURE END LIST*
D10*
D11*
X47345600Y-40330748D02*
G75*
G03X50899488Y-43764200I3553888J122548D01*
G01*
X47371000Y-57480200D02*
X47371000Y-58293000D01*
X47345946Y-58292647D02*
G75*
G03X51028600Y-61925200I3682654J50447D01*
G01*
X55600600Y-43764200D02*
X56616600Y-43764200D01*
X44780200Y-57480200D02*
X44780200Y-58496200D01*
X55600600Y-46405800D02*
X55600600Y-43764200D01*
X54076600Y-43764200D02*
X54076600Y-46405800D01*
X44805600Y-57480200D02*
X47345600Y-57480200D01*
X47320200Y-55956200D02*
X44780200Y-55956200D01*
X56616600Y-43764200D02*
X59283600Y-43764200D01*
X40868600Y-36144200D02*
X40868600Y-38684200D01*
X39344600Y-36144200D02*
X39344600Y-38684200D01*
X25882600Y-36144200D02*
X25882600Y-38684200D01*
X24358600Y-36144200D02*
X24358600Y-38684200D01*
X44780200Y-33096200D02*
X47345600Y-33096200D01*
X44780200Y-31572200D02*
X47345600Y-31572200D01*
X59283600Y-43766389D02*
G75*
G03X62966600Y-40208200I0J3685189D01*
G01*
X50901600Y-43764200D02*
X54076600Y-43764200D01*
X47345600Y-33096200D02*
X47345600Y-40208200D01*
X62966600Y-31826200D02*
X62966600Y-40081200D01*
X62966600Y-31826200D02*
G75*
G03X59283600Y-28143200I-3683000J0D01*
G01*
X51028600Y-28143200D02*
X59283600Y-28143200D01*
X51028600Y-28159791D02*
G75*
G03X47371000Y-31572200I0J-3666409D01*
G01*
X24367240Y-38736039D02*
G75*
G03X21183600Y-42494200I626360J-3758161D01*
G01*
X21183600Y-58496200D02*
X21183600Y-42494200D01*
X21187076Y-58463221D02*
G75*
G03X24866600Y-62306200I3679524J-159979D01*
G01*
X40868600Y-62306200D02*
X24866600Y-62306200D01*
X40851196Y-62304341D02*
G75*
G03X44780200Y-58496200I119004J3808141D01*
G01*
X58902600Y-61925200D02*
X51028600Y-61925200D01*
X58902600Y-61925200D02*
G75*
G03X62828002Y-58116948I115402J3808252D01*
G01*
X62839600Y-50114200D02*
X62839600Y-58242200D01*
X62839600Y-50109899D02*
G75*
G03X59031863Y-46431200I-3807737J-131301D01*
G01*
X55600600Y-46405800D02*
X59156600Y-46431200D01*
X51028600Y-46431200D02*
X54076600Y-46405800D01*
X51028600Y-46456247D02*
G75*
G03X47371000Y-50063400I0J-3657953D01*
G01*
X47371000Y-55956200D02*
X47371000Y-49961800D01*
X44805600Y-42367200D02*
X44780200Y-55956200D01*
X44813901Y-42341800D02*
G75*
G03X40868600Y-38684200I-3668090J0D01*
G01*
X39344600Y-38684200D02*
X25882600Y-38684200D01*
X25882600Y-36144200D02*
X39344600Y-36144200D01*
X25247600Y-28524200D02*
G75*
G03X24344911Y-36126455I-127347J-3839599D01*
G01*
X41122600Y-28524200D02*
X25247600Y-28524200D01*
X40877991Y-36103065D02*
G75*
G03X44780200Y-33096200I244609J3718065D01*
G01*
X44748247Y-31559764D02*
G75*
G03X41122600Y-28524200I-3625647J-647436D01*
G01*
D12*
X41065801Y-36168601D02*
X25065801Y-36168601D01*
X25065801Y-28568601D02*
X41065801Y-28568601D01*
X25065801Y-28568601D02*
G75*
G03X25065801Y-36168601I0J-3800000D01*
G01*
X41065801Y-36168601D02*
G75*
G03X41065801Y-28568601I0J3800000D01*
G01*
X41069800Y-38694200D02*
X25069800Y-38694200D01*
X44869800Y-58494200D02*
X44869800Y-42494200D01*
X21269800Y-58494200D02*
X21269800Y-42494200D01*
X41069800Y-62294200D02*
X25069800Y-62294200D01*
X41069800Y-62294200D02*
G75*
G03X44869800Y-58494200I0J3800000D01*
G01*
X44869800Y-42494200D02*
G75*
G03X41069800Y-38694200I-3800000J0D01*
G01*
X25069800Y-38694200D02*
G75*
G03X21269800Y-42494200I0J-3800000D01*
G01*
X21269800Y-58494200D02*
G75*
G03X25069800Y-62294200I3800000J0D01*
G01*
D13*
X58992600Y-46378200D02*
X51192600Y-46378200D01*
X58992600Y-61978200D02*
X51192600Y-61978200D01*
X62892600Y-58078200D02*
X62892600Y-50278200D01*
X47292600Y-58078200D02*
X47292600Y-50278200D01*
X62892600Y-50278200D02*
G75*
G03X58992600Y-46378200I-3900000J0D01*
G01*
X58992600Y-61978200D02*
G75*
G03X62892600Y-58078200I0J3900000D01*
G01*
X47292600Y-58078200D02*
G75*
G03X51192600Y-61978200I3900000J0D01*
G01*
X51192600Y-46378200D02*
G75*
G03X47292600Y-50278200I0J-3900000D01*
G01*
X47345600Y-33096200D02*
X44805600Y-33096200D01*
X47345600Y-31572200D02*
X44805600Y-31572200D01*
X55600600Y-43764200D02*
X55600600Y-46304200D01*
X54076600Y-43764200D02*
X54076600Y-46304200D01*
X44805600Y-55956200D02*
X47345600Y-55956200D01*
X44805600Y-57480200D02*
X47345600Y-57480200D01*
X39344600Y-38684200D02*
X39344600Y-36144200D01*
X40868600Y-38684200D02*
X40868600Y-36144200D01*
X24358600Y-38684200D02*
X24358600Y-36144200D01*
X25882600Y-38684200D02*
X25882600Y-36144200D01*
D12*
X62960225Y-31880728D02*
G75*
G03X59156600Y-28090700I-3999066J-209764D01*
G01*
X47356600Y-39890700D02*
X47356600Y-31890700D01*
X59156600Y-43690700D02*
X51156600Y-43690700D01*
X59156600Y-28090700D02*
X51156600Y-28090700D01*
X62956600Y-39890700D02*
X62956600Y-31890700D01*
X51146628Y-28087075D02*
G75*
G03X47356600Y-31890700I209764J-3999066D01*
G01*
X59166572Y-43694325D02*
G75*
G03X62956600Y-39890700I-209764J3999066D01*
G01*
X47352975Y-39900672D02*
G75*
G03X51156600Y-43690700I3999066J209764D01*
G01*
M02*
