%TF.GenerationSoftware,KiCad,Pcbnew,4.0.7-e2-6376~58~ubuntu16.04.1*%
%TF.CreationDate,2017-10-07T16:19:58-07:00*%
%TF.ProjectId,LegoLED-Button-Battery,4C65676F4C45442D427574746F6E2D42,v1.5*%
%TF.FileFunction,Soldermask,Top*%
%FSLAX46Y46*%
G04 Gerber Fmt 4.6, Leading zero omitted, Abs format (unit mm)*
G04 Created by KiCad (PCBNEW 4.0.7-e2-6376~58~ubuntu16.04.1) date Sat Oct  7 16:19:58 2017*
%MOMM*%
%LPD*%
G01*
G04 APERTURE LIST*
%ADD10C,0.350000*%
%ADD11C,0.317500*%
%ADD12C,0.152400*%
%ADD13C,0.254000*%
G04 APERTURE END LIST*
D10*
D11*
X52492124Y-56028771D02*
X52431648Y-56089248D01*
X52250219Y-56149724D01*
X52129267Y-56149724D01*
X51947839Y-56089248D01*
X51826886Y-55968295D01*
X51766410Y-55847343D01*
X51705934Y-55605438D01*
X51705934Y-55424010D01*
X51766410Y-55182105D01*
X51826886Y-55061152D01*
X51947839Y-54940200D01*
X52129267Y-54879724D01*
X52250219Y-54879724D01*
X52431648Y-54940200D01*
X52492124Y-55000676D01*
X53036410Y-56149724D02*
X53036410Y-54879724D01*
X54366886Y-56149724D02*
X53943553Y-55544962D01*
X53641172Y-56149724D02*
X53641172Y-54879724D01*
X54124981Y-54879724D01*
X54245934Y-54940200D01*
X54306410Y-55000676D01*
X54366886Y-55121629D01*
X54366886Y-55303057D01*
X54306410Y-55424010D01*
X54245934Y-55484486D01*
X54124981Y-55544962D01*
X53641172Y-55544962D01*
X55636886Y-56028771D02*
X55576410Y-56089248D01*
X55394981Y-56149724D01*
X55274029Y-56149724D01*
X55092601Y-56089248D01*
X54971648Y-55968295D01*
X54911172Y-55847343D01*
X54850696Y-55605438D01*
X54850696Y-55424010D01*
X54911172Y-55182105D01*
X54971648Y-55061152D01*
X55092601Y-54940200D01*
X55274029Y-54879724D01*
X55394981Y-54879724D01*
X55576410Y-54940200D01*
X55636886Y-55000676D01*
X56181172Y-54879724D02*
X56181172Y-55907819D01*
X56241648Y-56028771D01*
X56302124Y-56089248D01*
X56423077Y-56149724D01*
X56664981Y-56149724D01*
X56785934Y-56089248D01*
X56846410Y-56028771D01*
X56906886Y-55907819D01*
X56906886Y-54879724D01*
X57511648Y-56149724D02*
X57511648Y-54879724D01*
X57934981Y-54879724D02*
X58660696Y-54879724D01*
X58297839Y-56149724D02*
X58297839Y-54879724D01*
X59023553Y-56089248D02*
X59204981Y-56149724D01*
X59507362Y-56149724D01*
X59628315Y-56089248D01*
X59688791Y-56028771D01*
X59749267Y-55907819D01*
X59749267Y-55786867D01*
X59688791Y-55665914D01*
X59628315Y-55605438D01*
X59507362Y-55544962D01*
X59265458Y-55484486D01*
X59144505Y-55424010D01*
X59084029Y-55363533D01*
X59023553Y-55242581D01*
X59023553Y-55121629D01*
X59084029Y-55000676D01*
X59144505Y-54940200D01*
X59265458Y-54879724D01*
X59567838Y-54879724D01*
X59749267Y-54940200D01*
X51315862Y-53488771D02*
X51255386Y-53549248D01*
X51073957Y-53609724D01*
X50953005Y-53609724D01*
X50771577Y-53549248D01*
X50650624Y-53428295D01*
X50590148Y-53307343D01*
X50529672Y-53065438D01*
X50529672Y-52884010D01*
X50590148Y-52642105D01*
X50650624Y-52521152D01*
X50771577Y-52400200D01*
X50953005Y-52339724D01*
X51073957Y-52339724D01*
X51255386Y-52400200D01*
X51315862Y-52460676D01*
X52585862Y-53609724D02*
X52162529Y-53004962D01*
X51860148Y-53609724D02*
X51860148Y-52339724D01*
X52343957Y-52339724D01*
X52464910Y-52400200D01*
X52525386Y-52460676D01*
X52585862Y-52581629D01*
X52585862Y-52763057D01*
X52525386Y-52884010D01*
X52464910Y-52944486D01*
X52343957Y-53004962D01*
X51860148Y-53004962D01*
X53069672Y-53246867D02*
X53674434Y-53246867D01*
X52948719Y-53609724D02*
X53372053Y-52339724D01*
X53795386Y-53609724D01*
X54097767Y-52339724D02*
X54944433Y-52339724D01*
X54097767Y-53609724D01*
X54944433Y-53609724D01*
X55670148Y-53004962D02*
X55670148Y-53609724D01*
X55246814Y-52339724D02*
X55670148Y-53004962D01*
X56093481Y-52339724D01*
D12*
X61887100Y-52971700D02*
X60744100Y-53924200D01*
X60553600Y-53924200D02*
X61887100Y-52971700D01*
X61506100Y-53098700D02*
X60553600Y-53924200D01*
X60426600Y-53860700D02*
X61506100Y-53098700D01*
X61315600Y-53162200D02*
X60426600Y-53860700D01*
X60172600Y-53924200D02*
X61315600Y-53162200D01*
X60998100Y-53289200D02*
X60172600Y-53924200D01*
X60045600Y-53860700D02*
X60998100Y-53289200D01*
X60807600Y-53289200D02*
X60045600Y-53860700D01*
X60045600Y-53733700D02*
X60807600Y-53289200D01*
X60553600Y-53289200D02*
X60045600Y-53733700D01*
X59982100Y-53606700D02*
X60553600Y-53289200D01*
X60553600Y-53098700D02*
X59982100Y-53606700D01*
X60553600Y-52971700D02*
X59918600Y-53479700D01*
X60680600Y-52781200D02*
X59855100Y-53352700D01*
X60680600Y-52654200D02*
X59855100Y-53225700D01*
D13*
X58839100Y-53860700D02*
X58204100Y-52971700D01*
D12*
X60744100Y-53987700D02*
X58775600Y-53987700D01*
X62331600Y-52844700D02*
X60744100Y-53987700D01*
X60553600Y-53289200D02*
X62331600Y-52844700D01*
X60871100Y-52400200D02*
X60553600Y-53289200D01*
X59791600Y-53098700D02*
X60871100Y-52400200D01*
X58966100Y-51638200D02*
X59791600Y-53162200D01*
X59029600Y-53035200D02*
X58966100Y-51638200D01*
X57950100Y-52781200D02*
X59029600Y-53035200D01*
X58775600Y-53987700D02*
X57950100Y-52781200D01*
D13*
X59029600Y-53860700D02*
X58394600Y-52971700D01*
X59220100Y-53860700D02*
X58648600Y-53035200D01*
X59347100Y-53860700D02*
X58902600Y-53098700D01*
X59601100Y-53860700D02*
X59156600Y-53035200D01*
X59791600Y-53860700D02*
X59220100Y-52781200D01*
X59982100Y-53860700D02*
X59093100Y-52146200D01*
X59156600Y-52844700D02*
X59093100Y-52019200D01*
D10*
G36*
X37650000Y-57216400D02*
X28497600Y-57216400D01*
X28497600Y-43264000D01*
X37650000Y-43264000D01*
X37650000Y-57216400D01*
X37650000Y-57216400D01*
G37*
G36*
X44646000Y-53350400D02*
X41893600Y-53350400D01*
X41893600Y-47638000D01*
X44646000Y-47638000D01*
X44646000Y-53350400D01*
X44646000Y-53350400D01*
G37*
G36*
X24246000Y-53350400D02*
X21493600Y-53350400D01*
X21493600Y-47638000D01*
X24246000Y-47638000D01*
X24246000Y-53350400D01*
X24246000Y-53350400D01*
G37*
G36*
X59479710Y-36816547D02*
X60070655Y-36937851D01*
X60626798Y-37171632D01*
X61126934Y-37508978D01*
X61552021Y-37937043D01*
X61885866Y-38439521D01*
X62115756Y-38997276D01*
X62232864Y-39588714D01*
X62232864Y-39588724D01*
X62232931Y-39589063D01*
X62223310Y-40278116D01*
X62223233Y-40278454D01*
X62223233Y-40278462D01*
X62089657Y-40866401D01*
X61844285Y-41417516D01*
X61496537Y-41910478D01*
X61059662Y-42326509D01*
X60550300Y-42649761D01*
X59987854Y-42867919D01*
X59393747Y-42972676D01*
X58790603Y-42960042D01*
X58201400Y-42830497D01*
X57648582Y-42588977D01*
X57153207Y-42244682D01*
X56734137Y-41810723D01*
X56407338Y-41303630D01*
X56185256Y-40742714D01*
X56076355Y-40149358D01*
X56084777Y-39546141D01*
X56210206Y-38956047D01*
X56447859Y-38401558D01*
X56788691Y-37903788D01*
X57219712Y-37481700D01*
X57724513Y-37151368D01*
X58283859Y-36925377D01*
X58876445Y-36812336D01*
X59479710Y-36816547D01*
X59479710Y-36816547D01*
G37*
G36*
X51479710Y-36816547D02*
X52070655Y-36937851D01*
X52626798Y-37171632D01*
X53126934Y-37508978D01*
X53552021Y-37937043D01*
X53885866Y-38439521D01*
X54115756Y-38997276D01*
X54232864Y-39588714D01*
X54232864Y-39588724D01*
X54232931Y-39589063D01*
X54223310Y-40278116D01*
X54223233Y-40278454D01*
X54223233Y-40278462D01*
X54089657Y-40866401D01*
X53844285Y-41417516D01*
X53496537Y-41910478D01*
X53059662Y-42326509D01*
X52550300Y-42649761D01*
X51987854Y-42867919D01*
X51393747Y-42972676D01*
X50790603Y-42960042D01*
X50201400Y-42830497D01*
X49648582Y-42588977D01*
X49153207Y-42244682D01*
X48734137Y-41810723D01*
X48407338Y-41303630D01*
X48185256Y-40742714D01*
X48076355Y-40149358D01*
X48084777Y-39546141D01*
X48210206Y-38956047D01*
X48447859Y-38401558D01*
X48788691Y-37903788D01*
X49219712Y-37481700D01*
X49724513Y-37151368D01*
X50283859Y-36925377D01*
X50876445Y-36812336D01*
X51479710Y-36816547D01*
X51479710Y-36816547D01*
G37*
G36*
X55269642Y-35815215D02*
X55476377Y-35857652D01*
X55670947Y-35939441D01*
X55845918Y-36057461D01*
X55994633Y-36207218D01*
X56111427Y-36383008D01*
X56191853Y-36578136D01*
X56232778Y-36784824D01*
X56232778Y-36784829D01*
X56232846Y-36785173D01*
X56229480Y-37026236D01*
X56229403Y-37026574D01*
X56229403Y-37026583D01*
X56182722Y-37232049D01*
X56096881Y-37424852D01*
X55975221Y-37597315D01*
X55822382Y-37742862D01*
X55644184Y-37855950D01*
X55447410Y-37932273D01*
X55239567Y-37968922D01*
X55028557Y-37964502D01*
X54822425Y-37919181D01*
X54629022Y-37834685D01*
X54455719Y-37714236D01*
X54309108Y-37562417D01*
X54194778Y-37385010D01*
X54117081Y-37188772D01*
X54078984Y-36981192D01*
X54081930Y-36770158D01*
X54125811Y-36563713D01*
X54208953Y-36369728D01*
X54328193Y-36195583D01*
X54478984Y-36047917D01*
X54655588Y-35932351D01*
X54851275Y-35853288D01*
X55058587Y-35813742D01*
X55269642Y-35815215D01*
X55269642Y-35815215D01*
G37*
G36*
X55264390Y-33325181D02*
X55461521Y-33365647D01*
X55647051Y-33443637D01*
X55813892Y-33556173D01*
X55955698Y-33698972D01*
X56067066Y-33866595D01*
X56143756Y-34052658D01*
X56182776Y-34249727D01*
X56182776Y-34249732D01*
X56182844Y-34250076D01*
X56179634Y-34479939D01*
X56179557Y-34480277D01*
X56179557Y-34480286D01*
X56135049Y-34676190D01*
X56053196Y-34860035D01*
X55937188Y-35024486D01*
X55791450Y-35163271D01*
X55621531Y-35271105D01*
X55433899Y-35343882D01*
X55235712Y-35378828D01*
X55034505Y-35374613D01*
X54837951Y-35331399D01*
X54653533Y-35250828D01*
X54488282Y-35135975D01*
X54348482Y-34991209D01*
X54239464Y-34822045D01*
X54165377Y-34634924D01*
X54129049Y-34436988D01*
X54131858Y-34235758D01*
X54173702Y-34038905D01*
X54252980Y-33853932D01*
X54366680Y-33687878D01*
X54510465Y-33547073D01*
X54678865Y-33436876D01*
X54865460Y-33361486D01*
X55063140Y-33323777D01*
X55264390Y-33325181D01*
X55264390Y-33325181D01*
G37*
G36*
X30156487Y-33457216D02*
X30334408Y-33493738D01*
X30501859Y-33564128D01*
X30652442Y-33665698D01*
X30780430Y-33794582D01*
X30880944Y-33945870D01*
X30950163Y-34113806D01*
X30985373Y-34291628D01*
X30985373Y-34291643D01*
X30985440Y-34291982D01*
X30982543Y-34499446D01*
X30982467Y-34499780D01*
X30982467Y-34499793D01*
X30942303Y-34676573D01*
X30868427Y-34842503D01*
X30763724Y-34990928D01*
X30632186Y-35116189D01*
X30478824Y-35213517D01*
X30309480Y-35279201D01*
X30130604Y-35310742D01*
X29949005Y-35306937D01*
X29771603Y-35267933D01*
X29605156Y-35195214D01*
X29456008Y-35091554D01*
X29329832Y-34960895D01*
X29231437Y-34808214D01*
X29164569Y-34639328D01*
X29131782Y-34460681D01*
X29134317Y-34279060D01*
X29172083Y-34101389D01*
X29243636Y-33934441D01*
X29346256Y-33784569D01*
X29476030Y-33657485D01*
X29628020Y-33558026D01*
X29796432Y-33489983D01*
X29974849Y-33455948D01*
X30156487Y-33457216D01*
X30156487Y-33457216D01*
G37*
G36*
X36156487Y-33457216D02*
X36334408Y-33493738D01*
X36501859Y-33564128D01*
X36652442Y-33665698D01*
X36780430Y-33794582D01*
X36880944Y-33945870D01*
X36950163Y-34113806D01*
X36985373Y-34291628D01*
X36985373Y-34291643D01*
X36985440Y-34291982D01*
X36982543Y-34499446D01*
X36982467Y-34499780D01*
X36982467Y-34499793D01*
X36942303Y-34676573D01*
X36868427Y-34842503D01*
X36763724Y-34990928D01*
X36632186Y-35116189D01*
X36478824Y-35213517D01*
X36309480Y-35279201D01*
X36130604Y-35310742D01*
X35949005Y-35306937D01*
X35771603Y-35267933D01*
X35605156Y-35195214D01*
X35456008Y-35091554D01*
X35329832Y-34960895D01*
X35231437Y-34808214D01*
X35164569Y-34639328D01*
X35131782Y-34460681D01*
X35134317Y-34279060D01*
X35172083Y-34101389D01*
X35243636Y-33934441D01*
X35346256Y-33784569D01*
X35476030Y-33657485D01*
X35628020Y-33558026D01*
X35796432Y-33489983D01*
X35974849Y-33455948D01*
X36156487Y-33457216D01*
X36156487Y-33457216D01*
G37*
G36*
X59479710Y-28816547D02*
X60070655Y-28937851D01*
X60626798Y-29171632D01*
X61126934Y-29508978D01*
X61552021Y-29937043D01*
X61885866Y-30439521D01*
X62115756Y-30997276D01*
X62232864Y-31588714D01*
X62232864Y-31588724D01*
X62232931Y-31589063D01*
X62223310Y-32278116D01*
X62223233Y-32278454D01*
X62223233Y-32278462D01*
X62089657Y-32866401D01*
X61844285Y-33417516D01*
X61496537Y-33910478D01*
X61059662Y-34326509D01*
X60550300Y-34649761D01*
X59987854Y-34867919D01*
X59393747Y-34972676D01*
X58790603Y-34960042D01*
X58201400Y-34830497D01*
X57648582Y-34588977D01*
X57153207Y-34244682D01*
X56734137Y-33810723D01*
X56407338Y-33303630D01*
X56185256Y-32742714D01*
X56076355Y-32149358D01*
X56084777Y-31546141D01*
X56210206Y-30956047D01*
X56447859Y-30401558D01*
X56788691Y-29903788D01*
X57219712Y-29481700D01*
X57724513Y-29151368D01*
X58283859Y-28925377D01*
X58876445Y-28812336D01*
X59479710Y-28816547D01*
X59479710Y-28816547D01*
G37*
G36*
X51479710Y-28816547D02*
X52070655Y-28937851D01*
X52626798Y-29171632D01*
X53126934Y-29508978D01*
X53552021Y-29937043D01*
X53885866Y-30439521D01*
X54115756Y-30997276D01*
X54232864Y-31588714D01*
X54232864Y-31588724D01*
X54232931Y-31589063D01*
X54223310Y-32278116D01*
X54223233Y-32278454D01*
X54223233Y-32278462D01*
X54089657Y-32866401D01*
X53844285Y-33417516D01*
X53496537Y-33910478D01*
X53059662Y-34326509D01*
X52550300Y-34649761D01*
X51987854Y-34867919D01*
X51393747Y-34972676D01*
X50790603Y-34960042D01*
X50201400Y-34830497D01*
X49648582Y-34588977D01*
X49153207Y-34244682D01*
X48734137Y-33810723D01*
X48407338Y-33303630D01*
X48185256Y-32742714D01*
X48076355Y-32149358D01*
X48084777Y-31546141D01*
X48210206Y-30956047D01*
X48447859Y-30401558D01*
X48788691Y-29903788D01*
X49219712Y-29481700D01*
X49724513Y-29151368D01*
X50283859Y-28925377D01*
X50876445Y-28812336D01*
X51479710Y-28816547D01*
X51479710Y-28816547D01*
G37*
G36*
X36156487Y-29457216D02*
X36334408Y-29493738D01*
X36501859Y-29564128D01*
X36652442Y-29665698D01*
X36780430Y-29794582D01*
X36880944Y-29945870D01*
X36950163Y-30113806D01*
X36985373Y-30291628D01*
X36985373Y-30291643D01*
X36985440Y-30291982D01*
X36982543Y-30499446D01*
X36982467Y-30499780D01*
X36982467Y-30499793D01*
X36942303Y-30676573D01*
X36868427Y-30842503D01*
X36763724Y-30990928D01*
X36632186Y-31116189D01*
X36478824Y-31213517D01*
X36309480Y-31279201D01*
X36130604Y-31310742D01*
X35949005Y-31306937D01*
X35771603Y-31267933D01*
X35605156Y-31195214D01*
X35456008Y-31091554D01*
X35329832Y-30960895D01*
X35231437Y-30808214D01*
X35164569Y-30639328D01*
X35131782Y-30460681D01*
X35134317Y-30279060D01*
X35172083Y-30101389D01*
X35243636Y-29934441D01*
X35346256Y-29784569D01*
X35476030Y-29657485D01*
X35628020Y-29558026D01*
X35796432Y-29489983D01*
X35974849Y-29455948D01*
X36156487Y-29457216D01*
X36156487Y-29457216D01*
G37*
G36*
X30156487Y-29457216D02*
X30334408Y-29493738D01*
X30501859Y-29564128D01*
X30652442Y-29665698D01*
X30780430Y-29794582D01*
X30880944Y-29945870D01*
X30950163Y-30113806D01*
X30985373Y-30291628D01*
X30985373Y-30291643D01*
X30985440Y-30291982D01*
X30982543Y-30499446D01*
X30982467Y-30499780D01*
X30982467Y-30499793D01*
X30942303Y-30676573D01*
X30868427Y-30842503D01*
X30763724Y-30990928D01*
X30632186Y-31116189D01*
X30478824Y-31213517D01*
X30309480Y-31279201D01*
X30130604Y-31310742D01*
X29949005Y-31306937D01*
X29771603Y-31267933D01*
X29605156Y-31195214D01*
X29456008Y-31091554D01*
X29329832Y-30960895D01*
X29231437Y-30808214D01*
X29164569Y-30639328D01*
X29131782Y-30460681D01*
X29134317Y-30279060D01*
X29172083Y-30101389D01*
X29243636Y-29934441D01*
X29346256Y-29784569D01*
X29476030Y-29657485D01*
X29628020Y-29558026D01*
X29796432Y-29489983D01*
X29974849Y-29455948D01*
X30156487Y-29457216D01*
X30156487Y-29457216D01*
G37*
M02*
