%TF.GenerationSoftware,KiCad,Pcbnew,4.0.5-e0-6337~49~ubuntu16.04.1*%
%TF.CreationDate,2017-01-31T10:51:04-08:00*%
%TF.ProjectId,LegoLED-SMTButton-Battery,4C65676F4C45442D534D54427574746F,1.0*%
%TF.FileFunction,Soldermask,Top*%
%FSLAX46Y46*%
G04 Gerber Fmt 4.6, Leading zero omitted, Abs format (unit mm)*
G04 Created by KiCad (PCBNEW 4.0.5-e0-6337~49~ubuntu16.04.1) date Tue Jan 31 10:51:04 2017*
%MOMM*%
%LPD*%
G01*
G04 APERTURE LIST*
%ADD10C,0.350000*%
%ADD11C,0.500000*%
%ADD12C,0.152400*%
%ADD13C,0.254000*%
G04 APERTURE END LIST*
D10*
D11*
X160110953Y-109132857D02*
X159991905Y-109251905D01*
X159634762Y-109370952D01*
X159396667Y-109370952D01*
X159039524Y-109251905D01*
X158801429Y-109013810D01*
X158682381Y-108775714D01*
X158563333Y-108299524D01*
X158563333Y-107942381D01*
X158682381Y-107466190D01*
X158801429Y-107228095D01*
X159039524Y-106990000D01*
X159396667Y-106870952D01*
X159634762Y-106870952D01*
X159991905Y-106990000D01*
X160110953Y-107109048D01*
X161182381Y-109370952D02*
X161182381Y-106870952D01*
X163801429Y-109370952D02*
X162968095Y-108180476D01*
X162372857Y-109370952D02*
X162372857Y-106870952D01*
X163325238Y-106870952D01*
X163563333Y-106990000D01*
X163682381Y-107109048D01*
X163801429Y-107347143D01*
X163801429Y-107704286D01*
X163682381Y-107942381D01*
X163563333Y-108061429D01*
X163325238Y-108180476D01*
X162372857Y-108180476D01*
X166301429Y-109132857D02*
X166182381Y-109251905D01*
X165825238Y-109370952D01*
X165587143Y-109370952D01*
X165230000Y-109251905D01*
X164991905Y-109013810D01*
X164872857Y-108775714D01*
X164753809Y-108299524D01*
X164753809Y-107942381D01*
X164872857Y-107466190D01*
X164991905Y-107228095D01*
X165230000Y-106990000D01*
X165587143Y-106870952D01*
X165825238Y-106870952D01*
X166182381Y-106990000D01*
X166301429Y-107109048D01*
X167372857Y-106870952D02*
X167372857Y-108894762D01*
X167491905Y-109132857D01*
X167610952Y-109251905D01*
X167849048Y-109370952D01*
X168325238Y-109370952D01*
X168563333Y-109251905D01*
X168682381Y-109132857D01*
X168801429Y-108894762D01*
X168801429Y-106870952D01*
X169991905Y-109370952D02*
X169991905Y-106870952D01*
X170825238Y-106870952D02*
X172253810Y-106870952D01*
X171539524Y-109370952D02*
X171539524Y-106870952D01*
X172968095Y-109251905D02*
X173325238Y-109370952D01*
X173920476Y-109370952D01*
X174158572Y-109251905D01*
X174277619Y-109132857D01*
X174396667Y-108894762D01*
X174396667Y-108656667D01*
X174277619Y-108418571D01*
X174158572Y-108299524D01*
X173920476Y-108180476D01*
X173444286Y-108061429D01*
X173206191Y-107942381D01*
X173087143Y-107823333D01*
X172968095Y-107585238D01*
X172968095Y-107347143D01*
X173087143Y-107109048D01*
X173206191Y-106990000D01*
X173444286Y-106870952D01*
X174039524Y-106870952D01*
X174396667Y-106990000D01*
X158810477Y-105082857D02*
X158691429Y-105201905D01*
X158334286Y-105320952D01*
X158096191Y-105320952D01*
X157739048Y-105201905D01*
X157500953Y-104963810D01*
X157381905Y-104725714D01*
X157262857Y-104249524D01*
X157262857Y-103892381D01*
X157381905Y-103416190D01*
X157500953Y-103178095D01*
X157739048Y-102940000D01*
X158096191Y-102820952D01*
X158334286Y-102820952D01*
X158691429Y-102940000D01*
X158810477Y-103059048D01*
X161310477Y-105320952D02*
X160477143Y-104130476D01*
X159881905Y-105320952D02*
X159881905Y-102820952D01*
X160834286Y-102820952D01*
X161072381Y-102940000D01*
X161191429Y-103059048D01*
X161310477Y-103297143D01*
X161310477Y-103654286D01*
X161191429Y-103892381D01*
X161072381Y-104011429D01*
X160834286Y-104130476D01*
X159881905Y-104130476D01*
X162262857Y-104606667D02*
X163453334Y-104606667D01*
X162024762Y-105320952D02*
X162858096Y-102820952D01*
X163691429Y-105320952D01*
X164286667Y-102820952D02*
X165953334Y-102820952D01*
X164286667Y-105320952D01*
X165953334Y-105320952D01*
X167381905Y-104130476D02*
X167381905Y-105320952D01*
X166548571Y-102820952D02*
X167381905Y-104130476D01*
X168215238Y-102820952D01*
X175820000Y-104580500D02*
X174320000Y-105580500D01*
D12*
X173981000Y-105626500D02*
X175314500Y-104674000D01*
X174933500Y-104801000D02*
X173981000Y-105626500D01*
X173854000Y-105563000D02*
X174933500Y-104801000D01*
X174743000Y-104864500D02*
X173854000Y-105563000D01*
X173600000Y-105626500D02*
X174743000Y-104864500D01*
X174425500Y-104991500D02*
X173600000Y-105626500D01*
X173473000Y-105563000D02*
X174425500Y-104991500D01*
X174235000Y-104991500D02*
X173473000Y-105563000D01*
X173473000Y-105436000D02*
X174235000Y-104991500D01*
X173981000Y-104991500D02*
X173473000Y-105436000D01*
X173409500Y-105309000D02*
X173981000Y-104991500D01*
X173981000Y-104801000D02*
X173409500Y-105309000D01*
X173981000Y-104674000D02*
X173346000Y-105182000D01*
X174108000Y-104483500D02*
X173282500Y-105055000D01*
X174108000Y-104356500D02*
X173282500Y-104928000D01*
D11*
X172020000Y-105580500D02*
X170820000Y-104080500D01*
X174420000Y-105580500D02*
X172051500Y-105580500D01*
D12*
X175759000Y-104547000D02*
X174171500Y-105690000D01*
D11*
X173981000Y-104991500D02*
X175759000Y-104547000D01*
X174820000Y-103480500D02*
X173981000Y-104991500D01*
X173219000Y-104801000D02*
X174820000Y-103480500D01*
X172420000Y-102380500D02*
X173219000Y-104864500D01*
X172457000Y-104737500D02*
X172420000Y-102480500D01*
X170820000Y-103980500D02*
X172457000Y-104737500D01*
D12*
X172203000Y-105690000D02*
X171377500Y-104483500D01*
D11*
X172457000Y-105563000D02*
X171822000Y-104674000D01*
D13*
X172647500Y-105563000D02*
X172076000Y-104737500D01*
X172774500Y-105563000D02*
X172330000Y-104801000D01*
X173028500Y-105563000D02*
X172584000Y-104737500D01*
X173219000Y-105563000D02*
X172647500Y-104483500D01*
X173409500Y-105563000D02*
X172520500Y-103848500D01*
X172584000Y-104547000D02*
X172520500Y-103721500D01*
D10*
G36*
X183313110Y-106835847D02*
X183904055Y-106957151D01*
X184460198Y-107190932D01*
X184960334Y-107528278D01*
X185385421Y-107956343D01*
X185719266Y-108458821D01*
X185949156Y-109016576D01*
X186066264Y-109608014D01*
X186066264Y-109608024D01*
X186066331Y-109608363D01*
X186056710Y-110297416D01*
X186056633Y-110297754D01*
X186056633Y-110297762D01*
X185923057Y-110885701D01*
X185677685Y-111436816D01*
X185329937Y-111929778D01*
X184893062Y-112345809D01*
X184383700Y-112669061D01*
X183821254Y-112887219D01*
X183227147Y-112991976D01*
X182624003Y-112979342D01*
X182034800Y-112849797D01*
X181481982Y-112608277D01*
X180986607Y-112263982D01*
X180567537Y-111830023D01*
X180240738Y-111322930D01*
X180018656Y-110762014D01*
X179909755Y-110168658D01*
X179918177Y-109565441D01*
X180043606Y-108975347D01*
X180281259Y-108420858D01*
X180622091Y-107923088D01*
X181053112Y-107501000D01*
X181557913Y-107170668D01*
X182117259Y-106944677D01*
X182709845Y-106831636D01*
X183313110Y-106835847D01*
X183313110Y-106835847D01*
G37*
G36*
X191313110Y-106835847D02*
X191904055Y-106957151D01*
X192460198Y-107190932D01*
X192960334Y-107528278D01*
X193385421Y-107956343D01*
X193719266Y-108458821D01*
X193949156Y-109016576D01*
X194066264Y-109608014D01*
X194066264Y-109608024D01*
X194066331Y-109608363D01*
X194056710Y-110297416D01*
X194056633Y-110297754D01*
X194056633Y-110297762D01*
X193923057Y-110885701D01*
X193677685Y-111436816D01*
X193329937Y-111929778D01*
X192893062Y-112345809D01*
X192383700Y-112669061D01*
X191821254Y-112887219D01*
X191227147Y-112991976D01*
X190624003Y-112979342D01*
X190034800Y-112849797D01*
X189481982Y-112608277D01*
X188986607Y-112263982D01*
X188567537Y-111830023D01*
X188240738Y-111322930D01*
X188018656Y-110762014D01*
X187909755Y-110168658D01*
X187918177Y-109565441D01*
X188043606Y-108975347D01*
X188281259Y-108420858D01*
X188622091Y-107923088D01*
X189053112Y-107501000D01*
X189557913Y-107170668D01*
X190117259Y-106944677D01*
X190709845Y-106831636D01*
X191313110Y-106835847D01*
X191313110Y-106835847D01*
G37*
G36*
X188066200Y-107936200D02*
X185913800Y-107936200D01*
X185913800Y-105883800D01*
X188066200Y-105883800D01*
X188066200Y-107936200D01*
X188066200Y-107936200D01*
G37*
G36*
X187097790Y-103344481D02*
X187294921Y-103384947D01*
X187480451Y-103462937D01*
X187647292Y-103575473D01*
X187789098Y-103718272D01*
X187900466Y-103885895D01*
X187977156Y-104071958D01*
X188016176Y-104269027D01*
X188016176Y-104269032D01*
X188016244Y-104269376D01*
X188013034Y-104499239D01*
X188012957Y-104499577D01*
X188012957Y-104499586D01*
X187968449Y-104695490D01*
X187886596Y-104879335D01*
X187770588Y-105043786D01*
X187624850Y-105182571D01*
X187454931Y-105290405D01*
X187267299Y-105363182D01*
X187069112Y-105398128D01*
X186867905Y-105393913D01*
X186671351Y-105350699D01*
X186486933Y-105270128D01*
X186321682Y-105155275D01*
X186181882Y-105010509D01*
X186072864Y-104841345D01*
X185998777Y-104654224D01*
X185962449Y-104456288D01*
X185965258Y-104255058D01*
X186007102Y-104058205D01*
X186086380Y-103873232D01*
X186200080Y-103707178D01*
X186343865Y-103566373D01*
X186512265Y-103456176D01*
X186698860Y-103380786D01*
X186896540Y-103343077D01*
X187097790Y-103344481D01*
X187097790Y-103344481D01*
G37*
G36*
X183313110Y-98835847D02*
X183904055Y-98957151D01*
X184460198Y-99190932D01*
X184960334Y-99528278D01*
X185385421Y-99956343D01*
X185719266Y-100458821D01*
X185949156Y-101016576D01*
X186066264Y-101608014D01*
X186066264Y-101608024D01*
X186066331Y-101608363D01*
X186056710Y-102297416D01*
X186056633Y-102297754D01*
X186056633Y-102297762D01*
X185923057Y-102885701D01*
X185677685Y-103436816D01*
X185329937Y-103929778D01*
X184893062Y-104345809D01*
X184383700Y-104669061D01*
X183821254Y-104887219D01*
X183227147Y-104991976D01*
X182624003Y-104979342D01*
X182034800Y-104849797D01*
X181481982Y-104608277D01*
X180986607Y-104263982D01*
X180567537Y-103830023D01*
X180240738Y-103322930D01*
X180018656Y-102762014D01*
X179909755Y-102168658D01*
X179918177Y-101565441D01*
X180043606Y-100975347D01*
X180281259Y-100420858D01*
X180622091Y-99923088D01*
X181053112Y-99501000D01*
X181557913Y-99170668D01*
X182117259Y-98944677D01*
X182709845Y-98831636D01*
X183313110Y-98835847D01*
X183313110Y-98835847D01*
G37*
G36*
X191313110Y-98835847D02*
X191904055Y-98957151D01*
X192460198Y-99190932D01*
X192960334Y-99528278D01*
X193385421Y-99956343D01*
X193719266Y-100458821D01*
X193949156Y-101016576D01*
X194066264Y-101608014D01*
X194066264Y-101608024D01*
X194066331Y-101608363D01*
X194056710Y-102297416D01*
X194056633Y-102297754D01*
X194056633Y-102297762D01*
X193923057Y-102885701D01*
X193677685Y-103436816D01*
X193329937Y-103929778D01*
X192893062Y-104345809D01*
X192383700Y-104669061D01*
X191821254Y-104887219D01*
X191227147Y-104991976D01*
X190624003Y-104979342D01*
X190034800Y-104849797D01*
X189481982Y-104608277D01*
X188986607Y-104263982D01*
X188567537Y-103830023D01*
X188240738Y-103322930D01*
X188018656Y-102762014D01*
X187909755Y-102168658D01*
X187918177Y-101565441D01*
X188043606Y-100975347D01*
X188281259Y-100420858D01*
X188622091Y-99923088D01*
X189053112Y-99501000D01*
X189557913Y-99170668D01*
X190117259Y-98944677D01*
X190709845Y-98831636D01*
X191313110Y-98835847D01*
X191313110Y-98835847D01*
G37*
G36*
X157123110Y-88845847D02*
X157714055Y-88967151D01*
X158270198Y-89200932D01*
X158770334Y-89538278D01*
X159195421Y-89966343D01*
X159529266Y-90468821D01*
X159759156Y-91026576D01*
X159876264Y-91618014D01*
X159876264Y-91618024D01*
X159876331Y-91618363D01*
X159866710Y-92307416D01*
X159866633Y-92307754D01*
X159866633Y-92307762D01*
X159733057Y-92895701D01*
X159487685Y-93446816D01*
X159139937Y-93939778D01*
X158703062Y-94355809D01*
X158193700Y-94679061D01*
X157631254Y-94897219D01*
X157037147Y-95001976D01*
X156434003Y-94989342D01*
X155844800Y-94859797D01*
X155291982Y-94618277D01*
X154796607Y-94273982D01*
X154377537Y-93840023D01*
X154050738Y-93332930D01*
X153828656Y-92772014D01*
X153719755Y-92178658D01*
X153728177Y-91575441D01*
X153853606Y-90985347D01*
X154091259Y-90430858D01*
X154432091Y-89933088D01*
X154863112Y-89511000D01*
X155367913Y-89180668D01*
X155927259Y-88954677D01*
X156519845Y-88841636D01*
X157123110Y-88845847D01*
X157123110Y-88845847D01*
G37*
G36*
X165123110Y-72845847D02*
X165714055Y-72967151D01*
X166270198Y-73200932D01*
X166770334Y-73538278D01*
X167195421Y-73966343D01*
X167529266Y-74468821D01*
X167759156Y-75026576D01*
X167876264Y-75618014D01*
X167876264Y-75618024D01*
X167876331Y-75618363D01*
X167866710Y-76307416D01*
X167866633Y-76307754D01*
X167866633Y-76307762D01*
X167733057Y-76895701D01*
X167630371Y-77126338D01*
X167626452Y-77140085D01*
X167626518Y-77154379D01*
X167630564Y-77168090D01*
X167638269Y-77180130D01*
X167649023Y-77189547D01*
X167661975Y-77195595D01*
X167676779Y-77197800D01*
X169372200Y-77197800D01*
X169372200Y-91150200D01*
X167845480Y-91150200D01*
X167831327Y-91152211D01*
X167818296Y-91158086D01*
X167807416Y-91167358D01*
X167799551Y-91179294D01*
X167795322Y-91192949D01*
X167795647Y-91210867D01*
X167876264Y-91618014D01*
X167876264Y-91618024D01*
X167876331Y-91618363D01*
X167866710Y-92307416D01*
X167866633Y-92307754D01*
X167866633Y-92307762D01*
X167733057Y-92895701D01*
X167487685Y-93446816D01*
X167139937Y-93939778D01*
X166703062Y-94355809D01*
X166193700Y-94679061D01*
X165631254Y-94897219D01*
X165037147Y-95001976D01*
X164434003Y-94989342D01*
X163844800Y-94859797D01*
X163291982Y-94618277D01*
X162796607Y-94273982D01*
X162377537Y-93840023D01*
X162050738Y-93332930D01*
X161828656Y-92772014D01*
X161719755Y-92178658D01*
X161728177Y-91575441D01*
X161805522Y-91211562D01*
X161806497Y-91197300D01*
X161803461Y-91183332D01*
X161796653Y-91170762D01*
X161786613Y-91160587D01*
X161774135Y-91153612D01*
X161755832Y-91150200D01*
X160219800Y-91150200D01*
X160219800Y-77197800D01*
X161922486Y-77197800D01*
X161936639Y-77195789D01*
X161949670Y-77189914D01*
X161960550Y-77180642D01*
X161968415Y-77168706D01*
X161972644Y-77155051D01*
X161972901Y-77140758D01*
X161969719Y-77128299D01*
X161828656Y-76772014D01*
X161719755Y-76178658D01*
X161728177Y-75575441D01*
X161853606Y-74985347D01*
X162091259Y-74430858D01*
X162432091Y-73933088D01*
X162863112Y-73511000D01*
X163367913Y-73180668D01*
X163927259Y-72954677D01*
X164519845Y-72841636D01*
X165123110Y-72845847D01*
X165123110Y-72845847D01*
G37*
G36*
X191313110Y-88825847D02*
X191904055Y-88947151D01*
X192460198Y-89180932D01*
X192960334Y-89518278D01*
X193385421Y-89946343D01*
X193719266Y-90448821D01*
X193949156Y-91006576D01*
X194066264Y-91598014D01*
X194066264Y-91598024D01*
X194066331Y-91598363D01*
X194056710Y-92287416D01*
X194056633Y-92287754D01*
X194056633Y-92287762D01*
X193923057Y-92875701D01*
X193677685Y-93426816D01*
X193329937Y-93919778D01*
X192893062Y-94335809D01*
X192383700Y-94659061D01*
X191821254Y-94877219D01*
X191227147Y-94981976D01*
X190624003Y-94969342D01*
X190034800Y-94839797D01*
X189481982Y-94598277D01*
X188986607Y-94253982D01*
X188567537Y-93820023D01*
X188240738Y-93312930D01*
X188018656Y-92752014D01*
X187909755Y-92158658D01*
X187918177Y-91555441D01*
X188043606Y-90965347D01*
X188281259Y-90410858D01*
X188622091Y-89913088D01*
X189053112Y-89491000D01*
X189557913Y-89160668D01*
X190117259Y-88934677D01*
X190709845Y-88821636D01*
X191313110Y-88825847D01*
X191313110Y-88825847D01*
G37*
G36*
X183313110Y-88825847D02*
X183904055Y-88947151D01*
X184460198Y-89180932D01*
X184960334Y-89518278D01*
X185385421Y-89946343D01*
X185719266Y-90448821D01*
X185949156Y-91006576D01*
X186066264Y-91598014D01*
X186066264Y-91598024D01*
X186066331Y-91598363D01*
X186056710Y-92287416D01*
X186056633Y-92287754D01*
X186056633Y-92287762D01*
X185923057Y-92875701D01*
X185677685Y-93426816D01*
X185329937Y-93919778D01*
X184893062Y-94335809D01*
X184383700Y-94659061D01*
X183821254Y-94877219D01*
X183227147Y-94981976D01*
X182624003Y-94969342D01*
X182034800Y-94839797D01*
X181481982Y-94598277D01*
X180986607Y-94253982D01*
X180567537Y-93820023D01*
X180240738Y-93312930D01*
X180018656Y-92752014D01*
X179909755Y-92158658D01*
X179918177Y-91555441D01*
X180043606Y-90965347D01*
X180281259Y-90410858D01*
X180622091Y-89913088D01*
X181053112Y-89491000D01*
X181557913Y-89160668D01*
X182117259Y-88934677D01*
X182709845Y-88821636D01*
X183313110Y-88825847D01*
X183313110Y-88825847D01*
G37*
G36*
X189516200Y-88751200D02*
X188063800Y-88751200D01*
X188063800Y-87048800D01*
X189516200Y-87048800D01*
X189516200Y-88751200D01*
X189516200Y-88751200D01*
G37*
G36*
X185016200Y-88751200D02*
X183563800Y-88751200D01*
X183563800Y-87048800D01*
X185016200Y-87048800D01*
X185016200Y-88751200D01*
X185016200Y-88751200D01*
G37*
G36*
X191313110Y-80825847D02*
X191904055Y-80947151D01*
X192460198Y-81180932D01*
X192960334Y-81518278D01*
X193385421Y-81946343D01*
X193719266Y-82448821D01*
X193949156Y-83006576D01*
X194066264Y-83598014D01*
X194066264Y-83598024D01*
X194066331Y-83598363D01*
X194056710Y-84287416D01*
X194056633Y-84287754D01*
X194056633Y-84287762D01*
X193923057Y-84875701D01*
X193677685Y-85426816D01*
X193329937Y-85919778D01*
X192893062Y-86335809D01*
X192383700Y-86659061D01*
X191821254Y-86877219D01*
X191227147Y-86981976D01*
X190624003Y-86969342D01*
X190034800Y-86839797D01*
X189481982Y-86598277D01*
X188986607Y-86253982D01*
X188567537Y-85820023D01*
X188240738Y-85312930D01*
X188018656Y-84752014D01*
X187909755Y-84158658D01*
X187918177Y-83555441D01*
X188043606Y-82965347D01*
X188281259Y-82410858D01*
X188622091Y-81913088D01*
X189053112Y-81491000D01*
X189557913Y-81160668D01*
X190117259Y-80934677D01*
X190709845Y-80821636D01*
X191313110Y-80825847D01*
X191313110Y-80825847D01*
G37*
G36*
X185016200Y-80801200D02*
X183693153Y-80801200D01*
X183679000Y-80803211D01*
X183665969Y-80809086D01*
X183655089Y-80818358D01*
X183647224Y-80830294D01*
X183642995Y-80843949D01*
X183642738Y-80858242D01*
X183646473Y-80872040D01*
X183653904Y-80884251D01*
X183664443Y-80893909D01*
X183682938Y-80901762D01*
X183904055Y-80947151D01*
X184460198Y-81180932D01*
X184960334Y-81518278D01*
X185385421Y-81946343D01*
X185719266Y-82448821D01*
X185949156Y-83006576D01*
X186066264Y-83598014D01*
X186066264Y-83598024D01*
X186066331Y-83598363D01*
X186056710Y-84287416D01*
X186056633Y-84287754D01*
X186056633Y-84287762D01*
X185923057Y-84875701D01*
X185677685Y-85426816D01*
X185329937Y-85919778D01*
X184893062Y-86335809D01*
X184383700Y-86659061D01*
X183821254Y-86877219D01*
X183227147Y-86981976D01*
X182624003Y-86969342D01*
X182034800Y-86839797D01*
X181481982Y-86598277D01*
X180986607Y-86253982D01*
X180567537Y-85820023D01*
X180240738Y-85312930D01*
X180018656Y-84752014D01*
X179909755Y-84158658D01*
X179918177Y-83555441D01*
X180043606Y-82965347D01*
X180281259Y-82410858D01*
X180622091Y-81913088D01*
X181053112Y-81491000D01*
X181557913Y-81160668D01*
X182117259Y-80934677D01*
X182709845Y-80821636D01*
X183313110Y-80825847D01*
X183502785Y-80864782D01*
X183517053Y-80865658D01*
X183531000Y-80862524D01*
X183543522Y-80855629D01*
X183553627Y-80845518D01*
X183560515Y-80832992D01*
X183563800Y-80815020D01*
X183563800Y-79098800D01*
X185016200Y-79098800D01*
X185016200Y-80801200D01*
X185016200Y-80801200D01*
G37*
G36*
X176376200Y-86776200D02*
X173623800Y-86776200D01*
X173623800Y-81063800D01*
X176376200Y-81063800D01*
X176376200Y-86776200D01*
X176376200Y-86776200D01*
G37*
G36*
X155976200Y-86776200D02*
X153223800Y-86776200D01*
X153223800Y-81063800D01*
X155976200Y-81063800D01*
X155976200Y-86776200D01*
X155976200Y-86776200D01*
G37*
G36*
X189516200Y-80801200D02*
X188063800Y-80801200D01*
X188063800Y-79098800D01*
X189516200Y-79098800D01*
X189516200Y-80801200D01*
X189516200Y-80801200D01*
G37*
G36*
X157123110Y-72845847D02*
X157714055Y-72967151D01*
X158270198Y-73200932D01*
X158770334Y-73538278D01*
X159195421Y-73966343D01*
X159529266Y-74468821D01*
X159759156Y-75026576D01*
X159876264Y-75618014D01*
X159876264Y-75618024D01*
X159876331Y-75618363D01*
X159866710Y-76307416D01*
X159866633Y-76307754D01*
X159866633Y-76307762D01*
X159733057Y-76895701D01*
X159487685Y-77446816D01*
X159139937Y-77939778D01*
X158703062Y-78355809D01*
X158193700Y-78679061D01*
X157631254Y-78897219D01*
X157037147Y-79001976D01*
X156434003Y-78989342D01*
X155844800Y-78859797D01*
X155291982Y-78618277D01*
X154796607Y-78273982D01*
X154377537Y-77840023D01*
X154050738Y-77332930D01*
X153828656Y-76772014D01*
X153719755Y-76178658D01*
X153728177Y-75575441D01*
X153853606Y-74985347D01*
X154091259Y-74430858D01*
X154432091Y-73933088D01*
X154863112Y-73511000D01*
X155367913Y-73180668D01*
X155927259Y-72954677D01*
X156519845Y-72841636D01*
X157123110Y-72845847D01*
X157123110Y-72845847D01*
G37*
G36*
X191313110Y-72825847D02*
X191904055Y-72947151D01*
X192460198Y-73180932D01*
X192960334Y-73518278D01*
X193385421Y-73946343D01*
X193719266Y-74448821D01*
X193949156Y-75006576D01*
X194066264Y-75598014D01*
X194066264Y-75598024D01*
X194066331Y-75598363D01*
X194056710Y-76287416D01*
X194056633Y-76287754D01*
X194056633Y-76287762D01*
X193923057Y-76875701D01*
X193677685Y-77426816D01*
X193329937Y-77919778D01*
X192893062Y-78335809D01*
X192383700Y-78659061D01*
X191821254Y-78877219D01*
X191227147Y-78981976D01*
X190624003Y-78969342D01*
X190034800Y-78839797D01*
X189481982Y-78598277D01*
X188986607Y-78253982D01*
X188567537Y-77820023D01*
X188240738Y-77312930D01*
X188018656Y-76752014D01*
X187909755Y-76158658D01*
X187918177Y-75555441D01*
X188043606Y-74965347D01*
X188281259Y-74410858D01*
X188622091Y-73913088D01*
X189053112Y-73491000D01*
X189557913Y-73160668D01*
X190117259Y-72934677D01*
X190709845Y-72821636D01*
X191313110Y-72825847D01*
X191313110Y-72825847D01*
G37*
G36*
X183313110Y-72825847D02*
X183904055Y-72947151D01*
X184460198Y-73180932D01*
X184960334Y-73518278D01*
X185385421Y-73946343D01*
X185719266Y-74448821D01*
X185949156Y-75006576D01*
X186066264Y-75598014D01*
X186066264Y-75598024D01*
X186066331Y-75598363D01*
X186056710Y-76287416D01*
X186056633Y-76287754D01*
X186056633Y-76287762D01*
X185923057Y-76875701D01*
X185677685Y-77426816D01*
X185329937Y-77919778D01*
X184893062Y-78335809D01*
X184383700Y-78659061D01*
X183821254Y-78877219D01*
X183227147Y-78981976D01*
X182624003Y-78969342D01*
X182034800Y-78839797D01*
X181481982Y-78598277D01*
X180986607Y-78253982D01*
X180567537Y-77820023D01*
X180240738Y-77312930D01*
X180018656Y-76752014D01*
X179909755Y-76158658D01*
X179918177Y-75555441D01*
X180043606Y-74965347D01*
X180281259Y-74410858D01*
X180622091Y-73913088D01*
X181053112Y-73491000D01*
X181557913Y-73160668D01*
X182117259Y-72934677D01*
X182709845Y-72821636D01*
X183313110Y-72825847D01*
X183313110Y-72825847D01*
G37*
M02*
