%TF.GenerationSoftware,KiCad,Pcbnew,4.0.5-e0-6337~49~ubuntu16.04.1*%
%TF.CreationDate,2017-01-29T14:30:55-08:00*%
%TF.ProjectId,LegoLED-SMTButton-Battery,4C65676F4C45442D534D54427574746F,1.0*%
%TF.FileFunction,Profile,NP*%
%FSLAX46Y46*%
G04 Gerber Fmt 4.6, Leading zero omitted, Abs format (unit mm)*
G04 Created by KiCad (PCBNEW 4.0.5-e0-6337~49~ubuntu16.04.1) date Sun Jan 29 14:30:55 2017*
%MOMM*%
%LPD*%
G01*
G04 APERTURE LIST*
%ADD10C,0.350000*%
%ADD11C,0.040000*%
%ADD12C,0.040640*%
%ADD13C,0.050000*%
G04 APERTURE END LIST*
D10*
D11*
X179210000Y-110760000D02*
X176530000Y-110760000D01*
D12*
X157338000Y-106170000D02*
X157338000Y-103630000D01*
X158862000Y-106170000D02*
X158862000Y-103630000D01*
X170938000Y-106170000D02*
X170938000Y-103630000D01*
X172462000Y-106170000D02*
X172462000Y-103630000D01*
X176530000Y-109238000D02*
X179070000Y-109238000D01*
X176530000Y-110762000D02*
X179070000Y-110762000D01*
X179170000Y-86062000D02*
X176630000Y-86062000D01*
X179170000Y-84538000D02*
X176630000Y-84538000D01*
D13*
X194703625Y-101990028D02*
G75*
G03X190900000Y-98200000I-3999066J-209764D01*
G01*
X179100000Y-110000000D02*
X179100000Y-102000000D01*
X190900000Y-113800000D02*
X182900000Y-113800000D01*
X190900000Y-98200000D02*
X182900000Y-98200000D01*
X194700000Y-110000000D02*
X194700000Y-102000000D01*
X182890028Y-98196375D02*
G75*
G03X179100000Y-102000000I209764J-3999066D01*
G01*
X190909972Y-113803625D02*
G75*
G03X194700000Y-110000000I-209764J3999066D01*
G01*
X179096375Y-110009972D02*
G75*
G03X182900000Y-113800000I3999066J209764D01*
G01*
X156800000Y-103600000D02*
X172800000Y-103600000D01*
X153000000Y-83800000D02*
X153000000Y-99800000D01*
X176600000Y-83800000D02*
X176600000Y-99800000D01*
X156800000Y-80000000D02*
X172800000Y-80000000D01*
X156800000Y-80000000D02*
G75*
G03X153000000Y-83800000I0J-3800000D01*
G01*
X153000000Y-99800000D02*
G75*
G03X156800000Y-103600000I3800000J0D01*
G01*
X172800000Y-103600000D02*
G75*
G03X176600000Y-99800000I0J3800000D01*
G01*
X176600000Y-83800000D02*
G75*
G03X172800000Y-80000000I-3800000J0D01*
G01*
D12*
X187762000Y-95630000D02*
X187762000Y-98170000D01*
X186238000Y-95630000D02*
X186238000Y-98170000D01*
X182880000Y-80020000D02*
G75*
G03X179186632Y-83919820I106632J-3799820D01*
G01*
X179190179Y-91820000D02*
G75*
G03X182880000Y-95620000I3801645J0D01*
G01*
X190880000Y-95621316D02*
G75*
G03X194680000Y-91720000I0J3801316D01*
G01*
X194681316Y-83820000D02*
G75*
G03X190780000Y-80020000I-3801316J0D01*
G01*
X194680000Y-83820000D02*
X194680000Y-91820000D01*
X190880000Y-80020000D02*
X182880000Y-80020000D01*
X190880000Y-95620000D02*
X182880000Y-95620000D01*
X179180000Y-83820000D02*
X179180000Y-91820000D01*
X172800000Y-106200000D02*
X156900000Y-106200000D01*
X172900000Y-114000000D02*
X156900000Y-114000000D01*
X176600000Y-110100000D02*
G75*
G03X172700000Y-106200000I-3900000J0D01*
G01*
X172700000Y-114000000D02*
G75*
G03X176600000Y-110100000I0J3900000D01*
G01*
X153000000Y-110100000D02*
G75*
G03X156900000Y-114000000I3900000J0D01*
G01*
X156900000Y-106200000D02*
G75*
G03X153000000Y-110100000I0J-3900000D01*
G01*
M02*
