%TF.GenerationSoftware,KiCad,Pcbnew,4.0.7-e2-6376~58~ubuntu16.04.1*%
%TF.CreationDate,2017-10-07T16:27:36-07:00*%
%TF.ProjectId,LegoLED-SMTButton-Battery,4C65676F4C45442D534D54427574746F,v1.2*%
%TF.FileFunction,Legend,Top*%
%FSLAX46Y46*%
G04 Gerber Fmt 4.6, Leading zero omitted, Abs format (unit mm)*
G04 Created by KiCad (PCBNEW 4.0.7-e2-6376~58~ubuntu16.04.1) date Sat Oct  7 16:27:36 2017*
%MOMM*%
%LPD*%
G01*
G04 APERTURE LIST*
%ADD10C,0.350000*%
%ADD11C,0.152400*%
%ADD12C,0.300000*%
%ADD13C,8.000000*%
%ADD14C,0.150000*%
%ADD15C,0.100000*%
%ADD16C,7.000000*%
%ADD17C,0.500000*%
%ADD18C,0.254000*%
%ADD19C,0.600000*%
%ADD20C,2.152400*%
%ADD21C,2.052400*%
%ADD22C,6.152400*%
%ADD23R,1.452400X1.702400*%
%ADD24R,2.752400X5.712400*%
%ADD25R,9.152400X13.952400*%
G04 APERTURE END LIST*
D10*
D11*
X59943900Y-109282500D02*
X78533400Y-109282500D01*
D12*
X60180331Y-109219000D02*
G75*
G03X60180331Y-109219000I-807931J0D01*
G01*
D13*
X95003400Y-113212000D02*
X87003400Y-113212000D01*
D14*
X92503400Y-111442000D02*
X89503400Y-111442000D01*
D15*
X94503400Y-83202000D02*
X94503400Y-91202000D01*
X86503400Y-83202000D02*
X94503400Y-83202000D01*
X86503400Y-91202000D02*
X86503400Y-83202000D01*
X94503400Y-91202000D02*
X86503400Y-91202000D01*
D16*
X94903400Y-79002000D02*
X94903400Y-95302000D01*
D11*
X97003400Y-85102000D02*
X94753400Y-85102000D01*
X94753400Y-97102000D02*
X97003400Y-97102000D01*
X85003400Y-97102000D02*
X87253400Y-97102000D01*
D13*
X68813400Y-95222000D02*
X68813400Y-79222000D01*
X60813400Y-95222000D02*
X68813400Y-95222000D01*
X60913400Y-79222000D02*
X68913400Y-79222000D01*
D14*
X90360543Y-103164381D02*
X89884352Y-103164381D01*
X89884352Y-102164381D01*
X90693876Y-102640571D02*
X91027210Y-102640571D01*
X91170067Y-103164381D02*
X90693876Y-103164381D01*
X90693876Y-102164381D01*
X91170067Y-102164381D01*
X91598638Y-103164381D02*
X91598638Y-102164381D01*
X91836733Y-102164381D01*
X91979591Y-102212000D01*
X92074829Y-102307238D01*
X92122448Y-102402476D01*
X92170067Y-102592952D01*
X92170067Y-102735810D01*
X92122448Y-102926286D01*
X92074829Y-103021524D01*
X91979591Y-103116762D01*
X91836733Y-103164381D01*
X91598638Y-103164381D01*
X90622448Y-105083429D02*
X91384353Y-105083429D01*
X91003401Y-105464381D02*
X91003401Y-104702476D01*
X91255781Y-89549619D02*
X90255781Y-89549619D01*
X90255781Y-89168666D01*
X90303400Y-89073428D01*
X90351019Y-89025809D01*
X90446257Y-88978190D01*
X90589114Y-88978190D01*
X90684352Y-89025809D01*
X90731971Y-89073428D01*
X90779590Y-89168666D01*
X90779590Y-89549619D01*
X90255781Y-88692476D02*
X90255781Y-88121047D01*
X91255781Y-88406762D02*
X90255781Y-88406762D01*
X91208162Y-87835333D02*
X91255781Y-87692476D01*
X91255781Y-87454380D01*
X91208162Y-87359142D01*
X91160543Y-87311523D01*
X91065305Y-87263904D01*
X90970067Y-87263904D01*
X90874829Y-87311523D01*
X90827210Y-87359142D01*
X90779590Y-87454380D01*
X90731971Y-87644857D01*
X90684352Y-87740095D01*
X90636733Y-87787714D01*
X90541495Y-87835333D01*
X90446257Y-87835333D01*
X90351019Y-87787714D01*
X90303400Y-87740095D01*
X90255781Y-87644857D01*
X90255781Y-87406761D01*
X90303400Y-87263904D01*
X90255781Y-86406761D02*
X90255781Y-86597238D01*
X90303400Y-86692476D01*
X90351019Y-86740095D01*
X90493876Y-86835333D01*
X90684352Y-86882952D01*
X91065305Y-86882952D01*
X91160543Y-86835333D01*
X91208162Y-86787714D01*
X91255781Y-86692476D01*
X91255781Y-86501999D01*
X91208162Y-86406761D01*
X91160543Y-86359142D01*
X91065305Y-86311523D01*
X90827210Y-86311523D01*
X90731971Y-86359142D01*
X90684352Y-86406761D01*
X90636733Y-86501999D01*
X90636733Y-86692476D01*
X90684352Y-86787714D01*
X90731971Y-86835333D01*
X90827210Y-86882952D01*
X90589114Y-85454380D02*
X91255781Y-85454380D01*
X90208162Y-85692476D02*
X90922448Y-85930571D01*
X90922448Y-85311523D01*
X90255781Y-84454380D02*
X90255781Y-84930571D01*
X90731971Y-84978190D01*
X90684352Y-84930571D01*
X90636733Y-84835333D01*
X90636733Y-84597237D01*
X90684352Y-84501999D01*
X90731971Y-84454380D01*
X90827210Y-84406761D01*
X91065305Y-84406761D01*
X91160543Y-84454380D01*
X91208162Y-84501999D01*
X91255781Y-84597237D01*
X91255781Y-84835333D01*
X91208162Y-84930571D01*
X91160543Y-84978190D01*
X74141971Y-91150571D02*
X74284828Y-91198190D01*
X74332447Y-91245810D01*
X74380066Y-91341048D01*
X74380066Y-91483905D01*
X74332447Y-91579143D01*
X74284828Y-91626762D01*
X74189590Y-91674381D01*
X73808637Y-91674381D01*
X73808637Y-90674381D01*
X74141971Y-90674381D01*
X74237209Y-90722000D01*
X74284828Y-90769619D01*
X74332447Y-90864857D01*
X74332447Y-90960095D01*
X74284828Y-91055333D01*
X74237209Y-91102952D01*
X74141971Y-91150571D01*
X73808637Y-91150571D01*
X75237209Y-91674381D02*
X75237209Y-91150571D01*
X75189590Y-91055333D01*
X75094352Y-91007714D01*
X74903875Y-91007714D01*
X74808637Y-91055333D01*
X75237209Y-91626762D02*
X75141971Y-91674381D01*
X74903875Y-91674381D01*
X74808637Y-91626762D01*
X74761018Y-91531524D01*
X74761018Y-91436286D01*
X74808637Y-91341048D01*
X74903875Y-91293429D01*
X75141971Y-91293429D01*
X75237209Y-91245810D01*
X75570542Y-91007714D02*
X75951494Y-91007714D01*
X75713399Y-90674381D02*
X75713399Y-91531524D01*
X75761018Y-91626762D01*
X75856256Y-91674381D01*
X75951494Y-91674381D01*
X76141971Y-91007714D02*
X76522923Y-91007714D01*
X76284828Y-90674381D02*
X76284828Y-91531524D01*
X76332447Y-91626762D01*
X76427685Y-91674381D01*
X76522923Y-91674381D01*
X77237210Y-91626762D02*
X77141972Y-91674381D01*
X76951495Y-91674381D01*
X76856257Y-91626762D01*
X76808638Y-91531524D01*
X76808638Y-91150571D01*
X76856257Y-91055333D01*
X76951495Y-91007714D01*
X77141972Y-91007714D01*
X77237210Y-91055333D01*
X77284829Y-91150571D01*
X77284829Y-91245810D01*
X76808638Y-91341048D01*
X77713400Y-91674381D02*
X77713400Y-91007714D01*
X77713400Y-91198190D02*
X77761019Y-91102952D01*
X77808638Y-91055333D01*
X77903876Y-91007714D01*
X77999115Y-91007714D01*
X78237210Y-91007714D02*
X78475305Y-91674381D01*
X78713401Y-91007714D02*
X78475305Y-91674381D01*
X78380067Y-91912476D01*
X78332448Y-91960095D01*
X78237210Y-92007714D01*
X79432448Y-83093429D02*
X80194353Y-83093429D01*
X79813401Y-83474381D02*
X79813401Y-82712476D01*
X79432448Y-91893429D02*
X80194353Y-91893429D01*
X79813401Y-92274381D02*
X79813401Y-91512476D01*
%LPC*%
D17*
X64124353Y-112434857D02*
X64005305Y-112553905D01*
X63648162Y-112672952D01*
X63410067Y-112672952D01*
X63052924Y-112553905D01*
X62814829Y-112315810D01*
X62695781Y-112077714D01*
X62576733Y-111601524D01*
X62576733Y-111244381D01*
X62695781Y-110768190D01*
X62814829Y-110530095D01*
X63052924Y-110292000D01*
X63410067Y-110172952D01*
X63648162Y-110172952D01*
X64005305Y-110292000D01*
X64124353Y-110411048D01*
X65195781Y-112672952D02*
X65195781Y-110172952D01*
X67814829Y-112672952D02*
X66981495Y-111482476D01*
X66386257Y-112672952D02*
X66386257Y-110172952D01*
X67338638Y-110172952D01*
X67576733Y-110292000D01*
X67695781Y-110411048D01*
X67814829Y-110649143D01*
X67814829Y-111006286D01*
X67695781Y-111244381D01*
X67576733Y-111363429D01*
X67338638Y-111482476D01*
X66386257Y-111482476D01*
X70314829Y-112434857D02*
X70195781Y-112553905D01*
X69838638Y-112672952D01*
X69600543Y-112672952D01*
X69243400Y-112553905D01*
X69005305Y-112315810D01*
X68886257Y-112077714D01*
X68767209Y-111601524D01*
X68767209Y-111244381D01*
X68886257Y-110768190D01*
X69005305Y-110530095D01*
X69243400Y-110292000D01*
X69600543Y-110172952D01*
X69838638Y-110172952D01*
X70195781Y-110292000D01*
X70314829Y-110411048D01*
X71386257Y-110172952D02*
X71386257Y-112196762D01*
X71505305Y-112434857D01*
X71624352Y-112553905D01*
X71862448Y-112672952D01*
X72338638Y-112672952D01*
X72576733Y-112553905D01*
X72695781Y-112434857D01*
X72814829Y-112196762D01*
X72814829Y-110172952D01*
X74005305Y-112672952D02*
X74005305Y-110172952D01*
X74838638Y-110172952D02*
X76267210Y-110172952D01*
X75552924Y-112672952D02*
X75552924Y-110172952D01*
X76981495Y-112553905D02*
X77338638Y-112672952D01*
X77933876Y-112672952D01*
X78171972Y-112553905D01*
X78291019Y-112434857D01*
X78410067Y-112196762D01*
X78410067Y-111958667D01*
X78291019Y-111720571D01*
X78171972Y-111601524D01*
X77933876Y-111482476D01*
X77457686Y-111363429D01*
X77219591Y-111244381D01*
X77100543Y-111125333D01*
X76981495Y-110887238D01*
X76981495Y-110649143D01*
X77100543Y-110411048D01*
X77219591Y-110292000D01*
X77457686Y-110172952D01*
X78052924Y-110172952D01*
X78410067Y-110292000D01*
X62823877Y-108384857D02*
X62704829Y-108503905D01*
X62347686Y-108622952D01*
X62109591Y-108622952D01*
X61752448Y-108503905D01*
X61514353Y-108265810D01*
X61395305Y-108027714D01*
X61276257Y-107551524D01*
X61276257Y-107194381D01*
X61395305Y-106718190D01*
X61514353Y-106480095D01*
X61752448Y-106242000D01*
X62109591Y-106122952D01*
X62347686Y-106122952D01*
X62704829Y-106242000D01*
X62823877Y-106361048D01*
X65323877Y-108622952D02*
X64490543Y-107432476D01*
X63895305Y-108622952D02*
X63895305Y-106122952D01*
X64847686Y-106122952D01*
X65085781Y-106242000D01*
X65204829Y-106361048D01*
X65323877Y-106599143D01*
X65323877Y-106956286D01*
X65204829Y-107194381D01*
X65085781Y-107313429D01*
X64847686Y-107432476D01*
X63895305Y-107432476D01*
X66276257Y-107908667D02*
X67466734Y-107908667D01*
X66038162Y-108622952D02*
X66871496Y-106122952D01*
X67704829Y-108622952D01*
X68300067Y-106122952D02*
X69966734Y-106122952D01*
X68300067Y-108622952D01*
X69966734Y-108622952D01*
X71395305Y-107432476D02*
X71395305Y-108622952D01*
X70561971Y-106122952D02*
X71395305Y-107432476D01*
X72228638Y-106122952D01*
X79833400Y-107882500D02*
X78333400Y-108882500D01*
D11*
X77994400Y-108928500D02*
X79327900Y-107976000D01*
X78946900Y-108103000D02*
X77994400Y-108928500D01*
X77867400Y-108865000D02*
X78946900Y-108103000D01*
X78756400Y-108166500D02*
X77867400Y-108865000D01*
X77613400Y-108928500D02*
X78756400Y-108166500D01*
X78438900Y-108293500D02*
X77613400Y-108928500D01*
X77486400Y-108865000D02*
X78438900Y-108293500D01*
X78248400Y-108293500D02*
X77486400Y-108865000D01*
X77486400Y-108738000D02*
X78248400Y-108293500D01*
X77994400Y-108293500D02*
X77486400Y-108738000D01*
X77422900Y-108611000D02*
X77994400Y-108293500D01*
X77994400Y-108103000D02*
X77422900Y-108611000D01*
X77994400Y-107976000D02*
X77359400Y-108484000D01*
X78121400Y-107785500D02*
X77295900Y-108357000D01*
X78121400Y-107658500D02*
X77295900Y-108230000D01*
D17*
X76033400Y-108882500D02*
X74833400Y-107382500D01*
X78433400Y-108882500D02*
X76064900Y-108882500D01*
D11*
X79772400Y-107849000D02*
X78184900Y-108992000D01*
D17*
X77994400Y-108293500D02*
X79772400Y-107849000D01*
X78833400Y-106782500D02*
X77994400Y-108293500D01*
X77232400Y-108103000D02*
X78833400Y-106782500D01*
X76433400Y-105682500D02*
X77232400Y-108166500D01*
X76470400Y-108039500D02*
X76433400Y-105782500D01*
X74833400Y-107282500D02*
X76470400Y-108039500D01*
D11*
X76216400Y-108992000D02*
X75390900Y-107785500D01*
D17*
X76470400Y-108865000D02*
X75835400Y-107976000D01*
D18*
X76660900Y-108865000D02*
X76089400Y-108039500D01*
X76787900Y-108865000D02*
X76343400Y-108103000D01*
X77041900Y-108865000D02*
X76597400Y-108039500D01*
X77232400Y-108865000D02*
X76660900Y-107785500D01*
X77422900Y-108865000D02*
X76533900Y-107150500D01*
X76597400Y-107849000D02*
X76533900Y-107023500D01*
D19*
X92235081Y-95180474D02*
G75*
G03X95028800Y-92458800I2768319J-46926D01*
G01*
X86950792Y-92505766D02*
G75*
G03X89745206Y-95248488I51214J-2742722D01*
G01*
X87048494Y-84458194D02*
G75*
G03X87002006Y-89944200I-46488J-2742806D01*
G01*
X89744849Y-79155772D02*
G75*
G03X87002006Y-81943200I-2742843J-44228D01*
G01*
X95054614Y-81942722D02*
G75*
G03X92260200Y-79200000I-51214J2742722D01*
G01*
X95003400Y-89944200D02*
G75*
G03X95049888Y-84458194I46488J2742806D01*
G01*
X61524224Y-92615642D02*
G75*
G03X63289900Y-96301500I-710824J-2606358D01*
G01*
X63450762Y-78679816D02*
G75*
G03X61448400Y-81823500I-2640220J-527860D01*
G01*
X74241538Y-95762184D02*
G75*
G03X76243900Y-92618500I2640220J527860D01*
G01*
X76104576Y-81826358D02*
G75*
G03X74338900Y-78140500I710824J2606358D01*
G01*
D20*
X91003400Y-110212000D03*
D21*
X91003400Y-107672000D03*
D22*
X95003400Y-105212000D03*
X95003400Y-113212000D03*
X87003400Y-113212000D03*
X87003400Y-105212000D03*
D23*
X92803400Y-91202000D03*
X88303400Y-91202000D03*
X92803400Y-83252000D03*
X88303400Y-83252000D03*
D24*
X79013400Y-87222000D03*
D25*
X68809400Y-87476000D03*
D24*
X58613400Y-87222000D03*
M02*
