%TF.GenerationSoftware,KiCad,Pcbnew,4.0.5-e0-6337~49~ubuntu16.04.1*%
%TF.CreationDate,2017-01-29T14:30:55-08:00*%
%TF.ProjectId,LegoLED-SMTButton-Battery,4C65676F4C45442D534D54427574746F,1.0*%
%TF.FileFunction,Copper,L1,Top,Signal*%
%FSLAX46Y46*%
G04 Gerber Fmt 4.6, Leading zero omitted, Abs format (unit mm)*
G04 Created by KiCad (PCBNEW 4.0.5-e0-6337~49~ubuntu16.04.1) date Sun Jan 29 14:30:55 2017*
%MOMM*%
%LPD*%
G01*
G04 APERTURE LIST*
%ADD10C,0.350000*%
%ADD11C,5.000000*%
%ADD12C,0.500000*%
%ADD13R,2.000000X1.900000*%
%ADD14C,1.900000*%
%ADD15C,6.000000*%
%ADD16R,2.600000X5.560000*%
%ADD17R,9.000000X13.800000*%
%ADD18R,1.800000X2.400000*%
%ADD19R,1.800000X2.300000*%
%ADD20O,23.240000X7.620000*%
%ADD21C,0.152400*%
%ADD22C,0.350000*%
G04 APERTURE END LIST*
D10*
D11*
X190880000Y-91820000D02*
X182880000Y-91820000D01*
X190980000Y-83720000D02*
X182580000Y-83720000D01*
D12*
X157592000Y-103884000D03*
X158608000Y-103884000D03*
X158608000Y-105916000D03*
X157592000Y-105916000D03*
X171192000Y-103884000D03*
X172208000Y-103884000D03*
X172208000Y-105916000D03*
X171192000Y-105916000D03*
X178816000Y-109492000D03*
X178816000Y-110508000D03*
X176784000Y-110508000D03*
X176784000Y-109492000D03*
X176884000Y-85808000D03*
X176884000Y-84792000D03*
X178916000Y-84792000D03*
X178916000Y-85808000D03*
D13*
X186900000Y-107000000D03*
D14*
X186900000Y-104460000D03*
D15*
X190900000Y-102000000D03*
X190900000Y-110000000D03*
X182900000Y-110000000D03*
X182900000Y-102000000D03*
X164800000Y-91800000D03*
X156800000Y-91800000D03*
X172800000Y-91800000D03*
D16*
X175000000Y-91800000D03*
D17*
X164796000Y-92054000D03*
D16*
X154600000Y-91800000D03*
D15*
X156800000Y-83800000D03*
X164800000Y-83800000D03*
X172800000Y-83800000D03*
X156800000Y-99800000D03*
X164800000Y-99800000D03*
X172800000Y-99800000D03*
D12*
X187508000Y-97916000D03*
X186492000Y-97916000D03*
X186492000Y-95884000D03*
X187508000Y-95884000D03*
D15*
X182880000Y-83820000D03*
X190880000Y-83820000D03*
X190880000Y-91820000D03*
X182880000Y-91820000D03*
D18*
X193680000Y-85320000D03*
D19*
X193680000Y-90320000D03*
D18*
X180080000Y-85320000D03*
X180080000Y-90320000D03*
D20*
X164800000Y-110100000D03*
D21*
X158100000Y-103400000D02*
X158100000Y-106900000D01*
X156800000Y-102100000D02*
X158100000Y-103400000D01*
X156800000Y-99820000D02*
X156800000Y-102100000D01*
X179700000Y-109800000D02*
X174600000Y-109800000D01*
X179900000Y-110000000D02*
X179700000Y-109800000D01*
X182900000Y-110000000D02*
X179900000Y-110000000D01*
X187000000Y-99200000D02*
X187000000Y-91800000D01*
X187200000Y-99200000D02*
X187000000Y-99200000D01*
X188400000Y-99200000D02*
X187200000Y-99200000D01*
X190900000Y-101700000D02*
X188400000Y-99200000D01*
X190900000Y-102000000D02*
X190900000Y-101700000D01*
X172800000Y-99820000D02*
X172800000Y-102000000D01*
X181600000Y-85300000D02*
X182100000Y-84800000D01*
X176200000Y-85300000D02*
X181600000Y-85300000D01*
X174720000Y-83820000D02*
X176200000Y-85300000D01*
X172800000Y-83820000D02*
X174720000Y-83820000D01*
D22*
X157592000Y-103884000D03*
X158608000Y-103884000D03*
X158608000Y-105916000D03*
X157592000Y-105916000D03*
X171192000Y-103884000D03*
X172208000Y-103884000D03*
X172208000Y-105916000D03*
X171192000Y-105916000D03*
X178816000Y-109492000D03*
X178816000Y-110508000D03*
X176784000Y-110508000D03*
X176784000Y-109492000D03*
X176884000Y-85808000D03*
X176884000Y-84792000D03*
X178916000Y-84792000D03*
X178916000Y-85808000D03*
X186900000Y-107000000D03*
X186900000Y-104460000D03*
X190900000Y-102000000D03*
X190900000Y-110000000D03*
X182900000Y-110000000D03*
X182900000Y-102000000D03*
X164800000Y-91800000D03*
X156800000Y-91800000D03*
X172800000Y-91800000D03*
X156800000Y-83800000D03*
X164800000Y-83800000D03*
X172800000Y-83800000D03*
X156800000Y-99800000D03*
X164800000Y-99800000D03*
X172800000Y-99800000D03*
X187508000Y-97916000D03*
X186492000Y-97916000D03*
X186492000Y-95884000D03*
X187508000Y-95884000D03*
X182880000Y-83820000D03*
X190880000Y-83820000D03*
X190880000Y-91820000D03*
X182880000Y-91820000D03*
M02*
