%TF.GenerationSoftware,KiCad,Pcbnew,4.0.5-e0-6337~49~ubuntu16.04.1*%
%TF.CreationDate,2017-01-29T14:30:55-08:00*%
%TF.ProjectId,LegoLED-SMTButton-Battery,4C65676F4C45442D534D54427574746F,1.0*%
%TF.FileFunction,Soldermask,Bot*%
%FSLAX46Y46*%
G04 Gerber Fmt 4.6, Leading zero omitted, Abs format (unit mm)*
G04 Created by KiCad (PCBNEW 4.0.5-e0-6337~49~ubuntu16.04.1) date Sun Jan 29 14:30:55 2017*
%MOMM*%
%LPD*%
G01*
G04 APERTURE LIST*
%ADD10C,0.350000*%
%ADD11C,7.000000*%
%ADD12C,7.200000*%
G04 APERTURE END LIST*
D10*
D11*
X182900000Y-110000000D02*
X190900000Y-110000000D01*
X182900000Y-102000000D02*
X190900000Y-102000000D01*
D12*
X164800000Y-83800000D02*
X156800000Y-83800000D01*
X164800000Y-99800000D02*
X164800000Y-83800000D01*
X156800000Y-99800000D02*
X164800000Y-99800000D01*
X172800000Y-83800000D02*
X172800000Y-99800000D01*
X190880000Y-91820000D02*
X182880000Y-91820000D01*
X190980000Y-83720000D02*
X182780000Y-83720000D01*
D10*
G36*
X183223110Y-106925847D02*
X183814055Y-107047151D01*
X184370198Y-107280932D01*
X184870334Y-107618278D01*
X185295421Y-108046343D01*
X185629266Y-108548821D01*
X185859156Y-109106576D01*
X185976264Y-109698014D01*
X185976264Y-109698024D01*
X185976331Y-109698363D01*
X185966710Y-110387416D01*
X185966633Y-110387754D01*
X185966633Y-110387762D01*
X185833057Y-110975701D01*
X185587685Y-111526816D01*
X185239937Y-112019778D01*
X184803062Y-112435809D01*
X184293700Y-112759061D01*
X183731254Y-112977219D01*
X183137147Y-113081976D01*
X182534003Y-113069342D01*
X181944800Y-112939797D01*
X181391982Y-112698277D01*
X180896607Y-112353982D01*
X180477537Y-111920023D01*
X180150738Y-111412930D01*
X179928656Y-110852014D01*
X179819755Y-110258658D01*
X179828177Y-109655441D01*
X179953606Y-109065347D01*
X180191259Y-108510858D01*
X180532091Y-108013088D01*
X180963112Y-107591000D01*
X181467913Y-107260668D01*
X182027259Y-107034677D01*
X182619845Y-106921636D01*
X183223110Y-106925847D01*
X183223110Y-106925847D01*
G37*
G36*
X191223110Y-106925847D02*
X191814055Y-107047151D01*
X192370198Y-107280932D01*
X192870334Y-107618278D01*
X193295421Y-108046343D01*
X193629266Y-108548821D01*
X193859156Y-109106576D01*
X193976264Y-109698014D01*
X193976264Y-109698024D01*
X193976331Y-109698363D01*
X193966710Y-110387416D01*
X193966633Y-110387754D01*
X193966633Y-110387762D01*
X193833057Y-110975701D01*
X193587685Y-111526816D01*
X193239937Y-112019778D01*
X192803062Y-112435809D01*
X192293700Y-112759061D01*
X191731254Y-112977219D01*
X191137147Y-113081976D01*
X190534003Y-113069342D01*
X189944800Y-112939797D01*
X189391982Y-112698277D01*
X188896607Y-112353982D01*
X188477537Y-111920023D01*
X188150738Y-111412930D01*
X187928656Y-110852014D01*
X187819755Y-110258658D01*
X187828177Y-109655441D01*
X187953606Y-109065347D01*
X188191259Y-108510858D01*
X188532091Y-108013088D01*
X188963112Y-107591000D01*
X189467913Y-107260668D01*
X190027259Y-107034677D01*
X190619845Y-106921636D01*
X191223110Y-106925847D01*
X191223110Y-106925847D01*
G37*
G36*
X187976200Y-108026200D02*
X185823800Y-108026200D01*
X185823800Y-105973800D01*
X187976200Y-105973800D01*
X187976200Y-108026200D01*
X187976200Y-108026200D01*
G37*
G36*
X187007790Y-103434481D02*
X187204921Y-103474947D01*
X187390451Y-103552937D01*
X187557292Y-103665473D01*
X187699098Y-103808272D01*
X187810466Y-103975895D01*
X187887156Y-104161958D01*
X187926176Y-104359027D01*
X187926176Y-104359032D01*
X187926244Y-104359376D01*
X187923034Y-104589239D01*
X187922957Y-104589577D01*
X187922957Y-104589586D01*
X187878449Y-104785490D01*
X187796596Y-104969335D01*
X187680588Y-105133786D01*
X187534850Y-105272571D01*
X187364931Y-105380405D01*
X187177299Y-105453182D01*
X186979112Y-105488128D01*
X186777905Y-105483913D01*
X186581351Y-105440699D01*
X186396933Y-105360128D01*
X186231682Y-105245275D01*
X186091882Y-105100509D01*
X185982864Y-104931345D01*
X185908777Y-104744224D01*
X185872449Y-104546288D01*
X185875258Y-104345058D01*
X185917102Y-104148205D01*
X185996380Y-103963232D01*
X186110080Y-103797178D01*
X186253865Y-103656373D01*
X186422265Y-103546176D01*
X186608860Y-103470786D01*
X186806540Y-103433077D01*
X187007790Y-103434481D01*
X187007790Y-103434481D01*
G37*
G36*
X191223110Y-98925847D02*
X191814055Y-99047151D01*
X192370198Y-99280932D01*
X192870334Y-99618278D01*
X193295421Y-100046343D01*
X193629266Y-100548821D01*
X193859156Y-101106576D01*
X193976264Y-101698014D01*
X193976264Y-101698024D01*
X193976331Y-101698363D01*
X193966710Y-102387416D01*
X193966633Y-102387754D01*
X193966633Y-102387762D01*
X193833057Y-102975701D01*
X193587685Y-103526816D01*
X193239937Y-104019778D01*
X192803062Y-104435809D01*
X192293700Y-104759061D01*
X191731254Y-104977219D01*
X191137147Y-105081976D01*
X190534003Y-105069342D01*
X189944800Y-104939797D01*
X189391982Y-104698277D01*
X188896607Y-104353982D01*
X188477537Y-103920023D01*
X188150738Y-103412930D01*
X187928656Y-102852014D01*
X187819755Y-102258658D01*
X187828177Y-101655441D01*
X187953606Y-101065347D01*
X188191259Y-100510858D01*
X188532091Y-100013088D01*
X188963112Y-99591000D01*
X189467913Y-99260668D01*
X190027259Y-99034677D01*
X190619845Y-98921636D01*
X191223110Y-98925847D01*
X191223110Y-98925847D01*
G37*
G36*
X183223110Y-98925847D02*
X183814055Y-99047151D01*
X184370198Y-99280932D01*
X184870334Y-99618278D01*
X185295421Y-100046343D01*
X185629266Y-100548821D01*
X185859156Y-101106576D01*
X185976264Y-101698014D01*
X185976264Y-101698024D01*
X185976331Y-101698363D01*
X185966710Y-102387416D01*
X185966633Y-102387754D01*
X185966633Y-102387762D01*
X185833057Y-102975701D01*
X185587685Y-103526816D01*
X185239937Y-104019778D01*
X184803062Y-104435809D01*
X184293700Y-104759061D01*
X183731254Y-104977219D01*
X183137147Y-105081976D01*
X182534003Y-105069342D01*
X181944800Y-104939797D01*
X181391982Y-104698277D01*
X180896607Y-104353982D01*
X180477537Y-103920023D01*
X180150738Y-103412930D01*
X179928656Y-102852014D01*
X179819755Y-102258658D01*
X179828177Y-101655441D01*
X179953606Y-101065347D01*
X180191259Y-100510858D01*
X180532091Y-100013088D01*
X180963112Y-99591000D01*
X181467913Y-99260668D01*
X182027259Y-99034677D01*
X182619845Y-98921636D01*
X183223110Y-98925847D01*
X183223110Y-98925847D01*
G37*
G36*
X157123110Y-96725847D02*
X157714055Y-96847151D01*
X158270198Y-97080932D01*
X158770334Y-97418278D01*
X159195421Y-97846343D01*
X159529266Y-98348821D01*
X159759156Y-98906576D01*
X159876264Y-99498014D01*
X159876264Y-99498024D01*
X159876331Y-99498363D01*
X159866710Y-100187416D01*
X159866633Y-100187754D01*
X159866633Y-100187762D01*
X159733057Y-100775701D01*
X159487685Y-101326816D01*
X159139937Y-101819778D01*
X158703062Y-102235809D01*
X158193700Y-102559061D01*
X157631254Y-102777219D01*
X157037147Y-102881976D01*
X156434003Y-102869342D01*
X155844800Y-102739797D01*
X155291982Y-102498277D01*
X154796607Y-102153982D01*
X154377537Y-101720023D01*
X154050738Y-101212930D01*
X153828656Y-100652014D01*
X153719755Y-100058658D01*
X153728177Y-99455441D01*
X153853606Y-98865347D01*
X154091259Y-98310858D01*
X154432091Y-97813088D01*
X154863112Y-97391000D01*
X155367913Y-97060668D01*
X155927259Y-96834677D01*
X156519845Y-96721636D01*
X157123110Y-96725847D01*
X157123110Y-96725847D01*
G37*
G36*
X173123110Y-96725847D02*
X173714055Y-96847151D01*
X174270198Y-97080932D01*
X174770334Y-97418278D01*
X175195421Y-97846343D01*
X175529266Y-98348821D01*
X175759156Y-98906576D01*
X175876264Y-99498014D01*
X175876264Y-99498024D01*
X175876331Y-99498363D01*
X175866710Y-100187416D01*
X175866633Y-100187754D01*
X175866633Y-100187762D01*
X175733057Y-100775701D01*
X175487685Y-101326816D01*
X175139937Y-101819778D01*
X174703062Y-102235809D01*
X174193700Y-102559061D01*
X173631254Y-102777219D01*
X173037147Y-102881976D01*
X172434003Y-102869342D01*
X171844800Y-102739797D01*
X171291982Y-102498277D01*
X170796607Y-102153982D01*
X170377537Y-101720023D01*
X170050738Y-101212930D01*
X169828656Y-100652014D01*
X169719755Y-100058658D01*
X169728177Y-99455441D01*
X169853606Y-98865347D01*
X170091259Y-98310858D01*
X170432091Y-97813088D01*
X170863112Y-97391000D01*
X171367913Y-97060668D01*
X171927259Y-96834677D01*
X172519845Y-96721636D01*
X173123110Y-96725847D01*
X173123110Y-96725847D01*
G37*
G36*
X165123110Y-96725847D02*
X165714055Y-96847151D01*
X166270198Y-97080932D01*
X166770334Y-97418278D01*
X167195421Y-97846343D01*
X167529266Y-98348821D01*
X167759156Y-98906576D01*
X167876264Y-99498014D01*
X167876264Y-99498024D01*
X167876331Y-99498363D01*
X167866710Y-100187416D01*
X167866633Y-100187754D01*
X167866633Y-100187762D01*
X167733057Y-100775701D01*
X167487685Y-101326816D01*
X167139937Y-101819778D01*
X166703062Y-102235809D01*
X166193700Y-102559061D01*
X165631254Y-102777219D01*
X165037147Y-102881976D01*
X164434003Y-102869342D01*
X163844800Y-102739797D01*
X163291982Y-102498277D01*
X162796607Y-102153982D01*
X162377537Y-101720023D01*
X162050738Y-101212930D01*
X161828656Y-100652014D01*
X161719755Y-100058658D01*
X161728177Y-99455441D01*
X161853606Y-98865347D01*
X162091259Y-98310858D01*
X162432091Y-97813088D01*
X162863112Y-97391000D01*
X163367913Y-97060668D01*
X163927259Y-96834677D01*
X164519845Y-96721636D01*
X165123110Y-96725847D01*
X165123110Y-96725847D01*
G37*
G36*
X191203110Y-88745847D02*
X191794055Y-88867151D01*
X192350198Y-89100932D01*
X192850334Y-89438278D01*
X193275421Y-89866343D01*
X193609266Y-90368821D01*
X193839156Y-90926576D01*
X193956264Y-91518014D01*
X193956264Y-91518024D01*
X193956331Y-91518363D01*
X193946710Y-92207416D01*
X193946633Y-92207754D01*
X193946633Y-92207762D01*
X193813057Y-92795701D01*
X193567685Y-93346816D01*
X193219937Y-93839778D01*
X192783062Y-94255809D01*
X192273700Y-94579061D01*
X191711254Y-94797219D01*
X191117147Y-94901976D01*
X190514003Y-94889342D01*
X189924800Y-94759797D01*
X189371982Y-94518277D01*
X188876607Y-94173982D01*
X188457537Y-93740023D01*
X188130738Y-93232930D01*
X187908656Y-92672014D01*
X187799755Y-92078658D01*
X187808177Y-91475441D01*
X187933606Y-90885347D01*
X188171259Y-90330858D01*
X188512091Y-89833088D01*
X188943112Y-89411000D01*
X189447913Y-89080668D01*
X190007259Y-88854677D01*
X190599845Y-88741636D01*
X191203110Y-88745847D01*
X191203110Y-88745847D01*
G37*
G36*
X183203110Y-88745847D02*
X183794055Y-88867151D01*
X184350198Y-89100932D01*
X184850334Y-89438278D01*
X185275421Y-89866343D01*
X185609266Y-90368821D01*
X185839156Y-90926576D01*
X185956264Y-91518014D01*
X185956264Y-91518024D01*
X185956331Y-91518363D01*
X185946710Y-92207416D01*
X185946633Y-92207754D01*
X185946633Y-92207762D01*
X185813057Y-92795701D01*
X185567685Y-93346816D01*
X185219937Y-93839778D01*
X184783062Y-94255809D01*
X184273700Y-94579061D01*
X183711254Y-94797219D01*
X183117147Y-94901976D01*
X182514003Y-94889342D01*
X181924800Y-94759797D01*
X181371982Y-94518277D01*
X180876607Y-94173982D01*
X180457537Y-93740023D01*
X180130738Y-93232930D01*
X179908656Y-92672014D01*
X179799755Y-92078658D01*
X179808177Y-91475441D01*
X179933606Y-90885347D01*
X180171259Y-90330858D01*
X180512091Y-89833088D01*
X180943112Y-89411000D01*
X181447913Y-89080668D01*
X182007259Y-88854677D01*
X182599845Y-88741636D01*
X183203110Y-88745847D01*
X183203110Y-88745847D01*
G37*
G36*
X173123110Y-88725847D02*
X173714055Y-88847151D01*
X174270198Y-89080932D01*
X174770334Y-89418278D01*
X175195421Y-89846343D01*
X175529266Y-90348821D01*
X175759156Y-90906576D01*
X175876264Y-91498014D01*
X175876264Y-91498024D01*
X175876331Y-91498363D01*
X175866710Y-92187416D01*
X175866633Y-92187754D01*
X175866633Y-92187762D01*
X175733057Y-92775701D01*
X175487685Y-93326816D01*
X175139937Y-93819778D01*
X174703062Y-94235809D01*
X174193700Y-94559061D01*
X173631254Y-94777219D01*
X173037147Y-94881976D01*
X172434003Y-94869342D01*
X171844800Y-94739797D01*
X171291982Y-94498277D01*
X170796607Y-94153982D01*
X170377537Y-93720023D01*
X170050738Y-93212930D01*
X169828656Y-92652014D01*
X169719755Y-92058658D01*
X169728177Y-91455441D01*
X169853606Y-90865347D01*
X170091259Y-90310858D01*
X170432091Y-89813088D01*
X170863112Y-89391000D01*
X171367913Y-89060668D01*
X171927259Y-88834677D01*
X172519845Y-88721636D01*
X173123110Y-88725847D01*
X173123110Y-88725847D01*
G37*
G36*
X165123110Y-88725847D02*
X165714055Y-88847151D01*
X166270198Y-89080932D01*
X166770334Y-89418278D01*
X167195421Y-89846343D01*
X167529266Y-90348821D01*
X167759156Y-90906576D01*
X167876264Y-91498014D01*
X167876264Y-91498024D01*
X167876331Y-91498363D01*
X167866710Y-92187416D01*
X167866633Y-92187754D01*
X167866633Y-92187762D01*
X167733057Y-92775701D01*
X167487685Y-93326816D01*
X167139937Y-93819778D01*
X166703062Y-94235809D01*
X166193700Y-94559061D01*
X165631254Y-94777219D01*
X165037147Y-94881976D01*
X164434003Y-94869342D01*
X163844800Y-94739797D01*
X163291982Y-94498277D01*
X162796607Y-94153982D01*
X162377537Y-93720023D01*
X162050738Y-93212930D01*
X161828656Y-92652014D01*
X161719755Y-92058658D01*
X161728177Y-91455441D01*
X161853606Y-90865347D01*
X162091259Y-90310858D01*
X162432091Y-89813088D01*
X162863112Y-89391000D01*
X163367913Y-89060668D01*
X163927259Y-88834677D01*
X164519845Y-88721636D01*
X165123110Y-88725847D01*
X165123110Y-88725847D01*
G37*
G36*
X183203110Y-80745847D02*
X183794055Y-80867151D01*
X184350198Y-81100932D01*
X184850334Y-81438278D01*
X185275421Y-81866343D01*
X185609266Y-82368821D01*
X185839156Y-82926576D01*
X185956264Y-83518014D01*
X185956264Y-83518024D01*
X185956331Y-83518363D01*
X185946710Y-84207416D01*
X185946633Y-84207754D01*
X185946633Y-84207762D01*
X185813057Y-84795701D01*
X185567685Y-85346816D01*
X185219937Y-85839778D01*
X184783062Y-86255809D01*
X184273700Y-86579061D01*
X183711254Y-86797219D01*
X183117147Y-86901976D01*
X182514003Y-86889342D01*
X181924800Y-86759797D01*
X181371982Y-86518277D01*
X180876607Y-86173982D01*
X180457537Y-85740023D01*
X180130738Y-85232930D01*
X179908656Y-84672014D01*
X179799755Y-84078658D01*
X179808177Y-83475441D01*
X179933606Y-82885347D01*
X180171259Y-82330858D01*
X180512091Y-81833088D01*
X180943112Y-81411000D01*
X181447913Y-81080668D01*
X182007259Y-80854677D01*
X182599845Y-80741636D01*
X183203110Y-80745847D01*
X183203110Y-80745847D01*
G37*
G36*
X191203110Y-80745847D02*
X191794055Y-80867151D01*
X192350198Y-81100932D01*
X192850334Y-81438278D01*
X193275421Y-81866343D01*
X193609266Y-82368821D01*
X193839156Y-82926576D01*
X193956264Y-83518014D01*
X193956264Y-83518024D01*
X193956331Y-83518363D01*
X193946710Y-84207416D01*
X193946633Y-84207754D01*
X193946633Y-84207762D01*
X193813057Y-84795701D01*
X193567685Y-85346816D01*
X193219937Y-85839778D01*
X192783062Y-86255809D01*
X192273700Y-86579061D01*
X191711254Y-86797219D01*
X191117147Y-86901976D01*
X190514003Y-86889342D01*
X189924800Y-86759797D01*
X189371982Y-86518277D01*
X188876607Y-86173982D01*
X188457537Y-85740023D01*
X188130738Y-85232930D01*
X187908656Y-84672014D01*
X187799755Y-84078658D01*
X187808177Y-83475441D01*
X187933606Y-82885347D01*
X188171259Y-82330858D01*
X188512091Y-81833088D01*
X188943112Y-81411000D01*
X189447913Y-81080668D01*
X190007259Y-80854677D01*
X190599845Y-80741636D01*
X191203110Y-80745847D01*
X191203110Y-80745847D01*
G37*
G36*
X173123110Y-80725847D02*
X173714055Y-80847151D01*
X174270198Y-81080932D01*
X174770334Y-81418278D01*
X175195421Y-81846343D01*
X175529266Y-82348821D01*
X175759156Y-82906576D01*
X175876264Y-83498014D01*
X175876264Y-83498024D01*
X175876331Y-83498363D01*
X175866710Y-84187416D01*
X175866633Y-84187754D01*
X175866633Y-84187762D01*
X175733057Y-84775701D01*
X175487685Y-85326816D01*
X175139937Y-85819778D01*
X174703062Y-86235809D01*
X174193700Y-86559061D01*
X173631254Y-86777219D01*
X173037147Y-86881976D01*
X172434003Y-86869342D01*
X171844800Y-86739797D01*
X171291982Y-86498277D01*
X170796607Y-86153982D01*
X170377537Y-85720023D01*
X170050738Y-85212930D01*
X169828656Y-84652014D01*
X169719755Y-84058658D01*
X169728177Y-83455441D01*
X169853606Y-82865347D01*
X170091259Y-82310858D01*
X170432091Y-81813088D01*
X170863112Y-81391000D01*
X171367913Y-81060668D01*
X171927259Y-80834677D01*
X172519845Y-80721636D01*
X173123110Y-80725847D01*
X173123110Y-80725847D01*
G37*
G36*
X165123110Y-80725847D02*
X165714055Y-80847151D01*
X166270198Y-81080932D01*
X166770334Y-81418278D01*
X167195421Y-81846343D01*
X167529266Y-82348821D01*
X167759156Y-82906576D01*
X167876264Y-83498014D01*
X167876264Y-83498024D01*
X167876331Y-83498363D01*
X167866710Y-84187416D01*
X167866633Y-84187754D01*
X167866633Y-84187762D01*
X167733057Y-84775701D01*
X167487685Y-85326816D01*
X167139937Y-85819778D01*
X166703062Y-86235809D01*
X166193700Y-86559061D01*
X165631254Y-86777219D01*
X165037147Y-86881976D01*
X164434003Y-86869342D01*
X163844800Y-86739797D01*
X163291982Y-86498277D01*
X162796607Y-86153982D01*
X162377537Y-85720023D01*
X162050738Y-85212930D01*
X161828656Y-84652014D01*
X161719755Y-84058658D01*
X161728177Y-83455441D01*
X161853606Y-82865347D01*
X162091259Y-82310858D01*
X162432091Y-81813088D01*
X162863112Y-81391000D01*
X163367913Y-81060668D01*
X163927259Y-80834677D01*
X164519845Y-80721636D01*
X165123110Y-80725847D01*
X165123110Y-80725847D01*
G37*
G36*
X157123110Y-80725847D02*
X157714055Y-80847151D01*
X158270198Y-81080932D01*
X158770334Y-81418278D01*
X159195421Y-81846343D01*
X159529266Y-82348821D01*
X159759156Y-82906576D01*
X159876264Y-83498014D01*
X159876264Y-83498024D01*
X159876331Y-83498363D01*
X159866710Y-84187416D01*
X159866633Y-84187754D01*
X159866633Y-84187762D01*
X159733057Y-84775701D01*
X159487685Y-85326816D01*
X159139937Y-85819778D01*
X158703062Y-86235809D01*
X158193700Y-86559061D01*
X157631254Y-86777219D01*
X157037147Y-86881976D01*
X156434003Y-86869342D01*
X155844800Y-86739797D01*
X155291982Y-86498277D01*
X154796607Y-86153982D01*
X154377537Y-85720023D01*
X154050738Y-85212930D01*
X153828656Y-84652014D01*
X153719755Y-84058658D01*
X153728177Y-83455441D01*
X153853606Y-82865347D01*
X154091259Y-82310858D01*
X154432091Y-81813088D01*
X154863112Y-81391000D01*
X155367913Y-81060668D01*
X155927259Y-80834677D01*
X156519845Y-80721636D01*
X157123110Y-80725847D01*
X157123110Y-80725847D01*
G37*
M02*
