%TF.GenerationSoftware,KiCad,Pcbnew,4.0.5-e0-6337~49~ubuntu16.04.1*%
%TF.CreationDate,2017-02-09T10:09:38-08:00*%
%TF.ProjectId,LegoLED-SMTButton-Battery,4C65676F4C45442D534D54427574746F,1.0*%
%TF.FileFunction,Soldermask,Top*%
%FSLAX46Y46*%
G04 Gerber Fmt 4.6, Leading zero omitted, Abs format (unit mm)*
G04 Created by KiCad (PCBNEW 4.0.5-e0-6337~49~ubuntu16.04.1) date Thu Feb  9 10:09:38 2017*
%MOMM*%
%LPD*%
G01*
G04 APERTURE LIST*
%ADD10C,0.350000*%
%ADD11C,0.500000*%
%ADD12C,0.152400*%
%ADD13C,0.254000*%
G04 APERTURE END LIST*
D10*
D11*
X160110953Y-109132857D02*
X159991905Y-109251905D01*
X159634762Y-109370952D01*
X159396667Y-109370952D01*
X159039524Y-109251905D01*
X158801429Y-109013810D01*
X158682381Y-108775714D01*
X158563333Y-108299524D01*
X158563333Y-107942381D01*
X158682381Y-107466190D01*
X158801429Y-107228095D01*
X159039524Y-106990000D01*
X159396667Y-106870952D01*
X159634762Y-106870952D01*
X159991905Y-106990000D01*
X160110953Y-107109048D01*
X161182381Y-109370952D02*
X161182381Y-106870952D01*
X163801429Y-109370952D02*
X162968095Y-108180476D01*
X162372857Y-109370952D02*
X162372857Y-106870952D01*
X163325238Y-106870952D01*
X163563333Y-106990000D01*
X163682381Y-107109048D01*
X163801429Y-107347143D01*
X163801429Y-107704286D01*
X163682381Y-107942381D01*
X163563333Y-108061429D01*
X163325238Y-108180476D01*
X162372857Y-108180476D01*
X166301429Y-109132857D02*
X166182381Y-109251905D01*
X165825238Y-109370952D01*
X165587143Y-109370952D01*
X165230000Y-109251905D01*
X164991905Y-109013810D01*
X164872857Y-108775714D01*
X164753809Y-108299524D01*
X164753809Y-107942381D01*
X164872857Y-107466190D01*
X164991905Y-107228095D01*
X165230000Y-106990000D01*
X165587143Y-106870952D01*
X165825238Y-106870952D01*
X166182381Y-106990000D01*
X166301429Y-107109048D01*
X167372857Y-106870952D02*
X167372857Y-108894762D01*
X167491905Y-109132857D01*
X167610952Y-109251905D01*
X167849048Y-109370952D01*
X168325238Y-109370952D01*
X168563333Y-109251905D01*
X168682381Y-109132857D01*
X168801429Y-108894762D01*
X168801429Y-106870952D01*
X169991905Y-109370952D02*
X169991905Y-106870952D01*
X170825238Y-106870952D02*
X172253810Y-106870952D01*
X171539524Y-109370952D02*
X171539524Y-106870952D01*
X172968095Y-109251905D02*
X173325238Y-109370952D01*
X173920476Y-109370952D01*
X174158572Y-109251905D01*
X174277619Y-109132857D01*
X174396667Y-108894762D01*
X174396667Y-108656667D01*
X174277619Y-108418571D01*
X174158572Y-108299524D01*
X173920476Y-108180476D01*
X173444286Y-108061429D01*
X173206191Y-107942381D01*
X173087143Y-107823333D01*
X172968095Y-107585238D01*
X172968095Y-107347143D01*
X173087143Y-107109048D01*
X173206191Y-106990000D01*
X173444286Y-106870952D01*
X174039524Y-106870952D01*
X174396667Y-106990000D01*
X158810477Y-105082857D02*
X158691429Y-105201905D01*
X158334286Y-105320952D01*
X158096191Y-105320952D01*
X157739048Y-105201905D01*
X157500953Y-104963810D01*
X157381905Y-104725714D01*
X157262857Y-104249524D01*
X157262857Y-103892381D01*
X157381905Y-103416190D01*
X157500953Y-103178095D01*
X157739048Y-102940000D01*
X158096191Y-102820952D01*
X158334286Y-102820952D01*
X158691429Y-102940000D01*
X158810477Y-103059048D01*
X161310477Y-105320952D02*
X160477143Y-104130476D01*
X159881905Y-105320952D02*
X159881905Y-102820952D01*
X160834286Y-102820952D01*
X161072381Y-102940000D01*
X161191429Y-103059048D01*
X161310477Y-103297143D01*
X161310477Y-103654286D01*
X161191429Y-103892381D01*
X161072381Y-104011429D01*
X160834286Y-104130476D01*
X159881905Y-104130476D01*
X162262857Y-104606667D02*
X163453334Y-104606667D01*
X162024762Y-105320952D02*
X162858096Y-102820952D01*
X163691429Y-105320952D01*
X164286667Y-102820952D02*
X165953334Y-102820952D01*
X164286667Y-105320952D01*
X165953334Y-105320952D01*
X167381905Y-104130476D02*
X167381905Y-105320952D01*
X166548571Y-102820952D02*
X167381905Y-104130476D01*
X168215238Y-102820952D01*
X175820000Y-104580500D02*
X174320000Y-105580500D01*
D12*
X173981000Y-105626500D02*
X175314500Y-104674000D01*
X174933500Y-104801000D02*
X173981000Y-105626500D01*
X173854000Y-105563000D02*
X174933500Y-104801000D01*
X174743000Y-104864500D02*
X173854000Y-105563000D01*
X173600000Y-105626500D02*
X174743000Y-104864500D01*
X174425500Y-104991500D02*
X173600000Y-105626500D01*
X173473000Y-105563000D02*
X174425500Y-104991500D01*
X174235000Y-104991500D02*
X173473000Y-105563000D01*
X173473000Y-105436000D02*
X174235000Y-104991500D01*
X173981000Y-104991500D02*
X173473000Y-105436000D01*
X173409500Y-105309000D02*
X173981000Y-104991500D01*
X173981000Y-104801000D02*
X173409500Y-105309000D01*
X173981000Y-104674000D02*
X173346000Y-105182000D01*
X174108000Y-104483500D02*
X173282500Y-105055000D01*
X174108000Y-104356500D02*
X173282500Y-104928000D01*
D11*
X172020000Y-105580500D02*
X170820000Y-104080500D01*
X174420000Y-105580500D02*
X172051500Y-105580500D01*
D12*
X175759000Y-104547000D02*
X174171500Y-105690000D01*
D11*
X173981000Y-104991500D02*
X175759000Y-104547000D01*
X174820000Y-103480500D02*
X173981000Y-104991500D01*
X173219000Y-104801000D02*
X174820000Y-103480500D01*
X172420000Y-102380500D02*
X173219000Y-104864500D01*
X172457000Y-104737500D02*
X172420000Y-102480500D01*
X170820000Y-103980500D02*
X172457000Y-104737500D01*
D12*
X172203000Y-105690000D02*
X171377500Y-104483500D01*
D11*
X172457000Y-105563000D02*
X171822000Y-104674000D01*
D13*
X172647500Y-105563000D02*
X172076000Y-104737500D01*
X172774500Y-105563000D02*
X172330000Y-104801000D01*
X173028500Y-105563000D02*
X172584000Y-104737500D01*
X173219000Y-105563000D02*
X172647500Y-104483500D01*
X173409500Y-105563000D02*
X172520500Y-103848500D01*
X172584000Y-104547000D02*
X172520500Y-103721500D01*
D10*
G36*
X188066200Y-107936200D02*
X185913800Y-107936200D01*
X185913800Y-105883800D01*
X188066200Y-105883800D01*
X188066200Y-107936200D01*
X188066200Y-107936200D01*
G37*
G36*
X187097790Y-103344481D02*
X187294921Y-103384947D01*
X187480451Y-103462937D01*
X187647292Y-103575473D01*
X187789098Y-103718272D01*
X187900466Y-103885895D01*
X187977156Y-104071958D01*
X188016176Y-104269027D01*
X188016176Y-104269032D01*
X188016244Y-104269376D01*
X188013034Y-104499239D01*
X188012957Y-104499577D01*
X188012957Y-104499586D01*
X187968449Y-104695490D01*
X187886596Y-104879335D01*
X187770588Y-105043786D01*
X187624850Y-105182571D01*
X187454931Y-105290405D01*
X187267299Y-105363182D01*
X187069112Y-105398128D01*
X186867905Y-105393913D01*
X186671351Y-105350699D01*
X186486933Y-105270128D01*
X186321682Y-105155275D01*
X186181882Y-105010509D01*
X186072864Y-104841345D01*
X185998777Y-104654224D01*
X185962449Y-104456288D01*
X185965258Y-104255058D01*
X186007102Y-104058205D01*
X186086380Y-103873232D01*
X186200080Y-103707178D01*
X186343865Y-103566373D01*
X186512265Y-103456176D01*
X186698860Y-103380786D01*
X186896540Y-103343077D01*
X187097790Y-103344481D01*
X187097790Y-103344481D01*
G37*
G36*
X169372200Y-91150200D02*
X160219800Y-91150200D01*
X160219800Y-77197800D01*
X169372200Y-77197800D01*
X169372200Y-91150200D01*
X169372200Y-91150200D01*
G37*
G36*
X189516200Y-88751200D02*
X188063800Y-88751200D01*
X188063800Y-87048800D01*
X189516200Y-87048800D01*
X189516200Y-88751200D01*
X189516200Y-88751200D01*
G37*
G36*
X185016200Y-88751200D02*
X183563800Y-88751200D01*
X183563800Y-87048800D01*
X185016200Y-87048800D01*
X185016200Y-88751200D01*
X185016200Y-88751200D01*
G37*
G36*
X176376200Y-86776200D02*
X173623800Y-86776200D01*
X173623800Y-81063800D01*
X176376200Y-81063800D01*
X176376200Y-86776200D01*
X176376200Y-86776200D01*
G37*
G36*
X155976200Y-86776200D02*
X153223800Y-86776200D01*
X153223800Y-81063800D01*
X155976200Y-81063800D01*
X155976200Y-86776200D01*
X155976200Y-86776200D01*
G37*
G36*
X189516200Y-80801200D02*
X188063800Y-80801200D01*
X188063800Y-79098800D01*
X189516200Y-79098800D01*
X189516200Y-80801200D01*
X189516200Y-80801200D01*
G37*
G36*
X185016200Y-80801200D02*
X183563800Y-80801200D01*
X183563800Y-79098800D01*
X185016200Y-79098800D01*
X185016200Y-80801200D01*
X185016200Y-80801200D01*
G37*
M02*
