%TF.GenerationSoftware,KiCad,Pcbnew,4.0.5-e0-6337~49~ubuntu16.04.1*%
%TF.CreationDate,2017-02-13T11:15:54-08:00*%
%TF.ProjectId,LegoLED-SMTButton-Battery,4C65676F4C45442D534D54427574746F,1.0*%
%TF.FileFunction,Other,Fab,Top*%
%FSLAX46Y46*%
G04 Gerber Fmt 4.6, Leading zero omitted, Abs format (unit mm)*
G04 Created by KiCad (PCBNEW 4.0.5-e0-6337~49~ubuntu16.04.1) date Mon Feb 13 11:15:54 2017*
%MOMM*%
%LPD*%
G01*
G04 APERTURE LIST*
%ADD10C,0.350000*%
%ADD11C,0.152400*%
%ADD12C,0.040640*%
%ADD13C,0.050000*%
%ADD14C,0.150000*%
G04 APERTURE END LIST*
D10*
D11*
X81762602Y-67860333D02*
X82246411Y-67860333D01*
X81665840Y-68150619D02*
X82004507Y-67134619D01*
X82343173Y-68150619D01*
X82633459Y-68102238D02*
X82730221Y-68150619D01*
X82923745Y-68150619D01*
X83020506Y-68102238D01*
X83068887Y-68005476D01*
X83068887Y-67957095D01*
X83020506Y-67860333D01*
X82923745Y-67811952D01*
X82778602Y-67811952D01*
X82681840Y-67763571D01*
X82633459Y-67666810D01*
X82633459Y-67618429D01*
X82681840Y-67521667D01*
X82778602Y-67473286D01*
X82923745Y-67473286D01*
X83020506Y-67521667D01*
X83455935Y-68102238D02*
X83552697Y-68150619D01*
X83746221Y-68150619D01*
X83842982Y-68102238D01*
X83891363Y-68005476D01*
X83891363Y-67957095D01*
X83842982Y-67860333D01*
X83746221Y-67811952D01*
X83601078Y-67811952D01*
X83504316Y-67763571D01*
X83455935Y-67666810D01*
X83455935Y-67618429D01*
X83504316Y-67521667D01*
X83601078Y-67473286D01*
X83746221Y-67473286D01*
X83842982Y-67521667D01*
X84713839Y-68102238D02*
X84617077Y-68150619D01*
X84423554Y-68150619D01*
X84326792Y-68102238D01*
X84278411Y-68005476D01*
X84278411Y-67618429D01*
X84326792Y-67521667D01*
X84423554Y-67473286D01*
X84617077Y-67473286D01*
X84713839Y-67521667D01*
X84762220Y-67618429D01*
X84762220Y-67715190D01*
X84278411Y-67811952D01*
X85197649Y-68150619D02*
X85197649Y-67473286D01*
X85197649Y-67570048D02*
X85246030Y-67521667D01*
X85342792Y-67473286D01*
X85487934Y-67473286D01*
X85584696Y-67521667D01*
X85633077Y-67618429D01*
X85633077Y-68150619D01*
X85633077Y-67618429D02*
X85681458Y-67521667D01*
X85778220Y-67473286D01*
X85923363Y-67473286D01*
X86020125Y-67521667D01*
X86068506Y-67618429D01*
X86068506Y-68150619D01*
X86552316Y-68150619D02*
X86552316Y-67134619D01*
X86552316Y-67521667D02*
X86649078Y-67473286D01*
X86842601Y-67473286D01*
X86939363Y-67521667D01*
X86987744Y-67570048D01*
X87036125Y-67666810D01*
X87036125Y-67957095D01*
X86987744Y-68053857D01*
X86939363Y-68102238D01*
X86842601Y-68150619D01*
X86649078Y-68150619D01*
X86552316Y-68102238D01*
X87616697Y-68150619D02*
X87519935Y-68102238D01*
X87471554Y-68005476D01*
X87471554Y-67134619D01*
X87906982Y-67473286D02*
X88148887Y-68150619D01*
X88390791Y-67473286D02*
X88148887Y-68150619D01*
X88052125Y-68392524D01*
X88003744Y-68440905D01*
X87906982Y-68489286D01*
X89551934Y-68150619D02*
X89551934Y-67134619D01*
X90035744Y-67473286D02*
X90035744Y-68150619D01*
X90035744Y-67570048D02*
X90084125Y-67521667D01*
X90180887Y-67473286D01*
X90326029Y-67473286D01*
X90422791Y-67521667D01*
X90471172Y-67618429D01*
X90471172Y-68150619D01*
X90809839Y-67473286D02*
X91196887Y-67473286D01*
X90954982Y-68150619D02*
X90954982Y-67279762D01*
X91003363Y-67183000D01*
X91100125Y-67134619D01*
X91196887Y-67134619D01*
X91680696Y-68150619D02*
X91583934Y-68102238D01*
X91535553Y-68053857D01*
X91487172Y-67957095D01*
X91487172Y-67666810D01*
X91535553Y-67570048D01*
X91583934Y-67521667D01*
X91680696Y-67473286D01*
X91825838Y-67473286D01*
X91922600Y-67521667D01*
X91970981Y-67570048D01*
X92019362Y-67666810D01*
X92019362Y-67957095D01*
X91970981Y-68053857D01*
X91922600Y-68102238D01*
X91825838Y-68150619D01*
X91680696Y-68150619D01*
X92454791Y-68150619D02*
X92454791Y-67473286D01*
X92454791Y-67666810D02*
X92503172Y-67570048D01*
X92551553Y-67521667D01*
X92648315Y-67473286D01*
X92745076Y-67473286D01*
X93083743Y-68150619D02*
X93083743Y-67473286D01*
X93083743Y-67570048D02*
X93132124Y-67521667D01*
X93228886Y-67473286D01*
X93374028Y-67473286D01*
X93470790Y-67521667D01*
X93519171Y-67618429D01*
X93519171Y-68150619D01*
X93519171Y-67618429D02*
X93567552Y-67521667D01*
X93664314Y-67473286D01*
X93809457Y-67473286D01*
X93906219Y-67521667D01*
X93954600Y-67618429D01*
X93954600Y-68150619D01*
X94873838Y-68150619D02*
X94873838Y-67618429D01*
X94825457Y-67521667D01*
X94728695Y-67473286D01*
X94535172Y-67473286D01*
X94438410Y-67521667D01*
X94873838Y-68102238D02*
X94777076Y-68150619D01*
X94535172Y-68150619D01*
X94438410Y-68102238D01*
X94390029Y-68005476D01*
X94390029Y-67908714D01*
X94438410Y-67811952D01*
X94535172Y-67763571D01*
X94777076Y-67763571D01*
X94873838Y-67715190D01*
X95212505Y-67473286D02*
X95599553Y-67473286D01*
X95357648Y-67134619D02*
X95357648Y-68005476D01*
X95406029Y-68102238D01*
X95502791Y-68150619D01*
X95599553Y-68150619D01*
X95938219Y-68150619D02*
X95938219Y-67473286D01*
X95938219Y-67134619D02*
X95889838Y-67183000D01*
X95938219Y-67231381D01*
X95986600Y-67183000D01*
X95938219Y-67134619D01*
X95938219Y-67231381D01*
X96567172Y-68150619D02*
X96470410Y-68102238D01*
X96422029Y-68053857D01*
X96373648Y-67957095D01*
X96373648Y-67666810D01*
X96422029Y-67570048D01*
X96470410Y-67521667D01*
X96567172Y-67473286D01*
X96712314Y-67473286D01*
X96809076Y-67521667D01*
X96857457Y-67570048D01*
X96905838Y-67666810D01*
X96905838Y-67957095D01*
X96857457Y-68053857D01*
X96809076Y-68102238D01*
X96712314Y-68150619D01*
X96567172Y-68150619D01*
X97341267Y-67473286D02*
X97341267Y-68150619D01*
X97341267Y-67570048D02*
X97389648Y-67521667D01*
X97486410Y-67473286D01*
X97631552Y-67473286D01*
X97728314Y-67521667D01*
X97776695Y-67618429D01*
X97776695Y-68150619D01*
X72763746Y-69827019D02*
X72279937Y-69827019D01*
X72279937Y-68811019D01*
X73489460Y-69778638D02*
X73392698Y-69827019D01*
X73199175Y-69827019D01*
X73102413Y-69778638D01*
X73054032Y-69681876D01*
X73054032Y-69294829D01*
X73102413Y-69198067D01*
X73199175Y-69149686D01*
X73392698Y-69149686D01*
X73489460Y-69198067D01*
X73537841Y-69294829D01*
X73537841Y-69391590D01*
X73054032Y-69488352D01*
X74408698Y-69149686D02*
X74408698Y-69972162D01*
X74360317Y-70068924D01*
X74311936Y-70117305D01*
X74215175Y-70165686D01*
X74070032Y-70165686D01*
X73973270Y-70117305D01*
X74408698Y-69778638D02*
X74311936Y-69827019D01*
X74118413Y-69827019D01*
X74021651Y-69778638D01*
X73973270Y-69730257D01*
X73924889Y-69633495D01*
X73924889Y-69343210D01*
X73973270Y-69246448D01*
X74021651Y-69198067D01*
X74118413Y-69149686D01*
X74311936Y-69149686D01*
X74408698Y-69198067D01*
X75037651Y-69827019D02*
X74940889Y-69778638D01*
X74892508Y-69730257D01*
X74844127Y-69633495D01*
X74844127Y-69343210D01*
X74892508Y-69246448D01*
X74940889Y-69198067D01*
X75037651Y-69149686D01*
X75182793Y-69149686D01*
X75279555Y-69198067D01*
X75327936Y-69246448D01*
X75376317Y-69343210D01*
X75376317Y-69633495D01*
X75327936Y-69730257D01*
X75279555Y-69778638D01*
X75182793Y-69827019D01*
X75037651Y-69827019D01*
X76295555Y-69827019D02*
X75811746Y-69827019D01*
X75811746Y-68811019D01*
X76634222Y-69294829D02*
X76972888Y-69294829D01*
X77118031Y-69827019D02*
X76634222Y-69827019D01*
X76634222Y-68811019D01*
X77118031Y-68811019D01*
X77553460Y-69827019D02*
X77553460Y-68811019D01*
X77795365Y-68811019D01*
X77940507Y-68859400D01*
X78037269Y-68956162D01*
X78085650Y-69052924D01*
X78134031Y-69246448D01*
X78134031Y-69391590D01*
X78085650Y-69585114D01*
X78037269Y-69681876D01*
X77940507Y-69778638D01*
X77795365Y-69827019D01*
X77553460Y-69827019D01*
X78569460Y-69439971D02*
X79343555Y-69439971D01*
X79778984Y-69778638D02*
X79924127Y-69827019D01*
X80166031Y-69827019D01*
X80262793Y-69778638D01*
X80311174Y-69730257D01*
X80359555Y-69633495D01*
X80359555Y-69536733D01*
X80311174Y-69439971D01*
X80262793Y-69391590D01*
X80166031Y-69343210D01*
X79972508Y-69294829D01*
X79875746Y-69246448D01*
X79827365Y-69198067D01*
X79778984Y-69101305D01*
X79778984Y-69004543D01*
X79827365Y-68907781D01*
X79875746Y-68859400D01*
X79972508Y-68811019D01*
X80214412Y-68811019D01*
X80359555Y-68859400D01*
X80794984Y-69827019D02*
X80794984Y-68811019D01*
X81133650Y-69536733D01*
X81472317Y-68811019D01*
X81472317Y-69827019D01*
X81810984Y-68811019D02*
X82391555Y-68811019D01*
X82101270Y-69827019D02*
X82101270Y-68811019D01*
X83068888Y-69294829D02*
X83214031Y-69343210D01*
X83262412Y-69391590D01*
X83310793Y-69488352D01*
X83310793Y-69633495D01*
X83262412Y-69730257D01*
X83214031Y-69778638D01*
X83117269Y-69827019D01*
X82730222Y-69827019D01*
X82730222Y-68811019D01*
X83068888Y-68811019D01*
X83165650Y-68859400D01*
X83214031Y-68907781D01*
X83262412Y-69004543D01*
X83262412Y-69101305D01*
X83214031Y-69198067D01*
X83165650Y-69246448D01*
X83068888Y-69294829D01*
X82730222Y-69294829D01*
X84181650Y-69149686D02*
X84181650Y-69827019D01*
X83746222Y-69149686D02*
X83746222Y-69681876D01*
X83794603Y-69778638D01*
X83891365Y-69827019D01*
X84036507Y-69827019D01*
X84133269Y-69778638D01*
X84181650Y-69730257D01*
X84520317Y-69149686D02*
X84907365Y-69149686D01*
X84665460Y-68811019D02*
X84665460Y-69681876D01*
X84713841Y-69778638D01*
X84810603Y-69827019D01*
X84907365Y-69827019D01*
X85100888Y-69149686D02*
X85487936Y-69149686D01*
X85246031Y-68811019D02*
X85246031Y-69681876D01*
X85294412Y-69778638D01*
X85391174Y-69827019D01*
X85487936Y-69827019D01*
X85971745Y-69827019D02*
X85874983Y-69778638D01*
X85826602Y-69730257D01*
X85778221Y-69633495D01*
X85778221Y-69343210D01*
X85826602Y-69246448D01*
X85874983Y-69198067D01*
X85971745Y-69149686D01*
X86116887Y-69149686D01*
X86213649Y-69198067D01*
X86262030Y-69246448D01*
X86310411Y-69343210D01*
X86310411Y-69633495D01*
X86262030Y-69730257D01*
X86213649Y-69778638D01*
X86116887Y-69827019D01*
X85971745Y-69827019D01*
X86745840Y-69149686D02*
X86745840Y-69827019D01*
X86745840Y-69246448D02*
X86794221Y-69198067D01*
X86890983Y-69149686D01*
X87036125Y-69149686D01*
X87132887Y-69198067D01*
X87181268Y-69294829D01*
X87181268Y-69827019D01*
X87665078Y-69439971D02*
X88439173Y-69439971D01*
X89261649Y-69294829D02*
X89406792Y-69343210D01*
X89455173Y-69391590D01*
X89503554Y-69488352D01*
X89503554Y-69633495D01*
X89455173Y-69730257D01*
X89406792Y-69778638D01*
X89310030Y-69827019D01*
X88922983Y-69827019D01*
X88922983Y-68811019D01*
X89261649Y-68811019D01*
X89358411Y-68859400D01*
X89406792Y-68907781D01*
X89455173Y-69004543D01*
X89455173Y-69101305D01*
X89406792Y-69198067D01*
X89358411Y-69246448D01*
X89261649Y-69294829D01*
X88922983Y-69294829D01*
X90374411Y-69827019D02*
X90374411Y-69294829D01*
X90326030Y-69198067D01*
X90229268Y-69149686D01*
X90035745Y-69149686D01*
X89938983Y-69198067D01*
X90374411Y-69778638D02*
X90277649Y-69827019D01*
X90035745Y-69827019D01*
X89938983Y-69778638D01*
X89890602Y-69681876D01*
X89890602Y-69585114D01*
X89938983Y-69488352D01*
X90035745Y-69439971D01*
X90277649Y-69439971D01*
X90374411Y-69391590D01*
X90713078Y-69149686D02*
X91100126Y-69149686D01*
X90858221Y-68811019D02*
X90858221Y-69681876D01*
X90906602Y-69778638D01*
X91003364Y-69827019D01*
X91100126Y-69827019D01*
X91293649Y-69149686D02*
X91680697Y-69149686D01*
X91438792Y-68811019D02*
X91438792Y-69681876D01*
X91487173Y-69778638D01*
X91583935Y-69827019D01*
X91680697Y-69827019D01*
X92406410Y-69778638D02*
X92309648Y-69827019D01*
X92116125Y-69827019D01*
X92019363Y-69778638D01*
X91970982Y-69681876D01*
X91970982Y-69294829D01*
X92019363Y-69198067D01*
X92116125Y-69149686D01*
X92309648Y-69149686D01*
X92406410Y-69198067D01*
X92454791Y-69294829D01*
X92454791Y-69391590D01*
X91970982Y-69488352D01*
X92890220Y-69827019D02*
X92890220Y-69149686D01*
X92890220Y-69343210D02*
X92938601Y-69246448D01*
X92986982Y-69198067D01*
X93083744Y-69149686D01*
X93180505Y-69149686D01*
X93422410Y-69149686D02*
X93664315Y-69827019D01*
X93906219Y-69149686D02*
X93664315Y-69827019D01*
X93567553Y-70068924D01*
X93519172Y-70117305D01*
X93422410Y-70165686D01*
X94970600Y-69149686D02*
X95212505Y-69827019D01*
X95454409Y-69149686D01*
X96373647Y-69827019D02*
X95793076Y-69827019D01*
X96083362Y-69827019D02*
X96083362Y-68811019D01*
X95986600Y-68956162D01*
X95889838Y-69052924D01*
X95793076Y-69101305D01*
X96809076Y-69730257D02*
X96857457Y-69778638D01*
X96809076Y-69827019D01*
X96760695Y-69778638D01*
X96809076Y-69730257D01*
X96809076Y-69827019D01*
X97244505Y-68907781D02*
X97292886Y-68859400D01*
X97389648Y-68811019D01*
X97631552Y-68811019D01*
X97728314Y-68859400D01*
X97776695Y-68907781D01*
X97825076Y-69004543D01*
X97825076Y-69101305D01*
X97776695Y-69246448D01*
X97196124Y-69827019D01*
X97825076Y-69827019D01*
X86068506Y-71406657D02*
X86020125Y-71455038D01*
X85874982Y-71503419D01*
X85778220Y-71503419D01*
X85633078Y-71455038D01*
X85536316Y-71358276D01*
X85487935Y-71261514D01*
X85439554Y-71067990D01*
X85439554Y-70922848D01*
X85487935Y-70729324D01*
X85536316Y-70632562D01*
X85633078Y-70535800D01*
X85778220Y-70487419D01*
X85874982Y-70487419D01*
X86020125Y-70535800D01*
X86068506Y-70584181D01*
X86503935Y-71503419D02*
X86503935Y-70826086D01*
X86503935Y-71019610D02*
X86552316Y-70922848D01*
X86600697Y-70874467D01*
X86697459Y-70826086D01*
X86794220Y-70826086D01*
X87568315Y-71503419D02*
X87568315Y-70971229D01*
X87519934Y-70874467D01*
X87423172Y-70826086D01*
X87229649Y-70826086D01*
X87132887Y-70874467D01*
X87568315Y-71455038D02*
X87471553Y-71503419D01*
X87229649Y-71503419D01*
X87132887Y-71455038D01*
X87084506Y-71358276D01*
X87084506Y-71261514D01*
X87132887Y-71164752D01*
X87229649Y-71116371D01*
X87471553Y-71116371D01*
X87568315Y-71067990D01*
X87955363Y-70826086D02*
X88487553Y-70826086D01*
X87955363Y-71503419D01*
X88487553Y-71503419D01*
X88777839Y-70826086D02*
X89019744Y-71503419D01*
X89261648Y-70826086D02*
X89019744Y-71503419D01*
X88922982Y-71745324D01*
X88874601Y-71793705D01*
X88777839Y-71842086D01*
X91003362Y-71406657D02*
X90954981Y-71455038D01*
X90809838Y-71503419D01*
X90713076Y-71503419D01*
X90567934Y-71455038D01*
X90471172Y-71358276D01*
X90422791Y-71261514D01*
X90374410Y-71067990D01*
X90374410Y-70922848D01*
X90422791Y-70729324D01*
X90471172Y-70632562D01*
X90567934Y-70535800D01*
X90713076Y-70487419D01*
X90809838Y-70487419D01*
X90954981Y-70535800D01*
X91003362Y-70584181D01*
X91438791Y-71503419D02*
X91438791Y-70826086D01*
X91438791Y-70487419D02*
X91390410Y-70535800D01*
X91438791Y-70584181D01*
X91487172Y-70535800D01*
X91438791Y-70487419D01*
X91438791Y-70584181D01*
X91922601Y-71503419D02*
X91922601Y-70826086D01*
X91922601Y-71019610D02*
X91970982Y-70922848D01*
X92019363Y-70874467D01*
X92116125Y-70826086D01*
X92212886Y-70826086D01*
X92986981Y-71455038D02*
X92890219Y-71503419D01*
X92696696Y-71503419D01*
X92599934Y-71455038D01*
X92551553Y-71406657D01*
X92503172Y-71309895D01*
X92503172Y-71019610D01*
X92551553Y-70922848D01*
X92599934Y-70874467D01*
X92696696Y-70826086D01*
X92890219Y-70826086D01*
X92986981Y-70874467D01*
X93857838Y-70826086D02*
X93857838Y-71503419D01*
X93422410Y-70826086D02*
X93422410Y-71358276D01*
X93470791Y-71455038D01*
X93567553Y-71503419D01*
X93712695Y-71503419D01*
X93809457Y-71455038D01*
X93857838Y-71406657D01*
X94341648Y-71503419D02*
X94341648Y-70826086D01*
X94341648Y-70487419D02*
X94293267Y-70535800D01*
X94341648Y-70584181D01*
X94390029Y-70535800D01*
X94341648Y-70487419D01*
X94341648Y-70584181D01*
X94680315Y-70826086D02*
X95067363Y-70826086D01*
X94825458Y-70487419D02*
X94825458Y-71358276D01*
X94873839Y-71455038D01*
X94970601Y-71503419D01*
X95067363Y-71503419D01*
X96180124Y-71503419D02*
X96180124Y-70487419D01*
X96760695Y-71503419D02*
X96325267Y-70922848D01*
X96760695Y-70487419D02*
X96180124Y-71067990D01*
X97196124Y-71503419D02*
X97196124Y-70826086D01*
X97196124Y-70487419D02*
X97147743Y-70535800D01*
X97196124Y-70584181D01*
X97244505Y-70535800D01*
X97196124Y-70487419D01*
X97196124Y-70584181D01*
X97534791Y-70826086D02*
X97921839Y-70826086D01*
X97679934Y-70487419D02*
X97679934Y-71358276D01*
X97728315Y-71455038D01*
X97825077Y-71503419D01*
X97921839Y-71503419D01*
X92212886Y-72260581D02*
X92261267Y-72212200D01*
X92358029Y-72163819D01*
X92599933Y-72163819D01*
X92696695Y-72212200D01*
X92745076Y-72260581D01*
X92793457Y-72357343D01*
X92793457Y-72454105D01*
X92745076Y-72599248D01*
X92164505Y-73179819D01*
X92793457Y-73179819D01*
X93954600Y-72115438D02*
X93083743Y-73421724D01*
X94341648Y-73179819D02*
X94535172Y-73179819D01*
X94631933Y-73131438D01*
X94680314Y-73083057D01*
X94777076Y-72937914D01*
X94825457Y-72744390D01*
X94825457Y-72357343D01*
X94777076Y-72260581D01*
X94728695Y-72212200D01*
X94631933Y-72163819D01*
X94438410Y-72163819D01*
X94341648Y-72212200D01*
X94293267Y-72260581D01*
X94244886Y-72357343D01*
X94244886Y-72599248D01*
X94293267Y-72696010D01*
X94341648Y-72744390D01*
X94438410Y-72792771D01*
X94631933Y-72792771D01*
X94728695Y-72744390D01*
X94777076Y-72696010D01*
X94825457Y-72599248D01*
X95986600Y-72115438D02*
X95115743Y-73421724D01*
X96857457Y-73179819D02*
X96276886Y-73179819D01*
X96567172Y-73179819D02*
X96567172Y-72163819D01*
X96470410Y-72308962D01*
X96373648Y-72405724D01*
X96276886Y-72454105D01*
X97196124Y-72163819D02*
X97873457Y-72163819D01*
X97438029Y-73179819D01*
D12*
X61361400Y-101562000D02*
X61361400Y-99022000D01*
X62885400Y-101562000D02*
X62885400Y-99022000D01*
X74961400Y-101562000D02*
X74961400Y-99022000D01*
X76485400Y-101562000D02*
X76485400Y-99022000D01*
X80653400Y-108950000D02*
X83193400Y-108950000D01*
X80653400Y-110474000D02*
X83193400Y-110474000D01*
X83183400Y-81484000D02*
X80643400Y-81484000D01*
X83183400Y-79960000D02*
X80643400Y-79960000D01*
D13*
X98807025Y-105202028D02*
G75*
G03X95003400Y-101412000I-3999066J-209764D01*
G01*
X83203400Y-113212000D02*
X83203400Y-105212000D01*
X95003400Y-117012000D02*
X87003400Y-117012000D01*
X95003400Y-101412000D02*
X87003400Y-101412000D01*
X98803400Y-113212000D02*
X98803400Y-105212000D01*
X86993428Y-101408375D02*
G75*
G03X83203400Y-105212000I209764J-3999066D01*
G01*
X95013372Y-117015625D02*
G75*
G03X98803400Y-113212000I-209764J3999066D01*
G01*
X83199775Y-113221972D02*
G75*
G03X87003400Y-117012000I3999066J209764D01*
G01*
D12*
X91773400Y-98926000D02*
X91773400Y-101466000D01*
X90249400Y-98926000D02*
X90249400Y-101466000D01*
X93503400Y-84202000D02*
X93503400Y-90202000D01*
X87503400Y-84202000D02*
X93503400Y-84202000D01*
X87503400Y-90202000D02*
X87503400Y-84202000D01*
X93503400Y-90202000D02*
X87503400Y-90202000D01*
X83203400Y-95202000D02*
G75*
G03X87103220Y-98895368I3799820J106632D01*
G01*
X95003400Y-98891821D02*
G75*
G03X98803400Y-95202000I0J3801645D01*
G01*
X98804716Y-79202000D02*
G75*
G03X94903400Y-75402000I-3801316J0D01*
G01*
X87003400Y-75400684D02*
G75*
G03X83203400Y-79302000I0J-3801316D01*
G01*
X87003400Y-75402000D02*
X95003400Y-75402000D01*
X83203400Y-79302000D02*
X83203400Y-95202000D01*
X98803400Y-79202000D02*
X98803400Y-95202000D01*
X87003400Y-98902000D02*
X95003400Y-98902000D01*
X76833400Y-101482500D02*
X60933400Y-101482500D01*
X76833400Y-117082500D02*
X60933400Y-117082500D01*
X80633400Y-113182500D02*
X80633400Y-105382500D01*
X57033400Y-113182500D02*
X57033400Y-105382500D01*
X80633400Y-105382500D02*
G75*
G03X76733400Y-101482500I-3900000J0D01*
G01*
X76733400Y-117082500D02*
G75*
G03X80633400Y-113182500I0J3900000D01*
G01*
X57033400Y-113182500D02*
G75*
G03X60933400Y-117082500I3900000J0D01*
G01*
X60933400Y-101482500D02*
G75*
G03X57033400Y-105382500I0J-3900000D01*
G01*
D13*
X60813400Y-99022000D02*
X76813400Y-99022000D01*
X57013400Y-79222000D02*
X57013400Y-95222000D01*
X80613400Y-79222000D02*
X80613400Y-95222000D01*
X60813400Y-75422000D02*
X76813400Y-75422000D01*
X60813400Y-75422000D02*
G75*
G03X57013400Y-79222000I0J-3800000D01*
G01*
X57013400Y-95222000D02*
G75*
G03X60813400Y-99022000I3800000J0D01*
G01*
X76813400Y-99022000D02*
G75*
G03X80613400Y-95222000I0J3800000D01*
G01*
X80613400Y-79222000D02*
G75*
G03X76813400Y-75422000I-3800000J0D01*
G01*
D14*
X89884353Y-109664381D02*
X89408162Y-109664381D01*
X89408162Y-108664381D01*
X90217686Y-109140571D02*
X90551020Y-109140571D01*
X90693877Y-109664381D02*
X90217686Y-109664381D01*
X90217686Y-108664381D01*
X90693877Y-108664381D01*
X91122448Y-109664381D02*
X91122448Y-108664381D01*
X91360543Y-108664381D01*
X91503401Y-108712000D01*
X91598639Y-108807238D01*
X91646258Y-108902476D01*
X91693877Y-109092952D01*
X91693877Y-109235810D01*
X91646258Y-109426286D01*
X91598639Y-109521524D01*
X91503401Y-109616762D01*
X91360543Y-109664381D01*
X91122448Y-109664381D01*
X92646258Y-109664381D02*
X92074829Y-109664381D01*
X92360543Y-109664381D02*
X92360543Y-108664381D01*
X92265305Y-108807238D01*
X92170067Y-108902476D01*
X92074829Y-108950095D01*
X89670067Y-87606762D02*
X89812924Y-87654381D01*
X90051020Y-87654381D01*
X90146258Y-87606762D01*
X90193877Y-87559143D01*
X90241496Y-87463905D01*
X90241496Y-87368667D01*
X90193877Y-87273429D01*
X90146258Y-87225810D01*
X90051020Y-87178190D01*
X89860543Y-87130571D01*
X89765305Y-87082952D01*
X89717686Y-87035333D01*
X89670067Y-86940095D01*
X89670067Y-86844857D01*
X89717686Y-86749619D01*
X89765305Y-86702000D01*
X89860543Y-86654381D01*
X90098639Y-86654381D01*
X90241496Y-86702000D01*
X90574829Y-86654381D02*
X90812924Y-87654381D01*
X91003401Y-86940095D01*
X91193877Y-87654381D01*
X91431972Y-86654381D01*
X92336734Y-87654381D02*
X91765305Y-87654381D01*
X92051019Y-87654381D02*
X92051019Y-86654381D01*
X91955781Y-86797238D01*
X91860543Y-86892476D01*
X91765305Y-86940095D01*
X67645305Y-109534381D02*
X67169114Y-109534381D01*
X67169114Y-108534381D01*
X68169114Y-108534381D02*
X68359591Y-108534381D01*
X68454829Y-108582000D01*
X68550067Y-108677238D01*
X68597686Y-108867714D01*
X68597686Y-109201048D01*
X68550067Y-109391524D01*
X68454829Y-109486762D01*
X68359591Y-109534381D01*
X68169114Y-109534381D01*
X68073876Y-109486762D01*
X67978638Y-109391524D01*
X67931019Y-109201048D01*
X67931019Y-108867714D01*
X67978638Y-108677238D01*
X68073876Y-108582000D01*
X68169114Y-108534381D01*
X69550067Y-108582000D02*
X69454829Y-108534381D01*
X69311972Y-108534381D01*
X69169114Y-108582000D01*
X69073876Y-108677238D01*
X69026257Y-108772476D01*
X68978638Y-108962952D01*
X68978638Y-109105810D01*
X69026257Y-109296286D01*
X69073876Y-109391524D01*
X69169114Y-109486762D01*
X69311972Y-109534381D01*
X69407210Y-109534381D01*
X69550067Y-109486762D01*
X69597686Y-109439143D01*
X69597686Y-109105810D01*
X69407210Y-109105810D01*
X70216733Y-108534381D02*
X70407210Y-108534381D01*
X70502448Y-108582000D01*
X70597686Y-108677238D01*
X70645305Y-108867714D01*
X70645305Y-109201048D01*
X70597686Y-109391524D01*
X70502448Y-109486762D01*
X70407210Y-109534381D01*
X70216733Y-109534381D01*
X70121495Y-109486762D01*
X70026257Y-109391524D01*
X69978638Y-109201048D01*
X69978638Y-108867714D01*
X70026257Y-108677238D01*
X70121495Y-108582000D01*
X70216733Y-108534381D01*
X68027686Y-87150571D02*
X68170543Y-87198190D01*
X68218162Y-87245810D01*
X68265781Y-87341048D01*
X68265781Y-87483905D01*
X68218162Y-87579143D01*
X68170543Y-87626762D01*
X68075305Y-87674381D01*
X67694352Y-87674381D01*
X67694352Y-86674381D01*
X68027686Y-86674381D01*
X68122924Y-86722000D01*
X68170543Y-86769619D01*
X68218162Y-86864857D01*
X68218162Y-86960095D01*
X68170543Y-87055333D01*
X68122924Y-87102952D01*
X68027686Y-87150571D01*
X67694352Y-87150571D01*
X68551495Y-86674381D02*
X69122924Y-86674381D01*
X68837209Y-87674381D02*
X68837209Y-86674381D01*
X69980067Y-87674381D02*
X69408638Y-87674381D01*
X69694352Y-87674381D02*
X69694352Y-86674381D01*
X69599114Y-86817238D01*
X69503876Y-86912476D01*
X69408638Y-86960095D01*
M02*
