M48
;DRILL file {KiCad 4.0.5-e0-6337~49~ubuntu16.04.1} date Mon Feb 13 11:15:54 2017
;FORMAT={-:-/ absolute / metric / decimal}
FMAT,2
METRIC,TZ
T1C0.500
T2C1.001
T3C4.980
T4C4.980
%
G90
G05
M71
T1
X61.615Y-99.276
X61.615Y-101.308
X62.631Y-99.276
X62.631Y-101.308
X75.215Y-99.276
X75.215Y-101.308
X76.231Y-99.276
X76.231Y-101.308
X80.897Y-80.214
X80.897Y-81.23
X80.907Y-109.204
X80.907Y-110.22
X82.929Y-80.214
X82.929Y-81.23
X82.939Y-109.204
X82.939Y-110.22
X90.503Y-99.18
X90.503Y-101.212
X91.519Y-99.18
X91.519Y-101.212
T2
X91.003Y-107.672
X91.003Y-110.212
T3
X60.813Y-79.222
X60.813Y-95.222
X76.813Y-79.222
X76.813Y-95.222
X87.003Y-79.202
X87.003Y-87.202
X87.003Y-95.202
X87.003Y-105.212
X87.003Y-113.212
X95.003Y-79.202
X95.003Y-87.202
X95.003Y-95.202
X95.003Y-105.212
X95.003Y-113.212
T4
X60.813Y-87.222
X68.813Y-79.222
X68.813Y-87.222
X68.813Y-95.222
X76.813Y-87.222
T0
M30
