%TF.GenerationSoftware,KiCad,Pcbnew,4.0.7-e2-6376~58~ubuntu16.04.1*%
%TF.CreationDate,2017-10-07T16:27:36-07:00*%
%TF.ProjectId,LegoLED-SMTButton-Battery,4C65676F4C45442D534D54427574746F,v1.2*%
%TF.FileFunction,Copper,L1,Top,Signal*%
%FSLAX46Y46*%
G04 Gerber Fmt 4.6, Leading zero omitted, Abs format (unit mm)*
G04 Created by KiCad (PCBNEW 4.0.7-e2-6376~58~ubuntu16.04.1) date Sat Oct  7 16:27:36 2017*
%MOMM*%
%LPD*%
G01*
G04 APERTURE LIST*
%ADD10C,0.350000*%
%ADD11C,5.000000*%
%ADD12C,2.540000*%
%ADD13C,1.270000*%
%ADD14C,0.500000*%
%ADD15O,23.240000X7.620000*%
%ADD16O,7.620000X15.240000*%
%ADD17C,2.000000*%
%ADD18C,1.900000*%
%ADD19C,6.000000*%
%ADD20R,1.300000X1.550000*%
%ADD21R,2.600000X5.560000*%
%ADD22R,9.000000X13.800000*%
%ADD23C,0.152400*%
%ADD24C,0.350000*%
G04 APERTURE END LIST*
D10*
D11*
X95003400Y-79102000D02*
X95003400Y-95202000D01*
X86903400Y-79202000D02*
X86903400Y-95502000D01*
D12*
X60813400Y-79093000D02*
X68814400Y-87348000D01*
X60432400Y-95349000D02*
X68687400Y-87348000D01*
D13*
X76815400Y-79347000D02*
X79736400Y-84808000D01*
X76815400Y-95095000D02*
X79863400Y-89507000D01*
D14*
X61615400Y-99276000D03*
X62631400Y-99276000D03*
X62631400Y-101308000D03*
X61615400Y-101308000D03*
X75215400Y-99276000D03*
X76231400Y-99276000D03*
X76231400Y-101308000D03*
X75215400Y-101308000D03*
X82939400Y-109204000D03*
X82939400Y-110220000D03*
X80907400Y-110220000D03*
X80907400Y-109204000D03*
X80897400Y-81230000D03*
X80897400Y-80214000D03*
X82929400Y-80214000D03*
X82929400Y-81230000D03*
X91519400Y-101212000D03*
X90503400Y-101212000D03*
X90503400Y-99180000D03*
X91519400Y-99180000D03*
D15*
X68933400Y-105282500D03*
D16*
X61023400Y-109155500D03*
X76833400Y-109092000D03*
D15*
X68933400Y-113182500D03*
X68933400Y-109282500D03*
D17*
X91003400Y-110212000D03*
D18*
X91003400Y-107672000D03*
D19*
X95003400Y-105212000D03*
X95003400Y-113212000D03*
X87003400Y-113212000D03*
X87003400Y-105212000D03*
X87003400Y-95202000D03*
X87003400Y-87202000D03*
X95003400Y-87202000D03*
X95003400Y-95202000D03*
D20*
X92803400Y-91202000D03*
X88303400Y-91202000D03*
X92803400Y-83252000D03*
X88303400Y-83252000D03*
D19*
X87003400Y-79202000D03*
X95003400Y-79202000D03*
D21*
X79013400Y-87222000D03*
D22*
X68809400Y-87476000D03*
D21*
X58613400Y-87222000D03*
D19*
X60813400Y-79222000D03*
X76813400Y-79222000D03*
X60813400Y-95222000D03*
X76813400Y-95222000D03*
D13*
X60813400Y-95222000D02*
X61063400Y-95222000D01*
D12*
X61063400Y-95222000D02*
X68809400Y-87476000D01*
D13*
X60813400Y-79222000D02*
X60813400Y-79480000D01*
D12*
X60813400Y-79480000D02*
X68809400Y-87476000D01*
D23*
X83803400Y-109782000D02*
X83803400Y-113012000D01*
X62123400Y-98792000D02*
X62123400Y-102292000D01*
X60813400Y-97522000D02*
X62113400Y-98822000D01*
X60813400Y-95242000D02*
X60813400Y-97522000D01*
X83803400Y-109782000D02*
X78703400Y-109782000D01*
X84003400Y-113212000D02*
X83803400Y-113012000D01*
X87003400Y-113212000D02*
X84003400Y-113212000D01*
X93533400Y-97342000D02*
X95043400Y-95832000D01*
X93533400Y-98012000D02*
X93533400Y-97342000D01*
X90963400Y-98012000D02*
X93533400Y-98012000D01*
X90963400Y-102412000D02*
X90963400Y-98012000D01*
X90963400Y-102412000D02*
X92503400Y-102412000D01*
X92503400Y-102412000D02*
X95003400Y-104912000D01*
X95003400Y-104912000D02*
X95003400Y-105212000D01*
X85613400Y-88602000D02*
X86113400Y-88102000D01*
X80213400Y-80722000D02*
X85613400Y-80722000D01*
X87003400Y-95202000D02*
X88163400Y-95202000D01*
X76813400Y-95242000D02*
X76813400Y-97422000D01*
X78733400Y-79242000D02*
X80213400Y-80722000D01*
X76813400Y-79242000D02*
X78733400Y-79242000D01*
D24*
X61615400Y-99276000D03*
X62631400Y-99276000D03*
X62631400Y-101308000D03*
X61615400Y-101308000D03*
X75215400Y-99276000D03*
X76231400Y-99276000D03*
X76231400Y-101308000D03*
X75215400Y-101308000D03*
X82939400Y-109204000D03*
X82939400Y-110220000D03*
X80907400Y-110220000D03*
X80907400Y-109204000D03*
X80897400Y-81230000D03*
X80897400Y-80214000D03*
X82929400Y-80214000D03*
X82929400Y-81230000D03*
X91519400Y-101212000D03*
X90503400Y-101212000D03*
X90503400Y-99180000D03*
X91519400Y-99180000D03*
X91003400Y-110212000D03*
X91003400Y-107672000D03*
X95003400Y-105212000D03*
X95003400Y-113212000D03*
X87003400Y-113212000D03*
X87003400Y-105212000D03*
X87003400Y-95202000D03*
X87003400Y-87202000D03*
X95003400Y-87202000D03*
X95003400Y-95202000D03*
X87003400Y-79202000D03*
X95003400Y-79202000D03*
X68813400Y-87222000D03*
X60813400Y-87222000D03*
X76813400Y-87222000D03*
X60813400Y-79222000D03*
X68813400Y-79222000D03*
X76813400Y-79222000D03*
X60813400Y-95222000D03*
X68813400Y-95222000D03*
X76813400Y-95222000D03*
M02*
