%TF.GenerationSoftware,KiCad,Pcbnew,4.0.5-e0-6337~49~ubuntu16.04.1*%
%TF.CreationDate,2017-02-13T11:15:54-08:00*%
%TF.ProjectId,LegoLED-SMTButton-Battery,4C65676F4C45442D534D54427574746F,1.0*%
%TF.FileFunction,Profile,NP*%
%FSLAX46Y46*%
G04 Gerber Fmt 4.6, Leading zero omitted, Abs format (unit mm)*
G04 Created by KiCad (PCBNEW 4.0.5-e0-6337~49~ubuntu16.04.1) date Mon Feb 13 11:15:54 2017*
%MOMM*%
%LPD*%
G01*
G04 APERTURE LIST*
%ADD10C,0.350000*%
%ADD11C,0.040640*%
%ADD12C,0.050000*%
G04 APERTURE END LIST*
D10*
D11*
X61361400Y-101562000D02*
X61361400Y-99022000D01*
X62885400Y-101562000D02*
X62885400Y-99022000D01*
X74961400Y-101562000D02*
X74961400Y-99022000D01*
X76485400Y-101562000D02*
X76485400Y-99022000D01*
X80653400Y-108950000D02*
X83193400Y-108950000D01*
X80653400Y-110474000D02*
X83193400Y-110474000D01*
X83183400Y-81484000D02*
X80643400Y-81484000D01*
X83183400Y-79960000D02*
X80643400Y-79960000D01*
D12*
X98807025Y-105202028D02*
G75*
G03X95003400Y-101412000I-3999066J-209764D01*
G01*
X83203400Y-113212000D02*
X83203400Y-105212000D01*
X95003400Y-117012000D02*
X87003400Y-117012000D01*
X95003400Y-101412000D02*
X87003400Y-101412000D01*
X98803400Y-113212000D02*
X98803400Y-105212000D01*
X86993428Y-101408375D02*
G75*
G03X83203400Y-105212000I209764J-3999066D01*
G01*
X95013372Y-117015625D02*
G75*
G03X98803400Y-113212000I-209764J3999066D01*
G01*
X83199775Y-113221972D02*
G75*
G03X87003400Y-117012000I3999066J209764D01*
G01*
D11*
X91773400Y-98926000D02*
X91773400Y-101466000D01*
X90249400Y-98926000D02*
X90249400Y-101466000D01*
X83203400Y-95202000D02*
G75*
G03X87103220Y-98895368I3799820J106632D01*
G01*
X95003400Y-98891821D02*
G75*
G03X98803400Y-95202000I0J3801645D01*
G01*
X98804716Y-79202000D02*
G75*
G03X94903400Y-75402000I-3801316J0D01*
G01*
X87003400Y-75400684D02*
G75*
G03X83203400Y-79302000I0J-3801316D01*
G01*
X87003400Y-75402000D02*
X95003400Y-75402000D01*
X83203400Y-79302000D02*
X83203400Y-95202000D01*
X98803400Y-79102000D02*
X98803400Y-95202000D01*
X87003400Y-98902000D02*
X95003400Y-98902000D01*
X76733400Y-101482500D02*
X60933400Y-101482500D01*
X76733400Y-117082500D02*
X60933400Y-117082500D01*
X80633400Y-113182500D02*
X80633400Y-105382500D01*
X57033400Y-113182500D02*
X57033400Y-105382500D01*
X80633400Y-105382500D02*
G75*
G03X76733400Y-101482500I-3900000J0D01*
G01*
X76733400Y-117082500D02*
G75*
G03X80633400Y-113182500I0J3900000D01*
G01*
X57033400Y-113182500D02*
G75*
G03X60933400Y-117082500I3900000J0D01*
G01*
X60933400Y-101482500D02*
G75*
G03X57033400Y-105382500I0J-3900000D01*
G01*
D12*
X60813400Y-99022000D02*
X76813400Y-99022000D01*
X57013400Y-79222000D02*
X57013400Y-95222000D01*
X80613400Y-79222000D02*
X80613400Y-95222000D01*
X60813400Y-75422000D02*
X76813400Y-75422000D01*
X60813400Y-75422000D02*
G75*
G03X57013400Y-79222000I0J-3800000D01*
G01*
X57013400Y-95222000D02*
G75*
G03X60813400Y-99022000I3800000J0D01*
G01*
X76813400Y-99022000D02*
G75*
G03X80613400Y-95222000I0J3800000D01*
G01*
X80613400Y-79222000D02*
G75*
G03X76813400Y-75422000I-3800000J0D01*
G01*
M02*
