M48
;DRILL file {KiCad 4.0.5-e0-6337~49~ubuntu16.04.1} date Tue Feb 14 00:26:28 2017
;FORMAT={-:-/ absolute / metric / decimal}
FMAT,2
METRIC,TZ
T1C0.800
T2C4.980
T3C4.980
%
G90
G05
M71
T1
X25.846Y-63.426
X25.846Y-65.966
X25.846Y-68.506
X25.846Y-71.046
X33.466Y-63.426
X33.466Y-65.966
X33.466Y-68.506
X33.466Y-71.046
T2
X21.846Y-55.426
X21.846Y-63.426
X21.846Y-71.426
X21.846Y-79.426
X29.846Y-55.426
X29.846Y-79.426
X37.846Y-55.426
X37.846Y-63.426
X37.846Y-71.426
X37.846Y-79.426
T3
X29.846Y-63.426
X29.846Y-71.426
T0
M30
