%TF.GenerationSoftware,KiCad,Pcbnew,4.0.5-e0-6337~49~ubuntu16.04.1*%
%TF.CreationDate,2017-02-14T00:26:28-08:00*%
%TF.ProjectId,3x4-ATtiny85-8DIP-Breakout,3378342D415474696E7938352D384449,1.0*%
%TF.FileFunction,Soldermask,Bot*%
%FSLAX46Y46*%
G04 Gerber Fmt 4.6, Leading zero omitted, Abs format (unit mm)*
G04 Created by KiCad (PCBNEW 4.0.5-e0-6337~49~ubuntu16.04.1) date Tue Feb 14 00:26:28 2017*
%MOMM*%
%LPD*%
G01*
G04 APERTURE LIST*
%ADD10C,0.350000*%
%ADD11C,6.800000*%
G04 APERTURE END LIST*
D10*
D11*
X38152800Y-63220600D02*
X38152800Y-63728600D01*
X38152800Y-71145400D02*
X38152800Y-71653400D01*
X21439600Y-71145400D02*
X21439600Y-71653400D01*
X21287200Y-63119000D02*
X21287200Y-63627000D01*
D10*
G36*
X38221627Y-75851979D02*
X38908625Y-75993000D01*
X39555161Y-76264779D01*
X40136589Y-76656957D01*
X40630769Y-77154599D01*
X41018877Y-77738749D01*
X41286133Y-78387160D01*
X41422286Y-79074786D01*
X41422286Y-79074791D01*
X41422354Y-79075135D01*
X41411168Y-79876185D01*
X41411092Y-79876519D01*
X41411092Y-79876532D01*
X41255791Y-80560090D01*
X40970537Y-81200782D01*
X40566266Y-81773870D01*
X40058383Y-82257522D01*
X39466230Y-82633314D01*
X38812365Y-82886931D01*
X38121692Y-83008716D01*
X37420515Y-82994027D01*
X36735544Y-82843427D01*
X36092871Y-82562650D01*
X35516979Y-82162394D01*
X35029794Y-81657900D01*
X34649878Y-81068384D01*
X34391699Y-80416300D01*
X34265097Y-79726499D01*
X34274888Y-79025237D01*
X34420704Y-78339231D01*
X34696985Y-77694616D01*
X35093215Y-77115938D01*
X35594294Y-76625245D01*
X36181143Y-76241222D01*
X36831405Y-75978498D01*
X37520309Y-75847084D01*
X38221627Y-75851979D01*
X38221627Y-75851979D01*
G37*
G36*
X22221627Y-75851979D02*
X22908625Y-75993000D01*
X23555161Y-76264779D01*
X24136589Y-76656957D01*
X24630769Y-77154599D01*
X25018877Y-77738749D01*
X25286133Y-78387160D01*
X25422286Y-79074786D01*
X25422286Y-79074791D01*
X25422354Y-79075135D01*
X25411168Y-79876185D01*
X25411092Y-79876519D01*
X25411092Y-79876532D01*
X25255791Y-80560090D01*
X24970537Y-81200782D01*
X24566266Y-81773870D01*
X24058383Y-82257522D01*
X23466230Y-82633314D01*
X22812365Y-82886931D01*
X22121692Y-83008716D01*
X21420515Y-82994027D01*
X20735544Y-82843427D01*
X20092871Y-82562650D01*
X19516979Y-82162394D01*
X19029794Y-81657900D01*
X18649878Y-81068384D01*
X18391699Y-80416300D01*
X18265097Y-79726499D01*
X18274888Y-79025237D01*
X18420704Y-78339231D01*
X18696985Y-77694616D01*
X19093215Y-77115938D01*
X19594294Y-76625245D01*
X20181143Y-76241222D01*
X20831405Y-75978498D01*
X21520309Y-75847084D01*
X22221627Y-75851979D01*
X22221627Y-75851979D01*
G37*
G36*
X30221627Y-75851979D02*
X30908625Y-75993000D01*
X31555161Y-76264779D01*
X32136589Y-76656957D01*
X32630769Y-77154599D01*
X33018877Y-77738749D01*
X33286133Y-78387160D01*
X33422286Y-79074786D01*
X33422286Y-79074791D01*
X33422354Y-79075135D01*
X33411168Y-79876185D01*
X33411092Y-79876519D01*
X33411092Y-79876532D01*
X33255791Y-80560090D01*
X32970537Y-81200782D01*
X32566266Y-81773870D01*
X32058383Y-82257522D01*
X31466230Y-82633314D01*
X30812365Y-82886931D01*
X30121692Y-83008716D01*
X29420515Y-82994027D01*
X28735544Y-82843427D01*
X28092871Y-82562650D01*
X27516979Y-82162394D01*
X27029794Y-81657900D01*
X26649878Y-81068384D01*
X26391699Y-80416300D01*
X26265097Y-79726499D01*
X26274888Y-79025237D01*
X26420704Y-78339231D01*
X26696985Y-77694616D01*
X27093215Y-77115938D01*
X27594294Y-76625245D01*
X28181143Y-76241222D01*
X28831405Y-75978498D01*
X29520309Y-75847084D01*
X30221627Y-75851979D01*
X30221627Y-75851979D01*
G37*
G36*
X22169110Y-68351647D02*
X22760055Y-68472951D01*
X23316198Y-68706732D01*
X23816334Y-69044078D01*
X24241421Y-69472143D01*
X24575266Y-69974621D01*
X24805156Y-70532376D01*
X24879541Y-70908044D01*
X24884263Y-70921537D01*
X24892557Y-70933179D01*
X24903766Y-70942050D01*
X24917003Y-70947448D01*
X24931219Y-70948943D01*
X24945289Y-70946420D01*
X24958099Y-70940076D01*
X24968635Y-70930414D01*
X24976061Y-70918200D01*
X24979896Y-70903486D01*
X24983450Y-70869663D01*
X24983452Y-70869658D01*
X24983456Y-70869616D01*
X25034024Y-70706259D01*
X25115357Y-70555835D01*
X25224360Y-70424074D01*
X25356878Y-70315994D01*
X25507866Y-70235713D01*
X25671572Y-70186287D01*
X25841760Y-70169600D01*
X25850276Y-70169600D01*
X25854957Y-70169633D01*
X25862474Y-70169685D01*
X26032412Y-70188747D01*
X26195412Y-70240454D01*
X26345264Y-70322836D01*
X26476261Y-70432755D01*
X26583413Y-70566025D01*
X26662638Y-70717570D01*
X26710920Y-70881616D01*
X26710924Y-70881658D01*
X26710925Y-70881662D01*
X26725306Y-71039683D01*
X26726419Y-71051917D01*
X26708544Y-71221984D01*
X26657976Y-71385341D01*
X26576643Y-71535765D01*
X26467640Y-71667526D01*
X26335122Y-71775606D01*
X26184134Y-71855887D01*
X26020428Y-71905313D01*
X25850240Y-71922000D01*
X25841724Y-71922000D01*
X25837043Y-71921967D01*
X25829526Y-71921915D01*
X25659588Y-71902853D01*
X25496588Y-71851146D01*
X25346736Y-71768764D01*
X25215739Y-71658845D01*
X25108587Y-71525575D01*
X25029362Y-71374030D01*
X25018597Y-71337453D01*
X25012693Y-71324491D01*
X25003378Y-71313648D01*
X24991411Y-71305829D01*
X24977740Y-71301654D01*
X24963446Y-71301453D01*
X24949663Y-71305241D01*
X24937481Y-71312720D01*
X24927864Y-71323297D01*
X24921575Y-71336134D01*
X24919169Y-71350660D01*
X24912710Y-71813216D01*
X24912633Y-71813554D01*
X24912633Y-71813562D01*
X24779057Y-72401501D01*
X24533685Y-72952616D01*
X24185937Y-73445578D01*
X23749062Y-73861609D01*
X23239700Y-74184861D01*
X22677254Y-74403019D01*
X22083147Y-74507776D01*
X21480003Y-74495142D01*
X20890800Y-74365597D01*
X20337982Y-74124077D01*
X19842607Y-73779782D01*
X19423537Y-73345823D01*
X19096738Y-72838730D01*
X18874656Y-72277814D01*
X18765755Y-71684458D01*
X18774177Y-71081241D01*
X18899606Y-70491147D01*
X19137259Y-69936658D01*
X19478091Y-69438888D01*
X19909112Y-69016800D01*
X20413913Y-68686468D01*
X20973259Y-68460477D01*
X21565845Y-68347436D01*
X22169110Y-68351647D01*
X22169110Y-68351647D01*
G37*
G36*
X38169110Y-68351647D02*
X38760055Y-68472951D01*
X39316198Y-68706732D01*
X39816334Y-69044078D01*
X40241421Y-69472143D01*
X40575266Y-69974621D01*
X40805156Y-70532376D01*
X40922264Y-71123814D01*
X40922264Y-71123824D01*
X40922331Y-71124163D01*
X40912710Y-71813216D01*
X40912633Y-71813554D01*
X40912633Y-71813562D01*
X40779057Y-72401501D01*
X40533685Y-72952616D01*
X40185937Y-73445578D01*
X39749062Y-73861609D01*
X39239700Y-74184861D01*
X38677254Y-74403019D01*
X38083147Y-74507776D01*
X37480003Y-74495142D01*
X36890800Y-74365597D01*
X36337982Y-74124077D01*
X35842607Y-73779782D01*
X35423537Y-73345823D01*
X35096738Y-72838730D01*
X34874656Y-72277814D01*
X34765755Y-71684458D01*
X34774177Y-71081241D01*
X34899606Y-70491147D01*
X35137259Y-69936658D01*
X35478091Y-69438888D01*
X35909112Y-69016800D01*
X36413913Y-68686468D01*
X36973259Y-68460477D01*
X37565845Y-68347436D01*
X38169110Y-68351647D01*
X38169110Y-68351647D01*
G37*
G36*
X30115543Y-68861307D02*
X30608515Y-68962500D01*
X31072456Y-69157523D01*
X31489675Y-69438941D01*
X31844288Y-69796037D01*
X32122785Y-70215210D01*
X32314562Y-70680495D01*
X32412243Y-71173822D01*
X32412243Y-71173832D01*
X32412310Y-71174171D01*
X32404284Y-71748986D01*
X32404207Y-71749324D01*
X32404207Y-71749333D01*
X32292789Y-72239742D01*
X32088098Y-72699487D01*
X31798002Y-73110722D01*
X31433556Y-73457780D01*
X31008642Y-73727439D01*
X30539440Y-73909430D01*
X30043831Y-73996820D01*
X29540681Y-73986280D01*
X29049161Y-73878212D01*
X28587994Y-73676733D01*
X28174747Y-73389519D01*
X27825154Y-73027505D01*
X27552535Y-72604482D01*
X27367271Y-72136559D01*
X27276425Y-71641576D01*
X27283450Y-71138365D01*
X27388085Y-70646102D01*
X27586338Y-70183541D01*
X27870663Y-69768295D01*
X28230226Y-69416185D01*
X28651337Y-69140618D01*
X29117950Y-68952094D01*
X29612291Y-68857794D01*
X30115543Y-68861307D01*
X30115543Y-68861307D01*
G37*
G36*
X33474957Y-70169633D02*
X33482474Y-70169685D01*
X33652412Y-70188747D01*
X33815412Y-70240454D01*
X33965264Y-70322836D01*
X34096261Y-70432755D01*
X34203413Y-70566025D01*
X34282638Y-70717570D01*
X34330920Y-70881616D01*
X34330924Y-70881658D01*
X34330925Y-70881662D01*
X34345306Y-71039683D01*
X34346419Y-71051917D01*
X34328544Y-71221984D01*
X34277976Y-71385341D01*
X34196643Y-71535765D01*
X34087640Y-71667526D01*
X33955122Y-71775606D01*
X33804134Y-71855887D01*
X33640428Y-71905313D01*
X33470240Y-71922000D01*
X33461724Y-71922000D01*
X33457043Y-71921967D01*
X33449526Y-71921915D01*
X33279588Y-71902853D01*
X33116588Y-71851146D01*
X32966736Y-71768764D01*
X32835739Y-71658845D01*
X32728587Y-71525575D01*
X32649362Y-71374030D01*
X32601080Y-71209984D01*
X32601076Y-71209942D01*
X32601075Y-71209938D01*
X32585581Y-71039685D01*
X32595384Y-70946420D01*
X32603456Y-70869616D01*
X32654024Y-70706259D01*
X32735357Y-70555835D01*
X32844360Y-70424074D01*
X32976878Y-70315994D01*
X33127866Y-70235713D01*
X33291572Y-70186287D01*
X33461760Y-70169600D01*
X33470276Y-70169600D01*
X33474957Y-70169633D01*
X33474957Y-70169633D01*
G37*
G36*
X33474957Y-67629633D02*
X33482474Y-67629685D01*
X33652412Y-67648747D01*
X33815412Y-67700454D01*
X33965264Y-67782836D01*
X34096261Y-67892755D01*
X34203413Y-68026025D01*
X34282638Y-68177570D01*
X34330920Y-68341616D01*
X34330924Y-68341658D01*
X34330925Y-68341662D01*
X34341738Y-68460480D01*
X34346419Y-68511917D01*
X34328544Y-68681984D01*
X34277976Y-68845341D01*
X34196643Y-68995765D01*
X34087640Y-69127526D01*
X33955122Y-69235606D01*
X33804134Y-69315887D01*
X33640428Y-69365313D01*
X33470240Y-69382000D01*
X33461724Y-69382000D01*
X33457043Y-69381967D01*
X33449526Y-69381915D01*
X33279588Y-69362853D01*
X33116588Y-69311146D01*
X32966736Y-69228764D01*
X32835739Y-69118845D01*
X32728587Y-68985575D01*
X32649362Y-68834030D01*
X32601080Y-68669984D01*
X32601076Y-68669942D01*
X32601075Y-68669938D01*
X32585581Y-68499685D01*
X32588391Y-68472954D01*
X32603456Y-68329616D01*
X32654024Y-68166259D01*
X32735357Y-68015835D01*
X32844360Y-67884074D01*
X32976878Y-67775994D01*
X33127866Y-67695713D01*
X33291572Y-67646287D01*
X33461760Y-67629600D01*
X33470276Y-67629600D01*
X33474957Y-67629633D01*
X33474957Y-67629633D01*
G37*
G36*
X25854957Y-67629633D02*
X25862474Y-67629685D01*
X26032412Y-67648747D01*
X26195412Y-67700454D01*
X26345264Y-67782836D01*
X26476261Y-67892755D01*
X26583413Y-68026025D01*
X26662638Y-68177570D01*
X26710920Y-68341616D01*
X26710924Y-68341658D01*
X26710925Y-68341662D01*
X26721738Y-68460480D01*
X26726419Y-68511917D01*
X26708544Y-68681984D01*
X26657976Y-68845341D01*
X26576643Y-68995765D01*
X26467640Y-69127526D01*
X26335122Y-69235606D01*
X26184134Y-69315887D01*
X26020428Y-69365313D01*
X25850240Y-69382000D01*
X25841724Y-69382000D01*
X25837043Y-69381967D01*
X25829526Y-69381915D01*
X25659588Y-69362853D01*
X25496588Y-69311146D01*
X25346736Y-69228764D01*
X25215739Y-69118845D01*
X25108587Y-68985575D01*
X25029362Y-68834030D01*
X24981080Y-68669984D01*
X24981076Y-68669942D01*
X24981075Y-68669938D01*
X24965581Y-68499685D01*
X24968391Y-68472954D01*
X24983456Y-68329616D01*
X25034024Y-68166259D01*
X25115357Y-68015835D01*
X25224360Y-67884074D01*
X25356878Y-67775994D01*
X25507866Y-67695713D01*
X25671572Y-67646287D01*
X25841760Y-67629600D01*
X25850276Y-67629600D01*
X25854957Y-67629633D01*
X25854957Y-67629633D01*
G37*
G36*
X33474957Y-65089633D02*
X33482474Y-65089685D01*
X33652412Y-65108747D01*
X33815412Y-65160454D01*
X33965264Y-65242836D01*
X34096261Y-65352755D01*
X34203413Y-65486025D01*
X34282638Y-65637570D01*
X34330920Y-65801616D01*
X34330924Y-65801658D01*
X34330925Y-65801662D01*
X34345306Y-65959683D01*
X34346419Y-65971917D01*
X34328544Y-66141984D01*
X34277976Y-66305341D01*
X34196643Y-66455765D01*
X34087640Y-66587526D01*
X33955122Y-66695606D01*
X33804134Y-66775887D01*
X33640428Y-66825313D01*
X33470240Y-66842000D01*
X33461724Y-66842000D01*
X33457043Y-66841967D01*
X33449526Y-66841915D01*
X33279588Y-66822853D01*
X33116588Y-66771146D01*
X32966736Y-66688764D01*
X32835739Y-66578845D01*
X32728587Y-66445575D01*
X32649362Y-66294030D01*
X32601080Y-66129984D01*
X32601076Y-66129942D01*
X32601075Y-66129938D01*
X32585581Y-65959685D01*
X32603451Y-65789663D01*
X32603456Y-65789616D01*
X32654024Y-65626259D01*
X32735357Y-65475835D01*
X32844360Y-65344074D01*
X32976878Y-65235994D01*
X33127866Y-65155713D01*
X33291572Y-65106287D01*
X33461760Y-65089600D01*
X33470276Y-65089600D01*
X33474957Y-65089633D01*
X33474957Y-65089633D01*
G37*
G36*
X25854957Y-65089633D02*
X25862474Y-65089685D01*
X26032412Y-65108747D01*
X26195412Y-65160454D01*
X26345264Y-65242836D01*
X26476261Y-65352755D01*
X26583413Y-65486025D01*
X26662638Y-65637570D01*
X26710920Y-65801616D01*
X26710924Y-65801658D01*
X26710925Y-65801662D01*
X26725306Y-65959683D01*
X26726419Y-65971917D01*
X26708544Y-66141984D01*
X26657976Y-66305341D01*
X26576643Y-66455765D01*
X26467640Y-66587526D01*
X26335122Y-66695606D01*
X26184134Y-66775887D01*
X26020428Y-66825313D01*
X25850240Y-66842000D01*
X25841724Y-66842000D01*
X25837043Y-66841967D01*
X25829526Y-66841915D01*
X25659588Y-66822853D01*
X25496588Y-66771146D01*
X25346736Y-66688764D01*
X25215739Y-66578845D01*
X25108587Y-66445575D01*
X25029362Y-66294030D01*
X24981080Y-66129984D01*
X24981076Y-66129942D01*
X24981075Y-66129938D01*
X24965581Y-65959685D01*
X24983451Y-65789663D01*
X24983456Y-65789616D01*
X25034024Y-65626259D01*
X25115357Y-65475835D01*
X25224360Y-65344074D01*
X25356878Y-65235994D01*
X25507866Y-65155713D01*
X25671572Y-65106287D01*
X25841760Y-65089600D01*
X25850276Y-65089600D01*
X25854957Y-65089633D01*
X25854957Y-65089633D01*
G37*
G36*
X38169110Y-60351647D02*
X38760055Y-60472951D01*
X39316198Y-60706732D01*
X39816334Y-61044078D01*
X40241421Y-61472143D01*
X40575266Y-61974621D01*
X40805156Y-62532376D01*
X40922264Y-63123814D01*
X40922264Y-63123824D01*
X40922331Y-63124163D01*
X40912710Y-63813216D01*
X40912633Y-63813554D01*
X40912633Y-63813562D01*
X40779057Y-64401501D01*
X40533685Y-64952616D01*
X40185937Y-65445578D01*
X39749062Y-65861609D01*
X39239700Y-66184861D01*
X38677254Y-66403019D01*
X38083147Y-66507776D01*
X37480003Y-66495142D01*
X36890800Y-66365597D01*
X36337982Y-66124077D01*
X35842607Y-65779782D01*
X35423537Y-65345823D01*
X35096738Y-64838730D01*
X34874656Y-64277814D01*
X34765755Y-63684458D01*
X34774177Y-63081241D01*
X34899606Y-62491147D01*
X35137259Y-61936658D01*
X35478091Y-61438888D01*
X35909112Y-61016800D01*
X36413913Y-60686468D01*
X36973259Y-60460477D01*
X37565845Y-60347436D01*
X38169110Y-60351647D01*
X38169110Y-60351647D01*
G37*
G36*
X22169110Y-60351647D02*
X22760055Y-60472951D01*
X23316198Y-60706732D01*
X23816334Y-61044078D01*
X24241421Y-61472143D01*
X24575266Y-61974621D01*
X24805156Y-62532376D01*
X24922337Y-63124180D01*
X24927059Y-63137673D01*
X24935353Y-63149315D01*
X24946562Y-63158186D01*
X24959799Y-63163584D01*
X24974015Y-63165079D01*
X24988085Y-63162556D01*
X25000895Y-63156212D01*
X25011431Y-63146550D01*
X25020678Y-63129372D01*
X25034024Y-63086259D01*
X25115357Y-62935835D01*
X25224360Y-62804074D01*
X25356878Y-62695994D01*
X25507866Y-62615713D01*
X25671572Y-62566287D01*
X25841760Y-62549600D01*
X25850276Y-62549600D01*
X25854957Y-62549633D01*
X25862474Y-62549685D01*
X26032412Y-62568747D01*
X26195412Y-62620454D01*
X26345264Y-62702836D01*
X26476261Y-62812755D01*
X26583413Y-62946025D01*
X26662638Y-63097570D01*
X26710920Y-63261616D01*
X26710924Y-63261658D01*
X26710925Y-63261662D01*
X26725306Y-63419683D01*
X26726419Y-63431917D01*
X26708544Y-63601984D01*
X26657976Y-63765341D01*
X26576643Y-63915765D01*
X26467640Y-64047526D01*
X26335122Y-64155606D01*
X26184134Y-64235887D01*
X26020428Y-64285313D01*
X25850240Y-64302000D01*
X25841724Y-64302000D01*
X25837043Y-64301967D01*
X25829526Y-64301915D01*
X25659588Y-64282853D01*
X25496588Y-64231146D01*
X25346736Y-64148764D01*
X25215739Y-64038845D01*
X25108587Y-63905575D01*
X25029362Y-63754030D01*
X25013530Y-63700240D01*
X25007627Y-63687278D01*
X24998312Y-63676435D01*
X24986345Y-63668616D01*
X24972674Y-63664441D01*
X24958380Y-63664240D01*
X24944597Y-63668028D01*
X24932415Y-63675507D01*
X24922798Y-63686084D01*
X24916509Y-63698921D01*
X24914103Y-63713444D01*
X24912710Y-63813216D01*
X24912633Y-63813554D01*
X24912633Y-63813562D01*
X24779057Y-64401501D01*
X24533685Y-64952616D01*
X24185937Y-65445578D01*
X23749062Y-65861609D01*
X23239700Y-66184861D01*
X22677254Y-66403019D01*
X22083147Y-66507776D01*
X21480003Y-66495142D01*
X20890800Y-66365597D01*
X20337982Y-66124077D01*
X19842607Y-65779782D01*
X19423537Y-65345823D01*
X19096738Y-64838730D01*
X18874656Y-64277814D01*
X18765755Y-63684458D01*
X18774177Y-63081241D01*
X18899606Y-62491147D01*
X19137259Y-61936658D01*
X19478091Y-61438888D01*
X19909112Y-61016800D01*
X20413913Y-60686468D01*
X20973259Y-60460477D01*
X21565845Y-60347436D01*
X22169110Y-60351647D01*
X22169110Y-60351647D01*
G37*
G36*
X30115543Y-60861307D02*
X30608515Y-60962500D01*
X31072456Y-61157523D01*
X31489675Y-61438941D01*
X31844288Y-61796037D01*
X32122785Y-62215210D01*
X32314562Y-62680495D01*
X32412243Y-63173822D01*
X32412243Y-63173832D01*
X32412310Y-63174171D01*
X32404284Y-63748986D01*
X32404207Y-63749324D01*
X32404207Y-63749333D01*
X32292789Y-64239742D01*
X32088098Y-64699487D01*
X31798002Y-65110722D01*
X31433556Y-65457780D01*
X31008642Y-65727439D01*
X30539440Y-65909430D01*
X30043831Y-65996820D01*
X29540681Y-65986280D01*
X29049161Y-65878212D01*
X28587994Y-65676733D01*
X28174747Y-65389519D01*
X27825154Y-65027505D01*
X27552535Y-64604482D01*
X27367271Y-64136559D01*
X27276425Y-63641576D01*
X27283450Y-63138365D01*
X27388085Y-62646102D01*
X27586338Y-62183541D01*
X27870663Y-61768295D01*
X28230226Y-61416185D01*
X28651337Y-61140618D01*
X29117950Y-60952094D01*
X29612291Y-60857794D01*
X30115543Y-60861307D01*
X30115543Y-60861307D01*
G37*
G36*
X33474957Y-62549633D02*
X33482474Y-62549685D01*
X33652412Y-62568747D01*
X33815412Y-62620454D01*
X33965264Y-62702836D01*
X34096261Y-62812755D01*
X34203413Y-62946025D01*
X34282638Y-63097570D01*
X34330920Y-63261616D01*
X34330924Y-63261658D01*
X34330925Y-63261662D01*
X34345306Y-63419683D01*
X34346419Y-63431917D01*
X34328544Y-63601984D01*
X34277976Y-63765341D01*
X34196643Y-63915765D01*
X34087640Y-64047526D01*
X33955122Y-64155606D01*
X33804134Y-64235887D01*
X33640428Y-64285313D01*
X33470240Y-64302000D01*
X33461724Y-64302000D01*
X33457043Y-64301967D01*
X33449526Y-64301915D01*
X33279588Y-64282853D01*
X33116588Y-64231146D01*
X32966736Y-64148764D01*
X32835739Y-64038845D01*
X32728587Y-63905575D01*
X32649362Y-63754030D01*
X32601080Y-63589984D01*
X32601076Y-63589942D01*
X32601075Y-63589938D01*
X32585581Y-63419685D01*
X32603451Y-63249663D01*
X32603456Y-63249616D01*
X32654024Y-63086259D01*
X32735357Y-62935835D01*
X32844360Y-62804074D01*
X32976878Y-62695994D01*
X33127866Y-62615713D01*
X33291572Y-62566287D01*
X33461760Y-62549600D01*
X33470276Y-62549600D01*
X33474957Y-62549633D01*
X33474957Y-62549633D01*
G37*
G36*
X38221627Y-51851979D02*
X38908625Y-51993000D01*
X39555161Y-52264779D01*
X40136589Y-52656957D01*
X40630769Y-53154599D01*
X41018877Y-53738749D01*
X41286133Y-54387160D01*
X41422286Y-55074786D01*
X41422286Y-55074791D01*
X41422354Y-55075135D01*
X41411168Y-55876185D01*
X41411092Y-55876519D01*
X41411092Y-55876532D01*
X41255791Y-56560090D01*
X40970537Y-57200782D01*
X40566266Y-57773870D01*
X40058383Y-58257522D01*
X39466230Y-58633314D01*
X38812365Y-58886931D01*
X38121692Y-59008716D01*
X37420515Y-58994027D01*
X36735544Y-58843427D01*
X36092871Y-58562650D01*
X35516979Y-58162394D01*
X35029794Y-57657900D01*
X34649878Y-57068384D01*
X34391699Y-56416300D01*
X34265097Y-55726499D01*
X34274888Y-55025237D01*
X34420704Y-54339231D01*
X34696985Y-53694616D01*
X35093215Y-53115938D01*
X35594294Y-52625245D01*
X36181143Y-52241222D01*
X36831405Y-51978498D01*
X37520309Y-51847084D01*
X38221627Y-51851979D01*
X38221627Y-51851979D01*
G37*
G36*
X30221627Y-51851979D02*
X30908625Y-51993000D01*
X31555161Y-52264779D01*
X32136589Y-52656957D01*
X32630769Y-53154599D01*
X33018877Y-53738749D01*
X33286133Y-54387160D01*
X33422286Y-55074786D01*
X33422286Y-55074791D01*
X33422354Y-55075135D01*
X33411168Y-55876185D01*
X33411092Y-55876519D01*
X33411092Y-55876532D01*
X33255791Y-56560090D01*
X32970537Y-57200782D01*
X32566266Y-57773870D01*
X32058383Y-58257522D01*
X31466230Y-58633314D01*
X30812365Y-58886931D01*
X30121692Y-59008716D01*
X29420515Y-58994027D01*
X28735544Y-58843427D01*
X28092871Y-58562650D01*
X27516979Y-58162394D01*
X27029794Y-57657900D01*
X26649878Y-57068384D01*
X26391699Y-56416300D01*
X26265097Y-55726499D01*
X26274888Y-55025237D01*
X26420704Y-54339231D01*
X26696985Y-53694616D01*
X27093215Y-53115938D01*
X27594294Y-52625245D01*
X28181143Y-52241222D01*
X28831405Y-51978498D01*
X29520309Y-51847084D01*
X30221627Y-51851979D01*
X30221627Y-51851979D01*
G37*
G36*
X22221627Y-51851979D02*
X22908625Y-51993000D01*
X23555161Y-52264779D01*
X24136589Y-52656957D01*
X24630769Y-53154599D01*
X25018877Y-53738749D01*
X25286133Y-54387160D01*
X25422286Y-55074786D01*
X25422286Y-55074791D01*
X25422354Y-55075135D01*
X25411168Y-55876185D01*
X25411092Y-55876519D01*
X25411092Y-55876532D01*
X25255791Y-56560090D01*
X24970537Y-57200782D01*
X24566266Y-57773870D01*
X24058383Y-58257522D01*
X23466230Y-58633314D01*
X22812365Y-58886931D01*
X22121692Y-59008716D01*
X21420515Y-58994027D01*
X20735544Y-58843427D01*
X20092871Y-58562650D01*
X19516979Y-58162394D01*
X19029794Y-57657900D01*
X18649878Y-57068384D01*
X18391699Y-56416300D01*
X18265097Y-55726499D01*
X18274888Y-55025237D01*
X18420704Y-54339231D01*
X18696985Y-53694616D01*
X19093215Y-53115938D01*
X19594294Y-52625245D01*
X20181143Y-52241222D01*
X20831405Y-51978498D01*
X21520309Y-51847084D01*
X22221627Y-51851979D01*
X22221627Y-51851979D01*
G37*
M02*
