%TF.GenerationSoftware,KiCad,Pcbnew,4.0.5-e0-6337~49~ubuntu16.04.1*%
%TF.CreationDate,2017-01-18T20:32:05-08:00*%
%TF.ProjectId,3x4-ATtiny85-8DIP-Breakout,3378342D415474696E7938352D384449,1.0*%
%TF.FileFunction,Legend,Top*%
%FSLAX46Y46*%
G04 Gerber Fmt 4.6, Leading zero omitted, Abs format (unit mm)*
G04 Created by KiCad (PCBNEW 4.0.5-e0-6337~49~ubuntu16.04.1) date Wed Jan 18 20:32:05 2017*
%MOMM*%
%LPD*%
G01*
G04 APERTURE LIST*
%ADD10C,0.350000*%
%ADD11C,0.400000*%
%ADD12C,0.406400*%
%ADD13C,0.150000*%
%ADD14C,0.200000*%
G04 APERTURE END LIST*
D10*
D11*
X148640800Y-96113600D02*
X148640800Y-87934800D01*
X148488400Y-98602800D02*
X151688800Y-96774000D01*
X148234400Y-101244400D02*
X150977600Y-103073200D01*
X148183600Y-108102400D02*
X151841200Y-111150400D01*
X148183600Y-103886000D02*
X148183600Y-108102400D01*
X140563600Y-103835200D02*
X140563600Y-112064800D01*
X140563600Y-101041200D02*
X138379200Y-102971600D01*
X140563600Y-98602800D02*
X137566400Y-97180400D01*
X140563600Y-92202000D02*
X140563600Y-96316800D01*
X136652000Y-88341200D02*
X140563600Y-92151200D01*
D12*
X136652000Y-112166400D02*
X144902000Y-112166400D01*
D13*
X140787000Y-93871400D02*
X140787000Y-95141400D01*
X148137000Y-93871400D02*
X148137000Y-95141400D01*
X148137000Y-106081400D02*
X148137000Y-104811400D01*
X140787000Y-106081400D02*
X140787000Y-104811400D01*
X140787000Y-93871400D02*
X148137000Y-93871400D01*
X140787000Y-106081400D02*
X148137000Y-106081400D01*
D12*
X144652000Y-87916400D02*
X152902000Y-87916400D01*
D14*
X141303771Y-92960800D02*
X141875200Y-92960800D01*
X141189486Y-93303657D02*
X141589486Y-92103657D01*
X141989486Y-93303657D01*
X142218057Y-92103657D02*
X142903771Y-92103657D01*
X142560914Y-93303657D02*
X142560914Y-92103657D01*
X143303771Y-93303657D02*
X143303771Y-92503657D01*
X143303771Y-92103657D02*
X143246628Y-92160800D01*
X143303771Y-92217943D01*
X143360914Y-92160800D01*
X143303771Y-92103657D01*
X143303771Y-92217943D01*
X143875200Y-92503657D02*
X143875200Y-93303657D01*
X143875200Y-92617943D02*
X143932343Y-92560800D01*
X144046629Y-92503657D01*
X144218057Y-92503657D01*
X144332343Y-92560800D01*
X144389486Y-92675086D01*
X144389486Y-93303657D01*
X144846629Y-92503657D02*
X145132343Y-93303657D01*
X145418057Y-92503657D02*
X145132343Y-93303657D01*
X145018057Y-93589371D01*
X144960914Y-93646514D01*
X144846629Y-93703657D01*
X146046629Y-92617943D02*
X145932343Y-92560800D01*
X145875200Y-92503657D01*
X145818057Y-92389371D01*
X145818057Y-92332229D01*
X145875200Y-92217943D01*
X145932343Y-92160800D01*
X146046629Y-92103657D01*
X146275200Y-92103657D01*
X146389486Y-92160800D01*
X146446629Y-92217943D01*
X146503772Y-92332229D01*
X146503772Y-92389371D01*
X146446629Y-92503657D01*
X146389486Y-92560800D01*
X146275200Y-92617943D01*
X146046629Y-92617943D01*
X145932343Y-92675086D01*
X145875200Y-92732229D01*
X145818057Y-92846514D01*
X145818057Y-93075086D01*
X145875200Y-93189371D01*
X145932343Y-93246514D01*
X146046629Y-93303657D01*
X146275200Y-93303657D01*
X146389486Y-93246514D01*
X146446629Y-93189371D01*
X146503772Y-93075086D01*
X146503772Y-92846514D01*
X146446629Y-92732229D01*
X146389486Y-92675086D01*
X146275200Y-92617943D01*
X147589486Y-92103657D02*
X147018057Y-92103657D01*
X146960914Y-92675086D01*
X147018057Y-92617943D01*
X147132343Y-92560800D01*
X147418057Y-92560800D01*
X147532343Y-92617943D01*
X147589486Y-92675086D01*
X147646629Y-92789371D01*
X147646629Y-93075086D01*
X147589486Y-93189371D01*
X147532343Y-93246514D01*
X147418057Y-93303657D01*
X147132343Y-93303657D01*
X147018057Y-93246514D01*
X146960914Y-93189371D01*
D13*
X134245315Y-91943181D02*
X133673886Y-91943181D01*
X133959600Y-91943181D02*
X133959600Y-90943181D01*
X133864362Y-91086038D01*
X133769124Y-91181276D01*
X133673886Y-91228895D01*
X148647162Y-85936152D02*
X148551924Y-85888533D01*
X148504305Y-85840914D01*
X148456686Y-85745676D01*
X148456686Y-85698057D01*
X148504305Y-85602819D01*
X148551924Y-85555200D01*
X148647162Y-85507581D01*
X148837639Y-85507581D01*
X148932877Y-85555200D01*
X148980496Y-85602819D01*
X149028115Y-85698057D01*
X149028115Y-85745676D01*
X148980496Y-85840914D01*
X148932877Y-85888533D01*
X148837639Y-85936152D01*
X148647162Y-85936152D01*
X148551924Y-85983771D01*
X148504305Y-86031390D01*
X148456686Y-86126629D01*
X148456686Y-86317105D01*
X148504305Y-86412343D01*
X148551924Y-86459962D01*
X148647162Y-86507581D01*
X148837639Y-86507581D01*
X148932877Y-86459962D01*
X148980496Y-86412343D01*
X149028115Y-86317105D01*
X149028115Y-86126629D01*
X148980496Y-86031390D01*
X148932877Y-85983771D01*
X148837639Y-85936152D01*
X155114667Y-92060781D02*
X155781334Y-92060781D01*
X155352762Y-93060781D01*
X155689277Y-99985581D02*
X155498800Y-99985581D01*
X155403562Y-100033200D01*
X155355943Y-100080819D01*
X155260705Y-100223676D01*
X155213086Y-100414152D01*
X155213086Y-100795105D01*
X155260705Y-100890343D01*
X155308324Y-100937962D01*
X155403562Y-100985581D01*
X155594039Y-100985581D01*
X155689277Y-100937962D01*
X155736896Y-100890343D01*
X155784515Y-100795105D01*
X155784515Y-100557010D01*
X155736896Y-100461771D01*
X155689277Y-100414152D01*
X155594039Y-100366533D01*
X155403562Y-100366533D01*
X155308324Y-100414152D01*
X155260705Y-100461771D01*
X155213086Y-100557010D01*
X155838496Y-108316781D02*
X155362305Y-108316781D01*
X155314686Y-108792971D01*
X155362305Y-108745352D01*
X155457543Y-108697733D01*
X155695639Y-108697733D01*
X155790877Y-108745352D01*
X155838496Y-108792971D01*
X155886115Y-108888210D01*
X155886115Y-109126305D01*
X155838496Y-109221543D01*
X155790877Y-109269162D01*
X155695639Y-109316781D01*
X155457543Y-109316781D01*
X155362305Y-109269162D01*
X155314686Y-109221543D01*
X140842477Y-113679314D02*
X140842477Y-114345981D01*
X140604381Y-113298362D02*
X140366286Y-114012648D01*
X140985334Y-114012648D01*
X133572286Y-99471219D02*
X133619905Y-99423600D01*
X133715143Y-99375981D01*
X133953239Y-99375981D01*
X134048477Y-99423600D01*
X134096096Y-99471219D01*
X134143715Y-99566457D01*
X134143715Y-99661695D01*
X134096096Y-99804552D01*
X133524667Y-100375981D01*
X134143715Y-100375981D01*
X133524667Y-107351581D02*
X134143715Y-107351581D01*
X133810381Y-107732533D01*
X133953239Y-107732533D01*
X134048477Y-107780152D01*
X134096096Y-107827771D01*
X134143715Y-107923010D01*
X134143715Y-108161105D01*
X134096096Y-108256343D01*
X134048477Y-108303962D01*
X133953239Y-108351581D01*
X133667524Y-108351581D01*
X133572286Y-108303962D01*
X133524667Y-108256343D01*
M02*
