%TF.GenerationSoftware,KiCad,Pcbnew,4.0.5-e0-6337~49~ubuntu16.04.1*%
%TF.CreationDate,2017-04-22T09:14:07-07:00*%
%TF.ProjectId,3x4-ATtiny85-8DIP-Breakout,3378342D415474696E7938352D384449,v1.1*%
%TF.FileFunction,Legend,Top*%
%FSLAX46Y46*%
G04 Gerber Fmt 4.6, Leading zero omitted, Abs format (unit mm)*
G04 Created by KiCad (PCBNEW 4.0.5-e0-6337~49~ubuntu16.04.1) date Sat Apr 22 09:14:07 2017*
%MOMM*%
%LPD*%
G01*
G04 APERTURE LIST*
%ADD10C,0.350000*%
%ADD11C,7.400000*%
%ADD12C,0.150000*%
%ADD13C,0.406400*%
%ADD14C,0.200000*%
%ADD15O,1.752400X1.752400*%
%ADD16C,5.132400*%
G04 APERTURE END LIST*
D10*
D11*
X4269200Y-79146400D02*
X12519200Y-79146400D01*
D12*
X8531200Y-60851400D02*
X8531200Y-62121400D01*
X15881200Y-60851400D02*
X15881200Y-62121400D01*
X15881200Y-73061400D02*
X15881200Y-71791400D01*
X8531200Y-73061400D02*
X8531200Y-71791400D01*
X8531200Y-60851400D02*
X15881200Y-60851400D01*
X8531200Y-73061400D02*
X15881200Y-73061400D01*
D13*
X12269200Y-54896400D02*
X20519200Y-54896400D01*
D14*
X8920971Y-59940800D02*
X9492400Y-59940800D01*
X8806686Y-60283657D02*
X9206686Y-59083657D01*
X9606686Y-60283657D01*
X9835257Y-59083657D02*
X10520971Y-59083657D01*
X10178114Y-60283657D02*
X10178114Y-59083657D01*
X10920971Y-60283657D02*
X10920971Y-59483657D01*
X10920971Y-59083657D02*
X10863828Y-59140800D01*
X10920971Y-59197943D01*
X10978114Y-59140800D01*
X10920971Y-59083657D01*
X10920971Y-59197943D01*
X11492400Y-59483657D02*
X11492400Y-60283657D01*
X11492400Y-59597943D02*
X11549543Y-59540800D01*
X11663829Y-59483657D01*
X11835257Y-59483657D01*
X11949543Y-59540800D01*
X12006686Y-59655086D01*
X12006686Y-60283657D01*
X12463829Y-59483657D02*
X12749543Y-60283657D01*
X13035257Y-59483657D02*
X12749543Y-60283657D01*
X12635257Y-60569371D01*
X12578114Y-60626514D01*
X12463829Y-60683657D01*
X13663829Y-59597943D02*
X13549543Y-59540800D01*
X13492400Y-59483657D01*
X13435257Y-59369371D01*
X13435257Y-59312229D01*
X13492400Y-59197943D01*
X13549543Y-59140800D01*
X13663829Y-59083657D01*
X13892400Y-59083657D01*
X14006686Y-59140800D01*
X14063829Y-59197943D01*
X14120972Y-59312229D01*
X14120972Y-59369371D01*
X14063829Y-59483657D01*
X14006686Y-59540800D01*
X13892400Y-59597943D01*
X13663829Y-59597943D01*
X13549543Y-59655086D01*
X13492400Y-59712229D01*
X13435257Y-59826514D01*
X13435257Y-60055086D01*
X13492400Y-60169371D01*
X13549543Y-60226514D01*
X13663829Y-60283657D01*
X13892400Y-60283657D01*
X14006686Y-60226514D01*
X14063829Y-60169371D01*
X14120972Y-60055086D01*
X14120972Y-59826514D01*
X14063829Y-59712229D01*
X14006686Y-59655086D01*
X13892400Y-59597943D01*
X15206686Y-59083657D02*
X14635257Y-59083657D01*
X14578114Y-59655086D01*
X14635257Y-59597943D01*
X14749543Y-59540800D01*
X15035257Y-59540800D01*
X15149543Y-59597943D01*
X15206686Y-59655086D01*
X15263829Y-59769371D01*
X15263829Y-60055086D01*
X15206686Y-60169371D01*
X15149543Y-60226514D01*
X15035257Y-60283657D01*
X14749543Y-60283657D01*
X14635257Y-60226514D01*
X14578114Y-60169371D01*
D12*
X14746867Y-53452781D02*
X15080200Y-54452781D01*
X15413534Y-53452781D01*
X16318296Y-54357543D02*
X16270677Y-54405162D01*
X16127820Y-54452781D01*
X16032582Y-54452781D01*
X15889724Y-54405162D01*
X15794486Y-54309924D01*
X15746867Y-54214686D01*
X15699248Y-54024210D01*
X15699248Y-53881352D01*
X15746867Y-53690876D01*
X15794486Y-53595638D01*
X15889724Y-53500400D01*
X16032582Y-53452781D01*
X16127820Y-53452781D01*
X16270677Y-53500400D01*
X16318296Y-53548019D01*
X17318296Y-54357543D02*
X17270677Y-54405162D01*
X17127820Y-54452781D01*
X17032582Y-54452781D01*
X16889724Y-54405162D01*
X16794486Y-54309924D01*
X16746867Y-54214686D01*
X16699248Y-54024210D01*
X16699248Y-53881352D01*
X16746867Y-53690876D01*
X16794486Y-53595638D01*
X16889724Y-53500400D01*
X17032582Y-53452781D01*
X17127820Y-53452781D01*
X17270677Y-53500400D01*
X17318296Y-53548019D01*
X1387867Y-65382496D02*
X1387867Y-64906305D01*
X1673581Y-65477734D02*
X673581Y-65144401D01*
X1673581Y-64811067D01*
X673581Y-64572972D02*
X673581Y-63953924D01*
X1054533Y-64287258D01*
X1054533Y-64144400D01*
X1102152Y-64049162D01*
X1149771Y-64001543D01*
X1245010Y-63953924D01*
X1483105Y-63953924D01*
X1578343Y-64001543D01*
X1625962Y-64049162D01*
X1673581Y-64144400D01*
X1673581Y-64430115D01*
X1625962Y-64525353D01*
X1578343Y-64572972D01*
X2054533Y-62477733D02*
X2006914Y-62525353D01*
X1864057Y-62620591D01*
X1768819Y-62668210D01*
X1625962Y-62715829D01*
X1387867Y-62763448D01*
X1197390Y-62763448D01*
X959295Y-62715829D01*
X816438Y-62668210D01*
X721200Y-62620591D01*
X578343Y-62525353D01*
X530724Y-62477733D01*
X673581Y-62192019D02*
X673581Y-61572971D01*
X1054533Y-61906305D01*
X1054533Y-61763447D01*
X1102152Y-61668209D01*
X1149771Y-61620590D01*
X1245010Y-61572971D01*
X1483105Y-61572971D01*
X1578343Y-61620590D01*
X1625962Y-61668209D01*
X1673581Y-61763447D01*
X1673581Y-62049162D01*
X1625962Y-62144400D01*
X1578343Y-62192019D01*
X2054533Y-61239638D02*
X2006914Y-61192019D01*
X1864057Y-61096781D01*
X1768819Y-61049162D01*
X1625962Y-61001543D01*
X1387867Y-60953924D01*
X1197390Y-60953924D01*
X959295Y-61001543D01*
X816438Y-61049162D01*
X721200Y-61096781D01*
X578343Y-61192019D01*
X530724Y-61239638D01*
X2816819Y-58897781D02*
X2483485Y-58421590D01*
X2245390Y-58897781D02*
X2245390Y-57897781D01*
X2626343Y-57897781D01*
X2721581Y-57945400D01*
X2769200Y-57993019D01*
X2816819Y-58088257D01*
X2816819Y-58231114D01*
X2769200Y-58326352D01*
X2721581Y-58373971D01*
X2626343Y-58421590D01*
X2245390Y-58421590D01*
X3245390Y-58373971D02*
X3578724Y-58373971D01*
X3721581Y-58897781D02*
X3245390Y-58897781D01*
X3245390Y-57897781D01*
X3721581Y-57897781D01*
X4102533Y-58850162D02*
X4245390Y-58897781D01*
X4483486Y-58897781D01*
X4578724Y-58850162D01*
X4626343Y-58802543D01*
X4673962Y-58707305D01*
X4673962Y-58612067D01*
X4626343Y-58516829D01*
X4578724Y-58469210D01*
X4483486Y-58421590D01*
X4293009Y-58373971D01*
X4197771Y-58326352D01*
X4150152Y-58278733D01*
X4102533Y-58183495D01*
X4102533Y-58088257D01*
X4150152Y-57993019D01*
X4197771Y-57945400D01*
X4293009Y-57897781D01*
X4531105Y-57897781D01*
X4673962Y-57945400D01*
X5102533Y-58373971D02*
X5435867Y-58373971D01*
X5578724Y-58897781D02*
X5102533Y-58897781D01*
X5102533Y-57897781D01*
X5578724Y-57897781D01*
X5864438Y-57897781D02*
X6435867Y-57897781D01*
X6150152Y-58897781D02*
X6150152Y-57897781D01*
X1387867Y-73129496D02*
X1387867Y-72653305D01*
X1673581Y-73224734D02*
X673581Y-72891401D01*
X1673581Y-72558067D01*
X768819Y-72272353D02*
X721200Y-72224734D01*
X673581Y-72129496D01*
X673581Y-71891400D01*
X721200Y-71796162D01*
X768819Y-71748543D01*
X864057Y-71700924D01*
X959295Y-71700924D01*
X1102152Y-71748543D01*
X1673581Y-72319972D01*
X1673581Y-71700924D01*
X2054533Y-70224733D02*
X2006914Y-70272353D01*
X1864057Y-70367591D01*
X1768819Y-70415210D01*
X1625962Y-70462829D01*
X1387867Y-70510448D01*
X1197390Y-70510448D01*
X959295Y-70462829D01*
X816438Y-70415210D01*
X721200Y-70367591D01*
X578343Y-70272353D01*
X530724Y-70224733D01*
X1006914Y-69415209D02*
X1673581Y-69415209D01*
X625962Y-69653305D02*
X1340248Y-69891400D01*
X1340248Y-69272352D01*
X2054533Y-68986638D02*
X2006914Y-68939019D01*
X1864057Y-68843781D01*
X1768819Y-68796162D01*
X1625962Y-68748543D01*
X1387867Y-68700924D01*
X1197390Y-68700924D01*
X959295Y-68748543D01*
X816438Y-68796162D01*
X721200Y-68843781D01*
X578343Y-68939019D01*
X530724Y-68986638D01*
X23485867Y-65255496D02*
X23485867Y-64779305D01*
X23771581Y-65350734D02*
X22771581Y-65017401D01*
X23771581Y-64684067D01*
X23771581Y-63826924D02*
X23771581Y-64398353D01*
X23771581Y-64112639D02*
X22771581Y-64112639D01*
X22914438Y-64207877D01*
X23009676Y-64303115D01*
X23057295Y-64398353D01*
X24152533Y-62350733D02*
X24104914Y-62398353D01*
X23962057Y-62493591D01*
X23866819Y-62541210D01*
X23723962Y-62588829D01*
X23485867Y-62636448D01*
X23295390Y-62636448D01*
X23057295Y-62588829D01*
X22914438Y-62541210D01*
X22819200Y-62493591D01*
X22676343Y-62398353D01*
X22628724Y-62350733D01*
X22866819Y-62017400D02*
X22819200Y-61969781D01*
X22771581Y-61874543D01*
X22771581Y-61636447D01*
X22819200Y-61541209D01*
X22866819Y-61493590D01*
X22962057Y-61445971D01*
X23057295Y-61445971D01*
X23200152Y-61493590D01*
X23771581Y-62065019D01*
X23771581Y-61445971D01*
X24152533Y-61112638D02*
X24104914Y-61065019D01*
X23962057Y-60969781D01*
X23866819Y-60922162D01*
X23723962Y-60874543D01*
X23485867Y-60826924D01*
X23295390Y-60826924D01*
X23057295Y-60874543D01*
X22914438Y-60922162D01*
X22819200Y-60969781D01*
X22676343Y-61065019D01*
X22628724Y-61112638D01*
X23771581Y-74073972D02*
X22771581Y-74073972D01*
X22771581Y-73693019D01*
X22819200Y-73597781D01*
X22866819Y-73550162D01*
X22962057Y-73502543D01*
X23104914Y-73502543D01*
X23200152Y-73550162D01*
X23247771Y-73597781D01*
X23295390Y-73693019D01*
X23295390Y-74073972D01*
X22771581Y-73169210D02*
X23771581Y-72931115D01*
X23057295Y-72740638D01*
X23771581Y-72550162D01*
X22771581Y-72312067D01*
X23771581Y-71931115D02*
X22771581Y-71931115D01*
X23485867Y-71597781D01*
X22771581Y-71264448D01*
X23771581Y-71264448D01*
X24152533Y-69740638D02*
X24104914Y-69788258D01*
X23962057Y-69883496D01*
X23866819Y-69931115D01*
X23723962Y-69978734D01*
X23485867Y-70026353D01*
X23295390Y-70026353D01*
X23057295Y-69978734D01*
X22914438Y-69931115D01*
X22819200Y-69883496D01*
X22676343Y-69788258D01*
X22628724Y-69740638D01*
X23771581Y-68835876D02*
X23771581Y-69407305D01*
X23771581Y-69121591D02*
X22771581Y-69121591D01*
X22914438Y-69216829D01*
X23009676Y-69312067D01*
X23057295Y-69407305D01*
X24152533Y-68502543D02*
X24104914Y-68454924D01*
X23962057Y-68359686D01*
X23866819Y-68312067D01*
X23723962Y-68264448D01*
X23485867Y-68216829D01*
X23295390Y-68216829D01*
X23057295Y-68264448D01*
X22914438Y-68312067D01*
X22819200Y-68359686D01*
X22676343Y-68454924D01*
X22628724Y-68502543D01*
X17088438Y-76550781D02*
X17088438Y-75550781D01*
X17469391Y-75550781D01*
X17564629Y-75598400D01*
X17612248Y-75646019D01*
X17659867Y-75741257D01*
X17659867Y-75884114D01*
X17612248Y-75979352D01*
X17564629Y-76026971D01*
X17469391Y-76074590D01*
X17088438Y-76074590D01*
X17993200Y-75550781D02*
X18231295Y-76550781D01*
X18421772Y-75836495D01*
X18612248Y-76550781D01*
X18850343Y-75550781D01*
X19231295Y-76550781D02*
X19231295Y-75550781D01*
X19564629Y-76265067D01*
X19897962Y-75550781D01*
X19897962Y-76550781D01*
X17239153Y-82646733D02*
X17191533Y-82599114D01*
X17096295Y-82456257D01*
X17048676Y-82361019D01*
X17001057Y-82218162D01*
X16953438Y-81980067D01*
X16953438Y-81789590D01*
X17001057Y-81551495D01*
X17048676Y-81408638D01*
X17096295Y-81313400D01*
X17191533Y-81170543D01*
X17239153Y-81122924D01*
X17810581Y-81265781D02*
X17905820Y-81265781D01*
X18001058Y-81313400D01*
X18048677Y-81361019D01*
X18096296Y-81456257D01*
X18143915Y-81646733D01*
X18143915Y-81884829D01*
X18096296Y-82075305D01*
X18048677Y-82170543D01*
X18001058Y-82218162D01*
X17905820Y-82265781D01*
X17810581Y-82265781D01*
X17715343Y-82218162D01*
X17667724Y-82170543D01*
X17620105Y-82075305D01*
X17572486Y-81884829D01*
X17572486Y-81646733D01*
X17620105Y-81456257D01*
X17667724Y-81361019D01*
X17715343Y-81313400D01*
X17810581Y-81265781D01*
X18477248Y-82646733D02*
X18524867Y-82599114D01*
X18620105Y-82456257D01*
X18667724Y-82361019D01*
X18715343Y-82218162D01*
X18762962Y-81980067D01*
X18762962Y-81789590D01*
X18715343Y-81551495D01*
X18667724Y-81408638D01*
X18620105Y-81313400D01*
X18524867Y-81170543D01*
X18477248Y-81122924D01*
%LPC*%
D15*
X8396200Y-63146400D03*
X8396200Y-65686400D03*
X8396200Y-68226400D03*
X8396200Y-70766400D03*
X16016200Y-70766400D03*
X16016200Y-68226400D03*
X16016200Y-65686400D03*
X16016200Y-63146400D03*
D16*
X12396200Y-63146400D03*
X12396200Y-71146400D03*
M02*
