M48
;DRILL file {KiCad 4.0.5-e0-6337~49~ubuntu16.04.1} date Wed Jan 18 20:32:05 2017
;FORMAT={-:-/ absolute / metric / decimal}
FMAT,2
METRIC,TZ
T1C0.800
T2C4.980
T3C4.980
%
G90
G05
M71
T1
X140.652Y-96.166
X140.652Y-98.706
X140.652Y-101.246
X140.652Y-103.786
X148.272Y-96.166
X148.272Y-98.706
X148.272Y-101.246
X148.272Y-103.786
T2
X136.652Y-88.166
X136.652Y-96.166
X136.652Y-104.166
X136.652Y-112.166
X144.652Y-88.166
X144.652Y-112.166
X152.652Y-88.166
X152.652Y-96.166
X152.652Y-104.166
X152.652Y-112.166
T3
X144.652Y-96.166
X144.652Y-104.166
T0
M30
