M48
;DRILL file {KiCad 4.0.7-e2-6376~58~ubuntu16.04.1} date Sat Oct  7 13:13:07 2017
;FORMAT={-:-/ absolute / metric / decimal}
FMAT,2
METRIC,TZ
T1C0.800
T2C4.980
T3C4.980
%
G90
G05
M71
T1
X8.396Y-63.146
X8.396Y-65.686
X8.396Y-68.226
X8.396Y-70.766
X16.016Y-63.146
X16.016Y-65.686
X16.016Y-68.226
X16.016Y-70.766
T2
X4.269Y-55.146
X4.269Y-63.146
X4.269Y-71.146
X4.269Y-79.146
X12.269Y-55.146
X12.269Y-79.146
X20.269Y-55.146
X20.269Y-63.146
X20.269Y-71.146
X20.269Y-79.146
T3
X12.396Y-63.146
X12.396Y-71.146
T0
M30
