G04 This is an RS-274x file exported by *
G04 gerbv version 2.6.0 *
G04 More information is available about gerbv at *
G04 http://gerbv.gpleda.org/ *
G04 --End of header info--*
%MOIN*%
%FSLAX34Y34*%
%IPPOS*%
G04 --Define apertures--*
%ADD10C,0.0138*%
%ADD11C,0.0039*%
%ADD12C,0.0020*%
%ADD13C,0.0059*%
G04 --Start main section--*
G54D11*
G01X0004481Y-023910D02*
G75*
G03X0005481Y-023910I0000500J0000000D01*
G01X0006481Y-023910D02*
G01X0003231Y-023910D01*
G01X0006481Y-028910D02*
G01X0006481Y-023910D01*
G01X0003231Y-028910D02*
G01X0006481Y-028910D01*
G01X0003231Y-023910D02*
G01X0003231Y-028910D01*
G54D12*
G01X0001681Y-032656D02*
G01X0007980Y-032656D01*
G01X0000185Y-021711D02*
G01X0000185Y-031160D01*
G01X0009476Y-021711D02*
G01X0009476Y-031160D01*
G01X0001681Y-020215D02*
G01X0007980Y-020215D01*
G01X0001681Y-020215D02*
G75*
G03X0000185Y-021711I0000000J-001496D01*
G01X0000185Y-031160D02*
G75*
G03X0001681Y-032656I0001496J0000000D01*
G01X0007980Y-032656D02*
G75*
G03X0009476Y-031160I0000000J0001496D01*
G01X0009476Y-021711D02*
G75*
G03X0007980Y-020215I-001496J0000000D01*
G54D13*
G01X0004679Y-026220D02*
G01X0004679Y-026539D01*
G01X0004679Y-026539D02*
G01X0004698Y-026576D01*
G01X0004698Y-026576D02*
G01X0004716Y-026595D01*
G01X0004716Y-026595D02*
G01X0004754Y-026614D01*
G01X0004754Y-026614D02*
G01X0004829Y-026614D01*
G01X0004829Y-026614D02*
G01X0004866Y-026595D01*
G01X0004866Y-026595D02*
G01X0004885Y-026576D01*
G01X0004885Y-026576D02*
G01X0004904Y-026539D01*
G01X0004904Y-026539D02*
G01X0004904Y-026220D01*
G01X0005298Y-026614D02*
G01X0005073Y-026614D01*
G01X0005185Y-026614D02*
G01X0005185Y-026220D01*
G01X0005185Y-026220D02*
G01X0005148Y-026276D01*
G01X0005148Y-026276D02*
G01X0005110Y-026314D01*
G01X0005110Y-026314D02*
G01X0005073Y-026332D01*
G01X0000000Y0000000D02*
G54D12*
G01X0001681Y-032656D02*
G01X0007980Y-032656D01*
G01X0000185Y-021711D02*
G01X0000185Y-031160D01*
G01X0009476Y-021711D02*
G01X0009476Y-031160D01*
G01X0001681Y-020215D02*
G01X0007980Y-020215D01*
G01X0001681Y-020215D02*
G75*
G03X0000185Y-021711I0000000J-001496D01*
G01X0000185Y-031160D02*
G75*
G03X0001681Y-032656I0001496J0000000D01*
G01X0007980Y-032656D02*
G75*
G03X0009476Y-031160I0000000J0001496D01*
G01X0009476Y-021711D02*
G75*
G03X0007980Y-020215I-001496J0000000D01*
M02*
