G04 #@! TF.FileFunction,Profile,NP*
%FSLAX46Y46*%
G04 Gerber Fmt 4.6, Leading zero omitted, Abs format (unit mm)*
G04 Created by KiCad (PCBNEW (2015-08-15 BZR 6092)-product) date 2/28/2016 9:25:34 PM*
%MOMM*%
G01*
G04 APERTURE LIST*
%ADD10C,0.100000*%
G04 APERTURE END LIST*
D10*
X168000000Y-81000000D02*
X168000000Y-80000000D01*
X168000000Y-88000000D02*
X168000000Y-87000000D01*
X162121320Y-84000000D02*
G75*
G03X162121320Y-84000000I-2121320J0D01*
G01*
X144000000Y-88000000D02*
X144000000Y-87000000D01*
X144000000Y-81000000D02*
X144000000Y-80000000D01*
X163000000Y-60000000D02*
X164000000Y-60000000D01*
X156000000Y-60000000D02*
X157000000Y-60000000D01*
X148000000Y-60000000D02*
X156000000Y-60000000D01*
X144000000Y-104000000D02*
X144000000Y-88000000D01*
X144000000Y-64000000D02*
X144000000Y-80000000D01*
X168000000Y-64000000D02*
X168000000Y-72000000D01*
X148000000Y-60000000D02*
G75*
G03X144000000Y-64000000I0J-4000000D01*
G01*
X168000000Y-64000000D02*
G75*
G03X164000000Y-60000000I-4000000J0D01*
G01*
X155000000Y-101000000D02*
X157000000Y-101000000D01*
X155000000Y-101000000D02*
G75*
G03X152000000Y-104000000I0J-3000000D01*
G01*
X160000000Y-104000000D02*
G75*
G03X157000000Y-101000000I-3000000J0D01*
G01*
X160000000Y-104000000D02*
G75*
G03X164000000Y-108000000I4000000J0D01*
G01*
X148000000Y-108000000D02*
G75*
G03X152000000Y-104000000I0J4000000D01*
G01*
X168000000Y-72000000D02*
X168000000Y-80000000D01*
X168000000Y-104000000D02*
X168000000Y-88000000D01*
X144000000Y-104000000D02*
G75*
G03X148000000Y-108000000I4000000J0D01*
G01*
X164000000Y-108000000D02*
G75*
G03X168000000Y-104000000I0J4000000D01*
G01*
X145500000Y-85500000D02*
G75*
G03X144000000Y-87000000I0J-1500000D01*
G01*
X144000000Y-81000000D02*
G75*
G03X145500000Y-82500000I1500000J0D01*
G01*
X147000000Y-84000000D02*
G75*
G03X145500000Y-82500000I-1500000J0D01*
G01*
X145500000Y-85500000D02*
G75*
G03X147000000Y-84000000I0J1500000D01*
G01*
X166500000Y-82500000D02*
G75*
G03X168000000Y-81000000I0J1500000D01*
G01*
X168000000Y-87000000D02*
G75*
G03X166500000Y-85500000I-1500000J0D01*
G01*
X165000000Y-84000000D02*
G75*
G03X166500000Y-85500000I1500000J0D01*
G01*
X166500000Y-82500000D02*
G75*
G03X165000000Y-84000000I0J-1500000D01*
G01*
X158500000Y-61500000D02*
G75*
G03X157000000Y-60000000I-1500000J0D01*
G01*
X163000000Y-60000000D02*
G75*
G03X161500000Y-61500000I0J-1500000D01*
G01*
X160000000Y-63000000D02*
G75*
G03X161500000Y-61500000I0J1500000D01*
G01*
X158500000Y-61500000D02*
G75*
G03X160000000Y-63000000I1500000J0D01*
G01*
M02*
