M48
;DRILL file {KiCad (2015-08-15 BZR 6092)-product} date 2/28/2016 9:25:32 PM
;FORMAT={-:-/ absolute / inch / decimal}
FMAT,2
INCH,TZ
T1C0.013
T2C0.016
T3C0.031
T4C0.032
T5C0.039
T6C0.192
%
G90
G05
M72
T1
X5.8071Y-3.3071
X5.8471Y-3.3071
X5.8852Y-3.3071
X5.9252Y-3.3071
X5.9652Y-3.3071
X6.023Y-3.3071
X6.063Y-3.3071
X6.103Y-3.3071
X6.1417Y-3.3071
X6.1817Y-3.3071
X6.2992Y-2.4994
X6.2992Y-2.5394
X6.2992Y-2.5794
X6.2992Y-2.6175
X6.2992Y-2.6575
X6.2992Y-2.6975
X6.2992Y-2.7356
X6.2992Y-2.7756
X6.2992Y-2.8156
X6.2992Y-2.8537
X6.2992Y-2.8937
X6.2992Y-2.9337
X6.2992Y-2.9921
X6.2992Y-3.0506
X6.2992Y-3.0906
X6.2992Y-3.1306
X6.2992Y-3.1687
X6.2992Y-3.2087
X6.397Y-3.3071
X6.437Y-3.3071
X6.477Y-3.3071
T2
X5.7283Y-3.6417
X5.7283Y-3.9173
X5.9941Y-3.3858
X6.5256Y-3.6417
X6.5256Y-3.9272
T3
X5.9193Y-2.9528
X6.0492Y-2.9528
T4
X6.3567Y-2.6846
X6.3567Y-2.9846
X6.5567Y-2.6846
X6.5567Y-2.9846
T5
X5.9843Y-2.5512
X5.9843Y-2.9528
T6
X5.8268Y-2.5197
X5.8268Y-2.8346
X5.8268Y-3.1496
X5.8268Y-3.4646
X5.8268Y-3.7795
X5.8268Y-4.0945
X6.1417Y-2.5197
X6.1417Y-2.8346
X6.1417Y-3.1496
X6.1417Y-3.4646
X6.1417Y-3.7795
X6.4567Y-2.5197
X6.4567Y-2.8346
X6.4567Y-3.1496
X6.4567Y-3.4646
X6.4567Y-3.7795
X6.4567Y-4.0945
T0
M30
