%TF.GenerationSoftware,KiCad,Pcbnew,4.0.5-e0-6337~49~ubuntu16.04.1*%
%TF.CreationDate,2017-02-13T22:45:31-08:00*%
%TF.ProjectId,1x3-Button-Momentary,3178332D427574746F6E2D4D6F6D656E,1.0*%
%TF.FileFunction,Other,Fab,Top*%
%FSLAX46Y46*%
G04 Gerber Fmt 4.6, Leading zero omitted, Abs format (unit mm)*
G04 Created by KiCad (PCBNEW 4.0.5-e0-6337~49~ubuntu16.04.1) date Mon Feb 13 22:45:31 2017*
%MOMM*%
%LPD*%
G01*
G04 APERTURE LIST*
%ADD10C,0.350000*%
%ADD11C,0.050000*%
%ADD12C,0.150000*%
G04 APERTURE END LIST*
D10*
D11*
X40614600Y-47691200D02*
X24614600Y-47691200D01*
X24614600Y-40091200D02*
X40614600Y-40091200D01*
X24614600Y-40091200D02*
G75*
G03X24614600Y-47691200I0J-3800000D01*
G01*
X40614600Y-47691200D02*
G75*
G03X40614600Y-40091200I0J3800000D01*
G01*
D12*
X31331267Y-44445962D02*
X31474124Y-44493581D01*
X31712220Y-44493581D01*
X31807458Y-44445962D01*
X31855077Y-44398343D01*
X31902696Y-44303105D01*
X31902696Y-44207867D01*
X31855077Y-44112629D01*
X31807458Y-44065010D01*
X31712220Y-44017390D01*
X31521743Y-43969771D01*
X31426505Y-43922152D01*
X31378886Y-43874533D01*
X31331267Y-43779295D01*
X31331267Y-43684057D01*
X31378886Y-43588819D01*
X31426505Y-43541200D01*
X31521743Y-43493581D01*
X31759839Y-43493581D01*
X31902696Y-43541200D01*
X32236029Y-43493581D02*
X32474124Y-44493581D01*
X32664601Y-43779295D01*
X32855077Y-44493581D01*
X33093172Y-43493581D01*
X33997934Y-44493581D02*
X33426505Y-44493581D01*
X33712219Y-44493581D02*
X33712219Y-43493581D01*
X33616981Y-43636438D01*
X33521743Y-43731676D01*
X33426505Y-43779295D01*
M02*
