%TF.GenerationSoftware,KiCad,Pcbnew,4.0.5-e0-6337~49~ubuntu16.04.1*%
%TF.CreationDate,2017-05-26T06:48:21-07:00*%
%TF.ProjectId,1x3-Button-Momentary,3178332D427574746F6E2D4D6F6D656E,v1.2*%
%TF.FileFunction,Soldermask,Top*%
%FSLAX46Y46*%
G04 Gerber Fmt 4.6, Leading zero omitted, Abs format (unit mm)*
G04 Created by KiCad (PCBNEW 4.0.5-e0-6337~49~ubuntu16.04.1) date Fri May 26 06:48:21 2017*
%MOMM*%
%LPD*%
G01*
G04 APERTURE LIST*
%ADD10C,0.350000*%
G04 APERTURE END LIST*
D10*
G36*
X24948213Y-40717113D02*
X25558369Y-40842361D01*
X26132591Y-41083741D01*
X26648985Y-41432054D01*
X27087891Y-41874034D01*
X27432588Y-42392847D01*
X27669952Y-42968732D01*
X27790868Y-43579408D01*
X27790868Y-43579414D01*
X27790936Y-43579758D01*
X27781002Y-44291210D01*
X27780925Y-44291548D01*
X27780925Y-44291556D01*
X27643004Y-44898619D01*
X27389655Y-45467649D01*
X27030603Y-45976638D01*
X26579527Y-46406192D01*
X26053608Y-46739950D01*
X25472874Y-46965201D01*
X24859456Y-47073364D01*
X24236706Y-47060319D01*
X23628349Y-46926563D01*
X23057559Y-46677191D01*
X22546084Y-46321707D01*
X22113387Y-45873635D01*
X21775966Y-45350060D01*
X21546664Y-44770912D01*
X21434223Y-44158266D01*
X21442919Y-43535440D01*
X21572426Y-42926164D01*
X21817805Y-42353650D01*
X22169716Y-41839698D01*
X22614749Y-41403889D01*
X23135959Y-41062819D01*
X23713489Y-40829481D01*
X24325338Y-40712765D01*
X24948213Y-40717113D01*
X24948213Y-40717113D01*
G37*
G36*
X40948213Y-40717113D02*
X41558369Y-40842361D01*
X42132591Y-41083741D01*
X42648985Y-41432054D01*
X43087891Y-41874034D01*
X43432588Y-42392847D01*
X43669952Y-42968732D01*
X43790868Y-43579408D01*
X43790868Y-43579414D01*
X43790936Y-43579758D01*
X43781002Y-44291210D01*
X43780925Y-44291548D01*
X43780925Y-44291556D01*
X43643004Y-44898619D01*
X43389655Y-45467649D01*
X43030603Y-45976638D01*
X42579527Y-46406192D01*
X42053608Y-46739950D01*
X41472874Y-46965201D01*
X40859456Y-47073364D01*
X40236706Y-47060319D01*
X39628349Y-46926563D01*
X39057559Y-46677191D01*
X38546084Y-46321707D01*
X38113387Y-45873635D01*
X37775966Y-45350060D01*
X37546664Y-44770912D01*
X37434223Y-44158266D01*
X37442919Y-43535440D01*
X37572426Y-42926164D01*
X37817805Y-42353650D01*
X38169716Y-41839698D01*
X38614749Y-41403889D01*
X39135959Y-41062819D01*
X39713489Y-40829481D01*
X40325338Y-40712765D01*
X40948213Y-40717113D01*
X40948213Y-40717113D01*
G37*
G36*
X29705286Y-44979815D02*
X29883207Y-45016337D01*
X30050658Y-45086727D01*
X30201241Y-45188297D01*
X30329229Y-45317181D01*
X30429743Y-45468469D01*
X30498962Y-45636405D01*
X30534172Y-45814227D01*
X30534172Y-45814242D01*
X30534239Y-45814581D01*
X30531342Y-46022045D01*
X30531266Y-46022379D01*
X30531266Y-46022392D01*
X30491102Y-46199172D01*
X30417226Y-46365102D01*
X30312523Y-46513527D01*
X30180985Y-46638788D01*
X30027623Y-46736116D01*
X29858279Y-46801800D01*
X29679403Y-46833341D01*
X29497804Y-46829536D01*
X29320402Y-46790532D01*
X29153955Y-46717813D01*
X29004807Y-46614153D01*
X28878631Y-46483494D01*
X28780236Y-46330813D01*
X28713368Y-46161927D01*
X28680581Y-45983280D01*
X28683116Y-45801659D01*
X28720882Y-45623988D01*
X28792435Y-45457040D01*
X28895055Y-45307168D01*
X29024829Y-45180084D01*
X29176819Y-45080625D01*
X29345231Y-45012582D01*
X29523648Y-44978547D01*
X29705286Y-44979815D01*
X29705286Y-44979815D01*
G37*
G36*
X35705286Y-44979815D02*
X35883207Y-45016337D01*
X36050658Y-45086727D01*
X36201241Y-45188297D01*
X36329229Y-45317181D01*
X36429743Y-45468469D01*
X36498962Y-45636405D01*
X36534172Y-45814227D01*
X36534172Y-45814242D01*
X36534239Y-45814581D01*
X36531342Y-46022045D01*
X36531266Y-46022379D01*
X36531266Y-46022392D01*
X36491102Y-46199172D01*
X36417226Y-46365102D01*
X36312523Y-46513527D01*
X36180985Y-46638788D01*
X36027623Y-46736116D01*
X35858279Y-46801800D01*
X35679403Y-46833341D01*
X35497804Y-46829536D01*
X35320402Y-46790532D01*
X35153955Y-46717813D01*
X35004807Y-46614153D01*
X34878631Y-46483494D01*
X34780236Y-46330813D01*
X34713368Y-46161927D01*
X34680581Y-45983280D01*
X34683116Y-45801659D01*
X34720882Y-45623988D01*
X34792435Y-45457040D01*
X34895055Y-45307168D01*
X35024829Y-45180084D01*
X35176819Y-45080625D01*
X35345231Y-45012582D01*
X35523648Y-44978547D01*
X35705286Y-44979815D01*
X35705286Y-44979815D01*
G37*
G36*
X29705286Y-40979815D02*
X29883207Y-41016337D01*
X30050658Y-41086727D01*
X30201241Y-41188297D01*
X30329229Y-41317181D01*
X30429743Y-41468469D01*
X30498962Y-41636405D01*
X30534172Y-41814227D01*
X30534172Y-41814242D01*
X30534239Y-41814581D01*
X30531342Y-42022045D01*
X30531266Y-42022379D01*
X30531266Y-42022392D01*
X30491102Y-42199172D01*
X30417226Y-42365102D01*
X30312523Y-42513527D01*
X30180985Y-42638788D01*
X30027623Y-42736116D01*
X29858279Y-42801800D01*
X29679403Y-42833341D01*
X29497804Y-42829536D01*
X29320402Y-42790532D01*
X29153955Y-42717813D01*
X29004807Y-42614153D01*
X28878631Y-42483494D01*
X28780236Y-42330813D01*
X28713368Y-42161927D01*
X28680581Y-41983280D01*
X28683116Y-41801659D01*
X28720882Y-41623988D01*
X28792435Y-41457040D01*
X28895055Y-41307168D01*
X29024829Y-41180084D01*
X29176819Y-41080625D01*
X29345231Y-41012582D01*
X29523648Y-40978547D01*
X29705286Y-40979815D01*
X29705286Y-40979815D01*
G37*
G36*
X35705286Y-40979815D02*
X35883207Y-41016337D01*
X36050658Y-41086727D01*
X36201241Y-41188297D01*
X36329229Y-41317181D01*
X36429743Y-41468469D01*
X36498962Y-41636405D01*
X36534172Y-41814227D01*
X36534172Y-41814242D01*
X36534239Y-41814581D01*
X36531342Y-42022045D01*
X36531266Y-42022379D01*
X36531266Y-42022392D01*
X36491102Y-42199172D01*
X36417226Y-42365102D01*
X36312523Y-42513527D01*
X36180985Y-42638788D01*
X36027623Y-42736116D01*
X35858279Y-42801800D01*
X35679403Y-42833341D01*
X35497804Y-42829536D01*
X35320402Y-42790532D01*
X35153955Y-42717813D01*
X35004807Y-42614153D01*
X34878631Y-42483494D01*
X34780236Y-42330813D01*
X34713368Y-42161927D01*
X34680581Y-41983280D01*
X34683116Y-41801659D01*
X34720882Y-41623988D01*
X34792435Y-41457040D01*
X34895055Y-41307168D01*
X35024829Y-41180084D01*
X35176819Y-41080625D01*
X35345231Y-41012582D01*
X35523648Y-40978547D01*
X35705286Y-40979815D01*
X35705286Y-40979815D01*
G37*
M02*
