%TF.GenerationSoftware,KiCad,Pcbnew,4.0.5-e0-6337~49~ubuntu16.04.1*%
%TF.CreationDate,2017-02-14T00:23:44-08:00*%
%TF.ProjectId,5x10-Arduino-Nano-Breakout,357831302D41726475696E6F2D4E616E,1.0*%
%TF.FileFunction,Legend,Top*%
%FSLAX46Y46*%
G04 Gerber Fmt 4.6, Leading zero omitted, Abs format (unit mm)*
G04 Created by KiCad (PCBNEW 4.0.5-e0-6337~49~ubuntu16.04.1) date Tue Feb 14 00:23:44 2017*
%MOMM*%
%LPD*%
G01*
G04 APERTURE LIST*
%ADD10C,0.350000*%
%ADD11C,0.127000*%
%ADD12C,0.152400*%
%ADD13C,0.150000*%
%ADD14C,0.300000*%
%ADD15C,0.254000*%
%ADD16C,1.879600*%
%ADD17C,6.152400*%
G04 APERTURE END LIST*
D10*
D11*
X33749800Y-87285800D02*
X50165800Y-87285800D01*
X44450800Y-130211800D02*
X39497800Y-130211800D01*
X44450800Y-132243800D02*
X44449800Y-130236300D01*
X44450800Y-132243800D02*
X50292800Y-132243800D01*
X39497800Y-132236300D02*
X39497800Y-130236300D01*
X33782800Y-132243800D02*
X39497800Y-132243800D01*
D12*
X35966400Y-136347200D02*
X46634400Y-136347200D01*
X35903833Y-136347200D02*
G75*
G03X35903833Y-136347200I-508933J0D01*
G01*
D13*
X40648895Y-127251181D02*
X40648895Y-128060705D01*
X40696514Y-128155943D01*
X40744133Y-128203562D01*
X40839371Y-128251181D01*
X41029848Y-128251181D01*
X41125086Y-128203562D01*
X41172705Y-128155943D01*
X41220324Y-128060705D01*
X41220324Y-127251181D01*
X41648895Y-128203562D02*
X41791752Y-128251181D01*
X42029848Y-128251181D01*
X42125086Y-128203562D01*
X42172705Y-128155943D01*
X42220324Y-128060705D01*
X42220324Y-127965467D01*
X42172705Y-127870229D01*
X42125086Y-127822610D01*
X42029848Y-127774990D01*
X41839371Y-127727371D01*
X41744133Y-127679752D01*
X41696514Y-127632133D01*
X41648895Y-127536895D01*
X41648895Y-127441657D01*
X41696514Y-127346419D01*
X41744133Y-127298800D01*
X41839371Y-127251181D01*
X42077467Y-127251181D01*
X42220324Y-127298800D01*
X42982229Y-127727371D02*
X43125086Y-127774990D01*
X43172705Y-127822610D01*
X43220324Y-127917848D01*
X43220324Y-128060705D01*
X43172705Y-128155943D01*
X43125086Y-128203562D01*
X43029848Y-128251181D01*
X42648895Y-128251181D01*
X42648895Y-127251181D01*
X42982229Y-127251181D01*
X43077467Y-127298800D01*
X43125086Y-127346419D01*
X43172705Y-127441657D01*
X43172705Y-127536895D01*
X43125086Y-127632133D01*
X43077467Y-127679752D01*
X42982229Y-127727371D01*
X42648895Y-127727371D01*
X33972324Y-77398181D02*
X33496133Y-77398181D01*
X33448514Y-77874371D01*
X33496133Y-77826752D01*
X33591371Y-77779133D01*
X33829467Y-77779133D01*
X33924705Y-77826752D01*
X33972324Y-77874371D01*
X34019943Y-77969610D01*
X34019943Y-78207705D01*
X33972324Y-78302943D01*
X33924705Y-78350562D01*
X33829467Y-78398181D01*
X33591371Y-78398181D01*
X33496133Y-78350562D01*
X33448514Y-78302943D01*
X34305657Y-77398181D02*
X34638990Y-78398181D01*
X34972324Y-77398181D01*
X42473181Y-121718729D02*
X42473181Y-121528252D01*
X42520800Y-121433014D01*
X42616038Y-121337776D01*
X42806514Y-121290157D01*
X43139848Y-121290157D01*
X43330324Y-121337776D01*
X43425562Y-121433014D01*
X43473181Y-121528252D01*
X43473181Y-121718729D01*
X43425562Y-121813967D01*
X43330324Y-121909205D01*
X43139848Y-121956824D01*
X42806514Y-121956824D01*
X42616038Y-121909205D01*
X42520800Y-121813967D01*
X42473181Y-121718729D01*
X43473181Y-120290157D02*
X42996990Y-120623491D01*
X43473181Y-120861586D02*
X42473181Y-120861586D01*
X42473181Y-120480633D01*
X42520800Y-120385395D01*
X42568419Y-120337776D01*
X42663657Y-120290157D01*
X42806514Y-120290157D01*
X42901752Y-120337776D01*
X42949371Y-120385395D01*
X42996990Y-120480633D01*
X42996990Y-120861586D01*
X43473181Y-119099681D02*
X42473181Y-119099681D01*
X42473181Y-118861586D01*
X42520800Y-118718728D01*
X42616038Y-118623490D01*
X42711276Y-118575871D01*
X42901752Y-118528252D01*
X43044610Y-118528252D01*
X43235086Y-118575871D01*
X43330324Y-118623490D01*
X43425562Y-118718728D01*
X43473181Y-118861586D01*
X43473181Y-119099681D01*
X43473181Y-117528252D02*
X42996990Y-117861586D01*
X43473181Y-118099681D02*
X42473181Y-118099681D01*
X42473181Y-117718728D01*
X42520800Y-117623490D01*
X42568419Y-117575871D01*
X42663657Y-117528252D01*
X42806514Y-117528252D01*
X42901752Y-117575871D01*
X42949371Y-117623490D01*
X42996990Y-117718728D01*
X42996990Y-118099681D01*
X42473181Y-116909205D02*
X42473181Y-116718728D01*
X42520800Y-116623490D01*
X42616038Y-116528252D01*
X42806514Y-116480633D01*
X43139848Y-116480633D01*
X43330324Y-116528252D01*
X43425562Y-116623490D01*
X43473181Y-116718728D01*
X43473181Y-116909205D01*
X43425562Y-117004443D01*
X43330324Y-117099681D01*
X43139848Y-117147300D01*
X42806514Y-117147300D01*
X42616038Y-117099681D01*
X42520800Y-117004443D01*
X42473181Y-116909205D01*
X43473181Y-116052062D02*
X42473181Y-116052062D01*
X42473181Y-115671109D01*
X42520800Y-115575871D01*
X42568419Y-115528252D01*
X42663657Y-115480633D01*
X42806514Y-115480633D01*
X42901752Y-115528252D01*
X42949371Y-115575871D01*
X42996990Y-115671109D01*
X42996990Y-116052062D01*
X43092229Y-115052062D02*
X43092229Y-114290157D01*
X43473181Y-113813967D02*
X42473181Y-113813967D01*
X43473181Y-113337777D02*
X42473181Y-113337777D01*
X43473181Y-112766348D01*
X42473181Y-112766348D01*
X43377943Y-110956824D02*
X43425562Y-111004443D01*
X43473181Y-111147300D01*
X43473181Y-111242538D01*
X43425562Y-111385396D01*
X43330324Y-111480634D01*
X43235086Y-111528253D01*
X43044610Y-111575872D01*
X42901752Y-111575872D01*
X42711276Y-111528253D01*
X42616038Y-111480634D01*
X42520800Y-111385396D01*
X42473181Y-111242538D01*
X42473181Y-111147300D01*
X42520800Y-111004443D01*
X42568419Y-110956824D01*
X42473181Y-110337777D02*
X42473181Y-110147300D01*
X42520800Y-110052062D01*
X42616038Y-109956824D01*
X42806514Y-109909205D01*
X43139848Y-109909205D01*
X43330324Y-109956824D01*
X43425562Y-110052062D01*
X43473181Y-110147300D01*
X43473181Y-110337777D01*
X43425562Y-110433015D01*
X43330324Y-110528253D01*
X43139848Y-110575872D01*
X42806514Y-110575872D01*
X42616038Y-110528253D01*
X42520800Y-110433015D01*
X42473181Y-110337777D01*
X43473181Y-109480634D02*
X42473181Y-109480634D01*
X43187467Y-109147300D01*
X42473181Y-108813967D01*
X43473181Y-108813967D01*
X43473181Y-108337777D02*
X42473181Y-108337777D01*
X42473181Y-107956824D01*
X42520800Y-107861586D01*
X42568419Y-107813967D01*
X42663657Y-107766348D01*
X42806514Y-107766348D01*
X42901752Y-107813967D01*
X42949371Y-107861586D01*
X42996990Y-107956824D01*
X42996990Y-108337777D01*
X43187467Y-107385396D02*
X43187467Y-106909205D01*
X43473181Y-107480634D02*
X42473181Y-107147301D01*
X43473181Y-106813967D01*
X42473181Y-106623491D02*
X42473181Y-106052062D01*
X43473181Y-106337777D02*
X42473181Y-106337777D01*
X43473181Y-105718729D02*
X42473181Y-105718729D01*
X42949371Y-104909205D02*
X42996990Y-104766348D01*
X43044610Y-104718729D01*
X43139848Y-104671110D01*
X43282705Y-104671110D01*
X43377943Y-104718729D01*
X43425562Y-104766348D01*
X43473181Y-104861586D01*
X43473181Y-105242539D01*
X42473181Y-105242539D01*
X42473181Y-104909205D01*
X42520800Y-104813967D01*
X42568419Y-104766348D01*
X42663657Y-104718729D01*
X42758895Y-104718729D01*
X42854133Y-104766348D01*
X42901752Y-104813967D01*
X42949371Y-104909205D01*
X42949371Y-105242539D01*
X43473181Y-103766348D02*
X43473181Y-104242539D01*
X42473181Y-104242539D01*
X42949371Y-103433015D02*
X42949371Y-103099681D01*
X43473181Y-102956824D02*
X43473181Y-103433015D01*
X42473181Y-103433015D01*
X42473181Y-102956824D01*
X42949371Y-101433014D02*
X42996990Y-101290157D01*
X43044610Y-101242538D01*
X43139848Y-101194919D01*
X43282705Y-101194919D01*
X43377943Y-101242538D01*
X43425562Y-101290157D01*
X43473181Y-101385395D01*
X43473181Y-101766348D01*
X42473181Y-101766348D01*
X42473181Y-101433014D01*
X42520800Y-101337776D01*
X42568419Y-101290157D01*
X42663657Y-101242538D01*
X42758895Y-101242538D01*
X42854133Y-101290157D01*
X42901752Y-101337776D01*
X42949371Y-101433014D01*
X42949371Y-101766348D01*
X42473181Y-100575872D02*
X42473181Y-100385395D01*
X42520800Y-100290157D01*
X42616038Y-100194919D01*
X42806514Y-100147300D01*
X43139848Y-100147300D01*
X43330324Y-100194919D01*
X43425562Y-100290157D01*
X43473181Y-100385395D01*
X43473181Y-100575872D01*
X43425562Y-100671110D01*
X43330324Y-100766348D01*
X43139848Y-100813967D01*
X42806514Y-100813967D01*
X42616038Y-100766348D01*
X42520800Y-100671110D01*
X42473181Y-100575872D01*
X43187467Y-99766348D02*
X43187467Y-99290157D01*
X43473181Y-99861586D02*
X42473181Y-99528253D01*
X43473181Y-99194919D01*
X43473181Y-98290157D02*
X42996990Y-98623491D01*
X43473181Y-98861586D02*
X42473181Y-98861586D01*
X42473181Y-98480633D01*
X42520800Y-98385395D01*
X42568419Y-98337776D01*
X42663657Y-98290157D01*
X42806514Y-98290157D01*
X42901752Y-98337776D01*
X42949371Y-98385395D01*
X42996990Y-98480633D01*
X42996990Y-98861586D01*
X43473181Y-97861586D02*
X42473181Y-97861586D01*
X42473181Y-97623491D01*
X42520800Y-97480633D01*
X42616038Y-97385395D01*
X42711276Y-97337776D01*
X42901752Y-97290157D01*
X43044610Y-97290157D01*
X43235086Y-97337776D01*
X43330324Y-97385395D01*
X43425562Y-97480633D01*
X43473181Y-97623491D01*
X43473181Y-97861586D01*
X43425562Y-96909205D02*
X43473181Y-96766348D01*
X43473181Y-96528252D01*
X43425562Y-96433014D01*
X43377943Y-96385395D01*
X43282705Y-96337776D01*
X43187467Y-96337776D01*
X43092229Y-96385395D01*
X43044610Y-96433014D01*
X42996990Y-96528252D01*
X42949371Y-96718729D01*
X42901752Y-96813967D01*
X42854133Y-96861586D01*
X42758895Y-96909205D01*
X42663657Y-96909205D01*
X42568419Y-96861586D01*
X42520800Y-96813967D01*
X42473181Y-96718729D01*
X42473181Y-96480633D01*
X42520800Y-96337776D01*
X39171181Y-120718729D02*
X39980705Y-120718729D01*
X40075943Y-120671110D01*
X40123562Y-120623491D01*
X40171181Y-120528253D01*
X40171181Y-120337776D01*
X40123562Y-120242538D01*
X40075943Y-120194919D01*
X39980705Y-120147300D01*
X39171181Y-120147300D01*
X40123562Y-119718729D02*
X40171181Y-119575872D01*
X40171181Y-119337776D01*
X40123562Y-119242538D01*
X40075943Y-119194919D01*
X39980705Y-119147300D01*
X39885467Y-119147300D01*
X39790229Y-119194919D01*
X39742610Y-119242538D01*
X39694990Y-119337776D01*
X39647371Y-119528253D01*
X39599752Y-119623491D01*
X39552133Y-119671110D01*
X39456895Y-119718729D01*
X39361657Y-119718729D01*
X39266419Y-119671110D01*
X39218800Y-119623491D01*
X39171181Y-119528253D01*
X39171181Y-119290157D01*
X39218800Y-119147300D01*
X39647371Y-118718729D02*
X39647371Y-118385395D01*
X40171181Y-118242538D02*
X40171181Y-118718729D01*
X39171181Y-118718729D01*
X39171181Y-118242538D01*
X39171181Y-116861586D02*
X39171181Y-116671109D01*
X39218800Y-116575871D01*
X39314038Y-116480633D01*
X39504514Y-116433014D01*
X39837848Y-116433014D01*
X40028324Y-116480633D01*
X40123562Y-116575871D01*
X40171181Y-116671109D01*
X40171181Y-116861586D01*
X40123562Y-116956824D01*
X40028324Y-117052062D01*
X39837848Y-117099681D01*
X39504514Y-117099681D01*
X39314038Y-117052062D01*
X39218800Y-116956824D01*
X39171181Y-116861586D01*
X40171181Y-116004443D02*
X39171181Y-116004443D01*
X40171181Y-115433014D01*
X39171181Y-115433014D01*
X40171181Y-114480633D02*
X40171181Y-114956824D01*
X39171181Y-114956824D01*
X39694990Y-113956824D02*
X40171181Y-113956824D01*
X39171181Y-114290157D02*
X39694990Y-113956824D01*
X39171181Y-113623490D01*
X39171181Y-112623490D02*
X40171181Y-112385395D01*
X39456895Y-112194918D01*
X40171181Y-112004442D01*
X39171181Y-111766347D01*
X40171181Y-111385395D02*
X39171181Y-111385395D01*
X39171181Y-111052062D02*
X39171181Y-110480633D01*
X40171181Y-110766348D02*
X39171181Y-110766348D01*
X40171181Y-110147300D02*
X39171181Y-110147300D01*
X39647371Y-110147300D02*
X39647371Y-109575871D01*
X40171181Y-109575871D02*
X39171181Y-109575871D01*
X39885467Y-108385395D02*
X39885467Y-107909204D01*
X40171181Y-108480633D02*
X39171181Y-108147300D01*
X40171181Y-107813966D01*
X40171181Y-106909204D02*
X39694990Y-107242538D01*
X40171181Y-107480633D02*
X39171181Y-107480633D01*
X39171181Y-107099680D01*
X39218800Y-107004442D01*
X39266419Y-106956823D01*
X39361657Y-106909204D01*
X39504514Y-106909204D01*
X39599752Y-106956823D01*
X39647371Y-107004442D01*
X39694990Y-107099680D01*
X39694990Y-107480633D01*
X40171181Y-106480633D02*
X39171181Y-106480633D01*
X39171181Y-106242538D01*
X39218800Y-106099680D01*
X39314038Y-106004442D01*
X39409276Y-105956823D01*
X39599752Y-105909204D01*
X39742610Y-105909204D01*
X39933086Y-105956823D01*
X40028324Y-106004442D01*
X40123562Y-106099680D01*
X40171181Y-106242538D01*
X40171181Y-106480633D01*
X39171181Y-105480633D02*
X39980705Y-105480633D01*
X40075943Y-105433014D01*
X40123562Y-105385395D01*
X40171181Y-105290157D01*
X40171181Y-105099680D01*
X40123562Y-105004442D01*
X40075943Y-104956823D01*
X39980705Y-104909204D01*
X39171181Y-104909204D01*
X40171181Y-104433014D02*
X39171181Y-104433014D01*
X40171181Y-103956824D02*
X39171181Y-103956824D01*
X40171181Y-103385395D01*
X39171181Y-103385395D01*
X39171181Y-102718729D02*
X39171181Y-102528252D01*
X39218800Y-102433014D01*
X39314038Y-102337776D01*
X39504514Y-102290157D01*
X39837848Y-102290157D01*
X40028324Y-102337776D01*
X40123562Y-102433014D01*
X40171181Y-102528252D01*
X40171181Y-102718729D01*
X40123562Y-102813967D01*
X40028324Y-102909205D01*
X39837848Y-102956824D01*
X39504514Y-102956824D01*
X39314038Y-102909205D01*
X39218800Y-102813967D01*
X39171181Y-102718729D01*
X40171181Y-101099681D02*
X39171181Y-101099681D01*
X40171181Y-100528252D01*
X39171181Y-100528252D01*
X39885467Y-100099681D02*
X39885467Y-99623490D01*
X40171181Y-100194919D02*
X39171181Y-99861586D01*
X40171181Y-99528252D01*
X40171181Y-99194919D02*
X39171181Y-99194919D01*
X40171181Y-98623490D01*
X39171181Y-98623490D01*
X39171181Y-97956824D02*
X39171181Y-97766347D01*
X39218800Y-97671109D01*
X39314038Y-97575871D01*
X39504514Y-97528252D01*
X39837848Y-97528252D01*
X40028324Y-97575871D01*
X40123562Y-97671109D01*
X40171181Y-97766347D01*
X40171181Y-97956824D01*
X40123562Y-98052062D01*
X40028324Y-98147300D01*
X39837848Y-98194919D01*
X39504514Y-98194919D01*
X39314038Y-98147300D01*
X39218800Y-98052062D01*
X39171181Y-97956824D01*
X29964705Y-114088181D02*
X29964705Y-113088181D01*
X30202800Y-113088181D01*
X30345658Y-113135800D01*
X30440896Y-113231038D01*
X30488515Y-113326276D01*
X30536134Y-113516752D01*
X30536134Y-113659610D01*
X30488515Y-113850086D01*
X30440896Y-113945324D01*
X30345658Y-114040562D01*
X30202800Y-114088181D01*
X29964705Y-114088181D01*
X31393277Y-113088181D02*
X31202800Y-113088181D01*
X31107562Y-113135800D01*
X31059943Y-113183419D01*
X30964705Y-113326276D01*
X30917086Y-113516752D01*
X30917086Y-113897705D01*
X30964705Y-113992943D01*
X31012324Y-114040562D01*
X31107562Y-114088181D01*
X31298039Y-114088181D01*
X31393277Y-114040562D01*
X31440896Y-113992943D01*
X31488515Y-113897705D01*
X31488515Y-113659610D01*
X31440896Y-113564371D01*
X31393277Y-113516752D01*
X31298039Y-113469133D01*
X31107562Y-113469133D01*
X31012324Y-113516752D01*
X30964705Y-113564371D01*
X30917086Y-113659610D01*
X29964705Y-105838181D02*
X29964705Y-104838181D01*
X30202800Y-104838181D01*
X30345658Y-104885800D01*
X30440896Y-104981038D01*
X30488515Y-105076276D01*
X30536134Y-105266752D01*
X30536134Y-105409610D01*
X30488515Y-105600086D01*
X30440896Y-105695324D01*
X30345658Y-105790562D01*
X30202800Y-105838181D01*
X29964705Y-105838181D01*
X31440896Y-104838181D02*
X30964705Y-104838181D01*
X30917086Y-105314371D01*
X30964705Y-105266752D01*
X31059943Y-105219133D01*
X31298039Y-105219133D01*
X31393277Y-105266752D01*
X31440896Y-105314371D01*
X31488515Y-105409610D01*
X31488515Y-105647705D01*
X31440896Y-105742943D01*
X31393277Y-105790562D01*
X31298039Y-105838181D01*
X31059943Y-105838181D01*
X30964705Y-105790562D01*
X30917086Y-105742943D01*
X30214705Y-130088181D02*
X30214705Y-129088181D01*
X30452800Y-129088181D01*
X30595658Y-129135800D01*
X30690896Y-129231038D01*
X30738515Y-129326276D01*
X30786134Y-129516752D01*
X30786134Y-129659610D01*
X30738515Y-129850086D01*
X30690896Y-129945324D01*
X30595658Y-130040562D01*
X30452800Y-130088181D01*
X30214705Y-130088181D01*
X31357562Y-129516752D02*
X31262324Y-129469133D01*
X31214705Y-129421514D01*
X31167086Y-129326276D01*
X31167086Y-129278657D01*
X31214705Y-129183419D01*
X31262324Y-129135800D01*
X31357562Y-129088181D01*
X31548039Y-129088181D01*
X31643277Y-129135800D01*
X31690896Y-129183419D01*
X31738515Y-129278657D01*
X31738515Y-129326276D01*
X31690896Y-129421514D01*
X31643277Y-129469133D01*
X31548039Y-129516752D01*
X31357562Y-129516752D01*
X31262324Y-129564371D01*
X31214705Y-129611990D01*
X31167086Y-129707229D01*
X31167086Y-129897705D01*
X31214705Y-129992943D01*
X31262324Y-130040562D01*
X31357562Y-130088181D01*
X31548039Y-130088181D01*
X31643277Y-130040562D01*
X31690896Y-129992943D01*
X31738515Y-129897705D01*
X31738515Y-129707229D01*
X31690896Y-129611990D01*
X31643277Y-129564371D01*
X31548039Y-129516752D01*
X30214705Y-121838181D02*
X30214705Y-120838181D01*
X30452800Y-120838181D01*
X30595658Y-120885800D01*
X30690896Y-120981038D01*
X30738515Y-121076276D01*
X30786134Y-121266752D01*
X30786134Y-121409610D01*
X30738515Y-121600086D01*
X30690896Y-121695324D01*
X30595658Y-121790562D01*
X30452800Y-121838181D01*
X30214705Y-121838181D01*
X31119467Y-120838181D02*
X31786134Y-120838181D01*
X31357562Y-121838181D01*
X30124705Y-137898181D02*
X30124705Y-136898181D01*
X30362800Y-136898181D01*
X30505658Y-136945800D01*
X30600896Y-137041038D01*
X30648515Y-137136276D01*
X30696134Y-137326752D01*
X30696134Y-137469610D01*
X30648515Y-137660086D01*
X30600896Y-137755324D01*
X30505658Y-137850562D01*
X30362800Y-137898181D01*
X30124705Y-137898181D01*
X31172324Y-137898181D02*
X31362800Y-137898181D01*
X31458039Y-137850562D01*
X31505658Y-137802943D01*
X31600896Y-137660086D01*
X31648515Y-137469610D01*
X31648515Y-137088657D01*
X31600896Y-136993419D01*
X31553277Y-136945800D01*
X31458039Y-136898181D01*
X31267562Y-136898181D01*
X31172324Y-136945800D01*
X31124705Y-136993419D01*
X31077086Y-137088657D01*
X31077086Y-137326752D01*
X31124705Y-137421990D01*
X31172324Y-137469610D01*
X31267562Y-137517229D01*
X31458039Y-137517229D01*
X31553277Y-137469610D01*
X31600896Y-137421990D01*
X31648515Y-137326752D01*
X28200896Y-141445800D02*
X28105658Y-141398181D01*
X27962801Y-141398181D01*
X27819943Y-141445800D01*
X27724705Y-141541038D01*
X27677086Y-141636276D01*
X27629467Y-141826752D01*
X27629467Y-141969610D01*
X27677086Y-142160086D01*
X27724705Y-142255324D01*
X27819943Y-142350562D01*
X27962801Y-142398181D01*
X28058039Y-142398181D01*
X28200896Y-142350562D01*
X28248515Y-142302943D01*
X28248515Y-141969610D01*
X28058039Y-141969610D01*
X28677086Y-142398181D02*
X28677086Y-141398181D01*
X29248515Y-142398181D01*
X29248515Y-141398181D01*
X29724705Y-142398181D02*
X29724705Y-141398181D01*
X29962800Y-141398181D01*
X30105658Y-141445800D01*
X30200896Y-141541038D01*
X30248515Y-141636276D01*
X30296134Y-141826752D01*
X30296134Y-141969610D01*
X30248515Y-142160086D01*
X30200896Y-142255324D01*
X30105658Y-142350562D01*
X29962800Y-142398181D01*
X29724705Y-142398181D01*
X33872324Y-140698181D02*
X33396133Y-140698181D01*
X33348514Y-141174371D01*
X33396133Y-141126752D01*
X33491371Y-141079133D01*
X33729467Y-141079133D01*
X33824705Y-141126752D01*
X33872324Y-141174371D01*
X33919943Y-141269610D01*
X33919943Y-141507705D01*
X33872324Y-141602943D01*
X33824705Y-141650562D01*
X33729467Y-141698181D01*
X33491371Y-141698181D01*
X33396133Y-141650562D01*
X33348514Y-141602943D01*
X34205657Y-140698181D02*
X34538990Y-141698181D01*
X34872324Y-140698181D01*
X27900896Y-76545800D02*
X27805658Y-76498181D01*
X27662801Y-76498181D01*
X27519943Y-76545800D01*
X27424705Y-76641038D01*
X27377086Y-76736276D01*
X27329467Y-76926752D01*
X27329467Y-77069610D01*
X27377086Y-77260086D01*
X27424705Y-77355324D01*
X27519943Y-77450562D01*
X27662801Y-77498181D01*
X27758039Y-77498181D01*
X27900896Y-77450562D01*
X27948515Y-77402943D01*
X27948515Y-77069610D01*
X27758039Y-77069610D01*
X28377086Y-77498181D02*
X28377086Y-76498181D01*
X28948515Y-77498181D01*
X28948515Y-76498181D01*
X29424705Y-77498181D02*
X29424705Y-76498181D01*
X29662800Y-76498181D01*
X29805658Y-76545800D01*
X29900896Y-76641038D01*
X29948515Y-76736276D01*
X29996134Y-76926752D01*
X29996134Y-77069610D01*
X29948515Y-77260086D01*
X29900896Y-77355324D01*
X29805658Y-77450562D01*
X29662800Y-77498181D01*
X29424705Y-77498181D01*
X29964705Y-97898181D02*
X29964705Y-96898181D01*
X30202800Y-96898181D01*
X30345658Y-96945800D01*
X30440896Y-97041038D01*
X30488515Y-97136276D01*
X30536134Y-97326752D01*
X30536134Y-97469610D01*
X30488515Y-97660086D01*
X30440896Y-97755324D01*
X30345658Y-97850562D01*
X30202800Y-97898181D01*
X29964705Y-97898181D01*
X31393277Y-97231514D02*
X31393277Y-97898181D01*
X31155181Y-96850562D02*
X30917086Y-97564848D01*
X31536134Y-97564848D01*
X29964705Y-89898181D02*
X29964705Y-88898181D01*
X30202800Y-88898181D01*
X30345658Y-88945800D01*
X30440896Y-89041038D01*
X30488515Y-89136276D01*
X30536134Y-89326752D01*
X30536134Y-89469610D01*
X30488515Y-89660086D01*
X30440896Y-89755324D01*
X30345658Y-89850562D01*
X30202800Y-89898181D01*
X29964705Y-89898181D01*
X30869467Y-88898181D02*
X31488515Y-88898181D01*
X31155181Y-89279133D01*
X31298039Y-89279133D01*
X31393277Y-89326752D01*
X31440896Y-89374371D01*
X31488515Y-89469610D01*
X31488515Y-89707705D01*
X31440896Y-89802943D01*
X31393277Y-89850562D01*
X31298039Y-89898181D01*
X31012324Y-89898181D01*
X30917086Y-89850562D01*
X30869467Y-89802943D01*
X30124705Y-81898181D02*
X30124705Y-80898181D01*
X30362800Y-80898181D01*
X30505658Y-80945800D01*
X30600896Y-81041038D01*
X30648515Y-81136276D01*
X30696134Y-81326752D01*
X30696134Y-81469610D01*
X30648515Y-81660086D01*
X30600896Y-81755324D01*
X30505658Y-81850562D01*
X30362800Y-81898181D01*
X30124705Y-81898181D01*
X31077086Y-80993419D02*
X31124705Y-80945800D01*
X31219943Y-80898181D01*
X31458039Y-80898181D01*
X31553277Y-80945800D01*
X31600896Y-80993419D01*
X31648515Y-81088657D01*
X31648515Y-81183895D01*
X31600896Y-81326752D01*
X31029467Y-81898181D01*
X31648515Y-81898181D01*
X40386610Y-140698181D02*
X41005658Y-140698181D01*
X40672324Y-141079133D01*
X40815182Y-141079133D01*
X40910420Y-141126752D01*
X40958039Y-141174371D01*
X41005658Y-141269610D01*
X41005658Y-141507705D01*
X40958039Y-141602943D01*
X40910420Y-141650562D01*
X40815182Y-141698181D01*
X40529467Y-141698181D01*
X40434229Y-141650562D01*
X40386610Y-141602943D01*
X41434229Y-141602943D02*
X41481848Y-141650562D01*
X41434229Y-141698181D01*
X41386610Y-141650562D01*
X41434229Y-141602943D01*
X41434229Y-141698181D01*
X41815181Y-140698181D02*
X42434229Y-140698181D01*
X42100895Y-141079133D01*
X42243753Y-141079133D01*
X42338991Y-141126752D01*
X42386610Y-141174371D01*
X42434229Y-141269610D01*
X42434229Y-141507705D01*
X42386610Y-141602943D01*
X42338991Y-141650562D01*
X42243753Y-141698181D01*
X41958038Y-141698181D01*
X41862800Y-141650562D01*
X41815181Y-141602943D01*
X42719943Y-140698181D02*
X43053276Y-141698181D01*
X43386610Y-140698181D01*
X48648514Y-141698181D02*
X48648514Y-140698181D01*
X48886609Y-140698181D01*
X49029467Y-140745800D01*
X49124705Y-140841038D01*
X49172324Y-140936276D01*
X49219943Y-141126752D01*
X49219943Y-141269610D01*
X49172324Y-141460086D01*
X49124705Y-141555324D01*
X49029467Y-141650562D01*
X48886609Y-141698181D01*
X48648514Y-141698181D01*
X50172324Y-141698181D02*
X49600895Y-141698181D01*
X49886609Y-141698181D02*
X49886609Y-140698181D01*
X49791371Y-140841038D01*
X49696133Y-140936276D01*
X49600895Y-140983895D01*
X50791371Y-140698181D02*
X50886610Y-140698181D01*
X50981848Y-140745800D01*
X51029467Y-140793419D01*
X51077086Y-140888657D01*
X51124705Y-141079133D01*
X51124705Y-141317229D01*
X51077086Y-141507705D01*
X51029467Y-141602943D01*
X50981848Y-141650562D01*
X50886610Y-141698181D01*
X50791371Y-141698181D01*
X50696133Y-141650562D01*
X50648514Y-141602943D01*
X50600895Y-141507705D01*
X50553276Y-141317229D01*
X50553276Y-141079133D01*
X50600895Y-140888657D01*
X50648514Y-140793419D01*
X50696133Y-140745800D01*
X50791371Y-140698181D01*
X40686610Y-77398181D02*
X41305658Y-77398181D01*
X40972324Y-77779133D01*
X41115182Y-77779133D01*
X41210420Y-77826752D01*
X41258039Y-77874371D01*
X41305658Y-77969610D01*
X41305658Y-78207705D01*
X41258039Y-78302943D01*
X41210420Y-78350562D01*
X41115182Y-78398181D01*
X40829467Y-78398181D01*
X40734229Y-78350562D01*
X40686610Y-78302943D01*
X41734229Y-78302943D02*
X41781848Y-78350562D01*
X41734229Y-78398181D01*
X41686610Y-78350562D01*
X41734229Y-78302943D01*
X41734229Y-78398181D01*
X42115181Y-77398181D02*
X42734229Y-77398181D01*
X42400895Y-77779133D01*
X42543753Y-77779133D01*
X42638991Y-77826752D01*
X42686610Y-77874371D01*
X42734229Y-77969610D01*
X42734229Y-78207705D01*
X42686610Y-78302943D01*
X42638991Y-78350562D01*
X42543753Y-78398181D01*
X42258038Y-78398181D01*
X42162800Y-78350562D01*
X42115181Y-78302943D01*
X43019943Y-77398181D02*
X43353276Y-78398181D01*
X43686610Y-77398181D01*
X48043752Y-78398181D02*
X48043752Y-77398181D01*
X48281847Y-77398181D01*
X48424705Y-77445800D01*
X48519943Y-77541038D01*
X48567562Y-77636276D01*
X48615181Y-77826752D01*
X48615181Y-77969610D01*
X48567562Y-78160086D01*
X48519943Y-78255324D01*
X48424705Y-78350562D01*
X48281847Y-78398181D01*
X48043752Y-78398181D01*
X49567562Y-78398181D02*
X48996133Y-78398181D01*
X49281847Y-78398181D02*
X49281847Y-77398181D01*
X49186609Y-77541038D01*
X49091371Y-77636276D01*
X48996133Y-77683895D01*
X50710419Y-77350562D02*
X49853276Y-78636276D01*
X50900895Y-77398181D02*
X51472324Y-77398181D01*
X51186609Y-78398181D02*
X51186609Y-77398181D01*
X51710419Y-77398181D02*
X52377086Y-78398181D01*
X52377086Y-77398181D02*
X51710419Y-78398181D01*
X55834705Y-77908181D02*
X55834705Y-76908181D01*
X56072800Y-76908181D01*
X56215658Y-76955800D01*
X56310896Y-77051038D01*
X56358515Y-77146276D01*
X56406134Y-77336752D01*
X56406134Y-77479610D01*
X56358515Y-77670086D01*
X56310896Y-77765324D01*
X56215658Y-77860562D01*
X56072800Y-77908181D01*
X55834705Y-77908181D01*
X57025181Y-76908181D02*
X57120420Y-76908181D01*
X57215658Y-76955800D01*
X57263277Y-77003419D01*
X57310896Y-77098657D01*
X57358515Y-77289133D01*
X57358515Y-77527229D01*
X57310896Y-77717705D01*
X57263277Y-77812943D01*
X57215658Y-77860562D01*
X57120420Y-77908181D01*
X57025181Y-77908181D01*
X56929943Y-77860562D01*
X56882324Y-77812943D01*
X56834705Y-77717705D01*
X56787086Y-77527229D01*
X56787086Y-77289133D01*
X56834705Y-77098657D01*
X56882324Y-77003419D01*
X56929943Y-76955800D01*
X57025181Y-76908181D01*
X58501372Y-76860562D02*
X57644229Y-78146276D01*
X59406134Y-77908181D02*
X59072800Y-77431990D01*
X58834705Y-77908181D02*
X58834705Y-76908181D01*
X59215658Y-76908181D01*
X59310896Y-76955800D01*
X59358515Y-77003419D01*
X59406134Y-77098657D01*
X59406134Y-77241514D01*
X59358515Y-77336752D01*
X59310896Y-77384371D01*
X59215658Y-77431990D01*
X58834705Y-77431990D01*
X59739467Y-76908181D02*
X60406134Y-77908181D01*
X60406134Y-76908181D02*
X59739467Y-77908181D01*
X52848514Y-105552467D02*
X53324705Y-105552467D01*
X52753276Y-105838181D02*
X53086609Y-104838181D01*
X53419943Y-105838181D01*
X54277086Y-105838181D02*
X53705657Y-105838181D01*
X53991371Y-105838181D02*
X53991371Y-104838181D01*
X53896133Y-104981038D01*
X53800895Y-105076276D01*
X53705657Y-105123895D01*
X52848514Y-97612467D02*
X53324705Y-97612467D01*
X52753276Y-97898181D02*
X53086609Y-96898181D01*
X53419943Y-97898181D01*
X53705657Y-96993419D02*
X53753276Y-96945800D01*
X53848514Y-96898181D01*
X54086610Y-96898181D01*
X54181848Y-96945800D01*
X54229467Y-96993419D01*
X54277086Y-97088657D01*
X54277086Y-97183895D01*
X54229467Y-97326752D01*
X53658038Y-97898181D01*
X54277086Y-97898181D01*
X52848514Y-89612467D02*
X53324705Y-89612467D01*
X52753276Y-89898181D02*
X53086609Y-88898181D01*
X53419943Y-89898181D01*
X53658038Y-88898181D02*
X54277086Y-88898181D01*
X53943752Y-89279133D01*
X54086610Y-89279133D01*
X54181848Y-89326752D01*
X54229467Y-89374371D01*
X54277086Y-89469610D01*
X54277086Y-89707705D01*
X54229467Y-89802943D01*
X54181848Y-89850562D01*
X54086610Y-89898181D01*
X53800895Y-89898181D01*
X53705657Y-89850562D01*
X53658038Y-89802943D01*
X52848514Y-81612467D02*
X53324705Y-81612467D01*
X52753276Y-81898181D02*
X53086609Y-80898181D01*
X53419943Y-81898181D01*
X54181848Y-81231514D02*
X54181848Y-81898181D01*
X53943752Y-80850562D02*
X53705657Y-81564848D01*
X54324705Y-81564848D01*
X52848514Y-113802467D02*
X53324705Y-113802467D01*
X52753276Y-114088181D02*
X53086609Y-113088181D01*
X53419943Y-114088181D01*
X53943752Y-113088181D02*
X54038991Y-113088181D01*
X54134229Y-113135800D01*
X54181848Y-113183419D01*
X54229467Y-113278657D01*
X54277086Y-113469133D01*
X54277086Y-113707229D01*
X54229467Y-113897705D01*
X54181848Y-113992943D01*
X54134229Y-114040562D01*
X54038991Y-114088181D01*
X53943752Y-114088181D01*
X53848514Y-114040562D01*
X53800895Y-113992943D01*
X53753276Y-113897705D01*
X53705657Y-113707229D01*
X53705657Y-113469133D01*
X53753276Y-113278657D01*
X53800895Y-113183419D01*
X53848514Y-113135800D01*
X53943752Y-113088181D01*
X51718514Y-130058181D02*
X51718514Y-129058181D01*
X51956609Y-129058181D01*
X52099467Y-129105800D01*
X52194705Y-129201038D01*
X52242324Y-129296276D01*
X52289943Y-129486752D01*
X52289943Y-129629610D01*
X52242324Y-129820086D01*
X52194705Y-129915324D01*
X52099467Y-130010562D01*
X51956609Y-130058181D01*
X51718514Y-130058181D01*
X53242324Y-130058181D02*
X52670895Y-130058181D01*
X52956609Y-130058181D02*
X52956609Y-129058181D01*
X52861371Y-129201038D01*
X52766133Y-129296276D01*
X52670895Y-129343895D01*
X53575657Y-129058181D02*
X54194705Y-129058181D01*
X53861371Y-129439133D01*
X54004229Y-129439133D01*
X54099467Y-129486752D01*
X54147086Y-129534371D01*
X54194705Y-129629610D01*
X54194705Y-129867705D01*
X54147086Y-129962943D01*
X54099467Y-130010562D01*
X54004229Y-130058181D01*
X53718514Y-130058181D01*
X53623276Y-130010562D01*
X53575657Y-129962943D01*
X53549467Y-122984848D02*
X53549467Y-122508657D01*
X53835181Y-123080086D02*
X52835181Y-122746753D01*
X53835181Y-122413419D01*
X53835181Y-121508657D02*
X53358990Y-121841991D01*
X53835181Y-122080086D02*
X52835181Y-122080086D01*
X52835181Y-121699133D01*
X52882800Y-121603895D01*
X52930419Y-121556276D01*
X53025657Y-121508657D01*
X53168514Y-121508657D01*
X53263752Y-121556276D01*
X53311371Y-121603895D01*
X53358990Y-121699133D01*
X53358990Y-122080086D01*
X53311371Y-121080086D02*
X53311371Y-120746752D01*
X53835181Y-120603895D02*
X53835181Y-121080086D01*
X52835181Y-121080086D01*
X52835181Y-120603895D01*
X53311371Y-119841990D02*
X53311371Y-120175324D01*
X53835181Y-120175324D02*
X52835181Y-120175324D01*
X52835181Y-119699133D01*
X51598514Y-137868181D02*
X51598514Y-136868181D01*
X51836609Y-136868181D01*
X51979467Y-136915800D01*
X52074705Y-137011038D01*
X52122324Y-137106276D01*
X52169943Y-137296752D01*
X52169943Y-137439610D01*
X52122324Y-137630086D01*
X52074705Y-137725324D01*
X51979467Y-137820562D01*
X51836609Y-137868181D01*
X51598514Y-137868181D01*
X53122324Y-137868181D02*
X52550895Y-137868181D01*
X52836609Y-137868181D02*
X52836609Y-136868181D01*
X52741371Y-137011038D01*
X52646133Y-137106276D01*
X52550895Y-137153895D01*
X53503276Y-136963419D02*
X53550895Y-136915800D01*
X53646133Y-136868181D01*
X53884229Y-136868181D01*
X53979467Y-136915800D01*
X54027086Y-136963419D01*
X54074705Y-137058657D01*
X54074705Y-137153895D01*
X54027086Y-137296752D01*
X53455657Y-137868181D01*
X54074705Y-137868181D01*
X54348514Y-141898181D02*
X54348514Y-140898181D01*
X54586609Y-140898181D01*
X54729467Y-140945800D01*
X54824705Y-141041038D01*
X54872324Y-141136276D01*
X54919943Y-141326752D01*
X54919943Y-141469610D01*
X54872324Y-141660086D01*
X54824705Y-141755324D01*
X54729467Y-141850562D01*
X54586609Y-141898181D01*
X54348514Y-141898181D01*
X55872324Y-141898181D02*
X55300895Y-141898181D01*
X55586609Y-141898181D02*
X55586609Y-140898181D01*
X55491371Y-141041038D01*
X55396133Y-141136276D01*
X55300895Y-141183895D01*
X56824705Y-141898181D02*
X56253276Y-141898181D01*
X56538990Y-141898181D02*
X56538990Y-140898181D01*
X56443752Y-141041038D01*
X56348514Y-141136276D01*
X56253276Y-141183895D01*
%LPC*%
D14*
X38037772Y-138279914D02*
X37966343Y-138351343D01*
X37752057Y-138422771D01*
X37609200Y-138422771D01*
X37394915Y-138351343D01*
X37252057Y-138208486D01*
X37180629Y-138065629D01*
X37109200Y-137779914D01*
X37109200Y-137565629D01*
X37180629Y-137279914D01*
X37252057Y-137137057D01*
X37394915Y-136994200D01*
X37609200Y-136922771D01*
X37752057Y-136922771D01*
X37966343Y-136994200D01*
X38037772Y-137065629D01*
X38680629Y-138422771D02*
X38680629Y-136922771D01*
X40252058Y-138422771D02*
X39752058Y-137708486D01*
X39394915Y-138422771D02*
X39394915Y-136922771D01*
X39966343Y-136922771D01*
X40109201Y-136994200D01*
X40180629Y-137065629D01*
X40252058Y-137208486D01*
X40252058Y-137422771D01*
X40180629Y-137565629D01*
X40109201Y-137637057D01*
X39966343Y-137708486D01*
X39394915Y-137708486D01*
X41752058Y-138279914D02*
X41680629Y-138351343D01*
X41466343Y-138422771D01*
X41323486Y-138422771D01*
X41109201Y-138351343D01*
X40966343Y-138208486D01*
X40894915Y-138065629D01*
X40823486Y-137779914D01*
X40823486Y-137565629D01*
X40894915Y-137279914D01*
X40966343Y-137137057D01*
X41109201Y-136994200D01*
X41323486Y-136922771D01*
X41466343Y-136922771D01*
X41680629Y-136994200D01*
X41752058Y-137065629D01*
X42394915Y-136922771D02*
X42394915Y-138137057D01*
X42466343Y-138279914D01*
X42537772Y-138351343D01*
X42680629Y-138422771D01*
X42966343Y-138422771D01*
X43109201Y-138351343D01*
X43180629Y-138279914D01*
X43252058Y-138137057D01*
X43252058Y-136922771D01*
X43966344Y-138422771D02*
X43966344Y-136922771D01*
X44466344Y-136922771D02*
X45323487Y-136922771D01*
X44894916Y-138422771D02*
X44894916Y-136922771D01*
X45752058Y-138351343D02*
X45966344Y-138422771D01*
X46323487Y-138422771D01*
X46466344Y-138351343D01*
X46537773Y-138279914D01*
X46609201Y-138137057D01*
X46609201Y-137994200D01*
X46537773Y-137851343D01*
X46466344Y-137779914D01*
X46323487Y-137708486D01*
X46037773Y-137637057D01*
X45894915Y-137565629D01*
X45823487Y-137494200D01*
X45752058Y-137351343D01*
X45752058Y-137208486D01*
X45823487Y-137065629D01*
X45894915Y-136994200D01*
X46037773Y-136922771D01*
X46394915Y-136922771D01*
X46609201Y-136994200D01*
X37185887Y-135739914D02*
X37114458Y-135811343D01*
X36900172Y-135882771D01*
X36757315Y-135882771D01*
X36543030Y-135811343D01*
X36400172Y-135668486D01*
X36328744Y-135525629D01*
X36257315Y-135239914D01*
X36257315Y-135025629D01*
X36328744Y-134739914D01*
X36400172Y-134597057D01*
X36543030Y-134454200D01*
X36757315Y-134382771D01*
X36900172Y-134382771D01*
X37114458Y-134454200D01*
X37185887Y-134525629D01*
X38685887Y-135882771D02*
X38185887Y-135168486D01*
X37828744Y-135882771D02*
X37828744Y-134382771D01*
X38400172Y-134382771D01*
X38543030Y-134454200D01*
X38614458Y-134525629D01*
X38685887Y-134668486D01*
X38685887Y-134882771D01*
X38614458Y-135025629D01*
X38543030Y-135097057D01*
X38400172Y-135168486D01*
X37828744Y-135168486D01*
X39257315Y-135454200D02*
X39971601Y-135454200D01*
X39114458Y-135882771D02*
X39614458Y-134382771D01*
X40114458Y-135882771D01*
X40471601Y-134382771D02*
X41471601Y-134382771D01*
X40471601Y-135882771D01*
X41471601Y-135882771D01*
X42328743Y-135168486D02*
X42328743Y-135882771D01*
X41828743Y-134382771D02*
X42328743Y-135168486D01*
X42828743Y-134382771D01*
D12*
X47650400Y-135140700D02*
X46507400Y-136093200D01*
X46316900Y-136093200D02*
X47650400Y-135140700D01*
X47269400Y-135267700D02*
X46316900Y-136093200D01*
X46189900Y-136029700D02*
X47269400Y-135267700D01*
X47078900Y-135331200D02*
X46189900Y-136029700D01*
X45935900Y-136093200D02*
X47078900Y-135331200D01*
X46761400Y-135458200D02*
X45935900Y-136093200D01*
X45808900Y-136029700D02*
X46761400Y-135458200D01*
X46570900Y-135458200D02*
X45808900Y-136029700D01*
X45808900Y-135902700D02*
X46570900Y-135458200D01*
X46316900Y-135458200D02*
X45808900Y-135902700D01*
X45745400Y-135775700D02*
X46316900Y-135458200D01*
X46316900Y-135267700D02*
X45745400Y-135775700D01*
X46316900Y-135140700D02*
X45681900Y-135648700D01*
X46443900Y-134950200D02*
X45618400Y-135521700D01*
X46443900Y-134823200D02*
X45618400Y-135394700D01*
D15*
X44602400Y-136029700D02*
X43967400Y-135140700D01*
D12*
X46507400Y-136156700D02*
X44538900Y-136156700D01*
X48094900Y-135013700D02*
X46507400Y-136156700D01*
X46316900Y-135458200D02*
X48094900Y-135013700D01*
X46634400Y-134569200D02*
X46316900Y-135458200D01*
X45554900Y-135267700D02*
X46634400Y-134569200D01*
X44729400Y-133807200D02*
X45554900Y-135331200D01*
X44792900Y-135204200D02*
X44729400Y-133807200D01*
X43713400Y-134950200D02*
X44792900Y-135204200D01*
X44538900Y-136156700D02*
X43713400Y-134950200D01*
D15*
X44792900Y-136029700D02*
X44157900Y-135140700D01*
X44983400Y-136029700D02*
X44411900Y-135204200D01*
X45110400Y-136029700D02*
X44665900Y-135267700D01*
X45364400Y-136029700D02*
X44919900Y-135204200D01*
X45554900Y-136029700D02*
X44983400Y-134950200D01*
X45745400Y-136029700D02*
X44856400Y-134315200D01*
X44919900Y-135013700D02*
X44856400Y-134188200D01*
D16*
X49609800Y-126316300D03*
X49609800Y-123776300D03*
X49609800Y-121236300D03*
X49609800Y-118696300D03*
X49609800Y-116156300D03*
X49609800Y-113616300D03*
X49609800Y-111076300D03*
X49609800Y-108536300D03*
X49609800Y-105996300D03*
X49609800Y-103456300D03*
X49609800Y-100916300D03*
X49609800Y-98376300D03*
X49609800Y-95836300D03*
X49609800Y-93296300D03*
X34369800Y-93296300D03*
X34369800Y-100916300D03*
X34369800Y-121236300D03*
X34369800Y-105996300D03*
X34369800Y-103456300D03*
X34369800Y-123776300D03*
X34369800Y-116156300D03*
X34369800Y-126316300D03*
X34369800Y-113616300D03*
X34369800Y-111076300D03*
X34369800Y-108536300D03*
X34369800Y-118696300D03*
X34369800Y-95836300D03*
X34369800Y-98376300D03*
D17*
X26162800Y-105445800D03*
X26163800Y-113445800D03*
X26163800Y-129445800D03*
X26163800Y-97445800D03*
X26163800Y-137445800D03*
X26163800Y-121445800D03*
X26162800Y-89445800D03*
X26162800Y-81445800D03*
X26163800Y-145445800D03*
X34162800Y-145445800D03*
X42162800Y-145445800D03*
X50162800Y-145445800D03*
X42162800Y-73445800D03*
X50162800Y-73445800D03*
X26163800Y-73445800D03*
X34162800Y-73445800D03*
X58162800Y-73445800D03*
X58162800Y-81445800D03*
X58162800Y-89445800D03*
X58162800Y-97445800D03*
X58162800Y-105445800D03*
X58162800Y-113445800D03*
X58162800Y-121445800D03*
X58162800Y-129445800D03*
X58162800Y-137445800D03*
X58162800Y-145445800D03*
D16*
X34369800Y-90756300D03*
X49609800Y-90756300D03*
M02*
