%TF.GenerationSoftware,KiCad,Pcbnew,4.0.5-e0-6337~49~ubuntu16.04.1*%
%TF.CreationDate,2017-02-14T00:23:44-08:00*%
%TF.ProjectId,5x10-Arduino-Nano-Breakout,357831302D41726475696E6F2D4E616E,1.0*%
%TF.FileFunction,Copper,L1,Top,Signal*%
%FSLAX46Y46*%
G04 Gerber Fmt 4.6, Leading zero omitted, Abs format (unit mm)*
G04 Created by KiCad (PCBNEW 4.0.5-e0-6337~49~ubuntu16.04.1) date Tue Feb 14 00:23:44 2017*
%MOMM*%
%LPD*%
G01*
G04 APERTURE LIST*
%ADD10C,0.350000*%
%ADD11C,1.727200*%
%ADD12C,6.000000*%
%ADD13O,15.240000X7.620000*%
%ADD14C,0.685800*%
%ADD15C,0.508000*%
%ADD16C,0.330200*%
%ADD17C,0.350000*%
G04 APERTURE END LIST*
D10*
D11*
X49609800Y-126316300D03*
X49609800Y-123776300D03*
X49609800Y-121236300D03*
X49609800Y-118696300D03*
X49609800Y-116156300D03*
X49609800Y-113616300D03*
X49609800Y-111076300D03*
X49609800Y-108536300D03*
X49609800Y-105996300D03*
X49609800Y-103456300D03*
X49609800Y-100916300D03*
X49609800Y-98376300D03*
X49609800Y-95836300D03*
X49609800Y-93296300D03*
X34369800Y-93296300D03*
X34369800Y-100916300D03*
X34369800Y-121236300D03*
X34369800Y-105996300D03*
X34369800Y-103456300D03*
X34369800Y-123776300D03*
X34369800Y-116156300D03*
X34369800Y-126316300D03*
X34369800Y-113616300D03*
X34369800Y-111076300D03*
X34369800Y-108536300D03*
X34369800Y-118696300D03*
X34369800Y-95836300D03*
X34369800Y-98376300D03*
D12*
X26162800Y-105445800D03*
X26163800Y-113445800D03*
X26163800Y-129445800D03*
X26163800Y-97445800D03*
X26163800Y-137445800D03*
X26163800Y-121445800D03*
X26162800Y-89445800D03*
X26162800Y-81445800D03*
X26163800Y-145445800D03*
X34162800Y-145445800D03*
X42162800Y-145445800D03*
X50162800Y-145445800D03*
X42162800Y-73445800D03*
X50162800Y-73445800D03*
X26163800Y-73445800D03*
X34162800Y-73445800D03*
X58162800Y-73445800D03*
X58162800Y-81445800D03*
X58162800Y-89445800D03*
X58162800Y-97445800D03*
X58162800Y-105445800D03*
X58162800Y-113445800D03*
X58162800Y-121445800D03*
X58162800Y-129445800D03*
X58162800Y-137445800D03*
X58162800Y-145445800D03*
D11*
X34369800Y-90756300D03*
X49609800Y-90756300D03*
D13*
X41554400Y-136474200D03*
D14*
X44812800Y-120055800D03*
X47292800Y-122085800D03*
X42162800Y-123785800D03*
X39612800Y-98045800D03*
X37862300Y-93296300D03*
D15*
X34369800Y-87888800D02*
X43292800Y-78965800D01*
X32122800Y-99525800D02*
X32122800Y-87405800D01*
X32122800Y-87405800D02*
X26162800Y-81445800D01*
X33513300Y-100916300D02*
X32122800Y-99525800D01*
X34369800Y-100916300D02*
X33513300Y-100916300D01*
X31052800Y-102195800D02*
X31052800Y-94335800D01*
X31052800Y-94335800D02*
X26162800Y-89445800D01*
X32313300Y-103456300D02*
X31052800Y-102195800D01*
X34369800Y-103456300D02*
X32313300Y-103456300D01*
X30032800Y-103525800D02*
X30032800Y-101314800D01*
X30032800Y-101314800D02*
X26163800Y-97445800D01*
X32503300Y-105996300D02*
X30032800Y-103525800D01*
X34369800Y-105996300D02*
X32503300Y-105996300D01*
X34369800Y-108536300D02*
X29253300Y-108536300D01*
X29253300Y-108536300D02*
X26162800Y-105445800D01*
X26163800Y-113445800D02*
X32000300Y-113445800D01*
X32000300Y-113445800D02*
X34369800Y-111076300D01*
X33942300Y-113616300D02*
X26163800Y-121394800D01*
X26163800Y-121394800D02*
X26163800Y-121445800D01*
X34369800Y-113616300D02*
X33942300Y-113616300D01*
X32192800Y-125885800D02*
X32192800Y-118333300D01*
X32192800Y-118333300D02*
X34369800Y-116156300D01*
X28632800Y-129445800D02*
X32192800Y-125885800D01*
X26163800Y-129445800D02*
X28632800Y-129445800D01*
X41382800Y-120055800D02*
X40202300Y-121236300D01*
X40202300Y-121236300D02*
X34369800Y-121236300D01*
X44812800Y-120055800D02*
X41382800Y-120055800D01*
X41012800Y-122085800D02*
X47292800Y-122085800D01*
X39322300Y-123776300D02*
X41012800Y-122085800D01*
X34369800Y-123776300D02*
X39322300Y-123776300D01*
X34369800Y-126316300D02*
X47033300Y-126316300D01*
X47033300Y-126316300D02*
X58162800Y-137445800D01*
X49609800Y-126316300D02*
X55033300Y-126316300D01*
X55033300Y-126316300D02*
X58162800Y-129445800D01*
X49609800Y-121236300D02*
X57953300Y-121236300D01*
X57953300Y-121236300D02*
X58162800Y-121445800D01*
X49609800Y-118696300D02*
X52912300Y-118696300D01*
X52912300Y-118696300D02*
X58162800Y-113445800D01*
X58162800Y-105445800D02*
X58162800Y-107603300D01*
X58162800Y-107603300D02*
X49609800Y-116156300D01*
X53572800Y-110015800D02*
X53572800Y-102035800D01*
X53572800Y-102035800D02*
X58162800Y-97445800D01*
X49972300Y-113616300D02*
X53572800Y-110015800D01*
X49609800Y-113616300D02*
X49972300Y-113616300D01*
X52432800Y-92105800D02*
X52432800Y-108253300D01*
X52432800Y-108253300D02*
X49609800Y-111076300D01*
X55092800Y-89445800D02*
X52432800Y-92105800D01*
X58162800Y-89445800D02*
X55092800Y-89445800D01*
X51412800Y-107585800D02*
X51412800Y-88195800D01*
X51412800Y-88195800D02*
X58162800Y-81445800D01*
X50462300Y-108536300D02*
X51412800Y-107585800D01*
X49609800Y-108536300D02*
X50462300Y-108536300D01*
X43992800Y-80555800D02*
X51052800Y-80555800D01*
X51052800Y-80555800D02*
X58162800Y-73445800D01*
X36442800Y-88105800D02*
X43992800Y-80555800D01*
X36442800Y-91275800D02*
X36442800Y-88105800D01*
X34422300Y-93296300D02*
X36442800Y-91275800D01*
X34369800Y-93296300D02*
X34422300Y-93296300D01*
X43292800Y-78965800D02*
X44642800Y-78965800D01*
X44642800Y-78965800D02*
X50162800Y-73445800D01*
X34369800Y-90756300D02*
X34369800Y-87888800D01*
X42162800Y-123785800D02*
X49600300Y-123785800D01*
X49600300Y-123785800D02*
X49609800Y-123776300D01*
X49609800Y-98376300D02*
X39943300Y-98376300D01*
X39943300Y-98376300D02*
X39612800Y-98045800D01*
X49490300Y-90875800D02*
X49609800Y-90756300D01*
X49609800Y-93296300D02*
X37862300Y-93296300D01*
D16*
X44812800Y-120055800D03*
X47292800Y-122085800D03*
X42162800Y-123785800D03*
X39612800Y-98045800D03*
X37862300Y-93296300D03*
D17*
X49609800Y-126316300D03*
X49609800Y-123776300D03*
X49609800Y-121236300D03*
X49609800Y-118696300D03*
X49609800Y-116156300D03*
X49609800Y-113616300D03*
X49609800Y-111076300D03*
X49609800Y-108536300D03*
X49609800Y-105996300D03*
X49609800Y-103456300D03*
X49609800Y-100916300D03*
X49609800Y-98376300D03*
X49609800Y-95836300D03*
X49609800Y-93296300D03*
X34369800Y-93296300D03*
X34369800Y-100916300D03*
X34369800Y-121236300D03*
X34369800Y-105996300D03*
X34369800Y-103456300D03*
X34369800Y-123776300D03*
X34369800Y-116156300D03*
X34369800Y-126316300D03*
X34369800Y-113616300D03*
X34369800Y-111076300D03*
X34369800Y-108536300D03*
X34369800Y-118696300D03*
X34369800Y-95836300D03*
X34369800Y-98376300D03*
X26162800Y-105445800D03*
X26163800Y-113445800D03*
X26163800Y-129445800D03*
X26163800Y-97445800D03*
X26163800Y-137445800D03*
X26163800Y-121445800D03*
X26162800Y-89445800D03*
X26162800Y-81445800D03*
X26163800Y-145445800D03*
X34162800Y-145445800D03*
X42162800Y-145445800D03*
X50162800Y-145445800D03*
X42162800Y-73445800D03*
X50162800Y-73445800D03*
X26163800Y-73445800D03*
X34162800Y-73445800D03*
X58162800Y-73445800D03*
X58162800Y-81445800D03*
X58162800Y-89445800D03*
X58162800Y-97445800D03*
X58162800Y-105445800D03*
X58162800Y-113445800D03*
X58162800Y-121445800D03*
X58162800Y-129445800D03*
X58162800Y-137445800D03*
X58162800Y-145445800D03*
X34369800Y-90756300D03*
X49609800Y-90756300D03*
M02*
