%TF.GenerationSoftware,KiCad,Pcbnew,4.0.5-e0-6337~49~ubuntu16.04.1*%
%TF.CreationDate,2017-02-03T12:40:07-08:00*%
%TF.ProjectId,5x10-Arduino-Nano-Breakout,357831302D41726475696E6F2D4E616E,1.0*%
%TF.FileFunction,Copper,L1,Top,Signal*%
%FSLAX46Y46*%
G04 Gerber Fmt 4.6, Leading zero omitted, Abs format (unit mm)*
G04 Created by KiCad (PCBNEW 4.0.5-e0-6337~49~ubuntu16.04.1) date Fri Feb  3 12:40:07 2017*
%MOMM*%
%LPD*%
G01*
G04 APERTURE LIST*
%ADD10C,0.350000*%
%ADD11C,1.727200*%
%ADD12C,6.000000*%
%ADD13O,15.240000X7.620000*%
%ADD14C,0.685800*%
%ADD15C,0.508000*%
%ADD16C,0.330200*%
%ADD17C,0.350000*%
G04 APERTURE END LIST*
D10*
D11*
X124997000Y-119280500D03*
X124997000Y-116740500D03*
X124997000Y-114200500D03*
X124997000Y-111660500D03*
X124997000Y-109120500D03*
X124997000Y-106580500D03*
X124997000Y-104040500D03*
X124997000Y-101500500D03*
X124997000Y-98960500D03*
X124997000Y-96420500D03*
X124997000Y-93880500D03*
X124997000Y-91340500D03*
X124997000Y-88800500D03*
X124997000Y-86260500D03*
X109757000Y-86260500D03*
X109757000Y-93880500D03*
X109757000Y-114200500D03*
X109757000Y-98960500D03*
X109757000Y-96420500D03*
X109757000Y-116740500D03*
X109757000Y-109120500D03*
X109757000Y-119280500D03*
X109757000Y-106580500D03*
X109757000Y-104040500D03*
X109757000Y-101500500D03*
X109757000Y-111660500D03*
X109757000Y-88800500D03*
X109757000Y-91340500D03*
D12*
X101550000Y-98410000D03*
X101551000Y-106410000D03*
X101551000Y-122410000D03*
X101551000Y-90410000D03*
X101551000Y-130410000D03*
X101551000Y-114410000D03*
X101550000Y-82410000D03*
X101550000Y-74410000D03*
X101551000Y-138410000D03*
X109550000Y-138410000D03*
X117550000Y-138410000D03*
X125550000Y-138410000D03*
X117550000Y-66410000D03*
X125550000Y-66410000D03*
X101551000Y-66410000D03*
X109550000Y-66410000D03*
X133550000Y-66410000D03*
X133550000Y-74410000D03*
X133550000Y-82410000D03*
X133550000Y-90410000D03*
X133550000Y-98410000D03*
X133550000Y-106410000D03*
X133550000Y-114410000D03*
X133550000Y-122410000D03*
X133550000Y-130410000D03*
X133550000Y-138410000D03*
D11*
X109757000Y-83720500D03*
X124997000Y-83720500D03*
D13*
X116941600Y-129438400D03*
D14*
X120200000Y-113020000D03*
X122680000Y-115050000D03*
X117550000Y-116750000D03*
X115000000Y-91010000D03*
X113249500Y-86260500D03*
D15*
X107510000Y-92490000D02*
X107510000Y-80370000D01*
X107510000Y-80370000D02*
X101550000Y-74410000D01*
X108900500Y-93880500D02*
X107510000Y-92490000D01*
X109757000Y-93880500D02*
X108900500Y-93880500D01*
X106440000Y-95160000D02*
X106440000Y-87300000D01*
X106440000Y-87300000D02*
X101550000Y-82410000D01*
X107700500Y-96420500D02*
X106440000Y-95160000D01*
X109757000Y-96420500D02*
X107700500Y-96420500D01*
X105420000Y-96490000D02*
X105420000Y-94279000D01*
X105420000Y-94279000D02*
X101551000Y-90410000D01*
X107890500Y-98960500D02*
X105420000Y-96490000D01*
X109757000Y-98960500D02*
X107890500Y-98960500D01*
X109757000Y-101500500D02*
X104640500Y-101500500D01*
X104640500Y-101500500D02*
X101550000Y-98410000D01*
X101551000Y-106410000D02*
X107387500Y-106410000D01*
X107387500Y-106410000D02*
X109757000Y-104040500D01*
X109329500Y-106580500D02*
X101551000Y-114359000D01*
X101551000Y-114359000D02*
X101551000Y-114410000D01*
X109757000Y-106580500D02*
X109329500Y-106580500D01*
X107580000Y-118850000D02*
X107580000Y-111297500D01*
X107580000Y-111297500D02*
X109757000Y-109120500D01*
X104020000Y-122410000D02*
X107580000Y-118850000D01*
X101551000Y-122410000D02*
X104020000Y-122410000D01*
X116770000Y-113020000D02*
X115589500Y-114200500D01*
X115589500Y-114200500D02*
X109757000Y-114200500D01*
X120200000Y-113020000D02*
X116770000Y-113020000D01*
X116400000Y-115050000D02*
X122680000Y-115050000D01*
X114709500Y-116740500D02*
X116400000Y-115050000D01*
X109757000Y-116740500D02*
X114709500Y-116740500D01*
X109757000Y-119280500D02*
X122420500Y-119280500D01*
X122420500Y-119280500D02*
X133550000Y-130410000D01*
X124997000Y-119280500D02*
X130420500Y-119280500D01*
X130420500Y-119280500D02*
X133550000Y-122410000D01*
X124997000Y-114200500D02*
X133340500Y-114200500D01*
X133340500Y-114200500D02*
X133550000Y-114410000D01*
X124997000Y-111660500D02*
X128299500Y-111660500D01*
X128299500Y-111660500D02*
X133550000Y-106410000D01*
X133550000Y-98410000D02*
X133550000Y-100567500D01*
X133550000Y-100567500D02*
X124997000Y-109120500D01*
X128960000Y-102980000D02*
X128960000Y-95000000D01*
X128960000Y-95000000D02*
X133550000Y-90410000D01*
X125359500Y-106580500D02*
X128960000Y-102980000D01*
X124997000Y-106580500D02*
X125359500Y-106580500D01*
X127820000Y-85070000D02*
X127820000Y-101217500D01*
X127820000Y-101217500D02*
X124997000Y-104040500D01*
X130480000Y-82410000D02*
X127820000Y-85070000D01*
X133550000Y-82410000D02*
X130480000Y-82410000D01*
X126800000Y-100550000D02*
X126800000Y-81160000D01*
X126800000Y-81160000D02*
X133550000Y-74410000D01*
X125849500Y-101500500D02*
X126800000Y-100550000D01*
X124997000Y-101500500D02*
X125849500Y-101500500D01*
X119380000Y-73520000D02*
X126440000Y-73520000D01*
X126440000Y-73520000D02*
X133550000Y-66410000D01*
X111830000Y-81070000D02*
X119380000Y-73520000D01*
X111830000Y-84240000D02*
X111830000Y-81070000D01*
X109809500Y-86260500D02*
X111830000Y-84240000D01*
X109757000Y-86260500D02*
X109809500Y-86260500D01*
X118680000Y-71930000D02*
X120030000Y-71930000D01*
X120030000Y-71930000D02*
X125550000Y-66410000D01*
X109757000Y-80853000D02*
X118680000Y-71930000D01*
X109757000Y-83720500D02*
X109757000Y-80853000D01*
X117550000Y-116750000D02*
X124987500Y-116750000D01*
X124987500Y-116750000D02*
X124997000Y-116740500D01*
X124997000Y-91340500D02*
X115330500Y-91340500D01*
X115330500Y-91340500D02*
X115000000Y-91010000D01*
X124877500Y-83840000D02*
X124997000Y-83720500D01*
X124997000Y-86260500D02*
X113249500Y-86260500D01*
D16*
X120200000Y-113020000D03*
X122680000Y-115050000D03*
X117550000Y-116750000D03*
X115000000Y-91010000D03*
X113249500Y-86260500D03*
D17*
X124997000Y-119280500D03*
X124997000Y-116740500D03*
X124997000Y-114200500D03*
X124997000Y-111660500D03*
X124997000Y-109120500D03*
X124997000Y-106580500D03*
X124997000Y-104040500D03*
X124997000Y-101500500D03*
X124997000Y-98960500D03*
X124997000Y-96420500D03*
X124997000Y-93880500D03*
X124997000Y-91340500D03*
X124997000Y-88800500D03*
X124997000Y-86260500D03*
X109757000Y-86260500D03*
X109757000Y-93880500D03*
X109757000Y-114200500D03*
X109757000Y-98960500D03*
X109757000Y-96420500D03*
X109757000Y-116740500D03*
X109757000Y-109120500D03*
X109757000Y-119280500D03*
X109757000Y-106580500D03*
X109757000Y-104040500D03*
X109757000Y-101500500D03*
X109757000Y-111660500D03*
X109757000Y-88800500D03*
X109757000Y-91340500D03*
X101550000Y-98410000D03*
X101551000Y-106410000D03*
X101551000Y-122410000D03*
X101551000Y-90410000D03*
X101551000Y-130410000D03*
X101551000Y-114410000D03*
X101550000Y-82410000D03*
X101550000Y-74410000D03*
X101551000Y-138410000D03*
X109550000Y-138410000D03*
X117550000Y-138410000D03*
X125550000Y-138410000D03*
X117550000Y-66410000D03*
X125550000Y-66410000D03*
X101551000Y-66410000D03*
X109550000Y-66410000D03*
X133550000Y-66410000D03*
X133550000Y-74410000D03*
X133550000Y-82410000D03*
X133550000Y-90410000D03*
X133550000Y-98410000D03*
X133550000Y-106410000D03*
X133550000Y-114410000D03*
X133550000Y-122410000D03*
X133550000Y-130410000D03*
X133550000Y-138410000D03*
X109757000Y-83720500D03*
X124997000Y-83720500D03*
M02*
