%TF.GenerationSoftware,KiCad,Pcbnew,4.0.5-e0-6337~49~ubuntu16.04.1*%
%TF.CreationDate,2017-02-14T00:23:44-08:00*%
%TF.ProjectId,5x10-Arduino-Nano-Breakout,357831302D41726475696E6F2D4E616E,1.0*%
%TF.FileFunction,Other,Fab,Top*%
%FSLAX46Y46*%
G04 Gerber Fmt 4.6, Leading zero omitted, Abs format (unit mm)*
G04 Created by KiCad (PCBNEW 4.0.5-e0-6337~49~ubuntu16.04.1) date Tue Feb 14 00:23:44 2017*
%MOMM*%
%LPD*%
G01*
G04 APERTURE LIST*
%ADD10C,0.350000*%
%ADD11C,0.152400*%
%ADD12C,0.040640*%
%ADD13C,0.150000*%
G04 APERTURE END LIST*
D10*
D11*
X33832800Y-131495800D02*
X31292800Y-131495800D01*
X33832800Y-131495800D02*
X38912800Y-131495800D01*
X43992800Y-131495800D02*
X51612800Y-131495800D01*
X43992800Y-128955800D02*
X43992800Y-131495800D01*
X38912800Y-128955800D02*
X43992800Y-128955800D01*
X38912800Y-131495800D02*
X38912800Y-128955800D01*
X40170705Y-125859419D02*
X40170705Y-126681895D01*
X40219086Y-126778657D01*
X40267467Y-126827038D01*
X40364229Y-126875419D01*
X40557752Y-126875419D01*
X40654514Y-126827038D01*
X40702895Y-126778657D01*
X40751276Y-126681895D01*
X40751276Y-125859419D01*
X41186705Y-126827038D02*
X41331848Y-126875419D01*
X41573752Y-126875419D01*
X41670514Y-126827038D01*
X41718895Y-126778657D01*
X41767276Y-126681895D01*
X41767276Y-126585133D01*
X41718895Y-126488371D01*
X41670514Y-126439990D01*
X41573752Y-126391610D01*
X41380229Y-126343229D01*
X41283467Y-126294848D01*
X41235086Y-126246467D01*
X41186705Y-126149705D01*
X41186705Y-126052943D01*
X41235086Y-125956181D01*
X41283467Y-125907800D01*
X41380229Y-125859419D01*
X41622133Y-125859419D01*
X41767276Y-125907800D01*
X42541371Y-126343229D02*
X42686514Y-126391610D01*
X42734895Y-126439990D01*
X42783276Y-126536752D01*
X42783276Y-126681895D01*
X42734895Y-126778657D01*
X42686514Y-126827038D01*
X42589752Y-126875419D01*
X42202705Y-126875419D01*
X42202705Y-125859419D01*
X42541371Y-125859419D01*
X42638133Y-125907800D01*
X42686514Y-125956181D01*
X42734895Y-126052943D01*
X42734895Y-126149705D01*
X42686514Y-126246467D01*
X42638133Y-126294848D01*
X42541371Y-126343229D01*
X42202705Y-126343229D01*
X31292800Y-85775800D02*
X33832800Y-85775800D01*
X31292800Y-131495800D02*
X31292800Y-85775800D01*
X51612800Y-85775800D02*
X51612800Y-131495800D01*
X33832800Y-85775800D02*
X51612800Y-85775800D01*
D12*
X26162800Y-149345800D02*
X58162800Y-149345800D01*
X58162800Y-69545800D02*
X26162800Y-69545800D01*
X22262800Y-73445800D02*
X22262800Y-145445800D01*
X22262806Y-145452607D02*
G75*
G03X26162800Y-149345800I3899994J6807D01*
G01*
X26162800Y-69545800D02*
G75*
G03X22262800Y-73445800I0J-3900000D01*
G01*
X62062800Y-145445800D02*
X62062800Y-73445800D01*
X62062794Y-73438993D02*
G75*
G03X58162800Y-69545800I-3899994J-6807D01*
G01*
X58162800Y-149345800D02*
G75*
G03X62062800Y-145445800I0J3900000D01*
G01*
D13*
X37561657Y-108713767D02*
X38037848Y-108713767D01*
X37466419Y-108999481D02*
X37799752Y-107999481D01*
X38133086Y-108999481D01*
X38466419Y-108999481D02*
X38466419Y-108332814D01*
X38466419Y-108523290D02*
X38514038Y-108428052D01*
X38561657Y-108380433D01*
X38656895Y-108332814D01*
X38752134Y-108332814D01*
X39514039Y-108999481D02*
X39514039Y-107999481D01*
X39514039Y-108951862D02*
X39418801Y-108999481D01*
X39228324Y-108999481D01*
X39133086Y-108951862D01*
X39085467Y-108904243D01*
X39037848Y-108809005D01*
X39037848Y-108523290D01*
X39085467Y-108428052D01*
X39133086Y-108380433D01*
X39228324Y-108332814D01*
X39418801Y-108332814D01*
X39514039Y-108380433D01*
X40418801Y-108332814D02*
X40418801Y-108999481D01*
X39990229Y-108332814D02*
X39990229Y-108856624D01*
X40037848Y-108951862D01*
X40133086Y-108999481D01*
X40275944Y-108999481D01*
X40371182Y-108951862D01*
X40418801Y-108904243D01*
X40894991Y-108999481D02*
X40894991Y-108332814D01*
X40894991Y-107999481D02*
X40847372Y-108047100D01*
X40894991Y-108094719D01*
X40942610Y-108047100D01*
X40894991Y-107999481D01*
X40894991Y-108094719D01*
X41371181Y-108332814D02*
X41371181Y-108999481D01*
X41371181Y-108428052D02*
X41418800Y-108380433D01*
X41514038Y-108332814D01*
X41656896Y-108332814D01*
X41752134Y-108380433D01*
X41799753Y-108475671D01*
X41799753Y-108999481D01*
X42418800Y-108999481D02*
X42323562Y-108951862D01*
X42275943Y-108904243D01*
X42228324Y-108809005D01*
X42228324Y-108523290D01*
X42275943Y-108428052D01*
X42323562Y-108380433D01*
X42418800Y-108332814D01*
X42561658Y-108332814D01*
X42656896Y-108380433D01*
X42704515Y-108428052D01*
X42752134Y-108523290D01*
X42752134Y-108809005D01*
X42704515Y-108904243D01*
X42656896Y-108951862D01*
X42561658Y-108999481D01*
X42418800Y-108999481D01*
X43942610Y-108999481D02*
X43942610Y-107999481D01*
X44514039Y-108999481D01*
X44514039Y-107999481D01*
X45418801Y-108999481D02*
X45418801Y-108475671D01*
X45371182Y-108380433D01*
X45275944Y-108332814D01*
X45085467Y-108332814D01*
X44990229Y-108380433D01*
X45418801Y-108951862D02*
X45323563Y-108999481D01*
X45085467Y-108999481D01*
X44990229Y-108951862D01*
X44942610Y-108856624D01*
X44942610Y-108761386D01*
X44990229Y-108666148D01*
X45085467Y-108618529D01*
X45323563Y-108618529D01*
X45418801Y-108570910D01*
X45894991Y-108332814D02*
X45894991Y-108999481D01*
X45894991Y-108428052D02*
X45942610Y-108380433D01*
X46037848Y-108332814D01*
X46180706Y-108332814D01*
X46275944Y-108380433D01*
X46323563Y-108475671D01*
X46323563Y-108999481D01*
X46942610Y-108999481D02*
X46847372Y-108951862D01*
X46799753Y-108904243D01*
X46752134Y-108809005D01*
X46752134Y-108523290D01*
X46799753Y-108428052D01*
X46847372Y-108380433D01*
X46942610Y-108332814D01*
X47085468Y-108332814D01*
X47180706Y-108380433D01*
X47228325Y-108428052D01*
X47275944Y-108523290D01*
X47275944Y-108809005D01*
X47228325Y-108904243D01*
X47180706Y-108951862D01*
X47085468Y-108999481D01*
X46942610Y-108999481D01*
X40316305Y-137335521D02*
X39840114Y-137335521D01*
X39840114Y-136335521D01*
X40840114Y-136335521D02*
X41030591Y-136335521D01*
X41125829Y-136383140D01*
X41221067Y-136478378D01*
X41268686Y-136668854D01*
X41268686Y-137002188D01*
X41221067Y-137192664D01*
X41125829Y-137287902D01*
X41030591Y-137335521D01*
X40840114Y-137335521D01*
X40744876Y-137287902D01*
X40649638Y-137192664D01*
X40602019Y-137002188D01*
X40602019Y-136668854D01*
X40649638Y-136478378D01*
X40744876Y-136383140D01*
X40840114Y-136335521D01*
X42221067Y-136383140D02*
X42125829Y-136335521D01*
X41982972Y-136335521D01*
X41840114Y-136383140D01*
X41744876Y-136478378D01*
X41697257Y-136573616D01*
X41649638Y-136764092D01*
X41649638Y-136906950D01*
X41697257Y-137097426D01*
X41744876Y-137192664D01*
X41840114Y-137287902D01*
X41982972Y-137335521D01*
X42078210Y-137335521D01*
X42221067Y-137287902D01*
X42268686Y-137240283D01*
X42268686Y-136906950D01*
X42078210Y-136906950D01*
X42887733Y-136335521D02*
X43078210Y-136335521D01*
X43173448Y-136383140D01*
X43268686Y-136478378D01*
X43316305Y-136668854D01*
X43316305Y-137002188D01*
X43268686Y-137192664D01*
X43173448Y-137287902D01*
X43078210Y-137335521D01*
X42887733Y-137335521D01*
X42792495Y-137287902D01*
X42697257Y-137192664D01*
X42649638Y-137002188D01*
X42649638Y-136668854D01*
X42697257Y-136478378D01*
X42792495Y-136383140D01*
X42887733Y-136335521D01*
M02*
