%TF.GenerationSoftware,KiCad,Pcbnew,4.0.5-e0-6337~49~ubuntu16.04.1*%
%TF.CreationDate,2017-05-28T07:56:43-07:00*%
%TF.ProjectId,2x3-Push-Terminal-3mm-Pitch-SMT,3278332D507573682D5465726D696E61,v1.1*%
%TF.FileFunction,Soldermask,Top*%
%FSLAX46Y46*%
G04 Gerber Fmt 4.6, Leading zero omitted, Abs format (unit mm)*
G04 Created by KiCad (PCBNEW 4.0.5-e0-6337~49~ubuntu16.04.1) date Sun May 28 07:56:43 2017*
%MOMM*%
%LPD*%
G01*
G04 APERTURE LIST*
%ADD10C,0.350000*%
%ADD11C,0.600000*%
G04 APERTURE END LIST*
D10*
D11*
X21378365Y-27997593D02*
G75*
G03X16877000Y-26101000I-1770865J2087093D01*
G01*
X16850547Y-33911500D02*
G75*
G03X21322000Y-31752500I2756953J0D01*
G01*
X14335147Y-26125919D02*
G75*
G03X8876000Y-26101000I-2728647J215419D01*
G01*
X8876674Y-33850838D02*
G75*
G03X14337000Y-33911500I2729826J-60662D01*
G01*
D10*
G36*
X3928610Y-30837347D02*
X4519555Y-30958651D01*
X5075698Y-31192432D01*
X5575834Y-31529778D01*
X6000921Y-31957843D01*
X6334766Y-32460321D01*
X6564656Y-33018076D01*
X6681764Y-33609514D01*
X6681764Y-33609524D01*
X6681831Y-33609863D01*
X6672210Y-34298916D01*
X6672133Y-34299254D01*
X6672133Y-34299262D01*
X6538557Y-34887201D01*
X6293185Y-35438316D01*
X5945437Y-35931278D01*
X5508562Y-36347309D01*
X4999200Y-36670561D01*
X4436754Y-36888719D01*
X3842647Y-36993476D01*
X3239503Y-36980842D01*
X2650300Y-36851297D01*
X2097482Y-36609777D01*
X1602107Y-36265482D01*
X1183037Y-35831523D01*
X856238Y-35324430D01*
X634156Y-34763514D01*
X525255Y-34170158D01*
X533677Y-33566941D01*
X659106Y-32976847D01*
X896759Y-32422358D01*
X1237591Y-31924588D01*
X1668612Y-31502500D01*
X2173413Y-31172168D01*
X2732759Y-30946177D01*
X3325345Y-30833136D01*
X3928610Y-30837347D01*
X3928610Y-30837347D01*
G37*
G36*
X19931700Y-32287700D02*
X17279300Y-32287700D01*
X17279300Y-30735300D01*
X19931700Y-30735300D01*
X19931700Y-32287700D01*
X19931700Y-32287700D01*
G37*
G36*
X13931700Y-32287700D02*
X11279300Y-32287700D01*
X11279300Y-30735300D01*
X13931700Y-30735300D01*
X13931700Y-32287700D01*
X13931700Y-32287700D01*
G37*
G36*
X19931700Y-29287700D02*
X17279300Y-29287700D01*
X17279300Y-27735300D01*
X19931700Y-27735300D01*
X19931700Y-29287700D01*
X19931700Y-29287700D01*
G37*
G36*
X13931700Y-29287700D02*
X11279300Y-29287700D01*
X11279300Y-27735300D01*
X13931700Y-27735300D01*
X13931700Y-29287700D01*
X13931700Y-29287700D01*
G37*
G36*
X3928610Y-22837347D02*
X4519555Y-22958651D01*
X5075698Y-23192432D01*
X5575834Y-23529778D01*
X6000921Y-23957843D01*
X6334766Y-24460321D01*
X6564656Y-25018076D01*
X6681764Y-25609514D01*
X6681764Y-25609524D01*
X6681831Y-25609863D01*
X6672210Y-26298916D01*
X6672133Y-26299254D01*
X6672133Y-26299262D01*
X6538557Y-26887201D01*
X6293185Y-27438316D01*
X5945437Y-27931278D01*
X5508562Y-28347309D01*
X4999200Y-28670561D01*
X4436754Y-28888719D01*
X3842647Y-28993476D01*
X3239503Y-28980842D01*
X2650300Y-28851297D01*
X2097482Y-28609777D01*
X1602107Y-28265482D01*
X1183037Y-27831523D01*
X856238Y-27324430D01*
X634156Y-26763514D01*
X525255Y-26170158D01*
X533677Y-25566941D01*
X659106Y-24976847D01*
X896759Y-24422358D01*
X1237591Y-23924588D01*
X1668612Y-23502500D01*
X2173413Y-23172168D01*
X2732759Y-22946177D01*
X3325345Y-22833136D01*
X3928610Y-22837347D01*
X3928610Y-22837347D01*
G37*
M02*
