%TF.GenerationSoftware,KiCad,Pcbnew,4.0.5-e0-6337~49~ubuntu16.04.1*%
%TF.CreationDate,2017-03-23T12:35:53-07:00*%
%TF.ProjectId,2x3-Push-Terminal-3mm-Pitch-SMT,3278332D507573682D5465726D696E61,1.0*%
%TF.FileFunction,Soldermask,Bot*%
%FSLAX46Y46*%
G04 Gerber Fmt 4.6, Leading zero omitted, Abs format (unit mm)*
G04 Created by KiCad (PCBNEW 4.0.5-e0-6337~49~ubuntu16.04.1) date Thu Mar 23 12:35:53 2017*
%MOMM*%
%LPD*%
G01*
G04 APERTURE LIST*
%ADD10C,0.350000*%
%ADD11C,7.200000*%
G04 APERTURE END LIST*
D10*
D11*
X19957320Y-21844000D02*
X3957320Y-21844000D01*
X19957320Y-29844000D02*
X3957320Y-29844000D01*
D10*
G36*
X4280430Y-26769847D02*
X4871375Y-26891151D01*
X5427518Y-27124932D01*
X5927654Y-27462278D01*
X6352741Y-27890343D01*
X6686586Y-28392821D01*
X6916476Y-28950576D01*
X7033584Y-29542014D01*
X7033584Y-29542024D01*
X7033651Y-29542363D01*
X7024030Y-30231416D01*
X7023953Y-30231754D01*
X7023953Y-30231762D01*
X6890377Y-30819701D01*
X6645005Y-31370816D01*
X6297257Y-31863778D01*
X5860382Y-32279809D01*
X5351020Y-32603061D01*
X4788574Y-32821219D01*
X4194467Y-32925976D01*
X3591323Y-32913342D01*
X3002120Y-32783797D01*
X2449302Y-32542277D01*
X1953927Y-32197982D01*
X1534857Y-31764023D01*
X1208058Y-31256930D01*
X985976Y-30696014D01*
X877075Y-30102658D01*
X885497Y-29499441D01*
X1010926Y-28909347D01*
X1248579Y-28354858D01*
X1589411Y-27857088D01*
X2020432Y-27435000D01*
X2525233Y-27104668D01*
X3084579Y-26878677D01*
X3677165Y-26765636D01*
X4280430Y-26769847D01*
X4280430Y-26769847D01*
G37*
G36*
X12280430Y-26769847D02*
X12871375Y-26891151D01*
X13427518Y-27124932D01*
X13927654Y-27462278D01*
X14352741Y-27890343D01*
X14686586Y-28392821D01*
X14916476Y-28950576D01*
X15033584Y-29542014D01*
X15033584Y-29542024D01*
X15033651Y-29542363D01*
X15024030Y-30231416D01*
X15023953Y-30231754D01*
X15023953Y-30231762D01*
X14890377Y-30819701D01*
X14645005Y-31370816D01*
X14297257Y-31863778D01*
X13860382Y-32279809D01*
X13351020Y-32603061D01*
X12788574Y-32821219D01*
X12194467Y-32925976D01*
X11591323Y-32913342D01*
X11002120Y-32783797D01*
X10449302Y-32542277D01*
X9953927Y-32197982D01*
X9534857Y-31764023D01*
X9208058Y-31256930D01*
X8985976Y-30696014D01*
X8877075Y-30102658D01*
X8885497Y-29499441D01*
X9010926Y-28909347D01*
X9248579Y-28354858D01*
X9589411Y-27857088D01*
X10020432Y-27435000D01*
X10525233Y-27104668D01*
X11084579Y-26878677D01*
X11677165Y-26765636D01*
X12280430Y-26769847D01*
X12280430Y-26769847D01*
G37*
G36*
X20280430Y-26769847D02*
X20871375Y-26891151D01*
X21427518Y-27124932D01*
X21927654Y-27462278D01*
X22352741Y-27890343D01*
X22686586Y-28392821D01*
X22916476Y-28950576D01*
X23033584Y-29542014D01*
X23033584Y-29542024D01*
X23033651Y-29542363D01*
X23024030Y-30231416D01*
X23023953Y-30231754D01*
X23023953Y-30231762D01*
X22890377Y-30819701D01*
X22645005Y-31370816D01*
X22297257Y-31863778D01*
X21860382Y-32279809D01*
X21351020Y-32603061D01*
X20788574Y-32821219D01*
X20194467Y-32925976D01*
X19591323Y-32913342D01*
X19002120Y-32783797D01*
X18449302Y-32542277D01*
X17953927Y-32197982D01*
X17534857Y-31764023D01*
X17208058Y-31256930D01*
X16985976Y-30696014D01*
X16877075Y-30102658D01*
X16885497Y-29499441D01*
X17010926Y-28909347D01*
X17248579Y-28354858D01*
X17589411Y-27857088D01*
X18020432Y-27435000D01*
X18525233Y-27104668D01*
X19084579Y-26878677D01*
X19677165Y-26765636D01*
X20280430Y-26769847D01*
X20280430Y-26769847D01*
G37*
G36*
X16005345Y-26787102D02*
X16093169Y-26805131D01*
X16175831Y-26839878D01*
X16250163Y-26890016D01*
X16313342Y-26953637D01*
X16362958Y-27028316D01*
X16397127Y-27111216D01*
X16414472Y-27198815D01*
X16414472Y-27198830D01*
X16414539Y-27199169D01*
X16413109Y-27301580D01*
X16413033Y-27301914D01*
X16413033Y-27301926D01*
X16393246Y-27389017D01*
X16356780Y-27470923D01*
X16305093Y-27544193D01*
X16240166Y-27606022D01*
X16164458Y-27654068D01*
X16080866Y-27686491D01*
X15992567Y-27702061D01*
X15902924Y-27700182D01*
X15815352Y-27680928D01*
X15733188Y-27645032D01*
X15659566Y-27593863D01*
X15597281Y-27529366D01*
X15548710Y-27453998D01*
X15515701Y-27370627D01*
X15499517Y-27282445D01*
X15500768Y-27192791D01*
X15519411Y-27105086D01*
X15554731Y-27022676D01*
X15605388Y-26948694D01*
X15669448Y-26885962D01*
X15744476Y-26836865D01*
X15827610Y-26803277D01*
X15915680Y-26786477D01*
X16005345Y-26787102D01*
X16005345Y-26787102D01*
G37*
G36*
X16005345Y-24187102D02*
X16093169Y-24205131D01*
X16175831Y-24239878D01*
X16250163Y-24290016D01*
X16313342Y-24353637D01*
X16362958Y-24428316D01*
X16397127Y-24511216D01*
X16414472Y-24598815D01*
X16414472Y-24598830D01*
X16414539Y-24599169D01*
X16413109Y-24701580D01*
X16413033Y-24701914D01*
X16413033Y-24701926D01*
X16393246Y-24789017D01*
X16356780Y-24870923D01*
X16305093Y-24944193D01*
X16240166Y-25006022D01*
X16164458Y-25054068D01*
X16080866Y-25086491D01*
X15992567Y-25102061D01*
X15902924Y-25100182D01*
X15815352Y-25080928D01*
X15733188Y-25045032D01*
X15659566Y-24993863D01*
X15597281Y-24929366D01*
X15548710Y-24853998D01*
X15515701Y-24770627D01*
X15499517Y-24682445D01*
X15500768Y-24592791D01*
X15519411Y-24505086D01*
X15554731Y-24422676D01*
X15605388Y-24348694D01*
X15669448Y-24285962D01*
X15744476Y-24236865D01*
X15827610Y-24203277D01*
X15915680Y-24186477D01*
X16005345Y-24187102D01*
X16005345Y-24187102D01*
G37*
G36*
X4280430Y-18769847D02*
X4871375Y-18891151D01*
X5427518Y-19124932D01*
X5927654Y-19462278D01*
X6352741Y-19890343D01*
X6686586Y-20392821D01*
X6916476Y-20950576D01*
X7033584Y-21542014D01*
X7033584Y-21542024D01*
X7033651Y-21542363D01*
X7024030Y-22231416D01*
X7023953Y-22231754D01*
X7023953Y-22231762D01*
X6890377Y-22819701D01*
X6645005Y-23370816D01*
X6297257Y-23863778D01*
X5860382Y-24279809D01*
X5351020Y-24603061D01*
X4788574Y-24821219D01*
X4194467Y-24925976D01*
X3591323Y-24913342D01*
X3002120Y-24783797D01*
X2449302Y-24542277D01*
X1953927Y-24197982D01*
X1534857Y-23764023D01*
X1208058Y-23256930D01*
X985976Y-22696014D01*
X877075Y-22102658D01*
X885497Y-21499441D01*
X1010926Y-20909347D01*
X1248579Y-20354858D01*
X1589411Y-19857088D01*
X2020432Y-19435000D01*
X2525233Y-19104668D01*
X3084579Y-18878677D01*
X3677165Y-18765636D01*
X4280430Y-18769847D01*
X4280430Y-18769847D01*
G37*
G36*
X12280430Y-18769847D02*
X12871375Y-18891151D01*
X13427518Y-19124932D01*
X13927654Y-19462278D01*
X14352741Y-19890343D01*
X14686586Y-20392821D01*
X14916476Y-20950576D01*
X15033584Y-21542014D01*
X15033584Y-21542024D01*
X15033651Y-21542363D01*
X15024030Y-22231416D01*
X15023953Y-22231754D01*
X15023953Y-22231762D01*
X14890377Y-22819701D01*
X14645005Y-23370816D01*
X14297257Y-23863778D01*
X13860382Y-24279809D01*
X13351020Y-24603061D01*
X12788574Y-24821219D01*
X12194467Y-24925976D01*
X11591323Y-24913342D01*
X11002120Y-24783797D01*
X10449302Y-24542277D01*
X9953927Y-24197982D01*
X9534857Y-23764023D01*
X9208058Y-23256930D01*
X8985976Y-22696014D01*
X8877075Y-22102658D01*
X8885497Y-21499441D01*
X9010926Y-20909347D01*
X9248579Y-20354858D01*
X9589411Y-19857088D01*
X10020432Y-19435000D01*
X10525233Y-19104668D01*
X11084579Y-18878677D01*
X11677165Y-18765636D01*
X12280430Y-18769847D01*
X12280430Y-18769847D01*
G37*
G36*
X20280430Y-18769847D02*
X20871375Y-18891151D01*
X21427518Y-19124932D01*
X21927654Y-19462278D01*
X22352741Y-19890343D01*
X22686586Y-20392821D01*
X22916476Y-20950576D01*
X23033584Y-21542014D01*
X23033584Y-21542024D01*
X23033651Y-21542363D01*
X23024030Y-22231416D01*
X23023953Y-22231754D01*
X23023953Y-22231762D01*
X22890377Y-22819701D01*
X22645005Y-23370816D01*
X22297257Y-23863778D01*
X21860382Y-24279809D01*
X21351020Y-24603061D01*
X20788574Y-24821219D01*
X20194467Y-24925976D01*
X19591323Y-24913342D01*
X19002120Y-24783797D01*
X18449302Y-24542277D01*
X17953927Y-24197982D01*
X17534857Y-23764023D01*
X17208058Y-23256930D01*
X16985976Y-22696014D01*
X16877075Y-22102658D01*
X16885497Y-21499441D01*
X17010926Y-20909347D01*
X17248579Y-20354858D01*
X17589411Y-19857088D01*
X18020432Y-19435000D01*
X18525233Y-19104668D01*
X19084579Y-18878677D01*
X19677165Y-18765636D01*
X20280430Y-18769847D01*
X20280430Y-18769847D01*
G37*
M02*
