%TF.GenerationSoftware,KiCad,Pcbnew,4.0.5-e0-6337~49~ubuntu16.04.1*%
%TF.CreationDate,2017-02-14T02:30:03-08:00*%
%TF.ProjectId,2x3-Servo-Header,3278332D536572766F2D486561646572,1.0*%
%TF.FileFunction,Soldermask,Top*%
%FSLAX46Y46*%
G04 Gerber Fmt 4.6, Leading zero omitted, Abs format (unit mm)*
G04 Created by KiCad (PCBNEW 4.0.5-e0-6337~49~ubuntu16.04.1) date Tue Feb 14 02:30:03 2017*
%MOMM*%
%LPD*%
G01*
G04 APERTURE LIST*
%ADD10C,0.350000*%
G04 APERTURE END LIST*
D10*
G36*
X32337442Y-31959315D02*
X32544177Y-32001752D01*
X32738747Y-32083541D01*
X32913718Y-32201561D01*
X33062433Y-32351318D01*
X33179227Y-32527108D01*
X33259653Y-32722236D01*
X33300578Y-32928924D01*
X33300578Y-32928929D01*
X33300646Y-32929273D01*
X33297280Y-33170336D01*
X33297203Y-33170674D01*
X33297203Y-33170683D01*
X33250522Y-33376149D01*
X33164681Y-33568952D01*
X33043021Y-33741415D01*
X32890182Y-33886962D01*
X32711984Y-34000050D01*
X32515210Y-34076373D01*
X32307367Y-34113022D01*
X32096357Y-34108602D01*
X31890225Y-34063281D01*
X31696822Y-33978785D01*
X31523519Y-33858336D01*
X31376908Y-33706517D01*
X31262578Y-33529110D01*
X31184881Y-33332872D01*
X31146784Y-33125292D01*
X31149730Y-32914258D01*
X31193611Y-32707813D01*
X31276753Y-32513828D01*
X31395993Y-32339683D01*
X31546784Y-32192017D01*
X31723388Y-32076451D01*
X31919075Y-31997388D01*
X32126387Y-31957842D01*
X32337442Y-31959315D01*
X32337442Y-31959315D01*
G37*
G36*
X34877442Y-31959315D02*
X35084177Y-32001752D01*
X35278747Y-32083541D01*
X35453718Y-32201561D01*
X35602433Y-32351318D01*
X35719227Y-32527108D01*
X35799653Y-32722236D01*
X35840578Y-32928924D01*
X35840578Y-32928929D01*
X35840646Y-32929273D01*
X35837280Y-33170336D01*
X35837203Y-33170674D01*
X35837203Y-33170683D01*
X35790522Y-33376149D01*
X35704681Y-33568952D01*
X35583021Y-33741415D01*
X35430182Y-33886962D01*
X35251984Y-34000050D01*
X35055210Y-34076373D01*
X34847367Y-34113022D01*
X34636357Y-34108602D01*
X34430225Y-34063281D01*
X34236822Y-33978785D01*
X34063519Y-33858336D01*
X33916908Y-33706517D01*
X33802578Y-33529110D01*
X33724881Y-33332872D01*
X33686784Y-33125292D01*
X33689730Y-32914258D01*
X33733611Y-32707813D01*
X33816753Y-32513828D01*
X33935993Y-32339683D01*
X34086784Y-32192017D01*
X34263388Y-32076451D01*
X34459075Y-31997388D01*
X34666387Y-31957842D01*
X34877442Y-31959315D01*
X34877442Y-31959315D01*
G37*
G36*
X37417442Y-31959315D02*
X37624177Y-32001752D01*
X37818747Y-32083541D01*
X37993718Y-32201561D01*
X38142433Y-32351318D01*
X38259227Y-32527108D01*
X38339653Y-32722236D01*
X38380578Y-32928924D01*
X38380578Y-32928929D01*
X38380646Y-32929273D01*
X38377280Y-33170336D01*
X38377203Y-33170674D01*
X38377203Y-33170683D01*
X38330522Y-33376149D01*
X38244681Y-33568952D01*
X38123021Y-33741415D01*
X37970182Y-33886962D01*
X37791984Y-34000050D01*
X37595210Y-34076373D01*
X37387367Y-34113022D01*
X37176357Y-34108602D01*
X36970225Y-34063281D01*
X36776822Y-33978785D01*
X36603519Y-33858336D01*
X36456908Y-33706517D01*
X36342578Y-33529110D01*
X36264881Y-33332872D01*
X36226784Y-33125292D01*
X36229730Y-32914258D01*
X36273611Y-32707813D01*
X36356753Y-32513828D01*
X36475993Y-32339683D01*
X36626784Y-32192017D01*
X36803388Y-32076451D01*
X36999075Y-31997388D01*
X37206387Y-31957842D01*
X37417442Y-31959315D01*
X37417442Y-31959315D01*
G37*
M02*
