%TF.GenerationSoftware,KiCad,Pcbnew,4.0.5-e0-6337~49~ubuntu16.04.1*%
%TF.CreationDate,2017-01-20T19:49:59-08:00*%
%TF.ProjectId,2x3-Servo-Header,3278332D536572766F2D486561646572,1.0*%
%TF.FileFunction,Soldermask,Bot*%
%FSLAX46Y46*%
G04 Gerber Fmt 4.6, Leading zero omitted, Abs format (unit mm)*
G04 Created by KiCad (PCBNEW 4.0.5-e0-6337~49~ubuntu16.04.1) date Fri Jan 20 19:49:59 2017*
%MOMM*%
%LPD*%
G01*
G04 APERTURE LIST*
%ADD10C,0.350000*%
%ADD11C,7.000000*%
%ADD12C,6.600000*%
%ADD13C,2.000000*%
G04 APERTURE END LIST*
D10*
D11*
X138117640Y-93393040D02*
X138317640Y-93393040D01*
X138117640Y-102193040D02*
X138317640Y-102193040D01*
D12*
X130217640Y-102293040D02*
X130217640Y-93293040D01*
D13*
X138117640Y-101793040D02*
X138117640Y-93793040D01*
D12*
X146217640Y-102293040D02*
X146217640Y-93293040D01*
D10*
G36*
X130540750Y-98718887D02*
X131131695Y-98840191D01*
X131687838Y-99073972D01*
X132187974Y-99411318D01*
X132613061Y-99839383D01*
X132946906Y-100341861D01*
X133176796Y-100899616D01*
X133293904Y-101491054D01*
X133293904Y-101491064D01*
X133293971Y-101491403D01*
X133284350Y-102180456D01*
X133284273Y-102180794D01*
X133284273Y-102180802D01*
X133150697Y-102768741D01*
X132905325Y-103319856D01*
X132557577Y-103812818D01*
X132120702Y-104228849D01*
X131611340Y-104552101D01*
X131048894Y-104770259D01*
X130454787Y-104875016D01*
X129851643Y-104862382D01*
X129262440Y-104732837D01*
X128709622Y-104491317D01*
X128214247Y-104147022D01*
X127795177Y-103713063D01*
X127468378Y-103205970D01*
X127246296Y-102645054D01*
X127137395Y-102051698D01*
X127145817Y-101448481D01*
X127271246Y-100858387D01*
X127508899Y-100303898D01*
X127849731Y-99806128D01*
X128280752Y-99384040D01*
X128785553Y-99053708D01*
X129344899Y-98827717D01*
X129937485Y-98714676D01*
X130540750Y-98718887D01*
X130540750Y-98718887D01*
G37*
G36*
X138540750Y-90718887D02*
X139131695Y-90840191D01*
X139687838Y-91073972D01*
X140187974Y-91411318D01*
X140613061Y-91839383D01*
X140946906Y-92341861D01*
X141176796Y-92899616D01*
X141293904Y-93491054D01*
X141293904Y-93491064D01*
X141293971Y-93491403D01*
X141284350Y-94180456D01*
X141284273Y-94180794D01*
X141284273Y-94180802D01*
X141150697Y-94768741D01*
X140905325Y-95319856D01*
X140557577Y-95812818D01*
X140120702Y-96228849D01*
X139611340Y-96552101D01*
X139048894Y-96770259D01*
X138897074Y-96797029D01*
X138883485Y-96801467D01*
X138871672Y-96809515D01*
X138862568Y-96820536D01*
X138856894Y-96833657D01*
X138855101Y-96847838D01*
X138857330Y-96861958D01*
X138863404Y-96874898D01*
X138869849Y-96882852D01*
X138995673Y-97009558D01*
X139112467Y-97185348D01*
X139192893Y-97380476D01*
X139233818Y-97587164D01*
X139233818Y-97587169D01*
X139233886Y-97587513D01*
X139230520Y-97828576D01*
X139230443Y-97828914D01*
X139230443Y-97828923D01*
X139183762Y-98034389D01*
X139097921Y-98227192D01*
X138976261Y-98399655D01*
X138823422Y-98545202D01*
X138653702Y-98652910D01*
X138642830Y-98662192D01*
X138634975Y-98674134D01*
X138630757Y-98687793D01*
X138630512Y-98702085D01*
X138634258Y-98715881D01*
X138641700Y-98728086D01*
X138652247Y-98737735D01*
X138670707Y-98745564D01*
X139131695Y-98840191D01*
X139687838Y-99073972D01*
X140187974Y-99411318D01*
X140613061Y-99839383D01*
X140946906Y-100341861D01*
X141176796Y-100899616D01*
X141293904Y-101491054D01*
X141293904Y-101491064D01*
X141293971Y-101491403D01*
X141284350Y-102180456D01*
X141284273Y-102180794D01*
X141284273Y-102180802D01*
X141150697Y-102768741D01*
X140905325Y-103319856D01*
X140557577Y-103812818D01*
X140120702Y-104228849D01*
X139611340Y-104552101D01*
X139048894Y-104770259D01*
X138454787Y-104875016D01*
X137851643Y-104862382D01*
X137262440Y-104732837D01*
X136709622Y-104491317D01*
X136214247Y-104147022D01*
X135795177Y-103713063D01*
X135468378Y-103205970D01*
X135246296Y-102645054D01*
X135137395Y-102051698D01*
X135145817Y-101448481D01*
X135271246Y-100858387D01*
X135508899Y-100303898D01*
X135849731Y-99806128D01*
X136280752Y-99384040D01*
X136785553Y-99053708D01*
X137344899Y-98827717D01*
X137686012Y-98762647D01*
X137699537Y-98758020D01*
X137711237Y-98749807D01*
X137720187Y-98738661D01*
X137725676Y-98725462D01*
X137727271Y-98711257D01*
X137724846Y-98697169D01*
X137718591Y-98684315D01*
X137709004Y-98673712D01*
X137696831Y-98666196D01*
X137630062Y-98637025D01*
X137456759Y-98516576D01*
X137310148Y-98364757D01*
X137195818Y-98187350D01*
X137118121Y-97991112D01*
X137080024Y-97783532D01*
X137082970Y-97572498D01*
X137126851Y-97366053D01*
X137209993Y-97172068D01*
X137329233Y-96997923D01*
X137470923Y-96859169D01*
X137479627Y-96847830D01*
X137484828Y-96834515D01*
X137486114Y-96820278D01*
X137483382Y-96806247D01*
X137476849Y-96793532D01*
X137467033Y-96783141D01*
X137454710Y-96775896D01*
X137446289Y-96773259D01*
X137262440Y-96732837D01*
X136709622Y-96491317D01*
X136214247Y-96147022D01*
X135795177Y-95713063D01*
X135468378Y-95205970D01*
X135246296Y-94645054D01*
X135137395Y-94051698D01*
X135145817Y-93448481D01*
X135271246Y-92858387D01*
X135508899Y-92303898D01*
X135849731Y-91806128D01*
X136280752Y-91384040D01*
X136785553Y-91053708D01*
X137344899Y-90827717D01*
X137937485Y-90714676D01*
X138540750Y-90718887D01*
X138540750Y-90718887D01*
G37*
G36*
X146540750Y-98718887D02*
X147131695Y-98840191D01*
X147687838Y-99073972D01*
X148187974Y-99411318D01*
X148613061Y-99839383D01*
X148946906Y-100341861D01*
X149176796Y-100899616D01*
X149293904Y-101491054D01*
X149293904Y-101491064D01*
X149293971Y-101491403D01*
X149284350Y-102180456D01*
X149284273Y-102180794D01*
X149284273Y-102180802D01*
X149150697Y-102768741D01*
X148905325Y-103319856D01*
X148557577Y-103812818D01*
X148120702Y-104228849D01*
X147611340Y-104552101D01*
X147048894Y-104770259D01*
X146454787Y-104875016D01*
X145851643Y-104862382D01*
X145262440Y-104732837D01*
X144709622Y-104491317D01*
X144214247Y-104147022D01*
X143795177Y-103713063D01*
X143468378Y-103205970D01*
X143246296Y-102645054D01*
X143137395Y-102051698D01*
X143145817Y-101448481D01*
X143271246Y-100858387D01*
X143508899Y-100303898D01*
X143849731Y-99806128D01*
X144280752Y-99384040D01*
X144785553Y-99053708D01*
X145344899Y-98827717D01*
X145937485Y-98714676D01*
X146540750Y-98718887D01*
X146540750Y-98718887D01*
G37*
G36*
X135730682Y-96617555D02*
X135937417Y-96659992D01*
X136131987Y-96741781D01*
X136306958Y-96859801D01*
X136455673Y-97009558D01*
X136572467Y-97185348D01*
X136652893Y-97380476D01*
X136693818Y-97587164D01*
X136693818Y-97587169D01*
X136693886Y-97587513D01*
X136690520Y-97828576D01*
X136690443Y-97828914D01*
X136690443Y-97828923D01*
X136643762Y-98034389D01*
X136557921Y-98227192D01*
X136436261Y-98399655D01*
X136283422Y-98545202D01*
X136105224Y-98658290D01*
X135908450Y-98734613D01*
X135700607Y-98771262D01*
X135489597Y-98766842D01*
X135283465Y-98721521D01*
X135090062Y-98637025D01*
X134916759Y-98516576D01*
X134770148Y-98364757D01*
X134655818Y-98187350D01*
X134578121Y-97991112D01*
X134540024Y-97783532D01*
X134542970Y-97572498D01*
X134586851Y-97366053D01*
X134669993Y-97172068D01*
X134789233Y-96997923D01*
X134940024Y-96850257D01*
X135116628Y-96734691D01*
X135312315Y-96655628D01*
X135519627Y-96616082D01*
X135730682Y-96617555D01*
X135730682Y-96617555D01*
G37*
G36*
X140810682Y-96617555D02*
X141017417Y-96659992D01*
X141211987Y-96741781D01*
X141386958Y-96859801D01*
X141535673Y-97009558D01*
X141652467Y-97185348D01*
X141732893Y-97380476D01*
X141773818Y-97587164D01*
X141773818Y-97587169D01*
X141773886Y-97587513D01*
X141770520Y-97828576D01*
X141770443Y-97828914D01*
X141770443Y-97828923D01*
X141723762Y-98034389D01*
X141637921Y-98227192D01*
X141516261Y-98399655D01*
X141363422Y-98545202D01*
X141185224Y-98658290D01*
X140988450Y-98734613D01*
X140780607Y-98771262D01*
X140569597Y-98766842D01*
X140363465Y-98721521D01*
X140170062Y-98637025D01*
X139996759Y-98516576D01*
X139850148Y-98364757D01*
X139735818Y-98187350D01*
X139658121Y-97991112D01*
X139620024Y-97783532D01*
X139622970Y-97572498D01*
X139666851Y-97366053D01*
X139749993Y-97172068D01*
X139869233Y-96997923D01*
X140020024Y-96850257D01*
X140196628Y-96734691D01*
X140392315Y-96655628D01*
X140599627Y-96616082D01*
X140810682Y-96617555D01*
X140810682Y-96617555D01*
G37*
G36*
X130540750Y-90718887D02*
X131131695Y-90840191D01*
X131687838Y-91073972D01*
X132187974Y-91411318D01*
X132613061Y-91839383D01*
X132946906Y-92341861D01*
X133176796Y-92899616D01*
X133293904Y-93491054D01*
X133293904Y-93491064D01*
X133293971Y-93491403D01*
X133284350Y-94180456D01*
X133284273Y-94180794D01*
X133284273Y-94180802D01*
X133150697Y-94768741D01*
X132905325Y-95319856D01*
X132557577Y-95812818D01*
X132120702Y-96228849D01*
X131611340Y-96552101D01*
X131048894Y-96770259D01*
X130454787Y-96875016D01*
X129851643Y-96862382D01*
X129262440Y-96732837D01*
X128709622Y-96491317D01*
X128214247Y-96147022D01*
X127795177Y-95713063D01*
X127468378Y-95205970D01*
X127246296Y-94645054D01*
X127137395Y-94051698D01*
X127145817Y-93448481D01*
X127271246Y-92858387D01*
X127508899Y-92303898D01*
X127849731Y-91806128D01*
X128280752Y-91384040D01*
X128785553Y-91053708D01*
X129344899Y-90827717D01*
X129937485Y-90714676D01*
X130540750Y-90718887D01*
X130540750Y-90718887D01*
G37*
G36*
X146540750Y-90718887D02*
X147131695Y-90840191D01*
X147687838Y-91073972D01*
X148187974Y-91411318D01*
X148613061Y-91839383D01*
X148946906Y-92341861D01*
X149176796Y-92899616D01*
X149293904Y-93491054D01*
X149293904Y-93491064D01*
X149293971Y-93491403D01*
X149284350Y-94180456D01*
X149284273Y-94180794D01*
X149284273Y-94180802D01*
X149150697Y-94768741D01*
X148905325Y-95319856D01*
X148557577Y-95812818D01*
X148120702Y-96228849D01*
X147611340Y-96552101D01*
X147048894Y-96770259D01*
X146454787Y-96875016D01*
X145851643Y-96862382D01*
X145262440Y-96732837D01*
X144709622Y-96491317D01*
X144214247Y-96147022D01*
X143795177Y-95713063D01*
X143468378Y-95205970D01*
X143246296Y-94645054D01*
X143137395Y-94051698D01*
X143145817Y-93448481D01*
X143271246Y-92858387D01*
X143508899Y-92303898D01*
X143849731Y-91806128D01*
X144280752Y-91384040D01*
X144785553Y-91053708D01*
X145344899Y-90827717D01*
X145937485Y-90714676D01*
X146540750Y-90718887D01*
X146540750Y-90718887D01*
G37*
M02*
