%TF.GenerationSoftware,KiCad,Pcbnew,4.0.5-e0-6337~49~ubuntu16.04.1*%
%TF.CreationDate,2017-02-14T02:30:03-08:00*%
%TF.ProjectId,2x3-Servo-Header,3278332D536572766F2D486561646572,1.0*%
%TF.FileFunction,Legend,Top*%
%FSLAX46Y46*%
G04 Gerber Fmt 4.6, Leading zero omitted, Abs format (unit mm)*
G04 Created by KiCad (PCBNEW 4.0.5-e0-6337~49~ubuntu16.04.1) date Tue Feb 14 02:30:03 2017*
%MOMM*%
%LPD*%
G01*
G04 APERTURE LIST*
%ADD10C,0.350000*%
%ADD11C,2.000000*%
%ADD12C,5.500000*%
%ADD13C,7.000000*%
%ADD14C,0.150000*%
%ADD15C,2.152400*%
G04 APERTURE END LIST*
D10*
D11*
X34724400Y-37134800D02*
X34724400Y-29134800D01*
D12*
X26824400Y-37634800D02*
X26824400Y-28634800D01*
X42824400Y-37634800D02*
X42824400Y-28634800D01*
D13*
X34724400Y-37534800D02*
X34924400Y-37534800D01*
X34724400Y-28734800D02*
X34924400Y-28734800D01*
D14*
X34376781Y-31368133D02*
X35376781Y-31034800D01*
X34376781Y-30701466D01*
X35281543Y-29796704D02*
X35329162Y-29844323D01*
X35376781Y-29987180D01*
X35376781Y-30082418D01*
X35329162Y-30225276D01*
X35233924Y-30320514D01*
X35138686Y-30368133D01*
X34948210Y-30415752D01*
X34805352Y-30415752D01*
X34614876Y-30368133D01*
X34519638Y-30320514D01*
X34424400Y-30225276D01*
X34376781Y-30082418D01*
X34376781Y-29987180D01*
X34424400Y-29844323D01*
X34472019Y-29796704D01*
X35281543Y-28796704D02*
X35329162Y-28844323D01*
X35376781Y-28987180D01*
X35376781Y-29082418D01*
X35329162Y-29225276D01*
X35233924Y-29320514D01*
X35138686Y-29368133D01*
X34948210Y-29415752D01*
X34805352Y-29415752D01*
X34614876Y-29368133D01*
X34519638Y-29320514D01*
X34424400Y-29225276D01*
X34376781Y-29082418D01*
X34376781Y-28987180D01*
X34424400Y-28844323D01*
X34472019Y-28796704D01*
X29824400Y-33796704D02*
X29776781Y-33891942D01*
X29776781Y-34034799D01*
X29824400Y-34177657D01*
X29919638Y-34272895D01*
X30014876Y-34320514D01*
X30205352Y-34368133D01*
X30348210Y-34368133D01*
X30538686Y-34320514D01*
X30633924Y-34272895D01*
X30729162Y-34177657D01*
X30776781Y-34034799D01*
X30776781Y-33939561D01*
X30729162Y-33796704D01*
X30681543Y-33749085D01*
X30348210Y-33749085D01*
X30348210Y-33939561D01*
X30776781Y-33320514D02*
X29776781Y-33320514D01*
X30776781Y-32749085D01*
X29776781Y-32749085D01*
X30776781Y-32272895D02*
X29776781Y-32272895D01*
X29776781Y-32034800D01*
X29824400Y-31891942D01*
X29919638Y-31796704D01*
X30014876Y-31749085D01*
X30205352Y-31701466D01*
X30348210Y-31701466D01*
X30538686Y-31749085D01*
X30633924Y-31796704D01*
X30729162Y-31891942D01*
X30776781Y-32034800D01*
X30776781Y-32272895D01*
X39829162Y-34058609D02*
X39876781Y-33915752D01*
X39876781Y-33677656D01*
X39829162Y-33582418D01*
X39781543Y-33534799D01*
X39686305Y-33487180D01*
X39591067Y-33487180D01*
X39495829Y-33534799D01*
X39448210Y-33582418D01*
X39400590Y-33677656D01*
X39352971Y-33868133D01*
X39305352Y-33963371D01*
X39257733Y-34010990D01*
X39162495Y-34058609D01*
X39067257Y-34058609D01*
X38972019Y-34010990D01*
X38924400Y-33963371D01*
X38876781Y-33868133D01*
X38876781Y-33630037D01*
X38924400Y-33487180D01*
X39876781Y-33058609D02*
X38876781Y-33058609D01*
X38924400Y-32058609D02*
X38876781Y-32153847D01*
X38876781Y-32296704D01*
X38924400Y-32439562D01*
X39019638Y-32534800D01*
X39114876Y-32582419D01*
X39305352Y-32630038D01*
X39448210Y-32630038D01*
X39638686Y-32582419D01*
X39733924Y-32534800D01*
X39829162Y-32439562D01*
X39876781Y-32296704D01*
X39876781Y-32201466D01*
X39829162Y-32058609D01*
X39781543Y-32010990D01*
X39448210Y-32010990D01*
X39448210Y-32201466D01*
%LPC*%
D15*
X34764400Y-33034800D03*
X32224400Y-33034800D03*
X37304400Y-33034800D03*
M02*
