%TF.GenerationSoftware,KiCad,Pcbnew,4.0.7-e2-6376~58~ubuntu16.04.1*%
%TF.CreationDate,2017-10-07T15:19:24-07:00*%
%TF.ProjectId,2x3-Servo-Header,3278332D536572766F2D486561646572,v1.2*%
%TF.FileFunction,Soldermask,Top*%
%FSLAX46Y46*%
G04 Gerber Fmt 4.6, Leading zero omitted, Abs format (unit mm)*
G04 Created by KiCad (PCBNEW 4.0.7-e2-6376~58~ubuntu16.04.1) date Sat Oct  7 15:19:24 2017*
%MOMM*%
%LPD*%
G01*
G04 APERTURE LIST*
%ADD10C,0.350000*%
%ADD11C,1.000000*%
G04 APERTURE END LIST*
D10*
D11*
X36420384Y-31027638D02*
G75*
G03X33124400Y-30934800I-1595984J1892838D01*
G01*
X33223221Y-35235793D02*
G75*
G03X36519205Y-35328631I1595984J-1892838D01*
G01*
D10*
G36*
X27147510Y-34060647D02*
X27738455Y-34181951D01*
X28294598Y-34415732D01*
X28794734Y-34753078D01*
X29219821Y-35181143D01*
X29553666Y-35683621D01*
X29783556Y-36241376D01*
X29900664Y-36832814D01*
X29900664Y-36832824D01*
X29900731Y-36833163D01*
X29891110Y-37522216D01*
X29891033Y-37522554D01*
X29891033Y-37522562D01*
X29757457Y-38110501D01*
X29512085Y-38661616D01*
X29164337Y-39154578D01*
X28727462Y-39570609D01*
X28218100Y-39893861D01*
X27655654Y-40112019D01*
X27061547Y-40216776D01*
X26458403Y-40204142D01*
X25869200Y-40074597D01*
X25316382Y-39833077D01*
X24821007Y-39488782D01*
X24401937Y-39054823D01*
X24075138Y-38547730D01*
X23853056Y-37986814D01*
X23744155Y-37393458D01*
X23752577Y-36790241D01*
X23878006Y-36200147D01*
X24115659Y-35645658D01*
X24456491Y-35147888D01*
X24887512Y-34725800D01*
X25392313Y-34395468D01*
X25951659Y-34169477D01*
X26544245Y-34056436D01*
X27147510Y-34060647D01*
X27147510Y-34060647D01*
G37*
G36*
X43147510Y-34060647D02*
X43738455Y-34181951D01*
X44294598Y-34415732D01*
X44794734Y-34753078D01*
X45219821Y-35181143D01*
X45553666Y-35683621D01*
X45783556Y-36241376D01*
X45900664Y-36832814D01*
X45900664Y-36832824D01*
X45900731Y-36833163D01*
X45891110Y-37522216D01*
X45891033Y-37522554D01*
X45891033Y-37522562D01*
X45757457Y-38110501D01*
X45512085Y-38661616D01*
X45164337Y-39154578D01*
X44727462Y-39570609D01*
X44218100Y-39893861D01*
X43655654Y-40112019D01*
X43061547Y-40216776D01*
X42458403Y-40204142D01*
X41869200Y-40074597D01*
X41316382Y-39833077D01*
X40821007Y-39488782D01*
X40401937Y-39054823D01*
X40075138Y-38547730D01*
X39853056Y-37986814D01*
X39744155Y-37393458D01*
X39752577Y-36790241D01*
X39878006Y-36200147D01*
X40115659Y-35645658D01*
X40456491Y-35147888D01*
X40887512Y-34725800D01*
X41392313Y-34395468D01*
X41951659Y-34169477D01*
X42544245Y-34056436D01*
X43147510Y-34060647D01*
X43147510Y-34060647D01*
G37*
G36*
X32337442Y-31959315D02*
X32544177Y-32001752D01*
X32738747Y-32083541D01*
X32913718Y-32201561D01*
X33062433Y-32351318D01*
X33179227Y-32527108D01*
X33259653Y-32722236D01*
X33300578Y-32928924D01*
X33300578Y-32928929D01*
X33300646Y-32929273D01*
X33297280Y-33170336D01*
X33297203Y-33170674D01*
X33297203Y-33170683D01*
X33250522Y-33376149D01*
X33164681Y-33568952D01*
X33043021Y-33741415D01*
X32890182Y-33886962D01*
X32711984Y-34000050D01*
X32515210Y-34076373D01*
X32307367Y-34113022D01*
X32096357Y-34108602D01*
X31890225Y-34063281D01*
X31696822Y-33978785D01*
X31523519Y-33858336D01*
X31376908Y-33706517D01*
X31262578Y-33529110D01*
X31184881Y-33332872D01*
X31146784Y-33125292D01*
X31149730Y-32914258D01*
X31193611Y-32707813D01*
X31276753Y-32513828D01*
X31395993Y-32339683D01*
X31546784Y-32192017D01*
X31723388Y-32076451D01*
X31919075Y-31997388D01*
X32126387Y-31957842D01*
X32337442Y-31959315D01*
X32337442Y-31959315D01*
G37*
G36*
X37417442Y-31959315D02*
X37624177Y-32001752D01*
X37818747Y-32083541D01*
X37993718Y-32201561D01*
X38142433Y-32351318D01*
X38259227Y-32527108D01*
X38339653Y-32722236D01*
X38380578Y-32928924D01*
X38380578Y-32928929D01*
X38380646Y-32929273D01*
X38377280Y-33170336D01*
X38377203Y-33170674D01*
X38377203Y-33170683D01*
X38330522Y-33376149D01*
X38244681Y-33568952D01*
X38123021Y-33741415D01*
X37970182Y-33886962D01*
X37791984Y-34000050D01*
X37595210Y-34076373D01*
X37387367Y-34113022D01*
X37176357Y-34108602D01*
X36970225Y-34063281D01*
X36776822Y-33978785D01*
X36603519Y-33858336D01*
X36456908Y-33706517D01*
X36342578Y-33529110D01*
X36264881Y-33332872D01*
X36226784Y-33125292D01*
X36229730Y-32914258D01*
X36273611Y-32707813D01*
X36356753Y-32513828D01*
X36475993Y-32339683D01*
X36626784Y-32192017D01*
X36803388Y-32076451D01*
X36999075Y-31997388D01*
X37206387Y-31957842D01*
X37417442Y-31959315D01*
X37417442Y-31959315D01*
G37*
G36*
X34856435Y-32159182D02*
X35024750Y-32193733D01*
X35183162Y-32260323D01*
X35325616Y-32356409D01*
X35446694Y-32478335D01*
X35541781Y-32621454D01*
X35607263Y-32780324D01*
X35640569Y-32948535D01*
X35640638Y-32948884D01*
X35637897Y-33145148D01*
X35637820Y-33145486D01*
X35637820Y-33145495D01*
X35599829Y-33312713D01*
X35529940Y-33469685D01*
X35430890Y-33610098D01*
X35306453Y-33728597D01*
X35161370Y-33820670D01*
X35001169Y-33882808D01*
X34831948Y-33912647D01*
X34660151Y-33909047D01*
X34492328Y-33872150D01*
X34334866Y-33803356D01*
X34193770Y-33705292D01*
X34074405Y-33581686D01*
X33981322Y-33437249D01*
X33918064Y-33277478D01*
X33887047Y-33108476D01*
X33889445Y-32936659D01*
X33925172Y-32768580D01*
X33992862Y-32610645D01*
X34089943Y-32468863D01*
X34212711Y-32348639D01*
X34356496Y-32254550D01*
X34515816Y-32190179D01*
X34684601Y-32157983D01*
X34856435Y-32159182D01*
X34856435Y-32159182D01*
G37*
G36*
X27147510Y-26060647D02*
X27738455Y-26181951D01*
X28294598Y-26415732D01*
X28794734Y-26753078D01*
X29219821Y-27181143D01*
X29553666Y-27683621D01*
X29783556Y-28241376D01*
X29900664Y-28832814D01*
X29900664Y-28832824D01*
X29900731Y-28833163D01*
X29891110Y-29522216D01*
X29891033Y-29522554D01*
X29891033Y-29522562D01*
X29757457Y-30110501D01*
X29512085Y-30661616D01*
X29164337Y-31154578D01*
X28727462Y-31570609D01*
X28218100Y-31893861D01*
X27655654Y-32112019D01*
X27061547Y-32216776D01*
X26458403Y-32204142D01*
X25869200Y-32074597D01*
X25316382Y-31833077D01*
X24821007Y-31488782D01*
X24401937Y-31054823D01*
X24075138Y-30547730D01*
X23853056Y-29986814D01*
X23744155Y-29393458D01*
X23752577Y-28790241D01*
X23878006Y-28200147D01*
X24115659Y-27645658D01*
X24456491Y-27147888D01*
X24887512Y-26725800D01*
X25392313Y-26395468D01*
X25951659Y-26169477D01*
X26544245Y-26056436D01*
X27147510Y-26060647D01*
X27147510Y-26060647D01*
G37*
G36*
X43147510Y-26060647D02*
X43738455Y-26181951D01*
X44294598Y-26415732D01*
X44794734Y-26753078D01*
X45219821Y-27181143D01*
X45553666Y-27683621D01*
X45783556Y-28241376D01*
X45900664Y-28832814D01*
X45900664Y-28832824D01*
X45900731Y-28833163D01*
X45891110Y-29522216D01*
X45891033Y-29522554D01*
X45891033Y-29522562D01*
X45757457Y-30110501D01*
X45512085Y-30661616D01*
X45164337Y-31154578D01*
X44727462Y-31570609D01*
X44218100Y-31893861D01*
X43655654Y-32112019D01*
X43061547Y-32216776D01*
X42458403Y-32204142D01*
X41869200Y-32074597D01*
X41316382Y-31833077D01*
X40821007Y-31488782D01*
X40401937Y-31054823D01*
X40075138Y-30547730D01*
X39853056Y-29986814D01*
X39744155Y-29393458D01*
X39752577Y-28790241D01*
X39878006Y-28200147D01*
X40115659Y-27645658D01*
X40456491Y-27147888D01*
X40887512Y-26725800D01*
X41392313Y-26395468D01*
X41951659Y-26169477D01*
X42544245Y-26056436D01*
X43147510Y-26060647D01*
X43147510Y-26060647D01*
G37*
M02*
