%TF.GenerationSoftware,KiCad,Pcbnew,5.0.0-fee4fd1~66~ubuntu16.04.1*%
%TF.CreationDate,2018-09-24T09:13:00-07:00*%
%TF.ProjectId,2x3-Servo-Header,3278332D536572766F2D486561646572,v1.4*%
%TF.SameCoordinates,Original*%
%TF.FileFunction,Soldermask,Bot*%
%TF.FilePolarity,Negative*%
%FSLAX46Y46*%
G04 Gerber Fmt 4.6, Leading zero omitted, Abs format (unit mm)*
G04 Created by KiCad (PCBNEW 5.0.0-fee4fd1~66~ubuntu16.04.1) date Mon Sep 24 09:13:00 2018*
%MOMM*%
%LPD*%
G01*
G04 APERTURE LIST*
%ADD10C,7.000000*%
%ADD11C,1.000000*%
%ADD12C,5.000000*%
%ADD13C,0.350000*%
G04 APERTURE END LIST*
D10*
X43131200Y-37388800D02*
X43131200Y-28854400D01*
X26570400Y-37439600D02*
X26570400Y-28905200D01*
D11*
X33224400Y-35234800D02*
G75*
G03X36519205Y-35328631I1594805J-1893831D01*
G01*
D12*
X42824400Y-37634800D02*
X42824400Y-28634800D01*
D11*
X36419205Y-31028631D02*
G75*
G03X33124400Y-30934800I-1594805J1893831D01*
G01*
D13*
G36*
X43721696Y-34176817D02*
X44281525Y-34408706D01*
X44281527Y-34408707D01*
X44785363Y-34745360D01*
X45213839Y-35173836D01*
X45550494Y-35677675D01*
X45782383Y-36237504D01*
X45900600Y-36831821D01*
X45900600Y-37437779D01*
X45782383Y-38032096D01*
X45550494Y-38591925D01*
X45550493Y-38591927D01*
X45213840Y-39095763D01*
X44785363Y-39524240D01*
X44281527Y-39860893D01*
X44281526Y-39860894D01*
X44281525Y-39860894D01*
X43721696Y-40092783D01*
X43127379Y-40211000D01*
X42521421Y-40211000D01*
X41927104Y-40092783D01*
X41367275Y-39860894D01*
X41367274Y-39860894D01*
X41367273Y-39860893D01*
X40863437Y-39524240D01*
X40434960Y-39095763D01*
X40098307Y-38591927D01*
X40098306Y-38591925D01*
X39866417Y-38032096D01*
X39748200Y-37437779D01*
X39748200Y-36831821D01*
X39866417Y-36237504D01*
X40098306Y-35677675D01*
X40434961Y-35173836D01*
X40863437Y-34745360D01*
X41367273Y-34408707D01*
X41367275Y-34408706D01*
X41927104Y-34176817D01*
X42521421Y-34058600D01*
X43127379Y-34058600D01*
X43721696Y-34176817D01*
X43721696Y-34176817D01*
G37*
G36*
X27721696Y-34176817D02*
X28281525Y-34408706D01*
X28281527Y-34408707D01*
X28785363Y-34745360D01*
X29213839Y-35173836D01*
X29550494Y-35677675D01*
X29782383Y-36237504D01*
X29900600Y-36831821D01*
X29900600Y-37437779D01*
X29782383Y-38032096D01*
X29550494Y-38591925D01*
X29550493Y-38591927D01*
X29213840Y-39095763D01*
X28785363Y-39524240D01*
X28281527Y-39860893D01*
X28281526Y-39860894D01*
X28281525Y-39860894D01*
X27721696Y-40092783D01*
X27127379Y-40211000D01*
X26521421Y-40211000D01*
X25927104Y-40092783D01*
X25367275Y-39860894D01*
X25367274Y-39860894D01*
X25367273Y-39860893D01*
X24863437Y-39524240D01*
X24434960Y-39095763D01*
X24098307Y-38591927D01*
X24098306Y-38591925D01*
X23866417Y-38032096D01*
X23748200Y-37437779D01*
X23748200Y-36831821D01*
X23866417Y-36237504D01*
X24098306Y-35677675D01*
X24434961Y-35173836D01*
X24863437Y-34745360D01*
X25367273Y-34408707D01*
X25367275Y-34408706D01*
X25927104Y-34176817D01*
X26521421Y-34058600D01*
X27127379Y-34058600D01*
X27721696Y-34176817D01*
X27721696Y-34176817D01*
G37*
G36*
X37559978Y-32192271D02*
X37719437Y-32258321D01*
X37862945Y-32354211D01*
X37984989Y-32476255D01*
X38080879Y-32619763D01*
X38146929Y-32779222D01*
X38180600Y-32948502D01*
X38180600Y-33121098D01*
X38146929Y-33290378D01*
X38080879Y-33449837D01*
X37984989Y-33593345D01*
X37862945Y-33715389D01*
X37719437Y-33811279D01*
X37559978Y-33877329D01*
X37390698Y-33911000D01*
X37218102Y-33911000D01*
X37048822Y-33877329D01*
X36889363Y-33811279D01*
X36745855Y-33715389D01*
X36623811Y-33593345D01*
X36527921Y-33449837D01*
X36461871Y-33290378D01*
X36428200Y-33121098D01*
X36428200Y-32948502D01*
X36461871Y-32779222D01*
X36527921Y-32619763D01*
X36623811Y-32476255D01*
X36745855Y-32354211D01*
X36889363Y-32258321D01*
X37048822Y-32192271D01*
X37218102Y-32158600D01*
X37390698Y-32158600D01*
X37559978Y-32192271D01*
X37559978Y-32192271D01*
G37*
G36*
X35019978Y-32192271D02*
X35179437Y-32258321D01*
X35322945Y-32354211D01*
X35444989Y-32476255D01*
X35540879Y-32619763D01*
X35606929Y-32779222D01*
X35640600Y-32948502D01*
X35640600Y-33121098D01*
X35606929Y-33290378D01*
X35540879Y-33449837D01*
X35444989Y-33593345D01*
X35322945Y-33715389D01*
X35179437Y-33811279D01*
X35019978Y-33877329D01*
X34850698Y-33911000D01*
X34678102Y-33911000D01*
X34508822Y-33877329D01*
X34349363Y-33811279D01*
X34205855Y-33715389D01*
X34083811Y-33593345D01*
X33987921Y-33449837D01*
X33921871Y-33290378D01*
X33888200Y-33121098D01*
X33888200Y-32948502D01*
X33921871Y-32779222D01*
X33987921Y-32619763D01*
X34083811Y-32476255D01*
X34205855Y-32354211D01*
X34349363Y-32258321D01*
X34508822Y-32192271D01*
X34678102Y-32158600D01*
X34850698Y-32158600D01*
X35019978Y-32192271D01*
X35019978Y-32192271D01*
G37*
G36*
X32479978Y-32192271D02*
X32639437Y-32258321D01*
X32782945Y-32354211D01*
X32904989Y-32476255D01*
X33000879Y-32619763D01*
X33066929Y-32779222D01*
X33100600Y-32948502D01*
X33100600Y-33121098D01*
X33066929Y-33290378D01*
X33000879Y-33449837D01*
X32904989Y-33593345D01*
X32782945Y-33715389D01*
X32639437Y-33811279D01*
X32479978Y-33877329D01*
X32310698Y-33911000D01*
X32138102Y-33911000D01*
X31968822Y-33877329D01*
X31809363Y-33811279D01*
X31665855Y-33715389D01*
X31543811Y-33593345D01*
X31447921Y-33449837D01*
X31381871Y-33290378D01*
X31348200Y-33121098D01*
X31348200Y-32948502D01*
X31381871Y-32779222D01*
X31447921Y-32619763D01*
X31543811Y-32476255D01*
X31665855Y-32354211D01*
X31809363Y-32258321D01*
X31968822Y-32192271D01*
X32138102Y-32158600D01*
X32310698Y-32158600D01*
X32479978Y-32192271D01*
X32479978Y-32192271D01*
G37*
G36*
X43721696Y-26176817D02*
X44281525Y-26408706D01*
X44281527Y-26408707D01*
X44785363Y-26745360D01*
X45213839Y-27173836D01*
X45550494Y-27677675D01*
X45782383Y-28237504D01*
X45900600Y-28831821D01*
X45900600Y-29437779D01*
X45782383Y-30032096D01*
X45550494Y-30591925D01*
X45550493Y-30591927D01*
X45213840Y-31095763D01*
X44785363Y-31524240D01*
X44281527Y-31860893D01*
X44281526Y-31860894D01*
X44281525Y-31860894D01*
X43721696Y-32092783D01*
X43127379Y-32211000D01*
X42521421Y-32211000D01*
X41927104Y-32092783D01*
X41367275Y-31860894D01*
X41367274Y-31860894D01*
X41367273Y-31860893D01*
X40863437Y-31524240D01*
X40434960Y-31095763D01*
X40098307Y-30591927D01*
X40098306Y-30591925D01*
X39866417Y-30032096D01*
X39748200Y-29437779D01*
X39748200Y-28831821D01*
X39866417Y-28237504D01*
X40098306Y-27677675D01*
X40434961Y-27173836D01*
X40863437Y-26745360D01*
X41367273Y-26408707D01*
X41367275Y-26408706D01*
X41927104Y-26176817D01*
X42521421Y-26058600D01*
X43127379Y-26058600D01*
X43721696Y-26176817D01*
X43721696Y-26176817D01*
G37*
G36*
X27721696Y-26176817D02*
X28281525Y-26408706D01*
X28281527Y-26408707D01*
X28785363Y-26745360D01*
X29213839Y-27173836D01*
X29550494Y-27677675D01*
X29782383Y-28237504D01*
X29900600Y-28831821D01*
X29900600Y-29437779D01*
X29782383Y-30032096D01*
X29550494Y-30591925D01*
X29550493Y-30591927D01*
X29213840Y-31095763D01*
X28785363Y-31524240D01*
X28281527Y-31860893D01*
X28281526Y-31860894D01*
X28281525Y-31860894D01*
X27721696Y-32092783D01*
X27127379Y-32211000D01*
X26521421Y-32211000D01*
X25927104Y-32092783D01*
X25367275Y-31860894D01*
X25367274Y-31860894D01*
X25367273Y-31860893D01*
X24863437Y-31524240D01*
X24434960Y-31095763D01*
X24098307Y-30591927D01*
X24098306Y-30591925D01*
X23866417Y-30032096D01*
X23748200Y-29437779D01*
X23748200Y-28831821D01*
X23866417Y-28237504D01*
X24098306Y-27677675D01*
X24434961Y-27173836D01*
X24863437Y-26745360D01*
X25367273Y-26408707D01*
X25367275Y-26408706D01*
X25927104Y-26176817D01*
X26521421Y-26058600D01*
X27127379Y-26058600D01*
X27721696Y-26176817D01*
X27721696Y-26176817D01*
G37*
M02*
