%TF.GenerationSoftware,KiCad,Pcbnew,4.0.7-e2-6376~58~ubuntu16.04.1*%
%TF.CreationDate,2018-02-08T08:24:49-08:00*%
%TF.ProjectId,6x10-Feather-Huzzah-ESP8266,367831302D466561746865722D48757A,1.0*%
%TF.FileFunction,Legend,Top*%
%FSLAX46Y46*%
G04 Gerber Fmt 4.6, Leading zero omitted, Abs format (unit mm)*
G04 Created by KiCad (PCBNEW 4.0.7-e2-6376~58~ubuntu16.04.1) date Thu Feb  8 08:24:49 2018*
%MOMM*%
%LPD*%
G01*
G04 APERTURE LIST*
%ADD10C,0.350000*%
%ADD11C,0.152400*%
%ADD12C,1.000000*%
%ADD13C,8.000000*%
%ADD14C,0.127000*%
%ADD15C,0.150000*%
%ADD16C,0.300000*%
%ADD17C,0.254000*%
%ADD18C,1.879600*%
%ADD19C,6.152400*%
G04 APERTURE END LIST*
D10*
D11*
X77216000Y-93980000D02*
X87884000Y-93980000D01*
X77153433Y-93980000D02*
G75*
G03X77153433Y-93980000I-508933J0D01*
G01*
D12*
X62703000Y-33077400D02*
X78943000Y-33077400D01*
D13*
X62703864Y-105299506D02*
X79083000Y-105287400D01*
D14*
X72351000Y-42251900D02*
X88767000Y-42251900D01*
X85352000Y-85939900D02*
X80399000Y-85939900D01*
X85352000Y-87971900D02*
X85351000Y-85964400D01*
X85352000Y-87971900D02*
X91194000Y-87971900D01*
X80399000Y-87964400D02*
X80399000Y-85964400D01*
X72384000Y-87971900D02*
X78099000Y-87971900D01*
D12*
X86293000Y-105057400D02*
X102533000Y-105057400D01*
D13*
X86387864Y-33379506D02*
X102767000Y-33367400D01*
D15*
X81501095Y-83919781D02*
X81501095Y-84729305D01*
X81548714Y-84824543D01*
X81596333Y-84872162D01*
X81691571Y-84919781D01*
X81882048Y-84919781D01*
X81977286Y-84872162D01*
X82024905Y-84824543D01*
X82072524Y-84729305D01*
X82072524Y-83919781D01*
X82501095Y-84872162D02*
X82643952Y-84919781D01*
X82882048Y-84919781D01*
X82977286Y-84872162D01*
X83024905Y-84824543D01*
X83072524Y-84729305D01*
X83072524Y-84634067D01*
X83024905Y-84538829D01*
X82977286Y-84491210D01*
X82882048Y-84443590D01*
X82691571Y-84395971D01*
X82596333Y-84348352D01*
X82548714Y-84300733D01*
X82501095Y-84205495D01*
X82501095Y-84110257D01*
X82548714Y-84015019D01*
X82596333Y-83967400D01*
X82691571Y-83919781D01*
X82929667Y-83919781D01*
X83072524Y-83967400D01*
X83834429Y-84395971D02*
X83977286Y-84443590D01*
X84024905Y-84491210D01*
X84072524Y-84586448D01*
X84072524Y-84729305D01*
X84024905Y-84824543D01*
X83977286Y-84872162D01*
X83882048Y-84919781D01*
X83501095Y-84919781D01*
X83501095Y-83919781D01*
X83834429Y-83919781D01*
X83929667Y-83967400D01*
X83977286Y-84015019D01*
X84024905Y-84110257D01*
X84024905Y-84205495D01*
X83977286Y-84300733D01*
X83929667Y-84348352D01*
X83834429Y-84395971D01*
X83501095Y-84395971D01*
X83844381Y-75866829D02*
X83844381Y-75676352D01*
X83892000Y-75581114D01*
X83987238Y-75485876D01*
X84177714Y-75438257D01*
X84511048Y-75438257D01*
X84701524Y-75485876D01*
X84796762Y-75581114D01*
X84844381Y-75676352D01*
X84844381Y-75866829D01*
X84796762Y-75962067D01*
X84701524Y-76057305D01*
X84511048Y-76104924D01*
X84177714Y-76104924D01*
X83987238Y-76057305D01*
X83892000Y-75962067D01*
X83844381Y-75866829D01*
X84844381Y-74438257D02*
X84368190Y-74771591D01*
X84844381Y-75009686D02*
X83844381Y-75009686D01*
X83844381Y-74628733D01*
X83892000Y-74533495D01*
X83939619Y-74485876D01*
X84034857Y-74438257D01*
X84177714Y-74438257D01*
X84272952Y-74485876D01*
X84320571Y-74533495D01*
X84368190Y-74628733D01*
X84368190Y-75009686D01*
X84844381Y-73247781D02*
X83844381Y-73247781D01*
X83844381Y-73009686D01*
X83892000Y-72866828D01*
X83987238Y-72771590D01*
X84082476Y-72723971D01*
X84272952Y-72676352D01*
X84415810Y-72676352D01*
X84606286Y-72723971D01*
X84701524Y-72771590D01*
X84796762Y-72866828D01*
X84844381Y-73009686D01*
X84844381Y-73247781D01*
X84844381Y-71676352D02*
X84368190Y-72009686D01*
X84844381Y-72247781D02*
X83844381Y-72247781D01*
X83844381Y-71866828D01*
X83892000Y-71771590D01*
X83939619Y-71723971D01*
X84034857Y-71676352D01*
X84177714Y-71676352D01*
X84272952Y-71723971D01*
X84320571Y-71771590D01*
X84368190Y-71866828D01*
X84368190Y-72247781D01*
X83844381Y-71057305D02*
X83844381Y-70866828D01*
X83892000Y-70771590D01*
X83987238Y-70676352D01*
X84177714Y-70628733D01*
X84511048Y-70628733D01*
X84701524Y-70676352D01*
X84796762Y-70771590D01*
X84844381Y-70866828D01*
X84844381Y-71057305D01*
X84796762Y-71152543D01*
X84701524Y-71247781D01*
X84511048Y-71295400D01*
X84177714Y-71295400D01*
X83987238Y-71247781D01*
X83892000Y-71152543D01*
X83844381Y-71057305D01*
X84844381Y-70200162D02*
X83844381Y-70200162D01*
X83844381Y-69819209D01*
X83892000Y-69723971D01*
X83939619Y-69676352D01*
X84034857Y-69628733D01*
X84177714Y-69628733D01*
X84272952Y-69676352D01*
X84320571Y-69723971D01*
X84368190Y-69819209D01*
X84368190Y-70200162D01*
X84463429Y-69200162D02*
X84463429Y-68438257D01*
X84844381Y-67962067D02*
X83844381Y-67962067D01*
X84844381Y-67485877D02*
X83844381Y-67485877D01*
X84844381Y-66914448D01*
X83844381Y-66914448D01*
X84749143Y-65104924D02*
X84796762Y-65152543D01*
X84844381Y-65295400D01*
X84844381Y-65390638D01*
X84796762Y-65533496D01*
X84701524Y-65628734D01*
X84606286Y-65676353D01*
X84415810Y-65723972D01*
X84272952Y-65723972D01*
X84082476Y-65676353D01*
X83987238Y-65628734D01*
X83892000Y-65533496D01*
X83844381Y-65390638D01*
X83844381Y-65295400D01*
X83892000Y-65152543D01*
X83939619Y-65104924D01*
X83844381Y-64485877D02*
X83844381Y-64295400D01*
X83892000Y-64200162D01*
X83987238Y-64104924D01*
X84177714Y-64057305D01*
X84511048Y-64057305D01*
X84701524Y-64104924D01*
X84796762Y-64200162D01*
X84844381Y-64295400D01*
X84844381Y-64485877D01*
X84796762Y-64581115D01*
X84701524Y-64676353D01*
X84511048Y-64723972D01*
X84177714Y-64723972D01*
X83987238Y-64676353D01*
X83892000Y-64581115D01*
X83844381Y-64485877D01*
X84844381Y-63628734D02*
X83844381Y-63628734D01*
X84558667Y-63295400D01*
X83844381Y-62962067D01*
X84844381Y-62962067D01*
X84844381Y-62485877D02*
X83844381Y-62485877D01*
X83844381Y-62104924D01*
X83892000Y-62009686D01*
X83939619Y-61962067D01*
X84034857Y-61914448D01*
X84177714Y-61914448D01*
X84272952Y-61962067D01*
X84320571Y-62009686D01*
X84368190Y-62104924D01*
X84368190Y-62485877D01*
X84558667Y-61533496D02*
X84558667Y-61057305D01*
X84844381Y-61628734D02*
X83844381Y-61295401D01*
X84844381Y-60962067D01*
X83844381Y-60771591D02*
X83844381Y-60200162D01*
X84844381Y-60485877D02*
X83844381Y-60485877D01*
X84844381Y-59866829D02*
X83844381Y-59866829D01*
X84320571Y-59057305D02*
X84368190Y-58914448D01*
X84415810Y-58866829D01*
X84511048Y-58819210D01*
X84653905Y-58819210D01*
X84749143Y-58866829D01*
X84796762Y-58914448D01*
X84844381Y-59009686D01*
X84844381Y-59390639D01*
X83844381Y-59390639D01*
X83844381Y-59057305D01*
X83892000Y-58962067D01*
X83939619Y-58914448D01*
X84034857Y-58866829D01*
X84130095Y-58866829D01*
X84225333Y-58914448D01*
X84272952Y-58962067D01*
X84320571Y-59057305D01*
X84320571Y-59390639D01*
X84844381Y-57914448D02*
X84844381Y-58390639D01*
X83844381Y-58390639D01*
X84320571Y-57581115D02*
X84320571Y-57247781D01*
X84844381Y-57104924D02*
X84844381Y-57581115D01*
X83844381Y-57581115D01*
X83844381Y-57104924D01*
X84320571Y-55581114D02*
X84368190Y-55438257D01*
X84415810Y-55390638D01*
X84511048Y-55343019D01*
X84653905Y-55343019D01*
X84749143Y-55390638D01*
X84796762Y-55438257D01*
X84844381Y-55533495D01*
X84844381Y-55914448D01*
X83844381Y-55914448D01*
X83844381Y-55581114D01*
X83892000Y-55485876D01*
X83939619Y-55438257D01*
X84034857Y-55390638D01*
X84130095Y-55390638D01*
X84225333Y-55438257D01*
X84272952Y-55485876D01*
X84320571Y-55581114D01*
X84320571Y-55914448D01*
X83844381Y-54723972D02*
X83844381Y-54533495D01*
X83892000Y-54438257D01*
X83987238Y-54343019D01*
X84177714Y-54295400D01*
X84511048Y-54295400D01*
X84701524Y-54343019D01*
X84796762Y-54438257D01*
X84844381Y-54533495D01*
X84844381Y-54723972D01*
X84796762Y-54819210D01*
X84701524Y-54914448D01*
X84511048Y-54962067D01*
X84177714Y-54962067D01*
X83987238Y-54914448D01*
X83892000Y-54819210D01*
X83844381Y-54723972D01*
X84558667Y-53914448D02*
X84558667Y-53438257D01*
X84844381Y-54009686D02*
X83844381Y-53676353D01*
X84844381Y-53343019D01*
X84844381Y-52438257D02*
X84368190Y-52771591D01*
X84844381Y-53009686D02*
X83844381Y-53009686D01*
X83844381Y-52628733D01*
X83892000Y-52533495D01*
X83939619Y-52485876D01*
X84034857Y-52438257D01*
X84177714Y-52438257D01*
X84272952Y-52485876D01*
X84320571Y-52533495D01*
X84368190Y-52628733D01*
X84368190Y-53009686D01*
X84844381Y-52009686D02*
X83844381Y-52009686D01*
X83844381Y-51771591D01*
X83892000Y-51628733D01*
X83987238Y-51533495D01*
X84082476Y-51485876D01*
X84272952Y-51438257D01*
X84415810Y-51438257D01*
X84606286Y-51485876D01*
X84701524Y-51533495D01*
X84796762Y-51628733D01*
X84844381Y-51771591D01*
X84844381Y-52009686D01*
X84796762Y-51057305D02*
X84844381Y-50914448D01*
X84844381Y-50676352D01*
X84796762Y-50581114D01*
X84749143Y-50533495D01*
X84653905Y-50485876D01*
X84558667Y-50485876D01*
X84463429Y-50533495D01*
X84415810Y-50581114D01*
X84368190Y-50676352D01*
X84320571Y-50866829D01*
X84272952Y-50962067D01*
X84225333Y-51009686D01*
X84130095Y-51057305D01*
X84034857Y-51057305D01*
X83939619Y-51009686D01*
X83892000Y-50962067D01*
X83844381Y-50866829D01*
X83844381Y-50628733D01*
X83892000Y-50485876D01*
X80542381Y-83271592D02*
X81351905Y-83271592D01*
X81447143Y-83223973D01*
X81494762Y-83176354D01*
X81542381Y-83081116D01*
X81542381Y-82890639D01*
X81494762Y-82795401D01*
X81447143Y-82747782D01*
X81351905Y-82700163D01*
X80542381Y-82700163D01*
X81494762Y-82271592D02*
X81542381Y-82128735D01*
X81542381Y-81890639D01*
X81494762Y-81795401D01*
X81447143Y-81747782D01*
X81351905Y-81700163D01*
X81256667Y-81700163D01*
X81161429Y-81747782D01*
X81113810Y-81795401D01*
X81066190Y-81890639D01*
X81018571Y-82081116D01*
X80970952Y-82176354D01*
X80923333Y-82223973D01*
X80828095Y-82271592D01*
X80732857Y-82271592D01*
X80637619Y-82223973D01*
X80590000Y-82176354D01*
X80542381Y-82081116D01*
X80542381Y-81843020D01*
X80590000Y-81700163D01*
X81018571Y-81271592D02*
X81018571Y-80938258D01*
X81542381Y-80795401D02*
X81542381Y-81271592D01*
X80542381Y-81271592D01*
X80542381Y-80795401D01*
X80542381Y-79414449D02*
X80542381Y-79223972D01*
X80590000Y-79128734D01*
X80685238Y-79033496D01*
X80875714Y-78985877D01*
X81209048Y-78985877D01*
X81399524Y-79033496D01*
X81494762Y-79128734D01*
X81542381Y-79223972D01*
X81542381Y-79414449D01*
X81494762Y-79509687D01*
X81399524Y-79604925D01*
X81209048Y-79652544D01*
X80875714Y-79652544D01*
X80685238Y-79604925D01*
X80590000Y-79509687D01*
X80542381Y-79414449D01*
X81542381Y-78557306D02*
X80542381Y-78557306D01*
X81542381Y-77985877D01*
X80542381Y-77985877D01*
X81542381Y-77033496D02*
X81542381Y-77509687D01*
X80542381Y-77509687D01*
X81066190Y-76509687D02*
X81542381Y-76509687D01*
X80542381Y-76843020D02*
X81066190Y-76509687D01*
X80542381Y-76176353D01*
X80542381Y-75176353D02*
X81542381Y-74938258D01*
X80828095Y-74747781D01*
X81542381Y-74557305D01*
X80542381Y-74319210D01*
X81542381Y-73938258D02*
X80542381Y-73938258D01*
X80542381Y-73604925D02*
X80542381Y-73033496D01*
X81542381Y-73319211D02*
X80542381Y-73319211D01*
X81542381Y-72700163D02*
X80542381Y-72700163D01*
X81018571Y-72700163D02*
X81018571Y-72128734D01*
X81542381Y-72128734D02*
X80542381Y-72128734D01*
X81256667Y-70938258D02*
X81256667Y-70462067D01*
X81542381Y-71033496D02*
X80542381Y-70700163D01*
X81542381Y-70366829D01*
X81542381Y-70033496D02*
X80542381Y-70033496D01*
X80542381Y-69795401D01*
X80590000Y-69652543D01*
X80685238Y-69557305D01*
X80780476Y-69509686D01*
X80970952Y-69462067D01*
X81113810Y-69462067D01*
X81304286Y-69509686D01*
X81399524Y-69557305D01*
X81494762Y-69652543D01*
X81542381Y-69795401D01*
X81542381Y-70033496D01*
X81256667Y-69081115D02*
X81256667Y-68604924D01*
X81542381Y-69176353D02*
X80542381Y-68843020D01*
X81542381Y-68509686D01*
X81018571Y-67843019D02*
X81018571Y-68176353D01*
X81542381Y-68176353D02*
X80542381Y-68176353D01*
X80542381Y-67700162D01*
X81542381Y-66747781D02*
X81066190Y-67081115D01*
X81542381Y-67319210D02*
X80542381Y-67319210D01*
X80542381Y-66938257D01*
X80590000Y-66843019D01*
X80637619Y-66795400D01*
X80732857Y-66747781D01*
X80875714Y-66747781D01*
X80970952Y-66795400D01*
X81018571Y-66843019D01*
X81066190Y-66938257D01*
X81066190Y-67319210D01*
X80542381Y-66319210D02*
X81351905Y-66319210D01*
X81447143Y-66271591D01*
X81494762Y-66223972D01*
X81542381Y-66128734D01*
X81542381Y-65938257D01*
X81494762Y-65843019D01*
X81447143Y-65795400D01*
X81351905Y-65747781D01*
X80542381Y-65747781D01*
X81542381Y-65271591D02*
X80542381Y-65271591D01*
X80542381Y-64938258D02*
X80542381Y-64366829D01*
X81542381Y-64652544D02*
X80542381Y-64652544D01*
X81018571Y-62938257D02*
X81018571Y-63271591D01*
X81542381Y-63271591D02*
X80542381Y-63271591D01*
X80542381Y-62795400D01*
X81018571Y-62414448D02*
X81018571Y-62081114D01*
X81542381Y-61938257D02*
X81542381Y-62414448D01*
X80542381Y-62414448D01*
X80542381Y-61938257D01*
X81256667Y-61557305D02*
X81256667Y-61081114D01*
X81542381Y-61652543D02*
X80542381Y-61319210D01*
X81542381Y-60985876D01*
X80542381Y-60795400D02*
X80542381Y-60223971D01*
X81542381Y-60509686D02*
X80542381Y-60509686D01*
X81542381Y-59890638D02*
X80542381Y-59890638D01*
X81018571Y-59890638D02*
X81018571Y-59319209D01*
X81542381Y-59319209D02*
X80542381Y-59319209D01*
X81018571Y-58843019D02*
X81018571Y-58509685D01*
X81542381Y-58366828D02*
X81542381Y-58843019D01*
X80542381Y-58843019D01*
X80542381Y-58366828D01*
X81542381Y-57366828D02*
X81066190Y-57700162D01*
X81542381Y-57938257D02*
X80542381Y-57938257D01*
X80542381Y-57557304D01*
X80590000Y-57462066D01*
X80637619Y-57414447D01*
X80732857Y-57366828D01*
X80875714Y-57366828D01*
X80970952Y-57414447D01*
X81018571Y-57462066D01*
X81066190Y-57557304D01*
X81066190Y-57938257D01*
X81018571Y-56176352D02*
X81018571Y-55843018D01*
X81542381Y-55700161D02*
X81542381Y-56176352D01*
X80542381Y-56176352D01*
X80542381Y-55700161D01*
X81494762Y-55319209D02*
X81542381Y-55176352D01*
X81542381Y-54938256D01*
X81494762Y-54843018D01*
X81447143Y-54795399D01*
X81351905Y-54747780D01*
X81256667Y-54747780D01*
X81161429Y-54795399D01*
X81113810Y-54843018D01*
X81066190Y-54938256D01*
X81018571Y-55128733D01*
X80970952Y-55223971D01*
X80923333Y-55271590D01*
X80828095Y-55319209D01*
X80732857Y-55319209D01*
X80637619Y-55271590D01*
X80590000Y-55223971D01*
X80542381Y-55128733D01*
X80542381Y-54890637D01*
X80590000Y-54747780D01*
X81542381Y-54319209D02*
X80542381Y-54319209D01*
X80542381Y-53938256D01*
X80590000Y-53843018D01*
X80637619Y-53795399D01*
X80732857Y-53747780D01*
X80875714Y-53747780D01*
X80970952Y-53795399D01*
X81018571Y-53843018D01*
X81066190Y-53938256D01*
X81066190Y-54319209D01*
X80970952Y-53176352D02*
X80923333Y-53271590D01*
X80875714Y-53319209D01*
X80780476Y-53366828D01*
X80732857Y-53366828D01*
X80637619Y-53319209D01*
X80590000Y-53271590D01*
X80542381Y-53176352D01*
X80542381Y-52985875D01*
X80590000Y-52890637D01*
X80637619Y-52843018D01*
X80732857Y-52795399D01*
X80780476Y-52795399D01*
X80875714Y-52843018D01*
X80923333Y-52890637D01*
X80970952Y-52985875D01*
X80970952Y-53176352D01*
X81018571Y-53271590D01*
X81066190Y-53319209D01*
X81161429Y-53366828D01*
X81351905Y-53366828D01*
X81447143Y-53319209D01*
X81494762Y-53271590D01*
X81542381Y-53176352D01*
X81542381Y-52985875D01*
X81494762Y-52890637D01*
X81447143Y-52843018D01*
X81351905Y-52795399D01*
X81161429Y-52795399D01*
X81066190Y-52843018D01*
X81018571Y-52890637D01*
X80970952Y-52985875D01*
X80637619Y-52414447D02*
X80590000Y-52366828D01*
X80542381Y-52271590D01*
X80542381Y-52033494D01*
X80590000Y-51938256D01*
X80637619Y-51890637D01*
X80732857Y-51843018D01*
X80828095Y-51843018D01*
X80970952Y-51890637D01*
X81542381Y-52462066D01*
X81542381Y-51843018D01*
X80542381Y-50985875D02*
X80542381Y-51176352D01*
X80590000Y-51271590D01*
X80637619Y-51319209D01*
X80780476Y-51414447D01*
X80970952Y-51462066D01*
X81351905Y-51462066D01*
X81447143Y-51414447D01*
X81494762Y-51366828D01*
X81542381Y-51271590D01*
X81542381Y-51081113D01*
X81494762Y-50985875D01*
X81447143Y-50938256D01*
X81351905Y-50890637D01*
X81113810Y-50890637D01*
X81018571Y-50938256D01*
X80970952Y-50985875D01*
X80923333Y-51081113D01*
X80923333Y-51271590D01*
X80970952Y-51366828D01*
X81018571Y-51414447D01*
X81113810Y-51462066D01*
X80542381Y-50033494D02*
X80542381Y-50223971D01*
X80590000Y-50319209D01*
X80637619Y-50366828D01*
X80780476Y-50462066D01*
X80970952Y-50509685D01*
X81351905Y-50509685D01*
X81447143Y-50462066D01*
X81494762Y-50414447D01*
X81542381Y-50319209D01*
X81542381Y-50128732D01*
X81494762Y-50033494D01*
X81447143Y-49985875D01*
X81351905Y-49938256D01*
X81113810Y-49938256D01*
X81018571Y-49985875D01*
X80970952Y-50033494D01*
X80923333Y-50128732D01*
X80923333Y-50319209D01*
X80970952Y-50414447D01*
X81018571Y-50462066D01*
X81113810Y-50509685D01*
X81542381Y-48747780D02*
X80542381Y-48747780D01*
X81018571Y-48747780D02*
X81018571Y-48176351D01*
X81542381Y-48176351D02*
X80542381Y-48176351D01*
X80542381Y-47700161D02*
X81351905Y-47700161D01*
X81447143Y-47652542D01*
X81494762Y-47604923D01*
X81542381Y-47509685D01*
X81542381Y-47319208D01*
X81494762Y-47223970D01*
X81447143Y-47176351D01*
X81351905Y-47128732D01*
X80542381Y-47128732D01*
X80542381Y-46747780D02*
X80542381Y-46081113D01*
X81542381Y-46747780D01*
X81542381Y-46081113D01*
X80542381Y-45795399D02*
X80542381Y-45128732D01*
X81542381Y-45795399D01*
X81542381Y-45128732D01*
X81256667Y-44795399D02*
X81256667Y-44319208D01*
X81542381Y-44890637D02*
X80542381Y-44557304D01*
X81542381Y-44223970D01*
X81542381Y-43890637D02*
X80542381Y-43890637D01*
X81018571Y-43890637D02*
X81018571Y-43319208D01*
X81542381Y-43319208D02*
X80542381Y-43319208D01*
X66779714Y-82076781D02*
X66779714Y-81076781D01*
X67017809Y-81076781D01*
X67160667Y-81124400D01*
X67255905Y-81219638D01*
X67303524Y-81314876D01*
X67351143Y-81505352D01*
X67351143Y-81648210D01*
X67303524Y-81838686D01*
X67255905Y-81933924D01*
X67160667Y-82029162D01*
X67017809Y-82076781D01*
X66779714Y-82076781D01*
X68303524Y-82076781D02*
X67732095Y-82076781D01*
X68017809Y-82076781D02*
X68017809Y-81076781D01*
X67922571Y-81219638D01*
X67827333Y-81314876D01*
X67732095Y-81362495D01*
X68684476Y-81172019D02*
X68732095Y-81124400D01*
X68827333Y-81076781D01*
X69065429Y-81076781D01*
X69160667Y-81124400D01*
X69208286Y-81172019D01*
X69255905Y-81267257D01*
X69255905Y-81362495D01*
X69208286Y-81505352D01*
X68636857Y-82076781D01*
X69255905Y-82076781D01*
X66779714Y-73826781D02*
X66779714Y-72826781D01*
X67017809Y-72826781D01*
X67160667Y-72874400D01*
X67255905Y-72969638D01*
X67303524Y-73064876D01*
X67351143Y-73255352D01*
X67351143Y-73398210D01*
X67303524Y-73588686D01*
X67255905Y-73683924D01*
X67160667Y-73779162D01*
X67017809Y-73826781D01*
X66779714Y-73826781D01*
X68303524Y-73826781D02*
X67732095Y-73826781D01*
X68017809Y-73826781D02*
X68017809Y-72826781D01*
X67922571Y-72969638D01*
X67827333Y-73064876D01*
X67732095Y-73112495D01*
X68636857Y-72826781D02*
X69255905Y-72826781D01*
X68922571Y-73207733D01*
X69065429Y-73207733D01*
X69160667Y-73255352D01*
X69208286Y-73302971D01*
X69255905Y-73398210D01*
X69255905Y-73636305D01*
X69208286Y-73731543D01*
X69160667Y-73779162D01*
X69065429Y-73826781D01*
X68779714Y-73826781D01*
X68684476Y-73779162D01*
X68636857Y-73731543D01*
X67351143Y-98076781D02*
X67017809Y-97600590D01*
X66779714Y-98076781D02*
X66779714Y-97076781D01*
X67160667Y-97076781D01*
X67255905Y-97124400D01*
X67303524Y-97172019D01*
X67351143Y-97267257D01*
X67351143Y-97410114D01*
X67303524Y-97505352D01*
X67255905Y-97552971D01*
X67160667Y-97600590D01*
X66779714Y-97600590D01*
X67732095Y-98029162D02*
X67874952Y-98076781D01*
X68113048Y-98076781D01*
X68208286Y-98029162D01*
X68255905Y-97981543D01*
X68303524Y-97886305D01*
X68303524Y-97791067D01*
X68255905Y-97695829D01*
X68208286Y-97648210D01*
X68113048Y-97600590D01*
X67922571Y-97552971D01*
X67827333Y-97505352D01*
X67779714Y-97457733D01*
X67732095Y-97362495D01*
X67732095Y-97267257D01*
X67779714Y-97172019D01*
X67827333Y-97124400D01*
X67922571Y-97076781D01*
X68160667Y-97076781D01*
X68303524Y-97124400D01*
X68589238Y-97076781D02*
X69160667Y-97076781D01*
X68874952Y-98076781D02*
X68874952Y-97076781D01*
X66541619Y-96904400D02*
X69255905Y-96904400D01*
X66779714Y-89826781D02*
X66779714Y-88826781D01*
X67017809Y-88826781D01*
X67160667Y-88874400D01*
X67255905Y-88969638D01*
X67303524Y-89064876D01*
X67351143Y-89255352D01*
X67351143Y-89398210D01*
X67303524Y-89588686D01*
X67255905Y-89683924D01*
X67160667Y-89779162D01*
X67017809Y-89826781D01*
X66779714Y-89826781D01*
X68303524Y-89826781D02*
X67732095Y-89826781D01*
X68017809Y-89826781D02*
X68017809Y-88826781D01*
X67922571Y-88969638D01*
X67827333Y-89064876D01*
X67732095Y-89112495D01*
X69160667Y-89160114D02*
X69160667Y-89826781D01*
X68922571Y-88779162D02*
X68684476Y-89493448D01*
X69303524Y-89493448D01*
X66779714Y-65886781D02*
X66779714Y-64886781D01*
X67017809Y-64886781D01*
X67160667Y-64934400D01*
X67255905Y-65029638D01*
X67303524Y-65124876D01*
X67351143Y-65315352D01*
X67351143Y-65458210D01*
X67303524Y-65648686D01*
X67255905Y-65743924D01*
X67160667Y-65839162D01*
X67017809Y-65886781D01*
X66779714Y-65886781D01*
X68303524Y-65886781D02*
X67732095Y-65886781D01*
X68017809Y-65886781D02*
X68017809Y-64886781D01*
X67922571Y-65029638D01*
X67827333Y-65124876D01*
X67732095Y-65172495D01*
X69208286Y-64886781D02*
X68732095Y-64886781D01*
X68684476Y-65362971D01*
X68732095Y-65315352D01*
X68827333Y-65267733D01*
X69065429Y-65267733D01*
X69160667Y-65315352D01*
X69208286Y-65362971D01*
X69255905Y-65458210D01*
X69255905Y-65696305D01*
X69208286Y-65791543D01*
X69160667Y-65839162D01*
X69065429Y-65886781D01*
X68827333Y-65886781D01*
X68732095Y-65839162D01*
X68684476Y-65791543D01*
X66779714Y-57886781D02*
X66779714Y-56886781D01*
X67017809Y-56886781D01*
X67160667Y-56934400D01*
X67255905Y-57029638D01*
X67303524Y-57124876D01*
X67351143Y-57315352D01*
X67351143Y-57458210D01*
X67303524Y-57648686D01*
X67255905Y-57743924D01*
X67160667Y-57839162D01*
X67017809Y-57886781D01*
X66779714Y-57886781D01*
X67970190Y-56886781D02*
X68065429Y-56886781D01*
X68160667Y-56934400D01*
X68208286Y-56982019D01*
X68255905Y-57077257D01*
X68303524Y-57267733D01*
X68303524Y-57505829D01*
X68255905Y-57696305D01*
X68208286Y-57791543D01*
X68160667Y-57839162D01*
X68065429Y-57886781D01*
X67970190Y-57886781D01*
X67874952Y-57839162D01*
X67827333Y-57791543D01*
X67779714Y-57696305D01*
X67732095Y-57505829D01*
X67732095Y-57267733D01*
X67779714Y-57077257D01*
X67827333Y-56982019D01*
X67874952Y-56934400D01*
X67970190Y-56886781D01*
X66779714Y-49886781D02*
X66779714Y-48886781D01*
X67017809Y-48886781D01*
X67160667Y-48934400D01*
X67255905Y-49029638D01*
X67303524Y-49124876D01*
X67351143Y-49315352D01*
X67351143Y-49458210D01*
X67303524Y-49648686D01*
X67255905Y-49743924D01*
X67160667Y-49839162D01*
X67017809Y-49886781D01*
X66779714Y-49886781D01*
X68303524Y-49886781D02*
X67732095Y-49886781D01*
X68017809Y-49886781D02*
X68017809Y-48886781D01*
X67922571Y-49029638D01*
X67827333Y-49124876D01*
X67732095Y-49172495D01*
X69160667Y-48886781D02*
X68970190Y-48886781D01*
X68874952Y-48934400D01*
X68827333Y-48982019D01*
X68732095Y-49124876D01*
X68684476Y-49315352D01*
X68684476Y-49696305D01*
X68732095Y-49791543D01*
X68779714Y-49839162D01*
X68874952Y-49886781D01*
X69065429Y-49886781D01*
X69160667Y-49839162D01*
X69208286Y-49791543D01*
X69255905Y-49696305D01*
X69255905Y-49458210D01*
X69208286Y-49362971D01*
X69160667Y-49315352D01*
X69065429Y-49267733D01*
X68874952Y-49267733D01*
X68779714Y-49315352D01*
X68732095Y-49362971D01*
X68684476Y-49458210D01*
X93166810Y-100399781D02*
X93785858Y-100399781D01*
X93452524Y-100780733D01*
X93595382Y-100780733D01*
X93690620Y-100828352D01*
X93738239Y-100875971D01*
X93785858Y-100971210D01*
X93785858Y-101209305D01*
X93738239Y-101304543D01*
X93690620Y-101352162D01*
X93595382Y-101399781D01*
X93309667Y-101399781D01*
X93214429Y-101352162D01*
X93166810Y-101304543D01*
X94214429Y-101304543D02*
X94262048Y-101352162D01*
X94214429Y-101399781D01*
X94166810Y-101352162D01*
X94214429Y-101304543D01*
X94214429Y-101399781D01*
X94595381Y-100399781D02*
X95214429Y-100399781D01*
X94881095Y-100780733D01*
X95023953Y-100780733D01*
X95119191Y-100828352D01*
X95166810Y-100875971D01*
X95214429Y-100971210D01*
X95214429Y-101209305D01*
X95166810Y-101304543D01*
X95119191Y-101352162D01*
X95023953Y-101399781D01*
X94738238Y-101399781D01*
X94643000Y-101352162D01*
X94595381Y-101304543D01*
X95500143Y-100399781D02*
X95833476Y-101399781D01*
X96166810Y-100399781D01*
X96349714Y-73975781D02*
X96349714Y-72975781D01*
X96587809Y-72975781D01*
X96730667Y-73023400D01*
X96825905Y-73118638D01*
X96873524Y-73213876D01*
X96921143Y-73404352D01*
X96921143Y-73547210D01*
X96873524Y-73737686D01*
X96825905Y-73832924D01*
X96730667Y-73928162D01*
X96587809Y-73975781D01*
X96349714Y-73975781D01*
X97873524Y-73975781D02*
X97302095Y-73975781D01*
X97587809Y-73975781D02*
X97587809Y-72975781D01*
X97492571Y-73118638D01*
X97397333Y-73213876D01*
X97302095Y-73261495D01*
X98254476Y-73071019D02*
X98302095Y-73023400D01*
X98397333Y-72975781D01*
X98635429Y-72975781D01*
X98730667Y-73023400D01*
X98778286Y-73071019D01*
X98825905Y-73166257D01*
X98825905Y-73261495D01*
X98778286Y-73404352D01*
X98206857Y-73975781D01*
X98825905Y-73975781D01*
X97302095Y-66035781D02*
X97302095Y-65035781D01*
X97540190Y-65035781D01*
X97683048Y-65083400D01*
X97778286Y-65178638D01*
X97825905Y-65273876D01*
X97873524Y-65464352D01*
X97873524Y-65607210D01*
X97825905Y-65797686D01*
X97778286Y-65892924D01*
X97683048Y-65988162D01*
X97540190Y-66035781D01*
X97302095Y-66035781D01*
X98206857Y-65035781D02*
X98825905Y-65035781D01*
X98492571Y-65416733D01*
X98635429Y-65416733D01*
X98730667Y-65464352D01*
X98778286Y-65511971D01*
X98825905Y-65607210D01*
X98825905Y-65845305D01*
X98778286Y-65940543D01*
X98730667Y-65988162D01*
X98635429Y-66035781D01*
X98349714Y-66035781D01*
X98254476Y-65988162D01*
X98206857Y-65940543D01*
X97302095Y-58035781D02*
X97302095Y-57035781D01*
X97540190Y-57035781D01*
X97683048Y-57083400D01*
X97778286Y-57178638D01*
X97825905Y-57273876D01*
X97873524Y-57464352D01*
X97873524Y-57607210D01*
X97825905Y-57797686D01*
X97778286Y-57892924D01*
X97683048Y-57988162D01*
X97540190Y-58035781D01*
X97302095Y-58035781D01*
X98825905Y-58035781D02*
X98254476Y-58035781D01*
X98540190Y-58035781D02*
X98540190Y-57035781D01*
X98444952Y-57178638D01*
X98349714Y-57273876D01*
X98254476Y-57321495D01*
X97302095Y-50035781D02*
X97302095Y-49035781D01*
X97540190Y-49035781D01*
X97683048Y-49083400D01*
X97778286Y-49178638D01*
X97825905Y-49273876D01*
X97873524Y-49464352D01*
X97873524Y-49607210D01*
X97825905Y-49797686D01*
X97778286Y-49892924D01*
X97683048Y-49988162D01*
X97540190Y-50035781D01*
X97302095Y-50035781D01*
X98778286Y-49035781D02*
X98302095Y-49035781D01*
X98254476Y-49511971D01*
X98302095Y-49464352D01*
X98397333Y-49416733D01*
X98635429Y-49416733D01*
X98730667Y-49464352D01*
X98778286Y-49511971D01*
X98825905Y-49607210D01*
X98825905Y-49845305D01*
X98778286Y-49940543D01*
X98730667Y-49988162D01*
X98635429Y-50035781D01*
X98397333Y-50035781D01*
X98302095Y-49988162D01*
X98254476Y-49940543D01*
X96349714Y-82225781D02*
X96349714Y-81225781D01*
X96587809Y-81225781D01*
X96730667Y-81273400D01*
X96825905Y-81368638D01*
X96873524Y-81463876D01*
X96921143Y-81654352D01*
X96921143Y-81797210D01*
X96873524Y-81987686D01*
X96825905Y-82082924D01*
X96730667Y-82178162D01*
X96587809Y-82225781D01*
X96349714Y-82225781D01*
X97873524Y-82225781D02*
X97302095Y-82225781D01*
X97587809Y-82225781D02*
X97587809Y-81225781D01*
X97492571Y-81368638D01*
X97397333Y-81463876D01*
X97302095Y-81511495D01*
X98206857Y-81225781D02*
X98825905Y-81225781D01*
X98492571Y-81606733D01*
X98635429Y-81606733D01*
X98730667Y-81654352D01*
X98778286Y-81701971D01*
X98825905Y-81797210D01*
X98825905Y-82035305D01*
X98778286Y-82130543D01*
X98730667Y-82178162D01*
X98635429Y-82225781D01*
X98349714Y-82225781D01*
X98254476Y-82178162D01*
X98206857Y-82130543D01*
X97397333Y-97910067D02*
X97873524Y-97910067D01*
X97302095Y-98195781D02*
X97635428Y-97195781D01*
X97968762Y-98195781D01*
X98492571Y-97195781D02*
X98587810Y-97195781D01*
X98683048Y-97243400D01*
X98730667Y-97291019D01*
X98778286Y-97386257D01*
X98825905Y-97576733D01*
X98825905Y-97814829D01*
X98778286Y-98005305D01*
X98730667Y-98100543D01*
X98683048Y-98148162D01*
X98587810Y-98195781D01*
X98492571Y-98195781D01*
X98397333Y-98148162D01*
X98349714Y-98100543D01*
X98302095Y-98005305D01*
X98254476Y-97814829D01*
X98254476Y-97576733D01*
X98302095Y-97386257D01*
X98349714Y-97291019D01*
X98397333Y-97243400D01*
X98492571Y-97195781D01*
X96349714Y-89955781D02*
X96349714Y-88955781D01*
X96587809Y-88955781D01*
X96730667Y-89003400D01*
X96825905Y-89098638D01*
X96873524Y-89193876D01*
X96921143Y-89384352D01*
X96921143Y-89527210D01*
X96873524Y-89717686D01*
X96825905Y-89812924D01*
X96730667Y-89908162D01*
X96587809Y-89955781D01*
X96349714Y-89955781D01*
X97873524Y-89955781D02*
X97302095Y-89955781D01*
X97587809Y-89955781D02*
X97587809Y-88955781D01*
X97492571Y-89098638D01*
X97397333Y-89193876D01*
X97302095Y-89241495D01*
X98730667Y-89289114D02*
X98730667Y-89955781D01*
X98492571Y-88908162D02*
X98254476Y-89622448D01*
X98873524Y-89622448D01*
X61981095Y-62009781D02*
X61981095Y-62819305D01*
X62028714Y-62914543D01*
X62076333Y-62962162D01*
X62171571Y-63009781D01*
X62362048Y-63009781D01*
X62457286Y-62962162D01*
X62504905Y-62914543D01*
X62552524Y-62819305D01*
X62552524Y-62009781D01*
X63552524Y-63009781D02*
X62981095Y-63009781D01*
X63266809Y-63009781D02*
X63266809Y-62009781D01*
X63171571Y-62152638D01*
X63076333Y-62247876D01*
X62981095Y-62295495D01*
X97302095Y-41905781D02*
X97302095Y-40905781D01*
X97540190Y-40905781D01*
X97683048Y-40953400D01*
X97778286Y-41048638D01*
X97825905Y-41143876D01*
X97873524Y-41334352D01*
X97873524Y-41477210D01*
X97825905Y-41667686D01*
X97778286Y-41762924D01*
X97683048Y-41858162D01*
X97540190Y-41905781D01*
X97302095Y-41905781D01*
X98730667Y-41239114D02*
X98730667Y-41905781D01*
X98492571Y-40858162D02*
X98254476Y-41572448D01*
X98873524Y-41572448D01*
X69246810Y-37079781D02*
X69865858Y-37079781D01*
X69532524Y-37460733D01*
X69675382Y-37460733D01*
X69770620Y-37508352D01*
X69818239Y-37555971D01*
X69865858Y-37651210D01*
X69865858Y-37889305D01*
X69818239Y-37984543D01*
X69770620Y-38032162D01*
X69675382Y-38079781D01*
X69389667Y-38079781D01*
X69294429Y-38032162D01*
X69246810Y-37984543D01*
X70294429Y-37984543D02*
X70342048Y-38032162D01*
X70294429Y-38079781D01*
X70246810Y-38032162D01*
X70294429Y-37984543D01*
X70294429Y-38079781D01*
X70675381Y-37079781D02*
X71294429Y-37079781D01*
X70961095Y-37460733D01*
X71103953Y-37460733D01*
X71199191Y-37508352D01*
X71246810Y-37555971D01*
X71294429Y-37651210D01*
X71294429Y-37889305D01*
X71246810Y-37984543D01*
X71199191Y-38032162D01*
X71103953Y-38079781D01*
X70818238Y-38079781D01*
X70723000Y-38032162D01*
X70675381Y-37984543D01*
X71580143Y-37079781D02*
X71913476Y-38079781D01*
X72246810Y-37079781D01*
X66779714Y-41756781D02*
X66779714Y-40756781D01*
X67017809Y-40756781D01*
X67160667Y-40804400D01*
X67255905Y-40899638D01*
X67303524Y-40994876D01*
X67351143Y-41185352D01*
X67351143Y-41328210D01*
X67303524Y-41518686D01*
X67255905Y-41613924D01*
X67160667Y-41709162D01*
X67017809Y-41756781D01*
X66779714Y-41756781D01*
X67732095Y-40852019D02*
X67779714Y-40804400D01*
X67874952Y-40756781D01*
X68113048Y-40756781D01*
X68208286Y-40804400D01*
X68255905Y-40852019D01*
X68303524Y-40947257D01*
X68303524Y-41042495D01*
X68255905Y-41185352D01*
X67684476Y-41756781D01*
X68303524Y-41756781D01*
%LPC*%
D16*
X79211172Y-95861914D02*
X79139743Y-95933343D01*
X78925457Y-96004771D01*
X78782600Y-96004771D01*
X78568315Y-95933343D01*
X78425457Y-95790486D01*
X78354029Y-95647629D01*
X78282600Y-95361914D01*
X78282600Y-95147629D01*
X78354029Y-94861914D01*
X78425457Y-94719057D01*
X78568315Y-94576200D01*
X78782600Y-94504771D01*
X78925457Y-94504771D01*
X79139743Y-94576200D01*
X79211172Y-94647629D01*
X79854029Y-96004771D02*
X79854029Y-94504771D01*
X81425458Y-96004771D02*
X80925458Y-95290486D01*
X80568315Y-96004771D02*
X80568315Y-94504771D01*
X81139743Y-94504771D01*
X81282601Y-94576200D01*
X81354029Y-94647629D01*
X81425458Y-94790486D01*
X81425458Y-95004771D01*
X81354029Y-95147629D01*
X81282601Y-95219057D01*
X81139743Y-95290486D01*
X80568315Y-95290486D01*
X82925458Y-95861914D02*
X82854029Y-95933343D01*
X82639743Y-96004771D01*
X82496886Y-96004771D01*
X82282601Y-95933343D01*
X82139743Y-95790486D01*
X82068315Y-95647629D01*
X81996886Y-95361914D01*
X81996886Y-95147629D01*
X82068315Y-94861914D01*
X82139743Y-94719057D01*
X82282601Y-94576200D01*
X82496886Y-94504771D01*
X82639743Y-94504771D01*
X82854029Y-94576200D01*
X82925458Y-94647629D01*
X83568315Y-94504771D02*
X83568315Y-95719057D01*
X83639743Y-95861914D01*
X83711172Y-95933343D01*
X83854029Y-96004771D01*
X84139743Y-96004771D01*
X84282601Y-95933343D01*
X84354029Y-95861914D01*
X84425458Y-95719057D01*
X84425458Y-94504771D01*
X85139744Y-96004771D02*
X85139744Y-94504771D01*
X85639744Y-94504771D02*
X86496887Y-94504771D01*
X86068316Y-96004771D02*
X86068316Y-94504771D01*
X86925458Y-95933343D02*
X87139744Y-96004771D01*
X87496887Y-96004771D01*
X87639744Y-95933343D01*
X87711173Y-95861914D01*
X87782601Y-95719057D01*
X87782601Y-95576200D01*
X87711173Y-95433343D01*
X87639744Y-95361914D01*
X87496887Y-95290486D01*
X87211173Y-95219057D01*
X87068315Y-95147629D01*
X86996887Y-95076200D01*
X86925458Y-94933343D01*
X86925458Y-94790486D01*
X86996887Y-94647629D01*
X87068315Y-94576200D01*
X87211173Y-94504771D01*
X87568315Y-94504771D01*
X87782601Y-94576200D01*
X78410087Y-93474314D02*
X78338658Y-93545743D01*
X78124372Y-93617171D01*
X77981515Y-93617171D01*
X77767230Y-93545743D01*
X77624372Y-93402886D01*
X77552944Y-93260029D01*
X77481515Y-92974314D01*
X77481515Y-92760029D01*
X77552944Y-92474314D01*
X77624372Y-92331457D01*
X77767230Y-92188600D01*
X77981515Y-92117171D01*
X78124372Y-92117171D01*
X78338658Y-92188600D01*
X78410087Y-92260029D01*
X79910087Y-93617171D02*
X79410087Y-92902886D01*
X79052944Y-93617171D02*
X79052944Y-92117171D01*
X79624372Y-92117171D01*
X79767230Y-92188600D01*
X79838658Y-92260029D01*
X79910087Y-92402886D01*
X79910087Y-92617171D01*
X79838658Y-92760029D01*
X79767230Y-92831457D01*
X79624372Y-92902886D01*
X79052944Y-92902886D01*
X80481515Y-93188600D02*
X81195801Y-93188600D01*
X80338658Y-93617171D02*
X80838658Y-92117171D01*
X81338658Y-93617171D01*
X81695801Y-92117171D02*
X82695801Y-92117171D01*
X81695801Y-93617171D01*
X82695801Y-93617171D01*
X83552943Y-92902886D02*
X83552943Y-93617171D01*
X83052943Y-92117171D02*
X83552943Y-92902886D01*
X84052943Y-92117171D01*
D11*
X88900000Y-92773500D02*
X87757000Y-93726000D01*
X87566500Y-93726000D02*
X88900000Y-92773500D01*
X88519000Y-92900500D02*
X87566500Y-93726000D01*
X87439500Y-93662500D02*
X88519000Y-92900500D01*
X88328500Y-92964000D02*
X87439500Y-93662500D01*
X87185500Y-93726000D02*
X88328500Y-92964000D01*
X88011000Y-93091000D02*
X87185500Y-93726000D01*
X87058500Y-93662500D02*
X88011000Y-93091000D01*
X87820500Y-93091000D02*
X87058500Y-93662500D01*
X87058500Y-93535500D02*
X87820500Y-93091000D01*
X87566500Y-93091000D02*
X87058500Y-93535500D01*
X86995000Y-93408500D02*
X87566500Y-93091000D01*
X87566500Y-92900500D02*
X86995000Y-93408500D01*
X87566500Y-92773500D02*
X86931500Y-93281500D01*
X87693500Y-92583000D02*
X86868000Y-93154500D01*
X87693500Y-92456000D02*
X86868000Y-93027500D01*
D17*
X85852000Y-93662500D02*
X85217000Y-92773500D01*
D11*
X87757000Y-93789500D02*
X85788500Y-93789500D01*
X89344500Y-92646500D02*
X87757000Y-93789500D01*
X87566500Y-93091000D02*
X89344500Y-92646500D01*
X87884000Y-92202000D02*
X87566500Y-93091000D01*
X86804500Y-92900500D02*
X87884000Y-92202000D01*
X85979000Y-91440000D02*
X86804500Y-92964000D01*
X86042500Y-92837000D02*
X85979000Y-91440000D01*
X84963000Y-92583000D02*
X86042500Y-92837000D01*
X85788500Y-93789500D02*
X84963000Y-92583000D01*
D17*
X86042500Y-93662500D02*
X85407500Y-92773500D01*
X86233000Y-93662500D02*
X85661500Y-92837000D01*
X86360000Y-93662500D02*
X85915500Y-92900500D01*
X86614000Y-93662500D02*
X86169500Y-92837000D01*
X86804500Y-93662500D02*
X86233000Y-92583000D01*
X86995000Y-93662500D02*
X86106000Y-91948000D01*
X86169500Y-92646500D02*
X86106000Y-91821000D01*
D18*
X93291000Y-82044400D03*
X93291000Y-79504400D03*
X93291000Y-76964400D03*
X93291000Y-71884400D03*
X93291000Y-69344400D03*
X93291000Y-66804400D03*
X93291000Y-64264400D03*
X93291000Y-61724400D03*
X93291000Y-59184400D03*
X93291000Y-56644400D03*
X93291000Y-54104400D03*
X93291000Y-51564400D03*
X93291000Y-49024400D03*
X93291000Y-46484400D03*
X72971000Y-46484400D03*
X72971000Y-54104400D03*
X72971000Y-59184400D03*
X72971000Y-56644400D03*
X72971000Y-69344400D03*
X72971000Y-66804400D03*
X72971000Y-64264400D03*
X72971000Y-61724400D03*
X72971000Y-71884400D03*
X72971000Y-49024400D03*
X72971000Y-51564400D03*
D19*
X62743000Y-73307400D03*
X62744000Y-81307400D03*
X62744000Y-97307400D03*
X62744000Y-65307400D03*
X62744000Y-89307400D03*
X62743000Y-57307400D03*
X62743000Y-49307400D03*
X62744000Y-105307400D03*
X70743000Y-105307400D03*
X78743000Y-105307400D03*
X94743000Y-105307400D03*
X78743000Y-33307400D03*
X86743000Y-33307400D03*
X62744000Y-33307400D03*
X70743000Y-33307400D03*
X102743000Y-33307400D03*
X102743000Y-49307400D03*
X102743000Y-57307400D03*
X102743000Y-65307400D03*
X102743000Y-73307400D03*
X102743000Y-81307400D03*
X102743000Y-89307400D03*
X102743000Y-97307400D03*
X102743000Y-105307400D03*
D18*
X72971000Y-43944400D03*
X93291000Y-43944400D03*
D19*
X62743000Y-41307400D03*
X102743000Y-41307400D03*
D18*
X93291000Y-74485900D03*
D19*
X86743000Y-105307400D03*
X94743000Y-33307400D03*
M02*
