%TF.GenerationSoftware,KiCad,Pcbnew,4.0.5-e0-6337~49~ubuntu16.04.1*%
%TF.CreationDate,2017-01-29T13:31:36-08:00*%
%TF.ProjectId,2x4-12mm-Square-SMT-Pushbutton,3278342D31326D6D2D5371756172652D,v1.0*%
%TF.FileFunction,Other,Fab,Top*%
%FSLAX46Y46*%
G04 Gerber Fmt 4.6, Leading zero omitted, Abs format (unit mm)*
G04 Created by KiCad (PCBNEW 4.0.5-e0-6337~49~ubuntu16.04.1) date Sun Jan 29 13:31:36 2017*
%MOMM*%
%LPD*%
G01*
G04 APERTURE LIST*
%ADD10C,0.350000*%
%ADD11C,0.040640*%
%ADD12C,0.150000*%
G04 APERTURE END LIST*
D10*
D11*
X127150320Y-92725080D02*
G75*
G03X123456952Y-96624900I106632J-3799820D01*
G01*
X123450164Y-104525080D02*
G75*
G03X127175720Y-108336080I3811980J0D01*
G01*
X151150320Y-108326396D02*
G75*
G03X154950320Y-104425080I0J3801316D01*
G01*
X154951636Y-96525080D02*
G75*
G03X151050320Y-92725080I-3801316J0D01*
G01*
X154950320Y-96525080D02*
X154950320Y-104525080D01*
X151150320Y-92725080D02*
X127150320Y-92725080D01*
X151150320Y-108325080D02*
X127150320Y-108325080D01*
X123450320Y-96525080D02*
X123450320Y-104525080D01*
X133150320Y-94525080D02*
X145150320Y-94525080D01*
X145150320Y-94525080D02*
X145150320Y-106525080D01*
X145150320Y-106525080D02*
X133150320Y-106525080D01*
X133150320Y-106525080D02*
X133150320Y-94525080D01*
D12*
X139366082Y-102125613D02*
X139413701Y-101982756D01*
X139413701Y-101744660D01*
X139366082Y-101649422D01*
X139318463Y-101601803D01*
X139223225Y-101554184D01*
X139127987Y-101554184D01*
X139032749Y-101601803D01*
X138985130Y-101649422D01*
X138937510Y-101744660D01*
X138889891Y-101935137D01*
X138842272Y-102030375D01*
X138794653Y-102077994D01*
X138699415Y-102125613D01*
X138604177Y-102125613D01*
X138508939Y-102077994D01*
X138461320Y-102030375D01*
X138413701Y-101935137D01*
X138413701Y-101697041D01*
X138461320Y-101554184D01*
X138413701Y-101220851D02*
X139413701Y-100982756D01*
X138699415Y-100792279D01*
X139413701Y-100601803D01*
X138413701Y-100363708D01*
X139413701Y-99458946D02*
X139413701Y-100030375D01*
X139413701Y-99744661D02*
X138413701Y-99744661D01*
X138556558Y-99839899D01*
X138651796Y-99935137D01*
X138699415Y-100030375D01*
M02*
