%TF.GenerationSoftware,KiCad,Pcbnew,4.0.5-e0-6337~49~ubuntu16.04.1*%
%TF.CreationDate,2017-01-29T13:31:36-08:00*%
%TF.ProjectId,2x4-12mm-Square-SMT-Pushbutton,3278342D31326D6D2D5371756172652D,v1.0*%
%TF.FileFunction,Soldermask,Bot*%
%FSLAX46Y46*%
G04 Gerber Fmt 4.6, Leading zero omitted, Abs format (unit mm)*
G04 Created by KiCad (PCBNEW 4.0.5-e0-6337~49~ubuntu16.04.1) date Sun Jan 29 13:31:36 2017*
%MOMM*%
%LPD*%
G01*
G04 APERTURE LIST*
%ADD10C,0.350000*%
%ADD11C,7.200000*%
G04 APERTURE END LIST*
D10*
D11*
X151150320Y-104525080D02*
X127150320Y-104525080D01*
X151250320Y-96425080D02*
X127250320Y-96425080D01*
D10*
G36*
X127473430Y-101450927D02*
X128064375Y-101572231D01*
X128620518Y-101806012D01*
X129120654Y-102143358D01*
X129545741Y-102571423D01*
X129879586Y-103073901D01*
X130109476Y-103631656D01*
X130226584Y-104223094D01*
X130226584Y-104223104D01*
X130226651Y-104223443D01*
X130217030Y-104912496D01*
X130216953Y-104912834D01*
X130216953Y-104912842D01*
X130083377Y-105500781D01*
X129838005Y-106051896D01*
X129490257Y-106544858D01*
X129053382Y-106960889D01*
X128544020Y-107284141D01*
X127981574Y-107502299D01*
X127387467Y-107607056D01*
X126784323Y-107594422D01*
X126195120Y-107464877D01*
X125642302Y-107223357D01*
X125146927Y-106879062D01*
X124727857Y-106445103D01*
X124401058Y-105938010D01*
X124178976Y-105377094D01*
X124070075Y-104783738D01*
X124078497Y-104180521D01*
X124203926Y-103590427D01*
X124441579Y-103035938D01*
X124782411Y-102538168D01*
X125213432Y-102116080D01*
X125718233Y-101785748D01*
X126277579Y-101559757D01*
X126870165Y-101446716D01*
X127473430Y-101450927D01*
X127473430Y-101450927D01*
G37*
G36*
X135473430Y-101450927D02*
X136064375Y-101572231D01*
X136620518Y-101806012D01*
X137120654Y-102143358D01*
X137545741Y-102571423D01*
X137879586Y-103073901D01*
X138109476Y-103631656D01*
X138226584Y-104223094D01*
X138226584Y-104223104D01*
X138226651Y-104223443D01*
X138217030Y-104912496D01*
X138216953Y-104912834D01*
X138216953Y-104912842D01*
X138083377Y-105500781D01*
X137838005Y-106051896D01*
X137490257Y-106544858D01*
X137053382Y-106960889D01*
X136544020Y-107284141D01*
X135981574Y-107502299D01*
X135387467Y-107607056D01*
X134784323Y-107594422D01*
X134195120Y-107464877D01*
X133642302Y-107223357D01*
X133146927Y-106879062D01*
X132727857Y-106445103D01*
X132401058Y-105938010D01*
X132178976Y-105377094D01*
X132070075Y-104783738D01*
X132078497Y-104180521D01*
X132203926Y-103590427D01*
X132441579Y-103035938D01*
X132782411Y-102538168D01*
X133213432Y-102116080D01*
X133718233Y-101785748D01*
X134277579Y-101559757D01*
X134870165Y-101446716D01*
X135473430Y-101450927D01*
X135473430Y-101450927D01*
G37*
G36*
X143473430Y-101450927D02*
X144064375Y-101572231D01*
X144620518Y-101806012D01*
X145120654Y-102143358D01*
X145545741Y-102571423D01*
X145879586Y-103073901D01*
X146109476Y-103631656D01*
X146226584Y-104223094D01*
X146226584Y-104223104D01*
X146226651Y-104223443D01*
X146217030Y-104912496D01*
X146216953Y-104912834D01*
X146216953Y-104912842D01*
X146083377Y-105500781D01*
X145838005Y-106051896D01*
X145490257Y-106544858D01*
X145053382Y-106960889D01*
X144544020Y-107284141D01*
X143981574Y-107502299D01*
X143387467Y-107607056D01*
X142784323Y-107594422D01*
X142195120Y-107464877D01*
X141642302Y-107223357D01*
X141146927Y-106879062D01*
X140727857Y-106445103D01*
X140401058Y-105938010D01*
X140178976Y-105377094D01*
X140070075Y-104783738D01*
X140078497Y-104180521D01*
X140203926Y-103590427D01*
X140441579Y-103035938D01*
X140782411Y-102538168D01*
X141213432Y-102116080D01*
X141718233Y-101785748D01*
X142277579Y-101559757D01*
X142870165Y-101446716D01*
X143473430Y-101450927D01*
X143473430Y-101450927D01*
G37*
G36*
X151473430Y-101450927D02*
X152064375Y-101572231D01*
X152620518Y-101806012D01*
X153120654Y-102143358D01*
X153545741Y-102571423D01*
X153879586Y-103073901D01*
X154109476Y-103631656D01*
X154226584Y-104223094D01*
X154226584Y-104223104D01*
X154226651Y-104223443D01*
X154217030Y-104912496D01*
X154216953Y-104912834D01*
X154216953Y-104912842D01*
X154083377Y-105500781D01*
X153838005Y-106051896D01*
X153490257Y-106544858D01*
X153053382Y-106960889D01*
X152544020Y-107284141D01*
X151981574Y-107502299D01*
X151387467Y-107607056D01*
X150784323Y-107594422D01*
X150195120Y-107464877D01*
X149642302Y-107223357D01*
X149146927Y-106879062D01*
X148727857Y-106445103D01*
X148401058Y-105938010D01*
X148178976Y-105377094D01*
X148070075Y-104783738D01*
X148078497Y-104180521D01*
X148203926Y-103590427D01*
X148441579Y-103035938D01*
X148782411Y-102538168D01*
X149213432Y-102116080D01*
X149718233Y-101785748D01*
X150277579Y-101559757D01*
X150870165Y-101446716D01*
X151473430Y-101450927D01*
X151473430Y-101450927D01*
G37*
G36*
X127473430Y-93450927D02*
X128064375Y-93572231D01*
X128620518Y-93806012D01*
X129120654Y-94143358D01*
X129545741Y-94571423D01*
X129879586Y-95073901D01*
X130109476Y-95631656D01*
X130226584Y-96223094D01*
X130226584Y-96223104D01*
X130226651Y-96223443D01*
X130217030Y-96912496D01*
X130216953Y-96912834D01*
X130216953Y-96912842D01*
X130083377Y-97500781D01*
X129838005Y-98051896D01*
X129490257Y-98544858D01*
X129053382Y-98960889D01*
X128544020Y-99284141D01*
X127981574Y-99502299D01*
X127387467Y-99607056D01*
X126784323Y-99594422D01*
X126195120Y-99464877D01*
X125642302Y-99223357D01*
X125146927Y-98879062D01*
X124727857Y-98445103D01*
X124401058Y-97938010D01*
X124178976Y-97377094D01*
X124070075Y-96783738D01*
X124078497Y-96180521D01*
X124203926Y-95590427D01*
X124441579Y-95035938D01*
X124782411Y-94538168D01*
X125213432Y-94116080D01*
X125718233Y-93785748D01*
X126277579Y-93559757D01*
X126870165Y-93446716D01*
X127473430Y-93450927D01*
X127473430Y-93450927D01*
G37*
G36*
X135473430Y-93450927D02*
X136064375Y-93572231D01*
X136620518Y-93806012D01*
X137120654Y-94143358D01*
X137545741Y-94571423D01*
X137879586Y-95073901D01*
X138109476Y-95631656D01*
X138226584Y-96223094D01*
X138226584Y-96223104D01*
X138226651Y-96223443D01*
X138217030Y-96912496D01*
X138216953Y-96912834D01*
X138216953Y-96912842D01*
X138083377Y-97500781D01*
X137838005Y-98051896D01*
X137490257Y-98544858D01*
X137053382Y-98960889D01*
X136544020Y-99284141D01*
X135981574Y-99502299D01*
X135387467Y-99607056D01*
X134784323Y-99594422D01*
X134195120Y-99464877D01*
X133642302Y-99223357D01*
X133146927Y-98879062D01*
X132727857Y-98445103D01*
X132401058Y-97938010D01*
X132178976Y-97377094D01*
X132070075Y-96783738D01*
X132078497Y-96180521D01*
X132203926Y-95590427D01*
X132441579Y-95035938D01*
X132782411Y-94538168D01*
X133213432Y-94116080D01*
X133718233Y-93785748D01*
X134277579Y-93559757D01*
X134870165Y-93446716D01*
X135473430Y-93450927D01*
X135473430Y-93450927D01*
G37*
G36*
X143473430Y-93450927D02*
X144064375Y-93572231D01*
X144620518Y-93806012D01*
X145120654Y-94143358D01*
X145545741Y-94571423D01*
X145879586Y-95073901D01*
X146109476Y-95631656D01*
X146226584Y-96223094D01*
X146226584Y-96223104D01*
X146226651Y-96223443D01*
X146217030Y-96912496D01*
X146216953Y-96912834D01*
X146216953Y-96912842D01*
X146083377Y-97500781D01*
X145838005Y-98051896D01*
X145490257Y-98544858D01*
X145053382Y-98960889D01*
X144544020Y-99284141D01*
X143981574Y-99502299D01*
X143387467Y-99607056D01*
X142784323Y-99594422D01*
X142195120Y-99464877D01*
X141642302Y-99223357D01*
X141146927Y-98879062D01*
X140727857Y-98445103D01*
X140401058Y-97938010D01*
X140178976Y-97377094D01*
X140070075Y-96783738D01*
X140078497Y-96180521D01*
X140203926Y-95590427D01*
X140441579Y-95035938D01*
X140782411Y-94538168D01*
X141213432Y-94116080D01*
X141718233Y-93785748D01*
X142277579Y-93559757D01*
X142870165Y-93446716D01*
X143473430Y-93450927D01*
X143473430Y-93450927D01*
G37*
G36*
X151473430Y-93450927D02*
X152064375Y-93572231D01*
X152620518Y-93806012D01*
X153120654Y-94143358D01*
X153545741Y-94571423D01*
X153879586Y-95073901D01*
X154109476Y-95631656D01*
X154226584Y-96223094D01*
X154226584Y-96223104D01*
X154226651Y-96223443D01*
X154217030Y-96912496D01*
X154216953Y-96912834D01*
X154216953Y-96912842D01*
X154083377Y-97500781D01*
X153838005Y-98051896D01*
X153490257Y-98544858D01*
X153053382Y-98960889D01*
X152544020Y-99284141D01*
X151981574Y-99502299D01*
X151387467Y-99607056D01*
X150784323Y-99594422D01*
X150195120Y-99464877D01*
X149642302Y-99223357D01*
X149146927Y-98879062D01*
X148727857Y-98445103D01*
X148401058Y-97938010D01*
X148178976Y-97377094D01*
X148070075Y-96783738D01*
X148078497Y-96180521D01*
X148203926Y-95590427D01*
X148441579Y-95035938D01*
X148782411Y-94538168D01*
X149213432Y-94116080D01*
X149718233Y-93785748D01*
X150277579Y-93559757D01*
X150870165Y-93446716D01*
X151473430Y-93450927D01*
X151473430Y-93450927D01*
G37*
M02*
