%TF.GenerationSoftware,KiCad,Pcbnew,4.0.5-e0-6337~49~ubuntu16.04.1*%
%TF.CreationDate,2017-05-27T07:22:36-07:00*%
%TF.ProjectId,2x4-12mm-Square-SMT-Pushbutton,3278342D31326D6D2D5371756172652D,v1.3*%
%TF.FileFunction,Legend,Top*%
%FSLAX46Y46*%
G04 Gerber Fmt 4.6, Leading zero omitted, Abs format (unit mm)*
G04 Created by KiCad (PCBNEW 4.0.5-e0-6337~49~ubuntu16.04.1) date Sat May 27 07:22:36 2017*
%MOMM*%
%LPD*%
G01*
G04 APERTURE LIST*
%ADD10C,0.350000*%
%ADD11C,7.000000*%
%ADD12C,0.152400*%
%ADD13C,0.150000*%
%ADD14C,6.152400*%
%ADD15C,5.132400*%
%ADD16R,2.452400X2.552400*%
%ADD17R,2.552400X2.452400*%
G04 APERTURE END LIST*
D10*
D11*
X44526200Y-51409600D02*
X20526200Y-51409600D01*
D12*
X38526200Y-46159600D02*
X38526200Y-46409600D01*
X38526200Y-46409600D02*
X38526200Y-48659600D01*
X38526200Y-53409600D02*
X38526200Y-51159600D01*
X26526200Y-53409600D02*
X38526200Y-53409600D01*
X26526200Y-51159600D02*
X26526200Y-53409600D01*
X26526200Y-46159600D02*
X26526200Y-48659600D01*
X26526200Y-41409600D02*
X26526200Y-43659600D01*
X38526200Y-41409600D02*
X38526200Y-43409600D01*
X26526200Y-41409600D02*
X38526200Y-41409600D01*
D13*
X28669058Y-47138171D02*
X28811915Y-47185790D01*
X28859534Y-47233410D01*
X28907153Y-47328648D01*
X28907153Y-47471505D01*
X28859534Y-47566743D01*
X28811915Y-47614362D01*
X28716677Y-47661981D01*
X28335724Y-47661981D01*
X28335724Y-46661981D01*
X28669058Y-46661981D01*
X28764296Y-46709600D01*
X28811915Y-46757219D01*
X28859534Y-46852457D01*
X28859534Y-46947695D01*
X28811915Y-47042933D01*
X28764296Y-47090552D01*
X28669058Y-47138171D01*
X28335724Y-47138171D01*
X29240486Y-46661981D02*
X29859534Y-46661981D01*
X29526200Y-47042933D01*
X29669058Y-47042933D01*
X29764296Y-47090552D01*
X29811915Y-47138171D01*
X29859534Y-47233410D01*
X29859534Y-47471505D01*
X29811915Y-47566743D01*
X29764296Y-47614362D01*
X29669058Y-47661981D01*
X29383343Y-47661981D01*
X29288105Y-47614362D01*
X29240486Y-47566743D01*
X30621439Y-47138171D02*
X30288105Y-47138171D01*
X30288105Y-47661981D02*
X30288105Y-46661981D01*
X30764296Y-46661981D01*
X31145248Y-47281029D02*
X31907153Y-47281029D01*
X32811915Y-46995314D02*
X32811915Y-47661981D01*
X32573819Y-46614362D02*
X32335724Y-47328648D01*
X32954772Y-47328648D01*
X33526200Y-46661981D02*
X33621439Y-46661981D01*
X33716677Y-46709600D01*
X33764296Y-46757219D01*
X33811915Y-46852457D01*
X33859534Y-47042933D01*
X33859534Y-47281029D01*
X33811915Y-47471505D01*
X33764296Y-47566743D01*
X33716677Y-47614362D01*
X33621439Y-47661981D01*
X33526200Y-47661981D01*
X33430962Y-47614362D01*
X33383343Y-47566743D01*
X33335724Y-47471505D01*
X33288105Y-47281029D01*
X33288105Y-47042933D01*
X33335724Y-46852457D01*
X33383343Y-46757219D01*
X33430962Y-46709600D01*
X33526200Y-46661981D01*
X34478581Y-46661981D02*
X34573820Y-46661981D01*
X34669058Y-46709600D01*
X34716677Y-46757219D01*
X34764296Y-46852457D01*
X34811915Y-47042933D01*
X34811915Y-47281029D01*
X34764296Y-47471505D01*
X34716677Y-47566743D01*
X34669058Y-47614362D01*
X34573820Y-47661981D01*
X34478581Y-47661981D01*
X34383343Y-47614362D01*
X34335724Y-47566743D01*
X34288105Y-47471505D01*
X34240486Y-47281029D01*
X34240486Y-47042933D01*
X34288105Y-46852457D01*
X34335724Y-46757219D01*
X34383343Y-46709600D01*
X34478581Y-46661981D01*
X35192867Y-46757219D02*
X35240486Y-46709600D01*
X35335724Y-46661981D01*
X35573820Y-46661981D01*
X35669058Y-46709600D01*
X35716677Y-46757219D01*
X35764296Y-46852457D01*
X35764296Y-46947695D01*
X35716677Y-47090552D01*
X35145248Y-47661981D01*
X35764296Y-47661981D01*
X36192867Y-47661981D02*
X36192867Y-46661981D01*
X36573820Y-46661981D01*
X36669058Y-46709600D01*
X36716677Y-46757219D01*
X36764296Y-46852457D01*
X36764296Y-46995314D01*
X36716677Y-47090552D01*
X36669058Y-47138171D01*
X36573820Y-47185790D01*
X36192867Y-47185790D01*
%LPC*%
D14*
X20526200Y-43409600D03*
D15*
X28526200Y-43409600D03*
X36526200Y-43409600D03*
D14*
X44526200Y-43409600D03*
X44526200Y-51409600D03*
D15*
X36526200Y-51409600D03*
D14*
X20526200Y-51409600D03*
D16*
X39676200Y-44909600D03*
D17*
X39676200Y-49909600D03*
D16*
X25376200Y-44909600D03*
X25376200Y-49909600D03*
M02*
