%TF.GenerationSoftware,KiCad,Pcbnew,4.0.5-e0-6337~49~ubuntu16.04.1*%
%TF.CreationDate,2017-02-13T23:24:52-08:00*%
%TF.ProjectId,2x4-12mm-Square-SMT-Pushbutton,3278342D31326D6D2D5371756172652D,v1.0*%
%TF.FileFunction,Other,Fab,Top*%
%FSLAX46Y46*%
G04 Gerber Fmt 4.6, Leading zero omitted, Abs format (unit mm)*
G04 Created by KiCad (PCBNEW 4.0.5-e0-6337~49~ubuntu16.04.1) date Mon Feb 13 23:24:52 2017*
%MOMM*%
%LPD*%
G01*
G04 APERTURE LIST*
%ADD10C,0.350000*%
%ADD11C,0.040640*%
%ADD12C,0.150000*%
G04 APERTURE END LIST*
D10*
D11*
X20526200Y-39609600D02*
G75*
G03X16832832Y-43509420I106632J-3799820D01*
G01*
X16826044Y-51409600D02*
G75*
G03X20551600Y-55220600I3811980J0D01*
G01*
X44526200Y-55210916D02*
G75*
G03X48326200Y-51309600I0J3801316D01*
G01*
X48327516Y-43409600D02*
G75*
G03X44426200Y-39609600I-3801316J0D01*
G01*
X48326200Y-43409600D02*
X48326200Y-51409600D01*
X44526200Y-39609600D02*
X20526200Y-39609600D01*
X44526200Y-55209600D02*
X20526200Y-55209600D01*
X16826200Y-43409600D02*
X16826200Y-51409600D01*
X26526200Y-41409600D02*
X38526200Y-41409600D01*
X38526200Y-41409600D02*
X38526200Y-53409600D01*
X38526200Y-53409600D02*
X26526200Y-53409600D01*
X26526200Y-53409600D02*
X26526200Y-41409600D01*
D12*
X32741962Y-49010133D02*
X32789581Y-48867276D01*
X32789581Y-48629180D01*
X32741962Y-48533942D01*
X32694343Y-48486323D01*
X32599105Y-48438704D01*
X32503867Y-48438704D01*
X32408629Y-48486323D01*
X32361010Y-48533942D01*
X32313390Y-48629180D01*
X32265771Y-48819657D01*
X32218152Y-48914895D01*
X32170533Y-48962514D01*
X32075295Y-49010133D01*
X31980057Y-49010133D01*
X31884819Y-48962514D01*
X31837200Y-48914895D01*
X31789581Y-48819657D01*
X31789581Y-48581561D01*
X31837200Y-48438704D01*
X31789581Y-48105371D02*
X32789581Y-47867276D01*
X32075295Y-47676799D01*
X32789581Y-47486323D01*
X31789581Y-47248228D01*
X32789581Y-46343466D02*
X32789581Y-46914895D01*
X32789581Y-46629181D02*
X31789581Y-46629181D01*
X31932438Y-46724419D01*
X32027676Y-46819657D01*
X32075295Y-46914895D01*
M02*
