M48
;DRILL file {KiCad (2015-08-15 BZR 6092)-product} date 2/28/2016 10:29:12 PM
;FORMAT={-:-/ absolute / inch / decimal}
FMAT,2
INCH,TZ
T1C0.013
T2C0.016
T3C0.031
T4C0.032
T5C0.039
T6C0.189
T7C0.192
%
G90
G05
M72
T1
X4.4285Y-1.4173
X4.4285Y-2.0472
X4.4685Y-1.4173
X4.4685Y-2.0472
X4.5085Y-1.4173
X4.5085Y-2.0472
X4.5472Y-1.4173
X4.5472Y-2.0472
X4.5872Y-1.4173
X4.5872Y-2.0472
X4.6254Y-2.0472
X4.645Y-1.4173
X4.6654Y-2.0472
X4.685Y-1.4173
X4.7054Y-2.0472
X4.725Y-1.4173
X4.7435Y-2.0472
X4.7638Y-1.4173
X4.7835Y-2.0472
X4.8038Y-1.4173
X4.8235Y-2.0472
X4.9213Y-0.9443
X4.9213Y-0.9843
X4.9213Y-1.0624
X4.9213Y-1.1024
X4.9213Y-1.1424
X4.9213Y-1.1805
X4.9213Y-1.2205
X4.9213Y-1.2605
X4.9213Y-1.2992
X4.9213Y-1.5348
X4.9213Y-1.5748
X4.9213Y-1.6135
X4.9213Y-1.6535
X4.9213Y-1.7126
X4.9213Y-1.7907
X4.9213Y-1.8307
X4.9213Y-1.8694
X4.9213Y-1.9094
X4.9213Y-1.9494
X4.9213Y-2.145
X4.9213Y-2.185
X4.9213Y-2.225
X5.0387Y-1.4173
X5.0787Y-1.4173
X5.1187Y-1.4173
X5.1575Y-1.4173
X5.1975Y-1.4173
X5.2559Y-1.4173
X5.2953Y-1.4173
X5.3353Y-1.4173
X5.3734Y-1.4173
X5.4134Y-1.4173
X5.4534Y-1.4173
X5.5512Y-0.9246
X5.5512Y-0.9646
X5.5512Y-1.0046
X5.5512Y-1.0427
X5.5512Y-1.0827
X5.5512Y-1.1411
X5.5512Y-1.1811
X5.5512Y-1.2211
X5.5512Y-1.2592
X5.5512Y-1.2992
X5.649Y-1.4173
X5.689Y-1.4173
X5.729Y-1.4173
X5.7677Y-1.4173
X5.8661Y-1.5151
X5.8661Y-1.5551
X5.8661Y-1.5951
X5.8661Y-1.7717
X5.8661Y-1.8104
X5.8661Y-1.8504
X5.8661Y-1.8904
X5.8661Y-1.9285
X5.8661Y-1.9685
X5.8661Y-2.0085
X5.8661Y-2.086
X5.8661Y-2.126
X5.8661Y-2.166
X5.9639Y-1.4173
X6.0039Y-1.4173
X6.0439Y-1.4173
X6.0827Y-1.4173
X6.1811Y-0.9246
X6.1811Y-0.9646
X6.1811Y-1.0046
X6.1811Y-1.0427
X6.1811Y-1.0827
X6.1811Y-1.1411
X6.1811Y-1.1811
X6.1811Y-1.2211
X6.1811Y-1.2592
X6.1811Y-1.2992
X6.2789Y-1.4173
X6.3189Y-1.4173
X6.3589Y-1.4173
X6.3976Y-1.4173
X6.4376Y-1.4173
X6.4961Y-1.4173
X6.5551Y-1.4173
X6.5939Y-1.4173
X6.6339Y-1.4173
X6.6739Y-1.4173
T2
X5.2264Y-1.2303
X5.9449Y-2.0079
X5.9646Y-1.7323
X6.7323Y-2.0079
T3
X5.2165Y-1.689
X5.2165Y-1.789
X5.2165Y-1.889
X5.2165Y-1.989
X5.5165Y-1.689
X5.5165Y-1.789
X5.5165Y-1.889
X5.5165Y-1.989
T4
X4.5709Y-1.6969
X4.6417Y-1.7676
X6.4961Y-1.0024
X6.4961Y-1.1024
X6.4961Y-1.2024
T5
X4.5892Y-1.0054
X4.6234Y-1.1993
X4.9767Y-1.1257
X5.1969Y-1.063
X5.2595Y-0.8428
X5.2676Y-1.1337
T6
X5.7087Y-2.2047
T7
X4.4488Y-0.9449
X4.4488Y-1.2598
X4.4488Y-1.5748
X4.4488Y-1.8898
X4.7638Y-0.9449
X4.7638Y-1.2598
X4.7638Y-1.5748
X4.7638Y-1.8898
X5.0787Y-0.9449
X5.0787Y-1.2598
X5.0787Y-1.5748
X5.0787Y-1.8898
X5.0787Y-2.2047
X5.3937Y-0.9449
X5.3937Y-1.2598
X5.3937Y-1.5748
X5.3937Y-1.8898
X5.3937Y-2.2047
X5.7087Y-0.9449
X5.7087Y-1.2598
X5.7087Y-1.5748
X5.7087Y-1.8898
X6.0236Y-0.9449
X6.0236Y-1.2598
X6.0236Y-1.5748
X6.0236Y-1.8898
X6.0236Y-2.2047
X6.3386Y-0.9449
X6.3386Y-1.2598
X6.3386Y-1.5748
X6.3386Y-1.8898
X6.6535Y-0.9449
X6.6535Y-1.2598
X6.6535Y-1.5748
X6.6535Y-1.8898
X6.6535Y-2.2047
T0
M30
