%TF.GenerationSoftware,KiCad,Pcbnew,4.0.5-e0-6337~49~ubuntu16.04.1*%
%TF.CreationDate,2017-02-14T03:50:38-08:00*%
%TF.ProjectId,VibeMotor-Button-Battery,566962654D6F746F722D427574746F6E,v1.2*%
%TF.FileFunction,Copper,L2,Bot,Signal*%
%FSLAX46Y46*%
G04 Gerber Fmt 4.6, Leading zero omitted, Abs format (unit mm)*
G04 Created by KiCad (PCBNEW 4.0.5-e0-6337~49~ubuntu16.04.1) date Tue Feb 14 03:50:38 2017*
%MOMM*%
%LPD*%
G01*
G04 APERTURE LIST*
%ADD10C,0.350000*%
%ADD11C,2.000000*%
%ADD12C,7.200000*%
%ADD13C,6.000000*%
%ADD14C,0.500000*%
%ADD15C,1.700000*%
%ADD16C,7.200000*%
%ADD17C,6.000000*%
%ADD18C,1.300000*%
%ADD19C,1.400000*%
%ADD20C,2.000000*%
%ADD21C,0.350000*%
G04 APERTURE END LIST*
D10*
D11*
X27362400Y-41201800D02*
X27362400Y-46151800D01*
X31362400Y-30151800D02*
X31362400Y-35101800D01*
D12*
X47613300Y-45985700D02*
X47613300Y-29985700D01*
X55613300Y-45985700D02*
X47613300Y-45985700D01*
X55613300Y-29985700D02*
X47613300Y-29985700D01*
X39613300Y-29985700D02*
X39613300Y-45985700D01*
D13*
X45364400Y-55956200D02*
X29364400Y-55956200D01*
X45313600Y-64819800D02*
X29313600Y-64819800D01*
D14*
X51333400Y-63423800D03*
X51333400Y-64439800D03*
X49301400Y-64439800D03*
X49301400Y-63423800D03*
X33477200Y-31127700D03*
X33477200Y-30111700D03*
X35509200Y-30111700D03*
X35509200Y-31127700D03*
X29819600Y-52222400D03*
X28803600Y-52222400D03*
X28803600Y-50190400D03*
X29819600Y-50190400D03*
D15*
X31376600Y-35158400D03*
X31376600Y-41158400D03*
X27376600Y-35158400D03*
X27376600Y-41158400D03*
D16*
X29362400Y-46151800D03*
X29362400Y-30151800D03*
D17*
X55613300Y-45985700D03*
X39613300Y-45985700D03*
X55613300Y-29985700D03*
X39613300Y-29985700D03*
D18*
X41789400Y-58736800D03*
D19*
X41789400Y-60386800D03*
D18*
X41789400Y-62036800D03*
D20*
X31589400Y-60386800D03*
D17*
X29364400Y-56311800D03*
X45364400Y-56311800D03*
X45364400Y-64311800D03*
X37364400Y-64311800D03*
X29364400Y-64311800D03*
X37364400Y-56311800D03*
D14*
X55778400Y-52247800D03*
X54762400Y-52247800D03*
X54762400Y-50215800D03*
X55778400Y-50215800D03*
D21*
X51333400Y-63423800D03*
X51333400Y-64439800D03*
X49301400Y-64439800D03*
X49301400Y-63423800D03*
X33477200Y-31127700D03*
X33477200Y-30111700D03*
X35509200Y-30111700D03*
X35509200Y-31127700D03*
X29819600Y-52222400D03*
X28803600Y-52222400D03*
X28803600Y-50190400D03*
X29819600Y-50190400D03*
X31376600Y-35158400D03*
X31376600Y-41158400D03*
X27376600Y-35158400D03*
X27376600Y-41158400D03*
X29362400Y-38151800D03*
X29362400Y-46151800D03*
X29362400Y-30151800D03*
X47613300Y-37985700D03*
X55613300Y-37985700D03*
X39613300Y-37985700D03*
X55613300Y-45985700D03*
X47613300Y-45985700D03*
X39613300Y-45985700D03*
X55613300Y-29985700D03*
X47613300Y-29985700D03*
X39613300Y-29985700D03*
X41789400Y-58736800D03*
X41789400Y-60386800D03*
X41789400Y-62036800D03*
X31589400Y-60386800D03*
X29364400Y-56311800D03*
X45364400Y-56311800D03*
X45364400Y-64311800D03*
X37364400Y-64311800D03*
X29364400Y-64311800D03*
X37364400Y-56311800D03*
X55778400Y-52247800D03*
X54762400Y-52247800D03*
X54762400Y-50215800D03*
X55778400Y-50215800D03*
M02*
