M48
;DRILL file {KiCad 4.0.7-e2-6376~58~ubuntu16.04.1} date Sat Oct  7 16:36:03 2017
;FORMAT={-:-/ absolute / metric / decimal}
FMAT,2
METRIC,TZ
T1C0.500
T2C0.800
T3C1.000
T4C1.200
T5C4.980
T6C4.980
%
G90
G05
M71
T1
X28.804Y-50.19
X28.804Y-52.222
X29.82Y-50.19
X29.82Y-52.222
X33.477Y-30.112
X33.477Y-31.128
X35.509Y-30.112
X35.509Y-31.128
X49.301Y-63.424
X49.301Y-64.44
X51.333Y-63.424
X51.333Y-64.44
X54.762Y-50.216
X54.762Y-52.248
X55.778Y-50.216
X55.778Y-52.248
T2
X41.789Y-58.737
X41.789Y-62.037
T3
X27.377Y-35.158
X27.377Y-41.158
X31.377Y-35.158
X31.377Y-41.158
X41.789Y-60.387
T4
X31.589Y-60.387
T5
X29.362Y-30.152
X29.362Y-46.152
X29.364Y-56.312
X29.364Y-64.312
X37.364Y-56.312
X37.364Y-64.312
X39.613Y-29.986
X39.613Y-45.986
X45.364Y-56.312
X45.364Y-64.312
X55.613Y-29.986
X55.613Y-45.986
T6
X29.362Y-38.152
X39.613Y-37.986
X47.613Y-29.986
X47.613Y-37.986
X47.613Y-45.986
X55.613Y-37.986
T0
M30
