%TF.GenerationSoftware,KiCad,Pcbnew,4.0.4+e1-6308~48~ubuntu14.04.1-stable*%
%TF.CreationDate,2016-11-21T10:30:33-08:00*%
%TF.ProjectId,VibeMotor-Button-Battery,566962654D6F746F722D427574746F6E,rev?*%
%TF.FileFunction,Legend,Top*%
%FSLAX46Y46*%
G04 Gerber Fmt 4.6, Leading zero omitted, Abs format (unit mm)*
G04 Created by KiCad (PCBNEW 4.0.4+e1-6308~48~ubuntu14.04.1-stable) date Mon Nov 21 10:30:33 2016*
%MOMM*%
%LPD*%
G01*
G04 APERTURE LIST*
%ADD10C,0.350000*%
%ADD11C,6.000000*%
%ADD12C,0.150000*%
%ADD13C,8.000000*%
G04 APERTURE END LIST*
D10*
D11*
X167132000Y-118490000D02*
X151132000Y-118490000D01*
D12*
X154144200Y-94336600D02*
X154144200Y-90336600D01*
X148144200Y-94336600D02*
X148144200Y-90336600D01*
D10*
X151144200Y-95336600D02*
X151144200Y-95336600D01*
X154144200Y-90336600D02*
X154144200Y-94336600D01*
X148144200Y-90336600D02*
X148144200Y-94336600D01*
X151144200Y-89336600D02*
X151144200Y-89336600D01*
X152558414Y-92336600D02*
G75*
G03X152558414Y-92336600I-1414214J0D01*
G01*
D13*
X169380900Y-84163900D02*
X169380900Y-100163900D01*
X177380900Y-84163900D02*
X169380900Y-84163900D01*
X177280900Y-100163900D02*
X169280900Y-100163900D01*
D12*
X155203429Y-110870952D02*
X155203429Y-110109047D01*
X155584381Y-110489999D02*
X154822476Y-110489999D01*
X162751048Y-118561429D02*
X163512953Y-118561429D01*
X154751048Y-118561429D02*
X155512953Y-118561429D01*
X163203429Y-110870952D02*
X163203429Y-110109047D01*
X163584381Y-110489999D02*
X162822476Y-110489999D01*
X175213971Y-118188880D02*
X175261590Y-118046023D01*
X175309210Y-117998404D01*
X175404448Y-117950785D01*
X175547305Y-117950785D01*
X175642543Y-117998404D01*
X175690162Y-118046023D01*
X175737781Y-118141261D01*
X175737781Y-118522214D01*
X174737781Y-118522214D01*
X174737781Y-118188880D01*
X174785400Y-118093642D01*
X174833019Y-118046023D01*
X174928257Y-117998404D01*
X175023495Y-117998404D01*
X175118733Y-118046023D01*
X175166352Y-118093642D01*
X175213971Y-118188880D01*
X175213971Y-118522214D01*
X175737781Y-116950785D02*
X175261590Y-117284119D01*
X175737781Y-117522214D02*
X174737781Y-117522214D01*
X174737781Y-117141261D01*
X174785400Y-117046023D01*
X174833019Y-116998404D01*
X174928257Y-116950785D01*
X175071114Y-116950785D01*
X175166352Y-116998404D01*
X175213971Y-117046023D01*
X175261590Y-117141261D01*
X175261590Y-117522214D01*
X174737781Y-116331738D02*
X174737781Y-116141261D01*
X174785400Y-116046023D01*
X174880638Y-115950785D01*
X175071114Y-115903166D01*
X175404448Y-115903166D01*
X175594924Y-115950785D01*
X175690162Y-116046023D01*
X175737781Y-116141261D01*
X175737781Y-116331738D01*
X175690162Y-116426976D01*
X175594924Y-116522214D01*
X175404448Y-116569833D01*
X175071114Y-116569833D01*
X174880638Y-116522214D01*
X174785400Y-116426976D01*
X174737781Y-116331738D01*
X174737781Y-115569833D02*
X175737781Y-115331738D01*
X175023495Y-115141261D01*
X175737781Y-114950785D01*
X174737781Y-114712690D01*
X175737781Y-114331738D02*
X174737781Y-114331738D01*
X175737781Y-113760309D01*
X174737781Y-113760309D01*
X175737781Y-112522214D02*
X174737781Y-112522214D01*
X174737781Y-112284119D01*
X174785400Y-112141261D01*
X174880638Y-112046023D01*
X174975876Y-111998404D01*
X175166352Y-111950785D01*
X175309210Y-111950785D01*
X175499686Y-111998404D01*
X175594924Y-112046023D01*
X175690162Y-112141261D01*
X175737781Y-112284119D01*
X175737781Y-112522214D01*
X174737781Y-111331738D02*
X174737781Y-111141261D01*
X174785400Y-111046023D01*
X174880638Y-110950785D01*
X175071114Y-110903166D01*
X175404448Y-110903166D01*
X175594924Y-110950785D01*
X175690162Y-111046023D01*
X175737781Y-111141261D01*
X175737781Y-111331738D01*
X175690162Y-111426976D01*
X175594924Y-111522214D01*
X175404448Y-111569833D01*
X175071114Y-111569833D01*
X174880638Y-111522214D01*
X174785400Y-111426976D01*
X174737781Y-111331738D01*
X174785400Y-109950785D02*
X174737781Y-110046023D01*
X174737781Y-110188880D01*
X174785400Y-110331738D01*
X174880638Y-110426976D01*
X174975876Y-110474595D01*
X175166352Y-110522214D01*
X175309210Y-110522214D01*
X175499686Y-110474595D01*
X175594924Y-110426976D01*
X175690162Y-110331738D01*
X175737781Y-110188880D01*
X175737781Y-110093642D01*
X175690162Y-109950785D01*
X175642543Y-109903166D01*
X175309210Y-109903166D01*
X175309210Y-110093642D01*
X178877981Y-115912709D02*
X179877981Y-115579376D01*
X178877981Y-115246042D01*
X179877981Y-114388899D02*
X179877981Y-114960328D01*
X179877981Y-114674614D02*
X178877981Y-114674614D01*
X179020838Y-114769852D01*
X179116076Y-114865090D01*
X179163695Y-114960328D01*
X179782743Y-113960328D02*
X179830362Y-113912709D01*
X179877981Y-113960328D01*
X179830362Y-114007947D01*
X179782743Y-113960328D01*
X179877981Y-113960328D01*
X178877981Y-113293662D02*
X178877981Y-113198423D01*
X178925600Y-113103185D01*
X178973219Y-113055566D01*
X179068457Y-113007947D01*
X179258933Y-112960328D01*
X179497029Y-112960328D01*
X179687505Y-113007947D01*
X179782743Y-113055566D01*
X179830362Y-113103185D01*
X179877981Y-113198423D01*
X179877981Y-113293662D01*
X179830362Y-113388900D01*
X179782743Y-113436519D01*
X179687505Y-113484138D01*
X179497029Y-113531757D01*
X179258933Y-113531757D01*
X179068457Y-113484138D01*
X178973219Y-113436519D01*
X178925600Y-113388900D01*
X178877981Y-113293662D01*
X177884081Y-120526986D02*
X176884081Y-120526986D01*
X177598367Y-120193652D01*
X176884081Y-119860319D01*
X177884081Y-119860319D01*
X176884081Y-119193653D02*
X176884081Y-119003176D01*
X176931700Y-118907938D01*
X177026938Y-118812700D01*
X177217414Y-118765081D01*
X177550748Y-118765081D01*
X177741224Y-118812700D01*
X177836462Y-118907938D01*
X177884081Y-119003176D01*
X177884081Y-119193653D01*
X177836462Y-119288891D01*
X177741224Y-119384129D01*
X177550748Y-119431748D01*
X177217414Y-119431748D01*
X177026938Y-119384129D01*
X176931700Y-119288891D01*
X176884081Y-119193653D01*
X176884081Y-118479367D02*
X176884081Y-117907938D01*
X177884081Y-118193653D02*
X176884081Y-118193653D01*
X176884081Y-117384129D02*
X176884081Y-117193652D01*
X176931700Y-117098414D01*
X177026938Y-117003176D01*
X177217414Y-116955557D01*
X177550748Y-116955557D01*
X177741224Y-117003176D01*
X177836462Y-117098414D01*
X177884081Y-117193652D01*
X177884081Y-117384129D01*
X177836462Y-117479367D01*
X177741224Y-117574605D01*
X177550748Y-117622224D01*
X177217414Y-117622224D01*
X177026938Y-117574605D01*
X176931700Y-117479367D01*
X176884081Y-117384129D01*
X177884081Y-115955557D02*
X177407890Y-116288891D01*
X177884081Y-116526986D02*
X176884081Y-116526986D01*
X176884081Y-116146033D01*
X176931700Y-116050795D01*
X176979319Y-116003176D01*
X177074557Y-115955557D01*
X177217414Y-115955557D01*
X177312652Y-116003176D01*
X177360271Y-116050795D01*
X177407890Y-116146033D01*
X177407890Y-116526986D01*
X177503129Y-115526986D02*
X177503129Y-114765081D01*
X177360271Y-113955557D02*
X177407890Y-113812700D01*
X177455510Y-113765081D01*
X177550748Y-113717462D01*
X177693605Y-113717462D01*
X177788843Y-113765081D01*
X177836462Y-113812700D01*
X177884081Y-113907938D01*
X177884081Y-114288891D01*
X176884081Y-114288891D01*
X176884081Y-113955557D01*
X176931700Y-113860319D01*
X176979319Y-113812700D01*
X177074557Y-113765081D01*
X177169795Y-113765081D01*
X177265033Y-113812700D01*
X177312652Y-113860319D01*
X177360271Y-113955557D01*
X177360271Y-114288891D01*
X177598367Y-113336510D02*
X177598367Y-112860319D01*
X177884081Y-113431748D02*
X176884081Y-113098415D01*
X177884081Y-112765081D01*
X176884081Y-112574605D02*
X176884081Y-112003176D01*
X177884081Y-112288891D02*
X176884081Y-112288891D01*
X177503129Y-111669843D02*
X177503129Y-110907938D01*
X177360271Y-110098414D02*
X177407890Y-109955557D01*
X177455510Y-109907938D01*
X177550748Y-109860319D01*
X177693605Y-109860319D01*
X177788843Y-109907938D01*
X177836462Y-109955557D01*
X177884081Y-110050795D01*
X177884081Y-110431748D01*
X176884081Y-110431748D01*
X176884081Y-110098414D01*
X176931700Y-110003176D01*
X176979319Y-109955557D01*
X177074557Y-109907938D01*
X177169795Y-109907938D01*
X177265033Y-109955557D01*
X177312652Y-110003176D01*
X177360271Y-110098414D01*
X177360271Y-110431748D01*
X176884081Y-109574605D02*
X176884081Y-109003176D01*
X177884081Y-109288891D02*
X176884081Y-109288891D01*
X177884081Y-108669843D02*
X176884081Y-108669843D01*
X177884081Y-108098414D01*
X176884081Y-108098414D01*
X159909471Y-88092471D02*
X160052328Y-88140090D01*
X160099947Y-88187710D01*
X160147566Y-88282948D01*
X160147566Y-88425805D01*
X160099947Y-88521043D01*
X160052328Y-88568662D01*
X159957090Y-88616281D01*
X159576137Y-88616281D01*
X159576137Y-87616281D01*
X159909471Y-87616281D01*
X160004709Y-87663900D01*
X160052328Y-87711519D01*
X160099947Y-87806757D01*
X160099947Y-87901995D01*
X160052328Y-87997233D01*
X160004709Y-88044852D01*
X159909471Y-88092471D01*
X159576137Y-88092471D01*
X161004709Y-88616281D02*
X161004709Y-88092471D01*
X160957090Y-87997233D01*
X160861852Y-87949614D01*
X160671375Y-87949614D01*
X160576137Y-87997233D01*
X161004709Y-88568662D02*
X160909471Y-88616281D01*
X160671375Y-88616281D01*
X160576137Y-88568662D01*
X160528518Y-88473424D01*
X160528518Y-88378186D01*
X160576137Y-88282948D01*
X160671375Y-88235329D01*
X160909471Y-88235329D01*
X161004709Y-88187710D01*
X161338042Y-87949614D02*
X161718994Y-87949614D01*
X161480899Y-87616281D02*
X161480899Y-88473424D01*
X161528518Y-88568662D01*
X161623756Y-88616281D01*
X161718994Y-88616281D01*
X161909471Y-87949614D02*
X162290423Y-87949614D01*
X162052328Y-87616281D02*
X162052328Y-88473424D01*
X162099947Y-88568662D01*
X162195185Y-88616281D01*
X162290423Y-88616281D01*
X163004710Y-88568662D02*
X162909472Y-88616281D01*
X162718995Y-88616281D01*
X162623757Y-88568662D01*
X162576138Y-88473424D01*
X162576138Y-88092471D01*
X162623757Y-87997233D01*
X162718995Y-87949614D01*
X162909472Y-87949614D01*
X163004710Y-87997233D01*
X163052329Y-88092471D01*
X163052329Y-88187710D01*
X162576138Y-88282948D01*
X163480900Y-88616281D02*
X163480900Y-87949614D01*
X163480900Y-88140090D02*
X163528519Y-88044852D01*
X163576138Y-87997233D01*
X163671376Y-87949614D01*
X163766615Y-87949614D01*
X164004710Y-87949614D02*
X164242805Y-88616281D01*
X164480901Y-87949614D02*
X164242805Y-88616281D01*
X164147567Y-88854376D01*
X164099948Y-88901995D01*
X164004710Y-88949614D01*
X157999948Y-96435329D02*
X158761853Y-96435329D01*
X158380901Y-96816281D02*
X158380901Y-96054376D01*
X157999948Y-87635329D02*
X158761853Y-87635329D01*
X158380901Y-88016281D02*
X158380901Y-87254376D01*
M02*
