%TF.GenerationSoftware,KiCad,Pcbnew,4.0.4+e1-6308~48~ubuntu16.04.1-stable*%
%TF.CreationDate,2016-12-13T12:40:13-08:00*%
%TF.ProjectId,4x3-CR2032-Battery,3478332D4352323033322D4261747465,rev?*%
%TF.FileFunction,Soldermask,Top*%
%FSLAX46Y46*%
G04 Gerber Fmt 4.6, Leading zero omitted, Abs format (unit mm)*
G04 Created by KiCad (PCBNEW 4.0.4+e1-6308~48~ubuntu16.04.1-stable) date Tue Dec 13 12:40:13 2016*
%MOMM*%
%LPD*%
G01*
G04 APERTURE LIST*
%ADD10C,0.350000*%
G04 APERTURE END LIST*
D10*
G36*
X147223110Y-110825847D02*
X147814055Y-110947151D01*
X148370198Y-111180932D01*
X148870334Y-111518278D01*
X149295421Y-111946343D01*
X149629266Y-112448821D01*
X149859156Y-113006576D01*
X149976264Y-113598014D01*
X149976264Y-113598024D01*
X149976331Y-113598363D01*
X149966710Y-114287416D01*
X149966633Y-114287754D01*
X149966633Y-114287762D01*
X149833057Y-114875701D01*
X149587685Y-115426816D01*
X149239937Y-115919778D01*
X148803062Y-116335809D01*
X148293700Y-116659061D01*
X147731254Y-116877219D01*
X147137147Y-116981976D01*
X146534003Y-116969342D01*
X145944800Y-116839797D01*
X145391982Y-116598277D01*
X144896607Y-116253982D01*
X144477537Y-115820023D01*
X144150738Y-115312930D01*
X143928656Y-114752014D01*
X143819755Y-114158658D01*
X143828177Y-113555441D01*
X143953606Y-112965347D01*
X144191259Y-112410858D01*
X144532091Y-111913088D01*
X144963112Y-111491000D01*
X145467913Y-111160668D01*
X146027259Y-110934677D01*
X146619845Y-110821636D01*
X147223110Y-110825847D01*
X147223110Y-110825847D01*
G37*
G36*
X139223110Y-110825847D02*
X139814055Y-110947151D01*
X140370198Y-111180932D01*
X140870334Y-111518278D01*
X141295421Y-111946343D01*
X141629266Y-112448821D01*
X141859156Y-113006576D01*
X141976264Y-113598014D01*
X141976264Y-113598024D01*
X141976331Y-113598363D01*
X141966710Y-114287416D01*
X141966633Y-114287754D01*
X141966633Y-114287762D01*
X141833057Y-114875701D01*
X141587685Y-115426816D01*
X141239937Y-115919778D01*
X140803062Y-116335809D01*
X140293700Y-116659061D01*
X139731254Y-116877219D01*
X139137147Y-116981976D01*
X138534003Y-116969342D01*
X137944800Y-116839797D01*
X137391982Y-116598277D01*
X136896607Y-116253982D01*
X136477537Y-115820023D01*
X136150738Y-115312930D01*
X135928656Y-114752014D01*
X135819755Y-114158658D01*
X135828177Y-113555441D01*
X135953606Y-112965347D01*
X136191259Y-112410858D01*
X136532091Y-111913088D01*
X136963112Y-111491000D01*
X137467913Y-111160668D01*
X138027259Y-110934677D01*
X138619845Y-110821636D01*
X139223110Y-110825847D01*
X139223110Y-110825847D01*
G37*
G36*
X147223110Y-86825847D02*
X147814055Y-86947151D01*
X148370198Y-87180932D01*
X148870334Y-87518278D01*
X149295421Y-87946343D01*
X149629266Y-88448821D01*
X149859156Y-89006576D01*
X149976264Y-89598014D01*
X149976264Y-89598024D01*
X149976331Y-89598363D01*
X149966710Y-90287416D01*
X149966633Y-90287754D01*
X149966633Y-90287762D01*
X149833057Y-90875701D01*
X149730371Y-91106338D01*
X149726452Y-91120085D01*
X149726518Y-91134379D01*
X149730564Y-91148090D01*
X149738269Y-91160130D01*
X149749023Y-91169547D01*
X149761975Y-91175595D01*
X149776779Y-91177800D01*
X151472200Y-91177800D01*
X151472200Y-105130200D01*
X149945480Y-105130200D01*
X149931327Y-105132211D01*
X149918296Y-105138086D01*
X149907416Y-105147358D01*
X149899551Y-105159294D01*
X149895322Y-105172949D01*
X149895647Y-105190867D01*
X149976264Y-105598014D01*
X149976264Y-105598024D01*
X149976331Y-105598363D01*
X149966710Y-106287416D01*
X149966633Y-106287754D01*
X149966633Y-106287762D01*
X149833057Y-106875701D01*
X149587685Y-107426816D01*
X149239937Y-107919778D01*
X148803062Y-108335809D01*
X148293700Y-108659061D01*
X147731254Y-108877219D01*
X147137147Y-108981976D01*
X146534003Y-108969342D01*
X145944800Y-108839797D01*
X145391982Y-108598277D01*
X144896607Y-108253982D01*
X144477537Y-107820023D01*
X144150738Y-107312930D01*
X143928656Y-106752014D01*
X143819755Y-106158658D01*
X143828177Y-105555441D01*
X143905522Y-105191562D01*
X143906497Y-105177300D01*
X143903461Y-105163332D01*
X143896653Y-105150762D01*
X143886613Y-105140587D01*
X143874135Y-105133612D01*
X143855832Y-105130200D01*
X142319800Y-105130200D01*
X142319800Y-91177800D01*
X144022486Y-91177800D01*
X144036639Y-91175789D01*
X144049670Y-91169914D01*
X144060550Y-91160642D01*
X144068415Y-91148706D01*
X144072644Y-91135051D01*
X144072901Y-91120758D01*
X144069719Y-91108299D01*
X143928656Y-90752014D01*
X143819755Y-90158658D01*
X143828177Y-89555441D01*
X143953606Y-88965347D01*
X144191259Y-88410858D01*
X144532091Y-87913088D01*
X144963112Y-87491000D01*
X145467913Y-87160668D01*
X146027259Y-86934677D01*
X146619845Y-86821636D01*
X147223110Y-86825847D01*
X147223110Y-86825847D01*
G37*
G36*
X139223110Y-102825847D02*
X139814055Y-102947151D01*
X140370198Y-103180932D01*
X140870334Y-103518278D01*
X141295421Y-103946343D01*
X141629266Y-104448821D01*
X141859156Y-105006576D01*
X141976264Y-105598014D01*
X141976264Y-105598024D01*
X141976331Y-105598363D01*
X141966710Y-106287416D01*
X141966633Y-106287754D01*
X141966633Y-106287762D01*
X141833057Y-106875701D01*
X141587685Y-107426816D01*
X141239937Y-107919778D01*
X140803062Y-108335809D01*
X140293700Y-108659061D01*
X139731254Y-108877219D01*
X139137147Y-108981976D01*
X138534003Y-108969342D01*
X137944800Y-108839797D01*
X137391982Y-108598277D01*
X136896607Y-108253982D01*
X136477537Y-107820023D01*
X136150738Y-107312930D01*
X135928656Y-106752014D01*
X135819755Y-106158658D01*
X135828177Y-105555441D01*
X135953606Y-104965347D01*
X136191259Y-104410858D01*
X136532091Y-103913088D01*
X136963112Y-103491000D01*
X137467913Y-103160668D01*
X138027259Y-102934677D01*
X138619845Y-102821636D01*
X139223110Y-102825847D01*
X139223110Y-102825847D01*
G37*
G36*
X158476200Y-100756200D02*
X155723800Y-100756200D01*
X155723800Y-95043800D01*
X158476200Y-95043800D01*
X158476200Y-100756200D01*
X158476200Y-100756200D01*
G37*
G36*
X138076200Y-100756200D02*
X135323800Y-100756200D01*
X135323800Y-95043800D01*
X138076200Y-95043800D01*
X138076200Y-100756200D01*
X138076200Y-100756200D01*
G37*
G36*
X139223110Y-86825847D02*
X139814055Y-86947151D01*
X140370198Y-87180932D01*
X140870334Y-87518278D01*
X141295421Y-87946343D01*
X141629266Y-88448821D01*
X141859156Y-89006576D01*
X141976264Y-89598014D01*
X141976264Y-89598024D01*
X141976331Y-89598363D01*
X141966710Y-90287416D01*
X141966633Y-90287754D01*
X141966633Y-90287762D01*
X141833057Y-90875701D01*
X141587685Y-91426816D01*
X141239937Y-91919778D01*
X140803062Y-92335809D01*
X140293700Y-92659061D01*
X139731254Y-92877219D01*
X139137147Y-92981976D01*
X138534003Y-92969342D01*
X137944800Y-92839797D01*
X137391982Y-92598277D01*
X136896607Y-92253982D01*
X136477537Y-91820023D01*
X136150738Y-91312930D01*
X135928656Y-90752014D01*
X135819755Y-90158658D01*
X135828177Y-89555441D01*
X135953606Y-88965347D01*
X136191259Y-88410858D01*
X136532091Y-87913088D01*
X136963112Y-87491000D01*
X137467913Y-87160668D01*
X138027259Y-86934677D01*
X138619845Y-86821636D01*
X139223110Y-86825847D01*
X139223110Y-86825847D01*
G37*
M02*
