%TF.GenerationSoftware,KiCad,Pcbnew,4.0.5-e0-6337~49~ubuntu16.04.1*%
%TF.CreationDate,2017-01-19T01:23:12-08:00*%
%TF.ProjectId,2x2-LED-RGB-TH-4PIN,3278322D4C45442D5247422D54482D34,1.0*%
%TF.FileFunction,Soldermask,Top*%
%FSLAX46Y46*%
G04 Gerber Fmt 4.6, Leading zero omitted, Abs format (unit mm)*
G04 Created by KiCad (PCBNEW 4.0.5-e0-6337~49~ubuntu16.04.1) date Thu Jan 19 01:23:12 2017*
%MOMM*%
%LPD*%
G01*
G04 APERTURE LIST*
%ADD10C,0.350000*%
%ADD11C,2.000000*%
%ADD12C,2.286000*%
G04 APERTURE END LIST*
D10*
D11*
X148691600Y-84388960D02*
X144627600Y-86928960D01*
D12*
X148691600Y-89595960D02*
X152882600Y-86674960D01*
X152882600Y-95056960D02*
X148691600Y-92262960D01*
X148564600Y-96961960D02*
X144627600Y-94675960D01*
D10*
G36*
X148735390Y-95900441D02*
X148932521Y-95940907D01*
X149118051Y-96018897D01*
X149284892Y-96131433D01*
X149426698Y-96274232D01*
X149538066Y-96441855D01*
X149614756Y-96627918D01*
X149653776Y-96824987D01*
X149653776Y-96824992D01*
X149653844Y-96825336D01*
X149650634Y-97055199D01*
X149650557Y-97055537D01*
X149650557Y-97055546D01*
X149606049Y-97251450D01*
X149524196Y-97435295D01*
X149408188Y-97599746D01*
X149262450Y-97738531D01*
X149092531Y-97846365D01*
X148904899Y-97919142D01*
X148706712Y-97954088D01*
X148505505Y-97949873D01*
X148308951Y-97906659D01*
X148124533Y-97826088D01*
X147959282Y-97711235D01*
X147819482Y-97566469D01*
X147710464Y-97397305D01*
X147636377Y-97210184D01*
X147600049Y-97012248D01*
X147602858Y-96811018D01*
X147644702Y-96614165D01*
X147723980Y-96429192D01*
X147837680Y-96263138D01*
X147981465Y-96122333D01*
X148149865Y-96012136D01*
X148336460Y-95936746D01*
X148534140Y-95899037D01*
X148735390Y-95900441D01*
X148735390Y-95900441D01*
G37*
G36*
X144950710Y-91601807D02*
X145541655Y-91723111D01*
X146097798Y-91956892D01*
X146597934Y-92294238D01*
X147023021Y-92722303D01*
X147356866Y-93224781D01*
X147586756Y-93782536D01*
X147703864Y-94373974D01*
X147703864Y-94373984D01*
X147703931Y-94374323D01*
X147694310Y-95063376D01*
X147694233Y-95063714D01*
X147694233Y-95063722D01*
X147560657Y-95651661D01*
X147315285Y-96202776D01*
X146967537Y-96695738D01*
X146530662Y-97111769D01*
X146021300Y-97435021D01*
X145458854Y-97653179D01*
X144864747Y-97757936D01*
X144261603Y-97745302D01*
X143672400Y-97615757D01*
X143119582Y-97374237D01*
X142624207Y-97029942D01*
X142205137Y-96595983D01*
X141878338Y-96088890D01*
X141656256Y-95527974D01*
X141547355Y-94934618D01*
X141555777Y-94331401D01*
X141681206Y-93741307D01*
X141918859Y-93186818D01*
X142259691Y-92689048D01*
X142690712Y-92266960D01*
X143195513Y-91936628D01*
X143754859Y-91710637D01*
X144347445Y-91597596D01*
X144950710Y-91601807D01*
X144950710Y-91601807D01*
G37*
G36*
X152950710Y-91601807D02*
X153541655Y-91723111D01*
X154097798Y-91956892D01*
X154597934Y-92294238D01*
X155023021Y-92722303D01*
X155356866Y-93224781D01*
X155586756Y-93782536D01*
X155703864Y-94373974D01*
X155703864Y-94373984D01*
X155703931Y-94374323D01*
X155694310Y-95063376D01*
X155694233Y-95063714D01*
X155694233Y-95063722D01*
X155560657Y-95651661D01*
X155315285Y-96202776D01*
X154967537Y-96695738D01*
X154530662Y-97111769D01*
X154021300Y-97435021D01*
X153458854Y-97653179D01*
X152864747Y-97757936D01*
X152261603Y-97745302D01*
X151672400Y-97615757D01*
X151119582Y-97374237D01*
X150624207Y-97029942D01*
X150205137Y-96595983D01*
X149878338Y-96088890D01*
X149656256Y-95527974D01*
X149547355Y-94934618D01*
X149555777Y-94331401D01*
X149681206Y-93741307D01*
X149918859Y-93186818D01*
X150259691Y-92689048D01*
X150690712Y-92266960D01*
X151195513Y-91936628D01*
X151754859Y-91710637D01*
X152347445Y-91597596D01*
X152950710Y-91601807D01*
X152950710Y-91601807D01*
G37*
G36*
X148735390Y-91190441D02*
X148932521Y-91230907D01*
X149118051Y-91308897D01*
X149284892Y-91421433D01*
X149426698Y-91564232D01*
X149538066Y-91731855D01*
X149614756Y-91917918D01*
X149653776Y-92114987D01*
X149653776Y-92114992D01*
X149653844Y-92115336D01*
X149650634Y-92345199D01*
X149650557Y-92345537D01*
X149650557Y-92345546D01*
X149606049Y-92541450D01*
X149524196Y-92725295D01*
X149408188Y-92889746D01*
X149262450Y-93028531D01*
X149092531Y-93136365D01*
X148904899Y-93209142D01*
X148706712Y-93244088D01*
X148505505Y-93239873D01*
X148308951Y-93196659D01*
X148124533Y-93116088D01*
X147959282Y-93001235D01*
X147819482Y-92856469D01*
X147710464Y-92687305D01*
X147636377Y-92500184D01*
X147600049Y-92302248D01*
X147602858Y-92101018D01*
X147644702Y-91904165D01*
X147723980Y-91719192D01*
X147837680Y-91553138D01*
X147981465Y-91412333D01*
X148149865Y-91302136D01*
X148336460Y-91226746D01*
X148534140Y-91189037D01*
X148735390Y-91190441D01*
X148735390Y-91190441D01*
G37*
G36*
X149703800Y-90702160D02*
X147551400Y-90702160D01*
X147551400Y-88649760D01*
X149703800Y-88649760D01*
X149703800Y-90702160D01*
X149703800Y-90702160D01*
G37*
G36*
X144950710Y-83601807D02*
X145541655Y-83723111D01*
X146097798Y-83956892D01*
X146597934Y-84294238D01*
X147023021Y-84722303D01*
X147356866Y-85224781D01*
X147586756Y-85782536D01*
X147703864Y-86373974D01*
X147703864Y-86373984D01*
X147703931Y-86374323D01*
X147694310Y-87063376D01*
X147694233Y-87063714D01*
X147694233Y-87063722D01*
X147560657Y-87651661D01*
X147315285Y-88202776D01*
X146967537Y-88695738D01*
X146530662Y-89111769D01*
X146021300Y-89435021D01*
X145458854Y-89653179D01*
X144864747Y-89757936D01*
X144261603Y-89745302D01*
X143672400Y-89615757D01*
X143119582Y-89374237D01*
X142624207Y-89029942D01*
X142205137Y-88595983D01*
X141878338Y-88088890D01*
X141656256Y-87527974D01*
X141547355Y-86934618D01*
X141555777Y-86331401D01*
X141681206Y-85741307D01*
X141918859Y-85186818D01*
X142259691Y-84689048D01*
X142690712Y-84266960D01*
X143195513Y-83936628D01*
X143754859Y-83710637D01*
X144347445Y-83597596D01*
X144950710Y-83601807D01*
X144950710Y-83601807D01*
G37*
G36*
X152950710Y-83601807D02*
X153541655Y-83723111D01*
X154097798Y-83956892D01*
X154597934Y-84294238D01*
X155023021Y-84722303D01*
X155356866Y-85224781D01*
X155586756Y-85782536D01*
X155703864Y-86373974D01*
X155703864Y-86373984D01*
X155703931Y-86374323D01*
X155694310Y-87063376D01*
X155694233Y-87063714D01*
X155694233Y-87063722D01*
X155560657Y-87651661D01*
X155315285Y-88202776D01*
X154967537Y-88695738D01*
X154530662Y-89111769D01*
X154021300Y-89435021D01*
X153458854Y-89653179D01*
X152864747Y-89757936D01*
X152261603Y-89745302D01*
X151672400Y-89615757D01*
X151119582Y-89374237D01*
X150624207Y-89029942D01*
X150205137Y-88595983D01*
X149878338Y-88088890D01*
X149656256Y-87527974D01*
X149547355Y-86934618D01*
X149555777Y-86331401D01*
X149681206Y-85741307D01*
X149918859Y-85186818D01*
X150259691Y-84689048D01*
X150690712Y-84266960D01*
X151195513Y-83936628D01*
X151754859Y-83710637D01*
X152347445Y-83597596D01*
X152950710Y-83601807D01*
X152950710Y-83601807D01*
G37*
G36*
X148735390Y-83400441D02*
X148932521Y-83440907D01*
X149118051Y-83518897D01*
X149284892Y-83631433D01*
X149426698Y-83774232D01*
X149538066Y-83941855D01*
X149614756Y-84127918D01*
X149653776Y-84324987D01*
X149653776Y-84324992D01*
X149653844Y-84325336D01*
X149650634Y-84555199D01*
X149650557Y-84555537D01*
X149650557Y-84555546D01*
X149606049Y-84751450D01*
X149524196Y-84935295D01*
X149408188Y-85099746D01*
X149262450Y-85238531D01*
X149092531Y-85346365D01*
X148904899Y-85419142D01*
X148706712Y-85454088D01*
X148505505Y-85449873D01*
X148308951Y-85406659D01*
X148124533Y-85326088D01*
X147959282Y-85211235D01*
X147819482Y-85066469D01*
X147710464Y-84897305D01*
X147636377Y-84710184D01*
X147600049Y-84512248D01*
X147602858Y-84311018D01*
X147644702Y-84114165D01*
X147723980Y-83929192D01*
X147837680Y-83763138D01*
X147981465Y-83622333D01*
X148149865Y-83512136D01*
X148336460Y-83436746D01*
X148534140Y-83399037D01*
X148735390Y-83400441D01*
X148735390Y-83400441D01*
G37*
M02*
