%TF.GenerationSoftware,KiCad,Pcbnew,4.0.5-e0-6337~49~ubuntu16.04.1*%
%TF.CreationDate,2017-01-19T01:23:12-08:00*%
%TF.ProjectId,2x2-LED-RGB-TH-4PIN,3278322D4C45442D5247422D54482D34,1.0*%
%TF.FileFunction,Legend,Top*%
%FSLAX46Y46*%
G04 Gerber Fmt 4.6, Leading zero omitted, Abs format (unit mm)*
G04 Created by KiCad (PCBNEW 4.0.5-e0-6337~49~ubuntu16.04.1) date Thu Jan 19 01:23:12 2017*
%MOMM*%
%LPD*%
G01*
G04 APERTURE LIST*
%ADD10C,0.350000*%
%ADD11C,0.100000*%
%ADD12C,0.150000*%
G04 APERTURE END LIST*
D10*
D11*
X145227600Y-87475960D02*
X151827600Y-87475960D01*
X145227600Y-87475961D02*
G75*
G03X151890444Y-87570227I3262844J-4894266D01*
G01*
D12*
X143937124Y-91128341D02*
X143603790Y-90652150D01*
X143365695Y-91128341D02*
X143365695Y-90128341D01*
X143746648Y-90128341D01*
X143841886Y-90175960D01*
X143889505Y-90223579D01*
X143937124Y-90318817D01*
X143937124Y-90461674D01*
X143889505Y-90556912D01*
X143841886Y-90604531D01*
X143746648Y-90652150D01*
X143365695Y-90652150D01*
X144889505Y-90175960D02*
X144794267Y-90128341D01*
X144651410Y-90128341D01*
X144508552Y-90175960D01*
X144413314Y-90271198D01*
X144365695Y-90366436D01*
X144318076Y-90556912D01*
X144318076Y-90699770D01*
X144365695Y-90890246D01*
X144413314Y-90985484D01*
X144508552Y-91080722D01*
X144651410Y-91128341D01*
X144746648Y-91128341D01*
X144889505Y-91080722D01*
X144937124Y-91033103D01*
X144937124Y-90699770D01*
X144746648Y-90699770D01*
X145699029Y-90604531D02*
X145841886Y-90652150D01*
X145889505Y-90699770D01*
X145937124Y-90795008D01*
X145937124Y-90937865D01*
X145889505Y-91033103D01*
X145841886Y-91080722D01*
X145746648Y-91128341D01*
X145365695Y-91128341D01*
X145365695Y-90128341D01*
X145699029Y-90128341D01*
X145794267Y-90175960D01*
X145841886Y-90223579D01*
X145889505Y-90318817D01*
X145889505Y-90414055D01*
X145841886Y-90509293D01*
X145794267Y-90556912D01*
X145699029Y-90604531D01*
X145365695Y-90604531D01*
X156137124Y-89033103D02*
X156089505Y-89080722D01*
X155946648Y-89128341D01*
X155851410Y-89128341D01*
X155708552Y-89080722D01*
X155613314Y-88985484D01*
X155565695Y-88890246D01*
X155518076Y-88699770D01*
X155518076Y-88556912D01*
X155565695Y-88366436D01*
X155613314Y-88271198D01*
X155708552Y-88175960D01*
X155851410Y-88128341D01*
X155946648Y-88128341D01*
X156089505Y-88175960D01*
X156137124Y-88223579D01*
X151984743Y-91128341D02*
X151508552Y-91128341D01*
X151508552Y-90128341D01*
X152318076Y-90604531D02*
X152651410Y-90604531D01*
X152794267Y-91128341D02*
X152318076Y-91128341D01*
X152318076Y-90128341D01*
X152794267Y-90128341D01*
X153222838Y-91128341D02*
X153222838Y-90128341D01*
X153460933Y-90128341D01*
X153603791Y-90175960D01*
X153699029Y-90271198D01*
X153746648Y-90366436D01*
X153794267Y-90556912D01*
X153794267Y-90699770D01*
X153746648Y-90890246D01*
X153699029Y-90985484D01*
X153603791Y-91080722D01*
X153460933Y-91128341D01*
X153222838Y-91128341D01*
X141737124Y-89128341D02*
X141403790Y-88652150D01*
X141165695Y-89128341D02*
X141165695Y-88128341D01*
X141546648Y-88128341D01*
X141641886Y-88175960D01*
X141689505Y-88223579D01*
X141737124Y-88318817D01*
X141737124Y-88461674D01*
X141689505Y-88556912D01*
X141641886Y-88604531D01*
X141546648Y-88652150D01*
X141165695Y-88652150D01*
X141499029Y-92604531D02*
X141641886Y-92652150D01*
X141689505Y-92699770D01*
X141737124Y-92795008D01*
X141737124Y-92937865D01*
X141689505Y-93033103D01*
X141641886Y-93080722D01*
X141546648Y-93128341D01*
X141165695Y-93128341D01*
X141165695Y-92128341D01*
X141499029Y-92128341D01*
X141594267Y-92175960D01*
X141641886Y-92223579D01*
X141689505Y-92318817D01*
X141689505Y-92414055D01*
X141641886Y-92509293D01*
X141594267Y-92556912D01*
X141499029Y-92604531D01*
X141165695Y-92604531D01*
X156089505Y-92175960D02*
X155994267Y-92128341D01*
X155851410Y-92128341D01*
X155708552Y-92175960D01*
X155613314Y-92271198D01*
X155565695Y-92366436D01*
X155518076Y-92556912D01*
X155518076Y-92699770D01*
X155565695Y-92890246D01*
X155613314Y-92985484D01*
X155708552Y-93080722D01*
X155851410Y-93128341D01*
X155946648Y-93128341D01*
X156089505Y-93080722D01*
X156137124Y-93033103D01*
X156137124Y-92699770D01*
X155946648Y-92699770D01*
M02*
