G04 This is an RS-274x file exported by *
G04 gerbv version 2.6.0 *
G04 More information is available about gerbv at *
G04 http://gerbv.gpleda.org/ *
G04 --End of header info--*
%MOIN*%
%FSLAX34Y34*%
%IPPOS*%
G04 --Define apertures--*
%ADD10C,0.0138*%
%ADD11C,0.0100*%
%ADD12C,0.0016*%
G04 --Start main section--*
G54D11*
G01X0002006Y-003132D02*
G01X0002006Y-002132D01*
G01X0002006Y-002132D02*
G01X0002578Y-003132D01*
G01X0002578Y-003132D02*
G01X0002578Y-002132D01*
G01X0003197Y-003132D02*
G01X0003101Y-003085D01*
G01X0003101Y-003085D02*
G01X0003054Y-003037D01*
G01X0003054Y-003037D02*
G01X0003006Y-002942D01*
G01X0003006Y-002942D02*
G01X0003006Y-002656D01*
G01X0003006Y-002656D02*
G01X0003054Y-002561D01*
G01X0003054Y-002561D02*
G01X0003101Y-002513D01*
G01X0003101Y-002513D02*
G01X0003197Y-002466D01*
G01X0003197Y-002466D02*
G01X0003340Y-002466D01*
G01X0003340Y-002466D02*
G01X0003435Y-002513D01*
G01X0003435Y-002513D02*
G01X0003482Y-002561D01*
G01X0003482Y-002561D02*
G01X0003530Y-002656D01*
G01X0003530Y-002656D02*
G01X0003530Y-002942D01*
G01X0003530Y-002942D02*
G01X0003482Y-003037D01*
G01X0003482Y-003037D02*
G01X0003435Y-003085D01*
G01X0003435Y-003085D02*
G01X0003340Y-003132D01*
G01X0003340Y-003132D02*
G01X0003197Y-003132D01*
G01X0005149Y-003132D02*
G01X0005149Y-002132D01*
G01X0005149Y-003085D02*
G01X0005054Y-003132D01*
G01X0005054Y-003132D02*
G01X0004863Y-003132D01*
G01X0004863Y-003132D02*
G01X0004768Y-003085D01*
G01X0004768Y-003085D02*
G01X0004720Y-003037D01*
G01X0004720Y-003037D02*
G01X0004673Y-002942D01*
G01X0004673Y-002942D02*
G01X0004673Y-002656D01*
G01X0004673Y-002656D02*
G01X0004720Y-002561D01*
G01X0004720Y-002561D02*
G01X0004768Y-002513D01*
G01X0004768Y-002513D02*
G01X0004863Y-002466D01*
G01X0004863Y-002466D02*
G01X0005054Y-002466D01*
G01X0005054Y-002466D02*
G01X0005149Y-002513D01*
G01X0005625Y-003132D02*
G01X0005625Y-002466D01*
G01X0005625Y-002656D02*
G01X0005673Y-002561D01*
G01X0005673Y-002561D02*
G01X0005720Y-002513D01*
G01X0005720Y-002513D02*
G01X0005816Y-002466D01*
G01X0005816Y-002466D02*
G01X0005911Y-002466D01*
G01X0006244Y-003132D02*
G01X0006244Y-002466D01*
G01X0006244Y-002132D02*
G01X0006197Y-002180D01*
G01X0006197Y-002180D02*
G01X0006244Y-002228D01*
G01X0006244Y-002228D02*
G01X0006292Y-002180D01*
G01X0006292Y-002180D02*
G01X0006244Y-002132D01*
G01X0006244Y-002132D02*
G01X0006244Y-002228D01*
G01X0006863Y-003132D02*
G01X0006768Y-003085D01*
G01X0006768Y-003085D02*
G01X0006720Y-002990D01*
G01X0006720Y-002990D02*
G01X0006720Y-002132D01*
G01X0007387Y-003132D02*
G01X0007292Y-003085D01*
G01X0007292Y-003085D02*
G01X0007244Y-002990D01*
G01X0007244Y-002990D02*
G01X0007244Y-002132D01*
G01X0008530Y-003132D02*
G01X0008530Y-002132D01*
G01X0008959Y-003132D02*
G01X0008959Y-002609D01*
G01X0008959Y-002609D02*
G01X0008911Y-002513D01*
G01X0008911Y-002513D02*
G01X0008816Y-002466D01*
G01X0008816Y-002466D02*
G01X0008673Y-002466D01*
G01X0008673Y-002466D02*
G01X0008578Y-002513D01*
G01X0008578Y-002513D02*
G01X0008530Y-002561D01*
G01X0009578Y-003132D02*
G01X0009482Y-003085D01*
G01X0009482Y-003085D02*
G01X0009435Y-003037D01*
G01X0009435Y-003037D02*
G01X0009387Y-002942D01*
G01X0009387Y-002942D02*
G01X0009387Y-002656D01*
G01X0009387Y-002656D02*
G01X0009435Y-002561D01*
G01X0009435Y-002561D02*
G01X0009482Y-002513D01*
G01X0009482Y-002513D02*
G01X0009578Y-002466D01*
G01X0009578Y-002466D02*
G01X0009720Y-002466D01*
G01X0009720Y-002466D02*
G01X0009816Y-002513D01*
G01X0009816Y-002513D02*
G01X0009863Y-002561D01*
G01X0009863Y-002561D02*
G01X0009911Y-002656D01*
G01X0009911Y-002656D02*
G01X0009911Y-002942D01*
G01X0009911Y-002942D02*
G01X0009863Y-003037D01*
G01X0009863Y-003037D02*
G01X0009816Y-003085D01*
G01X0009816Y-003085D02*
G01X0009720Y-003132D01*
G01X0009720Y-003132D02*
G01X0009578Y-003132D01*
G01X0010482Y-003132D02*
G01X0010387Y-003085D01*
G01X0010387Y-003085D02*
G01X0010340Y-002990D01*
G01X0010340Y-002990D02*
G01X0010340Y-002132D01*
G01X0011244Y-003085D02*
G01X0011149Y-003132D01*
G01X0011149Y-003132D02*
G01X0010959Y-003132D01*
G01X0010959Y-003132D02*
G01X0010863Y-003085D01*
G01X0010863Y-003085D02*
G01X0010816Y-002990D01*
G01X0010816Y-002990D02*
G01X0010816Y-002609D01*
G01X0010816Y-002609D02*
G01X0010863Y-002513D01*
G01X0010863Y-002513D02*
G01X0010959Y-002466D01*
G01X0010959Y-002466D02*
G01X0011149Y-002466D01*
G01X0011149Y-002466D02*
G01X0011244Y-002513D01*
G01X0011244Y-002513D02*
G01X0011292Y-002609D01*
G01X0011292Y-002609D02*
G01X0011292Y-002704D01*
G01X0011292Y-002704D02*
G01X0010816Y-002799D01*
G01X0011673Y-003085D02*
G01X0011768Y-003132D01*
G01X0011768Y-003132D02*
G01X0011959Y-003132D01*
G01X0011959Y-003132D02*
G01X0012054Y-003085D01*
G01X0012054Y-003085D02*
G01X0012101Y-002990D01*
G01X0012101Y-002990D02*
G01X0012101Y-002942D01*
G01X0012101Y-002942D02*
G01X0012054Y-002847D01*
G01X0012054Y-002847D02*
G01X0011959Y-002799D01*
G01X0011959Y-002799D02*
G01X0011816Y-002799D01*
G01X0011816Y-002799D02*
G01X0011720Y-002751D01*
G01X0011720Y-002751D02*
G01X0011673Y-002656D01*
G01X0011673Y-002656D02*
G01X0011673Y-002609D01*
G01X0011673Y-002609D02*
G01X0011720Y-002513D01*
G01X0011720Y-002513D02*
G01X0011816Y-002466D01*
G01X0011816Y-002466D02*
G01X0011959Y-002466D01*
G01X0011959Y-002466D02*
G01X0012054Y-002513D01*
G01X0002551Y-022009D02*
G01X0002218Y-022009D01*
G01X0002218Y-022532D02*
G01X0002218Y-021532D01*
G01X0002218Y-021532D02*
G01X0002694Y-021532D01*
G01X0003028Y-022247D02*
G01X0003504Y-022247D01*
G01X0002932Y-022532D02*
G01X0003266Y-021532D01*
G01X0003266Y-021532D02*
G01X0003599Y-022532D01*
G01X0004266Y-022009D02*
G01X0004409Y-022056D01*
G01X0004409Y-022056D02*
G01X0004456Y-022104D01*
G01X0004456Y-022104D02*
G01X0004504Y-022199D01*
G01X0004504Y-022199D02*
G01X0004504Y-022342D01*
G01X0004504Y-022342D02*
G01X0004456Y-022437D01*
G01X0004456Y-022437D02*
G01X0004409Y-022485D01*
G01X0004409Y-022485D02*
G01X0004313Y-022532D01*
G01X0004313Y-022532D02*
G01X0003932Y-022532D01*
G01X0003932Y-022532D02*
G01X0003932Y-021532D01*
G01X0003932Y-021532D02*
G01X0004266Y-021532D01*
G01X0004266Y-021532D02*
G01X0004361Y-021580D01*
G01X0004361Y-021580D02*
G01X0004409Y-021628D01*
G01X0004409Y-021628D02*
G01X0004456Y-021723D01*
G01X0004456Y-021723D02*
G01X0004456Y-021818D01*
G01X0004456Y-021818D02*
G01X0004409Y-021913D01*
G01X0004409Y-021913D02*
G01X0004361Y-021961D01*
G01X0004361Y-021961D02*
G01X0004266Y-022009D01*
G01X0004266Y-022009D02*
G01X0003932Y-022009D01*
G01X0005504Y-022532D02*
G01X0005170Y-022056D01*
G01X0004932Y-022532D02*
G01X0004932Y-021532D01*
G01X0004932Y-021532D02*
G01X0005313Y-021532D01*
G01X0005313Y-021532D02*
G01X0005409Y-021580D01*
G01X0005409Y-021580D02*
G01X0005456Y-021628D01*
G01X0005456Y-021628D02*
G01X0005504Y-021723D01*
G01X0005504Y-021723D02*
G01X0005504Y-021866D01*
G01X0005504Y-021866D02*
G01X0005456Y-021961D01*
G01X0005456Y-021961D02*
G01X0005409Y-022009D01*
G01X0005409Y-022009D02*
G01X0005313Y-022056D01*
G01X0005313Y-022056D02*
G01X0004932Y-022056D01*
G01X0005932Y-022532D02*
G01X0005932Y-021532D01*
G01X0006980Y-022437D02*
G01X0006932Y-022485D01*
G01X0006932Y-022485D02*
G01X0006790Y-022532D01*
G01X0006790Y-022532D02*
G01X0006694Y-022532D01*
G01X0006694Y-022532D02*
G01X0006551Y-022485D01*
G01X0006551Y-022485D02*
G01X0006456Y-022390D01*
G01X0006456Y-022390D02*
G01X0006409Y-022294D01*
G01X0006409Y-022294D02*
G01X0006361Y-022104D01*
G01X0006361Y-022104D02*
G01X0006361Y-021961D01*
G01X0006361Y-021961D02*
G01X0006409Y-021770D01*
G01X0006409Y-021770D02*
G01X0006456Y-021675D01*
G01X0006456Y-021675D02*
G01X0006551Y-021580D01*
G01X0006551Y-021580D02*
G01X0006694Y-021532D01*
G01X0006694Y-021532D02*
G01X0006790Y-021532D01*
G01X0006790Y-021532D02*
G01X0006932Y-021580D01*
G01X0006932Y-021580D02*
G01X0006980Y-021628D01*
G01X0007361Y-022247D02*
G01X0007837Y-022247D01*
G01X0007266Y-022532D02*
G01X0007599Y-021532D01*
G01X0007599Y-021532D02*
G01X0007932Y-022532D01*
G01X0008123Y-021532D02*
G01X0008694Y-021532D01*
G01X0008409Y-022532D02*
G01X0008409Y-021532D01*
G01X0009028Y-022532D02*
G01X0009028Y-021532D01*
G01X0009694Y-021532D02*
G01X0009885Y-021532D01*
G01X0009885Y-021532D02*
G01X0009980Y-021580D01*
G01X0009980Y-021580D02*
G01X0010075Y-021675D01*
G01X0010075Y-021675D02*
G01X0010123Y-021866D01*
G01X0010123Y-021866D02*
G01X0010123Y-022199D01*
G01X0010123Y-022199D02*
G01X0010075Y-022390D01*
G01X0010075Y-022390D02*
G01X0009980Y-022485D01*
G01X0009980Y-022485D02*
G01X0009885Y-022532D01*
G01X0009885Y-022532D02*
G01X0009694Y-022532D01*
G01X0009694Y-022532D02*
G01X0009599Y-022485D01*
G01X0009599Y-022485D02*
G01X0009504Y-022390D01*
G01X0009504Y-022390D02*
G01X0009456Y-022199D01*
G01X0009456Y-022199D02*
G01X0009456Y-021866D01*
G01X0009456Y-021866D02*
G01X0009504Y-021675D01*
G01X0009504Y-021675D02*
G01X0009599Y-021580D01*
G01X0009599Y-021580D02*
G01X0009694Y-021532D01*
G01X0010551Y-022532D02*
G01X0010551Y-021532D01*
G01X0010551Y-021532D02*
G01X0011123Y-022532D01*
G01X0011123Y-022532D02*
G01X0011123Y-021532D01*
G01X0012361Y-022532D02*
G01X0012361Y-021532D01*
G01X0012361Y-021532D02*
G01X0012932Y-022532D01*
G01X0012932Y-022532D02*
G01X0012932Y-021532D01*
G01X0013599Y-021532D02*
G01X0013790Y-021532D01*
G01X0013790Y-021532D02*
G01X0013885Y-021580D01*
G01X0013885Y-021580D02*
G01X0013980Y-021675D01*
G01X0013980Y-021675D02*
G01X0014028Y-021866D01*
G01X0014028Y-021866D02*
G01X0014028Y-022199D01*
G01X0014028Y-022199D02*
G01X0013980Y-022390D01*
G01X0013980Y-022390D02*
G01X0013885Y-022485D01*
G01X0013885Y-022485D02*
G01X0013790Y-022532D01*
G01X0013790Y-022532D02*
G01X0013599Y-022532D01*
G01X0013599Y-022532D02*
G01X0013504Y-022485D01*
G01X0013504Y-022485D02*
G01X0013409Y-022390D01*
G01X0013409Y-022390D02*
G01X0013361Y-022199D01*
G01X0013361Y-022199D02*
G01X0013361Y-021866D01*
G01X0013361Y-021866D02*
G01X0013409Y-021675D01*
G01X0013409Y-021675D02*
G01X0013504Y-021580D01*
G01X0013504Y-021580D02*
G01X0013599Y-021532D01*
G01X0014313Y-021532D02*
G01X0014885Y-021532D01*
G01X0014599Y-022532D02*
G01X0014599Y-021532D01*
G01X0015218Y-022009D02*
G01X0015551Y-022009D01*
G01X0015694Y-022532D02*
G01X0015218Y-022532D01*
G01X0015218Y-022532D02*
G01X0015218Y-021532D01*
G01X0015218Y-021532D02*
G01X0015694Y-021532D01*
G01X0016075Y-022485D02*
G01X0016218Y-022532D01*
G01X0016218Y-022532D02*
G01X0016456Y-022532D01*
G01X0016456Y-022532D02*
G01X0016551Y-022485D01*
G01X0016551Y-022485D02*
G01X0016599Y-022437D01*
G01X0016599Y-022437D02*
G01X0016647Y-022342D01*
G01X0016647Y-022342D02*
G01X0016647Y-022247D01*
G01X0016647Y-022247D02*
G01X0016599Y-022151D01*
G01X0016599Y-022151D02*
G01X0016551Y-022104D01*
G01X0016551Y-022104D02*
G01X0016456Y-022056D01*
G01X0016456Y-022056D02*
G01X0016266Y-022009D01*
G01X0016266Y-022009D02*
G01X0016170Y-021961D01*
G01X0016170Y-021961D02*
G01X0016123Y-021913D01*
G01X0016123Y-021913D02*
G01X0016075Y-021818D01*
G01X0016075Y-021818D02*
G01X0016075Y-021723D01*
G01X0016075Y-021723D02*
G01X0016123Y-021628D01*
G01X0016123Y-021628D02*
G01X0016170Y-021580D01*
G01X0016170Y-021580D02*
G01X0016266Y-021532D01*
G01X0016266Y-021532D02*
G01X0016504Y-021532D01*
G01X0016504Y-021532D02*
G01X0016647Y-021580D01*
G01X0002742Y-025732D02*
G01X0002170Y-025732D01*
G01X0002456Y-025732D02*
G01X0002456Y-024732D01*
G01X0002456Y-024732D02*
G01X0002361Y-024875D01*
G01X0002361Y-024875D02*
G01X0002266Y-024970D01*
G01X0002266Y-024970D02*
G01X0002170Y-025018D01*
G01X0003170Y-025637D02*
G01X0003218Y-025685D01*
G01X0003218Y-025685D02*
G01X0003170Y-025732D01*
G01X0003170Y-025732D02*
G01X0003123Y-025685D01*
G01X0003123Y-025685D02*
G01X0003170Y-025637D01*
G01X0003170Y-025637D02*
G01X0003170Y-025732D01*
G01X0004266Y-024732D02*
G01X0004837Y-024732D01*
G01X0004551Y-025732D02*
G01X0004551Y-024732D01*
G01X0005170Y-025732D02*
G01X0005170Y-024732D01*
G01X0005170Y-025209D02*
G01X0005742Y-025209D01*
G01X0005742Y-025732D02*
G01X0005742Y-024732D01*
G01X0006218Y-025732D02*
G01X0006218Y-024732D01*
G01X0006647Y-025685D02*
G01X0006790Y-025732D01*
G01X0006790Y-025732D02*
G01X0007028Y-025732D01*
G01X0007028Y-025732D02*
G01X0007123Y-025685D01*
G01X0007123Y-025685D02*
G01X0007170Y-025637D01*
G01X0007170Y-025637D02*
G01X0007218Y-025542D01*
G01X0007218Y-025542D02*
G01X0007218Y-025447D01*
G01X0007218Y-025447D02*
G01X0007170Y-025351D01*
G01X0007170Y-025351D02*
G01X0007123Y-025304D01*
G01X0007123Y-025304D02*
G01X0007028Y-025256D01*
G01X0007028Y-025256D02*
G01X0006837Y-025209D01*
G01X0006837Y-025209D02*
G01X0006742Y-025161D01*
G01X0006742Y-025161D02*
G01X0006694Y-025113D01*
G01X0006694Y-025113D02*
G01X0006647Y-025018D01*
G01X0006647Y-025018D02*
G01X0006647Y-024923D01*
G01X0006647Y-024923D02*
G01X0006694Y-024828D01*
G01X0006694Y-024828D02*
G01X0006742Y-024780D01*
G01X0006742Y-024780D02*
G01X0006837Y-024732D01*
G01X0006837Y-024732D02*
G01X0007075Y-024732D01*
G01X0007075Y-024732D02*
G01X0007218Y-024780D01*
G01X0008409Y-025732D02*
G01X0008409Y-024732D01*
G01X0008837Y-025685D02*
G01X0008980Y-025732D01*
G01X0008980Y-025732D02*
G01X0009218Y-025732D01*
G01X0009218Y-025732D02*
G01X0009313Y-025685D01*
G01X0009313Y-025685D02*
G01X0009361Y-025637D01*
G01X0009361Y-025637D02*
G01X0009409Y-025542D01*
G01X0009409Y-025542D02*
G01X0009409Y-025447D01*
G01X0009409Y-025447D02*
G01X0009361Y-025351D01*
G01X0009361Y-025351D02*
G01X0009313Y-025304D01*
G01X0009313Y-025304D02*
G01X0009218Y-025256D01*
G01X0009218Y-025256D02*
G01X0009028Y-025209D01*
G01X0009028Y-025209D02*
G01X0008932Y-025161D01*
G01X0008932Y-025161D02*
G01X0008885Y-025113D01*
G01X0008885Y-025113D02*
G01X0008837Y-025018D01*
G01X0008837Y-025018D02*
G01X0008837Y-024923D01*
G01X0008837Y-024923D02*
G01X0008885Y-024828D01*
G01X0008885Y-024828D02*
G01X0008932Y-024780D01*
G01X0008932Y-024780D02*
G01X0009028Y-024732D01*
G01X0009028Y-024732D02*
G01X0009266Y-024732D01*
G01X0009266Y-024732D02*
G01X0009409Y-024780D01*
G01X0010551Y-025447D02*
G01X0011028Y-025447D01*
G01X0010456Y-025732D02*
G01X0010790Y-024732D01*
G01X0010790Y-024732D02*
G01X0011123Y-025732D01*
G01X0012170Y-024828D02*
G01X0012218Y-024780D01*
G01X0012218Y-024780D02*
G01X0012313Y-024732D01*
G01X0012313Y-024732D02*
G01X0012551Y-024732D01*
G01X0012551Y-024732D02*
G01X0012647Y-024780D01*
G01X0012647Y-024780D02*
G01X0012694Y-024828D01*
G01X0012694Y-024828D02*
G01X0012742Y-024923D01*
G01X0012742Y-024923D02*
G01X0012742Y-025018D01*
G01X0012742Y-025018D02*
G01X0012694Y-025161D01*
G01X0012694Y-025161D02*
G01X0012123Y-025732D01*
G01X0012123Y-025732D02*
G01X0012742Y-025732D01*
G01X0014409Y-025732D02*
G01X0013932Y-025732D01*
G01X0013932Y-025732D02*
G01X0013932Y-024732D01*
G01X0014694Y-025447D02*
G01X0015170Y-025447D01*
G01X0014599Y-025732D02*
G01X0014932Y-024732D01*
G01X0014932Y-024732D02*
G01X0015266Y-025732D01*
G01X0015790Y-025256D02*
G01X0015790Y-025732D01*
G01X0015456Y-024732D02*
G01X0015790Y-025256D01*
G01X0015790Y-025256D02*
G01X0016123Y-024732D01*
G01X0016456Y-025209D02*
G01X0016790Y-025209D01*
G01X0016932Y-025732D02*
G01X0016456Y-025732D01*
G01X0016456Y-025732D02*
G01X0016456Y-024732D01*
G01X0016456Y-024732D02*
G01X0016932Y-024732D01*
G01X0017932Y-025732D02*
G01X0017599Y-025256D01*
G01X0017361Y-025732D02*
G01X0017361Y-024732D01*
G01X0017361Y-024732D02*
G01X0017742Y-024732D01*
G01X0017742Y-024732D02*
G01X0017837Y-024780D01*
G01X0017837Y-024780D02*
G01X0017885Y-024828D01*
G01X0017885Y-024828D02*
G01X0017932Y-024923D01*
G01X0017932Y-024923D02*
G01X0017932Y-025066D01*
G01X0017932Y-025066D02*
G01X0017885Y-025161D01*
G01X0017885Y-025161D02*
G01X0017837Y-025209D01*
G01X0017837Y-025209D02*
G01X0017742Y-025256D01*
G01X0017742Y-025256D02*
G01X0017361Y-025256D01*
G01X0019456Y-025209D02*
G01X0019599Y-025256D01*
G01X0019599Y-025256D02*
G01X0019647Y-025304D01*
G01X0019647Y-025304D02*
G01X0019694Y-025399D01*
G01X0019694Y-025399D02*
G01X0019694Y-025542D01*
G01X0019694Y-025542D02*
G01X0019647Y-025637D01*
G01X0019647Y-025637D02*
G01X0019599Y-025685D01*
G01X0019599Y-025685D02*
G01X0019504Y-025732D01*
G01X0019504Y-025732D02*
G01X0019123Y-025732D01*
G01X0019123Y-025732D02*
G01X0019123Y-024732D01*
G01X0019123Y-024732D02*
G01X0019456Y-024732D01*
G01X0019456Y-024732D02*
G01X0019551Y-024780D01*
G01X0019551Y-024780D02*
G01X0019599Y-024828D01*
G01X0019599Y-024828D02*
G01X0019647Y-024923D01*
G01X0019647Y-024923D02*
G01X0019647Y-025018D01*
G01X0019647Y-025018D02*
G01X0019599Y-025113D01*
G01X0019599Y-025113D02*
G01X0019551Y-025161D01*
G01X0019551Y-025161D02*
G01X0019456Y-025209D01*
G01X0019456Y-025209D02*
G01X0019123Y-025209D01*
G01X0020313Y-024732D02*
G01X0020504Y-024732D01*
G01X0020504Y-024732D02*
G01X0020599Y-024780D01*
G01X0020599Y-024780D02*
G01X0020694Y-024875D01*
G01X0020694Y-024875D02*
G01X0020742Y-025066D01*
G01X0020742Y-025066D02*
G01X0020742Y-025399D01*
G01X0020742Y-025399D02*
G01X0020694Y-025590D01*
G01X0020694Y-025590D02*
G01X0020599Y-025685D01*
G01X0020599Y-025685D02*
G01X0020504Y-025732D01*
G01X0020504Y-025732D02*
G01X0020313Y-025732D01*
G01X0020313Y-025732D02*
G01X0020218Y-025685D01*
G01X0020218Y-025685D02*
G01X0020123Y-025590D01*
G01X0020123Y-025590D02*
G01X0020075Y-025399D01*
G01X0020075Y-025399D02*
G01X0020075Y-025066D01*
G01X0020075Y-025066D02*
G01X0020123Y-024875D01*
G01X0020123Y-024875D02*
G01X0020218Y-024780D01*
G01X0020218Y-024780D02*
G01X0020313Y-024732D01*
G01X0021123Y-025447D02*
G01X0021599Y-025447D01*
G01X0021028Y-025732D02*
G01X0021361Y-024732D01*
G01X0021361Y-024732D02*
G01X0021694Y-025732D01*
G01X0022599Y-025732D02*
G01X0022266Y-025256D01*
G01X0022028Y-025732D02*
G01X0022028Y-024732D01*
G01X0022028Y-024732D02*
G01X0022409Y-024732D01*
G01X0022409Y-024732D02*
G01X0022504Y-024780D01*
G01X0022504Y-024780D02*
G01X0022551Y-024828D01*
G01X0022551Y-024828D02*
G01X0022599Y-024923D01*
G01X0022599Y-024923D02*
G01X0022599Y-025066D01*
G01X0022599Y-025066D02*
G01X0022551Y-025161D01*
G01X0022551Y-025161D02*
G01X0022504Y-025209D01*
G01X0022504Y-025209D02*
G01X0022409Y-025256D01*
G01X0022409Y-025256D02*
G01X0022028Y-025256D01*
G01X0023028Y-025732D02*
G01X0023028Y-024732D01*
G01X0023028Y-024732D02*
G01X0023266Y-024732D01*
G01X0023266Y-024732D02*
G01X0023409Y-024780D01*
G01X0023409Y-024780D02*
G01X0023504Y-024875D01*
G01X0023504Y-024875D02*
G01X0023551Y-024970D01*
G01X0023551Y-024970D02*
G01X0023599Y-025161D01*
G01X0023599Y-025161D02*
G01X0023599Y-025304D01*
G01X0023599Y-025304D02*
G01X0023551Y-025494D01*
G01X0023551Y-025494D02*
G01X0023504Y-025590D01*
G01X0023504Y-025590D02*
G01X0023409Y-025685D01*
G01X0023409Y-025685D02*
G01X0023266Y-025732D01*
G01X0023266Y-025732D02*
G01X0023028Y-025732D01*
G01X0024028Y-025637D02*
G01X0024075Y-025685D01*
G01X0024075Y-025685D02*
G01X0024028Y-025732D01*
G01X0024028Y-025732D02*
G01X0023980Y-025685D01*
G01X0023980Y-025685D02*
G01X0024028Y-025637D01*
G01X0024028Y-025637D02*
G01X0024028Y-025732D01*
G01X0002170Y-026428D02*
G01X0002218Y-026380D01*
G01X0002218Y-026380D02*
G01X0002313Y-026332D01*
G01X0002313Y-026332D02*
G01X0002551Y-026332D01*
G01X0002551Y-026332D02*
G01X0002647Y-026380D01*
G01X0002647Y-026380D02*
G01X0002694Y-026428D01*
G01X0002694Y-026428D02*
G01X0002742Y-026523D01*
G01X0002742Y-026523D02*
G01X0002742Y-026618D01*
G01X0002742Y-026618D02*
G01X0002694Y-026761D01*
G01X0002694Y-026761D02*
G01X0002123Y-027332D01*
G01X0002123Y-027332D02*
G01X0002742Y-027332D01*
G01X0003170Y-027237D02*
G01X0003218Y-027285D01*
G01X0003218Y-027285D02*
G01X0003170Y-027332D01*
G01X0003170Y-027332D02*
G01X0003123Y-027285D01*
G01X0003123Y-027285D02*
G01X0003170Y-027237D01*
G01X0003170Y-027237D02*
G01X0003170Y-027332D01*
G01X0004409Y-026809D02*
G01X0004742Y-026809D01*
G01X0004885Y-027332D02*
G01X0004409Y-027332D01*
G01X0004409Y-027332D02*
G01X0004409Y-026332D01*
G01X0004409Y-026332D02*
G01X0004885Y-026332D01*
G01X0005218Y-026332D02*
G01X0005885Y-027332D01*
G01X0005885Y-026332D02*
G01X0005218Y-027332D01*
G01X0006123Y-026332D02*
G01X0006694Y-026332D01*
G01X0006409Y-027332D02*
G01X0006409Y-026332D01*
G01X0007028Y-026809D02*
G01X0007361Y-026809D01*
G01X0007504Y-027332D02*
G01X0007028Y-027332D01*
G01X0007028Y-027332D02*
G01X0007028Y-026332D01*
G01X0007028Y-026332D02*
G01X0007504Y-026332D01*
G01X0008504Y-027332D02*
G01X0008170Y-026856D01*
G01X0007932Y-027332D02*
G01X0007932Y-026332D01*
G01X0007932Y-026332D02*
G01X0008313Y-026332D01*
G01X0008313Y-026332D02*
G01X0008409Y-026380D01*
G01X0008409Y-026380D02*
G01X0008456Y-026428D01*
G01X0008456Y-026428D02*
G01X0008504Y-026523D01*
G01X0008504Y-026523D02*
G01X0008504Y-026666D01*
G01X0008504Y-026666D02*
G01X0008456Y-026761D01*
G01X0008456Y-026761D02*
G01X0008409Y-026809D01*
G01X0008409Y-026809D02*
G01X0008313Y-026856D01*
G01X0008313Y-026856D02*
G01X0007932Y-026856D01*
G01X0008932Y-027332D02*
G01X0008932Y-026332D01*
G01X0008932Y-026332D02*
G01X0009504Y-027332D01*
G01X0009504Y-027332D02*
G01X0009504Y-026332D01*
G01X0009932Y-027047D02*
G01X0010409Y-027047D01*
G01X0009837Y-027332D02*
G01X0010170Y-026332D01*
G01X0010170Y-026332D02*
G01X0010504Y-027332D01*
G01X0011313Y-027332D02*
G01X0010837Y-027332D01*
G01X0010837Y-027332D02*
G01X0010837Y-026332D01*
G01X0012885Y-027332D02*
G01X0012409Y-027332D01*
G01X0012409Y-027332D02*
G01X0012409Y-026332D01*
G01X0013170Y-027047D02*
G01X0013647Y-027047D01*
G01X0013075Y-027332D02*
G01X0013409Y-026332D01*
G01X0013409Y-026332D02*
G01X0013742Y-027332D01*
G01X0014266Y-026856D02*
G01X0014266Y-027332D01*
G01X0013932Y-026332D02*
G01X0014266Y-026856D01*
G01X0014266Y-026856D02*
G01X0014599Y-026332D01*
G01X0014932Y-026809D02*
G01X0015266Y-026809D01*
G01X0015409Y-027332D02*
G01X0014932Y-027332D01*
G01X0014932Y-027332D02*
G01X0014932Y-026332D01*
G01X0014932Y-026332D02*
G01X0015409Y-026332D01*
G01X0016409Y-027332D02*
G01X0016075Y-026856D01*
G01X0015837Y-027332D02*
G01X0015837Y-026332D01*
G01X0015837Y-026332D02*
G01X0016218Y-026332D01*
G01X0016218Y-026332D02*
G01X0016313Y-026380D01*
G01X0016313Y-026380D02*
G01X0016361Y-026428D01*
G01X0016361Y-026428D02*
G01X0016409Y-026523D01*
G01X0016409Y-026523D02*
G01X0016409Y-026666D01*
G01X0016409Y-026666D02*
G01X0016361Y-026761D01*
G01X0016361Y-026761D02*
G01X0016313Y-026809D01*
G01X0016313Y-026809D02*
G01X0016218Y-026856D01*
G01X0016218Y-026856D02*
G01X0015837Y-026856D01*
G01X0016790Y-027285D02*
G01X0016932Y-027332D01*
G01X0016932Y-027332D02*
G01X0017170Y-027332D01*
G01X0017170Y-027332D02*
G01X0017266Y-027285D01*
G01X0017266Y-027285D02*
G01X0017313Y-027237D01*
G01X0017313Y-027237D02*
G01X0017361Y-027142D01*
G01X0017361Y-027142D02*
G01X0017361Y-027047D01*
G01X0017361Y-027047D02*
G01X0017313Y-026951D01*
G01X0017313Y-026951D02*
G01X0017266Y-026904D01*
G01X0017266Y-026904D02*
G01X0017170Y-026856D01*
G01X0017170Y-026856D02*
G01X0016980Y-026809D01*
G01X0016980Y-026809D02*
G01X0016885Y-026761D01*
G01X0016885Y-026761D02*
G01X0016837Y-026713D01*
G01X0016837Y-026713D02*
G01X0016790Y-026618D01*
G01X0016790Y-026618D02*
G01X0016790Y-026523D01*
G01X0016790Y-026523D02*
G01X0016837Y-026428D01*
G01X0016837Y-026428D02*
G01X0016885Y-026380D01*
G01X0016885Y-026380D02*
G01X0016980Y-026332D01*
G01X0016980Y-026332D02*
G01X0017218Y-026332D01*
G01X0017218Y-026332D02*
G01X0017361Y-026380D01*
G01X0018504Y-027285D02*
G01X0018647Y-027332D01*
G01X0018647Y-027332D02*
G01X0018885Y-027332D01*
G01X0018885Y-027332D02*
G01X0018980Y-027285D01*
G01X0018980Y-027285D02*
G01X0019028Y-027237D01*
G01X0019028Y-027237D02*
G01X0019075Y-027142D01*
G01X0019075Y-027142D02*
G01X0019075Y-027047D01*
G01X0019075Y-027047D02*
G01X0019028Y-026951D01*
G01X0019028Y-026951D02*
G01X0018980Y-026904D01*
G01X0018980Y-026904D02*
G01X0018885Y-026856D01*
G01X0018885Y-026856D02*
G01X0018694Y-026809D01*
G01X0018694Y-026809D02*
G01X0018599Y-026761D01*
G01X0018599Y-026761D02*
G01X0018551Y-026713D01*
G01X0018551Y-026713D02*
G01X0018504Y-026618D01*
G01X0018504Y-026618D02*
G01X0018504Y-026523D01*
G01X0018504Y-026523D02*
G01X0018551Y-026428D01*
G01X0018551Y-026428D02*
G01X0018599Y-026380D01*
G01X0018599Y-026380D02*
G01X0018694Y-026332D01*
G01X0018694Y-026332D02*
G01X0018932Y-026332D01*
G01X0018932Y-026332D02*
G01X0019075Y-026380D01*
G01X0019504Y-027332D02*
G01X0019504Y-026332D01*
G01X0019504Y-026809D02*
G01X0020075Y-026809D01*
G01X0020075Y-027332D02*
G01X0020075Y-026332D01*
G01X0020504Y-027047D02*
G01X0020980Y-027047D01*
G01X0020409Y-027332D02*
G01X0020742Y-026332D01*
G01X0020742Y-026332D02*
G01X0021075Y-027332D01*
G01X0021885Y-027332D02*
G01X0021409Y-027332D01*
G01X0021409Y-027332D02*
G01X0021409Y-026332D01*
G01X0022694Y-027332D02*
G01X0022218Y-027332D01*
G01X0022218Y-027332D02*
G01X0022218Y-026332D01*
G01X0023790Y-027332D02*
G01X0023790Y-026332D01*
G01X0023790Y-026809D02*
G01X0024361Y-026809D01*
G01X0024361Y-027332D02*
G01X0024361Y-026332D01*
G01X0024790Y-027047D02*
G01X0025266Y-027047D01*
G01X0024694Y-027332D02*
G01X0025028Y-026332D01*
G01X0025028Y-026332D02*
G01X0025361Y-027332D01*
G01X0025551Y-026332D02*
G01X0025885Y-027332D01*
G01X0025885Y-027332D02*
G01X0026218Y-026332D01*
G01X0026551Y-026809D02*
G01X0026885Y-026809D01*
G01X0027028Y-027332D02*
G01X0026551Y-027332D01*
G01X0026551Y-027332D02*
G01X0026551Y-026332D01*
G01X0026551Y-026332D02*
G01X0027028Y-026332D01*
G01X0028742Y-027332D02*
G01X0028170Y-027332D01*
G01X0028456Y-027332D02*
G01X0028456Y-026332D01*
G01X0028456Y-026332D02*
G01X0028361Y-026475D01*
G01X0028361Y-026475D02*
G01X0028266Y-026570D01*
G01X0028266Y-026570D02*
G01X0028170Y-026618D01*
G01X0030123Y-026332D02*
G01X0030313Y-026332D01*
G01X0030313Y-026332D02*
G01X0030409Y-026380D01*
G01X0030409Y-026380D02*
G01X0030504Y-026475D01*
G01X0030504Y-026475D02*
G01X0030551Y-026666D01*
G01X0030551Y-026666D02*
G01X0030551Y-026999D01*
G01X0030551Y-026999D02*
G01X0030504Y-027190D01*
G01X0030504Y-027190D02*
G01X0030409Y-027285D01*
G01X0030409Y-027285D02*
G01X0030313Y-027332D01*
G01X0030313Y-027332D02*
G01X0030123Y-027332D01*
G01X0030123Y-027332D02*
G01X0030028Y-027285D01*
G01X0030028Y-027285D02*
G01X0029932Y-027190D01*
G01X0029932Y-027190D02*
G01X0029885Y-026999D01*
G01X0029885Y-026999D02*
G01X0029885Y-026666D01*
G01X0029885Y-026666D02*
G01X0029932Y-026475D01*
G01X0029932Y-026475D02*
G01X0030028Y-026380D01*
G01X0030028Y-026380D02*
G01X0030123Y-026332D01*
G01X0030885Y-026332D02*
G01X0031551Y-026332D01*
G01X0031551Y-026332D02*
G01X0030885Y-027332D01*
G01X0030885Y-027332D02*
G01X0031551Y-027332D01*
G01X0033266Y-027237D02*
G01X0033218Y-027285D01*
G01X0033218Y-027285D02*
G01X0033075Y-027332D01*
G01X0033075Y-027332D02*
G01X0032980Y-027332D01*
G01X0032980Y-027332D02*
G01X0032837Y-027285D01*
G01X0032837Y-027285D02*
G01X0032742Y-027190D01*
G01X0032742Y-027190D02*
G01X0032694Y-027094D01*
G01X0032694Y-027094D02*
G01X0032647Y-026904D01*
G01X0032647Y-026904D02*
G01X0032647Y-026761D01*
G01X0032647Y-026761D02*
G01X0032694Y-026570D01*
G01X0032694Y-026570D02*
G01X0032742Y-026475D01*
G01X0032742Y-026475D02*
G01X0032837Y-026380D01*
G01X0032837Y-026380D02*
G01X0032980Y-026332D01*
G01X0032980Y-026332D02*
G01X0033075Y-026332D01*
G01X0033075Y-026332D02*
G01X0033218Y-026380D01*
G01X0033218Y-026380D02*
G01X0033266Y-026428D01*
G01X0033885Y-026332D02*
G01X0034075Y-026332D01*
G01X0034075Y-026332D02*
G01X0034170Y-026380D01*
G01X0034170Y-026380D02*
G01X0034266Y-026475D01*
G01X0034266Y-026475D02*
G01X0034313Y-026666D01*
G01X0034313Y-026666D02*
G01X0034313Y-026999D01*
G01X0034313Y-026999D02*
G01X0034266Y-027190D01*
G01X0034266Y-027190D02*
G01X0034170Y-027285D01*
G01X0034170Y-027285D02*
G01X0034075Y-027332D01*
G01X0034075Y-027332D02*
G01X0033885Y-027332D01*
G01X0033885Y-027332D02*
G01X0033790Y-027285D01*
G01X0033790Y-027285D02*
G01X0033694Y-027190D01*
G01X0033694Y-027190D02*
G01X0033647Y-026999D01*
G01X0033647Y-026999D02*
G01X0033647Y-026666D01*
G01X0033647Y-026666D02*
G01X0033694Y-026475D01*
G01X0033694Y-026475D02*
G01X0033790Y-026380D01*
G01X0033790Y-026380D02*
G01X0033885Y-026332D01*
G01X0034742Y-027332D02*
G01X0034742Y-026332D01*
G01X0034742Y-026332D02*
G01X0035123Y-026332D01*
G01X0035123Y-026332D02*
G01X0035218Y-026380D01*
G01X0035218Y-026380D02*
G01X0035266Y-026428D01*
G01X0035266Y-026428D02*
G01X0035313Y-026523D01*
G01X0035313Y-026523D02*
G01X0035313Y-026666D01*
G01X0035313Y-026666D02*
G01X0035266Y-026761D01*
G01X0035266Y-026761D02*
G01X0035218Y-026809D01*
G01X0035218Y-026809D02*
G01X0035123Y-026856D01*
G01X0035123Y-026856D02*
G01X0034742Y-026856D01*
G01X0035742Y-027332D02*
G01X0035742Y-026332D01*
G01X0035742Y-026332D02*
G01X0036123Y-026332D01*
G01X0036123Y-026332D02*
G01X0036218Y-026380D01*
G01X0036218Y-026380D02*
G01X0036266Y-026428D01*
G01X0036266Y-026428D02*
G01X0036313Y-026523D01*
G01X0036313Y-026523D02*
G01X0036313Y-026666D01*
G01X0036313Y-026666D02*
G01X0036266Y-026761D01*
G01X0036266Y-026761D02*
G01X0036218Y-026809D01*
G01X0036218Y-026809D02*
G01X0036123Y-026856D01*
G01X0036123Y-026856D02*
G01X0035742Y-026856D01*
G01X0036742Y-026809D02*
G01X0037075Y-026809D01*
G01X0037218Y-027332D02*
G01X0036742Y-027332D01*
G01X0036742Y-027332D02*
G01X0036742Y-026332D01*
G01X0036742Y-026332D02*
G01X0037218Y-026332D01*
G01X0038218Y-027332D02*
G01X0037885Y-026856D01*
G01X0037647Y-027332D02*
G01X0037647Y-026332D01*
G01X0037647Y-026332D02*
G01X0038028Y-026332D01*
G01X0038028Y-026332D02*
G01X0038123Y-026380D01*
G01X0038123Y-026380D02*
G01X0038170Y-026428D01*
G01X0038170Y-026428D02*
G01X0038218Y-026523D01*
G01X0038218Y-026523D02*
G01X0038218Y-026666D01*
G01X0038218Y-026666D02*
G01X0038170Y-026761D01*
G01X0038170Y-026761D02*
G01X0038123Y-026809D01*
G01X0038123Y-026809D02*
G01X0038028Y-026856D01*
G01X0038028Y-026856D02*
G01X0037647Y-026856D01*
G01X0038647Y-027237D02*
G01X0038694Y-027285D01*
G01X0038694Y-027285D02*
G01X0038647Y-027332D01*
G01X0038647Y-027332D02*
G01X0038599Y-027285D01*
G01X0038599Y-027285D02*
G01X0038647Y-027237D01*
G01X0038647Y-027237D02*
G01X0038647Y-027332D01*
G01X0002123Y-027932D02*
G01X0002742Y-027932D01*
G01X0002742Y-027932D02*
G01X0002409Y-028313D01*
G01X0002409Y-028313D02*
G01X0002551Y-028313D01*
G01X0002551Y-028313D02*
G01X0002647Y-028361D01*
G01X0002647Y-028361D02*
G01X0002694Y-028409D01*
G01X0002694Y-028409D02*
G01X0002742Y-028504D01*
G01X0002742Y-028504D02*
G01X0002742Y-028742D01*
G01X0002742Y-028742D02*
G01X0002694Y-028837D01*
G01X0002694Y-028837D02*
G01X0002647Y-028885D01*
G01X0002647Y-028885D02*
G01X0002551Y-028932D01*
G01X0002551Y-028932D02*
G01X0002266Y-028932D01*
G01X0002266Y-028932D02*
G01X0002170Y-028885D01*
G01X0002170Y-028885D02*
G01X0002123Y-028837D01*
G01X0003170Y-028837D02*
G01X0003218Y-028885D01*
G01X0003218Y-028885D02*
G01X0003170Y-028932D01*
G01X0003170Y-028932D02*
G01X0003123Y-028885D01*
G01X0003123Y-028885D02*
G01X0003170Y-028837D01*
G01X0003170Y-028837D02*
G01X0003170Y-028932D01*
G01X0004409Y-028932D02*
G01X0004409Y-027932D01*
G01X0004409Y-027932D02*
G01X0004742Y-028647D01*
G01X0004742Y-028647D02*
G01X0005075Y-027932D01*
G01X0005075Y-027932D02*
G01X0005075Y-028932D01*
G01X0005504Y-028647D02*
G01X0005980Y-028647D01*
G01X0005409Y-028932D02*
G01X0005742Y-027932D01*
G01X0005742Y-027932D02*
G01X0006075Y-028932D01*
G01X0006266Y-027932D02*
G01X0006837Y-027932D01*
G01X0006551Y-028932D02*
G01X0006551Y-027932D01*
G01X0007170Y-028409D02*
G01X0007504Y-028409D01*
G01X0007647Y-028932D02*
G01X0007170Y-028932D01*
G01X0007170Y-028932D02*
G01X0007170Y-027932D01*
G01X0007170Y-027932D02*
G01X0007647Y-027932D01*
G01X0008647Y-028932D02*
G01X0008313Y-028456D01*
G01X0008075Y-028932D02*
G01X0008075Y-027932D01*
G01X0008075Y-027932D02*
G01X0008456Y-027932D01*
G01X0008456Y-027932D02*
G01X0008551Y-027980D01*
G01X0008551Y-027980D02*
G01X0008599Y-028028D01*
G01X0008599Y-028028D02*
G01X0008647Y-028123D01*
G01X0008647Y-028123D02*
G01X0008647Y-028266D01*
G01X0008647Y-028266D02*
G01X0008599Y-028361D01*
G01X0008599Y-028361D02*
G01X0008551Y-028409D01*
G01X0008551Y-028409D02*
G01X0008456Y-028456D01*
G01X0008456Y-028456D02*
G01X0008075Y-028456D01*
G01X0009075Y-028932D02*
G01X0009075Y-027932D01*
G01X0009504Y-028647D02*
G01X0009980Y-028647D01*
G01X0009409Y-028932D02*
G01X0009742Y-027932D01*
G01X0009742Y-027932D02*
G01X0010075Y-028932D01*
G01X0010885Y-028932D02*
G01X0010409Y-028932D01*
G01X0010409Y-028932D02*
G01X0010409Y-027932D01*
G01X0011218Y-028837D02*
G01X0011266Y-028885D01*
G01X0011266Y-028885D02*
G01X0011218Y-028932D01*
G01X0011218Y-028932D02*
G01X0011170Y-028885D01*
G01X0011170Y-028885D02*
G01X0011218Y-028837D01*
G01X0011218Y-028837D02*
G01X0011218Y-028932D01*
G01X0011218Y-028313D02*
G01X0011266Y-028361D01*
G01X0011266Y-028361D02*
G01X0011218Y-028409D01*
G01X0011218Y-028409D02*
G01X0011170Y-028361D01*
G01X0011170Y-028361D02*
G01X0011218Y-028313D01*
G01X0011218Y-028313D02*
G01X0011218Y-028409D01*
G01X0012790Y-028409D02*
G01X0012456Y-028409D01*
G01X0012456Y-028932D02*
G01X0012456Y-027932D01*
G01X0012456Y-027932D02*
G01X0012932Y-027932D01*
G01X0013885Y-028932D02*
G01X0013551Y-028456D01*
G01X0013313Y-028932D02*
G01X0013313Y-027932D01*
G01X0013313Y-027932D02*
G01X0013694Y-027932D01*
G01X0013694Y-027932D02*
G01X0013790Y-027980D01*
G01X0013790Y-027980D02*
G01X0013837Y-028028D01*
G01X0013837Y-028028D02*
G01X0013885Y-028123D01*
G01X0013885Y-028123D02*
G01X0013885Y-028266D01*
G01X0013885Y-028266D02*
G01X0013837Y-028361D01*
G01X0013837Y-028361D02*
G01X0013790Y-028409D01*
G01X0013790Y-028409D02*
G01X0013694Y-028456D01*
G01X0013694Y-028456D02*
G01X0013313Y-028456D01*
G01X0014742Y-028266D02*
G01X0014742Y-028932D01*
G01X0014504Y-027885D02*
G01X0014266Y-028599D01*
G01X0014266Y-028599D02*
G01X0014885Y-028599D01*
G01X0015980Y-028647D02*
G01X0016456Y-028647D01*
G01X0015885Y-028932D02*
G01X0016218Y-027932D01*
G01X0016218Y-027932D02*
G01X0016551Y-028932D01*
G01X0016885Y-028932D02*
G01X0016885Y-027932D01*
G01X0016885Y-027932D02*
G01X0017456Y-028932D01*
G01X0017456Y-028932D02*
G01X0017456Y-027932D01*
G01X0017932Y-028932D02*
G01X0017932Y-027932D01*
G01X0017932Y-027932D02*
G01X0018170Y-027932D01*
G01X0018170Y-027932D02*
G01X0018313Y-027980D01*
G01X0018313Y-027980D02*
G01X0018409Y-028075D01*
G01X0018409Y-028075D02*
G01X0018456Y-028170D01*
G01X0018456Y-028170D02*
G01X0018504Y-028361D01*
G01X0018504Y-028361D02*
G01X0018504Y-028504D01*
G01X0018504Y-028504D02*
G01X0018456Y-028694D01*
G01X0018456Y-028694D02*
G01X0018409Y-028790D01*
G01X0018409Y-028790D02*
G01X0018313Y-028885D01*
G01X0018313Y-028885D02*
G01X0018170Y-028932D01*
G01X0018170Y-028932D02*
G01X0017932Y-028932D01*
G01X0019885Y-027932D02*
G01X0019980Y-027932D01*
G01X0019980Y-027932D02*
G01X0020075Y-027980D01*
G01X0020075Y-027980D02*
G01X0020123Y-028028D01*
G01X0020123Y-028028D02*
G01X0020170Y-028123D01*
G01X0020170Y-028123D02*
G01X0020218Y-028313D01*
G01X0020218Y-028313D02*
G01X0020218Y-028551D01*
G01X0020218Y-028551D02*
G01X0020170Y-028742D01*
G01X0020170Y-028742D02*
G01X0020123Y-028837D01*
G01X0020123Y-028837D02*
G01X0020075Y-028885D01*
G01X0020075Y-028885D02*
G01X0019980Y-028932D01*
G01X0019980Y-028932D02*
G01X0019885Y-028932D01*
G01X0019885Y-028932D02*
G01X0019790Y-028885D01*
G01X0019790Y-028885D02*
G01X0019742Y-028837D01*
G01X0019742Y-028837D02*
G01X0019694Y-028742D01*
G01X0019694Y-028742D02*
G01X0019647Y-028551D01*
G01X0019647Y-028551D02*
G01X0019647Y-028313D01*
G01X0019647Y-028313D02*
G01X0019694Y-028123D01*
G01X0019694Y-028123D02*
G01X0019742Y-028028D01*
G01X0019742Y-028028D02*
G01X0019790Y-027980D01*
G01X0019790Y-027980D02*
G01X0019885Y-027932D01*
G01X0020647Y-028837D02*
G01X0020694Y-028885D01*
G01X0020694Y-028885D02*
G01X0020647Y-028932D01*
G01X0020647Y-028932D02*
G01X0020599Y-028885D01*
G01X0020599Y-028885D02*
G01X0020647Y-028837D01*
G01X0020647Y-028837D02*
G01X0020647Y-028932D01*
G01X0021313Y-027932D02*
G01X0021409Y-027932D01*
G01X0021409Y-027932D02*
G01X0021504Y-027980D01*
G01X0021504Y-027980D02*
G01X0021551Y-028028D01*
G01X0021551Y-028028D02*
G01X0021599Y-028123D01*
G01X0021599Y-028123D02*
G01X0021647Y-028313D01*
G01X0021647Y-028313D02*
G01X0021647Y-028551D01*
G01X0021647Y-028551D02*
G01X0021599Y-028742D01*
G01X0021599Y-028742D02*
G01X0021551Y-028837D01*
G01X0021551Y-028837D02*
G01X0021504Y-028885D01*
G01X0021504Y-028885D02*
G01X0021409Y-028932D01*
G01X0021409Y-028932D02*
G01X0021313Y-028932D01*
G01X0021313Y-028932D02*
G01X0021218Y-028885D01*
G01X0021218Y-028885D02*
G01X0021170Y-028837D01*
G01X0021170Y-028837D02*
G01X0021123Y-028742D01*
G01X0021123Y-028742D02*
G01X0021075Y-028551D01*
G01X0021075Y-028551D02*
G01X0021075Y-028313D01*
G01X0021075Y-028313D02*
G01X0021123Y-028123D01*
G01X0021123Y-028123D02*
G01X0021170Y-028028D01*
G01X0021170Y-028028D02*
G01X0021218Y-027980D01*
G01X0021218Y-027980D02*
G01X0021313Y-027932D01*
G01X0022504Y-027932D02*
G01X0022313Y-027932D01*
G01X0022313Y-027932D02*
G01X0022218Y-027980D01*
G01X0022218Y-027980D02*
G01X0022170Y-028028D01*
G01X0022170Y-028028D02*
G01X0022075Y-028170D01*
G01X0022075Y-028170D02*
G01X0022028Y-028361D01*
G01X0022028Y-028361D02*
G01X0022028Y-028742D01*
G01X0022028Y-028742D02*
G01X0022075Y-028837D01*
G01X0022075Y-028837D02*
G01X0022123Y-028885D01*
G01X0022123Y-028885D02*
G01X0022218Y-028932D01*
G01X0022218Y-028932D02*
G01X0022409Y-028932D01*
G01X0022409Y-028932D02*
G01X0022504Y-028885D01*
G01X0022504Y-028885D02*
G01X0022551Y-028837D01*
G01X0022551Y-028837D02*
G01X0022599Y-028742D01*
G01X0022599Y-028742D02*
G01X0022599Y-028504D01*
G01X0022599Y-028504D02*
G01X0022551Y-028409D01*
G01X0022551Y-028409D02*
G01X0022504Y-028361D01*
G01X0022504Y-028361D02*
G01X0022409Y-028313D01*
G01X0022409Y-028313D02*
G01X0022218Y-028313D01*
G01X0022218Y-028313D02*
G01X0022123Y-028361D01*
G01X0022123Y-028361D02*
G01X0022075Y-028409D01*
G01X0022075Y-028409D02*
G01X0022028Y-028504D01*
G01X0022980Y-028028D02*
G01X0023028Y-027980D01*
G01X0023028Y-027980D02*
G01X0023123Y-027932D01*
G01X0023123Y-027932D02*
G01X0023361Y-027932D01*
G01X0023361Y-027932D02*
G01X0023456Y-027980D01*
G01X0023456Y-027980D02*
G01X0023504Y-028028D01*
G01X0023504Y-028028D02*
G01X0023551Y-028123D01*
G01X0023551Y-028123D02*
G01X0023551Y-028218D01*
G01X0023551Y-028218D02*
G01X0023504Y-028361D01*
G01X0023504Y-028361D02*
G01X0022932Y-028932D01*
G01X0022932Y-028932D02*
G01X0023551Y-028932D01*
G01X0024742Y-028932D02*
G01X0024742Y-027932D01*
G01X0025218Y-028932D02*
G01X0025218Y-027932D01*
G01X0025218Y-027932D02*
G01X0025790Y-028932D01*
G01X0025790Y-028932D02*
G01X0025790Y-027932D01*
G01X0026837Y-028837D02*
G01X0026790Y-028885D01*
G01X0026790Y-028885D02*
G01X0026647Y-028932D01*
G01X0026647Y-028932D02*
G01X0026551Y-028932D01*
G01X0026551Y-028932D02*
G01X0026409Y-028885D01*
G01X0026409Y-028885D02*
G01X0026313Y-028790D01*
G01X0026313Y-028790D02*
G01X0026266Y-028694D01*
G01X0026266Y-028694D02*
G01X0026218Y-028504D01*
G01X0026218Y-028504D02*
G01X0026218Y-028361D01*
G01X0026218Y-028361D02*
G01X0026266Y-028170D01*
G01X0026266Y-028170D02*
G01X0026313Y-028075D01*
G01X0026313Y-028075D02*
G01X0026409Y-027980D01*
G01X0026409Y-027980D02*
G01X0026551Y-027932D01*
G01X0026551Y-027932D02*
G01X0026647Y-027932D01*
G01X0026647Y-027932D02*
G01X0026790Y-027980D01*
G01X0026790Y-027980D02*
G01X0026837Y-028028D01*
G01X0027266Y-028932D02*
G01X0027266Y-027932D01*
G01X0027266Y-028409D02*
G01X0027837Y-028409D01*
G01X0027837Y-028932D02*
G01X0027837Y-027932D01*
G01X0029075Y-028551D02*
G01X0029837Y-028551D01*
G01X0029456Y-028932D02*
G01X0029456Y-028170D01*
G01X0031028Y-027885D02*
G01X0030170Y-029170D01*
G01X0031361Y-028551D02*
G01X0032123Y-028551D01*
G01X0033885Y-028932D02*
G01X0033313Y-028932D01*
G01X0033599Y-028932D02*
G01X0033599Y-027932D01*
G01X0033599Y-027932D02*
G01X0033504Y-028075D01*
G01X0033504Y-028075D02*
G01X0033409Y-028170D01*
G01X0033409Y-028170D02*
G01X0033313Y-028218D01*
G01X0034504Y-027932D02*
G01X0034599Y-027932D01*
G01X0034599Y-027932D02*
G01X0034694Y-027980D01*
G01X0034694Y-027980D02*
G01X0034742Y-028028D01*
G01X0034742Y-028028D02*
G01X0034790Y-028123D01*
G01X0034790Y-028123D02*
G01X0034837Y-028313D01*
G01X0034837Y-028313D02*
G01X0034837Y-028551D01*
G01X0034837Y-028551D02*
G01X0034790Y-028742D01*
G01X0034790Y-028742D02*
G01X0034742Y-028837D01*
G01X0034742Y-028837D02*
G01X0034694Y-028885D01*
G01X0034694Y-028885D02*
G01X0034599Y-028932D01*
G01X0034599Y-028932D02*
G01X0034504Y-028932D01*
G01X0034504Y-028932D02*
G01X0034409Y-028885D01*
G01X0034409Y-028885D02*
G01X0034361Y-028837D01*
G01X0034361Y-028837D02*
G01X0034313Y-028742D01*
G01X0034313Y-028742D02*
G01X0034266Y-028551D01*
G01X0034266Y-028551D02*
G01X0034266Y-028313D01*
G01X0034266Y-028313D02*
G01X0034313Y-028123D01*
G01X0034313Y-028123D02*
G01X0034361Y-028028D01*
G01X0034361Y-028028D02*
G01X0034409Y-027980D01*
G01X0034409Y-027980D02*
G01X0034504Y-027932D01*
G01X0035218Y-028932D02*
G01X0035980Y-027932D01*
G01X0035361Y-027932D02*
G01X0035456Y-027980D01*
G01X0035456Y-027980D02*
G01X0035504Y-028075D01*
G01X0035504Y-028075D02*
G01X0035456Y-028170D01*
G01X0035456Y-028170D02*
G01X0035361Y-028218D01*
G01X0035361Y-028218D02*
G01X0035266Y-028170D01*
G01X0035266Y-028170D02*
G01X0035218Y-028075D01*
G01X0035218Y-028075D02*
G01X0035266Y-027980D01*
G01X0035266Y-027980D02*
G01X0035361Y-027932D01*
G01X0035932Y-028885D02*
G01X0035980Y-028790D01*
G01X0035980Y-028790D02*
G01X0035932Y-028694D01*
G01X0035932Y-028694D02*
G01X0035837Y-028647D01*
G01X0035837Y-028647D02*
G01X0035742Y-028694D01*
G01X0035742Y-028694D02*
G01X0035694Y-028790D01*
G01X0035694Y-028790D02*
G01X0035742Y-028885D01*
G01X0035742Y-028885D02*
G01X0035837Y-028932D01*
G01X0035837Y-028932D02*
G01X0035932Y-028885D01*
G01X0037028Y-027932D02*
G01X0037599Y-027932D01*
G01X0037313Y-028932D02*
G01X0037313Y-027932D01*
G01X0037932Y-028932D02*
G01X0037932Y-027932D01*
G01X0037932Y-028409D02*
G01X0038504Y-028409D01*
G01X0038504Y-028932D02*
G01X0038504Y-027932D01*
G01X0038980Y-028932D02*
G01X0038980Y-027932D01*
G01X0040028Y-028837D02*
G01X0039980Y-028885D01*
G01X0039980Y-028885D02*
G01X0039837Y-028932D01*
G01X0039837Y-028932D02*
G01X0039742Y-028932D01*
G01X0039742Y-028932D02*
G01X0039599Y-028885D01*
G01X0039599Y-028885D02*
G01X0039504Y-028790D01*
G01X0039504Y-028790D02*
G01X0039456Y-028694D01*
G01X0039456Y-028694D02*
G01X0039409Y-028504D01*
G01X0039409Y-028504D02*
G01X0039409Y-028361D01*
G01X0039409Y-028361D02*
G01X0039456Y-028170D01*
G01X0039456Y-028170D02*
G01X0039504Y-028075D01*
G01X0039504Y-028075D02*
G01X0039599Y-027980D01*
G01X0039599Y-027980D02*
G01X0039742Y-027932D01*
G01X0039742Y-027932D02*
G01X0039837Y-027932D01*
G01X0039837Y-027932D02*
G01X0039980Y-027980D01*
G01X0039980Y-027980D02*
G01X0040028Y-028028D01*
G01X0040456Y-028932D02*
G01X0040456Y-027932D01*
G01X0041028Y-028932D02*
G01X0040599Y-028361D01*
G01X0041028Y-027932D02*
G01X0040456Y-028504D01*
G01X0041456Y-028837D02*
G01X0041504Y-028885D01*
G01X0041504Y-028885D02*
G01X0041456Y-028932D01*
G01X0041456Y-028932D02*
G01X0041409Y-028885D01*
G01X0041409Y-028885D02*
G01X0041456Y-028837D01*
G01X0041456Y-028837D02*
G01X0041456Y-028932D01*
G01X0002647Y-029866D02*
G01X0002647Y-030532D01*
G01X0002409Y-029485D02*
G01X0002170Y-030199D01*
G01X0002170Y-030199D02*
G01X0002790Y-030199D01*
G01X0003170Y-030437D02*
G01X0003218Y-030485D01*
G01X0003218Y-030485D02*
G01X0003170Y-030532D01*
G01X0003170Y-030532D02*
G01X0003123Y-030485D01*
G01X0003123Y-030485D02*
G01X0003170Y-030437D01*
G01X0003170Y-030437D02*
G01X0003170Y-030532D01*
G01X0004742Y-030009D02*
G01X0004885Y-030056D01*
G01X0004885Y-030056D02*
G01X0004932Y-030104D01*
G01X0004932Y-030104D02*
G01X0004980Y-030199D01*
G01X0004980Y-030199D02*
G01X0004980Y-030342D01*
G01X0004980Y-030342D02*
G01X0004932Y-030437D01*
G01X0004932Y-030437D02*
G01X0004885Y-030485D01*
G01X0004885Y-030485D02*
G01X0004790Y-030532D01*
G01X0004790Y-030532D02*
G01X0004409Y-030532D01*
G01X0004409Y-030532D02*
G01X0004409Y-029532D01*
G01X0004409Y-029532D02*
G01X0004742Y-029532D01*
G01X0004742Y-029532D02*
G01X0004837Y-029580D01*
G01X0004837Y-029580D02*
G01X0004885Y-029628D01*
G01X0004885Y-029628D02*
G01X0004932Y-029723D01*
G01X0004932Y-029723D02*
G01X0004932Y-029818D01*
G01X0004932Y-029818D02*
G01X0004885Y-029913D01*
G01X0004885Y-029913D02*
G01X0004837Y-029961D01*
G01X0004837Y-029961D02*
G01X0004742Y-030009D01*
G01X0004742Y-030009D02*
G01X0004409Y-030009D01*
G01X0005599Y-029532D02*
G01X0005790Y-029532D01*
G01X0005790Y-029532D02*
G01X0005885Y-029580D01*
G01X0005885Y-029580D02*
G01X0005980Y-029675D01*
G01X0005980Y-029675D02*
G01X0006028Y-029866D01*
G01X0006028Y-029866D02*
G01X0006028Y-030199D01*
G01X0006028Y-030199D02*
G01X0005980Y-030390D01*
G01X0005980Y-030390D02*
G01X0005885Y-030485D01*
G01X0005885Y-030485D02*
G01X0005790Y-030532D01*
G01X0005790Y-030532D02*
G01X0005599Y-030532D01*
G01X0005599Y-030532D02*
G01X0005504Y-030485D01*
G01X0005504Y-030485D02*
G01X0005409Y-030390D01*
G01X0005409Y-030390D02*
G01X0005361Y-030199D01*
G01X0005361Y-030199D02*
G01X0005361Y-029866D01*
G01X0005361Y-029866D02*
G01X0005409Y-029675D01*
G01X0005409Y-029675D02*
G01X0005504Y-029580D01*
G01X0005504Y-029580D02*
G01X0005599Y-029532D01*
G01X0006409Y-030247D02*
G01X0006885Y-030247D01*
G01X0006313Y-030532D02*
G01X0006647Y-029532D01*
G01X0006647Y-029532D02*
G01X0006980Y-030532D01*
G01X0007885Y-030532D02*
G01X0007551Y-030056D01*
G01X0007313Y-030532D02*
G01X0007313Y-029532D01*
G01X0007313Y-029532D02*
G01X0007694Y-029532D01*
G01X0007694Y-029532D02*
G01X0007790Y-029580D01*
G01X0007790Y-029580D02*
G01X0007837Y-029628D01*
G01X0007837Y-029628D02*
G01X0007885Y-029723D01*
G01X0007885Y-029723D02*
G01X0007885Y-029866D01*
G01X0007885Y-029866D02*
G01X0007837Y-029961D01*
G01X0007837Y-029961D02*
G01X0007790Y-030009D01*
G01X0007790Y-030009D02*
G01X0007694Y-030056D01*
G01X0007694Y-030056D02*
G01X0007313Y-030056D01*
G01X0008313Y-030532D02*
G01X0008313Y-029532D01*
G01X0008313Y-029532D02*
G01X0008551Y-029532D01*
G01X0008551Y-029532D02*
G01X0008694Y-029580D01*
G01X0008694Y-029580D02*
G01X0008790Y-029675D01*
G01X0008790Y-029675D02*
G01X0008837Y-029770D01*
G01X0008837Y-029770D02*
G01X0008885Y-029961D01*
G01X0008885Y-029961D02*
G01X0008885Y-030104D01*
G01X0008885Y-030104D02*
G01X0008837Y-030294D01*
G01X0008837Y-030294D02*
G01X0008790Y-030390D01*
G01X0008790Y-030390D02*
G01X0008694Y-030485D01*
G01X0008694Y-030485D02*
G01X0008551Y-030532D01*
G01X0008551Y-030532D02*
G01X0008313Y-030532D01*
G01X0009266Y-030485D02*
G01X0009409Y-030532D01*
G01X0009409Y-030532D02*
G01X0009647Y-030532D01*
G01X0009647Y-030532D02*
G01X0009742Y-030485D01*
G01X0009742Y-030485D02*
G01X0009790Y-030437D01*
G01X0009790Y-030437D02*
G01X0009837Y-030342D01*
G01X0009837Y-030342D02*
G01X0009837Y-030247D01*
G01X0009837Y-030247D02*
G01X0009790Y-030151D01*
G01X0009790Y-030151D02*
G01X0009742Y-030104D01*
G01X0009742Y-030104D02*
G01X0009647Y-030056D01*
G01X0009647Y-030056D02*
G01X0009456Y-030009D01*
G01X0009456Y-030009D02*
G01X0009361Y-029961D01*
G01X0009361Y-029961D02*
G01X0009313Y-029913D01*
G01X0009313Y-029913D02*
G01X0009266Y-029818D01*
G01X0009266Y-029818D02*
G01X0009266Y-029723D01*
G01X0009266Y-029723D02*
G01X0009313Y-029628D01*
G01X0009313Y-029628D02*
G01X0009361Y-029580D01*
G01X0009361Y-029580D02*
G01X0009456Y-029532D01*
G01X0009456Y-029532D02*
G01X0009694Y-029532D01*
G01X0009694Y-029532D02*
G01X0009837Y-029580D01*
G01X0010980Y-030485D02*
G01X0011123Y-030532D01*
G01X0011123Y-030532D02*
G01X0011361Y-030532D01*
G01X0011361Y-030532D02*
G01X0011456Y-030485D01*
G01X0011456Y-030485D02*
G01X0011504Y-030437D01*
G01X0011504Y-030437D02*
G01X0011551Y-030342D01*
G01X0011551Y-030342D02*
G01X0011551Y-030247D01*
G01X0011551Y-030247D02*
G01X0011504Y-030151D01*
G01X0011504Y-030151D02*
G01X0011456Y-030104D01*
G01X0011456Y-030104D02*
G01X0011361Y-030056D01*
G01X0011361Y-030056D02*
G01X0011170Y-030009D01*
G01X0011170Y-030009D02*
G01X0011075Y-029961D01*
G01X0011075Y-029961D02*
G01X0011028Y-029913D01*
G01X0011028Y-029913D02*
G01X0010980Y-029818D01*
G01X0010980Y-029818D02*
G01X0010980Y-029723D01*
G01X0010980Y-029723D02*
G01X0011028Y-029628D01*
G01X0011028Y-029628D02*
G01X0011075Y-029580D01*
G01X0011075Y-029580D02*
G01X0011170Y-029532D01*
G01X0011170Y-029532D02*
G01X0011409Y-029532D01*
G01X0011409Y-029532D02*
G01X0011551Y-029580D01*
G01X0011980Y-030532D02*
G01X0011980Y-029532D01*
G01X0011980Y-030009D02*
G01X0012551Y-030009D01*
G01X0012551Y-030532D02*
G01X0012551Y-029532D01*
G01X0012980Y-030247D02*
G01X0013456Y-030247D01*
G01X0012885Y-030532D02*
G01X0013218Y-029532D01*
G01X0013218Y-029532D02*
G01X0013551Y-030532D01*
G01X0014361Y-030532D02*
G01X0013885Y-030532D01*
G01X0013885Y-030532D02*
G01X0013885Y-029532D01*
G01X0015170Y-030532D02*
G01X0014694Y-030532D01*
G01X0014694Y-030532D02*
G01X0014694Y-029532D01*
G01X0016599Y-030009D02*
G01X0016742Y-030056D01*
G01X0016742Y-030056D02*
G01X0016790Y-030104D01*
G01X0016790Y-030104D02*
G01X0016837Y-030199D01*
G01X0016837Y-030199D02*
G01X0016837Y-030342D01*
G01X0016837Y-030342D02*
G01X0016790Y-030437D01*
G01X0016790Y-030437D02*
G01X0016742Y-030485D01*
G01X0016742Y-030485D02*
G01X0016647Y-030532D01*
G01X0016647Y-030532D02*
G01X0016266Y-030532D01*
G01X0016266Y-030532D02*
G01X0016266Y-029532D01*
G01X0016266Y-029532D02*
G01X0016599Y-029532D01*
G01X0016599Y-029532D02*
G01X0016694Y-029580D01*
G01X0016694Y-029580D02*
G01X0016742Y-029628D01*
G01X0016742Y-029628D02*
G01X0016790Y-029723D01*
G01X0016790Y-029723D02*
G01X0016790Y-029818D01*
G01X0016790Y-029818D02*
G01X0016742Y-029913D01*
G01X0016742Y-029913D02*
G01X0016694Y-029961D01*
G01X0016694Y-029961D02*
G01X0016599Y-030009D01*
G01X0016599Y-030009D02*
G01X0016266Y-030009D01*
G01X0017266Y-030009D02*
G01X0017599Y-030009D01*
G01X0017742Y-030532D02*
G01X0017266Y-030532D01*
G01X0017266Y-030532D02*
G01X0017266Y-029532D01*
G01X0017266Y-029532D02*
G01X0017742Y-029532D01*
G01X0019504Y-030532D02*
G01X0019170Y-030056D01*
G01X0018932Y-030532D02*
G01X0018932Y-029532D01*
G01X0018932Y-029532D02*
G01X0019313Y-029532D01*
G01X0019313Y-029532D02*
G01X0019409Y-029580D01*
G01X0019409Y-029580D02*
G01X0019456Y-029628D01*
G01X0019456Y-029628D02*
G01X0019504Y-029723D01*
G01X0019504Y-029723D02*
G01X0019504Y-029866D01*
G01X0019504Y-029866D02*
G01X0019456Y-029961D01*
G01X0019456Y-029961D02*
G01X0019409Y-030009D01*
G01X0019409Y-030009D02*
G01X0019313Y-030056D01*
G01X0019313Y-030056D02*
G01X0018932Y-030056D01*
G01X0020123Y-029532D02*
G01X0020313Y-029532D01*
G01X0020313Y-029532D02*
G01X0020409Y-029580D01*
G01X0020409Y-029580D02*
G01X0020504Y-029675D01*
G01X0020504Y-029675D02*
G01X0020551Y-029866D01*
G01X0020551Y-029866D02*
G01X0020551Y-030199D01*
G01X0020551Y-030199D02*
G01X0020504Y-030390D01*
G01X0020504Y-030390D02*
G01X0020409Y-030485D01*
G01X0020409Y-030485D02*
G01X0020313Y-030532D01*
G01X0020313Y-030532D02*
G01X0020123Y-030532D01*
G01X0020123Y-030532D02*
G01X0020028Y-030485D01*
G01X0020028Y-030485D02*
G01X0019932Y-030390D01*
G01X0019932Y-030390D02*
G01X0019885Y-030199D01*
G01X0019885Y-030199D02*
G01X0019885Y-029866D01*
G01X0019885Y-029866D02*
G01X0019932Y-029675D01*
G01X0019932Y-029675D02*
G01X0020028Y-029580D01*
G01X0020028Y-029580D02*
G01X0020123Y-029532D01*
G01X0020980Y-030532D02*
G01X0020980Y-029532D01*
G01X0020980Y-030009D02*
G01X0021551Y-030009D01*
G01X0021551Y-030532D02*
G01X0021551Y-029532D01*
G01X0021980Y-030485D02*
G01X0022123Y-030532D01*
G01X0022123Y-030532D02*
G01X0022361Y-030532D01*
G01X0022361Y-030532D02*
G01X0022456Y-030485D01*
G01X0022456Y-030485D02*
G01X0022504Y-030437D01*
G01X0022504Y-030437D02*
G01X0022551Y-030342D01*
G01X0022551Y-030342D02*
G01X0022551Y-030247D01*
G01X0022551Y-030247D02*
G01X0022504Y-030151D01*
G01X0022504Y-030151D02*
G01X0022456Y-030104D01*
G01X0022456Y-030104D02*
G01X0022361Y-030056D01*
G01X0022361Y-030056D02*
G01X0022170Y-030009D01*
G01X0022170Y-030009D02*
G01X0022075Y-029961D01*
G01X0022075Y-029961D02*
G01X0022028Y-029913D01*
G01X0022028Y-029913D02*
G01X0021980Y-029818D01*
G01X0021980Y-029818D02*
G01X0021980Y-029723D01*
G01X0021980Y-029723D02*
G01X0022028Y-029628D01*
G01X0022028Y-029628D02*
G01X0022075Y-029580D01*
G01X0022075Y-029580D02*
G01X0022170Y-029532D01*
G01X0022170Y-029532D02*
G01X0022409Y-029532D01*
G01X0022409Y-029532D02*
G01X0022551Y-029580D01*
G01X0024313Y-030437D02*
G01X0024266Y-030485D01*
G01X0024266Y-030485D02*
G01X0024123Y-030532D01*
G01X0024123Y-030532D02*
G01X0024028Y-030532D01*
G01X0024028Y-030532D02*
G01X0023885Y-030485D01*
G01X0023885Y-030485D02*
G01X0023790Y-030390D01*
G01X0023790Y-030390D02*
G01X0023742Y-030294D01*
G01X0023742Y-030294D02*
G01X0023694Y-030104D01*
G01X0023694Y-030104D02*
G01X0023694Y-029961D01*
G01X0023694Y-029961D02*
G01X0023742Y-029770D01*
G01X0023742Y-029770D02*
G01X0023790Y-029675D01*
G01X0023790Y-029675D02*
G01X0023885Y-029580D01*
G01X0023885Y-029580D02*
G01X0024028Y-029532D01*
G01X0024028Y-029532D02*
G01X0024123Y-029532D01*
G01X0024123Y-029532D02*
G01X0024266Y-029580D01*
G01X0024266Y-029580D02*
G01X0024313Y-029628D01*
G01X0024932Y-029532D02*
G01X0025123Y-029532D01*
G01X0025123Y-029532D02*
G01X0025218Y-029580D01*
G01X0025218Y-029580D02*
G01X0025313Y-029675D01*
G01X0025313Y-029675D02*
G01X0025361Y-029866D01*
G01X0025361Y-029866D02*
G01X0025361Y-030199D01*
G01X0025361Y-030199D02*
G01X0025313Y-030390D01*
G01X0025313Y-030390D02*
G01X0025218Y-030485D01*
G01X0025218Y-030485D02*
G01X0025123Y-030532D01*
G01X0025123Y-030532D02*
G01X0024932Y-030532D01*
G01X0024932Y-030532D02*
G01X0024837Y-030485D01*
G01X0024837Y-030485D02*
G01X0024742Y-030390D01*
G01X0024742Y-030390D02*
G01X0024694Y-030199D01*
G01X0024694Y-030199D02*
G01X0024694Y-029866D01*
G01X0024694Y-029866D02*
G01X0024742Y-029675D01*
G01X0024742Y-029675D02*
G01X0024837Y-029580D01*
G01X0024837Y-029580D02*
G01X0024932Y-029532D01*
G01X0025790Y-030532D02*
G01X0025790Y-029532D01*
G01X0025790Y-029532D02*
G01X0026123Y-030247D01*
G01X0026123Y-030247D02*
G01X0026456Y-029532D01*
G01X0026456Y-029532D02*
G01X0026456Y-030532D01*
G01X0026932Y-030532D02*
G01X0026932Y-029532D01*
G01X0026932Y-029532D02*
G01X0027313Y-029532D01*
G01X0027313Y-029532D02*
G01X0027409Y-029580D01*
G01X0027409Y-029580D02*
G01X0027456Y-029628D01*
G01X0027456Y-029628D02*
G01X0027504Y-029723D01*
G01X0027504Y-029723D02*
G01X0027504Y-029866D01*
G01X0027504Y-029866D02*
G01X0027456Y-029961D01*
G01X0027456Y-029961D02*
G01X0027409Y-030009D01*
G01X0027409Y-030009D02*
G01X0027313Y-030056D01*
G01X0027313Y-030056D02*
G01X0026932Y-030056D01*
G01X0028409Y-030532D02*
G01X0027932Y-030532D01*
G01X0027932Y-030532D02*
G01X0027932Y-029532D01*
G01X0028742Y-030532D02*
G01X0028742Y-029532D01*
G01X0029170Y-030247D02*
G01X0029647Y-030247D01*
G01X0029075Y-030532D02*
G01X0029409Y-029532D01*
G01X0029409Y-029532D02*
G01X0029742Y-030532D01*
G01X0030075Y-030532D02*
G01X0030075Y-029532D01*
G01X0030075Y-029532D02*
G01X0030647Y-030532D01*
G01X0030647Y-030532D02*
G01X0030647Y-029532D01*
G01X0030980Y-029532D02*
G01X0031551Y-029532D01*
G01X0031266Y-030532D02*
G01X0031266Y-029532D01*
G01X0031885Y-030437D02*
G01X0031932Y-030485D01*
G01X0031932Y-030485D02*
G01X0031885Y-030532D01*
G01X0031885Y-030532D02*
G01X0031837Y-030485D01*
G01X0031837Y-030485D02*
G01X0031885Y-030437D01*
G01X0031885Y-030437D02*
G01X0031885Y-030532D01*
G01X0002694Y-031132D02*
G01X0002218Y-031132D01*
G01X0002218Y-031132D02*
G01X0002170Y-031609D01*
G01X0002170Y-031609D02*
G01X0002218Y-031561D01*
G01X0002218Y-031561D02*
G01X0002313Y-031513D01*
G01X0002313Y-031513D02*
G01X0002551Y-031513D01*
G01X0002551Y-031513D02*
G01X0002647Y-031561D01*
G01X0002647Y-031561D02*
G01X0002694Y-031609D01*
G01X0002694Y-031609D02*
G01X0002742Y-031704D01*
G01X0002742Y-031704D02*
G01X0002742Y-031942D01*
G01X0002742Y-031942D02*
G01X0002694Y-032037D01*
G01X0002694Y-032037D02*
G01X0002647Y-032085D01*
G01X0002647Y-032085D02*
G01X0002551Y-032132D01*
G01X0002551Y-032132D02*
G01X0002313Y-032132D01*
G01X0002313Y-032132D02*
G01X0002218Y-032085D01*
G01X0002218Y-032085D02*
G01X0002170Y-032037D01*
G01X0003170Y-032037D02*
G01X0003218Y-032085D01*
G01X0003218Y-032085D02*
G01X0003170Y-032132D01*
G01X0003170Y-032132D02*
G01X0003123Y-032085D01*
G01X0003123Y-032085D02*
G01X0003170Y-032037D01*
G01X0003170Y-032037D02*
G01X0003170Y-032132D01*
G01X0004409Y-032132D02*
G01X0004409Y-031132D01*
G01X0004409Y-031132D02*
G01X0004742Y-031847D01*
G01X0004742Y-031847D02*
G01X0005075Y-031132D01*
G01X0005075Y-031132D02*
G01X0005075Y-032132D01*
G01X0005504Y-031847D02*
G01X0005980Y-031847D01*
G01X0005409Y-032132D02*
G01X0005742Y-031132D01*
G01X0005742Y-031132D02*
G01X0006075Y-032132D01*
G01X0006409Y-032132D02*
G01X0006409Y-031132D01*
G01X0006409Y-031132D02*
G01X0006980Y-032132D01*
G01X0006980Y-032132D02*
G01X0006980Y-031132D01*
G01X0007456Y-031132D02*
G01X0007456Y-031942D01*
G01X0007456Y-031942D02*
G01X0007504Y-032037D01*
G01X0007504Y-032037D02*
G01X0007551Y-032085D01*
G01X0007551Y-032085D02*
G01X0007647Y-032132D01*
G01X0007647Y-032132D02*
G01X0007837Y-032132D01*
G01X0007837Y-032132D02*
G01X0007932Y-032085D01*
G01X0007932Y-032085D02*
G01X0007980Y-032037D01*
G01X0007980Y-032037D02*
G01X0008028Y-031942D01*
G01X0008028Y-031942D02*
G01X0008028Y-031132D01*
G01X0008837Y-031609D02*
G01X0008504Y-031609D01*
G01X0008504Y-032132D02*
G01X0008504Y-031132D01*
G01X0008504Y-031132D02*
G01X0008980Y-031132D01*
G01X0009313Y-031847D02*
G01X0009790Y-031847D01*
G01X0009218Y-032132D02*
G01X0009551Y-031132D01*
G01X0009551Y-031132D02*
G01X0009885Y-032132D01*
G01X0010790Y-032037D02*
G01X0010742Y-032085D01*
G01X0010742Y-032085D02*
G01X0010599Y-032132D01*
G01X0010599Y-032132D02*
G01X0010504Y-032132D01*
G01X0010504Y-032132D02*
G01X0010361Y-032085D01*
G01X0010361Y-032085D02*
G01X0010266Y-031990D01*
G01X0010266Y-031990D02*
G01X0010218Y-031894D01*
G01X0010218Y-031894D02*
G01X0010170Y-031704D01*
G01X0010170Y-031704D02*
G01X0010170Y-031561D01*
G01X0010170Y-031561D02*
G01X0010218Y-031370D01*
G01X0010218Y-031370D02*
G01X0010266Y-031275D01*
G01X0010266Y-031275D02*
G01X0010361Y-031180D01*
G01X0010361Y-031180D02*
G01X0010504Y-031132D01*
G01X0010504Y-031132D02*
G01X0010599Y-031132D01*
G01X0010599Y-031132D02*
G01X0010742Y-031180D01*
G01X0010742Y-031180D02*
G01X0010790Y-031228D01*
G01X0011075Y-031132D02*
G01X0011647Y-031132D01*
G01X0011361Y-032132D02*
G01X0011361Y-031132D01*
G01X0011980Y-031132D02*
G01X0011980Y-031942D01*
G01X0011980Y-031942D02*
G01X0012028Y-032037D01*
G01X0012028Y-032037D02*
G01X0012075Y-032085D01*
G01X0012075Y-032085D02*
G01X0012170Y-032132D01*
G01X0012170Y-032132D02*
G01X0012361Y-032132D01*
G01X0012361Y-032132D02*
G01X0012456Y-032085D01*
G01X0012456Y-032085D02*
G01X0012504Y-032037D01*
G01X0012504Y-032037D02*
G01X0012551Y-031942D01*
G01X0012551Y-031942D02*
G01X0012551Y-031132D01*
G01X0013599Y-032132D02*
G01X0013266Y-031656D01*
G01X0013028Y-032132D02*
G01X0013028Y-031132D01*
G01X0013028Y-031132D02*
G01X0013409Y-031132D01*
G01X0013409Y-031132D02*
G01X0013504Y-031180D01*
G01X0013504Y-031180D02*
G01X0013551Y-031228D01*
G01X0013551Y-031228D02*
G01X0013599Y-031323D01*
G01X0013599Y-031323D02*
G01X0013599Y-031466D01*
G01X0013599Y-031466D02*
G01X0013551Y-031561D01*
G01X0013551Y-031561D02*
G01X0013504Y-031609D01*
G01X0013504Y-031609D02*
G01X0013409Y-031656D01*
G01X0013409Y-031656D02*
G01X0013028Y-031656D01*
G01X0014028Y-031609D02*
G01X0014361Y-031609D01*
G01X0014504Y-032132D02*
G01X0014028Y-032132D01*
G01X0014028Y-032132D02*
G01X0014028Y-031132D01*
G01X0014028Y-031132D02*
G01X0014504Y-031132D01*
G01X0015694Y-032132D02*
G01X0015694Y-031132D01*
G01X0016170Y-032132D02*
G01X0016170Y-031132D01*
G01X0016170Y-031132D02*
G01X0016742Y-032132D01*
G01X0016742Y-032132D02*
G01X0016742Y-031132D01*
G01X0017932Y-031847D02*
G01X0018409Y-031847D01*
G01X0017837Y-032132D02*
G01X0018170Y-031132D01*
G01X0018170Y-031132D02*
G01X0018504Y-032132D01*
G01X0019409Y-032037D02*
G01X0019361Y-032085D01*
G01X0019361Y-032085D02*
G01X0019218Y-032132D01*
G01X0019218Y-032132D02*
G01X0019123Y-032132D01*
G01X0019123Y-032132D02*
G01X0018980Y-032085D01*
G01X0018980Y-032085D02*
G01X0018885Y-031990D01*
G01X0018885Y-031990D02*
G01X0018837Y-031894D01*
G01X0018837Y-031894D02*
G01X0018790Y-031704D01*
G01X0018790Y-031704D02*
G01X0018790Y-031561D01*
G01X0018790Y-031561D02*
G01X0018837Y-031370D01*
G01X0018837Y-031370D02*
G01X0018885Y-031275D01*
G01X0018885Y-031275D02*
G01X0018980Y-031180D01*
G01X0018980Y-031180D02*
G01X0019123Y-031132D01*
G01X0019123Y-031132D02*
G01X0019218Y-031132D01*
G01X0019218Y-031132D02*
G01X0019361Y-031180D01*
G01X0019361Y-031180D02*
G01X0019409Y-031228D01*
G01X0020409Y-032037D02*
G01X0020361Y-032085D01*
G01X0020361Y-032085D02*
G01X0020218Y-032132D01*
G01X0020218Y-032132D02*
G01X0020123Y-032132D01*
G01X0020123Y-032132D02*
G01X0019980Y-032085D01*
G01X0019980Y-032085D02*
G01X0019885Y-031990D01*
G01X0019885Y-031990D02*
G01X0019837Y-031894D01*
G01X0019837Y-031894D02*
G01X0019790Y-031704D01*
G01X0019790Y-031704D02*
G01X0019790Y-031561D01*
G01X0019790Y-031561D02*
G01X0019837Y-031370D01*
G01X0019837Y-031370D02*
G01X0019885Y-031275D01*
G01X0019885Y-031275D02*
G01X0019980Y-031180D01*
G01X0019980Y-031180D02*
G01X0020123Y-031132D01*
G01X0020123Y-031132D02*
G01X0020218Y-031132D01*
G01X0020218Y-031132D02*
G01X0020361Y-031180D01*
G01X0020361Y-031180D02*
G01X0020409Y-031228D01*
G01X0021028Y-031132D02*
G01X0021218Y-031132D01*
G01X0021218Y-031132D02*
G01X0021313Y-031180D01*
G01X0021313Y-031180D02*
G01X0021409Y-031275D01*
G01X0021409Y-031275D02*
G01X0021456Y-031466D01*
G01X0021456Y-031466D02*
G01X0021456Y-031799D01*
G01X0021456Y-031799D02*
G01X0021409Y-031990D01*
G01X0021409Y-031990D02*
G01X0021313Y-032085D01*
G01X0021313Y-032085D02*
G01X0021218Y-032132D01*
G01X0021218Y-032132D02*
G01X0021028Y-032132D01*
G01X0021028Y-032132D02*
G01X0020932Y-032085D01*
G01X0020932Y-032085D02*
G01X0020837Y-031990D01*
G01X0020837Y-031990D02*
G01X0020790Y-031799D01*
G01X0020790Y-031799D02*
G01X0020790Y-031466D01*
G01X0020790Y-031466D02*
G01X0020837Y-031275D01*
G01X0020837Y-031275D02*
G01X0020932Y-031180D01*
G01X0020932Y-031180D02*
G01X0021028Y-031132D01*
G01X0022456Y-032132D02*
G01X0022123Y-031656D01*
G01X0021885Y-032132D02*
G01X0021885Y-031132D01*
G01X0021885Y-031132D02*
G01X0022266Y-031132D01*
G01X0022266Y-031132D02*
G01X0022361Y-031180D01*
G01X0022361Y-031180D02*
G01X0022409Y-031228D01*
G01X0022409Y-031228D02*
G01X0022456Y-031323D01*
G01X0022456Y-031323D02*
G01X0022456Y-031466D01*
G01X0022456Y-031466D02*
G01X0022409Y-031561D01*
G01X0022409Y-031561D02*
G01X0022361Y-031609D01*
G01X0022361Y-031609D02*
G01X0022266Y-031656D01*
G01X0022266Y-031656D02*
G01X0021885Y-031656D01*
G01X0022885Y-032132D02*
G01X0022885Y-031132D01*
G01X0022885Y-031132D02*
G01X0023123Y-031132D01*
G01X0023123Y-031132D02*
G01X0023266Y-031180D01*
G01X0023266Y-031180D02*
G01X0023361Y-031275D01*
G01X0023361Y-031275D02*
G01X0023409Y-031370D01*
G01X0023409Y-031370D02*
G01X0023456Y-031561D01*
G01X0023456Y-031561D02*
G01X0023456Y-031704D01*
G01X0023456Y-031704D02*
G01X0023409Y-031894D01*
G01X0023409Y-031894D02*
G01X0023361Y-031990D01*
G01X0023361Y-031990D02*
G01X0023266Y-032085D01*
G01X0023266Y-032085D02*
G01X0023123Y-032132D01*
G01X0023123Y-032132D02*
G01X0022885Y-032132D01*
G01X0023837Y-031847D02*
G01X0024313Y-031847D01*
G01X0023742Y-032132D02*
G01X0024075Y-031132D01*
G01X0024075Y-031132D02*
G01X0024409Y-032132D01*
G01X0024742Y-032132D02*
G01X0024742Y-031132D01*
G01X0024742Y-031132D02*
G01X0025313Y-032132D01*
G01X0025313Y-032132D02*
G01X0025313Y-031132D01*
G01X0026361Y-032037D02*
G01X0026313Y-032085D01*
G01X0026313Y-032085D02*
G01X0026170Y-032132D01*
G01X0026170Y-032132D02*
G01X0026075Y-032132D01*
G01X0026075Y-032132D02*
G01X0025932Y-032085D01*
G01X0025932Y-032085D02*
G01X0025837Y-031990D01*
G01X0025837Y-031990D02*
G01X0025790Y-031894D01*
G01X0025790Y-031894D02*
G01X0025742Y-031704D01*
G01X0025742Y-031704D02*
G01X0025742Y-031561D01*
G01X0025742Y-031561D02*
G01X0025790Y-031370D01*
G01X0025790Y-031370D02*
G01X0025837Y-031275D01*
G01X0025837Y-031275D02*
G01X0025932Y-031180D01*
G01X0025932Y-031180D02*
G01X0026075Y-031132D01*
G01X0026075Y-031132D02*
G01X0026170Y-031132D01*
G01X0026170Y-031132D02*
G01X0026313Y-031180D01*
G01X0026313Y-031180D02*
G01X0026361Y-031228D01*
G01X0026790Y-031609D02*
G01X0027123Y-031609D01*
G01X0027266Y-032132D02*
G01X0026790Y-032132D01*
G01X0026790Y-032132D02*
G01X0026790Y-031132D01*
G01X0026790Y-031132D02*
G01X0027266Y-031132D01*
G01X0028361Y-031132D02*
G01X0028599Y-032132D01*
G01X0028599Y-032132D02*
G01X0028790Y-031418D01*
G01X0028790Y-031418D02*
G01X0028980Y-032132D01*
G01X0028980Y-032132D02*
G01X0029218Y-031132D01*
G01X0029599Y-032132D02*
G01X0029599Y-031132D01*
G01X0029932Y-031132D02*
G01X0030504Y-031132D01*
G01X0030218Y-032132D02*
G01X0030218Y-031132D01*
G01X0030837Y-032132D02*
G01X0030837Y-031132D01*
G01X0030837Y-031609D02*
G01X0031409Y-031609D01*
G01X0031409Y-032132D02*
G01X0031409Y-031132D01*
G01X0032647Y-032132D02*
G01X0032647Y-031132D01*
G01X0033123Y-032132D02*
G01X0033123Y-031132D01*
G01X0033123Y-031132D02*
G01X0033504Y-031132D01*
G01X0033504Y-031132D02*
G01X0033599Y-031180D01*
G01X0033599Y-031180D02*
G01X0033647Y-031228D01*
G01X0033647Y-031228D02*
G01X0033694Y-031323D01*
G01X0033694Y-031323D02*
G01X0033694Y-031466D01*
G01X0033694Y-031466D02*
G01X0033647Y-031561D01*
G01X0033647Y-031561D02*
G01X0033599Y-031609D01*
G01X0033599Y-031609D02*
G01X0033504Y-031656D01*
G01X0033504Y-031656D02*
G01X0033123Y-031656D01*
G01X0034694Y-032037D02*
G01X0034647Y-032085D01*
G01X0034647Y-032085D02*
G01X0034504Y-032132D01*
G01X0034504Y-032132D02*
G01X0034409Y-032132D01*
G01X0034409Y-032132D02*
G01X0034266Y-032085D01*
G01X0034266Y-032085D02*
G01X0034170Y-031990D01*
G01X0034170Y-031990D02*
G01X0034123Y-031894D01*
G01X0034123Y-031894D02*
G01X0034075Y-031704D01*
G01X0034075Y-031704D02*
G01X0034075Y-031561D01*
G01X0034075Y-031561D02*
G01X0034123Y-031370D01*
G01X0034123Y-031370D02*
G01X0034170Y-031275D01*
G01X0034170Y-031275D02*
G01X0034266Y-031180D01*
G01X0034266Y-031180D02*
G01X0034409Y-031132D01*
G01X0034409Y-031132D02*
G01X0034504Y-031132D01*
G01X0034504Y-031132D02*
G01X0034647Y-031180D01*
G01X0034647Y-031180D02*
G01X0034694Y-031228D01*
G01X0035123Y-031751D02*
G01X0035885Y-031751D01*
G01X0036790Y-031132D02*
G01X0036599Y-031132D01*
G01X0036599Y-031132D02*
G01X0036504Y-031180D01*
G01X0036504Y-031180D02*
G01X0036456Y-031228D01*
G01X0036456Y-031228D02*
G01X0036361Y-031370D01*
G01X0036361Y-031370D02*
G01X0036313Y-031561D01*
G01X0036313Y-031561D02*
G01X0036313Y-031942D01*
G01X0036313Y-031942D02*
G01X0036361Y-032037D01*
G01X0036361Y-032037D02*
G01X0036409Y-032085D01*
G01X0036409Y-032085D02*
G01X0036504Y-032132D01*
G01X0036504Y-032132D02*
G01X0036694Y-032132D01*
G01X0036694Y-032132D02*
G01X0036790Y-032085D01*
G01X0036790Y-032085D02*
G01X0036837Y-032037D01*
G01X0036837Y-032037D02*
G01X0036885Y-031942D01*
G01X0036885Y-031942D02*
G01X0036885Y-031704D01*
G01X0036885Y-031704D02*
G01X0036837Y-031609D01*
G01X0036837Y-031609D02*
G01X0036790Y-031561D01*
G01X0036790Y-031561D02*
G01X0036694Y-031513D01*
G01X0036694Y-031513D02*
G01X0036504Y-031513D01*
G01X0036504Y-031513D02*
G01X0036409Y-031561D01*
G01X0036409Y-031561D02*
G01X0036361Y-031609D01*
G01X0036361Y-031609D02*
G01X0036313Y-031704D01*
G01X0037504Y-031132D02*
G01X0037599Y-031132D01*
G01X0037599Y-031132D02*
G01X0037694Y-031180D01*
G01X0037694Y-031180D02*
G01X0037742Y-031228D01*
G01X0037742Y-031228D02*
G01X0037790Y-031323D01*
G01X0037790Y-031323D02*
G01X0037837Y-031513D01*
G01X0037837Y-031513D02*
G01X0037837Y-031751D01*
G01X0037837Y-031751D02*
G01X0037790Y-031942D01*
G01X0037790Y-031942D02*
G01X0037742Y-032037D01*
G01X0037742Y-032037D02*
G01X0037694Y-032085D01*
G01X0037694Y-032085D02*
G01X0037599Y-032132D01*
G01X0037599Y-032132D02*
G01X0037504Y-032132D01*
G01X0037504Y-032132D02*
G01X0037409Y-032085D01*
G01X0037409Y-032085D02*
G01X0037361Y-032037D01*
G01X0037361Y-032037D02*
G01X0037313Y-031942D01*
G01X0037313Y-031942D02*
G01X0037266Y-031751D01*
G01X0037266Y-031751D02*
G01X0037266Y-031513D01*
G01X0037266Y-031513D02*
G01X0037313Y-031323D01*
G01X0037313Y-031323D02*
G01X0037361Y-031228D01*
G01X0037361Y-031228D02*
G01X0037409Y-031180D01*
G01X0037409Y-031180D02*
G01X0037504Y-031132D01*
G01X0038790Y-032132D02*
G01X0038218Y-032132D01*
G01X0038504Y-032132D02*
G01X0038504Y-031132D01*
G01X0038504Y-031132D02*
G01X0038409Y-031275D01*
G01X0038409Y-031275D02*
G01X0038313Y-031370D01*
G01X0038313Y-031370D02*
G01X0038218Y-031418D01*
G01X0039170Y-031228D02*
G01X0039218Y-031180D01*
G01X0039218Y-031180D02*
G01X0039313Y-031132D01*
G01X0039313Y-031132D02*
G01X0039551Y-031132D01*
G01X0039551Y-031132D02*
G01X0039647Y-031180D01*
G01X0039647Y-031180D02*
G01X0039694Y-031228D01*
G01X0039694Y-031228D02*
G01X0039742Y-031323D01*
G01X0039742Y-031323D02*
G01X0039742Y-031418D01*
G01X0039742Y-031418D02*
G01X0039694Y-031561D01*
G01X0039694Y-031561D02*
G01X0039123Y-032132D01*
G01X0039123Y-032132D02*
G01X0039742Y-032132D01*
G01X0041504Y-032037D02*
G01X0041456Y-032085D01*
G01X0041456Y-032085D02*
G01X0041313Y-032132D01*
G01X0041313Y-032132D02*
G01X0041218Y-032132D01*
G01X0041218Y-032132D02*
G01X0041075Y-032085D01*
G01X0041075Y-032085D02*
G01X0040980Y-031990D01*
G01X0040980Y-031990D02*
G01X0040932Y-031894D01*
G01X0040932Y-031894D02*
G01X0040885Y-031704D01*
G01X0040885Y-031704D02*
G01X0040885Y-031561D01*
G01X0040885Y-031561D02*
G01X0040932Y-031370D01*
G01X0040932Y-031370D02*
G01X0040980Y-031275D01*
G01X0040980Y-031275D02*
G01X0041075Y-031180D01*
G01X0041075Y-031180D02*
G01X0041218Y-031132D01*
G01X0041218Y-031132D02*
G01X0041313Y-031132D01*
G01X0041313Y-031132D02*
G01X0041456Y-031180D01*
G01X0041456Y-031180D02*
G01X0041504Y-031228D01*
G01X0042409Y-032132D02*
G01X0041932Y-032132D01*
G01X0041932Y-032132D02*
G01X0041932Y-031132D01*
G01X0042694Y-031847D02*
G01X0043170Y-031847D01*
G01X0042599Y-032132D02*
G01X0042932Y-031132D01*
G01X0042932Y-031132D02*
G01X0043266Y-032132D01*
G01X0043551Y-032085D02*
G01X0043694Y-032132D01*
G01X0043694Y-032132D02*
G01X0043932Y-032132D01*
G01X0043932Y-032132D02*
G01X0044028Y-032085D01*
G01X0044028Y-032085D02*
G01X0044075Y-032037D01*
G01X0044075Y-032037D02*
G01X0044123Y-031942D01*
G01X0044123Y-031942D02*
G01X0044123Y-031847D01*
G01X0044123Y-031847D02*
G01X0044075Y-031751D01*
G01X0044075Y-031751D02*
G01X0044028Y-031704D01*
G01X0044028Y-031704D02*
G01X0043932Y-031656D01*
G01X0043932Y-031656D02*
G01X0043742Y-031609D01*
G01X0043742Y-031609D02*
G01X0043647Y-031561D01*
G01X0043647Y-031561D02*
G01X0043599Y-031513D01*
G01X0043599Y-031513D02*
G01X0043551Y-031418D01*
G01X0043551Y-031418D02*
G01X0043551Y-031323D01*
G01X0043551Y-031323D02*
G01X0043599Y-031228D01*
G01X0043599Y-031228D02*
G01X0043647Y-031180D01*
G01X0043647Y-031180D02*
G01X0043742Y-031132D01*
G01X0043742Y-031132D02*
G01X0043980Y-031132D01*
G01X0043980Y-031132D02*
G01X0044123Y-031180D01*
G01X0044504Y-032085D02*
G01X0044647Y-032132D01*
G01X0044647Y-032132D02*
G01X0044885Y-032132D01*
G01X0044885Y-032132D02*
G01X0044980Y-032085D01*
G01X0044980Y-032085D02*
G01X0045028Y-032037D01*
G01X0045028Y-032037D02*
G01X0045075Y-031942D01*
G01X0045075Y-031942D02*
G01X0045075Y-031847D01*
G01X0045075Y-031847D02*
G01X0045028Y-031751D01*
G01X0045028Y-031751D02*
G01X0044980Y-031704D01*
G01X0044980Y-031704D02*
G01X0044885Y-031656D01*
G01X0044885Y-031656D02*
G01X0044694Y-031609D01*
G01X0044694Y-031609D02*
G01X0044599Y-031561D01*
G01X0044599Y-031561D02*
G01X0044551Y-031513D01*
G01X0044551Y-031513D02*
G01X0044504Y-031418D01*
G01X0044504Y-031418D02*
G01X0044504Y-031323D01*
G01X0044504Y-031323D02*
G01X0044551Y-031228D01*
G01X0044551Y-031228D02*
G01X0044599Y-031180D01*
G01X0044599Y-031180D02*
G01X0044694Y-031132D01*
G01X0044694Y-031132D02*
G01X0044932Y-031132D01*
G01X0044932Y-031132D02*
G01X0045075Y-031180D01*
G01X0046218Y-031228D02*
G01X0046266Y-031180D01*
G01X0046266Y-031180D02*
G01X0046361Y-031132D01*
G01X0046361Y-031132D02*
G01X0046599Y-031132D01*
G01X0046599Y-031132D02*
G01X0046694Y-031180D01*
G01X0046694Y-031180D02*
G01X0046742Y-031228D01*
G01X0046742Y-031228D02*
G01X0046790Y-031323D01*
G01X0046790Y-031323D02*
G01X0046790Y-031418D01*
G01X0046790Y-031418D02*
G01X0046742Y-031561D01*
G01X0046742Y-031561D02*
G01X0046170Y-032132D01*
G01X0046170Y-032132D02*
G01X0046790Y-032132D01*
G01X0002647Y-032732D02*
G01X0002456Y-032732D01*
G01X0002456Y-032732D02*
G01X0002361Y-032780D01*
G01X0002361Y-032780D02*
G01X0002313Y-032828D01*
G01X0002313Y-032828D02*
G01X0002218Y-032970D01*
G01X0002218Y-032970D02*
G01X0002170Y-033161D01*
G01X0002170Y-033161D02*
G01X0002170Y-033542D01*
G01X0002170Y-033542D02*
G01X0002218Y-033637D01*
G01X0002218Y-033637D02*
G01X0002266Y-033685D01*
G01X0002266Y-033685D02*
G01X0002361Y-033732D01*
G01X0002361Y-033732D02*
G01X0002551Y-033732D01*
G01X0002551Y-033732D02*
G01X0002647Y-033685D01*
G01X0002647Y-033685D02*
G01X0002694Y-033637D01*
G01X0002694Y-033637D02*
G01X0002742Y-033542D01*
G01X0002742Y-033542D02*
G01X0002742Y-033304D01*
G01X0002742Y-033304D02*
G01X0002694Y-033209D01*
G01X0002694Y-033209D02*
G01X0002647Y-033161D01*
G01X0002647Y-033161D02*
G01X0002551Y-033113D01*
G01X0002551Y-033113D02*
G01X0002361Y-033113D01*
G01X0002361Y-033113D02*
G01X0002266Y-033161D01*
G01X0002266Y-033161D02*
G01X0002218Y-033209D01*
G01X0002218Y-033209D02*
G01X0002170Y-033304D01*
G01X0003170Y-033637D02*
G01X0003218Y-033685D01*
G01X0003218Y-033685D02*
G01X0003170Y-033732D01*
G01X0003170Y-033732D02*
G01X0003123Y-033685D01*
G01X0003123Y-033685D02*
G01X0003170Y-033637D01*
G01X0003170Y-033637D02*
G01X0003170Y-033732D01*
G01X0004409Y-033732D02*
G01X0004409Y-032732D01*
G01X0004409Y-032732D02*
G01X0004742Y-033447D01*
G01X0004742Y-033447D02*
G01X0005075Y-032732D01*
G01X0005075Y-032732D02*
G01X0005075Y-033732D01*
G01X0005504Y-033447D02*
G01X0005980Y-033447D01*
G01X0005409Y-033732D02*
G01X0005742Y-032732D01*
G01X0005742Y-032732D02*
G01X0006075Y-033732D01*
G01X0006361Y-033685D02*
G01X0006504Y-033732D01*
G01X0006504Y-033732D02*
G01X0006742Y-033732D01*
G01X0006742Y-033732D02*
G01X0006837Y-033685D01*
G01X0006837Y-033685D02*
G01X0006885Y-033637D01*
G01X0006885Y-033637D02*
G01X0006932Y-033542D01*
G01X0006932Y-033542D02*
G01X0006932Y-033447D01*
G01X0006932Y-033447D02*
G01X0006885Y-033351D01*
G01X0006885Y-033351D02*
G01X0006837Y-033304D01*
G01X0006837Y-033304D02*
G01X0006742Y-033256D01*
G01X0006742Y-033256D02*
G01X0006551Y-033209D01*
G01X0006551Y-033209D02*
G01X0006456Y-033161D01*
G01X0006456Y-033161D02*
G01X0006409Y-033113D01*
G01X0006409Y-033113D02*
G01X0006361Y-033018D01*
G01X0006361Y-033018D02*
G01X0006361Y-032923D01*
G01X0006361Y-032923D02*
G01X0006409Y-032828D01*
G01X0006409Y-032828D02*
G01X0006456Y-032780D01*
G01X0006456Y-032780D02*
G01X0006551Y-032732D01*
G01X0006551Y-032732D02*
G01X0006790Y-032732D01*
G01X0006790Y-032732D02*
G01X0006932Y-032780D01*
G01X0007361Y-033732D02*
G01X0007361Y-032732D01*
G01X0007932Y-033732D02*
G01X0007504Y-033161D01*
G01X0007932Y-032732D02*
G01X0007361Y-033304D01*
G01X0008361Y-033637D02*
G01X0008409Y-033685D01*
G01X0008409Y-033685D02*
G01X0008361Y-033732D01*
G01X0008361Y-033732D02*
G01X0008313Y-033685D01*
G01X0008313Y-033685D02*
G01X0008361Y-033637D01*
G01X0008361Y-033637D02*
G01X0008361Y-033732D01*
G01X0008361Y-033113D02*
G01X0008409Y-033161D01*
G01X0008409Y-033161D02*
G01X0008361Y-033209D01*
G01X0008361Y-033209D02*
G01X0008313Y-033161D01*
G01X0008313Y-033161D02*
G01X0008361Y-033113D01*
G01X0008361Y-033113D02*
G01X0008361Y-033209D01*
G01X0009932Y-033209D02*
G01X0010075Y-033256D01*
G01X0010075Y-033256D02*
G01X0010123Y-033304D01*
G01X0010123Y-033304D02*
G01X0010170Y-033399D01*
G01X0010170Y-033399D02*
G01X0010170Y-033542D01*
G01X0010170Y-033542D02*
G01X0010123Y-033637D01*
G01X0010123Y-033637D02*
G01X0010075Y-033685D01*
G01X0010075Y-033685D02*
G01X0009980Y-033732D01*
G01X0009980Y-033732D02*
G01X0009599Y-033732D01*
G01X0009599Y-033732D02*
G01X0009599Y-032732D01*
G01X0009599Y-032732D02*
G01X0009932Y-032732D01*
G01X0009932Y-032732D02*
G01X0010028Y-032780D01*
G01X0010028Y-032780D02*
G01X0010075Y-032828D01*
G01X0010075Y-032828D02*
G01X0010123Y-032923D01*
G01X0010123Y-032923D02*
G01X0010123Y-033018D01*
G01X0010123Y-033018D02*
G01X0010075Y-033113D01*
G01X0010075Y-033113D02*
G01X0010028Y-033161D01*
G01X0010028Y-033161D02*
G01X0009932Y-033209D01*
G01X0009932Y-033209D02*
G01X0009599Y-033209D01*
G01X0010790Y-032732D02*
G01X0010980Y-032732D01*
G01X0010980Y-032732D02*
G01X0011075Y-032780D01*
G01X0011075Y-032780D02*
G01X0011170Y-032875D01*
G01X0011170Y-032875D02*
G01X0011218Y-033066D01*
G01X0011218Y-033066D02*
G01X0011218Y-033399D01*
G01X0011218Y-033399D02*
G01X0011170Y-033590D01*
G01X0011170Y-033590D02*
G01X0011075Y-033685D01*
G01X0011075Y-033685D02*
G01X0010980Y-033732D01*
G01X0010980Y-033732D02*
G01X0010790Y-033732D01*
G01X0010790Y-033732D02*
G01X0010694Y-033685D01*
G01X0010694Y-033685D02*
G01X0010599Y-033590D01*
G01X0010599Y-033590D02*
G01X0010551Y-033399D01*
G01X0010551Y-033399D02*
G01X0010551Y-033066D01*
G01X0010551Y-033066D02*
G01X0010599Y-032875D01*
G01X0010599Y-032875D02*
G01X0010694Y-032780D01*
G01X0010694Y-032780D02*
G01X0010790Y-032732D01*
G01X0011504Y-032732D02*
G01X0012075Y-032732D01*
G01X0011790Y-033732D02*
G01X0011790Y-032732D01*
G01X0012409Y-033732D02*
G01X0012409Y-032732D01*
G01X0012409Y-033209D02*
G01X0012980Y-033209D01*
G01X0012980Y-033732D02*
G01X0012980Y-032732D01*
G01X0014170Y-033685D02*
G01X0014313Y-033732D01*
G01X0014313Y-033732D02*
G01X0014551Y-033732D01*
G01X0014551Y-033732D02*
G01X0014647Y-033685D01*
G01X0014647Y-033685D02*
G01X0014694Y-033637D01*
G01X0014694Y-033637D02*
G01X0014742Y-033542D01*
G01X0014742Y-033542D02*
G01X0014742Y-033447D01*
G01X0014742Y-033447D02*
G01X0014694Y-033351D01*
G01X0014694Y-033351D02*
G01X0014647Y-033304D01*
G01X0014647Y-033304D02*
G01X0014551Y-033256D01*
G01X0014551Y-033256D02*
G01X0014361Y-033209D01*
G01X0014361Y-033209D02*
G01X0014266Y-033161D01*
G01X0014266Y-033161D02*
G01X0014218Y-033113D01*
G01X0014218Y-033113D02*
G01X0014170Y-033018D01*
G01X0014170Y-033018D02*
G01X0014170Y-032923D01*
G01X0014170Y-032923D02*
G01X0014218Y-032828D01*
G01X0014218Y-032828D02*
G01X0014266Y-032780D01*
G01X0014266Y-032780D02*
G01X0014361Y-032732D01*
G01X0014361Y-032732D02*
G01X0014599Y-032732D01*
G01X0014599Y-032732D02*
G01X0014742Y-032780D01*
G01X0015170Y-033732D02*
G01X0015170Y-032732D01*
G01X0015647Y-033732D02*
G01X0015647Y-032732D01*
G01X0015647Y-032732D02*
G01X0015885Y-032732D01*
G01X0015885Y-032732D02*
G01X0016028Y-032780D01*
G01X0016028Y-032780D02*
G01X0016123Y-032875D01*
G01X0016123Y-032875D02*
G01X0016170Y-032970D01*
G01X0016170Y-032970D02*
G01X0016218Y-033161D01*
G01X0016218Y-033161D02*
G01X0016218Y-033304D01*
G01X0016218Y-033304D02*
G01X0016170Y-033494D01*
G01X0016170Y-033494D02*
G01X0016123Y-033590D01*
G01X0016123Y-033590D02*
G01X0016028Y-033685D01*
G01X0016028Y-033685D02*
G01X0015885Y-033732D01*
G01X0015885Y-033732D02*
G01X0015647Y-033732D01*
G01X0016647Y-033209D02*
G01X0016980Y-033209D01*
G01X0017123Y-033732D02*
G01X0016647Y-033732D01*
G01X0016647Y-033732D02*
G01X0016647Y-032732D01*
G01X0016647Y-032732D02*
G01X0017123Y-032732D01*
G01X0017504Y-033685D02*
G01X0017647Y-033732D01*
G01X0017647Y-033732D02*
G01X0017885Y-033732D01*
G01X0017885Y-033732D02*
G01X0017980Y-033685D01*
G01X0017980Y-033685D02*
G01X0018028Y-033637D01*
G01X0018028Y-033637D02*
G01X0018075Y-033542D01*
G01X0018075Y-033542D02*
G01X0018075Y-033447D01*
G01X0018075Y-033447D02*
G01X0018028Y-033351D01*
G01X0018028Y-033351D02*
G01X0017980Y-033304D01*
G01X0017980Y-033304D02*
G01X0017885Y-033256D01*
G01X0017885Y-033256D02*
G01X0017694Y-033209D01*
G01X0017694Y-033209D02*
G01X0017599Y-033161D01*
G01X0017599Y-033161D02*
G01X0017551Y-033113D01*
G01X0017551Y-033113D02*
G01X0017504Y-033018D01*
G01X0017504Y-033018D02*
G01X0017504Y-032923D01*
G01X0017504Y-032923D02*
G01X0017551Y-032828D01*
G01X0017551Y-032828D02*
G01X0017599Y-032780D01*
G01X0017599Y-032780D02*
G01X0017694Y-032732D01*
G01X0017694Y-032732D02*
G01X0017932Y-032732D01*
G01X0017932Y-032732D02*
G01X0018075Y-032780D01*
G01X0019456Y-032732D02*
G01X0019647Y-032732D01*
G01X0019647Y-032732D02*
G01X0019742Y-032780D01*
G01X0019742Y-032780D02*
G01X0019837Y-032875D01*
G01X0019837Y-032875D02*
G01X0019885Y-033066D01*
G01X0019885Y-033066D02*
G01X0019885Y-033399D01*
G01X0019885Y-033399D02*
G01X0019837Y-033590D01*
G01X0019837Y-033590D02*
G01X0019742Y-033685D01*
G01X0019742Y-033685D02*
G01X0019647Y-033732D01*
G01X0019647Y-033732D02*
G01X0019456Y-033732D01*
G01X0019456Y-033732D02*
G01X0019361Y-033685D01*
G01X0019361Y-033685D02*
G01X0019266Y-033590D01*
G01X0019266Y-033590D02*
G01X0019218Y-033399D01*
G01X0019218Y-033399D02*
G01X0019218Y-033066D01*
G01X0019218Y-033066D02*
G01X0019266Y-032875D01*
G01X0019266Y-032875D02*
G01X0019361Y-032780D01*
G01X0019361Y-032780D02*
G01X0019456Y-032732D01*
G01X0020647Y-033209D02*
G01X0020313Y-033209D01*
G01X0020313Y-033732D02*
G01X0020313Y-032732D01*
G01X0020313Y-032732D02*
G01X0020790Y-032732D01*
G01X0021790Y-032732D02*
G01X0022361Y-032732D01*
G01X0022075Y-033732D02*
G01X0022075Y-032732D01*
G01X0022694Y-033732D02*
G01X0022694Y-032732D01*
G01X0022694Y-033209D02*
G01X0023266Y-033209D01*
G01X0023266Y-033732D02*
G01X0023266Y-032732D01*
G01X0023742Y-033209D02*
G01X0024075Y-033209D01*
G01X0024218Y-033732D02*
G01X0023742Y-033732D01*
G01X0023742Y-033732D02*
G01X0023742Y-032732D01*
G01X0023742Y-032732D02*
G01X0024218Y-032732D01*
G01X0025742Y-033209D02*
G01X0025885Y-033256D01*
G01X0025885Y-033256D02*
G01X0025932Y-033304D01*
G01X0025932Y-033304D02*
G01X0025980Y-033399D01*
G01X0025980Y-033399D02*
G01X0025980Y-033542D01*
G01X0025980Y-033542D02*
G01X0025932Y-033637D01*
G01X0025932Y-033637D02*
G01X0025885Y-033685D01*
G01X0025885Y-033685D02*
G01X0025790Y-033732D01*
G01X0025790Y-033732D02*
G01X0025409Y-033732D01*
G01X0025409Y-033732D02*
G01X0025409Y-032732D01*
G01X0025409Y-032732D02*
G01X0025742Y-032732D01*
G01X0025742Y-032732D02*
G01X0025837Y-032780D01*
G01X0025837Y-032780D02*
G01X0025885Y-032828D01*
G01X0025885Y-032828D02*
G01X0025932Y-032923D01*
G01X0025932Y-032923D02*
G01X0025932Y-033018D01*
G01X0025932Y-033018D02*
G01X0025885Y-033113D01*
G01X0025885Y-033113D02*
G01X0025837Y-033161D01*
G01X0025837Y-033161D02*
G01X0025742Y-033209D01*
G01X0025742Y-033209D02*
G01X0025409Y-033209D01*
G01X0026599Y-032732D02*
G01X0026790Y-032732D01*
G01X0026790Y-032732D02*
G01X0026885Y-032780D01*
G01X0026885Y-032780D02*
G01X0026980Y-032875D01*
G01X0026980Y-032875D02*
G01X0027028Y-033066D01*
G01X0027028Y-033066D02*
G01X0027028Y-033399D01*
G01X0027028Y-033399D02*
G01X0026980Y-033590D01*
G01X0026980Y-033590D02*
G01X0026885Y-033685D01*
G01X0026885Y-033685D02*
G01X0026790Y-033732D01*
G01X0026790Y-033732D02*
G01X0026599Y-033732D01*
G01X0026599Y-033732D02*
G01X0026504Y-033685D01*
G01X0026504Y-033685D02*
G01X0026409Y-033590D01*
G01X0026409Y-033590D02*
G01X0026361Y-033399D01*
G01X0026361Y-033399D02*
G01X0026361Y-033066D01*
G01X0026361Y-033066D02*
G01X0026409Y-032875D01*
G01X0026409Y-032875D02*
G01X0026504Y-032780D01*
G01X0026504Y-032780D02*
G01X0026599Y-032732D01*
G01X0027409Y-033447D02*
G01X0027885Y-033447D01*
G01X0027313Y-033732D02*
G01X0027647Y-032732D01*
G01X0027647Y-032732D02*
G01X0027980Y-033732D01*
G01X0028885Y-033732D02*
G01X0028551Y-033256D01*
G01X0028313Y-033732D02*
G01X0028313Y-032732D01*
G01X0028313Y-032732D02*
G01X0028694Y-032732D01*
G01X0028694Y-032732D02*
G01X0028790Y-032780D01*
G01X0028790Y-032780D02*
G01X0028837Y-032828D01*
G01X0028837Y-032828D02*
G01X0028885Y-032923D01*
G01X0028885Y-032923D02*
G01X0028885Y-033066D01*
G01X0028885Y-033066D02*
G01X0028837Y-033161D01*
G01X0028837Y-033161D02*
G01X0028790Y-033209D01*
G01X0028790Y-033209D02*
G01X0028694Y-033256D01*
G01X0028694Y-033256D02*
G01X0028313Y-033256D01*
G01X0029313Y-033732D02*
G01X0029313Y-032732D01*
G01X0029313Y-032732D02*
G01X0029551Y-032732D01*
G01X0029551Y-032732D02*
G01X0029694Y-032780D01*
G01X0029694Y-032780D02*
G01X0029790Y-032875D01*
G01X0029790Y-032875D02*
G01X0029837Y-032970D01*
G01X0029837Y-032970D02*
G01X0029885Y-033161D01*
G01X0029885Y-033161D02*
G01X0029885Y-033304D01*
G01X0029885Y-033304D02*
G01X0029837Y-033494D01*
G01X0029837Y-033494D02*
G01X0029790Y-033590D01*
G01X0029790Y-033590D02*
G01X0029694Y-033685D01*
G01X0029694Y-033685D02*
G01X0029551Y-033732D01*
G01X0029551Y-033732D02*
G01X0029313Y-033732D01*
G01X0031028Y-033685D02*
G01X0031170Y-033732D01*
G01X0031170Y-033732D02*
G01X0031409Y-033732D01*
G01X0031409Y-033732D02*
G01X0031504Y-033685D01*
G01X0031504Y-033685D02*
G01X0031551Y-033637D01*
G01X0031551Y-033637D02*
G01X0031599Y-033542D01*
G01X0031599Y-033542D02*
G01X0031599Y-033447D01*
G01X0031599Y-033447D02*
G01X0031551Y-033351D01*
G01X0031551Y-033351D02*
G01X0031504Y-033304D01*
G01X0031504Y-033304D02*
G01X0031409Y-033256D01*
G01X0031409Y-033256D02*
G01X0031218Y-033209D01*
G01X0031218Y-033209D02*
G01X0031123Y-033161D01*
G01X0031123Y-033161D02*
G01X0031075Y-033113D01*
G01X0031075Y-033113D02*
G01X0031028Y-033018D01*
G01X0031028Y-033018D02*
G01X0031028Y-032923D01*
G01X0031028Y-032923D02*
G01X0031075Y-032828D01*
G01X0031075Y-032828D02*
G01X0031123Y-032780D01*
G01X0031123Y-032780D02*
G01X0031218Y-032732D01*
G01X0031218Y-032732D02*
G01X0031456Y-032732D01*
G01X0031456Y-032732D02*
G01X0031599Y-032780D01*
G01X0032028Y-033732D02*
G01X0032028Y-032732D01*
G01X0032028Y-033209D02*
G01X0032599Y-033209D01*
G01X0032599Y-033732D02*
G01X0032599Y-032732D01*
G01X0033028Y-033447D02*
G01X0033504Y-033447D01*
G01X0032932Y-033732D02*
G01X0033266Y-032732D01*
G01X0033266Y-032732D02*
G01X0033599Y-033732D01*
G01X0034409Y-033732D02*
G01X0033932Y-033732D01*
G01X0033932Y-033732D02*
G01X0033932Y-032732D01*
G01X0035218Y-033732D02*
G01X0034742Y-033732D01*
G01X0034742Y-033732D02*
G01X0034742Y-032732D01*
G01X0036313Y-033732D02*
G01X0036313Y-032732D01*
G01X0036313Y-033209D02*
G01X0036885Y-033209D01*
G01X0036885Y-033732D02*
G01X0036885Y-032732D01*
G01X0037313Y-033447D02*
G01X0037790Y-033447D01*
G01X0037218Y-033732D02*
G01X0037551Y-032732D01*
G01X0037551Y-032732D02*
G01X0037885Y-033732D01*
G01X0038075Y-032732D02*
G01X0038409Y-033732D01*
G01X0038409Y-033732D02*
G01X0038742Y-032732D01*
G01X0039075Y-033209D02*
G01X0039409Y-033209D01*
G01X0039551Y-033732D02*
G01X0039075Y-033732D01*
G01X0039075Y-033732D02*
G01X0039075Y-032732D01*
G01X0039075Y-032732D02*
G01X0039551Y-032732D01*
G01X0004456Y-035285D02*
G01X0004599Y-035332D01*
G01X0004599Y-035332D02*
G01X0004837Y-035332D01*
G01X0004837Y-035332D02*
G01X0004932Y-035285D01*
G01X0004932Y-035285D02*
G01X0004980Y-035237D01*
G01X0004980Y-035237D02*
G01X0005028Y-035142D01*
G01X0005028Y-035142D02*
G01X0005028Y-035047D01*
G01X0005028Y-035047D02*
G01X0004980Y-034951D01*
G01X0004980Y-034951D02*
G01X0004932Y-034904D01*
G01X0004932Y-034904D02*
G01X0004837Y-034856D01*
G01X0004837Y-034856D02*
G01X0004647Y-034809D01*
G01X0004647Y-034809D02*
G01X0004551Y-034761D01*
G01X0004551Y-034761D02*
G01X0004504Y-034713D01*
G01X0004504Y-034713D02*
G01X0004456Y-034618D01*
G01X0004456Y-034618D02*
G01X0004456Y-034523D01*
G01X0004456Y-034523D02*
G01X0004504Y-034428D01*
G01X0004504Y-034428D02*
G01X0004551Y-034380D01*
G01X0004551Y-034380D02*
G01X0004647Y-034332D01*
G01X0004647Y-034332D02*
G01X0004885Y-034332D01*
G01X0004885Y-034332D02*
G01X0005028Y-034380D01*
G01X0005647Y-034332D02*
G01X0005837Y-034332D01*
G01X0005837Y-034332D02*
G01X0005932Y-034380D01*
G01X0005932Y-034380D02*
G01X0006028Y-034475D01*
G01X0006028Y-034475D02*
G01X0006075Y-034666D01*
G01X0006075Y-034666D02*
G01X0006075Y-034999D01*
G01X0006075Y-034999D02*
G01X0006028Y-035190D01*
G01X0006028Y-035190D02*
G01X0005932Y-035285D01*
G01X0005932Y-035285D02*
G01X0005837Y-035332D01*
G01X0005837Y-035332D02*
G01X0005647Y-035332D01*
G01X0005647Y-035332D02*
G01X0005551Y-035285D01*
G01X0005551Y-035285D02*
G01X0005456Y-035190D01*
G01X0005456Y-035190D02*
G01X0005409Y-034999D01*
G01X0005409Y-034999D02*
G01X0005409Y-034666D01*
G01X0005409Y-034666D02*
G01X0005456Y-034475D01*
G01X0005456Y-034475D02*
G01X0005551Y-034380D01*
G01X0005551Y-034380D02*
G01X0005647Y-034332D01*
G01X0006980Y-035332D02*
G01X0006504Y-035332D01*
G01X0006504Y-035332D02*
G01X0006504Y-034332D01*
G01X0007313Y-035332D02*
G01X0007313Y-034332D01*
G01X0007313Y-034332D02*
G01X0007551Y-034332D01*
G01X0007551Y-034332D02*
G01X0007694Y-034380D01*
G01X0007694Y-034380D02*
G01X0007790Y-034475D01*
G01X0007790Y-034475D02*
G01X0007837Y-034570D01*
G01X0007837Y-034570D02*
G01X0007885Y-034761D01*
G01X0007885Y-034761D02*
G01X0007885Y-034904D01*
G01X0007885Y-034904D02*
G01X0007837Y-035094D01*
G01X0007837Y-035094D02*
G01X0007790Y-035190D01*
G01X0007790Y-035190D02*
G01X0007694Y-035285D01*
G01X0007694Y-035285D02*
G01X0007551Y-035332D01*
G01X0007551Y-035332D02*
G01X0007313Y-035332D01*
G01X0008313Y-034809D02*
G01X0008647Y-034809D01*
G01X0008790Y-035332D02*
G01X0008313Y-035332D01*
G01X0008313Y-035332D02*
G01X0008313Y-034332D01*
G01X0008313Y-034332D02*
G01X0008790Y-034332D01*
G01X0009790Y-035332D02*
G01X0009456Y-034856D01*
G01X0009218Y-035332D02*
G01X0009218Y-034332D01*
G01X0009218Y-034332D02*
G01X0009599Y-034332D01*
G01X0009599Y-034332D02*
G01X0009694Y-034380D01*
G01X0009694Y-034380D02*
G01X0009742Y-034428D01*
G01X0009742Y-034428D02*
G01X0009790Y-034523D01*
G01X0009790Y-034523D02*
G01X0009790Y-034666D01*
G01X0009790Y-034666D02*
G01X0009742Y-034761D01*
G01X0009742Y-034761D02*
G01X0009694Y-034809D01*
G01X0009694Y-034809D02*
G01X0009599Y-034856D01*
G01X0009599Y-034856D02*
G01X0009218Y-034856D01*
G01X0010980Y-035332D02*
G01X0010980Y-034332D01*
G01X0010980Y-034332D02*
G01X0011313Y-035047D01*
G01X0011313Y-035047D02*
G01X0011647Y-034332D01*
G01X0011647Y-034332D02*
G01X0011647Y-035332D01*
G01X0012075Y-035047D02*
G01X0012551Y-035047D01*
G01X0011980Y-035332D02*
G01X0012313Y-034332D01*
G01X0012313Y-034332D02*
G01X0012647Y-035332D01*
G01X0012932Y-035285D02*
G01X0013075Y-035332D01*
G01X0013075Y-035332D02*
G01X0013313Y-035332D01*
G01X0013313Y-035332D02*
G01X0013409Y-035285D01*
G01X0013409Y-035285D02*
G01X0013456Y-035237D01*
G01X0013456Y-035237D02*
G01X0013504Y-035142D01*
G01X0013504Y-035142D02*
G01X0013504Y-035047D01*
G01X0013504Y-035047D02*
G01X0013456Y-034951D01*
G01X0013456Y-034951D02*
G01X0013409Y-034904D01*
G01X0013409Y-034904D02*
G01X0013313Y-034856D01*
G01X0013313Y-034856D02*
G01X0013123Y-034809D01*
G01X0013123Y-034809D02*
G01X0013028Y-034761D01*
G01X0013028Y-034761D02*
G01X0012980Y-034713D01*
G01X0012980Y-034713D02*
G01X0012932Y-034618D01*
G01X0012932Y-034618D02*
G01X0012932Y-034523D01*
G01X0012932Y-034523D02*
G01X0012980Y-034428D01*
G01X0012980Y-034428D02*
G01X0013028Y-034380D01*
G01X0013028Y-034380D02*
G01X0013123Y-034332D01*
G01X0013123Y-034332D02*
G01X0013361Y-034332D01*
G01X0013361Y-034332D02*
G01X0013504Y-034380D01*
G01X0013932Y-035332D02*
G01X0013932Y-034332D01*
G01X0014504Y-035332D02*
G01X0014075Y-034761D01*
G01X0014504Y-034332D02*
G01X0013932Y-034904D01*
G01X0015980Y-035713D02*
G01X0015932Y-035666D01*
G01X0015932Y-035666D02*
G01X0015837Y-035523D01*
G01X0015837Y-035523D02*
G01X0015790Y-035428D01*
G01X0015790Y-035428D02*
G01X0015742Y-035285D01*
G01X0015742Y-035285D02*
G01X0015694Y-035047D01*
G01X0015694Y-035047D02*
G01X0015694Y-034856D01*
G01X0015694Y-034856D02*
G01X0015742Y-034618D01*
G01X0015742Y-034618D02*
G01X0015790Y-034475D01*
G01X0015790Y-034475D02*
G01X0015837Y-034380D01*
G01X0015837Y-034380D02*
G01X0015932Y-034237D01*
G01X0015932Y-034237D02*
G01X0015980Y-034190D01*
G01X0016694Y-034809D02*
G01X0016837Y-034856D01*
G01X0016837Y-034856D02*
G01X0016885Y-034904D01*
G01X0016885Y-034904D02*
G01X0016932Y-034999D01*
G01X0016932Y-034999D02*
G01X0016932Y-035142D01*
G01X0016932Y-035142D02*
G01X0016885Y-035237D01*
G01X0016885Y-035237D02*
G01X0016837Y-035285D01*
G01X0016837Y-035285D02*
G01X0016742Y-035332D01*
G01X0016742Y-035332D02*
G01X0016361Y-035332D01*
G01X0016361Y-035332D02*
G01X0016361Y-034332D01*
G01X0016361Y-034332D02*
G01X0016694Y-034332D01*
G01X0016694Y-034332D02*
G01X0016790Y-034380D01*
G01X0016790Y-034380D02*
G01X0016837Y-034428D01*
G01X0016837Y-034428D02*
G01X0016885Y-034523D01*
G01X0016885Y-034523D02*
G01X0016885Y-034618D01*
G01X0016885Y-034618D02*
G01X0016837Y-034713D01*
G01X0016837Y-034713D02*
G01X0016790Y-034761D01*
G01X0016790Y-034761D02*
G01X0016694Y-034809D01*
G01X0016694Y-034809D02*
G01X0016361Y-034809D01*
G01X0017837Y-035332D02*
G01X0017361Y-035332D01*
G01X0017361Y-035332D02*
G01X0017361Y-034332D01*
G01X0018170Y-034332D02*
G01X0018170Y-035142D01*
G01X0018170Y-035142D02*
G01X0018218Y-035237D01*
G01X0018218Y-035237D02*
G01X0018266Y-035285D01*
G01X0018266Y-035285D02*
G01X0018361Y-035332D01*
G01X0018361Y-035332D02*
G01X0018551Y-035332D01*
G01X0018551Y-035332D02*
G01X0018647Y-035285D01*
G01X0018647Y-035285D02*
G01X0018694Y-035237D01*
G01X0018694Y-035237D02*
G01X0018742Y-035142D01*
G01X0018742Y-035142D02*
G01X0018742Y-034332D01*
G01X0019218Y-034809D02*
G01X0019551Y-034809D01*
G01X0019694Y-035332D02*
G01X0019218Y-035332D01*
G01X0019218Y-035332D02*
G01X0019218Y-034332D01*
G01X0019218Y-034332D02*
G01X0019694Y-034332D01*
G01X0020028Y-035713D02*
G01X0020075Y-035666D01*
G01X0020075Y-035666D02*
G01X0020170Y-035523D01*
G01X0020170Y-035523D02*
G01X0020218Y-035428D01*
G01X0020218Y-035428D02*
G01X0020266Y-035285D01*
G01X0020266Y-035285D02*
G01X0020313Y-035047D01*
G01X0020313Y-035047D02*
G01X0020313Y-034856D01*
G01X0020313Y-034856D02*
G01X0020266Y-034618D01*
G01X0020266Y-034618D02*
G01X0020218Y-034475D01*
G01X0020218Y-034475D02*
G01X0020170Y-034380D01*
G01X0020170Y-034380D02*
G01X0020075Y-034237D01*
G01X0020075Y-034237D02*
G01X0020028Y-034190D01*
G01X0021742Y-034332D02*
G01X0021932Y-034332D01*
G01X0021932Y-034332D02*
G01X0022028Y-034380D01*
G01X0022028Y-034380D02*
G01X0022123Y-034475D01*
G01X0022123Y-034475D02*
G01X0022170Y-034666D01*
G01X0022170Y-034666D02*
G01X0022170Y-034999D01*
G01X0022170Y-034999D02*
G01X0022123Y-035190D01*
G01X0022123Y-035190D02*
G01X0022028Y-035285D01*
G01X0022028Y-035285D02*
G01X0021932Y-035332D01*
G01X0021932Y-035332D02*
G01X0021742Y-035332D01*
G01X0021742Y-035332D02*
G01X0021647Y-035285D01*
G01X0021647Y-035285D02*
G01X0021551Y-035190D01*
G01X0021551Y-035190D02*
G01X0021504Y-034999D01*
G01X0021504Y-034999D02*
G01X0021504Y-034666D01*
G01X0021504Y-034666D02*
G01X0021551Y-034475D01*
G01X0021551Y-034475D02*
G01X0021647Y-034380D01*
G01X0021647Y-034380D02*
G01X0021742Y-034332D01*
G01X0022456Y-034332D02*
G01X0022790Y-035332D01*
G01X0022790Y-035332D02*
G01X0023123Y-034332D01*
G01X0023456Y-034809D02*
G01X0023790Y-034809D01*
G01X0023932Y-035332D02*
G01X0023456Y-035332D01*
G01X0023456Y-035332D02*
G01X0023456Y-034332D01*
G01X0023456Y-034332D02*
G01X0023932Y-034332D01*
G01X0024932Y-035332D02*
G01X0024599Y-034856D01*
G01X0024361Y-035332D02*
G01X0024361Y-034332D01*
G01X0024361Y-034332D02*
G01X0024742Y-034332D01*
G01X0024742Y-034332D02*
G01X0024837Y-034380D01*
G01X0024837Y-034380D02*
G01X0024885Y-034428D01*
G01X0024885Y-034428D02*
G01X0024932Y-034523D01*
G01X0024932Y-034523D02*
G01X0024932Y-034666D01*
G01X0024932Y-034666D02*
G01X0024885Y-034761D01*
G01X0024885Y-034761D02*
G01X0024837Y-034809D01*
G01X0024837Y-034809D02*
G01X0024742Y-034856D01*
G01X0024742Y-034856D02*
G01X0024361Y-034856D01*
G01X0026456Y-034809D02*
G01X0026599Y-034856D01*
G01X0026599Y-034856D02*
G01X0026647Y-034904D01*
G01X0026647Y-034904D02*
G01X0026694Y-034999D01*
G01X0026694Y-034999D02*
G01X0026694Y-035142D01*
G01X0026694Y-035142D02*
G01X0026647Y-035237D01*
G01X0026647Y-035237D02*
G01X0026599Y-035285D01*
G01X0026599Y-035285D02*
G01X0026504Y-035332D01*
G01X0026504Y-035332D02*
G01X0026123Y-035332D01*
G01X0026123Y-035332D02*
G01X0026123Y-034332D01*
G01X0026123Y-034332D02*
G01X0026456Y-034332D01*
G01X0026456Y-034332D02*
G01X0026551Y-034380D01*
G01X0026551Y-034380D02*
G01X0026599Y-034428D01*
G01X0026599Y-034428D02*
G01X0026647Y-034523D01*
G01X0026647Y-034523D02*
G01X0026647Y-034618D01*
G01X0026647Y-034618D02*
G01X0026599Y-034713D01*
G01X0026599Y-034713D02*
G01X0026551Y-034761D01*
G01X0026551Y-034761D02*
G01X0026456Y-034809D01*
G01X0026456Y-034809D02*
G01X0026123Y-034809D01*
G01X0027075Y-035047D02*
G01X0027551Y-035047D01*
G01X0026980Y-035332D02*
G01X0027313Y-034332D01*
G01X0027313Y-034332D02*
G01X0027647Y-035332D01*
G01X0028551Y-035332D02*
G01X0028218Y-034856D01*
G01X0027980Y-035332D02*
G01X0027980Y-034332D01*
G01X0027980Y-034332D02*
G01X0028361Y-034332D01*
G01X0028361Y-034332D02*
G01X0028456Y-034380D01*
G01X0028456Y-034380D02*
G01X0028504Y-034428D01*
G01X0028504Y-034428D02*
G01X0028551Y-034523D01*
G01X0028551Y-034523D02*
G01X0028551Y-034666D01*
G01X0028551Y-034666D02*
G01X0028504Y-034761D01*
G01X0028504Y-034761D02*
G01X0028456Y-034809D01*
G01X0028456Y-034809D02*
G01X0028361Y-034856D01*
G01X0028361Y-034856D02*
G01X0027980Y-034856D01*
G01X0028980Y-034809D02*
G01X0029313Y-034809D01*
G01X0029456Y-035332D02*
G01X0028980Y-035332D01*
G01X0028980Y-035332D02*
G01X0028980Y-034332D01*
G01X0028980Y-034332D02*
G01X0029456Y-034332D01*
G01X0031218Y-035237D02*
G01X0031170Y-035285D01*
G01X0031170Y-035285D02*
G01X0031028Y-035332D01*
G01X0031028Y-035332D02*
G01X0030932Y-035332D01*
G01X0030932Y-035332D02*
G01X0030790Y-035285D01*
G01X0030790Y-035285D02*
G01X0030694Y-035190D01*
G01X0030694Y-035190D02*
G01X0030647Y-035094D01*
G01X0030647Y-035094D02*
G01X0030599Y-034904D01*
G01X0030599Y-034904D02*
G01X0030599Y-034761D01*
G01X0030599Y-034761D02*
G01X0030647Y-034570D01*
G01X0030647Y-034570D02*
G01X0030694Y-034475D01*
G01X0030694Y-034475D02*
G01X0030790Y-034380D01*
G01X0030790Y-034380D02*
G01X0030932Y-034332D01*
G01X0030932Y-034332D02*
G01X0031028Y-034332D01*
G01X0031028Y-034332D02*
G01X0031170Y-034380D01*
G01X0031170Y-034380D02*
G01X0031218Y-034428D01*
G01X0031837Y-034332D02*
G01X0032028Y-034332D01*
G01X0032028Y-034332D02*
G01X0032123Y-034380D01*
G01X0032123Y-034380D02*
G01X0032218Y-034475D01*
G01X0032218Y-034475D02*
G01X0032266Y-034666D01*
G01X0032266Y-034666D02*
G01X0032266Y-034999D01*
G01X0032266Y-034999D02*
G01X0032218Y-035190D01*
G01X0032218Y-035190D02*
G01X0032123Y-035285D01*
G01X0032123Y-035285D02*
G01X0032028Y-035332D01*
G01X0032028Y-035332D02*
G01X0031837Y-035332D01*
G01X0031837Y-035332D02*
G01X0031742Y-035285D01*
G01X0031742Y-035285D02*
G01X0031647Y-035190D01*
G01X0031647Y-035190D02*
G01X0031599Y-034999D01*
G01X0031599Y-034999D02*
G01X0031599Y-034666D01*
G01X0031599Y-034666D02*
G01X0031647Y-034475D01*
G01X0031647Y-034475D02*
G01X0031742Y-034380D01*
G01X0031742Y-034380D02*
G01X0031837Y-034332D01*
G01X0032694Y-035332D02*
G01X0032694Y-034332D01*
G01X0032694Y-034332D02*
G01X0033075Y-034332D01*
G01X0033075Y-034332D02*
G01X0033170Y-034380D01*
G01X0033170Y-034380D02*
G01X0033218Y-034428D01*
G01X0033218Y-034428D02*
G01X0033266Y-034523D01*
G01X0033266Y-034523D02*
G01X0033266Y-034666D01*
G01X0033266Y-034666D02*
G01X0033218Y-034761D01*
G01X0033218Y-034761D02*
G01X0033170Y-034809D01*
G01X0033170Y-034809D02*
G01X0033075Y-034856D01*
G01X0033075Y-034856D02*
G01X0032694Y-034856D01*
G01X0033694Y-035332D02*
G01X0033694Y-034332D01*
G01X0033694Y-034332D02*
G01X0034075Y-034332D01*
G01X0034075Y-034332D02*
G01X0034170Y-034380D01*
G01X0034170Y-034380D02*
G01X0034218Y-034428D01*
G01X0034218Y-034428D02*
G01X0034266Y-034523D01*
G01X0034266Y-034523D02*
G01X0034266Y-034666D01*
G01X0034266Y-034666D02*
G01X0034218Y-034761D01*
G01X0034218Y-034761D02*
G01X0034170Y-034809D01*
G01X0034170Y-034809D02*
G01X0034075Y-034856D01*
G01X0034075Y-034856D02*
G01X0033694Y-034856D01*
G01X0034694Y-034809D02*
G01X0035028Y-034809D01*
G01X0035170Y-035332D02*
G01X0034694Y-035332D01*
G01X0034694Y-035332D02*
G01X0034694Y-034332D01*
G01X0034694Y-034332D02*
G01X0035170Y-034332D01*
G01X0036170Y-035332D02*
G01X0035837Y-034856D01*
G01X0035599Y-035332D02*
G01X0035599Y-034332D01*
G01X0035599Y-034332D02*
G01X0035980Y-034332D01*
G01X0035980Y-034332D02*
G01X0036075Y-034380D01*
G01X0036075Y-034380D02*
G01X0036123Y-034428D01*
G01X0036123Y-034428D02*
G01X0036170Y-034523D01*
G01X0036170Y-034523D02*
G01X0036170Y-034666D01*
G01X0036170Y-034666D02*
G01X0036123Y-034761D01*
G01X0036123Y-034761D02*
G01X0036075Y-034809D01*
G01X0036075Y-034809D02*
G01X0035980Y-034856D01*
G01X0035980Y-034856D02*
G01X0035599Y-034856D01*
G01X0036599Y-035237D02*
G01X0036647Y-035285D01*
G01X0036647Y-035285D02*
G01X0036599Y-035332D01*
G01X0036599Y-035332D02*
G01X0036551Y-035285D01*
G01X0036551Y-035285D02*
G01X0036599Y-035237D01*
G01X0036599Y-035237D02*
G01X0036599Y-035332D01*
G01X0002123Y-035932D02*
G01X0002790Y-035932D01*
G01X0002790Y-035932D02*
G01X0002361Y-036932D01*
G01X0003170Y-036837D02*
G01X0003218Y-036885D01*
G01X0003218Y-036885D02*
G01X0003170Y-036932D01*
G01X0003170Y-036932D02*
G01X0003123Y-036885D01*
G01X0003123Y-036885D02*
G01X0003170Y-036837D01*
G01X0003170Y-036837D02*
G01X0003170Y-036932D01*
G01X0004361Y-036885D02*
G01X0004504Y-036932D01*
G01X0004504Y-036932D02*
G01X0004742Y-036932D01*
G01X0004742Y-036932D02*
G01X0004837Y-036885D01*
G01X0004837Y-036885D02*
G01X0004885Y-036837D01*
G01X0004885Y-036837D02*
G01X0004932Y-036742D01*
G01X0004932Y-036742D02*
G01X0004932Y-036647D01*
G01X0004932Y-036647D02*
G01X0004885Y-036551D01*
G01X0004885Y-036551D02*
G01X0004837Y-036504D01*
G01X0004837Y-036504D02*
G01X0004742Y-036456D01*
G01X0004742Y-036456D02*
G01X0004551Y-036409D01*
G01X0004551Y-036409D02*
G01X0004456Y-036361D01*
G01X0004456Y-036361D02*
G01X0004409Y-036313D01*
G01X0004409Y-036313D02*
G01X0004361Y-036218D01*
G01X0004361Y-036218D02*
G01X0004361Y-036123D01*
G01X0004361Y-036123D02*
G01X0004409Y-036028D01*
G01X0004409Y-036028D02*
G01X0004456Y-035980D01*
G01X0004456Y-035980D02*
G01X0004551Y-035932D01*
G01X0004551Y-035932D02*
G01X0004790Y-035932D01*
G01X0004790Y-035932D02*
G01X0004932Y-035980D01*
G01X0005361Y-036932D02*
G01X0005361Y-035932D01*
G01X0006313Y-036932D02*
G01X0005837Y-036932D01*
G01X0005837Y-036932D02*
G01X0005837Y-035932D01*
G01X0006647Y-036932D02*
G01X0006647Y-035932D01*
G01X0007218Y-036932D02*
G01X0006790Y-036361D01*
G01X0007218Y-035932D02*
G01X0006647Y-036504D01*
G01X0007647Y-036837D02*
G01X0007694Y-036885D01*
G01X0007694Y-036885D02*
G01X0007647Y-036932D01*
G01X0007647Y-036932D02*
G01X0007599Y-036885D01*
G01X0007599Y-036885D02*
G01X0007647Y-036837D01*
G01X0007647Y-036837D02*
G01X0007647Y-036932D01*
G01X0007647Y-036313D02*
G01X0007694Y-036361D01*
G01X0007694Y-036361D02*
G01X0007647Y-036409D01*
G01X0007647Y-036409D02*
G01X0007599Y-036361D01*
G01X0007599Y-036361D02*
G01X0007647Y-036313D01*
G01X0007647Y-036313D02*
G01X0007647Y-036409D01*
G01X0009218Y-036409D02*
G01X0009361Y-036456D01*
G01X0009361Y-036456D02*
G01X0009409Y-036504D01*
G01X0009409Y-036504D02*
G01X0009456Y-036599D01*
G01X0009456Y-036599D02*
G01X0009456Y-036742D01*
G01X0009456Y-036742D02*
G01X0009409Y-036837D01*
G01X0009409Y-036837D02*
G01X0009361Y-036885D01*
G01X0009361Y-036885D02*
G01X0009266Y-036932D01*
G01X0009266Y-036932D02*
G01X0008885Y-036932D01*
G01X0008885Y-036932D02*
G01X0008885Y-035932D01*
G01X0008885Y-035932D02*
G01X0009218Y-035932D01*
G01X0009218Y-035932D02*
G01X0009313Y-035980D01*
G01X0009313Y-035980D02*
G01X0009361Y-036028D01*
G01X0009361Y-036028D02*
G01X0009409Y-036123D01*
G01X0009409Y-036123D02*
G01X0009409Y-036218D01*
G01X0009409Y-036218D02*
G01X0009361Y-036313D01*
G01X0009361Y-036313D02*
G01X0009313Y-036361D01*
G01X0009313Y-036361D02*
G01X0009218Y-036409D01*
G01X0009218Y-036409D02*
G01X0008885Y-036409D01*
G01X0010075Y-035932D02*
G01X0010266Y-035932D01*
G01X0010266Y-035932D02*
G01X0010361Y-035980D01*
G01X0010361Y-035980D02*
G01X0010456Y-036075D01*
G01X0010456Y-036075D02*
G01X0010504Y-036266D01*
G01X0010504Y-036266D02*
G01X0010504Y-036599D01*
G01X0010504Y-036599D02*
G01X0010456Y-036790D01*
G01X0010456Y-036790D02*
G01X0010361Y-036885D01*
G01X0010361Y-036885D02*
G01X0010266Y-036932D01*
G01X0010266Y-036932D02*
G01X0010075Y-036932D01*
G01X0010075Y-036932D02*
G01X0009980Y-036885D01*
G01X0009980Y-036885D02*
G01X0009885Y-036790D01*
G01X0009885Y-036790D02*
G01X0009837Y-036599D01*
G01X0009837Y-036599D02*
G01X0009837Y-036266D01*
G01X0009837Y-036266D02*
G01X0009885Y-036075D01*
G01X0009885Y-036075D02*
G01X0009980Y-035980D01*
G01X0009980Y-035980D02*
G01X0010075Y-035932D01*
G01X0010790Y-035932D02*
G01X0011361Y-035932D01*
G01X0011075Y-036932D02*
G01X0011075Y-035932D01*
G01X0011694Y-036932D02*
G01X0011694Y-035932D01*
G01X0011694Y-036409D02*
G01X0012266Y-036409D01*
G01X0012266Y-036932D02*
G01X0012266Y-035932D01*
G01X0013456Y-036885D02*
G01X0013599Y-036932D01*
G01X0013599Y-036932D02*
G01X0013837Y-036932D01*
G01X0013837Y-036932D02*
G01X0013932Y-036885D01*
G01X0013932Y-036885D02*
G01X0013980Y-036837D01*
G01X0013980Y-036837D02*
G01X0014028Y-036742D01*
G01X0014028Y-036742D02*
G01X0014028Y-036647D01*
G01X0014028Y-036647D02*
G01X0013980Y-036551D01*
G01X0013980Y-036551D02*
G01X0013932Y-036504D01*
G01X0013932Y-036504D02*
G01X0013837Y-036456D01*
G01X0013837Y-036456D02*
G01X0013647Y-036409D01*
G01X0013647Y-036409D02*
G01X0013551Y-036361D01*
G01X0013551Y-036361D02*
G01X0013504Y-036313D01*
G01X0013504Y-036313D02*
G01X0013456Y-036218D01*
G01X0013456Y-036218D02*
G01X0013456Y-036123D01*
G01X0013456Y-036123D02*
G01X0013504Y-036028D01*
G01X0013504Y-036028D02*
G01X0013551Y-035980D01*
G01X0013551Y-035980D02*
G01X0013647Y-035932D01*
G01X0013647Y-035932D02*
G01X0013885Y-035932D01*
G01X0013885Y-035932D02*
G01X0014028Y-035980D01*
G01X0014456Y-036932D02*
G01X0014456Y-035932D01*
G01X0014932Y-036932D02*
G01X0014932Y-035932D01*
G01X0014932Y-035932D02*
G01X0015170Y-035932D01*
G01X0015170Y-035932D02*
G01X0015313Y-035980D01*
G01X0015313Y-035980D02*
G01X0015409Y-036075D01*
G01X0015409Y-036075D02*
G01X0015456Y-036170D01*
G01X0015456Y-036170D02*
G01X0015504Y-036361D01*
G01X0015504Y-036361D02*
G01X0015504Y-036504D01*
G01X0015504Y-036504D02*
G01X0015456Y-036694D01*
G01X0015456Y-036694D02*
G01X0015409Y-036790D01*
G01X0015409Y-036790D02*
G01X0015313Y-036885D01*
G01X0015313Y-036885D02*
G01X0015170Y-036932D01*
G01X0015170Y-036932D02*
G01X0014932Y-036932D01*
G01X0015932Y-036409D02*
G01X0016266Y-036409D01*
G01X0016409Y-036932D02*
G01X0015932Y-036932D01*
G01X0015932Y-036932D02*
G01X0015932Y-035932D01*
G01X0015932Y-035932D02*
G01X0016409Y-035932D01*
G01X0016790Y-036885D02*
G01X0016932Y-036932D01*
G01X0016932Y-036932D02*
G01X0017170Y-036932D01*
G01X0017170Y-036932D02*
G01X0017266Y-036885D01*
G01X0017266Y-036885D02*
G01X0017313Y-036837D01*
G01X0017313Y-036837D02*
G01X0017361Y-036742D01*
G01X0017361Y-036742D02*
G01X0017361Y-036647D01*
G01X0017361Y-036647D02*
G01X0017313Y-036551D01*
G01X0017313Y-036551D02*
G01X0017266Y-036504D01*
G01X0017266Y-036504D02*
G01X0017170Y-036456D01*
G01X0017170Y-036456D02*
G01X0016980Y-036409D01*
G01X0016980Y-036409D02*
G01X0016885Y-036361D01*
G01X0016885Y-036361D02*
G01X0016837Y-036313D01*
G01X0016837Y-036313D02*
G01X0016790Y-036218D01*
G01X0016790Y-036218D02*
G01X0016790Y-036123D01*
G01X0016790Y-036123D02*
G01X0016837Y-036028D01*
G01X0016837Y-036028D02*
G01X0016885Y-035980D01*
G01X0016885Y-035980D02*
G01X0016980Y-035932D01*
G01X0016980Y-035932D02*
G01X0017218Y-035932D01*
G01X0017218Y-035932D02*
G01X0017361Y-035980D01*
G01X0018742Y-035932D02*
G01X0018932Y-035932D01*
G01X0018932Y-035932D02*
G01X0019028Y-035980D01*
G01X0019028Y-035980D02*
G01X0019123Y-036075D01*
G01X0019123Y-036075D02*
G01X0019170Y-036266D01*
G01X0019170Y-036266D02*
G01X0019170Y-036599D01*
G01X0019170Y-036599D02*
G01X0019123Y-036790D01*
G01X0019123Y-036790D02*
G01X0019028Y-036885D01*
G01X0019028Y-036885D02*
G01X0018932Y-036932D01*
G01X0018932Y-036932D02*
G01X0018742Y-036932D01*
G01X0018742Y-036932D02*
G01X0018647Y-036885D01*
G01X0018647Y-036885D02*
G01X0018551Y-036790D01*
G01X0018551Y-036790D02*
G01X0018504Y-036599D01*
G01X0018504Y-036599D02*
G01X0018504Y-036266D01*
G01X0018504Y-036266D02*
G01X0018551Y-036075D01*
G01X0018551Y-036075D02*
G01X0018647Y-035980D01*
G01X0018647Y-035980D02*
G01X0018742Y-035932D01*
G01X0019932Y-036409D02*
G01X0019599Y-036409D01*
G01X0019599Y-036932D02*
G01X0019599Y-035932D01*
G01X0019599Y-035932D02*
G01X0020075Y-035932D01*
G01X0021075Y-035932D02*
G01X0021647Y-035932D01*
G01X0021361Y-036932D02*
G01X0021361Y-035932D01*
G01X0021980Y-036932D02*
G01X0021980Y-035932D01*
G01X0021980Y-036409D02*
G01X0022551Y-036409D01*
G01X0022551Y-036932D02*
G01X0022551Y-035932D01*
G01X0023028Y-036409D02*
G01X0023361Y-036409D01*
G01X0023504Y-036932D02*
G01X0023028Y-036932D01*
G01X0023028Y-036932D02*
G01X0023028Y-035932D01*
G01X0023028Y-035932D02*
G01X0023504Y-035932D01*
G01X0025028Y-036409D02*
G01X0025170Y-036456D01*
G01X0025170Y-036456D02*
G01X0025218Y-036504D01*
G01X0025218Y-036504D02*
G01X0025266Y-036599D01*
G01X0025266Y-036599D02*
G01X0025266Y-036742D01*
G01X0025266Y-036742D02*
G01X0025218Y-036837D01*
G01X0025218Y-036837D02*
G01X0025170Y-036885D01*
G01X0025170Y-036885D02*
G01X0025075Y-036932D01*
G01X0025075Y-036932D02*
G01X0024694Y-036932D01*
G01X0024694Y-036932D02*
G01X0024694Y-035932D01*
G01X0024694Y-035932D02*
G01X0025028Y-035932D01*
G01X0025028Y-035932D02*
G01X0025123Y-035980D01*
G01X0025123Y-035980D02*
G01X0025170Y-036028D01*
G01X0025170Y-036028D02*
G01X0025218Y-036123D01*
G01X0025218Y-036123D02*
G01X0025218Y-036218D01*
G01X0025218Y-036218D02*
G01X0025170Y-036313D01*
G01X0025170Y-036313D02*
G01X0025123Y-036361D01*
G01X0025123Y-036361D02*
G01X0025028Y-036409D01*
G01X0025028Y-036409D02*
G01X0024694Y-036409D01*
G01X0025885Y-035932D02*
G01X0026075Y-035932D01*
G01X0026075Y-035932D02*
G01X0026170Y-035980D01*
G01X0026170Y-035980D02*
G01X0026266Y-036075D01*
G01X0026266Y-036075D02*
G01X0026313Y-036266D01*
G01X0026313Y-036266D02*
G01X0026313Y-036599D01*
G01X0026313Y-036599D02*
G01X0026266Y-036790D01*
G01X0026266Y-036790D02*
G01X0026170Y-036885D01*
G01X0026170Y-036885D02*
G01X0026075Y-036932D01*
G01X0026075Y-036932D02*
G01X0025885Y-036932D01*
G01X0025885Y-036932D02*
G01X0025790Y-036885D01*
G01X0025790Y-036885D02*
G01X0025694Y-036790D01*
G01X0025694Y-036790D02*
G01X0025647Y-036599D01*
G01X0025647Y-036599D02*
G01X0025647Y-036266D01*
G01X0025647Y-036266D02*
G01X0025694Y-036075D01*
G01X0025694Y-036075D02*
G01X0025790Y-035980D01*
G01X0025790Y-035980D02*
G01X0025885Y-035932D01*
G01X0026694Y-036647D02*
G01X0027170Y-036647D01*
G01X0026599Y-036932D02*
G01X0026932Y-035932D01*
G01X0026932Y-035932D02*
G01X0027266Y-036932D01*
G01X0028170Y-036932D02*
G01X0027837Y-036456D01*
G01X0027599Y-036932D02*
G01X0027599Y-035932D01*
G01X0027599Y-035932D02*
G01X0027980Y-035932D01*
G01X0027980Y-035932D02*
G01X0028075Y-035980D01*
G01X0028075Y-035980D02*
G01X0028123Y-036028D01*
G01X0028123Y-036028D02*
G01X0028170Y-036123D01*
G01X0028170Y-036123D02*
G01X0028170Y-036266D01*
G01X0028170Y-036266D02*
G01X0028123Y-036361D01*
G01X0028123Y-036361D02*
G01X0028075Y-036409D01*
G01X0028075Y-036409D02*
G01X0027980Y-036456D01*
G01X0027980Y-036456D02*
G01X0027599Y-036456D01*
G01X0028599Y-036932D02*
G01X0028599Y-035932D01*
G01X0028599Y-035932D02*
G01X0028837Y-035932D01*
G01X0028837Y-035932D02*
G01X0028980Y-035980D01*
G01X0028980Y-035980D02*
G01X0029075Y-036075D01*
G01X0029075Y-036075D02*
G01X0029123Y-036170D01*
G01X0029123Y-036170D02*
G01X0029170Y-036361D01*
G01X0029170Y-036361D02*
G01X0029170Y-036504D01*
G01X0029170Y-036504D02*
G01X0029123Y-036694D01*
G01X0029123Y-036694D02*
G01X0029075Y-036790D01*
G01X0029075Y-036790D02*
G01X0028980Y-036885D01*
G01X0028980Y-036885D02*
G01X0028837Y-036932D01*
G01X0028837Y-036932D02*
G01X0028599Y-036932D01*
G01X0030313Y-036885D02*
G01X0030456Y-036932D01*
G01X0030456Y-036932D02*
G01X0030694Y-036932D01*
G01X0030694Y-036932D02*
G01X0030790Y-036885D01*
G01X0030790Y-036885D02*
G01X0030837Y-036837D01*
G01X0030837Y-036837D02*
G01X0030885Y-036742D01*
G01X0030885Y-036742D02*
G01X0030885Y-036647D01*
G01X0030885Y-036647D02*
G01X0030837Y-036551D01*
G01X0030837Y-036551D02*
G01X0030790Y-036504D01*
G01X0030790Y-036504D02*
G01X0030694Y-036456D01*
G01X0030694Y-036456D02*
G01X0030504Y-036409D01*
G01X0030504Y-036409D02*
G01X0030409Y-036361D01*
G01X0030409Y-036361D02*
G01X0030361Y-036313D01*
G01X0030361Y-036313D02*
G01X0030313Y-036218D01*
G01X0030313Y-036218D02*
G01X0030313Y-036123D01*
G01X0030313Y-036123D02*
G01X0030361Y-036028D01*
G01X0030361Y-036028D02*
G01X0030409Y-035980D01*
G01X0030409Y-035980D02*
G01X0030504Y-035932D01*
G01X0030504Y-035932D02*
G01X0030742Y-035932D01*
G01X0030742Y-035932D02*
G01X0030885Y-035980D01*
G01X0031313Y-036932D02*
G01X0031313Y-035932D01*
G01X0031313Y-036409D02*
G01X0031885Y-036409D01*
G01X0031885Y-036932D02*
G01X0031885Y-035932D01*
G01X0032313Y-036647D02*
G01X0032790Y-036647D01*
G01X0032218Y-036932D02*
G01X0032551Y-035932D01*
G01X0032551Y-035932D02*
G01X0032885Y-036932D01*
G01X0033694Y-036932D02*
G01X0033218Y-036932D01*
G01X0033218Y-036932D02*
G01X0033218Y-035932D01*
G01X0034504Y-036932D02*
G01X0034028Y-036932D01*
G01X0034028Y-036932D02*
G01X0034028Y-035932D01*
G01X0035599Y-036932D02*
G01X0035599Y-035932D01*
G01X0035599Y-036409D02*
G01X0036170Y-036409D01*
G01X0036170Y-036932D02*
G01X0036170Y-035932D01*
G01X0036599Y-036647D02*
G01X0037075Y-036647D01*
G01X0036504Y-036932D02*
G01X0036837Y-035932D01*
G01X0036837Y-035932D02*
G01X0037170Y-036932D01*
G01X0037361Y-035932D02*
G01X0037694Y-036932D01*
G01X0037694Y-036932D02*
G01X0038028Y-035932D01*
G01X0038361Y-036409D02*
G01X0038694Y-036409D01*
G01X0038837Y-036932D02*
G01X0038361Y-036932D01*
G01X0038361Y-036932D02*
G01X0038361Y-035932D01*
G01X0038361Y-035932D02*
G01X0038837Y-035932D01*
G01X0039932Y-035932D02*
G01X0040170Y-036932D01*
G01X0040170Y-036932D02*
G01X0040361Y-036218D01*
G01X0040361Y-036218D02*
G01X0040551Y-036932D01*
G01X0040551Y-036932D02*
G01X0040790Y-035932D01*
G01X0041170Y-036932D02*
G01X0041170Y-035932D01*
G01X0041170Y-036409D02*
G01X0041742Y-036409D01*
G01X0041742Y-036932D02*
G01X0041742Y-035932D01*
G01X0042218Y-036932D02*
G01X0042218Y-035932D01*
G01X0042551Y-035932D02*
G01X0043123Y-035932D01*
G01X0042837Y-036932D02*
G01X0042837Y-035932D01*
G01X0043456Y-036409D02*
G01X0043790Y-036409D01*
G01X0043932Y-036932D02*
G01X0043456Y-036932D01*
G01X0043456Y-036932D02*
G01X0043456Y-035932D01*
G01X0043456Y-035932D02*
G01X0043932Y-035932D01*
G01X0045075Y-036885D02*
G01X0045218Y-036932D01*
G01X0045218Y-036932D02*
G01X0045456Y-036932D01*
G01X0045456Y-036932D02*
G01X0045551Y-036885D01*
G01X0045551Y-036885D02*
G01X0045599Y-036837D01*
G01X0045599Y-036837D02*
G01X0045647Y-036742D01*
G01X0045647Y-036742D02*
G01X0045647Y-036647D01*
G01X0045647Y-036647D02*
G01X0045599Y-036551D01*
G01X0045599Y-036551D02*
G01X0045551Y-036504D01*
G01X0045551Y-036504D02*
G01X0045456Y-036456D01*
G01X0045456Y-036456D02*
G01X0045266Y-036409D01*
G01X0045266Y-036409D02*
G01X0045170Y-036361D01*
G01X0045170Y-036361D02*
G01X0045123Y-036313D01*
G01X0045123Y-036313D02*
G01X0045075Y-036218D01*
G01X0045075Y-036218D02*
G01X0045075Y-036123D01*
G01X0045075Y-036123D02*
G01X0045123Y-036028D01*
G01X0045123Y-036028D02*
G01X0045170Y-035980D01*
G01X0045170Y-035980D02*
G01X0045266Y-035932D01*
G01X0045266Y-035932D02*
G01X0045504Y-035932D01*
G01X0045504Y-035932D02*
G01X0045647Y-035980D01*
G01X0046075Y-036932D02*
G01X0046075Y-035932D01*
G01X0047028Y-036932D02*
G01X0046551Y-036932D01*
G01X0046551Y-036932D02*
G01X0046551Y-035932D01*
G01X0047361Y-036932D02*
G01X0047361Y-035932D01*
G01X0047932Y-036932D02*
G01X0047504Y-036361D01*
G01X0047932Y-035932D02*
G01X0047361Y-036504D01*
G01X0048361Y-036837D02*
G01X0048409Y-036885D01*
G01X0048409Y-036885D02*
G01X0048361Y-036932D01*
G01X0048361Y-036932D02*
G01X0048313Y-036885D01*
G01X0048313Y-036885D02*
G01X0048361Y-036837D01*
G01X0048361Y-036837D02*
G01X0048361Y-036932D01*
G01X0004504Y-038532D02*
G01X0004504Y-037532D01*
G01X0004504Y-037532D02*
G01X0004742Y-037532D01*
G01X0004742Y-037532D02*
G01X0004885Y-037580D01*
G01X0004885Y-037580D02*
G01X0004980Y-037675D01*
G01X0004980Y-037675D02*
G01X0005028Y-037770D01*
G01X0005028Y-037770D02*
G01X0005075Y-037961D01*
G01X0005075Y-037961D02*
G01X0005075Y-038104D01*
G01X0005075Y-038104D02*
G01X0005028Y-038294D01*
G01X0005028Y-038294D02*
G01X0004980Y-038390D01*
G01X0004980Y-038390D02*
G01X0004885Y-038485D01*
G01X0004885Y-038485D02*
G01X0004742Y-038532D01*
G01X0004742Y-038532D02*
G01X0004504Y-038532D01*
G01X0005694Y-037532D02*
G01X0005885Y-037532D01*
G01X0005885Y-037532D02*
G01X0005980Y-037580D01*
G01X0005980Y-037580D02*
G01X0006075Y-037675D01*
G01X0006075Y-037675D02*
G01X0006123Y-037866D01*
G01X0006123Y-037866D02*
G01X0006123Y-038199D01*
G01X0006123Y-038199D02*
G01X0006075Y-038390D01*
G01X0006075Y-038390D02*
G01X0005980Y-038485D01*
G01X0005980Y-038485D02*
G01X0005885Y-038532D01*
G01X0005885Y-038532D02*
G01X0005694Y-038532D01*
G01X0005694Y-038532D02*
G01X0005599Y-038485D01*
G01X0005599Y-038485D02*
G01X0005504Y-038390D01*
G01X0005504Y-038390D02*
G01X0005456Y-038199D01*
G01X0005456Y-038199D02*
G01X0005456Y-037866D01*
G01X0005456Y-037866D02*
G01X0005504Y-037675D01*
G01X0005504Y-037675D02*
G01X0005599Y-037580D01*
G01X0005599Y-037580D02*
G01X0005694Y-037532D01*
G01X0007313Y-038532D02*
G01X0007313Y-037532D01*
G01X0007313Y-037532D02*
G01X0007885Y-038532D01*
G01X0007885Y-038532D02*
G01X0007885Y-037532D01*
G01X0008551Y-037532D02*
G01X0008742Y-037532D01*
G01X0008742Y-037532D02*
G01X0008837Y-037580D01*
G01X0008837Y-037580D02*
G01X0008932Y-037675D01*
G01X0008932Y-037675D02*
G01X0008980Y-037866D01*
G01X0008980Y-037866D02*
G01X0008980Y-038199D01*
G01X0008980Y-038199D02*
G01X0008932Y-038390D01*
G01X0008932Y-038390D02*
G01X0008837Y-038485D01*
G01X0008837Y-038485D02*
G01X0008742Y-038532D01*
G01X0008742Y-038532D02*
G01X0008551Y-038532D01*
G01X0008551Y-038532D02*
G01X0008456Y-038485D01*
G01X0008456Y-038485D02*
G01X0008361Y-038390D01*
G01X0008361Y-038390D02*
G01X0008313Y-038199D01*
G01X0008313Y-038199D02*
G01X0008313Y-037866D01*
G01X0008313Y-037866D02*
G01X0008361Y-037675D01*
G01X0008361Y-037675D02*
G01X0008456Y-037580D01*
G01X0008456Y-037580D02*
G01X0008551Y-037532D01*
G01X0009266Y-037532D02*
G01X0009837Y-037532D01*
G01X0009551Y-038532D02*
G01X0009551Y-037532D01*
G01X0010932Y-038532D02*
G01X0010932Y-037532D01*
G01X0010932Y-037532D02*
G01X0011313Y-037532D01*
G01X0011313Y-037532D02*
G01X0011409Y-037580D01*
G01X0011409Y-037580D02*
G01X0011456Y-037628D01*
G01X0011456Y-037628D02*
G01X0011504Y-037723D01*
G01X0011504Y-037723D02*
G01X0011504Y-037866D01*
G01X0011504Y-037866D02*
G01X0011456Y-037961D01*
G01X0011456Y-037961D02*
G01X0011409Y-038009D01*
G01X0011409Y-038009D02*
G01X0011313Y-038056D01*
G01X0011313Y-038056D02*
G01X0010932Y-038056D01*
G01X0012409Y-038532D02*
G01X0011932Y-038532D01*
G01X0011932Y-038532D02*
G01X0011932Y-037532D01*
G01X0012694Y-038247D02*
G01X0013170Y-038247D01*
G01X0012599Y-038532D02*
G01X0012932Y-037532D01*
G01X0012932Y-037532D02*
G01X0013266Y-038532D01*
G01X0014170Y-038437D02*
G01X0014123Y-038485D01*
G01X0014123Y-038485D02*
G01X0013980Y-038532D01*
G01X0013980Y-038532D02*
G01X0013885Y-038532D01*
G01X0013885Y-038532D02*
G01X0013742Y-038485D01*
G01X0013742Y-038485D02*
G01X0013647Y-038390D01*
G01X0013647Y-038390D02*
G01X0013599Y-038294D01*
G01X0013599Y-038294D02*
G01X0013551Y-038104D01*
G01X0013551Y-038104D02*
G01X0013551Y-037961D01*
G01X0013551Y-037961D02*
G01X0013599Y-037770D01*
G01X0013599Y-037770D02*
G01X0013647Y-037675D01*
G01X0013647Y-037675D02*
G01X0013742Y-037580D01*
G01X0013742Y-037580D02*
G01X0013885Y-037532D01*
G01X0013885Y-037532D02*
G01X0013980Y-037532D01*
G01X0013980Y-037532D02*
G01X0014123Y-037580D01*
G01X0014123Y-037580D02*
G01X0014170Y-037628D01*
G01X0014599Y-038009D02*
G01X0014932Y-038009D01*
G01X0015075Y-038532D02*
G01X0014599Y-038532D01*
G01X0014599Y-038532D02*
G01X0014599Y-037532D01*
G01X0014599Y-037532D02*
G01X0015075Y-037532D01*
G01X0016218Y-038485D02*
G01X0016361Y-038532D01*
G01X0016361Y-038532D02*
G01X0016599Y-038532D01*
G01X0016599Y-038532D02*
G01X0016694Y-038485D01*
G01X0016694Y-038485D02*
G01X0016742Y-038437D01*
G01X0016742Y-038437D02*
G01X0016790Y-038342D01*
G01X0016790Y-038342D02*
G01X0016790Y-038247D01*
G01X0016790Y-038247D02*
G01X0016742Y-038151D01*
G01X0016742Y-038151D02*
G01X0016694Y-038104D01*
G01X0016694Y-038104D02*
G01X0016599Y-038056D01*
G01X0016599Y-038056D02*
G01X0016409Y-038009D01*
G01X0016409Y-038009D02*
G01X0016313Y-037961D01*
G01X0016313Y-037961D02*
G01X0016266Y-037913D01*
G01X0016266Y-037913D02*
G01X0016218Y-037818D01*
G01X0016218Y-037818D02*
G01X0016218Y-037723D01*
G01X0016218Y-037723D02*
G01X0016266Y-037628D01*
G01X0016266Y-037628D02*
G01X0016313Y-037580D01*
G01X0016313Y-037580D02*
G01X0016409Y-037532D01*
G01X0016409Y-037532D02*
G01X0016647Y-037532D01*
G01X0016647Y-037532D02*
G01X0016790Y-037580D01*
G01X0017218Y-038532D02*
G01X0017218Y-037532D01*
G01X0018170Y-038532D02*
G01X0017694Y-038532D01*
G01X0017694Y-038532D02*
G01X0017694Y-037532D01*
G01X0018504Y-038532D02*
G01X0018504Y-037532D01*
G01X0019075Y-038532D02*
G01X0018647Y-037961D01*
G01X0019075Y-037532D02*
G01X0018504Y-038104D01*
G01X0020456Y-037532D02*
G01X0020647Y-037532D01*
G01X0020647Y-037532D02*
G01X0020742Y-037580D01*
G01X0020742Y-037580D02*
G01X0020837Y-037675D01*
G01X0020837Y-037675D02*
G01X0020885Y-037866D01*
G01X0020885Y-037866D02*
G01X0020885Y-038199D01*
G01X0020885Y-038199D02*
G01X0020837Y-038390D01*
G01X0020837Y-038390D02*
G01X0020742Y-038485D01*
G01X0020742Y-038485D02*
G01X0020647Y-038532D01*
G01X0020647Y-038532D02*
G01X0020456Y-038532D01*
G01X0020456Y-038532D02*
G01X0020361Y-038485D01*
G01X0020361Y-038485D02*
G01X0020266Y-038390D01*
G01X0020266Y-038390D02*
G01X0020218Y-038199D01*
G01X0020218Y-038199D02*
G01X0020218Y-037866D01*
G01X0020218Y-037866D02*
G01X0020266Y-037675D01*
G01X0020266Y-037675D02*
G01X0020361Y-037580D01*
G01X0020361Y-037580D02*
G01X0020456Y-037532D01*
G01X0021170Y-037532D02*
G01X0021504Y-038532D01*
G01X0021504Y-038532D02*
G01X0021837Y-037532D01*
G01X0022170Y-038009D02*
G01X0022504Y-038009D01*
G01X0022647Y-038532D02*
G01X0022170Y-038532D01*
G01X0022170Y-038532D02*
G01X0022170Y-037532D01*
G01X0022170Y-037532D02*
G01X0022647Y-037532D01*
G01X0023647Y-038532D02*
G01X0023313Y-038056D01*
G01X0023075Y-038532D02*
G01X0023075Y-037532D01*
G01X0023075Y-037532D02*
G01X0023456Y-037532D01*
G01X0023456Y-037532D02*
G01X0023551Y-037580D01*
G01X0023551Y-037580D02*
G01X0023599Y-037628D01*
G01X0023599Y-037628D02*
G01X0023647Y-037723D01*
G01X0023647Y-037723D02*
G01X0023647Y-037866D01*
G01X0023647Y-037866D02*
G01X0023599Y-037961D01*
G01X0023599Y-037961D02*
G01X0023551Y-038009D01*
G01X0023551Y-038009D02*
G01X0023456Y-038056D01*
G01X0023456Y-038056D02*
G01X0023075Y-038056D01*
G01X0025170Y-038009D02*
G01X0025313Y-038056D01*
G01X0025313Y-038056D02*
G01X0025361Y-038104D01*
G01X0025361Y-038104D02*
G01X0025409Y-038199D01*
G01X0025409Y-038199D02*
G01X0025409Y-038342D01*
G01X0025409Y-038342D02*
G01X0025361Y-038437D01*
G01X0025361Y-038437D02*
G01X0025313Y-038485D01*
G01X0025313Y-038485D02*
G01X0025218Y-038532D01*
G01X0025218Y-038532D02*
G01X0024837Y-038532D01*
G01X0024837Y-038532D02*
G01X0024837Y-037532D01*
G01X0024837Y-037532D02*
G01X0025170Y-037532D01*
G01X0025170Y-037532D02*
G01X0025266Y-037580D01*
G01X0025266Y-037580D02*
G01X0025313Y-037628D01*
G01X0025313Y-037628D02*
G01X0025361Y-037723D01*
G01X0025361Y-037723D02*
G01X0025361Y-037818D01*
G01X0025361Y-037818D02*
G01X0025313Y-037913D01*
G01X0025313Y-037913D02*
G01X0025266Y-037961D01*
G01X0025266Y-037961D02*
G01X0025170Y-038009D01*
G01X0025170Y-038009D02*
G01X0024837Y-038009D01*
G01X0025790Y-038247D02*
G01X0026266Y-038247D01*
G01X0025694Y-038532D02*
G01X0026028Y-037532D01*
G01X0026028Y-037532D02*
G01X0026361Y-038532D01*
G01X0027266Y-038532D02*
G01X0026932Y-038056D01*
G01X0026694Y-038532D02*
G01X0026694Y-037532D01*
G01X0026694Y-037532D02*
G01X0027075Y-037532D01*
G01X0027075Y-037532D02*
G01X0027170Y-037580D01*
G01X0027170Y-037580D02*
G01X0027218Y-037628D01*
G01X0027218Y-037628D02*
G01X0027266Y-037723D01*
G01X0027266Y-037723D02*
G01X0027266Y-037866D01*
G01X0027266Y-037866D02*
G01X0027218Y-037961D01*
G01X0027218Y-037961D02*
G01X0027170Y-038009D01*
G01X0027170Y-038009D02*
G01X0027075Y-038056D01*
G01X0027075Y-038056D02*
G01X0026694Y-038056D01*
G01X0027694Y-038009D02*
G01X0028028Y-038009D01*
G01X0028170Y-038532D02*
G01X0027694Y-038532D01*
G01X0027694Y-038532D02*
G01X0027694Y-037532D01*
G01X0027694Y-037532D02*
G01X0028170Y-037532D01*
G01X0029932Y-038437D02*
G01X0029885Y-038485D01*
G01X0029885Y-038485D02*
G01X0029742Y-038532D01*
G01X0029742Y-038532D02*
G01X0029647Y-038532D01*
G01X0029647Y-038532D02*
G01X0029504Y-038485D01*
G01X0029504Y-038485D02*
G01X0029409Y-038390D01*
G01X0029409Y-038390D02*
G01X0029361Y-038294D01*
G01X0029361Y-038294D02*
G01X0029313Y-038104D01*
G01X0029313Y-038104D02*
G01X0029313Y-037961D01*
G01X0029313Y-037961D02*
G01X0029361Y-037770D01*
G01X0029361Y-037770D02*
G01X0029409Y-037675D01*
G01X0029409Y-037675D02*
G01X0029504Y-037580D01*
G01X0029504Y-037580D02*
G01X0029647Y-037532D01*
G01X0029647Y-037532D02*
G01X0029742Y-037532D01*
G01X0029742Y-037532D02*
G01X0029885Y-037580D01*
G01X0029885Y-037580D02*
G01X0029932Y-037628D01*
G01X0030551Y-037532D02*
G01X0030742Y-037532D01*
G01X0030742Y-037532D02*
G01X0030837Y-037580D01*
G01X0030837Y-037580D02*
G01X0030932Y-037675D01*
G01X0030932Y-037675D02*
G01X0030980Y-037866D01*
G01X0030980Y-037866D02*
G01X0030980Y-038199D01*
G01X0030980Y-038199D02*
G01X0030932Y-038390D01*
G01X0030932Y-038390D02*
G01X0030837Y-038485D01*
G01X0030837Y-038485D02*
G01X0030742Y-038532D01*
G01X0030742Y-038532D02*
G01X0030551Y-038532D01*
G01X0030551Y-038532D02*
G01X0030456Y-038485D01*
G01X0030456Y-038485D02*
G01X0030361Y-038390D01*
G01X0030361Y-038390D02*
G01X0030313Y-038199D01*
G01X0030313Y-038199D02*
G01X0030313Y-037866D01*
G01X0030313Y-037866D02*
G01X0030361Y-037675D01*
G01X0030361Y-037675D02*
G01X0030456Y-037580D01*
G01X0030456Y-037580D02*
G01X0030551Y-037532D01*
G01X0031409Y-038532D02*
G01X0031409Y-037532D01*
G01X0031409Y-037532D02*
G01X0031790Y-037532D01*
G01X0031790Y-037532D02*
G01X0031885Y-037580D01*
G01X0031885Y-037580D02*
G01X0031932Y-037628D01*
G01X0031932Y-037628D02*
G01X0031980Y-037723D01*
G01X0031980Y-037723D02*
G01X0031980Y-037866D01*
G01X0031980Y-037866D02*
G01X0031932Y-037961D01*
G01X0031932Y-037961D02*
G01X0031885Y-038009D01*
G01X0031885Y-038009D02*
G01X0031790Y-038056D01*
G01X0031790Y-038056D02*
G01X0031409Y-038056D01*
G01X0032409Y-038532D02*
G01X0032409Y-037532D01*
G01X0032409Y-037532D02*
G01X0032790Y-037532D01*
G01X0032790Y-037532D02*
G01X0032885Y-037580D01*
G01X0032885Y-037580D02*
G01X0032932Y-037628D01*
G01X0032932Y-037628D02*
G01X0032980Y-037723D01*
G01X0032980Y-037723D02*
G01X0032980Y-037866D01*
G01X0032980Y-037866D02*
G01X0032932Y-037961D01*
G01X0032932Y-037961D02*
G01X0032885Y-038009D01*
G01X0032885Y-038009D02*
G01X0032790Y-038056D01*
G01X0032790Y-038056D02*
G01X0032409Y-038056D01*
G01X0033409Y-038009D02*
G01X0033742Y-038009D01*
G01X0033885Y-038532D02*
G01X0033409Y-038532D01*
G01X0033409Y-038532D02*
G01X0033409Y-037532D01*
G01X0033409Y-037532D02*
G01X0033885Y-037532D01*
G01X0034885Y-038532D02*
G01X0034551Y-038056D01*
G01X0034313Y-038532D02*
G01X0034313Y-037532D01*
G01X0034313Y-037532D02*
G01X0034694Y-037532D01*
G01X0034694Y-037532D02*
G01X0034790Y-037580D01*
G01X0034790Y-037580D02*
G01X0034837Y-037628D01*
G01X0034837Y-037628D02*
G01X0034885Y-037723D01*
G01X0034885Y-037723D02*
G01X0034885Y-037866D01*
G01X0034885Y-037866D02*
G01X0034837Y-037961D01*
G01X0034837Y-037961D02*
G01X0034790Y-038009D01*
G01X0034790Y-038009D02*
G01X0034694Y-038056D01*
G01X0034694Y-038056D02*
G01X0034313Y-038056D01*
G01X0035313Y-038437D02*
G01X0035361Y-038485D01*
G01X0035361Y-038485D02*
G01X0035313Y-038532D01*
G01X0035313Y-038532D02*
G01X0035266Y-038485D01*
G01X0035266Y-038485D02*
G01X0035313Y-038437D01*
G01X0035313Y-038437D02*
G01X0035313Y-038532D01*
G01X0002361Y-039561D02*
G01X0002266Y-039513D01*
G01X0002266Y-039513D02*
G01X0002218Y-039466D01*
G01X0002218Y-039466D02*
G01X0002170Y-039370D01*
G01X0002170Y-039370D02*
G01X0002170Y-039323D01*
G01X0002170Y-039323D02*
G01X0002218Y-039228D01*
G01X0002218Y-039228D02*
G01X0002266Y-039180D01*
G01X0002266Y-039180D02*
G01X0002361Y-039132D01*
G01X0002361Y-039132D02*
G01X0002551Y-039132D01*
G01X0002551Y-039132D02*
G01X0002647Y-039180D01*
G01X0002647Y-039180D02*
G01X0002694Y-039228D01*
G01X0002694Y-039228D02*
G01X0002742Y-039323D01*
G01X0002742Y-039323D02*
G01X0002742Y-039370D01*
G01X0002742Y-039370D02*
G01X0002694Y-039466D01*
G01X0002694Y-039466D02*
G01X0002647Y-039513D01*
G01X0002647Y-039513D02*
G01X0002551Y-039561D01*
G01X0002551Y-039561D02*
G01X0002361Y-039561D01*
G01X0002361Y-039561D02*
G01X0002266Y-039609D01*
G01X0002266Y-039609D02*
G01X0002218Y-039656D01*
G01X0002218Y-039656D02*
G01X0002170Y-039751D01*
G01X0002170Y-039751D02*
G01X0002170Y-039942D01*
G01X0002170Y-039942D02*
G01X0002218Y-040037D01*
G01X0002218Y-040037D02*
G01X0002266Y-040085D01*
G01X0002266Y-040085D02*
G01X0002361Y-040132D01*
G01X0002361Y-040132D02*
G01X0002551Y-040132D01*
G01X0002551Y-040132D02*
G01X0002647Y-040085D01*
G01X0002647Y-040085D02*
G01X0002694Y-040037D01*
G01X0002694Y-040037D02*
G01X0002742Y-039942D01*
G01X0002742Y-039942D02*
G01X0002742Y-039751D01*
G01X0002742Y-039751D02*
G01X0002694Y-039656D01*
G01X0002694Y-039656D02*
G01X0002647Y-039609D01*
G01X0002647Y-039609D02*
G01X0002551Y-039561D01*
G01X0003170Y-040037D02*
G01X0003218Y-040085D01*
G01X0003218Y-040085D02*
G01X0003170Y-040132D01*
G01X0003170Y-040132D02*
G01X0003123Y-040085D01*
G01X0003123Y-040085D02*
G01X0003170Y-040037D01*
G01X0003170Y-040037D02*
G01X0003170Y-040132D01*
G01X0004742Y-039609D02*
G01X0004409Y-039609D01*
G01X0004409Y-040132D02*
G01X0004409Y-039132D01*
G01X0004409Y-039132D02*
G01X0004885Y-039132D01*
G01X0005266Y-040132D02*
G01X0005266Y-039132D01*
G01X0005742Y-040132D02*
G01X0005742Y-039132D01*
G01X0005742Y-039132D02*
G01X0006313Y-040132D01*
G01X0006313Y-040132D02*
G01X0006313Y-039132D01*
G01X0006790Y-040132D02*
G01X0006790Y-039132D01*
G01X0007218Y-040085D02*
G01X0007361Y-040132D01*
G01X0007361Y-040132D02*
G01X0007599Y-040132D01*
G01X0007599Y-040132D02*
G01X0007694Y-040085D01*
G01X0007694Y-040085D02*
G01X0007742Y-040037D01*
G01X0007742Y-040037D02*
G01X0007790Y-039942D01*
G01X0007790Y-039942D02*
G01X0007790Y-039847D01*
G01X0007790Y-039847D02*
G01X0007742Y-039751D01*
G01X0007742Y-039751D02*
G01X0007694Y-039704D01*
G01X0007694Y-039704D02*
G01X0007599Y-039656D01*
G01X0007599Y-039656D02*
G01X0007409Y-039609D01*
G01X0007409Y-039609D02*
G01X0007313Y-039561D01*
G01X0007313Y-039561D02*
G01X0007266Y-039513D01*
G01X0007266Y-039513D02*
G01X0007218Y-039418D01*
G01X0007218Y-039418D02*
G01X0007218Y-039323D01*
G01X0007218Y-039323D02*
G01X0007266Y-039228D01*
G01X0007266Y-039228D02*
G01X0007313Y-039180D01*
G01X0007313Y-039180D02*
G01X0007409Y-039132D01*
G01X0007409Y-039132D02*
G01X0007647Y-039132D01*
G01X0007647Y-039132D02*
G01X0007790Y-039180D01*
G01X0008218Y-040132D02*
G01X0008218Y-039132D01*
G01X0008218Y-039609D02*
G01X0008790Y-039609D01*
G01X0008790Y-040132D02*
G01X0008790Y-039132D01*
G01X0009266Y-040037D02*
G01X0009313Y-040085D01*
G01X0009313Y-040085D02*
G01X0009266Y-040132D01*
G01X0009266Y-040132D02*
G01X0009218Y-040085D01*
G01X0009218Y-040085D02*
G01X0009266Y-040037D01*
G01X0009266Y-040037D02*
G01X0009266Y-040132D01*
G01X0009266Y-039513D02*
G01X0009313Y-039561D01*
G01X0009313Y-039561D02*
G01X0009266Y-039609D01*
G01X0009266Y-039609D02*
G01X0009218Y-039561D01*
G01X0009218Y-039561D02*
G01X0009266Y-039513D01*
G01X0009266Y-039513D02*
G01X0009266Y-039609D01*
G01X0010504Y-039609D02*
G01X0010837Y-039609D01*
G01X0010980Y-040132D02*
G01X0010504Y-040132D01*
G01X0010504Y-040132D02*
G01X0010504Y-039132D01*
G01X0010504Y-039132D02*
G01X0010980Y-039132D01*
G01X0011409Y-040132D02*
G01X0011409Y-039132D01*
G01X0011409Y-039132D02*
G01X0011980Y-040132D01*
G01X0011980Y-040132D02*
G01X0011980Y-039132D01*
G01X0012456Y-040132D02*
G01X0012456Y-039132D01*
G01X0013456Y-039180D02*
G01X0013361Y-039132D01*
G01X0013361Y-039132D02*
G01X0013218Y-039132D01*
G01X0013218Y-039132D02*
G01X0013075Y-039180D01*
G01X0013075Y-039180D02*
G01X0012980Y-039275D01*
G01X0012980Y-039275D02*
G01X0012932Y-039370D01*
G01X0012932Y-039370D02*
G01X0012885Y-039561D01*
G01X0012885Y-039561D02*
G01X0012885Y-039704D01*
G01X0012885Y-039704D02*
G01X0012932Y-039894D01*
G01X0012932Y-039894D02*
G01X0012980Y-039990D01*
G01X0012980Y-039990D02*
G01X0013075Y-040085D01*
G01X0013075Y-040085D02*
G01X0013218Y-040132D01*
G01X0013218Y-040132D02*
G01X0013313Y-040132D01*
G01X0013313Y-040132D02*
G01X0013456Y-040085D01*
G01X0013456Y-040085D02*
G01X0013504Y-040037D01*
G01X0013504Y-040037D02*
G01X0013504Y-039704D01*
G01X0013504Y-039704D02*
G01X0013313Y-039704D01*
G01X0013932Y-040037D02*
G01X0013980Y-040085D01*
G01X0013980Y-040085D02*
G01X0013932Y-040132D01*
G01X0013932Y-040132D02*
G01X0013885Y-040085D01*
G01X0013885Y-040085D02*
G01X0013932Y-040037D01*
G01X0013932Y-040037D02*
G01X0013932Y-040132D01*
G01X0002266Y-041732D02*
G01X0002456Y-041732D01*
G01X0002456Y-041732D02*
G01X0002551Y-041685D01*
G01X0002551Y-041685D02*
G01X0002599Y-041637D01*
G01X0002599Y-041637D02*
G01X0002694Y-041494D01*
G01X0002694Y-041494D02*
G01X0002742Y-041304D01*
G01X0002742Y-041304D02*
G01X0002742Y-040923D01*
G01X0002742Y-040923D02*
G01X0002694Y-040828D01*
G01X0002694Y-040828D02*
G01X0002647Y-040780D01*
G01X0002647Y-040780D02*
G01X0002551Y-040732D01*
G01X0002551Y-040732D02*
G01X0002361Y-040732D01*
G01X0002361Y-040732D02*
G01X0002266Y-040780D01*
G01X0002266Y-040780D02*
G01X0002218Y-040828D01*
G01X0002218Y-040828D02*
G01X0002170Y-040923D01*
G01X0002170Y-040923D02*
G01X0002170Y-041161D01*
G01X0002170Y-041161D02*
G01X0002218Y-041256D01*
G01X0002218Y-041256D02*
G01X0002266Y-041304D01*
G01X0002266Y-041304D02*
G01X0002361Y-041351D01*
G01X0002361Y-041351D02*
G01X0002551Y-041351D01*
G01X0002551Y-041351D02*
G01X0002647Y-041304D01*
G01X0002647Y-041304D02*
G01X0002694Y-041256D01*
G01X0002694Y-041256D02*
G01X0002742Y-041161D01*
G01X0003170Y-041637D02*
G01X0003218Y-041685D01*
G01X0003218Y-041685D02*
G01X0003170Y-041732D01*
G01X0003170Y-041732D02*
G01X0003123Y-041685D01*
G01X0003123Y-041685D02*
G01X0003170Y-041637D01*
G01X0003170Y-041637D02*
G01X0003170Y-041732D01*
G01X0004409Y-041732D02*
G01X0004409Y-040732D01*
G01X0004409Y-040732D02*
G01X0004742Y-041447D01*
G01X0004742Y-041447D02*
G01X0005075Y-040732D01*
G01X0005075Y-040732D02*
G01X0005075Y-041732D01*
G01X0005551Y-041732D02*
G01X0005551Y-040732D01*
G01X0006028Y-041732D02*
G01X0006028Y-040732D01*
G01X0006028Y-040732D02*
G01X0006599Y-041732D01*
G01X0006599Y-041732D02*
G01X0006599Y-040732D01*
G01X0007075Y-041732D02*
G01X0007075Y-040732D01*
G01X0007551Y-041732D02*
G01X0007551Y-040732D01*
G01X0007551Y-040732D02*
G01X0007885Y-041447D01*
G01X0007885Y-041447D02*
G01X0008218Y-040732D01*
G01X0008218Y-040732D02*
G01X0008218Y-041732D01*
G01X0008694Y-040732D02*
G01X0008694Y-041542D01*
G01X0008694Y-041542D02*
G01X0008742Y-041637D01*
G01X0008742Y-041637D02*
G01X0008790Y-041685D01*
G01X0008790Y-041685D02*
G01X0008885Y-041732D01*
G01X0008885Y-041732D02*
G01X0009075Y-041732D01*
G01X0009075Y-041732D02*
G01X0009170Y-041685D01*
G01X0009170Y-041685D02*
G01X0009218Y-041637D01*
G01X0009218Y-041637D02*
G01X0009266Y-041542D01*
G01X0009266Y-041542D02*
G01X0009266Y-040732D01*
G01X0009742Y-041732D02*
G01X0009742Y-040732D01*
G01X0009742Y-040732D02*
G01X0010075Y-041447D01*
G01X0010075Y-041447D02*
G01X0010409Y-040732D01*
G01X0010409Y-040732D02*
G01X0010409Y-041732D01*
G01X0011504Y-040732D02*
G01X0012075Y-040732D01*
G01X0011790Y-041732D02*
G01X0011790Y-040732D01*
G01X0012980Y-041732D02*
G01X0012647Y-041256D01*
G01X0012409Y-041732D02*
G01X0012409Y-040732D01*
G01X0012409Y-040732D02*
G01X0012790Y-040732D01*
G01X0012790Y-040732D02*
G01X0012885Y-040780D01*
G01X0012885Y-040780D02*
G01X0012932Y-040828D01*
G01X0012932Y-040828D02*
G01X0012980Y-040923D01*
G01X0012980Y-040923D02*
G01X0012980Y-041066D01*
G01X0012980Y-041066D02*
G01X0012932Y-041161D01*
G01X0012932Y-041161D02*
G01X0012885Y-041209D01*
G01X0012885Y-041209D02*
G01X0012790Y-041256D01*
G01X0012790Y-041256D02*
G01X0012409Y-041256D01*
G01X0013361Y-041447D02*
G01X0013837Y-041447D01*
G01X0013266Y-041732D02*
G01X0013599Y-040732D01*
G01X0013599Y-040732D02*
G01X0013932Y-041732D01*
G01X0014837Y-041637D02*
G01X0014790Y-041685D01*
G01X0014790Y-041685D02*
G01X0014647Y-041732D01*
G01X0014647Y-041732D02*
G01X0014551Y-041732D01*
G01X0014551Y-041732D02*
G01X0014409Y-041685D01*
G01X0014409Y-041685D02*
G01X0014313Y-041590D01*
G01X0014313Y-041590D02*
G01X0014266Y-041494D01*
G01X0014266Y-041494D02*
G01X0014218Y-041304D01*
G01X0014218Y-041304D02*
G01X0014218Y-041161D01*
G01X0014218Y-041161D02*
G01X0014266Y-040970D01*
G01X0014266Y-040970D02*
G01X0014313Y-040875D01*
G01X0014313Y-040875D02*
G01X0014409Y-040780D01*
G01X0014409Y-040780D02*
G01X0014551Y-040732D01*
G01X0014551Y-040732D02*
G01X0014647Y-040732D01*
G01X0014647Y-040732D02*
G01X0014790Y-040780D01*
G01X0014790Y-040780D02*
G01X0014837Y-040828D01*
G01X0015266Y-041209D02*
G01X0015599Y-041209D01*
G01X0015742Y-041732D02*
G01X0015266Y-041732D01*
G01X0015266Y-041732D02*
G01X0015266Y-040732D01*
G01X0015266Y-040732D02*
G01X0015742Y-040732D01*
G01X0016837Y-040732D02*
G01X0017075Y-041732D01*
G01X0017075Y-041732D02*
G01X0017266Y-041018D01*
G01X0017266Y-041018D02*
G01X0017456Y-041732D01*
G01X0017456Y-041732D02*
G01X0017694Y-040732D01*
G01X0018075Y-041732D02*
G01X0018075Y-040732D01*
G01X0018551Y-041732D02*
G01X0018551Y-040732D01*
G01X0018551Y-040732D02*
G01X0018790Y-040732D01*
G01X0018790Y-040732D02*
G01X0018932Y-040780D01*
G01X0018932Y-040780D02*
G01X0019028Y-040875D01*
G01X0019028Y-040875D02*
G01X0019075Y-040970D01*
G01X0019075Y-040970D02*
G01X0019123Y-041161D01*
G01X0019123Y-041161D02*
G01X0019123Y-041304D01*
G01X0019123Y-041304D02*
G01X0019075Y-041494D01*
G01X0019075Y-041494D02*
G01X0019028Y-041590D01*
G01X0019028Y-041590D02*
G01X0018932Y-041685D01*
G01X0018932Y-041685D02*
G01X0018790Y-041732D01*
G01X0018790Y-041732D02*
G01X0018551Y-041732D01*
G01X0019409Y-040732D02*
G01X0019980Y-040732D01*
G01X0019694Y-041732D02*
G01X0019694Y-040732D01*
G01X0020313Y-041732D02*
G01X0020313Y-040732D01*
G01X0020313Y-041209D02*
G01X0020885Y-041209D01*
G01X0020885Y-041732D02*
G01X0020885Y-040732D01*
G01X0022123Y-041351D02*
G01X0022885Y-041351D01*
G01X0024313Y-040732D02*
G01X0024409Y-040732D01*
G01X0024409Y-040732D02*
G01X0024504Y-040780D01*
G01X0024504Y-040780D02*
G01X0024551Y-040828D01*
G01X0024551Y-040828D02*
G01X0024599Y-040923D01*
G01X0024599Y-040923D02*
G01X0024647Y-041113D01*
G01X0024647Y-041113D02*
G01X0024647Y-041351D01*
G01X0024647Y-041351D02*
G01X0024599Y-041542D01*
G01X0024599Y-041542D02*
G01X0024551Y-041637D01*
G01X0024551Y-041637D02*
G01X0024504Y-041685D01*
G01X0024504Y-041685D02*
G01X0024409Y-041732D01*
G01X0024409Y-041732D02*
G01X0024313Y-041732D01*
G01X0024313Y-041732D02*
G01X0024218Y-041685D01*
G01X0024218Y-041685D02*
G01X0024170Y-041637D01*
G01X0024170Y-041637D02*
G01X0024123Y-041542D01*
G01X0024123Y-041542D02*
G01X0024075Y-041351D01*
G01X0024075Y-041351D02*
G01X0024075Y-041113D01*
G01X0024075Y-041113D02*
G01X0024123Y-040923D01*
G01X0024123Y-040923D02*
G01X0024170Y-040828D01*
G01X0024170Y-040828D02*
G01X0024218Y-040780D01*
G01X0024218Y-040780D02*
G01X0024313Y-040732D01*
G01X0025075Y-041637D02*
G01X0025123Y-041685D01*
G01X0025123Y-041685D02*
G01X0025075Y-041732D01*
G01X0025075Y-041732D02*
G01X0025028Y-041685D01*
G01X0025028Y-041685D02*
G01X0025075Y-041637D01*
G01X0025075Y-041637D02*
G01X0025075Y-041732D01*
G01X0025742Y-040732D02*
G01X0025837Y-040732D01*
G01X0025837Y-040732D02*
G01X0025932Y-040780D01*
G01X0025932Y-040780D02*
G01X0025980Y-040828D01*
G01X0025980Y-040828D02*
G01X0026028Y-040923D01*
G01X0026028Y-040923D02*
G01X0026075Y-041113D01*
G01X0026075Y-041113D02*
G01X0026075Y-041351D01*
G01X0026075Y-041351D02*
G01X0026028Y-041542D01*
G01X0026028Y-041542D02*
G01X0025980Y-041637D01*
G01X0025980Y-041637D02*
G01X0025932Y-041685D01*
G01X0025932Y-041685D02*
G01X0025837Y-041732D01*
G01X0025837Y-041732D02*
G01X0025742Y-041732D01*
G01X0025742Y-041732D02*
G01X0025647Y-041685D01*
G01X0025647Y-041685D02*
G01X0025599Y-041637D01*
G01X0025599Y-041637D02*
G01X0025551Y-041542D01*
G01X0025551Y-041542D02*
G01X0025504Y-041351D01*
G01X0025504Y-041351D02*
G01X0025504Y-041113D01*
G01X0025504Y-041113D02*
G01X0025551Y-040923D01*
G01X0025551Y-040923D02*
G01X0025599Y-040828D01*
G01X0025599Y-040828D02*
G01X0025647Y-040780D01*
G01X0025647Y-040780D02*
G01X0025742Y-040732D01*
G01X0026694Y-040732D02*
G01X0026790Y-040732D01*
G01X0026790Y-040732D02*
G01X0026885Y-040780D01*
G01X0026885Y-040780D02*
G01X0026932Y-040828D01*
G01X0026932Y-040828D02*
G01X0026980Y-040923D01*
G01X0026980Y-040923D02*
G01X0027028Y-041113D01*
G01X0027028Y-041113D02*
G01X0027028Y-041351D01*
G01X0027028Y-041351D02*
G01X0026980Y-041542D01*
G01X0026980Y-041542D02*
G01X0026932Y-041637D01*
G01X0026932Y-041637D02*
G01X0026885Y-041685D01*
G01X0026885Y-041685D02*
G01X0026790Y-041732D01*
G01X0026790Y-041732D02*
G01X0026694Y-041732D01*
G01X0026694Y-041732D02*
G01X0026599Y-041685D01*
G01X0026599Y-041685D02*
G01X0026551Y-041637D01*
G01X0026551Y-041637D02*
G01X0026504Y-041542D01*
G01X0026504Y-041542D02*
G01X0026456Y-041351D01*
G01X0026456Y-041351D02*
G01X0026456Y-041113D01*
G01X0026456Y-041113D02*
G01X0026504Y-040923D01*
G01X0026504Y-040923D02*
G01X0026551Y-040828D01*
G01X0026551Y-040828D02*
G01X0026599Y-040780D01*
G01X0026599Y-040780D02*
G01X0026694Y-040732D01*
G01X0027885Y-040732D02*
G01X0027694Y-040732D01*
G01X0027694Y-040732D02*
G01X0027599Y-040780D01*
G01X0027599Y-040780D02*
G01X0027551Y-040828D01*
G01X0027551Y-040828D02*
G01X0027456Y-040970D01*
G01X0027456Y-040970D02*
G01X0027409Y-041161D01*
G01X0027409Y-041161D02*
G01X0027409Y-041542D01*
G01X0027409Y-041542D02*
G01X0027456Y-041637D01*
G01X0027456Y-041637D02*
G01X0027504Y-041685D01*
G01X0027504Y-041685D02*
G01X0027599Y-041732D01*
G01X0027599Y-041732D02*
G01X0027790Y-041732D01*
G01X0027790Y-041732D02*
G01X0027885Y-041685D01*
G01X0027885Y-041685D02*
G01X0027932Y-041637D01*
G01X0027932Y-041637D02*
G01X0027980Y-041542D01*
G01X0027980Y-041542D02*
G01X0027980Y-041304D01*
G01X0027980Y-041304D02*
G01X0027932Y-041209D01*
G01X0027932Y-041209D02*
G01X0027885Y-041161D01*
G01X0027885Y-041161D02*
G01X0027790Y-041113D01*
G01X0027790Y-041113D02*
G01X0027599Y-041113D01*
G01X0027599Y-041113D02*
G01X0027504Y-041161D01*
G01X0027504Y-041161D02*
G01X0027456Y-041209D01*
G01X0027456Y-041209D02*
G01X0027409Y-041304D01*
G01X0029170Y-041732D02*
G01X0029170Y-040732D01*
G01X0029647Y-041732D02*
G01X0029647Y-040732D01*
G01X0029647Y-040732D02*
G01X0030218Y-041732D01*
G01X0030218Y-041732D02*
G01X0030218Y-040732D01*
G01X0031266Y-041637D02*
G01X0031218Y-041685D01*
G01X0031218Y-041685D02*
G01X0031075Y-041732D01*
G01X0031075Y-041732D02*
G01X0030980Y-041732D01*
G01X0030980Y-041732D02*
G01X0030837Y-041685D01*
G01X0030837Y-041685D02*
G01X0030742Y-041590D01*
G01X0030742Y-041590D02*
G01X0030694Y-041494D01*
G01X0030694Y-041494D02*
G01X0030647Y-041304D01*
G01X0030647Y-041304D02*
G01X0030647Y-041161D01*
G01X0030647Y-041161D02*
G01X0030694Y-040970D01*
G01X0030694Y-040970D02*
G01X0030742Y-040875D01*
G01X0030742Y-040875D02*
G01X0030837Y-040780D01*
G01X0030837Y-040780D02*
G01X0030980Y-040732D01*
G01X0030980Y-040732D02*
G01X0031075Y-040732D01*
G01X0031075Y-040732D02*
G01X0031218Y-040780D01*
G01X0031218Y-040780D02*
G01X0031266Y-040828D01*
G01X0031694Y-041732D02*
G01X0031694Y-040732D01*
G01X0031694Y-041209D02*
G01X0032266Y-041209D01*
G01X0032266Y-041732D02*
G01X0032266Y-040732D01*
G01X0032742Y-041637D02*
G01X0032790Y-041685D01*
G01X0032790Y-041685D02*
G01X0032742Y-041732D01*
G01X0032742Y-041732D02*
G01X0032694Y-041685D01*
G01X0032694Y-041685D02*
G01X0032742Y-041637D01*
G01X0032742Y-041637D02*
G01X0032742Y-041732D01*
G01X0004504Y-043332D02*
G01X0004504Y-042332D01*
G01X0004504Y-042332D02*
G01X0004837Y-043047D01*
G01X0004837Y-043047D02*
G01X0005170Y-042332D01*
G01X0005170Y-042332D02*
G01X0005170Y-043332D01*
G01X0005647Y-043332D02*
G01X0005647Y-042332D01*
G01X0006123Y-043332D02*
G01X0006123Y-042332D01*
G01X0006123Y-042332D02*
G01X0006694Y-043332D01*
G01X0006694Y-043332D02*
G01X0006694Y-042332D01*
G01X0007170Y-043332D02*
G01X0007170Y-042332D01*
G01X0007647Y-043332D02*
G01X0007647Y-042332D01*
G01X0007647Y-042332D02*
G01X0007980Y-043047D01*
G01X0007980Y-043047D02*
G01X0008313Y-042332D01*
G01X0008313Y-042332D02*
G01X0008313Y-043332D01*
G01X0008790Y-042332D02*
G01X0008790Y-043142D01*
G01X0008790Y-043142D02*
G01X0008837Y-043237D01*
G01X0008837Y-043237D02*
G01X0008885Y-043285D01*
G01X0008885Y-043285D02*
G01X0008980Y-043332D01*
G01X0008980Y-043332D02*
G01X0009170Y-043332D01*
G01X0009170Y-043332D02*
G01X0009266Y-043285D01*
G01X0009266Y-043285D02*
G01X0009313Y-043237D01*
G01X0009313Y-043237D02*
G01X0009361Y-043142D01*
G01X0009361Y-043142D02*
G01X0009361Y-042332D01*
G01X0009837Y-043332D02*
G01X0009837Y-042332D01*
G01X0009837Y-042332D02*
G01X0010170Y-043047D01*
G01X0010170Y-043047D02*
G01X0010504Y-042332D01*
G01X0010504Y-042332D02*
G01X0010504Y-043332D01*
G01X0011694Y-043285D02*
G01X0011837Y-043332D01*
G01X0011837Y-043332D02*
G01X0012075Y-043332D01*
G01X0012075Y-043332D02*
G01X0012170Y-043285D01*
G01X0012170Y-043285D02*
G01X0012218Y-043237D01*
G01X0012218Y-043237D02*
G01X0012266Y-043142D01*
G01X0012266Y-043142D02*
G01X0012266Y-043047D01*
G01X0012266Y-043047D02*
G01X0012218Y-042951D01*
G01X0012218Y-042951D02*
G01X0012170Y-042904D01*
G01X0012170Y-042904D02*
G01X0012075Y-042856D01*
G01X0012075Y-042856D02*
G01X0011885Y-042809D01*
G01X0011885Y-042809D02*
G01X0011790Y-042761D01*
G01X0011790Y-042761D02*
G01X0011742Y-042713D01*
G01X0011742Y-042713D02*
G01X0011694Y-042618D01*
G01X0011694Y-042618D02*
G01X0011694Y-042523D01*
G01X0011694Y-042523D02*
G01X0011742Y-042428D01*
G01X0011742Y-042428D02*
G01X0011790Y-042380D01*
G01X0011790Y-042380D02*
G01X0011885Y-042332D01*
G01X0011885Y-042332D02*
G01X0012123Y-042332D01*
G01X0012123Y-042332D02*
G01X0012266Y-042380D01*
G01X0012694Y-043332D02*
G01X0012694Y-042332D01*
G01X0012694Y-042332D02*
G01X0013075Y-042332D01*
G01X0013075Y-042332D02*
G01X0013170Y-042380D01*
G01X0013170Y-042380D02*
G01X0013218Y-042428D01*
G01X0013218Y-042428D02*
G01X0013266Y-042523D01*
G01X0013266Y-042523D02*
G01X0013266Y-042666D01*
G01X0013266Y-042666D02*
G01X0013218Y-042761D01*
G01X0013218Y-042761D02*
G01X0013170Y-042809D01*
G01X0013170Y-042809D02*
G01X0013075Y-042856D01*
G01X0013075Y-042856D02*
G01X0012694Y-042856D01*
G01X0013647Y-043047D02*
G01X0014123Y-043047D01*
G01X0013551Y-043332D02*
G01X0013885Y-042332D01*
G01X0013885Y-042332D02*
G01X0014218Y-043332D01*
G01X0015123Y-043237D02*
G01X0015075Y-043285D01*
G01X0015075Y-043285D02*
G01X0014932Y-043332D01*
G01X0014932Y-043332D02*
G01X0014837Y-043332D01*
G01X0014837Y-043332D02*
G01X0014694Y-043285D01*
G01X0014694Y-043285D02*
G01X0014599Y-043190D01*
G01X0014599Y-043190D02*
G01X0014551Y-043094D01*
G01X0014551Y-043094D02*
G01X0014504Y-042904D01*
G01X0014504Y-042904D02*
G01X0014504Y-042761D01*
G01X0014504Y-042761D02*
G01X0014551Y-042570D01*
G01X0014551Y-042570D02*
G01X0014599Y-042475D01*
G01X0014599Y-042475D02*
G01X0014694Y-042380D01*
G01X0014694Y-042380D02*
G01X0014837Y-042332D01*
G01X0014837Y-042332D02*
G01X0014932Y-042332D01*
G01X0014932Y-042332D02*
G01X0015075Y-042380D01*
G01X0015075Y-042380D02*
G01X0015123Y-042428D01*
G01X0015551Y-042809D02*
G01X0015885Y-042809D01*
G01X0016028Y-043332D02*
G01X0015551Y-043332D01*
G01X0015551Y-043332D02*
G01X0015551Y-042332D01*
G01X0015551Y-042332D02*
G01X0016028Y-042332D01*
G01X0017218Y-042951D02*
G01X0017980Y-042951D01*
G01X0019409Y-042332D02*
G01X0019504Y-042332D01*
G01X0019504Y-042332D02*
G01X0019599Y-042380D01*
G01X0019599Y-042380D02*
G01X0019647Y-042428D01*
G01X0019647Y-042428D02*
G01X0019694Y-042523D01*
G01X0019694Y-042523D02*
G01X0019742Y-042713D01*
G01X0019742Y-042713D02*
G01X0019742Y-042951D01*
G01X0019742Y-042951D02*
G01X0019694Y-043142D01*
G01X0019694Y-043142D02*
G01X0019647Y-043237D01*
G01X0019647Y-043237D02*
G01X0019599Y-043285D01*
G01X0019599Y-043285D02*
G01X0019504Y-043332D01*
G01X0019504Y-043332D02*
G01X0019409Y-043332D01*
G01X0019409Y-043332D02*
G01X0019313Y-043285D01*
G01X0019313Y-043285D02*
G01X0019266Y-043237D01*
G01X0019266Y-043237D02*
G01X0019218Y-043142D01*
G01X0019218Y-043142D02*
G01X0019170Y-042951D01*
G01X0019170Y-042951D02*
G01X0019170Y-042713D01*
G01X0019170Y-042713D02*
G01X0019218Y-042523D01*
G01X0019218Y-042523D02*
G01X0019266Y-042428D01*
G01X0019266Y-042428D02*
G01X0019313Y-042380D01*
G01X0019313Y-042380D02*
G01X0019409Y-042332D01*
G01X0020170Y-043237D02*
G01X0020218Y-043285D01*
G01X0020218Y-043285D02*
G01X0020170Y-043332D01*
G01X0020170Y-043332D02*
G01X0020123Y-043285D01*
G01X0020123Y-043285D02*
G01X0020170Y-043237D01*
G01X0020170Y-043237D02*
G01X0020170Y-043332D01*
G01X0020837Y-042332D02*
G01X0020932Y-042332D01*
G01X0020932Y-042332D02*
G01X0021028Y-042380D01*
G01X0021028Y-042380D02*
G01X0021075Y-042428D01*
G01X0021075Y-042428D02*
G01X0021123Y-042523D01*
G01X0021123Y-042523D02*
G01X0021170Y-042713D01*
G01X0021170Y-042713D02*
G01X0021170Y-042951D01*
G01X0021170Y-042951D02*
G01X0021123Y-043142D01*
G01X0021123Y-043142D02*
G01X0021075Y-043237D01*
G01X0021075Y-043237D02*
G01X0021028Y-043285D01*
G01X0021028Y-043285D02*
G01X0020932Y-043332D01*
G01X0020932Y-043332D02*
G01X0020837Y-043332D01*
G01X0020837Y-043332D02*
G01X0020742Y-043285D01*
G01X0020742Y-043285D02*
G01X0020694Y-043237D01*
G01X0020694Y-043237D02*
G01X0020647Y-043142D01*
G01X0020647Y-043142D02*
G01X0020599Y-042951D01*
G01X0020599Y-042951D02*
G01X0020599Y-042713D01*
G01X0020599Y-042713D02*
G01X0020647Y-042523D01*
G01X0020647Y-042523D02*
G01X0020694Y-042428D01*
G01X0020694Y-042428D02*
G01X0020742Y-042380D01*
G01X0020742Y-042380D02*
G01X0020837Y-042332D01*
G01X0021790Y-042332D02*
G01X0021885Y-042332D01*
G01X0021885Y-042332D02*
G01X0021980Y-042380D01*
G01X0021980Y-042380D02*
G01X0022028Y-042428D01*
G01X0022028Y-042428D02*
G01X0022075Y-042523D01*
G01X0022075Y-042523D02*
G01X0022123Y-042713D01*
G01X0022123Y-042713D02*
G01X0022123Y-042951D01*
G01X0022123Y-042951D02*
G01X0022075Y-043142D01*
G01X0022075Y-043142D02*
G01X0022028Y-043237D01*
G01X0022028Y-043237D02*
G01X0021980Y-043285D01*
G01X0021980Y-043285D02*
G01X0021885Y-043332D01*
G01X0021885Y-043332D02*
G01X0021790Y-043332D01*
G01X0021790Y-043332D02*
G01X0021694Y-043285D01*
G01X0021694Y-043285D02*
G01X0021647Y-043237D01*
G01X0021647Y-043237D02*
G01X0021599Y-043142D01*
G01X0021599Y-043142D02*
G01X0021551Y-042951D01*
G01X0021551Y-042951D02*
G01X0021551Y-042713D01*
G01X0021551Y-042713D02*
G01X0021599Y-042523D01*
G01X0021599Y-042523D02*
G01X0021647Y-042428D01*
G01X0021647Y-042428D02*
G01X0021694Y-042380D01*
G01X0021694Y-042380D02*
G01X0021790Y-042332D01*
G01X0022980Y-042332D02*
G01X0022790Y-042332D01*
G01X0022790Y-042332D02*
G01X0022694Y-042380D01*
G01X0022694Y-042380D02*
G01X0022647Y-042428D01*
G01X0022647Y-042428D02*
G01X0022551Y-042570D01*
G01X0022551Y-042570D02*
G01X0022504Y-042761D01*
G01X0022504Y-042761D02*
G01X0022504Y-043142D01*
G01X0022504Y-043142D02*
G01X0022551Y-043237D01*
G01X0022551Y-043237D02*
G01X0022599Y-043285D01*
G01X0022599Y-043285D02*
G01X0022694Y-043332D01*
G01X0022694Y-043332D02*
G01X0022885Y-043332D01*
G01X0022885Y-043332D02*
G01X0022980Y-043285D01*
G01X0022980Y-043285D02*
G01X0023028Y-043237D01*
G01X0023028Y-043237D02*
G01X0023075Y-043142D01*
G01X0023075Y-043142D02*
G01X0023075Y-042904D01*
G01X0023075Y-042904D02*
G01X0023028Y-042809D01*
G01X0023028Y-042809D02*
G01X0022980Y-042761D01*
G01X0022980Y-042761D02*
G01X0022885Y-042713D01*
G01X0022885Y-042713D02*
G01X0022694Y-042713D01*
G01X0022694Y-042713D02*
G01X0022599Y-042761D01*
G01X0022599Y-042761D02*
G01X0022551Y-042809D01*
G01X0022551Y-042809D02*
G01X0022504Y-042904D01*
G01X0024266Y-043332D02*
G01X0024266Y-042332D01*
G01X0024742Y-043332D02*
G01X0024742Y-042332D01*
G01X0024742Y-042332D02*
G01X0025313Y-043332D01*
G01X0025313Y-043332D02*
G01X0025313Y-042332D01*
G01X0026361Y-043237D02*
G01X0026313Y-043285D01*
G01X0026313Y-043285D02*
G01X0026170Y-043332D01*
G01X0026170Y-043332D02*
G01X0026075Y-043332D01*
G01X0026075Y-043332D02*
G01X0025932Y-043285D01*
G01X0025932Y-043285D02*
G01X0025837Y-043190D01*
G01X0025837Y-043190D02*
G01X0025790Y-043094D01*
G01X0025790Y-043094D02*
G01X0025742Y-042904D01*
G01X0025742Y-042904D02*
G01X0025742Y-042761D01*
G01X0025742Y-042761D02*
G01X0025790Y-042570D01*
G01X0025790Y-042570D02*
G01X0025837Y-042475D01*
G01X0025837Y-042475D02*
G01X0025932Y-042380D01*
G01X0025932Y-042380D02*
G01X0026075Y-042332D01*
G01X0026075Y-042332D02*
G01X0026170Y-042332D01*
G01X0026170Y-042332D02*
G01X0026313Y-042380D01*
G01X0026313Y-042380D02*
G01X0026361Y-042428D01*
G01X0026790Y-043332D02*
G01X0026790Y-042332D01*
G01X0026790Y-042809D02*
G01X0027361Y-042809D01*
G01X0027361Y-043332D02*
G01X0027361Y-042332D01*
G01X0027837Y-043237D02*
G01X0027885Y-043285D01*
G01X0027885Y-043285D02*
G01X0027837Y-043332D01*
G01X0027837Y-043332D02*
G01X0027790Y-043285D01*
G01X0027790Y-043285D02*
G01X0027837Y-043237D01*
G01X0027837Y-043237D02*
G01X0027837Y-043332D01*
G01X0004504Y-044932D02*
G01X0004504Y-043932D01*
G01X0004504Y-043932D02*
G01X0004837Y-044647D01*
G01X0004837Y-044647D02*
G01X0005170Y-043932D01*
G01X0005170Y-043932D02*
G01X0005170Y-044932D01*
G01X0005647Y-044932D02*
G01X0005647Y-043932D01*
G01X0006123Y-044932D02*
G01X0006123Y-043932D01*
G01X0006123Y-043932D02*
G01X0006694Y-044932D01*
G01X0006694Y-044932D02*
G01X0006694Y-043932D01*
G01X0007170Y-044932D02*
G01X0007170Y-043932D01*
G01X0007647Y-044932D02*
G01X0007647Y-043932D01*
G01X0007647Y-043932D02*
G01X0007980Y-044647D01*
G01X0007980Y-044647D02*
G01X0008313Y-043932D01*
G01X0008313Y-043932D02*
G01X0008313Y-044932D01*
G01X0008790Y-043932D02*
G01X0008790Y-044742D01*
G01X0008790Y-044742D02*
G01X0008837Y-044837D01*
G01X0008837Y-044837D02*
G01X0008885Y-044885D01*
G01X0008885Y-044885D02*
G01X0008980Y-044932D01*
G01X0008980Y-044932D02*
G01X0009170Y-044932D01*
G01X0009170Y-044932D02*
G01X0009266Y-044885D01*
G01X0009266Y-044885D02*
G01X0009313Y-044837D01*
G01X0009313Y-044837D02*
G01X0009361Y-044742D01*
G01X0009361Y-044742D02*
G01X0009361Y-043932D01*
G01X0009837Y-044932D02*
G01X0009837Y-043932D01*
G01X0009837Y-043932D02*
G01X0010170Y-044647D01*
G01X0010170Y-044647D02*
G01X0010504Y-043932D01*
G01X0010504Y-043932D02*
G01X0010504Y-044932D01*
G01X0011742Y-044932D02*
G01X0011742Y-043932D01*
G01X0011742Y-044409D02*
G01X0012313Y-044409D01*
G01X0012313Y-044932D02*
G01X0012313Y-043932D01*
G01X0012980Y-043932D02*
G01X0013170Y-043932D01*
G01X0013170Y-043932D02*
G01X0013266Y-043980D01*
G01X0013266Y-043980D02*
G01X0013361Y-044075D01*
G01X0013361Y-044075D02*
G01X0013409Y-044266D01*
G01X0013409Y-044266D02*
G01X0013409Y-044599D01*
G01X0013409Y-044599D02*
G01X0013361Y-044790D01*
G01X0013361Y-044790D02*
G01X0013266Y-044885D01*
G01X0013266Y-044885D02*
G01X0013170Y-044932D01*
G01X0013170Y-044932D02*
G01X0012980Y-044932D01*
G01X0012980Y-044932D02*
G01X0012885Y-044885D01*
G01X0012885Y-044885D02*
G01X0012790Y-044790D01*
G01X0012790Y-044790D02*
G01X0012742Y-044599D01*
G01X0012742Y-044599D02*
G01X0012742Y-044266D01*
G01X0012742Y-044266D02*
G01X0012790Y-044075D01*
G01X0012790Y-044075D02*
G01X0012885Y-043980D01*
G01X0012885Y-043980D02*
G01X0012980Y-043932D01*
G01X0014313Y-044932D02*
G01X0013837Y-044932D01*
G01X0013837Y-044932D02*
G01X0013837Y-043932D01*
G01X0014647Y-044409D02*
G01X0014980Y-044409D01*
G01X0015123Y-044932D02*
G01X0014647Y-044932D01*
G01X0014647Y-044932D02*
G01X0014647Y-043932D01*
G01X0014647Y-043932D02*
G01X0015123Y-043932D01*
G01X0016313Y-044932D02*
G01X0016313Y-043932D01*
G01X0016313Y-043932D02*
G01X0016551Y-043932D01*
G01X0016551Y-043932D02*
G01X0016694Y-043980D01*
G01X0016694Y-043980D02*
G01X0016790Y-044075D01*
G01X0016790Y-044075D02*
G01X0016837Y-044170D01*
G01X0016837Y-044170D02*
G01X0016885Y-044361D01*
G01X0016885Y-044361D02*
G01X0016885Y-044504D01*
G01X0016885Y-044504D02*
G01X0016837Y-044694D01*
G01X0016837Y-044694D02*
G01X0016790Y-044790D01*
G01X0016790Y-044790D02*
G01X0016694Y-044885D01*
G01X0016694Y-044885D02*
G01X0016551Y-044932D01*
G01X0016551Y-044932D02*
G01X0016313Y-044932D01*
G01X0017313Y-044932D02*
G01X0017313Y-043932D01*
G01X0017742Y-044647D02*
G01X0018218Y-044647D01*
G01X0017647Y-044932D02*
G01X0017980Y-043932D01*
G01X0017980Y-043932D02*
G01X0018313Y-044932D01*
G01X0019409Y-044551D02*
G01X0020170Y-044551D01*
G01X0021599Y-043932D02*
G01X0021694Y-043932D01*
G01X0021694Y-043932D02*
G01X0021790Y-043980D01*
G01X0021790Y-043980D02*
G01X0021837Y-044028D01*
G01X0021837Y-044028D02*
G01X0021885Y-044123D01*
G01X0021885Y-044123D02*
G01X0021932Y-044313D01*
G01X0021932Y-044313D02*
G01X0021932Y-044551D01*
G01X0021932Y-044551D02*
G01X0021885Y-044742D01*
G01X0021885Y-044742D02*
G01X0021837Y-044837D01*
G01X0021837Y-044837D02*
G01X0021790Y-044885D01*
G01X0021790Y-044885D02*
G01X0021694Y-044932D01*
G01X0021694Y-044932D02*
G01X0021599Y-044932D01*
G01X0021599Y-044932D02*
G01X0021504Y-044885D01*
G01X0021504Y-044885D02*
G01X0021456Y-044837D01*
G01X0021456Y-044837D02*
G01X0021409Y-044742D01*
G01X0021409Y-044742D02*
G01X0021361Y-044551D01*
G01X0021361Y-044551D02*
G01X0021361Y-044313D01*
G01X0021361Y-044313D02*
G01X0021409Y-044123D01*
G01X0021409Y-044123D02*
G01X0021456Y-044028D01*
G01X0021456Y-044028D02*
G01X0021504Y-043980D01*
G01X0021504Y-043980D02*
G01X0021599Y-043932D01*
G01X0022361Y-044837D02*
G01X0022409Y-044885D01*
G01X0022409Y-044885D02*
G01X0022361Y-044932D01*
G01X0022361Y-044932D02*
G01X0022313Y-044885D01*
G01X0022313Y-044885D02*
G01X0022361Y-044837D01*
G01X0022361Y-044837D02*
G01X0022361Y-044932D01*
G01X0023028Y-043932D02*
G01X0023123Y-043932D01*
G01X0023123Y-043932D02*
G01X0023218Y-043980D01*
G01X0023218Y-043980D02*
G01X0023266Y-044028D01*
G01X0023266Y-044028D02*
G01X0023313Y-044123D01*
G01X0023313Y-044123D02*
G01X0023361Y-044313D01*
G01X0023361Y-044313D02*
G01X0023361Y-044551D01*
G01X0023361Y-044551D02*
G01X0023313Y-044742D01*
G01X0023313Y-044742D02*
G01X0023266Y-044837D01*
G01X0023266Y-044837D02*
G01X0023218Y-044885D01*
G01X0023218Y-044885D02*
G01X0023123Y-044932D01*
G01X0023123Y-044932D02*
G01X0023028Y-044932D01*
G01X0023028Y-044932D02*
G01X0022932Y-044885D01*
G01X0022932Y-044885D02*
G01X0022885Y-044837D01*
G01X0022885Y-044837D02*
G01X0022837Y-044742D01*
G01X0022837Y-044742D02*
G01X0022790Y-044551D01*
G01X0022790Y-044551D02*
G01X0022790Y-044313D01*
G01X0022790Y-044313D02*
G01X0022837Y-044123D01*
G01X0022837Y-044123D02*
G01X0022885Y-044028D01*
G01X0022885Y-044028D02*
G01X0022932Y-043980D01*
G01X0022932Y-043980D02*
G01X0023028Y-043932D01*
G01X0024313Y-044932D02*
G01X0023742Y-044932D01*
G01X0024028Y-044932D02*
G01X0024028Y-043932D01*
G01X0024028Y-043932D02*
G01X0023932Y-044075D01*
G01X0023932Y-044075D02*
G01X0023837Y-044170D01*
G01X0023837Y-044170D02*
G01X0023742Y-044218D01*
G01X0024647Y-043932D02*
G01X0025266Y-043932D01*
G01X0025266Y-043932D02*
G01X0024932Y-044313D01*
G01X0024932Y-044313D02*
G01X0025075Y-044313D01*
G01X0025075Y-044313D02*
G01X0025170Y-044361D01*
G01X0025170Y-044361D02*
G01X0025218Y-044409D01*
G01X0025218Y-044409D02*
G01X0025266Y-044504D01*
G01X0025266Y-044504D02*
G01X0025266Y-044742D01*
G01X0025266Y-044742D02*
G01X0025218Y-044837D01*
G01X0025218Y-044837D02*
G01X0025170Y-044885D01*
G01X0025170Y-044885D02*
G01X0025075Y-044932D01*
G01X0025075Y-044932D02*
G01X0024790Y-044932D01*
G01X0024790Y-044932D02*
G01X0024694Y-044885D01*
G01X0024694Y-044885D02*
G01X0024647Y-044837D01*
G01X0026456Y-044932D02*
G01X0026456Y-043932D01*
G01X0026932Y-044932D02*
G01X0026932Y-043932D01*
G01X0026932Y-043932D02*
G01X0027504Y-044932D01*
G01X0027504Y-044932D02*
G01X0027504Y-043932D01*
G01X0028551Y-044837D02*
G01X0028504Y-044885D01*
G01X0028504Y-044885D02*
G01X0028361Y-044932D01*
G01X0028361Y-044932D02*
G01X0028266Y-044932D01*
G01X0028266Y-044932D02*
G01X0028123Y-044885D01*
G01X0028123Y-044885D02*
G01X0028028Y-044790D01*
G01X0028028Y-044790D02*
G01X0027980Y-044694D01*
G01X0027980Y-044694D02*
G01X0027932Y-044504D01*
G01X0027932Y-044504D02*
G01X0027932Y-044361D01*
G01X0027932Y-044361D02*
G01X0027980Y-044170D01*
G01X0027980Y-044170D02*
G01X0028028Y-044075D01*
G01X0028028Y-044075D02*
G01X0028123Y-043980D01*
G01X0028123Y-043980D02*
G01X0028266Y-043932D01*
G01X0028266Y-043932D02*
G01X0028361Y-043932D01*
G01X0028361Y-043932D02*
G01X0028504Y-043980D01*
G01X0028504Y-043980D02*
G01X0028551Y-044028D01*
G01X0028980Y-044932D02*
G01X0028980Y-043932D01*
G01X0028980Y-044409D02*
G01X0029551Y-044409D01*
G01X0029551Y-044932D02*
G01X0029551Y-043932D01*
G01X0030028Y-044837D02*
G01X0030075Y-044885D01*
G01X0030075Y-044885D02*
G01X0030028Y-044932D01*
G01X0030028Y-044932D02*
G01X0029980Y-044885D01*
G01X0029980Y-044885D02*
G01X0030028Y-044837D01*
G01X0030028Y-044837D02*
G01X0030028Y-044932D01*
G01X0002742Y-046532D02*
G01X0002170Y-046532D01*
G01X0002456Y-046532D02*
G01X0002456Y-045532D01*
G01X0002456Y-045532D02*
G01X0002361Y-045675D01*
G01X0002361Y-045675D02*
G01X0002266Y-045770D01*
G01X0002266Y-045770D02*
G01X0002170Y-045818D01*
G01X0003361Y-045532D02*
G01X0003456Y-045532D01*
G01X0003456Y-045532D02*
G01X0003551Y-045580D01*
G01X0003551Y-045580D02*
G01X0003599Y-045628D01*
G01X0003599Y-045628D02*
G01X0003647Y-045723D01*
G01X0003647Y-045723D02*
G01X0003694Y-045913D01*
G01X0003694Y-045913D02*
G01X0003694Y-046151D01*
G01X0003694Y-046151D02*
G01X0003647Y-046342D01*
G01X0003647Y-046342D02*
G01X0003599Y-046437D01*
G01X0003599Y-046437D02*
G01X0003551Y-046485D01*
G01X0003551Y-046485D02*
G01X0003456Y-046532D01*
G01X0003456Y-046532D02*
G01X0003361Y-046532D01*
G01X0003361Y-046532D02*
G01X0003266Y-046485D01*
G01X0003266Y-046485D02*
G01X0003218Y-046437D01*
G01X0003218Y-046437D02*
G01X0003170Y-046342D01*
G01X0003170Y-046342D02*
G01X0003123Y-046151D01*
G01X0003123Y-046151D02*
G01X0003123Y-045913D01*
G01X0003123Y-045913D02*
G01X0003170Y-045723D01*
G01X0003170Y-045723D02*
G01X0003218Y-045628D01*
G01X0003218Y-045628D02*
G01X0003266Y-045580D01*
G01X0003266Y-045580D02*
G01X0003361Y-045532D01*
G01X0004123Y-046437D02*
G01X0004170Y-046485D01*
G01X0004170Y-046485D02*
G01X0004123Y-046532D01*
G01X0004123Y-046532D02*
G01X0004075Y-046485D01*
G01X0004075Y-046485D02*
G01X0004123Y-046437D01*
G01X0004123Y-046437D02*
G01X0004123Y-046532D01*
G01X0005361Y-046532D02*
G01X0005361Y-045532D01*
G01X0005361Y-045532D02*
G01X0005694Y-046247D01*
G01X0005694Y-046247D02*
G01X0006028Y-045532D01*
G01X0006028Y-045532D02*
G01X0006028Y-046532D01*
G01X0006456Y-046247D02*
G01X0006932Y-046247D01*
G01X0006361Y-046532D02*
G01X0006694Y-045532D01*
G01X0006694Y-045532D02*
G01X0007028Y-046532D01*
G01X0007266Y-045532D02*
G01X0007932Y-046532D01*
G01X0007932Y-045532D02*
G01X0007266Y-046532D01*
G01X0009075Y-046532D02*
G01X0009075Y-045532D01*
G01X0009075Y-046009D02*
G01X0009647Y-046009D01*
G01X0009647Y-046532D02*
G01X0009647Y-045532D01*
G01X0010313Y-045532D02*
G01X0010504Y-045532D01*
G01X0010504Y-045532D02*
G01X0010599Y-045580D01*
G01X0010599Y-045580D02*
G01X0010694Y-045675D01*
G01X0010694Y-045675D02*
G01X0010742Y-045866D01*
G01X0010742Y-045866D02*
G01X0010742Y-046199D01*
G01X0010742Y-046199D02*
G01X0010694Y-046390D01*
G01X0010694Y-046390D02*
G01X0010599Y-046485D01*
G01X0010599Y-046485D02*
G01X0010504Y-046532D01*
G01X0010504Y-046532D02*
G01X0010313Y-046532D01*
G01X0010313Y-046532D02*
G01X0010218Y-046485D01*
G01X0010218Y-046485D02*
G01X0010123Y-046390D01*
G01X0010123Y-046390D02*
G01X0010075Y-046199D01*
G01X0010075Y-046199D02*
G01X0010075Y-045866D01*
G01X0010075Y-045866D02*
G01X0010123Y-045675D01*
G01X0010123Y-045675D02*
G01X0010218Y-045580D01*
G01X0010218Y-045580D02*
G01X0010313Y-045532D01*
G01X0011647Y-046532D02*
G01X0011170Y-046532D01*
G01X0011170Y-046532D02*
G01X0011170Y-045532D01*
G01X0011980Y-046009D02*
G01X0012313Y-046009D01*
G01X0012456Y-046532D02*
G01X0011980Y-046532D01*
G01X0011980Y-046532D02*
G01X0011980Y-045532D01*
G01X0011980Y-045532D02*
G01X0012456Y-045532D01*
G01X0013647Y-046532D02*
G01X0013647Y-045532D01*
G01X0013647Y-045532D02*
G01X0014028Y-045532D01*
G01X0014028Y-045532D02*
G01X0014123Y-045580D01*
G01X0014123Y-045580D02*
G01X0014170Y-045628D01*
G01X0014170Y-045628D02*
G01X0014218Y-045723D01*
G01X0014218Y-045723D02*
G01X0014218Y-045866D01*
G01X0014218Y-045866D02*
G01X0014170Y-045961D01*
G01X0014170Y-045961D02*
G01X0014123Y-046009D01*
G01X0014123Y-046009D02*
G01X0014028Y-046056D01*
G01X0014028Y-046056D02*
G01X0013647Y-046056D01*
G01X0015123Y-046532D02*
G01X0014647Y-046532D01*
G01X0014647Y-046532D02*
G01X0014647Y-045532D01*
G01X0015409Y-046247D02*
G01X0015885Y-046247D01*
G01X0015313Y-046532D02*
G01X0015647Y-045532D01*
G01X0015647Y-045532D02*
G01X0015980Y-046532D01*
G01X0016885Y-046437D02*
G01X0016837Y-046485D01*
G01X0016837Y-046485D02*
G01X0016694Y-046532D01*
G01X0016694Y-046532D02*
G01X0016599Y-046532D01*
G01X0016599Y-046532D02*
G01X0016456Y-046485D01*
G01X0016456Y-046485D02*
G01X0016361Y-046390D01*
G01X0016361Y-046390D02*
G01X0016313Y-046294D01*
G01X0016313Y-046294D02*
G01X0016266Y-046104D01*
G01X0016266Y-046104D02*
G01X0016266Y-045961D01*
G01X0016266Y-045961D02*
G01X0016313Y-045770D01*
G01X0016313Y-045770D02*
G01X0016361Y-045675D01*
G01X0016361Y-045675D02*
G01X0016456Y-045580D01*
G01X0016456Y-045580D02*
G01X0016599Y-045532D01*
G01X0016599Y-045532D02*
G01X0016694Y-045532D01*
G01X0016694Y-045532D02*
G01X0016837Y-045580D01*
G01X0016837Y-045580D02*
G01X0016885Y-045628D01*
G01X0017313Y-046009D02*
G01X0017647Y-046009D01*
G01X0017790Y-046532D02*
G01X0017313Y-046532D01*
G01X0017313Y-046532D02*
G01X0017313Y-045532D01*
G01X0017313Y-045532D02*
G01X0017790Y-045532D01*
G01X0018218Y-046532D02*
G01X0018218Y-045532D01*
G01X0018218Y-045532D02*
G01X0018551Y-046247D01*
G01X0018551Y-046247D02*
G01X0018885Y-045532D01*
G01X0018885Y-045532D02*
G01X0018885Y-046532D01*
G01X0019361Y-046009D02*
G01X0019694Y-046009D01*
G01X0019837Y-046532D02*
G01X0019361Y-046532D01*
G01X0019361Y-046532D02*
G01X0019361Y-045532D01*
G01X0019361Y-045532D02*
G01X0019837Y-045532D01*
G01X0020266Y-046532D02*
G01X0020266Y-045532D01*
G01X0020266Y-045532D02*
G01X0020837Y-046532D01*
G01X0020837Y-046532D02*
G01X0020837Y-045532D01*
G01X0021170Y-045532D02*
G01X0021742Y-045532D01*
G01X0021456Y-046532D02*
G01X0021456Y-045532D01*
G01X0022694Y-045532D02*
G01X0023266Y-045532D01*
G01X0022980Y-046532D02*
G01X0022980Y-045532D01*
G01X0023790Y-045532D02*
G01X0023980Y-045532D01*
G01X0023980Y-045532D02*
G01X0024075Y-045580D01*
G01X0024075Y-045580D02*
G01X0024170Y-045675D01*
G01X0024170Y-045675D02*
G01X0024218Y-045866D01*
G01X0024218Y-045866D02*
G01X0024218Y-046199D01*
G01X0024218Y-046199D02*
G01X0024170Y-046390D01*
G01X0024170Y-046390D02*
G01X0024075Y-046485D01*
G01X0024075Y-046485D02*
G01X0023980Y-046532D01*
G01X0023980Y-046532D02*
G01X0023790Y-046532D01*
G01X0023790Y-046532D02*
G01X0023694Y-046485D01*
G01X0023694Y-046485D02*
G01X0023599Y-046390D01*
G01X0023599Y-046390D02*
G01X0023551Y-046199D01*
G01X0023551Y-046199D02*
G01X0023551Y-045866D01*
G01X0023551Y-045866D02*
G01X0023599Y-045675D01*
G01X0023599Y-045675D02*
G01X0023694Y-045580D01*
G01X0023694Y-045580D02*
G01X0023790Y-045532D01*
G01X0025123Y-046532D02*
G01X0024647Y-046532D01*
G01X0024647Y-046532D02*
G01X0024647Y-045532D01*
G01X0025456Y-046009D02*
G01X0025790Y-046009D01*
G01X0025932Y-046532D02*
G01X0025456Y-046532D01*
G01X0025456Y-046532D02*
G01X0025456Y-045532D01*
G01X0025456Y-045532D02*
G01X0025932Y-045532D01*
G01X0026932Y-046532D02*
G01X0026599Y-046056D01*
G01X0026361Y-046532D02*
G01X0026361Y-045532D01*
G01X0026361Y-045532D02*
G01X0026742Y-045532D01*
G01X0026742Y-045532D02*
G01X0026837Y-045580D01*
G01X0026837Y-045580D02*
G01X0026885Y-045628D01*
G01X0026885Y-045628D02*
G01X0026932Y-045723D01*
G01X0026932Y-045723D02*
G01X0026932Y-045866D01*
G01X0026932Y-045866D02*
G01X0026885Y-045961D01*
G01X0026885Y-045961D02*
G01X0026837Y-046009D01*
G01X0026837Y-046009D02*
G01X0026742Y-046056D01*
G01X0026742Y-046056D02*
G01X0026361Y-046056D01*
G01X0027313Y-046247D02*
G01X0027790Y-046247D01*
G01X0027218Y-046532D02*
G01X0027551Y-045532D01*
G01X0027551Y-045532D02*
G01X0027885Y-046532D01*
G01X0028218Y-046532D02*
G01X0028218Y-045532D01*
G01X0028218Y-045532D02*
G01X0028790Y-046532D01*
G01X0028790Y-046532D02*
G01X0028790Y-045532D01*
G01X0029837Y-046437D02*
G01X0029790Y-046485D01*
G01X0029790Y-046485D02*
G01X0029647Y-046532D01*
G01X0029647Y-046532D02*
G01X0029551Y-046532D01*
G01X0029551Y-046532D02*
G01X0029409Y-046485D01*
G01X0029409Y-046485D02*
G01X0029313Y-046390D01*
G01X0029313Y-046390D02*
G01X0029266Y-046294D01*
G01X0029266Y-046294D02*
G01X0029218Y-046104D01*
G01X0029218Y-046104D02*
G01X0029218Y-045961D01*
G01X0029218Y-045961D02*
G01X0029266Y-045770D01*
G01X0029266Y-045770D02*
G01X0029313Y-045675D01*
G01X0029313Y-045675D02*
G01X0029409Y-045580D01*
G01X0029409Y-045580D02*
G01X0029551Y-045532D01*
G01X0029551Y-045532D02*
G01X0029647Y-045532D01*
G01X0029647Y-045532D02*
G01X0029790Y-045580D01*
G01X0029790Y-045580D02*
G01X0029837Y-045628D01*
G01X0030266Y-046009D02*
G01X0030599Y-046009D01*
G01X0030742Y-046532D02*
G01X0030266Y-046532D01*
G01X0030266Y-046532D02*
G01X0030266Y-045532D01*
G01X0030266Y-045532D02*
G01X0030742Y-045532D01*
G01X0032123Y-045532D02*
G01X0032313Y-045532D01*
G01X0032313Y-045532D02*
G01X0032409Y-045580D01*
G01X0032409Y-045580D02*
G01X0032504Y-045675D01*
G01X0032504Y-045675D02*
G01X0032551Y-045866D01*
G01X0032551Y-045866D02*
G01X0032551Y-046199D01*
G01X0032551Y-046199D02*
G01X0032504Y-046390D01*
G01X0032504Y-046390D02*
G01X0032409Y-046485D01*
G01X0032409Y-046485D02*
G01X0032313Y-046532D01*
G01X0032313Y-046532D02*
G01X0032123Y-046532D01*
G01X0032123Y-046532D02*
G01X0032028Y-046485D01*
G01X0032028Y-046485D02*
G01X0031932Y-046390D01*
G01X0031932Y-046390D02*
G01X0031885Y-046199D01*
G01X0031885Y-046199D02*
G01X0031885Y-045866D01*
G01X0031885Y-045866D02*
G01X0031932Y-045675D01*
G01X0031932Y-045675D02*
G01X0032028Y-045580D01*
G01X0032028Y-045580D02*
G01X0032123Y-045532D01*
G01X0033313Y-046009D02*
G01X0032980Y-046009D01*
G01X0032980Y-046532D02*
G01X0032980Y-045532D01*
G01X0032980Y-045532D02*
G01X0033456Y-045532D01*
G01X0034599Y-046151D02*
G01X0035361Y-046151D01*
G01X0034980Y-046532D02*
G01X0034980Y-045770D01*
G01X0036551Y-045485D02*
G01X0035694Y-046770D01*
G01X0036885Y-046151D02*
G01X0037647Y-046151D01*
G01X0039075Y-045532D02*
G01X0039170Y-045532D01*
G01X0039170Y-045532D02*
G01X0039266Y-045580D01*
G01X0039266Y-045580D02*
G01X0039313Y-045628D01*
G01X0039313Y-045628D02*
G01X0039361Y-045723D01*
G01X0039361Y-045723D02*
G01X0039409Y-045913D01*
G01X0039409Y-045913D02*
G01X0039409Y-046151D01*
G01X0039409Y-046151D02*
G01X0039361Y-046342D01*
G01X0039361Y-046342D02*
G01X0039313Y-046437D01*
G01X0039313Y-046437D02*
G01X0039266Y-046485D01*
G01X0039266Y-046485D02*
G01X0039170Y-046532D01*
G01X0039170Y-046532D02*
G01X0039075Y-046532D01*
G01X0039075Y-046532D02*
G01X0038980Y-046485D01*
G01X0038980Y-046485D02*
G01X0038932Y-046437D01*
G01X0038932Y-046437D02*
G01X0038885Y-046342D01*
G01X0038885Y-046342D02*
G01X0038837Y-046151D01*
G01X0038837Y-046151D02*
G01X0038837Y-045913D01*
G01X0038837Y-045913D02*
G01X0038885Y-045723D01*
G01X0038885Y-045723D02*
G01X0038932Y-045628D01*
G01X0038932Y-045628D02*
G01X0038980Y-045580D01*
G01X0038980Y-045580D02*
G01X0039075Y-045532D01*
G01X0039837Y-046437D02*
G01X0039885Y-046485D01*
G01X0039885Y-046485D02*
G01X0039837Y-046532D01*
G01X0039837Y-046532D02*
G01X0039790Y-046485D01*
G01X0039790Y-046485D02*
G01X0039837Y-046437D01*
G01X0039837Y-046437D02*
G01X0039837Y-046532D01*
G01X0040504Y-045532D02*
G01X0040599Y-045532D01*
G01X0040599Y-045532D02*
G01X0040694Y-045580D01*
G01X0040694Y-045580D02*
G01X0040742Y-045628D01*
G01X0040742Y-045628D02*
G01X0040790Y-045723D01*
G01X0040790Y-045723D02*
G01X0040837Y-045913D01*
G01X0040837Y-045913D02*
G01X0040837Y-046151D01*
G01X0040837Y-046151D02*
G01X0040790Y-046342D01*
G01X0040790Y-046342D02*
G01X0040742Y-046437D01*
G01X0040742Y-046437D02*
G01X0040694Y-046485D01*
G01X0040694Y-046485D02*
G01X0040599Y-046532D01*
G01X0040599Y-046532D02*
G01X0040504Y-046532D01*
G01X0040504Y-046532D02*
G01X0040409Y-046485D01*
G01X0040409Y-046485D02*
G01X0040361Y-046437D01*
G01X0040361Y-046437D02*
G01X0040313Y-046342D01*
G01X0040313Y-046342D02*
G01X0040266Y-046151D01*
G01X0040266Y-046151D02*
G01X0040266Y-045913D01*
G01X0040266Y-045913D02*
G01X0040313Y-045723D01*
G01X0040313Y-045723D02*
G01X0040361Y-045628D01*
G01X0040361Y-045628D02*
G01X0040409Y-045580D01*
G01X0040409Y-045580D02*
G01X0040504Y-045532D01*
G01X0041456Y-045532D02*
G01X0041551Y-045532D01*
G01X0041551Y-045532D02*
G01X0041647Y-045580D01*
G01X0041647Y-045580D02*
G01X0041694Y-045628D01*
G01X0041694Y-045628D02*
G01X0041742Y-045723D01*
G01X0041742Y-045723D02*
G01X0041790Y-045913D01*
G01X0041790Y-045913D02*
G01X0041790Y-046151D01*
G01X0041790Y-046151D02*
G01X0041742Y-046342D01*
G01X0041742Y-046342D02*
G01X0041694Y-046437D01*
G01X0041694Y-046437D02*
G01X0041647Y-046485D01*
G01X0041647Y-046485D02*
G01X0041551Y-046532D01*
G01X0041551Y-046532D02*
G01X0041456Y-046532D01*
G01X0041456Y-046532D02*
G01X0041361Y-046485D01*
G01X0041361Y-046485D02*
G01X0041313Y-046437D01*
G01X0041313Y-046437D02*
G01X0041266Y-046342D01*
G01X0041266Y-046342D02*
G01X0041218Y-046151D01*
G01X0041218Y-046151D02*
G01X0041218Y-045913D01*
G01X0041218Y-045913D02*
G01X0041266Y-045723D01*
G01X0041266Y-045723D02*
G01X0041313Y-045628D01*
G01X0041313Y-045628D02*
G01X0041361Y-045580D01*
G01X0041361Y-045580D02*
G01X0041456Y-045532D01*
G01X0042123Y-045532D02*
G01X0042742Y-045532D01*
G01X0042742Y-045532D02*
G01X0042409Y-045913D01*
G01X0042409Y-045913D02*
G01X0042551Y-045913D01*
G01X0042551Y-045913D02*
G01X0042647Y-045961D01*
G01X0042647Y-045961D02*
G01X0042694Y-046009D01*
G01X0042694Y-046009D02*
G01X0042742Y-046104D01*
G01X0042742Y-046104D02*
G01X0042742Y-046342D01*
G01X0042742Y-046342D02*
G01X0042694Y-046437D01*
G01X0042694Y-046437D02*
G01X0042647Y-046485D01*
G01X0042647Y-046485D02*
G01X0042551Y-046532D01*
G01X0042551Y-046532D02*
G01X0042266Y-046532D01*
G01X0042266Y-046532D02*
G01X0042170Y-046485D01*
G01X0042170Y-046485D02*
G01X0042123Y-046437D01*
G01X0043932Y-046532D02*
G01X0043932Y-045532D01*
G01X0044409Y-046532D02*
G01X0044409Y-045532D01*
G01X0044409Y-045532D02*
G01X0044980Y-046532D01*
G01X0044980Y-046532D02*
G01X0044980Y-045532D01*
G01X0046028Y-046437D02*
G01X0045980Y-046485D01*
G01X0045980Y-046485D02*
G01X0045837Y-046532D01*
G01X0045837Y-046532D02*
G01X0045742Y-046532D01*
G01X0045742Y-046532D02*
G01X0045599Y-046485D01*
G01X0045599Y-046485D02*
G01X0045504Y-046390D01*
G01X0045504Y-046390D02*
G01X0045456Y-046294D01*
G01X0045456Y-046294D02*
G01X0045409Y-046104D01*
G01X0045409Y-046104D02*
G01X0045409Y-045961D01*
G01X0045409Y-045961D02*
G01X0045456Y-045770D01*
G01X0045456Y-045770D02*
G01X0045504Y-045675D01*
G01X0045504Y-045675D02*
G01X0045599Y-045580D01*
G01X0045599Y-045580D02*
G01X0045742Y-045532D01*
G01X0045742Y-045532D02*
G01X0045837Y-045532D01*
G01X0045837Y-045532D02*
G01X0045980Y-045580D01*
G01X0045980Y-045580D02*
G01X0046028Y-045628D01*
G01X0046456Y-046532D02*
G01X0046456Y-045532D01*
G01X0046456Y-046009D02*
G01X0047028Y-046009D01*
G01X0047028Y-046532D02*
G01X0047028Y-045532D01*
G01X0047504Y-046437D02*
G01X0047551Y-046485D01*
G01X0047551Y-046485D02*
G01X0047504Y-046532D01*
G01X0047504Y-046532D02*
G01X0047456Y-046485D01*
G01X0047456Y-046485D02*
G01X0047504Y-046437D01*
G01X0047504Y-046437D02*
G01X0047504Y-046532D01*
G01X0002742Y-048132D02*
G01X0002170Y-048132D01*
G01X0002456Y-048132D02*
G01X0002456Y-047132D01*
G01X0002456Y-047132D02*
G01X0002361Y-047275D01*
G01X0002361Y-047275D02*
G01X0002266Y-047370D01*
G01X0002266Y-047370D02*
G01X0002170Y-047418D01*
G01X0003694Y-048132D02*
G01X0003123Y-048132D01*
G01X0003409Y-048132D02*
G01X0003409Y-047132D01*
G01X0003409Y-047132D02*
G01X0003313Y-047275D01*
G01X0003313Y-047275D02*
G01X0003218Y-047370D01*
G01X0003218Y-047370D02*
G01X0003123Y-047418D01*
G01X0004123Y-048037D02*
G01X0004170Y-048085D01*
G01X0004170Y-048085D02*
G01X0004123Y-048132D01*
G01X0004123Y-048132D02*
G01X0004075Y-048085D01*
G01X0004075Y-048085D02*
G01X0004123Y-048037D01*
G01X0004123Y-048037D02*
G01X0004123Y-048132D01*
G01X0005361Y-048132D02*
G01X0005361Y-047132D01*
G01X0005361Y-047132D02*
G01X0005694Y-047847D01*
G01X0005694Y-047847D02*
G01X0006028Y-047132D01*
G01X0006028Y-047132D02*
G01X0006028Y-048132D01*
G01X0006456Y-047847D02*
G01X0006932Y-047847D01*
G01X0006361Y-048132D02*
G01X0006694Y-047132D01*
G01X0006694Y-047132D02*
G01X0007028Y-048132D01*
G01X0007266Y-047132D02*
G01X0007932Y-048132D01*
G01X0007932Y-047132D02*
G01X0007266Y-048132D01*
G01X0009075Y-048132D02*
G01X0009075Y-047132D01*
G01X0009075Y-047609D02*
G01X0009647Y-047609D01*
G01X0009647Y-048132D02*
G01X0009647Y-047132D01*
G01X0010313Y-047132D02*
G01X0010504Y-047132D01*
G01X0010504Y-047132D02*
G01X0010599Y-047180D01*
G01X0010599Y-047180D02*
G01X0010694Y-047275D01*
G01X0010694Y-047275D02*
G01X0010742Y-047466D01*
G01X0010742Y-047466D02*
G01X0010742Y-047799D01*
G01X0010742Y-047799D02*
G01X0010694Y-047990D01*
G01X0010694Y-047990D02*
G01X0010599Y-048085D01*
G01X0010599Y-048085D02*
G01X0010504Y-048132D01*
G01X0010504Y-048132D02*
G01X0010313Y-048132D01*
G01X0010313Y-048132D02*
G01X0010218Y-048085D01*
G01X0010218Y-048085D02*
G01X0010123Y-047990D01*
G01X0010123Y-047990D02*
G01X0010075Y-047799D01*
G01X0010075Y-047799D02*
G01X0010075Y-047466D01*
G01X0010075Y-047466D02*
G01X0010123Y-047275D01*
G01X0010123Y-047275D02*
G01X0010218Y-047180D01*
G01X0010218Y-047180D02*
G01X0010313Y-047132D01*
G01X0011647Y-048132D02*
G01X0011170Y-048132D01*
G01X0011170Y-048132D02*
G01X0011170Y-047132D01*
G01X0011980Y-047609D02*
G01X0012313Y-047609D01*
G01X0012456Y-048132D02*
G01X0011980Y-048132D01*
G01X0011980Y-048132D02*
G01X0011980Y-047132D01*
G01X0011980Y-047132D02*
G01X0012456Y-047132D01*
G01X0013647Y-048132D02*
G01X0013647Y-047132D01*
G01X0013647Y-047132D02*
G01X0013885Y-047132D01*
G01X0013885Y-047132D02*
G01X0014028Y-047180D01*
G01X0014028Y-047180D02*
G01X0014123Y-047275D01*
G01X0014123Y-047275D02*
G01X0014170Y-047370D01*
G01X0014170Y-047370D02*
G01X0014218Y-047561D01*
G01X0014218Y-047561D02*
G01X0014218Y-047704D01*
G01X0014218Y-047704D02*
G01X0014170Y-047894D01*
G01X0014170Y-047894D02*
G01X0014123Y-047990D01*
G01X0014123Y-047990D02*
G01X0014028Y-048085D01*
G01X0014028Y-048085D02*
G01X0013885Y-048132D01*
G01X0013885Y-048132D02*
G01X0013647Y-048132D01*
G01X0014647Y-048132D02*
G01X0014647Y-047132D01*
G01X0015075Y-047847D02*
G01X0015551Y-047847D01*
G01X0014980Y-048132D02*
G01X0015313Y-047132D01*
G01X0015313Y-047132D02*
G01X0015647Y-048132D01*
G01X0015980Y-048132D02*
G01X0015980Y-047132D01*
G01X0015980Y-047132D02*
G01X0016313Y-047847D01*
G01X0016313Y-047847D02*
G01X0016647Y-047132D01*
G01X0016647Y-047132D02*
G01X0016647Y-048132D01*
G01X0017123Y-047609D02*
G01X0017456Y-047609D01*
G01X0017599Y-048132D02*
G01X0017123Y-048132D01*
G01X0017123Y-048132D02*
G01X0017123Y-047132D01*
G01X0017123Y-047132D02*
G01X0017599Y-047132D01*
G01X0017885Y-047132D02*
G01X0018456Y-047132D01*
G01X0018170Y-048132D02*
G01X0018170Y-047132D01*
G01X0018790Y-047609D02*
G01X0019123Y-047609D01*
G01X0019266Y-048132D02*
G01X0018790Y-048132D01*
G01X0018790Y-048132D02*
G01X0018790Y-047132D01*
G01X0018790Y-047132D02*
G01X0019266Y-047132D01*
G01X0020266Y-048132D02*
G01X0019932Y-047656D01*
G01X0019694Y-048132D02*
G01X0019694Y-047132D01*
G01X0019694Y-047132D02*
G01X0020075Y-047132D01*
G01X0020075Y-047132D02*
G01X0020170Y-047180D01*
G01X0020170Y-047180D02*
G01X0020218Y-047228D01*
G01X0020218Y-047228D02*
G01X0020266Y-047323D01*
G01X0020266Y-047323D02*
G01X0020266Y-047466D01*
G01X0020266Y-047466D02*
G01X0020218Y-047561D01*
G01X0020218Y-047561D02*
G01X0020170Y-047609D01*
G01X0020170Y-047609D02*
G01X0020075Y-047656D01*
G01X0020075Y-047656D02*
G01X0019694Y-047656D01*
G01X0021313Y-047132D02*
G01X0021885Y-047132D01*
G01X0021599Y-048132D02*
G01X0021599Y-047132D01*
G01X0022409Y-047132D02*
G01X0022599Y-047132D01*
G01X0022599Y-047132D02*
G01X0022694Y-047180D01*
G01X0022694Y-047180D02*
G01X0022790Y-047275D01*
G01X0022790Y-047275D02*
G01X0022837Y-047466D01*
G01X0022837Y-047466D02*
G01X0022837Y-047799D01*
G01X0022837Y-047799D02*
G01X0022790Y-047990D01*
G01X0022790Y-047990D02*
G01X0022694Y-048085D01*
G01X0022694Y-048085D02*
G01X0022599Y-048132D01*
G01X0022599Y-048132D02*
G01X0022409Y-048132D01*
G01X0022409Y-048132D02*
G01X0022313Y-048085D01*
G01X0022313Y-048085D02*
G01X0022218Y-047990D01*
G01X0022218Y-047990D02*
G01X0022170Y-047799D01*
G01X0022170Y-047799D02*
G01X0022170Y-047466D01*
G01X0022170Y-047466D02*
G01X0022218Y-047275D01*
G01X0022218Y-047275D02*
G01X0022313Y-047180D01*
G01X0022313Y-047180D02*
G01X0022409Y-047132D01*
G01X0023742Y-048132D02*
G01X0023266Y-048132D01*
G01X0023266Y-048132D02*
G01X0023266Y-047132D01*
G01X0024075Y-047609D02*
G01X0024409Y-047609D01*
G01X0024551Y-048132D02*
G01X0024075Y-048132D01*
G01X0024075Y-048132D02*
G01X0024075Y-047132D01*
G01X0024075Y-047132D02*
G01X0024551Y-047132D01*
G01X0025551Y-048132D02*
G01X0025218Y-047656D01*
G01X0024980Y-048132D02*
G01X0024980Y-047132D01*
G01X0024980Y-047132D02*
G01X0025361Y-047132D01*
G01X0025361Y-047132D02*
G01X0025456Y-047180D01*
G01X0025456Y-047180D02*
G01X0025504Y-047228D01*
G01X0025504Y-047228D02*
G01X0025551Y-047323D01*
G01X0025551Y-047323D02*
G01X0025551Y-047466D01*
G01X0025551Y-047466D02*
G01X0025504Y-047561D01*
G01X0025504Y-047561D02*
G01X0025456Y-047609D01*
G01X0025456Y-047609D02*
G01X0025361Y-047656D01*
G01X0025361Y-047656D02*
G01X0024980Y-047656D01*
G01X0025932Y-047847D02*
G01X0026409Y-047847D01*
G01X0025837Y-048132D02*
G01X0026170Y-047132D01*
G01X0026170Y-047132D02*
G01X0026504Y-048132D01*
G01X0026837Y-048132D02*
G01X0026837Y-047132D01*
G01X0026837Y-047132D02*
G01X0027409Y-048132D01*
G01X0027409Y-048132D02*
G01X0027409Y-047132D01*
G01X0028456Y-048037D02*
G01X0028409Y-048085D01*
G01X0028409Y-048085D02*
G01X0028266Y-048132D01*
G01X0028266Y-048132D02*
G01X0028170Y-048132D01*
G01X0028170Y-048132D02*
G01X0028028Y-048085D01*
G01X0028028Y-048085D02*
G01X0027932Y-047990D01*
G01X0027932Y-047990D02*
G01X0027885Y-047894D01*
G01X0027885Y-047894D02*
G01X0027837Y-047704D01*
G01X0027837Y-047704D02*
G01X0027837Y-047561D01*
G01X0027837Y-047561D02*
G01X0027885Y-047370D01*
G01X0027885Y-047370D02*
G01X0027932Y-047275D01*
G01X0027932Y-047275D02*
G01X0028028Y-047180D01*
G01X0028028Y-047180D02*
G01X0028170Y-047132D01*
G01X0028170Y-047132D02*
G01X0028266Y-047132D01*
G01X0028266Y-047132D02*
G01X0028409Y-047180D01*
G01X0028409Y-047180D02*
G01X0028456Y-047228D01*
G01X0028885Y-047609D02*
G01X0029218Y-047609D01*
G01X0029361Y-048132D02*
G01X0028885Y-048132D01*
G01X0028885Y-048132D02*
G01X0028885Y-047132D01*
G01X0028885Y-047132D02*
G01X0029361Y-047132D01*
G01X0030742Y-047132D02*
G01X0030932Y-047132D01*
G01X0030932Y-047132D02*
G01X0031028Y-047180D01*
G01X0031028Y-047180D02*
G01X0031123Y-047275D01*
G01X0031123Y-047275D02*
G01X0031170Y-047466D01*
G01X0031170Y-047466D02*
G01X0031170Y-047799D01*
G01X0031170Y-047799D02*
G01X0031123Y-047990D01*
G01X0031123Y-047990D02*
G01X0031028Y-048085D01*
G01X0031028Y-048085D02*
G01X0030932Y-048132D01*
G01X0030932Y-048132D02*
G01X0030742Y-048132D01*
G01X0030742Y-048132D02*
G01X0030647Y-048085D01*
G01X0030647Y-048085D02*
G01X0030551Y-047990D01*
G01X0030551Y-047990D02*
G01X0030504Y-047799D01*
G01X0030504Y-047799D02*
G01X0030504Y-047466D01*
G01X0030504Y-047466D02*
G01X0030551Y-047275D01*
G01X0030551Y-047275D02*
G01X0030647Y-047180D01*
G01X0030647Y-047180D02*
G01X0030742Y-047132D01*
G01X0031932Y-047609D02*
G01X0031599Y-047609D01*
G01X0031599Y-048132D02*
G01X0031599Y-047132D01*
G01X0031599Y-047132D02*
G01X0032075Y-047132D01*
G01X0033218Y-047751D02*
G01X0033980Y-047751D01*
G01X0033599Y-048132D02*
G01X0033599Y-047370D01*
G01X0035170Y-047085D02*
G01X0034313Y-048370D01*
G01X0035504Y-047751D02*
G01X0036266Y-047751D01*
G01X0037694Y-047132D02*
G01X0037790Y-047132D01*
G01X0037790Y-047132D02*
G01X0037885Y-047180D01*
G01X0037885Y-047180D02*
G01X0037932Y-047228D01*
G01X0037932Y-047228D02*
G01X0037980Y-047323D01*
G01X0037980Y-047323D02*
G01X0038028Y-047513D01*
G01X0038028Y-047513D02*
G01X0038028Y-047751D01*
G01X0038028Y-047751D02*
G01X0037980Y-047942D01*
G01X0037980Y-047942D02*
G01X0037932Y-048037D01*
G01X0037932Y-048037D02*
G01X0037885Y-048085D01*
G01X0037885Y-048085D02*
G01X0037790Y-048132D01*
G01X0037790Y-048132D02*
G01X0037694Y-048132D01*
G01X0037694Y-048132D02*
G01X0037599Y-048085D01*
G01X0037599Y-048085D02*
G01X0037551Y-048037D01*
G01X0037551Y-048037D02*
G01X0037504Y-047942D01*
G01X0037504Y-047942D02*
G01X0037456Y-047751D01*
G01X0037456Y-047751D02*
G01X0037456Y-047513D01*
G01X0037456Y-047513D02*
G01X0037504Y-047323D01*
G01X0037504Y-047323D02*
G01X0037551Y-047228D01*
G01X0037551Y-047228D02*
G01X0037599Y-047180D01*
G01X0037599Y-047180D02*
G01X0037694Y-047132D01*
G01X0038456Y-048037D02*
G01X0038504Y-048085D01*
G01X0038504Y-048085D02*
G01X0038456Y-048132D01*
G01X0038456Y-048132D02*
G01X0038409Y-048085D01*
G01X0038409Y-048085D02*
G01X0038456Y-048037D01*
G01X0038456Y-048037D02*
G01X0038456Y-048132D01*
G01X0039123Y-047132D02*
G01X0039218Y-047132D01*
G01X0039218Y-047132D02*
G01X0039313Y-047180D01*
G01X0039313Y-047180D02*
G01X0039361Y-047228D01*
G01X0039361Y-047228D02*
G01X0039409Y-047323D01*
G01X0039409Y-047323D02*
G01X0039456Y-047513D01*
G01X0039456Y-047513D02*
G01X0039456Y-047751D01*
G01X0039456Y-047751D02*
G01X0039409Y-047942D01*
G01X0039409Y-047942D02*
G01X0039361Y-048037D01*
G01X0039361Y-048037D02*
G01X0039313Y-048085D01*
G01X0039313Y-048085D02*
G01X0039218Y-048132D01*
G01X0039218Y-048132D02*
G01X0039123Y-048132D01*
G01X0039123Y-048132D02*
G01X0039028Y-048085D01*
G01X0039028Y-048085D02*
G01X0038980Y-048037D01*
G01X0038980Y-048037D02*
G01X0038932Y-047942D01*
G01X0038932Y-047942D02*
G01X0038885Y-047751D01*
G01X0038885Y-047751D02*
G01X0038885Y-047513D01*
G01X0038885Y-047513D02*
G01X0038932Y-047323D01*
G01X0038932Y-047323D02*
G01X0038980Y-047228D01*
G01X0038980Y-047228D02*
G01X0039028Y-047180D01*
G01X0039028Y-047180D02*
G01X0039123Y-047132D01*
G01X0040075Y-047132D02*
G01X0040170Y-047132D01*
G01X0040170Y-047132D02*
G01X0040266Y-047180D01*
G01X0040266Y-047180D02*
G01X0040313Y-047228D01*
G01X0040313Y-047228D02*
G01X0040361Y-047323D01*
G01X0040361Y-047323D02*
G01X0040409Y-047513D01*
G01X0040409Y-047513D02*
G01X0040409Y-047751D01*
G01X0040409Y-047751D02*
G01X0040361Y-047942D01*
G01X0040361Y-047942D02*
G01X0040313Y-048037D01*
G01X0040313Y-048037D02*
G01X0040266Y-048085D01*
G01X0040266Y-048085D02*
G01X0040170Y-048132D01*
G01X0040170Y-048132D02*
G01X0040075Y-048132D01*
G01X0040075Y-048132D02*
G01X0039980Y-048085D01*
G01X0039980Y-048085D02*
G01X0039932Y-048037D01*
G01X0039932Y-048037D02*
G01X0039885Y-047942D01*
G01X0039885Y-047942D02*
G01X0039837Y-047751D01*
G01X0039837Y-047751D02*
G01X0039837Y-047513D01*
G01X0039837Y-047513D02*
G01X0039885Y-047323D01*
G01X0039885Y-047323D02*
G01X0039932Y-047228D01*
G01X0039932Y-047228D02*
G01X0039980Y-047180D01*
G01X0039980Y-047180D02*
G01X0040075Y-047132D01*
G01X0040742Y-047132D02*
G01X0041361Y-047132D01*
G01X0041361Y-047132D02*
G01X0041028Y-047513D01*
G01X0041028Y-047513D02*
G01X0041170Y-047513D01*
G01X0041170Y-047513D02*
G01X0041266Y-047561D01*
G01X0041266Y-047561D02*
G01X0041313Y-047609D01*
G01X0041313Y-047609D02*
G01X0041361Y-047704D01*
G01X0041361Y-047704D02*
G01X0041361Y-047942D01*
G01X0041361Y-047942D02*
G01X0041313Y-048037D01*
G01X0041313Y-048037D02*
G01X0041266Y-048085D01*
G01X0041266Y-048085D02*
G01X0041170Y-048132D01*
G01X0041170Y-048132D02*
G01X0040885Y-048132D01*
G01X0040885Y-048132D02*
G01X0040790Y-048085D01*
G01X0040790Y-048085D02*
G01X0040742Y-048037D01*
G01X0042551Y-048132D02*
G01X0042551Y-047132D01*
G01X0043028Y-048132D02*
G01X0043028Y-047132D01*
G01X0043028Y-047132D02*
G01X0043599Y-048132D01*
G01X0043599Y-048132D02*
G01X0043599Y-047132D01*
G01X0044647Y-048037D02*
G01X0044599Y-048085D01*
G01X0044599Y-048085D02*
G01X0044456Y-048132D01*
G01X0044456Y-048132D02*
G01X0044361Y-048132D01*
G01X0044361Y-048132D02*
G01X0044218Y-048085D01*
G01X0044218Y-048085D02*
G01X0044123Y-047990D01*
G01X0044123Y-047990D02*
G01X0044075Y-047894D01*
G01X0044075Y-047894D02*
G01X0044028Y-047704D01*
G01X0044028Y-047704D02*
G01X0044028Y-047561D01*
G01X0044028Y-047561D02*
G01X0044075Y-047370D01*
G01X0044075Y-047370D02*
G01X0044123Y-047275D01*
G01X0044123Y-047275D02*
G01X0044218Y-047180D01*
G01X0044218Y-047180D02*
G01X0044361Y-047132D01*
G01X0044361Y-047132D02*
G01X0044456Y-047132D01*
G01X0044456Y-047132D02*
G01X0044599Y-047180D01*
G01X0044599Y-047180D02*
G01X0044647Y-047228D01*
G01X0045075Y-048132D02*
G01X0045075Y-047132D01*
G01X0045075Y-047609D02*
G01X0045647Y-047609D01*
G01X0045647Y-048132D02*
G01X0045647Y-047132D01*
G01X0046837Y-047847D02*
G01X0047313Y-047847D01*
G01X0046742Y-048132D02*
G01X0047075Y-047132D01*
G01X0047075Y-047132D02*
G01X0047409Y-048132D01*
G01X0048075Y-047609D02*
G01X0047742Y-047609D01*
G01X0047742Y-048132D02*
G01X0047742Y-047132D01*
G01X0047742Y-047132D02*
G01X0048218Y-047132D01*
G01X0048456Y-047132D02*
G01X0049028Y-047132D01*
G01X0048742Y-048132D02*
G01X0048742Y-047132D01*
G01X0049361Y-047609D02*
G01X0049694Y-047609D01*
G01X0049837Y-048132D02*
G01X0049361Y-048132D01*
G01X0049361Y-048132D02*
G01X0049361Y-047132D01*
G01X0049361Y-047132D02*
G01X0049837Y-047132D01*
G01X0050837Y-048132D02*
G01X0050504Y-047656D01*
G01X0050266Y-048132D02*
G01X0050266Y-047132D01*
G01X0050266Y-047132D02*
G01X0050647Y-047132D01*
G01X0050647Y-047132D02*
G01X0050742Y-047180D01*
G01X0050742Y-047180D02*
G01X0050790Y-047228D01*
G01X0050790Y-047228D02*
G01X0050837Y-047323D01*
G01X0050837Y-047323D02*
G01X0050837Y-047466D01*
G01X0050837Y-047466D02*
G01X0050790Y-047561D01*
G01X0050790Y-047561D02*
G01X0050742Y-047609D01*
G01X0050742Y-047609D02*
G01X0050647Y-047656D01*
G01X0050647Y-047656D02*
G01X0050266Y-047656D01*
G01X0052028Y-048132D02*
G01X0052028Y-047132D01*
G01X0052028Y-047132D02*
G01X0052409Y-047132D01*
G01X0052409Y-047132D02*
G01X0052504Y-047180D01*
G01X0052504Y-047180D02*
G01X0052551Y-047228D01*
G01X0052551Y-047228D02*
G01X0052599Y-047323D01*
G01X0052599Y-047323D02*
G01X0052599Y-047466D01*
G01X0052599Y-047466D02*
G01X0052551Y-047561D01*
G01X0052551Y-047561D02*
G01X0052504Y-047609D01*
G01X0052504Y-047609D02*
G01X0052409Y-047656D01*
G01X0052409Y-047656D02*
G01X0052028Y-047656D01*
G01X0053504Y-048132D02*
G01X0053028Y-048132D01*
G01X0053028Y-048132D02*
G01X0053028Y-047132D01*
G01X0053790Y-047847D02*
G01X0054266Y-047847D01*
G01X0053694Y-048132D02*
G01X0054028Y-047132D01*
G01X0054028Y-047132D02*
G01X0054361Y-048132D01*
G01X0054551Y-047132D02*
G01X0055123Y-047132D01*
G01X0054837Y-048132D02*
G01X0054837Y-047132D01*
G01X0055456Y-048132D02*
G01X0055456Y-047132D01*
G01X0055932Y-048132D02*
G01X0055932Y-047132D01*
G01X0055932Y-047132D02*
G01X0056504Y-048132D01*
G01X0056504Y-048132D02*
G01X0056504Y-047132D01*
G01X0057504Y-047180D02*
G01X0057409Y-047132D01*
G01X0057409Y-047132D02*
G01X0057266Y-047132D01*
G01X0057266Y-047132D02*
G01X0057123Y-047180D01*
G01X0057123Y-047180D02*
G01X0057028Y-047275D01*
G01X0057028Y-047275D02*
G01X0056980Y-047370D01*
G01X0056980Y-047370D02*
G01X0056932Y-047561D01*
G01X0056932Y-047561D02*
G01X0056932Y-047704D01*
G01X0056932Y-047704D02*
G01X0056980Y-047894D01*
G01X0056980Y-047894D02*
G01X0057028Y-047990D01*
G01X0057028Y-047990D02*
G01X0057123Y-048085D01*
G01X0057123Y-048085D02*
G01X0057266Y-048132D01*
G01X0057266Y-048132D02*
G01X0057361Y-048132D01*
G01X0057361Y-048132D02*
G01X0057504Y-048085D01*
G01X0057504Y-048085D02*
G01X0057551Y-048037D01*
G01X0057551Y-048037D02*
G01X0057551Y-047704D01*
G01X0057551Y-047704D02*
G01X0057361Y-047704D01*
G01X0057980Y-048037D02*
G01X0058028Y-048085D01*
G01X0058028Y-048085D02*
G01X0057980Y-048132D01*
G01X0057980Y-048132D02*
G01X0057932Y-048085D01*
G01X0057932Y-048085D02*
G01X0057980Y-048037D01*
G01X0057980Y-048037D02*
G01X0057980Y-048132D01*
G01X0000000Y0000000D02*
G54D12*
G01X0012255Y-008189D02*
G01X0009185Y-008189D01*
G01X0012255Y-014331D02*
G01X0009185Y-014331D01*
G01X0013791Y-012795D02*
G01X0013791Y-009725D01*
G01X0007649Y-012795D02*
G01X0007649Y-009725D01*
G01X0013791Y-009725D02*
G75*
G03X0012255Y-008189I-001535J0000000D01*
G01X0012255Y-014331D02*
G75*
G03X0013791Y-012795I0000000J0001535D01*
G01X0007649Y-012795D02*
G75*
G03X0009185Y-014331I0001535J0000000D01*
G01X0009185Y-008189D02*
G75*
G03X0007649Y-009725I0000000J-001535D01*
M02*
