%TF.GenerationSoftware,KiCad,Pcbnew,4.0.5-e0-6337~49~ubuntu16.04.1*%
%TF.CreationDate,2017-01-17T23:17:16-08:00*%
%TF.ProjectId,2x2-Logo-Crazy-Circuits,3278322D4C6F676F2D4372617A792D43,1.0*%
%TF.FileFunction,Other,Fab,Top*%
%FSLAX46Y46*%
G04 Gerber Fmt 4.6, Leading zero omitted, Abs format (unit mm)*
G04 Created by KiCad (PCBNEW 4.0.5-e0-6337~49~ubuntu16.04.1) date Tue Jan 17 23:17:16 2017*
%MOMM*%
%LPD*%
G01*
G04 APERTURE LIST*
%ADD10C,0.350000*%
%ADD11C,0.040640*%
%ADD12C,0.150000*%
G04 APERTURE END LIST*
D10*
D11*
X143473000Y-84529000D02*
X135673000Y-84529000D01*
X143473000Y-100129000D02*
X135673000Y-100129000D01*
X147373000Y-96229000D02*
X147373000Y-88429000D01*
X131773000Y-96229000D02*
X131773000Y-88429000D01*
X147373000Y-88429000D02*
G75*
G03X143473000Y-84529000I-3900000J0D01*
G01*
X143473000Y-100129000D02*
G75*
G03X147373000Y-96229000I0J3900000D01*
G01*
X131773000Y-96229000D02*
G75*
G03X135673000Y-100129000I3900000J0D01*
G01*
X135673000Y-84529000D02*
G75*
G03X131773000Y-88429000I0J-3900000D01*
G01*
D12*
X138334905Y-92781381D02*
X137858714Y-92781381D01*
X137858714Y-91781381D01*
X138858714Y-91781381D02*
X139049191Y-91781381D01*
X139144429Y-91829000D01*
X139239667Y-91924238D01*
X139287286Y-92114714D01*
X139287286Y-92448048D01*
X139239667Y-92638524D01*
X139144429Y-92733762D01*
X139049191Y-92781381D01*
X138858714Y-92781381D01*
X138763476Y-92733762D01*
X138668238Y-92638524D01*
X138620619Y-92448048D01*
X138620619Y-92114714D01*
X138668238Y-91924238D01*
X138763476Y-91829000D01*
X138858714Y-91781381D01*
X140239667Y-91829000D02*
X140144429Y-91781381D01*
X140001572Y-91781381D01*
X139858714Y-91829000D01*
X139763476Y-91924238D01*
X139715857Y-92019476D01*
X139668238Y-92209952D01*
X139668238Y-92352810D01*
X139715857Y-92543286D01*
X139763476Y-92638524D01*
X139858714Y-92733762D01*
X140001572Y-92781381D01*
X140096810Y-92781381D01*
X140239667Y-92733762D01*
X140287286Y-92686143D01*
X140287286Y-92352810D01*
X140096810Y-92352810D01*
X140906333Y-91781381D02*
X141096810Y-91781381D01*
X141192048Y-91829000D01*
X141287286Y-91924238D01*
X141334905Y-92114714D01*
X141334905Y-92448048D01*
X141287286Y-92638524D01*
X141192048Y-92733762D01*
X141096810Y-92781381D01*
X140906333Y-92781381D01*
X140811095Y-92733762D01*
X140715857Y-92638524D01*
X140668238Y-92448048D01*
X140668238Y-92114714D01*
X140715857Y-91924238D01*
X140811095Y-91829000D01*
X140906333Y-91781381D01*
M02*
