%TF.GenerationSoftware,KiCad,Pcbnew,4.0.5-e0-6337~49~ubuntu16.04.1*%
%TF.CreationDate,2017-02-13T23:31:23-08:00*%
%TF.ProjectId,2x2-Logo-Crazy-Circuits,3278322D4C6F676F2D4372617A792D43,1.0*%
%TF.FileFunction,Legend,Bot*%
%FSLAX46Y46*%
G04 Gerber Fmt 4.6, Leading zero omitted, Abs format (unit mm)*
G04 Created by KiCad (PCBNEW 4.0.5-e0-6337~49~ubuntu16.04.1) date Mon Feb 13 23:31:23 2017*
%MOMM*%
%LPD*%
G01*
G04 APERTURE LIST*
%ADD10C,0.350000*%
%ADD11C,0.254000*%
G04 APERTURE END LIST*
D10*
D11*
X33950728Y-28999543D02*
X34059585Y-29053971D01*
X34277299Y-29053971D01*
X34386157Y-28999543D01*
X34440585Y-28945114D01*
X34495014Y-28836257D01*
X34495014Y-28509686D01*
X34440585Y-28400829D01*
X34386157Y-28346400D01*
X34277299Y-28291971D01*
X34059585Y-28291971D01*
X33950728Y-28346400D01*
X33460871Y-29053971D02*
X33460871Y-28291971D01*
X33460871Y-28509686D02*
X33406443Y-28400829D01*
X33352014Y-28346400D01*
X33243157Y-28291971D01*
X33134300Y-28291971D01*
X32263443Y-29053971D02*
X32263443Y-28455257D01*
X32317872Y-28346400D01*
X32426729Y-28291971D01*
X32644443Y-28291971D01*
X32753300Y-28346400D01*
X32263443Y-28999543D02*
X32372300Y-29053971D01*
X32644443Y-29053971D01*
X32753300Y-28999543D01*
X32807729Y-28890686D01*
X32807729Y-28781829D01*
X32753300Y-28672971D01*
X32644443Y-28618543D01*
X32372300Y-28618543D01*
X32263443Y-28564114D01*
X31828014Y-28291971D02*
X31229300Y-28291971D01*
X31828014Y-29053971D01*
X31229300Y-29053971D01*
X30902728Y-28291971D02*
X30630585Y-29053971D01*
X30358443Y-28291971D02*
X30630585Y-29053971D01*
X30739443Y-29326114D01*
X30793871Y-29380543D01*
X30902728Y-29434971D01*
X29433157Y-28999543D02*
X29542014Y-29053971D01*
X29759728Y-29053971D01*
X29868586Y-28999543D01*
X29923014Y-28945114D01*
X29977443Y-28836257D01*
X29977443Y-28509686D01*
X29923014Y-28400829D01*
X29868586Y-28346400D01*
X29759728Y-28291971D01*
X29542014Y-28291971D01*
X29433157Y-28346400D01*
X28943300Y-29053971D02*
X28943300Y-28291971D01*
X28943300Y-27910971D02*
X28997729Y-27965400D01*
X28943300Y-28019829D01*
X28888872Y-27965400D01*
X28943300Y-27910971D01*
X28943300Y-28019829D01*
X28399014Y-29053971D02*
X28399014Y-28291971D01*
X28399014Y-28509686D02*
X28344586Y-28400829D01*
X28290157Y-28346400D01*
X28181300Y-28291971D01*
X28072443Y-28291971D01*
X27201586Y-28999543D02*
X27310443Y-29053971D01*
X27528157Y-29053971D01*
X27637015Y-28999543D01*
X27691443Y-28945114D01*
X27745872Y-28836257D01*
X27745872Y-28509686D01*
X27691443Y-28400829D01*
X27637015Y-28346400D01*
X27528157Y-28291971D01*
X27310443Y-28291971D01*
X27201586Y-28346400D01*
X26221872Y-28291971D02*
X26221872Y-29053971D01*
X26711729Y-28291971D02*
X26711729Y-28890686D01*
X26657301Y-28999543D01*
X26548443Y-29053971D01*
X26385158Y-29053971D01*
X26276301Y-28999543D01*
X26221872Y-28945114D01*
X25677586Y-29053971D02*
X25677586Y-28291971D01*
X25677586Y-27910971D02*
X25732015Y-27965400D01*
X25677586Y-28019829D01*
X25623158Y-27965400D01*
X25677586Y-27910971D01*
X25677586Y-28019829D01*
X25296586Y-28291971D02*
X24861157Y-28291971D01*
X25133300Y-27910971D02*
X25133300Y-28890686D01*
X25078872Y-28999543D01*
X24970014Y-29053971D01*
X24861157Y-29053971D01*
X24534586Y-28999543D02*
X24425729Y-29053971D01*
X24208014Y-29053971D01*
X24099157Y-28999543D01*
X24044729Y-28890686D01*
X24044729Y-28836257D01*
X24099157Y-28727400D01*
X24208014Y-28672971D01*
X24371300Y-28672971D01*
X24480157Y-28618543D01*
X24534586Y-28509686D01*
X24534586Y-28455257D01*
X24480157Y-28346400D01*
X24371300Y-28291971D01*
X24208014Y-28291971D01*
X24099157Y-28346400D01*
X23554871Y-28945114D02*
X23500443Y-28999543D01*
X23554871Y-29053971D01*
X23609300Y-28999543D01*
X23554871Y-28945114D01*
X23554871Y-29053971D01*
X22520728Y-28999543D02*
X22629585Y-29053971D01*
X22847299Y-29053971D01*
X22956157Y-28999543D01*
X23010585Y-28945114D01*
X23065014Y-28836257D01*
X23065014Y-28509686D01*
X23010585Y-28400829D01*
X22956157Y-28346400D01*
X22847299Y-28291971D01*
X22629585Y-28291971D01*
X22520728Y-28346400D01*
X21867585Y-29053971D02*
X21976443Y-28999543D01*
X22030871Y-28945114D01*
X22085300Y-28836257D01*
X22085300Y-28509686D01*
X22030871Y-28400829D01*
X21976443Y-28346400D01*
X21867585Y-28291971D01*
X21704300Y-28291971D01*
X21595443Y-28346400D01*
X21541014Y-28400829D01*
X21486585Y-28509686D01*
X21486585Y-28836257D01*
X21541014Y-28945114D01*
X21595443Y-28999543D01*
X21704300Y-29053971D01*
X21867585Y-29053971D01*
X20996728Y-29053971D02*
X20996728Y-28291971D01*
X20996728Y-28400829D02*
X20942300Y-28346400D01*
X20833442Y-28291971D01*
X20670157Y-28291971D01*
X20561300Y-28346400D01*
X20506871Y-28455257D01*
X20506871Y-29053971D01*
X20506871Y-28455257D02*
X20452442Y-28346400D01*
X20343585Y-28291971D01*
X20180300Y-28291971D01*
X20071442Y-28346400D01*
X20017014Y-28455257D01*
X20017014Y-29053971D01*
%LPC*%
M02*
