%TF.GenerationSoftware,KiCad,Pcbnew,4.0.5-e0-6337~49~ubuntu16.04.1*%
%TF.CreationDate,2017-02-13T23:31:23-08:00*%
%TF.ProjectId,2x2-Logo-Crazy-Circuits,3278322D4C6F676F2D4372617A792D43,1.0*%
%TF.FileFunction,Other,Fab,Top*%
%FSLAX46Y46*%
G04 Gerber Fmt 4.6, Leading zero omitted, Abs format (unit mm)*
G04 Created by KiCad (PCBNEW 4.0.5-e0-6337~49~ubuntu16.04.1) date Mon Feb 13 23:31:23 2017*
%MOMM*%
%LPD*%
G01*
G04 APERTURE LIST*
%ADD10C,0.350000*%
%ADD11C,0.040640*%
%ADD12C,0.150000*%
G04 APERTURE END LIST*
D10*
D11*
X31128800Y-20800400D02*
X23328800Y-20800400D01*
X31128800Y-36400400D02*
X23328800Y-36400400D01*
X35028800Y-32500400D02*
X35028800Y-24700400D01*
X19428800Y-32500400D02*
X19428800Y-24700400D01*
X35028800Y-24700400D02*
G75*
G03X31128800Y-20800400I-3900000J0D01*
G01*
X31128800Y-36400400D02*
G75*
G03X35028800Y-32500400I0J3900000D01*
G01*
X19428800Y-32500400D02*
G75*
G03X23328800Y-36400400I3900000J0D01*
G01*
X23328800Y-20800400D02*
G75*
G03X19428800Y-24700400I0J-3900000D01*
G01*
D12*
X25990705Y-29052781D02*
X25514514Y-29052781D01*
X25514514Y-28052781D01*
X26514514Y-28052781D02*
X26704991Y-28052781D01*
X26800229Y-28100400D01*
X26895467Y-28195638D01*
X26943086Y-28386114D01*
X26943086Y-28719448D01*
X26895467Y-28909924D01*
X26800229Y-29005162D01*
X26704991Y-29052781D01*
X26514514Y-29052781D01*
X26419276Y-29005162D01*
X26324038Y-28909924D01*
X26276419Y-28719448D01*
X26276419Y-28386114D01*
X26324038Y-28195638D01*
X26419276Y-28100400D01*
X26514514Y-28052781D01*
X27895467Y-28100400D02*
X27800229Y-28052781D01*
X27657372Y-28052781D01*
X27514514Y-28100400D01*
X27419276Y-28195638D01*
X27371657Y-28290876D01*
X27324038Y-28481352D01*
X27324038Y-28624210D01*
X27371657Y-28814686D01*
X27419276Y-28909924D01*
X27514514Y-29005162D01*
X27657372Y-29052781D01*
X27752610Y-29052781D01*
X27895467Y-29005162D01*
X27943086Y-28957543D01*
X27943086Y-28624210D01*
X27752610Y-28624210D01*
X28562133Y-28052781D02*
X28752610Y-28052781D01*
X28847848Y-28100400D01*
X28943086Y-28195638D01*
X28990705Y-28386114D01*
X28990705Y-28719448D01*
X28943086Y-28909924D01*
X28847848Y-29005162D01*
X28752610Y-29052781D01*
X28562133Y-29052781D01*
X28466895Y-29005162D01*
X28371657Y-28909924D01*
X28324038Y-28719448D01*
X28324038Y-28386114D01*
X28371657Y-28195638D01*
X28466895Y-28100400D01*
X28562133Y-28052781D01*
M02*
