%TF.GenerationSoftware,KiCad,Pcbnew,4.0.5-e0-6337~49~ubuntu16.04.1*%
%TF.CreationDate,2017-02-13T23:31:23-08:00*%
%TF.ProjectId,2x2-Logo-Crazy-Circuits,3278322D4C6F676F2D4372617A792D43,1.0*%
%TF.FileFunction,Legend,Top*%
%FSLAX46Y46*%
G04 Gerber Fmt 4.6, Leading zero omitted, Abs format (unit mm)*
G04 Created by KiCad (PCBNEW 4.0.5-e0-6337~49~ubuntu16.04.1) date Mon Feb 13 23:31:23 2017*
%MOMM*%
%LPD*%
G01*
G04 APERTURE LIST*
%ADD10C,0.350000*%
%ADD11C,0.152400*%
%ADD12C,0.300000*%
%ADD13C,0.254000*%
G04 APERTURE END LIST*
D10*
D11*
X22339300Y-28600400D02*
X33007300Y-28600400D01*
X22276733Y-28536900D02*
G75*
G03X22276733Y-28536900I-508933J0D01*
G01*
%LPC*%
D12*
X24678895Y-30461686D02*
X24616990Y-30523590D01*
X24431276Y-30585495D01*
X24307466Y-30585495D01*
X24121752Y-30523590D01*
X23997943Y-30399781D01*
X23936038Y-30275971D01*
X23874133Y-30028352D01*
X23874133Y-29842638D01*
X23936038Y-29595019D01*
X23997943Y-29471210D01*
X24121752Y-29347400D01*
X24307466Y-29285495D01*
X24431276Y-29285495D01*
X24616990Y-29347400D01*
X24678895Y-29409305D01*
X25236038Y-30585495D02*
X25236038Y-29285495D01*
X26597943Y-30585495D02*
X26164610Y-29966448D01*
X25855086Y-30585495D02*
X25855086Y-29285495D01*
X26350324Y-29285495D01*
X26474133Y-29347400D01*
X26536038Y-29409305D01*
X26597943Y-29533114D01*
X26597943Y-29718829D01*
X26536038Y-29842638D01*
X26474133Y-29904543D01*
X26350324Y-29966448D01*
X25855086Y-29966448D01*
X27897943Y-30461686D02*
X27836038Y-30523590D01*
X27650324Y-30585495D01*
X27526514Y-30585495D01*
X27340800Y-30523590D01*
X27216991Y-30399781D01*
X27155086Y-30275971D01*
X27093181Y-30028352D01*
X27093181Y-29842638D01*
X27155086Y-29595019D01*
X27216991Y-29471210D01*
X27340800Y-29347400D01*
X27526514Y-29285495D01*
X27650324Y-29285495D01*
X27836038Y-29347400D01*
X27897943Y-29409305D01*
X28455086Y-29285495D02*
X28455086Y-30337876D01*
X28516991Y-30461686D01*
X28578895Y-30523590D01*
X28702705Y-30585495D01*
X28950324Y-30585495D01*
X29074133Y-30523590D01*
X29136038Y-30461686D01*
X29197943Y-30337876D01*
X29197943Y-29285495D01*
X29816991Y-30585495D02*
X29816991Y-29285495D01*
X30250325Y-29285495D02*
X30993182Y-29285495D01*
X30621753Y-30585495D02*
X30621753Y-29285495D01*
X31364610Y-30523590D02*
X31550324Y-30585495D01*
X31859848Y-30585495D01*
X31983658Y-30523590D01*
X32045562Y-30461686D01*
X32107467Y-30337876D01*
X32107467Y-30214067D01*
X32045562Y-30090257D01*
X31983658Y-30028352D01*
X31859848Y-29966448D01*
X31612229Y-29904543D01*
X31488420Y-29842638D01*
X31426515Y-29780733D01*
X31364610Y-29656924D01*
X31364610Y-29533114D01*
X31426515Y-29409305D01*
X31488420Y-29347400D01*
X31612229Y-29285495D01*
X31921753Y-29285495D01*
X32107467Y-29347400D01*
X23723848Y-27794686D02*
X23661943Y-27856590D01*
X23476229Y-27918495D01*
X23352419Y-27918495D01*
X23166705Y-27856590D01*
X23042896Y-27732781D01*
X22980991Y-27608971D01*
X22919086Y-27361352D01*
X22919086Y-27175638D01*
X22980991Y-26928019D01*
X23042896Y-26804210D01*
X23166705Y-26680400D01*
X23352419Y-26618495D01*
X23476229Y-26618495D01*
X23661943Y-26680400D01*
X23723848Y-26742305D01*
X25023848Y-27918495D02*
X24590515Y-27299448D01*
X24280991Y-27918495D02*
X24280991Y-26618495D01*
X24776229Y-26618495D01*
X24900038Y-26680400D01*
X24961943Y-26742305D01*
X25023848Y-26866114D01*
X25023848Y-27051829D01*
X24961943Y-27175638D01*
X24900038Y-27237543D01*
X24776229Y-27299448D01*
X24280991Y-27299448D01*
X25519086Y-27547067D02*
X26138134Y-27547067D01*
X25395277Y-27918495D02*
X25828610Y-26618495D01*
X26261943Y-27918495D01*
X26571467Y-26618495D02*
X27438134Y-26618495D01*
X26571467Y-27918495D01*
X27438134Y-27918495D01*
X28180991Y-27299448D02*
X28180991Y-27918495D01*
X27747658Y-26618495D02*
X28180991Y-27299448D01*
X28614324Y-26618495D01*
D11*
X34023300Y-27393900D02*
X32880300Y-28346400D01*
X32689800Y-28346400D02*
X34023300Y-27393900D01*
X33642300Y-27520900D02*
X32689800Y-28346400D01*
X32562800Y-28282900D02*
X33642300Y-27520900D01*
X33451800Y-27584400D02*
X32562800Y-28282900D01*
X32308800Y-28346400D02*
X33451800Y-27584400D01*
X33134300Y-27711400D02*
X32308800Y-28346400D01*
X32181800Y-28282900D02*
X33134300Y-27711400D01*
X32943800Y-27711400D02*
X32181800Y-28282900D01*
X32181800Y-28155900D02*
X32943800Y-27711400D01*
X32689800Y-27711400D02*
X32181800Y-28155900D01*
X32118300Y-28028900D02*
X32689800Y-27711400D01*
X32689800Y-27520900D02*
X32118300Y-28028900D01*
X32689800Y-27393900D02*
X32054800Y-27901900D01*
X32816800Y-27203400D02*
X31991300Y-27774900D01*
X32816800Y-27076400D02*
X31991300Y-27647900D01*
D13*
X30975300Y-28282900D02*
X30340300Y-27393900D01*
D11*
X32880300Y-28409900D02*
X30911800Y-28409900D01*
X34467800Y-27266900D02*
X32880300Y-28409900D01*
X32689800Y-27711400D02*
X34467800Y-27266900D01*
X33007300Y-26822400D02*
X32689800Y-27711400D01*
X31927800Y-27520900D02*
X33007300Y-26822400D01*
X31102300Y-26060400D02*
X31927800Y-27584400D01*
X31165800Y-27457400D02*
X31102300Y-26060400D01*
X30086300Y-27203400D02*
X31165800Y-27457400D01*
X30911800Y-28409900D02*
X30086300Y-27203400D01*
D13*
X31165800Y-28282900D02*
X30530800Y-27393900D01*
X31356300Y-28282900D02*
X30784800Y-27457400D01*
X31483300Y-28282900D02*
X31038800Y-27520900D01*
X31737300Y-28282900D02*
X31292800Y-27457400D01*
X31927800Y-28282900D02*
X31356300Y-27203400D01*
X32118300Y-28282900D02*
X31229300Y-26568400D01*
X31292800Y-27266900D02*
X31229300Y-26441400D01*
M02*
