%TF.GenerationSoftware,KiCad,Pcbnew,4.0.5-e0-6337~49~ubuntu16.04.1*%
%TF.CreationDate,2017-01-17T23:17:16-08:00*%
%TF.ProjectId,2x2-Logo-Crazy-Circuits,3278322D4C6F676F2D4372617A792D43,1.0*%
%TF.FileFunction,Legend,Bot*%
%FSLAX46Y46*%
G04 Gerber Fmt 4.6, Leading zero omitted, Abs format (unit mm)*
G04 Created by KiCad (PCBNEW 4.0.5-e0-6337~49~ubuntu16.04.1) date Tue Jan 17 23:17:16 2017*
%MOMM*%
%LPD*%
G01*
G04 APERTURE LIST*
%ADD10C,0.350000*%
%ADD11C,0.254000*%
G04 APERTURE END LIST*
D10*
D11*
X146294928Y-92728143D02*
X146403785Y-92782571D01*
X146621499Y-92782571D01*
X146730357Y-92728143D01*
X146784785Y-92673714D01*
X146839214Y-92564857D01*
X146839214Y-92238286D01*
X146784785Y-92129429D01*
X146730357Y-92075000D01*
X146621499Y-92020571D01*
X146403785Y-92020571D01*
X146294928Y-92075000D01*
X145805071Y-92782571D02*
X145805071Y-92020571D01*
X145805071Y-92238286D02*
X145750643Y-92129429D01*
X145696214Y-92075000D01*
X145587357Y-92020571D01*
X145478500Y-92020571D01*
X144607643Y-92782571D02*
X144607643Y-92183857D01*
X144662072Y-92075000D01*
X144770929Y-92020571D01*
X144988643Y-92020571D01*
X145097500Y-92075000D01*
X144607643Y-92728143D02*
X144716500Y-92782571D01*
X144988643Y-92782571D01*
X145097500Y-92728143D01*
X145151929Y-92619286D01*
X145151929Y-92510429D01*
X145097500Y-92401571D01*
X144988643Y-92347143D01*
X144716500Y-92347143D01*
X144607643Y-92292714D01*
X144172214Y-92020571D02*
X143573500Y-92020571D01*
X144172214Y-92782571D01*
X143573500Y-92782571D01*
X143246928Y-92020571D02*
X142974785Y-92782571D01*
X142702643Y-92020571D02*
X142974785Y-92782571D01*
X143083643Y-93054714D01*
X143138071Y-93109143D01*
X143246928Y-93163571D01*
X141777357Y-92728143D02*
X141886214Y-92782571D01*
X142103928Y-92782571D01*
X142212786Y-92728143D01*
X142267214Y-92673714D01*
X142321643Y-92564857D01*
X142321643Y-92238286D01*
X142267214Y-92129429D01*
X142212786Y-92075000D01*
X142103928Y-92020571D01*
X141886214Y-92020571D01*
X141777357Y-92075000D01*
X141287500Y-92782571D02*
X141287500Y-92020571D01*
X141287500Y-91639571D02*
X141341929Y-91694000D01*
X141287500Y-91748429D01*
X141233072Y-91694000D01*
X141287500Y-91639571D01*
X141287500Y-91748429D01*
X140743214Y-92782571D02*
X140743214Y-92020571D01*
X140743214Y-92238286D02*
X140688786Y-92129429D01*
X140634357Y-92075000D01*
X140525500Y-92020571D01*
X140416643Y-92020571D01*
X139545786Y-92728143D02*
X139654643Y-92782571D01*
X139872357Y-92782571D01*
X139981215Y-92728143D01*
X140035643Y-92673714D01*
X140090072Y-92564857D01*
X140090072Y-92238286D01*
X140035643Y-92129429D01*
X139981215Y-92075000D01*
X139872357Y-92020571D01*
X139654643Y-92020571D01*
X139545786Y-92075000D01*
X138566072Y-92020571D02*
X138566072Y-92782571D01*
X139055929Y-92020571D02*
X139055929Y-92619286D01*
X139001501Y-92728143D01*
X138892643Y-92782571D01*
X138729358Y-92782571D01*
X138620501Y-92728143D01*
X138566072Y-92673714D01*
X138021786Y-92782571D02*
X138021786Y-92020571D01*
X138021786Y-91639571D02*
X138076215Y-91694000D01*
X138021786Y-91748429D01*
X137967358Y-91694000D01*
X138021786Y-91639571D01*
X138021786Y-91748429D01*
X137640786Y-92020571D02*
X137205357Y-92020571D01*
X137477500Y-91639571D02*
X137477500Y-92619286D01*
X137423072Y-92728143D01*
X137314214Y-92782571D01*
X137205357Y-92782571D01*
X136878786Y-92728143D02*
X136769929Y-92782571D01*
X136552214Y-92782571D01*
X136443357Y-92728143D01*
X136388929Y-92619286D01*
X136388929Y-92564857D01*
X136443357Y-92456000D01*
X136552214Y-92401571D01*
X136715500Y-92401571D01*
X136824357Y-92347143D01*
X136878786Y-92238286D01*
X136878786Y-92183857D01*
X136824357Y-92075000D01*
X136715500Y-92020571D01*
X136552214Y-92020571D01*
X136443357Y-92075000D01*
X135899071Y-92673714D02*
X135844643Y-92728143D01*
X135899071Y-92782571D01*
X135953500Y-92728143D01*
X135899071Y-92673714D01*
X135899071Y-92782571D01*
X134864928Y-92728143D02*
X134973785Y-92782571D01*
X135191499Y-92782571D01*
X135300357Y-92728143D01*
X135354785Y-92673714D01*
X135409214Y-92564857D01*
X135409214Y-92238286D01*
X135354785Y-92129429D01*
X135300357Y-92075000D01*
X135191499Y-92020571D01*
X134973785Y-92020571D01*
X134864928Y-92075000D01*
X134211785Y-92782571D02*
X134320643Y-92728143D01*
X134375071Y-92673714D01*
X134429500Y-92564857D01*
X134429500Y-92238286D01*
X134375071Y-92129429D01*
X134320643Y-92075000D01*
X134211785Y-92020571D01*
X134048500Y-92020571D01*
X133939643Y-92075000D01*
X133885214Y-92129429D01*
X133830785Y-92238286D01*
X133830785Y-92564857D01*
X133885214Y-92673714D01*
X133939643Y-92728143D01*
X134048500Y-92782571D01*
X134211785Y-92782571D01*
X133340928Y-92782571D02*
X133340928Y-92020571D01*
X133340928Y-92129429D02*
X133286500Y-92075000D01*
X133177642Y-92020571D01*
X133014357Y-92020571D01*
X132905500Y-92075000D01*
X132851071Y-92183857D01*
X132851071Y-92782571D01*
X132851071Y-92183857D02*
X132796642Y-92075000D01*
X132687785Y-92020571D01*
X132524500Y-92020571D01*
X132415642Y-92075000D01*
X132361214Y-92183857D01*
X132361214Y-92782571D01*
M02*
