%TF.GenerationSoftware,KiCad,Pcbnew,4.0.5-e0-6337~49~ubuntu16.04.1*%
%TF.CreationDate,2017-02-14T01:47:49-08:00*%
%TF.ProjectId,2x2-LED-RGB-SMT,3278322D4C45442D5247422D534D542E,1.0*%
%TF.FileFunction,Soldermask,Bot*%
%FSLAX46Y46*%
G04 Gerber Fmt 4.6, Leading zero omitted, Abs format (unit mm)*
G04 Created by KiCad (PCBNEW 4.0.5-e0-6337~49~ubuntu16.04.1) date Tue Feb 14 01:47:49 2017*
%MOMM*%
%LPD*%
G01*
G04 APERTURE LIST*
%ADD10C,0.350000*%
%ADD11C,7.000000*%
G04 APERTURE END LIST*
D10*
D11*
X32720280Y-25769960D02*
X32920280Y-25769960D01*
X24520280Y-25769960D02*
X24520280Y-25569960D01*
X24620280Y-34269960D02*
X24420280Y-34269960D01*
X32820280Y-34069960D02*
X32820280Y-34269960D01*
D10*
G36*
X25043390Y-30895807D02*
X25634335Y-31017111D01*
X26190478Y-31250892D01*
X26690614Y-31588238D01*
X27115701Y-32016303D01*
X27449546Y-32518781D01*
X27679436Y-33076536D01*
X27796544Y-33667974D01*
X27796544Y-33667984D01*
X27796611Y-33668323D01*
X27786990Y-34357376D01*
X27786913Y-34357714D01*
X27786913Y-34357722D01*
X27653337Y-34945661D01*
X27407965Y-35496776D01*
X27060217Y-35989738D01*
X26623342Y-36405769D01*
X26113980Y-36729021D01*
X25551534Y-36947179D01*
X24957427Y-37051936D01*
X24354283Y-37039302D01*
X23765080Y-36909757D01*
X23212262Y-36668237D01*
X22716887Y-36323942D01*
X22297817Y-35889983D01*
X21971018Y-35382890D01*
X21748936Y-34821974D01*
X21640035Y-34228618D01*
X21648457Y-33625401D01*
X21773886Y-33035307D01*
X22011539Y-32480818D01*
X22352371Y-31983048D01*
X22783392Y-31560960D01*
X23288193Y-31230628D01*
X23847539Y-31004637D01*
X24440125Y-30891596D01*
X25043390Y-30895807D01*
X25043390Y-30895807D01*
G37*
G36*
X33043390Y-30895807D02*
X33634335Y-31017111D01*
X34190478Y-31250892D01*
X34690614Y-31588238D01*
X35115701Y-32016303D01*
X35449546Y-32518781D01*
X35679436Y-33076536D01*
X35796544Y-33667974D01*
X35796544Y-33667984D01*
X35796611Y-33668323D01*
X35786990Y-34357376D01*
X35786913Y-34357714D01*
X35786913Y-34357722D01*
X35653337Y-34945661D01*
X35407965Y-35496776D01*
X35060217Y-35989738D01*
X34623342Y-36405769D01*
X34113980Y-36729021D01*
X33551534Y-36947179D01*
X32957427Y-37051936D01*
X32354283Y-37039302D01*
X31765080Y-36909757D01*
X31212262Y-36668237D01*
X30716887Y-36323942D01*
X30297817Y-35889983D01*
X29971018Y-35382890D01*
X29748936Y-34821974D01*
X29640035Y-34228618D01*
X29648457Y-33625401D01*
X29773886Y-33035307D01*
X30011539Y-32480818D01*
X30352371Y-31983048D01*
X30783392Y-31560960D01*
X31288193Y-31230628D01*
X31847539Y-31004637D01*
X32440125Y-30891596D01*
X33043390Y-30895807D01*
X33043390Y-30895807D01*
G37*
G36*
X25043390Y-22895807D02*
X25634335Y-23017111D01*
X26190478Y-23250892D01*
X26690614Y-23588238D01*
X27115701Y-24016303D01*
X27449546Y-24518781D01*
X27679436Y-25076536D01*
X27796544Y-25667974D01*
X27796544Y-25667984D01*
X27796611Y-25668323D01*
X27786990Y-26357376D01*
X27786913Y-26357714D01*
X27786913Y-26357722D01*
X27653337Y-26945661D01*
X27407965Y-27496776D01*
X27060217Y-27989738D01*
X26623342Y-28405769D01*
X26113980Y-28729021D01*
X25551534Y-28947179D01*
X24957427Y-29051936D01*
X24354283Y-29039302D01*
X23765080Y-28909757D01*
X23212262Y-28668237D01*
X22716887Y-28323942D01*
X22297817Y-27889983D01*
X21971018Y-27382890D01*
X21748936Y-26821974D01*
X21640035Y-26228618D01*
X21648457Y-25625401D01*
X21773886Y-25035307D01*
X22011539Y-24480818D01*
X22352371Y-23983048D01*
X22783392Y-23560960D01*
X23288193Y-23230628D01*
X23847539Y-23004637D01*
X24440125Y-22891596D01*
X25043390Y-22895807D01*
X25043390Y-22895807D01*
G37*
G36*
X33043390Y-22895807D02*
X33634335Y-23017111D01*
X34190478Y-23250892D01*
X34690614Y-23588238D01*
X35115701Y-24016303D01*
X35449546Y-24518781D01*
X35679436Y-25076536D01*
X35796544Y-25667974D01*
X35796544Y-25667984D01*
X35796611Y-25668323D01*
X35786990Y-26357376D01*
X35786913Y-26357714D01*
X35786913Y-26357722D01*
X35653337Y-26945661D01*
X35407965Y-27496776D01*
X35060217Y-27989738D01*
X34623342Y-28405769D01*
X34113980Y-28729021D01*
X33551534Y-28947179D01*
X32957427Y-29051936D01*
X32354283Y-29039302D01*
X31765080Y-28909757D01*
X31212262Y-28668237D01*
X30716887Y-28323942D01*
X30297817Y-27889983D01*
X29971018Y-27382890D01*
X29748936Y-26821974D01*
X29640035Y-26228618D01*
X29648457Y-25625401D01*
X29773886Y-25035307D01*
X30011539Y-24480818D01*
X30352371Y-23983048D01*
X30783392Y-23560960D01*
X31288193Y-23230628D01*
X31847539Y-23004637D01*
X32440125Y-22891596D01*
X33043390Y-22895807D01*
X33043390Y-22895807D01*
G37*
M02*
