%TF.GenerationSoftware,KiCad,Pcbnew,4.0.5-e0-6337~49~ubuntu16.04.1*%
%TF.CreationDate,2017-02-14T01:47:49-08:00*%
%TF.ProjectId,2x2-LED-RGB-SMT,3278322D4C45442D5247422D534D542E,1.0*%
%TF.FileFunction,Legend,Top*%
%FSLAX46Y46*%
G04 Gerber Fmt 4.6, Leading zero omitted, Abs format (unit mm)*
G04 Created by KiCad (PCBNEW 4.0.5-e0-6337~49~ubuntu16.04.1) date Tue Feb 14 01:47:49 2017*
%MOMM*%
%LPD*%
G01*
G04 APERTURE LIST*
%ADD10C,0.350000*%
%ADD11C,0.152400*%
%ADD12C,0.400000*%
%ADD13R,1.002400X0.652400*%
G04 APERTURE END LIST*
D10*
D11*
X32031577Y-30426539D02*
X31547768Y-30426539D01*
X31547768Y-29410539D01*
X32370244Y-29894349D02*
X32708910Y-29894349D01*
X32854053Y-30426539D02*
X32370244Y-30426539D01*
X32370244Y-29410539D01*
X32854053Y-29410539D01*
X33289482Y-30426539D02*
X33289482Y-29410539D01*
X33531387Y-29410539D01*
X33676529Y-29458920D01*
X33773291Y-29555682D01*
X33821672Y-29652444D01*
X33870053Y-29845968D01*
X33870053Y-29991110D01*
X33821672Y-30184634D01*
X33773291Y-30281396D01*
X33676529Y-30378158D01*
X33531387Y-30426539D01*
X33289482Y-30426539D01*
X23601196Y-30426539D02*
X23262530Y-29942730D01*
X23020625Y-30426539D02*
X23020625Y-29410539D01*
X23407672Y-29410539D01*
X23504434Y-29458920D01*
X23552815Y-29507301D01*
X23601196Y-29604063D01*
X23601196Y-29749206D01*
X23552815Y-29845968D01*
X23504434Y-29894349D01*
X23407672Y-29942730D01*
X23020625Y-29942730D01*
X24568815Y-29458920D02*
X24472053Y-29410539D01*
X24326910Y-29410539D01*
X24181768Y-29458920D01*
X24085006Y-29555682D01*
X24036625Y-29652444D01*
X23988244Y-29845968D01*
X23988244Y-29991110D01*
X24036625Y-30184634D01*
X24085006Y-30281396D01*
X24181768Y-30378158D01*
X24326910Y-30426539D01*
X24423672Y-30426539D01*
X24568815Y-30378158D01*
X24617196Y-30329777D01*
X24617196Y-29991110D01*
X24423672Y-29991110D01*
X25391291Y-29894349D02*
X25536434Y-29942730D01*
X25584815Y-29991110D01*
X25633196Y-30087872D01*
X25633196Y-30233015D01*
X25584815Y-30329777D01*
X25536434Y-30378158D01*
X25439672Y-30426539D01*
X25052625Y-30426539D01*
X25052625Y-29410539D01*
X25391291Y-29410539D01*
X25488053Y-29458920D01*
X25536434Y-29507301D01*
X25584815Y-29604063D01*
X25584815Y-29700825D01*
X25536434Y-29797587D01*
X25488053Y-29845968D01*
X25391291Y-29894349D01*
X25052625Y-29894349D01*
X30316956Y-37325179D02*
X29978290Y-36841370D01*
X29736385Y-37325179D02*
X29736385Y-36309179D01*
X30123432Y-36309179D01*
X30220194Y-36357560D01*
X30268575Y-36405941D01*
X30316956Y-36502703D01*
X30316956Y-36647846D01*
X30268575Y-36744608D01*
X30220194Y-36792989D01*
X30123432Y-36841370D01*
X29736385Y-36841370D01*
X30156815Y-22560280D02*
X30060053Y-22511899D01*
X29914910Y-22511899D01*
X29769768Y-22560280D01*
X29673006Y-22657042D01*
X29624625Y-22753804D01*
X29576244Y-22947328D01*
X29576244Y-23092470D01*
X29624625Y-23285994D01*
X29673006Y-23382756D01*
X29769768Y-23479518D01*
X29914910Y-23527899D01*
X30011672Y-23527899D01*
X30156815Y-23479518D01*
X30205196Y-23431137D01*
X30205196Y-23092470D01*
X30011672Y-23092470D01*
X27522956Y-37228417D02*
X27474575Y-37276798D01*
X27329432Y-37325179D01*
X27232670Y-37325179D01*
X27087528Y-37276798D01*
X26990766Y-37180036D01*
X26942385Y-37083274D01*
X26894004Y-36889750D01*
X26894004Y-36744608D01*
X26942385Y-36551084D01*
X26990766Y-36454322D01*
X27087528Y-36357560D01*
X27232670Y-36309179D01*
X27329432Y-36309179D01*
X27474575Y-36357560D01*
X27522956Y-36405941D01*
X27342011Y-22995709D02*
X27487154Y-23044090D01*
X27535535Y-23092470D01*
X27583916Y-23189232D01*
X27583916Y-23334375D01*
X27535535Y-23431137D01*
X27487154Y-23479518D01*
X27390392Y-23527899D01*
X27003345Y-23527899D01*
X27003345Y-22511899D01*
X27342011Y-22511899D01*
X27438773Y-22560280D01*
X27487154Y-22608661D01*
X27535535Y-22705423D01*
X27535535Y-22802185D01*
X27487154Y-22898947D01*
X27438773Y-22947328D01*
X27342011Y-22995709D01*
X27003345Y-22995709D01*
D12*
X27720280Y-29369960D02*
X24720280Y-25969960D01*
X27820280Y-30369960D02*
X24420280Y-33369960D01*
X29320280Y-29369960D02*
X32720280Y-26369960D01*
X29320280Y-30369960D02*
X32320280Y-33769960D01*
%LPC*%
D13*
X27720280Y-30369960D03*
X27720280Y-29369960D03*
X29470280Y-30369960D03*
X29470280Y-29369960D03*
M02*
