%TF.GenerationSoftware,KiCad,Pcbnew,4.0.5-e0-6337~49~ubuntu16.04.1*%
%TF.CreationDate,2017-01-18T12:25:50-08:00*%
%TF.ProjectId,2x2-LED-TH-5mm-Pitch,3278322D4C45442D54482D356D6D2D50,1.0*%
%TF.FileFunction,Soldermask,Top*%
%FSLAX46Y46*%
G04 Gerber Fmt 4.6, Leading zero omitted, Abs format (unit mm)*
G04 Created by KiCad (PCBNEW 4.0.5-e0-6337~49~ubuntu16.04.1) date Wed Jan 18 12:25:50 2017*
%MOMM*%
%LPD*%
G01*
G04 APERTURE LIST*
%ADD10C,0.350000*%
G04 APERTURE END LIST*
D10*
G36*
X130499110Y-105764847D02*
X131090055Y-105886151D01*
X131646198Y-106119932D01*
X132146334Y-106457278D01*
X132571421Y-106885343D01*
X132905266Y-107387821D01*
X133135156Y-107945576D01*
X133252264Y-108537014D01*
X133252264Y-108537024D01*
X133252331Y-108537363D01*
X133242710Y-109226416D01*
X133242633Y-109226754D01*
X133242633Y-109226762D01*
X133109057Y-109814701D01*
X132863685Y-110365816D01*
X132515937Y-110858778D01*
X132079062Y-111274809D01*
X131569700Y-111598061D01*
X131007254Y-111816219D01*
X130413147Y-111920976D01*
X129810003Y-111908342D01*
X129220800Y-111778797D01*
X128667982Y-111537277D01*
X128172607Y-111192982D01*
X127753537Y-110759023D01*
X127426738Y-110251930D01*
X127204656Y-109691014D01*
X127095755Y-109097658D01*
X127104177Y-108494441D01*
X127229606Y-107904347D01*
X127467259Y-107349858D01*
X127808091Y-106852088D01*
X128239112Y-106430000D01*
X128743913Y-106099668D01*
X129303259Y-105873677D01*
X129895845Y-105760636D01*
X130499110Y-105764847D01*
X130499110Y-105764847D01*
G37*
G36*
X138499110Y-105764847D02*
X139090055Y-105886151D01*
X139646198Y-106119932D01*
X140146334Y-106457278D01*
X140571421Y-106885343D01*
X140905266Y-107387821D01*
X141135156Y-107945576D01*
X141252264Y-108537014D01*
X141252264Y-108537024D01*
X141252331Y-108537363D01*
X141242710Y-109226416D01*
X141242633Y-109226754D01*
X141242633Y-109226762D01*
X141109057Y-109814701D01*
X140863685Y-110365816D01*
X140515937Y-110858778D01*
X140079062Y-111274809D01*
X139569700Y-111598061D01*
X139007254Y-111816219D01*
X138413147Y-111920976D01*
X137810003Y-111908342D01*
X137220800Y-111778797D01*
X136667982Y-111537277D01*
X136172607Y-111192982D01*
X135753537Y-110759023D01*
X135426738Y-110251930D01*
X135204656Y-109691014D01*
X135095755Y-109097658D01*
X135104177Y-108494441D01*
X135229606Y-107904347D01*
X135467259Y-107349858D01*
X135808091Y-106852088D01*
X136239112Y-106430000D01*
X136743913Y-106099668D01*
X137303259Y-105873677D01*
X137895845Y-105760636D01*
X138499110Y-105764847D01*
X138499110Y-105764847D01*
G37*
G36*
X134283790Y-106313481D02*
X134480921Y-106353947D01*
X134666451Y-106431937D01*
X134833292Y-106544473D01*
X134975098Y-106687272D01*
X135086466Y-106854895D01*
X135163156Y-107040958D01*
X135202176Y-107238027D01*
X135202176Y-107238032D01*
X135202244Y-107238376D01*
X135199034Y-107468239D01*
X135198957Y-107468577D01*
X135198957Y-107468586D01*
X135154449Y-107664490D01*
X135072596Y-107848335D01*
X134956588Y-108012786D01*
X134810850Y-108151571D01*
X134640931Y-108259405D01*
X134453299Y-108332182D01*
X134255112Y-108367128D01*
X134053905Y-108362913D01*
X133857351Y-108319699D01*
X133672933Y-108239128D01*
X133507682Y-108124275D01*
X133367882Y-107979509D01*
X133258864Y-107810345D01*
X133184777Y-107623224D01*
X133148449Y-107425288D01*
X133151258Y-107224058D01*
X133193102Y-107027205D01*
X133272380Y-106842232D01*
X133386080Y-106676178D01*
X133529865Y-106535373D01*
X133698265Y-106425176D01*
X133884860Y-106349786D01*
X134082540Y-106312077D01*
X134283790Y-106313481D01*
X134283790Y-106313481D01*
G37*
G36*
X130499110Y-97764847D02*
X131090055Y-97886151D01*
X131646198Y-98119932D01*
X132146334Y-98457278D01*
X132571421Y-98885343D01*
X132905266Y-99387821D01*
X133135156Y-99945576D01*
X133252264Y-100537014D01*
X133252264Y-100537024D01*
X133252331Y-100537363D01*
X133242710Y-101226416D01*
X133242633Y-101226754D01*
X133242633Y-101226762D01*
X133109057Y-101814701D01*
X132863685Y-102365816D01*
X132515937Y-102858778D01*
X132079062Y-103274809D01*
X131569700Y-103598061D01*
X131007254Y-103816219D01*
X130413147Y-103920976D01*
X129810003Y-103908342D01*
X129220800Y-103778797D01*
X128667982Y-103537277D01*
X128172607Y-103192982D01*
X127753537Y-102759023D01*
X127426738Y-102251930D01*
X127204656Y-101691014D01*
X127095755Y-101097658D01*
X127104177Y-100494441D01*
X127229606Y-99904347D01*
X127467259Y-99349858D01*
X127808091Y-98852088D01*
X128239112Y-98430000D01*
X128743913Y-98099668D01*
X129303259Y-97873677D01*
X129895845Y-97760636D01*
X130499110Y-97764847D01*
X130499110Y-97764847D01*
G37*
G36*
X138499110Y-97764847D02*
X139090055Y-97886151D01*
X139646198Y-98119932D01*
X140146334Y-98457278D01*
X140571421Y-98885343D01*
X140905266Y-99387821D01*
X141135156Y-99945576D01*
X141252264Y-100537014D01*
X141252264Y-100537024D01*
X141252331Y-100537363D01*
X141242710Y-101226416D01*
X141242633Y-101226754D01*
X141242633Y-101226762D01*
X141109057Y-101814701D01*
X140863685Y-102365816D01*
X140515937Y-102858778D01*
X140079062Y-103274809D01*
X139569700Y-103598061D01*
X139007254Y-103816219D01*
X138413147Y-103920976D01*
X137810003Y-103908342D01*
X137220800Y-103778797D01*
X136667982Y-103537277D01*
X136172607Y-103192982D01*
X135753537Y-102759023D01*
X135426738Y-102251930D01*
X135204656Y-101691014D01*
X135095755Y-101097658D01*
X135104177Y-100494441D01*
X135229606Y-99904347D01*
X135467259Y-99349858D01*
X135808091Y-98852088D01*
X136239112Y-98430000D01*
X136743913Y-98099668D01*
X137303259Y-97873677D01*
X137895845Y-97760636D01*
X138499110Y-97764847D01*
X138499110Y-97764847D01*
G37*
G36*
X134289042Y-101263515D02*
X134495777Y-101305952D01*
X134690347Y-101387741D01*
X134865318Y-101505761D01*
X135014033Y-101655518D01*
X135130827Y-101831308D01*
X135211253Y-102026436D01*
X135252178Y-102233124D01*
X135252178Y-102233129D01*
X135252246Y-102233473D01*
X135248880Y-102474536D01*
X135248803Y-102474874D01*
X135248803Y-102474883D01*
X135202122Y-102680349D01*
X135116281Y-102873152D01*
X134994621Y-103045615D01*
X134841782Y-103191162D01*
X134663584Y-103304250D01*
X134466810Y-103380573D01*
X134258967Y-103417222D01*
X134047957Y-103412802D01*
X133841825Y-103367481D01*
X133648422Y-103282985D01*
X133475119Y-103162536D01*
X133328508Y-103010717D01*
X133214178Y-102833310D01*
X133136481Y-102637072D01*
X133098384Y-102429492D01*
X133101330Y-102218458D01*
X133145211Y-102012013D01*
X133228353Y-101818028D01*
X133347593Y-101643883D01*
X133498384Y-101496217D01*
X133674988Y-101380651D01*
X133870675Y-101301588D01*
X134077987Y-101262042D01*
X134289042Y-101263515D01*
X134289042Y-101263515D01*
G37*
M02*
