%TF.GenerationSoftware,KiCad,Pcbnew,4.0.5-e0-6337~49~ubuntu16.04.1*%
%TF.CreationDate,2017-02-14T00:04:09-08:00*%
%TF.ProjectId,3x4-CR2032-Coin-Cell-Magnet,3378342D4352323033322D436F696E2D,1.0*%
%TF.FileFunction,Other,Fab,Top*%
%FSLAX46Y46*%
G04 Gerber Fmt 4.6, Leading zero omitted, Abs format (unit mm)*
G04 Created by KiCad (PCBNEW 4.0.5-e0-6337~49~ubuntu16.04.1) date Tue Feb 14 00:04:09 2017*
%MOMM*%
%LPD*%
G01*
G04 APERTURE LIST*
%ADD10C,0.350000*%
%ADD11C,0.050000*%
%ADD12C,0.150000*%
G04 APERTURE END LIST*
D10*
D11*
X17969800Y-49431400D02*
X17969800Y-73431400D01*
X41569800Y-49431400D02*
X41569800Y-73431400D01*
X21769800Y-45631400D02*
X37769800Y-45631400D01*
X21769800Y-45631400D02*
G75*
G03X17969800Y-49431400I0J-3800000D01*
G01*
X41569800Y-49431400D02*
G75*
G03X37769800Y-45631400I-3800000J0D01*
G01*
X37769800Y-77231400D02*
G75*
G03X41569800Y-73431400I0J3800000D01*
G01*
X17969800Y-73431400D02*
G75*
G03X21769800Y-77231400I3800000J0D01*
G01*
X21769800Y-77231400D02*
X37769800Y-77231400D01*
D12*
X28984086Y-57359971D02*
X29126943Y-57407590D01*
X29174562Y-57455210D01*
X29222181Y-57550448D01*
X29222181Y-57693305D01*
X29174562Y-57788543D01*
X29126943Y-57836162D01*
X29031705Y-57883781D01*
X28650752Y-57883781D01*
X28650752Y-56883781D01*
X28984086Y-56883781D01*
X29079324Y-56931400D01*
X29126943Y-56979019D01*
X29174562Y-57074257D01*
X29174562Y-57169495D01*
X29126943Y-57264733D01*
X29079324Y-57312352D01*
X28984086Y-57359971D01*
X28650752Y-57359971D01*
X29507895Y-56883781D02*
X30079324Y-56883781D01*
X29793609Y-57883781D02*
X29793609Y-56883781D01*
X30936467Y-57883781D02*
X30365038Y-57883781D01*
X30650752Y-57883781D02*
X30650752Y-56883781D01*
X30555514Y-57026638D01*
X30460276Y-57121876D01*
X30365038Y-57169495D01*
M02*
