G04 This is an RS-274x file exported by *
G04 gerbv version 2.6.0 *
G04 More information is available about gerbv at *
G04 http://gerbv.gpleda.org/ *
G04 --End of header info--*
%MOIN*%
%FSLAX34Y34*%
%IPPOS*%
G04 --Define apertures--*
%ADD10C,0.0020*%
%ADD11C,0.0050*%
%ADD12C,0.0059*%
%ADD13C,0.0031*%
G04 --Start main section--*
G54D10*
G01X0008571Y-030406D02*
G01X0014870Y-030406D01*
G01X0007075Y-028910D02*
G75*
G03X0008571Y-030406I0001496J0000000D01*
G01X0014870Y-030406D02*
G75*
G03X0016366Y-028910I0000000J0001496D01*
G01X0016366Y-019461D02*
G75*
G03X0014870Y-017965I-001496J0000000D01*
G01X0008571Y-017965D02*
G75*
G03X0007075Y-019461I0000000J-001496D01*
G01X0008571Y-017965D02*
G01X0014870Y-017965D01*
G01X0016366Y-019461D02*
G01X0016366Y-028910D01*
G01X0007075Y-019461D02*
G01X0007075Y-028910D01*
G54D11*
G01X0012700Y-021408D02*
G75*
G02X0010716Y-021430I-000979J-001163D01*
G01X0011661Y-019402D02*
G01X0011661Y-020209D01*
G01X0011661Y-020209D02*
G01X0011386Y-019953D01*
G01X0011661Y-020209D02*
G01X0011957Y-019953D01*
G54D12*
G01X0011411Y-022583D02*
G01X0011467Y-022601D01*
G01X0011467Y-022601D02*
G01X0011486Y-022620D01*
G01X0011486Y-022620D02*
G01X0011505Y-022658D01*
G01X0011505Y-022658D02*
G01X0011505Y-022714D01*
G01X0011505Y-022714D02*
G01X0011486Y-022751D01*
G01X0011486Y-022751D02*
G01X0011467Y-022770D01*
G01X0011467Y-022770D02*
G01X0011430Y-022789D01*
G01X0011430Y-022789D02*
G01X0011280Y-022789D01*
G01X0011280Y-022789D02*
G01X0011280Y-022395D01*
G01X0011280Y-022395D02*
G01X0011411Y-022395D01*
G01X0011411Y-022395D02*
G01X0011449Y-022414D01*
G01X0011449Y-022414D02*
G01X0011467Y-022433D01*
G01X0011467Y-022433D02*
G01X0011486Y-022470D01*
G01X0011486Y-022470D02*
G01X0011486Y-022508D01*
G01X0011486Y-022508D02*
G01X0011467Y-022545D01*
G01X0011467Y-022545D02*
G01X0011449Y-022564D01*
G01X0011449Y-022564D02*
G01X0011411Y-022583D01*
G01X0011411Y-022583D02*
G01X0011280Y-022583D01*
G01X0011617Y-022395D02*
G01X0011842Y-022395D01*
G01X0011730Y-022789D02*
G01X0011730Y-022395D01*
G01X0012180Y-022789D02*
G01X0011955Y-022789D01*
G01X0012067Y-022789D02*
G01X0012067Y-022395D01*
G01X0012067Y-022395D02*
G01X0012030Y-022451D01*
G01X0012030Y-022451D02*
G01X0011992Y-022489D01*
G01X0011992Y-022489D02*
G01X0011955Y-022508D01*
G01X0010762Y-021037D02*
G01X0010762Y-020643D01*
G01X0010950Y-021037D02*
G01X0010950Y-020643D01*
G01X0010950Y-020643D02*
G01X0011175Y-021037D01*
G01X0011175Y-021037D02*
G01X0011175Y-020643D01*
G01X0011344Y-021018D02*
G01X0011400Y-021037D01*
G01X0011400Y-021037D02*
G01X0011494Y-021037D01*
G01X0011494Y-021037D02*
G01X0011531Y-021018D01*
G01X0011531Y-021018D02*
G01X0011550Y-020999D01*
G01X0011550Y-020999D02*
G01X0011569Y-020962D01*
G01X0011569Y-020962D02*
G01X0011569Y-020924D01*
G01X0011569Y-020924D02*
G01X0011550Y-020887D01*
G01X0011550Y-020887D02*
G01X0011531Y-020868D01*
G01X0011531Y-020868D02*
G01X0011494Y-020849D01*
G01X0011494Y-020849D02*
G01X0011419Y-020831D01*
G01X0011419Y-020831D02*
G01X0011381Y-020812D01*
G01X0011381Y-020812D02*
G01X0011362Y-020793D01*
G01X0011362Y-020793D02*
G01X0011344Y-020756D01*
G01X0011344Y-020756D02*
G01X0011344Y-020718D01*
G01X0011344Y-020718D02*
G01X0011362Y-020681D01*
G01X0011362Y-020681D02*
G01X0011381Y-020662D01*
G01X0011381Y-020662D02*
G01X0011419Y-020643D01*
G01X0011419Y-020643D02*
G01X0011512Y-020643D01*
G01X0011512Y-020643D02*
G01X0011569Y-020662D01*
G01X0011737Y-020831D02*
G01X0011869Y-020831D01*
G01X0011925Y-021037D02*
G01X0011737Y-021037D01*
G01X0011737Y-021037D02*
G01X0011737Y-020643D01*
G01X0011737Y-020643D02*
G01X0011925Y-020643D01*
G01X0012318Y-021037D02*
G01X0012187Y-020849D01*
G01X0012093Y-021037D02*
G01X0012093Y-020643D01*
G01X0012093Y-020643D02*
G01X0012243Y-020643D01*
G01X0012243Y-020643D02*
G01X0012281Y-020662D01*
G01X0012281Y-020662D02*
G01X0012300Y-020681D01*
G01X0012300Y-020681D02*
G01X0012318Y-020718D01*
G01X0012318Y-020718D02*
G01X0012318Y-020774D01*
G01X0012318Y-020774D02*
G01X0012300Y-020812D01*
G01X0012300Y-020812D02*
G01X0012281Y-020831D01*
G01X0012281Y-020831D02*
G01X0012243Y-020849D01*
G01X0012243Y-020849D02*
G01X0012093Y-020849D01*
G01X0012431Y-020643D02*
G01X0012656Y-020643D01*
G01X0012543Y-021037D02*
G01X0012543Y-020643D01*
G01X0000000Y0000000D02*
G54D13*
G01X0008571Y-030406D02*
G01X0014870Y-030406D01*
G01X0007075Y-028910D02*
G75*
G03X0008571Y-030406I0001496J0000000D01*
G01X0014870Y-030406D02*
G75*
G03X0016366Y-028910I0000000J0001496D01*
G01X0016366Y-019461D02*
G75*
G03X0014870Y-017965I-001496J0000000D01*
G01X0008571Y-017965D02*
G75*
G03X0007075Y-019461I0000000J-001496D01*
G01X0008571Y-017965D02*
G01X0014870Y-017965D01*
G01X0016366Y-019461D02*
G01X0016366Y-028910D01*
G01X0007075Y-019461D02*
G01X0007075Y-028910D01*
M02*
