%TF.GenerationSoftware,KiCad,Pcbnew,5.0.2-bee76a0~70~ubuntu16.04.1*%
%TF.CreationDate,2019-04-24T07:34:47-07:00*%
%TF.ProjectId,3x4-CR2032-Coin-Cell-Magnet,3378342d-4352-4323-9033-322d436f696e,v1.4*%
%TF.SameCoordinates,Original*%
%TF.FileFunction,Soldermask,Bot*%
%TF.FilePolarity,Negative*%
%FSLAX46Y46*%
G04 Gerber Fmt 4.6, Leading zero omitted, Abs format (unit mm)*
G04 Created by KiCad (PCBNEW 5.0.2-bee76a0~70~ubuntu16.04.1) date Wed Apr 24 07:34:47 2019*
%MOMM*%
%LPD*%
G01*
G04 APERTURE LIST*
%ADD10C,0.350000*%
G04 APERTURE END LIST*
D10*
G36*
X22299846Y-70219083D02*
X22718959Y-70302449D01*
X23311145Y-70547741D01*
X23311147Y-70547742D01*
X23577626Y-70725798D01*
X23844106Y-70903854D01*
X24297346Y-71357094D01*
X24653459Y-71890055D01*
X24898751Y-72482241D01*
X25023800Y-73110910D01*
X25023800Y-73751890D01*
X24898751Y-74380559D01*
X24653459Y-74972745D01*
X24297346Y-75505706D01*
X23844106Y-75958946D01*
X23577626Y-76137002D01*
X23311147Y-76315058D01*
X23311146Y-76315059D01*
X23311145Y-76315059D01*
X22718959Y-76560351D01*
X22299846Y-76643717D01*
X22090291Y-76685400D01*
X21449309Y-76685400D01*
X21239754Y-76643717D01*
X20820641Y-76560351D01*
X20228455Y-76315059D01*
X20228454Y-76315059D01*
X20228453Y-76315058D01*
X19961975Y-76137003D01*
X19695494Y-75958946D01*
X19242254Y-75505706D01*
X18886141Y-74972745D01*
X18640849Y-74380559D01*
X18515800Y-73751890D01*
X18515800Y-73110910D01*
X18640849Y-72482241D01*
X18886141Y-71890055D01*
X19242254Y-71357094D01*
X19695494Y-70903854D01*
X19961974Y-70725798D01*
X20228453Y-70547742D01*
X20228455Y-70547741D01*
X20820641Y-70302449D01*
X21239754Y-70219083D01*
X21449309Y-70177400D01*
X22090291Y-70177400D01*
X22299846Y-70219083D01*
X22299846Y-70219083D01*
G37*
G36*
X38299846Y-70219083D02*
X38718959Y-70302449D01*
X39311145Y-70547741D01*
X39311147Y-70547742D01*
X39577626Y-70725798D01*
X39844106Y-70903854D01*
X40297346Y-71357094D01*
X40653459Y-71890055D01*
X40898751Y-72482241D01*
X41023800Y-73110910D01*
X41023800Y-73751890D01*
X40898751Y-74380559D01*
X40653459Y-74972745D01*
X40297346Y-75505706D01*
X39844106Y-75958946D01*
X39577626Y-76137002D01*
X39311147Y-76315058D01*
X39311146Y-76315059D01*
X39311145Y-76315059D01*
X38718959Y-76560351D01*
X38299846Y-76643717D01*
X38090291Y-76685400D01*
X37449309Y-76685400D01*
X37239754Y-76643717D01*
X36820641Y-76560351D01*
X36228455Y-76315059D01*
X36228454Y-76315059D01*
X36228453Y-76315058D01*
X35961975Y-76137003D01*
X35695494Y-75958946D01*
X35242254Y-75505706D01*
X34886141Y-74972745D01*
X34640849Y-74380559D01*
X34515800Y-73751890D01*
X34515800Y-73110910D01*
X34640849Y-72482241D01*
X34886141Y-71890055D01*
X35242254Y-71357094D01*
X35695494Y-70903854D01*
X35961975Y-70725797D01*
X36228453Y-70547742D01*
X36228455Y-70547741D01*
X36820641Y-70302449D01*
X37239754Y-70219083D01*
X37449309Y-70177400D01*
X38090291Y-70177400D01*
X38299846Y-70219083D01*
X38299846Y-70219083D01*
G37*
G36*
X22299846Y-62219083D02*
X22718959Y-62302449D01*
X23311145Y-62547741D01*
X23311147Y-62547742D01*
X23520160Y-62687400D01*
X23844106Y-62903854D01*
X24297346Y-63357094D01*
X24297347Y-63357096D01*
X24514576Y-63682201D01*
X24653459Y-63890055D01*
X24898751Y-64482241D01*
X25023800Y-65110910D01*
X25023800Y-65751890D01*
X24898751Y-66380559D01*
X24753523Y-66731169D01*
X24653458Y-66972747D01*
X24475403Y-67239225D01*
X24297346Y-67505706D01*
X23844106Y-67958946D01*
X23677977Y-68069950D01*
X23311147Y-68315058D01*
X23311146Y-68315059D01*
X23311145Y-68315059D01*
X22718959Y-68560351D01*
X22299846Y-68643717D01*
X22090291Y-68685400D01*
X21449309Y-68685400D01*
X21239754Y-68643717D01*
X20820641Y-68560351D01*
X20228455Y-68315059D01*
X20228454Y-68315059D01*
X20228453Y-68315058D01*
X19861623Y-68069950D01*
X19695494Y-67958946D01*
X19242254Y-67505706D01*
X19064197Y-67239225D01*
X18886142Y-66972747D01*
X18786077Y-66731169D01*
X18640849Y-66380559D01*
X18515800Y-65751890D01*
X18515800Y-65110910D01*
X18640849Y-64482241D01*
X18886141Y-63890055D01*
X19025025Y-63682201D01*
X19242253Y-63357096D01*
X19242254Y-63357094D01*
X19695494Y-62903854D01*
X20019440Y-62687400D01*
X20228453Y-62547742D01*
X20228455Y-62547741D01*
X20820641Y-62302449D01*
X21239754Y-62219083D01*
X21449309Y-62177400D01*
X22090291Y-62177400D01*
X22299846Y-62219083D01*
X22299846Y-62219083D01*
G37*
G36*
X38299846Y-62219083D02*
X38718959Y-62302449D01*
X39311145Y-62547741D01*
X39311147Y-62547742D01*
X39520160Y-62687400D01*
X39844106Y-62903854D01*
X40297346Y-63357094D01*
X40297347Y-63357096D01*
X40514576Y-63682201D01*
X40653459Y-63890055D01*
X40898751Y-64482241D01*
X41023800Y-65110910D01*
X41023800Y-65751890D01*
X40898751Y-66380559D01*
X40753523Y-66731169D01*
X40653458Y-66972747D01*
X40475403Y-67239225D01*
X40297346Y-67505706D01*
X39844106Y-67958946D01*
X39677977Y-68069950D01*
X39311147Y-68315058D01*
X39311146Y-68315059D01*
X39311145Y-68315059D01*
X38718959Y-68560351D01*
X38299846Y-68643717D01*
X38090291Y-68685400D01*
X37449309Y-68685400D01*
X37239754Y-68643717D01*
X36820641Y-68560351D01*
X36228455Y-68315059D01*
X36228454Y-68315059D01*
X36228453Y-68315058D01*
X35861623Y-68069950D01*
X35695494Y-67958946D01*
X35242254Y-67505706D01*
X35064197Y-67239225D01*
X34886142Y-66972747D01*
X34786077Y-66731169D01*
X34640849Y-66380559D01*
X34515800Y-65751890D01*
X34515800Y-65110910D01*
X34640849Y-64482241D01*
X34886141Y-63890055D01*
X35025025Y-63682201D01*
X35242253Y-63357096D01*
X35242254Y-63357094D01*
X35695494Y-62903854D01*
X36019440Y-62687400D01*
X36228453Y-62547742D01*
X36228455Y-62547741D01*
X36820641Y-62302449D01*
X37239754Y-62219083D01*
X37449309Y-62177400D01*
X38090291Y-62177400D01*
X38299846Y-62219083D01*
X38299846Y-62219083D01*
G37*
G36*
X30570197Y-62792850D02*
X31069569Y-62999697D01*
X31518999Y-63299997D01*
X31901203Y-63682201D01*
X32201503Y-64131631D01*
X32408350Y-64631003D01*
X32513800Y-65161140D01*
X32513800Y-65701660D01*
X32408350Y-66231797D01*
X32201503Y-66731169D01*
X31901203Y-67180599D01*
X31518999Y-67562803D01*
X31069569Y-67863103D01*
X30570197Y-68069950D01*
X30040060Y-68175400D01*
X29499540Y-68175400D01*
X28969403Y-68069950D01*
X28470031Y-67863103D01*
X28020601Y-67562803D01*
X27638397Y-67180599D01*
X27338097Y-66731169D01*
X27131250Y-66231797D01*
X27025800Y-65701660D01*
X27025800Y-65161140D01*
X27131250Y-64631003D01*
X27338097Y-64131631D01*
X27638397Y-63682201D01*
X28020601Y-63299997D01*
X28470031Y-62999697D01*
X28969403Y-62792850D01*
X29499540Y-62687400D01*
X30040060Y-62687400D01*
X30570197Y-62792850D01*
X30570197Y-62792850D01*
G37*
G36*
X30570197Y-54792850D02*
X31069569Y-54999697D01*
X31518999Y-55299997D01*
X31901203Y-55682201D01*
X32201503Y-56131631D01*
X32408350Y-56631003D01*
X32513800Y-57161140D01*
X32513800Y-57701660D01*
X32408350Y-58231797D01*
X32201503Y-58731169D01*
X31901203Y-59180599D01*
X31518999Y-59562803D01*
X31069569Y-59863103D01*
X30570197Y-60069950D01*
X30040060Y-60175400D01*
X29499540Y-60175400D01*
X28969403Y-60069950D01*
X28470031Y-59863103D01*
X28020601Y-59562803D01*
X27638397Y-59180599D01*
X27338097Y-58731169D01*
X27131250Y-58231797D01*
X27025800Y-57701660D01*
X27025800Y-57161140D01*
X27131250Y-56631003D01*
X27338097Y-56131631D01*
X27638397Y-55682201D01*
X28020601Y-55299997D01*
X28470031Y-54999697D01*
X28969403Y-54792850D01*
X29499540Y-54687400D01*
X30040060Y-54687400D01*
X30570197Y-54792850D01*
X30570197Y-54792850D01*
G37*
G36*
X22570197Y-54792850D02*
X23069569Y-54999697D01*
X23518999Y-55299997D01*
X23901203Y-55682201D01*
X24201503Y-56131631D01*
X24408350Y-56631003D01*
X24513800Y-57161140D01*
X24513800Y-57701660D01*
X24408350Y-58231797D01*
X24201503Y-58731169D01*
X23901203Y-59180599D01*
X23518999Y-59562803D01*
X23069569Y-59863103D01*
X22570197Y-60069950D01*
X22040060Y-60175400D01*
X21499540Y-60175400D01*
X20969403Y-60069950D01*
X20470031Y-59863103D01*
X20020601Y-59562803D01*
X19638397Y-59180599D01*
X19338097Y-58731169D01*
X19131250Y-58231797D01*
X19025800Y-57701660D01*
X19025800Y-57161140D01*
X19131250Y-56631003D01*
X19338097Y-56131631D01*
X19638397Y-55682201D01*
X20020601Y-55299997D01*
X20470031Y-54999697D01*
X20969403Y-54792850D01*
X21499540Y-54687400D01*
X22040060Y-54687400D01*
X22570197Y-54792850D01*
X22570197Y-54792850D01*
G37*
G36*
X38570197Y-54792850D02*
X39069569Y-54999697D01*
X39518999Y-55299997D01*
X39901203Y-55682201D01*
X40201503Y-56131631D01*
X40408350Y-56631003D01*
X40513800Y-57161140D01*
X40513800Y-57701660D01*
X40408350Y-58231797D01*
X40201503Y-58731169D01*
X39901203Y-59180599D01*
X39518999Y-59562803D01*
X39069569Y-59863103D01*
X38570197Y-60069950D01*
X38040060Y-60175400D01*
X37499540Y-60175400D01*
X36969403Y-60069950D01*
X36470031Y-59863103D01*
X36020601Y-59562803D01*
X35638397Y-59180599D01*
X35338097Y-58731169D01*
X35131250Y-58231797D01*
X35025800Y-57701660D01*
X35025800Y-57161140D01*
X35131250Y-56631003D01*
X35338097Y-56131631D01*
X35638397Y-55682201D01*
X36020601Y-55299997D01*
X36470031Y-54999697D01*
X36969403Y-54792850D01*
X37499540Y-54687400D01*
X38040060Y-54687400D01*
X38570197Y-54792850D01*
X38570197Y-54792850D01*
G37*
G36*
X22299846Y-46219083D02*
X22718959Y-46302449D01*
X23311145Y-46547741D01*
X23311147Y-46547742D01*
X23520160Y-46687400D01*
X23844106Y-46903854D01*
X24297346Y-47357094D01*
X24297347Y-47357096D01*
X24514576Y-47682201D01*
X24653459Y-47890055D01*
X24898751Y-48482241D01*
X25023800Y-49110910D01*
X25023800Y-49751890D01*
X24898751Y-50380559D01*
X24753523Y-50731169D01*
X24653458Y-50972747D01*
X24475402Y-51239226D01*
X24297346Y-51505706D01*
X23844106Y-51958946D01*
X23677977Y-52069950D01*
X23311147Y-52315058D01*
X23311146Y-52315059D01*
X23311145Y-52315059D01*
X22718959Y-52560351D01*
X22299846Y-52643717D01*
X22090291Y-52685400D01*
X21449309Y-52685400D01*
X21239754Y-52643717D01*
X20820641Y-52560351D01*
X20228455Y-52315059D01*
X20228454Y-52315059D01*
X20228453Y-52315058D01*
X19861623Y-52069950D01*
X19695494Y-51958946D01*
X19242254Y-51505706D01*
X19064198Y-51239226D01*
X18886142Y-50972747D01*
X18786077Y-50731169D01*
X18640849Y-50380559D01*
X18515800Y-49751890D01*
X18515800Y-49110910D01*
X18640849Y-48482241D01*
X18886141Y-47890055D01*
X19025025Y-47682201D01*
X19242253Y-47357096D01*
X19242254Y-47357094D01*
X19695494Y-46903854D01*
X20019440Y-46687400D01*
X20228453Y-46547742D01*
X20228455Y-46547741D01*
X20820641Y-46302449D01*
X21239754Y-46219083D01*
X21449309Y-46177400D01*
X22090291Y-46177400D01*
X22299846Y-46219083D01*
X22299846Y-46219083D01*
G37*
G36*
X38299846Y-46219083D02*
X38718959Y-46302449D01*
X39311145Y-46547741D01*
X39311147Y-46547742D01*
X39520160Y-46687400D01*
X39844106Y-46903854D01*
X40297346Y-47357094D01*
X40297347Y-47357096D01*
X40514576Y-47682201D01*
X40653459Y-47890055D01*
X40898751Y-48482241D01*
X41023800Y-49110910D01*
X41023800Y-49751890D01*
X40898751Y-50380559D01*
X40753523Y-50731169D01*
X40653458Y-50972747D01*
X40475403Y-51239225D01*
X40297346Y-51505706D01*
X39844106Y-51958946D01*
X39677977Y-52069950D01*
X39311147Y-52315058D01*
X39311146Y-52315059D01*
X39311145Y-52315059D01*
X38718959Y-52560351D01*
X38299846Y-52643717D01*
X38090291Y-52685400D01*
X37449309Y-52685400D01*
X37239754Y-52643717D01*
X36820641Y-52560351D01*
X36228455Y-52315059D01*
X36228454Y-52315059D01*
X36228453Y-52315058D01*
X35861623Y-52069950D01*
X35695494Y-51958946D01*
X35242254Y-51505706D01*
X35064198Y-51239226D01*
X34886142Y-50972747D01*
X34786077Y-50731169D01*
X34640849Y-50380559D01*
X34515800Y-49751890D01*
X34515800Y-49110910D01*
X34640849Y-48482241D01*
X34886141Y-47890055D01*
X35025025Y-47682201D01*
X35242253Y-47357096D01*
X35242254Y-47357094D01*
X35695494Y-46903854D01*
X36019440Y-46687400D01*
X36228453Y-46547742D01*
X36228455Y-46547741D01*
X36820641Y-46302449D01*
X37239754Y-46219083D01*
X37449309Y-46177400D01*
X38090291Y-46177400D01*
X38299846Y-46219083D01*
X38299846Y-46219083D01*
G37*
G36*
X30570197Y-46792850D02*
X31069569Y-46999697D01*
X31518999Y-47299997D01*
X31901203Y-47682201D01*
X32201503Y-48131631D01*
X32408350Y-48631003D01*
X32513800Y-49161140D01*
X32513800Y-49701660D01*
X32408350Y-50231797D01*
X32201503Y-50731169D01*
X31901203Y-51180599D01*
X31518999Y-51562803D01*
X31069569Y-51863103D01*
X30570197Y-52069950D01*
X30040060Y-52175400D01*
X29499540Y-52175400D01*
X28969403Y-52069950D01*
X28470031Y-51863103D01*
X28020601Y-51562803D01*
X27638397Y-51180599D01*
X27338097Y-50731169D01*
X27131250Y-50231797D01*
X27025800Y-49701660D01*
X27025800Y-49161140D01*
X27131250Y-48631003D01*
X27338097Y-48131631D01*
X27638397Y-47682201D01*
X28020601Y-47299997D01*
X28470031Y-46999697D01*
X28969403Y-46792850D01*
X29499540Y-46687400D01*
X30040060Y-46687400D01*
X30570197Y-46792850D01*
X30570197Y-46792850D01*
G37*
M02*
