%TF.GenerationSoftware,KiCad,Pcbnew,5.0.0-fee4fd1~66~ubuntu16.04.1*%
%TF.CreationDate,2018-09-25T21:07:20-07:00*%
%TF.ProjectId,3x4-CR2032-Coin-Cell-Magnet,3378342D4352323033322D436F696E2D,v1.2*%
%TF.SameCoordinates,Original*%
%TF.FileFunction,Soldermask,Top*%
%TF.FilePolarity,Negative*%
%FSLAX46Y46*%
G04 Gerber Fmt 4.6, Leading zero omitted, Abs format (unit mm)*
G04 Created by KiCad (PCBNEW 5.0.0-fee4fd1~66~ubuntu16.04.1) date Tue Sep 25 21:07:20 2018*
%MOMM*%
%LPD*%
G01*
G04 APERTURE LIST*
%ADD10C,0.600000*%
%ADD11C,0.350000*%
G04 APERTURE END LIST*
D10*
X37819800Y-68181400D02*
G75*
G03X37771562Y-62681823I-48238J2749577D01*
G01*
X21719800Y-62681400D02*
G75*
G03X21768038Y-68180977I48238J-2749577D01*
G01*
X21671562Y-46681823D02*
G75*
G03X21719800Y-52181400I48238J-2749577D01*
G01*
X37769800Y-52131400D02*
G75*
G03X37769800Y-46731400I0J2700000D01*
G01*
D11*
G36*
X38667096Y-70473417D02*
X39226925Y-70705306D01*
X39226927Y-70705307D01*
X39730763Y-71041960D01*
X40159239Y-71470436D01*
X40495894Y-71974275D01*
X40727783Y-72534104D01*
X40846000Y-73128421D01*
X40846000Y-73734379D01*
X40727783Y-74328696D01*
X40495894Y-74888525D01*
X40495893Y-74888527D01*
X40159240Y-75392363D01*
X39730763Y-75820840D01*
X39226927Y-76157493D01*
X39226926Y-76157494D01*
X39226925Y-76157494D01*
X38667096Y-76389383D01*
X38072779Y-76507600D01*
X37466821Y-76507600D01*
X36872504Y-76389383D01*
X36312675Y-76157494D01*
X36312674Y-76157494D01*
X36312673Y-76157493D01*
X35808837Y-75820840D01*
X35380360Y-75392363D01*
X35043707Y-74888527D01*
X35043706Y-74888525D01*
X34811817Y-74328696D01*
X34693600Y-73734379D01*
X34693600Y-73128421D01*
X34811817Y-72534104D01*
X35043706Y-71974275D01*
X35380361Y-71470436D01*
X35808837Y-71041960D01*
X36312673Y-70705307D01*
X36312675Y-70705306D01*
X36872504Y-70473417D01*
X37466821Y-70355200D01*
X38072779Y-70355200D01*
X38667096Y-70473417D01*
X38667096Y-70473417D01*
G37*
G36*
X22667096Y-70473417D02*
X23226925Y-70705306D01*
X23226927Y-70705307D01*
X23730763Y-71041960D01*
X24159239Y-71470436D01*
X24495894Y-71974275D01*
X24727783Y-72534104D01*
X24846000Y-73128421D01*
X24846000Y-73734379D01*
X24727783Y-74328696D01*
X24495894Y-74888525D01*
X24495893Y-74888527D01*
X24159240Y-75392363D01*
X23730763Y-75820840D01*
X23226927Y-76157493D01*
X23226926Y-76157494D01*
X23226925Y-76157494D01*
X22667096Y-76389383D01*
X22072779Y-76507600D01*
X21466821Y-76507600D01*
X20872504Y-76389383D01*
X20312675Y-76157494D01*
X20312674Y-76157494D01*
X20312673Y-76157493D01*
X19808837Y-75820840D01*
X19380360Y-75392363D01*
X19043707Y-74888527D01*
X19043706Y-74888525D01*
X18811817Y-74328696D01*
X18693600Y-73734379D01*
X18693600Y-73128421D01*
X18811817Y-72534104D01*
X19043706Y-71974275D01*
X19380361Y-71470436D01*
X19808837Y-71041960D01*
X20312673Y-70705307D01*
X20312675Y-70705306D01*
X20872504Y-70473417D01*
X21466821Y-70355200D01*
X22072779Y-70355200D01*
X22667096Y-70473417D01*
X22667096Y-70473417D01*
G37*
G36*
X34342000Y-64661600D02*
X25189600Y-64661600D01*
X25189600Y-50709200D01*
X34342000Y-50709200D01*
X34342000Y-64661600D01*
X34342000Y-64661600D01*
G37*
G36*
X41346000Y-60287600D02*
X38593600Y-60287600D01*
X38593600Y-54575200D01*
X41346000Y-54575200D01*
X41346000Y-60287600D01*
X41346000Y-60287600D01*
G37*
G36*
X20946000Y-60287600D02*
X18193600Y-60287600D01*
X18193600Y-54575200D01*
X20946000Y-54575200D01*
X20946000Y-60287600D01*
X20946000Y-60287600D01*
G37*
M02*
