%TF.GenerationSoftware,KiCad,Pcbnew,4.0.5-e0-6337~49~ubuntu16.04.1*%
%TF.CreationDate,2017-01-18T00:16:59-08:00*%
%TF.ProjectId,3x4-CR2032-Coin-Cell-Magnet,3378342D4352323033322D436F696E2D,1.0*%
%TF.FileFunction,Other,Fab,Top*%
%FSLAX46Y46*%
G04 Gerber Fmt 4.6, Leading zero omitted, Abs format (unit mm)*
G04 Created by KiCad (PCBNEW 4.0.5-e0-6337~49~ubuntu16.04.1) date Wed Jan 18 00:16:59 2017*
%MOMM*%
%LPD*%
G01*
G04 APERTURE LIST*
%ADD10C,0.350000*%
%ADD11C,0.050000*%
%ADD12C,0.150000*%
G04 APERTURE END LIST*
D10*
D11*
X117995000Y-88268000D02*
X117995000Y-112268000D01*
X141595000Y-88268000D02*
X141595000Y-112268000D01*
X121795000Y-84468000D02*
X137795000Y-84468000D01*
X121795000Y-84468000D02*
G75*
G03X117995000Y-88268000I0J-3800000D01*
G01*
X141595000Y-88268000D02*
G75*
G03X137795000Y-84468000I-3800000J0D01*
G01*
X137795000Y-116068000D02*
G75*
G03X141595000Y-112268000I0J3800000D01*
G01*
X117995000Y-112268000D02*
G75*
G03X121795000Y-116068000I3800000J0D01*
G01*
X121795000Y-116068000D02*
X137795000Y-116068000D01*
D12*
X129009286Y-96196571D02*
X129152143Y-96244190D01*
X129199762Y-96291810D01*
X129247381Y-96387048D01*
X129247381Y-96529905D01*
X129199762Y-96625143D01*
X129152143Y-96672762D01*
X129056905Y-96720381D01*
X128675952Y-96720381D01*
X128675952Y-95720381D01*
X129009286Y-95720381D01*
X129104524Y-95768000D01*
X129152143Y-95815619D01*
X129199762Y-95910857D01*
X129199762Y-96006095D01*
X129152143Y-96101333D01*
X129104524Y-96148952D01*
X129009286Y-96196571D01*
X128675952Y-96196571D01*
X129533095Y-95720381D02*
X130104524Y-95720381D01*
X129818809Y-96720381D02*
X129818809Y-95720381D01*
X130961667Y-96720381D02*
X130390238Y-96720381D01*
X130675952Y-96720381D02*
X130675952Y-95720381D01*
X130580714Y-95863238D01*
X130485476Y-95958476D01*
X130390238Y-96006095D01*
M02*
