%TF.GenerationSoftware,KiCad,Pcbnew,4.0.5-e0-6337~49~ubuntu16.04.1*%
%TF.CreationDate,2017-02-14T00:09:04-08:00*%
%TF.ProjectId,2x2-USB-Power-Connector,3278322D5553422D506F7765722D436F,1.0*%
%TF.FileFunction,Legend,Top*%
%FSLAX46Y46*%
G04 Gerber Fmt 4.6, Leading zero omitted, Abs format (unit mm)*
G04 Created by KiCad (PCBNEW 4.0.5-e0-6337~49~ubuntu16.04.1) date Tue Feb 14 00:09:04 2017*
%MOMM*%
%LPD*%
G01*
G04 APERTURE LIST*
%ADD10C,0.350000*%
%ADD11C,0.152400*%
%ADD12C,0.150000*%
%ADD13C,0.120000*%
%ADD14C,7.600000*%
%ADD15R,1.502400X0.552400*%
%ADD16R,1.552400X1.752400*%
%ADD17C,1.352400*%
%ADD18R,2.052400X2.052400*%
%ADD19R,0.902400X0.952400*%
%ADD20R,0.752400X0.572400*%
G04 APERTURE END LIST*
D10*
D11*
X25806400Y-60475560D02*
X24536400Y-60475560D01*
X25806400Y-63206060D02*
X24536400Y-63206060D01*
D12*
X25806400Y-60475560D02*
X25806400Y-63206060D01*
X24536400Y-63206060D02*
X24536400Y-60475560D01*
D11*
X24536400Y-56711280D02*
X25806400Y-56711280D01*
X24536400Y-53980780D02*
X25806400Y-53980780D01*
D12*
X24536400Y-56711280D02*
X24536400Y-53980780D01*
X25806400Y-53980780D02*
X25806400Y-56711280D01*
D13*
X25627520Y-57351680D02*
X23727520Y-57351680D01*
X24227520Y-59671680D02*
X25627520Y-59671680D01*
D14*
X20497800Y-62494160D02*
X28497800Y-62494160D01*
D12*
X23659650Y-51745901D02*
X24278698Y-51745901D01*
X23945364Y-52126853D01*
X24088222Y-52126853D01*
X24183460Y-52174472D01*
X24231079Y-52222091D01*
X24278698Y-52317330D01*
X24278698Y-52555425D01*
X24231079Y-52650663D01*
X24183460Y-52698282D01*
X24088222Y-52745901D01*
X23802507Y-52745901D01*
X23707269Y-52698282D01*
X23659650Y-52650663D01*
X24707269Y-52650663D02*
X24754888Y-52698282D01*
X24707269Y-52745901D01*
X24659650Y-52698282D01*
X24707269Y-52650663D01*
X24707269Y-52745901D01*
X25088221Y-51745901D02*
X25707269Y-51745901D01*
X25373935Y-52126853D01*
X25516793Y-52126853D01*
X25612031Y-52174472D01*
X25659650Y-52222091D01*
X25707269Y-52317330D01*
X25707269Y-52555425D01*
X25659650Y-52650663D01*
X25612031Y-52698282D01*
X25516793Y-52745901D01*
X25231078Y-52745901D01*
X25135840Y-52698282D01*
X25088221Y-52650663D01*
X25992983Y-51745901D02*
X26326316Y-52745901D01*
X26659650Y-51745901D01*
X24389176Y-64305560D02*
X24293938Y-64257941D01*
X24151081Y-64257941D01*
X24008223Y-64305560D01*
X23912985Y-64400798D01*
X23865366Y-64496036D01*
X23817747Y-64686512D01*
X23817747Y-64829370D01*
X23865366Y-65019846D01*
X23912985Y-65115084D01*
X24008223Y-65210322D01*
X24151081Y-65257941D01*
X24246319Y-65257941D01*
X24389176Y-65210322D01*
X24436795Y-65162703D01*
X24436795Y-64829370D01*
X24246319Y-64829370D01*
X24865366Y-65257941D02*
X24865366Y-64257941D01*
X25436795Y-65257941D01*
X25436795Y-64257941D01*
X25912985Y-65257941D02*
X25912985Y-64257941D01*
X26151080Y-64257941D01*
X26293938Y-64305560D01*
X26389176Y-64400798D01*
X26436795Y-64496036D01*
X26484414Y-64686512D01*
X26484414Y-64829370D01*
X26436795Y-65019846D01*
X26389176Y-65115084D01*
X26293938Y-65210322D01*
X26151080Y-65257941D01*
X25912985Y-65257941D01*
%LPC*%
D15*
X27709920Y-59832160D03*
X27709920Y-59182160D03*
X27709920Y-58533060D03*
X27709920Y-57882160D03*
X27709920Y-57232160D03*
D16*
X27934920Y-61732160D03*
D17*
X30384920Y-62082160D03*
D18*
X30384920Y-59732160D03*
X30384920Y-57332160D03*
D16*
X27934920Y-55332160D03*
D17*
X30384920Y-54982160D03*
D19*
X25171400Y-61122560D03*
X25171400Y-62622560D03*
X25171400Y-56064280D03*
X25171400Y-54564280D03*
D20*
X23977520Y-57861680D03*
X23977520Y-59161680D03*
X25877520Y-57861680D03*
X23977520Y-58511680D03*
X25877520Y-59161680D03*
M02*
