%TF.GenerationSoftware,KiCad,Pcbnew,4.0.5-e0-6337~49~ubuntu16.04.1*%
%TF.CreationDate,2017-02-14T00:09:04-08:00*%
%TF.ProjectId,2x2-USB-Power-Connector,3278322D5553422D506F7765722D436F,1.0*%
%TF.FileFunction,Other,Fab,Top*%
%FSLAX46Y46*%
G04 Gerber Fmt 4.6, Leading zero omitted, Abs format (unit mm)*
G04 Created by KiCad (PCBNEW 4.0.5-e0-6337~49~ubuntu16.04.1) date Tue Feb 14 00:09:04 2017*
%MOMM*%
%LPD*%
G01*
G04 APERTURE LIST*
%ADD10C,0.350000*%
%ADD11C,0.050000*%
%ADD12C,0.040640*%
%ADD13C,0.254000*%
%ADD14C,0.150000*%
G04 APERTURE END LIST*
D10*
D11*
X31884920Y-63532160D02*
X26634920Y-63532160D01*
X31884920Y-53532160D02*
X31884920Y-63532160D01*
X26634920Y-53532160D02*
X31884920Y-53532160D01*
X26634920Y-63532160D02*
X26634920Y-53532160D01*
X25921400Y-60422560D02*
X25921400Y-63322560D01*
X25921400Y-60422560D02*
X24421400Y-60422560D01*
X25921400Y-63322560D02*
X24421400Y-63322560D01*
X24421400Y-60422560D02*
X24421400Y-63322560D01*
X24421400Y-56764280D02*
X24421400Y-53864280D01*
X24421400Y-56764280D02*
X25921400Y-56764280D01*
X24421400Y-53864280D02*
X25921400Y-53864280D01*
X25921400Y-56764280D02*
X25921400Y-53864280D01*
D12*
X26451520Y-59845180D02*
X26451520Y-57178180D01*
X23403520Y-59845180D02*
X26451520Y-59845180D01*
X23403520Y-57178180D02*
X23403520Y-59845180D01*
X26451520Y-57178180D02*
X23403520Y-57178180D01*
X28397800Y-50694160D02*
X20597800Y-50694160D01*
X28397800Y-66294160D02*
X20597800Y-66294160D01*
X32297800Y-62394160D02*
X32297800Y-54594160D01*
X16697800Y-62394160D02*
X16697800Y-54594160D01*
X32297800Y-54594160D02*
G75*
G03X28397800Y-50694160I-3900000J0D01*
G01*
X28397800Y-66294160D02*
G75*
G03X32297800Y-62394160I0J3900000D01*
G01*
X16697800Y-62394160D02*
G75*
G03X20597800Y-66294160I3900000J0D01*
G01*
X20597800Y-50694160D02*
G75*
G03X16697800Y-54594160I0J-3900000D01*
G01*
D13*
X28457587Y-57419398D02*
X28457587Y-58870827D01*
X28360825Y-59161112D01*
X28167301Y-59354636D01*
X27877016Y-59451398D01*
X27683492Y-59451398D01*
X30489586Y-59451398D02*
X29328444Y-59451398D01*
X29909015Y-59451398D02*
X29909015Y-57419398D01*
X29715491Y-57709684D01*
X29521967Y-57903208D01*
X29328444Y-57999970D01*
D14*
X24998067Y-62248274D02*
X24959972Y-62286370D01*
X24845686Y-62324465D01*
X24769496Y-62324465D01*
X24655210Y-62286370D01*
X24579019Y-62210179D01*
X24540924Y-62133989D01*
X24502829Y-61981608D01*
X24502829Y-61867322D01*
X24540924Y-61714941D01*
X24579019Y-61638750D01*
X24655210Y-61562560D01*
X24769496Y-61524465D01*
X24845686Y-61524465D01*
X24959972Y-61562560D01*
X24998067Y-61600655D01*
X25759972Y-62324465D02*
X25302829Y-62324465D01*
X25531400Y-62324465D02*
X25531400Y-61524465D01*
X25455210Y-61638750D01*
X25379019Y-61714941D01*
X25302829Y-61753036D01*
X25078067Y-55509994D02*
X25039972Y-55548090D01*
X24925686Y-55586185D01*
X24849496Y-55586185D01*
X24735210Y-55548090D01*
X24659019Y-55471899D01*
X24620924Y-55395709D01*
X24582829Y-55243328D01*
X24582829Y-55129042D01*
X24620924Y-54976661D01*
X24659019Y-54900470D01*
X24735210Y-54824280D01*
X24849496Y-54786185D01*
X24925686Y-54786185D01*
X25039972Y-54824280D01*
X25078067Y-54862375D01*
X25382829Y-54862375D02*
X25420924Y-54824280D01*
X25497115Y-54786185D01*
X25687591Y-54786185D01*
X25763781Y-54824280D01*
X25801877Y-54862375D01*
X25839972Y-54938566D01*
X25839972Y-55014756D01*
X25801877Y-55129042D01*
X25344734Y-55586185D01*
X25839972Y-55586185D01*
X24165615Y-57964061D02*
X24165615Y-58773585D01*
X24213234Y-58868823D01*
X24260853Y-58916442D01*
X24356091Y-58964061D01*
X24546568Y-58964061D01*
X24641806Y-58916442D01*
X24689425Y-58868823D01*
X24737044Y-58773585D01*
X24737044Y-57964061D01*
X25737044Y-58964061D02*
X25165615Y-58964061D01*
X25451329Y-58964061D02*
X25451329Y-57964061D01*
X25356091Y-58106918D01*
X25260853Y-58202156D01*
X25165615Y-58249775D01*
M02*
