%TF.GenerationSoftware,KiCad,Pcbnew,4.0.5-e0-6337~49~ubuntu16.04.1*%
%TF.CreationDate,2017-02-14T02:12:57-08:00*%
%TF.ProjectId,2x3-Mini-Potentiometer-3386P-TH,3278332D4D696E692D506F74656E7469,1.0*%
%TF.FileFunction,Other,Fab,Top*%
%FSLAX46Y46*%
G04 Gerber Fmt 4.6, Leading zero omitted, Abs format (unit mm)*
G04 Created by KiCad (PCBNEW 4.0.5-e0-6337~49~ubuntu16.04.1) date Tue Feb 14 02:12:57 2017*
%MOMM*%
%LPD*%
G01*
G04 APERTURE LIST*
%ADD10C,0.350000*%
%ADD11C,0.500000*%
%ADD12C,0.100000*%
%ADD13C,0.040640*%
%ADD14C,0.150000*%
G04 APERTURE END LIST*
D10*
D11*
X27716643Y-30105600D02*
G75*
G03X27716643Y-30105600I-282843J0D01*
G01*
D12*
X36033800Y-34105600D02*
X24033800Y-34105600D01*
D13*
X41833800Y-35905600D02*
G75*
G03X45527168Y-32005780I-106632J3799820D01*
G01*
X45533800Y-24105600D02*
G75*
G03X41421976Y-20305600I-3811824J0D01*
G01*
X25833800Y-20304284D02*
G75*
G03X22033800Y-24205600I0J-3801316D01*
G01*
X22032484Y-32105600D02*
G75*
G03X25933800Y-35905600I3801316J0D01*
G01*
X22033800Y-32105600D02*
X22033800Y-24105600D01*
X25833800Y-35905600D02*
X41833800Y-35905600D01*
X25833800Y-20305600D02*
X41533800Y-20305600D01*
X45533800Y-32105600D02*
X45533800Y-24105600D01*
D12*
X36033800Y-22105600D02*
X36033800Y-34105600D01*
X36033800Y-22105600D02*
X24033800Y-22105600D01*
X24033800Y-22105600D02*
X24033800Y-34105600D01*
D14*
X29567134Y-28557981D02*
X29233800Y-28081790D01*
X28995705Y-28557981D02*
X28995705Y-27557981D01*
X29376658Y-27557981D01*
X29471896Y-27605600D01*
X29519515Y-27653219D01*
X29567134Y-27748457D01*
X29567134Y-27891314D01*
X29519515Y-27986552D01*
X29471896Y-28034171D01*
X29376658Y-28081790D01*
X28995705Y-28081790D01*
X30519515Y-28557981D02*
X29948086Y-28557981D01*
X30233800Y-28557981D02*
X30233800Y-27557981D01*
X30138562Y-27700838D01*
X30043324Y-27796076D01*
X29948086Y-27843695D01*
M02*
