G04 This is an RS-274x file exported by *
G04 gerbv version 2.6.0 *
G04 More information is available about gerbv at *
G04 http://gerbv.gpleda.org/ *
G04 --End of header info--*
%MOIN*%
%FSLAX34Y34*%
%IPPOS*%
G04 --Define apertures--*
%ADD10C,0.0138*%
%ADD11C,0.0020*%
%ADD12C,0.0016*%
%ADD13C,0.0100*%
%ADD14C,0.0059*%
G04 --Start main section--*
G54D11*
G01X0017423Y-024463D02*
G01X0015356Y-024463D01*
G01X0017423Y-020526D02*
G01X0017423Y-024463D01*
G01X0015356Y-020526D02*
G01X0017423Y-020526D01*
G01X0015356Y-024463D02*
G01X0015356Y-020526D01*
G01X0015075Y-023238D02*
G01X0015075Y-024380D01*
G01X0015075Y-023238D02*
G01X0014485Y-023238D01*
G01X0015075Y-024380D02*
G01X0014485Y-024380D01*
G01X0014485Y-023238D02*
G01X0014485Y-024380D01*
G01X0014485Y-021798D02*
G01X0014485Y-020656D01*
G01X0014485Y-021798D02*
G01X0015075Y-021798D01*
G01X0014485Y-020656D02*
G01X0015075Y-020656D01*
G01X0015075Y-021798D02*
G01X0015075Y-020656D01*
G54D12*
G01X0015284Y-023011D02*
G01X0015284Y-021961D01*
G01X0014084Y-023011D02*
G01X0015284Y-023011D01*
G01X0014084Y-021961D02*
G01X0014084Y-023011D01*
G01X0015284Y-021961D02*
G01X0014084Y-021961D01*
G01X0016050Y-019408D02*
G01X0009790Y-019408D01*
G01X0016050Y-025550D02*
G01X0009790Y-025550D01*
G01X0017586Y-024015D02*
G01X0017586Y-020944D01*
G01X0008294Y-024015D02*
G01X0008294Y-020944D01*
G01X0017586Y-020944D02*
G75*
G03X0016050Y-019408I-001535J0000000D01*
G01X0016050Y-025550D02*
G75*
G03X0017586Y-024015I0000000J0001535D01*
G01X0008294Y-024015D02*
G75*
G03X0009830Y-025550I0001535J0000000D01*
G01X0009830Y-019408D02*
G75*
G03X0008294Y-020944I0000000J-001535D01*
G54D13*
G01X0016074Y-022056D02*
G01X0016074Y-022627D01*
G01X0016074Y-022627D02*
G01X0016036Y-022742D01*
G01X0016036Y-022742D02*
G01X0015959Y-022818D01*
G01X0015959Y-022818D02*
G01X0015845Y-022856D01*
G01X0015845Y-022856D02*
G01X0015769Y-022856D01*
G01X0016874Y-022856D02*
G01X0016417Y-022856D01*
G01X0016645Y-022856D02*
G01X0016645Y-022056D01*
G01X0016645Y-022056D02*
G01X0016569Y-022170D01*
G01X0016569Y-022170D02*
G01X0016493Y-022247D01*
G01X0016493Y-022247D02*
G01X0016417Y-022285D01*
G54D14*
G01X0014712Y-023957D02*
G01X0014697Y-023972D01*
G01X0014697Y-023972D02*
G01X0014652Y-023987D01*
G01X0014652Y-023987D02*
G01X0014622Y-023987D01*
G01X0014622Y-023987D02*
G01X0014577Y-023972D01*
G01X0014577Y-023972D02*
G01X0014547Y-023942D01*
G01X0014547Y-023942D02*
G01X0014532Y-023912D01*
G01X0014532Y-023912D02*
G01X0014517Y-023852D01*
G01X0014517Y-023852D02*
G01X0014517Y-023807D01*
G01X0014517Y-023807D02*
G01X0014532Y-023747D01*
G01X0014532Y-023747D02*
G01X0014547Y-023717D01*
G01X0014547Y-023717D02*
G01X0014577Y-023687D01*
G01X0014577Y-023687D02*
G01X0014622Y-023672D01*
G01X0014622Y-023672D02*
G01X0014652Y-023672D01*
G01X0014652Y-023672D02*
G01X0014697Y-023687D01*
G01X0014697Y-023687D02*
G01X0014712Y-023702D01*
G01X0015012Y-023987D02*
G01X0014832Y-023987D01*
G01X0014922Y-023987D02*
G01X0014922Y-023672D01*
G01X0014922Y-023672D02*
G01X0014892Y-023717D01*
G01X0014892Y-023717D02*
G01X0014862Y-023747D01*
G01X0014862Y-023747D02*
G01X0014832Y-023762D01*
G01X0014743Y-021304D02*
G01X0014728Y-021319D01*
G01X0014728Y-021319D02*
G01X0014683Y-021334D01*
G01X0014683Y-021334D02*
G01X0014653Y-021334D01*
G01X0014653Y-021334D02*
G01X0014608Y-021319D01*
G01X0014608Y-021319D02*
G01X0014578Y-021289D01*
G01X0014578Y-021289D02*
G01X0014563Y-021259D01*
G01X0014563Y-021259D02*
G01X0014548Y-021199D01*
G01X0014548Y-021199D02*
G01X0014548Y-021154D01*
G01X0014548Y-021154D02*
G01X0014563Y-021094D01*
G01X0014563Y-021094D02*
G01X0014578Y-021064D01*
G01X0014578Y-021064D02*
G01X0014608Y-021034D01*
G01X0014608Y-021034D02*
G01X0014653Y-021019D01*
G01X0014653Y-021019D02*
G01X0014683Y-021019D01*
G01X0014683Y-021019D02*
G01X0014728Y-021034D01*
G01X0014728Y-021034D02*
G01X0014743Y-021049D01*
G01X0014863Y-021049D02*
G01X0014878Y-021034D01*
G01X0014878Y-021034D02*
G01X0014908Y-021019D01*
G01X0014908Y-021019D02*
G01X0014983Y-021019D01*
G01X0014983Y-021019D02*
G01X0015013Y-021034D01*
G01X0015013Y-021034D02*
G01X0015028Y-021049D01*
G01X0015028Y-021049D02*
G01X0015043Y-021079D01*
G01X0015043Y-021079D02*
G01X0015043Y-021109D01*
G01X0015043Y-021109D02*
G01X0015028Y-021154D01*
G01X0015028Y-021154D02*
G01X0014848Y-021334D01*
G01X0014848Y-021334D02*
G01X0015043Y-021334D01*
G01X0014384Y-022270D02*
G01X0014384Y-022589D01*
G01X0014384Y-022589D02*
G01X0014403Y-022627D01*
G01X0014403Y-022627D02*
G01X0014422Y-022645D01*
G01X0014422Y-022645D02*
G01X0014459Y-022664D01*
G01X0014459Y-022664D02*
G01X0014534Y-022664D01*
G01X0014534Y-022664D02*
G01X0014571Y-022645D01*
G01X0014571Y-022645D02*
G01X0014590Y-022627D01*
G01X0014590Y-022627D02*
G01X0014609Y-022589D01*
G01X0014609Y-022589D02*
G01X0014609Y-022270D01*
G01X0015003Y-022664D02*
G01X0014778Y-022664D01*
G01X0014890Y-022664D02*
G01X0014890Y-022270D01*
G01X0014890Y-022270D02*
G01X0014853Y-022327D01*
G01X0014853Y-022327D02*
G01X0014815Y-022364D01*
G01X0014815Y-022364D02*
G01X0014778Y-022383D01*
G01X0000000Y0000000D02*
G54D12*
G01X0016050Y-019408D02*
G01X0009790Y-019408D01*
G01X0016050Y-025550D02*
G01X0009790Y-025550D01*
G01X0017586Y-024015D02*
G01X0017586Y-020944D01*
G01X0008294Y-024015D02*
G01X0008294Y-020944D01*
G01X0017586Y-020944D02*
G75*
G03X0016050Y-019408I-001535J0000000D01*
G01X0016050Y-025550D02*
G75*
G03X0017586Y-024015I0000000J0001535D01*
G01X0008294Y-024015D02*
G75*
G03X0009830Y-025550I0001535J0000000D01*
G01X0009830Y-019408D02*
G75*
G03X0008294Y-020944I0000000J-001535D01*
M02*
