%TF.GenerationSoftware,KiCad,Pcbnew,4.0.5-e0-6337~49~ubuntu16.04.1*%
%TF.CreationDate,2017-01-29T12:57:44-08:00*%
%TF.ProjectId,2x3-USB-Power-Connector,3278332D5553422D506F7765722D436F,1.0*%
%TF.FileFunction,Other,Fab,Top*%
%FSLAX46Y46*%
G04 Gerber Fmt 4.6, Leading zero omitted, Abs format (unit mm)*
G04 Created by KiCad (PCBNEW 4.0.5-e0-6337~49~ubuntu16.04.1) date Sun Jan 29 12:57:44 2017*
%MOMM*%
%LPD*%
G01*
G04 APERTURE LIST*
%ADD10C,0.350000*%
%ADD11C,0.050000*%
%ADD12C,0.040640*%
%ADD13C,0.254000*%
%ADD14C,0.150000*%
G04 APERTURE END LIST*
D10*
D11*
X142882920Y-102038560D02*
X137632920Y-102038560D01*
X142882920Y-92038560D02*
X142882920Y-102038560D01*
X137632920Y-92038560D02*
X142882920Y-92038560D01*
X137632920Y-102038560D02*
X137632920Y-92038560D01*
X136919400Y-98928960D02*
X136919400Y-101828960D01*
X136919400Y-98928960D02*
X135419400Y-98928960D01*
X136919400Y-101828960D02*
X135419400Y-101828960D01*
X135419400Y-98928960D02*
X135419400Y-101828960D01*
X135419400Y-95270680D02*
X135419400Y-92370680D01*
X135419400Y-95270680D02*
X136919400Y-95270680D01*
X135419400Y-92370680D02*
X136919400Y-92370680D01*
X136919400Y-95270680D02*
X136919400Y-92370680D01*
D12*
X137449520Y-98351580D02*
X137449520Y-95684580D01*
X134401520Y-98351580D02*
X137449520Y-98351580D01*
X134401520Y-95684580D02*
X134401520Y-98351580D01*
X137449520Y-95684580D02*
X134401520Y-95684580D01*
X139395800Y-89200560D02*
X123495800Y-89200560D01*
X139395800Y-104800560D02*
X123495800Y-104800560D01*
X143295800Y-100900560D02*
X143295800Y-93100560D01*
X119695800Y-100900560D02*
X119695800Y-93100560D01*
X143295800Y-93100560D02*
G75*
G03X139395800Y-89200560I-3900000J0D01*
G01*
X139395800Y-104800560D02*
G75*
G03X143295800Y-100900560I0J3900000D01*
G01*
X119695800Y-100900560D02*
G75*
G03X123595800Y-104800560I3900000J0D01*
G01*
X123595800Y-89200560D02*
G75*
G03X119695800Y-93100560I0J-3900000D01*
G01*
D13*
X139455587Y-95925798D02*
X139455587Y-97377227D01*
X139358825Y-97667512D01*
X139165301Y-97861036D01*
X138875016Y-97957798D01*
X138681492Y-97957798D01*
X141487586Y-97957798D02*
X140326444Y-97957798D01*
X140907015Y-97957798D02*
X140907015Y-95925798D01*
X140713491Y-96216084D01*
X140519967Y-96409608D01*
X140326444Y-96506370D01*
D14*
X135996067Y-100754674D02*
X135957972Y-100792770D01*
X135843686Y-100830865D01*
X135767496Y-100830865D01*
X135653210Y-100792770D01*
X135577019Y-100716579D01*
X135538924Y-100640389D01*
X135500829Y-100488008D01*
X135500829Y-100373722D01*
X135538924Y-100221341D01*
X135577019Y-100145150D01*
X135653210Y-100068960D01*
X135767496Y-100030865D01*
X135843686Y-100030865D01*
X135957972Y-100068960D01*
X135996067Y-100107055D01*
X136757972Y-100830865D02*
X136300829Y-100830865D01*
X136529400Y-100830865D02*
X136529400Y-100030865D01*
X136453210Y-100145150D01*
X136377019Y-100221341D01*
X136300829Y-100259436D01*
X136076067Y-94016394D02*
X136037972Y-94054490D01*
X135923686Y-94092585D01*
X135847496Y-94092585D01*
X135733210Y-94054490D01*
X135657019Y-93978299D01*
X135618924Y-93902109D01*
X135580829Y-93749728D01*
X135580829Y-93635442D01*
X135618924Y-93483061D01*
X135657019Y-93406870D01*
X135733210Y-93330680D01*
X135847496Y-93292585D01*
X135923686Y-93292585D01*
X136037972Y-93330680D01*
X136076067Y-93368775D01*
X136380829Y-93368775D02*
X136418924Y-93330680D01*
X136495115Y-93292585D01*
X136685591Y-93292585D01*
X136761781Y-93330680D01*
X136799877Y-93368775D01*
X136837972Y-93444966D01*
X136837972Y-93521156D01*
X136799877Y-93635442D01*
X136342734Y-94092585D01*
X136837972Y-94092585D01*
X135163615Y-96470461D02*
X135163615Y-97279985D01*
X135211234Y-97375223D01*
X135258853Y-97422842D01*
X135354091Y-97470461D01*
X135544568Y-97470461D01*
X135639806Y-97422842D01*
X135687425Y-97375223D01*
X135735044Y-97279985D01*
X135735044Y-96470461D01*
X136735044Y-97470461D02*
X136163615Y-97470461D01*
X136449329Y-97470461D02*
X136449329Y-96470461D01*
X136354091Y-96613318D01*
X136258853Y-96708556D01*
X136163615Y-96756175D01*
M02*
