%TF.GenerationSoftware,KiCad,Pcbnew,4.0.5-e0-6337~49~ubuntu16.04.1*%
%TF.CreationDate,2017-02-14T00:16:06-08:00*%
%TF.ProjectId,2x3-USB-Power-Connector,3278332D5553422D506F7765722D436F,1.0*%
%TF.FileFunction,Copper,L1,Top,Signal*%
%FSLAX46Y46*%
G04 Gerber Fmt 4.6, Leading zero omitted, Abs format (unit mm)*
G04 Created by KiCad (PCBNEW 4.0.5-e0-6337~49~ubuntu16.04.1) date Tue Feb 14 00:16:06 2017*
%MOMM*%
%LPD*%
G01*
G04 APERTURE LIST*
%ADD10C,0.350000*%
%ADD11R,1.350000X0.400000*%
%ADD12R,1.400000X1.600000*%
%ADD13C,1.200000*%
%ADD14R,1.900000X1.900000*%
%ADD15R,0.750000X0.800000*%
%ADD16R,0.600000X0.420000*%
%ADD17C,6.000000*%
%ADD18C,0.685800*%
%ADD19C,0.254000*%
%ADD20C,0.330200*%
%ADD21C,0.350000*%
G04 APERTURE END LIST*
D10*
D11*
X40079720Y-58435160D03*
X40079720Y-57785160D03*
X40079720Y-57136060D03*
X40079720Y-56485160D03*
X40079720Y-55835160D03*
D12*
X40304720Y-60335160D03*
D13*
X42754720Y-60685160D03*
D14*
X42754720Y-58335160D03*
X42754720Y-55935160D03*
D12*
X40304720Y-53935160D03*
D13*
X42754720Y-53585160D03*
D15*
X37541200Y-59725560D03*
X37541200Y-61225560D03*
X37541200Y-54667280D03*
X37541200Y-53167280D03*
D16*
X36347320Y-56464680D03*
X36347320Y-57764680D03*
X38247320Y-56464680D03*
X36347320Y-57114680D03*
X38247320Y-57764680D03*
D17*
X32867600Y-61097160D03*
X32867600Y-53097160D03*
X24867600Y-53097160D03*
X24867600Y-61097160D03*
D18*
X38475920Y-61234320D03*
X40060880Y-55397400D03*
X37368240Y-57114680D03*
D19*
X32867600Y-61097160D02*
X24867600Y-61097160D01*
X37541200Y-61225560D02*
X38467160Y-61225560D01*
X38467160Y-61225560D02*
X38475920Y-61234320D01*
X37541200Y-61225560D02*
X33049080Y-61225560D01*
X38856920Y-53854000D02*
X38856920Y-55087360D01*
X38856920Y-55087360D02*
X39604720Y-55835160D01*
X39604720Y-55835160D02*
X40079720Y-55835160D01*
X37541200Y-53167280D02*
X38170200Y-53167280D01*
X38170200Y-53167280D02*
X38856920Y-53854000D01*
X40060880Y-55397400D02*
X40060880Y-55816320D01*
X40060880Y-55816320D02*
X40079720Y-55835160D01*
X36347320Y-57114680D02*
X37368240Y-57114680D01*
X37541200Y-54667280D02*
X34636840Y-54667280D01*
X37541200Y-54667280D02*
X37541200Y-55758560D01*
X37541200Y-55758560D02*
X38247320Y-56464680D01*
X38770960Y-58470800D02*
X37541200Y-58470800D01*
X37541200Y-58470800D02*
X36347320Y-58470800D01*
X37541200Y-59725560D02*
X37541200Y-59071560D01*
X37541200Y-59071560D02*
X37541200Y-58470800D01*
X36347320Y-57764680D02*
X36347320Y-58470800D01*
X40079720Y-58435160D02*
X38806600Y-58435160D01*
X38806600Y-58435160D02*
X38770960Y-58470800D01*
X35407600Y-57378960D02*
X35407600Y-56850400D01*
X35407600Y-56850400D02*
X35793320Y-56464680D01*
X35793320Y-56464680D02*
X36347320Y-56464680D01*
X36347320Y-57764680D02*
X35793320Y-57764680D01*
X35793320Y-57764680D02*
X35407600Y-57378960D01*
D20*
X38475920Y-61234320D03*
X40060880Y-55397400D03*
X37368240Y-57114680D03*
D21*
X42754720Y-60685160D03*
X42754720Y-53585160D03*
X32867600Y-61097160D03*
X32867600Y-53097160D03*
X24867600Y-53097160D03*
X24867600Y-61097160D03*
M02*
