%TF.GenerationSoftware,KiCad,Pcbnew,4.0.5-e0-6337~49~ubuntu16.04.1*%
%TF.CreationDate,2017-05-27T17:45:45-07:00*%
%TF.ProjectId,2x3-USB-Power-Connector,3278332D5553422D506F7765722D436F,v1.1*%
%TF.FileFunction,Legend,Top*%
%FSLAX46Y46*%
G04 Gerber Fmt 4.6, Leading zero omitted, Abs format (unit mm)*
G04 Created by KiCad (PCBNEW 4.0.5-e0-6337~49~ubuntu16.04.1) date Sat May 27 17:45:45 2017*
%MOMM*%
%LPD*%
G01*
G04 APERTURE LIST*
%ADD10C,0.350000*%
%ADD11C,0.152400*%
%ADD12C,0.150000*%
%ADD13C,0.120000*%
%ADD14C,7.600000*%
%ADD15C,0.254000*%
%ADD16R,1.502400X0.552400*%
%ADD17R,1.552400X1.752400*%
%ADD18C,1.352400*%
%ADD19R,2.052400X2.052400*%
%ADD20R,0.902400X0.952400*%
%ADD21R,0.752400X0.572400*%
%ADD22C,6.152400*%
G04 APERTURE END LIST*
D10*
D11*
X38176200Y-59078560D02*
X36906200Y-59078560D01*
X38176200Y-61809060D02*
X36906200Y-61809060D01*
D12*
X38176200Y-59078560D02*
X38176200Y-61809060D01*
X36906200Y-61809060D02*
X36906200Y-59078560D01*
D11*
X36906200Y-55314280D02*
X38176200Y-55314280D01*
X36906200Y-52583780D02*
X38176200Y-52583780D01*
D12*
X36906200Y-55314280D02*
X36906200Y-52583780D01*
X38176200Y-52583780D02*
X38176200Y-55314280D01*
D13*
X37997320Y-55954680D02*
X36097320Y-55954680D01*
X36597320Y-58274680D02*
X37997320Y-58274680D01*
D14*
X24867600Y-61097160D02*
X32767600Y-61097160D01*
D15*
X32867600Y-53097160D02*
X24767600Y-53097160D01*
D12*
X36329450Y-49748901D02*
X36948498Y-49748901D01*
X36615164Y-50129853D01*
X36758022Y-50129853D01*
X36853260Y-50177472D01*
X36900879Y-50225091D01*
X36948498Y-50320330D01*
X36948498Y-50558425D01*
X36900879Y-50653663D01*
X36853260Y-50701282D01*
X36758022Y-50748901D01*
X36472307Y-50748901D01*
X36377069Y-50701282D01*
X36329450Y-50653663D01*
X37377069Y-50653663D02*
X37424688Y-50701282D01*
X37377069Y-50748901D01*
X37329450Y-50701282D01*
X37377069Y-50653663D01*
X37377069Y-50748901D01*
X37758021Y-49748901D02*
X38377069Y-49748901D01*
X38043735Y-50129853D01*
X38186593Y-50129853D01*
X38281831Y-50177472D01*
X38329450Y-50225091D01*
X38377069Y-50320330D01*
X38377069Y-50558425D01*
X38329450Y-50653663D01*
X38281831Y-50701282D01*
X38186593Y-50748901D01*
X37900878Y-50748901D01*
X37805640Y-50701282D01*
X37758021Y-50653663D01*
X38662783Y-49748901D02*
X38996116Y-50748901D01*
X39329450Y-49748901D01*
X37158976Y-62908560D02*
X37063738Y-62860941D01*
X36920881Y-62860941D01*
X36778023Y-62908560D01*
X36682785Y-63003798D01*
X36635166Y-63099036D01*
X36587547Y-63289512D01*
X36587547Y-63432370D01*
X36635166Y-63622846D01*
X36682785Y-63718084D01*
X36778023Y-63813322D01*
X36920881Y-63860941D01*
X37016119Y-63860941D01*
X37158976Y-63813322D01*
X37206595Y-63765703D01*
X37206595Y-63432370D01*
X37016119Y-63432370D01*
X37635166Y-63860941D02*
X37635166Y-62860941D01*
X38206595Y-63860941D01*
X38206595Y-62860941D01*
X38682785Y-63860941D02*
X38682785Y-62860941D01*
X38920880Y-62860941D01*
X39063738Y-62908560D01*
X39158976Y-63003798D01*
X39206595Y-63099036D01*
X39254214Y-63289512D01*
X39254214Y-63432370D01*
X39206595Y-63622846D01*
X39158976Y-63718084D01*
X39063738Y-63813322D01*
X38920880Y-63860941D01*
X38682785Y-63860941D01*
%LPC*%
D16*
X40079720Y-58435160D03*
X40079720Y-57785160D03*
X40079720Y-57136060D03*
X40079720Y-56485160D03*
X40079720Y-55835160D03*
D17*
X40304720Y-60335160D03*
D18*
X42754720Y-60685160D03*
D19*
X42754720Y-58335160D03*
X42754720Y-55935160D03*
D17*
X40304720Y-53935160D03*
D18*
X42754720Y-53585160D03*
D20*
X37541200Y-59725560D03*
X37541200Y-61225560D03*
X37541200Y-54667280D03*
X37541200Y-53167280D03*
D21*
X36347320Y-56464680D03*
X36347320Y-57764680D03*
X38247320Y-56464680D03*
X36347320Y-57114680D03*
X38247320Y-57764680D03*
D22*
X32867600Y-61097160D03*
X32867600Y-53097160D03*
X24867600Y-53097160D03*
X24867600Y-61097160D03*
M02*
