%TF.GenerationSoftware,KiCad,Pcbnew,4.0.5-e0-6337~49~ubuntu16.04.1*%
%TF.CreationDate,2017-02-14T00:16:06-08:00*%
%TF.ProjectId,2x3-USB-Power-Connector,3278332D5553422D506F7765722D436F,1.0*%
%TF.FileFunction,Soldermask,Top*%
%FSLAX46Y46*%
G04 Gerber Fmt 4.6, Leading zero omitted, Abs format (unit mm)*
G04 Created by KiCad (PCBNEW 4.0.5-e0-6337~49~ubuntu16.04.1) date Tue Feb 14 00:16:06 2017*
%MOMM*%
%LPD*%
G01*
G04 APERTURE LIST*
%ADD10C,0.350000*%
G04 APERTURE END LIST*
D10*
G36*
X37992400Y-61701760D02*
X37090000Y-61701760D01*
X37090000Y-60749360D01*
X37992400Y-60749360D01*
X37992400Y-61701760D01*
X37992400Y-61701760D01*
G37*
G36*
X42825748Y-60009408D02*
X42955642Y-60036072D01*
X43077897Y-60087463D01*
X43187835Y-60161617D01*
X43281272Y-60255709D01*
X43354661Y-60366168D01*
X43405195Y-60488772D01*
X43430882Y-60618501D01*
X43430882Y-60618516D01*
X43430949Y-60618855D01*
X43428834Y-60770320D01*
X43428758Y-60770654D01*
X43428758Y-60770667D01*
X43399456Y-60899638D01*
X43345521Y-61020779D01*
X43269079Y-61129142D01*
X43173046Y-61220593D01*
X43061080Y-61291649D01*
X42937442Y-61339605D01*
X42806851Y-61362632D01*
X42674267Y-61359854D01*
X42544751Y-61331379D01*
X42423230Y-61278287D01*
X42314341Y-61202607D01*
X42222222Y-61107216D01*
X42150385Y-60995746D01*
X42101566Y-60872444D01*
X42077629Y-60742019D01*
X42079480Y-60609421D01*
X42107052Y-60479706D01*
X42159291Y-60357821D01*
X42234213Y-60248402D01*
X42328961Y-60155618D01*
X42439919Y-60083008D01*
X42562877Y-60033330D01*
X42693135Y-60008483D01*
X42825748Y-60009408D01*
X42825748Y-60009408D01*
G37*
G36*
X41080920Y-61211360D02*
X39528520Y-61211360D01*
X39528520Y-59458960D01*
X41080920Y-59458960D01*
X41080920Y-61211360D01*
X41080920Y-61211360D01*
G37*
G36*
X37992400Y-60201760D02*
X37090000Y-60201760D01*
X37090000Y-59249360D01*
X37992400Y-59249360D01*
X37992400Y-60201760D01*
X37992400Y-60201760D01*
G37*
G36*
X43780920Y-59361360D02*
X41728520Y-59361360D01*
X41728520Y-57308960D01*
X43780920Y-57308960D01*
X43780920Y-59361360D01*
X43780920Y-59361360D01*
G37*
G36*
X40830920Y-58711360D02*
X39328520Y-58711360D01*
X39328520Y-55558960D01*
X40830920Y-55558960D01*
X40830920Y-58711360D01*
X40830920Y-58711360D01*
G37*
G36*
X38623520Y-58050880D02*
X37871120Y-58050880D01*
X37871120Y-57478480D01*
X38623520Y-57478480D01*
X38623520Y-58050880D01*
X38623520Y-58050880D01*
G37*
G36*
X36723520Y-58050880D02*
X35971120Y-58050880D01*
X35971120Y-56178480D01*
X36723520Y-56178480D01*
X36723520Y-58050880D01*
X36723520Y-58050880D01*
G37*
G36*
X43780920Y-56961360D02*
X41728520Y-56961360D01*
X41728520Y-54908960D01*
X43780920Y-54908960D01*
X43780920Y-56961360D01*
X43780920Y-56961360D01*
G37*
G36*
X38623520Y-56750880D02*
X37871120Y-56750880D01*
X37871120Y-56178480D01*
X38623520Y-56178480D01*
X38623520Y-56750880D01*
X38623520Y-56750880D01*
G37*
G36*
X37992400Y-55143480D02*
X37090000Y-55143480D01*
X37090000Y-54191080D01*
X37992400Y-54191080D01*
X37992400Y-55143480D01*
X37992400Y-55143480D01*
G37*
G36*
X41080920Y-54811360D02*
X39528520Y-54811360D01*
X39528520Y-53058960D01*
X41080920Y-53058960D01*
X41080920Y-54811360D01*
X41080920Y-54811360D01*
G37*
G36*
X42825748Y-52909408D02*
X42955642Y-52936072D01*
X43077897Y-52987463D01*
X43187835Y-53061617D01*
X43281272Y-53155709D01*
X43354661Y-53266168D01*
X43405195Y-53388772D01*
X43430882Y-53518501D01*
X43430882Y-53518516D01*
X43430949Y-53518855D01*
X43428834Y-53670320D01*
X43428758Y-53670654D01*
X43428758Y-53670667D01*
X43399456Y-53799638D01*
X43345521Y-53920779D01*
X43269079Y-54029142D01*
X43173046Y-54120593D01*
X43061080Y-54191649D01*
X42937442Y-54239605D01*
X42806851Y-54262632D01*
X42674267Y-54259854D01*
X42544751Y-54231379D01*
X42423230Y-54178287D01*
X42314341Y-54102607D01*
X42222222Y-54007216D01*
X42150385Y-53895746D01*
X42101566Y-53772444D01*
X42077629Y-53642019D01*
X42079480Y-53509421D01*
X42107052Y-53379706D01*
X42159291Y-53257821D01*
X42234213Y-53148402D01*
X42328961Y-53055618D01*
X42439919Y-52983008D01*
X42562877Y-52933330D01*
X42693135Y-52908483D01*
X42825748Y-52909408D01*
X42825748Y-52909408D01*
G37*
G36*
X37992400Y-53643480D02*
X37090000Y-53643480D01*
X37090000Y-52691080D01*
X37992400Y-52691080D01*
X37992400Y-53643480D01*
X37992400Y-53643480D01*
G37*
M02*
