M48
;DRILL file {KiCad 4.0.7-e2-6376~58~ubuntu16.04.1} date Tue Jul 31 04:14:02 2018
;FORMAT={-:-/ absolute / metric / decimal}
FMAT,2
METRIC,TZ
T1C0.330
T2C1.016
T3C4.980
%
G90
G05
M71
T1
X91.037Y-45.72
T2
X70.286Y-53.704
X70.286Y-56.244
X70.286Y-58.784
X70.286Y-61.324
X70.286Y-63.864
X70.286Y-66.404
X70.286Y-68.944
X70.286Y-71.484
X70.286Y-74.024
X70.286Y-76.564
X70.286Y-79.104
X70.286Y-81.644
X75.311Y-40.64
X75.311Y-43.18
X75.311Y-45.72
X77.851Y-40.64
X77.851Y-43.18
X77.851Y-45.72
X80.391Y-40.64
X80.391Y-43.18
X80.391Y-45.72
X82.931Y-40.64
X82.931Y-43.18
X82.931Y-45.72
X88.066Y-53.704
X88.066Y-56.244
X88.066Y-58.784
X88.066Y-61.324
X88.066Y-63.864
X88.066Y-66.404
X88.066Y-68.944
X88.066Y-71.484
X88.066Y-74.024
X88.066Y-76.564
X88.066Y-79.104
X88.066Y-81.644
T3
X58.999Y-39.8
X58.999Y-47.8
X58.999Y-55.8
X58.999Y-63.8
X58.999Y-71.8
X58.999Y-79.8
X58.999Y-87.8
X58.999Y-95.8
X59.Y-31.8
X59.Y-103.8
X66.999Y-31.8
X66.999Y-103.8
X74.999Y-31.8
X74.999Y-103.8
X82.999Y-31.8
X82.999Y-103.8
X90.999Y-31.8
X90.999Y-103.8
X98.999Y-31.8
X98.999Y-39.8
X98.999Y-47.8
X98.999Y-55.8
X98.999Y-71.8
X98.999Y-103.8
X99.Y-63.8
X99.Y-79.8
X99.Y-87.8
X99.Y-95.8
T0
M30
