%TF.GenerationSoftware,KiCad,Pcbnew,4.0.5-e0-6337~49~ubuntu16.04.1*%
%TF.CreationDate,2017-01-18T23:04:43-08:00*%
%TF.ProjectId,2x3-Speaker-TH-5mm-Pitch,3278332D537065616B65722D54482D35,1.0*%
%TF.FileFunction,Legend,Top*%
%FSLAX46Y46*%
G04 Gerber Fmt 4.6, Leading zero omitted, Abs format (unit mm)*
G04 Created by KiCad (PCBNEW 4.0.5-e0-6337~49~ubuntu16.04.1) date Wed Jan 18 23:04:43 2017*
%MOMM*%
%LPD*%
G01*
G04 APERTURE LIST*
%ADD10C,0.350000*%
%ADD11C,0.152400*%
%ADD12C,8.000000*%
%ADD13C,0.150000*%
G04 APERTURE END LIST*
D10*
D11*
X136783355Y-98643198D02*
X136928498Y-98691579D01*
X137170402Y-98691579D01*
X137267164Y-98643198D01*
X137315545Y-98594817D01*
X137363926Y-98498055D01*
X137363926Y-98401293D01*
X137315545Y-98304531D01*
X137267164Y-98256150D01*
X137170402Y-98207770D01*
X136976879Y-98159389D01*
X136880117Y-98111008D01*
X136831736Y-98062627D01*
X136783355Y-97965865D01*
X136783355Y-97869103D01*
X136831736Y-97772341D01*
X136880117Y-97723960D01*
X136976879Y-97675579D01*
X137218783Y-97675579D01*
X137363926Y-97723960D01*
X137799355Y-98691579D02*
X137799355Y-97675579D01*
X138186402Y-97675579D01*
X138283164Y-97723960D01*
X138331545Y-97772341D01*
X138379926Y-97869103D01*
X138379926Y-98014246D01*
X138331545Y-98111008D01*
X138283164Y-98159389D01*
X138186402Y-98207770D01*
X137799355Y-98207770D01*
X138815355Y-98691579D02*
X138815355Y-97675579D01*
X139395926Y-98691579D02*
X138960498Y-98111008D01*
X139395926Y-97675579D02*
X138815355Y-98256150D01*
D12*
X130050000Y-94235000D02*
X130050000Y-102235000D01*
D13*
X144750000Y-98235000D02*
G75*
G03X144750000Y-98235000I-6700000J0D01*
G01*
X127669048Y-98306429D02*
X128430953Y-98306429D01*
X147669048Y-98306429D02*
X148430953Y-98306429D01*
X148050001Y-98687381D02*
X148050001Y-97925476D01*
M02*
