%TF.GenerationSoftware,KiCad,Pcbnew,4.0.5-e0-6337~49~ubuntu16.04.1*%
%TF.CreationDate,2017-02-14T02:34:34-08:00*%
%TF.ProjectId,2x3-Speaker-TH-5mm-Pitch,3278332D537065616B65722D54482D35,1.0*%
%TF.FileFunction,Other,Fab,Top*%
%FSLAX46Y46*%
G04 Gerber Fmt 4.6, Leading zero omitted, Abs format (unit mm)*
G04 Created by KiCad (PCBNEW 4.0.5-e0-6337~49~ubuntu16.04.1) date Tue Feb 14 02:34:34 2017*
%MOMM*%
%LPD*%
G01*
G04 APERTURE LIST*
%ADD10C,0.350000*%
%ADD11C,0.100000*%
%ADD12C,0.040640*%
%ADD13C,0.150000*%
G04 APERTURE END LIST*
D10*
D11*
X39939668Y-40805600D02*
G75*
G03X39939668Y-40805600I-7071068J0D01*
G01*
D12*
X21168600Y-36805600D02*
X21168600Y-44805600D01*
X24868600Y-33005600D02*
G75*
G03X21175232Y-36905420I106632J-3799820D01*
G01*
X21168600Y-44805600D02*
G75*
G03X25280424Y-48605600I3811824J0D01*
G01*
X40868600Y-48606916D02*
G75*
G03X44668600Y-44705600I0J3801316D01*
G01*
X44669916Y-36805600D02*
G75*
G03X40768600Y-33005600I-3801316J0D01*
G01*
X44668600Y-36805600D02*
X44668600Y-44805600D01*
X40868600Y-33005600D02*
X24868600Y-33005600D01*
X40868600Y-48605600D02*
X25168600Y-48605600D01*
D13*
X31406695Y-41210362D02*
X31549552Y-41257981D01*
X31787648Y-41257981D01*
X31882886Y-41210362D01*
X31930505Y-41162743D01*
X31978124Y-41067505D01*
X31978124Y-40972267D01*
X31930505Y-40877029D01*
X31882886Y-40829410D01*
X31787648Y-40781790D01*
X31597171Y-40734171D01*
X31501933Y-40686552D01*
X31454314Y-40638933D01*
X31406695Y-40543695D01*
X31406695Y-40448457D01*
X31454314Y-40353219D01*
X31501933Y-40305600D01*
X31597171Y-40257981D01*
X31835267Y-40257981D01*
X31978124Y-40305600D01*
X32406695Y-41257981D02*
X32406695Y-40257981D01*
X32787648Y-40257981D01*
X32882886Y-40305600D01*
X32930505Y-40353219D01*
X32978124Y-40448457D01*
X32978124Y-40591314D01*
X32930505Y-40686552D01*
X32882886Y-40734171D01*
X32787648Y-40781790D01*
X32406695Y-40781790D01*
X33406695Y-41257981D02*
X33406695Y-40257981D01*
X33978124Y-41257981D02*
X33549552Y-40686552D01*
X33978124Y-40257981D02*
X33406695Y-40829410D01*
X34930505Y-41257981D02*
X34359076Y-41257981D01*
X34644790Y-41257981D02*
X34644790Y-40257981D01*
X34549552Y-40400838D01*
X34454314Y-40496076D01*
X34359076Y-40543695D01*
M02*
