G04 This is an RS-274x file exported by *
G04 gerbv version 2.6.0 *
G04 More information is available about gerbv at *
G04 http://gerbv.gpleda.org/ *
G04 --End of header info--*
%MOIN*%
%FSLAX34Y34*%
%IPPOS*%
G04 --Define apertures--*
%ADD10C,0.0138*%
%ADD11C,0.0016*%
%ADD12C,0.0059*%
G04 --Start main section--*
G54D11*
G01X0002189Y-011582D02*
G75*
G03X0000735Y-013118I0000042J-001496D01*
G01X0000732Y-016228D02*
G75*
G03X0002351Y-017724I0001501J0000000D01*
G01X0008488Y-017725D02*
G75*
G03X0009984Y-016189I0000000J0001497D01*
G01X0009984Y-013078D02*
G75*
G03X0008448Y-011582I-001497J0000000D01*
G01X0009984Y-013078D02*
G01X0009984Y-016228D01*
G01X0008488Y-011582D02*
G01X0002189Y-011582D01*
G01X0008488Y-017724D02*
G01X0002307Y-017724D01*
G01X0000732Y-013078D02*
G01X0000732Y-016228D01*
G54D12*
G01X0004789Y-014862D02*
G01X0004845Y-014881D01*
G01X0004845Y-014881D02*
G01X0004939Y-014881D01*
G01X0004939Y-014881D02*
G01X0004976Y-014862D01*
G01X0004976Y-014862D02*
G01X0004995Y-014844D01*
G01X0004995Y-014844D02*
G01X0005014Y-014806D01*
G01X0005014Y-014806D02*
G01X0005014Y-014769D01*
G01X0005014Y-014769D02*
G01X0004995Y-014731D01*
G01X0004995Y-014731D02*
G01X0004976Y-014712D01*
G01X0004976Y-014712D02*
G01X0004939Y-014694D01*
G01X0004939Y-014694D02*
G01X0004864Y-014675D01*
G01X0004864Y-014675D02*
G01X0004826Y-014656D01*
G01X0004826Y-014656D02*
G01X0004808Y-014637D01*
G01X0004808Y-014637D02*
G01X0004789Y-014600D01*
G01X0004789Y-014600D02*
G01X0004789Y-014562D01*
G01X0004789Y-014562D02*
G01X0004808Y-014525D01*
G01X0004808Y-014525D02*
G01X0004826Y-014506D01*
G01X0004826Y-014506D02*
G01X0004864Y-014487D01*
G01X0004864Y-014487D02*
G01X0004958Y-014487D01*
G01X0004958Y-014487D02*
G01X0005014Y-014506D01*
G01X0005145Y-014487D02*
G01X0005239Y-014881D01*
G01X0005239Y-014881D02*
G01X0005314Y-014600D01*
G01X0005314Y-014600D02*
G01X0005389Y-014881D01*
G01X0005389Y-014881D02*
G01X0005483Y-014487D01*
G01X0005839Y-014881D02*
G01X0005614Y-014881D01*
G01X0005726Y-014881D02*
G01X0005726Y-014487D01*
G01X0005726Y-014487D02*
G01X0005689Y-014544D01*
G01X0005689Y-014544D02*
G01X0005651Y-014581D01*
G01X0005651Y-014581D02*
G01X0005614Y-014600D01*
G01X0000000Y0000000D02*
G54D11*
G01X0002189Y-011582D02*
G75*
G03X0000735Y-013118I0000042J-001496D01*
G01X0000732Y-016228D02*
G75*
G03X0002351Y-017724I0001501J0000000D01*
G01X0008488Y-017725D02*
G75*
G03X0009984Y-016189I0000000J0001497D01*
G01X0009984Y-013078D02*
G75*
G03X0008448Y-011582I-001497J0000000D01*
G01X0009984Y-013078D02*
G01X0009984Y-016228D01*
G01X0008488Y-011582D02*
G01X0002189Y-011582D01*
G01X0008488Y-017724D02*
G01X0002307Y-017724D01*
G01X0000732Y-013078D02*
G01X0000732Y-016228D01*
M02*
