%TF.GenerationSoftware,KiCad,Pcbnew,5.0.0-fee4fd1~66~ubuntu16.04.1*%
%TF.CreationDate,2018-09-24T14:57:35-07:00*%
%TF.ProjectId,2x3-Slide-Switch-EG1218-TH,3278332D536C6964652D537769746368,v1.4*%
%TF.SameCoordinates,Original*%
%TF.FileFunction,Soldermask,Top*%
%TF.FilePolarity,Negative*%
%FSLAX46Y46*%
G04 Gerber Fmt 4.6, Leading zero omitted, Abs format (unit mm)*
G04 Created by KiCad (PCBNEW 5.0.0-fee4fd1~66~ubuntu16.04.1) date Mon Sep 24 14:57:35 2018*
%MOMM*%
%LPD*%
G01*
G04 APERTURE LIST*
%ADD10C,1.200000*%
%ADD11C,0.350000*%
G04 APERTURE END LIST*
D10*
X16387233Y-33217020D02*
G75*
G03X10741120Y-33421320I-2826713J-1100D01*
G01*
X10715720Y-41193720D02*
G75*
G03X16361833Y-40989420I2826713J1100D01*
G01*
D11*
G36*
X22485985Y-38164980D02*
X23064013Y-38404407D01*
X23064015Y-38404408D01*
X23168622Y-38474304D01*
X23584231Y-38752005D01*
X24026635Y-39194409D01*
X24374233Y-39714627D01*
X24613660Y-40292655D01*
X24735720Y-40906292D01*
X24735720Y-41531948D01*
X24613660Y-42145585D01*
X24374233Y-42723613D01*
X24026635Y-43243831D01*
X23584231Y-43686235D01*
X23168622Y-43963936D01*
X23064015Y-44033832D01*
X23064014Y-44033833D01*
X23064013Y-44033833D01*
X22485985Y-44273260D01*
X21872348Y-44395320D01*
X21246692Y-44395320D01*
X20633055Y-44273260D01*
X20055027Y-44033833D01*
X20055026Y-44033833D01*
X20055025Y-44033832D01*
X19950418Y-43963936D01*
X19534809Y-43686235D01*
X19092405Y-43243831D01*
X18744807Y-42723613D01*
X18505380Y-42145585D01*
X18383320Y-41531948D01*
X18383320Y-40906292D01*
X18505380Y-40292655D01*
X18744807Y-39714627D01*
X19092405Y-39194409D01*
X19534809Y-38752005D01*
X19950418Y-38474304D01*
X20055025Y-38404408D01*
X20055027Y-38404407D01*
X20633055Y-38164980D01*
X21246692Y-38042920D01*
X21872348Y-38042920D01*
X22485985Y-38164980D01*
X22485985Y-38164980D01*
G37*
G36*
X6485985Y-38164980D02*
X7064013Y-38404407D01*
X7064015Y-38404408D01*
X7168622Y-38474304D01*
X7584231Y-38752005D01*
X8026635Y-39194409D01*
X8374233Y-39714627D01*
X8613660Y-40292655D01*
X8735720Y-40906292D01*
X8735720Y-41531948D01*
X8613660Y-42145585D01*
X8374233Y-42723613D01*
X8026635Y-43243831D01*
X7584231Y-43686235D01*
X7168622Y-43963936D01*
X7064015Y-44033832D01*
X7064014Y-44033833D01*
X7064013Y-44033833D01*
X6485985Y-44273260D01*
X5872348Y-44395320D01*
X5246692Y-44395320D01*
X4633055Y-44273260D01*
X4055027Y-44033833D01*
X4055026Y-44033833D01*
X4055025Y-44033832D01*
X3950418Y-43963936D01*
X3534809Y-43686235D01*
X3092405Y-43243831D01*
X2744807Y-42723613D01*
X2505380Y-42145585D01*
X2383320Y-41531948D01*
X2383320Y-40906292D01*
X2505380Y-40292655D01*
X2744807Y-39714627D01*
X3092405Y-39194409D01*
X3534809Y-38752005D01*
X3950418Y-38474304D01*
X4055025Y-38404408D01*
X4055027Y-38404407D01*
X4633055Y-38164980D01*
X5246692Y-38042920D01*
X5872348Y-38042920D01*
X6485985Y-38164980D01*
X6485985Y-38164980D01*
G37*
G36*
X16239914Y-36449570D02*
X16390273Y-36511851D01*
X16525592Y-36602268D01*
X16640672Y-36717348D01*
X16731089Y-36852667D01*
X16793370Y-37003026D01*
X16825120Y-37162646D01*
X16825120Y-37325394D01*
X16793370Y-37485014D01*
X16731089Y-37635373D01*
X16640672Y-37770692D01*
X16525592Y-37885772D01*
X16390273Y-37976189D01*
X16239914Y-38038470D01*
X16080294Y-38070220D01*
X15917546Y-38070220D01*
X15757926Y-38038470D01*
X15607567Y-37976189D01*
X15472248Y-37885772D01*
X15357168Y-37770692D01*
X15266751Y-37635373D01*
X15204470Y-37485014D01*
X15172720Y-37325394D01*
X15172720Y-37162646D01*
X15204470Y-37003026D01*
X15266751Y-36852667D01*
X15357168Y-36717348D01*
X15472248Y-36602268D01*
X15607567Y-36511851D01*
X15757926Y-36449570D01*
X15917546Y-36417820D01*
X16080294Y-36417820D01*
X16239914Y-36449570D01*
X16239914Y-36449570D01*
G37*
G36*
X13739914Y-36449570D02*
X13890273Y-36511851D01*
X14025592Y-36602268D01*
X14140672Y-36717348D01*
X14231089Y-36852667D01*
X14293370Y-37003026D01*
X14325120Y-37162646D01*
X14325120Y-37325394D01*
X14293370Y-37485014D01*
X14231089Y-37635373D01*
X14140672Y-37770692D01*
X14025592Y-37885772D01*
X13890273Y-37976189D01*
X13739914Y-38038470D01*
X13580294Y-38070220D01*
X13417546Y-38070220D01*
X13257926Y-38038470D01*
X13107567Y-37976189D01*
X12972248Y-37885772D01*
X12857168Y-37770692D01*
X12766751Y-37635373D01*
X12704470Y-37485014D01*
X12672720Y-37325394D01*
X12672720Y-37162646D01*
X12704470Y-37003026D01*
X12766751Y-36852667D01*
X12857168Y-36717348D01*
X12972248Y-36602268D01*
X13107567Y-36511851D01*
X13257926Y-36449570D01*
X13417546Y-36417820D01*
X13580294Y-36417820D01*
X13739914Y-36449570D01*
X13739914Y-36449570D01*
G37*
G36*
X11239914Y-36449570D02*
X11390273Y-36511851D01*
X11525592Y-36602268D01*
X11640672Y-36717348D01*
X11731089Y-36852667D01*
X11793370Y-37003026D01*
X11825120Y-37162646D01*
X11825120Y-37325394D01*
X11793370Y-37485014D01*
X11731089Y-37635373D01*
X11640672Y-37770692D01*
X11525592Y-37885772D01*
X11390273Y-37976189D01*
X11239914Y-38038470D01*
X11080294Y-38070220D01*
X10917546Y-38070220D01*
X10757926Y-38038470D01*
X10607567Y-37976189D01*
X10472248Y-37885772D01*
X10357168Y-37770692D01*
X10266751Y-37635373D01*
X10204470Y-37485014D01*
X10172720Y-37325394D01*
X10172720Y-37162646D01*
X10204470Y-37003026D01*
X10266751Y-36852667D01*
X10357168Y-36717348D01*
X10472248Y-36602268D01*
X10607567Y-36511851D01*
X10757926Y-36449570D01*
X10917546Y-36417820D01*
X11080294Y-36417820D01*
X11239914Y-36449570D01*
X11239914Y-36449570D01*
G37*
G36*
X22485985Y-30164980D02*
X23064013Y-30404407D01*
X23064015Y-30404408D01*
X23168622Y-30474304D01*
X23584231Y-30752005D01*
X24026635Y-31194409D01*
X24374233Y-31714627D01*
X24613660Y-32292655D01*
X24735720Y-32906292D01*
X24735720Y-33531948D01*
X24613660Y-34145585D01*
X24374233Y-34723613D01*
X24026635Y-35243831D01*
X23584231Y-35686235D01*
X23168622Y-35963936D01*
X23064015Y-36033832D01*
X23064014Y-36033833D01*
X23064013Y-36033833D01*
X22485985Y-36273260D01*
X21872348Y-36395320D01*
X21246692Y-36395320D01*
X20633055Y-36273260D01*
X20055027Y-36033833D01*
X20055026Y-36033833D01*
X20055025Y-36033832D01*
X19950418Y-35963936D01*
X19534809Y-35686235D01*
X19092405Y-35243831D01*
X18744807Y-34723613D01*
X18505380Y-34145585D01*
X18383320Y-33531948D01*
X18383320Y-32906292D01*
X18505380Y-32292655D01*
X18744807Y-31714627D01*
X19092405Y-31194409D01*
X19534809Y-30752005D01*
X19950418Y-30474304D01*
X20055025Y-30404408D01*
X20055027Y-30404407D01*
X20633055Y-30164980D01*
X21246692Y-30042920D01*
X21872348Y-30042920D01*
X22485985Y-30164980D01*
X22485985Y-30164980D01*
G37*
G36*
X6485985Y-30164980D02*
X7064013Y-30404407D01*
X7064015Y-30404408D01*
X7168622Y-30474304D01*
X7584231Y-30752005D01*
X8026635Y-31194409D01*
X8374233Y-31714627D01*
X8613660Y-32292655D01*
X8735720Y-32906292D01*
X8735720Y-33531948D01*
X8613660Y-34145585D01*
X8374233Y-34723613D01*
X8026635Y-35243831D01*
X7584231Y-35686235D01*
X7168622Y-35963936D01*
X7064015Y-36033832D01*
X7064014Y-36033833D01*
X7064013Y-36033833D01*
X6485985Y-36273260D01*
X5872348Y-36395320D01*
X5246692Y-36395320D01*
X4633055Y-36273260D01*
X4055027Y-36033833D01*
X4055026Y-36033833D01*
X4055025Y-36033832D01*
X3950418Y-35963936D01*
X3534809Y-35686235D01*
X3092405Y-35243831D01*
X2744807Y-34723613D01*
X2505380Y-34145585D01*
X2383320Y-33531948D01*
X2383320Y-32906292D01*
X2505380Y-32292655D01*
X2744807Y-31714627D01*
X3092405Y-31194409D01*
X3534809Y-30752005D01*
X3950418Y-30474304D01*
X4055025Y-30404408D01*
X4055027Y-30404407D01*
X4633055Y-30164980D01*
X5246692Y-30042920D01*
X5872348Y-30042920D01*
X6485985Y-30164980D01*
X6485985Y-30164980D01*
G37*
M02*
