%TF.GenerationSoftware,KiCad,Pcbnew,4.0.5-e0-6337~49~ubuntu16.04.1*%
%TF.CreationDate,2017-03-18T10:21:55-07:00*%
%TF.ProjectId,2x3-Slide-Switch-EG1218-TH,3278332D536C6964652D537769746368,1.0*%
%TF.FileFunction,Legend,Top*%
%FSLAX46Y46*%
G04 Gerber Fmt 4.6, Leading zero omitted, Abs format (unit mm)*
G04 Created by KiCad (PCBNEW 4.0.5-e0-6337~49~ubuntu16.04.1) date Sat Mar 18 10:21:55 2017*
%MOMM*%
%LPD*%
G01*
G04 APERTURE LIST*
%ADD10C,0.350000*%
%ADD11C,1.500000*%
%ADD12C,2.000000*%
%ADD13C,0.150000*%
%ADD14C,1.402400*%
G04 APERTURE END LIST*
D10*
D11*
X13497020Y-33027620D02*
X13497020Y-41219120D01*
D12*
X5559520Y-33154620D02*
X5559520Y-41219120D01*
D11*
X11020520Y-37218620D02*
X5559520Y-37218620D01*
D12*
X21498020Y-41282620D02*
X21498020Y-33218120D01*
D11*
X16037020Y-37218620D02*
X21498020Y-37218620D01*
D13*
X9964782Y-43481025D02*
X10012401Y-43338168D01*
X10012401Y-43100072D01*
X9964782Y-43004834D01*
X9917163Y-42957215D01*
X9821925Y-42909596D01*
X9726687Y-42909596D01*
X9631449Y-42957215D01*
X9583830Y-43004834D01*
X9536210Y-43100072D01*
X9488591Y-43290549D01*
X9440972Y-43385787D01*
X9393353Y-43433406D01*
X9298115Y-43481025D01*
X9202877Y-43481025D01*
X9107639Y-43433406D01*
X9060020Y-43385787D01*
X9012401Y-43290549D01*
X9012401Y-43052453D01*
X9060020Y-42909596D01*
X10012401Y-42004834D02*
X10012401Y-42481025D01*
X9012401Y-42481025D01*
X10012401Y-41671501D02*
X9012401Y-41671501D01*
X10012401Y-41195311D02*
X9012401Y-41195311D01*
X9012401Y-40957216D01*
X9060020Y-40814358D01*
X9155258Y-40719120D01*
X9250496Y-40671501D01*
X9440972Y-40623882D01*
X9583830Y-40623882D01*
X9774306Y-40671501D01*
X9869544Y-40719120D01*
X9964782Y-40814358D01*
X10012401Y-40957216D01*
X10012401Y-41195311D01*
X9488591Y-40195311D02*
X9488591Y-39861977D01*
X10012401Y-39719120D02*
X10012401Y-40195311D01*
X9012401Y-40195311D01*
X9012401Y-39719120D01*
X9964282Y-35719120D02*
X10011901Y-35576263D01*
X10011901Y-35338167D01*
X9964282Y-35242929D01*
X9916663Y-35195310D01*
X9821425Y-35147691D01*
X9726187Y-35147691D01*
X9630949Y-35195310D01*
X9583330Y-35242929D01*
X9535710Y-35338167D01*
X9488091Y-35528644D01*
X9440472Y-35623882D01*
X9392853Y-35671501D01*
X9297615Y-35719120D01*
X9202377Y-35719120D01*
X9107139Y-35671501D01*
X9059520Y-35623882D01*
X9011901Y-35528644D01*
X9011901Y-35290548D01*
X9059520Y-35147691D01*
X9011901Y-34814358D02*
X10011901Y-34576263D01*
X9297615Y-34385786D01*
X10011901Y-34195310D01*
X9011901Y-33957215D01*
X10011901Y-33576263D02*
X9011901Y-33576263D01*
X9011901Y-33242930D02*
X9011901Y-32671501D01*
X10011901Y-32957216D02*
X9011901Y-32957216D01*
X9916663Y-31766739D02*
X9964282Y-31814358D01*
X10011901Y-31957215D01*
X10011901Y-32052453D01*
X9964282Y-32195311D01*
X9869044Y-32290549D01*
X9773806Y-32338168D01*
X9583330Y-32385787D01*
X9440472Y-32385787D01*
X9249996Y-32338168D01*
X9154758Y-32290549D01*
X9059520Y-32195311D01*
X9011901Y-32052453D01*
X9011901Y-31957215D01*
X9059520Y-31814358D01*
X9107139Y-31766739D01*
X10011901Y-31338168D02*
X9011901Y-31338168D01*
X9488091Y-31338168D02*
X9488091Y-30766739D01*
X10011901Y-30766739D02*
X9011901Y-30766739D01*
%LPC*%
D14*
X13498920Y-37244020D03*
X10998920Y-37244020D03*
X15998920Y-37244020D03*
M02*
