%TF.GenerationSoftware,KiCad,Pcbnew,4.0.5-e0-6337~49~ubuntu16.04.1*%
%TF.CreationDate,2017-01-13T07:36:20-08:00*%
%TF.ProjectId,2x3-LED-TH-5mm-Pitch-Magnet,3278332D4C45442D54482D356D6D2D50,1.0*%
%TF.FileFunction,Other,Fab,Top*%
%FSLAX46Y46*%
G04 Gerber Fmt 4.6, Leading zero omitted, Abs format (unit mm)*
G04 Created by KiCad (PCBNEW 4.0.5-e0-6337~49~ubuntu16.04.1) date Fri Jan 13 07:36:20 2017*
%MOMM*%
%LPD*%
G01*
G04 APERTURE LIST*
%ADD10C,0.350000*%
%ADD11C,0.040640*%
%ADD12C,0.150000*%
G04 APERTURE END LIST*
D10*
D11*
X159883124Y-97600000D02*
G75*
G03X159883124Y-97600000I-6403124J0D01*
G01*
X157380000Y-89800000D02*
X141580000Y-89800000D01*
X157380000Y-105400000D02*
X141580000Y-105400000D01*
X161280000Y-101500000D02*
X161280000Y-93700000D01*
X137680000Y-101500000D02*
X137680000Y-93700000D01*
X161280000Y-93700000D02*
G75*
G03X157380000Y-89800000I-3900000J0D01*
G01*
X157380000Y-105400000D02*
G75*
G03X161280000Y-101500000I0J3900000D01*
G01*
X137680000Y-101500000D02*
G75*
G03X141580000Y-105400000I3900000J0D01*
G01*
X141580000Y-89800000D02*
G75*
G03X137680000Y-93700000I0J-3900000D01*
G01*
D12*
X148360953Y-98062381D02*
X147884762Y-98062381D01*
X147884762Y-97062381D01*
X148694286Y-97538571D02*
X149027620Y-97538571D01*
X149170477Y-98062381D02*
X148694286Y-98062381D01*
X148694286Y-97062381D01*
X149170477Y-97062381D01*
X149599048Y-98062381D02*
X149599048Y-97062381D01*
X149837143Y-97062381D01*
X149980001Y-97110000D01*
X150075239Y-97205238D01*
X150122858Y-97300476D01*
X150170477Y-97490952D01*
X150170477Y-97633810D01*
X150122858Y-97824286D01*
X150075239Y-97919524D01*
X149980001Y-98014762D01*
X149837143Y-98062381D01*
X149599048Y-98062381D01*
X151122858Y-98062381D02*
X150551429Y-98062381D01*
X150837143Y-98062381D02*
X150837143Y-97062381D01*
X150741905Y-97205238D01*
X150646667Y-97300476D01*
X150551429Y-97348095D01*
X153099048Y-91671429D02*
X153860953Y-91671429D01*
X153480001Y-92052381D02*
X153480001Y-91290476D01*
X153099048Y-103671429D02*
X153860953Y-103671429D01*
M02*
