<?xml version="1.0" encoding="UTF-8" standalone="no"?>
<svg
   xmlns:dc="http://purl.org/dc/elements/1.1/"
   xmlns:cc="http://creativecommons.org/ns#"
   xmlns:rdf="http://www.w3.org/1999/02/22-rdf-syntax-ns#"
   xmlns:svg="http://www.w3.org/2000/svg"
   xmlns="http://www.w3.org/2000/svg"
   xmlns:sodipodi="http://sodipodi.sourceforge.net/DTD/sodipodi-0.dtd"
   xmlns:inkscape="http://www.inkscape.org/namespaces/inkscape"
   inkscape:version="1.0 (4035a4f, 2020-05-01)"
   height="10mm"
   width="15mm"
   sodipodi:docname="Icons.svg"
   version="1.1"
   viewBox="0 0 56.69291 37.795276"
   data-name="Layer 1"
   id="Layer_1">
  <metadata
     id="metadata848">
    <rdf:RDF>
      <cc:Work
         rdf:about="">
        <dc:format>image/svg+xml</dc:format>
        <dc:type
           rdf:resource="http://purl.org/dc/dcmitype/StillImage" />
        <dc:title>Icons</dc:title>
      </cc:Work>
    </rdf:RDF>
  </metadata>
  <sodipodi:namedview
     inkscape:current-layer="Layer_1"
     inkscape:window-maximized="0"
     inkscape:window-y="23"
     inkscape:window-x="3217"
     inkscape:cy="18.315808"
     inkscape:cx="30.698473"
     inkscape:zoom="17.404898"
     fit-margin-bottom="0"
     fit-margin-right="0"
     fit-margin-left="0"
     fit-margin-top="0"
     units="mm"
     showgrid="false"
     id="namedview846"
     inkscape:window-height="1325"
     inkscape:window-width="1903"
     inkscape:pageshadow="2"
     inkscape:pageopacity="0"
     guidetolerance="10"
     gridtolerance="10"
     objecttolerance="10"
     borderopacity="1"
     bordercolor="#666666"
     pagecolor="#ffffff" />
  <defs
     id="defs835">
    <style
       id="style833">.cls-1{fill:#8d8e8d;}</style>
  </defs>
  <title
     id="title837">Icons</title>
  <g
     transform="translate(9.1764397,9.1425756)"
     id="g858">
    <path
       class="cls-1"
       d="M 37.68,5.23 34.32,7.58 V 5.28 A 1.28,1.28 0 0 0 33.03,4 H 21.69 A 1.28,1.28 0 0 0 20.4,5.28 v 9.44 a 1.29,1.29 0 0 0 1.29,1.29 h 11.34 a 1.29,1.29 0 0 0 1.29,-1.29 v -2.3 l 3.36,2.35 a 0.42,0.42 0 0 0 0.66,-0.34 V 5.58 A 0.42,0.42 0 0 0 37.68,5.23 Z"
       id="path841" />
    <g
       id="g852">
      <rect
         y="0"
         id="rect839"
         rx="2.73"
         height="12.63"
         width="5.8099999"
         x="3.98"
         class="cls-1" />
      <path
         id="path843"
         d="m 13.36,9.12 h -1 a 0.47,0.47 0 0 0 -0.47,0.47 v 0 A 4.22,4.22 0 0 1 7.72,13.36 H 6.11 A 4.22,4.22 0 0 1 1.93,9.59 v 0 A 0.47,0.47 0 0 0 1.45,9.12 h -1 A 0.47,0.47 0 0 0 0,9.49 v 0.32 a 5.48,5.48 0 0 0 5.47,5.47 h 0.37 v 3.78 a 0.48,0.48 0 0 0 0.49,0.45 h 1.06 a 0.48,0.48 0 0 0 0.49,-0.47 v 0 0 -3.72 H 8.32 A 5.48,5.48 0 0 0 13.79,9.85 V 9.55 A 0.47,0.47 0 0 0 13.36,9.12 Z"
         class="cls-1" />
    </g>
  </g>
</svg>
