%TF.GenerationSoftware,KiCad,Pcbnew,4.0.5-e0-6337~49~ubuntu16.04.1*%
%TF.CreationDate,2017-05-27T10:51:00-07:00*%
%TF.ProjectId,2x3-LED-TH-2.54mm-Pitch-Magnet,3278332D4C45442D54482D322E35346D,v1.2*%
%TF.FileFunction,Soldermask,Top*%
%FSLAX46Y46*%
G04 Gerber Fmt 4.6, Leading zero omitted, Abs format (unit mm)*
G04 Created by KiCad (PCBNEW 4.0.5-e0-6337~49~ubuntu16.04.1) date Sat May 27 10:51:00 2017*
%MOMM*%
%LPD*%
G01*
G04 APERTURE LIST*
%ADD10C,0.350000*%
G04 APERTURE END LIST*
D10*
G36*
X24886910Y-49935647D02*
X25477855Y-50056951D01*
X26033998Y-50290732D01*
X26534134Y-50628078D01*
X26959221Y-51056143D01*
X27293066Y-51558621D01*
X27522956Y-52116376D01*
X27640064Y-52707814D01*
X27640064Y-52707824D01*
X27640131Y-52708163D01*
X27630510Y-53397216D01*
X27630433Y-53397554D01*
X27630433Y-53397562D01*
X27496857Y-53985501D01*
X27251485Y-54536616D01*
X26903737Y-55029578D01*
X26466862Y-55445609D01*
X25957500Y-55768861D01*
X25395054Y-55987019D01*
X24800947Y-56091776D01*
X24197803Y-56079142D01*
X23608600Y-55949597D01*
X23055782Y-55708077D01*
X22560407Y-55363782D01*
X22141337Y-54929823D01*
X21814538Y-54422730D01*
X21592456Y-53861814D01*
X21483555Y-53268458D01*
X21491977Y-52665241D01*
X21617406Y-52075147D01*
X21855059Y-51520658D01*
X22195891Y-51022888D01*
X22626912Y-50600800D01*
X23131713Y-50270468D01*
X23691059Y-50044477D01*
X24283645Y-49931436D01*
X24886910Y-49935647D01*
X24886910Y-49935647D01*
G37*
G36*
X32886910Y-49935647D02*
X33477855Y-50056951D01*
X34033998Y-50290732D01*
X34534134Y-50628078D01*
X34959221Y-51056143D01*
X35293066Y-51558621D01*
X35522956Y-52116376D01*
X35640064Y-52707814D01*
X35640064Y-52707824D01*
X35640131Y-52708163D01*
X35630510Y-53397216D01*
X35630433Y-53397554D01*
X35630433Y-53397562D01*
X35496857Y-53985501D01*
X35251485Y-54536616D01*
X34903737Y-55029578D01*
X34466862Y-55445609D01*
X33957500Y-55768861D01*
X33395054Y-55987019D01*
X32800947Y-56091776D01*
X32197803Y-56079142D01*
X31608600Y-55949597D01*
X31055782Y-55708077D01*
X30560407Y-55363782D01*
X30141337Y-54929823D01*
X29814538Y-54422730D01*
X29592456Y-53861814D01*
X29483555Y-53268458D01*
X29491977Y-52665241D01*
X29617406Y-52075147D01*
X29855059Y-51520658D01*
X30195891Y-51022888D01*
X30626912Y-50600800D01*
X31131713Y-50270468D01*
X31691059Y-50044477D01*
X32283645Y-49931436D01*
X32886910Y-49935647D01*
X32886910Y-49935647D01*
G37*
G36*
X40886910Y-49935647D02*
X41477855Y-50056951D01*
X42033998Y-50290732D01*
X42534134Y-50628078D01*
X42959221Y-51056143D01*
X43293066Y-51558621D01*
X43522956Y-52116376D01*
X43640064Y-52707814D01*
X43640064Y-52707824D01*
X43640131Y-52708163D01*
X43630510Y-53397216D01*
X43630433Y-53397554D01*
X43630433Y-53397562D01*
X43496857Y-53985501D01*
X43251485Y-54536616D01*
X42903737Y-55029578D01*
X42466862Y-55445609D01*
X41957500Y-55768861D01*
X41395054Y-55987019D01*
X40800947Y-56091776D01*
X40197803Y-56079142D01*
X39608600Y-55949597D01*
X39055782Y-55708077D01*
X38560407Y-55363782D01*
X38141337Y-54929823D01*
X37814538Y-54422730D01*
X37592456Y-53861814D01*
X37483555Y-53268458D01*
X37491977Y-52665241D01*
X37617406Y-52075147D01*
X37855059Y-51520658D01*
X38195891Y-51022888D01*
X38626912Y-50600800D01*
X39131713Y-50270468D01*
X39691059Y-50044477D01*
X40283645Y-49931436D01*
X40886910Y-49935647D01*
X40886910Y-49935647D01*
G37*
G36*
X36671590Y-49294281D02*
X36868721Y-49334747D01*
X37054251Y-49412737D01*
X37221092Y-49525273D01*
X37362898Y-49668072D01*
X37474266Y-49835695D01*
X37550956Y-50021758D01*
X37589976Y-50218827D01*
X37589976Y-50218832D01*
X37590044Y-50219176D01*
X37586834Y-50449039D01*
X37586757Y-50449377D01*
X37586757Y-50449386D01*
X37542249Y-50645290D01*
X37460396Y-50829135D01*
X37344388Y-50993586D01*
X37198650Y-51132371D01*
X37028731Y-51240205D01*
X36841099Y-51312982D01*
X36642912Y-51347928D01*
X36441705Y-51343713D01*
X36245151Y-51300499D01*
X36060733Y-51219928D01*
X35895482Y-51105075D01*
X35755682Y-50960309D01*
X35646664Y-50791145D01*
X35572577Y-50604024D01*
X35536249Y-50406088D01*
X35539058Y-50204858D01*
X35580902Y-50008005D01*
X35660180Y-49823032D01*
X35773880Y-49656978D01*
X35917665Y-49516173D01*
X36086065Y-49405976D01*
X36272660Y-49330586D01*
X36470340Y-49292877D01*
X36671590Y-49294281D01*
X36671590Y-49294281D01*
G37*
G36*
X36676842Y-46704315D02*
X36883577Y-46746752D01*
X37078147Y-46828541D01*
X37253118Y-46946561D01*
X37401833Y-47096318D01*
X37518627Y-47272108D01*
X37599053Y-47467236D01*
X37639978Y-47673924D01*
X37639978Y-47673929D01*
X37640046Y-47674273D01*
X37636680Y-47915336D01*
X37636603Y-47915674D01*
X37636603Y-47915683D01*
X37589922Y-48121149D01*
X37504081Y-48313952D01*
X37382421Y-48486415D01*
X37229582Y-48631962D01*
X37051384Y-48745050D01*
X36854610Y-48821373D01*
X36646767Y-48858022D01*
X36435757Y-48853602D01*
X36229625Y-48808281D01*
X36036222Y-48723785D01*
X35862919Y-48603336D01*
X35716308Y-48451517D01*
X35601978Y-48274110D01*
X35524281Y-48077872D01*
X35486184Y-47870292D01*
X35489130Y-47659258D01*
X35533011Y-47452813D01*
X35616153Y-47258828D01*
X35735393Y-47084683D01*
X35886184Y-46937017D01*
X36062788Y-46821451D01*
X36258475Y-46742388D01*
X36465787Y-46702842D01*
X36676842Y-46704315D01*
X36676842Y-46704315D01*
G37*
G36*
X24886910Y-41935647D02*
X25477855Y-42056951D01*
X26033998Y-42290732D01*
X26534134Y-42628078D01*
X26959221Y-43056143D01*
X27293066Y-43558621D01*
X27522956Y-44116376D01*
X27640064Y-44707814D01*
X27640064Y-44707824D01*
X27640131Y-44708163D01*
X27630510Y-45397216D01*
X27630433Y-45397554D01*
X27630433Y-45397562D01*
X27496857Y-45985501D01*
X27251485Y-46536616D01*
X26903737Y-47029578D01*
X26466862Y-47445609D01*
X25957500Y-47768861D01*
X25395054Y-47987019D01*
X24800947Y-48091776D01*
X24197803Y-48079142D01*
X23608600Y-47949597D01*
X23055782Y-47708077D01*
X22560407Y-47363782D01*
X22141337Y-46929823D01*
X21814538Y-46422730D01*
X21592456Y-45861814D01*
X21483555Y-45268458D01*
X21491977Y-44665241D01*
X21617406Y-44075147D01*
X21855059Y-43520658D01*
X22195891Y-43022888D01*
X22626912Y-42600800D01*
X23131713Y-42270468D01*
X23691059Y-42044477D01*
X24283645Y-41931436D01*
X24886910Y-41935647D01*
X24886910Y-41935647D01*
G37*
G36*
X32886910Y-41935647D02*
X33477855Y-42056951D01*
X34033998Y-42290732D01*
X34534134Y-42628078D01*
X34959221Y-43056143D01*
X35293066Y-43558621D01*
X35522956Y-44116376D01*
X35640064Y-44707814D01*
X35640064Y-44707824D01*
X35640131Y-44708163D01*
X35630510Y-45397216D01*
X35630433Y-45397554D01*
X35630433Y-45397562D01*
X35496857Y-45985501D01*
X35251485Y-46536616D01*
X34903737Y-47029578D01*
X34466862Y-47445609D01*
X33957500Y-47768861D01*
X33395054Y-47987019D01*
X32800947Y-48091776D01*
X32197803Y-48079142D01*
X31608600Y-47949597D01*
X31055782Y-47708077D01*
X30560407Y-47363782D01*
X30141337Y-46929823D01*
X29814538Y-46422730D01*
X29592456Y-45861814D01*
X29483555Y-45268458D01*
X29491977Y-44665241D01*
X29617406Y-44075147D01*
X29855059Y-43520658D01*
X30195891Y-43022888D01*
X30626912Y-42600800D01*
X31131713Y-42270468D01*
X31691059Y-42044477D01*
X32283645Y-41931436D01*
X32886910Y-41935647D01*
X32886910Y-41935647D01*
G37*
G36*
X40886910Y-41935647D02*
X41477855Y-42056951D01*
X42033998Y-42290732D01*
X42534134Y-42628078D01*
X42959221Y-43056143D01*
X43293066Y-43558621D01*
X43522956Y-44116376D01*
X43640064Y-44707814D01*
X43640064Y-44707824D01*
X43640131Y-44708163D01*
X43630510Y-45397216D01*
X43630433Y-45397554D01*
X43630433Y-45397562D01*
X43496857Y-45985501D01*
X43251485Y-46536616D01*
X42903737Y-47029578D01*
X42466862Y-47445609D01*
X41957500Y-47768861D01*
X41395054Y-47987019D01*
X40800947Y-48091776D01*
X40197803Y-48079142D01*
X39608600Y-47949597D01*
X39055782Y-47708077D01*
X38560407Y-47363782D01*
X38141337Y-46929823D01*
X37814538Y-46422730D01*
X37592456Y-45861814D01*
X37483555Y-45268458D01*
X37491977Y-44665241D01*
X37617406Y-44075147D01*
X37855059Y-43520658D01*
X38195891Y-43022888D01*
X38626912Y-42600800D01*
X39131713Y-42270468D01*
X39691059Y-42044477D01*
X40283645Y-41931436D01*
X40886910Y-41935647D01*
X40886910Y-41935647D01*
G37*
M02*
