%TF.GenerationSoftware,KiCad,Pcbnew,4.0.5-e0-6337~49~ubuntu16.04.1*%
%TF.CreationDate,2017-02-14T01:13:40-08:00*%
%TF.ProjectId,2x3-LED-TH-2.54mm-Pitch-Magnet,3278332D4C45442D54482D322E35346D,1.0*%
%TF.FileFunction,Soldermask,Top*%
%FSLAX46Y46*%
G04 Gerber Fmt 4.6, Leading zero omitted, Abs format (unit mm)*
G04 Created by KiCad (PCBNEW 4.0.5-e0-6337~49~ubuntu16.04.1) date Tue Feb 14 01:13:40 2017*
%MOMM*%
%LPD*%
G01*
G04 APERTURE LIST*
%ADD10C,0.350000*%
G04 APERTURE END LIST*
D10*
G36*
X36671590Y-49294281D02*
X36868721Y-49334747D01*
X37054251Y-49412737D01*
X37221092Y-49525273D01*
X37362898Y-49668072D01*
X37474266Y-49835695D01*
X37550956Y-50021758D01*
X37589976Y-50218827D01*
X37589976Y-50218832D01*
X37590044Y-50219176D01*
X37586834Y-50449039D01*
X37586757Y-50449377D01*
X37586757Y-50449386D01*
X37542249Y-50645290D01*
X37460396Y-50829135D01*
X37344388Y-50993586D01*
X37198650Y-51132371D01*
X37028731Y-51240205D01*
X36841099Y-51312982D01*
X36642912Y-51347928D01*
X36441705Y-51343713D01*
X36245151Y-51300499D01*
X36060733Y-51219928D01*
X35895482Y-51105075D01*
X35755682Y-50960309D01*
X35646664Y-50791145D01*
X35572577Y-50604024D01*
X35536249Y-50406088D01*
X35539058Y-50204858D01*
X35580902Y-50008005D01*
X35660180Y-49823032D01*
X35773880Y-49656978D01*
X35917665Y-49516173D01*
X36086065Y-49405976D01*
X36272660Y-49330586D01*
X36470340Y-49292877D01*
X36671590Y-49294281D01*
X36671590Y-49294281D01*
G37*
G36*
X36676842Y-46704315D02*
X36883577Y-46746752D01*
X37078147Y-46828541D01*
X37253118Y-46946561D01*
X37401833Y-47096318D01*
X37518627Y-47272108D01*
X37599053Y-47467236D01*
X37639978Y-47673924D01*
X37639978Y-47673929D01*
X37640046Y-47674273D01*
X37636680Y-47915336D01*
X37636603Y-47915674D01*
X37636603Y-47915683D01*
X37589922Y-48121149D01*
X37504081Y-48313952D01*
X37382421Y-48486415D01*
X37229582Y-48631962D01*
X37051384Y-48745050D01*
X36854610Y-48821373D01*
X36646767Y-48858022D01*
X36435757Y-48853602D01*
X36229625Y-48808281D01*
X36036222Y-48723785D01*
X35862919Y-48603336D01*
X35716308Y-48451517D01*
X35601978Y-48274110D01*
X35524281Y-48077872D01*
X35486184Y-47870292D01*
X35489130Y-47659258D01*
X35533011Y-47452813D01*
X35616153Y-47258828D01*
X35735393Y-47084683D01*
X35886184Y-46937017D01*
X36062788Y-46821451D01*
X36258475Y-46742388D01*
X36465787Y-46702842D01*
X36676842Y-46704315D01*
X36676842Y-46704315D01*
G37*
M02*
