%TF.GenerationSoftware,KiCad,Pcbnew,4.0.4+e1-6308~48~ubuntu14.04.1-stable*%
%TF.CreationDate,2016-11-21T12:12:41-08:00*%
%TF.ProjectId,Sample-Set,53616D706C652D5365742E6B69636164,rev?*%
%TF.FileFunction,Legend,Top*%
%FSLAX46Y46*%
G04 Gerber Fmt 4.6, Leading zero omitted, Abs format (unit mm)*
G04 Created by KiCad (PCBNEW 4.0.4+e1-6308~48~ubuntu14.04.1-stable) date Mon Nov 21 12:12:41 2016*
%MOMM*%
%LPD*%
G01*
G04 APERTURE LIST*
%ADD10C,0.350000*%
%ADD11C,7.800000*%
%ADD12C,8.000000*%
%ADD13C,0.150000*%
%ADD14C,0.127000*%
%ADD15C,0.406400*%
%ADD16C,0.800000*%
G04 APERTURE END LIST*
D10*
D11*
X76572000Y-154124000D02*
X76572000Y-146124000D01*
D12*
X68572000Y-136116000D02*
X68572000Y-128116000D01*
D13*
X70342000Y-133616000D02*
X70342000Y-130616000D01*
D14*
X72826000Y-107591000D02*
X72826000Y-91591000D01*
X106727000Y-96891000D02*
X106727000Y-101891000D01*
X108727000Y-96891000D02*
X106727000Y-96891000D01*
X108727000Y-96891000D02*
X108727000Y-93891000D01*
X108727000Y-101891000D02*
X106727000Y-101891000D01*
X108727000Y-101891000D02*
X106727000Y-101891000D01*
X108727000Y-104891000D02*
X108727000Y-101891000D01*
X108727000Y-104891000D02*
X108727000Y-101891000D01*
D15*
X90038000Y-83416000D02*
X90038000Y-75166000D01*
D16*
X72463000Y-79566000D02*
G75*
G03X72463000Y-79566000I-275000J0D01*
G01*
D13*
X71743000Y-79281000D02*
X73013000Y-79281000D01*
X71743000Y-71931000D02*
X73013000Y-71931000D01*
X83953000Y-71931000D02*
X82683000Y-71931000D01*
X83953000Y-79281000D02*
X82683000Y-79281000D01*
X71743000Y-79281000D02*
X71743000Y-71931000D01*
X83953000Y-79281000D02*
X83953000Y-71931000D01*
D15*
X65788000Y-75416000D02*
X65788000Y-67166000D01*
D13*
X74826000Y-168140000D02*
X78826000Y-168140000D01*
X74826000Y-162140000D02*
X78826000Y-162140000D01*
D10*
X73826000Y-165140000D02*
X73826000Y-165140000D01*
X78826000Y-168140000D02*
X74826000Y-168140000D01*
X78826000Y-162140000D02*
X74826000Y-162140000D01*
X79826000Y-165140000D02*
X79826000Y-165140000D01*
X78240214Y-165140000D02*
G75*
G03X78240214Y-165140000I-1414214J0D01*
G01*
D12*
X116346000Y-75362000D02*
X100346000Y-75362000D01*
X116346000Y-83362000D02*
X116346000Y-75362000D01*
X100346000Y-83262000D02*
X100346000Y-75262000D01*
D13*
X66643429Y-150504952D02*
X66643429Y-149743047D01*
X67024381Y-150123999D02*
X66262476Y-150123999D01*
X79643429Y-150504952D02*
X79643429Y-149743047D01*
X79524381Y-132758857D02*
X79524381Y-133235048D01*
X78524381Y-133235048D01*
X79000571Y-132425524D02*
X79000571Y-132092190D01*
X79524381Y-131949333D02*
X79524381Y-132425524D01*
X78524381Y-132425524D01*
X78524381Y-131949333D01*
X79524381Y-131520762D02*
X78524381Y-131520762D01*
X78524381Y-131282667D01*
X78572000Y-131139809D01*
X78667238Y-131044571D01*
X78762476Y-130996952D01*
X78952952Y-130949333D01*
X79095810Y-130949333D01*
X79286286Y-130996952D01*
X79381524Y-131044571D01*
X79476762Y-131139809D01*
X79524381Y-131282667D01*
X79524381Y-131520762D01*
X76843429Y-132496952D02*
X76843429Y-131735047D01*
X77224381Y-132115999D02*
X76462476Y-132115999D01*
X77265618Y-97772381D02*
X77456095Y-97772381D01*
X77551333Y-97820000D01*
X77646571Y-97915238D01*
X77694190Y-98105714D01*
X77694190Y-98439048D01*
X77646571Y-98629524D01*
X77551333Y-98724762D01*
X77456095Y-98772381D01*
X77265618Y-98772381D01*
X77170380Y-98724762D01*
X77075142Y-98629524D01*
X77027523Y-98439048D01*
X77027523Y-98105714D01*
X77075142Y-97915238D01*
X77170380Y-97820000D01*
X77265618Y-97772381D01*
X78694190Y-98772381D02*
X78360856Y-98296190D01*
X78122761Y-98772381D02*
X78122761Y-97772381D01*
X78503714Y-97772381D01*
X78598952Y-97820000D01*
X78646571Y-97867619D01*
X78694190Y-97962857D01*
X78694190Y-98105714D01*
X78646571Y-98200952D01*
X78598952Y-98248571D01*
X78503714Y-98296190D01*
X78122761Y-98296190D01*
X79741809Y-97772381D02*
X80313238Y-97772381D01*
X80027523Y-98772381D02*
X80027523Y-97772381D01*
X80646571Y-98248571D02*
X80979905Y-98248571D01*
X81122762Y-98772381D02*
X80646571Y-98772381D01*
X80646571Y-97772381D01*
X81122762Y-97772381D01*
X81551333Y-98248571D02*
X81884667Y-98248571D01*
X82027524Y-98772381D02*
X81551333Y-98772381D01*
X81551333Y-97772381D01*
X82027524Y-97772381D01*
X82456095Y-98772381D02*
X82456095Y-97772381D01*
X83027524Y-98772381D01*
X83027524Y-97772381D01*
X83456095Y-98724762D02*
X83598952Y-98772381D01*
X83837048Y-98772381D01*
X83932286Y-98724762D01*
X83979905Y-98677143D01*
X84027524Y-98581905D01*
X84027524Y-98486667D01*
X83979905Y-98391429D01*
X83932286Y-98343810D01*
X83837048Y-98296190D01*
X83646571Y-98248571D01*
X83551333Y-98200952D01*
X83503714Y-98153333D01*
X83456095Y-98058095D01*
X83456095Y-97962857D01*
X83503714Y-97867619D01*
X83551333Y-97820000D01*
X83646571Y-97772381D01*
X83884667Y-97772381D01*
X84027524Y-97820000D01*
X84646571Y-98296190D02*
X84646571Y-98772381D01*
X84313238Y-97772381D02*
X84646571Y-98296190D01*
X84979905Y-97772381D01*
X85979905Y-97772381D02*
X86598953Y-97772381D01*
X86265619Y-98153333D01*
X86408477Y-98153333D01*
X86503715Y-98200952D01*
X86551334Y-98248571D01*
X86598953Y-98343810D01*
X86598953Y-98581905D01*
X86551334Y-98677143D01*
X86503715Y-98724762D01*
X86408477Y-98772381D01*
X86122762Y-98772381D01*
X86027524Y-98724762D01*
X85979905Y-98677143D01*
X87027524Y-98677143D02*
X87075143Y-98724762D01*
X87027524Y-98772381D01*
X86979905Y-98724762D01*
X87027524Y-98677143D01*
X87027524Y-98772381D01*
X87456095Y-97867619D02*
X87503714Y-97820000D01*
X87598952Y-97772381D01*
X87837048Y-97772381D01*
X87932286Y-97820000D01*
X87979905Y-97867619D01*
X88027524Y-97962857D01*
X88027524Y-98058095D01*
X87979905Y-98200952D01*
X87408476Y-98772381D01*
X88027524Y-98772381D01*
X89789429Y-98677143D02*
X89741810Y-98724762D01*
X89598953Y-98772381D01*
X89503715Y-98772381D01*
X89360857Y-98724762D01*
X89265619Y-98629524D01*
X89218000Y-98534286D01*
X89170381Y-98343810D01*
X89170381Y-98200952D01*
X89218000Y-98010476D01*
X89265619Y-97915238D01*
X89360857Y-97820000D01*
X89503715Y-97772381D01*
X89598953Y-97772381D01*
X89741810Y-97820000D01*
X89789429Y-97867619D01*
X90408476Y-97772381D02*
X90598953Y-97772381D01*
X90694191Y-97820000D01*
X90789429Y-97915238D01*
X90837048Y-98105714D01*
X90837048Y-98439048D01*
X90789429Y-98629524D01*
X90694191Y-98724762D01*
X90598953Y-98772381D01*
X90408476Y-98772381D01*
X90313238Y-98724762D01*
X90218000Y-98629524D01*
X90170381Y-98439048D01*
X90170381Y-98105714D01*
X90218000Y-97915238D01*
X90313238Y-97820000D01*
X90408476Y-97772381D01*
X91265619Y-98772381D02*
X91265619Y-97772381D01*
X91598953Y-98486667D01*
X91932286Y-97772381D01*
X91932286Y-98772381D01*
X92408476Y-98772381D02*
X92408476Y-97772381D01*
X92789429Y-97772381D01*
X92884667Y-97820000D01*
X92932286Y-97867619D01*
X92979905Y-97962857D01*
X92979905Y-98105714D01*
X92932286Y-98200952D01*
X92884667Y-98248571D01*
X92789429Y-98296190D01*
X92408476Y-98296190D01*
X93360857Y-98486667D02*
X93837048Y-98486667D01*
X93265619Y-98772381D02*
X93598952Y-97772381D01*
X93932286Y-98772381D01*
X94122762Y-97772381D02*
X94694191Y-97772381D01*
X94408476Y-98772381D02*
X94408476Y-97772381D01*
X95027524Y-98772381D02*
X95027524Y-97772381D01*
X95837048Y-98248571D02*
X95979905Y-98296190D01*
X96027524Y-98343810D01*
X96075143Y-98439048D01*
X96075143Y-98581905D01*
X96027524Y-98677143D01*
X95979905Y-98724762D01*
X95884667Y-98772381D01*
X95503714Y-98772381D01*
X95503714Y-97772381D01*
X95837048Y-97772381D01*
X95932286Y-97820000D01*
X95979905Y-97867619D01*
X96027524Y-97962857D01*
X96027524Y-98058095D01*
X95979905Y-98153333D01*
X95932286Y-98200952D01*
X95837048Y-98248571D01*
X95503714Y-98248571D01*
X96979905Y-98772381D02*
X96503714Y-98772381D01*
X96503714Y-97772381D01*
X97313238Y-98248571D02*
X97646572Y-98248571D01*
X97789429Y-98772381D02*
X97313238Y-98772381D01*
X97313238Y-97772381D01*
X97789429Y-97772381D01*
X99313239Y-98248571D02*
X99456096Y-98296190D01*
X99503715Y-98343810D01*
X99551334Y-98439048D01*
X99551334Y-98581905D01*
X99503715Y-98677143D01*
X99456096Y-98724762D01*
X99360858Y-98772381D01*
X98979905Y-98772381D01*
X98979905Y-97772381D01*
X99313239Y-97772381D01*
X99408477Y-97820000D01*
X99456096Y-97867619D01*
X99503715Y-97962857D01*
X99503715Y-98058095D01*
X99456096Y-98153333D01*
X99408477Y-98200952D01*
X99313239Y-98248571D01*
X98979905Y-98248571D01*
X100170381Y-97772381D02*
X100360858Y-97772381D01*
X100456096Y-97820000D01*
X100551334Y-97915238D01*
X100598953Y-98105714D01*
X100598953Y-98439048D01*
X100551334Y-98629524D01*
X100456096Y-98724762D01*
X100360858Y-98772381D01*
X100170381Y-98772381D01*
X100075143Y-98724762D01*
X99979905Y-98629524D01*
X99932286Y-98439048D01*
X99932286Y-98105714D01*
X99979905Y-97915238D01*
X100075143Y-97820000D01*
X100170381Y-97772381D01*
X100979905Y-98486667D02*
X101456096Y-98486667D01*
X100884667Y-98772381D02*
X101218000Y-97772381D01*
X101551334Y-98772381D01*
X102456096Y-98772381D02*
X102122762Y-98296190D01*
X101884667Y-98772381D02*
X101884667Y-97772381D01*
X102265620Y-97772381D01*
X102360858Y-97820000D01*
X102408477Y-97867619D01*
X102456096Y-97962857D01*
X102456096Y-98105714D01*
X102408477Y-98200952D01*
X102360858Y-98248571D01*
X102265620Y-98296190D01*
X101884667Y-98296190D01*
X102884667Y-98772381D02*
X102884667Y-97772381D01*
X103122762Y-97772381D01*
X103265620Y-97820000D01*
X103360858Y-97915238D01*
X103408477Y-98010476D01*
X103456096Y-98200952D01*
X103456096Y-98343810D01*
X103408477Y-98534286D01*
X103360858Y-98629524D01*
X103265620Y-98724762D01*
X103122762Y-98772381D01*
X102884667Y-98772381D01*
X103837048Y-98724762D02*
X103979905Y-98772381D01*
X104218001Y-98772381D01*
X104313239Y-98724762D01*
X104360858Y-98677143D01*
X104408477Y-98581905D01*
X104408477Y-98486667D01*
X104360858Y-98391429D01*
X104313239Y-98343810D01*
X104218001Y-98296190D01*
X104027524Y-98248571D01*
X103932286Y-98200952D01*
X103884667Y-98153333D01*
X103837048Y-98058095D01*
X103837048Y-97962857D01*
X103884667Y-97867619D01*
X103932286Y-97820000D01*
X104027524Y-97772381D01*
X104265620Y-97772381D01*
X104408477Y-97820000D01*
X80765618Y-101074381D02*
X80765618Y-101883905D01*
X80813237Y-101979143D01*
X80860856Y-102026762D01*
X80956094Y-102074381D01*
X81146571Y-102074381D01*
X81241809Y-102026762D01*
X81289428Y-101979143D01*
X81337047Y-101883905D01*
X81337047Y-101074381D01*
X81765618Y-102026762D02*
X81908475Y-102074381D01*
X82146571Y-102074381D01*
X82241809Y-102026762D01*
X82289428Y-101979143D01*
X82337047Y-101883905D01*
X82337047Y-101788667D01*
X82289428Y-101693429D01*
X82241809Y-101645810D01*
X82146571Y-101598190D01*
X81956094Y-101550571D01*
X81860856Y-101502952D01*
X81813237Y-101455333D01*
X81765618Y-101360095D01*
X81765618Y-101264857D01*
X81813237Y-101169619D01*
X81860856Y-101122000D01*
X81956094Y-101074381D01*
X82194190Y-101074381D01*
X82337047Y-101122000D01*
X82765618Y-101550571D02*
X83098952Y-101550571D01*
X83241809Y-102074381D02*
X82765618Y-102074381D01*
X82765618Y-101074381D01*
X83241809Y-101074381D01*
X84622761Y-101074381D02*
X84813238Y-101074381D01*
X84908476Y-101122000D01*
X85003714Y-101217238D01*
X85051333Y-101407714D01*
X85051333Y-101741048D01*
X85003714Y-101931524D01*
X84908476Y-102026762D01*
X84813238Y-102074381D01*
X84622761Y-102074381D01*
X84527523Y-102026762D01*
X84432285Y-101931524D01*
X84384666Y-101741048D01*
X84384666Y-101407714D01*
X84432285Y-101217238D01*
X84527523Y-101122000D01*
X84622761Y-101074381D01*
X85479904Y-102074381D02*
X85479904Y-101074381D01*
X86051333Y-102074381D01*
X86051333Y-101074381D01*
X87003714Y-102074381D02*
X86527523Y-102074381D01*
X86527523Y-101074381D01*
X87527523Y-101598190D02*
X87527523Y-102074381D01*
X87194190Y-101074381D02*
X87527523Y-101598190D01*
X87860857Y-101074381D01*
X88860857Y-101074381D02*
X89098952Y-102074381D01*
X89289429Y-101360095D01*
X89479905Y-102074381D01*
X89718000Y-101074381D01*
X90098952Y-102074381D02*
X90098952Y-101074381D01*
X90432285Y-101074381D02*
X91003714Y-101074381D01*
X90717999Y-102074381D02*
X90717999Y-101074381D01*
X91337047Y-102074381D02*
X91337047Y-101074381D01*
X91337047Y-101550571D02*
X91908476Y-101550571D01*
X91908476Y-102074381D02*
X91908476Y-101074381D01*
X93003714Y-101074381D02*
X93575143Y-101074381D01*
X93289428Y-102074381D02*
X93289428Y-101074381D01*
X93908476Y-101550571D02*
X94241810Y-101550571D01*
X94384667Y-102074381D02*
X93908476Y-102074381D01*
X93908476Y-101074381D01*
X94384667Y-101074381D01*
X94813238Y-101550571D02*
X95146572Y-101550571D01*
X95289429Y-102074381D02*
X94813238Y-102074381D01*
X94813238Y-101074381D01*
X95289429Y-101074381D01*
X95718000Y-102074381D02*
X95718000Y-101074381D01*
X96289429Y-102074381D01*
X96289429Y-101074381D01*
X96718000Y-102026762D02*
X96860857Y-102074381D01*
X97098953Y-102074381D01*
X97194191Y-102026762D01*
X97241810Y-101979143D01*
X97289429Y-101883905D01*
X97289429Y-101788667D01*
X97241810Y-101693429D01*
X97194191Y-101645810D01*
X97098953Y-101598190D01*
X96908476Y-101550571D01*
X96813238Y-101502952D01*
X96765619Y-101455333D01*
X96718000Y-101360095D01*
X96718000Y-101264857D01*
X96765619Y-101169619D01*
X96813238Y-101122000D01*
X96908476Y-101074381D01*
X97146572Y-101074381D01*
X97289429Y-101122000D01*
X97908476Y-101598190D02*
X97908476Y-102074381D01*
X97575143Y-101074381D02*
X97908476Y-101598190D01*
X98241810Y-101074381D01*
X99813239Y-102074381D02*
X99337048Y-102074381D01*
X99337048Y-101074381D01*
X100718001Y-101979143D02*
X100670382Y-102026762D01*
X100527525Y-102074381D01*
X100432287Y-102074381D01*
X100289429Y-102026762D01*
X100194191Y-101931524D01*
X100146572Y-101836286D01*
X100098953Y-101645810D01*
X100098953Y-101502952D01*
X100146572Y-101312476D01*
X100194191Y-101217238D01*
X100289429Y-101122000D01*
X100432287Y-101074381D01*
X100527525Y-101074381D01*
X100670382Y-101122000D01*
X100718001Y-101169619D01*
X102278381Y-111817190D02*
X102278381Y-111198142D01*
X102659333Y-111531476D01*
X102659333Y-111388618D01*
X102706952Y-111293380D01*
X102754571Y-111245761D01*
X102849810Y-111198142D01*
X103087905Y-111198142D01*
X103183143Y-111245761D01*
X103230762Y-111293380D01*
X103278381Y-111388618D01*
X103278381Y-111674333D01*
X103230762Y-111769571D01*
X103183143Y-111817190D01*
X103183143Y-110769571D02*
X103230762Y-110721952D01*
X103278381Y-110769571D01*
X103230762Y-110817190D01*
X103183143Y-110769571D01*
X103278381Y-110769571D01*
X102278381Y-110388619D02*
X102278381Y-109769571D01*
X102659333Y-110102905D01*
X102659333Y-109960047D01*
X102706952Y-109864809D01*
X102754571Y-109817190D01*
X102849810Y-109769571D01*
X103087905Y-109769571D01*
X103183143Y-109817190D01*
X103230762Y-109864809D01*
X103278381Y-109960047D01*
X103278381Y-110245762D01*
X103230762Y-110341000D01*
X103183143Y-110388619D01*
X102278381Y-109483857D02*
X103278381Y-109150524D01*
X102278381Y-108817190D01*
X83468381Y-113241476D02*
X83468381Y-113812905D01*
X83468381Y-113527191D02*
X82468381Y-113527191D01*
X82611238Y-113622429D01*
X82706476Y-113717667D01*
X82754095Y-113812905D01*
X82468381Y-112908143D02*
X82468381Y-112241476D01*
X83468381Y-112670048D01*
X75218381Y-113241476D02*
X75218381Y-113812905D01*
X75218381Y-113527191D02*
X74218381Y-113527191D01*
X74361238Y-113622429D01*
X74456476Y-113717667D01*
X74504095Y-113812905D01*
X74218381Y-112384333D02*
X74218381Y-112574810D01*
X74266000Y-112670048D01*
X74313619Y-112717667D01*
X74456476Y-112812905D01*
X74646952Y-112860524D01*
X75027905Y-112860524D01*
X75123143Y-112812905D01*
X75170762Y-112765286D01*
X75218381Y-112670048D01*
X75218381Y-112479571D01*
X75170762Y-112384333D01*
X75123143Y-112336714D01*
X75027905Y-112289095D01*
X74789810Y-112289095D01*
X74694571Y-112336714D01*
X74646952Y-112384333D01*
X74599333Y-112479571D01*
X74599333Y-112670048D01*
X74646952Y-112765286D01*
X74694571Y-112812905D01*
X74789810Y-112860524D01*
X107601000Y-95492904D02*
X107553381Y-95588142D01*
X107553381Y-95730999D01*
X107601000Y-95873857D01*
X107696238Y-95969095D01*
X107791476Y-96016714D01*
X107981952Y-96064333D01*
X108124810Y-96064333D01*
X108315286Y-96016714D01*
X108410524Y-95969095D01*
X108505762Y-95873857D01*
X108553381Y-95730999D01*
X108553381Y-95635761D01*
X108505762Y-95492904D01*
X108458143Y-95445285D01*
X108124810Y-95445285D01*
X108124810Y-95635761D01*
X108553381Y-95016714D02*
X107553381Y-95016714D01*
X108553381Y-94445285D01*
X107553381Y-94445285D01*
X108553381Y-93969095D02*
X107553381Y-93969095D01*
X107553381Y-93731000D01*
X107601000Y-93588142D01*
X107696238Y-93492904D01*
X107791476Y-93445285D01*
X107981952Y-93397666D01*
X108124810Y-93397666D01*
X108315286Y-93445285D01*
X108410524Y-93492904D01*
X108505762Y-93588142D01*
X108553381Y-93731000D01*
X108553381Y-93969095D01*
X94873619Y-110352905D02*
X94826000Y-110305286D01*
X94778381Y-110210048D01*
X94778381Y-109971952D01*
X94826000Y-109876714D01*
X94873619Y-109829095D01*
X94968857Y-109781476D01*
X95064095Y-109781476D01*
X95206952Y-109829095D01*
X95778381Y-110400524D01*
X95778381Y-109781476D01*
X95778381Y-108829095D02*
X95778381Y-109400524D01*
X95778381Y-109114810D02*
X94778381Y-109114810D01*
X94921238Y-109210048D01*
X95016476Y-109305286D01*
X95064095Y-109400524D01*
X82878381Y-109731476D02*
X82878381Y-110302905D01*
X82878381Y-110017191D02*
X81878381Y-110017191D01*
X82021238Y-110112429D01*
X82116476Y-110207667D01*
X82164095Y-110302905D01*
X81878381Y-108874333D02*
X81878381Y-109064810D01*
X81926000Y-109160048D01*
X81973619Y-109207667D01*
X82116476Y-109302905D01*
X82306952Y-109350524D01*
X82687905Y-109350524D01*
X82783143Y-109302905D01*
X82830762Y-109255286D01*
X82878381Y-109160048D01*
X82878381Y-108969571D01*
X82830762Y-108874333D01*
X82783143Y-108826714D01*
X82687905Y-108779095D01*
X82449810Y-108779095D01*
X82354571Y-108826714D01*
X82306952Y-108874333D01*
X82259333Y-108969571D01*
X82259333Y-109160048D01*
X82306952Y-109255286D01*
X82354571Y-109302905D01*
X82449810Y-109350524D01*
X85479381Y-109781476D02*
X85479381Y-110352905D01*
X85479381Y-110067191D02*
X84479381Y-110067191D01*
X84622238Y-110162429D01*
X84717476Y-110257667D01*
X84765095Y-110352905D01*
X84479381Y-109448143D02*
X84479381Y-108781476D01*
X85479381Y-109210048D01*
X99468381Y-112991476D02*
X99468381Y-113562905D01*
X99468381Y-113277191D02*
X98468381Y-113277191D01*
X98611238Y-113372429D01*
X98706476Y-113467667D01*
X98754095Y-113562905D01*
X99468381Y-112515286D02*
X99468381Y-112324810D01*
X99420762Y-112229571D01*
X99373143Y-112181952D01*
X99230286Y-112086714D01*
X99039810Y-112039095D01*
X98658857Y-112039095D01*
X98563619Y-112086714D01*
X98516000Y-112134333D01*
X98468381Y-112229571D01*
X98468381Y-112420048D01*
X98516000Y-112515286D01*
X98563619Y-112562905D01*
X98658857Y-112610524D01*
X98896952Y-112610524D01*
X98992190Y-112562905D01*
X99039810Y-112515286D01*
X99087429Y-112420048D01*
X99087429Y-112229571D01*
X99039810Y-112134333D01*
X98992190Y-112086714D01*
X98896952Y-112039095D01*
X80328381Y-109781476D02*
X80328381Y-110352905D01*
X80328381Y-110067191D02*
X79328381Y-110067191D01*
X79471238Y-110162429D01*
X79566476Y-110257667D01*
X79614095Y-110352905D01*
X79328381Y-108876714D02*
X79328381Y-109352905D01*
X79804571Y-109400524D01*
X79756952Y-109352905D01*
X79709333Y-109257667D01*
X79709333Y-109019571D01*
X79756952Y-108924333D01*
X79804571Y-108876714D01*
X79899810Y-108829095D01*
X80137905Y-108829095D01*
X80233143Y-108876714D01*
X80280762Y-108924333D01*
X80328381Y-109019571D01*
X80328381Y-109257667D01*
X80280762Y-109352905D01*
X80233143Y-109400524D01*
X91218381Y-112991476D02*
X91218381Y-113562905D01*
X91218381Y-113277191D02*
X90218381Y-113277191D01*
X90361238Y-113372429D01*
X90456476Y-113467667D01*
X90504095Y-113562905D01*
X90646952Y-112420048D02*
X90599333Y-112515286D01*
X90551714Y-112562905D01*
X90456476Y-112610524D01*
X90408857Y-112610524D01*
X90313619Y-112562905D01*
X90266000Y-112515286D01*
X90218381Y-112420048D01*
X90218381Y-112229571D01*
X90266000Y-112134333D01*
X90313619Y-112086714D01*
X90408857Y-112039095D01*
X90456476Y-112039095D01*
X90551714Y-112086714D01*
X90599333Y-112134333D01*
X90646952Y-112229571D01*
X90646952Y-112420048D01*
X90694571Y-112515286D01*
X90742190Y-112562905D01*
X90837429Y-112610524D01*
X91027905Y-112610524D01*
X91123143Y-112562905D01*
X91170762Y-112515286D01*
X91218381Y-112420048D01*
X91218381Y-112229571D01*
X91170762Y-112134333D01*
X91123143Y-112086714D01*
X91027905Y-112039095D01*
X90837429Y-112039095D01*
X90742190Y-112086714D01*
X90694571Y-112134333D01*
X90646952Y-112229571D01*
X106378619Y-113907905D02*
X106331000Y-113860286D01*
X106283381Y-113765048D01*
X106283381Y-113526952D01*
X106331000Y-113431714D01*
X106378619Y-113384095D01*
X106473857Y-113336476D01*
X106569095Y-113336476D01*
X106711952Y-113384095D01*
X107283381Y-113955524D01*
X107283381Y-113336476D01*
X106283381Y-112717429D02*
X106283381Y-112622190D01*
X106331000Y-112526952D01*
X106378619Y-112479333D01*
X106473857Y-112431714D01*
X106664333Y-112384095D01*
X106902429Y-112384095D01*
X107092905Y-112431714D01*
X107188143Y-112479333D01*
X107235762Y-112526952D01*
X107283381Y-112622190D01*
X107283381Y-112717429D01*
X107235762Y-112812667D01*
X107188143Y-112860286D01*
X107092905Y-112907905D01*
X106902429Y-112955524D01*
X106664333Y-112955524D01*
X106473857Y-112907905D01*
X106378619Y-112860286D01*
X106331000Y-112812667D01*
X106283381Y-112717429D01*
X97374619Y-110352905D02*
X97327000Y-110305286D01*
X97279381Y-110210048D01*
X97279381Y-109971952D01*
X97327000Y-109876714D01*
X97374619Y-109829095D01*
X97469857Y-109781476D01*
X97565095Y-109781476D01*
X97707952Y-109829095D01*
X98279381Y-110400524D01*
X98279381Y-109781476D01*
X97374619Y-109400524D02*
X97327000Y-109352905D01*
X97279381Y-109257667D01*
X97279381Y-109019571D01*
X97327000Y-108924333D01*
X97374619Y-108876714D01*
X97469857Y-108829095D01*
X97565095Y-108829095D01*
X97707952Y-108876714D01*
X98279381Y-109448143D01*
X98279381Y-108829095D01*
X70453381Y-114606476D02*
X70453381Y-115177905D01*
X70453381Y-114892191D02*
X69453381Y-114892191D01*
X69596238Y-114987429D01*
X69691476Y-115082667D01*
X69739095Y-115177905D01*
X69453381Y-113701714D02*
X69453381Y-114177905D01*
X69929571Y-114225524D01*
X69881952Y-114177905D01*
X69834333Y-114082667D01*
X69834333Y-113844571D01*
X69881952Y-113749333D01*
X69929571Y-113701714D01*
X70024810Y-113654095D01*
X70262905Y-113654095D01*
X70358143Y-113701714D01*
X70405762Y-113749333D01*
X70453381Y-113844571D01*
X70453381Y-114082667D01*
X70405762Y-114177905D01*
X70358143Y-114225524D01*
X77878381Y-109781476D02*
X77878381Y-110352905D01*
X77878381Y-110067191D02*
X76878381Y-110067191D01*
X77021238Y-110162429D01*
X77116476Y-110257667D01*
X77164095Y-110352905D01*
X77211714Y-108924333D02*
X77878381Y-108924333D01*
X76830762Y-109162429D02*
X77545048Y-109400524D01*
X77545048Y-108781476D01*
X92408619Y-110352905D02*
X92361000Y-110305286D01*
X92313381Y-110210048D01*
X92313381Y-109971952D01*
X92361000Y-109876714D01*
X92408619Y-109829095D01*
X92503857Y-109781476D01*
X92599095Y-109781476D01*
X92741952Y-109829095D01*
X93313381Y-110400524D01*
X93313381Y-109781476D01*
X92313381Y-109162429D02*
X92313381Y-109067190D01*
X92361000Y-108971952D01*
X92408619Y-108924333D01*
X92503857Y-108876714D01*
X92694333Y-108829095D01*
X92932429Y-108829095D01*
X93122905Y-108876714D01*
X93218143Y-108924333D01*
X93265762Y-108971952D01*
X93313381Y-109067190D01*
X93313381Y-109162429D01*
X93265762Y-109257667D01*
X93218143Y-109305286D01*
X93122905Y-109352905D01*
X92932429Y-109400524D01*
X92694333Y-109400524D01*
X92503857Y-109352905D01*
X92408619Y-109305286D01*
X92361000Y-109257667D01*
X92313381Y-109162429D01*
X90773381Y-109781476D02*
X90773381Y-110352905D01*
X90773381Y-110067191D02*
X89773381Y-110067191D01*
X89916238Y-110162429D01*
X90011476Y-110257667D01*
X90059095Y-110352905D01*
X90773381Y-109305286D02*
X90773381Y-109114810D01*
X90725762Y-109019571D01*
X90678143Y-108971952D01*
X90535286Y-108876714D01*
X90344810Y-108829095D01*
X89963857Y-108829095D01*
X89868619Y-108876714D01*
X89821000Y-108924333D01*
X89773381Y-109019571D01*
X89773381Y-109210048D01*
X89821000Y-109305286D01*
X89868619Y-109352905D01*
X89963857Y-109400524D01*
X90201952Y-109400524D01*
X90297190Y-109352905D01*
X90344810Y-109305286D01*
X90392429Y-109210048D01*
X90392429Y-109019571D01*
X90344810Y-108924333D01*
X90297190Y-108876714D01*
X90201952Y-108829095D01*
X88233381Y-109781476D02*
X88233381Y-110352905D01*
X88233381Y-110067191D02*
X87233381Y-110067191D01*
X87376238Y-110162429D01*
X87471476Y-110257667D01*
X87519095Y-110352905D01*
X87661952Y-109210048D02*
X87614333Y-109305286D01*
X87566714Y-109352905D01*
X87471476Y-109400524D01*
X87423857Y-109400524D01*
X87328619Y-109352905D01*
X87281000Y-109305286D01*
X87233381Y-109210048D01*
X87233381Y-109019571D01*
X87281000Y-108924333D01*
X87328619Y-108876714D01*
X87423857Y-108829095D01*
X87471476Y-108829095D01*
X87566714Y-108876714D01*
X87614333Y-108924333D01*
X87661952Y-109019571D01*
X87661952Y-109210048D01*
X87709571Y-109305286D01*
X87757190Y-109352905D01*
X87852429Y-109400524D01*
X88042905Y-109400524D01*
X88138143Y-109352905D01*
X88185762Y-109305286D01*
X88233381Y-109210048D01*
X88233381Y-109019571D01*
X88185762Y-108924333D01*
X88138143Y-108876714D01*
X88042905Y-108829095D01*
X87852429Y-108829095D01*
X87757190Y-108876714D01*
X87709571Y-108924333D01*
X87661952Y-109019571D01*
X71723381Y-109526476D02*
X71723381Y-110097905D01*
X71723381Y-109812191D02*
X70723381Y-109812191D01*
X70866238Y-109907429D01*
X70961476Y-110002667D01*
X71009095Y-110097905D01*
X71056714Y-108669333D02*
X71723381Y-108669333D01*
X70675762Y-108907429D02*
X71390048Y-109145524D01*
X71390048Y-108526476D01*
X111458619Y-115177905D02*
X111411000Y-115130286D01*
X111363381Y-115035048D01*
X111363381Y-114796952D01*
X111411000Y-114701714D01*
X111458619Y-114654095D01*
X111553857Y-114606476D01*
X111649095Y-114606476D01*
X111791952Y-114654095D01*
X112363381Y-115225524D01*
X112363381Y-114606476D01*
X112363381Y-113654095D02*
X112363381Y-114225524D01*
X112363381Y-113939810D02*
X111363381Y-113939810D01*
X111506238Y-114035048D01*
X111601476Y-114130286D01*
X111649095Y-114225524D01*
X110188619Y-110097905D02*
X110141000Y-110050286D01*
X110093381Y-109955048D01*
X110093381Y-109716952D01*
X110141000Y-109621714D01*
X110188619Y-109574095D01*
X110283857Y-109526476D01*
X110379095Y-109526476D01*
X110521952Y-109574095D01*
X111093381Y-110145524D01*
X111093381Y-109526476D01*
X110188619Y-109145524D02*
X110141000Y-109097905D01*
X110093381Y-109002667D01*
X110093381Y-108764571D01*
X110141000Y-108669333D01*
X110188619Y-108621714D01*
X110283857Y-108574095D01*
X110379095Y-108574095D01*
X110521952Y-108621714D01*
X111093381Y-109193143D01*
X111093381Y-108574095D01*
X70771000Y-102477904D02*
X70723381Y-102573142D01*
X70723381Y-102715999D01*
X70771000Y-102858857D01*
X70866238Y-102954095D01*
X70961476Y-103001714D01*
X71151952Y-103049333D01*
X71294810Y-103049333D01*
X71485286Y-103001714D01*
X71580524Y-102954095D01*
X71675762Y-102858857D01*
X71723381Y-102715999D01*
X71723381Y-102620761D01*
X71675762Y-102477904D01*
X71628143Y-102430285D01*
X71294810Y-102430285D01*
X71294810Y-102620761D01*
X71723381Y-102001714D02*
X70723381Y-102001714D01*
X71723381Y-101430285D01*
X70723381Y-101430285D01*
X71723381Y-100954095D02*
X70723381Y-100954095D01*
X70723381Y-100716000D01*
X70771000Y-100573142D01*
X70866238Y-100477904D01*
X70961476Y-100430285D01*
X71151952Y-100382666D01*
X71294810Y-100382666D01*
X71485286Y-100430285D01*
X71580524Y-100477904D01*
X71675762Y-100573142D01*
X71723381Y-100716000D01*
X71723381Y-100954095D01*
X70723381Y-94937190D02*
X70723381Y-94318142D01*
X71104333Y-94651476D01*
X71104333Y-94508618D01*
X71151952Y-94413380D01*
X71199571Y-94365761D01*
X71294810Y-94318142D01*
X71532905Y-94318142D01*
X71628143Y-94365761D01*
X71675762Y-94413380D01*
X71723381Y-94508618D01*
X71723381Y-94794333D01*
X71675762Y-94889571D01*
X71628143Y-94937190D01*
X71628143Y-93889571D02*
X71675762Y-93841952D01*
X71723381Y-93889571D01*
X71675762Y-93937190D01*
X71628143Y-93889571D01*
X71723381Y-93889571D01*
X70723381Y-93508619D02*
X70723381Y-92889571D01*
X71104333Y-93222905D01*
X71104333Y-93080047D01*
X71151952Y-92984809D01*
X71199571Y-92937190D01*
X71294810Y-92889571D01*
X71532905Y-92889571D01*
X71628143Y-92937190D01*
X71675762Y-92984809D01*
X71723381Y-93080047D01*
X71723381Y-93365762D01*
X71675762Y-93461000D01*
X71628143Y-93508619D01*
X70723381Y-92603857D02*
X71723381Y-92270524D01*
X70723381Y-91937190D01*
X110093381Y-95572190D02*
X110093381Y-94953142D01*
X110474333Y-95286476D01*
X110474333Y-95143618D01*
X110521952Y-95048380D01*
X110569571Y-95000761D01*
X110664810Y-94953142D01*
X110902905Y-94953142D01*
X110998143Y-95000761D01*
X111045762Y-95048380D01*
X111093381Y-95143618D01*
X111093381Y-95429333D01*
X111045762Y-95524571D01*
X110998143Y-95572190D01*
X110998143Y-94524571D02*
X111045762Y-94476952D01*
X111093381Y-94524571D01*
X111045762Y-94572190D01*
X110998143Y-94524571D01*
X111093381Y-94524571D01*
X110093381Y-94143619D02*
X110093381Y-93524571D01*
X110474333Y-93857905D01*
X110474333Y-93715047D01*
X110521952Y-93619809D01*
X110569571Y-93572190D01*
X110664810Y-93524571D01*
X110902905Y-93524571D01*
X110998143Y-93572190D01*
X111045762Y-93619809D01*
X111093381Y-93715047D01*
X111093381Y-94000762D01*
X111045762Y-94096000D01*
X110998143Y-94143619D01*
X110093381Y-93238857D02*
X111093381Y-92905524D01*
X110093381Y-92572190D01*
X107601000Y-95492904D02*
X107553381Y-95588142D01*
X107553381Y-95730999D01*
X107601000Y-95873857D01*
X107696238Y-95969095D01*
X107791476Y-96016714D01*
X107981952Y-96064333D01*
X108124810Y-96064333D01*
X108315286Y-96016714D01*
X108410524Y-95969095D01*
X108505762Y-95873857D01*
X108553381Y-95730999D01*
X108553381Y-95635761D01*
X108505762Y-95492904D01*
X108458143Y-95445285D01*
X108124810Y-95445285D01*
X108124810Y-95635761D01*
X108553381Y-95016714D02*
X107553381Y-95016714D01*
X108553381Y-94445285D01*
X107553381Y-94445285D01*
X108553381Y-93969095D02*
X107553381Y-93969095D01*
X107553381Y-93731000D01*
X107601000Y-93588142D01*
X107696238Y-93492904D01*
X107791476Y-93445285D01*
X107981952Y-93397666D01*
X108124810Y-93397666D01*
X108315286Y-93445285D01*
X108410524Y-93492904D01*
X108505762Y-93588142D01*
X108553381Y-93731000D01*
X108553381Y-93969095D01*
X110141000Y-102477904D02*
X110093381Y-102573142D01*
X110093381Y-102715999D01*
X110141000Y-102858857D01*
X110236238Y-102954095D01*
X110331476Y-103001714D01*
X110521952Y-103049333D01*
X110664810Y-103049333D01*
X110855286Y-103001714D01*
X110950524Y-102954095D01*
X111045762Y-102858857D01*
X111093381Y-102715999D01*
X111093381Y-102620761D01*
X111045762Y-102477904D01*
X110998143Y-102430285D01*
X110664810Y-102430285D01*
X110664810Y-102620761D01*
X111093381Y-102001714D02*
X110093381Y-102001714D01*
X111093381Y-101430285D01*
X110093381Y-101430285D01*
X111093381Y-100954095D02*
X110093381Y-100954095D01*
X110093381Y-100716000D01*
X110141000Y-100573142D01*
X110236238Y-100477904D01*
X110331476Y-100430285D01*
X110521952Y-100382666D01*
X110664810Y-100382666D01*
X110855286Y-100430285D01*
X110950524Y-100477904D01*
X111045762Y-100573142D01*
X111093381Y-100716000D01*
X111093381Y-100954095D01*
X69240381Y-85880285D02*
X69240381Y-86451714D01*
X69240381Y-86166000D02*
X68240381Y-86166000D01*
X68383238Y-86261238D01*
X68478476Y-86356476D01*
X68526095Y-86451714D01*
X67168952Y-71761238D02*
X67121333Y-71856476D01*
X67073714Y-71904095D01*
X66978476Y-71951714D01*
X66930857Y-71951714D01*
X66835619Y-71904095D01*
X66788000Y-71856476D01*
X66740381Y-71761238D01*
X66740381Y-71570761D01*
X66788000Y-71475523D01*
X66835619Y-71427904D01*
X66930857Y-71380285D01*
X66978476Y-71380285D01*
X67073714Y-71427904D01*
X67121333Y-71475523D01*
X67168952Y-71570761D01*
X67168952Y-71761238D01*
X67216571Y-71856476D01*
X67264190Y-71904095D01*
X67359429Y-71951714D01*
X67549905Y-71951714D01*
X67645143Y-71904095D01*
X67692762Y-71856476D01*
X67740381Y-71761238D01*
X67740381Y-71570761D01*
X67692762Y-71475523D01*
X67645143Y-71427904D01*
X67549905Y-71380285D01*
X67359429Y-71380285D01*
X67264190Y-71427904D01*
X67216571Y-71475523D01*
X67168952Y-71570761D01*
X70490381Y-65249333D02*
X70490381Y-64582666D01*
X71490381Y-65011238D01*
X78490381Y-64475523D02*
X78490381Y-64666000D01*
X78538000Y-64761238D01*
X78585619Y-64808857D01*
X78728476Y-64904095D01*
X78918952Y-64951714D01*
X79299905Y-64951714D01*
X79395143Y-64904095D01*
X79442762Y-64856476D01*
X79490381Y-64761238D01*
X79490381Y-64570761D01*
X79442762Y-64475523D01*
X79395143Y-64427904D01*
X79299905Y-64380285D01*
X79061810Y-64380285D01*
X78966571Y-64427904D01*
X78918952Y-64475523D01*
X78871333Y-64570761D01*
X78871333Y-64761238D01*
X78918952Y-64856476D01*
X78966571Y-64904095D01*
X79061810Y-64951714D01*
X86490381Y-64427904D02*
X86490381Y-64904095D01*
X86966571Y-64951714D01*
X86918952Y-64904095D01*
X86871333Y-64808857D01*
X86871333Y-64570761D01*
X86918952Y-64475523D01*
X86966571Y-64427904D01*
X87061810Y-64380285D01*
X87299905Y-64380285D01*
X87395143Y-64427904D01*
X87442762Y-64475523D01*
X87490381Y-64570761D01*
X87490381Y-64808857D01*
X87442762Y-64904095D01*
X87395143Y-64951714D01*
X91323714Y-79225523D02*
X91990381Y-79225523D01*
X90942762Y-79463619D02*
X91657048Y-79701714D01*
X91657048Y-79082666D01*
X76335619Y-86451714D02*
X76288000Y-86404095D01*
X76240381Y-86308857D01*
X76240381Y-86070761D01*
X76288000Y-85975523D01*
X76335619Y-85927904D01*
X76430857Y-85880285D01*
X76526095Y-85880285D01*
X76668952Y-85927904D01*
X77240381Y-86499333D01*
X77240381Y-85880285D01*
X84740381Y-86499333D02*
X84740381Y-85880285D01*
X85121333Y-86213619D01*
X85121333Y-86070761D01*
X85168952Y-85975523D01*
X85216571Y-85927904D01*
X85311810Y-85880285D01*
X85549905Y-85880285D01*
X85645143Y-85927904D01*
X85692762Y-85975523D01*
X85740381Y-86070761D01*
X85740381Y-86356476D01*
X85692762Y-86451714D01*
X85645143Y-86499333D01*
X112274571Y-70033429D02*
X112322190Y-69890572D01*
X112369810Y-69842953D01*
X112465048Y-69795334D01*
X112607905Y-69795334D01*
X112703143Y-69842953D01*
X112750762Y-69890572D01*
X112798381Y-69985810D01*
X112798381Y-70366763D01*
X111798381Y-70366763D01*
X111798381Y-70033429D01*
X111846000Y-69938191D01*
X111893619Y-69890572D01*
X111988857Y-69842953D01*
X112084095Y-69842953D01*
X112179333Y-69890572D01*
X112226952Y-69938191D01*
X112274571Y-70033429D01*
X112274571Y-70366763D01*
X112798381Y-68938191D02*
X112274571Y-68938191D01*
X112179333Y-68985810D01*
X112131714Y-69081048D01*
X112131714Y-69271525D01*
X112179333Y-69366763D01*
X112750762Y-68938191D02*
X112798381Y-69033429D01*
X112798381Y-69271525D01*
X112750762Y-69366763D01*
X112655524Y-69414382D01*
X112560286Y-69414382D01*
X112465048Y-69366763D01*
X112417429Y-69271525D01*
X112417429Y-69033429D01*
X112369810Y-68938191D01*
X112131714Y-68604858D02*
X112131714Y-68223906D01*
X111798381Y-68462001D02*
X112655524Y-68462001D01*
X112750762Y-68414382D01*
X112798381Y-68319144D01*
X112798381Y-68223906D01*
X112131714Y-68033429D02*
X112131714Y-67652477D01*
X111798381Y-67890572D02*
X112655524Y-67890572D01*
X112750762Y-67842953D01*
X112798381Y-67747715D01*
X112798381Y-67652477D01*
X112750762Y-66938190D02*
X112798381Y-67033428D01*
X112798381Y-67223905D01*
X112750762Y-67319143D01*
X112655524Y-67366762D01*
X112274571Y-67366762D01*
X112179333Y-67319143D01*
X112131714Y-67223905D01*
X112131714Y-67033428D01*
X112179333Y-66938190D01*
X112274571Y-66890571D01*
X112369810Y-66890571D01*
X112465048Y-67366762D01*
X112798381Y-66462000D02*
X112131714Y-66462000D01*
X112322190Y-66462000D02*
X112226952Y-66414381D01*
X112179333Y-66366762D01*
X112131714Y-66271524D01*
X112131714Y-66176285D01*
X112131714Y-65938190D02*
X112798381Y-65700095D01*
X112131714Y-65461999D02*
X112798381Y-65700095D01*
X113036476Y-65795333D01*
X113084095Y-65842952D01*
X113131714Y-65938190D01*
X104217429Y-64742952D02*
X104217429Y-63981047D01*
X104598381Y-64361999D02*
X103836476Y-64361999D01*
X113017429Y-64742952D02*
X113017429Y-63981047D01*
X113398381Y-64361999D02*
X112636476Y-64361999D01*
X112913429Y-168774952D02*
X112913429Y-168013047D01*
X113294381Y-168393999D02*
X112532476Y-168393999D01*
X104913429Y-168774952D02*
X104913429Y-168013047D01*
X109302381Y-154814476D02*
X108826190Y-155147810D01*
X109302381Y-155385905D02*
X108302381Y-155385905D01*
X108302381Y-155004952D01*
X108350000Y-154909714D01*
X108397619Y-154862095D01*
X108492857Y-154814476D01*
X108635714Y-154814476D01*
X108730952Y-154862095D01*
X108778571Y-154909714D01*
X108826190Y-155004952D01*
X108826190Y-155385905D01*
X108350000Y-153862095D02*
X108302381Y-153957333D01*
X108302381Y-154100190D01*
X108350000Y-154243048D01*
X108445238Y-154338286D01*
X108540476Y-154385905D01*
X108730952Y-154433524D01*
X108873810Y-154433524D01*
X109064286Y-154385905D01*
X109159524Y-154338286D01*
X109254762Y-154243048D01*
X109302381Y-154100190D01*
X109302381Y-154004952D01*
X109254762Y-153862095D01*
X109207143Y-153814476D01*
X108873810Y-153814476D01*
X108873810Y-154004952D01*
X108778571Y-153052571D02*
X108826190Y-152909714D01*
X108873810Y-152862095D01*
X108969048Y-152814476D01*
X109111905Y-152814476D01*
X109207143Y-152862095D01*
X109254762Y-152909714D01*
X109302381Y-153004952D01*
X109302381Y-153385905D01*
X108302381Y-153385905D01*
X108302381Y-153052571D01*
X108350000Y-152957333D01*
X108397619Y-152909714D01*
X108492857Y-152862095D01*
X108588095Y-152862095D01*
X108683333Y-152909714D01*
X108730952Y-152957333D01*
X108778571Y-153052571D01*
X108778571Y-153385905D01*
X113121429Y-150504952D02*
X113121429Y-149743047D01*
X113502381Y-150123999D02*
X112740476Y-150123999D01*
M02*
