G04 #@! TF.FileFunction,Copper,L2,Bot,Signal*
%FSLAX46Y46*%
G04 Gerber Fmt 4.6, Leading zero omitted, Abs format (unit mm)*
G04 Created by KiCad (PCBNEW 4.0.4+e1-6308~48~ubuntu14.04.1-stable) date Fri Nov 18 15:56:57 2016*
%MOMM*%
%LPD*%
G01*
G04 APERTURE LIST*
%ADD10C,0.100000*%
%ADD11C,0.203200*%
%ADD12C,1.727200*%
%ADD13C,6.000000*%
G04 APERTURE END LIST*
D10*
D11*
X112288000Y-121640000D02*
X109875000Y-123037000D01*
X112288000Y-86080000D02*
X112288000Y-121640000D01*
X109748000Y-81127000D02*
X112288000Y-86080000D01*
X106065000Y-76555000D02*
X109875000Y-73126000D01*
X106065000Y-106400000D02*
X106065000Y-76555000D01*
X102382000Y-110210000D02*
X106065000Y-106400000D01*
X94635000Y-117957000D02*
X102382000Y-110210000D01*
X97810000Y-77063000D02*
X102001000Y-73253000D01*
X97810000Y-109829000D02*
X97810000Y-77063000D01*
X97175000Y-110464000D02*
X97810000Y-109829000D01*
X94635000Y-112877000D02*
X97175000Y-110464000D01*
D12*
X109860000Y-123061000D03*
X109860000Y-120521000D03*
X109860000Y-117981000D03*
X109860000Y-115441000D03*
X109860000Y-112901000D03*
X109860000Y-110361000D03*
X109860000Y-107821000D03*
X109860000Y-105281000D03*
X109860000Y-102741000D03*
X109860000Y-100201000D03*
X109860000Y-97661000D03*
X109860000Y-95121000D03*
X109860000Y-92581000D03*
X109860000Y-90041000D03*
X94620000Y-90041000D03*
X94620000Y-97661000D03*
X94620000Y-117981000D03*
X94620000Y-102741000D03*
X94620000Y-100201000D03*
X94620000Y-120521000D03*
X94620000Y-112901000D03*
X94620000Y-123061000D03*
X94620000Y-110361000D03*
X94620000Y-107821000D03*
X94620000Y-105281000D03*
X94620000Y-115441000D03*
X94620000Y-92581000D03*
X94620000Y-95121000D03*
D13*
X94000000Y-81001000D03*
X94000000Y-73001000D03*
X102000000Y-73001000D03*
X102000000Y-81001000D03*
X110000000Y-73001000D03*
X110000000Y-81001000D03*
M02*
