M48
;DRILL file {KiCad 4.0.4+e1-6308~48~ubuntu14.04.1-stable} date Mon Nov 21 12:12:41 2016
;FORMAT={-:-/ absolute / metric / decimal}
FMAT,2
METRIC,TZ
T1C0.800
T2C1.000
T3C1.001
T4C1.016
T5C4.980
T6C4.980
%
G90
G05
M71
T1
X74.038Y-71.796
X74.038Y-79.416
X76.578Y-71.796
X76.578Y-79.416
X79.118Y-71.796
X79.118Y-79.416
X81.658Y-71.796
X81.658Y-79.416
X88.311Y-150.338
X90.311Y-150.338
X92.311Y-150.338
T2
X73.826Y-163.14
X73.826Y-167.14
X79.826Y-163.14
X79.826Y-167.14
T3
X70.072Y-150.124
X71.572Y-132.116
X74.112Y-132.116
X75.072Y-150.124
X88.04Y-132.116
X93.12Y-132.116
X102.6Y-150.124
X107.572Y-131.862
X107.85Y-150.124
X110.112Y-131.862
X110.39Y-150.124
X115.1Y-150.124
T4
X74.867Y-91.731
X74.867Y-106.971
X77.407Y-91.731
X77.407Y-106.971
X79.947Y-91.731
X79.947Y-106.971
X82.487Y-91.731
X82.487Y-106.971
X85.027Y-91.731
X85.027Y-106.971
X87.567Y-91.731
X87.567Y-106.971
X90.107Y-91.731
X90.107Y-106.971
X92.647Y-91.731
X92.647Y-106.971
X95.187Y-91.731
X95.187Y-106.971
X97.727Y-91.731
X97.727Y-106.971
X100.267Y-91.731
X100.267Y-106.971
X102.807Y-91.731
X102.807Y-106.971
X105.347Y-91.731
X105.347Y-106.971
X107.887Y-91.731
X107.887Y-106.971
T5
X66.038Y-67.416
X66.038Y-75.416
X66.038Y-83.416
X66.826Y-93.591
X66.826Y-101.591
X66.826Y-109.591
X66.826Y-117.59
X68.572Y-128.116
X68.572Y-136.116
X68.572Y-146.124
X68.572Y-154.124
X68.833Y-165.126
X74.038Y-67.416
X74.038Y-83.416
X74.826Y-117.591
X76.572Y-128.116
X76.572Y-136.116
X76.572Y-146.124
X76.572Y-154.124
X82.038Y-67.416
X82.038Y-83.416
X82.826Y-117.59
X84.833Y-165.126
X86.366Y-146.318
X86.366Y-154.318
X86.58Y-128.116
X86.58Y-136.116
X90.038Y-67.416
X90.038Y-75.416
X90.038Y-83.416
X90.826Y-117.59
X94.366Y-146.318
X94.366Y-154.318
X94.58Y-128.116
X94.58Y-136.116
X98.826Y-117.59
X100.346Y-67.362
X100.346Y-75.362
X100.346Y-83.362
X104.842Y-127.862
X104.842Y-135.862
X104.842Y-164.394
X104.842Y-172.394
X104.85Y-146.124
X104.85Y-154.124
X106.826Y-117.59
X108.346Y-67.362
X108.346Y-75.362
X108.346Y-83.362
X112.842Y-127.862
X112.842Y-135.862
X112.842Y-164.394
X112.842Y-172.394
X112.85Y-146.124
X112.85Y-154.124
X114.826Y-93.591
X114.826Y-101.591
X114.826Y-109.591
X114.826Y-117.59
X116.346Y-67.362
X116.346Y-75.362
X116.346Y-83.362
T6
X74.038Y-75.416
X76.833Y-165.126
X82.038Y-75.416
T0
M30
