%TF.GenerationSoftware,KiCad,Pcbnew,4.0.4+e1-6308~48~ubuntu16.04.1-stable*%
%TF.CreationDate,2016-12-19T13:29:00-08:00*%
%TF.ProjectId,2x3-LED-TH-Magnet,3278332D4C45442D54482D4D61676E65,1.0*%
%TF.FileFunction,Soldermask,Bot*%
%FSLAX46Y46*%
G04 Gerber Fmt 4.6, Leading zero omitted, Abs format (unit mm)*
G04 Created by KiCad (PCBNEW 4.0.4+e1-6308~48~ubuntu16.04.1-stable) date Mon Dec 19 13:29:00 2016*
%MOMM*%
%LPD*%
G01*
G04 APERTURE LIST*
%ADD10C,0.350000*%
%ADD11C,5.000000*%
G04 APERTURE END LIST*
D10*
D11*
X157480000Y-93600000D02*
X141480000Y-93600000D01*
X157480000Y-101600000D02*
X141480000Y-101600000D01*
D10*
G36*
X141803110Y-98525847D02*
X142394055Y-98647151D01*
X142950198Y-98880932D01*
X143450334Y-99218278D01*
X143875421Y-99646343D01*
X144209266Y-100148821D01*
X144439156Y-100706576D01*
X144556264Y-101298014D01*
X144556264Y-101298024D01*
X144556331Y-101298363D01*
X144546710Y-101987416D01*
X144546633Y-101987754D01*
X144546633Y-101987762D01*
X144413057Y-102575701D01*
X144167685Y-103126816D01*
X143819937Y-103619778D01*
X143383062Y-104035809D01*
X142873700Y-104359061D01*
X142311254Y-104577219D01*
X141717147Y-104681976D01*
X141114003Y-104669342D01*
X140524800Y-104539797D01*
X139971982Y-104298277D01*
X139476607Y-103953982D01*
X139057537Y-103520023D01*
X138730738Y-103012930D01*
X138508656Y-102452014D01*
X138399755Y-101858658D01*
X138408177Y-101255441D01*
X138533606Y-100665347D01*
X138771259Y-100110858D01*
X139112091Y-99613088D01*
X139543112Y-99191000D01*
X140047913Y-98860668D01*
X140607259Y-98634677D01*
X141199845Y-98521636D01*
X141803110Y-98525847D01*
X141803110Y-98525847D01*
G37*
G36*
X149803110Y-98525847D02*
X150394055Y-98647151D01*
X150950198Y-98880932D01*
X151450334Y-99218278D01*
X151875421Y-99646343D01*
X152209266Y-100148821D01*
X152439156Y-100706576D01*
X152556264Y-101298014D01*
X152556264Y-101298024D01*
X152556331Y-101298363D01*
X152546710Y-101987416D01*
X152546633Y-101987754D01*
X152546633Y-101987762D01*
X152413057Y-102575701D01*
X152167685Y-103126816D01*
X151819937Y-103619778D01*
X151383062Y-104035809D01*
X150873700Y-104359061D01*
X150311254Y-104577219D01*
X149717147Y-104681976D01*
X149114003Y-104669342D01*
X148524800Y-104539797D01*
X147971982Y-104298277D01*
X147476607Y-103953982D01*
X147057537Y-103520023D01*
X146730738Y-103012930D01*
X146508656Y-102452014D01*
X146399755Y-101858658D01*
X146408177Y-101255441D01*
X146533606Y-100665347D01*
X146771259Y-100110858D01*
X147112091Y-99613088D01*
X147543112Y-99191000D01*
X148047913Y-98860668D01*
X148607259Y-98634677D01*
X149199845Y-98521636D01*
X149803110Y-98525847D01*
X149803110Y-98525847D01*
G37*
G36*
X157803110Y-98525847D02*
X158394055Y-98647151D01*
X158950198Y-98880932D01*
X159450334Y-99218278D01*
X159875421Y-99646343D01*
X160209266Y-100148821D01*
X160439156Y-100706576D01*
X160556264Y-101298014D01*
X160556264Y-101298024D01*
X160556331Y-101298363D01*
X160546710Y-101987416D01*
X160546633Y-101987754D01*
X160546633Y-101987762D01*
X160413057Y-102575701D01*
X160167685Y-103126816D01*
X159819937Y-103619778D01*
X159383062Y-104035809D01*
X158873700Y-104359061D01*
X158311254Y-104577219D01*
X157717147Y-104681976D01*
X157114003Y-104669342D01*
X156524800Y-104539797D01*
X155971982Y-104298277D01*
X155476607Y-103953982D01*
X155057537Y-103520023D01*
X154730738Y-103012930D01*
X154508656Y-102452014D01*
X154399755Y-101858658D01*
X154408177Y-101255441D01*
X154533606Y-100665347D01*
X154771259Y-100110858D01*
X155112091Y-99613088D01*
X155543112Y-99191000D01*
X156047913Y-98860668D01*
X156607259Y-98634677D01*
X157199845Y-98521636D01*
X157803110Y-98525847D01*
X157803110Y-98525847D01*
G37*
G36*
X153587790Y-99074481D02*
X153784921Y-99114947D01*
X153970451Y-99192937D01*
X154137292Y-99305473D01*
X154279098Y-99448272D01*
X154390466Y-99615895D01*
X154467156Y-99801958D01*
X154506176Y-99999027D01*
X154506176Y-99999032D01*
X154506244Y-99999376D01*
X154503034Y-100229239D01*
X154502957Y-100229577D01*
X154502957Y-100229586D01*
X154458449Y-100425490D01*
X154376596Y-100609335D01*
X154260588Y-100773786D01*
X154114850Y-100912571D01*
X153944931Y-101020405D01*
X153757299Y-101093182D01*
X153559112Y-101128128D01*
X153357905Y-101123913D01*
X153161351Y-101080699D01*
X152976933Y-101000128D01*
X152811682Y-100885275D01*
X152671882Y-100740509D01*
X152562864Y-100571345D01*
X152488777Y-100384224D01*
X152452449Y-100186288D01*
X152455258Y-99985058D01*
X152497102Y-99788205D01*
X152576380Y-99603232D01*
X152690080Y-99437178D01*
X152833865Y-99296373D01*
X153002265Y-99186176D01*
X153188860Y-99110786D01*
X153386540Y-99073077D01*
X153587790Y-99074481D01*
X153587790Y-99074481D01*
G37*
G36*
X141803110Y-90525847D02*
X142394055Y-90647151D01*
X142950198Y-90880932D01*
X143450334Y-91218278D01*
X143875421Y-91646343D01*
X144209266Y-92148821D01*
X144439156Y-92706576D01*
X144556264Y-93298014D01*
X144556264Y-93298024D01*
X144556331Y-93298363D01*
X144546710Y-93987416D01*
X144546633Y-93987754D01*
X144546633Y-93987762D01*
X144413057Y-94575701D01*
X144167685Y-95126816D01*
X143819937Y-95619778D01*
X143383062Y-96035809D01*
X142873700Y-96359061D01*
X142311254Y-96577219D01*
X141717147Y-96681976D01*
X141114003Y-96669342D01*
X140524800Y-96539797D01*
X139971982Y-96298277D01*
X139476607Y-95953982D01*
X139057537Y-95520023D01*
X138730738Y-95012930D01*
X138508656Y-94452014D01*
X138399755Y-93858658D01*
X138408177Y-93255441D01*
X138533606Y-92665347D01*
X138771259Y-92110858D01*
X139112091Y-91613088D01*
X139543112Y-91191000D01*
X140047913Y-90860668D01*
X140607259Y-90634677D01*
X141199845Y-90521636D01*
X141803110Y-90525847D01*
X141803110Y-90525847D01*
G37*
G36*
X149803110Y-90525847D02*
X150394055Y-90647151D01*
X150950198Y-90880932D01*
X151450334Y-91218278D01*
X151875421Y-91646343D01*
X152209266Y-92148821D01*
X152439156Y-92706576D01*
X152556264Y-93298014D01*
X152556264Y-93298024D01*
X152556331Y-93298363D01*
X152546710Y-93987416D01*
X152546633Y-93987754D01*
X152546633Y-93987762D01*
X152413057Y-94575701D01*
X152167685Y-95126816D01*
X151819937Y-95619778D01*
X151383062Y-96035809D01*
X150873700Y-96359061D01*
X150311254Y-96577219D01*
X149717147Y-96681976D01*
X149114003Y-96669342D01*
X148524800Y-96539797D01*
X147971982Y-96298277D01*
X147476607Y-95953982D01*
X147057537Y-95520023D01*
X146730738Y-95012930D01*
X146508656Y-94452014D01*
X146399755Y-93858658D01*
X146408177Y-93255441D01*
X146533606Y-92665347D01*
X146771259Y-92110858D01*
X147112091Y-91613088D01*
X147543112Y-91191000D01*
X148047913Y-90860668D01*
X148607259Y-90634677D01*
X149199845Y-90521636D01*
X149803110Y-90525847D01*
X149803110Y-90525847D01*
G37*
G36*
X157803110Y-90525847D02*
X158394055Y-90647151D01*
X158950198Y-90880932D01*
X159450334Y-91218278D01*
X159875421Y-91646343D01*
X160209266Y-92148821D01*
X160439156Y-92706576D01*
X160556264Y-93298014D01*
X160556264Y-93298024D01*
X160556331Y-93298363D01*
X160546710Y-93987416D01*
X160546633Y-93987754D01*
X160546633Y-93987762D01*
X160413057Y-94575701D01*
X160167685Y-95126816D01*
X159819937Y-95619778D01*
X159383062Y-96035809D01*
X158873700Y-96359061D01*
X158311254Y-96577219D01*
X157717147Y-96681976D01*
X157114003Y-96669342D01*
X156524800Y-96539797D01*
X155971982Y-96298277D01*
X155476607Y-95953982D01*
X155057537Y-95520023D01*
X154730738Y-95012930D01*
X154508656Y-94452014D01*
X154399755Y-93858658D01*
X154408177Y-93255441D01*
X154533606Y-92665347D01*
X154771259Y-92110858D01*
X155112091Y-91613088D01*
X155543112Y-91191000D01*
X156047913Y-90860668D01*
X156607259Y-90634677D01*
X157199845Y-90521636D01*
X157803110Y-90525847D01*
X157803110Y-90525847D01*
G37*
G36*
X153593042Y-94024515D02*
X153799777Y-94066952D01*
X153994347Y-94148741D01*
X154169318Y-94266761D01*
X154318033Y-94416518D01*
X154434827Y-94592308D01*
X154515253Y-94787436D01*
X154556178Y-94994124D01*
X154556178Y-94994129D01*
X154556246Y-94994473D01*
X154552880Y-95235536D01*
X154552803Y-95235874D01*
X154552803Y-95235883D01*
X154506122Y-95441349D01*
X154420281Y-95634152D01*
X154298621Y-95806615D01*
X154145782Y-95952162D01*
X153967584Y-96065250D01*
X153770810Y-96141573D01*
X153562967Y-96178222D01*
X153351957Y-96173802D01*
X153145825Y-96128481D01*
X152952422Y-96043985D01*
X152779119Y-95923536D01*
X152632508Y-95771717D01*
X152518178Y-95594310D01*
X152440481Y-95398072D01*
X152402384Y-95190492D01*
X152405330Y-94979458D01*
X152449211Y-94773013D01*
X152532353Y-94579028D01*
X152651593Y-94404883D01*
X152802384Y-94257217D01*
X152978988Y-94141651D01*
X153174675Y-94062588D01*
X153381987Y-94023042D01*
X153593042Y-94024515D01*
X153593042Y-94024515D01*
G37*
M02*
