G04 #@! TF.FileFunction,Legend,Bot*
%FSLAX46Y46*%
G04 Gerber Fmt 4.6, Leading zero omitted, Abs format (unit mm)*
G04 Created by KiCad (PCBNEW 4.0.1-3.201512221402+6198~38~ubuntu14.04.1-stable) date Tue 01 Mar 2016 10:09:15 PM PST*
%MOMM*%
G01*
G04 APERTURE LIST*
%ADD10C,0.100000*%
%ADD11C,0.500000*%
%ADD12C,0.150000*%
G04 APERTURE END LIST*
D10*
D11*
X127350000Y-88418000D02*
X127350000Y-90450000D01*
X135450000Y-88418000D02*
X135450000Y-90450000D01*
X143650000Y-88618000D02*
X143650000Y-90650000D01*
D12*
X139904762Y-83838095D02*
X139952381Y-83980952D01*
X139952381Y-84219048D01*
X139904762Y-84314286D01*
X139857143Y-84361905D01*
X139761905Y-84409524D01*
X139666667Y-84409524D01*
X139571429Y-84361905D01*
X139523810Y-84314286D01*
X139476190Y-84219048D01*
X139428571Y-84028571D01*
X139380952Y-83933333D01*
X139333333Y-83885714D01*
X139238095Y-83838095D01*
X139142857Y-83838095D01*
X139047619Y-83885714D01*
X139000000Y-83933333D01*
X138952381Y-84028571D01*
X138952381Y-84266667D01*
X139000000Y-84409524D01*
X139952381Y-85314286D02*
X139952381Y-84838095D01*
X138952381Y-84838095D01*
X139952381Y-85647619D02*
X138952381Y-85647619D01*
X139952381Y-86123809D02*
X138952381Y-86123809D01*
X138952381Y-86361904D01*
X139000000Y-86504762D01*
X139095238Y-86600000D01*
X139190476Y-86647619D01*
X139380952Y-86695238D01*
X139523810Y-86695238D01*
X139714286Y-86647619D01*
X139809524Y-86600000D01*
X139904762Y-86504762D01*
X139952381Y-86361904D01*
X139952381Y-86123809D01*
X139428571Y-87123809D02*
X139428571Y-87457143D01*
X139952381Y-87600000D02*
X139952381Y-87123809D01*
X138952381Y-87123809D01*
X138952381Y-87600000D01*
X131904762Y-83000000D02*
X131952381Y-83142857D01*
X131952381Y-83380953D01*
X131904762Y-83476191D01*
X131857143Y-83523810D01*
X131761905Y-83571429D01*
X131666667Y-83571429D01*
X131571429Y-83523810D01*
X131523810Y-83476191D01*
X131476190Y-83380953D01*
X131428571Y-83190476D01*
X131380952Y-83095238D01*
X131333333Y-83047619D01*
X131238095Y-83000000D01*
X131142857Y-83000000D01*
X131047619Y-83047619D01*
X131000000Y-83095238D01*
X130952381Y-83190476D01*
X130952381Y-83428572D01*
X131000000Y-83571429D01*
X130952381Y-83904762D02*
X131952381Y-84142857D01*
X131238095Y-84333334D01*
X131952381Y-84523810D01*
X130952381Y-84761905D01*
X131952381Y-85142857D02*
X130952381Y-85142857D01*
X130952381Y-85476190D02*
X130952381Y-86047619D01*
X131952381Y-85761904D02*
X130952381Y-85761904D01*
X131857143Y-86952381D02*
X131904762Y-86904762D01*
X131952381Y-86761905D01*
X131952381Y-86666667D01*
X131904762Y-86523809D01*
X131809524Y-86428571D01*
X131714286Y-86380952D01*
X131523810Y-86333333D01*
X131380952Y-86333333D01*
X131190476Y-86380952D01*
X131095238Y-86428571D01*
X131000000Y-86523809D01*
X130952381Y-86666667D01*
X130952381Y-86761905D01*
X131000000Y-86904762D01*
X131047619Y-86952381D01*
X131952381Y-87380952D02*
X130952381Y-87380952D01*
X131428571Y-87380952D02*
X131428571Y-87952381D01*
X131952381Y-87952381D02*
X130952381Y-87952381D01*
M02*
