%TF.GenerationSoftware,KiCad,Pcbnew,4.0.5-e0-6337~49~ubuntu16.04.1*%
%TF.CreationDate,2017-02-14T03:42:44-08:00*%
%TF.ProjectId,USB-Breakout-with-Reset,5553422D427265616B6F75742D776974,rev?*%
%TF.FileFunction,Soldermask,Bot*%
%FSLAX46Y46*%
G04 Gerber Fmt 4.6, Leading zero omitted, Abs format (unit mm)*
G04 Created by KiCad (PCBNEW 4.0.5-e0-6337~49~ubuntu16.04.1) date Tue Feb 14 03:42:44 2017*
%MOMM*%
%LPD*%
G01*
G04 APERTURE LIST*
%ADD10C,0.350000*%
G04 APERTURE END LIST*
D10*
G36*
X50596788Y-49180824D02*
X50803426Y-49223241D01*
X50997904Y-49304992D01*
X51172791Y-49422955D01*
X51321436Y-49572641D01*
X51438175Y-49748348D01*
X51518563Y-49943384D01*
X51559469Y-50149974D01*
X51559469Y-50149984D01*
X51559536Y-50150323D01*
X51556172Y-50391272D01*
X51556095Y-50391610D01*
X51556095Y-50391619D01*
X51509437Y-50596987D01*
X51423636Y-50789699D01*
X51302034Y-50962080D01*
X51149266Y-51107559D01*
X50971153Y-51220593D01*
X50774472Y-51296880D01*
X50566727Y-51333512D01*
X50355817Y-51329093D01*
X50149784Y-51283795D01*
X49956472Y-51199338D01*
X49783251Y-51078946D01*
X49636709Y-50927199D01*
X49522433Y-50749876D01*
X49444773Y-50553731D01*
X49406693Y-50346249D01*
X49409638Y-50135315D01*
X49453499Y-49928968D01*
X49536602Y-49735074D01*
X49655785Y-49561012D01*
X49806504Y-49413416D01*
X49983025Y-49297905D01*
X50178619Y-49218879D01*
X50385833Y-49179352D01*
X50596788Y-49180824D01*
X50596788Y-49180824D01*
G37*
G36*
X41399490Y-51331490D02*
X39248110Y-51331490D01*
X39248110Y-49180110D01*
X41399490Y-49180110D01*
X41399490Y-51331490D01*
X41399490Y-51331490D01*
G37*
G36*
X37072788Y-48350824D02*
X37279426Y-48393241D01*
X37473904Y-48474992D01*
X37648791Y-48592955D01*
X37797436Y-48742641D01*
X37914175Y-48918348D01*
X37994563Y-49113384D01*
X38035469Y-49319974D01*
X38035469Y-49319984D01*
X38035536Y-49320323D01*
X38032172Y-49561272D01*
X38032095Y-49561610D01*
X38032095Y-49561619D01*
X37985437Y-49766987D01*
X37899636Y-49959699D01*
X37778034Y-50132080D01*
X37625266Y-50277559D01*
X37447153Y-50390593D01*
X37250472Y-50466880D01*
X37042727Y-50503512D01*
X36831817Y-50499093D01*
X36625784Y-50453795D01*
X36432472Y-50369338D01*
X36259251Y-50248946D01*
X36112709Y-50097199D01*
X35998433Y-49919876D01*
X35920773Y-49723731D01*
X35882693Y-49516249D01*
X35885638Y-49305315D01*
X35929499Y-49098968D01*
X36012602Y-48905074D01*
X36131785Y-48731012D01*
X36282504Y-48583416D01*
X36459025Y-48467905D01*
X36654619Y-48388879D01*
X36861833Y-48349352D01*
X37072788Y-48350824D01*
X37072788Y-48350824D01*
G37*
G36*
X26544828Y-48430048D02*
X26674722Y-48456712D01*
X26796977Y-48508103D01*
X26906915Y-48582257D01*
X27000352Y-48676349D01*
X27073741Y-48786808D01*
X27124275Y-48909412D01*
X27149962Y-49039141D01*
X27149962Y-49039156D01*
X27150029Y-49039495D01*
X27147914Y-49190960D01*
X27147838Y-49191294D01*
X27147838Y-49191307D01*
X27118536Y-49320278D01*
X27064601Y-49441419D01*
X26988159Y-49549782D01*
X26892126Y-49641233D01*
X26780160Y-49712289D01*
X26656522Y-49760245D01*
X26525931Y-49783272D01*
X26393347Y-49780494D01*
X26263831Y-49752019D01*
X26142310Y-49698927D01*
X26033421Y-49623247D01*
X25941302Y-49527856D01*
X25869465Y-49416386D01*
X25820646Y-49293084D01*
X25796709Y-49162659D01*
X25798560Y-49030061D01*
X25826132Y-48900346D01*
X25878371Y-48778461D01*
X25953293Y-48669042D01*
X26048041Y-48576258D01*
X26158999Y-48503648D01*
X26281957Y-48453970D01*
X26412215Y-48429123D01*
X26544828Y-48430048D01*
X26544828Y-48430048D01*
G37*
G36*
X55421086Y-47330215D02*
X55599007Y-47366737D01*
X55766458Y-47437127D01*
X55917041Y-47538697D01*
X56045029Y-47667581D01*
X56145543Y-47818869D01*
X56214762Y-47986805D01*
X56249972Y-48164627D01*
X56249972Y-48164642D01*
X56250039Y-48164981D01*
X56247142Y-48372445D01*
X56247066Y-48372779D01*
X56247066Y-48372792D01*
X56206902Y-48549572D01*
X56133026Y-48715502D01*
X56028323Y-48863927D01*
X55896785Y-48989188D01*
X55743423Y-49086516D01*
X55574079Y-49152200D01*
X55395203Y-49183741D01*
X55213604Y-49179936D01*
X55036202Y-49140932D01*
X54869755Y-49068213D01*
X54720607Y-48964553D01*
X54594431Y-48833894D01*
X54496036Y-48681213D01*
X54429168Y-48512327D01*
X54396381Y-48333680D01*
X54398916Y-48152059D01*
X54436682Y-47974388D01*
X54508235Y-47807440D01*
X54610855Y-47657568D01*
X54740629Y-47530484D01*
X54892619Y-47431025D01*
X55061031Y-47362982D01*
X55239448Y-47328947D01*
X55421086Y-47330215D01*
X55421086Y-47330215D01*
G37*
G36*
X59421086Y-47330215D02*
X59599007Y-47366737D01*
X59766458Y-47437127D01*
X59917041Y-47538697D01*
X60045029Y-47667581D01*
X60145543Y-47818869D01*
X60214762Y-47986805D01*
X60249972Y-48164627D01*
X60249972Y-48164642D01*
X60250039Y-48164981D01*
X60247142Y-48372445D01*
X60247066Y-48372779D01*
X60247066Y-48372792D01*
X60206902Y-48549572D01*
X60133026Y-48715502D01*
X60028323Y-48863927D01*
X59896785Y-48989188D01*
X59743423Y-49086516D01*
X59574079Y-49152200D01*
X59395203Y-49183741D01*
X59213604Y-49179936D01*
X59036202Y-49140932D01*
X58869755Y-49068213D01*
X58720607Y-48964553D01*
X58594431Y-48833894D01*
X58496036Y-48681213D01*
X58429168Y-48512327D01*
X58396381Y-48333680D01*
X58398916Y-48152059D01*
X58436682Y-47974388D01*
X58508235Y-47807440D01*
X58610855Y-47657568D01*
X58740629Y-47530484D01*
X58892619Y-47431025D01*
X59061031Y-47362982D01*
X59239448Y-47328947D01*
X59421086Y-47330215D01*
X59421086Y-47330215D01*
G37*
G36*
X40628788Y-46180824D02*
X40835426Y-46223241D01*
X41029904Y-46304992D01*
X41204791Y-46422955D01*
X41353436Y-46572641D01*
X41470175Y-46748348D01*
X41550563Y-46943384D01*
X41591469Y-47149974D01*
X41591469Y-47149984D01*
X41591536Y-47150323D01*
X41588172Y-47391272D01*
X41588095Y-47391610D01*
X41588095Y-47391619D01*
X41541437Y-47596987D01*
X41455636Y-47789699D01*
X41334034Y-47962080D01*
X41181266Y-48107559D01*
X41003153Y-48220593D01*
X40806472Y-48296880D01*
X40598727Y-48333512D01*
X40387817Y-48329093D01*
X40181784Y-48283795D01*
X39988472Y-48199338D01*
X39815251Y-48078946D01*
X39668709Y-47927199D01*
X39554433Y-47749876D01*
X39476773Y-47553731D01*
X39438693Y-47346249D01*
X39441638Y-47135315D01*
X39485499Y-46928968D01*
X39568602Y-46735074D01*
X39687785Y-46561012D01*
X39838504Y-46413416D01*
X40015025Y-46297905D01*
X40210619Y-46218879D01*
X40417833Y-46179352D01*
X40628788Y-46180824D01*
X40628788Y-46180824D01*
G37*
G36*
X48248788Y-46180824D02*
X48455426Y-46223241D01*
X48649904Y-46304992D01*
X48824791Y-46422955D01*
X48973436Y-46572641D01*
X49090175Y-46748348D01*
X49170563Y-46943384D01*
X49211469Y-47149974D01*
X49211469Y-47149984D01*
X49211536Y-47150323D01*
X49208172Y-47391272D01*
X49208095Y-47391610D01*
X49208095Y-47391619D01*
X49161437Y-47596987D01*
X49075636Y-47789699D01*
X48954034Y-47962080D01*
X48801266Y-48107559D01*
X48623153Y-48220593D01*
X48426472Y-48296880D01*
X48218727Y-48333512D01*
X48007817Y-48329093D01*
X47801784Y-48283795D01*
X47608472Y-48199338D01*
X47435251Y-48078946D01*
X47288709Y-47927199D01*
X47174433Y-47749876D01*
X47096773Y-47553731D01*
X47058693Y-47346249D01*
X47061638Y-47135315D01*
X47105499Y-46928968D01*
X47188602Y-46735074D01*
X47307785Y-46561012D01*
X47458504Y-46413416D01*
X47635025Y-46297905D01*
X47830619Y-46218879D01*
X48037833Y-46179352D01*
X48248788Y-46180824D01*
X48248788Y-46180824D01*
G37*
G36*
X32977331Y-46364115D02*
X33126436Y-46394723D01*
X33266769Y-46453713D01*
X33392962Y-46538832D01*
X33500224Y-46646844D01*
X33584462Y-46773634D01*
X33642467Y-46914365D01*
X33669890Y-47052860D01*
X33672034Y-47063690D01*
X33669606Y-47237554D01*
X33669528Y-47237897D01*
X33669528Y-47237901D01*
X33635882Y-47385996D01*
X33573970Y-47525052D01*
X33486224Y-47649440D01*
X33375989Y-47754415D01*
X33247464Y-47835980D01*
X33105546Y-47891026D01*
X32955640Y-47917459D01*
X32803449Y-47914270D01*
X32654780Y-47881584D01*
X32515288Y-47820641D01*
X32390296Y-47733769D01*
X32284554Y-47624270D01*
X32202094Y-47496317D01*
X32146056Y-47354782D01*
X32118578Y-47205066D01*
X32120703Y-47052860D01*
X32152353Y-46903963D01*
X32212317Y-46764053D01*
X32298318Y-46638453D01*
X32407075Y-46531950D01*
X32534450Y-46448599D01*
X32675587Y-46391575D01*
X32825108Y-46363053D01*
X32977331Y-46364115D01*
X32977331Y-46364115D01*
G37*
G36*
X40628788Y-43180824D02*
X40835426Y-43223241D01*
X41029904Y-43304992D01*
X41204791Y-43422955D01*
X41353436Y-43572641D01*
X41470175Y-43748348D01*
X41550563Y-43943384D01*
X41591469Y-44149974D01*
X41591469Y-44149984D01*
X41591536Y-44150323D01*
X41588172Y-44391272D01*
X41588095Y-44391610D01*
X41588095Y-44391619D01*
X41541437Y-44596987D01*
X41455636Y-44789699D01*
X41334034Y-44962080D01*
X41181266Y-45107559D01*
X41003153Y-45220593D01*
X40806472Y-45296880D01*
X40598727Y-45333512D01*
X40387817Y-45329093D01*
X40181784Y-45283795D01*
X39988472Y-45199338D01*
X39815251Y-45078946D01*
X39668709Y-44927199D01*
X39554433Y-44749876D01*
X39476773Y-44553731D01*
X39438693Y-44346249D01*
X39441638Y-44135315D01*
X39485499Y-43928968D01*
X39568602Y-43735074D01*
X39687785Y-43561012D01*
X39838504Y-43413416D01*
X40015025Y-43297905D01*
X40210619Y-43218879D01*
X40417833Y-43179352D01*
X40628788Y-43180824D01*
X40628788Y-43180824D01*
G37*
G36*
X48248788Y-43180824D02*
X48455426Y-43223241D01*
X48649904Y-43304992D01*
X48824791Y-43422955D01*
X48973436Y-43572641D01*
X49090175Y-43748348D01*
X49170563Y-43943384D01*
X49211469Y-44149974D01*
X49211469Y-44149984D01*
X49211536Y-44150323D01*
X49208172Y-44391272D01*
X49208095Y-44391610D01*
X49208095Y-44391619D01*
X49161437Y-44596987D01*
X49075636Y-44789699D01*
X48954034Y-44962080D01*
X48801266Y-45107559D01*
X48623153Y-45220593D01*
X48426472Y-45296880D01*
X48218727Y-45333512D01*
X48007817Y-45329093D01*
X47801784Y-45283795D01*
X47608472Y-45199338D01*
X47435251Y-45078946D01*
X47288709Y-44927199D01*
X47174433Y-44749876D01*
X47096773Y-44553731D01*
X47058693Y-44346249D01*
X47061638Y-44135315D01*
X47105499Y-43928968D01*
X47188602Y-43735074D01*
X47307785Y-43561012D01*
X47458504Y-43413416D01*
X47635025Y-43297905D01*
X47830619Y-43218879D01*
X48037833Y-43179352D01*
X48248788Y-43180824D01*
X48248788Y-43180824D01*
G37*
G36*
X55421086Y-41330215D02*
X55599007Y-41366737D01*
X55766458Y-41437127D01*
X55917041Y-41538697D01*
X56045029Y-41667581D01*
X56145543Y-41818869D01*
X56214762Y-41986805D01*
X56249972Y-42164627D01*
X56249972Y-42164642D01*
X56250039Y-42164981D01*
X56247142Y-42372445D01*
X56247066Y-42372779D01*
X56247066Y-42372792D01*
X56206902Y-42549572D01*
X56133026Y-42715502D01*
X56028323Y-42863927D01*
X55896785Y-42989188D01*
X55743423Y-43086516D01*
X55574079Y-43152200D01*
X55395203Y-43183741D01*
X55213604Y-43179936D01*
X55036202Y-43140932D01*
X54869755Y-43068213D01*
X54720607Y-42964553D01*
X54594431Y-42833894D01*
X54496036Y-42681213D01*
X54429168Y-42512327D01*
X54396381Y-42333680D01*
X54398916Y-42152059D01*
X54436682Y-41974388D01*
X54508235Y-41807440D01*
X54610855Y-41657568D01*
X54740629Y-41530484D01*
X54892619Y-41431025D01*
X55061031Y-41362982D01*
X55239448Y-41328947D01*
X55421086Y-41330215D01*
X55421086Y-41330215D01*
G37*
G36*
X59421086Y-41330215D02*
X59599007Y-41366737D01*
X59766458Y-41437127D01*
X59917041Y-41538697D01*
X60045029Y-41667581D01*
X60145543Y-41818869D01*
X60214762Y-41986805D01*
X60249972Y-42164627D01*
X60249972Y-42164642D01*
X60250039Y-42164981D01*
X60247142Y-42372445D01*
X60247066Y-42372779D01*
X60247066Y-42372792D01*
X60206902Y-42549572D01*
X60133026Y-42715502D01*
X60028323Y-42863927D01*
X59896785Y-42989188D01*
X59743423Y-43086516D01*
X59574079Y-43152200D01*
X59395203Y-43183741D01*
X59213604Y-43179936D01*
X59036202Y-43140932D01*
X58869755Y-43068213D01*
X58720607Y-42964553D01*
X58594431Y-42833894D01*
X58496036Y-42681213D01*
X58429168Y-42512327D01*
X58396381Y-42333680D01*
X58398916Y-42152059D01*
X58436682Y-41974388D01*
X58508235Y-41807440D01*
X58610855Y-41657568D01*
X58740629Y-41530484D01*
X58892619Y-41431025D01*
X59061031Y-41362982D01*
X59239448Y-41328947D01*
X59421086Y-41330215D01*
X59421086Y-41330215D01*
G37*
G36*
X33672000Y-42916000D02*
X32119600Y-42916000D01*
X32119600Y-41363600D01*
X33672000Y-41363600D01*
X33672000Y-42916000D01*
X33672000Y-42916000D01*
G37*
G36*
X37072788Y-40730824D02*
X37279426Y-40773241D01*
X37473904Y-40854992D01*
X37648791Y-40972955D01*
X37797436Y-41122641D01*
X37914175Y-41298348D01*
X37994563Y-41493384D01*
X38035469Y-41699974D01*
X38035469Y-41699984D01*
X38035536Y-41700323D01*
X38032172Y-41941272D01*
X38032095Y-41941610D01*
X38032095Y-41941619D01*
X37985437Y-42146987D01*
X37899636Y-42339699D01*
X37778034Y-42512080D01*
X37625266Y-42657559D01*
X37447153Y-42770593D01*
X37250472Y-42846880D01*
X37042727Y-42883512D01*
X36831817Y-42879093D01*
X36625784Y-42833795D01*
X36432472Y-42749338D01*
X36259251Y-42628946D01*
X36112709Y-42477199D01*
X35998433Y-42299876D01*
X35920773Y-42103731D01*
X35882693Y-41896249D01*
X35885638Y-41685315D01*
X35929499Y-41478968D01*
X36012602Y-41285074D01*
X36131785Y-41111012D01*
X36282504Y-40963416D01*
X36459025Y-40847905D01*
X36654619Y-40768879D01*
X36861833Y-40729352D01*
X37072788Y-40730824D01*
X37072788Y-40730824D01*
G37*
G36*
X26544828Y-41330048D02*
X26674722Y-41356712D01*
X26796977Y-41408103D01*
X26906915Y-41482257D01*
X27000352Y-41576349D01*
X27073741Y-41686808D01*
X27124275Y-41809412D01*
X27149962Y-41939141D01*
X27149962Y-41939156D01*
X27150029Y-41939495D01*
X27147914Y-42090960D01*
X27147838Y-42091294D01*
X27147838Y-42091307D01*
X27118536Y-42220278D01*
X27064601Y-42341419D01*
X26988159Y-42449782D01*
X26892126Y-42541233D01*
X26780160Y-42612289D01*
X26656522Y-42660245D01*
X26525931Y-42683272D01*
X26393347Y-42680494D01*
X26263831Y-42652019D01*
X26142310Y-42598927D01*
X26033421Y-42523247D01*
X25941302Y-42427856D01*
X25869465Y-42316386D01*
X25820646Y-42193084D01*
X25796709Y-42062659D01*
X25798560Y-41930061D01*
X25826132Y-41800346D01*
X25878371Y-41678461D01*
X25953293Y-41569042D01*
X26048041Y-41476258D01*
X26158999Y-41403648D01*
X26281957Y-41353970D01*
X26412215Y-41329123D01*
X26544828Y-41330048D01*
X26544828Y-41330048D01*
G37*
G36*
X50396788Y-39975744D02*
X50603426Y-40018161D01*
X50797904Y-40099912D01*
X50972791Y-40217875D01*
X51121436Y-40367561D01*
X51238175Y-40543268D01*
X51318563Y-40738304D01*
X51359469Y-40944894D01*
X51359469Y-40944904D01*
X51359536Y-40945243D01*
X51356172Y-41186192D01*
X51356095Y-41186530D01*
X51356095Y-41186539D01*
X51309437Y-41391907D01*
X51223636Y-41584619D01*
X51102034Y-41757000D01*
X50949266Y-41902479D01*
X50771153Y-42015513D01*
X50574472Y-42091800D01*
X50366727Y-42128432D01*
X50155817Y-42124013D01*
X49949784Y-42078715D01*
X49756472Y-41994258D01*
X49583251Y-41873866D01*
X49436709Y-41722119D01*
X49322433Y-41544796D01*
X49244773Y-41348651D01*
X49206693Y-41141169D01*
X49209638Y-40930235D01*
X49253499Y-40723888D01*
X49336602Y-40529994D01*
X49455785Y-40355932D01*
X49606504Y-40208336D01*
X49783025Y-40092825D01*
X49978619Y-40013799D01*
X50185833Y-39974272D01*
X50396788Y-39975744D01*
X50396788Y-39975744D01*
G37*
G36*
X41199490Y-42126410D02*
X39048110Y-42126410D01*
X39048110Y-39975030D01*
X41199490Y-39975030D01*
X41199490Y-42126410D01*
X41199490Y-42126410D01*
G37*
G36*
X36646910Y-32381647D02*
X37237855Y-32502951D01*
X37793998Y-32736732D01*
X38294134Y-33074078D01*
X38719221Y-33502143D01*
X39053066Y-34004621D01*
X39282956Y-34562376D01*
X39400064Y-35153814D01*
X39400064Y-35153824D01*
X39400131Y-35154163D01*
X39390510Y-35843216D01*
X39390433Y-35843554D01*
X39390433Y-35843562D01*
X39256857Y-36431501D01*
X39011485Y-36982616D01*
X38663737Y-37475578D01*
X38226862Y-37891609D01*
X37717500Y-38214861D01*
X37155054Y-38433019D01*
X36560947Y-38537776D01*
X35957803Y-38525142D01*
X35368600Y-38395597D01*
X34815782Y-38154077D01*
X34320407Y-37809782D01*
X33901337Y-37375823D01*
X33574538Y-36868730D01*
X33352456Y-36307814D01*
X33243555Y-35714458D01*
X33251977Y-35111241D01*
X33377406Y-34521147D01*
X33615059Y-33966658D01*
X33955891Y-33468888D01*
X34386912Y-33046800D01*
X34891713Y-32716468D01*
X35451059Y-32490477D01*
X36043645Y-32377436D01*
X36646910Y-32381647D01*
X36646910Y-32381647D01*
G37*
G36*
X44646910Y-32381647D02*
X45237855Y-32502951D01*
X45793998Y-32736732D01*
X46294134Y-33074078D01*
X46719221Y-33502143D01*
X47053066Y-34004621D01*
X47282956Y-34562376D01*
X47400064Y-35153814D01*
X47400064Y-35153824D01*
X47400131Y-35154163D01*
X47390510Y-35843216D01*
X47390433Y-35843554D01*
X47390433Y-35843562D01*
X47256857Y-36431501D01*
X47011485Y-36982616D01*
X46663737Y-37475578D01*
X46226862Y-37891609D01*
X45717500Y-38214861D01*
X45155054Y-38433019D01*
X44560947Y-38537776D01*
X43957803Y-38525142D01*
X43368600Y-38395597D01*
X42815782Y-38154077D01*
X42320407Y-37809782D01*
X41901337Y-37375823D01*
X41574538Y-36868730D01*
X41352456Y-36307814D01*
X41243555Y-35714458D01*
X41251977Y-35111241D01*
X41377406Y-34521147D01*
X41615059Y-33966658D01*
X41955891Y-33468888D01*
X42386912Y-33046800D01*
X42891713Y-32716468D01*
X43451059Y-32490477D01*
X44043645Y-32377436D01*
X44646910Y-32381647D01*
X44646910Y-32381647D01*
G37*
G36*
X52646910Y-32381647D02*
X53237855Y-32502951D01*
X53793998Y-32736732D01*
X54294134Y-33074078D01*
X54719221Y-33502143D01*
X55053066Y-34004621D01*
X55282956Y-34562376D01*
X55400064Y-35153814D01*
X55400064Y-35153824D01*
X55400131Y-35154163D01*
X55390510Y-35843216D01*
X55390433Y-35843554D01*
X55390433Y-35843562D01*
X55256857Y-36431501D01*
X55011485Y-36982616D01*
X54663737Y-37475578D01*
X54226862Y-37891609D01*
X53717500Y-38214861D01*
X53155054Y-38433019D01*
X52560947Y-38537776D01*
X51957803Y-38525142D01*
X51368600Y-38395597D01*
X50815782Y-38154077D01*
X50320407Y-37809782D01*
X49901337Y-37375823D01*
X49574538Y-36868730D01*
X49352456Y-36307814D01*
X49243555Y-35714458D01*
X49251977Y-35111241D01*
X49377406Y-34521147D01*
X49615059Y-33966658D01*
X49955891Y-33468888D01*
X50386912Y-33046800D01*
X50891713Y-32716468D01*
X51451059Y-32490477D01*
X52043645Y-32377436D01*
X52646910Y-32381647D01*
X52646910Y-32381647D01*
G37*
G36*
X60646910Y-32381647D02*
X61237855Y-32502951D01*
X61793998Y-32736732D01*
X62294134Y-33074078D01*
X62719221Y-33502143D01*
X63053066Y-34004621D01*
X63282956Y-34562376D01*
X63400064Y-35153814D01*
X63400064Y-35153824D01*
X63400131Y-35154163D01*
X63390510Y-35843216D01*
X63390433Y-35843554D01*
X63390433Y-35843562D01*
X63256857Y-36431501D01*
X63011485Y-36982616D01*
X62663737Y-37475578D01*
X62226862Y-37891609D01*
X61717500Y-38214861D01*
X61155054Y-38433019D01*
X60560947Y-38537776D01*
X59957803Y-38525142D01*
X59368600Y-38395597D01*
X58815782Y-38154077D01*
X58320407Y-37809782D01*
X57901337Y-37375823D01*
X57574538Y-36868730D01*
X57352456Y-36307814D01*
X57243555Y-35714458D01*
X57251977Y-35111241D01*
X57377406Y-34521147D01*
X57615059Y-33966658D01*
X57955891Y-33468888D01*
X58386912Y-33046800D01*
X58891713Y-32716468D01*
X59451059Y-32490477D01*
X60043645Y-32377436D01*
X60646910Y-32381647D01*
X60646910Y-32381647D01*
G37*
G36*
X28646910Y-32381647D02*
X29237855Y-32502951D01*
X29793998Y-32736732D01*
X30294134Y-33074078D01*
X30719221Y-33502143D01*
X31053066Y-34004621D01*
X31282956Y-34562376D01*
X31400064Y-35153814D01*
X31400064Y-35153824D01*
X31400131Y-35154163D01*
X31390510Y-35843216D01*
X31390433Y-35843554D01*
X31390433Y-35843562D01*
X31256857Y-36431501D01*
X31011485Y-36982616D01*
X30663737Y-37475578D01*
X30226862Y-37891609D01*
X29717500Y-38214861D01*
X29155054Y-38433019D01*
X28560947Y-38537776D01*
X27957803Y-38525142D01*
X27368600Y-38395597D01*
X26815782Y-38154077D01*
X26320407Y-37809782D01*
X25901337Y-37375823D01*
X25574538Y-36868730D01*
X25352456Y-36307814D01*
X25243555Y-35714458D01*
X25251977Y-35111241D01*
X25377406Y-34521147D01*
X25615059Y-33966658D01*
X25955891Y-33468888D01*
X26386912Y-33046800D01*
X26891713Y-32716468D01*
X27451059Y-32490477D01*
X28043645Y-32377436D01*
X28646910Y-32381647D01*
X28646910Y-32381647D01*
G37*
M02*
