%TF.GenerationSoftware,KiCad,Pcbnew,4.0.5-e0-6337~49~ubuntu16.04.1*%
%TF.CreationDate,2017-02-14T03:42:44-08:00*%
%TF.ProjectId,USB-Breakout-with-Reset,5553422D427265616B6F75742D776974,rev?*%
%TF.FileFunction,Copper,L1,Top,Signal*%
%FSLAX46Y46*%
G04 Gerber Fmt 4.6, Leading zero omitted, Abs format (unit mm)*
G04 Created by KiCad (PCBNEW 4.0.5-e0-6337~49~ubuntu16.04.1) date Tue Feb 14 03:42:44 2017*
%MOMM*%
%LPD*%
G01*
G04 APERTURE LIST*
%ADD10C,0.350000*%
%ADD11R,1.350000X0.400000*%
%ADD12R,1.400000X1.600000*%
%ADD13C,1.200000*%
%ADD14R,1.900000X1.900000*%
%ADD15C,1.998980*%
%ADD16C,1.700000*%
%ADD17C,6.000000*%
%ADD18R,1.998980X1.998980*%
%ADD19R,1.400000X1.400000*%
%ADD20C,1.400000*%
%ADD21C,0.685800*%
%ADD22C,0.330200*%
%ADD23C,0.508000*%
%ADD24C,0.254000*%
%ADD25C,0.330200*%
%ADD26C,0.350000*%
G04 APERTURE END LIST*
D10*
D11*
X29148800Y-44255800D03*
X29148800Y-44905800D03*
X29148800Y-45554900D03*
X29148800Y-46205800D03*
X29148800Y-46855800D03*
D12*
X28923800Y-42355800D03*
D13*
X26473800Y-42005800D03*
D14*
X26473800Y-44355800D03*
X26473800Y-46755800D03*
D12*
X28923800Y-48755800D03*
D13*
X26473800Y-49105800D03*
D15*
X36959800Y-49425800D03*
X36959800Y-41805800D03*
X48135800Y-44255800D03*
X40515800Y-44255800D03*
X48135800Y-47255800D03*
X40515800Y-47255800D03*
D16*
X59323800Y-42255800D03*
X59323800Y-48255800D03*
X55323800Y-42255800D03*
X55323800Y-48255800D03*
D17*
X28323800Y-35455800D03*
X44323800Y-35455800D03*
X52323800Y-35455800D03*
X36323800Y-35455800D03*
X60323800Y-35455800D03*
D15*
X50283800Y-41050720D03*
D18*
X40123800Y-41050720D03*
D15*
X50483800Y-50255800D03*
D18*
X40323800Y-50255800D03*
D19*
X32895800Y-42139800D03*
D20*
X32895800Y-47139800D03*
D21*
X30923800Y-46855800D03*
X30535069Y-44143790D03*
D22*
X29148800Y-46855800D02*
X30923800Y-46855800D01*
X37959289Y-42805289D02*
X39499800Y-42805289D01*
X39499800Y-42805289D02*
X39886311Y-42805289D01*
X40123800Y-43055800D02*
X39750311Y-43055800D01*
X39750311Y-43055800D02*
X39499800Y-42805289D01*
X40515800Y-44255800D02*
X40515800Y-43447800D01*
X40515800Y-43447800D02*
X40123800Y-43055800D01*
X40123800Y-41050720D02*
X40123800Y-42567800D01*
X36959800Y-41805800D02*
X37959289Y-42805289D01*
X40123800Y-42567800D02*
X40123800Y-43055800D01*
X39886311Y-42805289D02*
X40123800Y-42567800D01*
X38452308Y-44905800D02*
X29148800Y-44905800D01*
X40515800Y-44255800D02*
X39102308Y-44255800D01*
X39102308Y-44255800D02*
X38452308Y-44905800D01*
X40323800Y-50255800D02*
X40323800Y-47447800D01*
X40323800Y-47447800D02*
X40515800Y-47255800D01*
X29148800Y-45554900D02*
X38814900Y-45554900D01*
X38814900Y-45554900D02*
X40515800Y-47255800D01*
D23*
X28323800Y-35455800D02*
X31323799Y-38455799D01*
X31323799Y-38455799D02*
X31323799Y-43355060D01*
X31323799Y-43355060D02*
X30877968Y-43800891D01*
X30877968Y-43800891D02*
X30535069Y-44143790D01*
D24*
X30423059Y-44255800D02*
X30535069Y-44143790D01*
X29148800Y-44255800D02*
X30423059Y-44255800D01*
D22*
X46543800Y-44255800D02*
X46543800Y-37675800D01*
X46543800Y-37675800D02*
X44323800Y-35455800D01*
X52323800Y-35455800D02*
X52323800Y-41475800D01*
X52323800Y-41475800D02*
X46543800Y-47255800D01*
X55323800Y-42255800D02*
X55323800Y-48255800D01*
X54304699Y-32036699D02*
X56173799Y-33905799D01*
X56173799Y-33905799D02*
X56173799Y-41405801D01*
X56173799Y-41405801D02*
X55323800Y-42255800D01*
X36323800Y-35455800D02*
X39742901Y-32036699D01*
X39742901Y-32036699D02*
X54304699Y-32036699D01*
D25*
X30923800Y-46855800D03*
X30535069Y-44143790D03*
D26*
X26473800Y-42005800D03*
X26473800Y-49105800D03*
X36959800Y-49425800D03*
X36959800Y-41805800D03*
X48135800Y-44255800D03*
X40515800Y-44255800D03*
X48135800Y-47255800D03*
X40515800Y-47255800D03*
X59323800Y-42255800D03*
X59323800Y-48255800D03*
X55323800Y-42255800D03*
X55323800Y-48255800D03*
X28323800Y-35455800D03*
X44323800Y-35455800D03*
X52323800Y-35455800D03*
X36323800Y-35455800D03*
X60323800Y-35455800D03*
X50283800Y-41050720D03*
X40123800Y-41050720D03*
X50483800Y-50255800D03*
X40323800Y-50255800D03*
X32895800Y-42139800D03*
X32895800Y-47139800D03*
M02*
