%TF.GenerationSoftware,KiCad,Pcbnew,4.0.4+e1-6308~48~ubuntu16.04.1-stable*%
%TF.CreationDate,2016-12-29T13:26:47-08:00*%
%TF.ProjectId,USB-Breakout-with-Reset,5553422D427265616B6F75742D776974,rev?*%
%TF.FileFunction,Other,Fab,Top*%
%FSLAX46Y46*%
G04 Gerber Fmt 4.6, Leading zero omitted, Abs format (unit mm)*
G04 Created by KiCad (PCBNEW 4.0.4+e1-6308~48~ubuntu16.04.1-stable) date Thu Dec 29 13:26:47 2016*
%MOMM*%
%LPD*%
G01*
G04 APERTURE LIST*
%ADD10C,0.350000*%
%ADD11C,0.152400*%
%ADD12C,0.050000*%
%ADD13C,0.050800*%
%ADD14C,0.040640*%
%ADD15C,0.254000*%
%ADD16C,0.150000*%
G04 APERTURE END LIST*
D10*
D11*
X153849906Y-115724657D02*
X153801525Y-115773038D01*
X153656382Y-115821419D01*
X153559620Y-115821419D01*
X153414478Y-115773038D01*
X153317716Y-115676276D01*
X153269335Y-115579514D01*
X153220954Y-115385990D01*
X153220954Y-115240848D01*
X153269335Y-115047324D01*
X153317716Y-114950562D01*
X153414478Y-114853800D01*
X153559620Y-114805419D01*
X153656382Y-114805419D01*
X153801525Y-114853800D01*
X153849906Y-114902181D01*
X154285335Y-115821419D02*
X154285335Y-115144086D01*
X154285335Y-115337610D02*
X154333716Y-115240848D01*
X154382097Y-115192467D01*
X154478859Y-115144086D01*
X154575620Y-115144086D01*
X155349715Y-115821419D02*
X155349715Y-115289229D01*
X155301334Y-115192467D01*
X155204572Y-115144086D01*
X155011049Y-115144086D01*
X154914287Y-115192467D01*
X155349715Y-115773038D02*
X155252953Y-115821419D01*
X155011049Y-115821419D01*
X154914287Y-115773038D01*
X154865906Y-115676276D01*
X154865906Y-115579514D01*
X154914287Y-115482752D01*
X155011049Y-115434371D01*
X155252953Y-115434371D01*
X155349715Y-115385990D01*
X155736763Y-115144086D02*
X156268953Y-115144086D01*
X155736763Y-115821419D01*
X156268953Y-115821419D01*
X156559239Y-115144086D02*
X156801144Y-115821419D01*
X157043048Y-115144086D02*
X156801144Y-115821419D01*
X156704382Y-116063324D01*
X156656001Y-116111705D01*
X156559239Y-116160086D01*
X158784762Y-115724657D02*
X158736381Y-115773038D01*
X158591238Y-115821419D01*
X158494476Y-115821419D01*
X158349334Y-115773038D01*
X158252572Y-115676276D01*
X158204191Y-115579514D01*
X158155810Y-115385990D01*
X158155810Y-115240848D01*
X158204191Y-115047324D01*
X158252572Y-114950562D01*
X158349334Y-114853800D01*
X158494476Y-114805419D01*
X158591238Y-114805419D01*
X158736381Y-114853800D01*
X158784762Y-114902181D01*
X159220191Y-115821419D02*
X159220191Y-115144086D01*
X159220191Y-114805419D02*
X159171810Y-114853800D01*
X159220191Y-114902181D01*
X159268572Y-114853800D01*
X159220191Y-114805419D01*
X159220191Y-114902181D01*
X159704001Y-115821419D02*
X159704001Y-115144086D01*
X159704001Y-115337610D02*
X159752382Y-115240848D01*
X159800763Y-115192467D01*
X159897525Y-115144086D01*
X159994286Y-115144086D01*
X160768381Y-115773038D02*
X160671619Y-115821419D01*
X160478096Y-115821419D01*
X160381334Y-115773038D01*
X160332953Y-115724657D01*
X160284572Y-115627895D01*
X160284572Y-115337610D01*
X160332953Y-115240848D01*
X160381334Y-115192467D01*
X160478096Y-115144086D01*
X160671619Y-115144086D01*
X160768381Y-115192467D01*
X161639238Y-115144086D02*
X161639238Y-115821419D01*
X161203810Y-115144086D02*
X161203810Y-115676276D01*
X161252191Y-115773038D01*
X161348953Y-115821419D01*
X161494095Y-115821419D01*
X161590857Y-115773038D01*
X161639238Y-115724657D01*
X162123048Y-115821419D02*
X162123048Y-115144086D01*
X162123048Y-114805419D02*
X162074667Y-114853800D01*
X162123048Y-114902181D01*
X162171429Y-114853800D01*
X162123048Y-114805419D01*
X162123048Y-114902181D01*
X162461715Y-115144086D02*
X162848763Y-115144086D01*
X162606858Y-114805419D02*
X162606858Y-115676276D01*
X162655239Y-115773038D01*
X162752001Y-115821419D01*
X162848763Y-115821419D01*
X163961524Y-115821419D02*
X163961524Y-114805419D01*
X164542095Y-115821419D02*
X164106667Y-115240848D01*
X164542095Y-114805419D02*
X163961524Y-115385990D01*
X164977524Y-115821419D02*
X164977524Y-115144086D01*
X164977524Y-114805419D02*
X164929143Y-114853800D01*
X164977524Y-114902181D01*
X165025905Y-114853800D01*
X164977524Y-114805419D01*
X164977524Y-114902181D01*
X165316191Y-115144086D02*
X165703239Y-115144086D01*
X165461334Y-114805419D02*
X165461334Y-115676276D01*
X165509715Y-115773038D01*
X165606477Y-115821419D01*
X165703239Y-115821419D01*
X158639619Y-117497819D02*
X158059048Y-117497819D01*
X158349334Y-117497819D02*
X158349334Y-116481819D01*
X158252572Y-116626962D01*
X158155810Y-116723724D01*
X158059048Y-116772105D01*
X159607238Y-117497819D02*
X159026667Y-117497819D01*
X159316953Y-117497819D02*
X159316953Y-116481819D01*
X159220191Y-116626962D01*
X159123429Y-116723724D01*
X159026667Y-116772105D01*
X160768381Y-116433438D02*
X159897524Y-117739724D01*
X161058667Y-116578581D02*
X161107048Y-116530200D01*
X161203810Y-116481819D01*
X161445714Y-116481819D01*
X161542476Y-116530200D01*
X161590857Y-116578581D01*
X161639238Y-116675343D01*
X161639238Y-116772105D01*
X161590857Y-116917248D01*
X161010286Y-117497819D01*
X161639238Y-117497819D01*
X162268191Y-116481819D02*
X162364952Y-116481819D01*
X162461714Y-116530200D01*
X162510095Y-116578581D01*
X162558476Y-116675343D01*
X162606857Y-116868867D01*
X162606857Y-117110771D01*
X162558476Y-117304295D01*
X162510095Y-117401057D01*
X162461714Y-117449438D01*
X162364952Y-117497819D01*
X162268191Y-117497819D01*
X162171429Y-117449438D01*
X162123048Y-117401057D01*
X162074667Y-117304295D01*
X162026286Y-117110771D01*
X162026286Y-116868867D01*
X162074667Y-116675343D01*
X162123048Y-116578581D01*
X162171429Y-116530200D01*
X162268191Y-116481819D01*
X163768000Y-116433438D02*
X162897143Y-117739724D01*
X164638857Y-117497819D02*
X164058286Y-117497819D01*
X164348572Y-117497819D02*
X164348572Y-116481819D01*
X164251810Y-116626962D01*
X164155048Y-116723724D01*
X164058286Y-116772105D01*
X165509714Y-116481819D02*
X165316191Y-116481819D01*
X165219429Y-116530200D01*
X165171048Y-116578581D01*
X165074286Y-116723724D01*
X165025905Y-116917248D01*
X165025905Y-117304295D01*
X165074286Y-117401057D01*
X165122667Y-117449438D01*
X165219429Y-117497819D01*
X165412952Y-117497819D01*
X165509714Y-117449438D01*
X165558095Y-117401057D01*
X165606476Y-117304295D01*
X165606476Y-117062390D01*
X165558095Y-116965629D01*
X165509714Y-116917248D01*
X165412952Y-116868867D01*
X165219429Y-116868867D01*
X165122667Y-116917248D01*
X165074286Y-116965629D01*
X165025905Y-117062390D01*
X149544002Y-89731133D02*
X150027811Y-89731133D01*
X149447240Y-90021419D02*
X149785907Y-89005419D01*
X150124573Y-90021419D01*
X150414859Y-89973038D02*
X150511621Y-90021419D01*
X150705145Y-90021419D01*
X150801906Y-89973038D01*
X150850287Y-89876276D01*
X150850287Y-89827895D01*
X150801906Y-89731133D01*
X150705145Y-89682752D01*
X150560002Y-89682752D01*
X150463240Y-89634371D01*
X150414859Y-89537610D01*
X150414859Y-89489229D01*
X150463240Y-89392467D01*
X150560002Y-89344086D01*
X150705145Y-89344086D01*
X150801906Y-89392467D01*
X151237335Y-89973038D02*
X151334097Y-90021419D01*
X151527621Y-90021419D01*
X151624382Y-89973038D01*
X151672763Y-89876276D01*
X151672763Y-89827895D01*
X151624382Y-89731133D01*
X151527621Y-89682752D01*
X151382478Y-89682752D01*
X151285716Y-89634371D01*
X151237335Y-89537610D01*
X151237335Y-89489229D01*
X151285716Y-89392467D01*
X151382478Y-89344086D01*
X151527621Y-89344086D01*
X151624382Y-89392467D01*
X152495239Y-89973038D02*
X152398477Y-90021419D01*
X152204954Y-90021419D01*
X152108192Y-89973038D01*
X152059811Y-89876276D01*
X152059811Y-89489229D01*
X152108192Y-89392467D01*
X152204954Y-89344086D01*
X152398477Y-89344086D01*
X152495239Y-89392467D01*
X152543620Y-89489229D01*
X152543620Y-89585990D01*
X152059811Y-89682752D01*
X152979049Y-90021419D02*
X152979049Y-89344086D01*
X152979049Y-89440848D02*
X153027430Y-89392467D01*
X153124192Y-89344086D01*
X153269334Y-89344086D01*
X153366096Y-89392467D01*
X153414477Y-89489229D01*
X153414477Y-90021419D01*
X153414477Y-89489229D02*
X153462858Y-89392467D01*
X153559620Y-89344086D01*
X153704763Y-89344086D01*
X153801525Y-89392467D01*
X153849906Y-89489229D01*
X153849906Y-90021419D01*
X154333716Y-90021419D02*
X154333716Y-89005419D01*
X154333716Y-89392467D02*
X154430478Y-89344086D01*
X154624001Y-89344086D01*
X154720763Y-89392467D01*
X154769144Y-89440848D01*
X154817525Y-89537610D01*
X154817525Y-89827895D01*
X154769144Y-89924657D01*
X154720763Y-89973038D01*
X154624001Y-90021419D01*
X154430478Y-90021419D01*
X154333716Y-89973038D01*
X155398097Y-90021419D02*
X155301335Y-89973038D01*
X155252954Y-89876276D01*
X155252954Y-89005419D01*
X155688382Y-89344086D02*
X155930287Y-90021419D01*
X156172191Y-89344086D02*
X155930287Y-90021419D01*
X155833525Y-90263324D01*
X155785144Y-90311705D01*
X155688382Y-90360086D01*
X157333334Y-90021419D02*
X157333334Y-89005419D01*
X157817144Y-89344086D02*
X157817144Y-90021419D01*
X157817144Y-89440848D02*
X157865525Y-89392467D01*
X157962287Y-89344086D01*
X158107429Y-89344086D01*
X158204191Y-89392467D01*
X158252572Y-89489229D01*
X158252572Y-90021419D01*
X158591239Y-89344086D02*
X158978287Y-89344086D01*
X158736382Y-90021419D02*
X158736382Y-89150562D01*
X158784763Y-89053800D01*
X158881525Y-89005419D01*
X158978287Y-89005419D01*
X159462096Y-90021419D02*
X159365334Y-89973038D01*
X159316953Y-89924657D01*
X159268572Y-89827895D01*
X159268572Y-89537610D01*
X159316953Y-89440848D01*
X159365334Y-89392467D01*
X159462096Y-89344086D01*
X159607238Y-89344086D01*
X159704000Y-89392467D01*
X159752381Y-89440848D01*
X159800762Y-89537610D01*
X159800762Y-89827895D01*
X159752381Y-89924657D01*
X159704000Y-89973038D01*
X159607238Y-90021419D01*
X159462096Y-90021419D01*
X160236191Y-90021419D02*
X160236191Y-89344086D01*
X160236191Y-89537610D02*
X160284572Y-89440848D01*
X160332953Y-89392467D01*
X160429715Y-89344086D01*
X160526476Y-89344086D01*
X160865143Y-90021419D02*
X160865143Y-89344086D01*
X160865143Y-89440848D02*
X160913524Y-89392467D01*
X161010286Y-89344086D01*
X161155428Y-89344086D01*
X161252190Y-89392467D01*
X161300571Y-89489229D01*
X161300571Y-90021419D01*
X161300571Y-89489229D02*
X161348952Y-89392467D01*
X161445714Y-89344086D01*
X161590857Y-89344086D01*
X161687619Y-89392467D01*
X161736000Y-89489229D01*
X161736000Y-90021419D01*
X162655238Y-90021419D02*
X162655238Y-89489229D01*
X162606857Y-89392467D01*
X162510095Y-89344086D01*
X162316572Y-89344086D01*
X162219810Y-89392467D01*
X162655238Y-89973038D02*
X162558476Y-90021419D01*
X162316572Y-90021419D01*
X162219810Y-89973038D01*
X162171429Y-89876276D01*
X162171429Y-89779514D01*
X162219810Y-89682752D01*
X162316572Y-89634371D01*
X162558476Y-89634371D01*
X162655238Y-89585990D01*
X162993905Y-89344086D02*
X163380953Y-89344086D01*
X163139048Y-89005419D02*
X163139048Y-89876276D01*
X163187429Y-89973038D01*
X163284191Y-90021419D01*
X163380953Y-90021419D01*
X163719619Y-90021419D02*
X163719619Y-89344086D01*
X163719619Y-89005419D02*
X163671238Y-89053800D01*
X163719619Y-89102181D01*
X163768000Y-89053800D01*
X163719619Y-89005419D01*
X163719619Y-89102181D01*
X164348572Y-90021419D02*
X164251810Y-89973038D01*
X164203429Y-89924657D01*
X164155048Y-89827895D01*
X164155048Y-89537610D01*
X164203429Y-89440848D01*
X164251810Y-89392467D01*
X164348572Y-89344086D01*
X164493714Y-89344086D01*
X164590476Y-89392467D01*
X164638857Y-89440848D01*
X164687238Y-89537610D01*
X164687238Y-89827895D01*
X164638857Y-89924657D01*
X164590476Y-89973038D01*
X164493714Y-90021419D01*
X164348572Y-90021419D01*
X165122667Y-89344086D02*
X165122667Y-90021419D01*
X165122667Y-89440848D02*
X165171048Y-89392467D01*
X165267810Y-89344086D01*
X165412952Y-89344086D01*
X165509714Y-89392467D01*
X165558095Y-89489229D01*
X165558095Y-90021419D01*
X151576002Y-90681819D02*
X151576002Y-91504295D01*
X151624383Y-91601057D01*
X151672764Y-91649438D01*
X151769526Y-91697819D01*
X151963049Y-91697819D01*
X152059811Y-91649438D01*
X152108192Y-91601057D01*
X152156573Y-91504295D01*
X152156573Y-90681819D01*
X152592002Y-91649438D02*
X152737145Y-91697819D01*
X152979049Y-91697819D01*
X153075811Y-91649438D01*
X153124192Y-91601057D01*
X153172573Y-91504295D01*
X153172573Y-91407533D01*
X153124192Y-91310771D01*
X153075811Y-91262390D01*
X152979049Y-91214010D01*
X152785526Y-91165629D01*
X152688764Y-91117248D01*
X152640383Y-91068867D01*
X152592002Y-90972105D01*
X152592002Y-90875343D01*
X152640383Y-90778581D01*
X152688764Y-90730200D01*
X152785526Y-90681819D01*
X153027430Y-90681819D01*
X153172573Y-90730200D01*
X153946668Y-91165629D02*
X154091811Y-91214010D01*
X154140192Y-91262390D01*
X154188573Y-91359152D01*
X154188573Y-91504295D01*
X154140192Y-91601057D01*
X154091811Y-91649438D01*
X153995049Y-91697819D01*
X153608002Y-91697819D01*
X153608002Y-90681819D01*
X153946668Y-90681819D01*
X154043430Y-90730200D01*
X154091811Y-90778581D01*
X154140192Y-90875343D01*
X154140192Y-90972105D01*
X154091811Y-91068867D01*
X154043430Y-91117248D01*
X153946668Y-91165629D01*
X153608002Y-91165629D01*
X155736763Y-91165629D02*
X155881906Y-91214010D01*
X155930287Y-91262390D01*
X155978668Y-91359152D01*
X155978668Y-91504295D01*
X155930287Y-91601057D01*
X155881906Y-91649438D01*
X155785144Y-91697819D01*
X155398097Y-91697819D01*
X155398097Y-90681819D01*
X155736763Y-90681819D01*
X155833525Y-90730200D01*
X155881906Y-90778581D01*
X155930287Y-90875343D01*
X155930287Y-90972105D01*
X155881906Y-91068867D01*
X155833525Y-91117248D01*
X155736763Y-91165629D01*
X155398097Y-91165629D01*
X156414097Y-91697819D02*
X156414097Y-91020486D01*
X156414097Y-91214010D02*
X156462478Y-91117248D01*
X156510859Y-91068867D01*
X156607621Y-91020486D01*
X156704382Y-91020486D01*
X157430096Y-91649438D02*
X157333334Y-91697819D01*
X157139811Y-91697819D01*
X157043049Y-91649438D01*
X156994668Y-91552676D01*
X156994668Y-91165629D01*
X157043049Y-91068867D01*
X157139811Y-91020486D01*
X157333334Y-91020486D01*
X157430096Y-91068867D01*
X157478477Y-91165629D01*
X157478477Y-91262390D01*
X156994668Y-91359152D01*
X158349334Y-91697819D02*
X158349334Y-91165629D01*
X158300953Y-91068867D01*
X158204191Y-91020486D01*
X158010668Y-91020486D01*
X157913906Y-91068867D01*
X158349334Y-91649438D02*
X158252572Y-91697819D01*
X158010668Y-91697819D01*
X157913906Y-91649438D01*
X157865525Y-91552676D01*
X157865525Y-91455914D01*
X157913906Y-91359152D01*
X158010668Y-91310771D01*
X158252572Y-91310771D01*
X158349334Y-91262390D01*
X158833144Y-91697819D02*
X158833144Y-90681819D01*
X158929906Y-91310771D02*
X159220191Y-91697819D01*
X159220191Y-91020486D02*
X158833144Y-91407533D01*
X159800763Y-91697819D02*
X159704001Y-91649438D01*
X159655620Y-91601057D01*
X159607239Y-91504295D01*
X159607239Y-91214010D01*
X159655620Y-91117248D01*
X159704001Y-91068867D01*
X159800763Y-91020486D01*
X159945905Y-91020486D01*
X160042667Y-91068867D01*
X160091048Y-91117248D01*
X160139429Y-91214010D01*
X160139429Y-91504295D01*
X160091048Y-91601057D01*
X160042667Y-91649438D01*
X159945905Y-91697819D01*
X159800763Y-91697819D01*
X161010286Y-91020486D02*
X161010286Y-91697819D01*
X160574858Y-91020486D02*
X160574858Y-91552676D01*
X160623239Y-91649438D01*
X160720001Y-91697819D01*
X160865143Y-91697819D01*
X160961905Y-91649438D01*
X161010286Y-91601057D01*
X161348953Y-91020486D02*
X161736001Y-91020486D01*
X161494096Y-90681819D02*
X161494096Y-91552676D01*
X161542477Y-91649438D01*
X161639239Y-91697819D01*
X161736001Y-91697819D01*
X162752000Y-91020486D02*
X162993905Y-91697819D01*
X163235809Y-91020486D01*
X164155047Y-91697819D02*
X163574476Y-91697819D01*
X163864762Y-91697819D02*
X163864762Y-90681819D01*
X163768000Y-90826962D01*
X163671238Y-90923724D01*
X163574476Y-90972105D01*
X164590476Y-91601057D02*
X164638857Y-91649438D01*
X164590476Y-91697819D01*
X164542095Y-91649438D01*
X164590476Y-91601057D01*
X164590476Y-91697819D01*
X165267810Y-90681819D02*
X165364571Y-90681819D01*
X165461333Y-90730200D01*
X165509714Y-90778581D01*
X165558095Y-90875343D01*
X165606476Y-91068867D01*
X165606476Y-91310771D01*
X165558095Y-91504295D01*
X165509714Y-91601057D01*
X165461333Y-91649438D01*
X165364571Y-91697819D01*
X165267810Y-91697819D01*
X165171048Y-91649438D01*
X165122667Y-91601057D01*
X165074286Y-91504295D01*
X165025905Y-91310771D01*
X165025905Y-91068867D01*
X165074286Y-90875343D01*
X165122667Y-90778581D01*
X165171048Y-90730200D01*
X165267810Y-90681819D01*
X166000000Y-110000000D02*
X166000000Y-97200000D01*
X126200000Y-97000000D02*
X126200000Y-109800000D01*
X126200000Y-109800000D02*
G75*
G03X130200000Y-113800000I4000000J0D01*
G01*
X130200000Y-113800000D02*
X162200000Y-113800000D01*
X162200000Y-113800000D02*
G75*
G03X166000000Y-110000000I0J3800000D01*
G01*
X130000000Y-93200000D02*
G75*
G03X126200000Y-97000000I0J-3800000D01*
G01*
X162000000Y-93200000D02*
X130000000Y-93200000D01*
X166000000Y-97200000D02*
G75*
G03X162000000Y-93200000I-4000000J0D01*
G01*
D12*
X126650000Y-102100000D02*
X131900000Y-102100000D01*
X126650000Y-112100000D02*
X126650000Y-102100000D01*
X131900000Y-112100000D02*
X126650000Y-112100000D01*
X131900000Y-102100000D02*
X131900000Y-112100000D01*
D13*
X137136000Y-102070000D02*
X137136000Y-112270000D01*
X140136000Y-102070000D02*
X137136000Y-102070000D01*
X140136000Y-102170000D02*
X140136000Y-102070000D01*
X140136000Y-112270000D02*
X140136000Y-102170000D01*
X137136000Y-112270000D02*
X140136000Y-112270000D01*
X140912000Y-107300000D02*
X151112000Y-107300000D01*
X140912000Y-104300000D02*
X140912000Y-107300000D01*
X141012000Y-104300000D02*
X140912000Y-104300000D01*
X151112000Y-104300000D02*
X141012000Y-104300000D01*
X151112000Y-107300000D02*
X151112000Y-104300000D01*
X140912000Y-110300000D02*
X151112000Y-110300000D01*
X140912000Y-107300000D02*
X140912000Y-110300000D01*
X141012000Y-107300000D02*
X140912000Y-107300000D01*
X151112000Y-107300000D02*
X141012000Y-107300000D01*
X151112000Y-110300000D02*
X151112000Y-107300000D01*
D12*
X162000000Y-102800000D02*
X156000000Y-102800000D01*
X162000000Y-110800000D02*
X162000000Y-102800000D01*
X156000000Y-110800000D02*
X162000000Y-110800000D01*
X156000000Y-102800000D02*
X156000000Y-110800000D01*
D14*
X132982030Y-97000000D02*
G75*
G03X132982030Y-97000000I-2982030J0D01*
G01*
X148982030Y-97000000D02*
G75*
G03X148982030Y-97000000I-2982030J0D01*
G01*
X156982030Y-97000000D02*
G75*
G03X156982030Y-97000000I-2982030J0D01*
G01*
X140982030Y-97000000D02*
G75*
G03X140982030Y-97000000I-2982030J0D01*
G01*
X164982030Y-97000000D02*
G75*
G03X164982030Y-97000000I-2982030J0D01*
G01*
D13*
X140300000Y-100847460D02*
X140300000Y-101097460D01*
X153550000Y-100847460D02*
X140300000Y-100847460D01*
X153550000Y-104347460D02*
X153550000Y-100847460D01*
X153300000Y-104347460D02*
X153550000Y-104347460D01*
X140300000Y-104347460D02*
X153300000Y-104347460D01*
X140300000Y-101097460D02*
X140300000Y-104347460D01*
X141300000Y-100847460D02*
X141300000Y-104347460D01*
X140500000Y-110052540D02*
X140500000Y-110302540D01*
X153750000Y-110052540D02*
X140500000Y-110052540D01*
X153750000Y-113552540D02*
X153750000Y-110052540D01*
X153500000Y-113552540D02*
X153750000Y-113552540D01*
X140500000Y-113552540D02*
X153500000Y-113552540D01*
X140500000Y-110302540D02*
X140500000Y-113552540D01*
X141500000Y-110052540D02*
X141500000Y-113552540D01*
D12*
X137072000Y-102184000D02*
X137072000Y-110184000D01*
X132072000Y-102184000D02*
X137072000Y-102184000D01*
X132072000Y-110184000D02*
X132072000Y-102184000D01*
X137072000Y-110184000D02*
X132072000Y-110184000D01*
D15*
X128287238Y-107777333D02*
X129738667Y-107777333D01*
X130028952Y-107874095D01*
X130222476Y-108067619D01*
X130319238Y-108357904D01*
X130319238Y-108551428D01*
X130319238Y-105745334D02*
X130319238Y-106906476D01*
X130319238Y-106325905D02*
X128287238Y-106325905D01*
X128577524Y-106519429D01*
X128771048Y-106712953D01*
X128867810Y-106906476D01*
D16*
X139088381Y-107336666D02*
X138612190Y-107670000D01*
X139088381Y-107908095D02*
X138088381Y-107908095D01*
X138088381Y-107527142D01*
X138136000Y-107431904D01*
X138183619Y-107384285D01*
X138278857Y-107336666D01*
X138421714Y-107336666D01*
X138516952Y-107384285D01*
X138564571Y-107431904D01*
X138612190Y-107527142D01*
X138612190Y-107908095D01*
X139088381Y-106384285D02*
X139088381Y-106955714D01*
X139088381Y-106670000D02*
X138088381Y-106670000D01*
X138231238Y-106765238D01*
X138326476Y-106860476D01*
X138374095Y-106955714D01*
X145845334Y-106252381D02*
X145512000Y-105776190D01*
X145273905Y-106252381D02*
X145273905Y-105252381D01*
X145654858Y-105252381D01*
X145750096Y-105300000D01*
X145797715Y-105347619D01*
X145845334Y-105442857D01*
X145845334Y-105585714D01*
X145797715Y-105680952D01*
X145750096Y-105728571D01*
X145654858Y-105776190D01*
X145273905Y-105776190D01*
X146226286Y-105347619D02*
X146273905Y-105300000D01*
X146369143Y-105252381D01*
X146607239Y-105252381D01*
X146702477Y-105300000D01*
X146750096Y-105347619D01*
X146797715Y-105442857D01*
X146797715Y-105538095D01*
X146750096Y-105680952D01*
X146178667Y-106252381D01*
X146797715Y-106252381D01*
X145845334Y-109252381D02*
X145512000Y-108776190D01*
X145273905Y-109252381D02*
X145273905Y-108252381D01*
X145654858Y-108252381D01*
X145750096Y-108300000D01*
X145797715Y-108347619D01*
X145845334Y-108442857D01*
X145845334Y-108585714D01*
X145797715Y-108680952D01*
X145750096Y-108728571D01*
X145654858Y-108776190D01*
X145273905Y-108776190D01*
X146178667Y-108252381D02*
X146797715Y-108252381D01*
X146464381Y-108633333D01*
X146607239Y-108633333D01*
X146702477Y-108680952D01*
X146750096Y-108728571D01*
X146797715Y-108823810D01*
X146797715Y-109061905D01*
X146750096Y-109157143D01*
X146702477Y-109204762D01*
X146607239Y-109252381D01*
X146321524Y-109252381D01*
X146226286Y-109204762D01*
X146178667Y-109157143D01*
X159404762Y-108133333D02*
X159452381Y-107990476D01*
X159452381Y-107752380D01*
X159404762Y-107657142D01*
X159357143Y-107609523D01*
X159261905Y-107561904D01*
X159166667Y-107561904D01*
X159071429Y-107609523D01*
X159023810Y-107657142D01*
X158976190Y-107752380D01*
X158928571Y-107942857D01*
X158880952Y-108038095D01*
X158833333Y-108085714D01*
X158738095Y-108133333D01*
X158642857Y-108133333D01*
X158547619Y-108085714D01*
X158500000Y-108038095D01*
X158452381Y-107942857D01*
X158452381Y-107704761D01*
X158500000Y-107561904D01*
X158452381Y-107228571D02*
X159452381Y-106990476D01*
X158738095Y-106799999D01*
X159452381Y-106609523D01*
X158452381Y-106371428D01*
X159452381Y-105466666D02*
X159452381Y-106038095D01*
X159452381Y-105752381D02*
X158452381Y-105752381D01*
X158595238Y-105847619D01*
X158690476Y-105942857D01*
X158738095Y-106038095D01*
D15*
X145550191Y-103516698D02*
X145550191Y-101484698D01*
X146034000Y-101484698D01*
X146324286Y-101581460D01*
X146517810Y-101774984D01*
X146614571Y-101968508D01*
X146711333Y-102355555D01*
X146711333Y-102645841D01*
X146614571Y-103032889D01*
X146517810Y-103226412D01*
X146324286Y-103419936D01*
X146034000Y-103516698D01*
X145550191Y-103516698D01*
X148646571Y-103516698D02*
X147485429Y-103516698D01*
X148066000Y-103516698D02*
X148066000Y-101484698D01*
X147872476Y-101774984D01*
X147678952Y-101968508D01*
X147485429Y-102065270D01*
X145750191Y-112721778D02*
X145750191Y-110689778D01*
X146234000Y-110689778D01*
X146524286Y-110786540D01*
X146717810Y-110980064D01*
X146814571Y-111173588D01*
X146911333Y-111560635D01*
X146911333Y-111850921D01*
X146814571Y-112237969D01*
X146717810Y-112431492D01*
X146524286Y-112625016D01*
X146234000Y-112721778D01*
X145750191Y-112721778D01*
X147685429Y-110883302D02*
X147782191Y-110786540D01*
X147975714Y-110689778D01*
X148459524Y-110689778D01*
X148653048Y-110786540D01*
X148749810Y-110883302D01*
X148846571Y-111076826D01*
X148846571Y-111270350D01*
X148749810Y-111560635D01*
X147588667Y-112721778D01*
X148846571Y-112721778D01*
D16*
X134929143Y-106300666D02*
X134976762Y-106348285D01*
X135024381Y-106491142D01*
X135024381Y-106586380D01*
X134976762Y-106729238D01*
X134881524Y-106824476D01*
X134786286Y-106872095D01*
X134595810Y-106919714D01*
X134452952Y-106919714D01*
X134262476Y-106872095D01*
X134167238Y-106824476D01*
X134072000Y-106729238D01*
X134024381Y-106586380D01*
X134024381Y-106491142D01*
X134072000Y-106348285D01*
X134119619Y-106300666D01*
X135024381Y-105348285D02*
X135024381Y-105919714D01*
X135024381Y-105634000D02*
X134024381Y-105634000D01*
X134167238Y-105729238D01*
X134262476Y-105824476D01*
X134310095Y-105919714D01*
M02*
