%TF.GenerationSoftware,KiCad,Pcbnew,4.0.5-e0-6337~49~ubuntu16.04.1*%
%TF.CreationDate,2017-01-18T22:20:09-08:00*%
%TF.ProjectId,2x2-Screw-Terminal-3.5mm-Pitch,3278322D53637265772D5465726D696E,1.0*%
%TF.FileFunction,Other,Fab,Top*%
%FSLAX46Y46*%
G04 Gerber Fmt 4.6, Leading zero omitted, Abs format (unit mm)*
G04 Created by KiCad (PCBNEW 4.0.5-e0-6337~49~ubuntu16.04.1) date Wed Jan 18 22:20:09 2017*
%MOMM*%
%LPD*%
G01*
G04 APERTURE LIST*
%ADD10C,0.350000*%
%ADD11C,0.100000*%
%ADD12C,0.040640*%
%ADD13C,0.150000*%
G04 APERTURE END LIST*
D10*
D11*
X129795000Y-104775000D02*
X129795000Y-96775000D01*
X137795000Y-104775000D02*
X129795000Y-104775000D01*
X137795000Y-96775000D02*
X137795000Y-104775000D01*
X129795000Y-96775000D02*
X137795000Y-96775000D01*
D12*
X137695000Y-92975000D02*
X129895000Y-92975000D01*
X137695000Y-108575000D02*
X129895000Y-108575000D01*
X141595000Y-104675000D02*
X141595000Y-96875000D01*
X125995000Y-104675000D02*
X125995000Y-96875000D01*
X141595000Y-96875000D02*
G75*
G03X137695000Y-92975000I-3900000J0D01*
G01*
X137695000Y-108575000D02*
G75*
G03X141595000Y-104675000I0J3900000D01*
G01*
X125995000Y-104675000D02*
G75*
G03X129895000Y-108575000I3900000J0D01*
G01*
X129895000Y-92975000D02*
G75*
G03X125995000Y-96875000I0J-3900000D01*
G01*
D13*
X131485476Y-101179762D02*
X131628333Y-101227381D01*
X131866429Y-101227381D01*
X131961667Y-101179762D01*
X132009286Y-101132143D01*
X132056905Y-101036905D01*
X132056905Y-100941667D01*
X132009286Y-100846429D01*
X131961667Y-100798810D01*
X131866429Y-100751190D01*
X131675952Y-100703571D01*
X131580714Y-100655952D01*
X131533095Y-100608333D01*
X131485476Y-100513095D01*
X131485476Y-100417857D01*
X131533095Y-100322619D01*
X131580714Y-100275000D01*
X131675952Y-100227381D01*
X131914048Y-100227381D01*
X132056905Y-100275000D01*
X133056905Y-101132143D02*
X133009286Y-101179762D01*
X132866429Y-101227381D01*
X132771191Y-101227381D01*
X132628333Y-101179762D01*
X132533095Y-101084524D01*
X132485476Y-100989286D01*
X132437857Y-100798810D01*
X132437857Y-100655952D01*
X132485476Y-100465476D01*
X132533095Y-100370238D01*
X132628333Y-100275000D01*
X132771191Y-100227381D01*
X132866429Y-100227381D01*
X133009286Y-100275000D01*
X133056905Y-100322619D01*
X134056905Y-101227381D02*
X133723571Y-100751190D01*
X133485476Y-101227381D02*
X133485476Y-100227381D01*
X133866429Y-100227381D01*
X133961667Y-100275000D01*
X134009286Y-100322619D01*
X134056905Y-100417857D01*
X134056905Y-100560714D01*
X134009286Y-100655952D01*
X133961667Y-100703571D01*
X133866429Y-100751190D01*
X133485476Y-100751190D01*
X134485476Y-100703571D02*
X134818810Y-100703571D01*
X134961667Y-101227381D02*
X134485476Y-101227381D01*
X134485476Y-100227381D01*
X134961667Y-100227381D01*
X135295000Y-100227381D02*
X135533095Y-101227381D01*
X135723572Y-100513095D01*
X135914048Y-101227381D01*
X136152143Y-100227381D01*
X131414048Y-98227381D02*
X132033096Y-98227381D01*
X131699762Y-98608333D01*
X131842620Y-98608333D01*
X131937858Y-98655952D01*
X131985477Y-98703571D01*
X132033096Y-98798810D01*
X132033096Y-99036905D01*
X131985477Y-99132143D01*
X131937858Y-99179762D01*
X131842620Y-99227381D01*
X131556905Y-99227381D01*
X131461667Y-99179762D01*
X131414048Y-99132143D01*
X132461667Y-99132143D02*
X132509286Y-99179762D01*
X132461667Y-99227381D01*
X132414048Y-99179762D01*
X132461667Y-99132143D01*
X132461667Y-99227381D01*
X133414048Y-98227381D02*
X132937857Y-98227381D01*
X132890238Y-98703571D01*
X132937857Y-98655952D01*
X133033095Y-98608333D01*
X133271191Y-98608333D01*
X133366429Y-98655952D01*
X133414048Y-98703571D01*
X133461667Y-98798810D01*
X133461667Y-99036905D01*
X133414048Y-99132143D01*
X133366429Y-99179762D01*
X133271191Y-99227381D01*
X133033095Y-99227381D01*
X132937857Y-99179762D01*
X132890238Y-99132143D01*
X133890238Y-99227381D02*
X133890238Y-98560714D01*
X133890238Y-98655952D02*
X133937857Y-98608333D01*
X134033095Y-98560714D01*
X134175953Y-98560714D01*
X134271191Y-98608333D01*
X134318810Y-98703571D01*
X134318810Y-99227381D01*
X134318810Y-98703571D02*
X134366429Y-98608333D01*
X134461667Y-98560714D01*
X134604524Y-98560714D01*
X134699762Y-98608333D01*
X134747381Y-98703571D01*
X134747381Y-99227381D01*
X135223571Y-99227381D02*
X135223571Y-98560714D01*
X135223571Y-98655952D02*
X135271190Y-98608333D01*
X135366428Y-98560714D01*
X135509286Y-98560714D01*
X135604524Y-98608333D01*
X135652143Y-98703571D01*
X135652143Y-99227381D01*
X135652143Y-98703571D02*
X135699762Y-98608333D01*
X135795000Y-98560714D01*
X135937857Y-98560714D01*
X136033095Y-98608333D01*
X136080714Y-98703571D01*
X136080714Y-99227381D01*
X130390238Y-102227381D02*
X130961667Y-102227381D01*
X130675952Y-103227381D02*
X130675952Y-102227381D01*
X131295000Y-102703571D02*
X131628334Y-102703571D01*
X131771191Y-103227381D02*
X131295000Y-103227381D01*
X131295000Y-102227381D01*
X131771191Y-102227381D01*
X132771191Y-103227381D02*
X132437857Y-102751190D01*
X132199762Y-103227381D02*
X132199762Y-102227381D01*
X132580715Y-102227381D01*
X132675953Y-102275000D01*
X132723572Y-102322619D01*
X132771191Y-102417857D01*
X132771191Y-102560714D01*
X132723572Y-102655952D01*
X132675953Y-102703571D01*
X132580715Y-102751190D01*
X132199762Y-102751190D01*
X133199762Y-103227381D02*
X133199762Y-102227381D01*
X133533096Y-102941667D01*
X133866429Y-102227381D01*
X133866429Y-103227381D01*
X134342619Y-103227381D02*
X134342619Y-102227381D01*
X134818809Y-103227381D02*
X134818809Y-102227381D01*
X135390238Y-103227381D01*
X135390238Y-102227381D01*
X135818809Y-102941667D02*
X136295000Y-102941667D01*
X135723571Y-103227381D02*
X136056904Y-102227381D01*
X136390238Y-103227381D01*
X137199762Y-103227381D02*
X136723571Y-103227381D01*
X136723571Y-102227381D01*
M02*
