G04 This is an RS-274x file exported by *
G04 gerbv version 2.6.0 *
G04 More information is available about gerbv at *
G04 http://gerbv.gpleda.org/ *
G04 --End of header info--*
%MOIN*%
%FSLAX34Y34*%
%IPPOS*%
G04 --Define apertures--*
%ADD10C,0.0039*%
%ADD11C,0.0118*%
%ADD12C,0.0059*%
%ADD13C,0.1969*%
G04 --Start main section--*
G54D11*
G01X0059664Y-040005D02*
G01X0059664Y-039533D01*
G01X0059664Y-039533D02*
G01X0059776Y-039533D01*
G01X0059776Y-039533D02*
G01X0059844Y-039555D01*
G01X0059844Y-039555D02*
G01X0059889Y-039600D01*
G01X0059889Y-039600D02*
G01X0059911Y-039645D01*
G01X0059911Y-039645D02*
G01X0059934Y-039735D01*
G01X0059934Y-039735D02*
G01X0059934Y-039803D01*
G01X0059934Y-039803D02*
G01X0059911Y-039893D01*
G01X0059911Y-039893D02*
G01X0059889Y-039938D01*
G01X0059889Y-039938D02*
G01X0059844Y-039983D01*
G01X0059844Y-039983D02*
G01X0059776Y-040005D01*
G01X0059776Y-040005D02*
G01X0059664Y-040005D01*
G01X0056514Y-046891D02*
G01X0056514Y-046418D01*
G01X0056514Y-046418D02*
G01X0056627Y-046418D01*
G01X0056627Y-046418D02*
G01X0056694Y-046441D01*
G01X0056694Y-046441D02*
G01X0056739Y-046486D01*
G01X0056739Y-046486D02*
G01X0056762Y-046531D01*
G01X0056762Y-046531D02*
G01X0056784Y-046621D01*
G01X0056784Y-046621D02*
G01X0056784Y-046688D01*
G01X0056784Y-046688D02*
G01X0056762Y-046778D01*
G01X0056762Y-046778D02*
G01X0056739Y-046823D01*
G01X0056739Y-046823D02*
G01X0056694Y-046868D01*
G01X0056694Y-046868D02*
G01X0056627Y-046891D01*
G01X0056627Y-046891D02*
G01X0056514Y-046891D01*
G01X0053317Y-046783D02*
G01X0053542Y-046783D01*
G01X0053272Y-046918D02*
G01X0053429Y-046446D01*
G01X0053429Y-046446D02*
G01X0053587Y-046918D01*
G01X0050191Y-046756D02*
G01X0050416Y-046756D01*
G01X0050146Y-046891D02*
G01X0050303Y-046418D01*
G01X0050303Y-046418D02*
G01X0050461Y-046891D01*
G01X0057471Y-038812D02*
G01X0057314Y-038587D01*
G01X0057201Y-038812D02*
G01X0057201Y-038340D01*
G01X0057201Y-038340D02*
G01X0057381Y-038340D01*
G01X0057381Y-038340D02*
G01X0057426Y-038362D01*
G01X0057426Y-038362D02*
G01X0057449Y-038385D01*
G01X0057449Y-038385D02*
G01X0057471Y-038430D01*
G01X0057471Y-038430D02*
G01X0057471Y-038497D01*
G01X0057471Y-038497D02*
G01X0057449Y-038542D01*
G01X0057449Y-038542D02*
G01X0057426Y-038565D01*
G01X0057426Y-038565D02*
G01X0057381Y-038587D01*
G01X0057381Y-038587D02*
G01X0057201Y-038587D01*
G01X0057674Y-038565D02*
G01X0057831Y-038565D01*
G01X0057899Y-038812D02*
G01X0057674Y-038812D01*
G01X0057674Y-038812D02*
G01X0057674Y-038340D01*
G01X0057674Y-038340D02*
G01X0057899Y-038340D01*
G01X0058079Y-038790D02*
G01X0058146Y-038812D01*
G01X0058146Y-038812D02*
G01X0058259Y-038812D01*
G01X0058259Y-038812D02*
G01X0058304Y-038790D01*
G01X0058304Y-038790D02*
G01X0058326Y-038767D01*
G01X0058326Y-038767D02*
G01X0058349Y-038722D01*
G01X0058349Y-038722D02*
G01X0058349Y-038677D01*
G01X0058349Y-038677D02*
G01X0058326Y-038632D01*
G01X0058326Y-038632D02*
G01X0058304Y-038610D01*
G01X0058304Y-038610D02*
G01X0058259Y-038587D01*
G01X0058259Y-038587D02*
G01X0058169Y-038565D01*
G01X0058169Y-038565D02*
G01X0058124Y-038542D01*
G01X0058124Y-038542D02*
G01X0058101Y-038520D01*
G01X0058101Y-038520D02*
G01X0058079Y-038475D01*
G01X0058079Y-038475D02*
G01X0058079Y-038430D01*
G01X0058079Y-038430D02*
G01X0058101Y-038385D01*
G01X0058101Y-038385D02*
G01X0058124Y-038362D01*
G01X0058124Y-038362D02*
G01X0058169Y-038340D01*
G01X0058169Y-038340D02*
G01X0058281Y-038340D01*
G01X0058281Y-038340D02*
G01X0058349Y-038362D01*
G01X0058551Y-038565D02*
G01X0058709Y-038565D01*
G01X0058776Y-038812D02*
G01X0058551Y-038812D01*
G01X0058551Y-038812D02*
G01X0058551Y-038340D01*
G01X0058551Y-038340D02*
G01X0058776Y-038340D01*
G01X0058911Y-038340D02*
G01X0059181Y-038340D01*
G01X0059046Y-038812D02*
G01X0059046Y-038340D01*
G01X0059677Y-043163D02*
G01X0059835Y-043635D01*
G01X0059835Y-043635D02*
G01X0059992Y-043163D01*
G01X0059958Y-046232D02*
G01X0059913Y-046210D01*
G01X0059913Y-046210D02*
G01X0059846Y-046210D01*
G01X0059846Y-046210D02*
G01X0059778Y-046232D01*
G01X0059778Y-046232D02*
G01X0059733Y-046277D01*
G01X0059733Y-046277D02*
G01X0059711Y-046322D01*
G01X0059711Y-046322D02*
G01X0059688Y-046412D01*
G01X0059688Y-046412D02*
G01X0059688Y-046480D01*
G01X0059688Y-046480D02*
G01X0059711Y-046570D01*
G01X0059711Y-046570D02*
G01X0059733Y-046615D01*
G01X0059733Y-046615D02*
G01X0059778Y-046660D01*
G01X0059778Y-046660D02*
G01X0059846Y-046682D01*
G01X0059846Y-046682D02*
G01X0059891Y-046682D01*
G01X0059891Y-046682D02*
G01X0059958Y-046660D01*
G01X0059958Y-046660D02*
G01X0059981Y-046637D01*
G01X0059981Y-046637D02*
G01X0059981Y-046480D01*
G01X0059981Y-046480D02*
G01X0059891Y-046480D01*
G01X0056453Y-047135D02*
G01X0056768Y-047135D01*
G01X0056768Y-047135D02*
G01X0056565Y-047607D01*
G01X0053499Y-047123D02*
G01X0053409Y-047123D01*
G01X0053409Y-047123D02*
G01X0053364Y-047146D01*
G01X0053364Y-047146D02*
G01X0053342Y-047168D01*
G01X0053342Y-047168D02*
G01X0053297Y-047236D01*
G01X0053297Y-047236D02*
G01X0053274Y-047326D01*
G01X0053274Y-047326D02*
G01X0053274Y-047506D01*
G01X0053274Y-047506D02*
G01X0053297Y-047551D01*
G01X0053297Y-047551D02*
G01X0053319Y-047573D01*
G01X0053319Y-047573D02*
G01X0053364Y-047596D01*
G01X0053364Y-047596D02*
G01X0053454Y-047596D01*
G01X0053454Y-047596D02*
G01X0053499Y-047573D01*
G01X0053499Y-047573D02*
G01X0053522Y-047551D01*
G01X0053522Y-047551D02*
G01X0053544Y-047506D01*
G01X0053544Y-047506D02*
G01X0053544Y-047393D01*
G01X0053544Y-047393D02*
G01X0053522Y-047348D01*
G01X0053522Y-047348D02*
G01X0053499Y-047326D01*
G01X0053499Y-047326D02*
G01X0053454Y-047303D01*
G01X0053454Y-047303D02*
G01X0053364Y-047303D01*
G01X0053364Y-047303D02*
G01X0053319Y-047326D01*
G01X0053319Y-047326D02*
G01X0053297Y-047348D01*
G01X0053297Y-047348D02*
G01X0053274Y-047393D01*
G01X0050400Y-047123D02*
G01X0050175Y-047123D01*
G01X0050175Y-047123D02*
G01X0050152Y-047348D01*
G01X0050152Y-047348D02*
G01X0050175Y-047326D01*
G01X0050175Y-047326D02*
G01X0050220Y-047303D01*
G01X0050220Y-047303D02*
G01X0050332Y-047303D01*
G01X0050332Y-047303D02*
G01X0050377Y-047326D01*
G01X0050377Y-047326D02*
G01X0050400Y-047348D01*
G01X0050400Y-047348D02*
G01X0050422Y-047393D01*
G01X0050422Y-047393D02*
G01X0050422Y-047506D01*
G01X0050422Y-047506D02*
G01X0050400Y-047551D01*
G01X0050400Y-047551D02*
G01X0050377Y-047573D01*
G01X0050377Y-047573D02*
G01X0050332Y-047596D01*
G01X0050332Y-047596D02*
G01X0050220Y-047596D01*
G01X0050220Y-047596D02*
G01X0050175Y-047573D01*
G01X0050175Y-047573D02*
G01X0050152Y-047551D01*
G01X0059938Y-040753D02*
G01X0059668Y-040753D01*
G01X0059803Y-040753D02*
G01X0059803Y-040281D01*
G01X0059803Y-040281D02*
G01X0059758Y-040348D01*
G01X0059758Y-040348D02*
G01X0059713Y-040393D01*
G01X0059713Y-040393D02*
G01X0059668Y-040416D01*
G01X0050163Y-036962D02*
G01X0050163Y-036872D01*
G01X0050163Y-036872D02*
G01X0050185Y-036827D01*
G01X0050185Y-036827D02*
G01X0050230Y-036782D01*
G01X0050230Y-036782D02*
G01X0050320Y-036759D01*
G01X0050320Y-036759D02*
G01X0050478Y-036759D01*
G01X0050478Y-036759D02*
G01X0050567Y-036782D01*
G01X0050567Y-036782D02*
G01X0050612Y-036827D01*
G01X0050612Y-036827D02*
G01X0050635Y-036872D01*
G01X0050635Y-036872D02*
G01X0050635Y-036962D01*
G01X0050635Y-036962D02*
G01X0050612Y-037007D01*
G01X0050612Y-037007D02*
G01X0050567Y-037052D01*
G01X0050567Y-037052D02*
G01X0050478Y-037074D01*
G01X0050478Y-037074D02*
G01X0050320Y-037074D01*
G01X0050320Y-037074D02*
G01X0050230Y-037052D01*
G01X0050230Y-037052D02*
G01X0050185Y-037007D01*
G01X0050185Y-037007D02*
G01X0050163Y-036962D01*
G01X0050635Y-036557D02*
G01X0050163Y-036557D01*
G01X0050163Y-036557D02*
G01X0050635Y-036287D01*
G01X0050635Y-036287D02*
G01X0050163Y-036287D01*
G54D12*
G01X0057478Y-038195D02*
G01X0059053Y-038195D01*
G01X0057478Y-035832D02*
G01X0059053Y-035832D01*
G54D10*
G01X0059053Y-038195D02*
G01X0057478Y-038195D01*
G01X0059053Y-035832D02*
G01X0057478Y-035832D01*
G54D12*
G01X0056022Y-041785D02*
G01X0055522Y-041785D01*
G01X0056022Y-044679D02*
G01X0055522Y-044679D01*
G01X0051215Y-044679D02*
G01X0051715Y-044679D01*
G01X0051215Y-041785D02*
G01X0051715Y-041785D01*
G01X0056022Y-041785D02*
G01X0056022Y-044679D01*
G01X0051215Y-041785D02*
G01X0051215Y-044679D01*
G01X0055522Y-041785D02*
G01X0055522Y-041417D01*
G54D13*
G01X0046226Y-040157D02*
G75*
G03X0046226Y-040157I-000557J0000000D01*
G01X0046226Y-043307D02*
G75*
G03X0046226Y-043307I-000557J0000000D01*
G54D12*
G01X0046897Y-043896D02*
G01X0047197Y-043896D01*
M02*
