G04 #@! TF.FileFunction,Soldermask,Top*
%FSLAX46Y46*%
G04 Gerber Fmt 4.6, Leading zero omitted, Abs format (unit mm)*
G04 Created by KiCad (PCBNEW 4.0.1-3.201512221402+6198~38~ubuntu14.04.1-stable) date Fri 04 Mar 2016 09:41:15 PM PST*
%MOMM*%
G01*
G04 APERTURE LIST*
%ADD10C,0.100000*%
%ADD11C,2.100000*%
%ADD12C,5.280000*%
%ADD13C,6.400000*%
%ADD14O,2.000000X2.000000*%
%ADD15R,5.960000X15.400000*%
%ADD16C,2.400000*%
%ADD17C,2.300000*%
%ADD18R,8.400000X2.300000*%
%ADD19R,7.900000X2.400000*%
%ADD20C,1.650000*%
G04 APERTURE END LIST*
D10*
D11*
X150993400Y-96014200D03*
X144993400Y-96014200D03*
X150993400Y-92014200D03*
X144993400Y-92014200D03*
D12*
X148000000Y-94000000D03*
D13*
X140000000Y-94000000D03*
X148000000Y-102000000D03*
X148000000Y-110000000D03*
D14*
X140000000Y-106000000D03*
X137460000Y-106000000D03*
X134920000Y-106000000D03*
X132380000Y-106000000D03*
X132380000Y-113620000D03*
X134920000Y-113620000D03*
X137460000Y-113620000D03*
X140000000Y-113620000D03*
D12*
X140000000Y-110000000D03*
X132000000Y-110000000D03*
D13*
X116000000Y-102000000D03*
X116000000Y-110000000D03*
X116000000Y-118000000D03*
X116000000Y-94000000D03*
D15*
X116000000Y-106068000D03*
D16*
X111000000Y-115840000D03*
D17*
X111000000Y-118340000D03*
D13*
X140000000Y-102000000D03*
D18*
X96250000Y-111490000D03*
X96250000Y-119110000D03*
D19*
X96000000Y-116600000D03*
X96000000Y-114000000D03*
D13*
X124000000Y-118000000D03*
X132000000Y-118000000D03*
X140000000Y-118000000D03*
D16*
X107000000Y-113500000D03*
D17*
X107000000Y-118500000D03*
D16*
X134570000Y-97940000D03*
D17*
X137070000Y-97940000D03*
D16*
X120300000Y-115205000D03*
D17*
X120300000Y-112705000D03*
D16*
X122795000Y-105650000D03*
D17*
X125295000Y-105650000D03*
D16*
X128175000Y-111255000D03*
D17*
X128175000Y-108755000D03*
D13*
X148000000Y-118000000D03*
X124000000Y-110000000D03*
X132000000Y-94000000D03*
D20*
X127950000Y-97925000D03*
X127950000Y-95925000D03*
X127950000Y-99925000D03*
D13*
X124000000Y-94000000D03*
M02*
