G04 This is an RS-274x file exported by *
G04 gerbv version 2.6.0 *
G04 More information is available about gerbv at *
G04 http://gerbv.gpleda.org/ *
G04 --End of header info--*
%MOIN*%
%FSLAX34Y34*%
%IPPOS*%
G04 --Define apertures--*
%ADD10C,0.0039*%
%ADD11C,0.0669*%
%ADD12C,0.1921*%
%ADD13C,0.2362*%
%ADD14O,0.0630X0.0630*%
%ADD15R,0.2189X0.5906*%
%ADD16C,0.0787*%
%ADD17C,0.0748*%
%ADD18R,0.3150X0.0748*%
%ADD19R,0.2953X0.0787*%
%ADD20C,0.0492*%
%ADD21C,0.0270*%
%ADD22C,0.0100*%
%ADD23C,0.0300*%
G04 --Start main section--*
G54D11*
G01X0059446Y-037801D03*
G01X0057084Y-037801D03*
G01X0059446Y-036226D03*
G01X0057084Y-036226D03*
G54D13*
G01X0055118Y-037008D03*
G01X0058268Y-040157D03*
G01X0058268Y-043307D03*
G54D14*
G01X0055118Y-041732D03*
G01X0054118Y-041732D03*
G01X0053118Y-041732D03*
G01X0052118Y-041732D03*
G01X0052118Y-044732D03*
G01X0053118Y-044732D03*
G01X0054118Y-044732D03*
G01X0055118Y-044732D03*
G54D12*
G01X0055118Y-043307D03*
G01X0051969Y-043307D03*
G54D13*
G01X0045669Y-040157D03*
G01X0045669Y-043307D03*
G01X0045669Y-046457D03*
G01X0045669Y-037008D03*
G54D15*
G01X0045669Y-041759D03*
G54D16*
G01X0043701Y-045606D03*
G54D17*
G01X0043701Y-046591D03*
G54D13*
G01X0055118Y-040157D03*
G54D18*
G01X0037894Y-043894D03*
G01X0037894Y-046894D03*
G54D19*
G01X0037795Y-045906D03*
G01X0037795Y-044882D03*
G54D13*
G01X0048819Y-046457D03*
G01X0051969Y-046457D03*
G01X0055118Y-046457D03*
G54D16*
G01X0042126Y-044685D03*
G54D17*
G01X0042126Y-046654D03*
G54D16*
G01X0052980Y-038559D03*
G54D17*
G01X0053965Y-038559D03*
G54D16*
G01X0047362Y-045356D03*
G54D17*
G01X0047362Y-044372D03*
G54D16*
G01X0048344Y-041594D03*
G54D17*
G01X0049329Y-041594D03*
G54D16*
G01X0050463Y-043801D03*
G54D17*
G01X0050463Y-042817D03*
G54D13*
G01X0058268Y-046457D03*
G01X0048819Y-043307D03*
G01X0051969Y-037008D03*
G54D20*
G01X0050374Y-038553D03*
G01X0050374Y-037766D03*
G01X0050374Y-039341D03*
G54D13*
G01X0048819Y-037008D03*
G54D21*
G01X0041850Y-045354D03*
G01X0041335Y-043894D03*
G01X0040551Y-045906D03*
G01X0040591Y-044882D03*
G54D22*
G01X0055118Y-040157D02*
G01X0055118Y-041732D01*
G01X0055118Y-040157D02*
G01X0057084Y-038192D01*
G01X0057084Y-038192D02*
G01X0057084Y-037801D01*
G01X0055118Y-040157D02*
G01X0058268Y-040157D01*
G01X0057084Y-037801D02*
G01X0057419Y-038136D01*
G01X0059112Y-038136D02*
G01X0059446Y-037801D01*
G01X0057419Y-038136D02*
G01X0059112Y-038136D01*
G01X0059446Y-037801D02*
G01X0059446Y-038979D01*
G01X0059446Y-038979D02*
G01X0058268Y-040157D01*
G01X0049339Y-041732D02*
G01X0050852Y-040219D01*
G01X0050852Y-040219D02*
G01X0050852Y-039622D01*
G01X0050852Y-039622D02*
G01X0051433Y-039041D01*
G01X0053787Y-041401D02*
G01X0053803Y-041417D01*
G01X0051433Y-039041D02*
G01X0052504Y-039041D01*
G01X0052504Y-039041D02*
G01X0053787Y-040324D01*
G01X0053787Y-040324D02*
G01X0053787Y-041401D01*
G01X0053803Y-041417D02*
G01X0054118Y-041732D01*
G01X0058268Y-046457D02*
G01X0056937Y-047788D01*
G01X0056937Y-047788D02*
G01X0044898Y-047788D01*
G01X0044898Y-047788D02*
G01X0044075Y-046965D01*
G01X0044075Y-046965D02*
G01X0043701Y-046591D01*
G54D23*
G01X0037894Y-046894D02*
G01X0041886Y-046894D01*
G01X0041886Y-046894D02*
G01X0042126Y-046654D01*
G54D22*
G01X0041850Y-045354D02*
G01X0041850Y-046378D01*
G01X0041850Y-046378D02*
G01X0042126Y-046654D01*
G01X0052118Y-041732D02*
G01X0050394Y-041732D01*
G01X0050394Y-041732D02*
G01X0048819Y-043307D01*
G01X0045669Y-043307D02*
G01X0048819Y-043307D01*
G01X0053965Y-038559D02*
G01X0055118Y-037406D01*
G01X0055118Y-037406D02*
G01X0055118Y-037008D01*
G01X0059446Y-036226D02*
G01X0059112Y-035891D01*
G01X0059112Y-035891D02*
G01X0057419Y-035891D01*
G01X0057419Y-035891D02*
G01X0057084Y-036226D01*
G01X0057084Y-036226D02*
G01X0055900Y-036226D01*
G01X0055900Y-036226D02*
G01X0055118Y-037008D01*
G01X0054638Y-037488D02*
G01X0055118Y-037008D01*
G54D23*
G01X0052118Y-044732D02*
G01X0050543Y-044732D01*
G01X0050543Y-044732D02*
G01X0048819Y-046457D01*
G01X0053118Y-044732D02*
G01X0053118Y-045307D01*
G01X0053118Y-045307D02*
G01X0051969Y-046457D01*
G01X0054118Y-044732D02*
G01X0054118Y-045457D01*
G01X0054118Y-045457D02*
G01X0055118Y-046457D01*
G01X0037894Y-043894D02*
G01X0041335Y-043894D01*
G54D22*
G01X0051211Y-038553D02*
G01X0051969Y-037795D01*
G01X0051969Y-037795D02*
G01X0051969Y-037008D01*
G01X0050374Y-038553D02*
G01X0051211Y-038553D01*
G54D23*
G01X0056843Y-044732D02*
G01X0058268Y-043307D01*
G01X0055118Y-044732D02*
G01X0056843Y-044732D01*
G01X0043701Y-045606D02*
G01X0043047Y-045606D01*
G01X0043047Y-045606D02*
G01X0042126Y-044685D01*
G54D22*
G01X0047362Y-045356D02*
G01X0047756Y-044963D01*
G01X0047756Y-044963D02*
G01X0049301Y-044963D01*
G01X0049301Y-044963D02*
G01X0050069Y-044195D01*
G01X0050069Y-044195D02*
G01X0050463Y-043801D01*
G01X0039372Y-045906D02*
G01X0040551Y-045906D01*
G01X0037795Y-045906D02*
G01X0039372Y-045906D01*
G01X0039372Y-044882D02*
G01X0040591Y-044882D01*
G01X0037795Y-044882D02*
G01X0039372Y-044882D01*
G01X0045717Y-036996D02*
G01X0044338Y-038374D01*
G01X0044338Y-038374D02*
G01X0044338Y-042661D01*
G01X0044338Y-042661D02*
G01X0044343Y-042665D01*
G01X0044343Y-042665D02*
G01X0044094Y-042913D01*
G01X0044094Y-042913D02*
G01X0044094Y-044882D01*
G01X0044094Y-044882D02*
G01X0045669Y-046457D01*
G01X0050374Y-037766D02*
G01X0050026Y-037766D01*
G01X0050026Y-037766D02*
G01X0049268Y-037008D01*
G01X0049268Y-037008D02*
G01X0048819Y-037008D01*
G01X0045669Y-037008D02*
G01X0048819Y-037008D01*
M02*
