%TF.GenerationSoftware,KiCad,Pcbnew,5.0.0-fee4fd1~66~ubuntu16.04.1*%
%TF.CreationDate,2018-09-13T11:14:07-07:00*%
%TF.ProjectId,2x3-Dark-Detector,3278332D4461726B2D4465746563746F,1.0*%
%TF.SameCoordinates,Original*%
%TF.FileFunction,Copper,L1,Top,Signal*%
%TF.FilePolarity,Positive*%
%FSLAX46Y46*%
G04 Gerber Fmt 4.6, Leading zero omitted, Abs format (unit mm)*
G04 Created by KiCad (PCBNEW 5.0.0-fee4fd1~66~ubuntu16.04.1) date Thu Sep 13 11:14:07 2018*
%MOMM*%
%LPD*%
G01*
G04 APERTURE LIST*
%ADD10C,2.000000*%
%ADD11C,1.900000*%
%ADD12C,6.000000*%
%ADD13R,0.900000X0.900000*%
%ADD14R,0.800000X0.750000*%
%ADD15C,0.254000*%
%ADD16C,0.350000*%
G04 APERTURE END LIST*
D10*
X99640321Y-30085321D03*
D11*
X99640321Y-35085321D03*
D12*
X87640321Y-36585321D03*
X87640321Y-28585321D03*
X103640321Y-28585321D03*
X103640321Y-36585321D03*
X95640321Y-28585321D03*
X95640321Y-36585321D03*
D13*
X90617000Y-33500760D03*
X92517000Y-33500760D03*
X91567000Y-31501780D03*
D14*
X86995000Y-32639000D03*
X88495000Y-32639000D03*
D15*
X94897561Y-36585321D02*
X95640321Y-36585321D01*
X92517000Y-34204760D02*
X94897561Y-36585321D01*
X92517000Y-33500760D02*
X92517000Y-34204760D01*
X98140321Y-36585321D02*
X99640321Y-35085321D01*
X95640321Y-36585321D02*
X98140321Y-36585321D01*
X102140321Y-35085321D02*
X103640321Y-36585321D01*
X99640321Y-35085321D02*
X102140321Y-35085321D01*
X101140321Y-28585321D02*
X99640321Y-30085321D01*
X103640321Y-28585321D02*
X101140321Y-28585321D01*
X97140321Y-30085321D02*
X95640321Y-28585321D01*
X99640321Y-30085321D02*
X97140321Y-30085321D01*
X90617000Y-32796760D02*
X90617000Y-33500760D01*
X90459240Y-32639000D02*
X90617000Y-32796760D01*
X95640321Y-29327679D02*
X95640321Y-28585321D01*
X92456000Y-32512000D02*
X95640321Y-29327679D01*
X90901760Y-32512000D02*
X92456000Y-32512000D01*
X90617000Y-32796760D02*
X90901760Y-32512000D01*
X90774760Y-32639000D02*
X90901760Y-32512000D01*
X90459240Y-32639000D02*
X90774760Y-32639000D01*
X88495000Y-32639000D02*
X90459240Y-32639000D01*
X90556780Y-31501780D02*
X87640321Y-28585321D01*
X91567000Y-31501780D02*
X90556780Y-31501780D01*
X86995000Y-29230642D02*
X87640321Y-28585321D01*
X86995000Y-32639000D02*
X86995000Y-29230642D01*
X86995000Y-35940000D02*
X87640321Y-36585321D01*
X86995000Y-32639000D02*
X86995000Y-35940000D01*
D16*
X99640321Y-30085321D03*
X99640321Y-35085321D03*
X87640321Y-36585321D03*
X87640321Y-28585321D03*
X103640321Y-28585321D03*
X103640321Y-36585321D03*
X95640321Y-28585321D03*
X95640321Y-36585321D03*
M02*
