%TF.GenerationSoftware,KiCad,Pcbnew,5.0.0-fee4fd1~66~ubuntu16.04.1*%
%TF.CreationDate,2018-09-24T22:16:13-07:00*%
%TF.ProjectId,2x3-Dark-Detector,3278332D4461726B2D4465746563746F,1.0*%
%TF.SameCoordinates,Original*%
%TF.FileFunction,Soldermask,Bot*%
%TF.FilePolarity,Negative*%
%FSLAX46Y46*%
G04 Gerber Fmt 4.6, Leading zero omitted, Abs format (unit mm)*
G04 Created by KiCad (PCBNEW 5.0.0-fee4fd1~66~ubuntu16.04.1) date Mon Sep 24 22:16:13 2018*
%MOMM*%
%LPD*%
G01*
G04 APERTURE LIST*
%ADD10C,0.500000*%
%ADD11C,0.700000*%
%ADD12C,0.350000*%
G04 APERTURE END LIST*
D10*
X87566500Y-36004500D02*
X87566500Y-29083000D01*
X96012000Y-36639500D02*
X102933500Y-36639500D01*
X95885000Y-28575000D02*
X102806500Y-28575000D01*
D11*
X98348479Y-36823150D02*
G75*
G02X97155000Y-34290000I-2760462J247150D01*
G01*
X97471200Y-30631051D02*
G75*
G02X98298000Y-27813000I-1840200J2070219D01*
G01*
X101916972Y-34371467D02*
G75*
G02X100838000Y-36830000I1715028J-2218701D01*
G01*
X100836464Y-27909399D02*
G75*
G02X101600000Y-30607000I2795536J-665601D01*
G01*
D12*
G36*
X104463796Y-33681517D02*
X105023625Y-33913406D01*
X105023627Y-33913407D01*
X105527463Y-34250060D01*
X105955939Y-34678536D01*
X106292594Y-35182375D01*
X106524483Y-35742204D01*
X106642700Y-36336521D01*
X106642700Y-36942479D01*
X106524483Y-37536796D01*
X106292594Y-38096625D01*
X106292593Y-38096627D01*
X105955940Y-38600463D01*
X105527463Y-39028940D01*
X105023627Y-39365593D01*
X105023626Y-39365594D01*
X105023625Y-39365594D01*
X104463796Y-39597483D01*
X103869479Y-39715700D01*
X103263521Y-39715700D01*
X102669204Y-39597483D01*
X102109375Y-39365594D01*
X102109374Y-39365594D01*
X102109373Y-39365593D01*
X101605537Y-39028940D01*
X101177060Y-38600463D01*
X100840407Y-38096627D01*
X100840406Y-38096625D01*
X100608517Y-37536796D01*
X100490300Y-36942479D01*
X100490300Y-36336521D01*
X100608517Y-35742204D01*
X100840406Y-35182375D01*
X101177061Y-34678536D01*
X101605537Y-34250060D01*
X102109373Y-33913407D01*
X102109375Y-33913406D01*
X102669204Y-33681517D01*
X103263521Y-33563300D01*
X103869479Y-33563300D01*
X104463796Y-33681517D01*
X104463796Y-33681517D01*
G37*
G36*
X96463796Y-33681517D02*
X97023625Y-33913406D01*
X97023627Y-33913407D01*
X97527463Y-34250060D01*
X97955939Y-34678536D01*
X98292594Y-35182375D01*
X98524483Y-35742204D01*
X98642700Y-36336521D01*
X98642700Y-36942479D01*
X98524483Y-37536796D01*
X98292594Y-38096625D01*
X98292593Y-38096627D01*
X97955940Y-38600463D01*
X97527463Y-39028940D01*
X97023627Y-39365593D01*
X97023626Y-39365594D01*
X97023625Y-39365594D01*
X96463796Y-39597483D01*
X95869479Y-39715700D01*
X95263521Y-39715700D01*
X94669204Y-39597483D01*
X94109375Y-39365594D01*
X94109374Y-39365594D01*
X94109373Y-39365593D01*
X93605537Y-39028940D01*
X93177060Y-38600463D01*
X92840407Y-38096627D01*
X92840406Y-38096625D01*
X92608517Y-37536796D01*
X92490300Y-36942479D01*
X92490300Y-36336521D01*
X92608517Y-35742204D01*
X92840406Y-35182375D01*
X93177061Y-34678536D01*
X93605537Y-34250060D01*
X94109373Y-33913407D01*
X94109375Y-33913406D01*
X94669204Y-33681517D01*
X95263521Y-33563300D01*
X95869479Y-33563300D01*
X96463796Y-33681517D01*
X96463796Y-33681517D01*
G37*
G36*
X88463796Y-33681517D02*
X89023625Y-33913406D01*
X89023627Y-33913407D01*
X89527463Y-34250060D01*
X89955939Y-34678536D01*
X90292594Y-35182375D01*
X90524483Y-35742204D01*
X90642700Y-36336521D01*
X90642700Y-36942479D01*
X90524483Y-37536796D01*
X90292594Y-38096625D01*
X90292593Y-38096627D01*
X89955940Y-38600463D01*
X89527463Y-39028940D01*
X89023627Y-39365593D01*
X89023626Y-39365594D01*
X89023625Y-39365594D01*
X88463796Y-39597483D01*
X87869479Y-39715700D01*
X87263521Y-39715700D01*
X86669204Y-39597483D01*
X86109375Y-39365594D01*
X86109374Y-39365594D01*
X86109373Y-39365593D01*
X85605537Y-39028940D01*
X85177060Y-38600463D01*
X84840407Y-38096627D01*
X84840406Y-38096625D01*
X84608517Y-37536796D01*
X84490300Y-36942479D01*
X84490300Y-36336521D01*
X84608517Y-35742204D01*
X84840406Y-35182375D01*
X85177061Y-34678536D01*
X85605537Y-34250060D01*
X86109373Y-33913407D01*
X86109375Y-33913406D01*
X86669204Y-33681517D01*
X87263521Y-33563300D01*
X87869479Y-33563300D01*
X88463796Y-33681517D01*
X88463796Y-33681517D01*
G37*
G36*
X104463796Y-25681517D02*
X105023625Y-25913406D01*
X105023627Y-25913407D01*
X105527463Y-26250060D01*
X105955939Y-26678536D01*
X106292594Y-27182375D01*
X106524483Y-27742204D01*
X106642700Y-28336521D01*
X106642700Y-28942479D01*
X106524483Y-29536796D01*
X106292594Y-30096625D01*
X106292593Y-30096627D01*
X105955940Y-30600463D01*
X105527463Y-31028940D01*
X105023627Y-31365593D01*
X105023626Y-31365594D01*
X105023625Y-31365594D01*
X104463796Y-31597483D01*
X103869479Y-31715700D01*
X103263521Y-31715700D01*
X102669204Y-31597483D01*
X102109375Y-31365594D01*
X102109374Y-31365594D01*
X102109373Y-31365593D01*
X101605537Y-31028940D01*
X101177060Y-30600463D01*
X100840407Y-30096627D01*
X100840406Y-30096625D01*
X100608517Y-29536796D01*
X100490300Y-28942479D01*
X100490300Y-28336521D01*
X100608517Y-27742204D01*
X100840406Y-27182375D01*
X101177061Y-26678536D01*
X101605537Y-26250060D01*
X102109373Y-25913407D01*
X102109375Y-25913406D01*
X102669204Y-25681517D01*
X103263521Y-25563300D01*
X103869479Y-25563300D01*
X104463796Y-25681517D01*
X104463796Y-25681517D01*
G37*
G36*
X96463796Y-25681517D02*
X97023625Y-25913406D01*
X97023627Y-25913407D01*
X97527463Y-26250060D01*
X97955939Y-26678536D01*
X98292594Y-27182375D01*
X98524483Y-27742204D01*
X98642700Y-28336521D01*
X98642700Y-28942479D01*
X98524483Y-29536796D01*
X98292594Y-30096625D01*
X98292593Y-30096627D01*
X97955940Y-30600463D01*
X97527463Y-31028940D01*
X97023627Y-31365593D01*
X97023626Y-31365594D01*
X97023625Y-31365594D01*
X96463796Y-31597483D01*
X95869479Y-31715700D01*
X95263521Y-31715700D01*
X94669204Y-31597483D01*
X94109375Y-31365594D01*
X94109374Y-31365594D01*
X94109373Y-31365593D01*
X93605537Y-31028940D01*
X93177060Y-30600463D01*
X92840407Y-30096627D01*
X92840406Y-30096625D01*
X92608517Y-29536796D01*
X92490300Y-28942479D01*
X92490300Y-28336521D01*
X92608517Y-27742204D01*
X92840406Y-27182375D01*
X93177061Y-26678536D01*
X93605537Y-26250060D01*
X94109373Y-25913407D01*
X94109375Y-25913406D01*
X94669204Y-25681517D01*
X95263521Y-25563300D01*
X95869479Y-25563300D01*
X96463796Y-25681517D01*
X96463796Y-25681517D01*
G37*
G36*
X88463796Y-25681517D02*
X89023625Y-25913406D01*
X89023627Y-25913407D01*
X89527463Y-26250060D01*
X89955939Y-26678536D01*
X90292594Y-27182375D01*
X90524483Y-27742204D01*
X90642700Y-28336521D01*
X90642700Y-28942479D01*
X90524483Y-29536796D01*
X90292594Y-30096625D01*
X90292593Y-30096627D01*
X89955940Y-30600463D01*
X89527463Y-31028940D01*
X89023627Y-31365593D01*
X89023626Y-31365594D01*
X89023625Y-31365594D01*
X88463796Y-31597483D01*
X87869479Y-31715700D01*
X87263521Y-31715700D01*
X86669204Y-31597483D01*
X86109375Y-31365594D01*
X86109374Y-31365594D01*
X86109373Y-31365593D01*
X85605537Y-31028940D01*
X85177060Y-30600463D01*
X84840407Y-30096627D01*
X84840406Y-30096625D01*
X84608517Y-29536796D01*
X84490300Y-28942479D01*
X84490300Y-28336521D01*
X84608517Y-27742204D01*
X84840406Y-27182375D01*
X85177061Y-26678536D01*
X85605537Y-26250060D01*
X86109373Y-25913407D01*
X86109375Y-25913406D01*
X86669204Y-25681517D01*
X87263521Y-25563300D01*
X87869479Y-25563300D01*
X88463796Y-25681517D01*
X88463796Y-25681517D01*
G37*
M02*
