%TF.GenerationSoftware,KiCad,Pcbnew,5.0.0-fee4fd1~66~ubuntu16.04.1*%
%TF.CreationDate,2018-09-15T14:44:57-07:00*%
%TF.ProjectId,2x3-Dark-Detector,3278332D4461726B2D4465746563746F,1.0*%
%TF.SameCoordinates,Original*%
%TF.FileFunction,Legend,Top*%
%TF.FilePolarity,Positive*%
%FSLAX46Y46*%
G04 Gerber Fmt 4.6, Leading zero omitted, Abs format (unit mm)*
G04 Created by KiCad (PCBNEW 5.0.0-fee4fd1~66~ubuntu16.04.1) date Sat Sep 15 14:44:57 2018*
%MOMM*%
%LPD*%
G01*
G04 APERTURE LIST*
%ADD10C,0.152400*%
%ADD11C,0.500000*%
%ADD12C,0.150000*%
%ADD13C,0.700000*%
%ADD14R,0.902400X0.952400*%
%ADD15C,6.152400*%
%ADD16R,1.052400X1.052400*%
%ADD17R,0.952400X0.902400*%
G04 APERTURE END LIST*
D10*
X98730404Y-38925500D02*
X98633642Y-38877119D01*
X98488500Y-38877119D01*
X98343357Y-38925500D01*
X98246595Y-39022261D01*
X98198214Y-39119023D01*
X98149833Y-39312547D01*
X98149833Y-39457690D01*
X98198214Y-39651214D01*
X98246595Y-39747976D01*
X98343357Y-39844738D01*
X98488500Y-39893119D01*
X98585261Y-39893119D01*
X98730404Y-39844738D01*
X98778785Y-39796357D01*
X98778785Y-39457690D01*
X98585261Y-39457690D01*
X99214214Y-39893119D02*
X99214214Y-38877119D01*
X99794785Y-39893119D01*
X99794785Y-38877119D01*
X100278595Y-39893119D02*
X100278595Y-38877119D01*
X100520500Y-38877119D01*
X100665642Y-38925500D01*
X100762404Y-39022261D01*
X100810785Y-39119023D01*
X100859166Y-39312547D01*
X100859166Y-39457690D01*
X100810785Y-39651214D01*
X100762404Y-39747976D01*
X100665642Y-39844738D01*
X100520500Y-39893119D01*
X100278595Y-39893119D01*
X98488500Y-25351619D02*
X98682023Y-25351619D01*
X98778785Y-25400000D01*
X98875547Y-25496761D01*
X98923928Y-25690285D01*
X98923928Y-26028952D01*
X98875547Y-26222476D01*
X98778785Y-26319238D01*
X98682023Y-26367619D01*
X98488500Y-26367619D01*
X98391738Y-26319238D01*
X98294976Y-26222476D01*
X98246595Y-26028952D01*
X98246595Y-25690285D01*
X98294976Y-25496761D01*
X98391738Y-25400000D01*
X98488500Y-25351619D01*
X99359357Y-25351619D02*
X99359357Y-26174095D01*
X99407738Y-26270857D01*
X99456119Y-26319238D01*
X99552880Y-26367619D01*
X99746404Y-26367619D01*
X99843166Y-26319238D01*
X99891547Y-26270857D01*
X99939928Y-26174095D01*
X99939928Y-25351619D01*
X100278595Y-25351619D02*
X100859166Y-25351619D01*
X100568880Y-26367619D02*
X100568880Y-25351619D01*
X84279619Y-33413095D02*
X84279619Y-32784142D01*
X84666666Y-33122809D01*
X84666666Y-32977666D01*
X84715047Y-32880904D01*
X84763428Y-32832523D01*
X84860190Y-32784142D01*
X85102095Y-32784142D01*
X85198857Y-32832523D01*
X85247238Y-32880904D01*
X85295619Y-32977666D01*
X85295619Y-33267952D01*
X85247238Y-33364714D01*
X85198857Y-33413095D01*
X84279619Y-32493857D02*
X85295619Y-32155190D01*
X84279619Y-31816523D01*
D11*
X96202500Y-36639500D02*
X103124000Y-36639500D01*
X95885000Y-28575000D02*
X102806500Y-28575000D01*
X85852000Y-29083000D02*
X85852000Y-36004500D01*
D12*
X99949000Y-31369000D02*
X99949000Y-34099500D01*
X98679000Y-34099500D02*
X98679000Y-31369000D01*
D10*
X98679000Y-31369000D02*
X99949000Y-31369000D01*
X98679000Y-34099500D02*
X99949000Y-34099500D01*
D12*
X90916760Y-31200840D02*
X90916760Y-31249100D01*
X91617800Y-33999820D02*
X90916760Y-33999820D01*
X90916760Y-33999820D02*
X90916760Y-33750900D01*
X90916760Y-31200840D02*
X90916760Y-31000180D01*
X90916760Y-31000180D02*
X91617800Y-31000180D01*
D10*
X86348000Y-32004000D02*
X86348000Y-33274000D01*
X89078500Y-32004000D02*
X89078500Y-33274000D01*
D12*
X86348000Y-32004000D02*
X89078500Y-32004000D01*
X89078500Y-33274000D02*
X86348000Y-33274000D01*
%LPC*%
D13*
X90347919Y-36576000D02*
G75*
G02X85471000Y-34925000I-2717919J0D01*
G01*
X85428061Y-30336551D02*
G75*
G02X90424000Y-28956000I2201939J1761551D01*
G01*
X92837000Y-28829000D02*
G75*
G02X95619501Y-31369773I2782501J253227D01*
G01*
X95377773Y-33793499D02*
G75*
G02X92837000Y-36576000I253227J-2782501D01*
G01*
D14*
X99314000Y-31952500D03*
X99314000Y-33452500D03*
D15*
X103566500Y-36639500D03*
X103566500Y-28639500D03*
D16*
X92567760Y-33450000D03*
X92567760Y-31550000D03*
X90568780Y-32500000D03*
D17*
X86995000Y-32639000D03*
X88495000Y-32639000D03*
M02*
