%TF.GenerationSoftware,KiCad,Pcbnew,5.0.0-fee4fd1~66~ubuntu16.04.1*%
%TF.CreationDate,2018-09-13T11:14:07-07:00*%
%TF.ProjectId,2x3-Dark-Detector,3278332D4461726B2D4465746563746F,1.0*%
%TF.SameCoordinates,Original*%
%TF.FileFunction,Legend,Bot*%
%TF.FilePolarity,Positive*%
%FSLAX46Y46*%
G04 Gerber Fmt 4.6, Leading zero omitted, Abs format (unit mm)*
G04 Created by KiCad (PCBNEW 5.0.0-fee4fd1~66~ubuntu16.04.1) date Thu Sep 13 11:14:07 2018*
%MOMM*%
%LPD*%
G01*
G04 APERTURE LIST*
%ADD10C,0.152400*%
%ADD11C,0.700000*%
%ADD12C,2.152400*%
%ADD13C,2.052400*%
%ADD14C,6.152400*%
G04 APERTURE END LIST*
D10*
X106474380Y-33162119D02*
X106474380Y-32146119D01*
X106232476Y-32146119D01*
X106087333Y-32194500D01*
X105990571Y-32291261D01*
X105942190Y-32388023D01*
X105893809Y-32581547D01*
X105893809Y-32726690D01*
X105942190Y-32920214D01*
X105990571Y-33016976D01*
X106087333Y-33113738D01*
X106232476Y-33162119D01*
X106474380Y-33162119D01*
X105506761Y-32871833D02*
X105022952Y-32871833D01*
X105603523Y-33162119D02*
X105264857Y-32146119D01*
X104926190Y-33162119D01*
X104006952Y-33162119D02*
X104345619Y-32678309D01*
X104587523Y-33162119D02*
X104587523Y-32146119D01*
X104200476Y-32146119D01*
X104103714Y-32194500D01*
X104055333Y-32242880D01*
X104006952Y-32339642D01*
X104006952Y-32484785D01*
X104055333Y-32581547D01*
X104103714Y-32629928D01*
X104200476Y-32678309D01*
X104587523Y-32678309D01*
X103571523Y-33162119D02*
X103571523Y-32146119D01*
X102990952Y-33162119D02*
X103426380Y-32581547D01*
X102990952Y-32146119D02*
X103571523Y-32726690D01*
X101781428Y-33162119D02*
X101781428Y-32146119D01*
X101539523Y-32146119D01*
X101394380Y-32194500D01*
X101297619Y-32291261D01*
X101249238Y-32388023D01*
X101200857Y-32581547D01*
X101200857Y-32726690D01*
X101249238Y-32920214D01*
X101297619Y-33016976D01*
X101394380Y-33113738D01*
X101539523Y-33162119D01*
X101781428Y-33162119D01*
X100765428Y-32629928D02*
X100426761Y-32629928D01*
X100281619Y-33162119D02*
X100765428Y-33162119D01*
X100765428Y-32146119D01*
X100281619Y-32146119D01*
X99991333Y-32146119D02*
X99410761Y-32146119D01*
X99701047Y-33162119D02*
X99701047Y-32146119D01*
X99072095Y-32629928D02*
X98733428Y-32629928D01*
X98588285Y-33162119D02*
X99072095Y-33162119D01*
X99072095Y-32146119D01*
X98588285Y-32146119D01*
X97572285Y-33065357D02*
X97620666Y-33113738D01*
X97765809Y-33162119D01*
X97862571Y-33162119D01*
X98007714Y-33113738D01*
X98104476Y-33016976D01*
X98152857Y-32920214D01*
X98201238Y-32726690D01*
X98201238Y-32581547D01*
X98152857Y-32388023D01*
X98104476Y-32291261D01*
X98007714Y-32194500D01*
X97862571Y-32146119D01*
X97765809Y-32146119D01*
X97620666Y-32194500D01*
X97572285Y-32242880D01*
X97282000Y-32146119D02*
X96701428Y-32146119D01*
X96991714Y-33162119D02*
X96991714Y-32146119D01*
X96169238Y-32146119D02*
X95975714Y-32146119D01*
X95878952Y-32194500D01*
X95782190Y-32291261D01*
X95733809Y-32484785D01*
X95733809Y-32823452D01*
X95782190Y-33016976D01*
X95878952Y-33113738D01*
X95975714Y-33162119D01*
X96169238Y-33162119D01*
X96266000Y-33113738D01*
X96362761Y-33016976D01*
X96411142Y-32823452D01*
X96411142Y-32484785D01*
X96362761Y-32291261D01*
X96266000Y-32194500D01*
X96169238Y-32146119D01*
X94717809Y-33162119D02*
X95056476Y-32678309D01*
X95298380Y-33162119D02*
X95298380Y-32146119D01*
X94911333Y-32146119D01*
X94814571Y-32194500D01*
X94766190Y-32242880D01*
X94717809Y-32339642D01*
X94717809Y-32484785D01*
X94766190Y-32581547D01*
X94814571Y-32629928D01*
X94911333Y-32678309D01*
X95298380Y-32678309D01*
X93653428Y-32146119D02*
X93314761Y-33162119D01*
X92976095Y-32146119D01*
X92105238Y-33162119D02*
X92685809Y-33162119D01*
X92395523Y-33162119D02*
X92395523Y-32146119D01*
X92492285Y-32291261D01*
X92589047Y-32388023D01*
X92685809Y-32436404D01*
%LPC*%
D11*
X98348479Y-36823150D02*
G75*
G02X97155000Y-34290000I-2760462J247150D01*
G01*
X97471200Y-30631051D02*
G75*
G02X98298000Y-27813000I-1840200J2070219D01*
G01*
X101916972Y-34371467D02*
G75*
G02X100838000Y-36830000I1715028J-2218701D01*
G01*
X100836464Y-27909399D02*
G75*
G02X101600000Y-30607000I2795536J-665601D01*
G01*
D12*
X99640321Y-30085321D03*
D13*
X99640321Y-35085321D03*
D14*
X87640321Y-36585321D03*
X87640321Y-28585321D03*
M02*
