%TF.GenerationSoftware,KiCad,Pcbnew,5.0.0-fee4fd1~66~ubuntu16.04.1*%
%TF.CreationDate,2018-09-13T11:14:07-07:00*%
%TF.ProjectId,2x3-Dark-Detector,3278332D4461726B2D4465746563746F,1.0*%
%TF.SameCoordinates,Original*%
%TF.FileFunction,Soldermask,Top*%
%TF.FilePolarity,Negative*%
%FSLAX46Y46*%
G04 Gerber Fmt 4.6, Leading zero omitted, Abs format (unit mm)*
G04 Created by KiCad (PCBNEW 5.0.0-fee4fd1~66~ubuntu16.04.1) date Thu Sep 13 11:14:07 2018*
%MOMM*%
%LPD*%
G01*
G04 APERTURE LIST*
%ADD10C,0.700000*%
%ADD11C,0.350000*%
G04 APERTURE END LIST*
D10*
X90347919Y-36576000D02*
G75*
G02X85471000Y-34925000I-2717919J0D01*
G01*
X85428061Y-30336551D02*
G75*
G02X90424000Y-28956000I2201939J1761551D01*
G01*
X92837000Y-28829000D02*
G75*
G02X95619501Y-31369773I2782501J253227D01*
G01*
X95377773Y-33793499D02*
G75*
G02X92837000Y-36576000I253227J-2782501D01*
G01*
D11*
G36*
X104537617Y-33627338D02*
X105097446Y-33859227D01*
X105097448Y-33859228D01*
X105348476Y-34026960D01*
X105601285Y-34195882D01*
X106029760Y-34624357D01*
X106366415Y-35128196D01*
X106598304Y-35688025D01*
X106716521Y-36282342D01*
X106716521Y-36888300D01*
X106598304Y-37482617D01*
X106366415Y-38042446D01*
X106366414Y-38042448D01*
X106029761Y-38546284D01*
X105601284Y-38974761D01*
X105097448Y-39311414D01*
X105097447Y-39311415D01*
X105097446Y-39311415D01*
X104537617Y-39543304D01*
X103943300Y-39661521D01*
X103337342Y-39661521D01*
X102743025Y-39543304D01*
X102183196Y-39311415D01*
X102183195Y-39311415D01*
X102183194Y-39311414D01*
X101679358Y-38974761D01*
X101250881Y-38546284D01*
X100914228Y-38042448D01*
X100914227Y-38042446D01*
X100682338Y-37482617D01*
X100564121Y-36888300D01*
X100564121Y-36282342D01*
X100682338Y-35688025D01*
X100914227Y-35128196D01*
X101250882Y-34624357D01*
X101679357Y-34195882D01*
X101932166Y-34026960D01*
X102183194Y-33859228D01*
X102183196Y-33859227D01*
X102743025Y-33627338D01*
X103337342Y-33509121D01*
X103943300Y-33509121D01*
X104537617Y-33627338D01*
X104537617Y-33627338D01*
G37*
G36*
X93043200Y-34026960D02*
X91990800Y-34026960D01*
X91990800Y-32974560D01*
X93043200Y-32974560D01*
X93043200Y-34026960D01*
X93043200Y-34026960D01*
G37*
G36*
X91143200Y-34026960D02*
X90090800Y-34026960D01*
X90090800Y-32974560D01*
X91143200Y-32974560D01*
X91143200Y-34026960D01*
X91143200Y-34026960D01*
G37*
G36*
X88971200Y-33090200D02*
X88018800Y-33090200D01*
X88018800Y-32187800D01*
X88971200Y-32187800D01*
X88971200Y-33090200D01*
X88971200Y-33090200D01*
G37*
G36*
X87471200Y-33090200D02*
X86518800Y-33090200D01*
X86518800Y-32187800D01*
X87471200Y-32187800D01*
X87471200Y-33090200D01*
X87471200Y-33090200D01*
G37*
G36*
X92093200Y-32027980D02*
X91040800Y-32027980D01*
X91040800Y-30975580D01*
X92093200Y-30975580D01*
X92093200Y-32027980D01*
X92093200Y-32027980D01*
G37*
G36*
X104537617Y-25627338D02*
X105097446Y-25859227D01*
X105097448Y-25859228D01*
X105601284Y-26195881D01*
X106029760Y-26624357D01*
X106366415Y-27128196D01*
X106598304Y-27688025D01*
X106716521Y-28282342D01*
X106716521Y-28888300D01*
X106598304Y-29482617D01*
X106366415Y-30042446D01*
X106366414Y-30042448D01*
X106029761Y-30546284D01*
X105601284Y-30974761D01*
X105097448Y-31311414D01*
X105097447Y-31311415D01*
X105097446Y-31311415D01*
X104537617Y-31543304D01*
X103943300Y-31661521D01*
X103337342Y-31661521D01*
X102743025Y-31543304D01*
X102183196Y-31311415D01*
X102183195Y-31311415D01*
X102183194Y-31311414D01*
X101679358Y-30974761D01*
X101250881Y-30546284D01*
X100914228Y-30042448D01*
X100914227Y-30042446D01*
X100682338Y-29482617D01*
X100564121Y-28888300D01*
X100564121Y-28282342D01*
X100682338Y-27688025D01*
X100914227Y-27128196D01*
X101250882Y-26624357D01*
X101679358Y-26195881D01*
X102183194Y-25859228D01*
X102183196Y-25859227D01*
X102743025Y-25627338D01*
X103337342Y-25509121D01*
X103943300Y-25509121D01*
X104537617Y-25627338D01*
X104537617Y-25627338D01*
G37*
M02*
