%TF.GenerationSoftware,KiCad,Pcbnew,4.0.5-e0-6337~49~ubuntu16.04.1*%
%TF.CreationDate,2017-05-28T06:37:26-07:00*%
%TF.ProjectId,5x11-Arduino-Nano-Robot-Version,357831312D41726475696E6F2D4E616E,v1.2*%
%TF.FileFunction,Legend,Top*%
%FSLAX46Y46*%
G04 Gerber Fmt 4.6, Leading zero omitted, Abs format (unit mm)*
G04 Created by KiCad (PCBNEW 4.0.5-e0-6337~49~ubuntu16.04.1) date Sun May 28 06:37:26 2017*
%MOMM*%
%LPD*%
G01*
G04 APERTURE LIST*
%ADD10C,0.350000*%
%ADD11C,0.200000*%
%ADD12C,0.150000*%
%ADD13C,0.152400*%
%ADD14C,9.000000*%
%ADD15C,0.127000*%
%ADD16C,0.300000*%
%ADD17C,0.254000*%
%ADD18R,2.184400X1.879600*%
%ADD19O,2.184400X1.879600*%
%ADD20R,2.184400X2.184400*%
%ADD21O,2.184400X2.184400*%
%ADD22C,1.879600*%
%ADD23C,6.152400*%
G04 APERTURE END LIST*
D10*
D11*
X28295715Y-88300000D02*
X28181429Y-88242857D01*
X28010000Y-88242857D01*
X27838572Y-88300000D01*
X27724286Y-88414286D01*
X27667143Y-88528571D01*
X27610000Y-88757143D01*
X27610000Y-88928571D01*
X27667143Y-89157143D01*
X27724286Y-89271429D01*
X27838572Y-89385714D01*
X28010000Y-89442857D01*
X28124286Y-89442857D01*
X28295715Y-89385714D01*
X28352858Y-89328571D01*
X28352858Y-88928571D01*
X28124286Y-88928571D01*
X28867143Y-89442857D02*
X28867143Y-88242857D01*
X29552858Y-89442857D01*
X29552858Y-88242857D01*
X30124286Y-89442857D02*
X30124286Y-88242857D01*
X30410001Y-88242857D01*
X30581429Y-88300000D01*
X30695715Y-88414286D01*
X30752858Y-88528571D01*
X30810001Y-88757143D01*
X30810001Y-88928571D01*
X30752858Y-89157143D01*
X30695715Y-89271429D01*
X30581429Y-89385714D01*
X30410001Y-89442857D01*
X30124286Y-89442857D01*
X24542857Y-81480000D02*
X25114286Y-81480000D01*
X24428572Y-81822857D02*
X24828572Y-80622857D01*
X25228572Y-81822857D01*
X26142857Y-81022857D02*
X26142857Y-81822857D01*
X25857143Y-80565714D02*
X25571428Y-81422857D01*
X26314286Y-81422857D01*
X22002857Y-81480000D02*
X22574286Y-81480000D01*
X21888572Y-81822857D02*
X22288572Y-80622857D01*
X22688572Y-81822857D01*
X22974286Y-80622857D02*
X23717143Y-80622857D01*
X23317143Y-81080000D01*
X23488571Y-81080000D01*
X23602857Y-81137143D01*
X23660000Y-81194286D01*
X23717143Y-81308571D01*
X23717143Y-81594286D01*
X23660000Y-81708571D01*
X23602857Y-81765714D01*
X23488571Y-81822857D01*
X23145714Y-81822857D01*
X23031428Y-81765714D01*
X22974286Y-81708571D01*
X19434286Y-81822857D02*
X19434286Y-80622857D01*
X19720001Y-80622857D01*
X19891429Y-80680000D01*
X20005715Y-80794286D01*
X20062858Y-80908571D01*
X20120001Y-81137143D01*
X20120001Y-81308571D01*
X20062858Y-81537143D01*
X20005715Y-81651429D01*
X19891429Y-81765714D01*
X19720001Y-81822857D01*
X19434286Y-81822857D01*
X21148572Y-80622857D02*
X20920001Y-80622857D01*
X20805715Y-80680000D01*
X20748572Y-80737143D01*
X20634286Y-80908571D01*
X20577143Y-81137143D01*
X20577143Y-81594286D01*
X20634286Y-81708571D01*
X20691429Y-81765714D01*
X20805715Y-81822857D01*
X21034286Y-81822857D01*
X21148572Y-81765714D01*
X21205715Y-81708571D01*
X21262858Y-81594286D01*
X21262858Y-81308571D01*
X21205715Y-81194286D01*
X21148572Y-81137143D01*
X21034286Y-81080000D01*
X20805715Y-81080000D01*
X20691429Y-81137143D01*
X20634286Y-81194286D01*
X20577143Y-81308571D01*
X16894286Y-81822857D02*
X16894286Y-80622857D01*
X17180001Y-80622857D01*
X17351429Y-80680000D01*
X17465715Y-80794286D01*
X17522858Y-80908571D01*
X17580001Y-81137143D01*
X17580001Y-81308571D01*
X17522858Y-81537143D01*
X17465715Y-81651429D01*
X17351429Y-81765714D01*
X17180001Y-81822857D01*
X16894286Y-81822857D01*
X18665715Y-80622857D02*
X18094286Y-80622857D01*
X18037143Y-81194286D01*
X18094286Y-81137143D01*
X18208572Y-81080000D01*
X18494286Y-81080000D01*
X18608572Y-81137143D01*
X18665715Y-81194286D01*
X18722858Y-81308571D01*
X18722858Y-81594286D01*
X18665715Y-81708571D01*
X18608572Y-81765714D01*
X18494286Y-81822857D01*
X18208572Y-81822857D01*
X18094286Y-81765714D01*
X18037143Y-81708571D01*
X14354286Y-81822857D02*
X14354286Y-80622857D01*
X14640001Y-80622857D01*
X14811429Y-80680000D01*
X14925715Y-80794286D01*
X14982858Y-80908571D01*
X15040001Y-81137143D01*
X15040001Y-81308571D01*
X14982858Y-81537143D01*
X14925715Y-81651429D01*
X14811429Y-81765714D01*
X14640001Y-81822857D01*
X14354286Y-81822857D01*
X15440001Y-80622857D02*
X16182858Y-80622857D01*
X15782858Y-81080000D01*
X15954286Y-81080000D01*
X16068572Y-81137143D01*
X16125715Y-81194286D01*
X16182858Y-81308571D01*
X16182858Y-81594286D01*
X16125715Y-81708571D01*
X16068572Y-81765714D01*
X15954286Y-81822857D01*
X15611429Y-81822857D01*
X15497143Y-81765714D01*
X15440001Y-81708571D01*
X7975715Y-88300000D02*
X7861429Y-88242857D01*
X7690000Y-88242857D01*
X7518572Y-88300000D01*
X7404286Y-88414286D01*
X7347143Y-88528571D01*
X7290000Y-88757143D01*
X7290000Y-88928571D01*
X7347143Y-89157143D01*
X7404286Y-89271429D01*
X7518572Y-89385714D01*
X7690000Y-89442857D01*
X7804286Y-89442857D01*
X7975715Y-89385714D01*
X8032858Y-89328571D01*
X8032858Y-88928571D01*
X7804286Y-88928571D01*
X8547143Y-89442857D02*
X8547143Y-88242857D01*
X9232858Y-89442857D01*
X9232858Y-88242857D01*
X9804286Y-89442857D02*
X9804286Y-88242857D01*
X10090001Y-88242857D01*
X10261429Y-88300000D01*
X10375715Y-88414286D01*
X10432858Y-88528571D01*
X10490001Y-88757143D01*
X10490001Y-88928571D01*
X10432858Y-89157143D01*
X10375715Y-89271429D01*
X10261429Y-89385714D01*
X10090001Y-89442857D01*
X9804286Y-89442857D01*
X9404287Y-85702857D02*
X8832858Y-85702857D01*
X8775715Y-86274286D01*
X8832858Y-86217143D01*
X8947144Y-86160000D01*
X9232858Y-86160000D01*
X9347144Y-86217143D01*
X9404287Y-86274286D01*
X9461430Y-86388571D01*
X9461430Y-86674286D01*
X9404287Y-86788571D01*
X9347144Y-86845714D01*
X9232858Y-86902857D01*
X8947144Y-86902857D01*
X8832858Y-86845714D01*
X8775715Y-86788571D01*
X9804287Y-85702857D02*
X10204287Y-86902857D01*
X10604287Y-85702857D01*
X28238572Y-85702857D02*
X27667143Y-85702857D01*
X27610000Y-86274286D01*
X27667143Y-86217143D01*
X27781429Y-86160000D01*
X28067143Y-86160000D01*
X28181429Y-86217143D01*
X28238572Y-86274286D01*
X28295715Y-86388571D01*
X28295715Y-86674286D01*
X28238572Y-86788571D01*
X28181429Y-86845714D01*
X28067143Y-86902857D01*
X27781429Y-86902857D01*
X27667143Y-86845714D01*
X27610000Y-86788571D01*
X28638572Y-85702857D02*
X29038572Y-86902857D01*
X29438572Y-85702857D01*
D12*
X13970000Y-85090000D02*
X13970000Y-90170000D01*
X13970000Y-90170000D02*
X16510000Y-90170000D01*
X16510000Y-90170000D02*
X16510000Y-85090000D01*
X16790000Y-82270000D02*
X16790000Y-83820000D01*
X16510000Y-85090000D02*
X13970000Y-85090000D01*
X13690000Y-83820000D02*
X13690000Y-82270000D01*
X13690000Y-82270000D02*
X16790000Y-82270000D01*
X16510000Y-85090000D02*
X16510000Y-90170000D01*
X16510000Y-90170000D02*
X19050000Y-90170000D01*
X19050000Y-90170000D02*
X19050000Y-85090000D01*
X19330000Y-82270000D02*
X19330000Y-83820000D01*
X19050000Y-85090000D02*
X16510000Y-85090000D01*
X16230000Y-83820000D02*
X16230000Y-82270000D01*
X16230000Y-82270000D02*
X19330000Y-82270000D01*
X21590000Y-85090000D02*
X21590000Y-90170000D01*
X21590000Y-90170000D02*
X24130000Y-90170000D01*
X24130000Y-90170000D02*
X24130000Y-85090000D01*
X24410000Y-82270000D02*
X24410000Y-83820000D01*
X24130000Y-85090000D02*
X21590000Y-85090000D01*
X21310000Y-83820000D02*
X21310000Y-82270000D01*
X21310000Y-82270000D02*
X24410000Y-82270000D01*
X24130000Y-85090000D02*
X24130000Y-90170000D01*
X24130000Y-90170000D02*
X26670000Y-90170000D01*
X26670000Y-90170000D02*
X26670000Y-85090000D01*
X26950000Y-82270000D02*
X26950000Y-83820000D01*
X26670000Y-85090000D02*
X24130000Y-85090000D01*
X23850000Y-83820000D02*
X23850000Y-82270000D01*
X23850000Y-82270000D02*
X26950000Y-82270000D01*
X19050000Y-85090000D02*
X19050000Y-90170000D01*
X19050000Y-90170000D02*
X21590000Y-90170000D01*
X21590000Y-90170000D02*
X21590000Y-85090000D01*
X21870000Y-82270000D02*
X21870000Y-83820000D01*
X21590000Y-85090000D02*
X19050000Y-85090000D01*
X18770000Y-83820000D02*
X18770000Y-82270000D01*
X18770000Y-82270000D02*
X21870000Y-82270000D01*
X13970000Y-87630000D02*
X13970000Y-90170000D01*
X14250000Y-84810000D02*
X14250000Y-86360000D01*
X13970000Y-87630000D02*
X11430000Y-87630000D01*
X11150000Y-86360000D02*
X11150000Y-84810000D01*
X11150000Y-84810000D02*
X14250000Y-84810000D01*
X11430000Y-87630000D02*
X11430000Y-90170000D01*
X11430000Y-90170000D02*
X13970000Y-90170000D01*
D13*
X13716000Y-144907000D02*
X24384000Y-144907000D01*
X13653433Y-144907000D02*
G75*
G03X13653433Y-144907000I-508933J0D01*
G01*
D14*
X35179000Y-75184000D02*
X35179000Y-75565000D01*
D15*
X10962000Y-92861000D02*
X27378000Y-92861000D01*
X21663000Y-136549000D02*
X16710000Y-136549000D01*
X21663000Y-138581000D02*
X21662000Y-136573500D01*
X21663000Y-138581000D02*
X27505000Y-138581000D01*
X16710000Y-138573500D02*
X16710000Y-136573500D01*
X10995000Y-138581000D02*
X16710000Y-138581000D01*
D14*
X3175000Y-155257500D02*
X3175000Y-155638500D01*
D12*
X17861095Y-133588381D02*
X17861095Y-134397905D01*
X17908714Y-134493143D01*
X17956333Y-134540762D01*
X18051571Y-134588381D01*
X18242048Y-134588381D01*
X18337286Y-134540762D01*
X18384905Y-134493143D01*
X18432524Y-134397905D01*
X18432524Y-133588381D01*
X18861095Y-134540762D02*
X19003952Y-134588381D01*
X19242048Y-134588381D01*
X19337286Y-134540762D01*
X19384905Y-134493143D01*
X19432524Y-134397905D01*
X19432524Y-134302667D01*
X19384905Y-134207429D01*
X19337286Y-134159810D01*
X19242048Y-134112190D01*
X19051571Y-134064571D01*
X18956333Y-134016952D01*
X18908714Y-133969333D01*
X18861095Y-133874095D01*
X18861095Y-133778857D01*
X18908714Y-133683619D01*
X18956333Y-133636000D01*
X19051571Y-133588381D01*
X19289667Y-133588381D01*
X19432524Y-133636000D01*
X20194429Y-134064571D02*
X20337286Y-134112190D01*
X20384905Y-134159810D01*
X20432524Y-134255048D01*
X20432524Y-134397905D01*
X20384905Y-134493143D01*
X20337286Y-134540762D01*
X20242048Y-134588381D01*
X19861095Y-134588381D01*
X19861095Y-133588381D01*
X20194429Y-133588381D01*
X20289667Y-133636000D01*
X20337286Y-133683619D01*
X20384905Y-133778857D01*
X20384905Y-133874095D01*
X20337286Y-133969333D01*
X20289667Y-134016952D01*
X20194429Y-134064571D01*
X19861095Y-134064571D01*
X19685381Y-128055929D02*
X19685381Y-127865452D01*
X19733000Y-127770214D01*
X19828238Y-127674976D01*
X20018714Y-127627357D01*
X20352048Y-127627357D01*
X20542524Y-127674976D01*
X20637762Y-127770214D01*
X20685381Y-127865452D01*
X20685381Y-128055929D01*
X20637762Y-128151167D01*
X20542524Y-128246405D01*
X20352048Y-128294024D01*
X20018714Y-128294024D01*
X19828238Y-128246405D01*
X19733000Y-128151167D01*
X19685381Y-128055929D01*
X20685381Y-126627357D02*
X20209190Y-126960691D01*
X20685381Y-127198786D02*
X19685381Y-127198786D01*
X19685381Y-126817833D01*
X19733000Y-126722595D01*
X19780619Y-126674976D01*
X19875857Y-126627357D01*
X20018714Y-126627357D01*
X20113952Y-126674976D01*
X20161571Y-126722595D01*
X20209190Y-126817833D01*
X20209190Y-127198786D01*
X20685381Y-125436881D02*
X19685381Y-125436881D01*
X19685381Y-125198786D01*
X19733000Y-125055928D01*
X19828238Y-124960690D01*
X19923476Y-124913071D01*
X20113952Y-124865452D01*
X20256810Y-124865452D01*
X20447286Y-124913071D01*
X20542524Y-124960690D01*
X20637762Y-125055928D01*
X20685381Y-125198786D01*
X20685381Y-125436881D01*
X20685381Y-123865452D02*
X20209190Y-124198786D01*
X20685381Y-124436881D02*
X19685381Y-124436881D01*
X19685381Y-124055928D01*
X19733000Y-123960690D01*
X19780619Y-123913071D01*
X19875857Y-123865452D01*
X20018714Y-123865452D01*
X20113952Y-123913071D01*
X20161571Y-123960690D01*
X20209190Y-124055928D01*
X20209190Y-124436881D01*
X19685381Y-123246405D02*
X19685381Y-123055928D01*
X19733000Y-122960690D01*
X19828238Y-122865452D01*
X20018714Y-122817833D01*
X20352048Y-122817833D01*
X20542524Y-122865452D01*
X20637762Y-122960690D01*
X20685381Y-123055928D01*
X20685381Y-123246405D01*
X20637762Y-123341643D01*
X20542524Y-123436881D01*
X20352048Y-123484500D01*
X20018714Y-123484500D01*
X19828238Y-123436881D01*
X19733000Y-123341643D01*
X19685381Y-123246405D01*
X20685381Y-122389262D02*
X19685381Y-122389262D01*
X19685381Y-122008309D01*
X19733000Y-121913071D01*
X19780619Y-121865452D01*
X19875857Y-121817833D01*
X20018714Y-121817833D01*
X20113952Y-121865452D01*
X20161571Y-121913071D01*
X20209190Y-122008309D01*
X20209190Y-122389262D01*
X20304429Y-121389262D02*
X20304429Y-120627357D01*
X20685381Y-120151167D02*
X19685381Y-120151167D01*
X20685381Y-119674977D02*
X19685381Y-119674977D01*
X20685381Y-119103548D01*
X19685381Y-119103548D01*
X20590143Y-117294024D02*
X20637762Y-117341643D01*
X20685381Y-117484500D01*
X20685381Y-117579738D01*
X20637762Y-117722596D01*
X20542524Y-117817834D01*
X20447286Y-117865453D01*
X20256810Y-117913072D01*
X20113952Y-117913072D01*
X19923476Y-117865453D01*
X19828238Y-117817834D01*
X19733000Y-117722596D01*
X19685381Y-117579738D01*
X19685381Y-117484500D01*
X19733000Y-117341643D01*
X19780619Y-117294024D01*
X19685381Y-116674977D02*
X19685381Y-116484500D01*
X19733000Y-116389262D01*
X19828238Y-116294024D01*
X20018714Y-116246405D01*
X20352048Y-116246405D01*
X20542524Y-116294024D01*
X20637762Y-116389262D01*
X20685381Y-116484500D01*
X20685381Y-116674977D01*
X20637762Y-116770215D01*
X20542524Y-116865453D01*
X20352048Y-116913072D01*
X20018714Y-116913072D01*
X19828238Y-116865453D01*
X19733000Y-116770215D01*
X19685381Y-116674977D01*
X20685381Y-115817834D02*
X19685381Y-115817834D01*
X20399667Y-115484500D01*
X19685381Y-115151167D01*
X20685381Y-115151167D01*
X20685381Y-114674977D02*
X19685381Y-114674977D01*
X19685381Y-114294024D01*
X19733000Y-114198786D01*
X19780619Y-114151167D01*
X19875857Y-114103548D01*
X20018714Y-114103548D01*
X20113952Y-114151167D01*
X20161571Y-114198786D01*
X20209190Y-114294024D01*
X20209190Y-114674977D01*
X20399667Y-113722596D02*
X20399667Y-113246405D01*
X20685381Y-113817834D02*
X19685381Y-113484501D01*
X20685381Y-113151167D01*
X19685381Y-112960691D02*
X19685381Y-112389262D01*
X20685381Y-112674977D02*
X19685381Y-112674977D01*
X20685381Y-112055929D02*
X19685381Y-112055929D01*
X20161571Y-111246405D02*
X20209190Y-111103548D01*
X20256810Y-111055929D01*
X20352048Y-111008310D01*
X20494905Y-111008310D01*
X20590143Y-111055929D01*
X20637762Y-111103548D01*
X20685381Y-111198786D01*
X20685381Y-111579739D01*
X19685381Y-111579739D01*
X19685381Y-111246405D01*
X19733000Y-111151167D01*
X19780619Y-111103548D01*
X19875857Y-111055929D01*
X19971095Y-111055929D01*
X20066333Y-111103548D01*
X20113952Y-111151167D01*
X20161571Y-111246405D01*
X20161571Y-111579739D01*
X20685381Y-110103548D02*
X20685381Y-110579739D01*
X19685381Y-110579739D01*
X20161571Y-109770215D02*
X20161571Y-109436881D01*
X20685381Y-109294024D02*
X20685381Y-109770215D01*
X19685381Y-109770215D01*
X19685381Y-109294024D01*
X20161571Y-107770214D02*
X20209190Y-107627357D01*
X20256810Y-107579738D01*
X20352048Y-107532119D01*
X20494905Y-107532119D01*
X20590143Y-107579738D01*
X20637762Y-107627357D01*
X20685381Y-107722595D01*
X20685381Y-108103548D01*
X19685381Y-108103548D01*
X19685381Y-107770214D01*
X19733000Y-107674976D01*
X19780619Y-107627357D01*
X19875857Y-107579738D01*
X19971095Y-107579738D01*
X20066333Y-107627357D01*
X20113952Y-107674976D01*
X20161571Y-107770214D01*
X20161571Y-108103548D01*
X19685381Y-106913072D02*
X19685381Y-106722595D01*
X19733000Y-106627357D01*
X19828238Y-106532119D01*
X20018714Y-106484500D01*
X20352048Y-106484500D01*
X20542524Y-106532119D01*
X20637762Y-106627357D01*
X20685381Y-106722595D01*
X20685381Y-106913072D01*
X20637762Y-107008310D01*
X20542524Y-107103548D01*
X20352048Y-107151167D01*
X20018714Y-107151167D01*
X19828238Y-107103548D01*
X19733000Y-107008310D01*
X19685381Y-106913072D01*
X20399667Y-106103548D02*
X20399667Y-105627357D01*
X20685381Y-106198786D02*
X19685381Y-105865453D01*
X20685381Y-105532119D01*
X20685381Y-104627357D02*
X20209190Y-104960691D01*
X20685381Y-105198786D02*
X19685381Y-105198786D01*
X19685381Y-104817833D01*
X19733000Y-104722595D01*
X19780619Y-104674976D01*
X19875857Y-104627357D01*
X20018714Y-104627357D01*
X20113952Y-104674976D01*
X20161571Y-104722595D01*
X20209190Y-104817833D01*
X20209190Y-105198786D01*
X20685381Y-104198786D02*
X19685381Y-104198786D01*
X19685381Y-103960691D01*
X19733000Y-103817833D01*
X19828238Y-103722595D01*
X19923476Y-103674976D01*
X20113952Y-103627357D01*
X20256810Y-103627357D01*
X20447286Y-103674976D01*
X20542524Y-103722595D01*
X20637762Y-103817833D01*
X20685381Y-103960691D01*
X20685381Y-104198786D01*
X20637762Y-103246405D02*
X20685381Y-103103548D01*
X20685381Y-102865452D01*
X20637762Y-102770214D01*
X20590143Y-102722595D01*
X20494905Y-102674976D01*
X20399667Y-102674976D01*
X20304429Y-102722595D01*
X20256810Y-102770214D01*
X20209190Y-102865452D01*
X20161571Y-103055929D01*
X20113952Y-103151167D01*
X20066333Y-103198786D01*
X19971095Y-103246405D01*
X19875857Y-103246405D01*
X19780619Y-103198786D01*
X19733000Y-103151167D01*
X19685381Y-103055929D01*
X19685381Y-102817833D01*
X19733000Y-102674976D01*
X16383381Y-127055929D02*
X17192905Y-127055929D01*
X17288143Y-127008310D01*
X17335762Y-126960691D01*
X17383381Y-126865453D01*
X17383381Y-126674976D01*
X17335762Y-126579738D01*
X17288143Y-126532119D01*
X17192905Y-126484500D01*
X16383381Y-126484500D01*
X17335762Y-126055929D02*
X17383381Y-125913072D01*
X17383381Y-125674976D01*
X17335762Y-125579738D01*
X17288143Y-125532119D01*
X17192905Y-125484500D01*
X17097667Y-125484500D01*
X17002429Y-125532119D01*
X16954810Y-125579738D01*
X16907190Y-125674976D01*
X16859571Y-125865453D01*
X16811952Y-125960691D01*
X16764333Y-126008310D01*
X16669095Y-126055929D01*
X16573857Y-126055929D01*
X16478619Y-126008310D01*
X16431000Y-125960691D01*
X16383381Y-125865453D01*
X16383381Y-125627357D01*
X16431000Y-125484500D01*
X16859571Y-125055929D02*
X16859571Y-124722595D01*
X17383381Y-124579738D02*
X17383381Y-125055929D01*
X16383381Y-125055929D01*
X16383381Y-124579738D01*
X16383381Y-123198786D02*
X16383381Y-123008309D01*
X16431000Y-122913071D01*
X16526238Y-122817833D01*
X16716714Y-122770214D01*
X17050048Y-122770214D01*
X17240524Y-122817833D01*
X17335762Y-122913071D01*
X17383381Y-123008309D01*
X17383381Y-123198786D01*
X17335762Y-123294024D01*
X17240524Y-123389262D01*
X17050048Y-123436881D01*
X16716714Y-123436881D01*
X16526238Y-123389262D01*
X16431000Y-123294024D01*
X16383381Y-123198786D01*
X17383381Y-122341643D02*
X16383381Y-122341643D01*
X17383381Y-121770214D01*
X16383381Y-121770214D01*
X17383381Y-120817833D02*
X17383381Y-121294024D01*
X16383381Y-121294024D01*
X16907190Y-120294024D02*
X17383381Y-120294024D01*
X16383381Y-120627357D02*
X16907190Y-120294024D01*
X16383381Y-119960690D01*
X16383381Y-118960690D02*
X17383381Y-118722595D01*
X16669095Y-118532118D01*
X17383381Y-118341642D01*
X16383381Y-118103547D01*
X17383381Y-117722595D02*
X16383381Y-117722595D01*
X16383381Y-117389262D02*
X16383381Y-116817833D01*
X17383381Y-117103548D02*
X16383381Y-117103548D01*
X17383381Y-116484500D02*
X16383381Y-116484500D01*
X16859571Y-116484500D02*
X16859571Y-115913071D01*
X17383381Y-115913071D02*
X16383381Y-115913071D01*
X17097667Y-114722595D02*
X17097667Y-114246404D01*
X17383381Y-114817833D02*
X16383381Y-114484500D01*
X17383381Y-114151166D01*
X17383381Y-113246404D02*
X16907190Y-113579738D01*
X17383381Y-113817833D02*
X16383381Y-113817833D01*
X16383381Y-113436880D01*
X16431000Y-113341642D01*
X16478619Y-113294023D01*
X16573857Y-113246404D01*
X16716714Y-113246404D01*
X16811952Y-113294023D01*
X16859571Y-113341642D01*
X16907190Y-113436880D01*
X16907190Y-113817833D01*
X17383381Y-112817833D02*
X16383381Y-112817833D01*
X16383381Y-112579738D01*
X16431000Y-112436880D01*
X16526238Y-112341642D01*
X16621476Y-112294023D01*
X16811952Y-112246404D01*
X16954810Y-112246404D01*
X17145286Y-112294023D01*
X17240524Y-112341642D01*
X17335762Y-112436880D01*
X17383381Y-112579738D01*
X17383381Y-112817833D01*
X16383381Y-111817833D02*
X17192905Y-111817833D01*
X17288143Y-111770214D01*
X17335762Y-111722595D01*
X17383381Y-111627357D01*
X17383381Y-111436880D01*
X17335762Y-111341642D01*
X17288143Y-111294023D01*
X17192905Y-111246404D01*
X16383381Y-111246404D01*
X17383381Y-110770214D02*
X16383381Y-110770214D01*
X17383381Y-110294024D02*
X16383381Y-110294024D01*
X17383381Y-109722595D01*
X16383381Y-109722595D01*
X16383381Y-109055929D02*
X16383381Y-108865452D01*
X16431000Y-108770214D01*
X16526238Y-108674976D01*
X16716714Y-108627357D01*
X17050048Y-108627357D01*
X17240524Y-108674976D01*
X17335762Y-108770214D01*
X17383381Y-108865452D01*
X17383381Y-109055929D01*
X17335762Y-109151167D01*
X17240524Y-109246405D01*
X17050048Y-109294024D01*
X16716714Y-109294024D01*
X16526238Y-109246405D01*
X16431000Y-109151167D01*
X16383381Y-109055929D01*
X17383381Y-107436881D02*
X16383381Y-107436881D01*
X17383381Y-106865452D01*
X16383381Y-106865452D01*
X17097667Y-106436881D02*
X17097667Y-105960690D01*
X17383381Y-106532119D02*
X16383381Y-106198786D01*
X17383381Y-105865452D01*
X17383381Y-105532119D02*
X16383381Y-105532119D01*
X17383381Y-104960690D01*
X16383381Y-104960690D01*
X16383381Y-104294024D02*
X16383381Y-104103547D01*
X16431000Y-104008309D01*
X16526238Y-103913071D01*
X16716714Y-103865452D01*
X17050048Y-103865452D01*
X17240524Y-103913071D01*
X17335762Y-104008309D01*
X17383381Y-104103547D01*
X17383381Y-104294024D01*
X17335762Y-104389262D01*
X17240524Y-104484500D01*
X17050048Y-104532119D01*
X16716714Y-104532119D01*
X16526238Y-104484500D01*
X16431000Y-104389262D01*
X16383381Y-104294024D01*
X6722905Y-124084381D02*
X6722905Y-123084381D01*
X6961000Y-123084381D01*
X7103858Y-123132000D01*
X7199096Y-123227238D01*
X7246715Y-123322476D01*
X7294334Y-123512952D01*
X7294334Y-123655810D01*
X7246715Y-123846286D01*
X7199096Y-123941524D01*
X7103858Y-124036762D01*
X6961000Y-124084381D01*
X6722905Y-124084381D01*
X8151477Y-123084381D02*
X7961000Y-123084381D01*
X7865762Y-123132000D01*
X7818143Y-123179619D01*
X7722905Y-123322476D01*
X7675286Y-123512952D01*
X7675286Y-123893905D01*
X7722905Y-123989143D01*
X7770524Y-124036762D01*
X7865762Y-124084381D01*
X8056239Y-124084381D01*
X8151477Y-124036762D01*
X8199096Y-123989143D01*
X8246715Y-123893905D01*
X8246715Y-123655810D01*
X8199096Y-123560571D01*
X8151477Y-123512952D01*
X8056239Y-123465333D01*
X7865762Y-123465333D01*
X7770524Y-123512952D01*
X7722905Y-123560571D01*
X7675286Y-123655810D01*
X6722905Y-115834381D02*
X6722905Y-114834381D01*
X6961000Y-114834381D01*
X7103858Y-114882000D01*
X7199096Y-114977238D01*
X7246715Y-115072476D01*
X7294334Y-115262952D01*
X7294334Y-115405810D01*
X7246715Y-115596286D01*
X7199096Y-115691524D01*
X7103858Y-115786762D01*
X6961000Y-115834381D01*
X6722905Y-115834381D01*
X8199096Y-114834381D02*
X7722905Y-114834381D01*
X7675286Y-115310571D01*
X7722905Y-115262952D01*
X7818143Y-115215333D01*
X8056239Y-115215333D01*
X8151477Y-115262952D01*
X8199096Y-115310571D01*
X8246715Y-115405810D01*
X8246715Y-115643905D01*
X8199096Y-115739143D01*
X8151477Y-115786762D01*
X8056239Y-115834381D01*
X7818143Y-115834381D01*
X7722905Y-115786762D01*
X7675286Y-115739143D01*
X6722905Y-140084381D02*
X6722905Y-139084381D01*
X6961000Y-139084381D01*
X7103858Y-139132000D01*
X7199096Y-139227238D01*
X7246715Y-139322476D01*
X7294334Y-139512952D01*
X7294334Y-139655810D01*
X7246715Y-139846286D01*
X7199096Y-139941524D01*
X7103858Y-140036762D01*
X6961000Y-140084381D01*
X6722905Y-140084381D01*
X7865762Y-139512952D02*
X7770524Y-139465333D01*
X7722905Y-139417714D01*
X7675286Y-139322476D01*
X7675286Y-139274857D01*
X7722905Y-139179619D01*
X7770524Y-139132000D01*
X7865762Y-139084381D01*
X8056239Y-139084381D01*
X8151477Y-139132000D01*
X8199096Y-139179619D01*
X8246715Y-139274857D01*
X8246715Y-139322476D01*
X8199096Y-139417714D01*
X8151477Y-139465333D01*
X8056239Y-139512952D01*
X7865762Y-139512952D01*
X7770524Y-139560571D01*
X7722905Y-139608190D01*
X7675286Y-139703429D01*
X7675286Y-139893905D01*
X7722905Y-139989143D01*
X7770524Y-140036762D01*
X7865762Y-140084381D01*
X8056239Y-140084381D01*
X8151477Y-140036762D01*
X8199096Y-139989143D01*
X8246715Y-139893905D01*
X8246715Y-139703429D01*
X8199096Y-139608190D01*
X8151477Y-139560571D01*
X8056239Y-139512952D01*
X6722905Y-131834381D02*
X6722905Y-130834381D01*
X6961000Y-130834381D01*
X7103858Y-130882000D01*
X7199096Y-130977238D01*
X7246715Y-131072476D01*
X7294334Y-131262952D01*
X7294334Y-131405810D01*
X7246715Y-131596286D01*
X7199096Y-131691524D01*
X7103858Y-131786762D01*
X6961000Y-131834381D01*
X6722905Y-131834381D01*
X7627667Y-130834381D02*
X8294334Y-130834381D01*
X7865762Y-131834381D01*
X6722905Y-147894381D02*
X6722905Y-146894381D01*
X6961000Y-146894381D01*
X7103858Y-146942000D01*
X7199096Y-147037238D01*
X7246715Y-147132476D01*
X7294334Y-147322952D01*
X7294334Y-147465810D01*
X7246715Y-147656286D01*
X7199096Y-147751524D01*
X7103858Y-147846762D01*
X6961000Y-147894381D01*
X6722905Y-147894381D01*
X7770524Y-147894381D02*
X7961000Y-147894381D01*
X8056239Y-147846762D01*
X8103858Y-147799143D01*
X8199096Y-147656286D01*
X8246715Y-147465810D01*
X8246715Y-147084857D01*
X8199096Y-146989619D01*
X8151477Y-146942000D01*
X8056239Y-146894381D01*
X7865762Y-146894381D01*
X7770524Y-146942000D01*
X7722905Y-146989619D01*
X7675286Y-147084857D01*
X7675286Y-147322952D01*
X7722905Y-147418190D01*
X7770524Y-147465810D01*
X7865762Y-147513429D01*
X8056239Y-147513429D01*
X8151477Y-147465810D01*
X8199096Y-147418190D01*
X8246715Y-147322952D01*
X11011524Y-150759381D02*
X10535333Y-150759381D01*
X10487714Y-151235571D01*
X10535333Y-151187952D01*
X10630571Y-151140333D01*
X10868667Y-151140333D01*
X10963905Y-151187952D01*
X11011524Y-151235571D01*
X11059143Y-151330810D01*
X11059143Y-151568905D01*
X11011524Y-151664143D01*
X10963905Y-151711762D01*
X10868667Y-151759381D01*
X10630571Y-151759381D01*
X10535333Y-151711762D01*
X10487714Y-151664143D01*
X11344857Y-150759381D02*
X11678190Y-151759381D01*
X12011524Y-150759381D01*
X6722905Y-107894381D02*
X6722905Y-106894381D01*
X6961000Y-106894381D01*
X7103858Y-106942000D01*
X7199096Y-107037238D01*
X7246715Y-107132476D01*
X7294334Y-107322952D01*
X7294334Y-107465810D01*
X7246715Y-107656286D01*
X7199096Y-107751524D01*
X7103858Y-107846762D01*
X6961000Y-107894381D01*
X6722905Y-107894381D01*
X8151477Y-107227714D02*
X8151477Y-107894381D01*
X7913381Y-106846762D02*
X7675286Y-107561048D01*
X8294334Y-107561048D01*
X6722905Y-99894381D02*
X6722905Y-98894381D01*
X6961000Y-98894381D01*
X7103858Y-98942000D01*
X7199096Y-99037238D01*
X7246715Y-99132476D01*
X7294334Y-99322952D01*
X7294334Y-99465810D01*
X7246715Y-99656286D01*
X7199096Y-99751524D01*
X7103858Y-99846762D01*
X6961000Y-99894381D01*
X6722905Y-99894381D01*
X7627667Y-98894381D02*
X8246715Y-98894381D01*
X7913381Y-99275333D01*
X8056239Y-99275333D01*
X8151477Y-99322952D01*
X8199096Y-99370571D01*
X8246715Y-99465810D01*
X8246715Y-99703905D01*
X8199096Y-99799143D01*
X8151477Y-99846762D01*
X8056239Y-99894381D01*
X7770524Y-99894381D01*
X7675286Y-99846762D01*
X7627667Y-99799143D01*
X6722905Y-91894381D02*
X6722905Y-90894381D01*
X6961000Y-90894381D01*
X7103858Y-90942000D01*
X7199096Y-91037238D01*
X7246715Y-91132476D01*
X7294334Y-91322952D01*
X7294334Y-91465810D01*
X7246715Y-91656286D01*
X7199096Y-91751524D01*
X7103858Y-91846762D01*
X6961000Y-91894381D01*
X6722905Y-91894381D01*
X7675286Y-90989619D02*
X7722905Y-90942000D01*
X7818143Y-90894381D01*
X8056239Y-90894381D01*
X8151477Y-90942000D01*
X8199096Y-90989619D01*
X8246715Y-91084857D01*
X8246715Y-91180095D01*
X8199096Y-91322952D01*
X7627667Y-91894381D01*
X8246715Y-91894381D01*
X17525810Y-150759381D02*
X18144858Y-150759381D01*
X17811524Y-151140333D01*
X17954382Y-151140333D01*
X18049620Y-151187952D01*
X18097239Y-151235571D01*
X18144858Y-151330810D01*
X18144858Y-151568905D01*
X18097239Y-151664143D01*
X18049620Y-151711762D01*
X17954382Y-151759381D01*
X17668667Y-151759381D01*
X17573429Y-151711762D01*
X17525810Y-151664143D01*
X18573429Y-151664143D02*
X18621048Y-151711762D01*
X18573429Y-151759381D01*
X18525810Y-151711762D01*
X18573429Y-151664143D01*
X18573429Y-151759381D01*
X18954381Y-150759381D02*
X19573429Y-150759381D01*
X19240095Y-151140333D01*
X19382953Y-151140333D01*
X19478191Y-151187952D01*
X19525810Y-151235571D01*
X19573429Y-151330810D01*
X19573429Y-151568905D01*
X19525810Y-151664143D01*
X19478191Y-151711762D01*
X19382953Y-151759381D01*
X19097238Y-151759381D01*
X19002000Y-151711762D01*
X18954381Y-151664143D01*
X19859143Y-150759381D02*
X20192476Y-151759381D01*
X20525810Y-150759381D01*
X25787714Y-151759381D02*
X25787714Y-150759381D01*
X26025809Y-150759381D01*
X26168667Y-150807000D01*
X26263905Y-150902238D01*
X26311524Y-150997476D01*
X26359143Y-151187952D01*
X26359143Y-151330810D01*
X26311524Y-151521286D01*
X26263905Y-151616524D01*
X26168667Y-151711762D01*
X26025809Y-151759381D01*
X25787714Y-151759381D01*
X27311524Y-151759381D02*
X26740095Y-151759381D01*
X27025809Y-151759381D02*
X27025809Y-150759381D01*
X26930571Y-150902238D01*
X26835333Y-150997476D01*
X26740095Y-151045095D01*
X27930571Y-150759381D02*
X28025810Y-150759381D01*
X28121048Y-150807000D01*
X28168667Y-150854619D01*
X28216286Y-150949857D01*
X28263905Y-151140333D01*
X28263905Y-151378429D01*
X28216286Y-151568905D01*
X28168667Y-151664143D01*
X28121048Y-151711762D01*
X28025810Y-151759381D01*
X27930571Y-151759381D01*
X27835333Y-151711762D01*
X27787714Y-151664143D01*
X27740095Y-151568905D01*
X27692476Y-151378429D01*
X27692476Y-151140333D01*
X27740095Y-150949857D01*
X27787714Y-150854619D01*
X27835333Y-150807000D01*
X27930571Y-150759381D01*
X30241714Y-115167667D02*
X30717905Y-115167667D01*
X30146476Y-115453381D02*
X30479809Y-114453381D01*
X30813143Y-115453381D01*
X31670286Y-115453381D02*
X31098857Y-115453381D01*
X31384571Y-115453381D02*
X31384571Y-114453381D01*
X31289333Y-114596238D01*
X31194095Y-114691476D01*
X31098857Y-114739095D01*
X30241714Y-107227667D02*
X30717905Y-107227667D01*
X30146476Y-107513381D02*
X30479809Y-106513381D01*
X30813143Y-107513381D01*
X31098857Y-106608619D02*
X31146476Y-106561000D01*
X31241714Y-106513381D01*
X31479810Y-106513381D01*
X31575048Y-106561000D01*
X31622667Y-106608619D01*
X31670286Y-106703857D01*
X31670286Y-106799095D01*
X31622667Y-106941952D01*
X31051238Y-107513381D01*
X31670286Y-107513381D01*
X30241714Y-99227667D02*
X30717905Y-99227667D01*
X30146476Y-99513381D02*
X30479809Y-98513381D01*
X30813143Y-99513381D01*
X31051238Y-98513381D02*
X31670286Y-98513381D01*
X31336952Y-98894333D01*
X31479810Y-98894333D01*
X31575048Y-98941952D01*
X31622667Y-98989571D01*
X31670286Y-99084810D01*
X31670286Y-99322905D01*
X31622667Y-99418143D01*
X31575048Y-99465762D01*
X31479810Y-99513381D01*
X31194095Y-99513381D01*
X31098857Y-99465762D01*
X31051238Y-99418143D01*
X30241714Y-91227667D02*
X30717905Y-91227667D01*
X30146476Y-91513381D02*
X30479809Y-90513381D01*
X30813143Y-91513381D01*
X31575048Y-90846714D02*
X31575048Y-91513381D01*
X31336952Y-90465762D02*
X31098857Y-91180048D01*
X31717905Y-91180048D01*
X30241714Y-123417667D02*
X30717905Y-123417667D01*
X30146476Y-123703381D02*
X30479809Y-122703381D01*
X30813143Y-123703381D01*
X31336952Y-122703381D02*
X31432191Y-122703381D01*
X31527429Y-122751000D01*
X31575048Y-122798619D01*
X31622667Y-122893857D01*
X31670286Y-123084333D01*
X31670286Y-123322429D01*
X31622667Y-123512905D01*
X31575048Y-123608143D01*
X31527429Y-123655762D01*
X31432191Y-123703381D01*
X31336952Y-123703381D01*
X31241714Y-123655762D01*
X31194095Y-123608143D01*
X31146476Y-123512905D01*
X31098857Y-123322429D01*
X31098857Y-123084333D01*
X31146476Y-122893857D01*
X31194095Y-122798619D01*
X31241714Y-122751000D01*
X31336952Y-122703381D01*
X31408381Y-140435286D02*
X30408381Y-140435286D01*
X30408381Y-140197191D01*
X30456000Y-140054333D01*
X30551238Y-139959095D01*
X30646476Y-139911476D01*
X30836952Y-139863857D01*
X30979810Y-139863857D01*
X31170286Y-139911476D01*
X31265524Y-139959095D01*
X31360762Y-140054333D01*
X31408381Y-140197191D01*
X31408381Y-140435286D01*
X31408381Y-138911476D02*
X31408381Y-139482905D01*
X31408381Y-139197191D02*
X30408381Y-139197191D01*
X30551238Y-139292429D01*
X30646476Y-139387667D01*
X30694095Y-139482905D01*
X30408381Y-138578143D02*
X30408381Y-137959095D01*
X30789333Y-138292429D01*
X30789333Y-138149571D01*
X30836952Y-138054333D01*
X30884571Y-138006714D01*
X30979810Y-137959095D01*
X31217905Y-137959095D01*
X31313143Y-138006714D01*
X31360762Y-138054333D01*
X31408381Y-138149571D01*
X31408381Y-138435286D01*
X31360762Y-138530524D01*
X31313143Y-138578143D01*
X31122667Y-132600048D02*
X31122667Y-132123857D01*
X31408381Y-132695286D02*
X30408381Y-132361953D01*
X31408381Y-132028619D01*
X31408381Y-131123857D02*
X30932190Y-131457191D01*
X31408381Y-131695286D02*
X30408381Y-131695286D01*
X30408381Y-131314333D01*
X30456000Y-131219095D01*
X30503619Y-131171476D01*
X30598857Y-131123857D01*
X30741714Y-131123857D01*
X30836952Y-131171476D01*
X30884571Y-131219095D01*
X30932190Y-131314333D01*
X30932190Y-131695286D01*
X30884571Y-130695286D02*
X30884571Y-130361952D01*
X31408381Y-130219095D02*
X31408381Y-130695286D01*
X30408381Y-130695286D01*
X30408381Y-130219095D01*
X30884571Y-129457190D02*
X30884571Y-129790524D01*
X31408381Y-129790524D02*
X30408381Y-129790524D01*
X30408381Y-129314333D01*
X31408381Y-148245286D02*
X30408381Y-148245286D01*
X30408381Y-148007191D01*
X30456000Y-147864333D01*
X30551238Y-147769095D01*
X30646476Y-147721476D01*
X30836952Y-147673857D01*
X30979810Y-147673857D01*
X31170286Y-147721476D01*
X31265524Y-147769095D01*
X31360762Y-147864333D01*
X31408381Y-148007191D01*
X31408381Y-148245286D01*
X31408381Y-146721476D02*
X31408381Y-147292905D01*
X31408381Y-147007191D02*
X30408381Y-147007191D01*
X30551238Y-147102429D01*
X30646476Y-147197667D01*
X30694095Y-147292905D01*
X30503619Y-146340524D02*
X30456000Y-146292905D01*
X30408381Y-146197667D01*
X30408381Y-145959571D01*
X30456000Y-145864333D01*
X30503619Y-145816714D01*
X30598857Y-145769095D01*
X30694095Y-145769095D01*
X30836952Y-145816714D01*
X31408381Y-146388143D01*
X31408381Y-145769095D01*
X31487714Y-151759381D02*
X31487714Y-150759381D01*
X31725809Y-150759381D01*
X31868667Y-150807000D01*
X31963905Y-150902238D01*
X32011524Y-150997476D01*
X32059143Y-151187952D01*
X32059143Y-151330810D01*
X32011524Y-151521286D01*
X31963905Y-151616524D01*
X31868667Y-151711762D01*
X31725809Y-151759381D01*
X31487714Y-151759381D01*
X33011524Y-151759381D02*
X32440095Y-151759381D01*
X32725809Y-151759381D02*
X32725809Y-150759381D01*
X32630571Y-150902238D01*
X32535333Y-150997476D01*
X32440095Y-151045095D01*
X33963905Y-151759381D02*
X33392476Y-151759381D01*
X33678190Y-151759381D02*
X33678190Y-150759381D01*
X33582952Y-150902238D01*
X33487714Y-150997476D01*
X33392476Y-151045095D01*
X2413095Y-104017381D02*
X2413095Y-104826905D01*
X2460714Y-104922143D01*
X2508333Y-104969762D01*
X2603571Y-105017381D01*
X2794048Y-105017381D01*
X2889286Y-104969762D01*
X2936905Y-104922143D01*
X2984524Y-104826905D01*
X2984524Y-104017381D01*
X3984524Y-105017381D02*
X3413095Y-105017381D01*
X3698809Y-105017381D02*
X3698809Y-104017381D01*
X3603571Y-104160238D01*
X3508333Y-104255476D01*
X3413095Y-104303095D01*
X30241714Y-83097667D02*
X30717905Y-83097667D01*
X30146476Y-83383381D02*
X30479809Y-82383381D01*
X30813143Y-83383381D01*
X31622667Y-82383381D02*
X31146476Y-82383381D01*
X31098857Y-82859571D01*
X31146476Y-82811952D01*
X31241714Y-82764333D01*
X31479810Y-82764333D01*
X31575048Y-82811952D01*
X31622667Y-82859571D01*
X31670286Y-82954810D01*
X31670286Y-83192905D01*
X31622667Y-83288143D01*
X31575048Y-83335762D01*
X31479810Y-83383381D01*
X31241714Y-83383381D01*
X31146476Y-83335762D01*
X31098857Y-83288143D01*
X1063905Y-79827381D02*
X1063905Y-78827381D01*
X1302000Y-78827381D01*
X1444858Y-78875000D01*
X1540096Y-78970238D01*
X1587715Y-79065476D01*
X1635334Y-79255952D01*
X1635334Y-79398810D01*
X1587715Y-79589286D01*
X1540096Y-79684524D01*
X1444858Y-79779762D01*
X1302000Y-79827381D01*
X1063905Y-79827381D01*
X2254381Y-78827381D02*
X2349620Y-78827381D01*
X2444858Y-78875000D01*
X2492477Y-78922619D01*
X2540096Y-79017857D01*
X2587715Y-79208333D01*
X2587715Y-79446429D01*
X2540096Y-79636905D01*
X2492477Y-79732143D01*
X2444858Y-79779762D01*
X2349620Y-79827381D01*
X2254381Y-79827381D01*
X2159143Y-79779762D01*
X2111524Y-79732143D01*
X2063905Y-79636905D01*
X2016286Y-79446429D01*
X2016286Y-79208333D01*
X2063905Y-79017857D01*
X2111524Y-78922619D01*
X2159143Y-78875000D01*
X2254381Y-78827381D01*
X3730572Y-78779762D02*
X2873429Y-80065476D01*
X4635334Y-79827381D02*
X4302000Y-79351190D01*
X4063905Y-79827381D02*
X4063905Y-78827381D01*
X4444858Y-78827381D01*
X4540096Y-78875000D01*
X4587715Y-78922619D01*
X4635334Y-79017857D01*
X4635334Y-79160714D01*
X4587715Y-79255952D01*
X4540096Y-79303571D01*
X4444858Y-79351190D01*
X4063905Y-79351190D01*
X4968667Y-78827381D02*
X5635334Y-79827381D01*
X5635334Y-78827381D02*
X4968667Y-79827381D01*
X9056952Y-79700381D02*
X9056952Y-78700381D01*
X9295047Y-78700381D01*
X9437905Y-78748000D01*
X9533143Y-78843238D01*
X9580762Y-78938476D01*
X9628381Y-79128952D01*
X9628381Y-79271810D01*
X9580762Y-79462286D01*
X9533143Y-79557524D01*
X9437905Y-79652762D01*
X9295047Y-79700381D01*
X9056952Y-79700381D01*
X10580762Y-79700381D02*
X10009333Y-79700381D01*
X10295047Y-79700381D02*
X10295047Y-78700381D01*
X10199809Y-78843238D01*
X10104571Y-78938476D01*
X10009333Y-78986095D01*
X11723619Y-78652762D02*
X10866476Y-79938476D01*
X11914095Y-78700381D02*
X12485524Y-78700381D01*
X12199809Y-79700381D02*
X12199809Y-78700381D01*
X12723619Y-78700381D02*
X13390286Y-79700381D01*
X13390286Y-78700381D02*
X12723619Y-79700381D01*
X17827810Y-78700381D02*
X18446858Y-78700381D01*
X18113524Y-79081333D01*
X18256382Y-79081333D01*
X18351620Y-79128952D01*
X18399239Y-79176571D01*
X18446858Y-79271810D01*
X18446858Y-79509905D01*
X18399239Y-79605143D01*
X18351620Y-79652762D01*
X18256382Y-79700381D01*
X17970667Y-79700381D01*
X17875429Y-79652762D01*
X17827810Y-79605143D01*
X18875429Y-79605143D02*
X18923048Y-79652762D01*
X18875429Y-79700381D01*
X18827810Y-79652762D01*
X18875429Y-79605143D01*
X18875429Y-79700381D01*
X19256381Y-78700381D02*
X19875429Y-78700381D01*
X19542095Y-79081333D01*
X19684953Y-79081333D01*
X19780191Y-79128952D01*
X19827810Y-79176571D01*
X19875429Y-79271810D01*
X19875429Y-79509905D01*
X19827810Y-79605143D01*
X19780191Y-79652762D01*
X19684953Y-79700381D01*
X19399238Y-79700381D01*
X19304000Y-79652762D01*
X19256381Y-79605143D01*
X20161143Y-78700381D02*
X20494476Y-79700381D01*
X20827810Y-78700381D01*
X26987524Y-78700381D02*
X26511333Y-78700381D01*
X26463714Y-79176571D01*
X26511333Y-79128952D01*
X26606571Y-79081333D01*
X26844667Y-79081333D01*
X26939905Y-79128952D01*
X26987524Y-79176571D01*
X27035143Y-79271810D01*
X27035143Y-79509905D01*
X26987524Y-79605143D01*
X26939905Y-79652762D01*
X26844667Y-79700381D01*
X26606571Y-79700381D01*
X26511333Y-79652762D01*
X26463714Y-79605143D01*
X27320857Y-78700381D02*
X27654190Y-79700381D01*
X27987524Y-78700381D01*
X6722905Y-84018381D02*
X6722905Y-83018381D01*
X6961000Y-83018381D01*
X7103858Y-83066000D01*
X7199096Y-83161238D01*
X7246715Y-83256476D01*
X7294334Y-83446952D01*
X7294334Y-83589810D01*
X7246715Y-83780286D01*
X7199096Y-83875524D01*
X7103858Y-83970762D01*
X6961000Y-84018381D01*
X6722905Y-84018381D01*
X8246715Y-84018381D02*
X7675286Y-84018381D01*
X7961000Y-84018381D02*
X7961000Y-83018381D01*
X7865762Y-83161238D01*
X7770524Y-83256476D01*
X7675286Y-83304095D01*
%LPC*%
D16*
X15482572Y-146712714D02*
X15411143Y-146784143D01*
X15196857Y-146855571D01*
X15054000Y-146855571D01*
X14839715Y-146784143D01*
X14696857Y-146641286D01*
X14625429Y-146498429D01*
X14554000Y-146212714D01*
X14554000Y-145998429D01*
X14625429Y-145712714D01*
X14696857Y-145569857D01*
X14839715Y-145427000D01*
X15054000Y-145355571D01*
X15196857Y-145355571D01*
X15411143Y-145427000D01*
X15482572Y-145498429D01*
X16125429Y-146855571D02*
X16125429Y-145355571D01*
X17696858Y-146855571D02*
X17196858Y-146141286D01*
X16839715Y-146855571D02*
X16839715Y-145355571D01*
X17411143Y-145355571D01*
X17554001Y-145427000D01*
X17625429Y-145498429D01*
X17696858Y-145641286D01*
X17696858Y-145855571D01*
X17625429Y-145998429D01*
X17554001Y-146069857D01*
X17411143Y-146141286D01*
X16839715Y-146141286D01*
X19196858Y-146712714D02*
X19125429Y-146784143D01*
X18911143Y-146855571D01*
X18768286Y-146855571D01*
X18554001Y-146784143D01*
X18411143Y-146641286D01*
X18339715Y-146498429D01*
X18268286Y-146212714D01*
X18268286Y-145998429D01*
X18339715Y-145712714D01*
X18411143Y-145569857D01*
X18554001Y-145427000D01*
X18768286Y-145355571D01*
X18911143Y-145355571D01*
X19125429Y-145427000D01*
X19196858Y-145498429D01*
X19839715Y-145355571D02*
X19839715Y-146569857D01*
X19911143Y-146712714D01*
X19982572Y-146784143D01*
X20125429Y-146855571D01*
X20411143Y-146855571D01*
X20554001Y-146784143D01*
X20625429Y-146712714D01*
X20696858Y-146569857D01*
X20696858Y-145355571D01*
X21411144Y-146855571D02*
X21411144Y-145355571D01*
X21911144Y-145355571D02*
X22768287Y-145355571D01*
X22339716Y-146855571D02*
X22339716Y-145355571D01*
X23196858Y-146784143D02*
X23411144Y-146855571D01*
X23768287Y-146855571D01*
X23911144Y-146784143D01*
X23982573Y-146712714D01*
X24054001Y-146569857D01*
X24054001Y-146427000D01*
X23982573Y-146284143D01*
X23911144Y-146212714D01*
X23768287Y-146141286D01*
X23482573Y-146069857D01*
X23339715Y-145998429D01*
X23268287Y-145927000D01*
X23196858Y-145784143D01*
X23196858Y-145641286D01*
X23268287Y-145498429D01*
X23339715Y-145427000D01*
X23482573Y-145355571D01*
X23839715Y-145355571D01*
X24054001Y-145427000D01*
X14859287Y-144299714D02*
X14787858Y-144371143D01*
X14573572Y-144442571D01*
X14430715Y-144442571D01*
X14216430Y-144371143D01*
X14073572Y-144228286D01*
X14002144Y-144085429D01*
X13930715Y-143799714D01*
X13930715Y-143585429D01*
X14002144Y-143299714D01*
X14073572Y-143156857D01*
X14216430Y-143014000D01*
X14430715Y-142942571D01*
X14573572Y-142942571D01*
X14787858Y-143014000D01*
X14859287Y-143085429D01*
X16359287Y-144442571D02*
X15859287Y-143728286D01*
X15502144Y-144442571D02*
X15502144Y-142942571D01*
X16073572Y-142942571D01*
X16216430Y-143014000D01*
X16287858Y-143085429D01*
X16359287Y-143228286D01*
X16359287Y-143442571D01*
X16287858Y-143585429D01*
X16216430Y-143656857D01*
X16073572Y-143728286D01*
X15502144Y-143728286D01*
X16930715Y-144014000D02*
X17645001Y-144014000D01*
X16787858Y-144442571D02*
X17287858Y-142942571D01*
X17787858Y-144442571D01*
X18145001Y-142942571D02*
X19145001Y-142942571D01*
X18145001Y-144442571D01*
X19145001Y-144442571D01*
X20002143Y-143728286D02*
X20002143Y-144442571D01*
X19502143Y-142942571D02*
X20002143Y-143728286D01*
X20502143Y-142942571D01*
D13*
X25400000Y-143700500D02*
X24257000Y-144653000D01*
X24066500Y-144653000D02*
X25400000Y-143700500D01*
X25019000Y-143827500D02*
X24066500Y-144653000D01*
X23939500Y-144589500D02*
X25019000Y-143827500D01*
X24828500Y-143891000D02*
X23939500Y-144589500D01*
X23685500Y-144653000D02*
X24828500Y-143891000D01*
X24511000Y-144018000D02*
X23685500Y-144653000D01*
X23558500Y-144589500D02*
X24511000Y-144018000D01*
X24320500Y-144018000D02*
X23558500Y-144589500D01*
X23558500Y-144462500D02*
X24320500Y-144018000D01*
X24066500Y-144018000D02*
X23558500Y-144462500D01*
X23495000Y-144335500D02*
X24066500Y-144018000D01*
X24066500Y-143827500D02*
X23495000Y-144335500D01*
X24066500Y-143700500D02*
X23431500Y-144208500D01*
X24193500Y-143510000D02*
X23368000Y-144081500D01*
X24193500Y-143383000D02*
X23368000Y-143954500D01*
D17*
X22352000Y-144589500D02*
X21717000Y-143700500D01*
D13*
X24257000Y-144716500D02*
X22288500Y-144716500D01*
X25844500Y-143573500D02*
X24257000Y-144716500D01*
X24066500Y-144018000D02*
X25844500Y-143573500D01*
X24384000Y-143129000D02*
X24066500Y-144018000D01*
X23304500Y-143827500D02*
X24384000Y-143129000D01*
X22479000Y-142367000D02*
X23304500Y-143891000D01*
X22542500Y-143764000D02*
X22479000Y-142367000D01*
X21463000Y-143510000D02*
X22542500Y-143764000D01*
X22288500Y-144716500D02*
X21463000Y-143510000D01*
D17*
X22542500Y-144589500D02*
X21907500Y-143700500D01*
X22733000Y-144589500D02*
X22161500Y-143764000D01*
X22860000Y-144589500D02*
X22415500Y-143827500D01*
X23114000Y-144589500D02*
X22669500Y-143764000D01*
X23304500Y-144589500D02*
X22733000Y-143510000D01*
X23495000Y-144589500D02*
X22606000Y-142875000D01*
X22669500Y-143573500D02*
X22606000Y-142748000D01*
D18*
X15240000Y-83820000D03*
D19*
X15240000Y-86360000D03*
X15240000Y-88900000D03*
D18*
X17780000Y-83820000D03*
D19*
X17780000Y-86360000D03*
X17780000Y-88900000D03*
D18*
X22860000Y-83820000D03*
D19*
X22860000Y-86360000D03*
X22860000Y-88900000D03*
D18*
X25400000Y-83820000D03*
D19*
X25400000Y-86360000D03*
X25400000Y-88900000D03*
D18*
X20320000Y-83820000D03*
D19*
X20320000Y-86360000D03*
X20320000Y-88900000D03*
D20*
X12700000Y-86360000D03*
D21*
X12700000Y-88900000D03*
D22*
X26822000Y-132653500D03*
X26822000Y-130113500D03*
X26822000Y-127573500D03*
X26822000Y-125033500D03*
X26822000Y-122493500D03*
X26822000Y-119953500D03*
X26822000Y-117413500D03*
X26822000Y-114873500D03*
X26822000Y-112333500D03*
X26822000Y-109793500D03*
X26822000Y-107253500D03*
X26822000Y-104713500D03*
X26822000Y-102173500D03*
X26822000Y-99633500D03*
X11582000Y-99633500D03*
X11582000Y-107253500D03*
X11582000Y-127573500D03*
X11582000Y-112333500D03*
X11582000Y-109793500D03*
X11582000Y-130113500D03*
X11582000Y-122493500D03*
X11582000Y-132653500D03*
X11582000Y-119953500D03*
X11582000Y-117413500D03*
X11582000Y-114873500D03*
X11582000Y-125033500D03*
X11582000Y-102173500D03*
X11582000Y-104713500D03*
D23*
X3175000Y-115315000D03*
X3176000Y-123315000D03*
X3176000Y-139315000D03*
X3176000Y-107315000D03*
X3176000Y-147315000D03*
X3176000Y-131315000D03*
X3175000Y-99315000D03*
X3175000Y-91315000D03*
X3176000Y-155315000D03*
X11175000Y-155315000D03*
X19175000Y-155315000D03*
X27175000Y-155315000D03*
X19175000Y-75315000D03*
X27175000Y-75315000D03*
X3176000Y-75315000D03*
X11175000Y-75315000D03*
X35175000Y-75315000D03*
X35175000Y-91315000D03*
X35175000Y-99315000D03*
X35175000Y-107315000D03*
X35175000Y-115315000D03*
X35175000Y-123315000D03*
X35175000Y-131315000D03*
X35175000Y-139315000D03*
X35175000Y-147315000D03*
X35175000Y-155315000D03*
D22*
X11582000Y-97093500D03*
X26822000Y-97093500D03*
D23*
X3175000Y-83315000D03*
X35175000Y-83315000D03*
M02*
