M48
;DRILL file {KiCad 4.0.5-e0-6337~49~ubuntu16.04.1} date Tue May  9 22:33:45 2017
;FORMAT={-:-/ absolute / metric / decimal}
FMAT,2
METRIC,TZ
T1C0.330
T2C1.016
T3C4.980
%
G90
G05
M71
T1
X6.985Y-93.98
X9.95Y-81.832
X10.417Y-84.159
X11.175Y-138.05
X12.998Y-93.047
X15.24Y-151.765
X16.764Y-117.413
X16.871Y-97.937
X18.161Y-98.425
X19.05Y-100.965
X19.05Y-104.902
X20.955Y-127.635
X20.955Y-137.795
X22.86Y-132.715
X24.765Y-130.175
X28.213Y-83.82
X30.099Y-84.582
X30.48Y-81.534
X30.734Y-94.869
T2
X11.582Y-97.093
X11.582Y-99.633
X11.582Y-102.173
X11.582Y-104.713
X11.582Y-107.253
X11.582Y-109.793
X11.582Y-112.334
X11.582Y-114.873
X11.582Y-117.413
X11.582Y-119.953
X11.582Y-122.493
X11.582Y-125.033
X11.582Y-127.573
X11.582Y-130.113
X11.582Y-132.654
X12.7Y-86.36
X12.7Y-88.9
X15.24Y-83.82
X15.24Y-86.36
X15.24Y-88.9
X17.78Y-83.82
X17.78Y-86.36
X17.78Y-88.9
X20.32Y-83.82
X20.32Y-86.36
X20.32Y-88.9
X22.86Y-83.82
X22.86Y-86.36
X22.86Y-88.9
X25.4Y-83.82
X25.4Y-86.36
X25.4Y-88.9
X26.822Y-97.093
X26.822Y-99.633
X26.822Y-102.173
X26.822Y-104.713
X26.822Y-107.253
X26.822Y-109.793
X26.822Y-112.334
X26.822Y-114.873
X26.822Y-117.413
X26.822Y-119.953
X26.822Y-122.493
X26.822Y-125.033
X26.822Y-127.573
X26.822Y-130.113
X26.822Y-132.654
T3
X3.175Y-83.315
X3.175Y-91.315
X3.175Y-99.315
X3.175Y-115.315
X3.176Y-75.315
X3.176Y-107.315
X3.176Y-123.315
X3.176Y-131.315
X3.176Y-139.315
X3.176Y-147.315
X3.176Y-155.315
X11.175Y-75.315
X11.175Y-155.315
X19.175Y-75.315
X19.175Y-155.315
X27.175Y-75.315
X27.175Y-155.315
X35.175Y-75.315
X35.175Y-83.315
X35.175Y-91.315
X35.175Y-99.315
X35.175Y-107.315
X35.175Y-115.315
X35.175Y-123.315
X35.175Y-131.315
X35.175Y-139.315
X35.175Y-147.315
X35.175Y-155.315
T0
M30
