G04 This is an RS-274x file exported by *
G04 gerbv version 2.6.0 *
G04 More information is available about gerbv at *
G04 http://gerbv.gpleda.org/ *
G04 --End of header info--*
%MOIN*%
%FSLAX34Y34*%
%IPPOS*%
G04 --Define apertures--*
%ADD10C,0.0138*%
%ADD11C,0.0020*%
%ADD12C,0.0020*%
%ADD13C,0.0016*%
%ADD14C,0.0060*%
%ADD15C,0.0059*%
G04 --Start main section--*
G54D11*
G01X0006689Y-035717D02*
G01X0005311Y-035717D01*
G01X0006689Y-032311D02*
G01X0006689Y-035717D01*
G01X0005311Y-032311D02*
G01X0005311Y-035717D01*
G01X0006689Y-032311D02*
G01X0005311Y-032311D01*
G01X0007689Y-035717D02*
G01X0006311Y-035717D01*
G01X0007689Y-032311D02*
G01X0007689Y-035717D01*
G01X0006311Y-032311D02*
G01X0006311Y-035717D01*
G01X0007689Y-032311D02*
G01X0006311Y-032311D01*
G01X0009689Y-035717D02*
G01X0008311Y-035717D01*
G01X0009689Y-032311D02*
G01X0009689Y-035717D01*
G01X0008311Y-032311D02*
G01X0008311Y-035717D01*
G01X0009689Y-032311D02*
G01X0008311Y-032311D01*
G01X0010689Y-035717D02*
G01X0009311Y-035717D01*
G01X0010689Y-032311D02*
G01X0010689Y-035717D01*
G01X0009311Y-032311D02*
G01X0009311Y-035717D01*
G01X0010689Y-032311D02*
G01X0009311Y-032311D01*
G01X0008689Y-035717D02*
G01X0007311Y-035717D01*
G01X0008689Y-032311D02*
G01X0008689Y-035717D01*
G01X0007311Y-032311D02*
G01X0007311Y-035717D01*
G01X0008689Y-032311D02*
G01X0007311Y-032311D01*
G54D12*
G01X0005689Y-035673D02*
G01X0005689Y-033311D01*
G01X0005689Y-035673D02*
G01X0004311Y-035673D01*
G01X0004311Y-033311D02*
G01X0004311Y-035673D01*
G01X0005689Y-033311D02*
G01X0004311Y-033311D01*
G54D13*
G01X0009135Y-055579D02*
G01X0006065Y-055579D01*
G01X0009135Y-058650D02*
G01X0006065Y-058650D01*
G01X0010671Y-057115D02*
G75*
G03X0009135Y-055579I-001535J0000000D01*
G01X0009135Y-058650D02*
G75*
G03X0010671Y-057115I0000000J0001535D01*
G01X0004529Y-057115D02*
G75*
G03X0006065Y-058650I0001535J0000000D01*
G01X0006065Y-055579D02*
G75*
G03X0004529Y-057115I0000000J-001535D01*
G54D14*
G01X0006329Y-054559D02*
G01X0006829Y-054559D01*
G01X0003829Y-054559D02*
G01X0003829Y-053559D01*
G01X0006329Y-054559D02*
G01X0003829Y-054559D01*
G01X0006829Y-053559D02*
G01X0006829Y-054559D01*
G01X0008329Y-053559D02*
G01X0006829Y-053559D01*
G01X0008329Y-054559D02*
G01X0008329Y-053559D01*
G01X0011329Y-054559D02*
G01X0008329Y-054559D01*
G01X0011329Y-054059D02*
G01X0011329Y-054559D01*
G01X0011329Y-053559D02*
G01X0011329Y-054059D01*
G01X0010829Y-036559D02*
G01X0011329Y-036559D01*
G01X0010829Y-036559D02*
G01X0003829Y-036559D01*
G01X0011329Y-053559D02*
G01X0011329Y-036559D01*
G01X0003829Y-036559D02*
G01X0003829Y-053559D01*
G54D13*
G01X0001250Y-062683D02*
G01X0013848Y-062683D01*
G01X0013848Y-028116D02*
G01X0001250Y-028116D01*
G01X-000285Y-029652D02*
G01X-000285Y-061148D01*
G01X-000285Y-061150D02*
G75*
G03X0001250Y-062683I0001535J0000003D01*
G01X0001250Y-028116D02*
G75*
G03X-000285Y-029652I0000000J-001535D01*
G01X0015384Y-061148D02*
G01X0015384Y-029652D01*
G01X0015384Y-029649D02*
G75*
G03X0013848Y-028116I-001535J-000003D01*
G01X0013848Y-062683D02*
G75*
G03X0015384Y-061148I0000000J0001535D01*
G54D15*
G01X0005867Y-033966D02*
G01X0005867Y-034247D01*
G01X0005867Y-034247D02*
G01X0005848Y-034303D01*
G01X0005848Y-034303D02*
G01X0005811Y-034340D01*
G01X0005811Y-034340D02*
G01X0005755Y-034359D01*
G01X0005755Y-034359D02*
G01X0005717Y-034359D01*
G01X0006261Y-034359D02*
G01X0006036Y-034359D01*
G01X0006148Y-034359D02*
G01X0006148Y-033966D01*
G01X0006148Y-033966D02*
G01X0006111Y-034022D01*
G01X0006111Y-034022D02*
G01X0006073Y-034059D01*
G01X0006073Y-034059D02*
G01X0006036Y-034078D01*
G01X0006867Y-033966D02*
G01X0006867Y-034247D01*
G01X0006867Y-034247D02*
G01X0006848Y-034303D01*
G01X0006848Y-034303D02*
G01X0006811Y-034340D01*
G01X0006811Y-034340D02*
G01X0006755Y-034359D01*
G01X0006755Y-034359D02*
G01X0006717Y-034359D01*
G01X0007036Y-034003D02*
G01X0007055Y-033984D01*
G01X0007055Y-033984D02*
G01X0007092Y-033966D01*
G01X0007092Y-033966D02*
G01X0007186Y-033966D01*
G01X0007186Y-033966D02*
G01X0007223Y-033984D01*
G01X0007223Y-033984D02*
G01X0007242Y-034003D01*
G01X0007242Y-034003D02*
G01X0007261Y-034040D01*
G01X0007261Y-034040D02*
G01X0007261Y-034078D01*
G01X0007261Y-034078D02*
G01X0007242Y-034134D01*
G01X0007242Y-034134D02*
G01X0007017Y-034359D01*
G01X0007017Y-034359D02*
G01X0007261Y-034359D01*
G01X0008869Y-033984D02*
G01X0008869Y-034266D01*
G01X0008869Y-034266D02*
G01X0008850Y-034322D01*
G01X0008850Y-034322D02*
G01X0008813Y-034359D01*
G01X0008813Y-034359D02*
G01X0008756Y-034378D01*
G01X0008756Y-034378D02*
G01X0008719Y-034378D01*
G01X0009225Y-034116D02*
G01X0009225Y-034378D01*
G01X0009131Y-033966D02*
G01X0009037Y-034247D01*
G01X0009037Y-034247D02*
G01X0009281Y-034247D01*
G01X0009869Y-033966D02*
G01X0009869Y-034247D01*
G01X0009869Y-034247D02*
G01X0009850Y-034303D01*
G01X0009850Y-034303D02*
G01X0009813Y-034340D01*
G01X0009813Y-034340D02*
G01X0009756Y-034359D01*
G01X0009756Y-034359D02*
G01X0009719Y-034359D01*
G01X0010244Y-033966D02*
G01X0010056Y-033966D01*
G01X0010056Y-033966D02*
G01X0010037Y-034153D01*
G01X0010037Y-034153D02*
G01X0010056Y-034134D01*
G01X0010056Y-034134D02*
G01X0010094Y-034115D01*
G01X0010094Y-034115D02*
G01X0010187Y-034115D01*
G01X0010187Y-034115D02*
G01X0010225Y-034134D01*
G01X0010225Y-034134D02*
G01X0010244Y-034153D01*
G01X0010244Y-034153D02*
G01X0010262Y-034190D01*
G01X0010262Y-034190D02*
G01X0010262Y-034284D01*
G01X0010262Y-034284D02*
G01X0010244Y-034322D01*
G01X0010244Y-034322D02*
G01X0010225Y-034340D01*
G01X0010225Y-034340D02*
G01X0010187Y-034359D01*
G01X0010187Y-034359D02*
G01X0010094Y-034359D01*
G01X0010094Y-034359D02*
G01X0010056Y-034340D01*
G01X0010056Y-034340D02*
G01X0010037Y-034322D01*
G01X0007867Y-033966D02*
G01X0007867Y-034247D01*
G01X0007867Y-034247D02*
G01X0007848Y-034303D01*
G01X0007848Y-034303D02*
G01X0007811Y-034340D01*
G01X0007811Y-034340D02*
G01X0007755Y-034359D01*
G01X0007755Y-034359D02*
G01X0007717Y-034359D01*
G01X0008017Y-033966D02*
G01X0008261Y-033966D01*
G01X0008261Y-033966D02*
G01X0008130Y-034115D01*
G01X0008130Y-034115D02*
G01X0008186Y-034115D01*
G01X0008186Y-034115D02*
G01X0008223Y-034134D01*
G01X0008223Y-034134D02*
G01X0008242Y-034153D01*
G01X0008242Y-034153D02*
G01X0008261Y-034190D01*
G01X0008261Y-034190D02*
G01X0008261Y-034284D01*
G01X0008261Y-034284D02*
G01X0008242Y-034322D01*
G01X0008242Y-034322D02*
G01X0008223Y-034340D01*
G01X0008223Y-034340D02*
G01X0008186Y-034359D01*
G01X0008186Y-034359D02*
G01X0008073Y-034359D01*
G01X0008073Y-034359D02*
G01X0008036Y-034340D01*
G01X0008036Y-034340D02*
G01X0008017Y-034322D01*
G54D14*
G01X0004781Y-034625D02*
G01X0005067Y-034625D01*
G01X0005067Y-034625D02*
G01X0005124Y-034645D01*
G01X0005124Y-034645D02*
G01X0005162Y-034683D01*
G01X0005162Y-034683D02*
G01X0005181Y-034740D01*
G01X0005181Y-034740D02*
G01X0005181Y-034778D01*
G01X0004781Y-034264D02*
G01X0004781Y-034340D01*
G01X0004781Y-034340D02*
G01X0004800Y-034378D01*
G01X0004800Y-034378D02*
G01X0004819Y-034397D01*
G01X0004819Y-034397D02*
G01X0004876Y-034435D01*
G01X0004876Y-034435D02*
G01X0004952Y-034454D01*
G01X0004952Y-034454D02*
G01X0005105Y-034454D01*
G01X0005105Y-034454D02*
G01X0005143Y-034435D01*
G01X0005143Y-034435D02*
G01X0005162Y-034416D01*
G01X0005162Y-034416D02*
G01X0005181Y-034378D01*
G01X0005181Y-034378D02*
G01X0005181Y-034302D01*
G01X0005181Y-034302D02*
G01X0005162Y-034264D01*
G01X0005162Y-034264D02*
G01X0005143Y-034245D01*
G01X0005143Y-034245D02*
G01X0005105Y-034225D01*
G01X0005105Y-034225D02*
G01X0005010Y-034225D01*
G01X0005010Y-034225D02*
G01X0004971Y-034245D01*
G01X0004971Y-034245D02*
G01X0004952Y-034264D01*
G01X0004952Y-034264D02*
G01X0004933Y-034302D01*
G01X0004933Y-034302D02*
G01X0004933Y-034378D01*
G01X0004933Y-034378D02*
G01X0004952Y-034416D01*
G01X0004952Y-034416D02*
G01X0004971Y-034435D01*
G01X0004971Y-034435D02*
G01X0005010Y-034454D01*
G54D15*
G01X0007113Y-057439D02*
G01X0006925Y-057439D01*
G01X0006925Y-057439D02*
G01X0006925Y-057045D01*
G01X0007319Y-057045D02*
G01X0007394Y-057045D01*
G01X0007394Y-057045D02*
G01X0007431Y-057064D01*
G01X0007431Y-057064D02*
G01X0007469Y-057102D01*
G01X0007469Y-057102D02*
G01X0007488Y-057177D01*
G01X0007488Y-057177D02*
G01X0007488Y-057308D01*
G01X0007488Y-057308D02*
G01X0007469Y-057383D01*
G01X0007469Y-057383D02*
G01X0007431Y-057420D01*
G01X0007431Y-057420D02*
G01X0007394Y-057439D01*
G01X0007394Y-057439D02*
G01X0007319Y-057439D01*
G01X0007319Y-057439D02*
G01X0007281Y-057420D01*
G01X0007281Y-057420D02*
G01X0007244Y-057383D01*
G01X0007244Y-057383D02*
G01X0007225Y-057308D01*
G01X0007225Y-057308D02*
G01X0007225Y-057177D01*
G01X0007225Y-057177D02*
G01X0007244Y-057102D01*
G01X0007244Y-057102D02*
G01X0007281Y-057064D01*
G01X0007281Y-057064D02*
G01X0007319Y-057045D01*
G01X0007862Y-057064D02*
G01X0007825Y-057045D01*
G01X0007825Y-057045D02*
G01X0007769Y-057045D01*
G01X0007769Y-057045D02*
G01X0007712Y-057064D01*
G01X0007712Y-057064D02*
G01X0007675Y-057102D01*
G01X0007675Y-057102D02*
G01X0007656Y-057139D01*
G01X0007656Y-057139D02*
G01X0007637Y-057214D01*
G01X0007637Y-057214D02*
G01X0007637Y-057270D01*
G01X0007637Y-057270D02*
G01X0007656Y-057345D01*
G01X0007656Y-057345D02*
G01X0007675Y-057383D01*
G01X0007675Y-057383D02*
G01X0007712Y-057420D01*
G01X0007712Y-057420D02*
G01X0007769Y-057439D01*
G01X0007769Y-057439D02*
G01X0007806Y-057439D01*
G01X0007806Y-057439D02*
G01X0007862Y-057420D01*
G01X0007862Y-057420D02*
G01X0007881Y-057402D01*
G01X0007881Y-057402D02*
G01X0007881Y-057270D01*
G01X0007881Y-057270D02*
G01X0007806Y-057270D01*
G01X0008125Y-057045D02*
G01X0008200Y-057045D01*
G01X0008200Y-057045D02*
G01X0008237Y-057064D01*
G01X0008237Y-057064D02*
G01X0008275Y-057102D01*
G01X0008275Y-057102D02*
G01X0008294Y-057177D01*
G01X0008294Y-057177D02*
G01X0008294Y-057308D01*
G01X0008294Y-057308D02*
G01X0008275Y-057383D01*
G01X0008275Y-057383D02*
G01X0008237Y-057420D01*
G01X0008237Y-057420D02*
G01X0008200Y-057439D01*
G01X0008200Y-057439D02*
G01X0008125Y-057439D01*
G01X0008125Y-057439D02*
G01X0008087Y-057420D01*
G01X0008087Y-057420D02*
G01X0008050Y-057383D01*
G01X0008050Y-057383D02*
G01X0008031Y-057308D01*
G01X0008031Y-057308D02*
G01X0008031Y-057177D01*
G01X0008031Y-057177D02*
G01X0008050Y-057102D01*
G01X0008050Y-057102D02*
G01X0008087Y-057064D01*
G01X0008087Y-057064D02*
G01X0008125Y-057045D01*
G01X0005816Y-045296D02*
G01X0006004Y-045296D01*
G01X0005779Y-045408D02*
G01X0005910Y-045014D01*
G01X0005910Y-045014D02*
G01X0006041Y-045408D01*
G01X0006173Y-045408D02*
G01X0006173Y-045146D01*
G01X0006173Y-045221D02*
G01X0006191Y-045183D01*
G01X0006191Y-045183D02*
G01X0006210Y-045164D01*
G01X0006210Y-045164D02*
G01X0006248Y-045146D01*
G01X0006248Y-045146D02*
G01X0006285Y-045146D01*
G01X0006585Y-045408D02*
G01X0006585Y-045014D01*
G01X0006585Y-045389D02*
G01X0006548Y-045408D01*
G01X0006548Y-045408D02*
G01X0006473Y-045408D01*
G01X0006473Y-045408D02*
G01X0006435Y-045389D01*
G01X0006435Y-045389D02*
G01X0006416Y-045371D01*
G01X0006416Y-045371D02*
G01X0006398Y-045333D01*
G01X0006398Y-045333D02*
G01X0006398Y-045221D01*
G01X0006398Y-045221D02*
G01X0006416Y-045183D01*
G01X0006416Y-045183D02*
G01X0006435Y-045164D01*
G01X0006435Y-045164D02*
G01X0006473Y-045146D01*
G01X0006473Y-045146D02*
G01X0006548Y-045146D01*
G01X0006548Y-045146D02*
G01X0006585Y-045164D01*
G01X0006941Y-045146D02*
G01X0006941Y-045408D01*
G01X0006773Y-045146D02*
G01X0006773Y-045352D01*
G01X0006773Y-045352D02*
G01X0006791Y-045389D01*
G01X0006791Y-045389D02*
G01X0006829Y-045408D01*
G01X0006829Y-045408D02*
G01X0006885Y-045408D01*
G01X0006885Y-045408D02*
G01X0006923Y-045389D01*
G01X0006923Y-045389D02*
G01X0006941Y-045371D01*
G01X0007129Y-045408D02*
G01X0007129Y-045146D01*
G01X0007129Y-045014D02*
G01X0007110Y-045033D01*
G01X0007110Y-045033D02*
G01X0007129Y-045052D01*
G01X0007129Y-045052D02*
G01X0007148Y-045033D01*
G01X0007148Y-045033D02*
G01X0007129Y-045014D01*
G01X0007129Y-045014D02*
G01X0007129Y-045052D01*
G01X0007316Y-045146D02*
G01X0007316Y-045408D01*
G01X0007316Y-045183D02*
G01X0007335Y-045164D01*
G01X0007335Y-045164D02*
G01X0007373Y-045146D01*
G01X0007373Y-045146D02*
G01X0007429Y-045146D01*
G01X0007429Y-045146D02*
G01X0007466Y-045164D01*
G01X0007466Y-045164D02*
G01X0007485Y-045202D01*
G01X0007485Y-045202D02*
G01X0007485Y-045408D01*
G01X0007729Y-045408D02*
G01X0007691Y-045389D01*
G01X0007691Y-045389D02*
G01X0007672Y-045371D01*
G01X0007672Y-045371D02*
G01X0007654Y-045333D01*
G01X0007654Y-045333D02*
G01X0007654Y-045221D01*
G01X0007654Y-045221D02*
G01X0007672Y-045183D01*
G01X0007672Y-045183D02*
G01X0007691Y-045164D01*
G01X0007691Y-045164D02*
G01X0007729Y-045146D01*
G01X0007729Y-045146D02*
G01X0007785Y-045146D01*
G01X0007785Y-045146D02*
G01X0007822Y-045164D01*
G01X0007822Y-045164D02*
G01X0007841Y-045183D01*
G01X0007841Y-045183D02*
G01X0007860Y-045221D01*
G01X0007860Y-045221D02*
G01X0007860Y-045333D01*
G01X0007860Y-045333D02*
G01X0007841Y-045371D01*
G01X0007841Y-045371D02*
G01X0007822Y-045389D01*
G01X0007822Y-045389D02*
G01X0007785Y-045408D01*
G01X0007785Y-045408D02*
G01X0007729Y-045408D01*
G01X0008329Y-045408D02*
G01X0008329Y-045014D01*
G01X0008329Y-045014D02*
G01X0008554Y-045408D01*
G01X0008554Y-045408D02*
G01X0008554Y-045014D01*
G01X0008910Y-045408D02*
G01X0008910Y-045202D01*
G01X0008910Y-045202D02*
G01X0008891Y-045164D01*
G01X0008891Y-045164D02*
G01X0008854Y-045146D01*
G01X0008854Y-045146D02*
G01X0008779Y-045146D01*
G01X0008779Y-045146D02*
G01X0008741Y-045164D01*
G01X0008910Y-045389D02*
G01X0008872Y-045408D01*
G01X0008872Y-045408D02*
G01X0008779Y-045408D01*
G01X0008779Y-045408D02*
G01X0008741Y-045389D01*
G01X0008741Y-045389D02*
G01X0008722Y-045352D01*
G01X0008722Y-045352D02*
G01X0008722Y-045314D01*
G01X0008722Y-045314D02*
G01X0008741Y-045277D01*
G01X0008741Y-045277D02*
G01X0008779Y-045258D01*
G01X0008779Y-045258D02*
G01X0008872Y-045258D01*
G01X0008872Y-045258D02*
G01X0008910Y-045239D01*
G01X0009097Y-045146D02*
G01X0009097Y-045408D01*
G01X0009097Y-045183D02*
G01X0009116Y-045164D01*
G01X0009116Y-045164D02*
G01X0009154Y-045146D01*
G01X0009154Y-045146D02*
G01X0009210Y-045146D01*
G01X0009210Y-045146D02*
G01X0009247Y-045164D01*
G01X0009247Y-045164D02*
G01X0009266Y-045202D01*
G01X0009266Y-045202D02*
G01X0009266Y-045408D01*
G01X0009510Y-045408D02*
G01X0009472Y-045389D01*
G01X0009472Y-045389D02*
G01X0009454Y-045371D01*
G01X0009454Y-045371D02*
G01X0009435Y-045333D01*
G01X0009435Y-045333D02*
G01X0009435Y-045221D01*
G01X0009435Y-045221D02*
G01X0009454Y-045183D01*
G01X0009454Y-045183D02*
G01X0009472Y-045164D01*
G01X0009472Y-045164D02*
G01X0009510Y-045146D01*
G01X0009510Y-045146D02*
G01X0009566Y-045146D01*
G01X0009566Y-045146D02*
G01X0009604Y-045164D01*
G01X0009604Y-045164D02*
G01X0009622Y-045183D01*
G01X0009622Y-045183D02*
G01X0009641Y-045221D01*
G01X0009641Y-045221D02*
G01X0009641Y-045333D01*
G01X0009641Y-045333D02*
G01X0009622Y-045371D01*
G01X0009622Y-045371D02*
G01X0009604Y-045389D01*
G01X0009604Y-045389D02*
G01X0009566Y-045408D01*
G01X0009566Y-045408D02*
G01X0009510Y-045408D01*
G01X0000000Y0000000D02*
G54D13*
G01X0001250Y-062683D02*
G01X0013848Y-062683D01*
G01X0013848Y-028116D02*
G01X0001250Y-028116D01*
G01X-000285Y-029612D02*
G01X-000285Y-061148D01*
G01X-000285Y-061150D02*
G75*
G03X0001250Y-062683I0001535J0000003D01*
G01X0001250Y-028116D02*
G75*
G03X-000285Y-029652I0000000J-001535D01*
G01X0015384Y-061148D02*
G01X0015384Y-029652D01*
G01X0015384Y-029649D02*
G75*
G03X0013848Y-028116I-001535J-000003D01*
G01X0013848Y-062683D02*
G75*
G03X0015384Y-061148I0000000J0001535D01*
M02*
