%TF.GenerationSoftware,KiCad,Pcbnew,4.0.7-e2-6376~58~ubuntu16.04.1*%
%TF.CreationDate,2018-02-04T09:09:20-08:00*%
%TF.ProjectId,5x11-Arduino-Nano-Robot-Version,357831312D41726475696E6F2D4E616E,v1.5*%
%TF.FileFunction,Copper,L1,Top,Signal*%
%FSLAX46Y46*%
G04 Gerber Fmt 4.6, Leading zero omitted, Abs format (unit mm)*
G04 Created by KiCad (PCBNEW 4.0.7-e2-6376~58~ubuntu16.04.1) date Sun Feb  4 09:09:20 2018*
%MOMM*%
%LPD*%
G01*
G04 APERTURE LIST*
%ADD10C,0.350000*%
%ADD11C,1.727200*%
%ADD12C,6.000000*%
%ADD13R,2.032000X1.727200*%
%ADD14O,2.032000X1.727200*%
%ADD15R,2.032000X2.032000*%
%ADD16O,2.032000X2.032000*%
%ADD17O,15.240000X7.620000*%
%ADD18C,0.685800*%
%ADD19C,0.254000*%
%ADD20C,0.330200*%
%ADD21C,0.350000*%
G04 APERTURE END LIST*
D10*
D11*
X26822000Y-132653500D03*
X26822000Y-130113500D03*
X26822000Y-127573500D03*
X26822000Y-125033500D03*
X26822000Y-122493500D03*
X26822000Y-119953500D03*
X26822000Y-117413500D03*
X26822000Y-114873500D03*
X26822000Y-112333500D03*
X26822000Y-109793500D03*
X26822000Y-107253500D03*
X26822000Y-104713500D03*
X26822000Y-102173500D03*
X26822000Y-99633500D03*
X11582000Y-99633500D03*
X11582000Y-107253500D03*
X11582000Y-127573500D03*
X11582000Y-112333500D03*
X11582000Y-109793500D03*
X11582000Y-130113500D03*
X11582000Y-122493500D03*
X11582000Y-132653500D03*
X11582000Y-119953500D03*
X11582000Y-117413500D03*
X11582000Y-114873500D03*
X11582000Y-125033500D03*
X11582000Y-102173500D03*
X11582000Y-104713500D03*
D12*
X3175000Y-115315000D03*
X3176000Y-123315000D03*
X3176000Y-139315000D03*
X3176000Y-107315000D03*
X3176000Y-147315000D03*
X3176000Y-131315000D03*
X3175000Y-99315000D03*
X3175000Y-91315000D03*
X3176000Y-155315000D03*
X11175000Y-155315000D03*
X19175000Y-155315000D03*
X27175000Y-155315000D03*
X19175000Y-75315000D03*
X27175000Y-75315000D03*
X3176000Y-75315000D03*
X11175000Y-75315000D03*
X35175000Y-75315000D03*
X35175000Y-91315000D03*
X35175000Y-99315000D03*
X35175000Y-107315000D03*
X35175000Y-115315000D03*
X35175000Y-123315000D03*
X35175000Y-131315000D03*
X35175000Y-139315000D03*
X35175000Y-147315000D03*
X35175000Y-155315000D03*
D11*
X11582000Y-97093500D03*
X26822000Y-97093500D03*
D12*
X3175000Y-83315000D03*
X35175000Y-83315000D03*
D13*
X15240000Y-83820000D03*
D14*
X15240000Y-86360000D03*
X15240000Y-88900000D03*
D13*
X17780000Y-83820000D03*
D14*
X17780000Y-86360000D03*
X17780000Y-88900000D03*
D13*
X22860000Y-83820000D03*
D14*
X22860000Y-86360000D03*
X22860000Y-88900000D03*
D13*
X25400000Y-83820000D03*
D14*
X25400000Y-86360000D03*
X25400000Y-88900000D03*
D13*
X20320000Y-83820000D03*
D14*
X20320000Y-86360000D03*
X20320000Y-88900000D03*
D15*
X12700000Y-86360000D03*
D16*
X12700000Y-88900000D03*
D17*
X19431000Y-144907000D03*
D18*
X19050000Y-104902000D03*
X19050000Y-100965000D03*
X15240000Y-151765000D03*
X10416595Y-84158645D03*
X12997620Y-93047380D03*
X16871120Y-97936880D03*
X9949620Y-81831620D03*
X16764000Y-117413500D03*
X28213090Y-83820000D03*
X24765000Y-130175000D03*
X6985000Y-93980000D03*
X18161000Y-98425000D03*
X22860000Y-132715000D03*
X20955000Y-127635000D03*
X30099000Y-84582000D03*
X30480000Y-81534000D03*
X20955000Y-137795000D03*
X11175000Y-138050000D03*
D19*
X3175000Y-99315000D02*
X3175000Y-101386500D01*
X3175000Y-101386500D02*
X11582000Y-109793500D01*
X19050000Y-104902000D02*
X11770500Y-104902000D01*
X11770500Y-104902000D02*
X11582000Y-104713500D01*
X19050000Y-99633500D02*
X19050000Y-100965000D01*
X26822000Y-99633500D02*
X19050000Y-99633500D01*
X19050000Y-88900000D02*
X19050000Y-99633500D01*
X19050000Y-88900000D02*
X17780000Y-88900000D01*
X35175000Y-75315000D02*
X27178000Y-83312000D01*
X27178000Y-87274400D02*
X25552400Y-88900000D01*
X27178000Y-83312000D02*
X27178000Y-87274400D01*
X25552400Y-88900000D02*
X25400000Y-88900000D01*
X25400000Y-88900000D02*
X22860000Y-88900000D01*
X22860000Y-88900000D02*
X20320000Y-88900000D01*
X20320000Y-88900000D02*
X19050000Y-88900000D01*
X17780000Y-88900000D02*
X15240000Y-88900000D01*
X12700000Y-88900000D02*
X15240000Y-88900000D01*
X6726000Y-151765000D02*
X15240000Y-151765000D01*
X3176000Y-155315000D02*
X6726000Y-151765000D01*
X10416595Y-84158645D02*
X10416595Y-90466355D01*
X10416595Y-90466355D02*
X12654721Y-92704481D01*
X12654721Y-92704481D02*
X12997620Y-93047380D01*
X3175000Y-115315000D02*
X11140500Y-115315000D01*
X11140500Y-115315000D02*
X11582000Y-114873500D01*
X9544011Y-90824011D02*
X16313981Y-97593981D01*
X9544011Y-82237229D02*
X9544011Y-90824011D01*
X16528221Y-97593981D02*
X16871120Y-97936880D01*
X9949620Y-81831620D02*
X9544011Y-82237229D01*
X16313981Y-97593981D02*
X16528221Y-97593981D01*
X11582000Y-117413500D02*
X12803314Y-117413500D01*
X12803314Y-117413500D02*
X16764000Y-117413500D01*
X11582000Y-117413500D02*
X9077500Y-117413500D01*
X9077500Y-117413500D02*
X3176000Y-123315000D01*
X28213090Y-84304933D02*
X28213090Y-83820000D01*
X28213090Y-84353090D02*
X28213090Y-84304933D01*
X35175000Y-91315000D02*
X28213090Y-84353090D01*
X7473989Y-90821899D02*
X7473989Y-79612989D01*
X6175999Y-78314999D02*
X3176000Y-75315000D01*
X12934989Y-96282899D02*
X7473989Y-90821899D01*
X12934989Y-96409900D02*
X12934989Y-96282899D01*
X12972601Y-98242899D02*
X12972601Y-96447512D01*
X7473989Y-79612989D02*
X6175999Y-78314999D01*
X11582000Y-99633500D02*
X12972601Y-98242899D01*
X12972601Y-96447512D02*
X12934989Y-96409900D01*
X11582000Y-97093500D02*
X6702001Y-92213501D01*
X6702001Y-92213501D02*
X6702001Y-86842001D01*
X6702001Y-86842001D02*
X3175000Y-83315000D01*
X10718401Y-106389901D02*
X11582000Y-107253500D01*
X6702001Y-94984457D02*
X6702001Y-102373501D01*
X6174999Y-94457455D02*
X6702001Y-94984457D01*
X6174999Y-94314999D02*
X6174999Y-94457455D01*
X3175000Y-91315000D02*
X6174999Y-94314999D01*
X6702001Y-102373501D02*
X10718401Y-106389901D01*
X12700000Y-150495000D02*
X22355000Y-150495000D01*
X22355000Y-150495000D02*
X27175000Y-155315000D01*
X10191399Y-147986399D02*
X12700000Y-150495000D01*
X11582000Y-127573500D02*
X10191399Y-128964101D01*
X10191399Y-128964101D02*
X10191399Y-147986399D01*
X3176000Y-107315000D02*
X8194500Y-112333500D01*
X8194500Y-112333500D02*
X11582000Y-112333500D01*
X19431000Y-130113500D02*
X11582000Y-130113500D01*
X19623500Y-130113500D02*
X19431000Y-130113500D01*
X24703500Y-130113500D02*
X24765000Y-130175000D01*
X19431000Y-130113500D02*
X24703500Y-130113500D01*
X8235989Y-134255011D02*
X6175999Y-136315001D01*
X6175999Y-136315001D02*
X3176000Y-139315000D01*
X8235989Y-127454600D02*
X8235989Y-134255011D01*
X8235990Y-125839510D02*
X8235989Y-127454600D01*
X11582000Y-122493500D02*
X8235990Y-125839510D01*
X11582000Y-132653500D02*
X20513500Y-132653500D01*
X20513500Y-132653500D02*
X35175000Y-147315000D01*
X11582000Y-119953500D02*
X3176000Y-128359500D01*
X3176000Y-128359500D02*
X3176000Y-131315000D01*
X8890000Y-127725500D02*
X8890000Y-141601000D01*
X8890000Y-141601000D02*
X3176000Y-147315000D01*
X11582000Y-125033500D02*
X8890000Y-127725500D01*
X26822000Y-102173500D02*
X11582000Y-102173500D01*
X10191399Y-97186399D02*
X6985000Y-93980000D01*
X11582000Y-102173500D02*
X10191399Y-100782899D01*
X10191399Y-100782899D02*
X10191399Y-97186399D01*
X16637000Y-98933000D02*
X17653000Y-98933000D01*
X17653000Y-98933000D02*
X18161000Y-98425000D01*
X16383000Y-98679000D02*
X16637000Y-98933000D01*
X13589000Y-95885000D02*
X16383000Y-98679000D01*
X8509000Y-90805000D02*
X13589000Y-95885000D01*
X8509000Y-82042000D02*
X8509000Y-90805000D01*
X10287000Y-80264000D02*
X8509000Y-82042000D01*
X14226000Y-80264000D02*
X10287000Y-80264000D01*
X19175000Y-75315000D02*
X14226000Y-80264000D01*
X22860000Y-132715000D02*
X24220500Y-132715000D01*
X24220500Y-132715000D02*
X26822000Y-130113500D01*
X26822000Y-127573500D02*
X21016500Y-127573500D01*
X21016500Y-127573500D02*
X20955000Y-127635000D01*
X30480000Y-83947000D02*
X30480000Y-84201000D01*
X30480000Y-84201000D02*
X30099000Y-84582000D01*
X30480000Y-81534000D02*
X30480000Y-83947000D01*
X25400000Y-86360000D02*
X22860000Y-86360000D01*
X22860000Y-86360000D02*
X20320000Y-86360000D01*
X20320000Y-86360000D02*
X17780000Y-86360000D01*
X15240000Y-86360000D02*
X17780000Y-86360000D01*
X12700000Y-86360000D02*
X15240000Y-86360000D01*
X11175000Y-138050000D02*
X20700000Y-138050000D01*
X20700000Y-138050000D02*
X20955000Y-137795000D01*
D20*
X19050000Y-104902000D03*
X19050000Y-100965000D03*
X15240000Y-151765000D03*
X10416595Y-84158645D03*
X12997620Y-93047380D03*
X16871120Y-97936880D03*
X9949620Y-81831620D03*
X16764000Y-117413500D03*
X28213090Y-83820000D03*
X24765000Y-130175000D03*
X6985000Y-93980000D03*
X18161000Y-98425000D03*
X22860000Y-132715000D03*
X20955000Y-127635000D03*
X30099000Y-84582000D03*
X30480000Y-81534000D03*
X20955000Y-137795000D03*
X11175000Y-138050000D03*
D21*
X26822000Y-132653500D03*
X26822000Y-130113500D03*
X26822000Y-127573500D03*
X26822000Y-125033500D03*
X26822000Y-122493500D03*
X26822000Y-119953500D03*
X26822000Y-117413500D03*
X26822000Y-114873500D03*
X26822000Y-112333500D03*
X26822000Y-109793500D03*
X26822000Y-107253500D03*
X26822000Y-104713500D03*
X26822000Y-102173500D03*
X26822000Y-99633500D03*
X11582000Y-99633500D03*
X11582000Y-107253500D03*
X11582000Y-127573500D03*
X11582000Y-112333500D03*
X11582000Y-109793500D03*
X11582000Y-130113500D03*
X11582000Y-122493500D03*
X11582000Y-132653500D03*
X11582000Y-119953500D03*
X11582000Y-117413500D03*
X11582000Y-114873500D03*
X11582000Y-125033500D03*
X11582000Y-102173500D03*
X11582000Y-104713500D03*
X3175000Y-115315000D03*
X3176000Y-123315000D03*
X3176000Y-139315000D03*
X3176000Y-107315000D03*
X3176000Y-147315000D03*
X3176000Y-131315000D03*
X3175000Y-99315000D03*
X3175000Y-91315000D03*
X3176000Y-155315000D03*
X11175000Y-155315000D03*
X19175000Y-155315000D03*
X27175000Y-155315000D03*
X19175000Y-75315000D03*
X27175000Y-75315000D03*
X3176000Y-75315000D03*
X11175000Y-75315000D03*
X35175000Y-75315000D03*
X35175000Y-91315000D03*
X35175000Y-99315000D03*
X35175000Y-107315000D03*
X35175000Y-115315000D03*
X35175000Y-123315000D03*
X35175000Y-131315000D03*
X35175000Y-139315000D03*
X35175000Y-147315000D03*
X35175000Y-155315000D03*
X11582000Y-97093500D03*
X26822000Y-97093500D03*
X3175000Y-83315000D03*
X35175000Y-83315000D03*
X15240000Y-83820000D03*
X15240000Y-86360000D03*
X15240000Y-88900000D03*
X17780000Y-83820000D03*
X17780000Y-86360000D03*
X17780000Y-88900000D03*
X22860000Y-83820000D03*
X22860000Y-86360000D03*
X22860000Y-88900000D03*
X25400000Y-83820000D03*
X25400000Y-86360000D03*
X25400000Y-88900000D03*
X20320000Y-83820000D03*
X20320000Y-86360000D03*
X20320000Y-88900000D03*
X12700000Y-86360000D03*
X12700000Y-88900000D03*
M02*
