G04 #@! TF.FileFunction,Soldermask,Top*
%FSLAX46Y46*%
G04 Gerber Fmt 4.6, Leading zero omitted, Abs format (unit mm)*
G04 Created by KiCad (PCBNEW (2015-08-15 BZR 6092)-product) date 2/28/2016 12:14:40 PM*
%MOMM*%
G01*
G04 APERTURE LIST*
%ADD10C,0.100000*%
%ADD11C,0.889000*%
%ADD12C,0.010000*%
%ADD13C,1.676400*%
%ADD14C,0.330200*%
%ADD15C,1.700000*%
%ADD16O,1.600000X1.600000*%
%ADD17C,1.998980*%
%ADD18C,4.876800*%
%ADD19R,0.500000X3.000000*%
%ADD20R,0.500000X1.800000*%
%ADD21C,4.000000*%
%ADD22C,17.780000*%
%ADD23R,1.778000X5.080000*%
%ADD24C,6.500000*%
%ADD25C,1.524000*%
%ADD26C,2.000000*%
G04 APERTURE END LIST*
D10*
D11*
X166900000Y-57900000D02*
G75*
G03X170900000Y-58100000I2100000J1900000D01*
G01*
X171000000Y-58000000D02*
G75*
G03X171000000Y-54000000I-2000000J2000000D01*
G01*
X170900000Y-42100000D02*
G75*
G03X171100000Y-38100000I-1900000J2100000D01*
G01*
X171000000Y-38000000D02*
G75*
G03X167000000Y-38000000I-2000000J-2000000D01*
G01*
D12*
G36*
X112004159Y-57015412D02*
X112014000Y-57089658D01*
X112035882Y-57208858D01*
X112090476Y-57362617D01*
X112111588Y-57409101D01*
X112209177Y-57611086D01*
X112634924Y-57672643D01*
X112850081Y-57701435D01*
X113041923Y-57723023D01*
X113176355Y-57733680D01*
X113197736Y-57734200D01*
X113297959Y-57747446D01*
X113334800Y-57775645D01*
X113375231Y-57822799D01*
X113477820Y-57895346D01*
X113543755Y-57934530D01*
X113664136Y-57995069D01*
X113775136Y-58026117D01*
X113912181Y-58032614D01*
X114110696Y-58019501D01*
X114136513Y-58017191D01*
X114351786Y-57989961D01*
X114551337Y-57951601D01*
X114692920Y-57910277D01*
X114695761Y-57909106D01*
X114841055Y-57853446D01*
X114920890Y-57847584D01*
X114962100Y-57898839D01*
X114985800Y-57988200D01*
X115020602Y-58094784D01*
X115058147Y-58140567D01*
X115058977Y-58140600D01*
X115112068Y-58183607D01*
X115178799Y-58290096D01*
X115243507Y-58426264D01*
X115290533Y-58558309D01*
X115304213Y-58652429D01*
X115301474Y-58663979D01*
X115229145Y-58750824D01*
X115084683Y-58856068D01*
X114892539Y-58966569D01*
X114677159Y-59069185D01*
X114462992Y-59150775D01*
X114325400Y-59188663D01*
X113693191Y-59296078D01*
X113114391Y-59331232D01*
X112571935Y-59295048D01*
X112513996Y-59286789D01*
X112294494Y-59251709D01*
X112097379Y-59216450D01*
X111956552Y-59187191D01*
X111929796Y-59180352D01*
X111813834Y-59153769D01*
X111747300Y-59148266D01*
X111710461Y-59118471D01*
X111709200Y-59105800D01*
X111666658Y-59064506D01*
X111607746Y-59055000D01*
X111513569Y-59022377D01*
X111384602Y-58939031D01*
X111307037Y-58874984D01*
X111153596Y-58706955D01*
X111074929Y-58535698D01*
X111069268Y-58341659D01*
X111134844Y-58105281D01*
X111219697Y-57909385D01*
X111316844Y-57732415D01*
X111444021Y-57538613D01*
X111585855Y-57347166D01*
X111726971Y-57177261D01*
X111851998Y-57048085D01*
X111945563Y-56978828D01*
X111970568Y-56972200D01*
X112004159Y-57015412D01*
X112004159Y-57015412D01*
G37*
X112004159Y-57015412D02*
X112014000Y-57089658D01*
X112035882Y-57208858D01*
X112090476Y-57362617D01*
X112111588Y-57409101D01*
X112209177Y-57611086D01*
X112634924Y-57672643D01*
X112850081Y-57701435D01*
X113041923Y-57723023D01*
X113176355Y-57733680D01*
X113197736Y-57734200D01*
X113297959Y-57747446D01*
X113334800Y-57775645D01*
X113375231Y-57822799D01*
X113477820Y-57895346D01*
X113543755Y-57934530D01*
X113664136Y-57995069D01*
X113775136Y-58026117D01*
X113912181Y-58032614D01*
X114110696Y-58019501D01*
X114136513Y-58017191D01*
X114351786Y-57989961D01*
X114551337Y-57951601D01*
X114692920Y-57910277D01*
X114695761Y-57909106D01*
X114841055Y-57853446D01*
X114920890Y-57847584D01*
X114962100Y-57898839D01*
X114985800Y-57988200D01*
X115020602Y-58094784D01*
X115058147Y-58140567D01*
X115058977Y-58140600D01*
X115112068Y-58183607D01*
X115178799Y-58290096D01*
X115243507Y-58426264D01*
X115290533Y-58558309D01*
X115304213Y-58652429D01*
X115301474Y-58663979D01*
X115229145Y-58750824D01*
X115084683Y-58856068D01*
X114892539Y-58966569D01*
X114677159Y-59069185D01*
X114462992Y-59150775D01*
X114325400Y-59188663D01*
X113693191Y-59296078D01*
X113114391Y-59331232D01*
X112571935Y-59295048D01*
X112513996Y-59286789D01*
X112294494Y-59251709D01*
X112097379Y-59216450D01*
X111956552Y-59187191D01*
X111929796Y-59180352D01*
X111813834Y-59153769D01*
X111747300Y-59148266D01*
X111710461Y-59118471D01*
X111709200Y-59105800D01*
X111666658Y-59064506D01*
X111607746Y-59055000D01*
X111513569Y-59022377D01*
X111384602Y-58939031D01*
X111307037Y-58874984D01*
X111153596Y-58706955D01*
X111074929Y-58535698D01*
X111069268Y-58341659D01*
X111134844Y-58105281D01*
X111219697Y-57909385D01*
X111316844Y-57732415D01*
X111444021Y-57538613D01*
X111585855Y-57347166D01*
X111726971Y-57177261D01*
X111851998Y-57048085D01*
X111945563Y-56978828D01*
X111970568Y-56972200D01*
X112004159Y-57015412D01*
G36*
X112878400Y-53192202D02*
X112906677Y-53239588D01*
X112912804Y-53260448D01*
X112957538Y-53337771D01*
X113001844Y-53348086D01*
X113078556Y-53329269D01*
X113226000Y-53300744D01*
X113414479Y-53268197D01*
X113445022Y-53263228D01*
X113726390Y-53232608D01*
X113983951Y-53242038D01*
X114248497Y-53296561D01*
X114550817Y-53401219D01*
X114722173Y-53472374D01*
X114953661Y-53562538D01*
X115202395Y-53644509D01*
X115403882Y-53697985D01*
X115763910Y-53799996D01*
X116050740Y-53942395D01*
X116289801Y-54141173D01*
X116480557Y-54375013D01*
X116632572Y-54524731D01*
X116853853Y-54656878D01*
X116886054Y-54671551D01*
X117116939Y-54784340D01*
X117261896Y-54885043D01*
X117333935Y-54984672D01*
X117347959Y-55062373D01*
X117320702Y-55199743D01*
X117250274Y-55378227D01*
X117153573Y-55566249D01*
X117047494Y-55732236D01*
X116948934Y-55844612D01*
X116917769Y-55866274D01*
X116818145Y-55943514D01*
X116679758Y-56082920D01*
X116520882Y-56262578D01*
X116359790Y-56460575D01*
X116214758Y-56654997D01*
X116104057Y-56823930D01*
X116074424Y-56877609D01*
X115985974Y-57014416D01*
X115888480Y-57114657D01*
X115865337Y-57129663D01*
X115773836Y-57160095D01*
X115700602Y-57118846D01*
X115662966Y-57075753D01*
X115556237Y-56886420D01*
X115495487Y-56632973D01*
X115478786Y-56304272D01*
X115488813Y-56070500D01*
X115497747Y-55854134D01*
X115492929Y-55698325D01*
X115477434Y-55611419D01*
X115454333Y-55601766D01*
X115426700Y-55677714D01*
X115400054Y-55829362D01*
X115315415Y-56139816D01*
X115150359Y-56465471D01*
X114998063Y-56682761D01*
X114914995Y-56793666D01*
X114875568Y-56879660D01*
X114872916Y-56979214D01*
X114900175Y-57130799D01*
X114909901Y-57176818D01*
X114942151Y-57447424D01*
X114906828Y-57646166D01*
X114802159Y-57778597D01*
X114701092Y-57830037D01*
X114502842Y-57876684D01*
X114253797Y-57905146D01*
X114002187Y-57912165D01*
X113796243Y-57894484D01*
X113783672Y-57892007D01*
X113619184Y-57841738D01*
X113475263Y-57773012D01*
X113469435Y-57769274D01*
X113355399Y-57719986D01*
X113178117Y-57670596D01*
X112975395Y-57631585D01*
X112969763Y-57630750D01*
X112685093Y-57583349D01*
X112483247Y-57534384D01*
X112345572Y-57477265D01*
X112253415Y-57405405D01*
X112221874Y-57366571D01*
X112163549Y-57257199D01*
X113118282Y-57257199D01*
X113123211Y-57288867D01*
X113125889Y-57291609D01*
X113209103Y-57325635D01*
X113341510Y-57338094D01*
X113356345Y-57337722D01*
X113483383Y-57346020D01*
X113560265Y-57375128D01*
X113564402Y-57380221D01*
X113635919Y-57422973D01*
X113680698Y-57428622D01*
X113735418Y-57418829D01*
X113696591Y-57383501D01*
X113649697Y-57322813D01*
X113653987Y-57294819D01*
X113648768Y-57224355D01*
X113609695Y-57152430D01*
X113556386Y-57090944D01*
X113538737Y-57113153D01*
X113538000Y-57135534D01*
X113506311Y-57193892D01*
X113436400Y-57190119D01*
X113352819Y-57192742D01*
X113334800Y-57226197D01*
X113292366Y-57267930D01*
X113203948Y-57263830D01*
X113118282Y-57257199D01*
X112163549Y-57257199D01*
X112159930Y-57250413D01*
X112102273Y-57095538D01*
X112058904Y-56936967D01*
X112057115Y-56925028D01*
X112928400Y-56925028D01*
X112939858Y-57050925D01*
X112968423Y-57120049D01*
X112979200Y-57124600D01*
X113078537Y-57104005D01*
X113091529Y-57055189D01*
X113105847Y-56984429D01*
X113154059Y-56893357D01*
X113206001Y-56829080D01*
X113273073Y-56797123D01*
X113384801Y-56790557D01*
X113548771Y-56800692D01*
X113777837Y-56834782D01*
X113929680Y-56901768D01*
X114026602Y-57014110D01*
X114059516Y-57086099D01*
X114055872Y-57165847D01*
X113967682Y-57239002D01*
X113942651Y-57252503D01*
X113840508Y-57312005D01*
X113792521Y-57353116D01*
X113792000Y-57355472D01*
X113833077Y-57362131D01*
X113926816Y-57347594D01*
X114028974Y-57321202D01*
X114095311Y-57292294D01*
X114096667Y-57291152D01*
X114116986Y-57220058D01*
X114116509Y-57089972D01*
X114099539Y-56940354D01*
X114070382Y-56810662D01*
X114036897Y-56743231D01*
X113960698Y-56709394D01*
X113814186Y-56669070D01*
X113627850Y-56628453D01*
X113432183Y-56593738D01*
X113257675Y-56571119D01*
X113163543Y-56565800D01*
X113044224Y-56611800D01*
X112961209Y-56735577D01*
X112928467Y-56915791D01*
X112928400Y-56925028D01*
X112057115Y-56925028D01*
X112039829Y-56809726D01*
X112047471Y-56755939D01*
X112058078Y-56691340D01*
X112068174Y-56544736D01*
X112076811Y-56335721D01*
X112083043Y-56083890D01*
X112084462Y-55990701D01*
X112086546Y-55746064D01*
X112086118Y-55554426D01*
X112083384Y-55429827D01*
X112078731Y-55387897D01*
X114508390Y-55387897D01*
X114540544Y-55435123D01*
X114635833Y-55447718D01*
X114704775Y-55448200D01*
X114863643Y-55430065D01*
X114939467Y-55378479D01*
X114940506Y-55375969D01*
X114940013Y-55277575D01*
X114910136Y-55195202D01*
X114836577Y-55116482D01*
X114714442Y-55100387D01*
X114690324Y-55102333D01*
X114576126Y-55127223D01*
X114526784Y-55194583D01*
X114512681Y-55283100D01*
X114508390Y-55387897D01*
X112078731Y-55387897D01*
X112078554Y-55386308D01*
X112075682Y-55397400D01*
X112012148Y-55697383D01*
X111917751Y-55947188D01*
X111800592Y-56132740D01*
X111668772Y-56239968D01*
X111578593Y-56261000D01*
X111520988Y-56247556D01*
X111467555Y-56196222D01*
X111408001Y-56090489D01*
X111332030Y-55913853D01*
X111280480Y-55782980D01*
X111169224Y-55529797D01*
X111018982Y-55234322D01*
X110853494Y-54941221D01*
X112810373Y-54941221D01*
X112813498Y-54956180D01*
X112889765Y-55105184D01*
X113014766Y-55179706D01*
X113162652Y-55169745D01*
X113245900Y-55123484D01*
X113316997Y-55043089D01*
X113331723Y-54971059D01*
X113284000Y-54940200D01*
X113238931Y-54899054D01*
X113233200Y-54864000D01*
X113187966Y-54803383D01*
X113084954Y-54787800D01*
X112911063Y-54802422D01*
X112823443Y-54851139D01*
X112810373Y-54941221D01*
X110853494Y-54941221D01*
X110850712Y-54936294D01*
X110737874Y-54754280D01*
X110588702Y-54520686D01*
X110489086Y-54352252D01*
X110430720Y-54230624D01*
X110405301Y-54137447D01*
X110404524Y-54054365D01*
X110408297Y-54025800D01*
X110457907Y-53877826D01*
X110539889Y-53763302D01*
X110544278Y-53759589D01*
X110682831Y-53680398D01*
X110897871Y-53598352D01*
X111164807Y-53520878D01*
X111459047Y-53455403D01*
X111664911Y-53421135D01*
X111900921Y-53381640D01*
X112143466Y-53331427D01*
X112318800Y-53287151D01*
X112560454Y-53219176D01*
X112722679Y-53181214D01*
X112822864Y-53172483D01*
X112878400Y-53192202D01*
X112878400Y-53192202D01*
G37*
X112878400Y-53192202D02*
X112906677Y-53239588D01*
X112912804Y-53260448D01*
X112957538Y-53337771D01*
X113001844Y-53348086D01*
X113078556Y-53329269D01*
X113226000Y-53300744D01*
X113414479Y-53268197D01*
X113445022Y-53263228D01*
X113726390Y-53232608D01*
X113983951Y-53242038D01*
X114248497Y-53296561D01*
X114550817Y-53401219D01*
X114722173Y-53472374D01*
X114953661Y-53562538D01*
X115202395Y-53644509D01*
X115403882Y-53697985D01*
X115763910Y-53799996D01*
X116050740Y-53942395D01*
X116289801Y-54141173D01*
X116480557Y-54375013D01*
X116632572Y-54524731D01*
X116853853Y-54656878D01*
X116886054Y-54671551D01*
X117116939Y-54784340D01*
X117261896Y-54885043D01*
X117333935Y-54984672D01*
X117347959Y-55062373D01*
X117320702Y-55199743D01*
X117250274Y-55378227D01*
X117153573Y-55566249D01*
X117047494Y-55732236D01*
X116948934Y-55844612D01*
X116917769Y-55866274D01*
X116818145Y-55943514D01*
X116679758Y-56082920D01*
X116520882Y-56262578D01*
X116359790Y-56460575D01*
X116214758Y-56654997D01*
X116104057Y-56823930D01*
X116074424Y-56877609D01*
X115985974Y-57014416D01*
X115888480Y-57114657D01*
X115865337Y-57129663D01*
X115773836Y-57160095D01*
X115700602Y-57118846D01*
X115662966Y-57075753D01*
X115556237Y-56886420D01*
X115495487Y-56632973D01*
X115478786Y-56304272D01*
X115488813Y-56070500D01*
X115497747Y-55854134D01*
X115492929Y-55698325D01*
X115477434Y-55611419D01*
X115454333Y-55601766D01*
X115426700Y-55677714D01*
X115400054Y-55829362D01*
X115315415Y-56139816D01*
X115150359Y-56465471D01*
X114998063Y-56682761D01*
X114914995Y-56793666D01*
X114875568Y-56879660D01*
X114872916Y-56979214D01*
X114900175Y-57130799D01*
X114909901Y-57176818D01*
X114942151Y-57447424D01*
X114906828Y-57646166D01*
X114802159Y-57778597D01*
X114701092Y-57830037D01*
X114502842Y-57876684D01*
X114253797Y-57905146D01*
X114002187Y-57912165D01*
X113796243Y-57894484D01*
X113783672Y-57892007D01*
X113619184Y-57841738D01*
X113475263Y-57773012D01*
X113469435Y-57769274D01*
X113355399Y-57719986D01*
X113178117Y-57670596D01*
X112975395Y-57631585D01*
X112969763Y-57630750D01*
X112685093Y-57583349D01*
X112483247Y-57534384D01*
X112345572Y-57477265D01*
X112253415Y-57405405D01*
X112221874Y-57366571D01*
X112163549Y-57257199D01*
X113118282Y-57257199D01*
X113123211Y-57288867D01*
X113125889Y-57291609D01*
X113209103Y-57325635D01*
X113341510Y-57338094D01*
X113356345Y-57337722D01*
X113483383Y-57346020D01*
X113560265Y-57375128D01*
X113564402Y-57380221D01*
X113635919Y-57422973D01*
X113680698Y-57428622D01*
X113735418Y-57418829D01*
X113696591Y-57383501D01*
X113649697Y-57322813D01*
X113653987Y-57294819D01*
X113648768Y-57224355D01*
X113609695Y-57152430D01*
X113556386Y-57090944D01*
X113538737Y-57113153D01*
X113538000Y-57135534D01*
X113506311Y-57193892D01*
X113436400Y-57190119D01*
X113352819Y-57192742D01*
X113334800Y-57226197D01*
X113292366Y-57267930D01*
X113203948Y-57263830D01*
X113118282Y-57257199D01*
X112163549Y-57257199D01*
X112159930Y-57250413D01*
X112102273Y-57095538D01*
X112058904Y-56936967D01*
X112057115Y-56925028D01*
X112928400Y-56925028D01*
X112939858Y-57050925D01*
X112968423Y-57120049D01*
X112979200Y-57124600D01*
X113078537Y-57104005D01*
X113091529Y-57055189D01*
X113105847Y-56984429D01*
X113154059Y-56893357D01*
X113206001Y-56829080D01*
X113273073Y-56797123D01*
X113384801Y-56790557D01*
X113548771Y-56800692D01*
X113777837Y-56834782D01*
X113929680Y-56901768D01*
X114026602Y-57014110D01*
X114059516Y-57086099D01*
X114055872Y-57165847D01*
X113967682Y-57239002D01*
X113942651Y-57252503D01*
X113840508Y-57312005D01*
X113792521Y-57353116D01*
X113792000Y-57355472D01*
X113833077Y-57362131D01*
X113926816Y-57347594D01*
X114028974Y-57321202D01*
X114095311Y-57292294D01*
X114096667Y-57291152D01*
X114116986Y-57220058D01*
X114116509Y-57089972D01*
X114099539Y-56940354D01*
X114070382Y-56810662D01*
X114036897Y-56743231D01*
X113960698Y-56709394D01*
X113814186Y-56669070D01*
X113627850Y-56628453D01*
X113432183Y-56593738D01*
X113257675Y-56571119D01*
X113163543Y-56565800D01*
X113044224Y-56611800D01*
X112961209Y-56735577D01*
X112928467Y-56915791D01*
X112928400Y-56925028D01*
X112057115Y-56925028D01*
X112039829Y-56809726D01*
X112047471Y-56755939D01*
X112058078Y-56691340D01*
X112068174Y-56544736D01*
X112076811Y-56335721D01*
X112083043Y-56083890D01*
X112084462Y-55990701D01*
X112086546Y-55746064D01*
X112086118Y-55554426D01*
X112083384Y-55429827D01*
X112078731Y-55387897D01*
X114508390Y-55387897D01*
X114540544Y-55435123D01*
X114635833Y-55447718D01*
X114704775Y-55448200D01*
X114863643Y-55430065D01*
X114939467Y-55378479D01*
X114940506Y-55375969D01*
X114940013Y-55277575D01*
X114910136Y-55195202D01*
X114836577Y-55116482D01*
X114714442Y-55100387D01*
X114690324Y-55102333D01*
X114576126Y-55127223D01*
X114526784Y-55194583D01*
X114512681Y-55283100D01*
X114508390Y-55387897D01*
X112078731Y-55387897D01*
X112078554Y-55386308D01*
X112075682Y-55397400D01*
X112012148Y-55697383D01*
X111917751Y-55947188D01*
X111800592Y-56132740D01*
X111668772Y-56239968D01*
X111578593Y-56261000D01*
X111520988Y-56247556D01*
X111467555Y-56196222D01*
X111408001Y-56090489D01*
X111332030Y-55913853D01*
X111280480Y-55782980D01*
X111169224Y-55529797D01*
X111018982Y-55234322D01*
X110853494Y-54941221D01*
X112810373Y-54941221D01*
X112813498Y-54956180D01*
X112889765Y-55105184D01*
X113014766Y-55179706D01*
X113162652Y-55169745D01*
X113245900Y-55123484D01*
X113316997Y-55043089D01*
X113331723Y-54971059D01*
X113284000Y-54940200D01*
X113238931Y-54899054D01*
X113233200Y-54864000D01*
X113187966Y-54803383D01*
X113084954Y-54787800D01*
X112911063Y-54802422D01*
X112823443Y-54851139D01*
X112810373Y-54941221D01*
X110853494Y-54941221D01*
X110850712Y-54936294D01*
X110737874Y-54754280D01*
X110588702Y-54520686D01*
X110489086Y-54352252D01*
X110430720Y-54230624D01*
X110405301Y-54137447D01*
X110404524Y-54054365D01*
X110408297Y-54025800D01*
X110457907Y-53877826D01*
X110539889Y-53763302D01*
X110544278Y-53759589D01*
X110682831Y-53680398D01*
X110897871Y-53598352D01*
X111164807Y-53520878D01*
X111459047Y-53455403D01*
X111664911Y-53421135D01*
X111900921Y-53381640D01*
X112143466Y-53331427D01*
X112318800Y-53287151D01*
X112560454Y-53219176D01*
X112722679Y-53181214D01*
X112822864Y-53172483D01*
X112878400Y-53192202D01*
G36*
X113080800Y-57099200D02*
X113055400Y-57124600D01*
X113030000Y-57099200D01*
X113055400Y-57073800D01*
X113080800Y-57099200D01*
X113080800Y-57099200D01*
G37*
X113080800Y-57099200D02*
X113055400Y-57124600D01*
X113030000Y-57099200D01*
X113055400Y-57073800D01*
X113080800Y-57099200D01*
G36*
X114046000Y-56845200D02*
X114020600Y-56870600D01*
X113995200Y-56845200D01*
X114020600Y-56819800D01*
X114046000Y-56845200D01*
X114046000Y-56845200D01*
G37*
X114046000Y-56845200D02*
X114020600Y-56870600D01*
X113995200Y-56845200D01*
X114020600Y-56819800D01*
X114046000Y-56845200D01*
D13*
X116101974Y-43101974D03*
X117898026Y-44898026D03*
D14*
X125000000Y-58516000D03*
X125000000Y-56484000D03*
X125000000Y-57500000D03*
X125000000Y-55516000D03*
X125000000Y-53484000D03*
X125000000Y-54500000D03*
X120016000Y-36000000D03*
X117984000Y-36000000D03*
X119000000Y-36000000D03*
X116016000Y-36000000D03*
X113984000Y-36000000D03*
X115000000Y-36000000D03*
X113016000Y-36000000D03*
X110984000Y-36000000D03*
X112000000Y-36000000D03*
X144016000Y-36000000D03*
X141984000Y-36000000D03*
X143000000Y-36000000D03*
X148016000Y-36000000D03*
X145984000Y-36000000D03*
X147000000Y-36000000D03*
X120016000Y-52000000D03*
X117984000Y-52000000D03*
X119000000Y-52000000D03*
X116016000Y-52000000D03*
X113984000Y-52000000D03*
X115000000Y-52000000D03*
X123016000Y-52000000D03*
X120984000Y-52000000D03*
X122000000Y-52000000D03*
X113016000Y-52000000D03*
X110984000Y-52000000D03*
X112000000Y-52000000D03*
X123016000Y-36000000D03*
X120984000Y-36000000D03*
X122000000Y-36000000D03*
X125000000Y-40016000D03*
X125000000Y-37984000D03*
X125000000Y-39000000D03*
X125000000Y-47016000D03*
X125000000Y-44984000D03*
X125000000Y-46000000D03*
X125000000Y-50016000D03*
X125000000Y-47984000D03*
X125000000Y-49000000D03*
X149000000Y-48016000D03*
X149000000Y-45984000D03*
X149000000Y-47000000D03*
X149000000Y-51016000D03*
X149000000Y-48984000D03*
X149000000Y-50000000D03*
X149000000Y-55016000D03*
X149000000Y-52984000D03*
X149000000Y-54000000D03*
X149000000Y-43016000D03*
X149000000Y-40984000D03*
X149000000Y-42000000D03*
X149000000Y-40016000D03*
X149000000Y-37984000D03*
X149000000Y-39000000D03*
X149000000Y-58016000D03*
X149000000Y-55984000D03*
X149000000Y-57000000D03*
X133984000Y-36000000D03*
X136016000Y-36000000D03*
X135000000Y-36000000D03*
X129984000Y-36000000D03*
X132016000Y-36000000D03*
X131000000Y-36000000D03*
X126984000Y-36000000D03*
X129016000Y-36000000D03*
X128000000Y-36000000D03*
X136984000Y-36000000D03*
X139016000Y-36000000D03*
X138000000Y-36000000D03*
X125000000Y-31016000D03*
X125000000Y-28984000D03*
X125000000Y-30000000D03*
X125000000Y-34016000D03*
X125000000Y-31984000D03*
X125000000Y-33000000D03*
X125000000Y-24016000D03*
X125000000Y-21984000D03*
X125000000Y-23000000D03*
X141000000Y-27016000D03*
X141000000Y-24984000D03*
X141000000Y-26000000D03*
X141000000Y-31016000D03*
X141000000Y-28984000D03*
X141000000Y-30000000D03*
X141000000Y-34016000D03*
X141000000Y-31984000D03*
X141000000Y-33000000D03*
X141000000Y-24016000D03*
X141000000Y-21984000D03*
X141000000Y-23000000D03*
X157000000Y-27016000D03*
X157000000Y-24984000D03*
X157000000Y-26000000D03*
X157000000Y-24016000D03*
X157000000Y-21984000D03*
X157000000Y-23000000D03*
X157000000Y-31016000D03*
X157000000Y-28984000D03*
X157000000Y-30000000D03*
X157000000Y-34016000D03*
X157000000Y-31984000D03*
X157000000Y-33000000D03*
X152984000Y-36000000D03*
X155016000Y-36000000D03*
X154000000Y-36000000D03*
X163016000Y-36000000D03*
X162000000Y-36000000D03*
X165984000Y-36000000D03*
X168016000Y-36000000D03*
X167000000Y-36000000D03*
X158984000Y-36000000D03*
X161016000Y-36000000D03*
X160000000Y-36000000D03*
D10*
G36*
X132000000Y-28202082D02*
X130797918Y-27000000D01*
X132000000Y-25797918D01*
X133202082Y-27000000D01*
X132000000Y-28202082D01*
X132000000Y-28202082D01*
G37*
D15*
X133796051Y-28796051D03*
D16*
X133200000Y-42900000D03*
X133200000Y-45440000D03*
X133200000Y-47980000D03*
X133200000Y-50520000D03*
X140820000Y-50520000D03*
X140820000Y-47980000D03*
X140820000Y-45440000D03*
X140820000Y-42900000D03*
D17*
X126407898Y-28592102D03*
X133592102Y-21407898D03*
D18*
X169000000Y-24000000D03*
X161000000Y-32000000D03*
X153000000Y-24000000D03*
X145000000Y-32000000D03*
X137000000Y-24000000D03*
X129000000Y-32000000D03*
X113000000Y-48000000D03*
X121000000Y-40000000D03*
X113000000Y-32000000D03*
X121000000Y-24000000D03*
D19*
X150250000Y-28000000D03*
D20*
X147615000Y-28000000D03*
D21*
X149250000Y-28000000D03*
D22*
X161000000Y-48000000D03*
D23*
X150205000Y-48000000D03*
X171795000Y-48000000D03*
D18*
X137000000Y-40000000D03*
D24*
X145000000Y-56000000D03*
X129000000Y-40000000D03*
X129000000Y-56000000D03*
X145000000Y-40000000D03*
D18*
X137000000Y-48000000D03*
X137000000Y-56000000D03*
X161000000Y-48000000D03*
D24*
X161000000Y-24000000D03*
X169000000Y-32000000D03*
D18*
X169000000Y-48000000D03*
X153000000Y-48000000D03*
D25*
X165000000Y-28000000D03*
X165000000Y-30540000D03*
X165000000Y-25460000D03*
D24*
X129000000Y-24000000D03*
X137000000Y-32000000D03*
X145000000Y-24000000D03*
X153000000Y-32000000D03*
X153000000Y-40000000D03*
X153000000Y-56000000D03*
D18*
X161000000Y-40000000D03*
D24*
X113000000Y-40000000D03*
X121000000Y-48000000D03*
X113000000Y-24000000D03*
X121000000Y-32000000D03*
D26*
X117434120Y-30462019D03*
X116565880Y-25537981D03*
D14*
X168984000Y-36000000D03*
X171016000Y-36000000D03*
X170000000Y-36000000D03*
X125000000Y-26984000D03*
X125000000Y-28000000D03*
X125000000Y-25000000D03*
X149000000Y-45000000D03*
X125000000Y-40984000D03*
X125000000Y-42000000D03*
X117000000Y-52000000D03*
X145000000Y-36000000D03*
X125000000Y-43500000D03*
M02*
