%TF.GenerationSoftware,KiCad,Pcbnew,4.0.5-e0-6337~49~ubuntu16.04.1*%
%TF.CreationDate,2017-05-29T07:49:35-07:00*%
%TF.ProjectId,2x3-LED-RGB-SMT-Round-Flat-Top,3278332D4C45442D5247422D534D542D,1.0*%
%TF.FileFunction,Soldermask,Bot*%
%FSLAX46Y46*%
G04 Gerber Fmt 4.6, Leading zero omitted, Abs format (unit mm)*
G04 Created by KiCad (PCBNEW 4.0.5-e0-6337~49~ubuntu16.04.1) date Mon May 29 07:49:35 2017*
%MOMM*%
%LPD*%
G01*
G04 APERTURE LIST*
%ADD10C,0.350000*%
%ADD11C,7.000000*%
G04 APERTURE END LIST*
D10*
D11*
X10787500Y-49457000D02*
X10787500Y-49257000D01*
X27237500Y-57907000D02*
X10737500Y-57907000D01*
X18987500Y-49457000D02*
X19187500Y-49457000D01*
X26987500Y-49457000D02*
X27187500Y-49457000D01*
D10*
G36*
X11310610Y-54582847D02*
X11901555Y-54704151D01*
X12457698Y-54937932D01*
X12957834Y-55275278D01*
X13382921Y-55703343D01*
X13716766Y-56205821D01*
X13946656Y-56763576D01*
X14063764Y-57355014D01*
X14063764Y-57355024D01*
X14063831Y-57355363D01*
X14054210Y-58044416D01*
X14054133Y-58044754D01*
X14054133Y-58044762D01*
X13920557Y-58632701D01*
X13675185Y-59183816D01*
X13327437Y-59676778D01*
X12890562Y-60092809D01*
X12381200Y-60416061D01*
X11818754Y-60634219D01*
X11224647Y-60738976D01*
X10621503Y-60726342D01*
X10032300Y-60596797D01*
X9479482Y-60355277D01*
X8984107Y-60010982D01*
X8565037Y-59577023D01*
X8238238Y-59069930D01*
X8016156Y-58509014D01*
X7907255Y-57915658D01*
X7915677Y-57312441D01*
X8041106Y-56722347D01*
X8278759Y-56167858D01*
X8619591Y-55670088D01*
X9050612Y-55248000D01*
X9555413Y-54917668D01*
X10114759Y-54691677D01*
X10707345Y-54578636D01*
X11310610Y-54582847D01*
X11310610Y-54582847D01*
G37*
G36*
X19310610Y-54582847D02*
X19901555Y-54704151D01*
X20457698Y-54937932D01*
X20957834Y-55275278D01*
X21382921Y-55703343D01*
X21716766Y-56205821D01*
X21946656Y-56763576D01*
X22063764Y-57355014D01*
X22063764Y-57355024D01*
X22063831Y-57355363D01*
X22054210Y-58044416D01*
X22054133Y-58044754D01*
X22054133Y-58044762D01*
X21920557Y-58632701D01*
X21675185Y-59183816D01*
X21327437Y-59676778D01*
X20890562Y-60092809D01*
X20381200Y-60416061D01*
X19818754Y-60634219D01*
X19224647Y-60738976D01*
X18621503Y-60726342D01*
X18032300Y-60596797D01*
X17479482Y-60355277D01*
X16984107Y-60010982D01*
X16565037Y-59577023D01*
X16238238Y-59069930D01*
X16016156Y-58509014D01*
X15907255Y-57915658D01*
X15915677Y-57312441D01*
X16041106Y-56722347D01*
X16278759Y-56167858D01*
X16619591Y-55670088D01*
X17050612Y-55248000D01*
X17555413Y-54917668D01*
X18114759Y-54691677D01*
X18707345Y-54578636D01*
X19310610Y-54582847D01*
X19310610Y-54582847D01*
G37*
G36*
X27310610Y-54582847D02*
X27901555Y-54704151D01*
X28457698Y-54937932D01*
X28957834Y-55275278D01*
X29382921Y-55703343D01*
X29716766Y-56205821D01*
X29946656Y-56763576D01*
X30063764Y-57355014D01*
X30063764Y-57355024D01*
X30063831Y-57355363D01*
X30054210Y-58044416D01*
X30054133Y-58044754D01*
X30054133Y-58044762D01*
X29920557Y-58632701D01*
X29675185Y-59183816D01*
X29327437Y-59676778D01*
X28890562Y-60092809D01*
X28381200Y-60416061D01*
X27818754Y-60634219D01*
X27224647Y-60738976D01*
X26621503Y-60726342D01*
X26032300Y-60596797D01*
X25479482Y-60355277D01*
X24984107Y-60010982D01*
X24565037Y-59577023D01*
X24238238Y-59069930D01*
X24016156Y-58509014D01*
X23907255Y-57915658D01*
X23915677Y-57312441D01*
X24041106Y-56722347D01*
X24278759Y-56167858D01*
X24619591Y-55670088D01*
X25050612Y-55248000D01*
X25555413Y-54917668D01*
X26114759Y-54691677D01*
X26707345Y-54578636D01*
X27310610Y-54582847D01*
X27310610Y-54582847D01*
G37*
G36*
X11310610Y-46582847D02*
X11901555Y-46704151D01*
X12457698Y-46937932D01*
X12957834Y-47275278D01*
X13382921Y-47703343D01*
X13716766Y-48205821D01*
X13946656Y-48763576D01*
X14063764Y-49355014D01*
X14063764Y-49355024D01*
X14063831Y-49355363D01*
X14054210Y-50044416D01*
X14054133Y-50044754D01*
X14054133Y-50044762D01*
X13920557Y-50632701D01*
X13675185Y-51183816D01*
X13327437Y-51676778D01*
X12890562Y-52092809D01*
X12381200Y-52416061D01*
X11818754Y-52634219D01*
X11224647Y-52738976D01*
X10621503Y-52726342D01*
X10032300Y-52596797D01*
X9479482Y-52355277D01*
X8984107Y-52010982D01*
X8565037Y-51577023D01*
X8238238Y-51069930D01*
X8016156Y-50509014D01*
X7907255Y-49915658D01*
X7915677Y-49312441D01*
X8041106Y-48722347D01*
X8278759Y-48167858D01*
X8619591Y-47670088D01*
X9050612Y-47248000D01*
X9555413Y-46917668D01*
X10114759Y-46691677D01*
X10707345Y-46578636D01*
X11310610Y-46582847D01*
X11310610Y-46582847D01*
G37*
G36*
X19310610Y-46582847D02*
X19901555Y-46704151D01*
X20457698Y-46937932D01*
X20957834Y-47275278D01*
X21382921Y-47703343D01*
X21716766Y-48205821D01*
X21946656Y-48763576D01*
X22063764Y-49355014D01*
X22063764Y-49355024D01*
X22063831Y-49355363D01*
X22054210Y-50044416D01*
X22054133Y-50044754D01*
X22054133Y-50044762D01*
X21920557Y-50632701D01*
X21675185Y-51183816D01*
X21327437Y-51676778D01*
X20890562Y-52092809D01*
X20381200Y-52416061D01*
X19818754Y-52634219D01*
X19224647Y-52738976D01*
X18621503Y-52726342D01*
X18032300Y-52596797D01*
X17479482Y-52355277D01*
X16984107Y-52010982D01*
X16565037Y-51577023D01*
X16238238Y-51069930D01*
X16016156Y-50509014D01*
X15907255Y-49915658D01*
X15915677Y-49312441D01*
X16041106Y-48722347D01*
X16278759Y-48167858D01*
X16619591Y-47670088D01*
X17050612Y-47248000D01*
X17555413Y-46917668D01*
X18114759Y-46691677D01*
X18707345Y-46578636D01*
X19310610Y-46582847D01*
X19310610Y-46582847D01*
G37*
G36*
X27310610Y-46582847D02*
X27901555Y-46704151D01*
X28457698Y-46937932D01*
X28957834Y-47275278D01*
X29382921Y-47703343D01*
X29716766Y-48205821D01*
X29946656Y-48763576D01*
X30063764Y-49355014D01*
X30063764Y-49355024D01*
X30063831Y-49355363D01*
X30054210Y-50044416D01*
X30054133Y-50044754D01*
X30054133Y-50044762D01*
X29920557Y-50632701D01*
X29675185Y-51183816D01*
X29327437Y-51676778D01*
X28890562Y-52092809D01*
X28381200Y-52416061D01*
X27818754Y-52634219D01*
X27224647Y-52738976D01*
X26621503Y-52726342D01*
X26032300Y-52596797D01*
X25479482Y-52355277D01*
X24984107Y-52010982D01*
X24565037Y-51577023D01*
X24238238Y-51069930D01*
X24016156Y-50509014D01*
X23907255Y-49915658D01*
X23915677Y-49312441D01*
X24041106Y-48722347D01*
X24278759Y-48167858D01*
X24619591Y-47670088D01*
X25050612Y-47248000D01*
X25555413Y-46917668D01*
X26114759Y-46691677D01*
X26707345Y-46578636D01*
X27310610Y-46582847D01*
X27310610Y-46582847D01*
G37*
M02*
