%TF.GenerationSoftware,KiCad,Pcbnew,4.0.7-e2-6376~58~ubuntu16.04.1*%
%TF.CreationDate,2017-10-07T15:06:41-07:00*%
%TF.ProjectId,2x2-Servo-Header,3278322D536572766F2D486561646572,v1.1*%
%TF.FileFunction,Legend,Top*%
%FSLAX46Y46*%
G04 Gerber Fmt 4.6, Leading zero omitted, Abs format (unit mm)*
G04 Created by KiCad (PCBNEW 4.0.7-e2-6376~58~ubuntu16.04.1) date Sat Oct  7 15:06:41 2017*
%MOMM*%
%LPD*%
G01*
G04 APERTURE LIST*
%ADD10C,0.350000*%
%ADD11C,2.000000*%
%ADD12C,0.150000*%
%ADD13C,0.800000*%
G04 APERTURE END LIST*
D10*
D11*
X24259400Y-30115400D02*
X24259400Y-27515400D01*
X26159400Y-32915400D02*
X26759400Y-30315400D01*
X26159400Y-32915400D02*
X22359400Y-34315400D01*
X29359400Y-30315400D02*
X29959400Y-27715400D01*
X30359400Y-33515400D02*
X29359400Y-30315400D01*
D12*
X26212281Y-28648733D02*
X27212281Y-28315400D01*
X26212281Y-27982066D01*
X27117043Y-27077304D02*
X27164662Y-27124923D01*
X27212281Y-27267780D01*
X27212281Y-27363018D01*
X27164662Y-27505876D01*
X27069424Y-27601114D01*
X26974186Y-27648733D01*
X26783710Y-27696352D01*
X26640852Y-27696352D01*
X26450376Y-27648733D01*
X26355138Y-27601114D01*
X26259900Y-27505876D01*
X26212281Y-27363018D01*
X26212281Y-27267780D01*
X26259900Y-27124923D01*
X26307519Y-27077304D01*
X27117043Y-26077304D02*
X27164662Y-26124923D01*
X27212281Y-26267780D01*
X27212281Y-26363018D01*
X27164662Y-26505876D01*
X27069424Y-26601114D01*
X26974186Y-26648733D01*
X26783710Y-26696352D01*
X26640852Y-26696352D01*
X26450376Y-26648733D01*
X26355138Y-26601114D01*
X26259900Y-26505876D01*
X26212281Y-26363018D01*
X26212281Y-26267780D01*
X26259900Y-26124923D01*
X26307519Y-26077304D01*
X20597496Y-29815400D02*
X20502258Y-29767781D01*
X20359401Y-29767781D01*
X20216543Y-29815400D01*
X20121305Y-29910638D01*
X20073686Y-30005876D01*
X20026067Y-30196352D01*
X20026067Y-30339210D01*
X20073686Y-30529686D01*
X20121305Y-30624924D01*
X20216543Y-30720162D01*
X20359401Y-30767781D01*
X20454639Y-30767781D01*
X20597496Y-30720162D01*
X20645115Y-30672543D01*
X20645115Y-30339210D01*
X20454639Y-30339210D01*
X21073686Y-30767781D02*
X21073686Y-29767781D01*
X21645115Y-30767781D01*
X21645115Y-29767781D01*
X22121305Y-30767781D02*
X22121305Y-29767781D01*
X22359400Y-29767781D01*
X22502258Y-29815400D01*
X22597496Y-29910638D01*
X22645115Y-30005876D01*
X22692734Y-30196352D01*
X22692734Y-30339210D01*
X22645115Y-30529686D01*
X22597496Y-30624924D01*
X22502258Y-30720162D01*
X22359400Y-30767781D01*
X22121305Y-30767781D01*
X31135591Y-30720162D02*
X31278448Y-30767781D01*
X31516544Y-30767781D01*
X31611782Y-30720162D01*
X31659401Y-30672543D01*
X31707020Y-30577305D01*
X31707020Y-30482067D01*
X31659401Y-30386829D01*
X31611782Y-30339210D01*
X31516544Y-30291590D01*
X31326067Y-30243971D01*
X31230829Y-30196352D01*
X31183210Y-30148733D01*
X31135591Y-30053495D01*
X31135591Y-29958257D01*
X31183210Y-29863019D01*
X31230829Y-29815400D01*
X31326067Y-29767781D01*
X31564163Y-29767781D01*
X31707020Y-29815400D01*
X32135591Y-30767781D02*
X32135591Y-29767781D01*
X33135591Y-29815400D02*
X33040353Y-29767781D01*
X32897496Y-29767781D01*
X32754638Y-29815400D01*
X32659400Y-29910638D01*
X32611781Y-30005876D01*
X32564162Y-30196352D01*
X32564162Y-30339210D01*
X32611781Y-30529686D01*
X32659400Y-30624924D01*
X32754638Y-30720162D01*
X32897496Y-30767781D01*
X32992734Y-30767781D01*
X33135591Y-30720162D01*
X33183210Y-30672543D01*
X33183210Y-30339210D01*
X32992734Y-30339210D01*
%LPC*%
D13*
X25512368Y-25366101D02*
G75*
G03X21959400Y-29115400I-2752968J-949299D01*
G01*
X31965964Y-28929631D02*
G75*
G03X28059400Y-25315400I-1206564J2614231D01*
G01*
X27897798Y-34209415D02*
G75*
G03X31959400Y-31715400I2861602J-105985D01*
G01*
X22154316Y-31491585D02*
G75*
G03X25659400Y-34315400I605358J-2835859D01*
G01*
M02*
