%TF.GenerationSoftware,KiCad,Pcbnew,4.0.7-e2-6376~58~ubuntu16.04.1*%
%TF.CreationDate,2017-10-07T15:06:41-07:00*%
%TF.ProjectId,2x2-Servo-Header,3278322D536572766F2D486561646572,v1.1*%
%TF.FileFunction,Soldermask,Bot*%
%FSLAX46Y46*%
G04 Gerber Fmt 4.6, Leading zero omitted, Abs format (unit mm)*
G04 Created by KiCad (PCBNEW 4.0.7-e2-6376~58~ubuntu16.04.1) date Sat Oct  7 15:06:41 2017*
%MOMM*%
%LPD*%
G01*
G04 APERTURE LIST*
%ADD10C,0.350000*%
%ADD11C,1.000000*%
G04 APERTURE END LIST*
D10*
D11*
X27762735Y-34315400D02*
G75*
G03X32059400Y-31615400I2996665J0D01*
G01*
X32101043Y-28998681D02*
G75*
G03X27759400Y-26315400I-1341643J2683281D01*
G01*
X21986413Y-31416695D02*
G75*
G03X25759400Y-34315400I772987J-2898705D01*
G01*
X25795845Y-26315400D02*
G75*
G03X21859400Y-29215400I-3036445J0D01*
G01*
D10*
G36*
X24354113Y-29414298D02*
X24527327Y-29449854D01*
X24690348Y-29518382D01*
X24836949Y-29617266D01*
X24961551Y-29742740D01*
X25059407Y-29890027D01*
X25126793Y-30053516D01*
X25161071Y-30226635D01*
X25161071Y-30226640D01*
X25161139Y-30226984D01*
X25158318Y-30428960D01*
X25158242Y-30429294D01*
X25158242Y-30429307D01*
X25119143Y-30601402D01*
X25047220Y-30762942D01*
X24945287Y-30907442D01*
X24817229Y-31029389D01*
X24667924Y-31124141D01*
X24503057Y-31188089D01*
X24328914Y-31218795D01*
X24152117Y-31215091D01*
X23979410Y-31177120D01*
X23817365Y-31106324D01*
X23672163Y-31005405D01*
X23549324Y-30878202D01*
X23453532Y-30729561D01*
X23388433Y-30565141D01*
X23356513Y-30391220D01*
X23358981Y-30214403D01*
X23395748Y-30041432D01*
X23465408Y-29878900D01*
X23565314Y-29732992D01*
X23691655Y-29609270D01*
X23839624Y-29512442D01*
X24003581Y-29446198D01*
X24177279Y-29413064D01*
X24354113Y-29414298D01*
X24354113Y-29414298D01*
G37*
G36*
X26894113Y-29414298D02*
X27067327Y-29449854D01*
X27230348Y-29518382D01*
X27376949Y-29617266D01*
X27501551Y-29742740D01*
X27599407Y-29890027D01*
X27666793Y-30053516D01*
X27701071Y-30226635D01*
X27701071Y-30226640D01*
X27701139Y-30226984D01*
X27698318Y-30428960D01*
X27698242Y-30429294D01*
X27698242Y-30429307D01*
X27659143Y-30601402D01*
X27587220Y-30762942D01*
X27485287Y-30907442D01*
X27357229Y-31029389D01*
X27207924Y-31124141D01*
X27043057Y-31188089D01*
X26868914Y-31218795D01*
X26692117Y-31215091D01*
X26519410Y-31177120D01*
X26357365Y-31106324D01*
X26212163Y-31005405D01*
X26089324Y-30878202D01*
X25993532Y-30729561D01*
X25928433Y-30565141D01*
X25896513Y-30391220D01*
X25898981Y-30214403D01*
X25935748Y-30041432D01*
X26005408Y-29878900D01*
X26105314Y-29732992D01*
X26231655Y-29609270D01*
X26379624Y-29512442D01*
X26543581Y-29446198D01*
X26717279Y-29413064D01*
X26894113Y-29414298D01*
X26894113Y-29414298D01*
G37*
G36*
X29434113Y-29414298D02*
X29607327Y-29449854D01*
X29770348Y-29518382D01*
X29916949Y-29617266D01*
X30041551Y-29742740D01*
X30139407Y-29890027D01*
X30206793Y-30053516D01*
X30241071Y-30226635D01*
X30241071Y-30226640D01*
X30241139Y-30226984D01*
X30238318Y-30428960D01*
X30238242Y-30429294D01*
X30238242Y-30429307D01*
X30199143Y-30601402D01*
X30127220Y-30762942D01*
X30025287Y-30907442D01*
X29897229Y-31029389D01*
X29747924Y-31124141D01*
X29583057Y-31188089D01*
X29408914Y-31218795D01*
X29232117Y-31215091D01*
X29059410Y-31177120D01*
X28897365Y-31106324D01*
X28752163Y-31005405D01*
X28629324Y-30878202D01*
X28533532Y-30729561D01*
X28468433Y-30565141D01*
X28436513Y-30391220D01*
X28438981Y-30214403D01*
X28475748Y-30041432D01*
X28545408Y-29878900D01*
X28645314Y-29732992D01*
X28771655Y-29609270D01*
X28919624Y-29512442D01*
X29083581Y-29446198D01*
X29257279Y-29413064D01*
X29434113Y-29414298D01*
X29434113Y-29414298D01*
G37*
M02*
