%TF.GenerationSoftware,KiCad,Pcbnew,4.0.5-e0-6337~49~ubuntu16.04.1*%
%TF.CreationDate,2017-01-19T00:00:55-08:00*%
%TF.ProjectId,2x2-Servo-Header,3278322D536572766F2D486561646572,1.0*%
%TF.FileFunction,Soldermask,Top*%
%FSLAX46Y46*%
G04 Gerber Fmt 4.6, Leading zero omitted, Abs format (unit mm)*
G04 Created by KiCad (PCBNEW 4.0.5-e0-6337~49~ubuntu16.04.1) date Thu Jan 19 00:00:55 2017*
%MOMM*%
%LPD*%
G01*
G04 APERTURE LIST*
%ADD10C,0.350000*%
G04 APERTURE END LIST*
D10*
G36*
X140791190Y-105592127D02*
X141382135Y-105713431D01*
X141938278Y-105947212D01*
X142438414Y-106284558D01*
X142863501Y-106712623D01*
X143197346Y-107215101D01*
X143427236Y-107772856D01*
X143544344Y-108364294D01*
X143544344Y-108364304D01*
X143544411Y-108364643D01*
X143534790Y-109053696D01*
X143534713Y-109054034D01*
X143534713Y-109054042D01*
X143401137Y-109641981D01*
X143155765Y-110193096D01*
X142808017Y-110686058D01*
X142371142Y-111102089D01*
X141861780Y-111425341D01*
X141299334Y-111643499D01*
X140705227Y-111748256D01*
X140102083Y-111735622D01*
X139512880Y-111606077D01*
X138960062Y-111364557D01*
X138464687Y-111020262D01*
X138045617Y-110586303D01*
X137718818Y-110079210D01*
X137496736Y-109518294D01*
X137387835Y-108924938D01*
X137396257Y-108321721D01*
X137521686Y-107731627D01*
X137759339Y-107177138D01*
X138100171Y-106679368D01*
X138531192Y-106257280D01*
X139035993Y-105926948D01*
X139595339Y-105700957D01*
X140187925Y-105587916D01*
X140791190Y-105592127D01*
X140791190Y-105592127D01*
G37*
G36*
X148791190Y-97592127D02*
X149382135Y-97713431D01*
X149938278Y-97947212D01*
X150438414Y-98284558D01*
X150863501Y-98712623D01*
X151197346Y-99215101D01*
X151427236Y-99772856D01*
X151544344Y-100364294D01*
X151544344Y-100364304D01*
X151544411Y-100364643D01*
X151534790Y-101053696D01*
X151534713Y-101054034D01*
X151534713Y-101054042D01*
X151401137Y-101641981D01*
X151155765Y-102193096D01*
X150808017Y-102686058D01*
X150371142Y-103102089D01*
X149861780Y-103425341D01*
X149299334Y-103643499D01*
X148705227Y-103748256D01*
X148102083Y-103735622D01*
X147606855Y-103626739D01*
X147592600Y-103625664D01*
X147578611Y-103628603D01*
X147565994Y-103635323D01*
X147555749Y-103645292D01*
X147548687Y-103657720D01*
X147545367Y-103671624D01*
X147546051Y-103685902D01*
X147550687Y-103699425D01*
X147558906Y-103711120D01*
X147567539Y-103718469D01*
X147737398Y-103833041D01*
X147886113Y-103982798D01*
X148002907Y-104158588D01*
X148083333Y-104353716D01*
X148124258Y-104560404D01*
X148124258Y-104560409D01*
X148124326Y-104560753D01*
X148120960Y-104801816D01*
X148120883Y-104802154D01*
X148120883Y-104802163D01*
X148074202Y-105007629D01*
X147988361Y-105200432D01*
X147866701Y-105372895D01*
X147713862Y-105518442D01*
X147578446Y-105604380D01*
X147567574Y-105613662D01*
X147559719Y-105625604D01*
X147555501Y-105639263D01*
X147555256Y-105653555D01*
X147559002Y-105667351D01*
X147566444Y-105679556D01*
X147576991Y-105689205D01*
X147589808Y-105695533D01*
X147603881Y-105698041D01*
X147615185Y-105697172D01*
X148187925Y-105587916D01*
X148791190Y-105592127D01*
X149382135Y-105713431D01*
X149938278Y-105947212D01*
X150438414Y-106284558D01*
X150863501Y-106712623D01*
X151197346Y-107215101D01*
X151427236Y-107772856D01*
X151544344Y-108364294D01*
X151544344Y-108364304D01*
X151544411Y-108364643D01*
X151534790Y-109053696D01*
X151534713Y-109054034D01*
X151534713Y-109054042D01*
X151401137Y-109641981D01*
X151155765Y-110193096D01*
X150808017Y-110686058D01*
X150371142Y-111102089D01*
X149861780Y-111425341D01*
X149299334Y-111643499D01*
X148705227Y-111748256D01*
X148102083Y-111735622D01*
X147512880Y-111606077D01*
X146960062Y-111364557D01*
X146464687Y-111020262D01*
X146045617Y-110586303D01*
X145718818Y-110079210D01*
X145496736Y-109518294D01*
X145387835Y-108924938D01*
X145396257Y-108321721D01*
X145521686Y-107731627D01*
X145759339Y-107177138D01*
X146100171Y-106679368D01*
X146531192Y-106257280D01*
X147035993Y-105926948D01*
X147315509Y-105814016D01*
X147327878Y-105806850D01*
X147337760Y-105796521D01*
X147344374Y-105783848D01*
X147347195Y-105769835D01*
X147346001Y-105755590D01*
X147340885Y-105742242D01*
X147332253Y-105730848D01*
X147320789Y-105722309D01*
X147307399Y-105717303D01*
X147287658Y-105716887D01*
X147131047Y-105744502D01*
X146920037Y-105740082D01*
X146713905Y-105694761D01*
X146520502Y-105610265D01*
X146347199Y-105489816D01*
X146200588Y-105337997D01*
X146086258Y-105160590D01*
X146008561Y-104964352D01*
X145970464Y-104756772D01*
X145973410Y-104545738D01*
X146017291Y-104339293D01*
X146100433Y-104145308D01*
X146219673Y-103971163D01*
X146370464Y-103823497D01*
X146547068Y-103707931D01*
X146742755Y-103628868D01*
X146950067Y-103589322D01*
X147161122Y-103590795D01*
X147285188Y-103616262D01*
X147299456Y-103617138D01*
X147313403Y-103614004D01*
X147325925Y-103607109D01*
X147336030Y-103596998D01*
X147342918Y-103584472D01*
X147346043Y-103570523D01*
X147345159Y-103556256D01*
X147340335Y-103542799D01*
X147331954Y-103531220D01*
X147315741Y-103519949D01*
X146960062Y-103364557D01*
X146464687Y-103020262D01*
X146045617Y-102586303D01*
X145718818Y-102079210D01*
X145496736Y-101518294D01*
X145387835Y-100924938D01*
X145396257Y-100321721D01*
X145521686Y-99731627D01*
X145759339Y-99177138D01*
X146100171Y-98679368D01*
X146531192Y-98257280D01*
X147035993Y-97926948D01*
X147595339Y-97700957D01*
X148187925Y-97587916D01*
X148791190Y-97592127D01*
X148791190Y-97592127D01*
G37*
G36*
X142081122Y-103590795D02*
X142287857Y-103633232D01*
X142482427Y-103715021D01*
X142657398Y-103833041D01*
X142806113Y-103982798D01*
X142922907Y-104158588D01*
X143003333Y-104353716D01*
X143044258Y-104560404D01*
X143044258Y-104560409D01*
X143044326Y-104560753D01*
X143040960Y-104801816D01*
X143040883Y-104802154D01*
X143040883Y-104802163D01*
X142994202Y-105007629D01*
X142908361Y-105200432D01*
X142786701Y-105372895D01*
X142633862Y-105518442D01*
X142455664Y-105631530D01*
X142258890Y-105707853D01*
X142051047Y-105744502D01*
X141840037Y-105740082D01*
X141633905Y-105694761D01*
X141440502Y-105610265D01*
X141267199Y-105489816D01*
X141120588Y-105337997D01*
X141006258Y-105160590D01*
X140928561Y-104964352D01*
X140890464Y-104756772D01*
X140893410Y-104545738D01*
X140937291Y-104339293D01*
X141020433Y-104145308D01*
X141139673Y-103971163D01*
X141290464Y-103823497D01*
X141467068Y-103707931D01*
X141662755Y-103628868D01*
X141870067Y-103589322D01*
X142081122Y-103590795D01*
X142081122Y-103590795D01*
G37*
G36*
X144621122Y-103590795D02*
X144827857Y-103633232D01*
X145022427Y-103715021D01*
X145197398Y-103833041D01*
X145346113Y-103982798D01*
X145462907Y-104158588D01*
X145543333Y-104353716D01*
X145584258Y-104560404D01*
X145584258Y-104560409D01*
X145584326Y-104560753D01*
X145580960Y-104801816D01*
X145580883Y-104802154D01*
X145580883Y-104802163D01*
X145534202Y-105007629D01*
X145448361Y-105200432D01*
X145326701Y-105372895D01*
X145173862Y-105518442D01*
X144995664Y-105631530D01*
X144798890Y-105707853D01*
X144591047Y-105744502D01*
X144380037Y-105740082D01*
X144173905Y-105694761D01*
X143980502Y-105610265D01*
X143807199Y-105489816D01*
X143660588Y-105337997D01*
X143546258Y-105160590D01*
X143468561Y-104964352D01*
X143430464Y-104756772D01*
X143433410Y-104545738D01*
X143477291Y-104339293D01*
X143560433Y-104145308D01*
X143679673Y-103971163D01*
X143830464Y-103823497D01*
X144007068Y-103707931D01*
X144202755Y-103628868D01*
X144410067Y-103589322D01*
X144621122Y-103590795D01*
X144621122Y-103590795D01*
G37*
G36*
X140791190Y-97592127D02*
X141382135Y-97713431D01*
X141938278Y-97947212D01*
X142438414Y-98284558D01*
X142863501Y-98712623D01*
X143197346Y-99215101D01*
X143427236Y-99772856D01*
X143544344Y-100364294D01*
X143544344Y-100364304D01*
X143544411Y-100364643D01*
X143534790Y-101053696D01*
X143534713Y-101054034D01*
X143534713Y-101054042D01*
X143401137Y-101641981D01*
X143155765Y-102193096D01*
X142808017Y-102686058D01*
X142371142Y-103102089D01*
X141861780Y-103425341D01*
X141299334Y-103643499D01*
X140705227Y-103748256D01*
X140102083Y-103735622D01*
X139512880Y-103606077D01*
X138960062Y-103364557D01*
X138464687Y-103020262D01*
X138045617Y-102586303D01*
X137718818Y-102079210D01*
X137496736Y-101518294D01*
X137387835Y-100924938D01*
X137396257Y-100321721D01*
X137521686Y-99731627D01*
X137759339Y-99177138D01*
X138100171Y-98679368D01*
X138531192Y-98257280D01*
X139035993Y-97926948D01*
X139595339Y-97700957D01*
X140187925Y-97587916D01*
X140791190Y-97592127D01*
X140791190Y-97592127D01*
G37*
M02*
