G04 #@! TF.FileFunction,Profile,NP*
%FSLAX46Y46*%
G04 Gerber Fmt 4.6, Leading zero omitted, Abs format (unit mm)*
G04 Created by KiCad (PCBNEW 4.0.1-3.201512221402+6198~38~ubuntu14.04.1-stable) date Tue 16 Feb 2016 12:41:40 PM PST*
%MOMM*%
G01*
G04 APERTURE LIST*
%ADD10C,0.100000*%
%ADD11C,0.150000*%
G04 APERTURE END LIST*
D10*
D11*
X142240000Y-22860000D02*
X142240000Y-76200000D01*
X20320000Y-22860000D02*
X142240000Y-22860000D01*
X20320000Y-132080000D02*
X20320000Y-22860000D01*
X142240000Y-132080000D02*
X20320000Y-132080000D01*
X142240000Y-76200000D02*
X142240000Y-132080000D01*
X91968000Y-98968000D02*
X91968000Y-78968000D01*
X107968000Y-98968000D02*
X91968000Y-98968000D01*
X107968000Y-74968000D02*
X107968000Y-98968000D01*
X91968000Y-74968000D02*
X107968000Y-74968000D01*
X91968000Y-78968000D02*
X91968000Y-74968000D01*
X89460000Y-74968000D02*
X85460000Y-74968000D01*
X89460000Y-98968000D02*
X89460000Y-74968000D01*
X81460000Y-98968000D02*
X89460000Y-98968000D01*
X81460000Y-74968000D02*
X81460000Y-98968000D01*
X85460000Y-74968000D02*
X81460000Y-74968000D01*
X62150000Y-70155000D02*
X62150000Y-58155000D01*
X94150000Y-70155000D02*
X62150000Y-70155000D01*
X94150000Y-54155000D02*
X94150000Y-70155000D01*
X62150000Y-54155000D02*
X94150000Y-54155000D01*
X62150000Y-58155000D02*
X62150000Y-54155000D01*
X116510000Y-72570000D02*
X116510000Y-64570000D01*
X132510000Y-72570000D02*
X116510000Y-72570000D01*
X132510000Y-64570000D02*
X132510000Y-72570000D01*
X116510000Y-64570000D02*
X132510000Y-64570000D01*
X133780000Y-120318000D02*
X115780000Y-120318000D01*
X133780000Y-104318000D02*
X133780000Y-120318000D01*
X115780000Y-104318000D02*
X133780000Y-104318000D01*
X113400000Y-56632000D02*
X97400000Y-56632000D01*
X113400000Y-72632000D02*
X113400000Y-56632000D01*
X97400000Y-72632000D02*
X113400000Y-72632000D01*
X97400000Y-56632000D02*
X97400000Y-72632000D01*
X85780000Y-120318000D02*
X85780000Y-104318000D01*
X115780000Y-120318000D02*
X85780000Y-120318000D01*
X85780000Y-104318000D02*
X115780000Y-104318000D01*
X48066000Y-106980000D02*
X48066000Y-74980000D01*
X78066000Y-106980000D02*
X48066000Y-106980000D01*
X78066000Y-74980000D02*
X78066000Y-106980000D01*
X48066000Y-74980000D02*
X78066000Y-74980000D01*
X29205000Y-104860000D02*
X37205000Y-104860000D01*
X29205000Y-112860000D02*
X29205000Y-104860000D01*
X45205000Y-112860000D02*
X29205000Y-112860000D01*
X45205000Y-104860000D02*
X45205000Y-112860000D01*
X37205000Y-104860000D02*
X45205000Y-104860000D01*
X53285000Y-71050000D02*
X29285000Y-71050000D01*
X53285000Y-51050000D02*
X53285000Y-71050000D01*
X29285000Y-51050000D02*
X53285000Y-51050000D01*
X29285000Y-71050000D02*
X29285000Y-51050000D01*
X64650000Y-31780000D02*
X48650000Y-31780000D01*
X64650000Y-47780000D02*
X64650000Y-31780000D01*
X48650000Y-47780000D02*
X64650000Y-47780000D01*
X48650000Y-31780000D02*
X48650000Y-47780000D01*
X45380000Y-47780000D02*
X45380000Y-31780000D01*
X29380000Y-47780000D02*
X45380000Y-47780000D01*
X29380000Y-31780000D02*
X29380000Y-47780000D01*
X45380000Y-31780000D02*
X29380000Y-31780000D01*
X29285000Y-116145000D02*
X29285000Y-124145000D01*
X45285000Y-116145000D02*
X29285000Y-116145000D01*
X45285000Y-124145000D02*
X45285000Y-116145000D01*
X29285000Y-124145000D02*
X45285000Y-124145000D01*
X134434000Y-75366000D02*
X134434000Y-99366000D01*
X110434000Y-75366000D02*
X134434000Y-75366000D01*
X110434000Y-99366000D02*
X110434000Y-75366000D01*
X134434000Y-99366000D02*
X110434000Y-99366000D01*
X118230000Y-53290000D02*
X110230000Y-53290000D01*
X118230000Y-61290000D02*
X118230000Y-53290000D01*
X126230000Y-61290000D02*
X118230000Y-61290000D01*
X126230000Y-53290000D02*
X126230000Y-61290000D01*
X134230000Y-53290000D02*
X126230000Y-53290000D01*
X134230000Y-45290000D02*
X134230000Y-53290000D01*
X126230000Y-45290000D02*
X134230000Y-45290000D01*
X126230000Y-37290000D02*
X126230000Y-45290000D01*
X118230000Y-37290000D02*
X126230000Y-37290000D01*
X118230000Y-45290000D02*
X118230000Y-37290000D01*
X117230000Y-45290000D02*
X118230000Y-45290000D01*
X110230000Y-45290000D02*
X117230000Y-45290000D01*
X110230000Y-53290000D02*
X110230000Y-45290000D01*
X48824000Y-110672000D02*
X65824000Y-110672000D01*
X48824000Y-118672000D02*
X48824000Y-110672000D01*
X80824000Y-118672000D02*
X48824000Y-118672000D01*
X80824000Y-110672000D02*
X80824000Y-118672000D01*
X65824000Y-110672000D02*
X80824000Y-110672000D01*
X45205000Y-82320000D02*
X37205000Y-82320000D01*
X45205000Y-74320000D02*
X45205000Y-82320000D01*
X29205000Y-74320000D02*
X45205000Y-74320000D01*
X29205000Y-82320000D02*
X29205000Y-74320000D01*
X37205000Y-82320000D02*
X29205000Y-82320000D01*
X29205000Y-86590000D02*
X29205000Y-85590000D01*
X45205000Y-85590000D02*
X29205000Y-85590000D01*
X45205000Y-101590000D02*
X45205000Y-85590000D01*
X29205000Y-101590000D02*
X45205000Y-101590000D01*
X29205000Y-86590000D02*
X29205000Y-101590000D01*
X68000000Y-32215000D02*
X68000000Y-49215000D01*
X100000000Y-32215000D02*
X68000000Y-32215000D01*
X100000000Y-49215000D02*
X100000000Y-32215000D01*
X68000000Y-49215000D02*
X100000000Y-49215000D01*
M02*
