%TF.GenerationSoftware,KiCad,Pcbnew,4.0.7-e2-6376~58~ubuntu16.04.1*%
%TF.CreationDate,2018-05-09T10:33:28-07:00*%
%TF.ProjectId,2x2-LED-WHITE-SMT-LIMITED,3278322D4C45442D57484954452D534D,1.0*%
%TF.FileFunction,Legend,Top*%
%FSLAX46Y46*%
G04 Gerber Fmt 4.6, Leading zero omitted, Abs format (unit mm)*
G04 Created by KiCad (PCBNEW 4.0.7-e2-6376~58~ubuntu16.04.1) date Wed May  9 10:33:28 2018*
%MOMM*%
%LPD*%
G01*
G04 APERTURE LIST*
%ADD10C,0.350000*%
%ADD11C,0.152400*%
%ADD12C,8.000000*%
%ADD13C,0.150000*%
%ADD14C,0.600000*%
%ADD15R,1.652400X1.752400*%
%ADD16R,1.752400X1.652400*%
G04 APERTURE END LIST*
D10*
D11*
X25218572Y-37543619D02*
X25460477Y-38559619D01*
X25654000Y-37833905D01*
X25847524Y-38559619D01*
X26089429Y-37543619D01*
D12*
X21718000Y-46100000D02*
X29718000Y-46100000D01*
D13*
X20012571Y-46789429D02*
X19286857Y-46789429D01*
X19286857Y-45265429D01*
X20520571Y-45991143D02*
X21028571Y-45991143D01*
X21246285Y-46789429D02*
X20520571Y-46789429D01*
X20520571Y-45265429D01*
X21246285Y-45265429D01*
X21899428Y-46789429D02*
X21899428Y-45265429D01*
X22262285Y-45265429D01*
X22480000Y-45338000D01*
X22625142Y-45483143D01*
X22697714Y-45628286D01*
X22770285Y-45918571D01*
X22770285Y-46136286D01*
X22697714Y-46426571D01*
X22625142Y-46571714D01*
X22480000Y-46716857D01*
X22262285Y-46789429D01*
X21899428Y-46789429D01*
X24221714Y-46789429D02*
X23350857Y-46789429D01*
X23786285Y-46789429D02*
X23786285Y-45265429D01*
X23641142Y-45483143D01*
X23496000Y-45628286D01*
X23350857Y-45700857D01*
X25011143Y-36052381D02*
X24534952Y-36052381D01*
X24534952Y-35052381D01*
X25344476Y-35528571D02*
X25677810Y-35528571D01*
X25820667Y-36052381D02*
X25344476Y-36052381D01*
X25344476Y-35052381D01*
X25820667Y-35052381D01*
X26249238Y-36052381D02*
X26249238Y-35052381D01*
X26487333Y-35052381D01*
X26630191Y-35100000D01*
X26725429Y-35195238D01*
X26773048Y-35290476D01*
X26820667Y-35480952D01*
X26820667Y-35623810D01*
X26773048Y-35814286D01*
X26725429Y-35909524D01*
X26630191Y-36004762D01*
X26487333Y-36052381D01*
X26249238Y-36052381D01*
%LPC*%
D14*
X18918000Y-46100000D02*
G75*
G03X24518000Y-46100000I2800000J0D01*
G01*
X26918000Y-46100000D02*
G75*
G03X29718000Y-43300000I2800000J0D01*
G01*
X29718000Y-40900000D02*
G75*
G03X26918000Y-38100000I0J2800000D01*
G01*
X24518000Y-38100000D02*
G75*
G03X18918000Y-38100000I-2800000J0D01*
G01*
D15*
X19908000Y-42100000D03*
X23328000Y-42100000D03*
D16*
X25718000Y-44060000D03*
X25718000Y-40640000D03*
M02*
