M48
;DRILL file {KiCad (2015-08-15 BZR 6092)-product} date 2/25/2016 10:40:55 PM
;FORMAT={-:-/ absolute / inch / decimal}
FMAT,2
INCH,TZ
T1C0.013
T2C0.020
T3C0.031
T4C0.032
T5C0.039
T6C0.189
T7C0.192
%
G90
G05
M72
T1
X5.1076Y-1.4173
X5.1476Y-1.4173
X5.1876Y-1.4173
X5.2848Y-1.4173
X5.3248Y-1.4173
X5.3648Y-1.4173
X5.5512Y-0.9836
X5.5512Y-1.0236
X5.5512Y-1.0636
X5.5512Y-1.1411
X5.5512Y-1.1811
X5.5512Y-1.2211
X5.8661Y-1.6135
X5.8661Y-1.6535
X5.8661Y-1.6935
X5.8661Y-1.771
X5.8661Y-1.811
X5.8661Y-1.851
X5.8661Y-1.9285
X5.8661Y-1.9685
X5.8661Y-2.0085
X5.8661Y-2.086
X5.8661Y-2.126
X5.8661Y-2.166
X6.1811Y-0.9836
X6.1811Y-1.0236
X6.1811Y-1.0636
X6.1811Y-1.1411
X6.1811Y-1.1811
X6.1811Y-1.2211
X6.3773Y-1.4173
X6.4173Y-1.4173
X6.4573Y-1.4173
X6.5348Y-1.4173
X6.5748Y-1.4173
X6.6148Y-1.4173
T2
X5.2559Y-1.5157
X6.1614Y-2.0669
X6.1811Y-1.6732
T3
X5.2657Y-1.6929
X5.2657Y-1.7929
X5.2657Y-1.8929
X5.2657Y-1.9929
X5.5657Y-1.6929
X5.5657Y-1.7929
X5.5657Y-1.8929
X5.5657Y-1.9929
T4
X6.4961Y-1.0024
X6.4961Y-1.1024
X6.4961Y-1.2024
T5
X5.2049Y-1.071
X5.2756Y-1.1417
T6
X5.0787Y-1.5748
T7
X5.0787Y-0.9449
X5.0787Y-1.2598
X5.0787Y-1.8898
X5.0787Y-2.2047
X5.3937Y-0.9449
X5.3937Y-1.2598
X5.3937Y-1.5748
X5.3937Y-1.8898
X5.3937Y-2.2047
X5.7087Y-0.9449
X5.7087Y-1.2598
X5.7087Y-1.5748
X5.7087Y-1.8898
X5.7087Y-2.2047
X6.0236Y-0.9449
X6.0236Y-1.2598
X6.0236Y-1.5748
X6.0236Y-1.8898
X6.0236Y-2.2047
X6.3386Y-0.9449
X6.3386Y-1.2598
X6.3386Y-1.5748
X6.3386Y-1.8898
X6.6535Y-0.9449
X6.6535Y-1.2598
X6.6535Y-1.5748
X6.6535Y-1.8898
X6.6535Y-2.2047
T0
M30
