G04 #@! TF.FileFunction,Legend,Top*
%FSLAX46Y46*%
G04 Gerber Fmt 4.6, Leading zero omitted, Abs format (unit mm)*
G04 Created by KiCad (PCBNEW (2015-08-15 BZR 6092)-product) date 2/25/2016 10:40:52 PM*
%MOMM*%
G01*
G04 APERTURE LIST*
%ADD10C,0.100000*%
%ADD11C,0.300000*%
%ADD12C,0.250000*%
%ADD13C,0.175000*%
%ADD14C,0.200000*%
%ADD15C,0.150000*%
G04 APERTURE END LIST*
D10*
D11*
X132928572Y-26357143D02*
X134071429Y-26357143D01*
X133500000Y-26928571D02*
X133500000Y-25785714D01*
X139364286Y-54292857D02*
X139364286Y-53092857D01*
X139650001Y-53092857D01*
X139821429Y-53150000D01*
X139935715Y-53264286D01*
X139992858Y-53378571D01*
X140050001Y-53607143D01*
X140050001Y-53778571D01*
X139992858Y-54007143D01*
X139935715Y-54121429D01*
X139821429Y-54235714D01*
X139650001Y-54292857D01*
X139364286Y-54292857D01*
X140792858Y-53092857D02*
X140907143Y-53092857D01*
X141021429Y-53150000D01*
X141078572Y-53207143D01*
X141135715Y-53321429D01*
X141192858Y-53550000D01*
X141192858Y-53835714D01*
X141135715Y-54064286D01*
X141078572Y-54178571D01*
X141021429Y-54235714D01*
X140907143Y-54292857D01*
X140792858Y-54292857D01*
X140678572Y-54235714D01*
X140621429Y-54178571D01*
X140564286Y-54064286D01*
X140507143Y-53835714D01*
X140507143Y-53550000D01*
X140564286Y-53321429D01*
X140621429Y-53207143D01*
X140678572Y-53150000D01*
X140792858Y-53092857D01*
X141988095Y-27892857D02*
X143511905Y-27892857D01*
X138488095Y-27892857D02*
X140011905Y-27892857D01*
X154488095Y-27892857D02*
X156011905Y-27892857D01*
X155250000Y-28654762D02*
X155250000Y-27130952D01*
X125738095Y-27892857D02*
X127261905Y-27892857D01*
X126500000Y-28654762D02*
X126500000Y-27130952D01*
X150428572Y-44107143D02*
X151571429Y-44107143D01*
X150428572Y-52107143D02*
X151571429Y-52107143D01*
X171428572Y-43107143D02*
X172571429Y-43107143D01*
X172000000Y-43678571D02*
X172000000Y-42535714D01*
X171428572Y-53107143D02*
X172571429Y-53107143D01*
X172000000Y-53678571D02*
X172000000Y-52535714D01*
D12*
X132261905Y-21702381D02*
X132261905Y-20702381D01*
X132500000Y-20702381D01*
X132642858Y-20750000D01*
X132738096Y-20845238D01*
X132785715Y-20940476D01*
X132833334Y-21130952D01*
X132833334Y-21273810D01*
X132785715Y-21464286D01*
X132738096Y-21559524D01*
X132642858Y-21654762D01*
X132500000Y-21702381D01*
X132261905Y-21702381D01*
X133785715Y-21702381D02*
X133214286Y-21702381D01*
X133500000Y-21702381D02*
X133500000Y-20702381D01*
X133404762Y-20845238D01*
X133309524Y-20940476D01*
X133214286Y-20988095D01*
X148285714Y-21416667D02*
X148761905Y-21416667D01*
X148190476Y-21702381D02*
X148523809Y-20702381D01*
X148857143Y-21702381D01*
X149095238Y-20702381D02*
X149714286Y-20702381D01*
X149380952Y-21083333D01*
X149523810Y-21083333D01*
X149619048Y-21130952D01*
X149666667Y-21178571D01*
X149714286Y-21273810D01*
X149714286Y-21511905D01*
X149666667Y-21607143D01*
X149619048Y-21654762D01*
X149523810Y-21702381D01*
X149238095Y-21702381D01*
X149142857Y-21654762D01*
X149095238Y-21607143D01*
D11*
X132228572Y-35542857D02*
X131657143Y-35542857D01*
X131657143Y-34342857D01*
X132628572Y-34914286D02*
X133028572Y-34914286D01*
X133200001Y-35542857D02*
X132628572Y-35542857D01*
X132628572Y-34342857D01*
X133200001Y-34342857D01*
X133714286Y-35542857D02*
X133714286Y-34342857D01*
X134000001Y-34342857D01*
X134171429Y-34400000D01*
X134285715Y-34514286D01*
X134342858Y-34628571D01*
X134400001Y-34857143D01*
X134400001Y-35028571D01*
X134342858Y-35257143D01*
X134285715Y-35371429D01*
X134171429Y-35485714D01*
X134000001Y-35542857D01*
X133714286Y-35542857D01*
D13*
X147350001Y-34866667D02*
X147750001Y-34866667D01*
X147550001Y-35566667D02*
X147550001Y-34866667D01*
X148116667Y-34866667D02*
X148250000Y-34866667D01*
X148316667Y-34900000D01*
X148383334Y-34966667D01*
X148416667Y-35100000D01*
X148416667Y-35333333D01*
X148383334Y-35466667D01*
X148316667Y-35533333D01*
X148250000Y-35566667D01*
X148116667Y-35566667D01*
X148050000Y-35533333D01*
X147983334Y-35466667D01*
X147950000Y-35333333D01*
X147950000Y-35100000D01*
X147983334Y-34966667D01*
X148050000Y-34900000D01*
X148116667Y-34866667D01*
X148716667Y-34866667D02*
X148716667Y-35433333D01*
X148750000Y-35500000D01*
X148783333Y-35533333D01*
X148850000Y-35566667D01*
X148983333Y-35566667D01*
X149050000Y-35533333D01*
X149083333Y-35500000D01*
X149116667Y-35433333D01*
X149116667Y-34866667D01*
X149850000Y-35500000D02*
X149816666Y-35533333D01*
X149716666Y-35566667D01*
X149650000Y-35566667D01*
X149550000Y-35533333D01*
X149483333Y-35466667D01*
X149450000Y-35400000D01*
X149416666Y-35266667D01*
X149416666Y-35166667D01*
X149450000Y-35033333D01*
X149483333Y-34966667D01*
X149550000Y-34900000D01*
X149650000Y-34866667D01*
X149716666Y-34866667D01*
X149816666Y-34900000D01*
X149850000Y-34933333D01*
X150150000Y-35566667D02*
X150150000Y-34866667D01*
X150150000Y-35200000D02*
X150550000Y-35200000D01*
X150550000Y-35566667D02*
X150550000Y-34866667D01*
D11*
X163607144Y-34342857D02*
X163835715Y-34342857D01*
X163950001Y-34400000D01*
X164064287Y-34514286D01*
X164121429Y-34742857D01*
X164121429Y-35142857D01*
X164064287Y-35371429D01*
X163950001Y-35485714D01*
X163835715Y-35542857D01*
X163607144Y-35542857D01*
X163492858Y-35485714D01*
X163378572Y-35371429D01*
X163321429Y-35142857D01*
X163321429Y-34742857D01*
X163378572Y-34514286D01*
X163492858Y-34400000D01*
X163607144Y-34342857D01*
X165035715Y-34914286D02*
X164635715Y-34914286D01*
X164635715Y-35542857D02*
X164635715Y-34342857D01*
X165207144Y-34342857D01*
X166064286Y-34914286D02*
X165664286Y-34914286D01*
X165664286Y-35542857D02*
X165664286Y-34342857D01*
X166235715Y-34342857D01*
X163821428Y-20178571D02*
X164107142Y-20178571D01*
X164250000Y-20250000D01*
X164392857Y-20392857D01*
X164464285Y-20678571D01*
X164464285Y-21178571D01*
X164392857Y-21464286D01*
X164250000Y-21607143D01*
X164107142Y-21678571D01*
X163821428Y-21678571D01*
X163678571Y-21607143D01*
X163535714Y-21464286D01*
X163464285Y-21178571D01*
X163464285Y-20678571D01*
X163535714Y-20392857D01*
X163678571Y-20250000D01*
X163821428Y-20178571D01*
X165107143Y-21678571D02*
X165107143Y-20178571D01*
X165964286Y-21678571D01*
X165964286Y-20178571D01*
X147178571Y-53071428D02*
X147178571Y-52928571D01*
X147250000Y-52785714D01*
X147321429Y-52714285D01*
X147464286Y-52642856D01*
X147750000Y-52571428D01*
X148107143Y-52571428D01*
X148392857Y-52642856D01*
X148535714Y-52714285D01*
X148607143Y-52785714D01*
X148678571Y-52928571D01*
X148678571Y-53071428D01*
X148607143Y-53214285D01*
X148535714Y-53285714D01*
X148392857Y-53357142D01*
X148107143Y-53428571D01*
X147750000Y-53428571D01*
X147464286Y-53357142D01*
X147321429Y-53285714D01*
X147250000Y-53214285D01*
X147178571Y-53071428D01*
X132357143Y-54321428D02*
X132357143Y-53178571D01*
X148428571Y-44321428D02*
X148428571Y-45178571D01*
X148428571Y-44749999D02*
X146928571Y-44749999D01*
X147142857Y-44892856D01*
X147285714Y-45035714D01*
X147357143Y-45178571D01*
X126321429Y-51535715D02*
X125321429Y-51535715D01*
X126892857Y-51178572D02*
X125821429Y-50821429D01*
X125821429Y-51750001D01*
X127071429Y-43000001D02*
X127071429Y-43928572D01*
X126500000Y-43428572D01*
X126500000Y-43642858D01*
X126428571Y-43785715D01*
X126357143Y-43857144D01*
X126214286Y-43928572D01*
X125857143Y-43928572D01*
X125714286Y-43857144D01*
X125642857Y-43785715D01*
X125571429Y-43642858D01*
X125571429Y-43214286D01*
X125642857Y-43071429D01*
X125714286Y-43000001D01*
X141428572Y-37107143D02*
X142571429Y-37107143D01*
X142000000Y-37678571D02*
X142000000Y-36535714D01*
D14*
X135992000Y-43495000D02*
G75*
G03X135992000Y-43495000I-500000J0D01*
G01*
D15*
X135762641Y-28558869D02*
G75*
G03X133632304Y-30753625I-2469748J265976D01*
G01*
X135753625Y-28632304D02*
X133632304Y-30753625D01*
X153824500Y-54540500D02*
X150459000Y-52572000D01*
X168175500Y-54667500D02*
X171541000Y-52572000D01*
X153799100Y-54540500D02*
G75*
G03X157482100Y-54413500I1778000J1905000D01*
G01*
X164505200Y-54540500D02*
G75*
G03X168188200Y-54667500I1905000J1778000D01*
G01*
X164556000Y-54540500D02*
G75*
G03X157444000Y-54413500I-3619500J-3492500D01*
G01*
X168620000Y-40126000D02*
X171541000Y-43491500D01*
X150459000Y-43428000D02*
X153443500Y-40062500D01*
X153380000Y-40126000D02*
X168620000Y-40126000D01*
X150459000Y-52572000D02*
X150459000Y-43428000D01*
X171541000Y-52572000D02*
X171541000Y-43428000D01*
X133885000Y-40705000D02*
X133885000Y-41975000D01*
X141235000Y-40705000D02*
X141235000Y-41975000D01*
X141235000Y-52915000D02*
X141235000Y-51645000D01*
X133885000Y-52915000D02*
X133885000Y-51645000D01*
X133885000Y-40705000D02*
X141235000Y-40705000D01*
X133885000Y-52915000D02*
X141235000Y-52915000D01*
X133885000Y-41975000D02*
X132950000Y-41975000D01*
X165000000Y-31810000D02*
X162460000Y-31810000D01*
X162460000Y-31810000D02*
X162460000Y-24190000D01*
X162460000Y-24190000D02*
X165000000Y-24190000D01*
X141800000Y-59150000D02*
X141800000Y-55550000D01*
X139700000Y-59150000D02*
X139700000Y-55550000D01*
X140450000Y-57100000D02*
X141050000Y-57100000D01*
X141050000Y-57100000D02*
X140750000Y-57400000D01*
X140750000Y-57400000D02*
X140550000Y-57200000D01*
X140550000Y-57200000D02*
X140800000Y-57200000D01*
X140800000Y-57200000D02*
X140750000Y-57250000D01*
X140250000Y-57500000D02*
X141250000Y-57500000D01*
X140750000Y-57000000D02*
X140750000Y-56500000D01*
X140750000Y-57500000D02*
X140250000Y-57000000D01*
X140250000Y-57000000D02*
X141250000Y-57000000D01*
X141250000Y-57000000D02*
X140750000Y-57500000D01*
X132425000Y-58250000D02*
X132425000Y-56250000D01*
X134575000Y-56250000D02*
X134575000Y-58250000D01*
X139175000Y-39500000D02*
X139175000Y-37500000D01*
X141325000Y-37500000D02*
X141325000Y-39500000D01*
X136023810Y-52202381D02*
X136023810Y-51202381D01*
X137071429Y-52107143D02*
X137023810Y-52154762D01*
X136880953Y-52202381D01*
X136785715Y-52202381D01*
X136642857Y-52154762D01*
X136547619Y-52059524D01*
X136500000Y-51964286D01*
X136452381Y-51773810D01*
X136452381Y-51630952D01*
X136500000Y-51440476D01*
X136547619Y-51345238D01*
X136642857Y-51250000D01*
X136785715Y-51202381D01*
X136880953Y-51202381D01*
X137023810Y-51250000D01*
X137071429Y-51297619D01*
X138023810Y-52202381D02*
X137452381Y-52202381D01*
X137738095Y-52202381D02*
X137738095Y-51202381D01*
X137642857Y-51345238D01*
X137547619Y-51440476D01*
X137452381Y-51488095D01*
M02*
