G04 #@! TF.FileFunction,Copper,L2,Bot,Signal*
%FSLAX46Y46*%
G04 Gerber Fmt 4.6, Leading zero omitted, Abs format (unit mm)*
G04 Created by KiCad (PCBNEW (2015-08-15 BZR 6092)-product) date 2/25/2016 10:40:52 PM*
%MOMM*%
G01*
G04 APERTURE LIST*
%ADD10C,0.100000*%
%ADD11C,1.700000*%
%ADD12C,6.500000*%
%ADD13C,4.876800*%
%ADD14O,1.600000X1.600000*%
%ADD15C,1.524000*%
%ADD16C,0.330200*%
%ADD17C,1.000000*%
%ADD18C,0.609600*%
%ADD19C,0.406400*%
%ADD20C,0.304800*%
G04 APERTURE END LIST*
D10*
G36*
X134000000Y-27797918D02*
X135202082Y-29000000D01*
X134000000Y-30202082D01*
X132797918Y-29000000D01*
X134000000Y-27797918D01*
X134000000Y-27797918D01*
G37*
D11*
X132203949Y-27203949D03*
D12*
X153000000Y-40000000D03*
D13*
X137000000Y-40000000D03*
D12*
X129000000Y-40000000D03*
X145000000Y-56000000D03*
X129000000Y-56000000D03*
X145000000Y-40000000D03*
D13*
X137000000Y-48000000D03*
X137000000Y-56000000D03*
D14*
X133750000Y-43000000D03*
X133750000Y-45540000D03*
X133750000Y-48080000D03*
X133750000Y-50620000D03*
X141370000Y-50620000D03*
X141370000Y-48080000D03*
X141370000Y-45540000D03*
X141370000Y-43000000D03*
D13*
X153000000Y-48000000D03*
X161000000Y-48000000D03*
D12*
X161000000Y-32000000D03*
X161000000Y-24000000D03*
X169000000Y-32000000D03*
X169000000Y-24000000D03*
D13*
X161000000Y-40000000D03*
X169000000Y-48000000D03*
D12*
X153000000Y-56000000D03*
D15*
X165000000Y-28000000D03*
X165000000Y-25460000D03*
X165000000Y-30540000D03*
D16*
X149000000Y-55016000D03*
X149000000Y-52984000D03*
X149000000Y-54000000D03*
X149000000Y-51016000D03*
X149000000Y-48984000D03*
X149000000Y-50000000D03*
X149000000Y-47016000D03*
X149000000Y-44984000D03*
X149000000Y-46000000D03*
X149000000Y-43016000D03*
X149000000Y-40984000D03*
X149000000Y-42000000D03*
D12*
X137000000Y-24000000D03*
X137000000Y-32000000D03*
X129000000Y-32000000D03*
X129000000Y-24000000D03*
X145000000Y-32000000D03*
X145000000Y-24000000D03*
X153000000Y-32000000D03*
X153000000Y-24000000D03*
D16*
X129734000Y-36000000D03*
X131766000Y-36000000D03*
X130750000Y-36000000D03*
X134234000Y-36000000D03*
X136266000Y-36000000D03*
X135250000Y-36000000D03*
X161984000Y-36000000D03*
X164016000Y-36000000D03*
X163000000Y-36000000D03*
X165984000Y-36000000D03*
X168016000Y-36000000D03*
X167000000Y-36000000D03*
X157000000Y-27016000D03*
X157000000Y-24984000D03*
X157000000Y-26000000D03*
X157000000Y-31016000D03*
X157000000Y-28984000D03*
X157000000Y-30000000D03*
X141000000Y-27016000D03*
X141000000Y-24984000D03*
X141000000Y-26000000D03*
X141000000Y-31016000D03*
X141000000Y-28984000D03*
X141000000Y-30000000D03*
D12*
X169000000Y-40000000D03*
X169000000Y-56000000D03*
X145000000Y-48000000D03*
X129000000Y-48000000D03*
D17*
X133500000Y-38500000D03*
X157000000Y-42500000D03*
X156500000Y-52500000D03*
D18*
X134000000Y-29000000D02*
X137000000Y-32000000D01*
D19*
X133500000Y-34750000D02*
X136500000Y-32000000D01*
X133500000Y-38500000D02*
X133500000Y-34750000D01*
X136500000Y-32000000D02*
X137000000Y-32000000D01*
X133750000Y-50620000D02*
X133750000Y-51000000D01*
X133750000Y-51000000D02*
X133500000Y-51250000D01*
X133750000Y-50620000D02*
X133750000Y-50750000D01*
X133750000Y-50750000D02*
X135000000Y-52000000D01*
X151000000Y-52000000D02*
X153000000Y-54000000D01*
X135000000Y-52000000D02*
X151000000Y-52000000D01*
X153000000Y-54000000D02*
X153000000Y-56000000D01*
X133750000Y-50620000D02*
X133750000Y-50500000D01*
D18*
X153000000Y-56000000D02*
X153000000Y-55000000D01*
X153000000Y-40000000D02*
X154500000Y-40000000D01*
X154500000Y-40000000D02*
X157000000Y-42500000D01*
X153000000Y-56000000D02*
X156500000Y-52500000D01*
D19*
X161000000Y-32000000D02*
X162500000Y-32000000D01*
X162500000Y-32000000D02*
X165000000Y-34500000D01*
X147500000Y-44000000D02*
X145000000Y-41500000D01*
X163500000Y-44000000D02*
X147500000Y-44000000D01*
X164500000Y-43000000D02*
X163500000Y-44000000D01*
X164500000Y-37500000D02*
X164500000Y-43000000D01*
X165000000Y-37000000D02*
X164500000Y-37500000D01*
X165000000Y-34500000D02*
X165000000Y-37000000D01*
X145000000Y-41500000D02*
X145000000Y-40000000D01*
D18*
X141370000Y-48080000D02*
X144920000Y-48080000D01*
X144920000Y-48080000D02*
X145000000Y-48000000D01*
D20*
X129000000Y-40000000D02*
X129750000Y-40000000D01*
X129750000Y-40000000D02*
X132750000Y-37000000D01*
X151250000Y-28000000D02*
X135500000Y-28000000D01*
X135500000Y-28000000D02*
X134500000Y-27000000D01*
X134500000Y-27000000D02*
X134250000Y-27000000D01*
X134250000Y-27000000D02*
X132000000Y-29250000D01*
X153000000Y-29750000D02*
X151250000Y-28000000D01*
X132000000Y-29750000D02*
X132000000Y-29250000D01*
X132750000Y-30500000D02*
X132000000Y-29750000D01*
X132750000Y-37000000D02*
X132750000Y-30500000D01*
X153000000Y-32000000D02*
X153000000Y-29750000D01*
D19*
X129500000Y-40000000D02*
X129000000Y-40000000D01*
X133750000Y-45540000D02*
X133960000Y-45540000D01*
X133960000Y-45540000D02*
X135750000Y-43750000D01*
X135750000Y-43750000D02*
X135750000Y-43000000D01*
X135750000Y-43000000D02*
X132750000Y-40000000D01*
X132750000Y-40000000D02*
X129000000Y-40000000D01*
X129000000Y-48000000D02*
X133670000Y-48000000D01*
X133670000Y-48000000D02*
X133750000Y-48080000D01*
X129000000Y-48000000D02*
X129000000Y-46000000D01*
M02*
