G04 #@! TF.FileFunction,Legend,Bot*
%FSLAX46Y46*%
G04 Gerber Fmt 4.6, Leading zero omitted, Abs format (unit mm)*
G04 Created by KiCad (PCBNEW 4.0.1-3.201512221402+6198~38~ubuntu14.04.1-stable) date Tue 01 Mar 2016 11:57:29 AM PST*
%MOMM*%
G01*
G04 APERTURE LIST*
%ADD10C,0.100000*%
%ADD11C,0.150000*%
G04 APERTURE END LIST*
D10*
D11*
X127300000Y-88500000D02*
X127300000Y-88700000D01*
X129493400Y-86500000D02*
X133493400Y-86500000D01*
X129493400Y-92514200D02*
X133493400Y-92514200D01*
X127300000Y-89100000D02*
X127300000Y-89300000D01*
X127300000Y-89700000D02*
X127300000Y-89900000D01*
X127300000Y-90300000D02*
X127300000Y-90500000D01*
X135700000Y-89700000D02*
X135700000Y-89900000D01*
X135700000Y-88500000D02*
X135700000Y-88700000D01*
X135700000Y-89100000D02*
X135700000Y-89300000D01*
X135700000Y-90300000D02*
X135700000Y-90500000D01*
X133761904Y-89428571D02*
X133619047Y-89476190D01*
X133571428Y-89523810D01*
X133523809Y-89619048D01*
X133523809Y-89761905D01*
X133571428Y-89857143D01*
X133619047Y-89904762D01*
X133714285Y-89952381D01*
X134095238Y-89952381D01*
X134095238Y-88952381D01*
X133761904Y-88952381D01*
X133666666Y-89000000D01*
X133619047Y-89047619D01*
X133571428Y-89142857D01*
X133571428Y-89238095D01*
X133619047Y-89333333D01*
X133666666Y-89380952D01*
X133761904Y-89428571D01*
X134095238Y-89428571D01*
X133095238Y-88952381D02*
X133095238Y-89761905D01*
X133047619Y-89857143D01*
X133000000Y-89904762D01*
X132904762Y-89952381D01*
X132714285Y-89952381D01*
X132619047Y-89904762D01*
X132571428Y-89857143D01*
X132523809Y-89761905D01*
X132523809Y-88952381D01*
X132190476Y-88952381D02*
X131619047Y-88952381D01*
X131904762Y-89952381D02*
X131904762Y-88952381D01*
X131428571Y-88952381D02*
X130857142Y-88952381D01*
X131142857Y-89952381D02*
X131142857Y-88952381D01*
X130333333Y-88952381D02*
X130142856Y-88952381D01*
X130047618Y-89000000D01*
X129952380Y-89095238D01*
X129904761Y-89285714D01*
X129904761Y-89619048D01*
X129952380Y-89809524D01*
X130047618Y-89904762D01*
X130142856Y-89952381D01*
X130333333Y-89952381D01*
X130428571Y-89904762D01*
X130523809Y-89809524D01*
X130571428Y-89619048D01*
X130571428Y-89285714D01*
X130523809Y-89095238D01*
X130428571Y-89000000D01*
X130333333Y-88952381D01*
X129476190Y-89952381D02*
X129476190Y-88952381D01*
X128904761Y-89952381D01*
X128904761Y-88952381D01*
M02*
