%TF.GenerationSoftware,KiCad,Pcbnew,5.0.2-bee76a0~70~ubuntu16.04.1*%
%TF.CreationDate,2019-04-17T10:17:42-07:00*%
%TF.ProjectId,2x3-LED-RGB-TH-4PIN,3278332d-4c45-4442-9d52-47422d54482d,1.0*%
%TF.SameCoordinates,Original*%
%TF.FileFunction,Legend,Top*%
%TF.FilePolarity,Positive*%
%FSLAX46Y46*%
G04 Gerber Fmt 4.6, Leading zero omitted, Abs format (unit mm)*
G04 Created by KiCad (PCBNEW 5.0.2-bee76a0~70~ubuntu16.04.1) date Wed Apr 17 10:17:42 2019*
%MOMM*%
%LPD*%
G01*
G04 APERTURE LIST*
%ADD10C,0.500000*%
%ADD11C,0.150000*%
%ADD12C,6.152400*%
G04 APERTURE END LIST*
D10*
X63931400Y-67101720D02*
X47431400Y-67101720D01*
D11*
X62921876Y-63030291D02*
X63064733Y-63077910D01*
X63112352Y-63125529D01*
X63159971Y-63220767D01*
X63159971Y-63363624D01*
X63112352Y-63458862D01*
X63064733Y-63506481D01*
X62969495Y-63554100D01*
X62588542Y-63554100D01*
X62588542Y-62554100D01*
X62921876Y-62554100D01*
X63017114Y-62601720D01*
X63064733Y-62649339D01*
X63112352Y-62744577D01*
X63112352Y-62839815D01*
X63064733Y-62935053D01*
X63017114Y-62982672D01*
X62921876Y-63030291D01*
X62588542Y-63030291D01*
X64064733Y-63554100D02*
X63588542Y-63554100D01*
X63588542Y-62554100D01*
X64398066Y-62554100D02*
X64398066Y-63363624D01*
X64445685Y-63458862D01*
X64493304Y-63506481D01*
X64588542Y-63554100D01*
X64779019Y-63554100D01*
X64874257Y-63506481D01*
X64921876Y-63458862D01*
X64969495Y-63363624D01*
X64969495Y-62554100D01*
X65445685Y-63030291D02*
X65779019Y-63030291D01*
X65921876Y-63554100D02*
X65445685Y-63554100D01*
X65445685Y-62554100D01*
X65921876Y-62554100D01*
X55269495Y-62601720D02*
X55174257Y-62554100D01*
X55031400Y-62554100D01*
X54888542Y-62601720D01*
X54793304Y-62696958D01*
X54745685Y-62792196D01*
X54698066Y-62982672D01*
X54698066Y-63125529D01*
X54745685Y-63316005D01*
X54793304Y-63411243D01*
X54888542Y-63506481D01*
X55031400Y-63554100D01*
X55126638Y-63554100D01*
X55269495Y-63506481D01*
X55317114Y-63458862D01*
X55317114Y-63125529D01*
X55126638Y-63125529D01*
X56317114Y-63554100D02*
X55983780Y-63077910D01*
X55745685Y-63554100D02*
X55745685Y-62554100D01*
X56126638Y-62554100D01*
X56221876Y-62601720D01*
X56269495Y-62649339D01*
X56317114Y-62744577D01*
X56317114Y-62887434D01*
X56269495Y-62982672D01*
X56221876Y-63030291D01*
X56126638Y-63077910D01*
X55745685Y-63077910D01*
X56745685Y-63554100D02*
X56745685Y-62554100D01*
X57317114Y-63554100D01*
X57317114Y-62554100D01*
X47388542Y-63554100D02*
X47055209Y-63077910D01*
X46817114Y-63554100D02*
X46817114Y-62554100D01*
X47198066Y-62554100D01*
X47293304Y-62601720D01*
X47340923Y-62649339D01*
X47388542Y-62744577D01*
X47388542Y-62887434D01*
X47340923Y-62982672D01*
X47293304Y-63030291D01*
X47198066Y-63077910D01*
X46817114Y-63077910D01*
X47817114Y-63030291D02*
X48150447Y-63030291D01*
X48293304Y-63554100D02*
X47817114Y-63554100D01*
X47817114Y-62554100D01*
X48293304Y-62554100D01*
X48721876Y-63554100D02*
X48721876Y-62554100D01*
X48959971Y-62554100D01*
X49102828Y-62601720D01*
X49198066Y-62696958D01*
X49245685Y-62792196D01*
X49293304Y-62982672D01*
X49293304Y-63125529D01*
X49245685Y-63316005D01*
X49198066Y-63411243D01*
X49102828Y-63506481D01*
X48959971Y-63554100D01*
X48721876Y-63554100D01*
X52140923Y-69358862D02*
X52093304Y-69406481D01*
X51950447Y-69454100D01*
X51855209Y-69454100D01*
X51712352Y-69406481D01*
X51617114Y-69311243D01*
X51569495Y-69216005D01*
X51521876Y-69025529D01*
X51521876Y-68882672D01*
X51569495Y-68692196D01*
X51617114Y-68596958D01*
X51712352Y-68501720D01*
X51855209Y-68454100D01*
X51950447Y-68454100D01*
X52093304Y-68501720D01*
X52140923Y-68549339D01*
X60140923Y-69358862D02*
X60093304Y-69406481D01*
X59950447Y-69454100D01*
X59855209Y-69454100D01*
X59712352Y-69406481D01*
X59617114Y-69311243D01*
X59569495Y-69216005D01*
X59521876Y-69025529D01*
X59521876Y-68882672D01*
X59569495Y-68692196D01*
X59617114Y-68596958D01*
X59712352Y-68501720D01*
X59855209Y-68454100D01*
X59950447Y-68454100D01*
X60093304Y-68501720D01*
X60140923Y-68549339D01*
%LPC*%
D12*
X48031400Y-67101720D03*
X48031400Y-59101720D03*
X64031400Y-59101720D03*
X64031400Y-67101720D03*
X56031400Y-59101720D03*
X56031400Y-67101720D03*
M02*
