G04 #@! TF.FileFunction,Legend,Bot*
%FSLAX46Y46*%
G04 Gerber Fmt 4.6, Leading zero omitted, Abs format (unit mm)*
G04 Created by KiCad (PCBNEW 4.0.1-3.201512221402+6198~38~ubuntu14.04.1-stable) date Tue 01 Mar 2016 10:18:30 PM PST*
%MOMM*%
G01*
G04 APERTURE LIST*
%ADD10C,0.100000*%
%ADD11C,0.130000*%
G04 APERTURE END LIST*
D10*
D11*
X136809524Y-89848810D02*
X136695238Y-89886905D01*
X136504762Y-89886905D01*
X136428572Y-89848810D01*
X136390476Y-89810714D01*
X136352381Y-89734524D01*
X136352381Y-89658333D01*
X136390476Y-89582143D01*
X136428572Y-89544048D01*
X136504762Y-89505952D01*
X136657143Y-89467857D01*
X136733334Y-89429762D01*
X136771429Y-89391667D01*
X136809524Y-89315476D01*
X136809524Y-89239286D01*
X136771429Y-89163095D01*
X136733334Y-89125000D01*
X136657143Y-89086905D01*
X136466667Y-89086905D01*
X136352381Y-89125000D01*
X135628571Y-89886905D02*
X136009524Y-89886905D01*
X136009524Y-89086905D01*
X135361905Y-89886905D02*
X135361905Y-89086905D01*
X134980953Y-89886905D02*
X134980953Y-89086905D01*
X134790477Y-89086905D01*
X134676191Y-89125000D01*
X134600000Y-89201190D01*
X134561905Y-89277381D01*
X134523810Y-89429762D01*
X134523810Y-89544048D01*
X134561905Y-89696429D01*
X134600000Y-89772619D01*
X134676191Y-89848810D01*
X134790477Y-89886905D01*
X134980953Y-89886905D01*
X134180953Y-89467857D02*
X133914286Y-89467857D01*
X133800000Y-89886905D02*
X134180953Y-89886905D01*
X134180953Y-89086905D01*
X133800000Y-89086905D01*
X130000000Y-89873810D02*
X129885714Y-89911905D01*
X129695238Y-89911905D01*
X129619048Y-89873810D01*
X129580952Y-89835714D01*
X129542857Y-89759524D01*
X129542857Y-89683333D01*
X129580952Y-89607143D01*
X129619048Y-89569048D01*
X129695238Y-89530952D01*
X129847619Y-89492857D01*
X129923810Y-89454762D01*
X129961905Y-89416667D01*
X130000000Y-89340476D01*
X130000000Y-89264286D01*
X129961905Y-89188095D01*
X129923810Y-89150000D01*
X129847619Y-89111905D01*
X129657143Y-89111905D01*
X129542857Y-89150000D01*
X129276190Y-89111905D02*
X129085714Y-89911905D01*
X128933333Y-89340476D01*
X128780952Y-89911905D01*
X128590476Y-89111905D01*
X128285714Y-89911905D02*
X128285714Y-89111905D01*
X128019048Y-89111905D02*
X127561905Y-89111905D01*
X127790476Y-89911905D02*
X127790476Y-89111905D01*
X126838095Y-89835714D02*
X126876190Y-89873810D01*
X126990476Y-89911905D01*
X127066666Y-89911905D01*
X127180952Y-89873810D01*
X127257143Y-89797619D01*
X127295238Y-89721429D01*
X127333333Y-89569048D01*
X127333333Y-89454762D01*
X127295238Y-89302381D01*
X127257143Y-89226190D01*
X127180952Y-89150000D01*
X127066666Y-89111905D01*
X126990476Y-89111905D01*
X126876190Y-89150000D01*
X126838095Y-89188095D01*
X126495238Y-89911905D02*
X126495238Y-89111905D01*
X126495238Y-89492857D02*
X126038095Y-89492857D01*
X126038095Y-89911905D02*
X126038095Y-89111905D01*
M02*
