%TF.GenerationSoftware,KiCad,Pcbnew,4.0.4+e1-6308~48~ubuntu14.04.1-stable*%
%TF.CreationDate,2016-11-21T10:30:50-08:00*%
%TF.ProjectId,USB-Breakout-with-Reset,5553422D427265616B6F75742D776974,rev?*%
%TF.FileFunction,Legend,Top*%
%FSLAX46Y46*%
G04 Gerber Fmt 4.6, Leading zero omitted, Abs format (unit mm)*
G04 Created by KiCad (PCBNEW 4.0.4+e1-6308~48~ubuntu14.04.1-stable) date Mon Nov 21 10:30:50 2016*
%MOMM*%
%LPD*%
G01*
G04 APERTURE LIST*
%ADD10C,0.350000*%
%ADD11C,0.200000*%
%ADD12C,0.152400*%
%ADD13C,0.150000*%
G04 APERTURE END LIST*
D10*
D11*
X155866667Y-100100000D02*
X156933334Y-100100000D01*
X156400001Y-100633333D02*
X156400001Y-99566667D01*
X148066667Y-100100000D02*
X149133334Y-100100000D01*
D12*
X161225905Y-100492000D02*
X161129143Y-100443619D01*
X160984000Y-100443619D01*
X160838858Y-100492000D01*
X160742096Y-100588762D01*
X160693715Y-100685524D01*
X160645334Y-100879048D01*
X160645334Y-101024190D01*
X160693715Y-101217714D01*
X160742096Y-101314476D01*
X160838858Y-101411238D01*
X160984000Y-101459619D01*
X161080762Y-101459619D01*
X161225905Y-101411238D01*
X161274286Y-101362857D01*
X161274286Y-101024190D01*
X161080762Y-101024190D01*
X161709715Y-101459619D02*
X161709715Y-100443619D01*
X162290286Y-101459619D01*
X162290286Y-100443619D01*
X162774096Y-101459619D02*
X162774096Y-100443619D01*
X163016001Y-100443619D01*
X163161143Y-100492000D01*
X163257905Y-100588762D01*
X163306286Y-100685524D01*
X163354667Y-100879048D01*
X163354667Y-101024190D01*
X163306286Y-101217714D01*
X163257905Y-101314476D01*
X163161143Y-101411238D01*
X163016001Y-101459619D01*
X162774096Y-101459619D01*
X136524381Y-101459619D02*
X136185715Y-100975810D01*
X135943810Y-101459619D02*
X135943810Y-100443619D01*
X136330857Y-100443619D01*
X136427619Y-100492000D01*
X136476000Y-100540381D01*
X136524381Y-100637143D01*
X136524381Y-100782286D01*
X136476000Y-100879048D01*
X136427619Y-100927429D01*
X136330857Y-100975810D01*
X135943810Y-100975810D01*
X136959810Y-100927429D02*
X137298476Y-100927429D01*
X137443619Y-101459619D02*
X136959810Y-101459619D01*
X136959810Y-100443619D01*
X137443619Y-100443619D01*
X137830667Y-101411238D02*
X137975810Y-101459619D01*
X138217714Y-101459619D01*
X138314476Y-101411238D01*
X138362857Y-101362857D01*
X138411238Y-101266095D01*
X138411238Y-101169333D01*
X138362857Y-101072571D01*
X138314476Y-101024190D01*
X138217714Y-100975810D01*
X138024191Y-100927429D01*
X137927429Y-100879048D01*
X137879048Y-100830667D01*
X137830667Y-100733905D01*
X137830667Y-100637143D01*
X137879048Y-100540381D01*
X137927429Y-100492000D01*
X138024191Y-100443619D01*
X138266095Y-100443619D01*
X138411238Y-100492000D01*
X138846667Y-100927429D02*
X139185333Y-100927429D01*
X139330476Y-101459619D02*
X138846667Y-101459619D01*
X138846667Y-100443619D01*
X139330476Y-100443619D01*
X139620762Y-100443619D02*
X140201333Y-100443619D01*
X139911048Y-101459619D02*
X139911048Y-100443619D01*
X129806476Y-100343619D02*
X129322667Y-100343619D01*
X129274286Y-100827429D01*
X129322667Y-100779048D01*
X129419429Y-100730667D01*
X129661333Y-100730667D01*
X129758095Y-100779048D01*
X129806476Y-100827429D01*
X129854857Y-100924190D01*
X129854857Y-101166095D01*
X129806476Y-101262857D01*
X129758095Y-101311238D01*
X129661333Y-101359619D01*
X129419429Y-101359619D01*
X129322667Y-101311238D01*
X129274286Y-101262857D01*
X130145143Y-100343619D02*
X130483810Y-101359619D01*
X130822476Y-100343619D01*
X135859619Y-107943429D02*
X135859619Y-108524000D01*
X135859619Y-108233714D02*
X134843619Y-108233714D01*
X134988762Y-108330476D01*
X135085524Y-108427238D01*
X135133905Y-108524000D01*
X135762857Y-107508000D02*
X135811238Y-107459619D01*
X135859619Y-107508000D01*
X135811238Y-107556381D01*
X135762857Y-107508000D01*
X135859619Y-107508000D01*
X134843619Y-106540381D02*
X134843619Y-107024190D01*
X135327429Y-107072571D01*
X135279048Y-107024190D01*
X135230667Y-106927428D01*
X135230667Y-106685524D01*
X135279048Y-106588762D01*
X135327429Y-106540381D01*
X135424190Y-106492000D01*
X135666095Y-106492000D01*
X135762857Y-106540381D01*
X135811238Y-106588762D01*
X135859619Y-106685524D01*
X135859619Y-106927428D01*
X135811238Y-107024190D01*
X135762857Y-107072571D01*
X135859619Y-106056571D02*
X134843619Y-106056571D01*
X135859619Y-105476000D02*
X135279048Y-105911428D01*
X134843619Y-105476000D02*
X135424190Y-106056571D01*
X163659619Y-108275619D02*
X163175810Y-108614285D01*
X163659619Y-108856190D02*
X162643619Y-108856190D01*
X162643619Y-108469143D01*
X162692000Y-108372381D01*
X162740381Y-108324000D01*
X162837143Y-108275619D01*
X162982286Y-108275619D01*
X163079048Y-108324000D01*
X163127429Y-108372381D01*
X163175810Y-108469143D01*
X163175810Y-108856190D01*
X163127429Y-107840190D02*
X163127429Y-107501524D01*
X163659619Y-107356381D02*
X163659619Y-107840190D01*
X162643619Y-107840190D01*
X162643619Y-107356381D01*
X163611238Y-106969333D02*
X163659619Y-106824190D01*
X163659619Y-106582286D01*
X163611238Y-106485524D01*
X163562857Y-106437143D01*
X163466095Y-106388762D01*
X163369333Y-106388762D01*
X163272571Y-106437143D01*
X163224190Y-106485524D01*
X163175810Y-106582286D01*
X163127429Y-106775809D01*
X163079048Y-106872571D01*
X163030667Y-106920952D01*
X162933905Y-106969333D01*
X162837143Y-106969333D01*
X162740381Y-106920952D01*
X162692000Y-106872571D01*
X162643619Y-106775809D01*
X162643619Y-106533905D01*
X162692000Y-106388762D01*
X163127429Y-105953333D02*
X163127429Y-105614667D01*
X163659619Y-105469524D02*
X163659619Y-105953333D01*
X162643619Y-105953333D01*
X162643619Y-105469524D01*
X162643619Y-105179238D02*
X162643619Y-104598667D01*
X163659619Y-104888952D02*
X162643619Y-104888952D01*
X145700191Y-111443619D02*
X146329143Y-111443619D01*
X145990477Y-111830667D01*
X146135619Y-111830667D01*
X146232381Y-111879048D01*
X146280762Y-111927429D01*
X146329143Y-112024190D01*
X146329143Y-112266095D01*
X146280762Y-112362857D01*
X146232381Y-112411238D01*
X146135619Y-112459619D01*
X145845334Y-112459619D01*
X145748572Y-112411238D01*
X145700191Y-112362857D01*
X146764572Y-112362857D02*
X146812953Y-112411238D01*
X146764572Y-112459619D01*
X146716191Y-112411238D01*
X146764572Y-112362857D01*
X146764572Y-112459619D01*
X147683810Y-111443619D02*
X147490287Y-111443619D01*
X147393525Y-111492000D01*
X147345144Y-111540381D01*
X147248382Y-111685524D01*
X147200001Y-111879048D01*
X147200001Y-112266095D01*
X147248382Y-112362857D01*
X147296763Y-112411238D01*
X147393525Y-112459619D01*
X147587048Y-112459619D01*
X147683810Y-112411238D01*
X147732191Y-112362857D01*
X147780572Y-112266095D01*
X147780572Y-112024190D01*
X147732191Y-111927429D01*
X147683810Y-111879048D01*
X147587048Y-111830667D01*
X147393525Y-111830667D01*
X147296763Y-111879048D01*
X147248382Y-111927429D01*
X147200001Y-112024190D01*
X148070858Y-111443619D02*
X148409525Y-112459619D01*
X148748191Y-111443619D01*
X145500191Y-102043619D02*
X146129143Y-102043619D01*
X145790477Y-102430667D01*
X145935619Y-102430667D01*
X146032381Y-102479048D01*
X146080762Y-102527429D01*
X146129143Y-102624190D01*
X146129143Y-102866095D01*
X146080762Y-102962857D01*
X146032381Y-103011238D01*
X145935619Y-103059619D01*
X145645334Y-103059619D01*
X145548572Y-103011238D01*
X145500191Y-102962857D01*
X146564572Y-102962857D02*
X146612953Y-103011238D01*
X146564572Y-103059619D01*
X146516191Y-103011238D01*
X146564572Y-102962857D01*
X146564572Y-103059619D01*
X147483810Y-102043619D02*
X147290287Y-102043619D01*
X147193525Y-102092000D01*
X147145144Y-102140381D01*
X147048382Y-102285524D01*
X147000001Y-102479048D01*
X147000001Y-102866095D01*
X147048382Y-102962857D01*
X147096763Y-103011238D01*
X147193525Y-103059619D01*
X147387048Y-103059619D01*
X147483810Y-103011238D01*
X147532191Y-102962857D01*
X147580572Y-102866095D01*
X147580572Y-102624190D01*
X147532191Y-102527429D01*
X147483810Y-102479048D01*
X147387048Y-102430667D01*
X147193525Y-102430667D01*
X147096763Y-102479048D01*
X147048382Y-102527429D01*
X147000001Y-102624190D01*
X147870858Y-102043619D02*
X148209525Y-103059619D01*
X148548191Y-102043619D01*
X143384000Y-108443619D02*
X143190477Y-108443619D01*
X143093715Y-108492000D01*
X143045334Y-108540381D01*
X142948572Y-108685524D01*
X142900191Y-108879048D01*
X142900191Y-109266095D01*
X142948572Y-109362857D01*
X142996953Y-109411238D01*
X143093715Y-109459619D01*
X143287238Y-109459619D01*
X143384000Y-109411238D01*
X143432381Y-109362857D01*
X143480762Y-109266095D01*
X143480762Y-109024190D01*
X143432381Y-108927429D01*
X143384000Y-108879048D01*
X143287238Y-108830667D01*
X143093715Y-108830667D01*
X142996953Y-108879048D01*
X142948572Y-108927429D01*
X142900191Y-109024190D01*
X144351619Y-108443619D02*
X144158096Y-108443619D01*
X144061334Y-108492000D01*
X144012953Y-108540381D01*
X143916191Y-108685524D01*
X143867810Y-108879048D01*
X143867810Y-109266095D01*
X143916191Y-109362857D01*
X143964572Y-109411238D01*
X144061334Y-109459619D01*
X144254857Y-109459619D01*
X144351619Y-109411238D01*
X144400000Y-109362857D01*
X144448381Y-109266095D01*
X144448381Y-109024190D01*
X144400000Y-108927429D01*
X144351619Y-108879048D01*
X144254857Y-108830667D01*
X144061334Y-108830667D01*
X143964572Y-108879048D01*
X143916191Y-108927429D01*
X143867810Y-109024190D01*
X144883810Y-109362857D02*
X144932191Y-109411238D01*
X144883810Y-109459619D01*
X144835429Y-109411238D01*
X144883810Y-109362857D01*
X144883810Y-109459619D01*
X145851429Y-108443619D02*
X145367620Y-108443619D01*
X145319239Y-108927429D01*
X145367620Y-108879048D01*
X145464382Y-108830667D01*
X145706286Y-108830667D01*
X145803048Y-108879048D01*
X145851429Y-108927429D01*
X145899810Y-109024190D01*
X145899810Y-109266095D01*
X145851429Y-109362857D01*
X145803048Y-109411238D01*
X145706286Y-109459619D01*
X145464382Y-109459619D01*
X145367620Y-109411238D01*
X145319239Y-109362857D01*
X143384000Y-105243619D02*
X143190477Y-105243619D01*
X143093715Y-105292000D01*
X143045334Y-105340381D01*
X142948572Y-105485524D01*
X142900191Y-105679048D01*
X142900191Y-106066095D01*
X142948572Y-106162857D01*
X142996953Y-106211238D01*
X143093715Y-106259619D01*
X143287238Y-106259619D01*
X143384000Y-106211238D01*
X143432381Y-106162857D01*
X143480762Y-106066095D01*
X143480762Y-105824190D01*
X143432381Y-105727429D01*
X143384000Y-105679048D01*
X143287238Y-105630667D01*
X143093715Y-105630667D01*
X142996953Y-105679048D01*
X142948572Y-105727429D01*
X142900191Y-105824190D01*
X144351619Y-105243619D02*
X144158096Y-105243619D01*
X144061334Y-105292000D01*
X144012953Y-105340381D01*
X143916191Y-105485524D01*
X143867810Y-105679048D01*
X143867810Y-106066095D01*
X143916191Y-106162857D01*
X143964572Y-106211238D01*
X144061334Y-106259619D01*
X144254857Y-106259619D01*
X144351619Y-106211238D01*
X144400000Y-106162857D01*
X144448381Y-106066095D01*
X144448381Y-105824190D01*
X144400000Y-105727429D01*
X144351619Y-105679048D01*
X144254857Y-105630667D01*
X144061334Y-105630667D01*
X143964572Y-105679048D01*
X143916191Y-105727429D01*
X143867810Y-105824190D01*
X144883810Y-106162857D02*
X144932191Y-106211238D01*
X144883810Y-106259619D01*
X144835429Y-106211238D01*
X144883810Y-106162857D01*
X144883810Y-106259619D01*
X145851429Y-105243619D02*
X145367620Y-105243619D01*
X145319239Y-105727429D01*
X145367620Y-105679048D01*
X145464382Y-105630667D01*
X145706286Y-105630667D01*
X145803048Y-105679048D01*
X145851429Y-105727429D01*
X145899810Y-105824190D01*
X145899810Y-106066095D01*
X145851429Y-106162857D01*
X145803048Y-106211238D01*
X145706286Y-106259619D01*
X145464382Y-106259619D01*
X145367620Y-106211238D01*
X145319239Y-106162857D01*
D13*
X134130000Y-109650000D02*
X134130000Y-104570000D01*
X134130000Y-104570000D02*
X136670000Y-104570000D01*
X136670000Y-104570000D02*
X136670000Y-109650000D01*
X136670000Y-109650000D02*
X134130000Y-109650000D01*
X146950000Y-107070000D02*
X141870000Y-107070000D01*
X141870000Y-107070000D02*
X141870000Y-104530000D01*
X141870000Y-104530000D02*
X146950000Y-104530000D01*
X146950000Y-104530000D02*
X146950000Y-107070000D01*
X146950000Y-110070000D02*
X141870000Y-110070000D01*
X141870000Y-110070000D02*
X141870000Y-107530000D01*
X141870000Y-107530000D02*
X146950000Y-107530000D01*
X146950000Y-107530000D02*
X146950000Y-110070000D01*
X156000000Y-110750000D02*
X156100000Y-110750000D01*
X155950000Y-110850000D02*
X155950000Y-110500000D01*
X155950000Y-110500000D02*
G75*
G03X156300000Y-110850000I1050000J700000D01*
G01*
X155950000Y-110850000D02*
X156300000Y-110850000D01*
X160414214Y-106800000D02*
G75*
G03X160414214Y-106800000I-1414214J0D01*
G01*
X162000000Y-108800000D02*
X162000000Y-104800000D01*
X156000000Y-108800000D02*
X156000000Y-104800000D01*
X159750000Y-109800000D02*
X158250000Y-109800000D01*
X158250000Y-103800000D02*
X159750000Y-103800000D01*
D10*
X159000000Y-109800000D02*
X159000000Y-109800000D01*
X162000000Y-104800000D02*
X162000000Y-108800000D01*
X156000000Y-104800000D02*
X156000000Y-108800000D01*
X159000000Y-103800000D02*
X159000000Y-103800000D01*
X160414214Y-106800000D02*
G75*
G03X160414214Y-106800000I-1414214J0D01*
G01*
D13*
X149420000Y-102594920D02*
X150436000Y-102594920D01*
X144350000Y-102597460D02*
X143300000Y-102597460D01*
X144800000Y-101324920D02*
X144800000Y-103864920D01*
X144340000Y-103864920D02*
X144340000Y-101324920D01*
X144340000Y-101324920D02*
X149420000Y-101324920D01*
X149420000Y-101324920D02*
X149420000Y-103864920D01*
X149420000Y-103864920D02*
X144340000Y-103864920D01*
X149620000Y-111800000D02*
X150636000Y-111800000D01*
X144550000Y-111802540D02*
X143500000Y-111802540D01*
X145000000Y-110530000D02*
X145000000Y-113070000D01*
X144540000Y-113070000D02*
X144540000Y-110530000D01*
X144540000Y-110530000D02*
X149620000Y-110530000D01*
X149620000Y-110530000D02*
X149620000Y-113070000D01*
X149620000Y-113070000D02*
X144540000Y-113070000D01*
X132352381Y-111433333D02*
X133066667Y-111433333D01*
X133209524Y-111480953D01*
X133304762Y-111576191D01*
X133352381Y-111719048D01*
X133352381Y-111814286D01*
X133352381Y-110433333D02*
X133352381Y-111004762D01*
X133352381Y-110719048D02*
X132352381Y-110719048D01*
X132495238Y-110814286D01*
X132590476Y-110909524D01*
X132638095Y-111004762D01*
X133552381Y-107186666D02*
X133076190Y-107520000D01*
X133552381Y-107758095D02*
X132552381Y-107758095D01*
X132552381Y-107377142D01*
X132600000Y-107281904D01*
X132647619Y-107234285D01*
X132742857Y-107186666D01*
X132885714Y-107186666D01*
X132980952Y-107234285D01*
X133028571Y-107281904D01*
X133076190Y-107377142D01*
X133076190Y-107758095D01*
X133552381Y-106234285D02*
X133552381Y-106805714D01*
X133552381Y-106520000D02*
X132552381Y-106520000D01*
X132695238Y-106615238D01*
X132790476Y-106710476D01*
X132838095Y-106805714D01*
X144153334Y-108552381D02*
X143820000Y-108076190D01*
X143581905Y-108552381D02*
X143581905Y-107552381D01*
X143962858Y-107552381D01*
X144058096Y-107600000D01*
X144105715Y-107647619D01*
X144153334Y-107742857D01*
X144153334Y-107885714D01*
X144105715Y-107980952D01*
X144058096Y-108028571D01*
X143962858Y-108076190D01*
X143581905Y-108076190D01*
X144534286Y-107647619D02*
X144581905Y-107600000D01*
X144677143Y-107552381D01*
X144915239Y-107552381D01*
X145010477Y-107600000D01*
X145058096Y-107647619D01*
X145105715Y-107742857D01*
X145105715Y-107838095D01*
X145058096Y-107980952D01*
X144486667Y-108552381D01*
X145105715Y-108552381D01*
X144153334Y-111552381D02*
X143820000Y-111076190D01*
X143581905Y-111552381D02*
X143581905Y-110552381D01*
X143962858Y-110552381D01*
X144058096Y-110600000D01*
X144105715Y-110647619D01*
X144153334Y-110742857D01*
X144153334Y-110885714D01*
X144105715Y-110980952D01*
X144058096Y-111028571D01*
X143962858Y-111076190D01*
X143581905Y-111076190D01*
X144486667Y-110552381D02*
X145105715Y-110552381D01*
X144772381Y-110933333D01*
X144915239Y-110933333D01*
X145010477Y-110980952D01*
X145058096Y-111028571D01*
X145105715Y-111123810D01*
X145105715Y-111361905D01*
X145058096Y-111457143D01*
X145010477Y-111504762D01*
X144915239Y-111552381D01*
X144629524Y-111552381D01*
X144534286Y-111504762D01*
X144486667Y-111457143D01*
X163654762Y-107883333D02*
X163702381Y-107740476D01*
X163702381Y-107502380D01*
X163654762Y-107407142D01*
X163607143Y-107359523D01*
X163511905Y-107311904D01*
X163416667Y-107311904D01*
X163321429Y-107359523D01*
X163273810Y-107407142D01*
X163226190Y-107502380D01*
X163178571Y-107692857D01*
X163130952Y-107788095D01*
X163083333Y-107835714D01*
X162988095Y-107883333D01*
X162892857Y-107883333D01*
X162797619Y-107835714D01*
X162750000Y-107788095D01*
X162702381Y-107692857D01*
X162702381Y-107454761D01*
X162750000Y-107311904D01*
X162702381Y-106978571D02*
X163702381Y-106740476D01*
X162988095Y-106549999D01*
X163702381Y-106359523D01*
X162702381Y-106121428D01*
X163702381Y-105216666D02*
X163702381Y-105788095D01*
X163702381Y-105502381D02*
X162702381Y-105502381D01*
X162845238Y-105597619D01*
X162940476Y-105692857D01*
X162988095Y-105788095D01*
M02*
