<?xml version="1.0" standalone="no"?>
 <!DOCTYPE svg PUBLIC "-//W3C//DTD SVG 1.1//EN" 
 "http://www.w3.org/Graphics/SVG/1.1/DTD/svg11.dtd"> 
<svg xmlns="http://www.w3.org/2000/svg" version="1.1" 
    width="27.94cm" height="21.59cm" viewBox="0 0 110000 85000 ">
<title>SVG Picture created as USB-Breakout-with-Reset-Assembly.svg date 2016/11/21 10:30:50 </title>
  <desc>Picture generated by PCBNEW </desc>
<g style="fill:#000000; fill-opacity:1;stroke:#000000; stroke-opacity:1;
stroke-linecap:round; stroke-linejoin:round; "
 transform="translate(0 0) scale(1 1)">
</g>
<g style="fill:#000000; fill-opacity:0.0; 
stroke:#000000; stroke-width:-0.000393701; stroke-opacity:1; 
stroke-linecap:round; stroke-linejoin:round;">
</g>
<g style="fill:#000000; fill-opacity:0.0; 
stroke:#000000; stroke-width:60; stroke-opacity:1; 
stroke-linecap:round; stroke-linejoin:round;">
<path d="M60266 45598
L60132 45408
" />
<path d="M60037 45598
L60037 45198
L60189 45198
L60227 45218
L60247 45237
L60266 45275
L60266 45332
L60247 45370
L60227 45389
L60189 45408
L60037 45408
" />
<path d="M60589 45579
L60551 45598
L60475 45598
L60437 45579
L60418 45541
L60418 45389
L60437 45351
L60475 45332
L60551 45332
L60589 45351
L60608 45389
L60608 45427
L60418 45465
" />
<path d="M60742 45332
L60818 45598
L60894 45408
L60970 45598
L61047 45332
" />
<path d="M61199 45598
L61199 45332
" />
<path d="M61199 45198
L61180 45218
L61199 45237
L61218 45218
L61199 45198
L61199 45237
" />
<path d="M61389 45598
L61389 45332
" />
<path d="M61389 45408
L61408 45370
L61427 45351
L61466 45332
L61504 45332
" />
<path d="M61789 45579
L61751 45598
L61675 45598
L61637 45579
L61618 45541
L61618 45389
L61637 45351
L61675 45332
L61751 45332
L61789 45351
L61808 45389
L61808 45427
L61618 45465
" />
<path d="M62513 45560
L62494 45579
L62437 45598
L62399 45598
L62342 45579
L62304 45541
L62285 45503
L62266 45427
L62266 45370
L62285 45294
L62304 45256
L62342 45218
L62399 45198
L62437 45198
L62494 45218
L62513 45237
" />
<path d="M62685 45598
L62685 45332
" />
<path d="M62685 45198
L62666 45218
L62685 45237
L62704 45218
L62685 45198
L62685 45237
" />
<path d="M62875 45598
L62875 45332
" />
<path d="M62875 45408
L62894 45370
L62913 45351
L62951 45332
L62989 45332
" />
<path d="M63294 45579
L63256 45598
L63180 45598
L63142 45579
L63123 45560
L63104 45522
L63104 45408
L63123 45370
L63142 45351
L63180 45332
L63256 45332
L63294 45351
" />
<path d="M63637 45332
L63637 45598
" />
<path d="M63466 45332
L63466 45541
L63485 45579
L63523 45598
L63580 45598
L63618 45579
L63637 45560
" />
<path d="M63827 45598
L63827 45332
" />
<path d="M63827 45198
L63808 45218
L63827 45237
L63847 45218
L63827 45198
L63827 45237
" />
<path d="M63961 45332
L64113 45332
" />
<path d="M64018 45198
L64018 45541
L64037 45579
L64075 45598
L64113 45598
" />
<path d="M64551 45598
L64551 45198
" />
<path d="M64780 45598
L64608 45370
" />
<path d="M64780 45198
L64551 45427
" />
<path d="M64951 45598
L64951 45332
" />
<path d="M64951 45198
L64932 45218
L64951 45237
L64970 45218
L64951 45198
L64951 45237
" />
<path d="M65085 45332
L65237 45332
" />
<path d="M65142 45198
L65142 45541
L65161 45579
L65199 45598
L65237 45598
" />
<path d="M62456 46258
L62227 46258
" />
<path d="M62342 46258
L62342 45858
L62304 45916
L62266 45954
L62227 45973
" />
<path d="M62837 46258
L62608 46258
" />
<path d="M62723 46258
L62723 45858
L62685 45916
L62647 45954
L62608 45973
" />
<path d="M63294 45839
L62951 46354
" />
<path d="M63408 45897
L63427 45878
L63466 45858
L63561 45858
L63599 45878
L63618 45897
L63637 45935
L63637 45973
L63618 46030
L63389 46258
L63637 46258
" />
<path d="M63885 45858
L63923 45858
L63961 45878
L63980 45897
L63999 45935
L64018 46011
L64018 46106
L63999 46182
L63980 46220
L63961 46239
L63923 46258
L63885 46258
L63847 46239
L63827 46220
L63808 46182
L63789 46106
L63789 46011
L63808 45935
L63827 45897
L63847 45878
L63885 45858
" />
<path d="M64475 45839
L64132 46354
" />
<path d="M64818 46258
L64589 46258
" />
<path d="M64704 46258
L64704 45858
L64666 45916
L64627 45954
L64589 45973
" />
<path d="M65161 45858
L65085 45858
L65047 45878
L65027 45897
L64989 45954
L64970 46030
L64970 46182
L64989 46220
L65008 46239
L65047 46258
L65123 46258
L65161 46239
L65180 46220
L65199 46182
L65199 46087
L65180 46049
L65161 46030
L65123 46011
L65047 46011
L65008 46030
L64989 46049
L64970 46087
" />
<path d="M58875 35327
L59066 35327
" />
<path d="M58837 35441
L58970 35041
L59104 35441
" />
<path d="M59218 35422
L59256 35441
L59332 35441
L59370 35422
L59389 35384
L59389 35365
L59370 35327
L59332 35308
L59275 35308
L59237 35289
L59218 35251
L59218 35231
L59237 35193
L59275 35174
L59332 35174
L59370 35193
" />
<path d="M59542 35422
L59580 35441
L59656 35441
L59694 35422
L59713 35384
L59713 35365
L59694 35327
L59656 35308
L59599 35308
L59561 35289
L59542 35251
L59542 35231
L59561 35193
L59599 35174
L59656 35174
L59694 35193
" />
<path d="M60037 35422
L59999 35441
L59923 35441
L59885 35422
L59866 35384
L59866 35231
L59885 35193
L59923 35174
L59999 35174
L60037 35193
L60056 35231
L60056 35270
L59866 35308
" />
<path d="M60227 35441
L60227 35174
" />
<path d="M60227 35212
L60247 35193
L60285 35174
L60342 35174
L60380 35193
L60399 35231
L60399 35441
" />
<path d="M60399 35231
L60418 35193
L60456 35174
L60513 35174
L60551 35193
L60570 35231
L60570 35441
" />
<path d="M60761 35441
L60761 35041
" />
<path d="M60761 35193
L60799 35174
L60875 35174
L60913 35193
L60932 35212
L60951 35251
L60951 35365
L60932 35403
L60913 35422
L60875 35441
L60799 35441
L60761 35422
" />
<path d="M61180 35441
L61142 35422
L61123 35384
L61123 35041
" />
<path d="M61294 35174
L61389 35441
" />
<path d="M61485 35174
L61389 35441
L61351 35536
L61332 35555
L61294 35574
" />
<path d="M61942 35441
L61942 35041
" />
<path d="M62132 35174
L62132 35441
" />
<path d="M62132 35212
L62151 35193
L62189 35174
L62247 35174
L62285 35193
L62304 35231
L62304 35441
" />
<path d="M62437 35174
L62589 35174
" />
<path d="M62494 35441
L62494 35098
L62513 35060
L62551 35041
L62589 35041
" />
<path d="M62780 35441
L62742 35422
L62723 35403
L62704 35365
L62704 35251
L62723 35212
L62742 35193
L62780 35174
L62837 35174
L62875 35193
L62894 35212
L62913 35251
L62913 35365
L62894 35403
L62875 35422
L62837 35441
L62780 35441
" />
<path d="M63085 35441
L63085 35174
" />
<path d="M63085 35251
L63104 35212
L63123 35193
L63161 35174
L63199 35174
" />
<path d="M63332 35441
L63332 35174
" />
<path d="M63332 35212
L63351 35193
L63389 35174
L63447 35174
L63485 35193
L63504 35231
L63504 35441
" />
<path d="M63504 35231
L63523 35193
L63561 35174
L63618 35174
L63656 35193
L63675 35231
L63675 35441
" />
<path d="M64037 35441
L64037 35231
L64018 35193
L63980 35174
L63904 35174
L63866 35193
" />
<path d="M64037 35422
L63999 35441
L63904 35441
L63866 35422
L63847 35384
L63847 35346
L63866 35308
L63904 35289
L63999 35289
L64037 35270
" />
<path d="M64170 35174
L64323 35174
" />
<path d="M64227 35041
L64227 35384
L64247 35422
L64285 35441
L64323 35441
" />
<path d="M64456 35441
L64456 35174
" />
<path d="M64456 35041
L64437 35060
L64456 35079
L64475 35060
L64456 35041
L64456 35079
" />
<path d="M64704 35441
L64666 35422
L64647 35403
L64627 35365
L64627 35251
L64647 35212
L64666 35193
L64704 35174
L64761 35174
L64799 35193
L64818 35212
L64837 35251
L64837 35365
L64818 35403
L64799 35422
L64761 35441
L64704 35441
" />
<path d="M65008 35174
L65008 35441
" />
<path d="M65008 35212
L65027 35193
L65066 35174
L65123 35174
L65161 35193
L65180 35231
L65180 35441
" />
<path d="M59675 35701
L59675 36025
L59694 36063
L59713 36082
L59751 36101
L59827 36101
L59866 36082
L59885 36063
L59904 36025
L59904 35701
" />
<path d="M60075 36082
L60132 36101
L60227 36101
L60266 36082
L60285 36063
L60304 36025
L60304 35987
L60285 35949
L60266 35930
L60227 35911
L60151 35891
L60113 35872
L60094 35853
L60075 35815
L60075 35777
L60094 35739
L60113 35720
L60151 35701
L60247 35701
L60304 35720
" />
<path d="M60608 35891
L60666 35911
L60685 35930
L60704 35968
L60704 36025
L60685 36063
L60666 36082
L60627 36101
L60475 36101
L60475 35701
L60608 35701
L60647 35720
L60666 35739
L60685 35777
L60685 35815
L60666 35853
L60647 35872
L60608 35891
L60475 35891
" />
<path d="M61313 35891
L61370 35911
L61389 35930
L61408 35968
L61408 36025
L61389 36063
L61370 36082
L61332 36101
L61180 36101
L61180 35701
L61313 35701
L61351 35720
L61370 35739
L61389 35777
L61389 35815
L61370 35853
L61351 35872
L61313 35891
L61180 35891
" />
<path d="M61580 36101
L61580 35834
" />
<path d="M61580 35911
L61599 35872
L61618 35853
L61656 35834
L61694 35834
" />
<path d="M61980 36082
L61942 36101
L61866 36101
L61827 36082
L61808 36044
L61808 35891
L61827 35853
L61866 35834
L61942 35834
L61980 35853
L61999 35891
L61999 35930
L61808 35968
" />
<path d="M62342 36101
L62342 35891
L62323 35853
L62285 35834
L62208 35834
L62170 35853
" />
<path d="M62342 36082
L62304 36101
L62208 36101
L62170 36082
L62151 36044
L62151 36006
L62170 35968
L62208 35949
L62304 35949
L62342 35930
" />
<path d="M62532 36101
L62532 35701
" />
<path d="M62570 35949
L62685 36101
" />
<path d="M62685 35834
L62532 35987
" />
<path d="M62913 36101
L62875 36082
L62856 36063
L62837 36025
L62837 35911
L62856 35872
L62875 35853
L62913 35834
L62970 35834
L63008 35853
L63027 35872
L63047 35911
L63047 36025
L63027 36063
L63008 36082
L62970 36101
L62913 36101
" />
<path d="M63389 35834
L63389 36101
" />
<path d="M63218 35834
L63218 36044
L63237 36082
L63275 36101
L63332 36101
L63370 36082
L63389 36063
" />
<path d="M63523 35834
L63675 35834
" />
<path d="M63580 35701
L63580 36044
L63599 36082
L63637 36101
L63675 36101
" />
<path d="M64075 35834
L64170 36101
L64266 35834
" />
<path d="M64627 36101
L64399 36101
" />
<path d="M64513 36101
L64513 35701
L64475 35758
L64437 35796
L64399 35815
" />
<path d="M64799 36063
L64818 36082
L64799 36101
L64780 36082
L64799 36063
L64799 36101
" />
<path d="M65066 35701
L65104 35701
L65142 35720
L65161 35739
L65180 35777
L65199 35853
L65199 35949
L65180 36025
L65161 36063
L65142 36082
L65104 36101
L65066 36101
L65027 36082
L65008 36063
L64989 36025
L64970 35949
L64970 35853
L64989 35777
L65008 35739
L65027 35720
L65066 35701
" />
<path d="M65354 43307
L65354 38267
" />
<path d="M49685 38188
L49685 43228
" />
<path d="M49685 43228.3 A1574.8 1574.8 0.0 0 0 51259.8 44803.1 " />
<path d="M51259 44803
L63858 44803
" />
<path d="M63858.3 44803.1 A1496.06 1496.06 0.0 0 0 65354.3 43307.1 " />
<path d="M51181.1 36692.9 A1496.06 1496.06 0.0 0 0 49685 38189 " />
<path d="M63779 36692
L51181 36692
" />
<path d="M65354.3 38267.7 A1574.8 1574.8 0.0 0 0 63779.5 36692.9 " />
</g>
<g style="fill:#000000; fill-opacity:0.0; 
stroke:#000000; stroke-width:19.685; stroke-opacity:1; 
stroke-linecap:round; stroke-linejoin:round;">
<path d="M49862 40196
L51929 40196
" />
<path d="M49862 44133
L49862 40196
" />
<path d="M51929 44133
L49862 44133
" />
<path d="M51929 40196
L51929 44133
" />
</g>
<g style="fill:#000000; fill-opacity:0.0; 
stroke:#000000; stroke-width:20; stroke-opacity:1; 
stroke-linecap:round; stroke-linejoin:round;">
<path d="M52716 40165
L52716 44181
" />
<path d="M53897 40165
L52716 40165
" />
<path d="M53897 40204
L53897 40165
" />
<path d="M53897 44181
L53897 40204
" />
<path d="M52716 44181
L53897 44181
" />
<path d="M54850 42244
L58866 42244
" />
<path d="M54850 41062
L54850 42244
" />
<path d="M54889 41062
L54850 41062
" />
<path d="M58866 41062
L54889 41062
" />
<path d="M58866 42244
L58866 41062
" />
<path d="M54850 43425
L58866 43425
" />
<path d="M54850 42244
L54850 43425
" />
<path d="M54889 42244
L54850 42244
" />
<path d="M58866 42244
L54889 42244
" />
<path d="M58866 43425
L58866 42244
" />
</g>
<g style="fill:#000000; fill-opacity:0.0; 
stroke:#000000; stroke-width:19.685; stroke-opacity:1; 
stroke-linecap:round; stroke-linejoin:round;">
<path d="M63779 40472
L61417 40472
" />
<path d="M63779 43622
L63779 40472
" />
<path d="M61417 43622
L63779 43622
" />
<path d="M61417 40472
L61417 43622
" />
</g>
<g style="fill:#000000; fill-opacity:0.0; 
stroke:#000000; stroke-width:16; stroke-opacity:1; 
stroke-linecap:round; stroke-linejoin:round;">
<circle cx="51181.1" cy="38189" r="1174.03" /> 
<circle cx="57480.3" cy="38189" r="1174.03" /> 
<circle cx="60629.9" cy="38189" r="1174.03" /> 
<circle cx="54330.7" cy="38189" r="1174.03" /> 
<circle cx="63779.5" cy="38189" r="1174.03" /> 
</g>
<g style="fill:#000000; fill-opacity:0.0; 
stroke:#000000; stroke-width:20; stroke-opacity:1; 
stroke-linecap:round; stroke-linejoin:round;">
<path d="M55236 39703
L55236 39802
" />
<path d="M60452 39703
L55236 39703
" />
<path d="M60452 41081
L60452 39703
" />
<path d="M60354 41081
L60452 41081
" />
<path d="M55236 41081
L60354 41081
" />
<path d="M55236 39802
L55236 41081
" />
<path d="M55629 39703
L55629 41081
" />
<path d="M55314 43327
L55314 43426
" />
<path d="M60531 43327
L55314 43327
" />
<path d="M60531 44705
L60531 43327
" />
<path d="M60433 44705
L60531 44705
" />
<path d="M55314 44705
L60433 44705
" />
<path d="M55314 43426
L55314 44705
" />
<path d="M55708 43327
L55708 44705
" />
</g>
<g style="fill:#000000; fill-opacity:0.0; 
stroke:#000000; stroke-width:100; stroke-opacity:1; 
stroke-linecap:round; stroke-linejoin:round;">
<path d="M50506 42432
L51078 42432
L51192 42470
L51268 42546
L51306 42660
L51306 42736
" />
<path d="M51306 41632
L51306 42089
" />
<path d="M51306 41860
L50506 41860
L50621 41936
L50697 42012
L50735 42089
" />
</g>
<g style="fill:#000000; fill-opacity:0.0; 
stroke:#000000; stroke-width:59.0551; stroke-opacity:1; 
stroke-linecap:round; stroke-linejoin:round;">
<path d="M53485 42238
L53297 42370
" />
<path d="M53485 42463
L53091 42463
L53091 42313
L53110 42276
L53128 42257
L53166 42238
L53222 42238
L53260 42257
L53278 42276
L53297 42313
L53297 42463
" />
<path d="M53485 41863
L53485 42088
" />
<path d="M53485 41976
L53091 41976
L53147 42013
L53185 42051
L53203 42088
" />
<path d="M56792 41831
L56661 41644
" />
<path d="M56567 41831
L56567 41437
L56717 41437
L56755 41456
L56773 41475
L56792 41512
L56792 41569
L56773 41606
L56755 41625
L56717 41644
L56567 41644
" />
<path d="M56942 41475
L56961 41456
L56998 41437
L57092 41437
L57130 41456
L57148 41475
L57167 41512
L57167 41550
L57148 41606
L56923 41831
L57167 41831
" />
<path d="M56792 43012
L56661 42825
" />
<path d="M56567 43012
L56567 42619
L56717 42619
L56755 42637
L56773 42656
L56792 42694
L56792 42750
L56773 42787
L56755 42806
L56717 42825
L56567 42825
" />
<path d="M56923 42619
L57167 42619
L57036 42769
L57092 42769
L57130 42787
L57148 42806
L57167 42844
L57167 42937
L57148 42975
L57130 42994
L57092 43012
L56980 43012
L56942 42994
L56923 42975
" />
<path d="M62757 42572
L62776 42515
L62776 42422
L62757 42384
L62739 42365
L62701 42347
L62664 42347
L62626 42365
L62607 42384
L62589 42422
L62570 42497
L62551 42534
L62532 42553
L62495 42572
L62457 42572
L62420 42553
L62401 42534
L62382 42497
L62382 42403
L62401 42347
" />
<path d="M62382 42215
L62776 42122
L62495 42047
L62776 41972
L62382 41878
" />
<path d="M62776 41522
L62776 41747
" />
<path d="M62776 41634
L62382 41634
L62439 41672
L62476 41709
L62495 41747
" />
</g>
<g style="fill:#000000; fill-opacity:0.0; 
stroke:#000000; stroke-width:100; stroke-opacity:1; 
stroke-linecap:round; stroke-linejoin:round;">
<path d="M57303 40754
L57303 39954
L57493 39954
L57607 39992
L57684 40068
L57722 40145
L57760 40297
L57760 40411
L57722 40564
L57684 40640
L57607 40716
L57493 40754
L57303 40754
" />
<path d="M58522 40754
L58065 40754
" />
<path d="M58293 40754
L58293 39954
L58217 40068
L58141 40145
L58065 40183
" />
<path d="M57381 44378
L57381 43578
L57572 43578
L57686 43616
L57762 43692
L57801 43769
L57839 43921
L57839 44035
L57801 44188
L57762 44264
L57686 44340
L57572 44378
L57381 44378
" />
<path d="M58143 43654
L58181 43616
L58258 43578
L58448 43578
L58524 43616
L58562 43654
L58601 43731
L58601 43807
L58562 43921
L58105 44378
L58601 44378
" />
</g> 
</svg>
