M48
;DRILL file {KiCad 4.0.4+e1-6308~48~ubuntu14.04.1-stable} date Mon Nov 21 10:30:50 2016
;FORMAT={-:-/ absolute / metric / decimal}
FMAT,2
METRIC,TZ
T1C0.330
T2C1.000
T3C1.001
T4C1.200
T5C1.270
T6C4.980
%
G90
G05
M71
T1
X132.211Y-105.688
X132.6Y-108.4
T2
X157.Y-103.8
X157.Y-109.8
X161.Y-103.8
X161.Y-109.8
T3
X135.4Y-103.3
X135.4Y-110.92
X140.6Y-105.8
X140.6Y-108.8
X141.8Y-102.595
X142.Y-111.8
X148.22Y-105.8
X148.22Y-108.8
T4
X128.15Y-103.55
X128.15Y-110.65
T5
X151.96Y-102.595
X152.16Y-111.8
T6
X130.Y-97.
X138.Y-97.
X146.Y-97.
X154.Y-97.
X162.Y-97.
T0
M30
