<?xml version="1.0" standalone="no"?>
 <!DOCTYPE svg PUBLIC "-//W3C//DTD SVG 1.1//EN" 
 "http://www.w3.org/Graphics/SVG/1.1/DTD/svg11.dtd"> 
<svg xmlns="http://www.w3.org/2000/svg" version="1.1" 
    width="27.94cm" height="21.59cm" viewBox="0 0 110000 85000 ">
<title>SVG Picture created as USB-Breakout-with-Reset-Assembly.svg date 2016/11/21 09:52:30 </title>
  <desc>Picture generated by PCBNEW </desc>
<g style="fill:#000000; fill-opacity:1;stroke:#000000; stroke-opacity:1;
stroke-linecap:round; stroke-linejoin:round; "
 transform="translate(0 0) scale(1 1)">
</g>
<g style="fill:#000000; fill-opacity:0.0; 
stroke:#000000; stroke-width:-0.000393701; stroke-opacity:1; 
stroke-linecap:round; stroke-linejoin:round;">
</g>
<g style="fill:#000000; fill-opacity:0.0; 
stroke:#000000; stroke-width:60; stroke-opacity:1; 
stroke-linecap:round; stroke-linejoin:round;">
<path d="M59599 45389
L59656 45408
L59675 45427
L59694 45465
L59694 45522
L59675 45560
L59656 45579
L59618 45598
L59466 45598
L59466 45198
L59599 45198
L59637 45218
L59656 45237
L59675 45275
L59675 45313
L59656 45351
L59637 45370
L59599 45389
L59466 45389
" />
<path d="M59866 45598
L59866 45332
" />
<path d="M59866 45408
L59885 45370
L59904 45351
L59942 45332
L59980 45332
" />
<path d="M60170 45598
L60132 45579
L60113 45560
L60094 45522
L60094 45408
L60113 45370
L60132 45351
L60170 45332
L60227 45332
L60266 45351
L60285 45370
L60304 45408
L60304 45522
L60285 45560
L60266 45579
L60227 45598
L60170 45598
" />
<path d="M60437 45332
L60513 45598
L60589 45408
L60666 45598
L60742 45332
" />
<path d="M60894 45332
L60894 45598
" />
<path d="M60894 45370
L60913 45351
L60951 45332
L61008 45332
L61047 45351
L61066 45389
L61066 45598
" />
<path d="M61561 45598
L61561 45198
L61656 45198
L61713 45218
L61751 45256
L61770 45294
L61789 45370
L61789 45427
L61770 45503
L61751 45541
L61713 45579
L61656 45598
L61561 45598
" />
<path d="M62018 45598
L61980 45579
L61961 45560
L61942 45522
L61942 45408
L61961 45370
L61980 45351
L62018 45332
L62075 45332
L62113 45351
L62132 45370
L62151 45408
L62151 45522
L62132 45560
L62113 45579
L62075 45598
L62018 45598
" />
<path d="M62494 45332
L62494 45656
L62475 45694
L62456 45713
L62418 45732
L62361 45732
L62323 45713
" />
<path d="M62494 45579
L62456 45598
L62380 45598
L62342 45579
L62323 45560
L62304 45522
L62304 45408
L62323 45370
L62342 45351
L62380 45332
L62456 45332
L62494 45351
" />
<path d="M63199 45218
L63161 45198
L63104 45198
L63047 45218
L63008 45256
L62989 45294
L62970 45370
L62970 45427
L62989 45503
L63008 45541
L63047 45579
L63104 45598
L63142 45598
L63199 45579
L63218 45560
L63218 45427
L63142 45427
" />
<path d="M63561 45598
L63561 45389
L63542 45351
L63504 45332
L63427 45332
L63389 45351
" />
<path d="M63561 45579
L63523 45598
L63427 45598
L63389 45579
L63370 45541
L63370 45503
L63389 45465
L63427 45446
L63523 45446
L63561 45427
" />
<path d="M63923 45598
L63923 45198
" />
<path d="M63923 45579
L63885 45598
L63808 45598
L63770 45579
L63751 45560
L63732 45522
L63732 45408
L63751 45370
L63770 45351
L63808 45332
L63885 45332
L63923 45351
" />
<path d="M64285 45332
L64285 45656
L64266 45694
L64247 45713
L64208 45732
L64151 45732
L64113 45713
" />
<path d="M64285 45579
L64247 45598
L64170 45598
L64132 45579
L64113 45560
L64094 45522
L64094 45408
L64113 45370
L64132 45351
L64170 45332
L64247 45332
L64285 45351
" />
<path d="M64627 45579
L64589 45598
L64513 45598
L64475 45579
L64456 45541
L64456 45389
L64475 45351
L64513 45332
L64589 45332
L64627 45351
L64647 45389
L64647 45427
L64456 45465
" />
<path d="M64761 45332
L64913 45332
" />
<path d="M64818 45198
L64818 45541
L64837 45579
L64875 45598
L64913 45598
" />
<path d="M65027 45579
L65066 45598
L65142 45598
L65180 45579
L65199 45541
L65199 45522
L65180 45484
L65142 45465
L65085 45465
L65047 45446
L65027 45408
L65027 45389
L65047 45351
L65085 45332
L65142 45332
L65180 45351
" />
<path d="M62456 46258
L62227 46258
" />
<path d="M62342 46258
L62342 45858
L62304 45916
L62266 45954
L62227 45973
" />
<path d="M62837 46258
L62608 46258
" />
<path d="M62723 46258
L62723 45858
L62685 45916
L62647 45954
L62608 45973
" />
<path d="M63294 45839
L62951 46354
" />
<path d="M63408 45897
L63427 45878
L63466 45858
L63561 45858
L63599 45878
L63618 45897
L63637 45935
L63637 45973
L63618 46030
L63389 46258
L63637 46258
" />
<path d="M63885 45858
L63923 45858
L63961 45878
L63980 45897
L63999 45935
L64018 46011
L64018 46106
L63999 46182
L63980 46220
L63961 46239
L63923 46258
L63885 46258
L63847 46239
L63827 46220
L63808 46182
L63789 46106
L63789 46011
L63808 45935
L63827 45897
L63847 45878
L63885 45858
" />
<path d="M64475 45839
L64132 46354
" />
<path d="M64818 46258
L64589 46258
" />
<path d="M64704 46258
L64704 45858
L64666 45916
L64627 45954
L64589 45973
" />
<path d="M65161 45858
L65085 45858
L65047 45878
L65027 45897
L64989 45954
L64970 46030
L64970 46182
L64989 46220
L65008 46239
L65047 46258
L65123 46258
L65161 46239
L65180 46220
L65199 46182
L65199 46087
L65180 46049
L65161 46030
L65123 46011
L65047 46011
L65008 46030
L64989 46049
L64970 46087
" />
<path d="M61066 35441
L60932 35251
" />
<path d="M60837 35441
L60837 35041
L60989 35041
L61027 35060
L61047 35079
L61066 35117
L61066 35174
L61047 35212
L61027 35231
L60989 35251
L60837 35251
" />
<path d="M61389 35422
L61351 35441
L61275 35441
L61237 35422
L61218 35384
L61218 35231
L61237 35193
L61275 35174
L61351 35174
L61389 35193
L61408 35231
L61408 35270
L61218 35308
" />
<path d="M61542 35174
L61618 35441
L61694 35251
L61770 35441
L61847 35174
" />
<path d="M61999 35441
L61999 35174
" />
<path d="M61999 35041
L61980 35060
L61999 35079
L62018 35060
L61999 35041
L61999 35079
" />
<path d="M62189 35441
L62189 35174
" />
<path d="M62189 35251
L62208 35212
L62227 35193
L62266 35174
L62304 35174
" />
<path d="M62589 35422
L62551 35441
L62475 35441
L62437 35422
L62418 35384
L62418 35231
L62437 35193
L62475 35174
L62551 35174
L62589 35193
L62608 35231
L62608 35270
L62418 35308
" />
<path d="M63313 35403
L63294 35422
L63237 35441
L63199 35441
L63142 35422
L63104 35384
L63085 35346
L63066 35270
L63066 35212
L63085 35136
L63104 35098
L63142 35060
L63199 35041
L63237 35041
L63294 35060
L63313 35079
" />
<path d="M63485 35441
L63485 35174
" />
<path d="M63485 35041
L63466 35060
L63485 35079
L63504 35060
L63485 35041
L63485 35079
" />
<path d="M63675 35441
L63675 35174
" />
<path d="M63675 35251
L63694 35212
L63713 35193
L63751 35174
L63789 35174
" />
<path d="M64094 35422
L64056 35441
L63980 35441
L63942 35422
L63923 35403
L63904 35365
L63904 35251
L63923 35212
L63942 35193
L63980 35174
L64056 35174
L64094 35193
" />
<path d="M64437 35174
L64437 35441
" />
<path d="M64266 35174
L64266 35384
L64285 35422
L64323 35441
L64380 35441
L64418 35422
L64437 35403
" />
<path d="M64627 35441
L64627 35174
" />
<path d="M64627 35041
L64608 35060
L64627 35079
L64647 35060
L64627 35041
L64627 35079
" />
<path d="M64761 35174
L64913 35174
" />
<path d="M64818 35041
L64818 35384
L64837 35422
L64875 35441
L64913 35441
" />
<path d="M65027 35422
L65066 35441
L65142 35441
L65180 35422
L65199 35384
L65199 35365
L65180 35327
L65142 35308
L65085 35308
L65047 35289
L65027 35251
L65027 35231
L65047 35193
L65085 35174
L65142 35174
L65180 35193
" />
<path d="M59675 35701
L59675 36025
L59694 36063
L59713 36082
L59751 36101
L59827 36101
L59866 36082
L59885 36063
L59904 36025
L59904 35701
" />
<path d="M60075 36082
L60132 36101
L60227 36101
L60266 36082
L60285 36063
L60304 36025
L60304 35987
L60285 35949
L60266 35930
L60227 35911
L60151 35891
L60113 35872
L60094 35853
L60075 35815
L60075 35777
L60094 35739
L60113 35720
L60151 35701
L60247 35701
L60304 35720
" />
<path d="M60608 35891
L60666 35911
L60685 35930
L60704 35968
L60704 36025
L60685 36063
L60666 36082
L60627 36101
L60475 36101
L60475 35701
L60608 35701
L60647 35720
L60666 35739
L60685 35777
L60685 35815
L60666 35853
L60647 35872
L60608 35891
L60475 35891
" />
<path d="M61313 35891
L61370 35911
L61389 35930
L61408 35968
L61408 36025
L61389 36063
L61370 36082
L61332 36101
L61180 36101
L61180 35701
L61313 35701
L61351 35720
L61370 35739
L61389 35777
L61389 35815
L61370 35853
L61351 35872
L61313 35891
L61180 35891
" />
<path d="M61580 36101
L61580 35834
" />
<path d="M61580 35911
L61599 35872
L61618 35853
L61656 35834
L61694 35834
" />
<path d="M61980 36082
L61942 36101
L61866 36101
L61827 36082
L61808 36044
L61808 35891
L61827 35853
L61866 35834
L61942 35834
L61980 35853
L61999 35891
L61999 35930
L61808 35968
" />
<path d="M62342 36101
L62342 35891
L62323 35853
L62285 35834
L62208 35834
L62170 35853
" />
<path d="M62342 36082
L62304 36101
L62208 36101
L62170 36082
L62151 36044
L62151 36006
L62170 35968
L62208 35949
L62304 35949
L62342 35930
" />
<path d="M62532 36101
L62532 35701
" />
<path d="M62570 35949
L62685 36101
" />
<path d="M62685 35834
L62532 35987
" />
<path d="M62913 36101
L62875 36082
L62856 36063
L62837 36025
L62837 35911
L62856 35872
L62875 35853
L62913 35834
L62970 35834
L63008 35853
L63027 35872
L63047 35911
L63047 36025
L63027 36063
L63008 36082
L62970 36101
L62913 36101
" />
<path d="M63389 35834
L63389 36101
" />
<path d="M63218 35834
L63218 36044
L63237 36082
L63275 36101
L63332 36101
L63370 36082
L63389 36063
" />
<path d="M63523 35834
L63675 35834
" />
<path d="M63580 35701
L63580 36044
L63599 36082
L63637 36101
L63675 36101
" />
<path d="M64075 35834
L64170 36101
L64266 35834
" />
<path d="M64627 36101
L64399 36101
" />
<path d="M64513 36101
L64513 35701
L64475 35758
L64437 35796
L64399 35815
" />
<path d="M64799 36063
L64818 36082
L64799 36101
L64780 36082
L64799 36063
L64799 36101
" />
<path d="M65066 35701
L65104 35701
L65142 35720
L65161 35739
L65180 35777
L65199 35853
L65199 35949
L65180 36025
L65161 36063
L65142 36082
L65104 36101
L65066 36101
L65027 36082
L65008 36063
L64989 36025
L64970 35949
L64970 35853
L64989 35777
L65008 35739
L65027 35720
L65066 35701
" />
<path d="M65354 43307
L65354 38267
" />
<path d="M49685 38188
L49685 43228
" />
<path d="M49685 43228.3 A1574.8 1574.8 0.0 0 0 51259.8 44803.1 " />
<path d="M51259 44803
L63858 44803
" />
<path d="M63858.3 44803.1 A1496.06 1496.06 0.0 0 0 65354.3 43307.1 " />
<path d="M51181.1 36692.9 A1496.06 1496.06 0.0 0 0 49685 38189 " />
<path d="M63779 36692
L51181 36692
" />
<path d="M65354.3 38267.7 A1574.8 1574.8 0.0 0 0 63779.5 36692.9 " />
</g>
<g style="fill:#000000; fill-opacity:0.0; 
stroke:#000000; stroke-width:19.685; stroke-opacity:1; 
stroke-linecap:round; stroke-linejoin:round;">
<path d="M49862 40196
L51929 40196
" />
<path d="M49862 44133
L49862 40196
" />
<path d="M51929 44133
L49862 44133
" />
<path d="M51929 40196
L51929 44133
" />
</g>
<g style="fill:#000000; fill-opacity:0.0; 
stroke:#000000; stroke-width:20; stroke-opacity:1; 
stroke-linecap:round; stroke-linejoin:round;">
<path d="M52716 40165
L52716 44181
" />
<path d="M53897 40165
L52716 40165
" />
<path d="M53897 40204
L53897 40165
" />
<path d="M53897 44181
L53897 40204
" />
<path d="M52716 44181
L53897 44181
" />
<path d="M54850 42244
L58866 42244
" />
<path d="M54850 41062
L54850 42244
" />
<path d="M54889 41062
L54850 41062
" />
<path d="M58866 41062
L54889 41062
" />
<path d="M58866 42244
L58866 41062
" />
<path d="M54850 43425
L58866 43425
" />
<path d="M54850 42244
L54850 43425
" />
<path d="M54889 42244
L54850 42244
" />
<path d="M58866 42244
L54889 42244
" />
<path d="M58866 43425
L58866 42244
" />
</g>
<g style="fill:#000000; fill-opacity:0.0; 
stroke:#000000; stroke-width:19.685; stroke-opacity:1; 
stroke-linecap:round; stroke-linejoin:round;">
<path d="M63779 40472
L61417 40472
" />
<path d="M63779 43622
L63779 40472
" />
<path d="M61417 43622
L63779 43622
" />
<path d="M61417 40472
L61417 43622
" />
</g>
<g style="fill:#000000; fill-opacity:0.0; 
stroke:#000000; stroke-width:16; stroke-opacity:1; 
stroke-linecap:round; stroke-linejoin:round;">
<circle cx="51181.1" cy="38189" r="1174.03" /> 
<circle cx="57480.3" cy="38189" r="1174.03" /> 
<circle cx="60629.9" cy="38189" r="1174.03" /> 
<circle cx="54330.7" cy="38189" r="1174.03" /> 
<circle cx="63779.5" cy="38189" r="1174.03" /> 
</g>
<g style="fill:#000000; fill-opacity:0.0; 
stroke:#000000; stroke-width:20; stroke-opacity:1; 
stroke-linecap:round; stroke-linejoin:round;">
<path d="M55236 39703
L55236 39802
" />
<path d="M60452 39703
L55236 39703
" />
<path d="M60452 41081
L60452 39703
" />
<path d="M60354 41081
L60452 41081
" />
<path d="M55236 41081
L60354 41081
" />
<path d="M55236 39802
L55236 41081
" />
<path d="M55629 39703
L55629 41081
" />
<path d="M55314 43327
L55314 43426
" />
<path d="M60531 43327
L55314 43327
" />
<path d="M60531 44705
L60531 43327
" />
<path d="M60433 44705
L60531 44705
" />
<path d="M55314 44705
L60433 44705
" />
<path d="M55314 43426
L55314 44705
" />
<path d="M55708 43327
L55708 44705
" />
</g>
<g style="fill:#000000; fill-opacity:0.0; 
stroke:#000000; stroke-width:100; stroke-opacity:1; 
stroke-linecap:round; stroke-linejoin:round;">
<path d="M50506 42432
L51078 42432
L51192 42470
L51268 42546
L51306 42660
L51306 42736
" />
<path d="M51306 41632
L51306 42089
" />
<path d="M51306 41860
L50506 41860
L50621 41936
L50697 42012
L50735 42089
" />
</g>
<g style="fill:#000000; fill-opacity:0.0; 
stroke:#000000; stroke-width:59.0551; stroke-opacity:1; 
stroke-linecap:round; stroke-linejoin:round;">
<path d="M53485 42238
L53297 42370
" />
<path d="M53485 42463
L53091 42463
L53091 42313
L53110 42276
L53128 42257
L53166 42238
L53222 42238
L53260 42257
L53278 42276
L53297 42313
L53297 42463
" />
<path d="M53485 41863
L53485 42088
" />
<path d="M53485 41976
L53091 41976
L53147 42013
L53185 42051
L53203 42088
" />
<path d="M56792 41831
L56661 41644
" />
<path d="M56567 41831
L56567 41437
L56717 41437
L56755 41456
L56773 41475
L56792 41512
L56792 41569
L56773 41606
L56755 41625
L56717 41644
L56567 41644
" />
<path d="M56942 41475
L56961 41456
L56998 41437
L57092 41437
L57130 41456
L57148 41475
L57167 41512
L57167 41550
L57148 41606
L56923 41831
L57167 41831
" />
<path d="M56792 43012
L56661 42825
" />
<path d="M56567 43012
L56567 42619
L56717 42619
L56755 42637
L56773 42656
L56792 42694
L56792 42750
L56773 42787
L56755 42806
L56717 42825
L56567 42825
" />
<path d="M56923 42619
L57167 42619
L57036 42769
L57092 42769
L57130 42787
L57148 42806
L57167 42844
L57167 42937
L57148 42975
L57130 42994
L57092 43012
L56980 43012
L56942 42994
L56923 42975
" />
<path d="M62757 42572
L62776 42515
L62776 42422
L62757 42384
L62739 42365
L62701 42347
L62664 42347
L62626 42365
L62607 42384
L62589 42422
L62570 42497
L62551 42534
L62532 42553
L62495 42572
L62457 42572
L62420 42553
L62401 42534
L62382 42497
L62382 42403
L62401 42347
" />
<path d="M62382 42215
L62776 42122
L62495 42047
L62776 41972
L62382 41878
" />
<path d="M62776 41522
L62776 41747
" />
<path d="M62776 41634
L62382 41634
L62439 41672
L62476 41709
L62495 41747
" />
</g>
<g style="fill:#000000; fill-opacity:0.0; 
stroke:#000000; stroke-width:100; stroke-opacity:1; 
stroke-linecap:round; stroke-linejoin:round;">
<path d="M57303 40754
L57303 39954
L57493 39954
L57607 39992
L57684 40068
L57722 40145
L57760 40297
L57760 40411
L57722 40564
L57684 40640
L57607 40716
L57493 40754
L57303 40754
" />
<path d="M58522 40754
L58065 40754
" />
<path d="M58293 40754
L58293 39954
L58217 40068
L58141 40145
L58065 40183
" />
<path d="M57381 44378
L57381 43578
L57572 43578
L57686 43616
L57762 43692
L57801 43769
L57839 43921
L57839 44035
L57801 44188
L57762 44264
L57686 44340
L57572 44378
L57381 44378
" />
<path d="M58143 43654
L58181 43616
L58258 43578
L58448 43578
L58524 43616
L58562 43654
L58601 43731
L58601 43807
L58562 43921
L58105 44378
L58601 44378
" />
</g> 
</svg>
