M48
; DRILL file {KiCad (5.1.8)-1} date 04/30/21 18:53:26
; FORMAT={-:-/ absolute / inch / decimal}
; #@! TF.CreationDate,2021-04-30T18:53:26-04:00
; #@! TF.GenerationSoftware,Kicad,Pcbnew,(5.1.8)-1
; #@! TF.FileFunction,Plated,1,2,PTH
FMAT,2
INCH
T1C0.0130
T2C0.0400
T3C0.0402
T4C0.1961
%
G90
G05
T1
X0.2205Y-4.0354
X0.2598Y-3.9803
X0.2783Y-4.0079
X0.2961Y-3.3353
X0.3299Y-3.5244
X0.3307Y-3.3465
X0.3346Y-3.4528
X0.3701Y-3.3465
X0.3701Y-3.4488
X0.4016Y-5.815
X0.4016Y-5.8465
X0.4646Y-3.7047
X0.5157Y-3.6102
X0.5827Y-5.0551
X0.6772Y-3.884
X0.7008Y-3.2047
X0.7008Y-3.9843
X0.7008Y-4.0433
X0.7087Y-3.9173
X0.7992Y-3.4528
X0.8898Y-3.9173
X0.8898Y-3.9843
X0.8898Y-4.0433
X0.8976Y-5.0591
X0.9134Y-4.0984
X1.0157Y-4.5157
X1.1949Y-3.4272
X1.1957Y-4.122
X1.2283Y-3.4055
T2
X0.45Y-3.3
X0.45Y-3.4
X0.45Y-3.5
X0.65Y-3.3
X0.65Y-3.4
X0.65Y-3.5
X0.75Y-3.3
X0.75Y-3.4
X0.75Y-3.5
X0.85Y-3.3
X0.85Y-3.4
X0.85Y-3.5
X0.95Y-3.3
X0.95Y-3.4
X0.95Y-3.5
X1.05Y-3.3
X1.05Y-3.4
X1.05Y-3.5
X0.55Y-3.3
X0.55Y-3.4
X0.55Y-3.5
T3
X0.405Y-3.6628
X0.405Y-3.7628
X0.405Y-3.8628
X0.405Y-3.9628
X0.405Y-4.0628
X0.405Y-4.1628
X0.405Y-4.2628
X0.405Y-4.3628
X0.405Y-4.4628
X0.405Y-4.5628
X0.405Y-4.6628
X0.405Y-4.7628
X0.405Y-4.8628
X0.405Y-4.9628
X0.405Y-5.0628
X0.405Y-5.1628
X0.405Y-5.2628
X0.405Y-5.3628
X0.405Y-5.4628
X0.405Y-5.5628
X1.105Y-3.6628
X1.105Y-3.7628
X1.105Y-3.8628
X1.105Y-3.9628
X1.105Y-4.0628
X1.105Y-4.1628
X1.105Y-4.2628
X1.105Y-4.3628
X1.105Y-4.4628
X1.105Y-4.5628
X1.105Y-4.6628
X1.105Y-4.7628
X1.105Y-4.8628
X1.105Y-4.9628
X1.105Y-5.0628
X1.105Y-5.1628
X1.105Y-5.2628
X1.105Y-5.3628
X1.105Y-5.4628
X1.105Y-5.5628
T4
X0.125Y-3.2608
X0.125Y-3.5758
X0.125Y-3.8907
X0.125Y-4.5207
X0.125Y-2.9459
X0.125Y-4.2057
X0.125Y-4.8356
X0.125Y-5.1506
X0.125Y-5.4656
X0.125Y-5.7805
X0.125Y-6.0955
X0.44Y-2.9459
X0.44Y-6.0955
X0.7549Y-2.9459
X0.7549Y-6.0955
X1.0699Y-2.9459
X1.0699Y-6.0955
X1.3848Y-2.9459
X1.3848Y-3.2608
X1.3848Y-3.5758
X1.3848Y-3.8907
X1.3848Y-4.2057
X1.3848Y-4.5207
X1.3848Y-4.8356
X1.3848Y-5.1506
X1.3848Y-5.4656
X1.3848Y-5.7805
X1.3848Y-6.0955
T0
M30
