G04 #@! TF.GenerationSoftware,KiCad,Pcbnew,(5.1.8)-1*
G04 #@! TF.CreationDate,2021-04-30T18:53:21-04:00*
G04 #@! TF.ProjectId,5x11-Raspi-Pico-Robot-Version,35783131-2d52-4617-9370-692d5069636f,v1.6*
G04 #@! TF.SameCoordinates,Original*
G04 #@! TF.FileFunction,Soldermask,Top*
G04 #@! TF.FilePolarity,Negative*
%FSLAX46Y46*%
G04 Gerber Fmt 4.6, Leading zero omitted, Abs format (unit mm)*
G04 Created by KiCad (PCBNEW (5.1.8)-1) date 2021-04-30 18:53:21*
%MOMM*%
%LPD*%
G01*
G04 APERTURE LIST*
%ADD10C,0.300000*%
%ADD11C,0.254000*%
%ADD12C,0.152400*%
%ADD13O,2.184400X1.879600*%
%ADD14O,1.852400X1.852400*%
%ADD15C,6.152400*%
G04 APERTURE END LIST*
D10*
X15482571Y-149212714D02*
X15411142Y-149284142D01*
X15196857Y-149355571D01*
X15054000Y-149355571D01*
X14839714Y-149284142D01*
X14696857Y-149141285D01*
X14625428Y-148998428D01*
X14554000Y-148712714D01*
X14554000Y-148498428D01*
X14625428Y-148212714D01*
X14696857Y-148069857D01*
X14839714Y-147927000D01*
X15054000Y-147855571D01*
X15196857Y-147855571D01*
X15411142Y-147927000D01*
X15482571Y-147998428D01*
X16125428Y-149355571D02*
X16125428Y-147855571D01*
X17696857Y-149355571D02*
X17196857Y-148641285D01*
X16839714Y-149355571D02*
X16839714Y-147855571D01*
X17411142Y-147855571D01*
X17554000Y-147927000D01*
X17625428Y-147998428D01*
X17696857Y-148141285D01*
X17696857Y-148355571D01*
X17625428Y-148498428D01*
X17554000Y-148569857D01*
X17411142Y-148641285D01*
X16839714Y-148641285D01*
X19196857Y-149212714D02*
X19125428Y-149284142D01*
X18911142Y-149355571D01*
X18768285Y-149355571D01*
X18554000Y-149284142D01*
X18411142Y-149141285D01*
X18339714Y-148998428D01*
X18268285Y-148712714D01*
X18268285Y-148498428D01*
X18339714Y-148212714D01*
X18411142Y-148069857D01*
X18554000Y-147927000D01*
X18768285Y-147855571D01*
X18911142Y-147855571D01*
X19125428Y-147927000D01*
X19196857Y-147998428D01*
X19839714Y-147855571D02*
X19839714Y-149069857D01*
X19911142Y-149212714D01*
X19982571Y-149284142D01*
X20125428Y-149355571D01*
X20411142Y-149355571D01*
X20554000Y-149284142D01*
X20625428Y-149212714D01*
X20696857Y-149069857D01*
X20696857Y-147855571D01*
X21411142Y-149355571D02*
X21411142Y-147855571D01*
X21911142Y-147855571D02*
X22768285Y-147855571D01*
X22339714Y-149355571D02*
X22339714Y-147855571D01*
X23196857Y-149284142D02*
X23411142Y-149355571D01*
X23768285Y-149355571D01*
X23911142Y-149284142D01*
X23982571Y-149212714D01*
X24054000Y-149069857D01*
X24054000Y-148927000D01*
X23982571Y-148784142D01*
X23911142Y-148712714D01*
X23768285Y-148641285D01*
X23482571Y-148569857D01*
X23339714Y-148498428D01*
X23268285Y-148427000D01*
X23196857Y-148284142D01*
X23196857Y-148141285D01*
X23268285Y-147998428D01*
X23339714Y-147927000D01*
X23482571Y-147855571D01*
X23839714Y-147855571D01*
X24054000Y-147927000D01*
X14859285Y-146799714D02*
X14787857Y-146871142D01*
X14573571Y-146942571D01*
X14430714Y-146942571D01*
X14216428Y-146871142D01*
X14073571Y-146728285D01*
X14002142Y-146585428D01*
X13930714Y-146299714D01*
X13930714Y-146085428D01*
X14002142Y-145799714D01*
X14073571Y-145656857D01*
X14216428Y-145514000D01*
X14430714Y-145442571D01*
X14573571Y-145442571D01*
X14787857Y-145514000D01*
X14859285Y-145585428D01*
X16359285Y-146942571D02*
X15859285Y-146228285D01*
X15502142Y-146942571D02*
X15502142Y-145442571D01*
X16073571Y-145442571D01*
X16216428Y-145514000D01*
X16287857Y-145585428D01*
X16359285Y-145728285D01*
X16359285Y-145942571D01*
X16287857Y-146085428D01*
X16216428Y-146156857D01*
X16073571Y-146228285D01*
X15502142Y-146228285D01*
X16930714Y-146514000D02*
X17645000Y-146514000D01*
X16787857Y-146942571D02*
X17287857Y-145442571D01*
X17787857Y-146942571D01*
X18145000Y-145442571D02*
X19145000Y-145442571D01*
X18145000Y-146942571D01*
X19145000Y-146942571D01*
X20002142Y-146228285D02*
X20002142Y-146942571D01*
X19502142Y-145442571D02*
X20002142Y-146228285D01*
X20502142Y-145442571D01*
D11*
X22415500Y-145946500D02*
X22352000Y-145121000D01*
X23241000Y-146962500D02*
X22352000Y-145248000D01*
X23050500Y-146962500D02*
X22479000Y-145883000D01*
X22860000Y-146962500D02*
X22415500Y-146137000D01*
X22606000Y-146962500D02*
X22161500Y-146200500D01*
X22479000Y-146962500D02*
X21907500Y-146137000D01*
X22288500Y-146962500D02*
X21653500Y-146073500D01*
D12*
X22034500Y-147089500D02*
X21209000Y-145883000D01*
X21209000Y-145883000D02*
X22288500Y-146137000D01*
X22288500Y-146137000D02*
X22225000Y-144740000D01*
X22225000Y-144740000D02*
X23050500Y-146264000D01*
X23050500Y-146200500D02*
X24130000Y-145502000D01*
X24130000Y-145502000D02*
X23812500Y-146391000D01*
X23812500Y-146391000D02*
X25590500Y-145946500D01*
X25590500Y-145946500D02*
X24003000Y-147089500D01*
X24003000Y-147089500D02*
X22034500Y-147089500D01*
D11*
X22098000Y-146962500D02*
X21463000Y-146073500D01*
D12*
X23939500Y-145756000D02*
X23114000Y-146327500D01*
X23939500Y-145883000D02*
X23114000Y-146454500D01*
X23812500Y-146073500D02*
X23177500Y-146581500D01*
X23812500Y-146200500D02*
X23241000Y-146708500D01*
X23241000Y-146708500D02*
X23812500Y-146391000D01*
X23812500Y-146391000D02*
X23304500Y-146835500D01*
X23304500Y-146835500D02*
X24066500Y-146391000D01*
X24066500Y-146391000D02*
X23304500Y-146962500D01*
X23304500Y-146962500D02*
X24257000Y-146391000D01*
X24257000Y-146391000D02*
X23431500Y-147026000D01*
X23431500Y-147026000D02*
X24574500Y-146264000D01*
X24574500Y-146264000D02*
X23685500Y-146962500D01*
X23685500Y-146962500D02*
X24765000Y-146200500D01*
X24765000Y-146200500D02*
X23812500Y-147026000D01*
X23812500Y-147026000D02*
X25146000Y-146073500D01*
X25146000Y-146073500D02*
X24003000Y-147026000D01*
D10*
X15482571Y-149212714D02*
X15411142Y-149284142D01*
X15196857Y-149355571D01*
X15054000Y-149355571D01*
X14839714Y-149284142D01*
X14696857Y-149141285D01*
X14625428Y-148998428D01*
X14554000Y-148712714D01*
X14554000Y-148498428D01*
X14625428Y-148212714D01*
X14696857Y-148069857D01*
X14839714Y-147927000D01*
X15054000Y-147855571D01*
X15196857Y-147855571D01*
X15411142Y-147927000D01*
X15482571Y-147998428D01*
X16125428Y-149355571D02*
X16125428Y-147855571D01*
X17696857Y-149355571D02*
X17196857Y-148641285D01*
X16839714Y-149355571D02*
X16839714Y-147855571D01*
X17411142Y-147855571D01*
X17554000Y-147927000D01*
X17625428Y-147998428D01*
X17696857Y-148141285D01*
X17696857Y-148355571D01*
X17625428Y-148498428D01*
X17554000Y-148569857D01*
X17411142Y-148641285D01*
X16839714Y-148641285D01*
X19196857Y-149212714D02*
X19125428Y-149284142D01*
X18911142Y-149355571D01*
X18768285Y-149355571D01*
X18554000Y-149284142D01*
X18411142Y-149141285D01*
X18339714Y-148998428D01*
X18268285Y-148712714D01*
X18268285Y-148498428D01*
X18339714Y-148212714D01*
X18411142Y-148069857D01*
X18554000Y-147927000D01*
X18768285Y-147855571D01*
X18911142Y-147855571D01*
X19125428Y-147927000D01*
X19196857Y-147998428D01*
X19839714Y-147855571D02*
X19839714Y-149069857D01*
X19911142Y-149212714D01*
X19982571Y-149284142D01*
X20125428Y-149355571D01*
X20411142Y-149355571D01*
X20554000Y-149284142D01*
X20625428Y-149212714D01*
X20696857Y-149069857D01*
X20696857Y-147855571D01*
X21411142Y-149355571D02*
X21411142Y-147855571D01*
X21911142Y-147855571D02*
X22768285Y-147855571D01*
X22339714Y-149355571D02*
X22339714Y-147855571D01*
X23196857Y-149284142D02*
X23411142Y-149355571D01*
X23768285Y-149355571D01*
X23911142Y-149284142D01*
X23982571Y-149212714D01*
X24054000Y-149069857D01*
X24054000Y-148927000D01*
X23982571Y-148784142D01*
X23911142Y-148712714D01*
X23768285Y-148641285D01*
X23482571Y-148569857D01*
X23339714Y-148498428D01*
X23268285Y-148427000D01*
X23196857Y-148284142D01*
X23196857Y-148141285D01*
X23268285Y-147998428D01*
X23339714Y-147927000D01*
X23482571Y-147855571D01*
X23839714Y-147855571D01*
X24054000Y-147927000D01*
X14859285Y-146799714D02*
X14787857Y-146871142D01*
X14573571Y-146942571D01*
X14430714Y-146942571D01*
X14216428Y-146871142D01*
X14073571Y-146728285D01*
X14002142Y-146585428D01*
X13930714Y-146299714D01*
X13930714Y-146085428D01*
X14002142Y-145799714D01*
X14073571Y-145656857D01*
X14216428Y-145514000D01*
X14430714Y-145442571D01*
X14573571Y-145442571D01*
X14787857Y-145514000D01*
X14859285Y-145585428D01*
X16359285Y-146942571D02*
X15859285Y-146228285D01*
X15502142Y-146942571D02*
X15502142Y-145442571D01*
X16073571Y-145442571D01*
X16216428Y-145514000D01*
X16287857Y-145585428D01*
X16359285Y-145728285D01*
X16359285Y-145942571D01*
X16287857Y-146085428D01*
X16216428Y-146156857D01*
X16073571Y-146228285D01*
X15502142Y-146228285D01*
X16930714Y-146514000D02*
X17645000Y-146514000D01*
X16787857Y-146942571D02*
X17287857Y-145442571D01*
X17787857Y-146942571D01*
X18145000Y-145442571D02*
X19145000Y-145442571D01*
X18145000Y-146942571D01*
X19145000Y-146942571D01*
X20002142Y-146228285D02*
X20002142Y-146942571D01*
X19502142Y-145442571D02*
X20002142Y-146228285D01*
X20502142Y-145442571D01*
D11*
X22415500Y-145946500D02*
X22352000Y-145121000D01*
X23241000Y-146962500D02*
X22352000Y-145248000D01*
X23050500Y-146962500D02*
X22479000Y-145883000D01*
X22860000Y-146962500D02*
X22415500Y-146137000D01*
X22606000Y-146962500D02*
X22161500Y-146200500D01*
X22479000Y-146962500D02*
X21907500Y-146137000D01*
X22288500Y-146962500D02*
X21653500Y-146073500D01*
D12*
X22034500Y-147089500D02*
X21209000Y-145883000D01*
X21209000Y-145883000D02*
X22288500Y-146137000D01*
X22288500Y-146137000D02*
X22225000Y-144740000D01*
X22225000Y-144740000D02*
X23050500Y-146264000D01*
X23050500Y-146200500D02*
X24130000Y-145502000D01*
X24130000Y-145502000D02*
X23812500Y-146391000D01*
X23812500Y-146391000D02*
X25590500Y-145946500D01*
X25590500Y-145946500D02*
X24003000Y-147089500D01*
X24003000Y-147089500D02*
X22034500Y-147089500D01*
D11*
X22098000Y-146962500D02*
X21463000Y-146073500D01*
D12*
X23939500Y-145756000D02*
X23114000Y-146327500D01*
X23939500Y-145883000D02*
X23114000Y-146454500D01*
X23812500Y-146073500D02*
X23177500Y-146581500D01*
X23812500Y-146200500D02*
X23241000Y-146708500D01*
X23241000Y-146708500D02*
X23812500Y-146391000D01*
X23812500Y-146391000D02*
X23304500Y-146835500D01*
X23304500Y-146835500D02*
X24066500Y-146391000D01*
X24066500Y-146391000D02*
X23304500Y-146962500D01*
X23304500Y-146962500D02*
X24257000Y-146391000D01*
X24257000Y-146391000D02*
X23431500Y-147026000D01*
X23431500Y-147026000D02*
X24574500Y-146264000D01*
X24574500Y-146264000D02*
X23685500Y-146962500D01*
X23685500Y-146962500D02*
X24765000Y-146200500D01*
X24765000Y-146200500D02*
X23812500Y-147026000D01*
X23812500Y-147026000D02*
X25146000Y-146073500D01*
X25146000Y-146073500D02*
X24003000Y-147026000D01*
G36*
G01*
X17957800Y-84683600D02*
X17957800Y-82956400D01*
G75*
G02*
X18034000Y-82880200I76200J0D01*
G01*
X20066000Y-82880200D01*
G75*
G02*
X20142200Y-82956400I0J-76200D01*
G01*
X20142200Y-84683600D01*
G75*
G02*
X20066000Y-84759800I-76200J0D01*
G01*
X18034000Y-84759800D01*
G75*
G02*
X17957800Y-84683600I0J76200D01*
G01*
G37*
D13*
X19050000Y-86360000D03*
X19050000Y-88900000D03*
G36*
G01*
X10337800Y-84683600D02*
X10337800Y-82956400D01*
G75*
G02*
X10414000Y-82880200I76200J0D01*
G01*
X12446000Y-82880200D01*
G75*
G02*
X12522200Y-82956400I0J-76200D01*
G01*
X12522200Y-84683600D01*
G75*
G02*
X12446000Y-84759800I-76200J0D01*
G01*
X10414000Y-84759800D01*
G75*
G02*
X10337800Y-84683600I0J76200D01*
G01*
G37*
X11430000Y-86360000D03*
X11430000Y-88900000D03*
G36*
G01*
X23037800Y-84683600D02*
X23037800Y-82956400D01*
G75*
G02*
X23114000Y-82880200I76200J0D01*
G01*
X25146000Y-82880200D01*
G75*
G02*
X25222200Y-82956400I0J-76200D01*
G01*
X25222200Y-84683600D01*
G75*
G02*
X25146000Y-84759800I-76200J0D01*
G01*
X23114000Y-84759800D01*
G75*
G02*
X23037800Y-84683600I0J76200D01*
G01*
G37*
X24130000Y-86360000D03*
X24130000Y-88900000D03*
G36*
G01*
X20497800Y-84683600D02*
X20497800Y-82956400D01*
G75*
G02*
X20574000Y-82880200I76200J0D01*
G01*
X22606000Y-82880200D01*
G75*
G02*
X22682200Y-82956400I0J-76200D01*
G01*
X22682200Y-84683600D01*
G75*
G02*
X22606000Y-84759800I-76200J0D01*
G01*
X20574000Y-84759800D01*
G75*
G02*
X20497800Y-84683600I0J76200D01*
G01*
G37*
X21590000Y-86360000D03*
X21590000Y-88900000D03*
G36*
G01*
X12877800Y-84683600D02*
X12877800Y-82956400D01*
G75*
G02*
X12954000Y-82880200I76200J0D01*
G01*
X14986000Y-82880200D01*
G75*
G02*
X15062200Y-82956400I0J-76200D01*
G01*
X15062200Y-84683600D01*
G75*
G02*
X14986000Y-84759800I-76200J0D01*
G01*
X12954000Y-84759800D01*
G75*
G02*
X12877800Y-84683600I0J76200D01*
G01*
G37*
X13970000Y-86360000D03*
X13970000Y-88900000D03*
G36*
G01*
X15417800Y-84683600D02*
X15417800Y-82956400D01*
G75*
G02*
X15494000Y-82880200I76200J0D01*
G01*
X17526000Y-82880200D01*
G75*
G02*
X17602200Y-82956400I0J-76200D01*
G01*
X17602200Y-84683600D01*
G75*
G02*
X17526000Y-84759800I-76200J0D01*
G01*
X15494000Y-84759800D01*
G75*
G02*
X15417800Y-84683600I0J76200D01*
G01*
G37*
X16510000Y-86360000D03*
X16510000Y-88900000D03*
D14*
X28067000Y-141296251D03*
X28067000Y-138756251D03*
G36*
G01*
X28993200Y-135366251D02*
X28993200Y-137066251D01*
G75*
G02*
X28917000Y-137142451I-76200J0D01*
G01*
X27217000Y-137142451D01*
G75*
G02*
X27140800Y-137066251I0J76200D01*
G01*
X27140800Y-135366251D01*
G75*
G02*
X27217000Y-135290051I76200J0D01*
G01*
X28917000Y-135290051D01*
G75*
G02*
X28993200Y-135366251I0J-76200D01*
G01*
G37*
X28067000Y-133676251D03*
X28067000Y-131136251D03*
X28067000Y-128596251D03*
X28067000Y-126056251D03*
G36*
G01*
X28993200Y-122666251D02*
X28993200Y-124366251D01*
G75*
G02*
X28917000Y-124442451I-76200J0D01*
G01*
X27217000Y-124442451D01*
G75*
G02*
X27140800Y-124366251I0J76200D01*
G01*
X27140800Y-122666251D01*
G75*
G02*
X27217000Y-122590051I76200J0D01*
G01*
X28917000Y-122590051D01*
G75*
G02*
X28993200Y-122666251I0J-76200D01*
G01*
G37*
X28067000Y-120976251D03*
X28067000Y-118436251D03*
X28067000Y-115896251D03*
X28067000Y-113356251D03*
G36*
G01*
X28993200Y-109966251D02*
X28993200Y-111666251D01*
G75*
G02*
X28917000Y-111742451I-76200J0D01*
G01*
X27217000Y-111742451D01*
G75*
G02*
X27140800Y-111666251I0J76200D01*
G01*
X27140800Y-109966251D01*
G75*
G02*
X27217000Y-109890051I76200J0D01*
G01*
X28917000Y-109890051D01*
G75*
G02*
X28993200Y-109966251I0J-76200D01*
G01*
G37*
X28067000Y-108276251D03*
X28067000Y-105736251D03*
X28067000Y-103196251D03*
X28067000Y-100656251D03*
G36*
G01*
X28993200Y-97266251D02*
X28993200Y-98966251D01*
G75*
G02*
X28917000Y-99042451I-76200J0D01*
G01*
X27217000Y-99042451D01*
G75*
G02*
X27140800Y-98966251I0J76200D01*
G01*
X27140800Y-97266251D01*
G75*
G02*
X27217000Y-97190051I76200J0D01*
G01*
X28917000Y-97190051D01*
G75*
G02*
X28993200Y-97266251I0J-76200D01*
G01*
G37*
X28067000Y-95576251D03*
X28067000Y-93036251D03*
X10287000Y-93036251D03*
X10287000Y-95576251D03*
G36*
G01*
X11213200Y-97266251D02*
X11213200Y-98966251D01*
G75*
G02*
X11137000Y-99042451I-76200J0D01*
G01*
X9437000Y-99042451D01*
G75*
G02*
X9360800Y-98966251I0J76200D01*
G01*
X9360800Y-97266251D01*
G75*
G02*
X9437000Y-97190051I76200J0D01*
G01*
X11137000Y-97190051D01*
G75*
G02*
X11213200Y-97266251I0J-76200D01*
G01*
G37*
X10287000Y-100656251D03*
X10287000Y-103196251D03*
X10287000Y-105736251D03*
X10287000Y-108276251D03*
G36*
G01*
X11213200Y-109966251D02*
X11213200Y-111666251D01*
G75*
G02*
X11137000Y-111742451I-76200J0D01*
G01*
X9437000Y-111742451D01*
G75*
G02*
X9360800Y-111666251I0J76200D01*
G01*
X9360800Y-109966251D01*
G75*
G02*
X9437000Y-109890051I76200J0D01*
G01*
X11137000Y-109890051D01*
G75*
G02*
X11213200Y-109966251I0J-76200D01*
G01*
G37*
X10287000Y-113356251D03*
X10287000Y-115896251D03*
X10287000Y-118436251D03*
X10287000Y-120976251D03*
G36*
G01*
X11213200Y-122666251D02*
X11213200Y-124366251D01*
G75*
G02*
X11137000Y-124442451I-76200J0D01*
G01*
X9437000Y-124442451D01*
G75*
G02*
X9360800Y-124366251I0J76200D01*
G01*
X9360800Y-122666251D01*
G75*
G02*
X9437000Y-122590051I76200J0D01*
G01*
X11137000Y-122590051D01*
G75*
G02*
X11213200Y-122666251I0J-76200D01*
G01*
G37*
X10287000Y-126056251D03*
X10287000Y-128596251D03*
X10287000Y-131136251D03*
X10287000Y-133676251D03*
G36*
G01*
X11213200Y-135366251D02*
X11213200Y-137066251D01*
G75*
G02*
X11137000Y-137142451I-76200J0D01*
G01*
X9437000Y-137142451D01*
G75*
G02*
X9360800Y-137066251I0J76200D01*
G01*
X9360800Y-135366251D01*
G75*
G02*
X9437000Y-135290051I76200J0D01*
G01*
X11137000Y-135290051D01*
G75*
G02*
X11213200Y-135366251I0J-76200D01*
G01*
G37*
X10287000Y-138756251D03*
X10287000Y-141296251D03*
D13*
X26670000Y-88900000D03*
X26670000Y-86360000D03*
G36*
G01*
X25577800Y-84683600D02*
X25577800Y-82956400D01*
G75*
G02*
X25654000Y-82880200I76200J0D01*
G01*
X27686000Y-82880200D01*
G75*
G02*
X27762200Y-82956400I0J-76200D01*
G01*
X27762200Y-84683600D01*
G75*
G02*
X27686000Y-84759800I-76200J0D01*
G01*
X25654000Y-84759800D01*
G75*
G02*
X25577800Y-84683600I0J76200D01*
G01*
G37*
D15*
X3176000Y-130825001D03*
X35175000Y-90825001D03*
X3176000Y-122825001D03*
X27175000Y-154825001D03*
X3175000Y-98825001D03*
X35175000Y-122825001D03*
X3175000Y-114825001D03*
X35175000Y-82825001D03*
X3175000Y-82825001D03*
X35175000Y-74825001D03*
X11175000Y-154825001D03*
X3176000Y-146825001D03*
X3176000Y-106825001D03*
X19175000Y-74825001D03*
X3175000Y-90825001D03*
X35175000Y-154825001D03*
X27175000Y-74825001D03*
X35175000Y-146825001D03*
X35175000Y-106825001D03*
X35175000Y-138825001D03*
X3176000Y-138825001D03*
X35175000Y-130825001D03*
X35175000Y-114825001D03*
X3176000Y-154825001D03*
X19175000Y-154825001D03*
X35175000Y-98825001D03*
X11175000Y-74825001D03*
X3176000Y-74825001D03*
M02*
