%TF.GenerationSoftware,KiCad,Pcbnew,4.0.5-e0-6337~49~ubuntu16.04.1*%
%TF.CreationDate,2017-01-18T00:44:48-08:00*%
%TF.ProjectId,2x2-Generic-3.5mm-Pitch,3278322D47656E657269632D332E356D,1.0*%
%TF.FileFunction,Soldermask,Top*%
%FSLAX46Y46*%
G04 Gerber Fmt 4.6, Leading zero omitted, Abs format (unit mm)*
G04 Created by KiCad (PCBNEW 4.0.5-e0-6337~49~ubuntu16.04.1) date Wed Jan 18 00:44:48 2017*
%MOMM*%
%LPD*%
G01*
G04 APERTURE LIST*
%ADD10C,0.350000*%
G04 APERTURE END LIST*
D10*
G36*
X138118110Y-97509847D02*
X138709055Y-97631151D01*
X139265198Y-97864932D01*
X139765334Y-98202278D01*
X140190421Y-98630343D01*
X140524266Y-99132821D01*
X140754156Y-99690576D01*
X140871264Y-100282014D01*
X140871264Y-100282024D01*
X140871331Y-100282363D01*
X140861710Y-100971416D01*
X140861633Y-100971754D01*
X140861633Y-100971762D01*
X140728057Y-101559701D01*
X140482685Y-102110816D01*
X140134937Y-102603778D01*
X139698062Y-103019809D01*
X139188700Y-103343061D01*
X138626254Y-103561219D01*
X138032147Y-103665976D01*
X137429003Y-103653342D01*
X136839800Y-103523797D01*
X136286982Y-103282277D01*
X135791607Y-102937982D01*
X135372537Y-102504023D01*
X135045738Y-101996930D01*
X134823656Y-101436014D01*
X134714755Y-100842658D01*
X134723177Y-100239441D01*
X134848606Y-99649347D01*
X135086259Y-99094858D01*
X135427091Y-98597088D01*
X135858112Y-98175000D01*
X136362913Y-97844668D01*
X136922259Y-97618677D01*
X137514845Y-97505636D01*
X138118110Y-97509847D01*
X138118110Y-97509847D01*
G37*
G36*
X146118110Y-97509847D02*
X146709055Y-97631151D01*
X147265198Y-97864932D01*
X147765334Y-98202278D01*
X148190421Y-98630343D01*
X148524266Y-99132821D01*
X148754156Y-99690576D01*
X148871264Y-100282014D01*
X148871264Y-100282024D01*
X148871331Y-100282363D01*
X148861710Y-100971416D01*
X148861633Y-100971754D01*
X148861633Y-100971762D01*
X148728057Y-101559701D01*
X148482685Y-102110816D01*
X148134937Y-102603778D01*
X147698062Y-103019809D01*
X147188700Y-103343061D01*
X146626254Y-103561219D01*
X146032147Y-103665976D01*
X145429003Y-103653342D01*
X144839800Y-103523797D01*
X144286982Y-103282277D01*
X143791607Y-102937982D01*
X143372537Y-102504023D01*
X143045738Y-101996930D01*
X142823656Y-101436014D01*
X142714755Y-100842658D01*
X142723177Y-100239441D01*
X142848606Y-99649347D01*
X143086259Y-99094858D01*
X143427091Y-98597088D01*
X143858112Y-98175000D01*
X144362913Y-97844668D01*
X144922259Y-97618677D01*
X145514845Y-97505636D01*
X146118110Y-97509847D01*
X146118110Y-97509847D01*
G37*
G36*
X141902790Y-97308481D02*
X142099921Y-97348947D01*
X142285451Y-97426937D01*
X142452292Y-97539473D01*
X142594098Y-97682272D01*
X142705466Y-97849895D01*
X142782156Y-98035958D01*
X142821176Y-98233027D01*
X142821176Y-98233032D01*
X142821244Y-98233376D01*
X142818034Y-98463239D01*
X142817957Y-98463577D01*
X142817957Y-98463586D01*
X142773449Y-98659490D01*
X142691596Y-98843335D01*
X142575588Y-99007786D01*
X142429850Y-99146571D01*
X142259931Y-99254405D01*
X142072299Y-99327182D01*
X141874112Y-99362128D01*
X141672905Y-99357913D01*
X141476351Y-99314699D01*
X141291933Y-99234128D01*
X141126682Y-99119275D01*
X140986882Y-98974509D01*
X140877864Y-98805345D01*
X140803777Y-98618224D01*
X140767449Y-98420288D01*
X140770258Y-98219058D01*
X140812102Y-98022205D01*
X140891380Y-97837232D01*
X141005080Y-97671178D01*
X141148865Y-97530373D01*
X141317265Y-97420176D01*
X141503860Y-97344786D01*
X141701540Y-97307077D01*
X141902790Y-97308481D01*
X141902790Y-97308481D01*
G37*
G36*
X141908042Y-93758515D02*
X142114777Y-93800952D01*
X142309347Y-93882741D01*
X142484318Y-94000761D01*
X142633033Y-94150518D01*
X142749827Y-94326308D01*
X142830253Y-94521436D01*
X142871178Y-94728124D01*
X142871178Y-94728129D01*
X142871246Y-94728473D01*
X142867880Y-94969536D01*
X142867803Y-94969874D01*
X142867803Y-94969883D01*
X142821122Y-95175349D01*
X142735281Y-95368152D01*
X142613621Y-95540615D01*
X142460782Y-95686162D01*
X142282584Y-95799250D01*
X142085810Y-95875573D01*
X141877967Y-95912222D01*
X141666957Y-95907802D01*
X141460825Y-95862481D01*
X141267422Y-95777985D01*
X141094119Y-95657536D01*
X140947508Y-95505717D01*
X140833178Y-95328310D01*
X140755481Y-95132072D01*
X140717384Y-94924492D01*
X140720330Y-94713458D01*
X140764211Y-94507013D01*
X140847353Y-94313028D01*
X140966593Y-94138883D01*
X141117384Y-93991217D01*
X141293988Y-93875651D01*
X141489675Y-93796588D01*
X141696987Y-93757042D01*
X141908042Y-93758515D01*
X141908042Y-93758515D01*
G37*
G36*
X138118110Y-89509847D02*
X138709055Y-89631151D01*
X139265198Y-89864932D01*
X139765334Y-90202278D01*
X140190421Y-90630343D01*
X140524266Y-91132821D01*
X140754156Y-91690576D01*
X140871264Y-92282014D01*
X140871264Y-92282024D01*
X140871331Y-92282363D01*
X140861710Y-92971416D01*
X140861633Y-92971754D01*
X140861633Y-92971762D01*
X140728057Y-93559701D01*
X140482685Y-94110816D01*
X140134937Y-94603778D01*
X139698062Y-95019809D01*
X139188700Y-95343061D01*
X138626254Y-95561219D01*
X138032147Y-95665976D01*
X137429003Y-95653342D01*
X136839800Y-95523797D01*
X136286982Y-95282277D01*
X135791607Y-94937982D01*
X135372537Y-94504023D01*
X135045738Y-93996930D01*
X134823656Y-93436014D01*
X134714755Y-92842658D01*
X134723177Y-92239441D01*
X134848606Y-91649347D01*
X135086259Y-91094858D01*
X135427091Y-90597088D01*
X135858112Y-90175000D01*
X136362913Y-89844668D01*
X136922259Y-89618677D01*
X137514845Y-89505636D01*
X138118110Y-89509847D01*
X138118110Y-89509847D01*
G37*
G36*
X146118110Y-89509847D02*
X146709055Y-89631151D01*
X147265198Y-89864932D01*
X147765334Y-90202278D01*
X148190421Y-90630343D01*
X148524266Y-91132821D01*
X148754156Y-91690576D01*
X148871264Y-92282014D01*
X148871264Y-92282024D01*
X148871331Y-92282363D01*
X148861710Y-92971416D01*
X148861633Y-92971754D01*
X148861633Y-92971762D01*
X148728057Y-93559701D01*
X148482685Y-94110816D01*
X148134937Y-94603778D01*
X147698062Y-95019809D01*
X147188700Y-95343061D01*
X146626254Y-95561219D01*
X146032147Y-95665976D01*
X145429003Y-95653342D01*
X144839800Y-95523797D01*
X144286982Y-95282277D01*
X143791607Y-94937982D01*
X143372537Y-94504023D01*
X143045738Y-93996930D01*
X142823656Y-93436014D01*
X142714755Y-92842658D01*
X142723177Y-92239441D01*
X142848606Y-91649347D01*
X143086259Y-91094858D01*
X143427091Y-90597088D01*
X143858112Y-90175000D01*
X144362913Y-89844668D01*
X144922259Y-89618677D01*
X145514845Y-89505636D01*
X146118110Y-89509847D01*
X146118110Y-89509847D01*
G37*
M02*
