%TF.GenerationSoftware,KiCad,Pcbnew,4.0.5-e0-6337~49~ubuntu16.04.1*%
%TF.CreationDate,2017-01-18T22:32:57-08:00*%
%TF.ProjectId,2x2-Generic-3.5mm-Pitch,3278322D47656E657269632D332E356D,1.0*%
%TF.FileFunction,Soldermask,Top*%
%FSLAX46Y46*%
G04 Gerber Fmt 4.6, Leading zero omitted, Abs format (unit mm)*
G04 Created by KiCad (PCBNEW 4.0.5-e0-6337~49~ubuntu16.04.1) date Wed Jan 18 22:32:57 2017*
%MOMM*%
%LPD*%
G01*
G04 APERTURE LIST*
%ADD10C,0.350000*%
G04 APERTURE END LIST*
D10*
G36*
X144468110Y-95985847D02*
X145059055Y-96107151D01*
X145615198Y-96340932D01*
X146115334Y-96678278D01*
X146540421Y-97106343D01*
X146874266Y-97608821D01*
X147104156Y-98166576D01*
X147221264Y-98758014D01*
X147221264Y-98758024D01*
X147221331Y-98758363D01*
X147211710Y-99447416D01*
X147211633Y-99447754D01*
X147211633Y-99447762D01*
X147078057Y-100035701D01*
X146832685Y-100586816D01*
X146484937Y-101079778D01*
X146048062Y-101495809D01*
X145538700Y-101819061D01*
X144976254Y-102037219D01*
X144382147Y-102141976D01*
X143779003Y-102129342D01*
X143189800Y-101999797D01*
X142636982Y-101758277D01*
X142141607Y-101413982D01*
X141722537Y-100980023D01*
X141395738Y-100472930D01*
X141173656Y-99912014D01*
X141064755Y-99318658D01*
X141073177Y-98715441D01*
X141198606Y-98125347D01*
X141436259Y-97570858D01*
X141777091Y-97073088D01*
X142208112Y-96651000D01*
X142712913Y-96320668D01*
X143272259Y-96094677D01*
X143864845Y-95981636D01*
X144468110Y-95985847D01*
X144468110Y-95985847D01*
G37*
G36*
X152468110Y-95985847D02*
X153059055Y-96107151D01*
X153615198Y-96340932D01*
X154115334Y-96678278D01*
X154540421Y-97106343D01*
X154874266Y-97608821D01*
X155104156Y-98166576D01*
X155221264Y-98758014D01*
X155221264Y-98758024D01*
X155221331Y-98758363D01*
X155211710Y-99447416D01*
X155211633Y-99447754D01*
X155211633Y-99447762D01*
X155078057Y-100035701D01*
X154832685Y-100586816D01*
X154484937Y-101079778D01*
X154048062Y-101495809D01*
X153538700Y-101819061D01*
X152976254Y-102037219D01*
X152382147Y-102141976D01*
X151779003Y-102129342D01*
X151189800Y-101999797D01*
X150636982Y-101758277D01*
X150141607Y-101413982D01*
X149722537Y-100980023D01*
X149395738Y-100472930D01*
X149173656Y-99912014D01*
X149064755Y-99318658D01*
X149073177Y-98715441D01*
X149198606Y-98125347D01*
X149436259Y-97570858D01*
X149777091Y-97073088D01*
X150208112Y-96651000D01*
X150712913Y-96320668D01*
X151272259Y-96094677D01*
X151864845Y-95981636D01*
X152468110Y-95985847D01*
X152468110Y-95985847D01*
G37*
G36*
X148252790Y-95784481D02*
X148449921Y-95824947D01*
X148635451Y-95902937D01*
X148802292Y-96015473D01*
X148944098Y-96158272D01*
X149055466Y-96325895D01*
X149132156Y-96511958D01*
X149171176Y-96709027D01*
X149171176Y-96709032D01*
X149171244Y-96709376D01*
X149168034Y-96939239D01*
X149167957Y-96939577D01*
X149167957Y-96939586D01*
X149123449Y-97135490D01*
X149041596Y-97319335D01*
X148925588Y-97483786D01*
X148779850Y-97622571D01*
X148609931Y-97730405D01*
X148422299Y-97803182D01*
X148224112Y-97838128D01*
X148022905Y-97833913D01*
X147826351Y-97790699D01*
X147641933Y-97710128D01*
X147476682Y-97595275D01*
X147336882Y-97450509D01*
X147227864Y-97281345D01*
X147153777Y-97094224D01*
X147117449Y-96896288D01*
X147120258Y-96695058D01*
X147162102Y-96498205D01*
X147241380Y-96313232D01*
X147355080Y-96147178D01*
X147498865Y-96006373D01*
X147667265Y-95896176D01*
X147853860Y-95820786D01*
X148051540Y-95783077D01*
X148252790Y-95784481D01*
X148252790Y-95784481D01*
G37*
G36*
X148258042Y-92234515D02*
X148464777Y-92276952D01*
X148659347Y-92358741D01*
X148834318Y-92476761D01*
X148983033Y-92626518D01*
X149099827Y-92802308D01*
X149180253Y-92997436D01*
X149221178Y-93204124D01*
X149221178Y-93204129D01*
X149221246Y-93204473D01*
X149217880Y-93445536D01*
X149217803Y-93445874D01*
X149217803Y-93445883D01*
X149171122Y-93651349D01*
X149085281Y-93844152D01*
X148963621Y-94016615D01*
X148810782Y-94162162D01*
X148632584Y-94275250D01*
X148435810Y-94351573D01*
X148227967Y-94388222D01*
X148016957Y-94383802D01*
X147810825Y-94338481D01*
X147617422Y-94253985D01*
X147444119Y-94133536D01*
X147297508Y-93981717D01*
X147183178Y-93804310D01*
X147105481Y-93608072D01*
X147067384Y-93400492D01*
X147070330Y-93189458D01*
X147114211Y-92983013D01*
X147197353Y-92789028D01*
X147316593Y-92614883D01*
X147467384Y-92467217D01*
X147643988Y-92351651D01*
X147839675Y-92272588D01*
X148046987Y-92233042D01*
X148258042Y-92234515D01*
X148258042Y-92234515D01*
G37*
G36*
X144468110Y-87985847D02*
X145059055Y-88107151D01*
X145615198Y-88340932D01*
X146115334Y-88678278D01*
X146540421Y-89106343D01*
X146874266Y-89608821D01*
X147104156Y-90166576D01*
X147221264Y-90758014D01*
X147221264Y-90758024D01*
X147221331Y-90758363D01*
X147211710Y-91447416D01*
X147211633Y-91447754D01*
X147211633Y-91447762D01*
X147078057Y-92035701D01*
X146832685Y-92586816D01*
X146484937Y-93079778D01*
X146048062Y-93495809D01*
X145538700Y-93819061D01*
X144976254Y-94037219D01*
X144382147Y-94141976D01*
X143779003Y-94129342D01*
X143189800Y-93999797D01*
X142636982Y-93758277D01*
X142141607Y-93413982D01*
X141722537Y-92980023D01*
X141395738Y-92472930D01*
X141173656Y-91912014D01*
X141064755Y-91318658D01*
X141073177Y-90715441D01*
X141198606Y-90125347D01*
X141436259Y-89570858D01*
X141777091Y-89073088D01*
X142208112Y-88651000D01*
X142712913Y-88320668D01*
X143272259Y-88094677D01*
X143864845Y-87981636D01*
X144468110Y-87985847D01*
X144468110Y-87985847D01*
G37*
G36*
X152468110Y-87985847D02*
X153059055Y-88107151D01*
X153615198Y-88340932D01*
X154115334Y-88678278D01*
X154540421Y-89106343D01*
X154874266Y-89608821D01*
X155104156Y-90166576D01*
X155221264Y-90758014D01*
X155221264Y-90758024D01*
X155221331Y-90758363D01*
X155211710Y-91447416D01*
X155211633Y-91447754D01*
X155211633Y-91447762D01*
X155078057Y-92035701D01*
X154832685Y-92586816D01*
X154484937Y-93079778D01*
X154048062Y-93495809D01*
X153538700Y-93819061D01*
X152976254Y-94037219D01*
X152382147Y-94141976D01*
X151779003Y-94129342D01*
X151189800Y-93999797D01*
X150636982Y-93758277D01*
X150141607Y-93413982D01*
X149722537Y-92980023D01*
X149395738Y-92472930D01*
X149173656Y-91912014D01*
X149064755Y-91318658D01*
X149073177Y-90715441D01*
X149198606Y-90125347D01*
X149436259Y-89570858D01*
X149777091Y-89073088D01*
X150208112Y-88651000D01*
X150712913Y-88320668D01*
X151272259Y-88094677D01*
X151864845Y-87981636D01*
X152468110Y-87985847D01*
X152468110Y-87985847D01*
G37*
M02*
