G04 This is an RS-274x file exported by *
G04 gerbv version 2.6.0 *
G04 More information is available about gerbv at *
G04 http://gerbv.gpleda.org/ *
G04 --End of header info--*
%MOIN*%
%FSLAX34Y34*%
%IPPOS*%
G04 --Define apertures--*
%ADD10C,0.0138*%
%ADD11C,0.0039*%
%ADD12C,0.0016*%
%ADD13C,0.0059*%
G04 --Start main section--*
G54D11*
G01X0007607Y-017531D02*
G01X0007607Y-012807D01*
G54D12*
G01X0000638Y-013594D02*
G01X0000638Y-016744D01*
G01X0002095Y-012098D02*
G75*
G03X0000641Y-013634I0000042J-001496D01*
G01X0000638Y-016744D02*
G75*
G03X0002257Y-018240I0001501J0000000D01*
G01X0008394Y-018241D02*
G75*
G03X0009890Y-016705I0000000J0001497D01*
G01X0009891Y-013594D02*
G75*
G03X0008355Y-012098I-001497J0000000D01*
G01X0009890Y-013594D02*
G01X0009890Y-016744D01*
G01X0008394Y-012098D02*
G01X0002095Y-012098D01*
G01X0008394Y-018240D02*
G01X0002213Y-018240D01*
G54D11*
G01X0007607Y-012807D02*
G01X0002882Y-012807D01*
G01X0002882Y-017531D02*
G01X0007607Y-017531D01*
G01X0002882Y-012807D02*
G01X0002882Y-017531D01*
G54D13*
G01X0004629Y-015329D02*
G01X0004686Y-015347D01*
G01X0004686Y-015347D02*
G01X0004779Y-015347D01*
G01X0004779Y-015347D02*
G01X0004817Y-015329D01*
G01X0004817Y-015329D02*
G01X0004836Y-015310D01*
G01X0004836Y-015310D02*
G01X0004854Y-015272D01*
G01X0004854Y-015272D02*
G01X0004854Y-015235D01*
G01X0004854Y-015235D02*
G01X0004836Y-015197D01*
G01X0004836Y-015197D02*
G01X0004817Y-015179D01*
G01X0004817Y-015179D02*
G01X0004779Y-015160D01*
G01X0004779Y-015160D02*
G01X0004704Y-015141D01*
G01X0004704Y-015141D02*
G01X0004667Y-015122D01*
G01X0004667Y-015122D02*
G01X0004648Y-015104D01*
G01X0004648Y-015104D02*
G01X0004629Y-015066D01*
G01X0004629Y-015066D02*
G01X0004629Y-015029D01*
G01X0004629Y-015029D02*
G01X0004648Y-014991D01*
G01X0004648Y-014991D02*
G01X0004667Y-014972D01*
G01X0004667Y-014972D02*
G01X0004704Y-014954D01*
G01X0004704Y-014954D02*
G01X0004798Y-014954D01*
G01X0004798Y-014954D02*
G01X0004854Y-014972D01*
G01X0005023Y-015347D02*
G01X0005023Y-014954D01*
G01X0005023Y-014954D02*
G01X0005173Y-014954D01*
G01X0005173Y-014954D02*
G01X0005211Y-014972D01*
G01X0005211Y-014972D02*
G01X0005229Y-014991D01*
G01X0005229Y-014991D02*
G01X0005248Y-015029D01*
G01X0005248Y-015029D02*
G01X0005248Y-015085D01*
G01X0005248Y-015085D02*
G01X0005229Y-015122D01*
G01X0005229Y-015122D02*
G01X0005211Y-015141D01*
G01X0005211Y-015141D02*
G01X0005173Y-015160D01*
G01X0005173Y-015160D02*
G01X0005023Y-015160D01*
G01X0005417Y-015347D02*
G01X0005417Y-014954D01*
G01X0005642Y-015347D02*
G01X0005473Y-015122D01*
G01X0005642Y-014954D02*
G01X0005417Y-015179D01*
G01X0006017Y-015347D02*
G01X0005792Y-015347D01*
G01X0005904Y-015347D02*
G01X0005904Y-014954D01*
G01X0005904Y-014954D02*
G01X0005867Y-015010D01*
G01X0005867Y-015010D02*
G01X0005829Y-015047D01*
G01X0005829Y-015047D02*
G01X0005792Y-015066D01*
G01X0000000Y0000000D02*
G54D12*
G01X0000638Y-013594D02*
G01X0000638Y-016744D01*
G01X0002095Y-012098D02*
G75*
G03X0000641Y-013634I0000042J-001496D01*
G01X0000638Y-016744D02*
G75*
G03X0002257Y-018240I0001501J0000000D01*
G01X0008394Y-018241D02*
G75*
G03X0009890Y-016705I0000000J0001497D01*
G01X0009891Y-013594D02*
G75*
G03X0008355Y-012098I-001497J0000000D01*
G01X0009890Y-013594D02*
G01X0009890Y-016744D01*
G01X0008394Y-012098D02*
G01X0002095Y-012098D01*
G01X0008394Y-018240D02*
G01X0002213Y-018240D01*
M02*
