M48
;DRILL file {KiCad 4.0.7-e2-6376~58~ubuntu16.04.1} date Mon Aug  6 09:41:40 2018
;FORMAT={-:-/ absolute / metric / decimal}
FMAT,2
METRIC,TZ
T1C0.330
T2C1.016
T3C4.980
%
G90
G05
M71
T1
X53.086Y-44.767
X63.373Y-86.995
X63.373Y-107.188
X63.5Y-76.581
X65.532Y-103.632
X67.056Y-76.581
X67.287Y-99.672
X68.938Y-102.212
X71.097Y-74.272
X71.097Y-74.272
T2
X53.704Y-59.032
X53.704Y-61.572
X53.704Y-64.112
X53.704Y-66.652
X53.704Y-69.192
X53.704Y-71.732
X53.704Y-74.272
X53.704Y-76.812
X53.704Y-79.352
X53.704Y-81.892
X53.704Y-84.432
X53.704Y-86.972
X53.704Y-89.512
X53.704Y-92.052
X53.704Y-94.592
X53.704Y-97.132
X53.704Y-99.672
X53.704Y-102.212
X56.244Y-59.032
X56.244Y-61.572
X56.244Y-64.112
X56.244Y-66.652
X56.244Y-69.192
X56.244Y-71.732
X56.244Y-74.272
X56.244Y-76.812
X56.244Y-79.352
X56.244Y-81.892
X56.244Y-84.432
X56.244Y-86.972
X56.244Y-89.512
X56.244Y-92.052
X56.244Y-94.592
X56.244Y-97.132
X56.244Y-99.672
X56.244Y-102.212
X60.452Y-44.767
X60.452Y-47.307
X60.452Y-49.847
X62.992Y-44.767
X62.992Y-47.307
X62.992Y-49.847
X69.215Y-44.767
X69.215Y-47.307
X69.215Y-49.847
X71.755Y-44.767
X71.755Y-47.307
X71.755Y-49.847
X74.295Y-44.767
X74.295Y-47.307
X74.295Y-49.847
X79.104Y-59.032
X79.104Y-61.572
X79.104Y-64.112
X79.104Y-66.652
X79.104Y-69.192
X79.104Y-71.732
X79.104Y-74.272
X79.104Y-76.812
X79.104Y-79.352
X79.104Y-81.892
X79.104Y-84.432
X79.104Y-86.972
X79.104Y-89.512
X79.104Y-92.052
X79.104Y-94.592
X79.104Y-97.132
X79.104Y-99.672
X79.104Y-102.212
X81.644Y-59.032
X81.644Y-61.572
X81.644Y-64.112
X81.644Y-66.652
X81.644Y-69.192
X81.644Y-71.732
X81.644Y-74.272
X81.644Y-76.812
X81.644Y-79.352
X81.644Y-81.892
X81.644Y-84.432
X81.644Y-86.972
X81.644Y-89.512
X81.644Y-92.052
X81.644Y-94.592
X81.644Y-97.132
X81.644Y-99.672
X81.644Y-102.212
T3
X39.373Y-33.909
X39.373Y-41.909
X39.373Y-49.909
X39.373Y-57.909
X39.373Y-65.909
X39.373Y-73.909
X39.373Y-81.909
X39.373Y-89.909
X39.373Y-97.909
X39.373Y-105.909
X39.373Y-113.909
X39.373Y-121.909
X47.373Y-33.909
X47.373Y-121.909
X55.373Y-33.909
X55.373Y-121.909
X63.373Y-33.909
X63.373Y-121.909
X71.373Y-33.909
X71.373Y-121.909
X79.373Y-33.909
X79.373Y-121.909
X87.373Y-33.909
X87.373Y-121.909
X95.372Y-33.909
X95.372Y-41.909
X95.372Y-49.909
X95.372Y-57.909
X95.372Y-65.909
X95.372Y-81.909
X95.372Y-121.909
X95.373Y-73.909
X95.373Y-89.909
X95.373Y-97.909
X95.373Y-105.909
X95.373Y-113.909
T0
M30
