%TF.GenerationSoftware,KiCad,Pcbnew,4.0.5-e0-6337~49~ubuntu16.04.1*%
%TF.CreationDate,2017-02-13T22:56:16-08:00*%
%TF.ProjectId,2x2-12mm-Square-SMT-Pushbutton,3278322D31326D6D2D5371756172652D,1.0*%
%TF.FileFunction,Other,Fab,Top*%
%FSLAX46Y46*%
G04 Gerber Fmt 4.6, Leading zero omitted, Abs format (unit mm)*
G04 Created by KiCad (PCBNEW 4.0.5-e0-6337~49~ubuntu16.04.1) date Mon Feb 13 22:56:16 2017*
%MOMM*%
%LPD*%
G01*
G04 APERTURE LIST*
%ADD10C,0.350000*%
%ADD11C,0.040640*%
%ADD12C,0.150000*%
G04 APERTURE END LIST*
D10*
D11*
X22764400Y-38134000D02*
G75*
G03X19071032Y-42033820I106632J-3799820D01*
G01*
X19074579Y-49934000D02*
G75*
G03X22764400Y-53734000I3801645J0D01*
G01*
X30764400Y-53735316D02*
G75*
G03X34564400Y-49834000I0J3801316D01*
G01*
X34565716Y-41934000D02*
G75*
G03X30664400Y-38134000I-3801316J0D01*
G01*
X34564400Y-41934000D02*
X34564400Y-49934000D01*
X30764400Y-38134000D02*
X22764400Y-38134000D01*
X30764400Y-53734000D02*
X22764400Y-53734000D01*
X19064400Y-41934000D02*
X19064400Y-49934000D01*
X20864400Y-39934000D02*
X32864400Y-39934000D01*
X32864400Y-39934000D02*
X32864400Y-51934000D01*
X32864400Y-51934000D02*
X20864400Y-51934000D01*
X20864400Y-51934000D02*
X20864400Y-39934000D01*
D12*
X25342067Y-46605962D02*
X25484924Y-46653581D01*
X25723020Y-46653581D01*
X25818258Y-46605962D01*
X25865877Y-46558343D01*
X25913496Y-46463105D01*
X25913496Y-46367867D01*
X25865877Y-46272629D01*
X25818258Y-46225010D01*
X25723020Y-46177390D01*
X25532543Y-46129771D01*
X25437305Y-46082152D01*
X25389686Y-46034533D01*
X25342067Y-45939295D01*
X25342067Y-45844057D01*
X25389686Y-45748819D01*
X25437305Y-45701200D01*
X25532543Y-45653581D01*
X25770639Y-45653581D01*
X25913496Y-45701200D01*
X26246829Y-45653581D02*
X26484924Y-46653581D01*
X26675401Y-45939295D01*
X26865877Y-46653581D01*
X27103972Y-45653581D01*
X28008734Y-46653581D02*
X27437305Y-46653581D01*
X27723019Y-46653581D02*
X27723019Y-45653581D01*
X27627781Y-45796438D01*
X27532543Y-45891676D01*
X27437305Y-45939295D01*
M02*
