G04 This is an RS-274x file exported by *
G04 gerbv version 2.6.0 *
G04 More information is available about gerbv at *
G04 http://gerbv.gpleda.org/ *
G04 --End of header info--*
%MOIN*%
%FSLAX34Y34*%
%IPPOS*%
G04 --Define apertures--*
%ADD10C,0.0138*%
%ADD11C,0.0016*%
%ADD12C,0.0059*%
G04 --Start main section--*
G54D11*
G01X0008962Y-015013D02*
G75*
G03X0007508Y-016549I0000042J-001496D01*
G01X0007510Y-019659D02*
G75*
G03X0008962Y-021155I0001497J0000000D01*
G01X0012112Y-021156D02*
G75*
G03X0013608Y-019620I0000000J0001497D01*
G01X0013609Y-016509D02*
G75*
G03X0012073Y-015013I-001497J0000000D01*
G01X0013608Y-016509D02*
G01X0013608Y-019659D01*
G01X0012112Y-015013D02*
G01X0008962Y-015013D01*
G01X0012112Y-021155D02*
G01X0008962Y-021155D01*
G01X0007506Y-016509D02*
G01X0007506Y-019659D01*
G01X0008214Y-015722D02*
G01X0012939Y-015722D01*
G01X0012939Y-015722D02*
G01X0012939Y-020446D01*
G01X0012939Y-020446D02*
G01X0008214Y-020446D01*
G01X0008214Y-020446D02*
G01X0008214Y-015722D01*
G54D12*
G01X0009977Y-018349D02*
G01X0010033Y-018368D01*
G01X0010033Y-018368D02*
G01X0010127Y-018368D01*
G01X0010127Y-018368D02*
G01X0010165Y-018349D01*
G01X0010165Y-018349D02*
G01X0010183Y-018330D01*
G01X0010183Y-018330D02*
G01X0010202Y-018293D01*
G01X0010202Y-018293D02*
G01X0010202Y-018255D01*
G01X0010202Y-018255D02*
G01X0010183Y-018218D01*
G01X0010183Y-018218D02*
G01X0010165Y-018199D01*
G01X0010165Y-018199D02*
G01X0010127Y-018180D01*
G01X0010127Y-018180D02*
G01X0010052Y-018161D01*
G01X0010052Y-018161D02*
G01X0010015Y-018143D01*
G01X0010015Y-018143D02*
G01X0009996Y-018124D01*
G01X0009996Y-018124D02*
G01X0009977Y-018086D01*
G01X0009977Y-018086D02*
G01X0009977Y-018049D01*
G01X0009977Y-018049D02*
G01X0009996Y-018011D01*
G01X0009996Y-018011D02*
G01X0010015Y-017993D01*
G01X0010015Y-017993D02*
G01X0010052Y-017974D01*
G01X0010052Y-017974D02*
G01X0010146Y-017974D01*
G01X0010146Y-017974D02*
G01X0010202Y-017993D01*
G01X0010333Y-017974D02*
G01X0010427Y-018368D01*
G01X0010427Y-018368D02*
G01X0010502Y-018086D01*
G01X0010502Y-018086D02*
G01X0010577Y-018368D01*
G01X0010577Y-018368D02*
G01X0010671Y-017974D01*
G01X0011027Y-018368D02*
G01X0010802Y-018368D01*
G01X0010915Y-018368D02*
G01X0010915Y-017974D01*
G01X0010915Y-017974D02*
G01X0010877Y-018030D01*
G01X0010877Y-018030D02*
G01X0010840Y-018068D01*
G01X0010840Y-018068D02*
G01X0010802Y-018086D01*
G01X0000000Y0000000D02*
G54D11*
G01X0008962Y-015013D02*
G75*
G03X0007508Y-016549I0000042J-001496D01*
G01X0007510Y-019659D02*
G75*
G03X0008962Y-021155I0001497J0000000D01*
G01X0012112Y-021156D02*
G75*
G03X0013608Y-019620I0000000J0001497D01*
G01X0013609Y-016509D02*
G75*
G03X0012073Y-015013I-001497J0000000D01*
G01X0013608Y-016509D02*
G01X0013608Y-019659D01*
G01X0012112Y-015013D02*
G01X0008962Y-015013D01*
G01X0012112Y-021155D02*
G01X0008962Y-021155D01*
G01X0007506Y-016509D02*
G01X0007506Y-019659D01*
M02*
