%TF.GenerationSoftware,KiCad,Pcbnew,4.0.5-e0-6337~49~ubuntu16.04.1*%
%TF.CreationDate,2017-05-27T07:17:41-07:00*%
%TF.ProjectId,2x2-12mm-Square-SMT-Pushbutton,3278322D31326D6D2D5371756172652D,v1.1*%
%TF.FileFunction,Soldermask,Top*%
%FSLAX46Y46*%
G04 Gerber Fmt 4.6, Leading zero omitted, Abs format (unit mm)*
G04 Created by KiCad (PCBNEW 4.0.5-e0-6337~49~ubuntu16.04.1) date Sat May 27 07:17:41 2017*
%MOMM*%
%LPD*%
G01*
G04 APERTURE LIST*
%ADD10C,0.350000*%
%ADD11C,0.600000*%
G04 APERTURE END LIST*
D10*
D11*
X20068301Y-50442699D02*
G75*
G03X25507600Y-49883200I2696099J508699D01*
G01*
X28067901Y-49883200D02*
G75*
G03X33432400Y-50543600I2722899J0D01*
G01*
X25487299Y-41958400D02*
G75*
G03X20122800Y-41298000I-2722899J0D01*
G01*
X33436099Y-41449701D02*
G75*
G03X27996800Y-42009200I-2696099J-508699D01*
G01*
D10*
G36*
X20940600Y-48007251D02*
X20942611Y-48021404D01*
X20948486Y-48034435D01*
X20957758Y-48045315D01*
X20969694Y-48053180D01*
X20983349Y-48057409D01*
X20997642Y-48057666D01*
X21011440Y-48053931D01*
X21026943Y-48043546D01*
X21148626Y-47924385D01*
X21569737Y-47648818D01*
X22036350Y-47460294D01*
X22530691Y-47365994D01*
X23033943Y-47369507D01*
X23526915Y-47470700D01*
X23990856Y-47665723D01*
X24408075Y-47947141D01*
X24762688Y-48304237D01*
X25041185Y-48723410D01*
X25232962Y-49188695D01*
X25330643Y-49682022D01*
X25330643Y-49682032D01*
X25330710Y-49682371D01*
X25322684Y-50257186D01*
X25322607Y-50257524D01*
X25322607Y-50257533D01*
X25211189Y-50747942D01*
X25006498Y-51207687D01*
X24716402Y-51618922D01*
X24351956Y-51965980D01*
X23927042Y-52235639D01*
X23457840Y-52417630D01*
X22962231Y-52505020D01*
X22459081Y-52494480D01*
X21967561Y-52386412D01*
X21506394Y-52184933D01*
X21093147Y-51897719D01*
X20743554Y-51535705D01*
X20470935Y-51112682D01*
X20285671Y-50644759D01*
X20194825Y-50149776D01*
X20200243Y-49761709D01*
X20198430Y-49747530D01*
X20192738Y-49734417D01*
X20183618Y-49723410D01*
X20171793Y-49715378D01*
X20158198Y-49710959D01*
X20149448Y-49710200D01*
X18988200Y-49710200D01*
X18988200Y-47157800D01*
X20940600Y-47157800D01*
X20940600Y-48007251D01*
X20940600Y-48007251D01*
G37*
G36*
X34540600Y-49660200D02*
X33381044Y-49660200D01*
X33366891Y-49662211D01*
X33353860Y-49668086D01*
X33342980Y-49677358D01*
X33335115Y-49689294D01*
X33330886Y-49702949D01*
X33330334Y-49709314D01*
X33322684Y-50257186D01*
X33322607Y-50257524D01*
X33322607Y-50257533D01*
X33211189Y-50747942D01*
X33006498Y-51207687D01*
X32716402Y-51618922D01*
X32351956Y-51965980D01*
X31927042Y-52235639D01*
X31457840Y-52417630D01*
X30962231Y-52505020D01*
X30459081Y-52494480D01*
X29967561Y-52386412D01*
X29506394Y-52184933D01*
X29093147Y-51897719D01*
X28743554Y-51535705D01*
X28470935Y-51112682D01*
X28285671Y-50644759D01*
X28194825Y-50149776D01*
X28201850Y-49646565D01*
X28306485Y-49154302D01*
X28504738Y-48691741D01*
X28789063Y-48276495D01*
X29148626Y-47924385D01*
X29569737Y-47648818D01*
X30036350Y-47460294D01*
X30530691Y-47365994D01*
X31033943Y-47369507D01*
X31526915Y-47470700D01*
X31990856Y-47665723D01*
X32408075Y-47947141D01*
X32501354Y-48041073D01*
X32512753Y-48049698D01*
X32526104Y-48054806D01*
X32540350Y-48055992D01*
X32554362Y-48053163D01*
X32567030Y-48046541D01*
X32577353Y-48036653D01*
X32584512Y-48024280D01*
X32588200Y-48005278D01*
X32588200Y-47207800D01*
X34540600Y-47207800D01*
X34540600Y-49660200D01*
X34540600Y-49660200D01*
G37*
G36*
X26724025Y-47953102D02*
X26811849Y-47971131D01*
X26894511Y-48005878D01*
X26968843Y-48056016D01*
X27032022Y-48119637D01*
X27081638Y-48194316D01*
X27115807Y-48277216D01*
X27133152Y-48364815D01*
X27133152Y-48364830D01*
X27133219Y-48365169D01*
X27131789Y-48467580D01*
X27131713Y-48467914D01*
X27131713Y-48467926D01*
X27111926Y-48555017D01*
X27075460Y-48636923D01*
X27023773Y-48710193D01*
X26958846Y-48772022D01*
X26883138Y-48820068D01*
X26799546Y-48852491D01*
X26711247Y-48868061D01*
X26621604Y-48866182D01*
X26534032Y-48846928D01*
X26451868Y-48811032D01*
X26378246Y-48759863D01*
X26315961Y-48695366D01*
X26267390Y-48619998D01*
X26234381Y-48536627D01*
X26218197Y-48448445D01*
X26219448Y-48358791D01*
X26238091Y-48271086D01*
X26273411Y-48188676D01*
X26324068Y-48114694D01*
X26388128Y-48051962D01*
X26463156Y-48002865D01*
X26546290Y-47969277D01*
X26634360Y-47952477D01*
X26724025Y-47953102D01*
X26724025Y-47953102D01*
G37*
G36*
X23033943Y-39369507D02*
X23526915Y-39470700D01*
X23990856Y-39665723D01*
X24408075Y-39947141D01*
X24762688Y-40304237D01*
X25041185Y-40723410D01*
X25232962Y-41188695D01*
X25330643Y-41682022D01*
X25330643Y-41682032D01*
X25330710Y-41682371D01*
X25322684Y-42257186D01*
X25322607Y-42257524D01*
X25322607Y-42257533D01*
X25211189Y-42747942D01*
X25006498Y-43207687D01*
X24716402Y-43618922D01*
X24351956Y-43965980D01*
X23927042Y-44235639D01*
X23457840Y-44417630D01*
X22962231Y-44505020D01*
X22459081Y-44494480D01*
X21967561Y-44386412D01*
X21506394Y-44184933D01*
X21093150Y-43897721D01*
X21027943Y-43830197D01*
X21016665Y-43821414D01*
X21003386Y-43816120D01*
X20989159Y-43814735D01*
X20975109Y-43817369D01*
X20962349Y-43823813D01*
X20951889Y-43833556D01*
X20944558Y-43845828D01*
X20940600Y-43865486D01*
X20940600Y-44710200D01*
X18988200Y-44710200D01*
X18988200Y-42157800D01*
X20144617Y-42157800D01*
X20158770Y-42155789D01*
X20171801Y-42149914D01*
X20182681Y-42140642D01*
X20190546Y-42128706D01*
X20194775Y-42115051D01*
X20195412Y-42107709D01*
X20201850Y-41646565D01*
X20306485Y-41154302D01*
X20504738Y-40691741D01*
X20789063Y-40276495D01*
X21148626Y-39924385D01*
X21569737Y-39648818D01*
X22036350Y-39460294D01*
X22530691Y-39365994D01*
X23033943Y-39369507D01*
X23033943Y-39369507D01*
G37*
G36*
X31033943Y-39369507D02*
X31526915Y-39470700D01*
X31990856Y-39665723D01*
X32408075Y-39947141D01*
X32762688Y-40304237D01*
X33041185Y-40723410D01*
X33232962Y-41188695D01*
X33330643Y-41682022D01*
X33330643Y-41682032D01*
X33330710Y-41682371D01*
X33324784Y-42106798D01*
X33326532Y-42120470D01*
X33332224Y-42133583D01*
X33341344Y-42144590D01*
X33353169Y-42152622D01*
X33366764Y-42157041D01*
X33375514Y-42157800D01*
X34540600Y-42157800D01*
X34540600Y-44710200D01*
X32588200Y-44710200D01*
X32588200Y-43859534D01*
X32586189Y-43845381D01*
X32580314Y-43832350D01*
X32571042Y-43821470D01*
X32559106Y-43813605D01*
X32545451Y-43809376D01*
X32531158Y-43809119D01*
X32517360Y-43812854D01*
X32502367Y-43822746D01*
X32351956Y-43965980D01*
X31927042Y-44235639D01*
X31457840Y-44417630D01*
X30962231Y-44505020D01*
X30459081Y-44494480D01*
X29967561Y-44386412D01*
X29506394Y-44184933D01*
X29093147Y-43897719D01*
X28743554Y-43535705D01*
X28470935Y-43112682D01*
X28285671Y-42644759D01*
X28194825Y-42149776D01*
X28201850Y-41646565D01*
X28306485Y-41154302D01*
X28504738Y-40691741D01*
X28789063Y-40276495D01*
X29148626Y-39924385D01*
X29569737Y-39648818D01*
X30036350Y-39460294D01*
X30530691Y-39365994D01*
X31033943Y-39369507D01*
X31033943Y-39369507D01*
G37*
G36*
X26724025Y-43025502D02*
X26811849Y-43043531D01*
X26894511Y-43078278D01*
X26968843Y-43128416D01*
X27032022Y-43192037D01*
X27081638Y-43266716D01*
X27115807Y-43349616D01*
X27133152Y-43437215D01*
X27133152Y-43437230D01*
X27133219Y-43437569D01*
X27131789Y-43539980D01*
X27131713Y-43540314D01*
X27131713Y-43540326D01*
X27111926Y-43627417D01*
X27075460Y-43709323D01*
X27023773Y-43782593D01*
X26958846Y-43844422D01*
X26883138Y-43892468D01*
X26799546Y-43924891D01*
X26711247Y-43940461D01*
X26621604Y-43938582D01*
X26534032Y-43919328D01*
X26451868Y-43883432D01*
X26378246Y-43832263D01*
X26315961Y-43767766D01*
X26267390Y-43692398D01*
X26234381Y-43609027D01*
X26218197Y-43520845D01*
X26219448Y-43431191D01*
X26238091Y-43343486D01*
X26273411Y-43261076D01*
X26324068Y-43187094D01*
X26388128Y-43124362D01*
X26463156Y-43075265D01*
X26546290Y-43041677D01*
X26634360Y-43024877D01*
X26724025Y-43025502D01*
X26724025Y-43025502D01*
G37*
M02*
