%TF.GenerationSoftware,KiCad,Pcbnew,4.0.5-e0-6337~49~ubuntu16.04.1*%
%TF.CreationDate,2017-02-13T22:56:16-08:00*%
%TF.ProjectId,2x2-12mm-Square-SMT-Pushbutton,3278322D31326D6D2D5371756172652D,1.0*%
%TF.FileFunction,Legend,Top*%
%FSLAX46Y46*%
G04 Gerber Fmt 4.6, Leading zero omitted, Abs format (unit mm)*
G04 Created by KiCad (PCBNEW 4.0.5-e0-6337~49~ubuntu16.04.1) date Mon Feb 13 22:56:16 2017*
%MOMM*%
%LPD*%
G01*
G04 APERTURE LIST*
%ADD10C,0.350000*%
%ADD11C,7.000000*%
%ADD12C,0.152400*%
%ADD13C,0.150000*%
%ADD14R,1.952400X2.552400*%
%ADD15R,1.952400X2.452400*%
G04 APERTURE END LIST*
D10*
D11*
X30764400Y-49934000D02*
X22664400Y-49834000D01*
D12*
X32864400Y-44684000D02*
X32864400Y-44934000D01*
X32864400Y-44934000D02*
X32864400Y-47184000D01*
X32864400Y-51934000D02*
X32864400Y-49684000D01*
X20864400Y-51934000D02*
X32864400Y-51934000D01*
X20864400Y-49684000D02*
X20864400Y-51934000D01*
X20864400Y-44684000D02*
X20864400Y-47184000D01*
X20864400Y-39934000D02*
X20864400Y-42184000D01*
X32864400Y-39934000D02*
X32864400Y-41934000D01*
X20864400Y-39934000D02*
X32864400Y-39934000D01*
D13*
X23007258Y-45662571D02*
X23150115Y-45710190D01*
X23197734Y-45757810D01*
X23245353Y-45853048D01*
X23245353Y-45995905D01*
X23197734Y-46091143D01*
X23150115Y-46138762D01*
X23054877Y-46186381D01*
X22673924Y-46186381D01*
X22673924Y-45186381D01*
X23007258Y-45186381D01*
X23102496Y-45234000D01*
X23150115Y-45281619D01*
X23197734Y-45376857D01*
X23197734Y-45472095D01*
X23150115Y-45567333D01*
X23102496Y-45614952D01*
X23007258Y-45662571D01*
X22673924Y-45662571D01*
X23578686Y-45186381D02*
X24197734Y-45186381D01*
X23864400Y-45567333D01*
X24007258Y-45567333D01*
X24102496Y-45614952D01*
X24150115Y-45662571D01*
X24197734Y-45757810D01*
X24197734Y-45995905D01*
X24150115Y-46091143D01*
X24102496Y-46138762D01*
X24007258Y-46186381D01*
X23721543Y-46186381D01*
X23626305Y-46138762D01*
X23578686Y-46091143D01*
X24959639Y-45662571D02*
X24626305Y-45662571D01*
X24626305Y-46186381D02*
X24626305Y-45186381D01*
X25102496Y-45186381D01*
X25483448Y-45805429D02*
X26245353Y-45805429D01*
X27150115Y-45519714D02*
X27150115Y-46186381D01*
X26912019Y-45138762D02*
X26673924Y-45853048D01*
X27292972Y-45853048D01*
X27864400Y-45186381D02*
X27959639Y-45186381D01*
X28054877Y-45234000D01*
X28102496Y-45281619D01*
X28150115Y-45376857D01*
X28197734Y-45567333D01*
X28197734Y-45805429D01*
X28150115Y-45995905D01*
X28102496Y-46091143D01*
X28054877Y-46138762D01*
X27959639Y-46186381D01*
X27864400Y-46186381D01*
X27769162Y-46138762D01*
X27721543Y-46091143D01*
X27673924Y-45995905D01*
X27626305Y-45805429D01*
X27626305Y-45567333D01*
X27673924Y-45376857D01*
X27721543Y-45281619D01*
X27769162Y-45234000D01*
X27864400Y-45186381D01*
X28816781Y-45186381D02*
X28912020Y-45186381D01*
X29007258Y-45234000D01*
X29054877Y-45281619D01*
X29102496Y-45376857D01*
X29150115Y-45567333D01*
X29150115Y-45805429D01*
X29102496Y-45995905D01*
X29054877Y-46091143D01*
X29007258Y-46138762D01*
X28912020Y-46186381D01*
X28816781Y-46186381D01*
X28721543Y-46138762D01*
X28673924Y-46091143D01*
X28626305Y-45995905D01*
X28578686Y-45805429D01*
X28578686Y-45567333D01*
X28626305Y-45376857D01*
X28673924Y-45281619D01*
X28721543Y-45234000D01*
X28816781Y-45186381D01*
X29531067Y-45281619D02*
X29578686Y-45234000D01*
X29673924Y-45186381D01*
X29912020Y-45186381D01*
X30007258Y-45234000D01*
X30054877Y-45281619D01*
X30102496Y-45376857D01*
X30102496Y-45472095D01*
X30054877Y-45614952D01*
X29483448Y-46186381D01*
X30102496Y-46186381D01*
X30531067Y-46186381D02*
X30531067Y-45186381D01*
X30912020Y-45186381D01*
X31007258Y-45234000D01*
X31054877Y-45281619D01*
X31102496Y-45376857D01*
X31102496Y-45519714D01*
X31054877Y-45614952D01*
X31007258Y-45662571D01*
X30912020Y-45710190D01*
X30531067Y-45710190D01*
%LPC*%
D14*
X33564400Y-43434000D03*
D15*
X33564400Y-48434000D03*
D14*
X19964400Y-43434000D03*
X19964400Y-48434000D03*
M02*
