%TF.GenerationSoftware,KiCad,Pcbnew,4.0.5-e0-6337~49~ubuntu16.04.1*%
%TF.CreationDate,2017-01-29T14:40:22-08:00*%
%TF.ProjectId,2x2-12mm-Square-SMT-Pushbutton,3278322D31326D6D2D5371756172652D,1.0*%
%TF.FileFunction,Other,Fab,Top*%
%FSLAX46Y46*%
G04 Gerber Fmt 4.6, Leading zero omitted, Abs format (unit mm)*
G04 Created by KiCad (PCBNEW 4.0.5-e0-6337~49~ubuntu16.04.1) date Sun Jan 29 14:40:22 2017*
%MOMM*%
%LPD*%
G01*
G04 APERTURE LIST*
%ADD10C,0.350000*%
%ADD11C,0.040640*%
%ADD12C,0.150000*%
G04 APERTURE END LIST*
D10*
D11*
X134280000Y-91580000D02*
G75*
G03X130586632Y-95479820I106632J-3799820D01*
G01*
X130590179Y-103380000D02*
G75*
G03X134280000Y-107180000I3801645J0D01*
G01*
X142280000Y-107181316D02*
G75*
G03X146080000Y-103280000I0J3801316D01*
G01*
X146081316Y-95380000D02*
G75*
G03X142180000Y-91580000I-3801316J0D01*
G01*
X146080000Y-95380000D02*
X146080000Y-103380000D01*
X142280000Y-91580000D02*
X134280000Y-91580000D01*
X142280000Y-107180000D02*
X134280000Y-107180000D01*
X130580000Y-95380000D02*
X130580000Y-103380000D01*
X132380000Y-93380000D02*
X144380000Y-93380000D01*
X144380000Y-93380000D02*
X144380000Y-105380000D01*
X144380000Y-105380000D02*
X132380000Y-105380000D01*
X132380000Y-105380000D02*
X132380000Y-93380000D01*
D12*
X136857667Y-100051962D02*
X137000524Y-100099581D01*
X137238620Y-100099581D01*
X137333858Y-100051962D01*
X137381477Y-100004343D01*
X137429096Y-99909105D01*
X137429096Y-99813867D01*
X137381477Y-99718629D01*
X137333858Y-99671010D01*
X137238620Y-99623390D01*
X137048143Y-99575771D01*
X136952905Y-99528152D01*
X136905286Y-99480533D01*
X136857667Y-99385295D01*
X136857667Y-99290057D01*
X136905286Y-99194819D01*
X136952905Y-99147200D01*
X137048143Y-99099581D01*
X137286239Y-99099581D01*
X137429096Y-99147200D01*
X137762429Y-99099581D02*
X138000524Y-100099581D01*
X138191001Y-99385295D01*
X138381477Y-100099581D01*
X138619572Y-99099581D01*
X139524334Y-100099581D02*
X138952905Y-100099581D01*
X139238619Y-100099581D02*
X139238619Y-99099581D01*
X139143381Y-99242438D01*
X139048143Y-99337676D01*
X138952905Y-99385295D01*
M02*
