%TF.GenerationSoftware,KiCad,Pcbnew,4.0.5-e0-6337~49~ubuntu16.04.1*%
%TF.CreationDate,2017-01-17T11:54:28-08:00*%
%TF.ProjectId,2x2-12mm-Square-SMT-Pushbutton,3278322D31326D6D2D5371756172652D,v1.0*%
%TF.FileFunction,Legend,Bot*%
%FSLAX46Y46*%
G04 Gerber Fmt 4.6, Leading zero omitted, Abs format (unit mm)*
G04 Created by KiCad (PCBNEW 4.0.5-e0-6337~49~ubuntu16.04.1) date Tue Jan 17 11:54:28 2017*
%MOMM*%
%LPD*%
G01*
G04 APERTURE LIST*
%ADD10C,0.350000*%
%ADD11C,0.152400*%
G04 APERTURE END LIST*
D10*
D11*
X143014095Y-98987429D02*
X142868952Y-99035810D01*
X142820571Y-99084190D01*
X142772190Y-99180952D01*
X142772190Y-99326095D01*
X142820571Y-99422857D01*
X142868952Y-99471238D01*
X142965714Y-99519619D01*
X143352761Y-99519619D01*
X143352761Y-98503619D01*
X143014095Y-98503619D01*
X142917333Y-98552000D01*
X142868952Y-98600381D01*
X142820571Y-98697143D01*
X142820571Y-98793905D01*
X142868952Y-98890667D01*
X142917333Y-98939048D01*
X143014095Y-98987429D01*
X143352761Y-98987429D01*
X142336761Y-98503619D02*
X142336761Y-99326095D01*
X142288380Y-99422857D01*
X142239999Y-99471238D01*
X142143237Y-99519619D01*
X141949714Y-99519619D01*
X141852952Y-99471238D01*
X141804571Y-99422857D01*
X141756190Y-99326095D01*
X141756190Y-98503619D01*
X141417523Y-98503619D02*
X140836952Y-98503619D01*
X141127237Y-99519619D02*
X141127237Y-98503619D01*
X140643428Y-98503619D02*
X140062857Y-98503619D01*
X140353142Y-99519619D02*
X140353142Y-98503619D01*
X139530666Y-98503619D02*
X139337143Y-98503619D01*
X139240381Y-98552000D01*
X139143619Y-98648762D01*
X139095238Y-98842286D01*
X139095238Y-99180952D01*
X139143619Y-99374476D01*
X139240381Y-99471238D01*
X139337143Y-99519619D01*
X139530666Y-99519619D01*
X139627428Y-99471238D01*
X139724190Y-99374476D01*
X139772571Y-99180952D01*
X139772571Y-98842286D01*
X139724190Y-98648762D01*
X139627428Y-98552000D01*
X139530666Y-98503619D01*
X138659809Y-99519619D02*
X138659809Y-98503619D01*
X138079238Y-99519619D01*
X138079238Y-98503619D01*
M02*
