%TF.GenerationSoftware,KiCad,Pcbnew,4.0.5-e0-6337~49~ubuntu16.04.1*%
%TF.CreationDate,2017-07-06T19:13:04-07:00*%
%TF.ProjectId,SMTLimitLED-SMTButton-Battery,534D544C696D69744C45442D534D5442,1.0*%
%TF.FileFunction,Soldermask,Top*%
%FSLAX46Y46*%
G04 Gerber Fmt 4.6, Leading zero omitted, Abs format (unit mm)*
G04 Created by KiCad (PCBNEW 4.0.5-e0-6337~49~ubuntu16.04.1) date Thu Jul  6 19:13:04 2017*
%MOMM*%
%LPD*%
G01*
G04 APERTURE LIST*
%ADD10C,0.350000*%
%ADD11C,0.500000*%
%ADD12C,0.152400*%
%ADD13C,0.254000*%
%ADD14C,0.600000*%
G04 APERTURE END LIST*
D10*
D11*
X64124353Y-112434857D02*
X64005305Y-112553905D01*
X63648162Y-112672952D01*
X63410067Y-112672952D01*
X63052924Y-112553905D01*
X62814829Y-112315810D01*
X62695781Y-112077714D01*
X62576733Y-111601524D01*
X62576733Y-111244381D01*
X62695781Y-110768190D01*
X62814829Y-110530095D01*
X63052924Y-110292000D01*
X63410067Y-110172952D01*
X63648162Y-110172952D01*
X64005305Y-110292000D01*
X64124353Y-110411048D01*
X65195781Y-112672952D02*
X65195781Y-110172952D01*
X67814829Y-112672952D02*
X66981495Y-111482476D01*
X66386257Y-112672952D02*
X66386257Y-110172952D01*
X67338638Y-110172952D01*
X67576733Y-110292000D01*
X67695781Y-110411048D01*
X67814829Y-110649143D01*
X67814829Y-111006286D01*
X67695781Y-111244381D01*
X67576733Y-111363429D01*
X67338638Y-111482476D01*
X66386257Y-111482476D01*
X70314829Y-112434857D02*
X70195781Y-112553905D01*
X69838638Y-112672952D01*
X69600543Y-112672952D01*
X69243400Y-112553905D01*
X69005305Y-112315810D01*
X68886257Y-112077714D01*
X68767209Y-111601524D01*
X68767209Y-111244381D01*
X68886257Y-110768190D01*
X69005305Y-110530095D01*
X69243400Y-110292000D01*
X69600543Y-110172952D01*
X69838638Y-110172952D01*
X70195781Y-110292000D01*
X70314829Y-110411048D01*
X71386257Y-110172952D02*
X71386257Y-112196762D01*
X71505305Y-112434857D01*
X71624352Y-112553905D01*
X71862448Y-112672952D01*
X72338638Y-112672952D01*
X72576733Y-112553905D01*
X72695781Y-112434857D01*
X72814829Y-112196762D01*
X72814829Y-110172952D01*
X74005305Y-112672952D02*
X74005305Y-110172952D01*
X74838638Y-110172952D02*
X76267210Y-110172952D01*
X75552924Y-112672952D02*
X75552924Y-110172952D01*
X76981495Y-112553905D02*
X77338638Y-112672952D01*
X77933876Y-112672952D01*
X78171972Y-112553905D01*
X78291019Y-112434857D01*
X78410067Y-112196762D01*
X78410067Y-111958667D01*
X78291019Y-111720571D01*
X78171972Y-111601524D01*
X77933876Y-111482476D01*
X77457686Y-111363429D01*
X77219591Y-111244381D01*
X77100543Y-111125333D01*
X76981495Y-110887238D01*
X76981495Y-110649143D01*
X77100543Y-110411048D01*
X77219591Y-110292000D01*
X77457686Y-110172952D01*
X78052924Y-110172952D01*
X78410067Y-110292000D01*
X62823877Y-108384857D02*
X62704829Y-108503905D01*
X62347686Y-108622952D01*
X62109591Y-108622952D01*
X61752448Y-108503905D01*
X61514353Y-108265810D01*
X61395305Y-108027714D01*
X61276257Y-107551524D01*
X61276257Y-107194381D01*
X61395305Y-106718190D01*
X61514353Y-106480095D01*
X61752448Y-106242000D01*
X62109591Y-106122952D01*
X62347686Y-106122952D01*
X62704829Y-106242000D01*
X62823877Y-106361048D01*
X65323877Y-108622952D02*
X64490543Y-107432476D01*
X63895305Y-108622952D02*
X63895305Y-106122952D01*
X64847686Y-106122952D01*
X65085781Y-106242000D01*
X65204829Y-106361048D01*
X65323877Y-106599143D01*
X65323877Y-106956286D01*
X65204829Y-107194381D01*
X65085781Y-107313429D01*
X64847686Y-107432476D01*
X63895305Y-107432476D01*
X66276257Y-107908667D02*
X67466734Y-107908667D01*
X66038162Y-108622952D02*
X66871496Y-106122952D01*
X67704829Y-108622952D01*
X68300067Y-106122952D02*
X69966734Y-106122952D01*
X68300067Y-108622952D01*
X69966734Y-108622952D01*
X71395305Y-107432476D02*
X71395305Y-108622952D01*
X70561971Y-106122952D02*
X71395305Y-107432476D01*
X72228638Y-106122952D01*
X79833400Y-107882500D02*
X78333400Y-108882500D01*
D12*
X77994400Y-108928500D02*
X79327900Y-107976000D01*
X78946900Y-108103000D02*
X77994400Y-108928500D01*
X77867400Y-108865000D02*
X78946900Y-108103000D01*
X78756400Y-108166500D02*
X77867400Y-108865000D01*
X77613400Y-108928500D02*
X78756400Y-108166500D01*
X78438900Y-108293500D02*
X77613400Y-108928500D01*
X77486400Y-108865000D02*
X78438900Y-108293500D01*
X78248400Y-108293500D02*
X77486400Y-108865000D01*
X77486400Y-108738000D02*
X78248400Y-108293500D01*
X77994400Y-108293500D02*
X77486400Y-108738000D01*
X77422900Y-108611000D02*
X77994400Y-108293500D01*
X77994400Y-108103000D02*
X77422900Y-108611000D01*
X77994400Y-107976000D02*
X77359400Y-108484000D01*
X78121400Y-107785500D02*
X77295900Y-108357000D01*
X78121400Y-107658500D02*
X77295900Y-108230000D01*
D11*
X76033400Y-108882500D02*
X74833400Y-107382500D01*
X78433400Y-108882500D02*
X76064900Y-108882500D01*
D12*
X79772400Y-107849000D02*
X78184900Y-108992000D01*
D11*
X77994400Y-108293500D02*
X79772400Y-107849000D01*
X78833400Y-106782500D02*
X77994400Y-108293500D01*
X77232400Y-108103000D02*
X78833400Y-106782500D01*
X76433400Y-105682500D02*
X77232400Y-108166500D01*
X76470400Y-108039500D02*
X76433400Y-105782500D01*
X74833400Y-107282500D02*
X76470400Y-108039500D01*
D12*
X76216400Y-108992000D02*
X75390900Y-107785500D01*
D11*
X76470400Y-108865000D02*
X75835400Y-107976000D01*
D13*
X76660900Y-108865000D02*
X76089400Y-108039500D01*
X76787900Y-108865000D02*
X76343400Y-108103000D01*
X77041900Y-108865000D02*
X76597400Y-108039500D01*
X77232400Y-108865000D02*
X76660900Y-107785500D01*
X77422900Y-108865000D02*
X76533900Y-107150500D01*
X76597400Y-107849000D02*
X76533900Y-107023500D01*
D14*
X84200000Y-113300000D02*
G75*
G03X89800000Y-113300000I2800000J0D01*
G01*
X92200000Y-113300000D02*
G75*
G03X95000000Y-110500000I2800000J0D01*
G01*
X95000000Y-108100000D02*
G75*
G03X92200000Y-105300000I0J2800000D01*
G01*
X89800000Y-105300000D02*
G75*
G03X84200000Y-105300000I-2800000J0D01*
G01*
X61524224Y-92615642D02*
G75*
G03X63289900Y-96301500I-710824J-2606358D01*
G01*
X63450762Y-78679816D02*
G75*
G03X61448400Y-81823500I-2640220J-527860D01*
G01*
X74241538Y-95762184D02*
G75*
G03X76243900Y-92618500I2640220J527860D01*
G01*
X76104576Y-81826358D02*
G75*
G03X74338900Y-78140500I710824J2606358D01*
G01*
X92235081Y-95180474D02*
G75*
G03X95028800Y-92458800I2768319J-46926D01*
G01*
X86950792Y-92505766D02*
G75*
G03X89745206Y-95248488I51214J-2742722D01*
G01*
X87048494Y-84458194D02*
G75*
G03X87002006Y-89944200I-46488J-2742806D01*
G01*
X89744849Y-79155772D02*
G75*
G03X87002006Y-81943200I-2742843J-44228D01*
G01*
X95054614Y-81942722D02*
G75*
G03X92260200Y-79200000I-51214J2742722D01*
G01*
X95003400Y-89944200D02*
G75*
G03X95049888Y-84458194I46488J2742806D01*
G01*
D10*
G36*
X91876200Y-112086200D02*
X90123800Y-112086200D01*
X90123800Y-110433800D01*
X91876200Y-110433800D01*
X91876200Y-112086200D01*
X91876200Y-112086200D01*
G37*
G36*
X89436200Y-110176200D02*
X87783800Y-110176200D01*
X87783800Y-108423800D01*
X89436200Y-108423800D01*
X89436200Y-110176200D01*
X89436200Y-110176200D01*
G37*
G36*
X86016200Y-110176200D02*
X84363800Y-110176200D01*
X84363800Y-108423800D01*
X86016200Y-108423800D01*
X86016200Y-110176200D01*
X86016200Y-110176200D01*
G37*
G36*
X91876200Y-108666200D02*
X90123800Y-108666200D01*
X90123800Y-107013800D01*
X91876200Y-107013800D01*
X91876200Y-108666200D01*
X91876200Y-108666200D01*
G37*
G36*
X73385600Y-94452200D02*
X64233200Y-94452200D01*
X64233200Y-80499800D01*
X73385600Y-80499800D01*
X73385600Y-94452200D01*
X73385600Y-94452200D01*
G37*
G36*
X89029600Y-92053200D02*
X87577200Y-92053200D01*
X87577200Y-90350800D01*
X89029600Y-90350800D01*
X89029600Y-92053200D01*
X89029600Y-92053200D01*
G37*
G36*
X93529600Y-92053200D02*
X92077200Y-92053200D01*
X92077200Y-90350800D01*
X93529600Y-90350800D01*
X93529600Y-92053200D01*
X93529600Y-92053200D01*
G37*
G36*
X80389600Y-90078200D02*
X77637200Y-90078200D01*
X77637200Y-84365800D01*
X80389600Y-84365800D01*
X80389600Y-90078200D01*
X80389600Y-90078200D01*
G37*
G36*
X59989600Y-90078200D02*
X57237200Y-90078200D01*
X57237200Y-84365800D01*
X59989600Y-84365800D01*
X59989600Y-90078200D01*
X59989600Y-90078200D01*
G37*
G36*
X89029600Y-84103200D02*
X87577200Y-84103200D01*
X87577200Y-82400800D01*
X89029600Y-82400800D01*
X89029600Y-84103200D01*
X89029600Y-84103200D01*
G37*
G36*
X93529600Y-84103200D02*
X92077200Y-84103200D01*
X92077200Y-82400800D01*
X93529600Y-82400800D01*
X93529600Y-84103200D01*
X93529600Y-84103200D01*
G37*
M02*
