%TF.GenerationSoftware,KiCad,Pcbnew,4.0.5-e0-6337~49~ubuntu16.04.1*%
%TF.CreationDate,2017-07-06T19:13:04-07:00*%
%TF.ProjectId,SMTLimitLED-SMTButton-Battery,534D544C696D69744C45442D534D5442,1.0*%
%TF.FileFunction,Copper,L2,Bot,Signal*%
%FSLAX46Y46*%
G04 Gerber Fmt 4.6, Leading zero omitted, Abs format (unit mm)*
G04 Created by KiCad (PCBNEW 4.0.5-e0-6337~49~ubuntu16.04.1) date Thu Jul  6 19:13:04 2017*
%MOMM*%
%LPD*%
G01*
G04 APERTURE LIST*
%ADD10C,0.350000*%
%ADD11C,7.200000*%
%ADD12C,0.500000*%
%ADD13C,6.000000*%
%ADD14C,0.350000*%
G04 APERTURE END LIST*
D10*
D11*
X87000000Y-113300000D02*
X94900000Y-113300000D01*
X87000000Y-105300000D02*
X94900000Y-105300000D01*
X68813400Y-79222000D02*
X68813400Y-95222000D01*
X60813400Y-79222000D02*
X68813400Y-79222000D01*
X60813400Y-95222000D02*
X68813400Y-95222000D01*
X76813400Y-95222000D02*
X76813400Y-79222000D01*
X95003400Y-79102000D02*
X95003400Y-95202000D01*
X86903400Y-79202000D02*
X86903400Y-95302000D01*
D12*
X61615400Y-99276000D03*
X62631400Y-99276000D03*
X62631400Y-101308000D03*
X61615400Y-101308000D03*
X75215400Y-99276000D03*
X76231400Y-99276000D03*
X76231400Y-101308000D03*
X75215400Y-101308000D03*
X82939400Y-109204000D03*
X82939400Y-110220000D03*
X80907400Y-110220000D03*
X80907400Y-109204000D03*
X80897400Y-81230000D03*
X80897400Y-80214000D03*
X82929400Y-80214000D03*
X82929400Y-81230000D03*
X91519400Y-101212000D03*
X90503400Y-101212000D03*
X90503400Y-99180000D03*
X91519400Y-99180000D03*
D13*
X87000000Y-113300000D03*
X87000000Y-105300000D03*
X95000000Y-105300000D03*
X95000000Y-113300000D03*
X60813400Y-79222000D03*
X76813400Y-79222000D03*
X60813400Y-95222000D03*
X76813400Y-95222000D03*
X87003400Y-95202000D03*
X87003400Y-87202000D03*
X95003400Y-87202000D03*
X95003400Y-95202000D03*
X87003400Y-79202000D03*
X95003400Y-79202000D03*
D14*
X61615400Y-99276000D03*
X62631400Y-99276000D03*
X62631400Y-101308000D03*
X61615400Y-101308000D03*
X75215400Y-99276000D03*
X76231400Y-99276000D03*
X76231400Y-101308000D03*
X75215400Y-101308000D03*
X82939400Y-109204000D03*
X82939400Y-110220000D03*
X80907400Y-110220000D03*
X80907400Y-109204000D03*
X80897400Y-81230000D03*
X80897400Y-80214000D03*
X82929400Y-80214000D03*
X82929400Y-81230000D03*
X91519400Y-101212000D03*
X90503400Y-101212000D03*
X90503400Y-99180000D03*
X91519400Y-99180000D03*
X87000000Y-113300000D03*
X87000000Y-105300000D03*
X95000000Y-105300000D03*
X95000000Y-113300000D03*
X68813400Y-87222000D03*
X60813400Y-87222000D03*
X76813400Y-87222000D03*
X60813400Y-79222000D03*
X68813400Y-79222000D03*
X76813400Y-79222000D03*
X60813400Y-95222000D03*
X68813400Y-95222000D03*
X76813400Y-95222000D03*
X87003400Y-95202000D03*
X87003400Y-87202000D03*
X95003400Y-87202000D03*
X95003400Y-95202000D03*
X87003400Y-79202000D03*
X95003400Y-79202000D03*
M02*
