G04 This is an RS-274x file exported by *
G04 gerbv version 2.6.0 *
G04 More information is available about gerbv at *
G04 http://gerbv.gpleda.org/ *
G04 --End of header info--*
%MOIN*%
%FSLAX34Y34*%
%IPPOS*%
G04 --Define apertures--*
%ADD10C,0.0138*%
%ADD11C,0.0016*%
%ADD12C,0.0020*%
%ADD13C,0.0059*%
G04 --Start main section--*
G54D11*
G01X0024158Y-039985D02*
G01X0024158Y-038985D01*
G01X0024758Y-039985D02*
G01X0024758Y-038985D01*
G01X0029512Y-039985D02*
G01X0029512Y-038985D01*
G01X0030112Y-039985D02*
G01X0030112Y-038985D01*
G01X0031753Y-042894D02*
G01X0032753Y-042894D01*
G01X0031753Y-043494D02*
G01X0032753Y-043494D01*
G01X0032749Y-032080D02*
G01X0031749Y-032080D01*
G01X0032749Y-031480D02*
G01X0031749Y-031480D01*
G01X0036131Y-038947D02*
G01X0036131Y-039947D01*
G01X0035531Y-038947D02*
G01X0035531Y-039947D01*
G01X0030249Y-039954D02*
G01X0023990Y-039954D01*
G01X0030249Y-046095D02*
G01X0023990Y-046095D01*
G01X0031745Y-044560D02*
G01X0031745Y-041489D01*
G01X0022454Y-044560D02*
G01X0022454Y-041489D01*
G01X0031745Y-041489D02*
G75*
G03X0030210Y-039954I-001535J0000000D01*
G01X0030210Y-046095D02*
G75*
G03X0031745Y-044560I0000000J0001535D01*
G01X0022454Y-044560D02*
G75*
G03X0023990Y-046095I0001535J0000000D01*
G01X0023990Y-039954D02*
G75*
G03X0022454Y-041489I0000000J-001535D01*
G01X0035433Y-041949D02*
G01X0035433Y-042343D01*
G01X0036220Y-041949D02*
G01X0035433Y-041949D01*
G01X0036220Y-044311D02*
G01X0036220Y-041949D01*
G01X0035433Y-044311D02*
G01X0036220Y-044311D01*
G01X0035433Y-042343D02*
G01X0035433Y-044311D01*
G01X0035433Y-043425D02*
G01X0033071Y-043425D01*
G01X0035433Y-042638D02*
G01X0035433Y-043425D01*
G01X0033071Y-042638D02*
G01X0035433Y-042638D01*
G01X0033071Y-043425D02*
G01X0033071Y-042638D01*
G01X0037362Y-039961D02*
G01X0034291Y-039961D01*
G01X0037362Y-046102D02*
G01X0034291Y-046102D01*
G01X0038898Y-044567D02*
G01X0038898Y-041496D01*
G01X0032756Y-044567D02*
G01X0032756Y-041496D01*
G01X0038898Y-041496D02*
G75*
G03X0037362Y-039961I-001535J0000000D01*
G01X0037362Y-046102D02*
G75*
G03X0038898Y-044567I0000000J0001535D01*
G01X0032756Y-044567D02*
G75*
G03X0034291Y-046102I0001535J0000000D01*
G01X0034291Y-039961D02*
G75*
G03X0032756Y-041496I0000000J-001535D01*
G54D12*
G01X0023942Y-038985D02*
G01X0030241Y-038985D01*
G01X0022446Y-031190D02*
G01X0022446Y-037489D01*
G01X0031738Y-031190D02*
G01X0031738Y-037489D01*
G01X0023942Y-029694D02*
G01X0030241Y-029694D01*
G01X0023942Y-029694D02*
G75*
G03X0022446Y-031190I0000000J-001496D01*
G01X0022446Y-037489D02*
G75*
G03X0023942Y-038985I0001496J0000000D01*
G01X0030241Y-038985D02*
G75*
G03X0031738Y-037489I0000000J0001496D01*
G01X0031738Y-031190D02*
G75*
G03X0030241Y-029694I-001496J0000000D01*
G54D11*
G01X0036812Y-033150D02*
G01X0036812Y-035513D01*
G01X0034450Y-033150D02*
G01X0036812Y-033150D01*
G01X0034450Y-035513D02*
G01X0034450Y-033150D01*
G01X0036812Y-035513D02*
G01X0034450Y-035513D01*
G01X0032757Y-037481D02*
G75*
G03X0034293Y-038935I0001496J0000042D01*
G01X0037403Y-038934D02*
G75*
G03X0038899Y-037481I0000000J0001497D01*
G01X0038899Y-031182D02*
G75*
G03X0037364Y-029686I-001497J0000000D01*
G01X0034253Y-029685D02*
G75*
G03X0032757Y-031221I0000000J-001497D01*
G01X0034253Y-029686D02*
G01X0037403Y-029686D01*
G01X0032757Y-031221D02*
G01X0032757Y-037481D01*
G01X0038899Y-031182D02*
G01X0038899Y-037481D01*
G01X0034253Y-038938D02*
G01X0037403Y-038938D01*
G54D13*
G01X0026632Y-043124D02*
G01X0026445Y-043124D01*
G01X0026445Y-043124D02*
G01X0026445Y-042730D01*
G01X0026838Y-042730D02*
G01X0026913Y-042730D01*
G01X0026913Y-042730D02*
G01X0026951Y-042749D01*
G01X0026951Y-042749D02*
G01X0026988Y-042786D01*
G01X0026988Y-042786D02*
G01X0027007Y-042861D01*
G01X0027007Y-042861D02*
G01X0027007Y-042993D01*
G01X0027007Y-042993D02*
G01X0026988Y-043068D01*
G01X0026988Y-043068D02*
G01X0026951Y-043105D01*
G01X0026951Y-043105D02*
G01X0026913Y-043124D01*
G01X0026913Y-043124D02*
G01X0026838Y-043124D01*
G01X0026838Y-043124D02*
G01X0026801Y-043105D01*
G01X0026801Y-043105D02*
G01X0026763Y-043068D01*
G01X0026763Y-043068D02*
G01X0026744Y-042993D01*
G01X0026744Y-042993D02*
G01X0026744Y-042861D01*
G01X0026744Y-042861D02*
G01X0026763Y-042786D01*
G01X0026763Y-042786D02*
G01X0026801Y-042749D01*
G01X0026801Y-042749D02*
G01X0026838Y-042730D01*
G01X0027382Y-042749D02*
G01X0027344Y-042730D01*
G01X0027344Y-042730D02*
G01X0027288Y-042730D01*
G01X0027288Y-042730D02*
G01X0027232Y-042749D01*
G01X0027232Y-042749D02*
G01X0027194Y-042786D01*
G01X0027194Y-042786D02*
G01X0027176Y-042824D01*
G01X0027176Y-042824D02*
G01X0027157Y-042899D01*
G01X0027157Y-042899D02*
G01X0027157Y-042955D01*
G01X0027157Y-042955D02*
G01X0027176Y-043030D01*
G01X0027176Y-043030D02*
G01X0027194Y-043068D01*
G01X0027194Y-043068D02*
G01X0027232Y-043105D01*
G01X0027232Y-043105D02*
G01X0027288Y-043124D01*
G01X0027288Y-043124D02*
G01X0027326Y-043124D01*
G01X0027326Y-043124D02*
G01X0027382Y-043105D01*
G01X0027382Y-043105D02*
G01X0027401Y-043086D01*
G01X0027401Y-043086D02*
G01X0027401Y-042955D01*
G01X0027401Y-042955D02*
G01X0027326Y-042955D01*
G01X0027644Y-042730D02*
G01X0027719Y-042730D01*
G01X0027719Y-042730D02*
G01X0027757Y-042749D01*
G01X0027757Y-042749D02*
G01X0027794Y-042786D01*
G01X0027794Y-042786D02*
G01X0027813Y-042861D01*
G01X0027813Y-042861D02*
G01X0027813Y-042993D01*
G01X0027813Y-042993D02*
G01X0027794Y-043068D01*
G01X0027794Y-043068D02*
G01X0027757Y-043105D01*
G01X0027757Y-043105D02*
G01X0027719Y-043124D01*
G01X0027719Y-043124D02*
G01X0027644Y-043124D01*
G01X0027644Y-043124D02*
G01X0027607Y-043105D01*
G01X0027607Y-043105D02*
G01X0027569Y-043068D01*
G01X0027569Y-043068D02*
G01X0027551Y-042993D01*
G01X0027551Y-042993D02*
G01X0027551Y-042861D01*
G01X0027551Y-042861D02*
G01X0027569Y-042786D01*
G01X0027569Y-042786D02*
G01X0027607Y-042749D01*
G01X0027607Y-042749D02*
G01X0027644Y-042730D01*
G01X0035677Y-043945D02*
G01X0035977Y-043945D01*
G01X0035677Y-042371D02*
G01X0035977Y-042371D01*
G01X0035827Y-042521D02*
G01X0035827Y-042221D01*
G01X0036005Y-043383D02*
G01X0036005Y-043570D01*
G01X0036005Y-043570D02*
G01X0035611Y-043570D01*
G01X0035799Y-043252D02*
G01X0035799Y-043121D01*
G01X0036005Y-043064D02*
G01X0036005Y-043252D01*
G01X0036005Y-043252D02*
G01X0035611Y-043252D01*
G01X0035611Y-043252D02*
G01X0035611Y-043064D01*
G01X0036005Y-042896D02*
G01X0035611Y-042896D01*
G01X0035611Y-042896D02*
G01X0035611Y-042802D01*
G01X0035611Y-042802D02*
G01X0035630Y-042746D01*
G01X0035630Y-042746D02*
G01X0035667Y-042708D01*
G01X0035667Y-042708D02*
G01X0035705Y-042689D01*
G01X0035705Y-042689D02*
G01X0035780Y-042671D01*
G01X0035780Y-042671D02*
G01X0035836Y-042671D01*
G01X0035836Y-042671D02*
G01X0035911Y-042689D01*
G01X0035911Y-042689D02*
G01X0035949Y-042708D01*
G01X0035949Y-042708D02*
G01X0035986Y-042746D01*
G01X0035986Y-042746D02*
G01X0036005Y-042802D01*
G01X0036005Y-042802D02*
G01X0036005Y-042896D01*
G01X0034008Y-043210D02*
G01X0033877Y-043022D01*
G01X0033783Y-043210D02*
G01X0033783Y-042816D01*
G01X0033783Y-042816D02*
G01X0033933Y-042816D01*
G01X0033933Y-042816D02*
G01X0033971Y-042835D01*
G01X0033971Y-042835D02*
G01X0033990Y-042853D01*
G01X0033990Y-042853D02*
G01X0034008Y-042891D01*
G01X0034008Y-042891D02*
G01X0034008Y-042947D01*
G01X0034008Y-042947D02*
G01X0033990Y-042985D01*
G01X0033990Y-042985D02*
G01X0033971Y-043003D01*
G01X0033971Y-043003D02*
G01X0033933Y-043022D01*
G01X0033933Y-043022D02*
G01X0033783Y-043022D01*
G01X0034177Y-043003D02*
G01X0034308Y-043003D01*
G01X0034364Y-043210D02*
G01X0034177Y-043210D01*
G01X0034177Y-043210D02*
G01X0034177Y-042816D01*
G01X0034177Y-042816D02*
G01X0034364Y-042816D01*
G01X0034514Y-043191D02*
G01X0034571Y-043210D01*
G01X0034571Y-043210D02*
G01X0034664Y-043210D01*
G01X0034664Y-043210D02*
G01X0034702Y-043191D01*
G01X0034702Y-043191D02*
G01X0034721Y-043172D01*
G01X0034721Y-043172D02*
G01X0034739Y-043135D01*
G01X0034739Y-043135D02*
G01X0034739Y-043097D01*
G01X0034739Y-043097D02*
G01X0034721Y-043060D01*
G01X0034721Y-043060D02*
G01X0034702Y-043041D01*
G01X0034702Y-043041D02*
G01X0034664Y-043022D01*
G01X0034664Y-043022D02*
G01X0034589Y-043003D01*
G01X0034589Y-043003D02*
G01X0034552Y-042985D01*
G01X0034552Y-042985D02*
G01X0034533Y-042966D01*
G01X0034533Y-042966D02*
G01X0034514Y-042928D01*
G01X0034514Y-042928D02*
G01X0034514Y-042891D01*
G01X0034514Y-042891D02*
G01X0034533Y-042853D01*
G01X0034533Y-042853D02*
G01X0034552Y-042835D01*
G01X0034552Y-042835D02*
G01X0034589Y-042816D01*
G01X0034589Y-042816D02*
G01X0034683Y-042816D01*
G01X0034683Y-042816D02*
G01X0034739Y-042835D01*
G01X0026783Y-034311D02*
G01X0026839Y-034330D01*
G01X0026839Y-034330D02*
G01X0026858Y-034349D01*
G01X0026858Y-034349D02*
G01X0026876Y-034386D01*
G01X0026876Y-034386D02*
G01X0026876Y-034442D01*
G01X0026876Y-034442D02*
G01X0026858Y-034480D01*
G01X0026858Y-034480D02*
G01X0026839Y-034499D01*
G01X0026839Y-034499D02*
G01X0026801Y-034517D01*
G01X0026801Y-034517D02*
G01X0026651Y-034517D01*
G01X0026651Y-034517D02*
G01X0026651Y-034124D01*
G01X0026651Y-034124D02*
G01X0026783Y-034124D01*
G01X0026783Y-034124D02*
G01X0026820Y-034143D01*
G01X0026820Y-034143D02*
G01X0026839Y-034161D01*
G01X0026839Y-034161D02*
G01X0026858Y-034199D01*
G01X0026858Y-034199D02*
G01X0026858Y-034236D01*
G01X0026858Y-034236D02*
G01X0026839Y-034274D01*
G01X0026839Y-034274D02*
G01X0026820Y-034293D01*
G01X0026820Y-034293D02*
G01X0026783Y-034311D01*
G01X0026783Y-034311D02*
G01X0026651Y-034311D01*
G01X0026989Y-034124D02*
G01X0027214Y-034124D01*
G01X0027101Y-034517D02*
G01X0027101Y-034124D01*
G01X0027551Y-034517D02*
G01X0027326Y-034517D01*
G01X0027439Y-034517D02*
G01X0027439Y-034124D01*
G01X0027439Y-034124D02*
G01X0027401Y-034180D01*
G01X0027401Y-034180D02*
G01X0027364Y-034218D01*
G01X0027364Y-034218D02*
G01X0027326Y-034236D01*
G01X0035987Y-034856D02*
G01X0036006Y-034800D01*
G01X0036006Y-034800D02*
G01X0036006Y-034706D01*
G01X0036006Y-034706D02*
G01X0035987Y-034669D01*
G01X0035987Y-034669D02*
G01X0035969Y-034650D01*
G01X0035969Y-034650D02*
G01X0035931Y-034631D01*
G01X0035931Y-034631D02*
G01X0035894Y-034631D01*
G01X0035894Y-034631D02*
G01X0035856Y-034650D01*
G01X0035856Y-034650D02*
G01X0035837Y-034669D01*
G01X0035837Y-034669D02*
G01X0035819Y-034706D01*
G01X0035819Y-034706D02*
G01X0035800Y-034781D01*
G01X0035800Y-034781D02*
G01X0035781Y-034819D01*
G01X0035781Y-034819D02*
G01X0035762Y-034838D01*
G01X0035762Y-034838D02*
G01X0035725Y-034856D01*
G01X0035725Y-034856D02*
G01X0035688Y-034856D01*
G01X0035688Y-034856D02*
G01X0035650Y-034838D01*
G01X0035650Y-034838D02*
G01X0035631Y-034819D01*
G01X0035631Y-034819D02*
G01X0035613Y-034781D01*
G01X0035613Y-034781D02*
G01X0035613Y-034688D01*
G01X0035613Y-034688D02*
G01X0035631Y-034631D01*
G01X0035613Y-034500D02*
G01X0036006Y-034406D01*
G01X0036006Y-034406D02*
G01X0035725Y-034331D01*
G01X0035725Y-034331D02*
G01X0036006Y-034257D01*
G01X0036006Y-034257D02*
G01X0035613Y-034163D01*
G01X0036006Y-033807D02*
G01X0036006Y-034032D01*
G01X0036006Y-033919D02*
G01X0035613Y-033919D01*
G01X0035613Y-033919D02*
G01X0035669Y-033957D01*
G01X0035669Y-033957D02*
G01X0035706Y-033994D01*
G01X0035706Y-033994D02*
G01X0035725Y-034032D01*
G01X0000000Y0000000D02*
G54D11*
G01X0024158Y-039985D02*
G01X0024158Y-038985D01*
G01X0024758Y-039985D02*
G01X0024758Y-038985D01*
G01X0029512Y-039985D02*
G01X0029512Y-038985D01*
G01X0030112Y-039985D02*
G01X0030112Y-038985D01*
G01X0031753Y-042894D02*
G01X0032753Y-042894D01*
G01X0031753Y-043494D02*
G01X0032753Y-043494D01*
G01X0032749Y-032080D02*
G01X0031749Y-032080D01*
G01X0032749Y-031480D02*
G01X0031749Y-031480D01*
G01X0036131Y-038947D02*
G01X0036131Y-039947D01*
G01X0035531Y-038947D02*
G01X0035531Y-039947D01*
G01X0030210Y-039954D02*
G01X0023990Y-039954D01*
G01X0030210Y-046095D02*
G01X0023990Y-046095D01*
G01X0031745Y-044560D02*
G01X0031745Y-041489D01*
G01X0022454Y-044560D02*
G01X0022454Y-041489D01*
G01X0031745Y-041489D02*
G75*
G03X0030210Y-039954I-001535J0000000D01*
G01X0030210Y-046095D02*
G75*
G03X0031745Y-044560I0000000J0001535D01*
G01X0022454Y-044560D02*
G75*
G03X0023990Y-046095I0001535J0000000D01*
G01X0023990Y-039954D02*
G75*
G03X0022454Y-041489I0000000J-001535D01*
G01X0037362Y-039961D02*
G01X0034291Y-039961D01*
G01X0037362Y-046102D02*
G01X0034291Y-046102D01*
G01X0038898Y-044567D02*
G01X0038898Y-041496D01*
G01X0032756Y-044567D02*
G01X0032756Y-041496D01*
G01X0038898Y-041496D02*
G75*
G03X0037362Y-039961I-001535J0000000D01*
G01X0037362Y-046102D02*
G75*
G03X0038898Y-044567I0000000J0001535D01*
G01X0032756Y-044567D02*
G75*
G03X0034291Y-046102I0001535J0000000D01*
G01X0034291Y-039961D02*
G75*
G03X0032756Y-041496I0000000J-001535D01*
G54D12*
G01X0023942Y-038985D02*
G01X0030241Y-038985D01*
G01X0022446Y-031190D02*
G01X0022446Y-037489D01*
G01X0031738Y-031190D02*
G01X0031738Y-037489D01*
G01X0023942Y-029694D02*
G01X0030241Y-029694D01*
G01X0023942Y-029694D02*
G75*
G03X0022446Y-031190I0000000J-001496D01*
G01X0022446Y-037489D02*
G75*
G03X0023942Y-038985I0001496J0000000D01*
G01X0030241Y-038985D02*
G75*
G03X0031738Y-037489I0000000J0001496D01*
G01X0031738Y-031190D02*
G75*
G03X0030241Y-029694I-001496J0000000D01*
G54D11*
G01X0032757Y-037481D02*
G75*
G03X0034293Y-038935I0001496J0000042D01*
G01X0037403Y-038934D02*
G75*
G03X0038899Y-037481I0000000J0001497D01*
G01X0038899Y-031182D02*
G75*
G03X0037364Y-029686I-001497J0000000D01*
G01X0034253Y-029685D02*
G75*
G03X0032757Y-031221I0000000J-001497D01*
G01X0034253Y-029686D02*
G01X0037403Y-029686D01*
G01X0032757Y-031221D02*
G01X0032757Y-037481D01*
G01X0038899Y-031143D02*
G01X0038899Y-037481D01*
G01X0034253Y-038938D02*
G01X0037403Y-038938D01*
M02*
