%TF.GenerationSoftware,KiCad,Pcbnew,4.0.4+e1-6308~48~ubuntu16.04.1-stable*%
%TF.CreationDate,2016-12-19T13:40:22-08:00*%
%TF.ProjectId,4x3-CR2032-Coin-Cell-Magnet,3478332D4352323033322D436F696E2D,1.0*%
%TF.FileFunction,Soldermask,Top*%
%FSLAX46Y46*%
G04 Gerber Fmt 4.6, Leading zero omitted, Abs format (unit mm)*
G04 Created by KiCad (PCBNEW 4.0.4+e1-6308~48~ubuntu16.04.1-stable) date Mon Dec 19 13:40:22 2016*
%MOMM*%
%LPD*%
G01*
G04 APERTURE LIST*
%ADD10C,0.350000*%
G04 APERTURE END LIST*
D10*
G36*
X139643110Y-106145847D02*
X140234055Y-106267151D01*
X140790198Y-106500932D01*
X141290334Y-106838278D01*
X141715421Y-107266343D01*
X142049266Y-107768821D01*
X142279156Y-108326576D01*
X142396264Y-108918014D01*
X142396264Y-108918024D01*
X142396331Y-108918363D01*
X142386710Y-109607416D01*
X142386633Y-109607754D01*
X142386633Y-109607762D01*
X142253057Y-110195701D01*
X142007685Y-110746816D01*
X141659937Y-111239778D01*
X141223062Y-111655809D01*
X140713700Y-111979061D01*
X140151254Y-112197219D01*
X139557147Y-112301976D01*
X138954003Y-112289342D01*
X138364800Y-112159797D01*
X137811982Y-111918277D01*
X137316607Y-111573982D01*
X136897537Y-111140023D01*
X136570738Y-110632930D01*
X136348656Y-110072014D01*
X136239755Y-109478658D01*
X136248177Y-108875441D01*
X136373606Y-108285347D01*
X136611259Y-107730858D01*
X136952091Y-107233088D01*
X137383112Y-106811000D01*
X137887913Y-106480668D01*
X138447259Y-106254677D01*
X139039845Y-106141636D01*
X139643110Y-106145847D01*
X139643110Y-106145847D01*
G37*
G36*
X131643110Y-106145847D02*
X132234055Y-106267151D01*
X132790198Y-106500932D01*
X133290334Y-106838278D01*
X133715421Y-107266343D01*
X134049266Y-107768821D01*
X134279156Y-108326576D01*
X134396264Y-108918014D01*
X134396264Y-108918024D01*
X134396331Y-108918363D01*
X134386710Y-109607416D01*
X134386633Y-109607754D01*
X134386633Y-109607762D01*
X134253057Y-110195701D01*
X134007685Y-110746816D01*
X133659937Y-111239778D01*
X133223062Y-111655809D01*
X132713700Y-111979061D01*
X132151254Y-112197219D01*
X131557147Y-112301976D01*
X130954003Y-112289342D01*
X130364800Y-112159797D01*
X129811982Y-111918277D01*
X129316607Y-111573982D01*
X128897537Y-111140023D01*
X128570738Y-110632930D01*
X128348656Y-110072014D01*
X128239755Y-109478658D01*
X128248177Y-108875441D01*
X128373606Y-108285347D01*
X128611259Y-107730858D01*
X128952091Y-107233088D01*
X129383112Y-106811000D01*
X129887913Y-106480668D01*
X130447259Y-106254677D01*
X131039845Y-106141636D01*
X131643110Y-106145847D01*
X131643110Y-106145847D01*
G37*
G36*
X139643110Y-82145847D02*
X140234055Y-82267151D01*
X140790198Y-82500932D01*
X141290334Y-82838278D01*
X141715421Y-83266343D01*
X142049266Y-83768821D01*
X142279156Y-84326576D01*
X142396264Y-84918014D01*
X142396264Y-84918024D01*
X142396331Y-84918363D01*
X142386710Y-85607416D01*
X142386633Y-85607754D01*
X142386633Y-85607762D01*
X142253057Y-86195701D01*
X142150371Y-86426338D01*
X142146452Y-86440085D01*
X142146518Y-86454379D01*
X142150564Y-86468090D01*
X142158269Y-86480130D01*
X142169023Y-86489547D01*
X142181975Y-86495595D01*
X142196779Y-86497800D01*
X143892200Y-86497800D01*
X143892200Y-100450200D01*
X142365480Y-100450200D01*
X142351327Y-100452211D01*
X142338296Y-100458086D01*
X142327416Y-100467358D01*
X142319551Y-100479294D01*
X142315322Y-100492949D01*
X142315647Y-100510867D01*
X142396264Y-100918014D01*
X142396264Y-100918024D01*
X142396331Y-100918363D01*
X142386710Y-101607416D01*
X142386633Y-101607754D01*
X142386633Y-101607762D01*
X142253057Y-102195701D01*
X142007685Y-102746816D01*
X141659937Y-103239778D01*
X141223062Y-103655809D01*
X140713700Y-103979061D01*
X140151254Y-104197219D01*
X139557147Y-104301976D01*
X138954003Y-104289342D01*
X138364800Y-104159797D01*
X137811982Y-103918277D01*
X137316607Y-103573982D01*
X136897537Y-103140023D01*
X136570738Y-102632930D01*
X136348656Y-102072014D01*
X136239755Y-101478658D01*
X136248177Y-100875441D01*
X136325522Y-100511562D01*
X136326497Y-100497300D01*
X136323461Y-100483332D01*
X136316653Y-100470762D01*
X136306613Y-100460587D01*
X136294135Y-100453612D01*
X136275832Y-100450200D01*
X134739800Y-100450200D01*
X134739800Y-86497800D01*
X136442486Y-86497800D01*
X136456639Y-86495789D01*
X136469670Y-86489914D01*
X136480550Y-86480642D01*
X136488415Y-86468706D01*
X136492644Y-86455051D01*
X136492901Y-86440758D01*
X136489719Y-86428299D01*
X136348656Y-86072014D01*
X136239755Y-85478658D01*
X136248177Y-84875441D01*
X136373606Y-84285347D01*
X136611259Y-83730858D01*
X136952091Y-83233088D01*
X137383112Y-82811000D01*
X137887913Y-82480668D01*
X138447259Y-82254677D01*
X139039845Y-82141636D01*
X139643110Y-82145847D01*
X139643110Y-82145847D01*
G37*
G36*
X131643110Y-98145847D02*
X132234055Y-98267151D01*
X132790198Y-98500932D01*
X133290334Y-98838278D01*
X133715421Y-99266343D01*
X134049266Y-99768821D01*
X134279156Y-100326576D01*
X134396264Y-100918014D01*
X134396264Y-100918024D01*
X134396331Y-100918363D01*
X134386710Y-101607416D01*
X134386633Y-101607754D01*
X134386633Y-101607762D01*
X134253057Y-102195701D01*
X134007685Y-102746816D01*
X133659937Y-103239778D01*
X133223062Y-103655809D01*
X132713700Y-103979061D01*
X132151254Y-104197219D01*
X131557147Y-104301976D01*
X130954003Y-104289342D01*
X130364800Y-104159797D01*
X129811982Y-103918277D01*
X129316607Y-103573982D01*
X128897537Y-103140023D01*
X128570738Y-102632930D01*
X128348656Y-102072014D01*
X128239755Y-101478658D01*
X128248177Y-100875441D01*
X128373606Y-100285347D01*
X128611259Y-99730858D01*
X128952091Y-99233088D01*
X129383112Y-98811000D01*
X129887913Y-98480668D01*
X130447259Y-98254677D01*
X131039845Y-98141636D01*
X131643110Y-98145847D01*
X131643110Y-98145847D01*
G37*
G36*
X150896200Y-96076200D02*
X148143800Y-96076200D01*
X148143800Y-90363800D01*
X150896200Y-90363800D01*
X150896200Y-96076200D01*
X150896200Y-96076200D01*
G37*
G36*
X130496200Y-96076200D02*
X127743800Y-96076200D01*
X127743800Y-90363800D01*
X130496200Y-90363800D01*
X130496200Y-96076200D01*
X130496200Y-96076200D01*
G37*
G36*
X131643110Y-82145847D02*
X132234055Y-82267151D01*
X132790198Y-82500932D01*
X133290334Y-82838278D01*
X133715421Y-83266343D01*
X134049266Y-83768821D01*
X134279156Y-84326576D01*
X134396264Y-84918014D01*
X134396264Y-84918024D01*
X134396331Y-84918363D01*
X134386710Y-85607416D01*
X134386633Y-85607754D01*
X134386633Y-85607762D01*
X134253057Y-86195701D01*
X134007685Y-86746816D01*
X133659937Y-87239778D01*
X133223062Y-87655809D01*
X132713700Y-87979061D01*
X132151254Y-88197219D01*
X131557147Y-88301976D01*
X130954003Y-88289342D01*
X130364800Y-88159797D01*
X129811982Y-87918277D01*
X129316607Y-87573982D01*
X128897537Y-87140023D01*
X128570738Y-86632930D01*
X128348656Y-86072014D01*
X128239755Y-85478658D01*
X128248177Y-84875441D01*
X128373606Y-84285347D01*
X128611259Y-83730858D01*
X128952091Y-83233088D01*
X129383112Y-82811000D01*
X129887913Y-82480668D01*
X130447259Y-82254677D01*
X131039845Y-82141636D01*
X131643110Y-82145847D01*
X131643110Y-82145847D01*
G37*
M02*
