%TF.GenerationSoftware,KiCad,Pcbnew,4.0.7-e2-6376~58~ubuntu16.04.1*%
%TF.CreationDate,2017-10-07T15:56:48-07:00*%
%TF.ProjectId,2x2-Tilt-Switch-SW-520D-TH,3278322D54696C742D5377697463682D,v1.1*%
%TF.FileFunction,Soldermask,Bot*%
%FSLAX46Y46*%
G04 Gerber Fmt 4.6, Leading zero omitted, Abs format (unit mm)*
G04 Created by KiCad (PCBNEW 4.0.7-e2-6376~58~ubuntu16.04.1) date Sat Oct  7 15:56:48 2017*
%MOMM*%
%LPD*%
G01*
G04 APERTURE LIST*
%ADD10C,0.350000*%
G04 APERTURE END LIST*
D10*
G36*
X16848110Y-33425847D02*
X17439055Y-33547151D01*
X17995198Y-33780932D01*
X18495334Y-34118278D01*
X18920421Y-34546343D01*
X19254266Y-35048821D01*
X19484156Y-35606576D01*
X19601264Y-36198014D01*
X19601264Y-36198024D01*
X19601331Y-36198363D01*
X19591710Y-36887416D01*
X19591633Y-36887754D01*
X19591633Y-36887762D01*
X19458057Y-37475701D01*
X19212685Y-38026816D01*
X18864937Y-38519778D01*
X18428062Y-38935809D01*
X17918700Y-39259061D01*
X17356254Y-39477219D01*
X16762147Y-39581976D01*
X16159003Y-39569342D01*
X15569800Y-39439797D01*
X15016982Y-39198277D01*
X14521607Y-38853982D01*
X14102537Y-38420023D01*
X13775738Y-37912930D01*
X13553656Y-37352014D01*
X13444755Y-36758658D01*
X13453177Y-36155441D01*
X13578606Y-35565347D01*
X13816259Y-35010858D01*
X14157091Y-34513088D01*
X14588112Y-34091000D01*
X15092913Y-33760668D01*
X15652259Y-33534677D01*
X16244845Y-33421636D01*
X16848110Y-33425847D01*
X16848110Y-33425847D01*
G37*
G36*
X24848110Y-33425847D02*
X25439055Y-33547151D01*
X25995198Y-33780932D01*
X26495334Y-34118278D01*
X26920421Y-34546343D01*
X27254266Y-35048821D01*
X27484156Y-35606576D01*
X27601264Y-36198014D01*
X27601264Y-36198024D01*
X27601331Y-36198363D01*
X27591710Y-36887416D01*
X27591633Y-36887754D01*
X27591633Y-36887762D01*
X27458057Y-37475701D01*
X27212685Y-38026816D01*
X26864937Y-38519778D01*
X26428062Y-38935809D01*
X25918700Y-39259061D01*
X25356254Y-39477219D01*
X24762147Y-39581976D01*
X24159003Y-39569342D01*
X23569800Y-39439797D01*
X23016982Y-39198277D01*
X22521607Y-38853982D01*
X22102537Y-38420023D01*
X21775738Y-37912930D01*
X21553656Y-37352014D01*
X21444755Y-36758658D01*
X21453177Y-36155441D01*
X21578606Y-35565347D01*
X21816259Y-35010858D01*
X22157091Y-34513088D01*
X22588112Y-34091000D01*
X23092913Y-33760668D01*
X23652259Y-33534677D01*
X24244845Y-33421636D01*
X24848110Y-33425847D01*
X24848110Y-33425847D01*
G37*
G36*
X20601383Y-32735441D02*
X20786795Y-32773501D01*
X20961297Y-32846855D01*
X21118221Y-32952702D01*
X21251598Y-33087012D01*
X21356345Y-33244671D01*
X21428477Y-33419674D01*
X21465174Y-33605008D01*
X21465174Y-33605018D01*
X21465241Y-33605357D01*
X21462222Y-33821557D01*
X21462146Y-33821891D01*
X21462146Y-33821904D01*
X21420288Y-34006142D01*
X21343300Y-34179059D01*
X21234188Y-34333735D01*
X21097113Y-34464270D01*
X20937294Y-34565694D01*
X20760816Y-34634145D01*
X20574410Y-34667014D01*
X20385162Y-34663049D01*
X20200293Y-34622404D01*
X20026836Y-34546622D01*
X19871408Y-34438597D01*
X19739919Y-34302436D01*
X19637381Y-34143328D01*
X19567698Y-33967330D01*
X19533529Y-33781158D01*
X19536171Y-33591891D01*
X19575527Y-33406739D01*
X19650093Y-33232761D01*
X19757035Y-33076578D01*
X19892273Y-32944142D01*
X20050663Y-32840496D01*
X20226166Y-32769587D01*
X20412096Y-32734120D01*
X20601383Y-32735441D01*
X20601383Y-32735441D01*
G37*
G36*
X20601383Y-30335441D02*
X20786795Y-30373501D01*
X20961297Y-30446855D01*
X21118221Y-30552702D01*
X21251598Y-30687012D01*
X21356345Y-30844671D01*
X21428477Y-31019674D01*
X21465174Y-31205008D01*
X21465174Y-31205018D01*
X21465241Y-31205357D01*
X21462222Y-31421557D01*
X21462146Y-31421891D01*
X21462146Y-31421904D01*
X21420288Y-31606142D01*
X21343300Y-31779059D01*
X21234188Y-31933735D01*
X21097113Y-32064270D01*
X20937294Y-32165694D01*
X20760816Y-32234145D01*
X20574410Y-32267014D01*
X20385162Y-32263049D01*
X20200293Y-32222404D01*
X20026836Y-32146622D01*
X19871408Y-32038597D01*
X19739919Y-31902436D01*
X19637381Y-31743328D01*
X19567698Y-31567330D01*
X19533529Y-31381158D01*
X19536171Y-31191891D01*
X19575527Y-31006739D01*
X19650093Y-30832761D01*
X19757035Y-30676578D01*
X19892273Y-30544142D01*
X20050663Y-30440496D01*
X20226166Y-30369587D01*
X20412096Y-30334120D01*
X20601383Y-30335441D01*
X20601383Y-30335441D01*
G37*
G36*
X16848110Y-25425847D02*
X17439055Y-25547151D01*
X17995198Y-25780932D01*
X18495334Y-26118278D01*
X18920421Y-26546343D01*
X19254266Y-27048821D01*
X19484156Y-27606576D01*
X19601264Y-28198014D01*
X19601264Y-28198024D01*
X19601331Y-28198363D01*
X19591710Y-28887416D01*
X19591633Y-28887754D01*
X19591633Y-28887762D01*
X19458057Y-29475701D01*
X19212685Y-30026816D01*
X18864937Y-30519778D01*
X18428062Y-30935809D01*
X17918700Y-31259061D01*
X17356254Y-31477219D01*
X16762147Y-31581976D01*
X16159003Y-31569342D01*
X15569800Y-31439797D01*
X15016982Y-31198277D01*
X14521607Y-30853982D01*
X14102537Y-30420023D01*
X13775738Y-29912930D01*
X13553656Y-29352014D01*
X13444755Y-28758658D01*
X13453177Y-28155441D01*
X13578606Y-27565347D01*
X13816259Y-27010858D01*
X14157091Y-26513088D01*
X14588112Y-26091000D01*
X15092913Y-25760668D01*
X15652259Y-25534677D01*
X16244845Y-25421636D01*
X16848110Y-25425847D01*
X16848110Y-25425847D01*
G37*
G36*
X24848110Y-25425847D02*
X25439055Y-25547151D01*
X25995198Y-25780932D01*
X26495334Y-26118278D01*
X26920421Y-26546343D01*
X27254266Y-27048821D01*
X27484156Y-27606576D01*
X27601264Y-28198014D01*
X27601264Y-28198024D01*
X27601331Y-28198363D01*
X27591710Y-28887416D01*
X27591633Y-28887754D01*
X27591633Y-28887762D01*
X27458057Y-29475701D01*
X27212685Y-30026816D01*
X26864937Y-30519778D01*
X26428062Y-30935809D01*
X25918700Y-31259061D01*
X25356254Y-31477219D01*
X24762147Y-31581976D01*
X24159003Y-31569342D01*
X23569800Y-31439797D01*
X23016982Y-31198277D01*
X22521607Y-30853982D01*
X22102537Y-30420023D01*
X21775738Y-29912930D01*
X21553656Y-29352014D01*
X21444755Y-28758658D01*
X21453177Y-28155441D01*
X21578606Y-27565347D01*
X21816259Y-27010858D01*
X22157091Y-26513088D01*
X22588112Y-26091000D01*
X23092913Y-25760668D01*
X23652259Y-25534677D01*
X24244845Y-25421636D01*
X24848110Y-25425847D01*
X24848110Y-25425847D01*
G37*
M02*
