G04 This is an RS-274x file exported by *
G04 gerbv version 2.6.0 *
G04 More information is available about gerbv at *
G04 http://gerbv.gpleda.org/ *
G04 --End of header info--*
%MOIN*%
%FSLAX34Y34*%
%IPPOS*%
G04 --Define apertures--*
%ADD10C,0.0138*%
%ADD11C,0.0016*%
%ADD12C,0.0020*%
%ADD13C,0.0059*%
G04 --Start main section--*
G54D11*
G01X0009193Y-012795D02*
G75*
G03X0009193Y-012795I-001114J0000000D01*
G54D12*
G01X0005008Y-014374D02*
G75*
G03X0006506Y-015866I0001574J0000083D01*
G01X0011152Y-011220D02*
G01X0011152Y-014370D01*
G01X0006506Y-009724D02*
G01X0009656Y-009724D01*
G01X0006506Y-015866D02*
G01X0009656Y-015866D01*
G01X0005010Y-011220D02*
G01X0005010Y-014370D01*
G01X0009659Y-015868D02*
G75*
G03X0011152Y-014370I-000083J0001574D01*
G01X0006502Y-009723D02*
G75*
G03X0005010Y-011220I0000083J-001574D01*
G01X0011153Y-011217D02*
G75*
G03X0009656Y-009724I-001574J-000083D01*
G54D13*
G01X0007531Y-012955D02*
G01X0007587Y-012973D01*
G01X0007587Y-012973D02*
G01X0007681Y-012973D01*
G01X0007681Y-012973D02*
G01X0007718Y-012955D01*
G01X0007718Y-012955D02*
G01X0007737Y-012936D01*
G01X0007737Y-012936D02*
G01X0007756Y-012898D01*
G01X0007756Y-012898D02*
G01X0007756Y-012861D01*
G01X0007756Y-012861D02*
G01X0007737Y-012823D01*
G01X0007737Y-012823D02*
G01X0007718Y-012805D01*
G01X0007718Y-012805D02*
G01X0007681Y-012786D01*
G01X0007681Y-012786D02*
G01X0007606Y-012767D01*
G01X0007606Y-012767D02*
G01X0007568Y-012748D01*
G01X0007568Y-012748D02*
G01X0007550Y-012730D01*
G01X0007550Y-012730D02*
G01X0007531Y-012692D01*
G01X0007531Y-012692D02*
G01X0007531Y-012655D01*
G01X0007531Y-012655D02*
G01X0007550Y-012617D01*
G01X0007550Y-012617D02*
G01X0007568Y-012598D01*
G01X0007568Y-012598D02*
G01X0007606Y-012580D01*
G01X0007606Y-012580D02*
G01X0007700Y-012580D01*
G01X0007700Y-012580D02*
G01X0007756Y-012598D01*
G01X0007887Y-012580D02*
G01X0007981Y-012973D01*
G01X0007981Y-012973D02*
G01X0008056Y-012692D01*
G01X0008056Y-012692D02*
G01X0008131Y-012973D01*
G01X0008131Y-012973D02*
G01X0008225Y-012580D01*
G01X0008581Y-012973D02*
G01X0008356Y-012973D01*
G01X0008468Y-012973D02*
G01X0008468Y-012580D01*
G01X0008468Y-012580D02*
G01X0008431Y-012636D01*
G01X0008431Y-012636D02*
G01X0008393Y-012673D01*
G01X0008393Y-012673D02*
G01X0008356Y-012692D01*
G01X0000000Y0000000D02*
G54D12*
G01X0005008Y-014374D02*
G75*
G03X0006506Y-015866I0001574J0000083D01*
G01X0011152Y-011220D02*
G01X0011152Y-014370D01*
G01X0006506Y-009724D02*
G01X0009656Y-009724D01*
G01X0006506Y-015866D02*
G01X0009656Y-015866D01*
G01X0005010Y-011220D02*
G01X0005010Y-014370D01*
G01X0009659Y-015868D02*
G75*
G03X0011152Y-014370I-000083J0001574D01*
G01X0006502Y-009723D02*
G75*
G03X0005010Y-011220I0000083J-001574D01*
G01X0011153Y-011217D02*
G75*
G03X0009656Y-009724I-001574J-000083D01*
M02*
