%TF.GenerationSoftware,KiCad,Pcbnew,4.0.7-e2-6376~58~ubuntu16.04.1*%
%TF.CreationDate,2018-07-18T10:10:47-07:00*%
%TF.ProjectId,6x11-NodeMCU-V2-Breakout,367831312D4E6F64654D43552D56322D,1.0*%
%TF.FileFunction,Soldermask,Bot*%
%FSLAX46Y46*%
G04 Gerber Fmt 4.6, Leading zero omitted, Abs format (unit mm)*
G04 Created by KiCad (PCBNEW 4.0.7-e2-6376~58~ubuntu16.04.1) date Wed Jul 18 10:10:47 2018*
%MOMM*%
%LPD*%
G01*
G04 APERTURE LIST*
%ADD10C,0.350000*%
G04 APERTURE END LIST*
D10*
G36*
X42264510Y-102427447D02*
X42855455Y-102548751D01*
X43411598Y-102782532D01*
X43911734Y-103119878D01*
X44336821Y-103547943D01*
X44670666Y-104050421D01*
X44900556Y-104608176D01*
X45017664Y-105199614D01*
X45017664Y-105199624D01*
X45017731Y-105199963D01*
X45008110Y-105889016D01*
X45008033Y-105889354D01*
X45008033Y-105889362D01*
X44874457Y-106477301D01*
X44629085Y-107028416D01*
X44281337Y-107521378D01*
X43844462Y-107937409D01*
X43335100Y-108260661D01*
X42772654Y-108478819D01*
X42178547Y-108583576D01*
X41575403Y-108570942D01*
X40986200Y-108441397D01*
X40433382Y-108199877D01*
X39938007Y-107855582D01*
X39518937Y-107421623D01*
X39192138Y-106914530D01*
X38970056Y-106353614D01*
X38861155Y-105760258D01*
X38869577Y-105157041D01*
X38995006Y-104566947D01*
X39232659Y-104012458D01*
X39573491Y-103514688D01*
X40004512Y-103092600D01*
X40509313Y-102762268D01*
X41068659Y-102536277D01*
X41661245Y-102423236D01*
X42264510Y-102427447D01*
X42264510Y-102427447D01*
G37*
G36*
X50264510Y-102427447D02*
X50855455Y-102548751D01*
X51411598Y-102782532D01*
X51911734Y-103119878D01*
X52336821Y-103547943D01*
X52670666Y-104050421D01*
X52900556Y-104608176D01*
X53017664Y-105199614D01*
X53017664Y-105199624D01*
X53017731Y-105199963D01*
X53008110Y-105889016D01*
X53008033Y-105889354D01*
X53008033Y-105889362D01*
X52874457Y-106477301D01*
X52629085Y-107028416D01*
X52281337Y-107521378D01*
X51844462Y-107937409D01*
X51335100Y-108260661D01*
X50772654Y-108478819D01*
X50178547Y-108583576D01*
X49575403Y-108570942D01*
X48986200Y-108441397D01*
X48433382Y-108199877D01*
X47938007Y-107855582D01*
X47518937Y-107421623D01*
X47192138Y-106914530D01*
X46970056Y-106353614D01*
X46861155Y-105760258D01*
X46869577Y-105157041D01*
X46995006Y-104566947D01*
X47232659Y-104012458D01*
X47573491Y-103514688D01*
X48004512Y-103092600D01*
X48509313Y-102762268D01*
X49068659Y-102536277D01*
X49661245Y-102423236D01*
X50264510Y-102427447D01*
X50264510Y-102427447D01*
G37*
G36*
X66264510Y-102427447D02*
X66855455Y-102548751D01*
X67411598Y-102782532D01*
X67911734Y-103119878D01*
X68336821Y-103547943D01*
X68670666Y-104050421D01*
X68900556Y-104608176D01*
X69017664Y-105199614D01*
X69017664Y-105199624D01*
X69017731Y-105199963D01*
X69008110Y-105889016D01*
X69008033Y-105889354D01*
X69008033Y-105889362D01*
X68874457Y-106477301D01*
X68629085Y-107028416D01*
X68281337Y-107521378D01*
X67844462Y-107937409D01*
X67335100Y-108260661D01*
X66772654Y-108478819D01*
X66178547Y-108583576D01*
X65575403Y-108570942D01*
X64986200Y-108441397D01*
X64433382Y-108199877D01*
X63938007Y-107855582D01*
X63518937Y-107421623D01*
X63192138Y-106914530D01*
X62970056Y-106353614D01*
X62861155Y-105760258D01*
X62869577Y-105157041D01*
X62995006Y-104566947D01*
X63232659Y-104012458D01*
X63573491Y-103514688D01*
X64004512Y-103092600D01*
X64509313Y-102762268D01*
X65068659Y-102536277D01*
X65661245Y-102423236D01*
X66264510Y-102427447D01*
X66264510Y-102427447D01*
G37*
G36*
X58264510Y-102427447D02*
X58855455Y-102548751D01*
X59411598Y-102782532D01*
X59911734Y-103119878D01*
X60336821Y-103547943D01*
X60670666Y-104050421D01*
X60900556Y-104608176D01*
X61017664Y-105199614D01*
X61017664Y-105199624D01*
X61017731Y-105199963D01*
X61008110Y-105889016D01*
X61008033Y-105889354D01*
X61008033Y-105889362D01*
X60874457Y-106477301D01*
X60629085Y-107028416D01*
X60281337Y-107521378D01*
X59844462Y-107937409D01*
X59335100Y-108260661D01*
X58772654Y-108478819D01*
X58178547Y-108583576D01*
X57575403Y-108570942D01*
X56986200Y-108441397D01*
X56433382Y-108199877D01*
X55938007Y-107855582D01*
X55518937Y-107421623D01*
X55192138Y-106914530D01*
X54970056Y-106353614D01*
X54861155Y-105760258D01*
X54869577Y-105157041D01*
X54995006Y-104566947D01*
X55232659Y-104012458D01*
X55573491Y-103514688D01*
X56004512Y-103092600D01*
X56509313Y-102762268D01*
X57068659Y-102536277D01*
X57661245Y-102423236D01*
X58264510Y-102427447D01*
X58264510Y-102427447D01*
G37*
G36*
X82263510Y-102427447D02*
X82854455Y-102548751D01*
X83410598Y-102782532D01*
X83910734Y-103119878D01*
X84335821Y-103547943D01*
X84669666Y-104050421D01*
X84899556Y-104608176D01*
X85016664Y-105199614D01*
X85016664Y-105199624D01*
X85016731Y-105199963D01*
X85007110Y-105889016D01*
X85007033Y-105889354D01*
X85007033Y-105889362D01*
X84873457Y-106477301D01*
X84628085Y-107028416D01*
X84280337Y-107521378D01*
X83843462Y-107937409D01*
X83334100Y-108260661D01*
X82771654Y-108478819D01*
X82177547Y-108583576D01*
X81574403Y-108570942D01*
X80985200Y-108441397D01*
X80432382Y-108199877D01*
X79937007Y-107855582D01*
X79517937Y-107421623D01*
X79191138Y-106914530D01*
X78969056Y-106353614D01*
X78860155Y-105760258D01*
X78868577Y-105157041D01*
X78994006Y-104566947D01*
X79231659Y-104012458D01*
X79572491Y-103514688D01*
X80003512Y-103092600D01*
X80508313Y-102762268D01*
X81067659Y-102536277D01*
X81660245Y-102423236D01*
X82263510Y-102427447D01*
X82263510Y-102427447D01*
G37*
G36*
X74264510Y-102427447D02*
X74855455Y-102548751D01*
X75411598Y-102782532D01*
X75911734Y-103119878D01*
X76336821Y-103547943D01*
X76670666Y-104050421D01*
X76900556Y-104608176D01*
X77017664Y-105199614D01*
X77017664Y-105199624D01*
X77017731Y-105199963D01*
X77008110Y-105889016D01*
X77008033Y-105889354D01*
X77008033Y-105889362D01*
X76874457Y-106477301D01*
X76629085Y-107028416D01*
X76281337Y-107521378D01*
X75844462Y-107937409D01*
X75335100Y-108260661D01*
X74772654Y-108478819D01*
X74178547Y-108583576D01*
X73575403Y-108570942D01*
X72986200Y-108441397D01*
X72433382Y-108199877D01*
X71938007Y-107855582D01*
X71518937Y-107421623D01*
X71192138Y-106914530D01*
X70970056Y-106353614D01*
X70861155Y-105760258D01*
X70869577Y-105157041D01*
X70995006Y-104566947D01*
X71232659Y-104012458D01*
X71573491Y-103514688D01*
X72004512Y-103092600D01*
X72509313Y-102762268D01*
X73068659Y-102536277D01*
X73661245Y-102423236D01*
X74264510Y-102427447D01*
X74264510Y-102427447D01*
G37*
G36*
X42264510Y-94427447D02*
X42855455Y-94548751D01*
X43411598Y-94782532D01*
X43911734Y-95119878D01*
X44336821Y-95547943D01*
X44670666Y-96050421D01*
X44900556Y-96608176D01*
X45017664Y-97199614D01*
X45017664Y-97199624D01*
X45017731Y-97199963D01*
X45008110Y-97889016D01*
X45008033Y-97889354D01*
X45008033Y-97889362D01*
X44874457Y-98477301D01*
X44629085Y-99028416D01*
X44281337Y-99521378D01*
X43844462Y-99937409D01*
X43335100Y-100260661D01*
X42772654Y-100478819D01*
X42178547Y-100583576D01*
X41575403Y-100570942D01*
X40986200Y-100441397D01*
X40433382Y-100199877D01*
X39938007Y-99855582D01*
X39518937Y-99421623D01*
X39192138Y-98914530D01*
X38970056Y-98353614D01*
X38861155Y-97760258D01*
X38869577Y-97157041D01*
X38995006Y-96566947D01*
X39232659Y-96012458D01*
X39573491Y-95514688D01*
X40004512Y-95092600D01*
X40509313Y-94762268D01*
X41068659Y-94536277D01*
X41661245Y-94423236D01*
X42264510Y-94427447D01*
X42264510Y-94427447D01*
G37*
G36*
X82264510Y-94427447D02*
X82855455Y-94548751D01*
X83411598Y-94782532D01*
X83911734Y-95119878D01*
X84336821Y-95547943D01*
X84670666Y-96050421D01*
X84900556Y-96608176D01*
X85017664Y-97199614D01*
X85017664Y-97199624D01*
X85017731Y-97199963D01*
X85008110Y-97889016D01*
X85008033Y-97889354D01*
X85008033Y-97889362D01*
X84874457Y-98477301D01*
X84629085Y-99028416D01*
X84281337Y-99521378D01*
X83844462Y-99937409D01*
X83335100Y-100260661D01*
X82772654Y-100478819D01*
X82178547Y-100583576D01*
X81575403Y-100570942D01*
X80986200Y-100441397D01*
X80433382Y-100199877D01*
X79938007Y-99855582D01*
X79518937Y-99421623D01*
X79192138Y-98914530D01*
X78970056Y-98353614D01*
X78861155Y-97760258D01*
X78869577Y-97157041D01*
X78995006Y-96566947D01*
X79232659Y-96012458D01*
X79573491Y-95514688D01*
X80004512Y-95092600D01*
X80509313Y-94762268D01*
X81068659Y-94536277D01*
X81661245Y-94423236D01*
X82264510Y-94427447D01*
X82264510Y-94427447D01*
G37*
G36*
X42264510Y-86427447D02*
X42855455Y-86548751D01*
X43411598Y-86782532D01*
X43911734Y-87119878D01*
X44336821Y-87547943D01*
X44670666Y-88050421D01*
X44900556Y-88608176D01*
X45017664Y-89199614D01*
X45017664Y-89199624D01*
X45017731Y-89199963D01*
X45008110Y-89889016D01*
X45008033Y-89889354D01*
X45008033Y-89889362D01*
X44874457Y-90477301D01*
X44629085Y-91028416D01*
X44281337Y-91521378D01*
X43844462Y-91937409D01*
X43335100Y-92260661D01*
X42772654Y-92478819D01*
X42178547Y-92583576D01*
X41575403Y-92570942D01*
X40986200Y-92441397D01*
X40433382Y-92199877D01*
X39938007Y-91855582D01*
X39518937Y-91421623D01*
X39192138Y-90914530D01*
X38970056Y-90353614D01*
X38861155Y-89760258D01*
X38869577Y-89157041D01*
X38995006Y-88566947D01*
X39232659Y-88012458D01*
X39573491Y-87514688D01*
X40004512Y-87092600D01*
X40509313Y-86762268D01*
X41068659Y-86536277D01*
X41661245Y-86423236D01*
X42264510Y-86427447D01*
X42264510Y-86427447D01*
G37*
G36*
X82264510Y-86427447D02*
X82855455Y-86548751D01*
X83411598Y-86782532D01*
X83911734Y-87119878D01*
X84336821Y-87547943D01*
X84670666Y-88050421D01*
X84900556Y-88608176D01*
X85017664Y-89199614D01*
X85017664Y-89199624D01*
X85017731Y-89199963D01*
X85008110Y-89889016D01*
X85008033Y-89889354D01*
X85008033Y-89889362D01*
X84874457Y-90477301D01*
X84629085Y-91028416D01*
X84281337Y-91521378D01*
X83844462Y-91937409D01*
X83335100Y-92260661D01*
X82772654Y-92478819D01*
X82178547Y-92583576D01*
X81575403Y-92570942D01*
X80986200Y-92441397D01*
X80433382Y-92199877D01*
X79938007Y-91855582D01*
X79518937Y-91421623D01*
X79192138Y-90914530D01*
X78970056Y-90353614D01*
X78861155Y-89760258D01*
X78869577Y-89157041D01*
X78995006Y-88566947D01*
X79232659Y-88012458D01*
X79573491Y-87514688D01*
X80004512Y-87092600D01*
X80509313Y-86762268D01*
X81068659Y-86536277D01*
X81661245Y-86423236D01*
X82264510Y-86427447D01*
X82264510Y-86427447D01*
G37*
G36*
X50930115Y-84252424D02*
X51110648Y-84289483D01*
X51280558Y-84360906D01*
X51433349Y-84463966D01*
X51563221Y-84594746D01*
X51665210Y-84748253D01*
X51735443Y-84918651D01*
X51771172Y-85099099D01*
X51771172Y-85099104D01*
X51771240Y-85099448D01*
X51768301Y-85309958D01*
X51768224Y-85310296D01*
X51768224Y-85310306D01*
X51727470Y-85489686D01*
X51652508Y-85658052D01*
X51546268Y-85808656D01*
X51412799Y-85935757D01*
X51257184Y-86034514D01*
X51085354Y-86101162D01*
X50903852Y-86133166D01*
X50719586Y-86129306D01*
X50539579Y-86089729D01*
X50370688Y-86015943D01*
X50219350Y-85910760D01*
X50091321Y-85778182D01*
X49991481Y-85623261D01*
X49923632Y-85451893D01*
X49890363Y-85270623D01*
X49892935Y-85086336D01*
X49931256Y-84906056D01*
X50003859Y-84736657D01*
X50107987Y-84584584D01*
X50239666Y-84455633D01*
X50393887Y-84354714D01*
X50564772Y-84285672D01*
X50745809Y-84251138D01*
X50930115Y-84252424D01*
X50930115Y-84252424D01*
G37*
G36*
X73790115Y-84252424D02*
X73970648Y-84289483D01*
X74140558Y-84360906D01*
X74293349Y-84463966D01*
X74423221Y-84594746D01*
X74525210Y-84748253D01*
X74595443Y-84918651D01*
X74631172Y-85099099D01*
X74631172Y-85099104D01*
X74631240Y-85099448D01*
X74628301Y-85309958D01*
X74628224Y-85310296D01*
X74628224Y-85310306D01*
X74587470Y-85489686D01*
X74512508Y-85658052D01*
X74406268Y-85808656D01*
X74272799Y-85935757D01*
X74117184Y-86034514D01*
X73945354Y-86101162D01*
X73763852Y-86133166D01*
X73579586Y-86129306D01*
X73399579Y-86089729D01*
X73230688Y-86015943D01*
X73079350Y-85910760D01*
X72951321Y-85778182D01*
X72851481Y-85623261D01*
X72783632Y-85451893D01*
X72750363Y-85270623D01*
X72752935Y-85086336D01*
X72791256Y-84906056D01*
X72863859Y-84736657D01*
X72967987Y-84584584D01*
X73099666Y-84455633D01*
X73253887Y-84354714D01*
X73424772Y-84285672D01*
X73605809Y-84251138D01*
X73790115Y-84252424D01*
X73790115Y-84252424D01*
G37*
G36*
X82264510Y-78427447D02*
X82855455Y-78548751D01*
X83411598Y-78782532D01*
X83911734Y-79119878D01*
X84336821Y-79547943D01*
X84670666Y-80050421D01*
X84900556Y-80608176D01*
X85017664Y-81199614D01*
X85017664Y-81199624D01*
X85017731Y-81199963D01*
X85008110Y-81889016D01*
X85008033Y-81889354D01*
X85008033Y-81889362D01*
X84874457Y-82477301D01*
X84629085Y-83028416D01*
X84281337Y-83521378D01*
X83844462Y-83937409D01*
X83335100Y-84260661D01*
X82772654Y-84478819D01*
X82178547Y-84583576D01*
X81575403Y-84570942D01*
X80986200Y-84441397D01*
X80433382Y-84199877D01*
X79938007Y-83855582D01*
X79518937Y-83421623D01*
X79192138Y-82914530D01*
X78970056Y-82353614D01*
X78861155Y-81760258D01*
X78869577Y-81157041D01*
X78995006Y-80566947D01*
X79232659Y-80012458D01*
X79573491Y-79514688D01*
X80004512Y-79092600D01*
X80509313Y-78762268D01*
X81068659Y-78536277D01*
X81661245Y-78423236D01*
X82264510Y-78427447D01*
X82264510Y-78427447D01*
G37*
G36*
X42264510Y-78427447D02*
X42855455Y-78548751D01*
X43411598Y-78782532D01*
X43911734Y-79119878D01*
X44336821Y-79547943D01*
X44670666Y-80050421D01*
X44900556Y-80608176D01*
X45017664Y-81199614D01*
X45017664Y-81199624D01*
X45017731Y-81199963D01*
X45008110Y-81889016D01*
X45008033Y-81889354D01*
X45008033Y-81889362D01*
X44874457Y-82477301D01*
X44629085Y-83028416D01*
X44281337Y-83521378D01*
X43844462Y-83937409D01*
X43335100Y-84260661D01*
X42772654Y-84478819D01*
X42178547Y-84583576D01*
X41575403Y-84570942D01*
X40986200Y-84441397D01*
X40433382Y-84199877D01*
X39938007Y-83855582D01*
X39518937Y-83421623D01*
X39192138Y-82914530D01*
X38970056Y-82353614D01*
X38861155Y-81760258D01*
X38869577Y-81157041D01*
X38995006Y-80566947D01*
X39232659Y-80012458D01*
X39573491Y-79514688D01*
X40004512Y-79092600D01*
X40509313Y-78762268D01*
X41068659Y-78536277D01*
X41661245Y-78423236D01*
X42264510Y-78427447D01*
X42264510Y-78427447D01*
G37*
G36*
X50930115Y-81712424D02*
X51110648Y-81749483D01*
X51280558Y-81820906D01*
X51433349Y-81923966D01*
X51563221Y-82054746D01*
X51665210Y-82208253D01*
X51735443Y-82378651D01*
X51771172Y-82559099D01*
X51771172Y-82559104D01*
X51771240Y-82559448D01*
X51768301Y-82769958D01*
X51768224Y-82770296D01*
X51768224Y-82770306D01*
X51727470Y-82949686D01*
X51652508Y-83118052D01*
X51546268Y-83268656D01*
X51412799Y-83395757D01*
X51257184Y-83494514D01*
X51085354Y-83561162D01*
X50903852Y-83593166D01*
X50719586Y-83589306D01*
X50539579Y-83549729D01*
X50370688Y-83475943D01*
X50219350Y-83370760D01*
X50091321Y-83238182D01*
X49991481Y-83083261D01*
X49923632Y-82911893D01*
X49890363Y-82730623D01*
X49892935Y-82546336D01*
X49931256Y-82366056D01*
X50003859Y-82196657D01*
X50107987Y-82044584D01*
X50239666Y-81915633D01*
X50393887Y-81814714D01*
X50564772Y-81745672D01*
X50745809Y-81711138D01*
X50930115Y-81712424D01*
X50930115Y-81712424D01*
G37*
G36*
X73790115Y-81712424D02*
X73970648Y-81749483D01*
X74140558Y-81820906D01*
X74293349Y-81923966D01*
X74423221Y-82054746D01*
X74525210Y-82208253D01*
X74595443Y-82378651D01*
X74631172Y-82559099D01*
X74631172Y-82559104D01*
X74631240Y-82559448D01*
X74628301Y-82769958D01*
X74628224Y-82770296D01*
X74628224Y-82770306D01*
X74587470Y-82949686D01*
X74512508Y-83118052D01*
X74406268Y-83268656D01*
X74272799Y-83395757D01*
X74117184Y-83494514D01*
X73945354Y-83561162D01*
X73763852Y-83593166D01*
X73579586Y-83589306D01*
X73399579Y-83549729D01*
X73230688Y-83475943D01*
X73079350Y-83370760D01*
X72951321Y-83238182D01*
X72851481Y-83083261D01*
X72783632Y-82911893D01*
X72750363Y-82730623D01*
X72752935Y-82546336D01*
X72791256Y-82366056D01*
X72863859Y-82196657D01*
X72967987Y-82044584D01*
X73099666Y-81915633D01*
X73253887Y-81814714D01*
X73424772Y-81745672D01*
X73605809Y-81711138D01*
X73790115Y-81712424D01*
X73790115Y-81712424D01*
G37*
G36*
X50930115Y-79172424D02*
X51110648Y-79209483D01*
X51280558Y-79280906D01*
X51433349Y-79383966D01*
X51563221Y-79514746D01*
X51665210Y-79668253D01*
X51735443Y-79838651D01*
X51771172Y-80019099D01*
X51771172Y-80019104D01*
X51771240Y-80019448D01*
X51768301Y-80229958D01*
X51768224Y-80230296D01*
X51768224Y-80230306D01*
X51727470Y-80409686D01*
X51652508Y-80578052D01*
X51546268Y-80728656D01*
X51412799Y-80855757D01*
X51257184Y-80954514D01*
X51085354Y-81021162D01*
X50903852Y-81053166D01*
X50719586Y-81049306D01*
X50539579Y-81009729D01*
X50370688Y-80935943D01*
X50219350Y-80830760D01*
X50091321Y-80698182D01*
X49991481Y-80543261D01*
X49923632Y-80371893D01*
X49890363Y-80190623D01*
X49892935Y-80006336D01*
X49931256Y-79826056D01*
X50003859Y-79656657D01*
X50107987Y-79504584D01*
X50239666Y-79375633D01*
X50393887Y-79274714D01*
X50564772Y-79205672D01*
X50745809Y-79171138D01*
X50930115Y-79172424D01*
X50930115Y-79172424D01*
G37*
G36*
X73790115Y-79172424D02*
X73970648Y-79209483D01*
X74140558Y-79280906D01*
X74293349Y-79383966D01*
X74423221Y-79514746D01*
X74525210Y-79668253D01*
X74595443Y-79838651D01*
X74631172Y-80019099D01*
X74631172Y-80019104D01*
X74631240Y-80019448D01*
X74628301Y-80229958D01*
X74628224Y-80230296D01*
X74628224Y-80230306D01*
X74587470Y-80409686D01*
X74512508Y-80578052D01*
X74406268Y-80728656D01*
X74272799Y-80855757D01*
X74117184Y-80954514D01*
X73945354Y-81021162D01*
X73763852Y-81053166D01*
X73579586Y-81049306D01*
X73399579Y-81009729D01*
X73230688Y-80935943D01*
X73079350Y-80830760D01*
X72951321Y-80698182D01*
X72851481Y-80543261D01*
X72783632Y-80371893D01*
X72750363Y-80190623D01*
X72752935Y-80006336D01*
X72791256Y-79826056D01*
X72863859Y-79656657D01*
X72967987Y-79504584D01*
X73099666Y-79375633D01*
X73253887Y-79274714D01*
X73424772Y-79205672D01*
X73605809Y-79171138D01*
X73790115Y-79172424D01*
X73790115Y-79172424D01*
G37*
G36*
X50930115Y-76632424D02*
X51110648Y-76669483D01*
X51280558Y-76740906D01*
X51433349Y-76843966D01*
X51563221Y-76974746D01*
X51665210Y-77128253D01*
X51735443Y-77298651D01*
X51771172Y-77479099D01*
X51771172Y-77479104D01*
X51771240Y-77479448D01*
X51768301Y-77689958D01*
X51768224Y-77690296D01*
X51768224Y-77690306D01*
X51727470Y-77869686D01*
X51652508Y-78038052D01*
X51546268Y-78188656D01*
X51412799Y-78315757D01*
X51257184Y-78414514D01*
X51085354Y-78481162D01*
X50903852Y-78513166D01*
X50719586Y-78509306D01*
X50539579Y-78469729D01*
X50370688Y-78395943D01*
X50219350Y-78290760D01*
X50091321Y-78158182D01*
X49991481Y-78003261D01*
X49923632Y-77831893D01*
X49890363Y-77650623D01*
X49892935Y-77466336D01*
X49931256Y-77286056D01*
X50003859Y-77116657D01*
X50107987Y-76964584D01*
X50239666Y-76835633D01*
X50393887Y-76734714D01*
X50564772Y-76665672D01*
X50745809Y-76631138D01*
X50930115Y-76632424D01*
X50930115Y-76632424D01*
G37*
G36*
X73790115Y-76632424D02*
X73970648Y-76669483D01*
X74140558Y-76740906D01*
X74293349Y-76843966D01*
X74423221Y-76974746D01*
X74525210Y-77128253D01*
X74595443Y-77298651D01*
X74631172Y-77479099D01*
X74631172Y-77479104D01*
X74631240Y-77479448D01*
X74628301Y-77689958D01*
X74628224Y-77690296D01*
X74628224Y-77690306D01*
X74587470Y-77869686D01*
X74512508Y-78038052D01*
X74406268Y-78188656D01*
X74272799Y-78315757D01*
X74117184Y-78414514D01*
X73945354Y-78481162D01*
X73763852Y-78513166D01*
X73579586Y-78509306D01*
X73399579Y-78469729D01*
X73230688Y-78395943D01*
X73079350Y-78290760D01*
X72951321Y-78158182D01*
X72851481Y-78003261D01*
X72783632Y-77831893D01*
X72750363Y-77650623D01*
X72752935Y-77466336D01*
X72791256Y-77286056D01*
X72863859Y-77116657D01*
X72967987Y-76964584D01*
X73099666Y-76835633D01*
X73253887Y-76734714D01*
X73424772Y-76665672D01*
X73605809Y-76631138D01*
X73790115Y-76632424D01*
X73790115Y-76632424D01*
G37*
G36*
X82263510Y-70427447D02*
X82854455Y-70548751D01*
X83410598Y-70782532D01*
X83910734Y-71119878D01*
X84335821Y-71547943D01*
X84669666Y-72050421D01*
X84899556Y-72608176D01*
X85016664Y-73199614D01*
X85016664Y-73199624D01*
X85016731Y-73199963D01*
X85007110Y-73889016D01*
X85007033Y-73889354D01*
X85007033Y-73889362D01*
X84873457Y-74477301D01*
X84628085Y-75028416D01*
X84280337Y-75521378D01*
X83843462Y-75937409D01*
X83334100Y-76260661D01*
X82771654Y-76478819D01*
X82177547Y-76583576D01*
X81574403Y-76570942D01*
X80985200Y-76441397D01*
X80432382Y-76199877D01*
X79937007Y-75855582D01*
X79517937Y-75421623D01*
X79191138Y-74914530D01*
X78969056Y-74353614D01*
X78860155Y-73760258D01*
X78868577Y-73157041D01*
X78994006Y-72566947D01*
X79231659Y-72012458D01*
X79572491Y-71514688D01*
X80003512Y-71092600D01*
X80508313Y-70762268D01*
X81067659Y-70536277D01*
X81660245Y-70423236D01*
X82263510Y-70427447D01*
X82263510Y-70427447D01*
G37*
G36*
X42264510Y-70427447D02*
X42855455Y-70548751D01*
X43411598Y-70782532D01*
X43911734Y-71119878D01*
X44336821Y-71547943D01*
X44670666Y-72050421D01*
X44900556Y-72608176D01*
X45017664Y-73199614D01*
X45017664Y-73199624D01*
X45017731Y-73199963D01*
X45008110Y-73889016D01*
X45008033Y-73889354D01*
X45008033Y-73889362D01*
X44874457Y-74477301D01*
X44629085Y-75028416D01*
X44281337Y-75521378D01*
X43844462Y-75937409D01*
X43335100Y-76260661D01*
X42772654Y-76478819D01*
X42178547Y-76583576D01*
X41575403Y-76570942D01*
X40986200Y-76441397D01*
X40433382Y-76199877D01*
X39938007Y-75855582D01*
X39518937Y-75421623D01*
X39192138Y-74914530D01*
X38970056Y-74353614D01*
X38861155Y-73760258D01*
X38869577Y-73157041D01*
X38995006Y-72566947D01*
X39232659Y-72012458D01*
X39573491Y-71514688D01*
X40004512Y-71092600D01*
X40509313Y-70762268D01*
X41068659Y-70536277D01*
X41661245Y-70423236D01*
X42264510Y-70427447D01*
X42264510Y-70427447D01*
G37*
G36*
X73790115Y-74092424D02*
X73970648Y-74129483D01*
X74140558Y-74200906D01*
X74293349Y-74303966D01*
X74423221Y-74434746D01*
X74525210Y-74588253D01*
X74595443Y-74758651D01*
X74631172Y-74939099D01*
X74631172Y-74939104D01*
X74631240Y-74939448D01*
X74628301Y-75149958D01*
X74628224Y-75150296D01*
X74628224Y-75150306D01*
X74587470Y-75329686D01*
X74512508Y-75498052D01*
X74406268Y-75648656D01*
X74272799Y-75775757D01*
X74117184Y-75874514D01*
X73945354Y-75941162D01*
X73763852Y-75973166D01*
X73579586Y-75969306D01*
X73399579Y-75929729D01*
X73230688Y-75855943D01*
X73079350Y-75750760D01*
X72951321Y-75618182D01*
X72851481Y-75463261D01*
X72783632Y-75291893D01*
X72750363Y-75110623D01*
X72752935Y-74926336D01*
X72791256Y-74746056D01*
X72863859Y-74576657D01*
X72967987Y-74424584D01*
X73099666Y-74295633D01*
X73253887Y-74194714D01*
X73424772Y-74125672D01*
X73605809Y-74091138D01*
X73790115Y-74092424D01*
X73790115Y-74092424D01*
G37*
G36*
X50930115Y-74092424D02*
X51110648Y-74129483D01*
X51280558Y-74200906D01*
X51433349Y-74303966D01*
X51563221Y-74434746D01*
X51665210Y-74588253D01*
X51735443Y-74758651D01*
X51771172Y-74939099D01*
X51771172Y-74939104D01*
X51771240Y-74939448D01*
X51768301Y-75149958D01*
X51768224Y-75150296D01*
X51768224Y-75150306D01*
X51727470Y-75329686D01*
X51652508Y-75498052D01*
X51546268Y-75648656D01*
X51412799Y-75775757D01*
X51257184Y-75874514D01*
X51085354Y-75941162D01*
X50903852Y-75973166D01*
X50719586Y-75969306D01*
X50539579Y-75929729D01*
X50370688Y-75855943D01*
X50219350Y-75750760D01*
X50091321Y-75618182D01*
X49991481Y-75463261D01*
X49923632Y-75291893D01*
X49890363Y-75110623D01*
X49892935Y-74926336D01*
X49931256Y-74746056D01*
X50003859Y-74576657D01*
X50107987Y-74424584D01*
X50239666Y-74295633D01*
X50393887Y-74194714D01*
X50564772Y-74125672D01*
X50745809Y-74091138D01*
X50930115Y-74092424D01*
X50930115Y-74092424D01*
G37*
G36*
X73790115Y-71552424D02*
X73970648Y-71589483D01*
X74140558Y-71660906D01*
X74293349Y-71763966D01*
X74423221Y-71894746D01*
X74525210Y-72048253D01*
X74595443Y-72218651D01*
X74631172Y-72399099D01*
X74631172Y-72399104D01*
X74631240Y-72399448D01*
X74628301Y-72609958D01*
X74628224Y-72610296D01*
X74628224Y-72610306D01*
X74587470Y-72789686D01*
X74512508Y-72958052D01*
X74406268Y-73108656D01*
X74272799Y-73235757D01*
X74117184Y-73334514D01*
X73945354Y-73401162D01*
X73763852Y-73433166D01*
X73579586Y-73429306D01*
X73399579Y-73389729D01*
X73230688Y-73315943D01*
X73079350Y-73210760D01*
X72951321Y-73078182D01*
X72851481Y-72923261D01*
X72783632Y-72751893D01*
X72750363Y-72570623D01*
X72752935Y-72386336D01*
X72791256Y-72206056D01*
X72863859Y-72036657D01*
X72967987Y-71884584D01*
X73099666Y-71755633D01*
X73253887Y-71654714D01*
X73424772Y-71585672D01*
X73605809Y-71551138D01*
X73790115Y-71552424D01*
X73790115Y-71552424D01*
G37*
G36*
X50930115Y-71552424D02*
X51110648Y-71589483D01*
X51280558Y-71660906D01*
X51433349Y-71763966D01*
X51563221Y-71894746D01*
X51665210Y-72048253D01*
X51735443Y-72218651D01*
X51771172Y-72399099D01*
X51771172Y-72399104D01*
X51771240Y-72399448D01*
X51768301Y-72609958D01*
X51768224Y-72610296D01*
X51768224Y-72610306D01*
X51727470Y-72789686D01*
X51652508Y-72958052D01*
X51546268Y-73108656D01*
X51412799Y-73235757D01*
X51257184Y-73334514D01*
X51085354Y-73401162D01*
X50903852Y-73433166D01*
X50719586Y-73429306D01*
X50539579Y-73389729D01*
X50370688Y-73315943D01*
X50219350Y-73210760D01*
X50091321Y-73078182D01*
X49991481Y-72923261D01*
X49923632Y-72751893D01*
X49890363Y-72570623D01*
X49892935Y-72386336D01*
X49931256Y-72206056D01*
X50003859Y-72036657D01*
X50107987Y-71884584D01*
X50239666Y-71755633D01*
X50393887Y-71654714D01*
X50564772Y-71585672D01*
X50745809Y-71551138D01*
X50930115Y-71552424D01*
X50930115Y-71552424D01*
G37*
G36*
X50930115Y-69012424D02*
X51110648Y-69049483D01*
X51280558Y-69120906D01*
X51433349Y-69223966D01*
X51563221Y-69354746D01*
X51665210Y-69508253D01*
X51735443Y-69678651D01*
X51771172Y-69859099D01*
X51771172Y-69859104D01*
X51771240Y-69859448D01*
X51768301Y-70069958D01*
X51768224Y-70070296D01*
X51768224Y-70070306D01*
X51727470Y-70249686D01*
X51652508Y-70418052D01*
X51546268Y-70568656D01*
X51412799Y-70695757D01*
X51257184Y-70794514D01*
X51085354Y-70861162D01*
X50903852Y-70893166D01*
X50719586Y-70889306D01*
X50539579Y-70849729D01*
X50370688Y-70775943D01*
X50219350Y-70670760D01*
X50091321Y-70538182D01*
X49991481Y-70383261D01*
X49923632Y-70211893D01*
X49890363Y-70030623D01*
X49892935Y-69846336D01*
X49931256Y-69666056D01*
X50003859Y-69496657D01*
X50107987Y-69344584D01*
X50239666Y-69215633D01*
X50393887Y-69114714D01*
X50564772Y-69045672D01*
X50745809Y-69011138D01*
X50930115Y-69012424D01*
X50930115Y-69012424D01*
G37*
G36*
X73790115Y-69012424D02*
X73970648Y-69049483D01*
X74140558Y-69120906D01*
X74293349Y-69223966D01*
X74423221Y-69354746D01*
X74525210Y-69508253D01*
X74595443Y-69678651D01*
X74631172Y-69859099D01*
X74631172Y-69859104D01*
X74631240Y-69859448D01*
X74628301Y-70069958D01*
X74628224Y-70070296D01*
X74628224Y-70070306D01*
X74587470Y-70249686D01*
X74512508Y-70418052D01*
X74406268Y-70568656D01*
X74272799Y-70695757D01*
X74117184Y-70794514D01*
X73945354Y-70861162D01*
X73763852Y-70893166D01*
X73579586Y-70889306D01*
X73399579Y-70849729D01*
X73230688Y-70775943D01*
X73079350Y-70670760D01*
X72951321Y-70538182D01*
X72851481Y-70383261D01*
X72783632Y-70211893D01*
X72750363Y-70030623D01*
X72752935Y-69846336D01*
X72791256Y-69666056D01*
X72863859Y-69496657D01*
X72967987Y-69344584D01*
X73099666Y-69215633D01*
X73253887Y-69114714D01*
X73424772Y-69045672D01*
X73605809Y-69011138D01*
X73790115Y-69012424D01*
X73790115Y-69012424D01*
G37*
G36*
X42264510Y-62427447D02*
X42855455Y-62548751D01*
X43411598Y-62782532D01*
X43911734Y-63119878D01*
X44336821Y-63547943D01*
X44670666Y-64050421D01*
X44900556Y-64608176D01*
X45017664Y-65199614D01*
X45017664Y-65199624D01*
X45017731Y-65199963D01*
X45008110Y-65889016D01*
X45008033Y-65889354D01*
X45008033Y-65889362D01*
X44874457Y-66477301D01*
X44629085Y-67028416D01*
X44281337Y-67521378D01*
X43844462Y-67937409D01*
X43335100Y-68260661D01*
X42772654Y-68478819D01*
X42178547Y-68583576D01*
X41575403Y-68570942D01*
X40986200Y-68441397D01*
X40433382Y-68199877D01*
X39938007Y-67855582D01*
X39518937Y-67421623D01*
X39192138Y-66914530D01*
X38970056Y-66353614D01*
X38861155Y-65760258D01*
X38869577Y-65157041D01*
X38995006Y-64566947D01*
X39232659Y-64012458D01*
X39573491Y-63514688D01*
X40004512Y-63092600D01*
X40509313Y-62762268D01*
X41068659Y-62536277D01*
X41661245Y-62423236D01*
X42264510Y-62427447D01*
X42264510Y-62427447D01*
G37*
G36*
X82264510Y-62427447D02*
X82855455Y-62548751D01*
X83411598Y-62782532D01*
X83911734Y-63119878D01*
X84336821Y-63547943D01*
X84670666Y-64050421D01*
X84900556Y-64608176D01*
X85017664Y-65199614D01*
X85017664Y-65199624D01*
X85017731Y-65199963D01*
X85008110Y-65889016D01*
X85008033Y-65889354D01*
X85008033Y-65889362D01*
X84874457Y-66477301D01*
X84629085Y-67028416D01*
X84281337Y-67521378D01*
X83844462Y-67937409D01*
X83335100Y-68260661D01*
X82772654Y-68478819D01*
X82178547Y-68583576D01*
X81575403Y-68570942D01*
X80986200Y-68441397D01*
X80433382Y-68199877D01*
X79938007Y-67855582D01*
X79518937Y-67421623D01*
X79192138Y-66914530D01*
X78970056Y-66353614D01*
X78861155Y-65760258D01*
X78869577Y-65157041D01*
X78995006Y-64566947D01*
X79232659Y-64012458D01*
X79573491Y-63514688D01*
X80004512Y-63092600D01*
X80509313Y-62762268D01*
X81068659Y-62536277D01*
X81661245Y-62423236D01*
X82264510Y-62427447D01*
X82264510Y-62427447D01*
G37*
G36*
X50930115Y-66472424D02*
X51110648Y-66509483D01*
X51280558Y-66580906D01*
X51433349Y-66683966D01*
X51563221Y-66814746D01*
X51665210Y-66968253D01*
X51735443Y-67138651D01*
X51771172Y-67319099D01*
X51771172Y-67319104D01*
X51771240Y-67319448D01*
X51768301Y-67529958D01*
X51768224Y-67530296D01*
X51768224Y-67530306D01*
X51727470Y-67709686D01*
X51652508Y-67878052D01*
X51546268Y-68028656D01*
X51412799Y-68155757D01*
X51257184Y-68254514D01*
X51085354Y-68321162D01*
X50903852Y-68353166D01*
X50719586Y-68349306D01*
X50539579Y-68309729D01*
X50370688Y-68235943D01*
X50219350Y-68130760D01*
X50091321Y-67998182D01*
X49991481Y-67843261D01*
X49923632Y-67671893D01*
X49890363Y-67490623D01*
X49892935Y-67306336D01*
X49931256Y-67126056D01*
X50003859Y-66956657D01*
X50107987Y-66804584D01*
X50239666Y-66675633D01*
X50393887Y-66574714D01*
X50564772Y-66505672D01*
X50745809Y-66471138D01*
X50930115Y-66472424D01*
X50930115Y-66472424D01*
G37*
G36*
X73790115Y-66472424D02*
X73970648Y-66509483D01*
X74140558Y-66580906D01*
X74293349Y-66683966D01*
X74423221Y-66814746D01*
X74525210Y-66968253D01*
X74595443Y-67138651D01*
X74631172Y-67319099D01*
X74631172Y-67319104D01*
X74631240Y-67319448D01*
X74628301Y-67529958D01*
X74628224Y-67530296D01*
X74628224Y-67530306D01*
X74587470Y-67709686D01*
X74512508Y-67878052D01*
X74406268Y-68028656D01*
X74272799Y-68155757D01*
X74117184Y-68254514D01*
X73945354Y-68321162D01*
X73763852Y-68353166D01*
X73579586Y-68349306D01*
X73399579Y-68309729D01*
X73230688Y-68235943D01*
X73079350Y-68130760D01*
X72951321Y-67998182D01*
X72851481Y-67843261D01*
X72783632Y-67671893D01*
X72750363Y-67490623D01*
X72752935Y-67306336D01*
X72791256Y-67126056D01*
X72863859Y-66956657D01*
X72967987Y-66804584D01*
X73099666Y-66675633D01*
X73253887Y-66574714D01*
X73424772Y-66505672D01*
X73605809Y-66471138D01*
X73790115Y-66472424D01*
X73790115Y-66472424D01*
G37*
G36*
X73790115Y-63932424D02*
X73970648Y-63969483D01*
X74140558Y-64040906D01*
X74293349Y-64143966D01*
X74423221Y-64274746D01*
X74525210Y-64428253D01*
X74595443Y-64598651D01*
X74631172Y-64779099D01*
X74631172Y-64779104D01*
X74631240Y-64779448D01*
X74628301Y-64989958D01*
X74628224Y-64990296D01*
X74628224Y-64990306D01*
X74587470Y-65169686D01*
X74512508Y-65338052D01*
X74406268Y-65488656D01*
X74272799Y-65615757D01*
X74117184Y-65714514D01*
X73945354Y-65781162D01*
X73763852Y-65813166D01*
X73579586Y-65809306D01*
X73399579Y-65769729D01*
X73230688Y-65695943D01*
X73079350Y-65590760D01*
X72951321Y-65458182D01*
X72851481Y-65303261D01*
X72783632Y-65131893D01*
X72750363Y-64950623D01*
X72752935Y-64766336D01*
X72791256Y-64586056D01*
X72863859Y-64416657D01*
X72967987Y-64264584D01*
X73099666Y-64135633D01*
X73253887Y-64034714D01*
X73424772Y-63965672D01*
X73605809Y-63931138D01*
X73790115Y-63932424D01*
X73790115Y-63932424D01*
G37*
G36*
X50930115Y-63932424D02*
X51110648Y-63969483D01*
X51280558Y-64040906D01*
X51433349Y-64143966D01*
X51563221Y-64274746D01*
X51665210Y-64428253D01*
X51735443Y-64598651D01*
X51771172Y-64779099D01*
X51771172Y-64779104D01*
X51771240Y-64779448D01*
X51768301Y-64989958D01*
X51768224Y-64990296D01*
X51768224Y-64990306D01*
X51727470Y-65169686D01*
X51652508Y-65338052D01*
X51546268Y-65488656D01*
X51412799Y-65615757D01*
X51257184Y-65714514D01*
X51085354Y-65781162D01*
X50903852Y-65813166D01*
X50719586Y-65809306D01*
X50539579Y-65769729D01*
X50370688Y-65695943D01*
X50219350Y-65590760D01*
X50091321Y-65458182D01*
X49991481Y-65303261D01*
X49923632Y-65131893D01*
X49890363Y-64950623D01*
X49892935Y-64766336D01*
X49931256Y-64586056D01*
X50003859Y-64416657D01*
X50107987Y-64264584D01*
X50239666Y-64135633D01*
X50393887Y-64034714D01*
X50564772Y-63965672D01*
X50745809Y-63931138D01*
X50930115Y-63932424D01*
X50930115Y-63932424D01*
G37*
G36*
X73790115Y-61392424D02*
X73970648Y-61429483D01*
X74140558Y-61500906D01*
X74293349Y-61603966D01*
X74423221Y-61734746D01*
X74525210Y-61888253D01*
X74595443Y-62058651D01*
X74631172Y-62239099D01*
X74631172Y-62239104D01*
X74631240Y-62239448D01*
X74628301Y-62449958D01*
X74628224Y-62450296D01*
X74628224Y-62450306D01*
X74587470Y-62629686D01*
X74512508Y-62798052D01*
X74406268Y-62948656D01*
X74272799Y-63075757D01*
X74117184Y-63174514D01*
X73945354Y-63241162D01*
X73763852Y-63273166D01*
X73579586Y-63269306D01*
X73399579Y-63229729D01*
X73230688Y-63155943D01*
X73079350Y-63050760D01*
X72951321Y-62918182D01*
X72851481Y-62763261D01*
X72783632Y-62591893D01*
X72750363Y-62410623D01*
X72752935Y-62226336D01*
X72791256Y-62046056D01*
X72863859Y-61876657D01*
X72967987Y-61724584D01*
X73099666Y-61595633D01*
X73253887Y-61494714D01*
X73424772Y-61425672D01*
X73605809Y-61391138D01*
X73790115Y-61392424D01*
X73790115Y-61392424D01*
G37*
G36*
X50930115Y-61392424D02*
X51110648Y-61429483D01*
X51280558Y-61500906D01*
X51433349Y-61603966D01*
X51563221Y-61734746D01*
X51665210Y-61888253D01*
X51735443Y-62058651D01*
X51771172Y-62239099D01*
X51771172Y-62239104D01*
X51771240Y-62239448D01*
X51768301Y-62449958D01*
X51768224Y-62450296D01*
X51768224Y-62450306D01*
X51727470Y-62629686D01*
X51652508Y-62798052D01*
X51546268Y-62948656D01*
X51412799Y-63075757D01*
X51257184Y-63174514D01*
X51085354Y-63241162D01*
X50903852Y-63273166D01*
X50719586Y-63269306D01*
X50539579Y-63229729D01*
X50370688Y-63155943D01*
X50219350Y-63050760D01*
X50091321Y-62918182D01*
X49991481Y-62763261D01*
X49923632Y-62591893D01*
X49890363Y-62410623D01*
X49892935Y-62226336D01*
X49931256Y-62046056D01*
X50003859Y-61876657D01*
X50107987Y-61724584D01*
X50239666Y-61595633D01*
X50393887Y-61494714D01*
X50564772Y-61425672D01*
X50745809Y-61391138D01*
X50930115Y-61392424D01*
X50930115Y-61392424D01*
G37*
G36*
X50930115Y-58852424D02*
X51110648Y-58889483D01*
X51280558Y-58960906D01*
X51433349Y-59063966D01*
X51563221Y-59194746D01*
X51665210Y-59348253D01*
X51735443Y-59518651D01*
X51771172Y-59699099D01*
X51771172Y-59699104D01*
X51771240Y-59699448D01*
X51768301Y-59909958D01*
X51768224Y-59910296D01*
X51768224Y-59910306D01*
X51727470Y-60089686D01*
X51652508Y-60258052D01*
X51546268Y-60408656D01*
X51412799Y-60535757D01*
X51257184Y-60634514D01*
X51085354Y-60701162D01*
X50903852Y-60733166D01*
X50719586Y-60729306D01*
X50539579Y-60689729D01*
X50370688Y-60615943D01*
X50219350Y-60510760D01*
X50091321Y-60378182D01*
X49991481Y-60223261D01*
X49923632Y-60051893D01*
X49890363Y-59870623D01*
X49892935Y-59686336D01*
X49931256Y-59506056D01*
X50003859Y-59336657D01*
X50107987Y-59184584D01*
X50239666Y-59055633D01*
X50393887Y-58954714D01*
X50564772Y-58885672D01*
X50745809Y-58851138D01*
X50930115Y-58852424D01*
X50930115Y-58852424D01*
G37*
G36*
X73790115Y-58852424D02*
X73970648Y-58889483D01*
X74140558Y-58960906D01*
X74293349Y-59063966D01*
X74423221Y-59194746D01*
X74525210Y-59348253D01*
X74595443Y-59518651D01*
X74631172Y-59699099D01*
X74631172Y-59699104D01*
X74631240Y-59699448D01*
X74628301Y-59909958D01*
X74628224Y-59910296D01*
X74628224Y-59910306D01*
X74587470Y-60089686D01*
X74512508Y-60258052D01*
X74406268Y-60408656D01*
X74272799Y-60535757D01*
X74117184Y-60634514D01*
X73945354Y-60701162D01*
X73763852Y-60733166D01*
X73579586Y-60729306D01*
X73399579Y-60689729D01*
X73230688Y-60615943D01*
X73079350Y-60510760D01*
X72951321Y-60378182D01*
X72851481Y-60223261D01*
X72783632Y-60051893D01*
X72750363Y-59870623D01*
X72752935Y-59686336D01*
X72791256Y-59506056D01*
X72863859Y-59336657D01*
X72967987Y-59184584D01*
X73099666Y-59055633D01*
X73253887Y-58954714D01*
X73424772Y-58885672D01*
X73605809Y-58851138D01*
X73790115Y-58852424D01*
X73790115Y-58852424D01*
G37*
G36*
X82263510Y-54427447D02*
X82854455Y-54548751D01*
X83410598Y-54782532D01*
X83910734Y-55119878D01*
X84335821Y-55547943D01*
X84669666Y-56050421D01*
X84899556Y-56608176D01*
X85016664Y-57199614D01*
X85016664Y-57199624D01*
X85016731Y-57199963D01*
X85007110Y-57889016D01*
X85007033Y-57889354D01*
X85007033Y-57889362D01*
X84873457Y-58477301D01*
X84628085Y-59028416D01*
X84280337Y-59521378D01*
X83843462Y-59937409D01*
X83334100Y-60260661D01*
X82771654Y-60478819D01*
X82177547Y-60583576D01*
X81574403Y-60570942D01*
X80985200Y-60441397D01*
X80432382Y-60199877D01*
X79937007Y-59855582D01*
X79517937Y-59421623D01*
X79191138Y-58914530D01*
X78969056Y-58353614D01*
X78860155Y-57760258D01*
X78868577Y-57157041D01*
X78994006Y-56566947D01*
X79231659Y-56012458D01*
X79572491Y-55514688D01*
X80003512Y-55092600D01*
X80508313Y-54762268D01*
X81067659Y-54536277D01*
X81660245Y-54423236D01*
X82263510Y-54427447D01*
X82263510Y-54427447D01*
G37*
G36*
X42264510Y-54427447D02*
X42855455Y-54548751D01*
X43411598Y-54782532D01*
X43911734Y-55119878D01*
X44336821Y-55547943D01*
X44670666Y-56050421D01*
X44900556Y-56608176D01*
X45017664Y-57199614D01*
X45017664Y-57199624D01*
X45017731Y-57199963D01*
X45008110Y-57889016D01*
X45008033Y-57889354D01*
X45008033Y-57889362D01*
X44874457Y-58477301D01*
X44629085Y-59028416D01*
X44281337Y-59521378D01*
X43844462Y-59937409D01*
X43335100Y-60260661D01*
X42772654Y-60478819D01*
X42178547Y-60583576D01*
X41575403Y-60570942D01*
X40986200Y-60441397D01*
X40433382Y-60199877D01*
X39938007Y-59855582D01*
X39518937Y-59421623D01*
X39192138Y-58914530D01*
X38970056Y-58353614D01*
X38861155Y-57760258D01*
X38869577Y-57157041D01*
X38995006Y-56566947D01*
X39232659Y-56012458D01*
X39573491Y-55514688D01*
X40004512Y-55092600D01*
X40509313Y-54762268D01*
X41068659Y-54536277D01*
X41661245Y-54423236D01*
X42264510Y-54427447D01*
X42264510Y-54427447D01*
G37*
G36*
X73790115Y-56312424D02*
X73970648Y-56349483D01*
X74140558Y-56420906D01*
X74293349Y-56523966D01*
X74423221Y-56654746D01*
X74525210Y-56808253D01*
X74595443Y-56978651D01*
X74631172Y-57159099D01*
X74631172Y-57159104D01*
X74631240Y-57159448D01*
X74628301Y-57369958D01*
X74628224Y-57370296D01*
X74628224Y-57370306D01*
X74587470Y-57549686D01*
X74512508Y-57718052D01*
X74406268Y-57868656D01*
X74272799Y-57995757D01*
X74117184Y-58094514D01*
X73945354Y-58161162D01*
X73763852Y-58193166D01*
X73579586Y-58189306D01*
X73399579Y-58149729D01*
X73230688Y-58075943D01*
X73079350Y-57970760D01*
X72951321Y-57838182D01*
X72851481Y-57683261D01*
X72783632Y-57511893D01*
X72750363Y-57330623D01*
X72752935Y-57146336D01*
X72791256Y-56966056D01*
X72863859Y-56796657D01*
X72967987Y-56644584D01*
X73099666Y-56515633D01*
X73253887Y-56414714D01*
X73424772Y-56345672D01*
X73605809Y-56311138D01*
X73790115Y-56312424D01*
X73790115Y-56312424D01*
G37*
G36*
X50930115Y-56312424D02*
X51110648Y-56349483D01*
X51280558Y-56420906D01*
X51433349Y-56523966D01*
X51563221Y-56654746D01*
X51665210Y-56808253D01*
X51735443Y-56978651D01*
X51771172Y-57159099D01*
X51771172Y-57159104D01*
X51771240Y-57159448D01*
X51768301Y-57369958D01*
X51768224Y-57370296D01*
X51768224Y-57370306D01*
X51727470Y-57549686D01*
X51652508Y-57718052D01*
X51546268Y-57868656D01*
X51412799Y-57995757D01*
X51257184Y-58094514D01*
X51085354Y-58161162D01*
X50903852Y-58193166D01*
X50719586Y-58189306D01*
X50539579Y-58149729D01*
X50370688Y-58075943D01*
X50219350Y-57970760D01*
X50091321Y-57838182D01*
X49991481Y-57683261D01*
X49923632Y-57511893D01*
X49890363Y-57330623D01*
X49892935Y-57146336D01*
X49931256Y-56966056D01*
X50003859Y-56796657D01*
X50107987Y-56644584D01*
X50239666Y-56515633D01*
X50393887Y-56414714D01*
X50564772Y-56345672D01*
X50745809Y-56311138D01*
X50930115Y-56312424D01*
X50930115Y-56312424D01*
G37*
G36*
X50930115Y-53772424D02*
X51110648Y-53809483D01*
X51280558Y-53880906D01*
X51433349Y-53983966D01*
X51563221Y-54114746D01*
X51665210Y-54268253D01*
X51735443Y-54438651D01*
X51771172Y-54619099D01*
X51771172Y-54619104D01*
X51771240Y-54619448D01*
X51768301Y-54829958D01*
X51768224Y-54830296D01*
X51768224Y-54830306D01*
X51727470Y-55009686D01*
X51652508Y-55178052D01*
X51546268Y-55328656D01*
X51412799Y-55455757D01*
X51257184Y-55554514D01*
X51085354Y-55621162D01*
X50903852Y-55653166D01*
X50719586Y-55649306D01*
X50539579Y-55609729D01*
X50370688Y-55535943D01*
X50219350Y-55430760D01*
X50091321Y-55298182D01*
X49991481Y-55143261D01*
X49923632Y-54971893D01*
X49890363Y-54790623D01*
X49892935Y-54606336D01*
X49931256Y-54426056D01*
X50003859Y-54256657D01*
X50107987Y-54104584D01*
X50239666Y-53975633D01*
X50393887Y-53874714D01*
X50564772Y-53805672D01*
X50745809Y-53771138D01*
X50930115Y-53772424D01*
X50930115Y-53772424D01*
G37*
G36*
X73790115Y-53772424D02*
X73970648Y-53809483D01*
X74140558Y-53880906D01*
X74293349Y-53983966D01*
X74423221Y-54114746D01*
X74525210Y-54268253D01*
X74595443Y-54438651D01*
X74631172Y-54619099D01*
X74631172Y-54619104D01*
X74631240Y-54619448D01*
X74628301Y-54829958D01*
X74628224Y-54830296D01*
X74628224Y-54830306D01*
X74587470Y-55009686D01*
X74512508Y-55178052D01*
X74406268Y-55328656D01*
X74272799Y-55455757D01*
X74117184Y-55554514D01*
X73945354Y-55621162D01*
X73763852Y-55653166D01*
X73579586Y-55649306D01*
X73399579Y-55609729D01*
X73230688Y-55535943D01*
X73079350Y-55430760D01*
X72951321Y-55298182D01*
X72851481Y-55143261D01*
X72783632Y-54971893D01*
X72750363Y-54790623D01*
X72752935Y-54606336D01*
X72791256Y-54426056D01*
X72863859Y-54256657D01*
X72967987Y-54104584D01*
X73099666Y-53975633D01*
X73253887Y-53874714D01*
X73424772Y-53805672D01*
X73605809Y-53771138D01*
X73790115Y-53772424D01*
X73790115Y-53772424D01*
G37*
G36*
X50930115Y-51232424D02*
X51110648Y-51269483D01*
X51280558Y-51340906D01*
X51433349Y-51443966D01*
X51563221Y-51574746D01*
X51665210Y-51728253D01*
X51735443Y-51898651D01*
X51771172Y-52079099D01*
X51771172Y-52079104D01*
X51771240Y-52079448D01*
X51768301Y-52289958D01*
X51768224Y-52290296D01*
X51768224Y-52290306D01*
X51727470Y-52469686D01*
X51652508Y-52638052D01*
X51546268Y-52788656D01*
X51412799Y-52915757D01*
X51257184Y-53014514D01*
X51085354Y-53081162D01*
X50903852Y-53113166D01*
X50719586Y-53109306D01*
X50539579Y-53069729D01*
X50370688Y-52995943D01*
X50219350Y-52890760D01*
X50091321Y-52758182D01*
X49991481Y-52603261D01*
X49923632Y-52431893D01*
X49890363Y-52250623D01*
X49892935Y-52066336D01*
X49931256Y-51886056D01*
X50003859Y-51716657D01*
X50107987Y-51564584D01*
X50239666Y-51435633D01*
X50393887Y-51334714D01*
X50564772Y-51265672D01*
X50745809Y-51231138D01*
X50930115Y-51232424D01*
X50930115Y-51232424D01*
G37*
G36*
X73790115Y-51232424D02*
X73970648Y-51269483D01*
X74140558Y-51340906D01*
X74293349Y-51443966D01*
X74423221Y-51574746D01*
X74525210Y-51728253D01*
X74595443Y-51898651D01*
X74631172Y-52079099D01*
X74631172Y-52079104D01*
X74631240Y-52079448D01*
X74628301Y-52289958D01*
X74628224Y-52290296D01*
X74628224Y-52290306D01*
X74587470Y-52469686D01*
X74512508Y-52638052D01*
X74406268Y-52788656D01*
X74272799Y-52915757D01*
X74117184Y-53014514D01*
X73945354Y-53081162D01*
X73763852Y-53113166D01*
X73579586Y-53109306D01*
X73399579Y-53069729D01*
X73230688Y-52995943D01*
X73079350Y-52890760D01*
X72951321Y-52758182D01*
X72851481Y-52603261D01*
X72783632Y-52431893D01*
X72750363Y-52250623D01*
X72752935Y-52066336D01*
X72791256Y-51886056D01*
X72863859Y-51716657D01*
X72967987Y-51564584D01*
X73099666Y-51435633D01*
X73253887Y-51334714D01*
X73424772Y-51265672D01*
X73605809Y-51231138D01*
X73790115Y-51232424D01*
X73790115Y-51232424D01*
G37*
G36*
X42264510Y-46427447D02*
X42855455Y-46548751D01*
X43411598Y-46782532D01*
X43911734Y-47119878D01*
X44336821Y-47547943D01*
X44670666Y-48050421D01*
X44900556Y-48608176D01*
X45017664Y-49199614D01*
X45017664Y-49199624D01*
X45017731Y-49199963D01*
X45008110Y-49889016D01*
X45008033Y-49889354D01*
X45008033Y-49889362D01*
X44874457Y-50477301D01*
X44629085Y-51028416D01*
X44281337Y-51521378D01*
X43844462Y-51937409D01*
X43335100Y-52260661D01*
X42772654Y-52478819D01*
X42178547Y-52583576D01*
X41575403Y-52570942D01*
X40986200Y-52441397D01*
X40433382Y-52199877D01*
X39938007Y-51855582D01*
X39518937Y-51421623D01*
X39192138Y-50914530D01*
X38970056Y-50353614D01*
X38861155Y-49760258D01*
X38869577Y-49157041D01*
X38995006Y-48566947D01*
X39232659Y-48012458D01*
X39573491Y-47514688D01*
X40004512Y-47092600D01*
X40509313Y-46762268D01*
X41068659Y-46536277D01*
X41661245Y-46423236D01*
X42264510Y-46427447D01*
X42264510Y-46427447D01*
G37*
G36*
X82263510Y-46427447D02*
X82854455Y-46548751D01*
X83410598Y-46782532D01*
X83910734Y-47119878D01*
X84335821Y-47547943D01*
X84669666Y-48050421D01*
X84899556Y-48608176D01*
X85016664Y-49199614D01*
X85016664Y-49199624D01*
X85016731Y-49199963D01*
X85007110Y-49889016D01*
X85007033Y-49889354D01*
X85007033Y-49889362D01*
X84873457Y-50477301D01*
X84628085Y-51028416D01*
X84280337Y-51521378D01*
X83843462Y-51937409D01*
X83334100Y-52260661D01*
X82771654Y-52478819D01*
X82177547Y-52583576D01*
X81574403Y-52570942D01*
X80985200Y-52441397D01*
X80432382Y-52199877D01*
X79937007Y-51855582D01*
X79517937Y-51421623D01*
X79191138Y-50914530D01*
X78969056Y-50353614D01*
X78860155Y-49760258D01*
X78868577Y-49157041D01*
X78994006Y-48566947D01*
X79231659Y-48012458D01*
X79572491Y-47514688D01*
X80003512Y-47092600D01*
X80508313Y-46762268D01*
X81067659Y-46536277D01*
X81660245Y-46423236D01*
X82263510Y-46427447D01*
X82263510Y-46427447D01*
G37*
G36*
X73790115Y-48692424D02*
X73970648Y-48729483D01*
X74140558Y-48800906D01*
X74293349Y-48903966D01*
X74423221Y-49034746D01*
X74525210Y-49188253D01*
X74595443Y-49358651D01*
X74631172Y-49539099D01*
X74631172Y-49539104D01*
X74631240Y-49539448D01*
X74628301Y-49749958D01*
X74628224Y-49750296D01*
X74628224Y-49750306D01*
X74587470Y-49929686D01*
X74512508Y-50098052D01*
X74406268Y-50248656D01*
X74272799Y-50375757D01*
X74117184Y-50474514D01*
X73945354Y-50541162D01*
X73763852Y-50573166D01*
X73579586Y-50569306D01*
X73399579Y-50529729D01*
X73230688Y-50455943D01*
X73079350Y-50350760D01*
X72951321Y-50218182D01*
X72851481Y-50063261D01*
X72783632Y-49891893D01*
X72750363Y-49710623D01*
X72752935Y-49526336D01*
X72791256Y-49346056D01*
X72863859Y-49176657D01*
X72967987Y-49024584D01*
X73099666Y-48895633D01*
X73253887Y-48794714D01*
X73424772Y-48725672D01*
X73605809Y-48691138D01*
X73790115Y-48692424D01*
X73790115Y-48692424D01*
G37*
G36*
X50930115Y-48692424D02*
X51110648Y-48729483D01*
X51280558Y-48800906D01*
X51433349Y-48903966D01*
X51563221Y-49034746D01*
X51665210Y-49188253D01*
X51735443Y-49358651D01*
X51771172Y-49539099D01*
X51771172Y-49539104D01*
X51771240Y-49539448D01*
X51768301Y-49749958D01*
X51768224Y-49750296D01*
X51768224Y-49750306D01*
X51727470Y-49929686D01*
X51652508Y-50098052D01*
X51546268Y-50248656D01*
X51412799Y-50375757D01*
X51257184Y-50474514D01*
X51085354Y-50541162D01*
X50903852Y-50573166D01*
X50719586Y-50569306D01*
X50539579Y-50529729D01*
X50370688Y-50455943D01*
X50219350Y-50350760D01*
X50091321Y-50218182D01*
X49991481Y-50063261D01*
X49923632Y-49891893D01*
X49890363Y-49710623D01*
X49892935Y-49526336D01*
X49931256Y-49346056D01*
X50003859Y-49176657D01*
X50107987Y-49024584D01*
X50239666Y-48895633D01*
X50393887Y-48794714D01*
X50564772Y-48725672D01*
X50745809Y-48691138D01*
X50930115Y-48692424D01*
X50930115Y-48692424D01*
G37*
G36*
X42264510Y-38427447D02*
X42855455Y-38548751D01*
X43411598Y-38782532D01*
X43911734Y-39119878D01*
X44336821Y-39547943D01*
X44670666Y-40050421D01*
X44900556Y-40608176D01*
X45017664Y-41199614D01*
X45017664Y-41199624D01*
X45017731Y-41199963D01*
X45008110Y-41889016D01*
X45008033Y-41889354D01*
X45008033Y-41889362D01*
X44874457Y-42477301D01*
X44629085Y-43028416D01*
X44281337Y-43521378D01*
X43844462Y-43937409D01*
X43335100Y-44260661D01*
X42772654Y-44478819D01*
X42178547Y-44583576D01*
X41575403Y-44570942D01*
X40986200Y-44441397D01*
X40433382Y-44199877D01*
X39938007Y-43855582D01*
X39518937Y-43421623D01*
X39192138Y-42914530D01*
X38970056Y-42353614D01*
X38861155Y-41760258D01*
X38869577Y-41157041D01*
X38995006Y-40566947D01*
X39232659Y-40012458D01*
X39573491Y-39514688D01*
X40004512Y-39092600D01*
X40509313Y-38762268D01*
X41068659Y-38536277D01*
X41661245Y-38423236D01*
X42264510Y-38427447D01*
X42264510Y-38427447D01*
G37*
G36*
X82263510Y-38427447D02*
X82854455Y-38548751D01*
X83410598Y-38782532D01*
X83910734Y-39119878D01*
X84335821Y-39547943D01*
X84669666Y-40050421D01*
X84899556Y-40608176D01*
X85016664Y-41199614D01*
X85016664Y-41199624D01*
X85016731Y-41199963D01*
X85007110Y-41889016D01*
X85007033Y-41889354D01*
X85007033Y-41889362D01*
X84873457Y-42477301D01*
X84628085Y-43028416D01*
X84280337Y-43521378D01*
X83843462Y-43937409D01*
X83334100Y-44260661D01*
X82771654Y-44478819D01*
X82177547Y-44583576D01*
X81574403Y-44570942D01*
X80985200Y-44441397D01*
X80432382Y-44199877D01*
X79937007Y-43855582D01*
X79517937Y-43421623D01*
X79191138Y-42914530D01*
X78969056Y-42353614D01*
X78860155Y-41760258D01*
X78868577Y-41157041D01*
X78994006Y-40566947D01*
X79231659Y-40012458D01*
X79572491Y-39514688D01*
X80003512Y-39092600D01*
X80508313Y-38762268D01*
X81067659Y-38536277D01*
X81660245Y-38423236D01*
X82263510Y-38427447D01*
X82263510Y-38427447D01*
G37*
G36*
X61128749Y-38430277D02*
X61128754Y-38430278D01*
X61130807Y-38430292D01*
X61313080Y-38450737D01*
X61487912Y-38506197D01*
X61648641Y-38594558D01*
X61789146Y-38712456D01*
X61904076Y-38855400D01*
X61989052Y-39017945D01*
X62040839Y-39193899D01*
X62040843Y-39193940D01*
X62040844Y-39193944D01*
X62057463Y-39376558D01*
X62042944Y-39514690D01*
X62038290Y-39558973D01*
X61984052Y-39734187D01*
X61896815Y-39895529D01*
X61779900Y-40036855D01*
X61637762Y-40152779D01*
X61475815Y-40238888D01*
X61300226Y-40291902D01*
X61117685Y-40309800D01*
X60802283Y-40309800D01*
X60791251Y-40309723D01*
X60791246Y-40309722D01*
X60789193Y-40309708D01*
X60606920Y-40289263D01*
X60432088Y-40233803D01*
X60271359Y-40145442D01*
X60130854Y-40027544D01*
X60015924Y-39884600D01*
X59930948Y-39722055D01*
X59879161Y-39546101D01*
X59879157Y-39546060D01*
X59879156Y-39546056D01*
X59862537Y-39363442D01*
X59881705Y-39181074D01*
X59881710Y-39181027D01*
X59935948Y-39005813D01*
X60023185Y-38844471D01*
X60140100Y-38703145D01*
X60282238Y-38587221D01*
X60444185Y-38501112D01*
X60619774Y-38448098D01*
X60802315Y-38430200D01*
X61117717Y-38430200D01*
X61128749Y-38430277D01*
X61128749Y-38430277D01*
G37*
G36*
X66208749Y-38430277D02*
X66208754Y-38430278D01*
X66210807Y-38430292D01*
X66393080Y-38450737D01*
X66567912Y-38506197D01*
X66728641Y-38594558D01*
X66869146Y-38712456D01*
X66984076Y-38855400D01*
X67069052Y-39017945D01*
X67120839Y-39193899D01*
X67120843Y-39193940D01*
X67120844Y-39193944D01*
X67137463Y-39376558D01*
X67122944Y-39514690D01*
X67118290Y-39558973D01*
X67064052Y-39734187D01*
X66976815Y-39895529D01*
X66859900Y-40036855D01*
X66717762Y-40152779D01*
X66555815Y-40238888D01*
X66380226Y-40291902D01*
X66197685Y-40309800D01*
X65882283Y-40309800D01*
X65871251Y-40309723D01*
X65871246Y-40309722D01*
X65869193Y-40309708D01*
X65686920Y-40289263D01*
X65512088Y-40233803D01*
X65351359Y-40145442D01*
X65210854Y-40027544D01*
X65095924Y-39884600D01*
X65010948Y-39722055D01*
X64959161Y-39546101D01*
X64959157Y-39546060D01*
X64959156Y-39546056D01*
X64942537Y-39363442D01*
X64961705Y-39181074D01*
X64961710Y-39181027D01*
X65015948Y-39005813D01*
X65103185Y-38844471D01*
X65220100Y-38703145D01*
X65362238Y-38587221D01*
X65524185Y-38501112D01*
X65699774Y-38448098D01*
X65882315Y-38430200D01*
X66197717Y-38430200D01*
X66208749Y-38430277D01*
X66208749Y-38430277D01*
G37*
G36*
X63668749Y-38430277D02*
X63668754Y-38430278D01*
X63670807Y-38430292D01*
X63853080Y-38450737D01*
X64027912Y-38506197D01*
X64188641Y-38594558D01*
X64329146Y-38712456D01*
X64444076Y-38855400D01*
X64529052Y-39017945D01*
X64580839Y-39193899D01*
X64580843Y-39193940D01*
X64580844Y-39193944D01*
X64597463Y-39376558D01*
X64582944Y-39514690D01*
X64578290Y-39558973D01*
X64524052Y-39734187D01*
X64436815Y-39895529D01*
X64319900Y-40036855D01*
X64177762Y-40152779D01*
X64015815Y-40238888D01*
X63840226Y-40291902D01*
X63657685Y-40309800D01*
X63342283Y-40309800D01*
X63331251Y-40309723D01*
X63331246Y-40309722D01*
X63329193Y-40309708D01*
X63146920Y-40289263D01*
X62972088Y-40233803D01*
X62811359Y-40145442D01*
X62670854Y-40027544D01*
X62555924Y-39884600D01*
X62470948Y-39722055D01*
X62419161Y-39546101D01*
X62419157Y-39546060D01*
X62419156Y-39546056D01*
X62402537Y-39363442D01*
X62421705Y-39181074D01*
X62421710Y-39181027D01*
X62475948Y-39005813D01*
X62563185Y-38844471D01*
X62680100Y-38703145D01*
X62822238Y-38587221D01*
X62984185Y-38501112D01*
X63159774Y-38448098D01*
X63342315Y-38430200D01*
X63657717Y-38430200D01*
X63668749Y-38430277D01*
X63668749Y-38430277D01*
G37*
G36*
X58588749Y-38430277D02*
X58588754Y-38430278D01*
X58590807Y-38430292D01*
X58773080Y-38450737D01*
X58947912Y-38506197D01*
X59108641Y-38594558D01*
X59249146Y-38712456D01*
X59364076Y-38855400D01*
X59449052Y-39017945D01*
X59500839Y-39193899D01*
X59500843Y-39193940D01*
X59500844Y-39193944D01*
X59517463Y-39376558D01*
X59502944Y-39514690D01*
X59498290Y-39558973D01*
X59444052Y-39734187D01*
X59356815Y-39895529D01*
X59239900Y-40036855D01*
X59097762Y-40152779D01*
X58935815Y-40238888D01*
X58760226Y-40291902D01*
X58577685Y-40309800D01*
X58262283Y-40309800D01*
X58251251Y-40309723D01*
X58251246Y-40309722D01*
X58249193Y-40309708D01*
X58066920Y-40289263D01*
X57892088Y-40233803D01*
X57731359Y-40145442D01*
X57590854Y-40027544D01*
X57475924Y-39884600D01*
X57390948Y-39722055D01*
X57339161Y-39546101D01*
X57339157Y-39546060D01*
X57339156Y-39546056D01*
X57322537Y-39363442D01*
X57341705Y-39181074D01*
X57341710Y-39181027D01*
X57395948Y-39005813D01*
X57483185Y-38844471D01*
X57600100Y-38703145D01*
X57742238Y-38587221D01*
X57904185Y-38501112D01*
X58079774Y-38448098D01*
X58262315Y-38430200D01*
X58577717Y-38430200D01*
X58588749Y-38430277D01*
X58588749Y-38430277D01*
G37*
G36*
X58588749Y-35890277D02*
X58588754Y-35890278D01*
X58590807Y-35890292D01*
X58773080Y-35910737D01*
X58947912Y-35966197D01*
X59108641Y-36054558D01*
X59249146Y-36172456D01*
X59364076Y-36315400D01*
X59449052Y-36477945D01*
X59500839Y-36653899D01*
X59500843Y-36653940D01*
X59500844Y-36653944D01*
X59517463Y-36836558D01*
X59499648Y-37006056D01*
X59498290Y-37018973D01*
X59444052Y-37194187D01*
X59356815Y-37355529D01*
X59239900Y-37496855D01*
X59097762Y-37612779D01*
X58935815Y-37698888D01*
X58760226Y-37751902D01*
X58577685Y-37769800D01*
X58262283Y-37769800D01*
X58251251Y-37769723D01*
X58251246Y-37769722D01*
X58249193Y-37769708D01*
X58066920Y-37749263D01*
X57892088Y-37693803D01*
X57731359Y-37605442D01*
X57590854Y-37487544D01*
X57475924Y-37344600D01*
X57390948Y-37182055D01*
X57339161Y-37006101D01*
X57339157Y-37006060D01*
X57339156Y-37006056D01*
X57322537Y-36823442D01*
X57341705Y-36641074D01*
X57341710Y-36641027D01*
X57395948Y-36465813D01*
X57483185Y-36304471D01*
X57600100Y-36163145D01*
X57742238Y-36047221D01*
X57904185Y-35961112D01*
X58079774Y-35908098D01*
X58262315Y-35890200D01*
X58577717Y-35890200D01*
X58588749Y-35890277D01*
X58588749Y-35890277D01*
G37*
G36*
X61128749Y-35890277D02*
X61128754Y-35890278D01*
X61130807Y-35890292D01*
X61313080Y-35910737D01*
X61487912Y-35966197D01*
X61648641Y-36054558D01*
X61789146Y-36172456D01*
X61904076Y-36315400D01*
X61989052Y-36477945D01*
X62040839Y-36653899D01*
X62040843Y-36653940D01*
X62040844Y-36653944D01*
X62057463Y-36836558D01*
X62039648Y-37006056D01*
X62038290Y-37018973D01*
X61984052Y-37194187D01*
X61896815Y-37355529D01*
X61779900Y-37496855D01*
X61637762Y-37612779D01*
X61475815Y-37698888D01*
X61300226Y-37751902D01*
X61117685Y-37769800D01*
X60802283Y-37769800D01*
X60791251Y-37769723D01*
X60791246Y-37769722D01*
X60789193Y-37769708D01*
X60606920Y-37749263D01*
X60432088Y-37693803D01*
X60271359Y-37605442D01*
X60130854Y-37487544D01*
X60015924Y-37344600D01*
X59930948Y-37182055D01*
X59879161Y-37006101D01*
X59879157Y-37006060D01*
X59879156Y-37006056D01*
X59862537Y-36823442D01*
X59881705Y-36641074D01*
X59881710Y-36641027D01*
X59935948Y-36465813D01*
X60023185Y-36304471D01*
X60140100Y-36163145D01*
X60282238Y-36047221D01*
X60444185Y-35961112D01*
X60619774Y-35908098D01*
X60802315Y-35890200D01*
X61117717Y-35890200D01*
X61128749Y-35890277D01*
X61128749Y-35890277D01*
G37*
G36*
X63668749Y-35890277D02*
X63668754Y-35890278D01*
X63670807Y-35890292D01*
X63853080Y-35910737D01*
X64027912Y-35966197D01*
X64188641Y-36054558D01*
X64329146Y-36172456D01*
X64444076Y-36315400D01*
X64529052Y-36477945D01*
X64580839Y-36653899D01*
X64580843Y-36653940D01*
X64580844Y-36653944D01*
X64597463Y-36836558D01*
X64579648Y-37006056D01*
X64578290Y-37018973D01*
X64524052Y-37194187D01*
X64436815Y-37355529D01*
X64319900Y-37496855D01*
X64177762Y-37612779D01*
X64015815Y-37698888D01*
X63840226Y-37751902D01*
X63657685Y-37769800D01*
X63342283Y-37769800D01*
X63331251Y-37769723D01*
X63331246Y-37769722D01*
X63329193Y-37769708D01*
X63146920Y-37749263D01*
X62972088Y-37693803D01*
X62811359Y-37605442D01*
X62670854Y-37487544D01*
X62555924Y-37344600D01*
X62470948Y-37182055D01*
X62419161Y-37006101D01*
X62419157Y-37006060D01*
X62419156Y-37006056D01*
X62402537Y-36823442D01*
X62421705Y-36641074D01*
X62421710Y-36641027D01*
X62475948Y-36465813D01*
X62563185Y-36304471D01*
X62680100Y-36163145D01*
X62822238Y-36047221D01*
X62984185Y-35961112D01*
X63159774Y-35908098D01*
X63342315Y-35890200D01*
X63657717Y-35890200D01*
X63668749Y-35890277D01*
X63668749Y-35890277D01*
G37*
G36*
X66208749Y-35890277D02*
X66208754Y-35890278D01*
X66210807Y-35890292D01*
X66393080Y-35910737D01*
X66567912Y-35966197D01*
X66728641Y-36054558D01*
X66869146Y-36172456D01*
X66984076Y-36315400D01*
X67069052Y-36477945D01*
X67120839Y-36653899D01*
X67120843Y-36653940D01*
X67120844Y-36653944D01*
X67137463Y-36836558D01*
X67119648Y-37006056D01*
X67118290Y-37018973D01*
X67064052Y-37194187D01*
X66976815Y-37355529D01*
X66859900Y-37496855D01*
X66717762Y-37612779D01*
X66555815Y-37698888D01*
X66380226Y-37751902D01*
X66197685Y-37769800D01*
X65882283Y-37769800D01*
X65871251Y-37769723D01*
X65871246Y-37769722D01*
X65869193Y-37769708D01*
X65686920Y-37749263D01*
X65512088Y-37693803D01*
X65351359Y-37605442D01*
X65210854Y-37487544D01*
X65095924Y-37344600D01*
X65010948Y-37182055D01*
X64959161Y-37006101D01*
X64959157Y-37006060D01*
X64959156Y-37006056D01*
X64942537Y-36823442D01*
X64961705Y-36641074D01*
X64961710Y-36641027D01*
X65015948Y-36465813D01*
X65103185Y-36304471D01*
X65220100Y-36163145D01*
X65362238Y-36047221D01*
X65524185Y-35961112D01*
X65699774Y-35908098D01*
X65882315Y-35890200D01*
X66197717Y-35890200D01*
X66208749Y-35890277D01*
X66208749Y-35890277D01*
G37*
G36*
X82263510Y-30427447D02*
X82854455Y-30548751D01*
X83410598Y-30782532D01*
X83910734Y-31119878D01*
X84335821Y-31547943D01*
X84669666Y-32050421D01*
X84899556Y-32608176D01*
X85016664Y-33199614D01*
X85016664Y-33199624D01*
X85016731Y-33199963D01*
X85007110Y-33889016D01*
X85007033Y-33889354D01*
X85007033Y-33889362D01*
X84873457Y-34477301D01*
X84628085Y-35028416D01*
X84280337Y-35521378D01*
X83843462Y-35937409D01*
X83334100Y-36260661D01*
X82771654Y-36478819D01*
X82177547Y-36583576D01*
X81574403Y-36570942D01*
X80985200Y-36441397D01*
X80432382Y-36199877D01*
X79937007Y-35855582D01*
X79517937Y-35421623D01*
X79191138Y-34914530D01*
X78969056Y-34353614D01*
X78860155Y-33760258D01*
X78868577Y-33157041D01*
X78994006Y-32566947D01*
X79231659Y-32012458D01*
X79572491Y-31514688D01*
X80003512Y-31092600D01*
X80508313Y-30762268D01*
X81067659Y-30536277D01*
X81660245Y-30423236D01*
X82263510Y-30427447D01*
X82263510Y-30427447D01*
G37*
G36*
X42264510Y-30427447D02*
X42855455Y-30548751D01*
X43411598Y-30782532D01*
X43911734Y-31119878D01*
X44336821Y-31547943D01*
X44670666Y-32050421D01*
X44900556Y-32608176D01*
X45017664Y-33199614D01*
X45017664Y-33199624D01*
X45017731Y-33199963D01*
X45008110Y-33889016D01*
X45008033Y-33889354D01*
X45008033Y-33889362D01*
X44874457Y-34477301D01*
X44629085Y-35028416D01*
X44281337Y-35521378D01*
X43844462Y-35937409D01*
X43335100Y-36260661D01*
X42772654Y-36478819D01*
X42178547Y-36583576D01*
X41575403Y-36570942D01*
X40986200Y-36441397D01*
X40433382Y-36199877D01*
X39938007Y-35855582D01*
X39518937Y-35421623D01*
X39192138Y-34914530D01*
X38970056Y-34353614D01*
X38861155Y-33760258D01*
X38869577Y-33157041D01*
X38995006Y-32566947D01*
X39232659Y-32012458D01*
X39573491Y-31514688D01*
X40004512Y-31092600D01*
X40509313Y-30762268D01*
X41068659Y-30536277D01*
X41661245Y-30423236D01*
X42264510Y-30427447D01*
X42264510Y-30427447D01*
G37*
G36*
X64592200Y-35229800D02*
X62407800Y-35229800D01*
X62407800Y-33350200D01*
X64592200Y-33350200D01*
X64592200Y-35229800D01*
X64592200Y-35229800D01*
G37*
G36*
X59512200Y-35229800D02*
X57327800Y-35229800D01*
X57327800Y-33350200D01*
X59512200Y-33350200D01*
X59512200Y-35229800D01*
X59512200Y-35229800D01*
G37*
G36*
X62052200Y-35229800D02*
X59867800Y-35229800D01*
X59867800Y-33350200D01*
X62052200Y-33350200D01*
X62052200Y-35229800D01*
X62052200Y-35229800D01*
G37*
G36*
X67132200Y-35229800D02*
X64947800Y-35229800D01*
X64947800Y-33350200D01*
X67132200Y-33350200D01*
X67132200Y-35229800D01*
X67132200Y-35229800D01*
G37*
G36*
X82263510Y-22427447D02*
X82854455Y-22548751D01*
X83410598Y-22782532D01*
X83910734Y-23119878D01*
X84335821Y-23547943D01*
X84669666Y-24050421D01*
X84899556Y-24608176D01*
X85016664Y-25199614D01*
X85016664Y-25199624D01*
X85016731Y-25199963D01*
X85007110Y-25889016D01*
X85007033Y-25889354D01*
X85007033Y-25889362D01*
X84873457Y-26477301D01*
X84628085Y-27028416D01*
X84280337Y-27521378D01*
X83843462Y-27937409D01*
X83334100Y-28260661D01*
X82771654Y-28478819D01*
X82177547Y-28583576D01*
X81574403Y-28570942D01*
X80985200Y-28441397D01*
X80432382Y-28199877D01*
X79937007Y-27855582D01*
X79517937Y-27421623D01*
X79191138Y-26914530D01*
X78969056Y-26353614D01*
X78860155Y-25760258D01*
X78868577Y-25157041D01*
X78994006Y-24566947D01*
X79231659Y-24012458D01*
X79572491Y-23514688D01*
X80003512Y-23092600D01*
X80508313Y-22762268D01*
X81067659Y-22536277D01*
X81660245Y-22423236D01*
X82263510Y-22427447D01*
X82263510Y-22427447D01*
G37*
G36*
X42264510Y-22427447D02*
X42855455Y-22548751D01*
X43411598Y-22782532D01*
X43911734Y-23119878D01*
X44336821Y-23547943D01*
X44670666Y-24050421D01*
X44900556Y-24608176D01*
X45017664Y-25199614D01*
X45017664Y-25199624D01*
X45017731Y-25199963D01*
X45008110Y-25889016D01*
X45008033Y-25889354D01*
X45008033Y-25889362D01*
X44874457Y-26477301D01*
X44629085Y-27028416D01*
X44281337Y-27521378D01*
X43844462Y-27937409D01*
X43335100Y-28260661D01*
X42772654Y-28478819D01*
X42178547Y-28583576D01*
X41575403Y-28570942D01*
X40986200Y-28441397D01*
X40433382Y-28199877D01*
X39938007Y-27855582D01*
X39518937Y-27421623D01*
X39192138Y-26914530D01*
X38970056Y-26353614D01*
X38861155Y-25760258D01*
X38869577Y-25157041D01*
X38995006Y-24566947D01*
X39232659Y-24012458D01*
X39573491Y-23514688D01*
X40004512Y-23092600D01*
X40509313Y-22762268D01*
X41068659Y-22536277D01*
X41661245Y-22423236D01*
X42264510Y-22427447D01*
X42264510Y-22427447D01*
G37*
G36*
X50264510Y-22427447D02*
X50855455Y-22548751D01*
X51411598Y-22782532D01*
X51911734Y-23119878D01*
X52336821Y-23547943D01*
X52670666Y-24050421D01*
X52900556Y-24608176D01*
X53017664Y-25199614D01*
X53017664Y-25199624D01*
X53017731Y-25199963D01*
X53008110Y-25889016D01*
X53008033Y-25889354D01*
X53008033Y-25889362D01*
X52874457Y-26477301D01*
X52629085Y-27028416D01*
X52281337Y-27521378D01*
X51844462Y-27937409D01*
X51335100Y-28260661D01*
X50772654Y-28478819D01*
X50178547Y-28583576D01*
X49575403Y-28570942D01*
X48986200Y-28441397D01*
X48433382Y-28199877D01*
X47938007Y-27855582D01*
X47518937Y-27421623D01*
X47192138Y-26914530D01*
X46970056Y-26353614D01*
X46861155Y-25760258D01*
X46869577Y-25157041D01*
X46995006Y-24566947D01*
X47232659Y-24012458D01*
X47573491Y-23514688D01*
X48004512Y-23092600D01*
X48509313Y-22762268D01*
X49068659Y-22536277D01*
X49661245Y-22423236D01*
X50264510Y-22427447D01*
X50264510Y-22427447D01*
G37*
G36*
X58264510Y-22427447D02*
X58855455Y-22548751D01*
X59411598Y-22782532D01*
X59911734Y-23119878D01*
X60336821Y-23547943D01*
X60670666Y-24050421D01*
X60900556Y-24608176D01*
X61017664Y-25199614D01*
X61017664Y-25199624D01*
X61017731Y-25199963D01*
X61008110Y-25889016D01*
X61008033Y-25889354D01*
X61008033Y-25889362D01*
X60874457Y-26477301D01*
X60629085Y-27028416D01*
X60281337Y-27521378D01*
X59844462Y-27937409D01*
X59335100Y-28260661D01*
X58772654Y-28478819D01*
X58178547Y-28583576D01*
X57575403Y-28570942D01*
X56986200Y-28441397D01*
X56433382Y-28199877D01*
X55938007Y-27855582D01*
X55518937Y-27421623D01*
X55192138Y-26914530D01*
X54970056Y-26353614D01*
X54861155Y-25760258D01*
X54869577Y-25157041D01*
X54995006Y-24566947D01*
X55232659Y-24012458D01*
X55573491Y-23514688D01*
X56004512Y-23092600D01*
X56509313Y-22762268D01*
X57068659Y-22536277D01*
X57661245Y-22423236D01*
X58264510Y-22427447D01*
X58264510Y-22427447D01*
G37*
G36*
X66264510Y-22427447D02*
X66855455Y-22548751D01*
X67411598Y-22782532D01*
X67911734Y-23119878D01*
X68336821Y-23547943D01*
X68670666Y-24050421D01*
X68900556Y-24608176D01*
X69017664Y-25199614D01*
X69017664Y-25199624D01*
X69017731Y-25199963D01*
X69008110Y-25889016D01*
X69008033Y-25889354D01*
X69008033Y-25889362D01*
X68874457Y-26477301D01*
X68629085Y-27028416D01*
X68281337Y-27521378D01*
X67844462Y-27937409D01*
X67335100Y-28260661D01*
X66772654Y-28478819D01*
X66178547Y-28583576D01*
X65575403Y-28570942D01*
X64986200Y-28441397D01*
X64433382Y-28199877D01*
X63938007Y-27855582D01*
X63518937Y-27421623D01*
X63192138Y-26914530D01*
X62970056Y-26353614D01*
X62861155Y-25760258D01*
X62869577Y-25157041D01*
X62995006Y-24566947D01*
X63232659Y-24012458D01*
X63573491Y-23514688D01*
X64004512Y-23092600D01*
X64509313Y-22762268D01*
X65068659Y-22536277D01*
X65661245Y-22423236D01*
X66264510Y-22427447D01*
X66264510Y-22427447D01*
G37*
G36*
X74264510Y-22427447D02*
X74855455Y-22548751D01*
X75411598Y-22782532D01*
X75911734Y-23119878D01*
X76336821Y-23547943D01*
X76670666Y-24050421D01*
X76900556Y-24608176D01*
X77017664Y-25199614D01*
X77017664Y-25199624D01*
X77017731Y-25199963D01*
X77008110Y-25889016D01*
X77008033Y-25889354D01*
X77008033Y-25889362D01*
X76874457Y-26477301D01*
X76629085Y-27028416D01*
X76281337Y-27521378D01*
X75844462Y-27937409D01*
X75335100Y-28260661D01*
X74772654Y-28478819D01*
X74178547Y-28583576D01*
X73575403Y-28570942D01*
X72986200Y-28441397D01*
X72433382Y-28199877D01*
X71938007Y-27855582D01*
X71518937Y-27421623D01*
X71192138Y-26914530D01*
X70970056Y-26353614D01*
X70861155Y-25760258D01*
X70869577Y-25157041D01*
X70995006Y-24566947D01*
X71232659Y-24012458D01*
X71573491Y-23514688D01*
X72004512Y-23092600D01*
X72509313Y-22762268D01*
X73068659Y-22536277D01*
X73661245Y-22423236D01*
X74264510Y-22427447D01*
X74264510Y-22427447D01*
G37*
M02*
