%TF.GenerationSoftware,KiCad,Pcbnew,4.0.7-e2-6376~58~ubuntu16.04.1*%
%TF.CreationDate,2018-07-18T10:10:47-07:00*%
%TF.ProjectId,6x11-NodeMCU-V2-Breakout,367831312D4E6F64654D43552D56322D,1.0*%
%TF.FileFunction,Legend,Bot*%
%FSLAX46Y46*%
G04 Gerber Fmt 4.6, Leading zero omitted, Abs format (unit mm)*
G04 Created by KiCad (PCBNEW 4.0.7-e2-6376~58~ubuntu16.04.1) date Wed Jul 18 10:10:47 2018*
%MOMM*%
%LPD*%
G01*
G04 APERTURE LIST*
%ADD10C,0.350000*%
%ADD11C,0.152400*%
%ADD12C,0.177800*%
%ADD13R,2.184400X1.879600*%
%ADD14O,2.184400X1.879600*%
%ADD15C,6.152400*%
%ADD16C,1.879600*%
G04 APERTURE END LIST*
D10*
D11*
X63197619Y-56811335D02*
X62181619Y-56811335D01*
X63197619Y-57391906D01*
X62181619Y-57391906D01*
X63197619Y-58020859D02*
X63149238Y-57924097D01*
X63100857Y-57875716D01*
X63004095Y-57827335D01*
X62713810Y-57827335D01*
X62617048Y-57875716D01*
X62568667Y-57924097D01*
X62520286Y-58020859D01*
X62520286Y-58166001D01*
X62568667Y-58262763D01*
X62617048Y-58311144D01*
X62713810Y-58359525D01*
X63004095Y-58359525D01*
X63100857Y-58311144D01*
X63149238Y-58262763D01*
X63197619Y-58166001D01*
X63197619Y-58020859D01*
X63197619Y-59230382D02*
X62181619Y-59230382D01*
X63149238Y-59230382D02*
X63197619Y-59133620D01*
X63197619Y-58940097D01*
X63149238Y-58843335D01*
X63100857Y-58794954D01*
X63004095Y-58746573D01*
X62713810Y-58746573D01*
X62617048Y-58794954D01*
X62568667Y-58843335D01*
X62520286Y-58940097D01*
X62520286Y-59133620D01*
X62568667Y-59230382D01*
X63149238Y-60101239D02*
X63197619Y-60004477D01*
X63197619Y-59810954D01*
X63149238Y-59714192D01*
X63052476Y-59665811D01*
X62665429Y-59665811D01*
X62568667Y-59714192D01*
X62520286Y-59810954D01*
X62520286Y-60004477D01*
X62568667Y-60101239D01*
X62665429Y-60149620D01*
X62762190Y-60149620D01*
X62858952Y-59665811D01*
X63197619Y-60585049D02*
X62181619Y-60585049D01*
X62907333Y-60923715D01*
X62181619Y-61262382D01*
X63197619Y-61262382D01*
X63100857Y-62326763D02*
X63149238Y-62278382D01*
X63197619Y-62133239D01*
X63197619Y-62036477D01*
X63149238Y-61891335D01*
X63052476Y-61794573D01*
X62955714Y-61746192D01*
X62762190Y-61697811D01*
X62617048Y-61697811D01*
X62423524Y-61746192D01*
X62326762Y-61794573D01*
X62230000Y-61891335D01*
X62181619Y-62036477D01*
X62181619Y-62133239D01*
X62230000Y-62278382D01*
X62278381Y-62326763D01*
X62181619Y-62762192D02*
X63004095Y-62762192D01*
X63100857Y-62810573D01*
X63149238Y-62858954D01*
X63197619Y-62955716D01*
X63197619Y-63149239D01*
X63149238Y-63246001D01*
X63100857Y-63294382D01*
X63004095Y-63342763D01*
X62181619Y-63342763D01*
X62665429Y-64939334D02*
X62713810Y-65084477D01*
X62762190Y-65132858D01*
X62858952Y-65181239D01*
X63004095Y-65181239D01*
X63100857Y-65132858D01*
X63149238Y-65084477D01*
X63197619Y-64987715D01*
X63197619Y-64600668D01*
X62181619Y-64600668D01*
X62181619Y-64939334D01*
X62230000Y-65036096D01*
X62278381Y-65084477D01*
X62375143Y-65132858D01*
X62471905Y-65132858D01*
X62568667Y-65084477D01*
X62617048Y-65036096D01*
X62665429Y-64939334D01*
X62665429Y-64600668D01*
X63197619Y-65616668D02*
X62520286Y-65616668D01*
X62713810Y-65616668D02*
X62617048Y-65665049D01*
X62568667Y-65713430D01*
X62520286Y-65810192D01*
X62520286Y-65906953D01*
X63149238Y-66632667D02*
X63197619Y-66535905D01*
X63197619Y-66342382D01*
X63149238Y-66245620D01*
X63052476Y-66197239D01*
X62665429Y-66197239D01*
X62568667Y-66245620D01*
X62520286Y-66342382D01*
X62520286Y-66535905D01*
X62568667Y-66632667D01*
X62665429Y-66681048D01*
X62762190Y-66681048D01*
X62858952Y-66197239D01*
X63197619Y-67551905D02*
X62665429Y-67551905D01*
X62568667Y-67503524D01*
X62520286Y-67406762D01*
X62520286Y-67213239D01*
X62568667Y-67116477D01*
X63149238Y-67551905D02*
X63197619Y-67455143D01*
X63197619Y-67213239D01*
X63149238Y-67116477D01*
X63052476Y-67068096D01*
X62955714Y-67068096D01*
X62858952Y-67116477D01*
X62810571Y-67213239D01*
X62810571Y-67455143D01*
X62762190Y-67551905D01*
X63197619Y-68035715D02*
X62181619Y-68035715D01*
X62810571Y-68132477D02*
X63197619Y-68422762D01*
X62520286Y-68422762D02*
X62907333Y-68035715D01*
X63197619Y-69003334D02*
X63149238Y-68906572D01*
X63100857Y-68858191D01*
X63004095Y-68809810D01*
X62713810Y-68809810D01*
X62617048Y-68858191D01*
X62568667Y-68906572D01*
X62520286Y-69003334D01*
X62520286Y-69148476D01*
X62568667Y-69245238D01*
X62617048Y-69293619D01*
X62713810Y-69342000D01*
X63004095Y-69342000D01*
X63100857Y-69293619D01*
X63149238Y-69245238D01*
X63197619Y-69148476D01*
X63197619Y-69003334D01*
X62520286Y-70212857D02*
X63197619Y-70212857D01*
X62520286Y-69777429D02*
X63052476Y-69777429D01*
X63149238Y-69825810D01*
X63197619Y-69922572D01*
X63197619Y-70067714D01*
X63149238Y-70164476D01*
X63100857Y-70212857D01*
X62520286Y-70551524D02*
X62520286Y-70938572D01*
X62181619Y-70696667D02*
X63052476Y-70696667D01*
X63149238Y-70745048D01*
X63197619Y-70841810D01*
X63197619Y-70938572D01*
X62520286Y-71954571D02*
X63197619Y-72196476D01*
X62520286Y-72438380D01*
X63197619Y-73357618D02*
X63197619Y-72777047D01*
X63197619Y-73067333D02*
X62181619Y-73067333D01*
X62326762Y-72970571D01*
X62423524Y-72873809D01*
X62471905Y-72777047D01*
X63100857Y-73793047D02*
X63149238Y-73841428D01*
X63197619Y-73793047D01*
X63149238Y-73744666D01*
X63100857Y-73793047D01*
X63197619Y-73793047D01*
X62181619Y-74470381D02*
X62181619Y-74567142D01*
X62230000Y-74663904D01*
X62278381Y-74712285D01*
X62375143Y-74760666D01*
X62568667Y-74809047D01*
X62810571Y-74809047D01*
X63004095Y-74760666D01*
X63100857Y-74712285D01*
X63149238Y-74663904D01*
X63197619Y-74567142D01*
X63197619Y-74470381D01*
X63149238Y-74373619D01*
X63100857Y-74325238D01*
X63004095Y-74276857D01*
X62810571Y-74228476D01*
X62568667Y-74228476D01*
X62375143Y-74276857D01*
X62278381Y-74325238D01*
X62230000Y-74373619D01*
X62181619Y-74470381D01*
D12*
X69205928Y-95712643D02*
X69314785Y-95767071D01*
X69532499Y-95767071D01*
X69641357Y-95712643D01*
X69695785Y-95658214D01*
X69750214Y-95549357D01*
X69750214Y-95222786D01*
X69695785Y-95113929D01*
X69641357Y-95059500D01*
X69532499Y-95005071D01*
X69314785Y-95005071D01*
X69205928Y-95059500D01*
X68716071Y-95767071D02*
X68716071Y-95005071D01*
X68716071Y-95222786D02*
X68661643Y-95113929D01*
X68607214Y-95059500D01*
X68498357Y-95005071D01*
X68389500Y-95005071D01*
X67518643Y-95767071D02*
X67518643Y-95168357D01*
X67573072Y-95059500D01*
X67681929Y-95005071D01*
X67899643Y-95005071D01*
X68008500Y-95059500D01*
X67518643Y-95712643D02*
X67627500Y-95767071D01*
X67899643Y-95767071D01*
X68008500Y-95712643D01*
X68062929Y-95603786D01*
X68062929Y-95494929D01*
X68008500Y-95386071D01*
X67899643Y-95331643D01*
X67627500Y-95331643D01*
X67518643Y-95277214D01*
X67083214Y-95005071D02*
X66484500Y-95005071D01*
X67083214Y-95767071D01*
X66484500Y-95767071D01*
X66157928Y-95005071D02*
X65885785Y-95767071D01*
X65613643Y-95005071D02*
X65885785Y-95767071D01*
X65994643Y-96039214D01*
X66049071Y-96093643D01*
X66157928Y-96148071D01*
X64688357Y-95712643D02*
X64797214Y-95767071D01*
X65014928Y-95767071D01*
X65123786Y-95712643D01*
X65178214Y-95658214D01*
X65232643Y-95549357D01*
X65232643Y-95222786D01*
X65178214Y-95113929D01*
X65123786Y-95059500D01*
X65014928Y-95005071D01*
X64797214Y-95005071D01*
X64688357Y-95059500D01*
X64198500Y-95767071D02*
X64198500Y-95005071D01*
X64198500Y-94624071D02*
X64252929Y-94678500D01*
X64198500Y-94732929D01*
X64144072Y-94678500D01*
X64198500Y-94624071D01*
X64198500Y-94732929D01*
X63654214Y-95767071D02*
X63654214Y-95005071D01*
X63654214Y-95222786D02*
X63599786Y-95113929D01*
X63545357Y-95059500D01*
X63436500Y-95005071D01*
X63327643Y-95005071D01*
X62456786Y-95712643D02*
X62565643Y-95767071D01*
X62783357Y-95767071D01*
X62892215Y-95712643D01*
X62946643Y-95658214D01*
X63001072Y-95549357D01*
X63001072Y-95222786D01*
X62946643Y-95113929D01*
X62892215Y-95059500D01*
X62783357Y-95005071D01*
X62565643Y-95005071D01*
X62456786Y-95059500D01*
X61477072Y-95005071D02*
X61477072Y-95767071D01*
X61966929Y-95005071D02*
X61966929Y-95603786D01*
X61912501Y-95712643D01*
X61803643Y-95767071D01*
X61640358Y-95767071D01*
X61531501Y-95712643D01*
X61477072Y-95658214D01*
X60932786Y-95767071D02*
X60932786Y-95005071D01*
X60932786Y-94624071D02*
X60987215Y-94678500D01*
X60932786Y-94732929D01*
X60878358Y-94678500D01*
X60932786Y-94624071D01*
X60932786Y-94732929D01*
X60551786Y-95005071D02*
X60116357Y-95005071D01*
X60388500Y-94624071D02*
X60388500Y-95603786D01*
X60334072Y-95712643D01*
X60225214Y-95767071D01*
X60116357Y-95767071D01*
X59789786Y-95712643D02*
X59680929Y-95767071D01*
X59463214Y-95767071D01*
X59354357Y-95712643D01*
X59299929Y-95603786D01*
X59299929Y-95549357D01*
X59354357Y-95440500D01*
X59463214Y-95386071D01*
X59626500Y-95386071D01*
X59735357Y-95331643D01*
X59789786Y-95222786D01*
X59789786Y-95168357D01*
X59735357Y-95059500D01*
X59626500Y-95005071D01*
X59463214Y-95005071D01*
X59354357Y-95059500D01*
X58810071Y-95658214D02*
X58755643Y-95712643D01*
X58810071Y-95767071D01*
X58864500Y-95712643D01*
X58810071Y-95658214D01*
X58810071Y-95767071D01*
X57775928Y-95712643D02*
X57884785Y-95767071D01*
X58102499Y-95767071D01*
X58211357Y-95712643D01*
X58265785Y-95658214D01*
X58320214Y-95549357D01*
X58320214Y-95222786D01*
X58265785Y-95113929D01*
X58211357Y-95059500D01*
X58102499Y-95005071D01*
X57884785Y-95005071D01*
X57775928Y-95059500D01*
X57122785Y-95767071D02*
X57231643Y-95712643D01*
X57286071Y-95658214D01*
X57340500Y-95549357D01*
X57340500Y-95222786D01*
X57286071Y-95113929D01*
X57231643Y-95059500D01*
X57122785Y-95005071D01*
X56959500Y-95005071D01*
X56850643Y-95059500D01*
X56796214Y-95113929D01*
X56741785Y-95222786D01*
X56741785Y-95549357D01*
X56796214Y-95658214D01*
X56850643Y-95712643D01*
X56959500Y-95767071D01*
X57122785Y-95767071D01*
X56251928Y-95767071D02*
X56251928Y-95005071D01*
X56251928Y-95113929D02*
X56197500Y-95059500D01*
X56088642Y-95005071D01*
X55925357Y-95005071D01*
X55816500Y-95059500D01*
X55762071Y-95168357D01*
X55762071Y-95767071D01*
X55762071Y-95168357D02*
X55707642Y-95059500D01*
X55598785Y-95005071D01*
X55435500Y-95005071D01*
X55326642Y-95059500D01*
X55272214Y-95168357D01*
X55272214Y-95767071D01*
%LPC*%
D13*
X66040000Y-34290000D03*
D14*
X66040000Y-36830000D03*
X66040000Y-39370000D03*
D13*
X63500000Y-34290000D03*
D14*
X63500000Y-36830000D03*
X63500000Y-39370000D03*
D13*
X60960000Y-34290000D03*
D14*
X60960000Y-36830000D03*
X60960000Y-39370000D03*
D13*
X58420000Y-34290000D03*
D14*
X58420000Y-36830000D03*
X58420000Y-39370000D03*
D15*
X81941400Y-65501600D03*
X81940400Y-57501600D03*
X81940400Y-41501600D03*
X81940400Y-73501600D03*
X81940400Y-33501600D03*
X81940400Y-49501600D03*
X81941400Y-81501600D03*
X81941400Y-89501600D03*
X81940400Y-25501600D03*
X73941400Y-25501600D03*
X57941400Y-25501600D03*
X49941400Y-25501600D03*
X57941400Y-105501600D03*
X49941400Y-105501600D03*
X81940400Y-105501600D03*
X73941400Y-105501600D03*
X41941400Y-105501600D03*
X41941400Y-89501600D03*
X41941400Y-81501600D03*
X41941400Y-73501600D03*
X41941400Y-65501600D03*
X41941400Y-57501600D03*
X41941400Y-49501600D03*
X41941400Y-41501600D03*
X41941400Y-33501600D03*
X41941400Y-25501600D03*
X81941400Y-97501600D03*
X41941400Y-97501600D03*
X65941400Y-25501600D03*
X65941400Y-105501600D03*
D16*
X73691400Y-85191600D03*
X73691400Y-82651600D03*
X73691400Y-80111600D03*
X73691400Y-77571600D03*
X73691400Y-75031600D03*
X73691400Y-72491600D03*
X73691400Y-69951600D03*
X73691400Y-67411600D03*
X73691400Y-64871600D03*
X73691400Y-62331600D03*
X73691400Y-59791600D03*
X73691400Y-57251600D03*
X50831400Y-59791600D03*
X50831400Y-80111600D03*
X50831400Y-64871600D03*
X50831400Y-62331600D03*
X50831400Y-82651600D03*
X50831400Y-75031600D03*
X50831400Y-85191600D03*
X50831400Y-72491600D03*
X50831400Y-69951600D03*
X50831400Y-67411600D03*
X50831400Y-77571600D03*
X50831400Y-57251600D03*
X50831400Y-52171600D03*
X50831400Y-54711600D03*
X50831400Y-49631600D03*
X73691400Y-52171600D03*
X73691400Y-54711600D03*
X73691400Y-49631600D03*
M02*
