%TF.GenerationSoftware,KiCad,Pcbnew,4.0.7-e2-6376~58~ubuntu16.04.1*%
%TF.CreationDate,2018-07-18T10:10:47-07:00*%
%TF.ProjectId,6x11-NodeMCU-V2-Breakout,367831312D4E6F64654D43552D56322D,1.0*%
%TF.FileFunction,Copper,L1,Top,Signal*%
%FSLAX46Y46*%
G04 Gerber Fmt 4.6, Leading zero omitted, Abs format (unit mm)*
G04 Created by KiCad (PCBNEW 4.0.7-e2-6376~58~ubuntu16.04.1) date Wed Jul 18 10:10:47 2018*
%MOMM*%
%LPD*%
G01*
G04 APERTURE LIST*
%ADD10C,0.350000*%
%ADD11R,2.032000X1.727200*%
%ADD12O,2.032000X1.727200*%
%ADD13O,15.240000X7.620000*%
%ADD14C,6.000000*%
%ADD15C,1.727200*%
%ADD16C,0.685800*%
%ADD17C,0.330200*%
%ADD18C,0.762000*%
%ADD19C,0.330200*%
%ADD20C,0.350000*%
G04 APERTURE END LIST*
D10*
D11*
X66040000Y-34290000D03*
D12*
X66040000Y-36830000D03*
X66040000Y-39370000D03*
D11*
X63500000Y-34290000D03*
D12*
X63500000Y-36830000D03*
X63500000Y-39370000D03*
D11*
X60960000Y-34290000D03*
D12*
X60960000Y-36830000D03*
X60960000Y-39370000D03*
D13*
X62484000Y-95377000D03*
D11*
X58420000Y-34290000D03*
D12*
X58420000Y-36830000D03*
X58420000Y-39370000D03*
D14*
X81941400Y-65501600D03*
X81940400Y-57501600D03*
X81940400Y-41501600D03*
X81940400Y-73501600D03*
X81940400Y-33501600D03*
X81940400Y-49501600D03*
X81941400Y-81501600D03*
X81941400Y-89501600D03*
X81940400Y-25501600D03*
X73941400Y-25501600D03*
X57941400Y-25501600D03*
X49941400Y-25501600D03*
X57941400Y-105501600D03*
X49941400Y-105501600D03*
X81940400Y-105501600D03*
X73941400Y-105501600D03*
X41941400Y-105501600D03*
X41941400Y-89501600D03*
X41941400Y-81501600D03*
X41941400Y-73501600D03*
X41941400Y-65501600D03*
X41941400Y-57501600D03*
X41941400Y-49501600D03*
X41941400Y-41501600D03*
X41941400Y-33501600D03*
X41941400Y-25501600D03*
X81941400Y-97501600D03*
X41941400Y-97501600D03*
X65941400Y-25501600D03*
X65941400Y-105501600D03*
D15*
X73691400Y-85191600D03*
X73691400Y-82651600D03*
X73691400Y-80111600D03*
X73691400Y-77571600D03*
X73691400Y-75031600D03*
X73691400Y-72491600D03*
X73691400Y-69951600D03*
X73691400Y-67411600D03*
X73691400Y-64871600D03*
X73691400Y-62331600D03*
X73691400Y-59791600D03*
X73691400Y-57251600D03*
X50831400Y-59791600D03*
X50831400Y-80111600D03*
X50831400Y-64871600D03*
X50831400Y-62331600D03*
X50831400Y-82651600D03*
X50831400Y-75031600D03*
X50831400Y-85191600D03*
X50831400Y-72491600D03*
X50831400Y-69951600D03*
X50831400Y-67411600D03*
X50831400Y-77571600D03*
X50831400Y-57251600D03*
X50831400Y-52171600D03*
X50831400Y-54711600D03*
X50831400Y-49631600D03*
X73691400Y-52171600D03*
X73691400Y-54711600D03*
X73691400Y-49631600D03*
D16*
X66040000Y-82550000D03*
D17*
X50800000Y-33400000D02*
X57530000Y-33400000D01*
X42040000Y-33400000D02*
X50800000Y-33400000D01*
X50800000Y-33400000D02*
X50930000Y-33530000D01*
X50930000Y-33530000D02*
X50930000Y-49530000D01*
X57530000Y-33400000D02*
X58420000Y-34290000D01*
D18*
X50040000Y-25400000D02*
X42040000Y-25400000D01*
X58040000Y-25400000D02*
X50040000Y-25400000D01*
X66040000Y-39370000D02*
X66040000Y-64770000D01*
X66040000Y-64770000D02*
X66040000Y-72390000D01*
X73790000Y-64770000D02*
X66040000Y-64770000D01*
X66040000Y-72390000D02*
X66040000Y-82550000D01*
X50930000Y-72390000D02*
X66040000Y-72390000D01*
X55245000Y-82550000D02*
X66040000Y-82550000D01*
X50930000Y-82550000D02*
X55245000Y-82550000D01*
X55245000Y-89535000D02*
X55245000Y-82550000D01*
X50040000Y-94740000D02*
X55245000Y-89535000D01*
X50040000Y-105400000D02*
X50040000Y-94740000D01*
D17*
X71120000Y-48260000D02*
X71120000Y-49400000D01*
X71120000Y-34290000D02*
X71120000Y-48260000D01*
X71120000Y-48260000D02*
X71120000Y-51940000D01*
X71120000Y-51940000D02*
X73790000Y-54610000D01*
X73790000Y-54610000D02*
X76829000Y-54610000D01*
X76829000Y-54610000D02*
X79369000Y-52070000D01*
X79369000Y-52070000D02*
X82039000Y-49400000D01*
X69215000Y-32385000D02*
X71120000Y-34290000D01*
X64211200Y-32385000D02*
X69215000Y-32385000D01*
X63500000Y-34290000D02*
X63500000Y-33096200D01*
X63500000Y-33096200D02*
X64211200Y-32385000D01*
X73790000Y-57150000D02*
X81789000Y-57150000D01*
X81789000Y-57150000D02*
X82039000Y-57400000D01*
X69850000Y-36753800D02*
X69850000Y-53210000D01*
X69850000Y-53210000D02*
X73790000Y-57150000D01*
X66040000Y-34290000D02*
X67386200Y-34290000D01*
X67386200Y-34290000D02*
X69850000Y-36753800D01*
D18*
X42040000Y-97400000D02*
X50930000Y-88510000D01*
X50930000Y-88510000D02*
X50930000Y-85090000D01*
D17*
X76835000Y-49025000D02*
X76835000Y-46604000D01*
X76835000Y-46604000D02*
X82039000Y-41400000D01*
X73790000Y-52070000D02*
X76835000Y-49025000D01*
X62230000Y-31115000D02*
X60960000Y-32385000D01*
X60960000Y-32385000D02*
X60960000Y-34290000D01*
X71754000Y-31115000D02*
X62230000Y-31115000D01*
X82039000Y-41400000D02*
X71754000Y-31115000D01*
X73790000Y-59690000D02*
X76330000Y-59690000D01*
X76330000Y-59690000D02*
X82040000Y-65400000D01*
X73790000Y-67310000D02*
X75949000Y-67310000D01*
X75949000Y-67310000D02*
X82039000Y-73400000D01*
X78105000Y-77465000D02*
X78105000Y-74165000D01*
X78105000Y-74165000D02*
X73790000Y-69850000D01*
X82040000Y-81400000D02*
X78105000Y-77465000D01*
X77470000Y-76070000D02*
X77470000Y-84830000D01*
X77470000Y-84830000D02*
X82040000Y-89400000D01*
X73790000Y-72390000D02*
X77470000Y-76070000D01*
X50930000Y-80010000D02*
X42040000Y-88900000D01*
X42040000Y-88900000D02*
X42040000Y-89400000D01*
X50930000Y-77470000D02*
X45970000Y-77470000D01*
X45970000Y-77470000D02*
X42040000Y-81400000D01*
X50930000Y-69850000D02*
X45590000Y-69850000D01*
X45590000Y-69850000D02*
X42040000Y-73400000D01*
X50930000Y-67310000D02*
X43950000Y-67310000D01*
X43950000Y-67310000D02*
X42040000Y-65400000D01*
X50930000Y-64770000D02*
X49410000Y-64770000D01*
X49410000Y-64770000D02*
X42040000Y-57400000D01*
X46355000Y-57655000D02*
X46355000Y-53715000D01*
X46355000Y-53715000D02*
X42040000Y-49400000D01*
X50930000Y-62230000D02*
X46355000Y-57655000D01*
X48895000Y-57655000D02*
X48895000Y-48255000D01*
X48895000Y-48255000D02*
X42040000Y-41400000D01*
X50930000Y-59690000D02*
X48895000Y-57655000D01*
X71755000Y-99695000D02*
X71755000Y-82045000D01*
X71755000Y-82045000D02*
X73790000Y-80010000D01*
X69049999Y-102400001D02*
X71755000Y-99695000D01*
X66040000Y-105400000D02*
X69039999Y-102400001D01*
X69039999Y-102400001D02*
X69049999Y-102400001D01*
X68580000Y-99695000D02*
X63745000Y-99695000D01*
X63745000Y-99695000D02*
X58040000Y-105400000D01*
X70523110Y-97751890D02*
X68580000Y-99695000D01*
X73790000Y-77470000D02*
X70523110Y-80736890D01*
X70523110Y-80736890D02*
X70523110Y-97751890D01*
D19*
X66040000Y-82550000D03*
D20*
X66040000Y-34290000D03*
X66040000Y-36830000D03*
X66040000Y-39370000D03*
X63500000Y-34290000D03*
X63500000Y-36830000D03*
X63500000Y-39370000D03*
X60960000Y-34290000D03*
X60960000Y-36830000D03*
X60960000Y-39370000D03*
X58420000Y-34290000D03*
X58420000Y-36830000D03*
X58420000Y-39370000D03*
X81941400Y-65501600D03*
X81940400Y-57501600D03*
X81940400Y-41501600D03*
X81940400Y-73501600D03*
X81940400Y-33501600D03*
X81940400Y-49501600D03*
X81941400Y-81501600D03*
X81941400Y-89501600D03*
X81940400Y-25501600D03*
X73941400Y-25501600D03*
X57941400Y-25501600D03*
X49941400Y-25501600D03*
X57941400Y-105501600D03*
X49941400Y-105501600D03*
X81940400Y-105501600D03*
X73941400Y-105501600D03*
X41941400Y-105501600D03*
X41941400Y-89501600D03*
X41941400Y-81501600D03*
X41941400Y-73501600D03*
X41941400Y-65501600D03*
X41941400Y-57501600D03*
X41941400Y-49501600D03*
X41941400Y-41501600D03*
X41941400Y-33501600D03*
X41941400Y-25501600D03*
X81941400Y-97501600D03*
X41941400Y-97501600D03*
X65941400Y-25501600D03*
X65941400Y-105501600D03*
X73691400Y-85191600D03*
X73691400Y-82651600D03*
X73691400Y-80111600D03*
X73691400Y-77571600D03*
X73691400Y-75031600D03*
X73691400Y-72491600D03*
X73691400Y-69951600D03*
X73691400Y-67411600D03*
X73691400Y-64871600D03*
X73691400Y-62331600D03*
X73691400Y-59791600D03*
X73691400Y-57251600D03*
X50831400Y-59791600D03*
X50831400Y-80111600D03*
X50831400Y-64871600D03*
X50831400Y-62331600D03*
X50831400Y-82651600D03*
X50831400Y-75031600D03*
X50831400Y-85191600D03*
X50831400Y-72491600D03*
X50831400Y-69951600D03*
X50831400Y-67411600D03*
X50831400Y-77571600D03*
X50831400Y-57251600D03*
X50831400Y-52171600D03*
X50831400Y-54711600D03*
X50831400Y-49631600D03*
X73691400Y-52171600D03*
X73691400Y-54711600D03*
X73691400Y-49631600D03*
M02*
