%TF.GenerationSoftware,KiCad,Pcbnew,4.0.7-e2-6376~58~ubuntu16.04.1*%
%TF.CreationDate,2018-07-18T10:10:47-07:00*%
%TF.ProjectId,6x11-NodeMCU-V2-Breakout,367831312D4E6F64654D43552D56322D,1.0*%
%TF.FileFunction,Legend,Top*%
%FSLAX46Y46*%
G04 Gerber Fmt 4.6, Leading zero omitted, Abs format (unit mm)*
G04 Created by KiCad (PCBNEW 4.0.7-e2-6376~58~ubuntu16.04.1) date Wed Jul 18 10:10:47 2018*
%MOMM*%
%LPD*%
G01*
G04 APERTURE LIST*
%ADD10C,0.350000*%
%ADD11C,0.152400*%
%ADD12C,0.150000*%
%ADD13C,0.600000*%
%ADD14C,8.000000*%
%ADD15C,0.300000*%
%ADD16C,0.254000*%
%ADD17R,2.184400X1.879600*%
%ADD18O,2.184400X1.879600*%
%ADD19C,6.152400*%
%ADD20C,1.879600*%
G04 APERTURE END LIST*
D10*
D11*
X57694286Y-31919333D02*
X58178095Y-31919333D01*
X57597524Y-32209619D02*
X57936191Y-31193619D01*
X58274857Y-32209619D01*
X58807048Y-31193619D02*
X58903809Y-31193619D01*
X59000571Y-31242000D01*
X59048952Y-31290381D01*
X59097333Y-31387143D01*
X59145714Y-31580667D01*
X59145714Y-31822571D01*
X59097333Y-32016095D01*
X59048952Y-32112857D01*
X59000571Y-32161238D01*
X58903809Y-32209619D01*
X58807048Y-32209619D01*
X58710286Y-32161238D01*
X58661905Y-32112857D01*
X58613524Y-32016095D01*
X58565143Y-31822571D01*
X58565143Y-31580667D01*
X58613524Y-31387143D01*
X58661905Y-31290381D01*
X58710286Y-31242000D01*
X58807048Y-31193619D01*
X60210096Y-32209619D02*
X60210096Y-31193619D01*
X60452001Y-31193619D01*
X60597143Y-31242000D01*
X60693905Y-31338762D01*
X60742286Y-31435524D01*
X60790667Y-31629048D01*
X60790667Y-31774190D01*
X60742286Y-31967714D01*
X60693905Y-32064476D01*
X60597143Y-32161238D01*
X60452001Y-32209619D01*
X60210096Y-32209619D01*
X61758286Y-32209619D02*
X61177715Y-32209619D01*
X61468001Y-32209619D02*
X61468001Y-31193619D01*
X61371239Y-31338762D01*
X61274477Y-31435524D01*
X61177715Y-31483905D01*
X62750096Y-32209619D02*
X62750096Y-31193619D01*
X62992001Y-31193619D01*
X63137143Y-31242000D01*
X63233905Y-31338762D01*
X63282286Y-31435524D01*
X63330667Y-31629048D01*
X63330667Y-31774190D01*
X63282286Y-31967714D01*
X63233905Y-32064476D01*
X63137143Y-32161238D01*
X62992001Y-32209619D01*
X62750096Y-32209619D01*
X63717715Y-31290381D02*
X63766096Y-31242000D01*
X63862858Y-31193619D01*
X64104762Y-31193619D01*
X64201524Y-31242000D01*
X64249905Y-31290381D01*
X64298286Y-31387143D01*
X64298286Y-31483905D01*
X64249905Y-31629048D01*
X63669334Y-32209619D01*
X64298286Y-32209619D01*
X65290096Y-32209619D02*
X65290096Y-31193619D01*
X65532001Y-31193619D01*
X65677143Y-31242000D01*
X65773905Y-31338762D01*
X65822286Y-31435524D01*
X65870667Y-31629048D01*
X65870667Y-31774190D01*
X65822286Y-31967714D01*
X65773905Y-32064476D01*
X65677143Y-32161238D01*
X65532001Y-32209619D01*
X65290096Y-32209619D01*
X66209334Y-31193619D02*
X66838286Y-31193619D01*
X66499620Y-31580667D01*
X66644762Y-31580667D01*
X66741524Y-31629048D01*
X66789905Y-31677429D01*
X66838286Y-31774190D01*
X66838286Y-32016095D01*
X66789905Y-32112857D01*
X66741524Y-32161238D01*
X66644762Y-32209619D01*
X66354477Y-32209619D01*
X66257715Y-32161238D01*
X66209334Y-32112857D01*
X53110191Y-36273619D02*
X53739143Y-36273619D01*
X53400477Y-36660667D01*
X53545619Y-36660667D01*
X53642381Y-36709048D01*
X53690762Y-36757429D01*
X53739143Y-36854190D01*
X53739143Y-37096095D01*
X53690762Y-37192857D01*
X53642381Y-37241238D01*
X53545619Y-37289619D01*
X53255334Y-37289619D01*
X53158572Y-37241238D01*
X53110191Y-37192857D01*
X54174572Y-37192857D02*
X54222953Y-37241238D01*
X54174572Y-37289619D01*
X54126191Y-37241238D01*
X54174572Y-37192857D01*
X54174572Y-37289619D01*
X54561620Y-36273619D02*
X55190572Y-36273619D01*
X54851906Y-36660667D01*
X54997048Y-36660667D01*
X55093810Y-36709048D01*
X55142191Y-36757429D01*
X55190572Y-36854190D01*
X55190572Y-37096095D01*
X55142191Y-37192857D01*
X55093810Y-37241238D01*
X54997048Y-37289619D01*
X54706763Y-37289619D01*
X54610001Y-37241238D01*
X54561620Y-37192857D01*
X55480858Y-36273619D02*
X55819525Y-37289619D01*
X56158191Y-36273619D01*
X53932667Y-38862000D02*
X53835905Y-38813619D01*
X53690762Y-38813619D01*
X53545620Y-38862000D01*
X53448858Y-38958762D01*
X53400477Y-39055524D01*
X53352096Y-39249048D01*
X53352096Y-39394190D01*
X53400477Y-39587714D01*
X53448858Y-39684476D01*
X53545620Y-39781238D01*
X53690762Y-39829619D01*
X53787524Y-39829619D01*
X53932667Y-39781238D01*
X53981048Y-39732857D01*
X53981048Y-39394190D01*
X53787524Y-39394190D01*
X54416477Y-39829619D02*
X54416477Y-38813619D01*
X54997048Y-39829619D01*
X54997048Y-38813619D01*
X55480858Y-39829619D02*
X55480858Y-38813619D01*
X55722763Y-38813619D01*
X55867905Y-38862000D01*
X55964667Y-38958762D01*
X56013048Y-39055524D01*
X56061429Y-39249048D01*
X56061429Y-39394190D01*
X56013048Y-39587714D01*
X55964667Y-39684476D01*
X55867905Y-39781238D01*
X55722763Y-39829619D01*
X55480858Y-39829619D01*
X68979143Y-38862000D02*
X68882381Y-38813619D01*
X68737238Y-38813619D01*
X68592096Y-38862000D01*
X68495334Y-38958762D01*
X68446953Y-39055524D01*
X68398572Y-39249048D01*
X68398572Y-39394190D01*
X68446953Y-39587714D01*
X68495334Y-39684476D01*
X68592096Y-39781238D01*
X68737238Y-39829619D01*
X68834000Y-39829619D01*
X68979143Y-39781238D01*
X69027524Y-39732857D01*
X69027524Y-39394190D01*
X68834000Y-39394190D01*
X69462953Y-39829619D02*
X69462953Y-38813619D01*
X70043524Y-39829619D01*
X70043524Y-38813619D01*
X70527334Y-39829619D02*
X70527334Y-38813619D01*
X70769239Y-38813619D01*
X70914381Y-38862000D01*
X71011143Y-38958762D01*
X71059524Y-39055524D01*
X71107905Y-39249048D01*
X71107905Y-39394190D01*
X71059524Y-39587714D01*
X71011143Y-39684476D01*
X70914381Y-39781238D01*
X70769239Y-39829619D01*
X70527334Y-39829619D01*
X68350191Y-36273619D02*
X68979143Y-36273619D01*
X68640477Y-36660667D01*
X68785619Y-36660667D01*
X68882381Y-36709048D01*
X68930762Y-36757429D01*
X68979143Y-36854190D01*
X68979143Y-37096095D01*
X68930762Y-37192857D01*
X68882381Y-37241238D01*
X68785619Y-37289619D01*
X68495334Y-37289619D01*
X68398572Y-37241238D01*
X68350191Y-37192857D01*
X69414572Y-37192857D02*
X69462953Y-37241238D01*
X69414572Y-37289619D01*
X69366191Y-37241238D01*
X69414572Y-37192857D01*
X69414572Y-37289619D01*
X69801620Y-36273619D02*
X70430572Y-36273619D01*
X70091906Y-36660667D01*
X70237048Y-36660667D01*
X70333810Y-36709048D01*
X70382191Y-36757429D01*
X70430572Y-36854190D01*
X70430572Y-37096095D01*
X70382191Y-37192857D01*
X70333810Y-37241238D01*
X70237048Y-37289619D01*
X69946763Y-37289619D01*
X69850001Y-37241238D01*
X69801620Y-37192857D01*
X70720858Y-36273619D02*
X71059525Y-37289619D01*
X71398191Y-36273619D01*
D12*
X64770000Y-35560000D02*
X64770000Y-40640000D01*
X64770000Y-40640000D02*
X67310000Y-40640000D01*
X67310000Y-40640000D02*
X67310000Y-35560000D01*
X67310000Y-35560000D02*
X64770000Y-35560000D01*
X65040000Y-32790000D02*
X67040000Y-32790000D01*
X62230000Y-35560000D02*
X62230000Y-40640000D01*
X62230000Y-40640000D02*
X64770000Y-40640000D01*
X64770000Y-40640000D02*
X64770000Y-35560000D01*
X64770000Y-35560000D02*
X62230000Y-35560000D01*
X62500000Y-32790000D02*
X64500000Y-32790000D01*
X59690000Y-35560000D02*
X59690000Y-40640000D01*
X59690000Y-40640000D02*
X62230000Y-40640000D01*
X62230000Y-40640000D02*
X62230000Y-35560000D01*
X62230000Y-35560000D02*
X59690000Y-35560000D01*
X59960000Y-32790000D02*
X61960000Y-32790000D01*
D11*
X56896000Y-95250000D02*
X67564000Y-95250000D01*
X56833433Y-95250000D02*
G75*
G03X56833433Y-95250000I-508933J0D01*
G01*
D12*
X57150000Y-35560000D02*
X57150000Y-40640000D01*
X57150000Y-40640000D02*
X59690000Y-40640000D01*
X59690000Y-40640000D02*
X59690000Y-35560000D01*
X59690000Y-35560000D02*
X57150000Y-35560000D01*
X57420000Y-32790000D02*
X59420000Y-32790000D01*
D13*
X81941400Y-97701600D02*
X81941400Y-105601600D01*
D14*
X49741400Y-105251600D02*
X41937400Y-105251600D01*
X66041400Y-25601600D02*
X81841400Y-25601600D01*
D13*
X73941400Y-105601600D02*
X81841400Y-105601600D01*
X41441400Y-25501600D02*
X58241400Y-25501600D01*
D12*
X76301638Y-57953981D02*
X76301638Y-56953981D01*
X76539733Y-56953981D01*
X76682591Y-57001600D01*
X76777829Y-57096838D01*
X76825448Y-57192076D01*
X76873067Y-57382552D01*
X76873067Y-57525410D01*
X76825448Y-57715886D01*
X76777829Y-57811124D01*
X76682591Y-57906362D01*
X76539733Y-57953981D01*
X76301638Y-57953981D01*
X77206400Y-56953981D02*
X77825448Y-56953981D01*
X77492114Y-57334933D01*
X77634972Y-57334933D01*
X77730210Y-57382552D01*
X77777829Y-57430171D01*
X77825448Y-57525410D01*
X77825448Y-57763505D01*
X77777829Y-57858743D01*
X77730210Y-57906362D01*
X77634972Y-57953981D01*
X77349257Y-57953981D01*
X77254019Y-57906362D01*
X77206400Y-57858743D01*
X76301638Y-65953981D02*
X76301638Y-64953981D01*
X76539733Y-64953981D01*
X76682591Y-65001600D01*
X76777829Y-65096838D01*
X76825448Y-65192076D01*
X76873067Y-65382552D01*
X76873067Y-65525410D01*
X76825448Y-65715886D01*
X76777829Y-65811124D01*
X76682591Y-65906362D01*
X76539733Y-65953981D01*
X76301638Y-65953981D01*
X77730210Y-65287314D02*
X77730210Y-65953981D01*
X77492114Y-64906362D02*
X77254019Y-65620648D01*
X77873067Y-65620648D01*
X76301638Y-41953981D02*
X76301638Y-40953981D01*
X76539733Y-40953981D01*
X76682591Y-41001600D01*
X76777829Y-41096838D01*
X76825448Y-41192076D01*
X76873067Y-41382552D01*
X76873067Y-41525410D01*
X76825448Y-41715886D01*
X76777829Y-41811124D01*
X76682591Y-41906362D01*
X76539733Y-41953981D01*
X76301638Y-41953981D01*
X77825448Y-41953981D02*
X77254019Y-41953981D01*
X77539733Y-41953981D02*
X77539733Y-40953981D01*
X77444495Y-41096838D01*
X77349257Y-41192076D01*
X77254019Y-41239695D01*
X76301638Y-49953981D02*
X76301638Y-48953981D01*
X76539733Y-48953981D01*
X76682591Y-49001600D01*
X76777829Y-49096838D01*
X76825448Y-49192076D01*
X76873067Y-49382552D01*
X76873067Y-49525410D01*
X76825448Y-49715886D01*
X76777829Y-49811124D01*
X76682591Y-49906362D01*
X76539733Y-49953981D01*
X76301638Y-49953981D01*
X77254019Y-49049219D02*
X77301638Y-49001600D01*
X77396876Y-48953981D01*
X77634972Y-48953981D01*
X77730210Y-49001600D01*
X77777829Y-49049219D01*
X77825448Y-49144457D01*
X77825448Y-49239695D01*
X77777829Y-49382552D01*
X77206400Y-49953981D01*
X77825448Y-49953981D01*
X76301638Y-33953981D02*
X76301638Y-32953981D01*
X76539733Y-32953981D01*
X76682591Y-33001600D01*
X76777829Y-33096838D01*
X76825448Y-33192076D01*
X76873067Y-33382552D01*
X76873067Y-33525410D01*
X76825448Y-33715886D01*
X76777829Y-33811124D01*
X76682591Y-33906362D01*
X76539733Y-33953981D01*
X76301638Y-33953981D01*
X77492114Y-32953981D02*
X77587353Y-32953981D01*
X77682591Y-33001600D01*
X77730210Y-33049219D01*
X77777829Y-33144457D01*
X77825448Y-33334933D01*
X77825448Y-33573029D01*
X77777829Y-33763505D01*
X77730210Y-33858743D01*
X77682591Y-33906362D01*
X77587353Y-33953981D01*
X77492114Y-33953981D01*
X77396876Y-33906362D01*
X77349257Y-33858743D01*
X77301638Y-33763505D01*
X77254019Y-33573029D01*
X77254019Y-33334933D01*
X77301638Y-33144457D01*
X77349257Y-33049219D01*
X77396876Y-33001600D01*
X77492114Y-32953981D01*
X76301638Y-73953981D02*
X76301638Y-72953981D01*
X76539733Y-72953981D01*
X76682591Y-73001600D01*
X76777829Y-73096838D01*
X76825448Y-73192076D01*
X76873067Y-73382552D01*
X76873067Y-73525410D01*
X76825448Y-73715886D01*
X76777829Y-73811124D01*
X76682591Y-73906362D01*
X76539733Y-73953981D01*
X76301638Y-73953981D01*
X77777829Y-72953981D02*
X77301638Y-72953981D01*
X77254019Y-73430171D01*
X77301638Y-73382552D01*
X77396876Y-73334933D01*
X77634972Y-73334933D01*
X77730210Y-73382552D01*
X77777829Y-73430171D01*
X77825448Y-73525410D01*
X77825448Y-73763505D01*
X77777829Y-73858743D01*
X77730210Y-73906362D01*
X77634972Y-73953981D01*
X77396876Y-73953981D01*
X77301638Y-73906362D01*
X77254019Y-73858743D01*
X76301638Y-81953981D02*
X76301638Y-80953981D01*
X76539733Y-80953981D01*
X76682591Y-81001600D01*
X76777829Y-81096838D01*
X76825448Y-81192076D01*
X76873067Y-81382552D01*
X76873067Y-81525410D01*
X76825448Y-81715886D01*
X76777829Y-81811124D01*
X76682591Y-81906362D01*
X76539733Y-81953981D01*
X76301638Y-81953981D01*
X77730210Y-80953981D02*
X77539733Y-80953981D01*
X77444495Y-81001600D01*
X77396876Y-81049219D01*
X77301638Y-81192076D01*
X77254019Y-81382552D01*
X77254019Y-81763505D01*
X77301638Y-81858743D01*
X77349257Y-81906362D01*
X77444495Y-81953981D01*
X77634972Y-81953981D01*
X77730210Y-81906362D01*
X77777829Y-81858743D01*
X77825448Y-81763505D01*
X77825448Y-81525410D01*
X77777829Y-81430171D01*
X77730210Y-81382552D01*
X77634972Y-81334933D01*
X77444495Y-81334933D01*
X77349257Y-81382552D01*
X77301638Y-81430171D01*
X77254019Y-81525410D01*
X76301638Y-89953981D02*
X76301638Y-88953981D01*
X76539733Y-88953981D01*
X76682591Y-89001600D01*
X76777829Y-89096838D01*
X76825448Y-89192076D01*
X76873067Y-89382552D01*
X76873067Y-89525410D01*
X76825448Y-89715886D01*
X76777829Y-89811124D01*
X76682591Y-89906362D01*
X76539733Y-89953981D01*
X76301638Y-89953981D01*
X77206400Y-88953981D02*
X77873067Y-88953981D01*
X77444495Y-89953981D01*
X48593210Y-29525981D02*
X49212258Y-29525981D01*
X48878924Y-29906933D01*
X49021782Y-29906933D01*
X49117020Y-29954552D01*
X49164639Y-30002171D01*
X49212258Y-30097410D01*
X49212258Y-30335505D01*
X49164639Y-30430743D01*
X49117020Y-30478362D01*
X49021782Y-30525981D01*
X48736067Y-30525981D01*
X48640829Y-30478362D01*
X48593210Y-30430743D01*
X49640829Y-30430743D02*
X49688448Y-30478362D01*
X49640829Y-30525981D01*
X49593210Y-30478362D01*
X49640829Y-30430743D01*
X49640829Y-30525981D01*
X50021781Y-29525981D02*
X50640829Y-29525981D01*
X50307495Y-29906933D01*
X50450353Y-29906933D01*
X50545591Y-29954552D01*
X50593210Y-30002171D01*
X50640829Y-30097410D01*
X50640829Y-30335505D01*
X50593210Y-30430743D01*
X50545591Y-30478362D01*
X50450353Y-30525981D01*
X50164638Y-30525981D01*
X50069400Y-30478362D01*
X50021781Y-30430743D01*
X50926543Y-29525981D02*
X51259876Y-30525981D01*
X51593210Y-29525981D01*
X45600686Y-67090362D02*
X45743543Y-67137981D01*
X45981639Y-67137981D01*
X46076877Y-67090362D01*
X46124496Y-67042743D01*
X46172115Y-66947505D01*
X46172115Y-66852267D01*
X46124496Y-66757029D01*
X46076877Y-66709410D01*
X45981639Y-66661790D01*
X45791162Y-66614171D01*
X45695924Y-66566552D01*
X45648305Y-66518933D01*
X45600686Y-66423695D01*
X45600686Y-66328457D01*
X45648305Y-66233219D01*
X45695924Y-66185600D01*
X45791162Y-66137981D01*
X46029258Y-66137981D01*
X46172115Y-66185600D01*
X46600686Y-67137981D02*
X46600686Y-66137981D01*
X46838781Y-66137981D01*
X46981639Y-66185600D01*
X47076877Y-66280838D01*
X47124496Y-66376076D01*
X47172115Y-66566552D01*
X47172115Y-66709410D01*
X47124496Y-66899886D01*
X47076877Y-66995124D01*
X46981639Y-67090362D01*
X46838781Y-67137981D01*
X46600686Y-67137981D01*
X47791162Y-66137981D02*
X47886401Y-66137981D01*
X47981639Y-66185600D01*
X48029258Y-66233219D01*
X48076877Y-66328457D01*
X48124496Y-66518933D01*
X48124496Y-66757029D01*
X48076877Y-66947505D01*
X48029258Y-67042743D01*
X47981639Y-67090362D01*
X47886401Y-67137981D01*
X47791162Y-67137981D01*
X47695924Y-67090362D01*
X47648305Y-67042743D01*
X47600686Y-66947505D01*
X47553067Y-66757029D01*
X47553067Y-66518933D01*
X47600686Y-66328457D01*
X47648305Y-66233219D01*
X47695924Y-66185600D01*
X47791162Y-66137981D01*
X46219734Y-74982743D02*
X46172115Y-75030362D01*
X46029258Y-75077981D01*
X45934020Y-75077981D01*
X45791162Y-75030362D01*
X45695924Y-74935124D01*
X45648305Y-74839886D01*
X45600686Y-74649410D01*
X45600686Y-74506552D01*
X45648305Y-74316076D01*
X45695924Y-74220838D01*
X45791162Y-74125600D01*
X45934020Y-74077981D01*
X46029258Y-74077981D01*
X46172115Y-74125600D01*
X46219734Y-74173219D01*
X47124496Y-75077981D02*
X46648305Y-75077981D01*
X46648305Y-74077981D01*
X47457829Y-75077981D02*
X47457829Y-74077981D01*
X48029258Y-75077981D02*
X47600686Y-74506552D01*
X48029258Y-74077981D02*
X47457829Y-74649410D01*
X45648305Y-98978981D02*
X45648305Y-97978981D01*
X46124495Y-98978981D02*
X46124495Y-97978981D01*
X46695924Y-98978981D01*
X46695924Y-97978981D01*
X47172114Y-98978981D02*
X47172114Y-97978981D01*
X47553067Y-97978981D01*
X47648305Y-98026600D01*
X47695924Y-98074219D01*
X47743543Y-98169457D01*
X47743543Y-98312314D01*
X47695924Y-98407552D01*
X47648305Y-98455171D01*
X47553067Y-98502790D01*
X47172114Y-98502790D01*
X48172114Y-97978981D02*
X48172114Y-98788505D01*
X48219733Y-98883743D01*
X48267352Y-98931362D01*
X48362590Y-98978981D01*
X48553067Y-98978981D01*
X48648305Y-98931362D01*
X48695924Y-98883743D01*
X48743543Y-98788505D01*
X48743543Y-97978981D01*
X49076876Y-97978981D02*
X49648305Y-97978981D01*
X49362590Y-98978981D02*
X49362590Y-97978981D01*
X46219734Y-89807981D02*
X45886400Y-89331790D01*
X45648305Y-89807981D02*
X45648305Y-88807981D01*
X46029258Y-88807981D01*
X46124496Y-88855600D01*
X46172115Y-88903219D01*
X46219734Y-88998457D01*
X46219734Y-89141314D01*
X46172115Y-89236552D01*
X46124496Y-89284171D01*
X46029258Y-89331790D01*
X45648305Y-89331790D01*
X46600686Y-89760362D02*
X46743543Y-89807981D01*
X46981639Y-89807981D01*
X47076877Y-89760362D01*
X47124496Y-89712743D01*
X47172115Y-89617505D01*
X47172115Y-89522267D01*
X47124496Y-89427029D01*
X47076877Y-89379410D01*
X46981639Y-89331790D01*
X46791162Y-89284171D01*
X46695924Y-89236552D01*
X46648305Y-89188933D01*
X46600686Y-89093695D01*
X46600686Y-88998457D01*
X46648305Y-88903219D01*
X46695924Y-88855600D01*
X46791162Y-88807981D01*
X47029258Y-88807981D01*
X47172115Y-88855600D01*
X47457829Y-88807981D02*
X48029258Y-88807981D01*
X47743543Y-89807981D02*
X47743543Y-88807981D01*
X46219734Y-58792743D02*
X46172115Y-58840362D01*
X46029258Y-58887981D01*
X45934020Y-58887981D01*
X45791162Y-58840362D01*
X45695924Y-58745124D01*
X45648305Y-58649886D01*
X45600686Y-58459410D01*
X45600686Y-58316552D01*
X45648305Y-58126076D01*
X45695924Y-58030838D01*
X45791162Y-57935600D01*
X45934020Y-57887981D01*
X46029258Y-57887981D01*
X46172115Y-57935600D01*
X46219734Y-57983219D01*
X46648305Y-58887981D02*
X46648305Y-57887981D01*
X46981639Y-58602267D01*
X47314972Y-57887981D01*
X47314972Y-58887981D01*
X47791162Y-58887981D02*
X47791162Y-57887981D01*
X48029257Y-57887981D01*
X48172115Y-57935600D01*
X48267353Y-58030838D01*
X48314972Y-58126076D01*
X48362591Y-58316552D01*
X48362591Y-58459410D01*
X48314972Y-58649886D01*
X48267353Y-58745124D01*
X48172115Y-58840362D01*
X48029257Y-58887981D01*
X47791162Y-58887981D01*
X45600686Y-41906362D02*
X45743543Y-41953981D01*
X45981639Y-41953981D01*
X46076877Y-41906362D01*
X46124496Y-41858743D01*
X46172115Y-41763505D01*
X46172115Y-41668267D01*
X46124496Y-41573029D01*
X46076877Y-41525410D01*
X45981639Y-41477790D01*
X45791162Y-41430171D01*
X45695924Y-41382552D01*
X45648305Y-41334933D01*
X45600686Y-41239695D01*
X45600686Y-41144457D01*
X45648305Y-41049219D01*
X45695924Y-41001600D01*
X45791162Y-40953981D01*
X46029258Y-40953981D01*
X46172115Y-41001600D01*
X46600686Y-41953981D02*
X46600686Y-40953981D01*
X46838781Y-40953981D01*
X46981639Y-41001600D01*
X47076877Y-41096838D01*
X47124496Y-41192076D01*
X47172115Y-41382552D01*
X47172115Y-41525410D01*
X47124496Y-41715886D01*
X47076877Y-41811124D01*
X46981639Y-41906362D01*
X46838781Y-41953981D01*
X46600686Y-41953981D01*
X47553067Y-41049219D02*
X47600686Y-41001600D01*
X47695924Y-40953981D01*
X47934020Y-40953981D01*
X48029258Y-41001600D01*
X48076877Y-41049219D01*
X48124496Y-41144457D01*
X48124496Y-41239695D01*
X48076877Y-41382552D01*
X47505448Y-41953981D01*
X48124496Y-41953981D01*
X45600686Y-50602362D02*
X45743543Y-50649981D01*
X45981639Y-50649981D01*
X46076877Y-50602362D01*
X46124496Y-50554743D01*
X46172115Y-50459505D01*
X46172115Y-50364267D01*
X46124496Y-50269029D01*
X46076877Y-50221410D01*
X45981639Y-50173790D01*
X45791162Y-50126171D01*
X45695924Y-50078552D01*
X45648305Y-50030933D01*
X45600686Y-49935695D01*
X45600686Y-49840457D01*
X45648305Y-49745219D01*
X45695924Y-49697600D01*
X45791162Y-49649981D01*
X46029258Y-49649981D01*
X46172115Y-49697600D01*
X46600686Y-50649981D02*
X46600686Y-49649981D01*
X46838781Y-49649981D01*
X46981639Y-49697600D01*
X47076877Y-49792838D01*
X47124496Y-49888076D01*
X47172115Y-50078552D01*
X47172115Y-50221410D01*
X47124496Y-50411886D01*
X47076877Y-50507124D01*
X46981639Y-50602362D01*
X46838781Y-50649981D01*
X46600686Y-50649981D01*
X48124496Y-50649981D02*
X47553067Y-50649981D01*
X47838781Y-50649981D02*
X47838781Y-49649981D01*
X47743543Y-49792838D01*
X47648305Y-49888076D01*
X47553067Y-49935695D01*
X45600686Y-33552267D02*
X46076877Y-33552267D01*
X45505448Y-33837981D02*
X45838781Y-32837981D01*
X46172115Y-33837981D01*
X46695924Y-32837981D02*
X46791163Y-32837981D01*
X46886401Y-32885600D01*
X46934020Y-32933219D01*
X46981639Y-33028457D01*
X47029258Y-33218933D01*
X47029258Y-33457029D01*
X46981639Y-33647505D01*
X46934020Y-33742743D01*
X46886401Y-33790362D01*
X46791163Y-33837981D01*
X46695924Y-33837981D01*
X46600686Y-33790362D01*
X46553067Y-33742743D01*
X46505448Y-33647505D01*
X46457829Y-33457029D01*
X46457829Y-33218933D01*
X46505448Y-33028457D01*
X46553067Y-32933219D01*
X46600686Y-32885600D01*
X46695924Y-32837981D01*
X46124496Y-96073981D02*
X45648305Y-96073981D01*
X45600686Y-96550171D01*
X45648305Y-96502552D01*
X45743543Y-96454933D01*
X45981639Y-96454933D01*
X46076877Y-96502552D01*
X46124496Y-96550171D01*
X46172115Y-96645410D01*
X46172115Y-96883505D01*
X46124496Y-96978743D01*
X46076877Y-97026362D01*
X45981639Y-97073981D01*
X45743543Y-97073981D01*
X45648305Y-97026362D01*
X45600686Y-96978743D01*
X46457829Y-96073981D02*
X46791162Y-97073981D01*
X47124496Y-96073981D01*
X65178495Y-100220981D02*
X65749924Y-100220981D01*
X65464209Y-101220981D02*
X65464209Y-100220981D01*
X65988019Y-100220981D02*
X66654686Y-101220981D01*
X66654686Y-100220981D02*
X65988019Y-101220981D01*
X57645734Y-101220981D02*
X57312400Y-100744790D01*
X57074305Y-101220981D02*
X57074305Y-100220981D01*
X57455258Y-100220981D01*
X57550496Y-100268600D01*
X57598115Y-100316219D01*
X57645734Y-100411457D01*
X57645734Y-100554314D01*
X57598115Y-100649552D01*
X57550496Y-100697171D01*
X57455258Y-100744790D01*
X57074305Y-100744790D01*
X57979067Y-100220981D02*
X58645734Y-101220981D01*
X58645734Y-100220981D02*
X57979067Y-101220981D01*
X74120210Y-98613981D02*
X74739258Y-98613981D01*
X74405924Y-98994933D01*
X74548782Y-98994933D01*
X74644020Y-99042552D01*
X74691639Y-99090171D01*
X74739258Y-99185410D01*
X74739258Y-99423505D01*
X74691639Y-99518743D01*
X74644020Y-99566362D01*
X74548782Y-99613981D01*
X74263067Y-99613981D01*
X74167829Y-99566362D01*
X74120210Y-99518743D01*
X75167829Y-99518743D02*
X75215448Y-99566362D01*
X75167829Y-99613981D01*
X75120210Y-99566362D01*
X75167829Y-99518743D01*
X75167829Y-99613981D01*
X75548781Y-98613981D02*
X76167829Y-98613981D01*
X75834495Y-98994933D01*
X75977353Y-98994933D01*
X76072591Y-99042552D01*
X76120210Y-99090171D01*
X76167829Y-99185410D01*
X76167829Y-99423505D01*
X76120210Y-99518743D01*
X76072591Y-99566362D01*
X75977353Y-99613981D01*
X75691638Y-99613981D01*
X75596400Y-99566362D01*
X75548781Y-99518743D01*
X76453543Y-98613981D02*
X76786876Y-99613981D01*
X77120210Y-98613981D01*
X45648305Y-81310171D02*
X45981639Y-81310171D01*
X46124496Y-81833981D02*
X45648305Y-81833981D01*
X45648305Y-80833981D01*
X46124496Y-80833981D01*
X46553067Y-81833981D02*
X46553067Y-80833981D01*
X47124496Y-81833981D01*
X47124496Y-80833981D01*
X45648305Y-65323981D02*
X45648305Y-64323981D01*
X45981639Y-65038267D01*
X46314972Y-64323981D01*
X46314972Y-65323981D01*
X46791162Y-65323981D02*
X46791162Y-64323981D01*
X47219733Y-65276362D02*
X47362590Y-65323981D01*
X47600686Y-65323981D01*
X47695924Y-65276362D01*
X47743543Y-65228743D01*
X47791162Y-65133505D01*
X47791162Y-65038267D01*
X47743543Y-64943029D01*
X47695924Y-64895410D01*
X47600686Y-64847790D01*
X47410209Y-64800171D01*
X47314971Y-64752552D01*
X47267352Y-64704933D01*
X47219733Y-64609695D01*
X47219733Y-64514457D01*
X47267352Y-64419219D01*
X47314971Y-64371600D01*
X47410209Y-64323981D01*
X47648305Y-64323981D01*
X47791162Y-64371600D01*
X48410209Y-64323981D02*
X48600686Y-64323981D01*
X48695924Y-64371600D01*
X48791162Y-64466838D01*
X48838781Y-64657314D01*
X48838781Y-64990648D01*
X48791162Y-65181124D01*
X48695924Y-65276362D01*
X48600686Y-65323981D01*
X48410209Y-65323981D01*
X48314971Y-65276362D01*
X48219733Y-65181124D01*
X48172114Y-64990648D01*
X48172114Y-64657314D01*
X48219733Y-64466838D01*
X48314971Y-64371600D01*
X48410209Y-64323981D01*
X46219734Y-56973743D02*
X46172115Y-57021362D01*
X46029258Y-57068981D01*
X45934020Y-57068981D01*
X45791162Y-57021362D01*
X45695924Y-56926124D01*
X45648305Y-56830886D01*
X45600686Y-56640410D01*
X45600686Y-56497552D01*
X45648305Y-56307076D01*
X45695924Y-56211838D01*
X45791162Y-56116600D01*
X45934020Y-56068981D01*
X46029258Y-56068981D01*
X46172115Y-56116600D01*
X46219734Y-56164219D01*
X46600686Y-57021362D02*
X46743543Y-57068981D01*
X46981639Y-57068981D01*
X47076877Y-57021362D01*
X47124496Y-56973743D01*
X47172115Y-56878505D01*
X47172115Y-56783267D01*
X47124496Y-56688029D01*
X47076877Y-56640410D01*
X46981639Y-56592790D01*
X46791162Y-56545171D01*
X46695924Y-56497552D01*
X46648305Y-56449933D01*
X46600686Y-56354695D01*
X46600686Y-56259457D01*
X46648305Y-56164219D01*
X46695924Y-56116600D01*
X46791162Y-56068981D01*
X47029258Y-56068981D01*
X47172115Y-56116600D01*
X45648305Y-48940981D02*
X45648305Y-47940981D01*
X45981639Y-48655267D01*
X46314972Y-47940981D01*
X46314972Y-48940981D01*
X46981638Y-47940981D02*
X47172115Y-47940981D01*
X47267353Y-47988600D01*
X47362591Y-48083838D01*
X47410210Y-48274314D01*
X47410210Y-48607648D01*
X47362591Y-48798124D01*
X47267353Y-48893362D01*
X47172115Y-48940981D01*
X46981638Y-48940981D01*
X46886400Y-48893362D01*
X46791162Y-48798124D01*
X46743543Y-48607648D01*
X46743543Y-48274314D01*
X46791162Y-48083838D01*
X46886400Y-47988600D01*
X46981638Y-47940981D01*
X47791162Y-48893362D02*
X47934019Y-48940981D01*
X48172115Y-48940981D01*
X48267353Y-48893362D01*
X48314972Y-48845743D01*
X48362591Y-48750505D01*
X48362591Y-48655267D01*
X48314972Y-48560029D01*
X48267353Y-48512410D01*
X48172115Y-48464790D01*
X47981638Y-48417171D01*
X47886400Y-48369552D01*
X47838781Y-48321933D01*
X47791162Y-48226695D01*
X47791162Y-48131457D01*
X47838781Y-48036219D01*
X47886400Y-47988600D01*
X47981638Y-47940981D01*
X48219734Y-47940981D01*
X48362591Y-47988600D01*
X48791162Y-48940981D02*
X48791162Y-47940981D01*
X64253781Y-79983029D02*
X64253781Y-79792552D01*
X64301400Y-79697314D01*
X64396638Y-79602076D01*
X64587114Y-79554457D01*
X64920448Y-79554457D01*
X65110924Y-79602076D01*
X65206162Y-79697314D01*
X65253781Y-79792552D01*
X65253781Y-79983029D01*
X65206162Y-80078267D01*
X65110924Y-80173505D01*
X64920448Y-80221124D01*
X64587114Y-80221124D01*
X64396638Y-80173505D01*
X64301400Y-80078267D01*
X64253781Y-79983029D01*
X65253781Y-78554457D02*
X64777590Y-78887791D01*
X65253781Y-79125886D02*
X64253781Y-79125886D01*
X64253781Y-78744933D01*
X64301400Y-78649695D01*
X64349019Y-78602076D01*
X64444257Y-78554457D01*
X64587114Y-78554457D01*
X64682352Y-78602076D01*
X64729971Y-78649695D01*
X64777590Y-78744933D01*
X64777590Y-79125886D01*
X65253781Y-77363981D02*
X64253781Y-77363981D01*
X64253781Y-77125886D01*
X64301400Y-76983028D01*
X64396638Y-76887790D01*
X64491876Y-76840171D01*
X64682352Y-76792552D01*
X64825210Y-76792552D01*
X65015686Y-76840171D01*
X65110924Y-76887790D01*
X65206162Y-76983028D01*
X65253781Y-77125886D01*
X65253781Y-77363981D01*
X65253781Y-75792552D02*
X64777590Y-76125886D01*
X65253781Y-76363981D02*
X64253781Y-76363981D01*
X64253781Y-75983028D01*
X64301400Y-75887790D01*
X64349019Y-75840171D01*
X64444257Y-75792552D01*
X64587114Y-75792552D01*
X64682352Y-75840171D01*
X64729971Y-75887790D01*
X64777590Y-75983028D01*
X64777590Y-76363981D01*
X64253781Y-75173505D02*
X64253781Y-74983028D01*
X64301400Y-74887790D01*
X64396638Y-74792552D01*
X64587114Y-74744933D01*
X64920448Y-74744933D01*
X65110924Y-74792552D01*
X65206162Y-74887790D01*
X65253781Y-74983028D01*
X65253781Y-75173505D01*
X65206162Y-75268743D01*
X65110924Y-75363981D01*
X64920448Y-75411600D01*
X64587114Y-75411600D01*
X64396638Y-75363981D01*
X64301400Y-75268743D01*
X64253781Y-75173505D01*
X65253781Y-74316362D02*
X64253781Y-74316362D01*
X64253781Y-73935409D01*
X64301400Y-73840171D01*
X64349019Y-73792552D01*
X64444257Y-73744933D01*
X64587114Y-73744933D01*
X64682352Y-73792552D01*
X64729971Y-73840171D01*
X64777590Y-73935409D01*
X64777590Y-74316362D01*
X64872829Y-73316362D02*
X64872829Y-72554457D01*
X65253781Y-72078267D02*
X64253781Y-72078267D01*
X65253781Y-71602077D02*
X64253781Y-71602077D01*
X65253781Y-71030648D01*
X64253781Y-71030648D01*
X65158543Y-69221124D02*
X65206162Y-69268743D01*
X65253781Y-69411600D01*
X65253781Y-69506838D01*
X65206162Y-69649696D01*
X65110924Y-69744934D01*
X65015686Y-69792553D01*
X64825210Y-69840172D01*
X64682352Y-69840172D01*
X64491876Y-69792553D01*
X64396638Y-69744934D01*
X64301400Y-69649696D01*
X64253781Y-69506838D01*
X64253781Y-69411600D01*
X64301400Y-69268743D01*
X64349019Y-69221124D01*
X64253781Y-68602077D02*
X64253781Y-68411600D01*
X64301400Y-68316362D01*
X64396638Y-68221124D01*
X64587114Y-68173505D01*
X64920448Y-68173505D01*
X65110924Y-68221124D01*
X65206162Y-68316362D01*
X65253781Y-68411600D01*
X65253781Y-68602077D01*
X65206162Y-68697315D01*
X65110924Y-68792553D01*
X64920448Y-68840172D01*
X64587114Y-68840172D01*
X64396638Y-68792553D01*
X64301400Y-68697315D01*
X64253781Y-68602077D01*
X65253781Y-67744934D02*
X64253781Y-67744934D01*
X64968067Y-67411600D01*
X64253781Y-67078267D01*
X65253781Y-67078267D01*
X65253781Y-66602077D02*
X64253781Y-66602077D01*
X64253781Y-66221124D01*
X64301400Y-66125886D01*
X64349019Y-66078267D01*
X64444257Y-66030648D01*
X64587114Y-66030648D01*
X64682352Y-66078267D01*
X64729971Y-66125886D01*
X64777590Y-66221124D01*
X64777590Y-66602077D01*
X64968067Y-65649696D02*
X64968067Y-65173505D01*
X65253781Y-65744934D02*
X64253781Y-65411601D01*
X65253781Y-65078267D01*
X64253781Y-64887791D02*
X64253781Y-64316362D01*
X65253781Y-64602077D02*
X64253781Y-64602077D01*
X65253781Y-63983029D02*
X64253781Y-63983029D01*
X64729971Y-63173505D02*
X64777590Y-63030648D01*
X64825210Y-62983029D01*
X64920448Y-62935410D01*
X65063305Y-62935410D01*
X65158543Y-62983029D01*
X65206162Y-63030648D01*
X65253781Y-63125886D01*
X65253781Y-63506839D01*
X64253781Y-63506839D01*
X64253781Y-63173505D01*
X64301400Y-63078267D01*
X64349019Y-63030648D01*
X64444257Y-62983029D01*
X64539495Y-62983029D01*
X64634733Y-63030648D01*
X64682352Y-63078267D01*
X64729971Y-63173505D01*
X64729971Y-63506839D01*
X65253781Y-62030648D02*
X65253781Y-62506839D01*
X64253781Y-62506839D01*
X64729971Y-61697315D02*
X64729971Y-61363981D01*
X65253781Y-61221124D02*
X65253781Y-61697315D01*
X64253781Y-61697315D01*
X64253781Y-61221124D01*
X64729971Y-59697314D02*
X64777590Y-59554457D01*
X64825210Y-59506838D01*
X64920448Y-59459219D01*
X65063305Y-59459219D01*
X65158543Y-59506838D01*
X65206162Y-59554457D01*
X65253781Y-59649695D01*
X65253781Y-60030648D01*
X64253781Y-60030648D01*
X64253781Y-59697314D01*
X64301400Y-59602076D01*
X64349019Y-59554457D01*
X64444257Y-59506838D01*
X64539495Y-59506838D01*
X64634733Y-59554457D01*
X64682352Y-59602076D01*
X64729971Y-59697314D01*
X64729971Y-60030648D01*
X64253781Y-58840172D02*
X64253781Y-58649695D01*
X64301400Y-58554457D01*
X64396638Y-58459219D01*
X64587114Y-58411600D01*
X64920448Y-58411600D01*
X65110924Y-58459219D01*
X65206162Y-58554457D01*
X65253781Y-58649695D01*
X65253781Y-58840172D01*
X65206162Y-58935410D01*
X65110924Y-59030648D01*
X64920448Y-59078267D01*
X64587114Y-59078267D01*
X64396638Y-59030648D01*
X64301400Y-58935410D01*
X64253781Y-58840172D01*
X64968067Y-58030648D02*
X64968067Y-57554457D01*
X65253781Y-58125886D02*
X64253781Y-57792553D01*
X65253781Y-57459219D01*
X65253781Y-56554457D02*
X64777590Y-56887791D01*
X65253781Y-57125886D02*
X64253781Y-57125886D01*
X64253781Y-56744933D01*
X64301400Y-56649695D01*
X64349019Y-56602076D01*
X64444257Y-56554457D01*
X64587114Y-56554457D01*
X64682352Y-56602076D01*
X64729971Y-56649695D01*
X64777590Y-56744933D01*
X64777590Y-57125886D01*
X65253781Y-56125886D02*
X64253781Y-56125886D01*
X64253781Y-55887791D01*
X64301400Y-55744933D01*
X64396638Y-55649695D01*
X64491876Y-55602076D01*
X64682352Y-55554457D01*
X64825210Y-55554457D01*
X65015686Y-55602076D01*
X65110924Y-55649695D01*
X65206162Y-55744933D01*
X65253781Y-55887791D01*
X65253781Y-56125886D01*
X65206162Y-55173505D02*
X65253781Y-55030648D01*
X65253781Y-54792552D01*
X65206162Y-54697314D01*
X65158543Y-54649695D01*
X65063305Y-54602076D01*
X64968067Y-54602076D01*
X64872829Y-54649695D01*
X64825210Y-54697314D01*
X64777590Y-54792552D01*
X64729971Y-54983029D01*
X64682352Y-55078267D01*
X64634733Y-55125886D01*
X64539495Y-55173505D01*
X64444257Y-55173505D01*
X64349019Y-55125886D01*
X64301400Y-55078267D01*
X64253781Y-54983029D01*
X64253781Y-54744933D01*
X64301400Y-54602076D01*
X60256781Y-78244934D02*
X61066305Y-78244934D01*
X61161543Y-78197315D01*
X61209162Y-78149696D01*
X61256781Y-78054458D01*
X61256781Y-77863981D01*
X61209162Y-77768743D01*
X61161543Y-77721124D01*
X61066305Y-77673505D01*
X60256781Y-77673505D01*
X61209162Y-77244934D02*
X61256781Y-77102077D01*
X61256781Y-76863981D01*
X61209162Y-76768743D01*
X61161543Y-76721124D01*
X61066305Y-76673505D01*
X60971067Y-76673505D01*
X60875829Y-76721124D01*
X60828210Y-76768743D01*
X60780590Y-76863981D01*
X60732971Y-77054458D01*
X60685352Y-77149696D01*
X60637733Y-77197315D01*
X60542495Y-77244934D01*
X60447257Y-77244934D01*
X60352019Y-77197315D01*
X60304400Y-77149696D01*
X60256781Y-77054458D01*
X60256781Y-76816362D01*
X60304400Y-76673505D01*
X60732971Y-76244934D02*
X60732971Y-75911600D01*
X61256781Y-75768743D02*
X61256781Y-76244934D01*
X60256781Y-76244934D01*
X60256781Y-75768743D01*
X60256781Y-74387791D02*
X60256781Y-74197314D01*
X60304400Y-74102076D01*
X60399638Y-74006838D01*
X60590114Y-73959219D01*
X60923448Y-73959219D01*
X61113924Y-74006838D01*
X61209162Y-74102076D01*
X61256781Y-74197314D01*
X61256781Y-74387791D01*
X61209162Y-74483029D01*
X61113924Y-74578267D01*
X60923448Y-74625886D01*
X60590114Y-74625886D01*
X60399638Y-74578267D01*
X60304400Y-74483029D01*
X60256781Y-74387791D01*
X61256781Y-73530648D02*
X60256781Y-73530648D01*
X61256781Y-72959219D01*
X60256781Y-72959219D01*
X61256781Y-72006838D02*
X61256781Y-72483029D01*
X60256781Y-72483029D01*
X60780590Y-71483029D02*
X61256781Y-71483029D01*
X60256781Y-71816362D02*
X60780590Y-71483029D01*
X60256781Y-71149695D01*
X60256781Y-70149695D02*
X61256781Y-69911600D01*
X60542495Y-69721123D01*
X61256781Y-69530647D01*
X60256781Y-69292552D01*
X61256781Y-68911600D02*
X60256781Y-68911600D01*
X60256781Y-68578267D02*
X60256781Y-68006838D01*
X61256781Y-68292553D02*
X60256781Y-68292553D01*
X61256781Y-67673505D02*
X60256781Y-67673505D01*
X60732971Y-67673505D02*
X60732971Y-67102076D01*
X61256781Y-67102076D02*
X60256781Y-67102076D01*
X61256781Y-65863981D02*
X60256781Y-65863981D01*
X61256781Y-65292552D01*
X60256781Y-65292552D01*
X60256781Y-64625886D02*
X60256781Y-64435409D01*
X60304400Y-64340171D01*
X60399638Y-64244933D01*
X60590114Y-64197314D01*
X60923448Y-64197314D01*
X61113924Y-64244933D01*
X61209162Y-64340171D01*
X61256781Y-64435409D01*
X61256781Y-64625886D01*
X61209162Y-64721124D01*
X61113924Y-64816362D01*
X60923448Y-64863981D01*
X60590114Y-64863981D01*
X60399638Y-64816362D01*
X60304400Y-64721124D01*
X60256781Y-64625886D01*
X61256781Y-63768743D02*
X60256781Y-63768743D01*
X60256781Y-63530648D01*
X60304400Y-63387790D01*
X60399638Y-63292552D01*
X60494876Y-63244933D01*
X60685352Y-63197314D01*
X60828210Y-63197314D01*
X61018686Y-63244933D01*
X61113924Y-63292552D01*
X61209162Y-63387790D01*
X61256781Y-63530648D01*
X61256781Y-63768743D01*
X60732971Y-62768743D02*
X60732971Y-62435409D01*
X61256781Y-62292552D02*
X61256781Y-62768743D01*
X60256781Y-62768743D01*
X60256781Y-62292552D01*
X61256781Y-61863981D02*
X60256781Y-61863981D01*
X60971067Y-61530647D01*
X60256781Y-61197314D01*
X61256781Y-61197314D01*
X61161543Y-60149695D02*
X61209162Y-60197314D01*
X61256781Y-60340171D01*
X61256781Y-60435409D01*
X61209162Y-60578267D01*
X61113924Y-60673505D01*
X61018686Y-60721124D01*
X60828210Y-60768743D01*
X60685352Y-60768743D01*
X60494876Y-60721124D01*
X60399638Y-60673505D01*
X60304400Y-60578267D01*
X60256781Y-60435409D01*
X60256781Y-60340171D01*
X60304400Y-60197314D01*
X60352019Y-60149695D01*
X60256781Y-59721124D02*
X61066305Y-59721124D01*
X61161543Y-59673505D01*
X61209162Y-59625886D01*
X61256781Y-59530648D01*
X61256781Y-59340171D01*
X61209162Y-59244933D01*
X61161543Y-59197314D01*
X61066305Y-59149695D01*
X60256781Y-59149695D01*
X60256781Y-58054457D02*
X61256781Y-57721124D01*
X60256781Y-57387790D01*
X60352019Y-57102076D02*
X60304400Y-57054457D01*
X60256781Y-56959219D01*
X60256781Y-56721123D01*
X60304400Y-56625885D01*
X60352019Y-56578266D01*
X60447257Y-56530647D01*
X60542495Y-56530647D01*
X60685352Y-56578266D01*
X61256781Y-57149695D01*
X61256781Y-56530647D01*
X45600686Y-72896362D02*
X45743543Y-72943981D01*
X45981639Y-72943981D01*
X46076877Y-72896362D01*
X46124496Y-72848743D01*
X46172115Y-72753505D01*
X46172115Y-72658267D01*
X46124496Y-72563029D01*
X46076877Y-72515410D01*
X45981639Y-72467790D01*
X45791162Y-72420171D01*
X45695924Y-72372552D01*
X45648305Y-72324933D01*
X45600686Y-72229695D01*
X45600686Y-72134457D01*
X45648305Y-72039219D01*
X45695924Y-71991600D01*
X45791162Y-71943981D01*
X46029258Y-71943981D01*
X46172115Y-71991600D01*
X47172115Y-72848743D02*
X47124496Y-72896362D01*
X46981639Y-72943981D01*
X46886401Y-72943981D01*
X46743543Y-72896362D01*
X46648305Y-72801124D01*
X46600686Y-72705886D01*
X46553067Y-72515410D01*
X46553067Y-72372552D01*
X46600686Y-72182076D01*
X46648305Y-72086838D01*
X46743543Y-71991600D01*
X46886401Y-71943981D01*
X46981639Y-71943981D01*
X47124496Y-71991600D01*
X47172115Y-72039219D01*
X48076877Y-72943981D02*
X47600686Y-72943981D01*
X47600686Y-71943981D01*
X48410210Y-72943981D02*
X48410210Y-71943981D01*
X48981639Y-72943981D02*
X48553067Y-72372552D01*
X48981639Y-71943981D02*
X48410210Y-72515410D01*
%LPC*%
D15*
X58789572Y-97055714D02*
X58718143Y-97127143D01*
X58503857Y-97198571D01*
X58361000Y-97198571D01*
X58146715Y-97127143D01*
X58003857Y-96984286D01*
X57932429Y-96841429D01*
X57861000Y-96555714D01*
X57861000Y-96341429D01*
X57932429Y-96055714D01*
X58003857Y-95912857D01*
X58146715Y-95770000D01*
X58361000Y-95698571D01*
X58503857Y-95698571D01*
X58718143Y-95770000D01*
X58789572Y-95841429D01*
X59432429Y-97198571D02*
X59432429Y-95698571D01*
X61003858Y-97198571D02*
X60503858Y-96484286D01*
X60146715Y-97198571D02*
X60146715Y-95698571D01*
X60718143Y-95698571D01*
X60861001Y-95770000D01*
X60932429Y-95841429D01*
X61003858Y-95984286D01*
X61003858Y-96198571D01*
X60932429Y-96341429D01*
X60861001Y-96412857D01*
X60718143Y-96484286D01*
X60146715Y-96484286D01*
X62503858Y-97055714D02*
X62432429Y-97127143D01*
X62218143Y-97198571D01*
X62075286Y-97198571D01*
X61861001Y-97127143D01*
X61718143Y-96984286D01*
X61646715Y-96841429D01*
X61575286Y-96555714D01*
X61575286Y-96341429D01*
X61646715Y-96055714D01*
X61718143Y-95912857D01*
X61861001Y-95770000D01*
X62075286Y-95698571D01*
X62218143Y-95698571D01*
X62432429Y-95770000D01*
X62503858Y-95841429D01*
X63146715Y-95698571D02*
X63146715Y-96912857D01*
X63218143Y-97055714D01*
X63289572Y-97127143D01*
X63432429Y-97198571D01*
X63718143Y-97198571D01*
X63861001Y-97127143D01*
X63932429Y-97055714D01*
X64003858Y-96912857D01*
X64003858Y-95698571D01*
X64718144Y-97198571D02*
X64718144Y-95698571D01*
X65218144Y-95698571D02*
X66075287Y-95698571D01*
X65646716Y-97198571D02*
X65646716Y-95698571D01*
X66503858Y-97127143D02*
X66718144Y-97198571D01*
X67075287Y-97198571D01*
X67218144Y-97127143D01*
X67289573Y-97055714D01*
X67361001Y-96912857D01*
X67361001Y-96770000D01*
X67289573Y-96627143D01*
X67218144Y-96555714D01*
X67075287Y-96484286D01*
X66789573Y-96412857D01*
X66646715Y-96341429D01*
X66575287Y-96270000D01*
X66503858Y-96127143D01*
X66503858Y-95984286D01*
X66575287Y-95841429D01*
X66646715Y-95770000D01*
X66789573Y-95698571D01*
X67146715Y-95698571D01*
X67361001Y-95770000D01*
X58547287Y-94642714D02*
X58475858Y-94714143D01*
X58261572Y-94785571D01*
X58118715Y-94785571D01*
X57904430Y-94714143D01*
X57761572Y-94571286D01*
X57690144Y-94428429D01*
X57618715Y-94142714D01*
X57618715Y-93928429D01*
X57690144Y-93642714D01*
X57761572Y-93499857D01*
X57904430Y-93357000D01*
X58118715Y-93285571D01*
X58261572Y-93285571D01*
X58475858Y-93357000D01*
X58547287Y-93428429D01*
X60047287Y-94785571D02*
X59547287Y-94071286D01*
X59190144Y-94785571D02*
X59190144Y-93285571D01*
X59761572Y-93285571D01*
X59904430Y-93357000D01*
X59975858Y-93428429D01*
X60047287Y-93571286D01*
X60047287Y-93785571D01*
X59975858Y-93928429D01*
X59904430Y-93999857D01*
X59761572Y-94071286D01*
X59190144Y-94071286D01*
X60618715Y-94357000D02*
X61333001Y-94357000D01*
X60475858Y-94785571D02*
X60975858Y-93285571D01*
X61475858Y-94785571D01*
X61833001Y-93285571D02*
X62833001Y-93285571D01*
X61833001Y-94785571D01*
X62833001Y-94785571D01*
X63690143Y-94071286D02*
X63690143Y-94785571D01*
X63190143Y-93285571D02*
X63690143Y-94071286D01*
X64190143Y-93285571D01*
D11*
X68580000Y-94043500D02*
X67437000Y-94996000D01*
X67246500Y-94996000D02*
X68580000Y-94043500D01*
X68199000Y-94170500D02*
X67246500Y-94996000D01*
X67119500Y-94932500D02*
X68199000Y-94170500D01*
X68008500Y-94234000D02*
X67119500Y-94932500D01*
X66865500Y-94996000D02*
X68008500Y-94234000D01*
X67691000Y-94361000D02*
X66865500Y-94996000D01*
X66738500Y-94932500D02*
X67691000Y-94361000D01*
X67500500Y-94361000D02*
X66738500Y-94932500D01*
X66738500Y-94805500D02*
X67500500Y-94361000D01*
X67246500Y-94361000D02*
X66738500Y-94805500D01*
X66675000Y-94678500D02*
X67246500Y-94361000D01*
X67246500Y-94170500D02*
X66675000Y-94678500D01*
X67246500Y-94043500D02*
X66611500Y-94551500D01*
X67373500Y-93853000D02*
X66548000Y-94424500D01*
X67373500Y-93726000D02*
X66548000Y-94297500D01*
D16*
X65532000Y-94932500D02*
X64897000Y-94043500D01*
D11*
X67437000Y-95059500D02*
X65468500Y-95059500D01*
X69024500Y-93916500D02*
X67437000Y-95059500D01*
X67246500Y-94361000D02*
X69024500Y-93916500D01*
X67564000Y-93472000D02*
X67246500Y-94361000D01*
X66484500Y-94170500D02*
X67564000Y-93472000D01*
X65659000Y-92710000D02*
X66484500Y-94234000D01*
X65722500Y-94107000D02*
X65659000Y-92710000D01*
X64643000Y-93853000D02*
X65722500Y-94107000D01*
X65468500Y-95059500D02*
X64643000Y-93853000D01*
D16*
X65722500Y-94932500D02*
X65087500Y-94043500D01*
X65913000Y-94932500D02*
X65341500Y-94107000D01*
X66040000Y-94932500D02*
X65595500Y-94170500D01*
X66294000Y-94932500D02*
X65849500Y-94107000D01*
X66484500Y-94932500D02*
X65913000Y-93853000D01*
X66675000Y-94932500D02*
X65786000Y-93218000D01*
X65849500Y-93916500D02*
X65786000Y-93091000D01*
D17*
X66040000Y-34290000D03*
D18*
X66040000Y-36830000D03*
X66040000Y-39370000D03*
D17*
X63500000Y-34290000D03*
D18*
X63500000Y-36830000D03*
X63500000Y-39370000D03*
D17*
X60960000Y-34290000D03*
D18*
X60960000Y-36830000D03*
X60960000Y-39370000D03*
D17*
X58420000Y-34290000D03*
D18*
X58420000Y-36830000D03*
X58420000Y-39370000D03*
D19*
X81941400Y-65501600D03*
X81940400Y-57501600D03*
X81940400Y-41501600D03*
X81940400Y-73501600D03*
X81940400Y-33501600D03*
X81940400Y-49501600D03*
X81941400Y-81501600D03*
X81941400Y-89501600D03*
X81940400Y-25501600D03*
X73941400Y-25501600D03*
X57941400Y-25501600D03*
X49941400Y-25501600D03*
X57941400Y-105501600D03*
X49941400Y-105501600D03*
X81940400Y-105501600D03*
X73941400Y-105501600D03*
X41941400Y-105501600D03*
X41941400Y-89501600D03*
X41941400Y-81501600D03*
X41941400Y-73501600D03*
X41941400Y-65501600D03*
X41941400Y-57501600D03*
X41941400Y-49501600D03*
X41941400Y-41501600D03*
X41941400Y-33501600D03*
X41941400Y-25501600D03*
X81941400Y-97501600D03*
X41941400Y-97501600D03*
X65941400Y-25501600D03*
X65941400Y-105501600D03*
D20*
X73691400Y-85191600D03*
X73691400Y-82651600D03*
X73691400Y-80111600D03*
X73691400Y-77571600D03*
X73691400Y-75031600D03*
X73691400Y-72491600D03*
X73691400Y-69951600D03*
X73691400Y-67411600D03*
X73691400Y-64871600D03*
X73691400Y-62331600D03*
X73691400Y-59791600D03*
X73691400Y-57251600D03*
X50831400Y-59791600D03*
X50831400Y-80111600D03*
X50831400Y-64871600D03*
X50831400Y-62331600D03*
X50831400Y-82651600D03*
X50831400Y-75031600D03*
X50831400Y-85191600D03*
X50831400Y-72491600D03*
X50831400Y-69951600D03*
X50831400Y-67411600D03*
X50831400Y-77571600D03*
X50831400Y-57251600D03*
X50831400Y-52171600D03*
X50831400Y-54711600D03*
X50831400Y-49631600D03*
X73691400Y-52171600D03*
X73691400Y-54711600D03*
X73691400Y-49631600D03*
M02*
