%TF.GenerationSoftware,KiCad,Pcbnew,4.0.7-e2-6376~58~ubuntu16.04.1*%
%TF.CreationDate,2018-07-18T10:10:47-07:00*%
%TF.ProjectId,6x11-NodeMCU-V2-Breakout,367831312D4E6F64654D43552D56322D,1.0*%
%TF.FileFunction,Copper,L2,Bot,Signal*%
%FSLAX46Y46*%
G04 Gerber Fmt 4.6, Leading zero omitted, Abs format (unit mm)*
G04 Created by KiCad (PCBNEW 4.0.7-e2-6376~58~ubuntu16.04.1) date Wed Jul 18 10:10:47 2018*
%MOMM*%
%LPD*%
G01*
G04 APERTURE LIST*
%ADD10C,0.350000*%
%ADD11R,2.032000X1.727200*%
%ADD12O,2.032000X1.727200*%
%ADD13C,6.000000*%
%ADD14C,1.727200*%
%ADD15C,0.685800*%
%ADD16C,0.762000*%
%ADD17C,0.330200*%
%ADD18C,0.330200*%
%ADD19C,0.350000*%
G04 APERTURE END LIST*
D10*
D11*
X66040000Y-34290000D03*
D12*
X66040000Y-36830000D03*
X66040000Y-39370000D03*
D11*
X63500000Y-34290000D03*
D12*
X63500000Y-36830000D03*
X63500000Y-39370000D03*
D11*
X60960000Y-34290000D03*
D12*
X60960000Y-36830000D03*
X60960000Y-39370000D03*
D11*
X58420000Y-34290000D03*
D12*
X58420000Y-36830000D03*
X58420000Y-39370000D03*
D13*
X81941400Y-65501600D03*
X81940400Y-57501600D03*
X81940400Y-41501600D03*
X81940400Y-73501600D03*
X81940400Y-33501600D03*
X81940400Y-49501600D03*
X81941400Y-81501600D03*
X81941400Y-89501600D03*
X81940400Y-25501600D03*
X73941400Y-25501600D03*
X57941400Y-25501600D03*
X49941400Y-25501600D03*
X57941400Y-105501600D03*
X49941400Y-105501600D03*
X81940400Y-105501600D03*
X73941400Y-105501600D03*
X41941400Y-105501600D03*
X41941400Y-89501600D03*
X41941400Y-81501600D03*
X41941400Y-73501600D03*
X41941400Y-65501600D03*
X41941400Y-57501600D03*
X41941400Y-49501600D03*
X41941400Y-41501600D03*
X41941400Y-33501600D03*
X41941400Y-25501600D03*
X81941400Y-97501600D03*
X41941400Y-97501600D03*
X65941400Y-25501600D03*
X65941400Y-105501600D03*
D14*
X73691400Y-85191600D03*
X73691400Y-82651600D03*
X73691400Y-80111600D03*
X73691400Y-77571600D03*
X73691400Y-75031600D03*
X73691400Y-72491600D03*
X73691400Y-69951600D03*
X73691400Y-67411600D03*
X73691400Y-64871600D03*
X73691400Y-62331600D03*
X73691400Y-59791600D03*
X73691400Y-57251600D03*
X50831400Y-59791600D03*
X50831400Y-80111600D03*
X50831400Y-64871600D03*
X50831400Y-62331600D03*
X50831400Y-82651600D03*
X50831400Y-75031600D03*
X50831400Y-85191600D03*
X50831400Y-72491600D03*
X50831400Y-69951600D03*
X50831400Y-67411600D03*
X50831400Y-77571600D03*
X50831400Y-57251600D03*
X50831400Y-52171600D03*
X50831400Y-54711600D03*
X50831400Y-49631600D03*
X73691400Y-52171600D03*
X73691400Y-54711600D03*
X73691400Y-49631600D03*
D15*
X66040000Y-82550000D03*
D16*
X53975000Y-74930000D02*
X53975000Y-62230000D01*
X53975000Y-62230000D02*
X53975000Y-36830000D01*
X73790000Y-62230000D02*
X53975000Y-62230000D01*
X58040000Y-25400000D02*
X53975000Y-25400000D01*
X53975000Y-25400000D02*
X50040000Y-25400000D01*
X53975000Y-29335000D02*
X53975000Y-25400000D01*
X53975000Y-36830000D02*
X53975000Y-29335000D01*
X58420000Y-36830000D02*
X56642000Y-36830000D01*
X56642000Y-36830000D02*
X53975000Y-36830000D01*
X53975000Y-74930000D02*
X55880000Y-74930000D01*
X50930000Y-74930000D02*
X53975000Y-74930000D01*
X63500000Y-36830000D02*
X66040000Y-36830000D01*
X60960000Y-36830000D02*
X63500000Y-36830000D01*
X58420000Y-36830000D02*
X60960000Y-36830000D01*
X73790000Y-85090000D02*
X73790000Y-97790000D01*
X73790000Y-97790000D02*
X73790000Y-105150000D01*
X82040000Y-97400000D02*
X74180000Y-97400000D01*
X74180000Y-97400000D02*
X73790000Y-97790000D01*
X73790000Y-105150000D02*
X74040000Y-105400000D01*
X55880000Y-74930000D02*
X66040000Y-85090000D01*
X66040000Y-85090000D02*
X73790000Y-85090000D01*
X82039000Y-105400000D02*
X82039000Y-101157360D01*
X82039000Y-101157360D02*
X82040000Y-101156360D01*
X82040000Y-101156360D02*
X82040000Y-97400000D01*
X74040000Y-105400000D02*
X82039000Y-105400000D01*
X66040000Y-39370000D02*
X66192400Y-39370000D01*
X66192400Y-39370000D02*
X74040000Y-31522400D01*
X74040000Y-31522400D02*
X74040000Y-29642640D01*
X74040000Y-29642640D02*
X74040000Y-25400000D01*
X73790000Y-82550000D02*
X66040000Y-82550000D01*
X74040000Y-25400000D02*
X66040000Y-25400000D01*
X82039000Y-25400000D02*
X77796360Y-25400000D01*
X77796360Y-25400000D02*
X74040000Y-25400000D01*
X63500000Y-39370000D02*
X66040000Y-39370000D01*
X60960000Y-39370000D02*
X63500000Y-39370000D01*
X58420000Y-39370000D02*
X60960000Y-39370000D01*
X50040000Y-105400000D02*
X42040000Y-105400000D01*
D17*
X82039000Y-33400000D02*
X73790000Y-41649000D01*
X73790000Y-41649000D02*
X73790000Y-49530000D01*
D18*
X66040000Y-82550000D03*
D19*
X66040000Y-34290000D03*
X66040000Y-36830000D03*
X66040000Y-39370000D03*
X63500000Y-34290000D03*
X63500000Y-36830000D03*
X63500000Y-39370000D03*
X60960000Y-34290000D03*
X60960000Y-36830000D03*
X60960000Y-39370000D03*
X58420000Y-34290000D03*
X58420000Y-36830000D03*
X58420000Y-39370000D03*
X81941400Y-65501600D03*
X81940400Y-57501600D03*
X81940400Y-41501600D03*
X81940400Y-73501600D03*
X81940400Y-33501600D03*
X81940400Y-49501600D03*
X81941400Y-81501600D03*
X81941400Y-89501600D03*
X81940400Y-25501600D03*
X73941400Y-25501600D03*
X57941400Y-25501600D03*
X49941400Y-25501600D03*
X57941400Y-105501600D03*
X49941400Y-105501600D03*
X81940400Y-105501600D03*
X73941400Y-105501600D03*
X41941400Y-105501600D03*
X41941400Y-89501600D03*
X41941400Y-81501600D03*
X41941400Y-73501600D03*
X41941400Y-65501600D03*
X41941400Y-57501600D03*
X41941400Y-49501600D03*
X41941400Y-41501600D03*
X41941400Y-33501600D03*
X41941400Y-25501600D03*
X81941400Y-97501600D03*
X41941400Y-97501600D03*
X65941400Y-25501600D03*
X65941400Y-105501600D03*
X73691400Y-85191600D03*
X73691400Y-82651600D03*
X73691400Y-80111600D03*
X73691400Y-77571600D03*
X73691400Y-75031600D03*
X73691400Y-72491600D03*
X73691400Y-69951600D03*
X73691400Y-67411600D03*
X73691400Y-64871600D03*
X73691400Y-62331600D03*
X73691400Y-59791600D03*
X73691400Y-57251600D03*
X50831400Y-59791600D03*
X50831400Y-80111600D03*
X50831400Y-64871600D03*
X50831400Y-62331600D03*
X50831400Y-82651600D03*
X50831400Y-75031600D03*
X50831400Y-85191600D03*
X50831400Y-72491600D03*
X50831400Y-69951600D03*
X50831400Y-67411600D03*
X50831400Y-77571600D03*
X50831400Y-57251600D03*
X50831400Y-52171600D03*
X50831400Y-54711600D03*
X50831400Y-49631600D03*
X73691400Y-52171600D03*
X73691400Y-54711600D03*
X73691400Y-49631600D03*
M02*
