%TF.GenerationSoftware,KiCad,Pcbnew,4.0.7-e2-6376~58~ubuntu16.04.1*%
%TF.CreationDate,2018-05-02T09:44:08-07:00*%
%TF.ProjectId,2x3-LED-RGB-A-SMT,3278332D4C45442D5247422D412D534D,1.0*%
%TF.FileFunction,Copper,L1,Top,Signal*%
%FSLAX46Y46*%
G04 Gerber Fmt 4.6, Leading zero omitted, Abs format (unit mm)*
G04 Created by KiCad (PCBNEW 4.0.7-e2-6376~58~ubuntu16.04.1) date Wed May  2 09:44:08 2018*
%MOMM*%
%LPD*%
G01*
G04 APERTURE LIST*
%ADD10C,0.350000*%
%ADD11C,6.000000*%
%ADD12R,0.800000X0.550000*%
%ADD13C,0.685800*%
%ADD14C,0.330200*%
%ADD15C,0.330200*%
%ADD16C,0.350000*%
G04 APERTURE END LIST*
D10*
D11*
X4955000Y-26035000D03*
X4955000Y-18035000D03*
X12955000Y-26035000D03*
D12*
X7955000Y-22335000D03*
X7955000Y-21435000D03*
X9555000Y-22335000D03*
X9555000Y-21435000D03*
D11*
X12955000Y-18035000D03*
X20955000Y-18035000D03*
X20955000Y-26035000D03*
D13*
X10160000Y-20955000D03*
X6985000Y-22225000D03*
D14*
X9555000Y-21435000D02*
X9680000Y-21435000D01*
X9680000Y-21435000D02*
X10160000Y-20955000D01*
X7955000Y-22335000D02*
X7095000Y-22335000D01*
X7095000Y-22335000D02*
X6985000Y-22225000D01*
X7955000Y-21435000D02*
X8080000Y-21435000D01*
X11480000Y-18035000D02*
X12955000Y-18035000D01*
X8080000Y-21435000D02*
X11480000Y-18035000D01*
X9555000Y-22335000D02*
X9680000Y-22335000D01*
X9680000Y-22335000D02*
X12955000Y-25610000D01*
X12955000Y-25610000D02*
X12955000Y-26035000D01*
D15*
X10160000Y-20955000D03*
X6985000Y-22225000D03*
D16*
X4955000Y-26035000D03*
X4955000Y-18035000D03*
X12955000Y-26035000D03*
X12955000Y-18035000D03*
X20955000Y-18035000D03*
X20955000Y-26035000D03*
M02*
