%TF.GenerationSoftware,KiCad,Pcbnew,4.0.7-e2-6376~58~ubuntu16.04.1*%
%TF.CreationDate,2018-05-31T06:19:36-07:00*%
%TF.ProjectId,2x3-LED-RGB-A-SMT,3278332D4C45442D5247422D412D534D,1.0*%
%TF.FileFunction,Legend,Top*%
%FSLAX46Y46*%
G04 Gerber Fmt 4.6, Leading zero omitted, Abs format (unit mm)*
G04 Created by KiCad (PCBNEW 4.0.7-e2-6376~58~ubuntu16.04.1) date Thu May 31 06:19:36 2018*
%MOMM*%
%LPD*%
G01*
G04 APERTURE LIST*
%ADD10C,0.350000*%
%ADD11C,0.152400*%
%ADD12C,0.150000*%
%ADD13C,0.400000*%
%ADD14R,0.902400X0.952400*%
%ADD15C,6.152400*%
%ADD16R,0.952400X0.702400*%
G04 APERTURE END LIST*
D10*
D11*
X8305800Y-35191000D02*
X9575800Y-35191000D01*
X8305800Y-32460500D02*
X9575800Y-32460500D01*
D12*
X8305800Y-35191000D02*
X8305800Y-32460500D01*
X9575800Y-32460500D02*
X9575800Y-35191000D01*
D11*
X16332200Y-39891400D02*
X17602200Y-39891400D01*
X16332200Y-37160900D02*
X17602200Y-37160900D01*
D12*
X16332200Y-39891400D02*
X16332200Y-37160900D01*
X17602200Y-37160900D02*
X17602200Y-39891400D01*
D11*
X16383000Y-35191000D02*
X17653000Y-35191000D01*
X16383000Y-32460500D02*
X17653000Y-32460500D01*
D12*
X16383000Y-35191000D02*
X16383000Y-32460500D01*
X17653000Y-32460500D02*
X17653000Y-35191000D01*
D13*
X5205000Y-41910000D02*
X21455000Y-41910000D01*
D12*
X17264524Y-44267143D02*
X17216905Y-44314762D01*
X17074048Y-44362381D01*
X16978810Y-44362381D01*
X16835952Y-44314762D01*
X16740714Y-44219524D01*
X16693095Y-44124286D01*
X16645476Y-43933810D01*
X16645476Y-43790952D01*
X16693095Y-43600476D01*
X16740714Y-43505238D01*
X16835952Y-43410000D01*
X16978810Y-43362381D01*
X17074048Y-43362381D01*
X17216905Y-43410000D01*
X17264524Y-43457619D01*
X9264524Y-44267143D02*
X9216905Y-44314762D01*
X9074048Y-44362381D01*
X8978810Y-44362381D01*
X8835952Y-44314762D01*
X8740714Y-44219524D01*
X8693095Y-44124286D01*
X8645476Y-43933810D01*
X8645476Y-43790952D01*
X8693095Y-43600476D01*
X8740714Y-43505238D01*
X8835952Y-43410000D01*
X8978810Y-43362381D01*
X9074048Y-43362381D01*
X9216905Y-43410000D01*
X9264524Y-43457619D01*
X3645477Y-37838571D02*
X3788334Y-37886190D01*
X3835953Y-37933810D01*
X3883572Y-38029048D01*
X3883572Y-38171905D01*
X3835953Y-38267143D01*
X3788334Y-38314762D01*
X3693096Y-38362381D01*
X3312143Y-38362381D01*
X3312143Y-37362381D01*
X3645477Y-37362381D01*
X3740715Y-37410000D01*
X3788334Y-37457619D01*
X3835953Y-37552857D01*
X3835953Y-37648095D01*
X3788334Y-37743333D01*
X3740715Y-37790952D01*
X3645477Y-37838571D01*
X3312143Y-37838571D01*
X4788334Y-38362381D02*
X4312143Y-38362381D01*
X4312143Y-37362381D01*
X5121667Y-37362381D02*
X5121667Y-38171905D01*
X5169286Y-38267143D01*
X5216905Y-38314762D01*
X5312143Y-38362381D01*
X5502620Y-38362381D01*
X5597858Y-38314762D01*
X5645477Y-38267143D01*
X5693096Y-38171905D01*
X5693096Y-37362381D01*
X6169286Y-37838571D02*
X6502620Y-37838571D01*
X6645477Y-38362381D02*
X6169286Y-38362381D01*
X6169286Y-37362381D01*
X6645477Y-37362381D01*
X20312143Y-38362381D02*
X19978809Y-37886190D01*
X19740714Y-38362381D02*
X19740714Y-37362381D01*
X20121667Y-37362381D01*
X20216905Y-37410000D01*
X20264524Y-37457619D01*
X20312143Y-37552857D01*
X20312143Y-37695714D01*
X20264524Y-37790952D01*
X20216905Y-37838571D01*
X20121667Y-37886190D01*
X19740714Y-37886190D01*
X20740714Y-37838571D02*
X21074048Y-37838571D01*
X21216905Y-38362381D02*
X20740714Y-38362381D01*
X20740714Y-37362381D01*
X21216905Y-37362381D01*
X21645476Y-38362381D02*
X21645476Y-37362381D01*
X21883571Y-37362381D01*
X22026429Y-37410000D01*
X22121667Y-37505238D01*
X22169286Y-37600476D01*
X22216905Y-37790952D01*
X22216905Y-37933810D01*
X22169286Y-38124286D01*
X22121667Y-38219524D01*
X22026429Y-38314762D01*
X21883571Y-38362381D01*
X21645476Y-38362381D01*
X11288334Y-37410000D02*
X11193096Y-37362381D01*
X11050239Y-37362381D01*
X10907381Y-37410000D01*
X10812143Y-37505238D01*
X10764524Y-37600476D01*
X10716905Y-37790952D01*
X10716905Y-37933810D01*
X10764524Y-38124286D01*
X10812143Y-38219524D01*
X10907381Y-38314762D01*
X11050239Y-38362381D01*
X11145477Y-38362381D01*
X11288334Y-38314762D01*
X11335953Y-38267143D01*
X11335953Y-37933810D01*
X11145477Y-37933810D01*
X12335953Y-38362381D02*
X12002619Y-37886190D01*
X11764524Y-38362381D02*
X11764524Y-37362381D01*
X12145477Y-37362381D01*
X12240715Y-37410000D01*
X12288334Y-37457619D01*
X12335953Y-37552857D01*
X12335953Y-37695714D01*
X12288334Y-37790952D01*
X12240715Y-37838571D01*
X12145477Y-37886190D01*
X11764524Y-37886190D01*
X12764524Y-37838571D02*
X13097858Y-37838571D01*
X13240715Y-38362381D02*
X12764524Y-38362381D01*
X12764524Y-37362381D01*
X13240715Y-37362381D01*
X13669286Y-37838571D02*
X14002620Y-37838571D01*
X14145477Y-38362381D02*
X13669286Y-38362381D01*
X13669286Y-37362381D01*
X14145477Y-37362381D01*
X14574048Y-38362381D02*
X14574048Y-37362381D01*
X15145477Y-38362381D01*
X15145477Y-37362381D01*
%LPC*%
D14*
X8940800Y-34544000D03*
X8940800Y-33044000D03*
X16967200Y-39244400D03*
X16967200Y-37744400D03*
X17018000Y-34544000D03*
X17018000Y-33044000D03*
D15*
X4955000Y-41910000D03*
X4955000Y-33910000D03*
X12955000Y-41910000D03*
D16*
X7955000Y-38210000D03*
X7955000Y-37310000D03*
X9555000Y-38210000D03*
X9555000Y-37310000D03*
D15*
X12955000Y-33910000D03*
X20955000Y-33910000D03*
X20955000Y-41910000D03*
M02*
