%TF.GenerationSoftware,KiCad,Pcbnew,4.0.7-e2-6376~58~ubuntu16.04.1*%
%TF.CreationDate,2018-05-02T09:44:08-07:00*%
%TF.ProjectId,2x3-LED-RGB-A-SMT,3278332D4C45442D5247422D412D534D,1.0*%
%TF.FileFunction,Legend,Top*%
%FSLAX46Y46*%
G04 Gerber Fmt 4.6, Leading zero omitted, Abs format (unit mm)*
G04 Created by KiCad (PCBNEW 4.0.7-e2-6376~58~ubuntu16.04.1) date Wed May  2 09:44:08 2018*
%MOMM*%
%LPD*%
G01*
G04 APERTURE LIST*
%ADD10C,0.350000*%
%ADD11C,0.400000*%
%ADD12C,0.150000*%
%ADD13C,6.152400*%
%ADD14R,0.952400X0.702400*%
G04 APERTURE END LIST*
D10*
D11*
X5205000Y-26035000D02*
X21455000Y-26035000D01*
D12*
X16574048Y-28106429D02*
X17335953Y-28106429D01*
X16955001Y-28487381D02*
X16955001Y-27725476D01*
X8574048Y-28106429D02*
X9335953Y-28106429D01*
X8955001Y-28487381D02*
X8955001Y-27725476D01*
X3645477Y-21963571D02*
X3788334Y-22011190D01*
X3835953Y-22058810D01*
X3883572Y-22154048D01*
X3883572Y-22296905D01*
X3835953Y-22392143D01*
X3788334Y-22439762D01*
X3693096Y-22487381D01*
X3312143Y-22487381D01*
X3312143Y-21487381D01*
X3645477Y-21487381D01*
X3740715Y-21535000D01*
X3788334Y-21582619D01*
X3835953Y-21677857D01*
X3835953Y-21773095D01*
X3788334Y-21868333D01*
X3740715Y-21915952D01*
X3645477Y-21963571D01*
X3312143Y-21963571D01*
X4788334Y-22487381D02*
X4312143Y-22487381D01*
X4312143Y-21487381D01*
X5121667Y-21487381D02*
X5121667Y-22296905D01*
X5169286Y-22392143D01*
X5216905Y-22439762D01*
X5312143Y-22487381D01*
X5502620Y-22487381D01*
X5597858Y-22439762D01*
X5645477Y-22392143D01*
X5693096Y-22296905D01*
X5693096Y-21487381D01*
X6169286Y-21963571D02*
X6502620Y-21963571D01*
X6645477Y-22487381D02*
X6169286Y-22487381D01*
X6169286Y-21487381D01*
X6645477Y-21487381D01*
X20312143Y-22487381D02*
X19978809Y-22011190D01*
X19740714Y-22487381D02*
X19740714Y-21487381D01*
X20121667Y-21487381D01*
X20216905Y-21535000D01*
X20264524Y-21582619D01*
X20312143Y-21677857D01*
X20312143Y-21820714D01*
X20264524Y-21915952D01*
X20216905Y-21963571D01*
X20121667Y-22011190D01*
X19740714Y-22011190D01*
X20740714Y-21963571D02*
X21074048Y-21963571D01*
X21216905Y-22487381D02*
X20740714Y-22487381D01*
X20740714Y-21487381D01*
X21216905Y-21487381D01*
X21645476Y-22487381D02*
X21645476Y-21487381D01*
X21883571Y-21487381D01*
X22026429Y-21535000D01*
X22121667Y-21630238D01*
X22169286Y-21725476D01*
X22216905Y-21915952D01*
X22216905Y-22058810D01*
X22169286Y-22249286D01*
X22121667Y-22344524D01*
X22026429Y-22439762D01*
X21883571Y-22487381D01*
X21645476Y-22487381D01*
X11288334Y-21535000D02*
X11193096Y-21487381D01*
X11050239Y-21487381D01*
X10907381Y-21535000D01*
X10812143Y-21630238D01*
X10764524Y-21725476D01*
X10716905Y-21915952D01*
X10716905Y-22058810D01*
X10764524Y-22249286D01*
X10812143Y-22344524D01*
X10907381Y-22439762D01*
X11050239Y-22487381D01*
X11145477Y-22487381D01*
X11288334Y-22439762D01*
X11335953Y-22392143D01*
X11335953Y-22058810D01*
X11145477Y-22058810D01*
X12335953Y-22487381D02*
X12002619Y-22011190D01*
X11764524Y-22487381D02*
X11764524Y-21487381D01*
X12145477Y-21487381D01*
X12240715Y-21535000D01*
X12288334Y-21582619D01*
X12335953Y-21677857D01*
X12335953Y-21820714D01*
X12288334Y-21915952D01*
X12240715Y-21963571D01*
X12145477Y-22011190D01*
X11764524Y-22011190D01*
X12764524Y-21963571D02*
X13097858Y-21963571D01*
X13240715Y-22487381D02*
X12764524Y-22487381D01*
X12764524Y-21487381D01*
X13240715Y-21487381D01*
X13669286Y-21963571D02*
X14002620Y-21963571D01*
X14145477Y-22487381D02*
X13669286Y-22487381D01*
X13669286Y-21487381D01*
X14145477Y-21487381D01*
X14574048Y-22487381D02*
X14574048Y-21487381D01*
X15145477Y-22487381D01*
X15145477Y-21487381D01*
%LPC*%
D13*
X4955000Y-26035000D03*
X4955000Y-18035000D03*
X12955000Y-26035000D03*
D14*
X7955000Y-22335000D03*
X7955000Y-21435000D03*
X9555000Y-22335000D03*
X9555000Y-21435000D03*
D13*
X12955000Y-18035000D03*
X20955000Y-18035000D03*
X20955000Y-26035000D03*
M02*
