%TF.GenerationSoftware,KiCad,Pcbnew,4.0.7-e2-6376~58~ubuntu16.04.1*%
%TF.CreationDate,2018-05-15T10:56:42-07:00*%
%TF.ProjectId,2x3-LED-RGB-A-SMT,3278332D4C45442D5247422D412D534D,1.0*%
%TF.FileFunction,Soldermask,Top*%
%FSLAX46Y46*%
G04 Gerber Fmt 4.6, Leading zero omitted, Abs format (unit mm)*
G04 Created by KiCad (PCBNEW 4.0.7-e2-6376~58~ubuntu16.04.1) date Tue May 15 10:56:42 2018*
%MOMM*%
%LPD*%
G01*
G04 APERTURE LIST*
%ADD10C,0.350000*%
G04 APERTURE END LIST*
D10*
G36*
X13278110Y-38835847D02*
X13869055Y-38957151D01*
X14425198Y-39190932D01*
X14925334Y-39528278D01*
X15350421Y-39956343D01*
X15684266Y-40458821D01*
X15914156Y-41016576D01*
X16031264Y-41608014D01*
X16031264Y-41608024D01*
X16031331Y-41608363D01*
X16021710Y-42297416D01*
X16021633Y-42297754D01*
X16021633Y-42297762D01*
X15888057Y-42885701D01*
X15642685Y-43436816D01*
X15294937Y-43929778D01*
X14858062Y-44345809D01*
X14348700Y-44669061D01*
X13786254Y-44887219D01*
X13192147Y-44991976D01*
X12589003Y-44979342D01*
X11999800Y-44849797D01*
X11446982Y-44608277D01*
X10951607Y-44263982D01*
X10532537Y-43830023D01*
X10205738Y-43322930D01*
X9983656Y-42762014D01*
X9874755Y-42168658D01*
X9883177Y-41565441D01*
X10008606Y-40975347D01*
X10246259Y-40420858D01*
X10587091Y-39923088D01*
X11018112Y-39501000D01*
X11522913Y-39170668D01*
X12082259Y-38944677D01*
X12674845Y-38831636D01*
X13278110Y-38835847D01*
X13278110Y-38835847D01*
G37*
G36*
X21278110Y-38835847D02*
X21869055Y-38957151D01*
X22425198Y-39190932D01*
X22925334Y-39528278D01*
X23350421Y-39956343D01*
X23684266Y-40458821D01*
X23914156Y-41016576D01*
X24031264Y-41608014D01*
X24031264Y-41608024D01*
X24031331Y-41608363D01*
X24021710Y-42297416D01*
X24021633Y-42297754D01*
X24021633Y-42297762D01*
X23888057Y-42885701D01*
X23642685Y-43436816D01*
X23294937Y-43929778D01*
X22858062Y-44345809D01*
X22348700Y-44669061D01*
X21786254Y-44887219D01*
X21192147Y-44991976D01*
X20589003Y-44979342D01*
X19999800Y-44849797D01*
X19446982Y-44608277D01*
X18951607Y-44263982D01*
X18532537Y-43830023D01*
X18205738Y-43322930D01*
X17983656Y-42762014D01*
X17874755Y-42168658D01*
X17883177Y-41565441D01*
X18008606Y-40975347D01*
X18246259Y-40420858D01*
X18587091Y-39923088D01*
X19018112Y-39501000D01*
X19522913Y-39170668D01*
X20082259Y-38944677D01*
X20674845Y-38831636D01*
X21278110Y-38835847D01*
X21278110Y-38835847D01*
G37*
G36*
X5278110Y-38835847D02*
X5869055Y-38957151D01*
X6425198Y-39190932D01*
X6925334Y-39528278D01*
X7350421Y-39956343D01*
X7684266Y-40458821D01*
X7914156Y-41016576D01*
X8031264Y-41608014D01*
X8031264Y-41608024D01*
X8031331Y-41608363D01*
X8021710Y-42297416D01*
X8021633Y-42297754D01*
X8021633Y-42297762D01*
X7888057Y-42885701D01*
X7642685Y-43436816D01*
X7294937Y-43929778D01*
X6858062Y-44345809D01*
X6348700Y-44669061D01*
X5786254Y-44887219D01*
X5192147Y-44991976D01*
X4589003Y-44979342D01*
X3999800Y-44849797D01*
X3446982Y-44608277D01*
X2951607Y-44263982D01*
X2532537Y-43830023D01*
X2205738Y-43322930D01*
X1983656Y-42762014D01*
X1874755Y-42168658D01*
X1883177Y-41565441D01*
X2008606Y-40975347D01*
X2246259Y-40420858D01*
X2587091Y-39923088D01*
X3018112Y-39501000D01*
X3522913Y-39170668D01*
X4082259Y-38944677D01*
X4674845Y-38831636D01*
X5278110Y-38835847D01*
X5278110Y-38835847D01*
G37*
G36*
X17418400Y-39720600D02*
X16516000Y-39720600D01*
X16516000Y-38768200D01*
X17418400Y-38768200D01*
X17418400Y-39720600D01*
X17418400Y-39720600D01*
G37*
G36*
X10031200Y-38561200D02*
X9078800Y-38561200D01*
X9078800Y-37858800D01*
X10031200Y-37858800D01*
X10031200Y-38561200D01*
X10031200Y-38561200D01*
G37*
G36*
X8431200Y-38561200D02*
X7478800Y-38561200D01*
X7478800Y-37858800D01*
X8431200Y-37858800D01*
X8431200Y-38561200D01*
X8431200Y-38561200D01*
G37*
G36*
X17418400Y-38220600D02*
X16516000Y-38220600D01*
X16516000Y-37268200D01*
X17418400Y-37268200D01*
X17418400Y-38220600D01*
X17418400Y-38220600D01*
G37*
G36*
X10031200Y-37661200D02*
X9078800Y-37661200D01*
X9078800Y-36958800D01*
X10031200Y-36958800D01*
X10031200Y-37661200D01*
X10031200Y-37661200D01*
G37*
G36*
X8431200Y-37661200D02*
X7478800Y-37661200D01*
X7478800Y-36958800D01*
X8431200Y-36958800D01*
X8431200Y-37661200D01*
X8431200Y-37661200D01*
G37*
G36*
X5278110Y-30835847D02*
X5869055Y-30957151D01*
X6425198Y-31190932D01*
X6925334Y-31528278D01*
X7350421Y-31956343D01*
X7684266Y-32458821D01*
X7914156Y-33016576D01*
X8031264Y-33608014D01*
X8031264Y-33608024D01*
X8031331Y-33608363D01*
X8021710Y-34297416D01*
X8021633Y-34297754D01*
X8021633Y-34297762D01*
X7888057Y-34885701D01*
X7642685Y-35436816D01*
X7294937Y-35929778D01*
X6858062Y-36345809D01*
X6348700Y-36669061D01*
X5786254Y-36887219D01*
X5192147Y-36991976D01*
X4589003Y-36979342D01*
X3999800Y-36849797D01*
X3446982Y-36608277D01*
X2951607Y-36263982D01*
X2532537Y-35830023D01*
X2205738Y-35322930D01*
X1983656Y-34762014D01*
X1874755Y-34168658D01*
X1883177Y-33565441D01*
X2008606Y-32975347D01*
X2246259Y-32420858D01*
X2587091Y-31923088D01*
X3018112Y-31501000D01*
X3522913Y-31170668D01*
X4082259Y-30944677D01*
X4674845Y-30831636D01*
X5278110Y-30835847D01*
X5278110Y-30835847D01*
G37*
G36*
X21278110Y-30835847D02*
X21869055Y-30957151D01*
X22425198Y-31190932D01*
X22925334Y-31528278D01*
X23350421Y-31956343D01*
X23684266Y-32458821D01*
X23914156Y-33016576D01*
X24031264Y-33608014D01*
X24031264Y-33608024D01*
X24031331Y-33608363D01*
X24021710Y-34297416D01*
X24021633Y-34297754D01*
X24021633Y-34297762D01*
X23888057Y-34885701D01*
X23642685Y-35436816D01*
X23294937Y-35929778D01*
X22858062Y-36345809D01*
X22348700Y-36669061D01*
X21786254Y-36887219D01*
X21192147Y-36991976D01*
X20589003Y-36979342D01*
X19999800Y-36849797D01*
X19446982Y-36608277D01*
X18951607Y-36263982D01*
X18532537Y-35830023D01*
X18205738Y-35322930D01*
X17983656Y-34762014D01*
X17874755Y-34168658D01*
X17883177Y-33565441D01*
X18008606Y-32975347D01*
X18246259Y-32420858D01*
X18587091Y-31923088D01*
X19018112Y-31501000D01*
X19522913Y-31170668D01*
X20082259Y-30944677D01*
X20674845Y-30831636D01*
X21278110Y-30835847D01*
X21278110Y-30835847D01*
G37*
G36*
X13278110Y-30835847D02*
X13869055Y-30957151D01*
X14425198Y-31190932D01*
X14925334Y-31528278D01*
X15350421Y-31956343D01*
X15684266Y-32458821D01*
X15914156Y-33016576D01*
X16031264Y-33608014D01*
X16031264Y-33608024D01*
X16031331Y-33608363D01*
X16021710Y-34297416D01*
X16021633Y-34297754D01*
X16021633Y-34297762D01*
X15888057Y-34885701D01*
X15642685Y-35436816D01*
X15294937Y-35929778D01*
X14858062Y-36345809D01*
X14348700Y-36669061D01*
X13786254Y-36887219D01*
X13192147Y-36991976D01*
X12589003Y-36979342D01*
X11999800Y-36849797D01*
X11446982Y-36608277D01*
X10951607Y-36263982D01*
X10532537Y-35830023D01*
X10205738Y-35322930D01*
X9983656Y-34762014D01*
X9874755Y-34168658D01*
X9883177Y-33565441D01*
X10008606Y-32975347D01*
X10246259Y-32420858D01*
X10587091Y-31923088D01*
X11018112Y-31501000D01*
X11522913Y-31170668D01*
X12082259Y-30944677D01*
X12674845Y-30831636D01*
X13278110Y-30835847D01*
X13278110Y-30835847D01*
G37*
G36*
X17469200Y-35020200D02*
X16566800Y-35020200D01*
X16566800Y-34067800D01*
X17469200Y-34067800D01*
X17469200Y-35020200D01*
X17469200Y-35020200D01*
G37*
G36*
X9392000Y-35020200D02*
X8489600Y-35020200D01*
X8489600Y-34067800D01*
X9392000Y-34067800D01*
X9392000Y-35020200D01*
X9392000Y-35020200D01*
G37*
G36*
X17469200Y-33520200D02*
X16566800Y-33520200D01*
X16566800Y-32567800D01*
X17469200Y-32567800D01*
X17469200Y-33520200D01*
X17469200Y-33520200D01*
G37*
G36*
X9392000Y-33520200D02*
X8489600Y-33520200D01*
X8489600Y-32567800D01*
X9392000Y-32567800D01*
X9392000Y-33520200D01*
X9392000Y-33520200D01*
G37*
M02*
