%TF.GenerationSoftware,KiCad,Pcbnew,4.0.7-e2-6376~58~ubuntu16.04.1*%
%TF.CreationDate,2018-05-02T09:44:08-07:00*%
%TF.ProjectId,2x3-LED-RGB-A-SMT,3278332D4C45442D5247422D412D534D,1.0*%
%TF.FileFunction,Soldermask,Bot*%
%FSLAX46Y46*%
G04 Gerber Fmt 4.6, Leading zero omitted, Abs format (unit mm)*
G04 Created by KiCad (PCBNEW 4.0.7-e2-6376~58~ubuntu16.04.1) date Wed May  2 09:44:08 2018*
%MOMM*%
%LPD*%
G01*
G04 APERTURE LIST*
%ADD10C,0.350000*%
%ADD11C,7.000000*%
G04 APERTURE END LIST*
D10*
D11*
X4755000Y-17835000D02*
X4755000Y-17635000D01*
X21205000Y-26285000D02*
X4705000Y-26285000D01*
X12955000Y-17835000D02*
X13155000Y-17835000D01*
X20955000Y-17835000D02*
X21155000Y-17835000D01*
D10*
G36*
X5278110Y-22960847D02*
X5869055Y-23082151D01*
X6425198Y-23315932D01*
X6925334Y-23653278D01*
X7350421Y-24081343D01*
X7684266Y-24583821D01*
X7914156Y-25141576D01*
X8031264Y-25733014D01*
X8031264Y-25733024D01*
X8031331Y-25733363D01*
X8021710Y-26422416D01*
X8021633Y-26422754D01*
X8021633Y-26422762D01*
X7888057Y-27010701D01*
X7642685Y-27561816D01*
X7294937Y-28054778D01*
X6858062Y-28470809D01*
X6348700Y-28794061D01*
X5786254Y-29012219D01*
X5192147Y-29116976D01*
X4589003Y-29104342D01*
X3999800Y-28974797D01*
X3446982Y-28733277D01*
X2951607Y-28388982D01*
X2532537Y-27955023D01*
X2205738Y-27447930D01*
X1983656Y-26887014D01*
X1874755Y-26293658D01*
X1883177Y-25690441D01*
X2008606Y-25100347D01*
X2246259Y-24545858D01*
X2587091Y-24048088D01*
X3018112Y-23626000D01*
X3522913Y-23295668D01*
X4082259Y-23069677D01*
X4674845Y-22956636D01*
X5278110Y-22960847D01*
X5278110Y-22960847D01*
G37*
G36*
X13278110Y-22960847D02*
X13869055Y-23082151D01*
X14425198Y-23315932D01*
X14925334Y-23653278D01*
X15350421Y-24081343D01*
X15684266Y-24583821D01*
X15914156Y-25141576D01*
X16031264Y-25733014D01*
X16031264Y-25733024D01*
X16031331Y-25733363D01*
X16021710Y-26422416D01*
X16021633Y-26422754D01*
X16021633Y-26422762D01*
X15888057Y-27010701D01*
X15642685Y-27561816D01*
X15294937Y-28054778D01*
X14858062Y-28470809D01*
X14348700Y-28794061D01*
X13786254Y-29012219D01*
X13192147Y-29116976D01*
X12589003Y-29104342D01*
X11999800Y-28974797D01*
X11446982Y-28733277D01*
X10951607Y-28388982D01*
X10532537Y-27955023D01*
X10205738Y-27447930D01*
X9983656Y-26887014D01*
X9874755Y-26293658D01*
X9883177Y-25690441D01*
X10008606Y-25100347D01*
X10246259Y-24545858D01*
X10587091Y-24048088D01*
X11018112Y-23626000D01*
X11522913Y-23295668D01*
X12082259Y-23069677D01*
X12674845Y-22956636D01*
X13278110Y-22960847D01*
X13278110Y-22960847D01*
G37*
G36*
X21278110Y-22960847D02*
X21869055Y-23082151D01*
X22425198Y-23315932D01*
X22925334Y-23653278D01*
X23350421Y-24081343D01*
X23684266Y-24583821D01*
X23914156Y-25141576D01*
X24031264Y-25733014D01*
X24031264Y-25733024D01*
X24031331Y-25733363D01*
X24021710Y-26422416D01*
X24021633Y-26422754D01*
X24021633Y-26422762D01*
X23888057Y-27010701D01*
X23642685Y-27561816D01*
X23294937Y-28054778D01*
X22858062Y-28470809D01*
X22348700Y-28794061D01*
X21786254Y-29012219D01*
X21192147Y-29116976D01*
X20589003Y-29104342D01*
X19999800Y-28974797D01*
X19446982Y-28733277D01*
X18951607Y-28388982D01*
X18532537Y-27955023D01*
X18205738Y-27447930D01*
X17983656Y-26887014D01*
X17874755Y-26293658D01*
X17883177Y-25690441D01*
X18008606Y-25100347D01*
X18246259Y-24545858D01*
X18587091Y-24048088D01*
X19018112Y-23626000D01*
X19522913Y-23295668D01*
X20082259Y-23069677D01*
X20674845Y-22956636D01*
X21278110Y-22960847D01*
X21278110Y-22960847D01*
G37*
G36*
X5278110Y-14960847D02*
X5869055Y-15082151D01*
X6425198Y-15315932D01*
X6925334Y-15653278D01*
X7350421Y-16081343D01*
X7684266Y-16583821D01*
X7914156Y-17141576D01*
X8031264Y-17733014D01*
X8031264Y-17733024D01*
X8031331Y-17733363D01*
X8021710Y-18422416D01*
X8021633Y-18422754D01*
X8021633Y-18422762D01*
X7888057Y-19010701D01*
X7642685Y-19561816D01*
X7294937Y-20054778D01*
X6858062Y-20470809D01*
X6348700Y-20794061D01*
X5786254Y-21012219D01*
X5192147Y-21116976D01*
X4589003Y-21104342D01*
X3999800Y-20974797D01*
X3446982Y-20733277D01*
X2951607Y-20388982D01*
X2532537Y-19955023D01*
X2205738Y-19447930D01*
X1983656Y-18887014D01*
X1874755Y-18293658D01*
X1883177Y-17690441D01*
X2008606Y-17100347D01*
X2246259Y-16545858D01*
X2587091Y-16048088D01*
X3018112Y-15626000D01*
X3522913Y-15295668D01*
X4082259Y-15069677D01*
X4674845Y-14956636D01*
X5278110Y-14960847D01*
X5278110Y-14960847D01*
G37*
G36*
X13278110Y-14960847D02*
X13869055Y-15082151D01*
X14425198Y-15315932D01*
X14925334Y-15653278D01*
X15350421Y-16081343D01*
X15684266Y-16583821D01*
X15914156Y-17141576D01*
X16031264Y-17733014D01*
X16031264Y-17733024D01*
X16031331Y-17733363D01*
X16021710Y-18422416D01*
X16021633Y-18422754D01*
X16021633Y-18422762D01*
X15888057Y-19010701D01*
X15642685Y-19561816D01*
X15294937Y-20054778D01*
X14858062Y-20470809D01*
X14348700Y-20794061D01*
X13786254Y-21012219D01*
X13192147Y-21116976D01*
X12589003Y-21104342D01*
X11999800Y-20974797D01*
X11446982Y-20733277D01*
X10951607Y-20388982D01*
X10532537Y-19955023D01*
X10205738Y-19447930D01*
X9983656Y-18887014D01*
X9874755Y-18293658D01*
X9883177Y-17690441D01*
X10008606Y-17100347D01*
X10246259Y-16545858D01*
X10587091Y-16048088D01*
X11018112Y-15626000D01*
X11522913Y-15295668D01*
X12082259Y-15069677D01*
X12674845Y-14956636D01*
X13278110Y-14960847D01*
X13278110Y-14960847D01*
G37*
G36*
X21278110Y-14960847D02*
X21869055Y-15082151D01*
X22425198Y-15315932D01*
X22925334Y-15653278D01*
X23350421Y-16081343D01*
X23684266Y-16583821D01*
X23914156Y-17141576D01*
X24031264Y-17733014D01*
X24031264Y-17733024D01*
X24031331Y-17733363D01*
X24021710Y-18422416D01*
X24021633Y-18422754D01*
X24021633Y-18422762D01*
X23888057Y-19010701D01*
X23642685Y-19561816D01*
X23294937Y-20054778D01*
X22858062Y-20470809D01*
X22348700Y-20794061D01*
X21786254Y-21012219D01*
X21192147Y-21116976D01*
X20589003Y-21104342D01*
X19999800Y-20974797D01*
X19446982Y-20733277D01*
X18951607Y-20388982D01*
X18532537Y-19955023D01*
X18205738Y-19447930D01*
X17983656Y-18887014D01*
X17874755Y-18293658D01*
X17883177Y-17690441D01*
X18008606Y-17100347D01*
X18246259Y-16545858D01*
X18587091Y-16048088D01*
X19018112Y-15626000D01*
X19522913Y-15295668D01*
X20082259Y-15069677D01*
X20674845Y-14956636D01*
X21278110Y-14960847D01*
X21278110Y-14960847D01*
G37*
M02*
