<?xml version="1.0" encoding="UTF-8" standalone="no"?>
<!-- Created with Inkscape (http://www.inkscape.org/) -->

<svg
   xmlns:i="http://ns.adobe.com/AdobeIllustrator/10.0/"
   xmlns:dc="http://purl.org/dc/elements/1.1/"
   xmlns:cc="http://creativecommons.org/ns#"
   xmlns:rdf="http://www.w3.org/1999/02/22-rdf-syntax-ns#"
   xmlns:svg="http://www.w3.org/2000/svg"
   xmlns="http://www.w3.org/2000/svg"
   xmlns:sodipodi="http://sodipodi.sourceforge.net/DTD/sodipodi-0.dtd"
   xmlns:inkscape="http://www.inkscape.org/namespaces/inkscape"
   width="100mm"
   height="100mm"
   id="svg2"
   version="1.1"
   inkscape:version="0.91 r13725"
   sodipodi:docname="LEGO Servo Round v03.svg">
  <defs
     id="defs4">
    <clipPath
       id="clipPath3077"
       clipPathUnits="userSpaceOnUse">
      <path
         inkscape:connector-curvature="0"
         id="path3079"
         d="m 0.06,803.615 1647.57,0 0,-803.555 -1647.57,0 0,803.555 z" />
    </clipPath>
    <clipPath
       id="clipPath3083"
       clipPathUnits="userSpaceOnUse">
      <path
         inkscape:connector-curvature="0"
         id="path3085"
         d="m 0,0 1648,0 0,804 L 0,804 0,0 Z" />
    </clipPath>
  </defs>
  <sodipodi:namedview
     id="base"
     pagecolor="#ffffff"
     bordercolor="#666666"
     borderopacity="1.0"
     inkscape:pageopacity="0.0"
     inkscape:pageshadow="2"
     inkscape:zoom="1.8344444"
     inkscape:cx="97.57722"
     inkscape:cy="177.16535"
     inkscape:document-units="mm"
     inkscape:current-layer="g4276"
     showgrid="false"
     units="mm"
     inkscape:window-width="1440"
     inkscape:window-height="851"
     inkscape:window-x="0"
     inkscape:window-y="1"
     inkscape:window-maximized="1">
    <inkscape:grid
       type="xygrid"
       id="grid3002"
       empspacing="6"
       visible="true"
       enabled="true"
       snapvisiblegridlinesonly="true"
       units="in"
       spacingx="1in"
       spacingy="1in"
       dotted="false" />
  </sodipodi:namedview>
  <metadata
     id="metadata7">
    <rdf:RDF>
      <cc:Work
         rdf:about="">
        <dc:format>image/svg+xml</dc:format>
        <dc:type
           rdf:resource="http://purl.org/dc/dcmitype/StillImage" />
        <dc:title />
      </cc:Work>
    </rdf:RDF>
  </metadata>
  <g
     transform="translate(0,-715.03941)"
     id="g4185"
     inkscape:groupmode="layer"
     inkscape:label="Layer 0"
     style="display:none">
    <g
       style="display:inline"
       id="g6474"
       transform="matrix(3.5433075,0,0,3.5433068,-221.73457,782.23725)">
      <rect
         y="3.2002842"
         x="44.838417"
         height="63.589996"
         width="127.50999"
         id="rect6342"
         style="opacity:1;fill:#c8c8c8;fill-opacity:1;fill-rule:nonzero;stroke:#000000;stroke-width:0.02;stroke-linecap:round;stroke-miterlimit:4.0370369;stroke-dasharray:none;stroke-dashoffset:0;stroke-opacity:1" />
      <g
         transform="translate(27.734974,-10.63174)"
         id="g6344">
        <path
           i:knockout="Off"
           d="m 23.41001,17.677603 c 0,1.322829 -1.0722,2.394855 -2.39468,2.394855 -1.32247,0 -2.39467,-1.072026 -2.39467,-2.394855 0,-1.322475 1.0722,-2.394501 2.39467,-2.394501 1.32248,0 2.39468,1.072202 2.39468,2.394501 z"
           id="path35"
           inkscape:connector-curvature="0"
           style="fill:#dcdcdc;fill-opacity:1;stroke:#000000;stroke-width:0.02;stroke-miterlimit:4.0370369;stroke-dasharray:none;stroke-opacity:1" />
        <path
           i:knockout="Off"
           d="m 31.39254,17.677603 c 0,1.322829 -1.0722,2.394855 -2.39467,2.394855 -1.32247,0 -2.39467,-1.072202 -2.39467,-2.394855 0,-1.322475 1.0722,-2.394501 2.39467,-2.394501 1.32247,0 2.39467,1.072202 2.39467,2.394501 z"
           id="path37"
           inkscape:connector-curvature="0"
           style="fill:#dcdcdc;fill-opacity:1;stroke:#000000;stroke-width:0.02;stroke-miterlimit:4.0370369;stroke-dasharray:none;stroke-opacity:1" />
        <path
           i:knockout="Off"
           d="m 23.41001,25.660333 c 0,1.322476 -1.0722,2.394502 -2.39468,2.394502 -1.32247,0 -2.39467,-1.072202 -2.39467,-2.394502 0,-1.322828 1.0722,-2.394854 2.39467,-2.394854 1.32248,0 2.39468,1.072026 2.39468,2.394854 z"
           id="path39"
           inkscape:connector-curvature="0"
           style="fill:#dcdcdc;fill-opacity:1;stroke:#000000;stroke-width:0.02;stroke-miterlimit:4.0370369;stroke-dasharray:none;stroke-opacity:1" />
        <path
           i:knockout="Off"
           d="m 31.39254,25.660333 c 0,1.322476 -1.0722,2.394502 -2.39467,2.394502 -1.32247,0 -2.39467,-1.072202 -2.39467,-2.394502 0,-1.322828 1.0722,-2.394854 2.39467,-2.394854 1.32247,0 2.39467,1.072026 2.39467,2.394854 z"
           id="path41"
           inkscape:connector-curvature="0"
           style="fill:#dcdcdc;fill-opacity:1;stroke:#000000;stroke-width:0.02;stroke-miterlimit:4.0370369;stroke-dasharray:none;stroke-opacity:1" />
        <path
           style="fill:#dcdcdc;fill-opacity:1;stroke:#000000;stroke-width:0.02;stroke-miterlimit:4.0370369;stroke-dasharray:none;stroke-opacity:1"
           inkscape:connector-curvature="0"
           id="path5382"
           d="m 39.3716,17.677603 c 0,1.322829 -1.0722,2.394855 -2.39467,2.394855 -1.32247,0 -2.39467,-1.072202 -2.39467,-2.394855 0,-1.322475 1.0722,-2.394501 2.39467,-2.394501 1.32247,0 2.39467,1.072202 2.39467,2.394501 z"
           i:knockout="Off" />
        <path
           style="fill:#dcdcdc;fill-opacity:1;stroke:#000000;stroke-width:0.02;stroke-miterlimit:4.0370369;stroke-dasharray:none;stroke-opacity:1"
           inkscape:connector-curvature="0"
           id="path5386"
           d="m 39.3716,25.660333 c 0,1.322476 -1.0722,2.394502 -2.39467,2.394502 -1.32247,0 -2.39467,-1.072202 -2.39467,-2.394502 0,-1.322828 1.0722,-2.394854 2.39467,-2.394854 1.32247,0 2.39467,1.072026 2.39467,2.394854 z"
           i:knockout="Off" />
        <path
           style="fill:#dcdcdc;fill-opacity:1;stroke:#000000;stroke-width:0.02;stroke-miterlimit:4.0370369;stroke-dasharray:none;stroke-opacity:1"
           inkscape:connector-curvature="0"
           id="path5408"
           d="m 47.35065,17.677603 c 0,1.322829 -1.0722,2.394855 -2.39467,2.394855 -1.32247,0 -2.39467,-1.072202 -2.39467,-2.394855 0,-1.322475 1.0722,-2.394501 2.39467,-2.394501 1.32247,0 2.39467,1.072202 2.39467,2.394501 z"
           i:knockout="Off" />
        <path
           style="fill:#dcdcdc;fill-opacity:1;stroke:#000000;stroke-width:0.02;stroke-miterlimit:4.0370369;stroke-dasharray:none;stroke-opacity:1"
           inkscape:connector-curvature="0"
           id="path5412"
           d="m 47.35065,25.660333 c 0,1.322476 -1.0722,2.394502 -2.39467,2.394502 -1.32247,0 -2.39467,-1.072202 -2.39467,-2.394502 0,-1.322828 1.0722,-2.394854 2.39467,-2.394854 1.32247,0 2.39467,1.072026 2.39467,2.394854 z"
           i:knockout="Off" />
        <path
           i:knockout="Off"
           d="m 55.32971,17.677603 c 0,1.322829 -1.0722,2.394855 -2.39467,2.394855 -1.32247,0 -2.39467,-1.072202 -2.39467,-2.394855 0,-1.322475 1.0722,-2.394501 2.39467,-2.394501 1.32247,0 2.39467,1.072202 2.39467,2.394501 z"
           id="path5414"
           inkscape:connector-curvature="0"
           style="fill:#dcdcdc;fill-opacity:1;stroke:#000000;stroke-width:0.02;stroke-miterlimit:4.0370369;stroke-dasharray:none;stroke-opacity:1" />
        <path
           i:knockout="Off"
           d="m 55.32971,25.660333 c 0,1.322476 -1.0722,2.394502 -2.39467,2.394502 -1.32247,0 -2.39467,-1.072202 -2.39467,-2.394502 0,-1.322828 1.0722,-2.394854 2.39467,-2.394854 1.32247,0 2.39467,1.072026 2.39467,2.394854 z"
           id="path5416"
           inkscape:connector-curvature="0"
           style="fill:#dcdcdc;fill-opacity:1;stroke:#000000;stroke-width:0.02;stroke-miterlimit:4.0370369;stroke-dasharray:none;stroke-opacity:1" />
        <path
           style="fill:#dcdcdc;fill-opacity:1;stroke:#000000;stroke-width:0.02;stroke-miterlimit:4.0370369;stroke-dasharray:none;stroke-opacity:1"
           inkscape:connector-curvature="0"
           id="path5446"
           d="m 63.30877,17.677603 c 0,1.322829 -1.0722,2.394855 -2.39467,2.394855 -1.32247,0 -2.39467,-1.072202 -2.39467,-2.394855 0,-1.322475 1.0722,-2.394501 2.39467,-2.394501 1.32247,0 2.39467,1.072202 2.39467,2.394501 z"
           i:knockout="Off" />
        <path
           style="fill:#dcdcdc;fill-opacity:1;stroke:#000000;stroke-width:0.02;stroke-miterlimit:4.0370369;stroke-dasharray:none;stroke-opacity:1"
           inkscape:connector-curvature="0"
           id="path5450"
           d="m 63.30877,25.660333 c 0,1.322476 -1.0722,2.394502 -2.39467,2.394502 -1.32247,0 -2.39467,-1.072202 -2.39467,-2.394502 0,-1.322828 1.0722,-2.394854 2.39467,-2.394854 1.32247,0 2.39467,1.072026 2.39467,2.394854 z"
           i:knockout="Off" />
        <path
           i:knockout="Off"
           d="m 71.28783,17.677603 c 0,1.322829 -1.0722,2.394855 -2.39467,2.394855 -1.32247,0 -2.39467,-1.072202 -2.39467,-2.394855 0,-1.322475 1.0722,-2.394501 2.39467,-2.394501 1.32247,0 2.39467,1.072202 2.39467,2.394501 z"
           id="path5452"
           inkscape:connector-curvature="0"
           style="fill:#dcdcdc;fill-opacity:1;stroke:#000000;stroke-width:0.02;stroke-miterlimit:4.0370369;stroke-dasharray:none;stroke-opacity:1" />
        <path
           i:knockout="Off"
           d="m 71.28783,25.660333 c 0,1.322476 -1.0722,2.394502 -2.39467,2.394502 -1.32247,0 -2.39467,-1.072202 -2.39467,-2.394502 0,-1.322828 1.0722,-2.394854 2.39467,-2.394854 1.32247,0 2.39467,1.072026 2.39467,2.394854 z"
           id="path5454"
           inkscape:connector-curvature="0"
           style="fill:#dcdcdc;fill-opacity:1;stroke:#000000;stroke-width:0.02;stroke-miterlimit:4.0370369;stroke-dasharray:none;stroke-opacity:1" />
        <path
           i:knockout="Off"
           d="m 79.26688,17.677603 c 0,1.322829 -1.0722,2.394855 -2.39467,2.394855 -1.32247,0 -2.39467,-1.072202 -2.39467,-2.394855 0,-1.322475 1.0722,-2.394501 2.39467,-2.394501 1.32247,0 2.39467,1.072202 2.39467,2.394501 z"
           id="path5456"
           inkscape:connector-curvature="0"
           style="fill:#dcdcdc;fill-opacity:1;stroke:#000000;stroke-width:0.02;stroke-miterlimit:4.0370369;stroke-dasharray:none;stroke-opacity:1" />
        <path
           i:knockout="Off"
           d="m 79.26688,25.660333 c 0,1.322476 -1.0722,2.394502 -2.39467,2.394502 -1.32247,0 -2.39467,-1.072202 -2.39467,-2.394502 0,-1.322828 1.0722,-2.394854 2.39467,-2.394854 1.32247,0 2.39467,1.072026 2.39467,2.394854 z"
           id="path5458"
           inkscape:connector-curvature="0"
           style="fill:#dcdcdc;fill-opacity:1;stroke:#000000;stroke-width:0.02;stroke-miterlimit:4.0370369;stroke-dasharray:none;stroke-opacity:1" />
        <path
           style="fill:#dcdcdc;fill-opacity:1;stroke:#000000;stroke-width:0.02;stroke-miterlimit:4.0370369;stroke-dasharray:none;stroke-opacity:1"
           inkscape:connector-curvature="0"
           id="path5460"
           d="m 87.24594,17.677603 c 0,1.322829 -1.0722,2.394855 -2.39467,2.394855 -1.32247,0 -2.39467,-1.072202 -2.39467,-2.394855 0,-1.322475 1.0722,-2.394501 2.39467,-2.394501 1.32247,0 2.39467,1.072202 2.39467,2.394501 z"
           i:knockout="Off" />
        <path
           style="fill:#dcdcdc;fill-opacity:1;stroke:#000000;stroke-width:0.02;stroke-miterlimit:4.0370369;stroke-dasharray:none;stroke-opacity:1"
           inkscape:connector-curvature="0"
           id="path5462"
           d="m 87.24594,25.660333 c 0,1.322476 -1.0722,2.394502 -2.39467,2.394502 -1.32247,0 -2.39467,-1.072202 -2.39467,-2.394502 0,-1.322828 1.0722,-2.394854 2.39467,-2.394854 1.32247,0 2.39467,1.072026 2.39467,2.394854 z"
           i:knockout="Off" />
        <path
           style="fill:#dcdcdc;fill-opacity:1;stroke:#000000;stroke-width:0.02;stroke-miterlimit:4.0370369;stroke-dasharray:none;stroke-opacity:1"
           inkscape:connector-curvature="0"
           id="path5508"
           d="m 95.22187,17.677603 c 0,1.322829 -1.0722,2.394855 -2.39467,2.394855 -1.32247,0 -2.39467,-1.072202 -2.39467,-2.394855 0,-1.322475 1.0722,-2.394501 2.39467,-2.394501 1.32247,0 2.39467,1.072202 2.39467,2.394501 z"
           i:knockout="Off" />
        <path
           style="fill:#dcdcdc;fill-opacity:1;stroke:#000000;stroke-width:0.02;stroke-miterlimit:4.0370369;stroke-dasharray:none;stroke-opacity:1"
           inkscape:connector-curvature="0"
           id="path5512"
           d="m 95.22187,25.660333 c 0,1.322476 -1.0722,2.394502 -2.39467,2.394502 -1.32247,0 -2.39467,-1.072202 -2.39467,-2.394502 0,-1.322828 1.0722,-2.394854 2.39467,-2.394854 1.32247,0 2.39467,1.072026 2.39467,2.394854 z"
           i:knockout="Off" />
        <path
           i:knockout="Off"
           d="m 103.20093,17.677603 c 0,1.322829 -1.0722,2.394855 -2.39467,2.394855 -1.32247,0 -2.39467,-1.072202 -2.39467,-2.394855 0,-1.322475 1.0722,-2.394501 2.39467,-2.394501 1.32247,0 2.39467,1.072202 2.39467,2.394501 z"
           id="path5514"
           inkscape:connector-curvature="0"
           style="fill:#dcdcdc;fill-opacity:1;stroke:#000000;stroke-width:0.02;stroke-miterlimit:4.0370369;stroke-dasharray:none;stroke-opacity:1" />
        <path
           i:knockout="Off"
           d="m 103.20093,25.660333 c 0,1.322476 -1.0722,2.394502 -2.39467,2.394502 -1.32247,0 -2.39467,-1.072202 -2.39467,-2.394502 0,-1.322828 1.0722,-2.394854 2.39467,-2.394854 1.32247,0 2.39467,1.072026 2.39467,2.394854 z"
           id="path5516"
           inkscape:connector-curvature="0"
           style="fill:#dcdcdc;fill-opacity:1;stroke:#000000;stroke-width:0.02;stroke-miterlimit:4.0370369;stroke-dasharray:none;stroke-opacity:1" />
        <path
           i:knockout="Off"
           d="m 111.17998,17.677603 c 0,1.322829 -1.0722,2.394855 -2.39467,2.394855 -1.32247,0 -2.39467,-1.072202 -2.39467,-2.394855 0,-1.322475 1.0722,-2.394501 2.39467,-2.394501 1.32247,0 2.39467,1.072202 2.39467,2.394501 z"
           id="path5518"
           inkscape:connector-curvature="0"
           style="fill:#dcdcdc;fill-opacity:1;stroke:#000000;stroke-width:0.02;stroke-miterlimit:4.0370369;stroke-dasharray:none;stroke-opacity:1" />
        <path
           i:knockout="Off"
           d="m 111.17998,25.660333 c 0,1.322476 -1.0722,2.394502 -2.39467,2.394502 -1.32247,0 -2.39467,-1.072202 -2.39467,-2.394502 0,-1.322828 1.0722,-2.394854 2.39467,-2.394854 1.32247,0 2.39467,1.072026 2.39467,2.394854 z"
           id="path5520"
           inkscape:connector-curvature="0"
           style="fill:#dcdcdc;fill-opacity:1;stroke:#000000;stroke-width:0.02;stroke-miterlimit:4.0370369;stroke-dasharray:none;stroke-opacity:1" />
        <path
           style="fill:#dcdcdc;fill-opacity:1;stroke:#000000;stroke-width:0.02;stroke-miterlimit:4.0370369;stroke-dasharray:none;stroke-opacity:1"
           inkscape:connector-curvature="0"
           id="path5522"
           d="m 119.15904,17.677603 c 0,1.322829 -1.0722,2.394855 -2.39467,2.394855 -1.32247,0 -2.39467,-1.072202 -2.39467,-2.394855 0,-1.322475 1.0722,-2.394501 2.39467,-2.394501 1.32247,0 2.39467,1.072202 2.39467,2.394501 z"
           i:knockout="Off" />
        <path
           style="fill:#dcdcdc;fill-opacity:1;stroke:#000000;stroke-width:0.02;stroke-miterlimit:4.0370369;stroke-dasharray:none;stroke-opacity:1"
           inkscape:connector-curvature="0"
           id="path5524"
           d="m 119.15904,25.660333 c 0,1.322476 -1.0722,2.394502 -2.39467,2.394502 -1.32247,0 -2.39467,-1.072202 -2.39467,-2.394502 0,-1.322828 1.0722,-2.394854 2.39467,-2.394854 1.32247,0 2.39467,1.072026 2.39467,2.394854 z"
           i:knockout="Off" />
        <path
           i:knockout="Off"
           d="m 127.1381,17.677603 c 0,1.322829 -1.0722,2.394855 -2.39467,2.394855 -1.32247,0 -2.39467,-1.072202 -2.39467,-2.394855 0,-1.322475 1.0722,-2.394501 2.39467,-2.394501 1.32247,0 2.39467,1.072202 2.39467,2.394501 z"
           id="path5526"
           inkscape:connector-curvature="0"
           style="fill:#dcdcdc;fill-opacity:1;stroke:#000000;stroke-width:0.02;stroke-miterlimit:4.0370369;stroke-dasharray:none;stroke-opacity:1" />
        <path
           i:knockout="Off"
           d="m 127.1381,25.660333 c 0,1.322476 -1.0722,2.394502 -2.39467,2.394502 -1.32247,0 -2.39467,-1.072202 -2.39467,-2.394502 0,-1.322828 1.0722,-2.394854 2.39467,-2.394854 1.32247,0 2.39467,1.072026 2.39467,2.394854 z"
           id="path5528"
           inkscape:connector-curvature="0"
           style="fill:#dcdcdc;fill-opacity:1;stroke:#000000;stroke-width:0.02;stroke-miterlimit:4.0370369;stroke-dasharray:none;stroke-opacity:1" />
        <path
           style="fill:#dcdcdc;fill-opacity:1;stroke:#000000;stroke-width:0.02;stroke-miterlimit:4.0370369;stroke-dasharray:none;stroke-opacity:1"
           inkscape:connector-curvature="0"
           id="path5530"
           d="m 135.11716,17.677603 c 0,1.322829 -1.0722,2.394855 -2.39467,2.394855 -1.32247,0 -2.39467,-1.072202 -2.39467,-2.394855 0,-1.322475 1.0722,-2.394501 2.39467,-2.394501 1.32247,0 2.39467,1.072202 2.39467,2.394501 z"
           i:knockout="Off" />
        <path
           style="fill:#dcdcdc;fill-opacity:1;stroke:#000000;stroke-width:0.02;stroke-miterlimit:4.0370369;stroke-dasharray:none;stroke-opacity:1"
           inkscape:connector-curvature="0"
           id="path5532"
           d="m 135.11716,25.660333 c 0,1.322476 -1.0722,2.394502 -2.39467,2.394502 -1.32247,0 -2.39467,-1.072202 -2.39467,-2.394502 0,-1.322828 1.0722,-2.394854 2.39467,-2.394854 1.32247,0 2.39467,1.072026 2.39467,2.394854 z"
           i:knockout="Off" />
        <path
           style="fill:#dcdcdc;fill-opacity:1;stroke:#000000;stroke-width:0.02;stroke-miterlimit:4.0370369;stroke-dasharray:none;stroke-opacity:1"
           inkscape:connector-curvature="0"
           id="path5534"
           d="m 143.09621,17.677603 c 0,1.322829 -1.0722,2.394855 -2.39467,2.394855 -1.32247,0 -2.39467,-1.072202 -2.39467,-2.394855 0,-1.322475 1.0722,-2.394501 2.39467,-2.394501 1.32247,0 2.39467,1.072202 2.39467,2.394501 z"
           i:knockout="Off" />
        <path
           style="fill:#dcdcdc;fill-opacity:1;stroke:#000000;stroke-width:0.02;stroke-miterlimit:4.0370369;stroke-dasharray:none;stroke-opacity:1"
           inkscape:connector-curvature="0"
           id="path5536"
           d="m 143.09621,25.660333 c 0,1.322476 -1.0722,2.394502 -2.39467,2.394502 -1.32247,0 -2.39467,-1.072202 -2.39467,-2.394502 0,-1.322828 1.0722,-2.394854 2.39467,-2.394854 1.32247,0 2.39467,1.072026 2.39467,2.394854 z"
           i:knockout="Off" />
        <path
           style="fill:#dcdcdc;fill-opacity:1;stroke:#000000;stroke-width:0.02;stroke-miterlimit:4.0370369;stroke-dasharray:none;stroke-opacity:1"
           inkscape:connector-curvature="0"
           id="path6026"
           d="m 23.41001,33.654172 c 0,1.322476 -1.0722,2.394502 -2.39468,2.394502 -1.32247,0 -2.39467,-1.072202 -2.39467,-2.394502 0,-1.322828 1.0722,-2.394854 2.39467,-2.394854 1.32248,0 2.39468,1.072026 2.39468,2.394854 z"
           i:knockout="Off" />
        <path
           style="fill:#dcdcdc;fill-opacity:1;stroke:#000000;stroke-width:0.02;stroke-miterlimit:4.0370369;stroke-dasharray:none;stroke-opacity:1"
           inkscape:connector-curvature="0"
           id="path6028"
           d="m 31.39254,33.654172 c 0,1.322476 -1.0722,2.394502 -2.39467,2.394502 -1.32247,0 -2.39467,-1.072202 -2.39467,-2.394502 0,-1.322828 1.0722,-2.394854 2.39467,-2.394854 1.32247,0 2.39467,1.072026 2.39467,2.394854 z"
           i:knockout="Off" />
        <path
           i:knockout="Off"
           d="m 39.3716,33.654172 c 0,1.322476 -1.0722,2.394502 -2.39467,2.394502 -1.32247,0 -2.39467,-1.072202 -2.39467,-2.394502 0,-1.322828 1.0722,-2.394854 2.39467,-2.394854 1.32247,0 2.39467,1.072026 2.39467,2.394854 z"
           id="path6032"
           inkscape:connector-curvature="0"
           style="fill:#dcdcdc;fill-opacity:1;stroke:#000000;stroke-width:0.02;stroke-miterlimit:4.0370369;stroke-dasharray:none;stroke-opacity:1" />
        <path
           i:knockout="Off"
           d="m 47.35065,33.654172 c 0,1.322476 -1.0722,2.394502 -2.39467,2.394502 -1.32247,0 -2.39467,-1.072202 -2.39467,-2.394502 0,-1.322828 1.0722,-2.394854 2.39467,-2.394854 1.32247,0 2.39467,1.072026 2.39467,2.394854 z"
           id="path6036"
           inkscape:connector-curvature="0"
           style="fill:#dcdcdc;fill-opacity:1;stroke:#000000;stroke-width:0.02;stroke-miterlimit:4.0370369;stroke-dasharray:none;stroke-opacity:1" />
        <path
           style="fill:#dcdcdc;fill-opacity:1;stroke:#000000;stroke-width:0.02;stroke-miterlimit:4.0370369;stroke-dasharray:none;stroke-opacity:1"
           inkscape:connector-curvature="0"
           id="path6040"
           d="m 55.32971,33.654172 c 0,1.322476 -1.0722,2.394502 -2.39467,2.394502 -1.32247,0 -2.39467,-1.072202 -2.39467,-2.394502 0,-1.322828 1.0722,-2.394854 2.39467,-2.394854 1.32247,0 2.39467,1.072026 2.39467,2.394854 z"
           i:knockout="Off" />
        <path
           i:knockout="Off"
           d="m 63.30877,33.654172 c 0,1.322476 -1.0722,2.394502 -2.39467,2.394502 -1.32247,0 -2.39467,-1.072202 -2.39467,-2.394502 0,-1.322828 1.0722,-2.394854 2.39467,-2.394854 1.32247,0 2.39467,1.072026 2.39467,2.394854 z"
           id="path6044"
           inkscape:connector-curvature="0"
           style="fill:#dcdcdc;fill-opacity:1;stroke:#000000;stroke-width:0.02;stroke-miterlimit:4.0370369;stroke-dasharray:none;stroke-opacity:1" />
        <path
           style="fill:#dcdcdc;fill-opacity:1;stroke:#000000;stroke-width:0.02;stroke-miterlimit:4.0370369;stroke-dasharray:none;stroke-opacity:1"
           inkscape:connector-curvature="0"
           id="path6048"
           d="m 71.28783,33.654172 c 0,1.322476 -1.0722,2.394502 -2.39467,2.394502 -1.32247,0 -2.39467,-1.072202 -2.39467,-2.394502 0,-1.322828 1.0722,-2.394854 2.39467,-2.394854 1.32247,0 2.39467,1.072026 2.39467,2.394854 z"
           i:knockout="Off" />
        <path
           style="fill:#dcdcdc;fill-opacity:1;stroke:#000000;stroke-width:0.02;stroke-miterlimit:4.0370369;stroke-dasharray:none;stroke-opacity:1"
           inkscape:connector-curvature="0"
           id="path6052"
           d="m 79.26688,33.654172 c 0,1.322476 -1.0722,2.394502 -2.39467,2.394502 -1.32247,0 -2.39467,-1.072202 -2.39467,-2.394502 0,-1.322828 1.0722,-2.394854 2.39467,-2.394854 1.32247,0 2.39467,1.072026 2.39467,2.394854 z"
           i:knockout="Off" />
        <path
           i:knockout="Off"
           d="m 87.24594,33.654172 c 0,1.322476 -1.0722,2.394502 -2.39467,2.394502 -1.32247,0 -2.39467,-1.072202 -2.39467,-2.394502 0,-1.322828 1.0722,-2.394854 2.39467,-2.394854 1.32247,0 2.39467,1.072026 2.39467,2.394854 z"
           id="path6056"
           inkscape:connector-curvature="0"
           style="fill:#dcdcdc;fill-opacity:1;stroke:#000000;stroke-width:0.02;stroke-miterlimit:4.0370369;stroke-dasharray:none;stroke-opacity:1" />
        <path
           i:knockout="Off"
           d="m 95.22187,33.654172 c 0,1.322476 -1.0722,2.394502 -2.39467,2.394502 -1.32247,0 -2.39467,-1.072202 -2.39467,-2.394502 0,-1.322828 1.0722,-2.394854 2.39467,-2.394854 1.32247,0 2.39467,1.072026 2.39467,2.394854 z"
           id="path6060"
           inkscape:connector-curvature="0"
           style="fill:#dcdcdc;fill-opacity:1;stroke:#000000;stroke-width:0.02;stroke-miterlimit:4.0370369;stroke-dasharray:none;stroke-opacity:1" />
        <path
           style="fill:#dcdcdc;fill-opacity:1;stroke:#000000;stroke-width:0.02;stroke-miterlimit:4.0370369;stroke-dasharray:none;stroke-opacity:1"
           inkscape:connector-curvature="0"
           id="path6064"
           d="m 103.20093,33.654172 c 0,1.322476 -1.0722,2.394502 -2.39467,2.394502 -1.32247,0 -2.39467,-1.072202 -2.39467,-2.394502 0,-1.322828 1.0722,-2.394854 2.39467,-2.394854 1.32247,0 2.39467,1.072026 2.39467,2.394854 z"
           i:knockout="Off" />
        <path
           style="fill:#dcdcdc;fill-opacity:1;stroke:#000000;stroke-width:0.02;stroke-miterlimit:4.0370369;stroke-dasharray:none;stroke-opacity:1"
           inkscape:connector-curvature="0"
           id="path6068"
           d="m 111.17998,33.654172 c 0,1.322476 -1.0722,2.394502 -2.39467,2.394502 -1.32247,0 -2.39467,-1.072202 -2.39467,-2.394502 0,-1.322828 1.0722,-2.394854 2.39467,-2.394854 1.32247,0 2.39467,1.072026 2.39467,2.394854 z"
           i:knockout="Off" />
        <path
           i:knockout="Off"
           d="m 119.15904,33.654172 c 0,1.322476 -1.0722,2.394502 -2.39467,2.394502 -1.32247,0 -2.39467,-1.072202 -2.39467,-2.394502 0,-1.322828 1.0722,-2.394854 2.39467,-2.394854 1.32247,0 2.39467,1.072026 2.39467,2.394854 z"
           id="path6072"
           inkscape:connector-curvature="0"
           style="fill:#dcdcdc;fill-opacity:1;stroke:#000000;stroke-width:0.02;stroke-miterlimit:4.0370369;stroke-dasharray:none;stroke-opacity:1" />
        <path
           style="fill:#dcdcdc;fill-opacity:1;stroke:#000000;stroke-width:0.02;stroke-miterlimit:4.0370369;stroke-dasharray:none;stroke-opacity:1"
           inkscape:connector-curvature="0"
           id="path6076"
           d="m 127.1381,33.654172 c 0,1.322476 -1.0722,2.394502 -2.39467,2.394502 -1.32247,0 -2.39467,-1.072202 -2.39467,-2.394502 0,-1.322828 1.0722,-2.394854 2.39467,-2.394854 1.32247,0 2.39467,1.072026 2.39467,2.394854 z"
           i:knockout="Off" />
        <path
           i:knockout="Off"
           d="m 135.11716,33.654172 c 0,1.322476 -1.0722,2.394502 -2.39467,2.394502 -1.32247,0 -2.39467,-1.072202 -2.39467,-2.394502 0,-1.322828 1.0722,-2.394854 2.39467,-2.394854 1.32247,0 2.39467,1.072026 2.39467,2.394854 z"
           id="path6080"
           inkscape:connector-curvature="0"
           style="fill:#dcdcdc;fill-opacity:1;stroke:#000000;stroke-width:0.02;stroke-miterlimit:4.0370369;stroke-dasharray:none;stroke-opacity:1" />
        <path
           i:knockout="Off"
           d="m 143.09621,33.654172 c 0,1.322476 -1.0722,2.394502 -2.39467,2.394502 -1.32247,0 -2.39467,-1.072202 -2.39467,-2.394502 0,-1.322828 1.0722,-2.394854 2.39467,-2.394854 1.32247,0 2.39467,1.072026 2.39467,2.394854 z"
           id="path6084"
           inkscape:connector-curvature="0"
           style="fill:#dcdcdc;fill-opacity:1;stroke:#000000;stroke-width:0.02;stroke-miterlimit:4.0370369;stroke-dasharray:none;stroke-opacity:1" />
        <path
           style="fill:#dcdcdc;fill-opacity:1;stroke:#000000;stroke-width:0.02;stroke-miterlimit:4.0370369;stroke-dasharray:none;stroke-opacity:1"
           inkscape:connector-curvature="0"
           id="path6090"
           d="m 23.41001,41.637792 c 0,1.322476 -1.0722,2.394502 -2.39468,2.394502 -1.32247,0 -2.39467,-1.072202 -2.39467,-2.394502 0,-1.322828 1.0722,-2.394854 2.39467,-2.394854 1.32248,0 2.39468,1.072026 2.39468,2.394854 z"
           i:knockout="Off" />
        <path
           style="fill:#dcdcdc;fill-opacity:1;stroke:#000000;stroke-width:0.02;stroke-miterlimit:4.0370369;stroke-dasharray:none;stroke-opacity:1"
           inkscape:connector-curvature="0"
           id="path6092"
           d="m 31.39254,41.637792 c 0,1.322476 -1.0722,2.394502 -2.39467,2.394502 -1.32247,0 -2.39467,-1.072202 -2.39467,-2.394502 0,-1.322828 1.0722,-2.394854 2.39467,-2.394854 1.32247,0 2.39467,1.072026 2.39467,2.394854 z"
           i:knockout="Off" />
        <path
           i:knockout="Off"
           d="m 39.3716,41.637792 c 0,1.322476 -1.0722,2.394502 -2.39467,2.394502 -1.32247,0 -2.39467,-1.072202 -2.39467,-2.394502 0,-1.322828 1.0722,-2.394854 2.39467,-2.394854 1.32247,0 2.39467,1.072026 2.39467,2.394854 z"
           id="path6096"
           inkscape:connector-curvature="0"
           style="fill:#dcdcdc;fill-opacity:1;stroke:#000000;stroke-width:0.02;stroke-miterlimit:4.0370369;stroke-dasharray:none;stroke-opacity:1" />
        <path
           i:knockout="Off"
           d="m 47.35065,41.637792 c 0,1.322476 -1.0722,2.394502 -2.39467,2.394502 -1.32247,0 -2.39467,-1.072202 -2.39467,-2.394502 0,-1.322828 1.0722,-2.394854 2.39467,-2.394854 1.32247,0 2.39467,1.072026 2.39467,2.394854 z"
           id="path6100"
           inkscape:connector-curvature="0"
           style="fill:#dcdcdc;fill-opacity:1;stroke:#000000;stroke-width:0.02;stroke-miterlimit:4.0370369;stroke-dasharray:none;stroke-opacity:1" />
        <path
           style="fill:#dcdcdc;fill-opacity:1;stroke:#000000;stroke-width:0.02;stroke-miterlimit:4.0370369;stroke-dasharray:none;stroke-opacity:1"
           inkscape:connector-curvature="0"
           id="path6104"
           d="m 55.32971,41.637792 c 0,1.322476 -1.0722,2.394502 -2.39467,2.394502 -1.32247,0 -2.39467,-1.072202 -2.39467,-2.394502 0,-1.322828 1.0722,-2.394854 2.39467,-2.394854 1.32247,0 2.39467,1.072026 2.39467,2.394854 z"
           i:knockout="Off" />
        <path
           i:knockout="Off"
           d="m 63.30877,41.637792 c 0,1.322476 -1.0722,2.394502 -2.39467,2.394502 -1.32247,0 -2.39467,-1.072202 -2.39467,-2.394502 0,-1.322828 1.0722,-2.394854 2.39467,-2.394854 1.32247,0 2.39467,1.072026 2.39467,2.394854 z"
           id="path6108"
           inkscape:connector-curvature="0"
           style="fill:#dcdcdc;fill-opacity:1;stroke:#000000;stroke-width:0.02;stroke-miterlimit:4.0370369;stroke-dasharray:none;stroke-opacity:1" />
        <path
           style="fill:#dcdcdc;fill-opacity:1;stroke:#000000;stroke-width:0.02;stroke-miterlimit:4.0370369;stroke-dasharray:none;stroke-opacity:1"
           inkscape:connector-curvature="0"
           id="path6112"
           d="m 71.28783,41.637792 c 0,1.322476 -1.0722,2.394502 -2.39467,2.394502 -1.32247,0 -2.39467,-1.072202 -2.39467,-2.394502 0,-1.322828 1.0722,-2.394854 2.39467,-2.394854 1.32247,0 2.39467,1.072026 2.39467,2.394854 z"
           i:knockout="Off" />
        <path
           style="fill:#dcdcdc;fill-opacity:1;stroke:#000000;stroke-width:0.02;stroke-miterlimit:4.0370369;stroke-dasharray:none;stroke-opacity:1"
           inkscape:connector-curvature="0"
           id="path6116"
           d="m 79.26688,41.637792 c 0,1.322476 -1.0722,2.394502 -2.39467,2.394502 -1.32247,0 -2.39467,-1.072202 -2.39467,-2.394502 0,-1.322828 1.0722,-2.394854 2.39467,-2.394854 1.32247,0 2.39467,1.072026 2.39467,2.394854 z"
           i:knockout="Off" />
        <path
           i:knockout="Off"
           d="m 87.24594,41.637792 c 0,1.322476 -1.0722,2.394502 -2.39467,2.394502 -1.32247,0 -2.39467,-1.072202 -2.39467,-2.394502 0,-1.322828 1.0722,-2.394854 2.39467,-2.394854 1.32247,0 2.39467,1.072026 2.39467,2.394854 z"
           id="path6120"
           inkscape:connector-curvature="0"
           style="fill:#dcdcdc;fill-opacity:1;stroke:#000000;stroke-width:0.02;stroke-miterlimit:4.0370369;stroke-dasharray:none;stroke-opacity:1" />
        <path
           i:knockout="Off"
           d="m 95.22187,41.637792 c 0,1.322476 -1.0722,2.394502 -2.39467,2.394502 -1.32247,0 -2.39467,-1.072202 -2.39467,-2.394502 0,-1.322828 1.0722,-2.394854 2.39467,-2.394854 1.32247,0 2.39467,1.072026 2.39467,2.394854 z"
           id="path6124"
           inkscape:connector-curvature="0"
           style="fill:#dcdcdc;fill-opacity:1;stroke:#000000;stroke-width:0.02;stroke-miterlimit:4.0370369;stroke-dasharray:none;stroke-opacity:1" />
        <path
           style="fill:#dcdcdc;fill-opacity:1;stroke:#000000;stroke-width:0.02;stroke-miterlimit:4.0370369;stroke-dasharray:none;stroke-opacity:1"
           inkscape:connector-curvature="0"
           id="path6128"
           d="m 103.20093,41.637792 c 0,1.322476 -1.0722,2.394502 -2.39467,2.394502 -1.32247,0 -2.39467,-1.072202 -2.39467,-2.394502 0,-1.322828 1.0722,-2.394854 2.39467,-2.394854 1.32247,0 2.39467,1.072026 2.39467,2.394854 z"
           i:knockout="Off" />
        <path
           style="fill:#dcdcdc;fill-opacity:1;stroke:#000000;stroke-width:0.02;stroke-miterlimit:4.0370369;stroke-dasharray:none;stroke-opacity:1"
           inkscape:connector-curvature="0"
           id="path6132"
           d="m 111.17998,41.637792 c 0,1.322476 -1.0722,2.394502 -2.39467,2.394502 -1.32247,0 -2.39467,-1.072202 -2.39467,-2.394502 0,-1.322828 1.0722,-2.394854 2.39467,-2.394854 1.32247,0 2.39467,1.072026 2.39467,2.394854 z"
           i:knockout="Off" />
        <path
           i:knockout="Off"
           d="m 119.15904,41.637792 c 0,1.322476 -1.0722,2.394502 -2.39467,2.394502 -1.32247,0 -2.39467,-1.072202 -2.39467,-2.394502 0,-1.322828 1.0722,-2.394854 2.39467,-2.394854 1.32247,0 2.39467,1.072026 2.39467,2.394854 z"
           id="path6136"
           inkscape:connector-curvature="0"
           style="fill:#dcdcdc;fill-opacity:1;stroke:#000000;stroke-width:0.02;stroke-miterlimit:4.0370369;stroke-dasharray:none;stroke-opacity:1" />
        <path
           style="fill:#dcdcdc;fill-opacity:1;stroke:#000000;stroke-width:0.02;stroke-miterlimit:4.0370369;stroke-dasharray:none;stroke-opacity:1"
           inkscape:connector-curvature="0"
           id="path6140"
           d="m 127.1381,41.637792 c 0,1.322476 -1.0722,2.394502 -2.39467,2.394502 -1.32247,0 -2.39467,-1.072202 -2.39467,-2.394502 0,-1.322828 1.0722,-2.394854 2.39467,-2.394854 1.32247,0 2.39467,1.072026 2.39467,2.394854 z"
           i:knockout="Off" />
        <path
           i:knockout="Off"
           d="m 135.11716,41.637792 c 0,1.322476 -1.0722,2.394502 -2.39467,2.394502 -1.32247,0 -2.39467,-1.072202 -2.39467,-2.394502 0,-1.322828 1.0722,-2.394854 2.39467,-2.394854 1.32247,0 2.39467,1.072026 2.39467,2.394854 z"
           id="path6144"
           inkscape:connector-curvature="0"
           style="fill:#dcdcdc;fill-opacity:1;stroke:#000000;stroke-width:0.02;stroke-miterlimit:4.0370369;stroke-dasharray:none;stroke-opacity:1" />
        <path
           i:knockout="Off"
           d="m 143.09621,41.637792 c 0,1.322476 -1.0722,2.394502 -2.39467,2.394502 -1.32247,0 -2.39467,-1.072202 -2.39467,-2.394502 0,-1.322828 1.0722,-2.394854 2.39467,-2.394854 1.32247,0 2.39467,1.072026 2.39467,2.394854 z"
           id="path6148"
           inkscape:connector-curvature="0"
           style="fill:#dcdcdc;fill-opacity:1;stroke:#000000;stroke-width:0.02;stroke-miterlimit:4.0370369;stroke-dasharray:none;stroke-opacity:1" />
        <path
           i:knockout="Off"
           d="m 23.41001,49.631631 c 0,1.322476 -1.0722,2.394502 -2.39468,2.394502 -1.32247,0 -2.39467,-1.072202 -2.39467,-2.394502 0,-1.322828 1.0722,-2.394854 2.39467,-2.394854 1.32248,0 2.39468,1.072026 2.39468,2.394854 z"
           id="path6150"
           inkscape:connector-curvature="0"
           style="fill:#dcdcdc;fill-opacity:1;stroke:#000000;stroke-width:0.02;stroke-miterlimit:4.0370369;stroke-dasharray:none;stroke-opacity:1" />
        <path
           i:knockout="Off"
           d="m 31.39254,49.631631 c 0,1.322476 -1.0722,2.394502 -2.39467,2.394502 -1.32247,0 -2.39467,-1.072202 -2.39467,-2.394502 0,-1.322828 1.0722,-2.394854 2.39467,-2.394854 1.32247,0 2.39467,1.072026 2.39467,2.394854 z"
           id="path6152"
           inkscape:connector-curvature="0"
           style="fill:#dcdcdc;fill-opacity:1;stroke:#000000;stroke-width:0.02;stroke-miterlimit:4.0370369;stroke-dasharray:none;stroke-opacity:1" />
        <path
           style="fill:#dcdcdc;fill-opacity:1;stroke:#000000;stroke-width:0.02;stroke-miterlimit:4.0370369;stroke-dasharray:none;stroke-opacity:1"
           inkscape:connector-curvature="0"
           id="path6154"
           d="m 39.3716,49.631631 c 0,1.322476 -1.0722,2.394502 -2.39467,2.394502 -1.32247,0 -2.39467,-1.072202 -2.39467,-2.394502 0,-1.322828 1.0722,-2.394854 2.39467,-2.394854 1.32247,0 2.39467,1.072026 2.39467,2.394854 z"
           i:knockout="Off" />
        <path
           style="fill:#dcdcdc;fill-opacity:1;stroke:#000000;stroke-width:0.02;stroke-miterlimit:4.0370369;stroke-dasharray:none;stroke-opacity:1"
           inkscape:connector-curvature="0"
           id="path6156"
           d="m 47.35065,49.631631 c 0,1.322476 -1.0722,2.394502 -2.39467,2.394502 -1.32247,0 -2.39467,-1.072202 -2.39467,-2.394502 0,-1.322828 1.0722,-2.394854 2.39467,-2.394854 1.32247,0 2.39467,1.072026 2.39467,2.394854 z"
           i:knockout="Off" />
        <path
           i:knockout="Off"
           d="m 55.32971,49.631631 c 0,1.322476 -1.0722,2.394502 -2.39467,2.394502 -1.32247,0 -2.39467,-1.072202 -2.39467,-2.394502 0,-1.322828 1.0722,-2.394854 2.39467,-2.394854 1.32247,0 2.39467,1.072026 2.39467,2.394854 z"
           id="path6158"
           inkscape:connector-curvature="0"
           style="fill:#dcdcdc;fill-opacity:1;stroke:#000000;stroke-width:0.02;stroke-miterlimit:4.0370369;stroke-dasharray:none;stroke-opacity:1" />
        <path
           style="fill:#dcdcdc;fill-opacity:1;stroke:#000000;stroke-width:0.02;stroke-miterlimit:4.0370369;stroke-dasharray:none;stroke-opacity:1"
           inkscape:connector-curvature="0"
           id="path6160"
           d="m 63.30877,49.631631 c 0,1.322476 -1.0722,2.394502 -2.39467,2.394502 -1.32247,0 -2.39467,-1.072202 -2.39467,-2.394502 0,-1.322828 1.0722,-2.394854 2.39467,-2.394854 1.32247,0 2.39467,1.072026 2.39467,2.394854 z"
           i:knockout="Off" />
        <path
           i:knockout="Off"
           d="m 71.28783,49.631631 c 0,1.322476 -1.0722,2.394502 -2.39467,2.394502 -1.32247,0 -2.39467,-1.072202 -2.39467,-2.394502 0,-1.322828 1.0722,-2.394854 2.39467,-2.394854 1.32247,0 2.39467,1.072026 2.39467,2.394854 z"
           id="path6162"
           inkscape:connector-curvature="0"
           style="fill:#dcdcdc;fill-opacity:1;stroke:#000000;stroke-width:0.02;stroke-miterlimit:4.0370369;stroke-dasharray:none;stroke-opacity:1" />
        <path
           i:knockout="Off"
           d="m 79.26688,49.631631 c 0,1.322476 -1.0722,2.394502 -2.39467,2.394502 -1.32247,0 -2.39467,-1.072202 -2.39467,-2.394502 0,-1.322828 1.0722,-2.394854 2.39467,-2.394854 1.32247,0 2.39467,1.072026 2.39467,2.394854 z"
           id="path6164"
           inkscape:connector-curvature="0"
           style="fill:#dcdcdc;fill-opacity:1;stroke:#000000;stroke-width:0.02;stroke-miterlimit:4.0370369;stroke-dasharray:none;stroke-opacity:1" />
        <path
           style="fill:#dcdcdc;fill-opacity:1;stroke:#000000;stroke-width:0.02;stroke-miterlimit:4.0370369;stroke-dasharray:none;stroke-opacity:1"
           inkscape:connector-curvature="0"
           id="path6166"
           d="m 87.24594,49.631631 c 0,1.322476 -1.0722,2.394502 -2.39467,2.394502 -1.32247,0 -2.39467,-1.072202 -2.39467,-2.394502 0,-1.322828 1.0722,-2.394854 2.39467,-2.394854 1.32247,0 2.39467,1.072026 2.39467,2.394854 z"
           i:knockout="Off" />
        <path
           style="fill:#dcdcdc;fill-opacity:1;stroke:#000000;stroke-width:0.02;stroke-miterlimit:4.0370369;stroke-dasharray:none;stroke-opacity:1"
           inkscape:connector-curvature="0"
           id="path6168"
           d="m 95.22187,49.631631 c 0,1.322476 -1.0722,2.394502 -2.39467,2.394502 -1.32247,0 -2.39467,-1.072202 -2.39467,-2.394502 0,-1.322828 1.0722,-2.394854 2.39467,-2.394854 1.32247,0 2.39467,1.072026 2.39467,2.394854 z"
           i:knockout="Off" />
        <path
           i:knockout="Off"
           d="m 103.20093,49.631631 c 0,1.322476 -1.0722,2.394502 -2.39467,2.394502 -1.32247,0 -2.39467,-1.072202 -2.39467,-2.394502 0,-1.322828 1.0722,-2.394854 2.39467,-2.394854 1.32247,0 2.39467,1.072026 2.39467,2.394854 z"
           id="path6170"
           inkscape:connector-curvature="0"
           style="fill:#dcdcdc;fill-opacity:1;stroke:#000000;stroke-width:0.02;stroke-miterlimit:4.0370369;stroke-dasharray:none;stroke-opacity:1" />
        <path
           i:knockout="Off"
           d="m 111.17998,49.631631 c 0,1.322476 -1.0722,2.394502 -2.39467,2.394502 -1.32247,0 -2.39467,-1.072202 -2.39467,-2.394502 0,-1.322828 1.0722,-2.394854 2.39467,-2.394854 1.32247,0 2.39467,1.072026 2.39467,2.394854 z"
           id="path6172"
           inkscape:connector-curvature="0"
           style="fill:#dcdcdc;fill-opacity:1;stroke:#000000;stroke-width:0.02;stroke-miterlimit:4.0370369;stroke-dasharray:none;stroke-opacity:1" />
        <path
           style="fill:#dcdcdc;fill-opacity:1;stroke:#000000;stroke-width:0.02;stroke-miterlimit:4.0370369;stroke-dasharray:none;stroke-opacity:1"
           inkscape:connector-curvature="0"
           id="path6174"
           d="m 119.15904,49.631631 c 0,1.322476 -1.0722,2.394502 -2.39467,2.394502 -1.32247,0 -2.39467,-1.072202 -2.39467,-2.394502 0,-1.322828 1.0722,-2.394854 2.39467,-2.394854 1.32247,0 2.39467,1.072026 2.39467,2.394854 z"
           i:knockout="Off" />
        <path
           i:knockout="Off"
           d="m 127.1381,49.631631 c 0,1.322476 -1.0722,2.394502 -2.39467,2.394502 -1.32247,0 -2.39467,-1.072202 -2.39467,-2.394502 0,-1.322828 1.0722,-2.394854 2.39467,-2.394854 1.32247,0 2.39467,1.072026 2.39467,2.394854 z"
           id="path6176"
           inkscape:connector-curvature="0"
           style="fill:#dcdcdc;fill-opacity:1;stroke:#000000;stroke-width:0.02;stroke-miterlimit:4.0370369;stroke-dasharray:none;stroke-opacity:1" />
        <path
           style="fill:#dcdcdc;fill-opacity:1;stroke:#000000;stroke-width:0.02;stroke-miterlimit:4.0370369;stroke-dasharray:none;stroke-opacity:1"
           inkscape:connector-curvature="0"
           id="path6178"
           d="m 135.11716,49.631631 c 0,1.322476 -1.0722,2.394502 -2.39467,2.394502 -1.32247,0 -2.39467,-1.072202 -2.39467,-2.394502 0,-1.322828 1.0722,-2.394854 2.39467,-2.394854 1.32247,0 2.39467,1.072026 2.39467,2.394854 z"
           i:knockout="Off" />
        <path
           style="fill:#dcdcdc;fill-opacity:1;stroke:#000000;stroke-width:0.02;stroke-miterlimit:4.0370369;stroke-dasharray:none;stroke-opacity:1"
           inkscape:connector-curvature="0"
           id="path6180"
           d="m 143.09621,49.631631 c 0,1.322476 -1.0722,2.394502 -2.39467,2.394502 -1.32247,0 -2.39467,-1.072202 -2.39467,-2.394502 0,-1.322828 1.0722,-2.394854 2.39467,-2.394854 1.32247,0 2.39467,1.072026 2.39467,2.394854 z"
           i:knockout="Off" />
        <path
           style="fill:#dcdcdc;fill-opacity:1;stroke:#000000;stroke-width:0.02;stroke-miterlimit:4.0370369;stroke-dasharray:none;stroke-opacity:1"
           inkscape:connector-curvature="0"
           id="path6186"
           d="m 23.41001,57.598982 c 0,1.322476 -1.0722,2.394502 -2.39468,2.394502 -1.32247,0 -2.39467,-1.072202 -2.39467,-2.394502 0,-1.322828 1.0722,-2.394854 2.39467,-2.394854 1.32248,0 2.39468,1.072026 2.39468,2.394854 z"
           i:knockout="Off" />
        <path
           style="fill:#dcdcdc;fill-opacity:1;stroke:#000000;stroke-width:0.02;stroke-miterlimit:4.0370369;stroke-dasharray:none;stroke-opacity:1"
           inkscape:connector-curvature="0"
           id="path6188"
           d="m 31.39254,57.598982 c 0,1.322476 -1.0722,2.394502 -2.39467,2.394502 -1.32247,0 -2.39467,-1.072202 -2.39467,-2.394502 0,-1.322828 1.0722,-2.394854 2.39467,-2.394854 1.32247,0 2.39467,1.072026 2.39467,2.394854 z"
           i:knockout="Off" />
        <path
           i:knockout="Off"
           d="m 39.3716,57.598982 c 0,1.322476 -1.0722,2.394502 -2.39467,2.394502 -1.32247,0 -2.39467,-1.072202 -2.39467,-2.394502 0,-1.322828 1.0722,-2.394854 2.39467,-2.394854 1.32247,0 2.39467,1.072026 2.39467,2.394854 z"
           id="path6192"
           inkscape:connector-curvature="0"
           style="fill:#dcdcdc;fill-opacity:1;stroke:#000000;stroke-width:0.02;stroke-miterlimit:4.0370369;stroke-dasharray:none;stroke-opacity:1" />
        <path
           i:knockout="Off"
           d="m 47.35065,57.598982 c 0,1.322476 -1.0722,2.394502 -2.39467,2.394502 -1.32247,0 -2.39467,-1.072202 -2.39467,-2.394502 0,-1.322828 1.0722,-2.394854 2.39467,-2.394854 1.32247,0 2.39467,1.072026 2.39467,2.394854 z"
           id="path6196"
           inkscape:connector-curvature="0"
           style="fill:#dcdcdc;fill-opacity:1;stroke:#000000;stroke-width:0.02;stroke-miterlimit:4.0370369;stroke-dasharray:none;stroke-opacity:1" />
        <path
           style="fill:#dcdcdc;fill-opacity:1;stroke:#000000;stroke-width:0.02;stroke-miterlimit:4.0370369;stroke-dasharray:none;stroke-opacity:1"
           inkscape:connector-curvature="0"
           id="path6200"
           d="m 55.32971,57.598982 c 0,1.322476 -1.0722,2.394502 -2.39467,2.394502 -1.32247,0 -2.39467,-1.072202 -2.39467,-2.394502 0,-1.322828 1.0722,-2.394854 2.39467,-2.394854 1.32247,0 2.39467,1.072026 2.39467,2.394854 z"
           i:knockout="Off" />
        <path
           i:knockout="Off"
           d="m 63.30877,57.598982 c 0,1.322476 -1.0722,2.394502 -2.39467,2.394502 -1.32247,0 -2.39467,-1.072202 -2.39467,-2.394502 0,-1.322828 1.0722,-2.394854 2.39467,-2.394854 1.32247,0 2.39467,1.072026 2.39467,2.394854 z"
           id="path6204"
           inkscape:connector-curvature="0"
           style="fill:#dcdcdc;fill-opacity:1;stroke:#000000;stroke-width:0.02;stroke-miterlimit:4.0370369;stroke-dasharray:none;stroke-opacity:1" />
        <path
           style="fill:#dcdcdc;fill-opacity:1;stroke:#000000;stroke-width:0.02;stroke-miterlimit:4.0370369;stroke-dasharray:none;stroke-opacity:1"
           inkscape:connector-curvature="0"
           id="path6208"
           d="m 71.28783,57.598982 c 0,1.322476 -1.0722,2.394502 -2.39467,2.394502 -1.32247,0 -2.39467,-1.072202 -2.39467,-2.394502 0,-1.322828 1.0722,-2.394854 2.39467,-2.394854 1.32247,0 2.39467,1.072026 2.39467,2.394854 z"
           i:knockout="Off" />
        <path
           style="fill:#dcdcdc;fill-opacity:1;stroke:#000000;stroke-width:0.02;stroke-miterlimit:4.0370369;stroke-dasharray:none;stroke-opacity:1"
           inkscape:connector-curvature="0"
           id="path6212"
           d="m 79.26688,57.598982 c 0,1.322476 -1.0722,2.394502 -2.39467,2.394502 -1.32247,0 -2.39467,-1.072202 -2.39467,-2.394502 0,-1.322828 1.0722,-2.394854 2.39467,-2.394854 1.32247,0 2.39467,1.072026 2.39467,2.394854 z"
           i:knockout="Off" />
        <path
           i:knockout="Off"
           d="m 87.24594,57.598982 c 0,1.322476 -1.0722,2.394502 -2.39467,2.394502 -1.32247,0 -2.39467,-1.072202 -2.39467,-2.394502 0,-1.322828 1.0722,-2.394854 2.39467,-2.394854 1.32247,0 2.39467,1.072026 2.39467,2.394854 z"
           id="path6216"
           inkscape:connector-curvature="0"
           style="fill:#dcdcdc;fill-opacity:1;stroke:#000000;stroke-width:0.02;stroke-miterlimit:4.0370369;stroke-dasharray:none;stroke-opacity:1" />
        <path
           i:knockout="Off"
           d="m 95.22187,57.598982 c 0,1.322476 -1.0722,2.394502 -2.39467,2.394502 -1.32247,0 -2.39467,-1.072202 -2.39467,-2.394502 0,-1.322828 1.0722,-2.394854 2.39467,-2.394854 1.32247,0 2.39467,1.072026 2.39467,2.394854 z"
           id="path6220"
           inkscape:connector-curvature="0"
           style="fill:#dcdcdc;fill-opacity:1;stroke:#000000;stroke-width:0.02;stroke-miterlimit:4.0370369;stroke-dasharray:none;stroke-opacity:1" />
        <path
           style="fill:#dcdcdc;fill-opacity:1;stroke:#000000;stroke-width:0.02;stroke-miterlimit:4.0370369;stroke-dasharray:none;stroke-opacity:1"
           inkscape:connector-curvature="0"
           id="path6224"
           d="m 103.20093,57.598982 c 0,1.322476 -1.0722,2.394502 -2.39467,2.394502 -1.32247,0 -2.39467,-1.072202 -2.39467,-2.394502 0,-1.322828 1.0722,-2.394854 2.39467,-2.394854 1.32247,0 2.39467,1.072026 2.39467,2.394854 z"
           i:knockout="Off" />
        <path
           style="fill:#dcdcdc;fill-opacity:1;stroke:#000000;stroke-width:0.02;stroke-miterlimit:4.0370369;stroke-dasharray:none;stroke-opacity:1"
           inkscape:connector-curvature="0"
           id="path6228"
           d="m 111.17998,57.598982 c 0,1.322476 -1.0722,2.394502 -2.39467,2.394502 -1.32247,0 -2.39467,-1.072202 -2.39467,-2.394502 0,-1.322828 1.0722,-2.394854 2.39467,-2.394854 1.32247,0 2.39467,1.072026 2.39467,2.394854 z"
           i:knockout="Off" />
        <path
           i:knockout="Off"
           d="m 119.15904,57.598982 c 0,1.322476 -1.0722,2.394502 -2.39467,2.394502 -1.32247,0 -2.39467,-1.072202 -2.39467,-2.394502 0,-1.322828 1.0722,-2.394854 2.39467,-2.394854 1.32247,0 2.39467,1.072026 2.39467,2.394854 z"
           id="path6232"
           inkscape:connector-curvature="0"
           style="fill:#dcdcdc;fill-opacity:1;stroke:#000000;stroke-width:0.02;stroke-miterlimit:4.0370369;stroke-dasharray:none;stroke-opacity:1" />
        <path
           style="fill:#dcdcdc;fill-opacity:1;stroke:#000000;stroke-width:0.02;stroke-miterlimit:4.0370369;stroke-dasharray:none;stroke-opacity:1"
           inkscape:connector-curvature="0"
           id="path6236"
           d="m 127.1381,57.598982 c 0,1.322476 -1.0722,2.394502 -2.39467,2.394502 -1.32247,0 -2.39467,-1.072202 -2.39467,-2.394502 0,-1.322828 1.0722,-2.394854 2.39467,-2.394854 1.32247,0 2.39467,1.072026 2.39467,2.394854 z"
           i:knockout="Off" />
        <path
           i:knockout="Off"
           d="m 135.11716,57.598982 c 0,1.322476 -1.0722,2.394502 -2.39467,2.394502 -1.32247,0 -2.39467,-1.072202 -2.39467,-2.394502 0,-1.322828 1.0722,-2.394854 2.39467,-2.394854 1.32247,0 2.39467,1.072026 2.39467,2.394854 z"
           id="path6240"
           inkscape:connector-curvature="0"
           style="fill:#dcdcdc;fill-opacity:1;stroke:#000000;stroke-width:0.02;stroke-miterlimit:4.0370369;stroke-dasharray:none;stroke-opacity:1" />
        <path
           i:knockout="Off"
           d="m 143.09621,57.598982 c 0,1.322476 -1.0722,2.394502 -2.39467,2.394502 -1.32247,0 -2.39467,-1.072202 -2.39467,-2.394502 0,-1.322828 1.0722,-2.394854 2.39467,-2.394854 1.32247,0 2.39467,1.072026 2.39467,2.394854 z"
           id="path6244"
           inkscape:connector-curvature="0"
           style="fill:#dcdcdc;fill-opacity:1;stroke:#000000;stroke-width:0.02;stroke-miterlimit:4.0370369;stroke-dasharray:none;stroke-opacity:1" />
        <path
           i:knockout="Off"
           d="m 23.41001,65.592821 c 0,1.322476 -1.0722,2.394502 -2.39468,2.394502 -1.32247,0 -2.39467,-1.072202 -2.39467,-2.394502 0,-1.322828 1.0722,-2.394854 2.39467,-2.394854 1.32248,0 2.39468,1.072026 2.39468,2.394854 z"
           id="path6246"
           inkscape:connector-curvature="0"
           style="fill:#dcdcdc;fill-opacity:1;stroke:#000000;stroke-width:0.02;stroke-miterlimit:4.0370369;stroke-dasharray:none;stroke-opacity:1" />
        <path
           i:knockout="Off"
           d="m 31.39254,65.592821 c 0,1.322476 -1.0722,2.394502 -2.39467,2.394502 -1.32247,0 -2.39467,-1.072202 -2.39467,-2.394502 0,-1.322828 1.0722,-2.394854 2.39467,-2.394854 1.32247,0 2.39467,1.072026 2.39467,2.394854 z"
           id="path6248"
           inkscape:connector-curvature="0"
           style="fill:#dcdcdc;fill-opacity:1;stroke:#000000;stroke-width:0.02;stroke-miterlimit:4.0370369;stroke-dasharray:none;stroke-opacity:1" />
        <path
           style="fill:#dcdcdc;fill-opacity:1;stroke:#000000;stroke-width:0.02;stroke-miterlimit:4.0370369;stroke-dasharray:none;stroke-opacity:1"
           inkscape:connector-curvature="0"
           id="path6250"
           d="m 39.3716,65.592821 c 0,1.322476 -1.0722,2.394502 -2.39467,2.394502 -1.32247,0 -2.39467,-1.072202 -2.39467,-2.394502 0,-1.322828 1.0722,-2.394854 2.39467,-2.394854 1.32247,0 2.39467,1.072026 2.39467,2.394854 z"
           i:knockout="Off" />
        <path
           style="fill:#dcdcdc;fill-opacity:1;stroke:#000000;stroke-width:0.02;stroke-miterlimit:4.0370369;stroke-dasharray:none;stroke-opacity:1"
           inkscape:connector-curvature="0"
           id="path6252"
           d="m 47.35065,65.592821 c 0,1.322476 -1.0722,2.394502 -2.39467,2.394502 -1.32247,0 -2.39467,-1.072202 -2.39467,-2.394502 0,-1.322828 1.0722,-2.394854 2.39467,-2.394854 1.32247,0 2.39467,1.072026 2.39467,2.394854 z"
           i:knockout="Off" />
        <path
           i:knockout="Off"
           d="m 55.32971,65.592821 c 0,1.322476 -1.0722,2.394502 -2.39467,2.394502 -1.32247,0 -2.39467,-1.072202 -2.39467,-2.394502 0,-1.322828 1.0722,-2.394854 2.39467,-2.394854 1.32247,0 2.39467,1.072026 2.39467,2.394854 z"
           id="path6254"
           inkscape:connector-curvature="0"
           style="fill:#dcdcdc;fill-opacity:1;stroke:#000000;stroke-width:0.02;stroke-miterlimit:4.0370369;stroke-dasharray:none;stroke-opacity:1" />
        <path
           style="fill:#dcdcdc;fill-opacity:1;stroke:#000000;stroke-width:0.02;stroke-miterlimit:4.0370369;stroke-dasharray:none;stroke-opacity:1"
           inkscape:connector-curvature="0"
           id="path6256"
           d="m 63.30877,65.592821 c 0,1.322476 -1.0722,2.394502 -2.39467,2.394502 -1.32247,0 -2.39467,-1.072202 -2.39467,-2.394502 0,-1.322828 1.0722,-2.394854 2.39467,-2.394854 1.32247,0 2.39467,1.072026 2.39467,2.394854 z"
           i:knockout="Off" />
        <path
           i:knockout="Off"
           d="m 71.28783,65.592821 c 0,1.322476 -1.0722,2.394502 -2.39467,2.394502 -1.32247,0 -2.39467,-1.072202 -2.39467,-2.394502 0,-1.322828 1.0722,-2.394854 2.39467,-2.394854 1.32247,0 2.39467,1.072026 2.39467,2.394854 z"
           id="path6258"
           inkscape:connector-curvature="0"
           style="fill:#dcdcdc;fill-opacity:1;stroke:#000000;stroke-width:0.02;stroke-miterlimit:4.0370369;stroke-dasharray:none;stroke-opacity:1" />
        <path
           i:knockout="Off"
           d="m 79.26688,65.592821 c 0,1.322476 -1.0722,2.394502 -2.39467,2.394502 -1.32247,0 -2.39467,-1.072202 -2.39467,-2.394502 0,-1.322828 1.0722,-2.394854 2.39467,-2.394854 1.32247,0 2.39467,1.072026 2.39467,2.394854 z"
           id="path6260"
           inkscape:connector-curvature="0"
           style="fill:#dcdcdc;fill-opacity:1;stroke:#000000;stroke-width:0.02;stroke-miterlimit:4.0370369;stroke-dasharray:none;stroke-opacity:1" />
        <path
           style="fill:#dcdcdc;fill-opacity:1;stroke:#000000;stroke-width:0.02;stroke-miterlimit:4.0370369;stroke-dasharray:none;stroke-opacity:1"
           inkscape:connector-curvature="0"
           id="path6262"
           d="m 87.24594,65.592821 c 0,1.322476 -1.0722,2.394502 -2.39467,2.394502 -1.32247,0 -2.39467,-1.072202 -2.39467,-2.394502 0,-1.322828 1.0722,-2.394854 2.39467,-2.394854 1.32247,0 2.39467,1.072026 2.39467,2.394854 z"
           i:knockout="Off" />
        <path
           style="fill:#dcdcdc;fill-opacity:1;stroke:#000000;stroke-width:0.02;stroke-miterlimit:4.0370369;stroke-dasharray:none;stroke-opacity:1"
           inkscape:connector-curvature="0"
           id="path6264"
           d="m 95.22187,65.592821 c 0,1.322476 -1.0722,2.394502 -2.39467,2.394502 -1.32247,0 -2.39467,-1.072202 -2.39467,-2.394502 0,-1.322828 1.0722,-2.394854 2.39467,-2.394854 1.32247,0 2.39467,1.072026 2.39467,2.394854 z"
           i:knockout="Off" />
        <path
           i:knockout="Off"
           d="m 103.20093,65.592821 c 0,1.322476 -1.0722,2.394502 -2.39467,2.394502 -1.32247,0 -2.39467,-1.072202 -2.39467,-2.394502 0,-1.322828 1.0722,-2.394854 2.39467,-2.394854 1.32247,0 2.39467,1.072026 2.39467,2.394854 z"
           id="path6266"
           inkscape:connector-curvature="0"
           style="fill:#dcdcdc;fill-opacity:1;stroke:#000000;stroke-width:0.02;stroke-miterlimit:4.0370369;stroke-dasharray:none;stroke-opacity:1" />
        <path
           i:knockout="Off"
           d="m 111.17998,65.592821 c 0,1.322476 -1.0722,2.394502 -2.39467,2.394502 -1.32247,0 -2.39467,-1.072202 -2.39467,-2.394502 0,-1.322828 1.0722,-2.394854 2.39467,-2.394854 1.32247,0 2.39467,1.072026 2.39467,2.394854 z"
           id="path6268"
           inkscape:connector-curvature="0"
           style="fill:#dcdcdc;fill-opacity:1;stroke:#000000;stroke-width:0.02;stroke-miterlimit:4.0370369;stroke-dasharray:none;stroke-opacity:1" />
        <path
           style="fill:#dcdcdc;fill-opacity:1;stroke:#000000;stroke-width:0.02;stroke-miterlimit:4.0370369;stroke-dasharray:none;stroke-opacity:1"
           inkscape:connector-curvature="0"
           id="path6270"
           d="m 119.15904,65.592821 c 0,1.322476 -1.0722,2.394502 -2.39467,2.394502 -1.32247,0 -2.39467,-1.072202 -2.39467,-2.394502 0,-1.322828 1.0722,-2.394854 2.39467,-2.394854 1.32247,0 2.39467,1.072026 2.39467,2.394854 z"
           i:knockout="Off" />
        <path
           i:knockout="Off"
           d="m 127.1381,65.592821 c 0,1.322476 -1.0722,2.394502 -2.39467,2.394502 -1.32247,0 -2.39467,-1.072202 -2.39467,-2.394502 0,-1.322828 1.0722,-2.394854 2.39467,-2.394854 1.32247,0 2.39467,1.072026 2.39467,2.394854 z"
           id="path6272"
           inkscape:connector-curvature="0"
           style="fill:#dcdcdc;fill-opacity:1;stroke:#000000;stroke-width:0.02;stroke-miterlimit:4.0370369;stroke-dasharray:none;stroke-opacity:1" />
        <path
           style="fill:#dcdcdc;fill-opacity:1;stroke:#000000;stroke-width:0.02;stroke-miterlimit:4.0370369;stroke-dasharray:none;stroke-opacity:1"
           inkscape:connector-curvature="0"
           id="path6274"
           d="m 135.11716,65.592821 c 0,1.322476 -1.0722,2.394502 -2.39467,2.394502 -1.32247,0 -2.39467,-1.072202 -2.39467,-2.394502 0,-1.322828 1.0722,-2.394854 2.39467,-2.394854 1.32247,0 2.39467,1.072026 2.39467,2.394854 z"
           i:knockout="Off" />
        <path
           style="fill:#dcdcdc;fill-opacity:1;stroke:#000000;stroke-width:0.02;stroke-miterlimit:4.0370369;stroke-dasharray:none;stroke-opacity:1"
           inkscape:connector-curvature="0"
           id="path6276"
           d="m 143.09621,65.592821 c 0,1.322476 -1.0722,2.394502 -2.39467,2.394502 -1.32247,0 -2.39467,-1.072202 -2.39467,-2.394502 0,-1.322828 1.0722,-2.394854 2.39467,-2.394854 1.32247,0 2.39467,1.072026 2.39467,2.394854 z"
           i:knockout="Off" />
        <path
           i:knockout="Off"
           d="m 23.41001,73.576441 c 0,1.322476 -1.0722,2.394502 -2.39468,2.394502 -1.32247,0 -2.39467,-1.072202 -2.39467,-2.394502 0,-1.322828 1.0722,-2.394854 2.39467,-2.394854 1.32248,0 2.39468,1.072026 2.39468,2.394854 z"
           id="path6278"
           inkscape:connector-curvature="0"
           style="fill:#dcdcdc;fill-opacity:1;stroke:#000000;stroke-width:0.02;stroke-miterlimit:4.0370369;stroke-dasharray:none;stroke-opacity:1" />
        <path
           i:knockout="Off"
           d="m 31.39254,73.576441 c 0,1.322476 -1.0722,2.394502 -2.39467,2.394502 -1.32247,0 -2.39467,-1.072202 -2.39467,-2.394502 0,-1.322828 1.0722,-2.394854 2.39467,-2.394854 1.32247,0 2.39467,1.072026 2.39467,2.394854 z"
           id="path6280"
           inkscape:connector-curvature="0"
           style="fill:#dcdcdc;fill-opacity:1;stroke:#000000;stroke-width:0.02;stroke-miterlimit:4.0370369;stroke-dasharray:none;stroke-opacity:1" />
        <path
           style="fill:#dcdcdc;fill-opacity:1;stroke:#000000;stroke-width:0.02;stroke-miterlimit:4.0370369;stroke-dasharray:none;stroke-opacity:1"
           inkscape:connector-curvature="0"
           id="path6282"
           d="m 39.3716,73.576441 c 0,1.322476 -1.0722,2.394502 -2.39467,2.394502 -1.32247,0 -2.39467,-1.072202 -2.39467,-2.394502 0,-1.322828 1.0722,-2.394854 2.39467,-2.394854 1.32247,0 2.39467,1.072026 2.39467,2.394854 z"
           i:knockout="Off" />
        <path
           style="fill:#dcdcdc;fill-opacity:1;stroke:#000000;stroke-width:0.02;stroke-miterlimit:4.0370369;stroke-dasharray:none;stroke-opacity:1"
           inkscape:connector-curvature="0"
           id="path6284"
           d="m 47.35065,73.576441 c 0,1.322476 -1.0722,2.394502 -2.39467,2.394502 -1.32247,0 -2.39467,-1.072202 -2.39467,-2.394502 0,-1.322828 1.0722,-2.394854 2.39467,-2.394854 1.32247,0 2.39467,1.072026 2.39467,2.394854 z"
           i:knockout="Off" />
        <path
           i:knockout="Off"
           d="m 55.32971,73.576441 c 0,1.322476 -1.0722,2.394502 -2.39467,2.394502 -1.32247,0 -2.39467,-1.072202 -2.39467,-2.394502 0,-1.322828 1.0722,-2.394854 2.39467,-2.394854 1.32247,0 2.39467,1.072026 2.39467,2.394854 z"
           id="path6286"
           inkscape:connector-curvature="0"
           style="fill:#dcdcdc;fill-opacity:1;stroke:#000000;stroke-width:0.02;stroke-miterlimit:4.0370369;stroke-dasharray:none;stroke-opacity:1" />
        <path
           style="fill:#dcdcdc;fill-opacity:1;stroke:#000000;stroke-width:0.02;stroke-miterlimit:4.0370369;stroke-dasharray:none;stroke-opacity:1"
           inkscape:connector-curvature="0"
           id="path6288"
           d="m 63.30877,73.576441 c 0,1.322476 -1.0722,2.394502 -2.39467,2.394502 -1.32247,0 -2.39467,-1.072202 -2.39467,-2.394502 0,-1.322828 1.0722,-2.394854 2.39467,-2.394854 1.32247,0 2.39467,1.072026 2.39467,2.394854 z"
           i:knockout="Off" />
        <path
           i:knockout="Off"
           d="m 71.28783,73.576441 c 0,1.322476 -1.0722,2.394502 -2.39467,2.394502 -1.32247,0 -2.39467,-1.072202 -2.39467,-2.394502 0,-1.322828 1.0722,-2.394854 2.39467,-2.394854 1.32247,0 2.39467,1.072026 2.39467,2.394854 z"
           id="path6290"
           inkscape:connector-curvature="0"
           style="fill:#dcdcdc;fill-opacity:1;stroke:#000000;stroke-width:0.02;stroke-miterlimit:4.0370369;stroke-dasharray:none;stroke-opacity:1" />
        <path
           i:knockout="Off"
           d="m 79.26688,73.576441 c 0,1.322476 -1.0722,2.394502 -2.39467,2.394502 -1.32247,0 -2.39467,-1.072202 -2.39467,-2.394502 0,-1.322828 1.0722,-2.394854 2.39467,-2.394854 1.32247,0 2.39467,1.072026 2.39467,2.394854 z"
           id="path6292"
           inkscape:connector-curvature="0"
           style="fill:#dcdcdc;fill-opacity:1;stroke:#000000;stroke-width:0.02;stroke-miterlimit:4.0370369;stroke-dasharray:none;stroke-opacity:1" />
        <path
           style="fill:#dcdcdc;fill-opacity:1;stroke:#000000;stroke-width:0.02;stroke-miterlimit:4.0370369;stroke-dasharray:none;stroke-opacity:1"
           inkscape:connector-curvature="0"
           id="path6294"
           d="m 87.24594,73.576441 c 0,1.322476 -1.0722,2.394502 -2.39467,2.394502 -1.32247,0 -2.39467,-1.072202 -2.39467,-2.394502 0,-1.322828 1.0722,-2.394854 2.39467,-2.394854 1.32247,0 2.39467,1.072026 2.39467,2.394854 z"
           i:knockout="Off" />
        <path
           style="fill:#dcdcdc;fill-opacity:1;stroke:#000000;stroke-width:0.02;stroke-miterlimit:4.0370369;stroke-dasharray:none;stroke-opacity:1"
           inkscape:connector-curvature="0"
           id="path6296"
           d="m 95.22187,73.576441 c 0,1.322476 -1.0722,2.394502 -2.39467,2.394502 -1.32247,0 -2.39467,-1.072202 -2.39467,-2.394502 0,-1.322828 1.0722,-2.394854 2.39467,-2.394854 1.32247,0 2.39467,1.072026 2.39467,2.394854 z"
           i:knockout="Off" />
        <path
           i:knockout="Off"
           d="m 103.20093,73.576441 c 0,1.322476 -1.0722,2.394502 -2.39467,2.394502 -1.32247,0 -2.39467,-1.072202 -2.39467,-2.394502 0,-1.322828 1.0722,-2.394854 2.39467,-2.394854 1.32247,0 2.39467,1.072026 2.39467,2.394854 z"
           id="path6298"
           inkscape:connector-curvature="0"
           style="fill:#dcdcdc;fill-opacity:1;stroke:#000000;stroke-width:0.02;stroke-miterlimit:4.0370369;stroke-dasharray:none;stroke-opacity:1" />
        <path
           i:knockout="Off"
           d="m 111.17998,73.576441 c 0,1.322476 -1.0722,2.394502 -2.39467,2.394502 -1.32247,0 -2.39467,-1.072202 -2.39467,-2.394502 0,-1.322828 1.0722,-2.394854 2.39467,-2.394854 1.32247,0 2.39467,1.072026 2.39467,2.394854 z"
           id="path6300"
           inkscape:connector-curvature="0"
           style="fill:#dcdcdc;fill-opacity:1;stroke:#000000;stroke-width:0.02;stroke-miterlimit:4.0370369;stroke-dasharray:none;stroke-opacity:1" />
        <path
           style="fill:#dcdcdc;fill-opacity:1;stroke:#000000;stroke-width:0.02;stroke-miterlimit:4.0370369;stroke-dasharray:none;stroke-opacity:1"
           inkscape:connector-curvature="0"
           id="path6302"
           d="m 119.15904,73.576441 c 0,1.322476 -1.0722,2.394502 -2.39467,2.394502 -1.32247,0 -2.39467,-1.072202 -2.39467,-2.394502 0,-1.322828 1.0722,-2.394854 2.39467,-2.394854 1.32247,0 2.39467,1.072026 2.39467,2.394854 z"
           i:knockout="Off" />
        <path
           i:knockout="Off"
           d="m 127.1381,73.576441 c 0,1.322476 -1.0722,2.394502 -2.39467,2.394502 -1.32247,0 -2.39467,-1.072202 -2.39467,-2.394502 0,-1.322828 1.0722,-2.394854 2.39467,-2.394854 1.32247,0 2.39467,1.072026 2.39467,2.394854 z"
           id="path6304"
           inkscape:connector-curvature="0"
           style="fill:#dcdcdc;fill-opacity:1;stroke:#000000;stroke-width:0.02;stroke-miterlimit:4.0370369;stroke-dasharray:none;stroke-opacity:1" />
        <path
           style="fill:#dcdcdc;fill-opacity:1;stroke:#000000;stroke-width:0.02;stroke-miterlimit:4.0370369;stroke-dasharray:none;stroke-opacity:1"
           inkscape:connector-curvature="0"
           id="path6306"
           d="m 135.11716,73.576441 c 0,1.322476 -1.0722,2.394502 -2.39467,2.394502 -1.32247,0 -2.39467,-1.072202 -2.39467,-2.394502 0,-1.322828 1.0722,-2.394854 2.39467,-2.394854 1.32247,0 2.39467,1.072026 2.39467,2.394854 z"
           i:knockout="Off" />
        <path
           style="fill:#dcdcdc;fill-opacity:1;stroke:#000000;stroke-width:0.02;stroke-miterlimit:4.0370369;stroke-dasharray:none;stroke-opacity:1"
           inkscape:connector-curvature="0"
           id="path6308"
           d="m 143.09621,73.576441 c 0,1.322476 -1.0722,2.394502 -2.39467,2.394502 -1.32247,0 -2.39467,-1.072202 -2.39467,-2.394502 0,-1.322828 1.0722,-2.394854 2.39467,-2.394854 1.32247,0 2.39467,1.072026 2.39467,2.394854 z"
           i:knockout="Off" />
      </g>
    </g>
  </g>
  <g
     style="display:inline"
     transform="translate(0,-715.03941)"
     id="g4276"
     inkscape:groupmode="layer"
     inkscape:label="Layer 1">
    <path
       inkscape:connector-curvature="0"
       d="m 177.78456,900.57465 0.081,-0.004 0.1513,-0.0687 0.059,-0.0663 c 0.3388,-0.37375 0.585,-0.7025 0.7813,-1.0475 0.3687,0.24875 0.7687,0.45625 1.2375,0.6375 l 0.1637,0 0.082,-0.0338 0.115,-0.1125 0.036,-0.0712 c 0.1912,-0.385 0.3425,-0.8075 0.4425,-1.235 0.3925,0.1225 0.8462,0.205 1.3862,0.23875 l 0.1413,-0.0488 0.059,-0.0437 0.086,-0.13875 0.014,-0.0888 c 0.074,-0.49 0.089,-0.95125 0.035,-1.31 l 0.054,0 c 0.39,0 0.805,-0.0488 1.36,-0.17625 l 0.1287,-0.095 0.046,-0.0712 0.034,-0.15375 -0.011,-0.0775 c -0.069,-0.4475 -0.1788,-0.8725 -0.335,-1.2675 0.3962,-0.1225 0.8012,-0.3025 1.2837,-0.58375 l 0.087,-0.12375 0.025,-0.0788 -0.013,-0.16125 -0.037,-0.0725 c -0.1875,-0.40875 -0.4275,-0.78875 -0.6875,-1.11375 0.35,-0.23875 0.6875,-0.535 1.05,-0.9225 l 0.05,-0.15375 0,-0.0838 -0.05,-0.14625 -0.062,-0.0612 c -0.3125,-0.33875 -0.6375,-0.6275 -0.9887,-0.86125 0.2587,-0.3225 0.5012,-0.7225 0.7262,-1.20125 l 0.013,-0.15375 -0.025,-0.0762 -0.1,-0.12625 -0.075,-0.045 c -0.3925,-0.22625 -0.7962,-0.405 -1.1962,-0.52875 0.1562,-0.39375 0.2687,-0.8325 0.345,-1.3625 l -0.04,-0.15125 -0.041,-0.0638 -0.1312,-0.0925 -0.086,-0.02 c -0.4512,-0.1025 -0.8637,-0.15125 -1.2637,-0.15125 l -0.037,0 c 0.03,-0.43 0.01,-0.87125 -0.07,-1.40125 l -0.084,-0.13625 -0.064,-0.0525 -0.1538,-0.0462 -0.082,0.005 c -0.4462,0.0325 -0.8787,0.11 -1.2887,0.2375 -0.1,-0.425 -0.2513,-0.85 -0.4863,-1.32125 l -0.12,-0.1 -0.068,-0.0287 -0.1612,-0.003 -0.079,0.0312 c -0.4487,0.17375 -0.8662,0.3925 -1.1587,0.6175 -0.21,-0.36875 -0.4688,-0.715 -0.86,-1.13 l -0.1388,-0.0613 -0.074,-0.01 -0.1538,0.0438 -0.069,0.0562 c -0.3538,0.27875 -0.6613,0.58375 -0.935,0.92375 -0.3225,-0.29875 -0.6875,-0.5625 -1.14,-0.81625 l -0.1563,-0.0213 -0.075,0.0137 -0.135,0.0888 -0.051,0.0725 c -0.2775,0.415 -0.49,0.81875 -0.61,1.1625 -0.3938,-0.19 -0.82,-0.3375 -1.3288,-0.44875 l -0.16,0.0263 -0.071,0.0362 -0.1025,0.125 -0.027,0.0825 c -0.1288,0.425 -0.21,0.83 -0.2463,1.29 -0.2712,-0.0425 -0.5487,-0.0612 -0.8275,-0.0612 -0.1612,0 -0.325,0.008 -0.5737,0.0263 l -0.1413,0.0738 -0.056,0.0562 -0.059,0.15375 0,0.0825 c 0,0.455 0.044,0.89125 0.1363,1.30375 -0.415,0.0662 -0.8488,0.18375 -1.345,0.37625 l -0.12,0.1175 -0.034,0.08 -0.01,0.15375 0.023,0.0762 c 0.1313,0.4325 0.3125,0.85375 0.52,1.20875 -0.3862,0.1825 -0.7987,0.44625 -1.175,0.75625 l -0.077,0.13875 -0.015,0.0813 0.036,0.15625 0.047,0.0688 c 0.2512,0.375 0.5312,0.705 0.8487,1.0025 -0.3125,0.28875 -0.605,0.635 -0.9,1.0775 l -0.033,0.15625 0.015,0.0825 0.08,0.13375 0.064,0.05 c 0.3587,0.2925 0.7887,0.56125 1.1162,0.6875 -0.215,0.37125 -0.3987,0.79875 -0.5525,1.30875 l 0.015,0.15875 0.034,0.0738 0.1175,0.1075 0.079,0.0312 c 0.4075,0.16375 0.825,0.27875 1.2663,0.34625 -0.095,0.4125 -0.1413,0.8625 -0.1388,1.3925 l 0.064,0.15125 0.059,0.0612 0.1388,0.0625 0.078,0.007 c 0.1637,0.015 0.33,0.0225 0.4937,0.0225 0.2975,0 0.5963,-0.025 0.8225,-0.0712 0.033,0.43 0.115,0.8625 0.2738,1.3775 l 0.1075,0.12875 0.07,0.0412 0.1562,0.02 0.084,-0.0175 c 0.4612,-0.105 0.8862,-0.25125 1.235,-0.43875 0.1612,0.4075 0.3762,0.8075 0.6737,1.24 l 0.135,0.0875 0.082,0.02 0.1588,-0.025 0.071,-0.0412 c 0.4025,-0.22875 0.7438,-0.47875 1.0588,-0.77125 0.2887,0.35875 0.5912,0.65375 0.935,0.92 l 0.069,0.0538 0.1488,0.0462 z"
       style="fill:none;stroke:#0000ff;stroke-width:0.10629921;stroke-linecap:butt;stroke-linejoin:miter;stroke-miterlimit:4;stroke-dasharray:none;stroke-opacity:1"
       id="path4278" />
    <path
       inkscape:connector-curvature="0"
       id="path4289"
       d="m 149.35083,888.57135 3.51988,3.51987 -3.51994,3.51993 4.36149,4.3615 3.51994,-3.51994 3.51862,3.51862 4.36147,-4.36147 -3.51862,-3.51862 3.51861,-3.51861 -4.36149,-4.36149 -3.51861,3.51861 -3.51988,-3.51987 -4.36147,4.36147 z"
       style="display:inline;opacity:1;fill:none;fill-opacity:1;fill-rule:nonzero;stroke:#0000ff;stroke-width:0.10629921;stroke-linecap:round;stroke-miterlimit:4;stroke-dasharray:none;stroke-dashoffset:0;stroke-opacity:1" />
    <path
       style="display:inline;opacity:1;fill:none;fill-opacity:1;fill-rule:nonzero;stroke:#0000ff;stroke-width:0.10629921;stroke-linecap:round;stroke-miterlimit:4;stroke-dasharray:none;stroke-dashoffset:0;stroke-opacity:1"
       d="m 189.35097,888.57089 3.51987,3.51988 -3.51993,3.51993 4.36149,4.36149 3.51994,-3.51993 3.51862,3.51862 4.36147,-4.36147 -3.51862,-3.51862 3.5186,-3.51861 -4.36149,-4.36149 -3.51861,3.51861 -3.51987,-3.51988 -4.36147,4.36147 z"
       id="path4287"
       inkscape:connector-curvature="0" />
    <circle
       style="opacity:1;fill:none;fill-opacity:1;fill-rule:nonzero;stroke:#000000;stroke-width:0.10629921;stroke-linecap:round;stroke-miterlimit:4;stroke-dasharray:none;stroke-dashoffset:0;stroke-opacity:1"
       id="path4976"
       cx="177.2316"
       cy="892.09106"
       r="52.883858" />
  </g>
</svg>
