<?xml version="1.0" encoding="UTF-8" standalone="no"?>
<!-- Created with Inkscape (http://www.inkscape.org/) -->

<svg
   xmlns:i="http://ns.adobe.com/AdobeIllustrator/10.0/"
   xmlns:dc="http://purl.org/dc/elements/1.1/"
   xmlns:cc="http://creativecommons.org/ns#"
   xmlns:rdf="http://www.w3.org/1999/02/22-rdf-syntax-ns#"
   xmlns:svg="http://www.w3.org/2000/svg"
   xmlns="http://www.w3.org/2000/svg"
   xmlns:sodipodi="http://sodipodi.sourceforge.net/DTD/sodipodi-0.dtd"
   xmlns:inkscape="http://www.inkscape.org/namespaces/inkscape"
   width="100mm"
   height="100mm"
   id="svg2"
   version="1.1"
   inkscape:version="0.91 r13725"
   sodipodi:docname="LEGO Servo Gear Plus v01.svg">
  <defs
     id="defs4">
    <clipPath
       id="clipPath3077"
       clipPathUnits="userSpaceOnUse">
      <path
         inkscape:connector-curvature="0"
         id="path3079"
         d="m 0.06,803.615 1647.57,0 0,-803.555 -1647.57,0 0,803.555 z" />
    </clipPath>
    <clipPath
       id="clipPath3083"
       clipPathUnits="userSpaceOnUse">
      <path
         inkscape:connector-curvature="0"
         id="path3085"
         d="m 0,0 1648,0 0,804 L 0,804 0,0 Z" />
    </clipPath>
  </defs>
  <sodipodi:namedview
     id="base"
     pagecolor="#ffffff"
     bordercolor="#666666"
     borderopacity="1.0"
     inkscape:pageopacity="0.0"
     inkscape:pageshadow="2"
     inkscape:zoom="3.75"
     inkscape:cx="177.16535"
     inkscape:cy="177.16536"
     inkscape:document-units="mm"
     inkscape:current-layer="layer1"
     showgrid="false"
     units="mm"
     inkscape:window-width="1440"
     inkscape:window-height="851"
     inkscape:window-x="0"
     inkscape:window-y="1"
     inkscape:window-maximized="1">
    <inkscape:grid
       type="xygrid"
       id="grid3002"
       empspacing="6"
       visible="true"
       enabled="true"
       snapvisiblegridlinesonly="true"
       units="in"
       spacingx="1in"
       spacingy="1in"
       dotted="false" />
  </sodipodi:namedview>
  <metadata
     id="metadata7">
    <rdf:RDF>
      <cc:Work
         rdf:about="">
        <dc:format>image/svg+xml</dc:format>
        <dc:type
           rdf:resource="http://purl.org/dc/dcmitype/StillImage" />
        <dc:title></dc:title>
      </cc:Work>
    </rdf:RDF>
  </metadata>
  <g
     transform="translate(0,-715.03941)"
     id="g4185"
     inkscape:groupmode="layer"
     inkscape:label="Layer 0"
     style="display:none">
    <g
       style="display:inline"
       id="g6474"
       transform="matrix(3.5433075,0,0,3.5433068,-221.73457,782.23725)">
      <rect
         y="3.2002842"
         x="44.838417"
         height="63.589996"
         width="127.50999"
         id="rect6342"
         style="opacity:1;fill:#c8c8c8;fill-opacity:1;fill-rule:nonzero;stroke:#000000;stroke-width:0.02;stroke-linecap:round;stroke-miterlimit:4.0370369;stroke-dasharray:none;stroke-dashoffset:0;stroke-opacity:1" />
      <g
         transform="translate(27.734974,-10.63174)"
         id="g6344">
        <path
           i:knockout="Off"
           d="m 23.41001,17.677603 c 0,1.322829 -1.0722,2.394855 -2.39468,2.394855 -1.32247,0 -2.39467,-1.072026 -2.39467,-2.394855 0,-1.322475 1.0722,-2.394501 2.39467,-2.394501 1.32248,0 2.39468,1.072202 2.39468,2.394501 z"
           id="path35"
           inkscape:connector-curvature="0"
           style="fill:#dcdcdc;fill-opacity:1;stroke:#000000;stroke-width:0.02;stroke-miterlimit:4.0370369;stroke-dasharray:none;stroke-opacity:1" />
        <path
           i:knockout="Off"
           d="m 31.39254,17.677603 c 0,1.322829 -1.0722,2.394855 -2.39467,2.394855 -1.32247,0 -2.39467,-1.072202 -2.39467,-2.394855 0,-1.322475 1.0722,-2.394501 2.39467,-2.394501 1.32247,0 2.39467,1.072202 2.39467,2.394501 z"
           id="path37"
           inkscape:connector-curvature="0"
           style="fill:#dcdcdc;fill-opacity:1;stroke:#000000;stroke-width:0.02;stroke-miterlimit:4.0370369;stroke-dasharray:none;stroke-opacity:1" />
        <path
           i:knockout="Off"
           d="m 23.41001,25.660333 c 0,1.322476 -1.0722,2.394502 -2.39468,2.394502 -1.32247,0 -2.39467,-1.072202 -2.39467,-2.394502 0,-1.322828 1.0722,-2.394854 2.39467,-2.394854 1.32248,0 2.39468,1.072026 2.39468,2.394854 z"
           id="path39"
           inkscape:connector-curvature="0"
           style="fill:#dcdcdc;fill-opacity:1;stroke:#000000;stroke-width:0.02;stroke-miterlimit:4.0370369;stroke-dasharray:none;stroke-opacity:1" />
        <path
           i:knockout="Off"
           d="m 31.39254,25.660333 c 0,1.322476 -1.0722,2.394502 -2.39467,2.394502 -1.32247,0 -2.39467,-1.072202 -2.39467,-2.394502 0,-1.322828 1.0722,-2.394854 2.39467,-2.394854 1.32247,0 2.39467,1.072026 2.39467,2.394854 z"
           id="path41"
           inkscape:connector-curvature="0"
           style="fill:#dcdcdc;fill-opacity:1;stroke:#000000;stroke-width:0.02;stroke-miterlimit:4.0370369;stroke-dasharray:none;stroke-opacity:1" />
        <path
           style="fill:#dcdcdc;fill-opacity:1;stroke:#000000;stroke-width:0.02;stroke-miterlimit:4.0370369;stroke-dasharray:none;stroke-opacity:1"
           inkscape:connector-curvature="0"
           id="path5382"
           d="m 39.3716,17.677603 c 0,1.322829 -1.0722,2.394855 -2.39467,2.394855 -1.32247,0 -2.39467,-1.072202 -2.39467,-2.394855 0,-1.322475 1.0722,-2.394501 2.39467,-2.394501 1.32247,0 2.39467,1.072202 2.39467,2.394501 z"
           i:knockout="Off" />
        <path
           style="fill:#dcdcdc;fill-opacity:1;stroke:#000000;stroke-width:0.02;stroke-miterlimit:4.0370369;stroke-dasharray:none;stroke-opacity:1"
           inkscape:connector-curvature="0"
           id="path5386"
           d="m 39.3716,25.660333 c 0,1.322476 -1.0722,2.394502 -2.39467,2.394502 -1.32247,0 -2.39467,-1.072202 -2.39467,-2.394502 0,-1.322828 1.0722,-2.394854 2.39467,-2.394854 1.32247,0 2.39467,1.072026 2.39467,2.394854 z"
           i:knockout="Off" />
        <path
           style="fill:#dcdcdc;fill-opacity:1;stroke:#000000;stroke-width:0.02;stroke-miterlimit:4.0370369;stroke-dasharray:none;stroke-opacity:1"
           inkscape:connector-curvature="0"
           id="path5408"
           d="m 47.35065,17.677603 c 0,1.322829 -1.0722,2.394855 -2.39467,2.394855 -1.32247,0 -2.39467,-1.072202 -2.39467,-2.394855 0,-1.322475 1.0722,-2.394501 2.39467,-2.394501 1.32247,0 2.39467,1.072202 2.39467,2.394501 z"
           i:knockout="Off" />
        <path
           style="fill:#dcdcdc;fill-opacity:1;stroke:#000000;stroke-width:0.02;stroke-miterlimit:4.0370369;stroke-dasharray:none;stroke-opacity:1"
           inkscape:connector-curvature="0"
           id="path5412"
           d="m 47.35065,25.660333 c 0,1.322476 -1.0722,2.394502 -2.39467,2.394502 -1.32247,0 -2.39467,-1.072202 -2.39467,-2.394502 0,-1.322828 1.0722,-2.394854 2.39467,-2.394854 1.32247,0 2.39467,1.072026 2.39467,2.394854 z"
           i:knockout="Off" />
        <path
           i:knockout="Off"
           d="m 55.32971,17.677603 c 0,1.322829 -1.0722,2.394855 -2.39467,2.394855 -1.32247,0 -2.39467,-1.072202 -2.39467,-2.394855 0,-1.322475 1.0722,-2.394501 2.39467,-2.394501 1.32247,0 2.39467,1.072202 2.39467,2.394501 z"
           id="path5414"
           inkscape:connector-curvature="0"
           style="fill:#dcdcdc;fill-opacity:1;stroke:#000000;stroke-width:0.02;stroke-miterlimit:4.0370369;stroke-dasharray:none;stroke-opacity:1" />
        <path
           i:knockout="Off"
           d="m 55.32971,25.660333 c 0,1.322476 -1.0722,2.394502 -2.39467,2.394502 -1.32247,0 -2.39467,-1.072202 -2.39467,-2.394502 0,-1.322828 1.0722,-2.394854 2.39467,-2.394854 1.32247,0 2.39467,1.072026 2.39467,2.394854 z"
           id="path5416"
           inkscape:connector-curvature="0"
           style="fill:#dcdcdc;fill-opacity:1;stroke:#000000;stroke-width:0.02;stroke-miterlimit:4.0370369;stroke-dasharray:none;stroke-opacity:1" />
        <path
           style="fill:#dcdcdc;fill-opacity:1;stroke:#000000;stroke-width:0.02;stroke-miterlimit:4.0370369;stroke-dasharray:none;stroke-opacity:1"
           inkscape:connector-curvature="0"
           id="path5446"
           d="m 63.30877,17.677603 c 0,1.322829 -1.0722,2.394855 -2.39467,2.394855 -1.32247,0 -2.39467,-1.072202 -2.39467,-2.394855 0,-1.322475 1.0722,-2.394501 2.39467,-2.394501 1.32247,0 2.39467,1.072202 2.39467,2.394501 z"
           i:knockout="Off" />
        <path
           style="fill:#dcdcdc;fill-opacity:1;stroke:#000000;stroke-width:0.02;stroke-miterlimit:4.0370369;stroke-dasharray:none;stroke-opacity:1"
           inkscape:connector-curvature="0"
           id="path5450"
           d="m 63.30877,25.660333 c 0,1.322476 -1.0722,2.394502 -2.39467,2.394502 -1.32247,0 -2.39467,-1.072202 -2.39467,-2.394502 0,-1.322828 1.0722,-2.394854 2.39467,-2.394854 1.32247,0 2.39467,1.072026 2.39467,2.394854 z"
           i:knockout="Off" />
        <path
           i:knockout="Off"
           d="m 71.28783,17.677603 c 0,1.322829 -1.0722,2.394855 -2.39467,2.394855 -1.32247,0 -2.39467,-1.072202 -2.39467,-2.394855 0,-1.322475 1.0722,-2.394501 2.39467,-2.394501 1.32247,0 2.39467,1.072202 2.39467,2.394501 z"
           id="path5452"
           inkscape:connector-curvature="0"
           style="fill:#dcdcdc;fill-opacity:1;stroke:#000000;stroke-width:0.02;stroke-miterlimit:4.0370369;stroke-dasharray:none;stroke-opacity:1" />
        <path
           i:knockout="Off"
           d="m 71.28783,25.660333 c 0,1.322476 -1.0722,2.394502 -2.39467,2.394502 -1.32247,0 -2.39467,-1.072202 -2.39467,-2.394502 0,-1.322828 1.0722,-2.394854 2.39467,-2.394854 1.32247,0 2.39467,1.072026 2.39467,2.394854 z"
           id="path5454"
           inkscape:connector-curvature="0"
           style="fill:#dcdcdc;fill-opacity:1;stroke:#000000;stroke-width:0.02;stroke-miterlimit:4.0370369;stroke-dasharray:none;stroke-opacity:1" />
        <path
           i:knockout="Off"
           d="m 79.26688,17.677603 c 0,1.322829 -1.0722,2.394855 -2.39467,2.394855 -1.32247,0 -2.39467,-1.072202 -2.39467,-2.394855 0,-1.322475 1.0722,-2.394501 2.39467,-2.394501 1.32247,0 2.39467,1.072202 2.39467,2.394501 z"
           id="path5456"
           inkscape:connector-curvature="0"
           style="fill:#dcdcdc;fill-opacity:1;stroke:#000000;stroke-width:0.02;stroke-miterlimit:4.0370369;stroke-dasharray:none;stroke-opacity:1" />
        <path
           i:knockout="Off"
           d="m 79.26688,25.660333 c 0,1.322476 -1.0722,2.394502 -2.39467,2.394502 -1.32247,0 -2.39467,-1.072202 -2.39467,-2.394502 0,-1.322828 1.0722,-2.394854 2.39467,-2.394854 1.32247,0 2.39467,1.072026 2.39467,2.394854 z"
           id="path5458"
           inkscape:connector-curvature="0"
           style="fill:#dcdcdc;fill-opacity:1;stroke:#000000;stroke-width:0.02;stroke-miterlimit:4.0370369;stroke-dasharray:none;stroke-opacity:1" />
        <path
           style="fill:#dcdcdc;fill-opacity:1;stroke:#000000;stroke-width:0.02;stroke-miterlimit:4.0370369;stroke-dasharray:none;stroke-opacity:1"
           inkscape:connector-curvature="0"
           id="path5460"
           d="m 87.24594,17.677603 c 0,1.322829 -1.0722,2.394855 -2.39467,2.394855 -1.32247,0 -2.39467,-1.072202 -2.39467,-2.394855 0,-1.322475 1.0722,-2.394501 2.39467,-2.394501 1.32247,0 2.39467,1.072202 2.39467,2.394501 z"
           i:knockout="Off" />
        <path
           style="fill:#dcdcdc;fill-opacity:1;stroke:#000000;stroke-width:0.02;stroke-miterlimit:4.0370369;stroke-dasharray:none;stroke-opacity:1"
           inkscape:connector-curvature="0"
           id="path5462"
           d="m 87.24594,25.660333 c 0,1.322476 -1.0722,2.394502 -2.39467,2.394502 -1.32247,0 -2.39467,-1.072202 -2.39467,-2.394502 0,-1.322828 1.0722,-2.394854 2.39467,-2.394854 1.32247,0 2.39467,1.072026 2.39467,2.394854 z"
           i:knockout="Off" />
        <path
           style="fill:#dcdcdc;fill-opacity:1;stroke:#000000;stroke-width:0.02;stroke-miterlimit:4.0370369;stroke-dasharray:none;stroke-opacity:1"
           inkscape:connector-curvature="0"
           id="path5508"
           d="m 95.22187,17.677603 c 0,1.322829 -1.0722,2.394855 -2.39467,2.394855 -1.32247,0 -2.39467,-1.072202 -2.39467,-2.394855 0,-1.322475 1.0722,-2.394501 2.39467,-2.394501 1.32247,0 2.39467,1.072202 2.39467,2.394501 z"
           i:knockout="Off" />
        <path
           style="fill:#dcdcdc;fill-opacity:1;stroke:#000000;stroke-width:0.02;stroke-miterlimit:4.0370369;stroke-dasharray:none;stroke-opacity:1"
           inkscape:connector-curvature="0"
           id="path5512"
           d="m 95.22187,25.660333 c 0,1.322476 -1.0722,2.394502 -2.39467,2.394502 -1.32247,0 -2.39467,-1.072202 -2.39467,-2.394502 0,-1.322828 1.0722,-2.394854 2.39467,-2.394854 1.32247,0 2.39467,1.072026 2.39467,2.394854 z"
           i:knockout="Off" />
        <path
           i:knockout="Off"
           d="m 103.20093,17.677603 c 0,1.322829 -1.0722,2.394855 -2.39467,2.394855 -1.32247,0 -2.39467,-1.072202 -2.39467,-2.394855 0,-1.322475 1.0722,-2.394501 2.39467,-2.394501 1.32247,0 2.39467,1.072202 2.39467,2.394501 z"
           id="path5514"
           inkscape:connector-curvature="0"
           style="fill:#dcdcdc;fill-opacity:1;stroke:#000000;stroke-width:0.02;stroke-miterlimit:4.0370369;stroke-dasharray:none;stroke-opacity:1" />
        <path
           i:knockout="Off"
           d="m 103.20093,25.660333 c 0,1.322476 -1.0722,2.394502 -2.39467,2.394502 -1.32247,0 -2.39467,-1.072202 -2.39467,-2.394502 0,-1.322828 1.0722,-2.394854 2.39467,-2.394854 1.32247,0 2.39467,1.072026 2.39467,2.394854 z"
           id="path5516"
           inkscape:connector-curvature="0"
           style="fill:#dcdcdc;fill-opacity:1;stroke:#000000;stroke-width:0.02;stroke-miterlimit:4.0370369;stroke-dasharray:none;stroke-opacity:1" />
        <path
           i:knockout="Off"
           d="m 111.17998,17.677603 c 0,1.322829 -1.0722,2.394855 -2.39467,2.394855 -1.32247,0 -2.39467,-1.072202 -2.39467,-2.394855 0,-1.322475 1.0722,-2.394501 2.39467,-2.394501 1.32247,0 2.39467,1.072202 2.39467,2.394501 z"
           id="path5518"
           inkscape:connector-curvature="0"
           style="fill:#dcdcdc;fill-opacity:1;stroke:#000000;stroke-width:0.02;stroke-miterlimit:4.0370369;stroke-dasharray:none;stroke-opacity:1" />
        <path
           i:knockout="Off"
           d="m 111.17998,25.660333 c 0,1.322476 -1.0722,2.394502 -2.39467,2.394502 -1.32247,0 -2.39467,-1.072202 -2.39467,-2.394502 0,-1.322828 1.0722,-2.394854 2.39467,-2.394854 1.32247,0 2.39467,1.072026 2.39467,2.394854 z"
           id="path5520"
           inkscape:connector-curvature="0"
           style="fill:#dcdcdc;fill-opacity:1;stroke:#000000;stroke-width:0.02;stroke-miterlimit:4.0370369;stroke-dasharray:none;stroke-opacity:1" />
        <path
           style="fill:#dcdcdc;fill-opacity:1;stroke:#000000;stroke-width:0.02;stroke-miterlimit:4.0370369;stroke-dasharray:none;stroke-opacity:1"
           inkscape:connector-curvature="0"
           id="path5522"
           d="m 119.15904,17.677603 c 0,1.322829 -1.0722,2.394855 -2.39467,2.394855 -1.32247,0 -2.39467,-1.072202 -2.39467,-2.394855 0,-1.322475 1.0722,-2.394501 2.39467,-2.394501 1.32247,0 2.39467,1.072202 2.39467,2.394501 z"
           i:knockout="Off" />
        <path
           style="fill:#dcdcdc;fill-opacity:1;stroke:#000000;stroke-width:0.02;stroke-miterlimit:4.0370369;stroke-dasharray:none;stroke-opacity:1"
           inkscape:connector-curvature="0"
           id="path5524"
           d="m 119.15904,25.660333 c 0,1.322476 -1.0722,2.394502 -2.39467,2.394502 -1.32247,0 -2.39467,-1.072202 -2.39467,-2.394502 0,-1.322828 1.0722,-2.394854 2.39467,-2.394854 1.32247,0 2.39467,1.072026 2.39467,2.394854 z"
           i:knockout="Off" />
        <path
           i:knockout="Off"
           d="m 127.1381,17.677603 c 0,1.322829 -1.0722,2.394855 -2.39467,2.394855 -1.32247,0 -2.39467,-1.072202 -2.39467,-2.394855 0,-1.322475 1.0722,-2.394501 2.39467,-2.394501 1.32247,0 2.39467,1.072202 2.39467,2.394501 z"
           id="path5526"
           inkscape:connector-curvature="0"
           style="fill:#dcdcdc;fill-opacity:1;stroke:#000000;stroke-width:0.02;stroke-miterlimit:4.0370369;stroke-dasharray:none;stroke-opacity:1" />
        <path
           i:knockout="Off"
           d="m 127.1381,25.660333 c 0,1.322476 -1.0722,2.394502 -2.39467,2.394502 -1.32247,0 -2.39467,-1.072202 -2.39467,-2.394502 0,-1.322828 1.0722,-2.394854 2.39467,-2.394854 1.32247,0 2.39467,1.072026 2.39467,2.394854 z"
           id="path5528"
           inkscape:connector-curvature="0"
           style="fill:#dcdcdc;fill-opacity:1;stroke:#000000;stroke-width:0.02;stroke-miterlimit:4.0370369;stroke-dasharray:none;stroke-opacity:1" />
        <path
           style="fill:#dcdcdc;fill-opacity:1;stroke:#000000;stroke-width:0.02;stroke-miterlimit:4.0370369;stroke-dasharray:none;stroke-opacity:1"
           inkscape:connector-curvature="0"
           id="path5530"
           d="m 135.11716,17.677603 c 0,1.322829 -1.0722,2.394855 -2.39467,2.394855 -1.32247,0 -2.39467,-1.072202 -2.39467,-2.394855 0,-1.322475 1.0722,-2.394501 2.39467,-2.394501 1.32247,0 2.39467,1.072202 2.39467,2.394501 z"
           i:knockout="Off" />
        <path
           style="fill:#dcdcdc;fill-opacity:1;stroke:#000000;stroke-width:0.02;stroke-miterlimit:4.0370369;stroke-dasharray:none;stroke-opacity:1"
           inkscape:connector-curvature="0"
           id="path5532"
           d="m 135.11716,25.660333 c 0,1.322476 -1.0722,2.394502 -2.39467,2.394502 -1.32247,0 -2.39467,-1.072202 -2.39467,-2.394502 0,-1.322828 1.0722,-2.394854 2.39467,-2.394854 1.32247,0 2.39467,1.072026 2.39467,2.394854 z"
           i:knockout="Off" />
        <path
           style="fill:#dcdcdc;fill-opacity:1;stroke:#000000;stroke-width:0.02;stroke-miterlimit:4.0370369;stroke-dasharray:none;stroke-opacity:1"
           inkscape:connector-curvature="0"
           id="path5534"
           d="m 143.09621,17.677603 c 0,1.322829 -1.0722,2.394855 -2.39467,2.394855 -1.32247,0 -2.39467,-1.072202 -2.39467,-2.394855 0,-1.322475 1.0722,-2.394501 2.39467,-2.394501 1.32247,0 2.39467,1.072202 2.39467,2.394501 z"
           i:knockout="Off" />
        <path
           style="fill:#dcdcdc;fill-opacity:1;stroke:#000000;stroke-width:0.02;stroke-miterlimit:4.0370369;stroke-dasharray:none;stroke-opacity:1"
           inkscape:connector-curvature="0"
           id="path5536"
           d="m 143.09621,25.660333 c 0,1.322476 -1.0722,2.394502 -2.39467,2.394502 -1.32247,0 -2.39467,-1.072202 -2.39467,-2.394502 0,-1.322828 1.0722,-2.394854 2.39467,-2.394854 1.32247,0 2.39467,1.072026 2.39467,2.394854 z"
           i:knockout="Off" />
        <path
           style="fill:#dcdcdc;fill-opacity:1;stroke:#000000;stroke-width:0.02;stroke-miterlimit:4.0370369;stroke-dasharray:none;stroke-opacity:1"
           inkscape:connector-curvature="0"
           id="path6026"
           d="m 23.41001,33.654172 c 0,1.322476 -1.0722,2.394502 -2.39468,2.394502 -1.32247,0 -2.39467,-1.072202 -2.39467,-2.394502 0,-1.322828 1.0722,-2.394854 2.39467,-2.394854 1.32248,0 2.39468,1.072026 2.39468,2.394854 z"
           i:knockout="Off" />
        <path
           style="fill:#dcdcdc;fill-opacity:1;stroke:#000000;stroke-width:0.02;stroke-miterlimit:4.0370369;stroke-dasharray:none;stroke-opacity:1"
           inkscape:connector-curvature="0"
           id="path6028"
           d="m 31.39254,33.654172 c 0,1.322476 -1.0722,2.394502 -2.39467,2.394502 -1.32247,0 -2.39467,-1.072202 -2.39467,-2.394502 0,-1.322828 1.0722,-2.394854 2.39467,-2.394854 1.32247,0 2.39467,1.072026 2.39467,2.394854 z"
           i:knockout="Off" />
        <path
           i:knockout="Off"
           d="m 39.3716,33.654172 c 0,1.322476 -1.0722,2.394502 -2.39467,2.394502 -1.32247,0 -2.39467,-1.072202 -2.39467,-2.394502 0,-1.322828 1.0722,-2.394854 2.39467,-2.394854 1.32247,0 2.39467,1.072026 2.39467,2.394854 z"
           id="path6032"
           inkscape:connector-curvature="0"
           style="fill:#dcdcdc;fill-opacity:1;stroke:#000000;stroke-width:0.02;stroke-miterlimit:4.0370369;stroke-dasharray:none;stroke-opacity:1" />
        <path
           i:knockout="Off"
           d="m 47.35065,33.654172 c 0,1.322476 -1.0722,2.394502 -2.39467,2.394502 -1.32247,0 -2.39467,-1.072202 -2.39467,-2.394502 0,-1.322828 1.0722,-2.394854 2.39467,-2.394854 1.32247,0 2.39467,1.072026 2.39467,2.394854 z"
           id="path6036"
           inkscape:connector-curvature="0"
           style="fill:#dcdcdc;fill-opacity:1;stroke:#000000;stroke-width:0.02;stroke-miterlimit:4.0370369;stroke-dasharray:none;stroke-opacity:1" />
        <path
           style="fill:#dcdcdc;fill-opacity:1;stroke:#000000;stroke-width:0.02;stroke-miterlimit:4.0370369;stroke-dasharray:none;stroke-opacity:1"
           inkscape:connector-curvature="0"
           id="path6040"
           d="m 55.32971,33.654172 c 0,1.322476 -1.0722,2.394502 -2.39467,2.394502 -1.32247,0 -2.39467,-1.072202 -2.39467,-2.394502 0,-1.322828 1.0722,-2.394854 2.39467,-2.394854 1.32247,0 2.39467,1.072026 2.39467,2.394854 z"
           i:knockout="Off" />
        <path
           i:knockout="Off"
           d="m 63.30877,33.654172 c 0,1.322476 -1.0722,2.394502 -2.39467,2.394502 -1.32247,0 -2.39467,-1.072202 -2.39467,-2.394502 0,-1.322828 1.0722,-2.394854 2.39467,-2.394854 1.32247,0 2.39467,1.072026 2.39467,2.394854 z"
           id="path6044"
           inkscape:connector-curvature="0"
           style="fill:#dcdcdc;fill-opacity:1;stroke:#000000;stroke-width:0.02;stroke-miterlimit:4.0370369;stroke-dasharray:none;stroke-opacity:1" />
        <path
           style="fill:#dcdcdc;fill-opacity:1;stroke:#000000;stroke-width:0.02;stroke-miterlimit:4.0370369;stroke-dasharray:none;stroke-opacity:1"
           inkscape:connector-curvature="0"
           id="path6048"
           d="m 71.28783,33.654172 c 0,1.322476 -1.0722,2.394502 -2.39467,2.394502 -1.32247,0 -2.39467,-1.072202 -2.39467,-2.394502 0,-1.322828 1.0722,-2.394854 2.39467,-2.394854 1.32247,0 2.39467,1.072026 2.39467,2.394854 z"
           i:knockout="Off" />
        <path
           style="fill:#dcdcdc;fill-opacity:1;stroke:#000000;stroke-width:0.02;stroke-miterlimit:4.0370369;stroke-dasharray:none;stroke-opacity:1"
           inkscape:connector-curvature="0"
           id="path6052"
           d="m 79.26688,33.654172 c 0,1.322476 -1.0722,2.394502 -2.39467,2.394502 -1.32247,0 -2.39467,-1.072202 -2.39467,-2.394502 0,-1.322828 1.0722,-2.394854 2.39467,-2.394854 1.32247,0 2.39467,1.072026 2.39467,2.394854 z"
           i:knockout="Off" />
        <path
           i:knockout="Off"
           d="m 87.24594,33.654172 c 0,1.322476 -1.0722,2.394502 -2.39467,2.394502 -1.32247,0 -2.39467,-1.072202 -2.39467,-2.394502 0,-1.322828 1.0722,-2.394854 2.39467,-2.394854 1.32247,0 2.39467,1.072026 2.39467,2.394854 z"
           id="path6056"
           inkscape:connector-curvature="0"
           style="fill:#dcdcdc;fill-opacity:1;stroke:#000000;stroke-width:0.02;stroke-miterlimit:4.0370369;stroke-dasharray:none;stroke-opacity:1" />
        <path
           i:knockout="Off"
           d="m 95.22187,33.654172 c 0,1.322476 -1.0722,2.394502 -2.39467,2.394502 -1.32247,0 -2.39467,-1.072202 -2.39467,-2.394502 0,-1.322828 1.0722,-2.394854 2.39467,-2.394854 1.32247,0 2.39467,1.072026 2.39467,2.394854 z"
           id="path6060"
           inkscape:connector-curvature="0"
           style="fill:#dcdcdc;fill-opacity:1;stroke:#000000;stroke-width:0.02;stroke-miterlimit:4.0370369;stroke-dasharray:none;stroke-opacity:1" />
        <path
           style="fill:#dcdcdc;fill-opacity:1;stroke:#000000;stroke-width:0.02;stroke-miterlimit:4.0370369;stroke-dasharray:none;stroke-opacity:1"
           inkscape:connector-curvature="0"
           id="path6064"
           d="m 103.20093,33.654172 c 0,1.322476 -1.0722,2.394502 -2.39467,2.394502 -1.32247,0 -2.39467,-1.072202 -2.39467,-2.394502 0,-1.322828 1.0722,-2.394854 2.39467,-2.394854 1.32247,0 2.39467,1.072026 2.39467,2.394854 z"
           i:knockout="Off" />
        <path
           style="fill:#dcdcdc;fill-opacity:1;stroke:#000000;stroke-width:0.02;stroke-miterlimit:4.0370369;stroke-dasharray:none;stroke-opacity:1"
           inkscape:connector-curvature="0"
           id="path6068"
           d="m 111.17998,33.654172 c 0,1.322476 -1.0722,2.394502 -2.39467,2.394502 -1.32247,0 -2.39467,-1.072202 -2.39467,-2.394502 0,-1.322828 1.0722,-2.394854 2.39467,-2.394854 1.32247,0 2.39467,1.072026 2.39467,2.394854 z"
           i:knockout="Off" />
        <path
           i:knockout="Off"
           d="m 119.15904,33.654172 c 0,1.322476 -1.0722,2.394502 -2.39467,2.394502 -1.32247,0 -2.39467,-1.072202 -2.39467,-2.394502 0,-1.322828 1.0722,-2.394854 2.39467,-2.394854 1.32247,0 2.39467,1.072026 2.39467,2.394854 z"
           id="path6072"
           inkscape:connector-curvature="0"
           style="fill:#dcdcdc;fill-opacity:1;stroke:#000000;stroke-width:0.02;stroke-miterlimit:4.0370369;stroke-dasharray:none;stroke-opacity:1" />
        <path
           style="fill:#dcdcdc;fill-opacity:1;stroke:#000000;stroke-width:0.02;stroke-miterlimit:4.0370369;stroke-dasharray:none;stroke-opacity:1"
           inkscape:connector-curvature="0"
           id="path6076"
           d="m 127.1381,33.654172 c 0,1.322476 -1.0722,2.394502 -2.39467,2.394502 -1.32247,0 -2.39467,-1.072202 -2.39467,-2.394502 0,-1.322828 1.0722,-2.394854 2.39467,-2.394854 1.32247,0 2.39467,1.072026 2.39467,2.394854 z"
           i:knockout="Off" />
        <path
           i:knockout="Off"
           d="m 135.11716,33.654172 c 0,1.322476 -1.0722,2.394502 -2.39467,2.394502 -1.32247,0 -2.39467,-1.072202 -2.39467,-2.394502 0,-1.322828 1.0722,-2.394854 2.39467,-2.394854 1.32247,0 2.39467,1.072026 2.39467,2.394854 z"
           id="path6080"
           inkscape:connector-curvature="0"
           style="fill:#dcdcdc;fill-opacity:1;stroke:#000000;stroke-width:0.02;stroke-miterlimit:4.0370369;stroke-dasharray:none;stroke-opacity:1" />
        <path
           i:knockout="Off"
           d="m 143.09621,33.654172 c 0,1.322476 -1.0722,2.394502 -2.39467,2.394502 -1.32247,0 -2.39467,-1.072202 -2.39467,-2.394502 0,-1.322828 1.0722,-2.394854 2.39467,-2.394854 1.32247,0 2.39467,1.072026 2.39467,2.394854 z"
           id="path6084"
           inkscape:connector-curvature="0"
           style="fill:#dcdcdc;fill-opacity:1;stroke:#000000;stroke-width:0.02;stroke-miterlimit:4.0370369;stroke-dasharray:none;stroke-opacity:1" />
        <path
           style="fill:#dcdcdc;fill-opacity:1;stroke:#000000;stroke-width:0.02;stroke-miterlimit:4.0370369;stroke-dasharray:none;stroke-opacity:1"
           inkscape:connector-curvature="0"
           id="path6090"
           d="m 23.41001,41.637792 c 0,1.322476 -1.0722,2.394502 -2.39468,2.394502 -1.32247,0 -2.39467,-1.072202 -2.39467,-2.394502 0,-1.322828 1.0722,-2.394854 2.39467,-2.394854 1.32248,0 2.39468,1.072026 2.39468,2.394854 z"
           i:knockout="Off" />
        <path
           style="fill:#dcdcdc;fill-opacity:1;stroke:#000000;stroke-width:0.02;stroke-miterlimit:4.0370369;stroke-dasharray:none;stroke-opacity:1"
           inkscape:connector-curvature="0"
           id="path6092"
           d="m 31.39254,41.637792 c 0,1.322476 -1.0722,2.394502 -2.39467,2.394502 -1.32247,0 -2.39467,-1.072202 -2.39467,-2.394502 0,-1.322828 1.0722,-2.394854 2.39467,-2.394854 1.32247,0 2.39467,1.072026 2.39467,2.394854 z"
           i:knockout="Off" />
        <path
           i:knockout="Off"
           d="m 39.3716,41.637792 c 0,1.322476 -1.0722,2.394502 -2.39467,2.394502 -1.32247,0 -2.39467,-1.072202 -2.39467,-2.394502 0,-1.322828 1.0722,-2.394854 2.39467,-2.394854 1.32247,0 2.39467,1.072026 2.39467,2.394854 z"
           id="path6096"
           inkscape:connector-curvature="0"
           style="fill:#dcdcdc;fill-opacity:1;stroke:#000000;stroke-width:0.02;stroke-miterlimit:4.0370369;stroke-dasharray:none;stroke-opacity:1" />
        <path
           i:knockout="Off"
           d="m 47.35065,41.637792 c 0,1.322476 -1.0722,2.394502 -2.39467,2.394502 -1.32247,0 -2.39467,-1.072202 -2.39467,-2.394502 0,-1.322828 1.0722,-2.394854 2.39467,-2.394854 1.32247,0 2.39467,1.072026 2.39467,2.394854 z"
           id="path6100"
           inkscape:connector-curvature="0"
           style="fill:#dcdcdc;fill-opacity:1;stroke:#000000;stroke-width:0.02;stroke-miterlimit:4.0370369;stroke-dasharray:none;stroke-opacity:1" />
        <path
           style="fill:#dcdcdc;fill-opacity:1;stroke:#000000;stroke-width:0.02;stroke-miterlimit:4.0370369;stroke-dasharray:none;stroke-opacity:1"
           inkscape:connector-curvature="0"
           id="path6104"
           d="m 55.32971,41.637792 c 0,1.322476 -1.0722,2.394502 -2.39467,2.394502 -1.32247,0 -2.39467,-1.072202 -2.39467,-2.394502 0,-1.322828 1.0722,-2.394854 2.39467,-2.394854 1.32247,0 2.39467,1.072026 2.39467,2.394854 z"
           i:knockout="Off" />
        <path
           i:knockout="Off"
           d="m 63.30877,41.637792 c 0,1.322476 -1.0722,2.394502 -2.39467,2.394502 -1.32247,0 -2.39467,-1.072202 -2.39467,-2.394502 0,-1.322828 1.0722,-2.394854 2.39467,-2.394854 1.32247,0 2.39467,1.072026 2.39467,2.394854 z"
           id="path6108"
           inkscape:connector-curvature="0"
           style="fill:#dcdcdc;fill-opacity:1;stroke:#000000;stroke-width:0.02;stroke-miterlimit:4.0370369;stroke-dasharray:none;stroke-opacity:1" />
        <path
           style="fill:#dcdcdc;fill-opacity:1;stroke:#000000;stroke-width:0.02;stroke-miterlimit:4.0370369;stroke-dasharray:none;stroke-opacity:1"
           inkscape:connector-curvature="0"
           id="path6112"
           d="m 71.28783,41.637792 c 0,1.322476 -1.0722,2.394502 -2.39467,2.394502 -1.32247,0 -2.39467,-1.072202 -2.39467,-2.394502 0,-1.322828 1.0722,-2.394854 2.39467,-2.394854 1.32247,0 2.39467,1.072026 2.39467,2.394854 z"
           i:knockout="Off" />
        <path
           style="fill:#dcdcdc;fill-opacity:1;stroke:#000000;stroke-width:0.02;stroke-miterlimit:4.0370369;stroke-dasharray:none;stroke-opacity:1"
           inkscape:connector-curvature="0"
           id="path6116"
           d="m 79.26688,41.637792 c 0,1.322476 -1.0722,2.394502 -2.39467,2.394502 -1.32247,0 -2.39467,-1.072202 -2.39467,-2.394502 0,-1.322828 1.0722,-2.394854 2.39467,-2.394854 1.32247,0 2.39467,1.072026 2.39467,2.394854 z"
           i:knockout="Off" />
        <path
           i:knockout="Off"
           d="m 87.24594,41.637792 c 0,1.322476 -1.0722,2.394502 -2.39467,2.394502 -1.32247,0 -2.39467,-1.072202 -2.39467,-2.394502 0,-1.322828 1.0722,-2.394854 2.39467,-2.394854 1.32247,0 2.39467,1.072026 2.39467,2.394854 z"
           id="path6120"
           inkscape:connector-curvature="0"
           style="fill:#dcdcdc;fill-opacity:1;stroke:#000000;stroke-width:0.02;stroke-miterlimit:4.0370369;stroke-dasharray:none;stroke-opacity:1" />
        <path
           i:knockout="Off"
           d="m 95.22187,41.637792 c 0,1.322476 -1.0722,2.394502 -2.39467,2.394502 -1.32247,0 -2.39467,-1.072202 -2.39467,-2.394502 0,-1.322828 1.0722,-2.394854 2.39467,-2.394854 1.32247,0 2.39467,1.072026 2.39467,2.394854 z"
           id="path6124"
           inkscape:connector-curvature="0"
           style="fill:#dcdcdc;fill-opacity:1;stroke:#000000;stroke-width:0.02;stroke-miterlimit:4.0370369;stroke-dasharray:none;stroke-opacity:1" />
        <path
           style="fill:#dcdcdc;fill-opacity:1;stroke:#000000;stroke-width:0.02;stroke-miterlimit:4.0370369;stroke-dasharray:none;stroke-opacity:1"
           inkscape:connector-curvature="0"
           id="path6128"
           d="m 103.20093,41.637792 c 0,1.322476 -1.0722,2.394502 -2.39467,2.394502 -1.32247,0 -2.39467,-1.072202 -2.39467,-2.394502 0,-1.322828 1.0722,-2.394854 2.39467,-2.394854 1.32247,0 2.39467,1.072026 2.39467,2.394854 z"
           i:knockout="Off" />
        <path
           style="fill:#dcdcdc;fill-opacity:1;stroke:#000000;stroke-width:0.02;stroke-miterlimit:4.0370369;stroke-dasharray:none;stroke-opacity:1"
           inkscape:connector-curvature="0"
           id="path6132"
           d="m 111.17998,41.637792 c 0,1.322476 -1.0722,2.394502 -2.39467,2.394502 -1.32247,0 -2.39467,-1.072202 -2.39467,-2.394502 0,-1.322828 1.0722,-2.394854 2.39467,-2.394854 1.32247,0 2.39467,1.072026 2.39467,2.394854 z"
           i:knockout="Off" />
        <path
           i:knockout="Off"
           d="m 119.15904,41.637792 c 0,1.322476 -1.0722,2.394502 -2.39467,2.394502 -1.32247,0 -2.39467,-1.072202 -2.39467,-2.394502 0,-1.322828 1.0722,-2.394854 2.39467,-2.394854 1.32247,0 2.39467,1.072026 2.39467,2.394854 z"
           id="path6136"
           inkscape:connector-curvature="0"
           style="fill:#dcdcdc;fill-opacity:1;stroke:#000000;stroke-width:0.02;stroke-miterlimit:4.0370369;stroke-dasharray:none;stroke-opacity:1" />
        <path
           style="fill:#dcdcdc;fill-opacity:1;stroke:#000000;stroke-width:0.02;stroke-miterlimit:4.0370369;stroke-dasharray:none;stroke-opacity:1"
           inkscape:connector-curvature="0"
           id="path6140"
           d="m 127.1381,41.637792 c 0,1.322476 -1.0722,2.394502 -2.39467,2.394502 -1.32247,0 -2.39467,-1.072202 -2.39467,-2.394502 0,-1.322828 1.0722,-2.394854 2.39467,-2.394854 1.32247,0 2.39467,1.072026 2.39467,2.394854 z"
           i:knockout="Off" />
        <path
           i:knockout="Off"
           d="m 135.11716,41.637792 c 0,1.322476 -1.0722,2.394502 -2.39467,2.394502 -1.32247,0 -2.39467,-1.072202 -2.39467,-2.394502 0,-1.322828 1.0722,-2.394854 2.39467,-2.394854 1.32247,0 2.39467,1.072026 2.39467,2.394854 z"
           id="path6144"
           inkscape:connector-curvature="0"
           style="fill:#dcdcdc;fill-opacity:1;stroke:#000000;stroke-width:0.02;stroke-miterlimit:4.0370369;stroke-dasharray:none;stroke-opacity:1" />
        <path
           i:knockout="Off"
           d="m 143.09621,41.637792 c 0,1.322476 -1.0722,2.394502 -2.39467,2.394502 -1.32247,0 -2.39467,-1.072202 -2.39467,-2.394502 0,-1.322828 1.0722,-2.394854 2.39467,-2.394854 1.32247,0 2.39467,1.072026 2.39467,2.394854 z"
           id="path6148"
           inkscape:connector-curvature="0"
           style="fill:#dcdcdc;fill-opacity:1;stroke:#000000;stroke-width:0.02;stroke-miterlimit:4.0370369;stroke-dasharray:none;stroke-opacity:1" />
        <path
           i:knockout="Off"
           d="m 23.41001,49.631631 c 0,1.322476 -1.0722,2.394502 -2.39468,2.394502 -1.32247,0 -2.39467,-1.072202 -2.39467,-2.394502 0,-1.322828 1.0722,-2.394854 2.39467,-2.394854 1.32248,0 2.39468,1.072026 2.39468,2.394854 z"
           id="path6150"
           inkscape:connector-curvature="0"
           style="fill:#dcdcdc;fill-opacity:1;stroke:#000000;stroke-width:0.02;stroke-miterlimit:4.0370369;stroke-dasharray:none;stroke-opacity:1" />
        <path
           i:knockout="Off"
           d="m 31.39254,49.631631 c 0,1.322476 -1.0722,2.394502 -2.39467,2.394502 -1.32247,0 -2.39467,-1.072202 -2.39467,-2.394502 0,-1.322828 1.0722,-2.394854 2.39467,-2.394854 1.32247,0 2.39467,1.072026 2.39467,2.394854 z"
           id="path6152"
           inkscape:connector-curvature="0"
           style="fill:#dcdcdc;fill-opacity:1;stroke:#000000;stroke-width:0.02;stroke-miterlimit:4.0370369;stroke-dasharray:none;stroke-opacity:1" />
        <path
           style="fill:#dcdcdc;fill-opacity:1;stroke:#000000;stroke-width:0.02;stroke-miterlimit:4.0370369;stroke-dasharray:none;stroke-opacity:1"
           inkscape:connector-curvature="0"
           id="path6154"
           d="m 39.3716,49.631631 c 0,1.322476 -1.0722,2.394502 -2.39467,2.394502 -1.32247,0 -2.39467,-1.072202 -2.39467,-2.394502 0,-1.322828 1.0722,-2.394854 2.39467,-2.394854 1.32247,0 2.39467,1.072026 2.39467,2.394854 z"
           i:knockout="Off" />
        <path
           style="fill:#dcdcdc;fill-opacity:1;stroke:#000000;stroke-width:0.02;stroke-miterlimit:4.0370369;stroke-dasharray:none;stroke-opacity:1"
           inkscape:connector-curvature="0"
           id="path6156"
           d="m 47.35065,49.631631 c 0,1.322476 -1.0722,2.394502 -2.39467,2.394502 -1.32247,0 -2.39467,-1.072202 -2.39467,-2.394502 0,-1.322828 1.0722,-2.394854 2.39467,-2.394854 1.32247,0 2.39467,1.072026 2.39467,2.394854 z"
           i:knockout="Off" />
        <path
           i:knockout="Off"
           d="m 55.32971,49.631631 c 0,1.322476 -1.0722,2.394502 -2.39467,2.394502 -1.32247,0 -2.39467,-1.072202 -2.39467,-2.394502 0,-1.322828 1.0722,-2.394854 2.39467,-2.394854 1.32247,0 2.39467,1.072026 2.39467,2.394854 z"
           id="path6158"
           inkscape:connector-curvature="0"
           style="fill:#dcdcdc;fill-opacity:1;stroke:#000000;stroke-width:0.02;stroke-miterlimit:4.0370369;stroke-dasharray:none;stroke-opacity:1" />
        <path
           style="fill:#dcdcdc;fill-opacity:1;stroke:#000000;stroke-width:0.02;stroke-miterlimit:4.0370369;stroke-dasharray:none;stroke-opacity:1"
           inkscape:connector-curvature="0"
           id="path6160"
           d="m 63.30877,49.631631 c 0,1.322476 -1.0722,2.394502 -2.39467,2.394502 -1.32247,0 -2.39467,-1.072202 -2.39467,-2.394502 0,-1.322828 1.0722,-2.394854 2.39467,-2.394854 1.32247,0 2.39467,1.072026 2.39467,2.394854 z"
           i:knockout="Off" />
        <path
           i:knockout="Off"
           d="m 71.28783,49.631631 c 0,1.322476 -1.0722,2.394502 -2.39467,2.394502 -1.32247,0 -2.39467,-1.072202 -2.39467,-2.394502 0,-1.322828 1.0722,-2.394854 2.39467,-2.394854 1.32247,0 2.39467,1.072026 2.39467,2.394854 z"
           id="path6162"
           inkscape:connector-curvature="0"
           style="fill:#dcdcdc;fill-opacity:1;stroke:#000000;stroke-width:0.02;stroke-miterlimit:4.0370369;stroke-dasharray:none;stroke-opacity:1" />
        <path
           i:knockout="Off"
           d="m 79.26688,49.631631 c 0,1.322476 -1.0722,2.394502 -2.39467,2.394502 -1.32247,0 -2.39467,-1.072202 -2.39467,-2.394502 0,-1.322828 1.0722,-2.394854 2.39467,-2.394854 1.32247,0 2.39467,1.072026 2.39467,2.394854 z"
           id="path6164"
           inkscape:connector-curvature="0"
           style="fill:#dcdcdc;fill-opacity:1;stroke:#000000;stroke-width:0.02;stroke-miterlimit:4.0370369;stroke-dasharray:none;stroke-opacity:1" />
        <path
           style="fill:#dcdcdc;fill-opacity:1;stroke:#000000;stroke-width:0.02;stroke-miterlimit:4.0370369;stroke-dasharray:none;stroke-opacity:1"
           inkscape:connector-curvature="0"
           id="path6166"
           d="m 87.24594,49.631631 c 0,1.322476 -1.0722,2.394502 -2.39467,2.394502 -1.32247,0 -2.39467,-1.072202 -2.39467,-2.394502 0,-1.322828 1.0722,-2.394854 2.39467,-2.394854 1.32247,0 2.39467,1.072026 2.39467,2.394854 z"
           i:knockout="Off" />
        <path
           style="fill:#dcdcdc;fill-opacity:1;stroke:#000000;stroke-width:0.02;stroke-miterlimit:4.0370369;stroke-dasharray:none;stroke-opacity:1"
           inkscape:connector-curvature="0"
           id="path6168"
           d="m 95.22187,49.631631 c 0,1.322476 -1.0722,2.394502 -2.39467,2.394502 -1.32247,0 -2.39467,-1.072202 -2.39467,-2.394502 0,-1.322828 1.0722,-2.394854 2.39467,-2.394854 1.32247,0 2.39467,1.072026 2.39467,2.394854 z"
           i:knockout="Off" />
        <path
           i:knockout="Off"
           d="m 103.20093,49.631631 c 0,1.322476 -1.0722,2.394502 -2.39467,2.394502 -1.32247,0 -2.39467,-1.072202 -2.39467,-2.394502 0,-1.322828 1.0722,-2.394854 2.39467,-2.394854 1.32247,0 2.39467,1.072026 2.39467,2.394854 z"
           id="path6170"
           inkscape:connector-curvature="0"
           style="fill:#dcdcdc;fill-opacity:1;stroke:#000000;stroke-width:0.02;stroke-miterlimit:4.0370369;stroke-dasharray:none;stroke-opacity:1" />
        <path
           i:knockout="Off"
           d="m 111.17998,49.631631 c 0,1.322476 -1.0722,2.394502 -2.39467,2.394502 -1.32247,0 -2.39467,-1.072202 -2.39467,-2.394502 0,-1.322828 1.0722,-2.394854 2.39467,-2.394854 1.32247,0 2.39467,1.072026 2.39467,2.394854 z"
           id="path6172"
           inkscape:connector-curvature="0"
           style="fill:#dcdcdc;fill-opacity:1;stroke:#000000;stroke-width:0.02;stroke-miterlimit:4.0370369;stroke-dasharray:none;stroke-opacity:1" />
        <path
           style="fill:#dcdcdc;fill-opacity:1;stroke:#000000;stroke-width:0.02;stroke-miterlimit:4.0370369;stroke-dasharray:none;stroke-opacity:1"
           inkscape:connector-curvature="0"
           id="path6174"
           d="m 119.15904,49.631631 c 0,1.322476 -1.0722,2.394502 -2.39467,2.394502 -1.32247,0 -2.39467,-1.072202 -2.39467,-2.394502 0,-1.322828 1.0722,-2.394854 2.39467,-2.394854 1.32247,0 2.39467,1.072026 2.39467,2.394854 z"
           i:knockout="Off" />
        <path
           i:knockout="Off"
           d="m 127.1381,49.631631 c 0,1.322476 -1.0722,2.394502 -2.39467,2.394502 -1.32247,0 -2.39467,-1.072202 -2.39467,-2.394502 0,-1.322828 1.0722,-2.394854 2.39467,-2.394854 1.32247,0 2.39467,1.072026 2.39467,2.394854 z"
           id="path6176"
           inkscape:connector-curvature="0"
           style="fill:#dcdcdc;fill-opacity:1;stroke:#000000;stroke-width:0.02;stroke-miterlimit:4.0370369;stroke-dasharray:none;stroke-opacity:1" />
        <path
           style="fill:#dcdcdc;fill-opacity:1;stroke:#000000;stroke-width:0.02;stroke-miterlimit:4.0370369;stroke-dasharray:none;stroke-opacity:1"
           inkscape:connector-curvature="0"
           id="path6178"
           d="m 135.11716,49.631631 c 0,1.322476 -1.0722,2.394502 -2.39467,2.394502 -1.32247,0 -2.39467,-1.072202 -2.39467,-2.394502 0,-1.322828 1.0722,-2.394854 2.39467,-2.394854 1.32247,0 2.39467,1.072026 2.39467,2.394854 z"
           i:knockout="Off" />
        <path
           style="fill:#dcdcdc;fill-opacity:1;stroke:#000000;stroke-width:0.02;stroke-miterlimit:4.0370369;stroke-dasharray:none;stroke-opacity:1"
           inkscape:connector-curvature="0"
           id="path6180"
           d="m 143.09621,49.631631 c 0,1.322476 -1.0722,2.394502 -2.39467,2.394502 -1.32247,0 -2.39467,-1.072202 -2.39467,-2.394502 0,-1.322828 1.0722,-2.394854 2.39467,-2.394854 1.32247,0 2.39467,1.072026 2.39467,2.394854 z"
           i:knockout="Off" />
        <path
           style="fill:#dcdcdc;fill-opacity:1;stroke:#000000;stroke-width:0.02;stroke-miterlimit:4.0370369;stroke-dasharray:none;stroke-opacity:1"
           inkscape:connector-curvature="0"
           id="path6186"
           d="m 23.41001,57.598982 c 0,1.322476 -1.0722,2.394502 -2.39468,2.394502 -1.32247,0 -2.39467,-1.072202 -2.39467,-2.394502 0,-1.322828 1.0722,-2.394854 2.39467,-2.394854 1.32248,0 2.39468,1.072026 2.39468,2.394854 z"
           i:knockout="Off" />
        <path
           style="fill:#dcdcdc;fill-opacity:1;stroke:#000000;stroke-width:0.02;stroke-miterlimit:4.0370369;stroke-dasharray:none;stroke-opacity:1"
           inkscape:connector-curvature="0"
           id="path6188"
           d="m 31.39254,57.598982 c 0,1.322476 -1.0722,2.394502 -2.39467,2.394502 -1.32247,0 -2.39467,-1.072202 -2.39467,-2.394502 0,-1.322828 1.0722,-2.394854 2.39467,-2.394854 1.32247,0 2.39467,1.072026 2.39467,2.394854 z"
           i:knockout="Off" />
        <path
           i:knockout="Off"
           d="m 39.3716,57.598982 c 0,1.322476 -1.0722,2.394502 -2.39467,2.394502 -1.32247,0 -2.39467,-1.072202 -2.39467,-2.394502 0,-1.322828 1.0722,-2.394854 2.39467,-2.394854 1.32247,0 2.39467,1.072026 2.39467,2.394854 z"
           id="path6192"
           inkscape:connector-curvature="0"
           style="fill:#dcdcdc;fill-opacity:1;stroke:#000000;stroke-width:0.02;stroke-miterlimit:4.0370369;stroke-dasharray:none;stroke-opacity:1" />
        <path
           i:knockout="Off"
           d="m 47.35065,57.598982 c 0,1.322476 -1.0722,2.394502 -2.39467,2.394502 -1.32247,0 -2.39467,-1.072202 -2.39467,-2.394502 0,-1.322828 1.0722,-2.394854 2.39467,-2.394854 1.32247,0 2.39467,1.072026 2.39467,2.394854 z"
           id="path6196"
           inkscape:connector-curvature="0"
           style="fill:#dcdcdc;fill-opacity:1;stroke:#000000;stroke-width:0.02;stroke-miterlimit:4.0370369;stroke-dasharray:none;stroke-opacity:1" />
        <path
           style="fill:#dcdcdc;fill-opacity:1;stroke:#000000;stroke-width:0.02;stroke-miterlimit:4.0370369;stroke-dasharray:none;stroke-opacity:1"
           inkscape:connector-curvature="0"
           id="path6200"
           d="m 55.32971,57.598982 c 0,1.322476 -1.0722,2.394502 -2.39467,2.394502 -1.32247,0 -2.39467,-1.072202 -2.39467,-2.394502 0,-1.322828 1.0722,-2.394854 2.39467,-2.394854 1.32247,0 2.39467,1.072026 2.39467,2.394854 z"
           i:knockout="Off" />
        <path
           i:knockout="Off"
           d="m 63.30877,57.598982 c 0,1.322476 -1.0722,2.394502 -2.39467,2.394502 -1.32247,0 -2.39467,-1.072202 -2.39467,-2.394502 0,-1.322828 1.0722,-2.394854 2.39467,-2.394854 1.32247,0 2.39467,1.072026 2.39467,2.394854 z"
           id="path6204"
           inkscape:connector-curvature="0"
           style="fill:#dcdcdc;fill-opacity:1;stroke:#000000;stroke-width:0.02;stroke-miterlimit:4.0370369;stroke-dasharray:none;stroke-opacity:1" />
        <path
           style="fill:#dcdcdc;fill-opacity:1;stroke:#000000;stroke-width:0.02;stroke-miterlimit:4.0370369;stroke-dasharray:none;stroke-opacity:1"
           inkscape:connector-curvature="0"
           id="path6208"
           d="m 71.28783,57.598982 c 0,1.322476 -1.0722,2.394502 -2.39467,2.394502 -1.32247,0 -2.39467,-1.072202 -2.39467,-2.394502 0,-1.322828 1.0722,-2.394854 2.39467,-2.394854 1.32247,0 2.39467,1.072026 2.39467,2.394854 z"
           i:knockout="Off" />
        <path
           style="fill:#dcdcdc;fill-opacity:1;stroke:#000000;stroke-width:0.02;stroke-miterlimit:4.0370369;stroke-dasharray:none;stroke-opacity:1"
           inkscape:connector-curvature="0"
           id="path6212"
           d="m 79.26688,57.598982 c 0,1.322476 -1.0722,2.394502 -2.39467,2.394502 -1.32247,0 -2.39467,-1.072202 -2.39467,-2.394502 0,-1.322828 1.0722,-2.394854 2.39467,-2.394854 1.32247,0 2.39467,1.072026 2.39467,2.394854 z"
           i:knockout="Off" />
        <path
           i:knockout="Off"
           d="m 87.24594,57.598982 c 0,1.322476 -1.0722,2.394502 -2.39467,2.394502 -1.32247,0 -2.39467,-1.072202 -2.39467,-2.394502 0,-1.322828 1.0722,-2.394854 2.39467,-2.394854 1.32247,0 2.39467,1.072026 2.39467,2.394854 z"
           id="path6216"
           inkscape:connector-curvature="0"
           style="fill:#dcdcdc;fill-opacity:1;stroke:#000000;stroke-width:0.02;stroke-miterlimit:4.0370369;stroke-dasharray:none;stroke-opacity:1" />
        <path
           i:knockout="Off"
           d="m 95.22187,57.598982 c 0,1.322476 -1.0722,2.394502 -2.39467,2.394502 -1.32247,0 -2.39467,-1.072202 -2.39467,-2.394502 0,-1.322828 1.0722,-2.394854 2.39467,-2.394854 1.32247,0 2.39467,1.072026 2.39467,2.394854 z"
           id="path6220"
           inkscape:connector-curvature="0"
           style="fill:#dcdcdc;fill-opacity:1;stroke:#000000;stroke-width:0.02;stroke-miterlimit:4.0370369;stroke-dasharray:none;stroke-opacity:1" />
        <path
           style="fill:#dcdcdc;fill-opacity:1;stroke:#000000;stroke-width:0.02;stroke-miterlimit:4.0370369;stroke-dasharray:none;stroke-opacity:1"
           inkscape:connector-curvature="0"
           id="path6224"
           d="m 103.20093,57.598982 c 0,1.322476 -1.0722,2.394502 -2.39467,2.394502 -1.32247,0 -2.39467,-1.072202 -2.39467,-2.394502 0,-1.322828 1.0722,-2.394854 2.39467,-2.394854 1.32247,0 2.39467,1.072026 2.39467,2.394854 z"
           i:knockout="Off" />
        <path
           style="fill:#dcdcdc;fill-opacity:1;stroke:#000000;stroke-width:0.02;stroke-miterlimit:4.0370369;stroke-dasharray:none;stroke-opacity:1"
           inkscape:connector-curvature="0"
           id="path6228"
           d="m 111.17998,57.598982 c 0,1.322476 -1.0722,2.394502 -2.39467,2.394502 -1.32247,0 -2.39467,-1.072202 -2.39467,-2.394502 0,-1.322828 1.0722,-2.394854 2.39467,-2.394854 1.32247,0 2.39467,1.072026 2.39467,2.394854 z"
           i:knockout="Off" />
        <path
           i:knockout="Off"
           d="m 119.15904,57.598982 c 0,1.322476 -1.0722,2.394502 -2.39467,2.394502 -1.32247,0 -2.39467,-1.072202 -2.39467,-2.394502 0,-1.322828 1.0722,-2.394854 2.39467,-2.394854 1.32247,0 2.39467,1.072026 2.39467,2.394854 z"
           id="path6232"
           inkscape:connector-curvature="0"
           style="fill:#dcdcdc;fill-opacity:1;stroke:#000000;stroke-width:0.02;stroke-miterlimit:4.0370369;stroke-dasharray:none;stroke-opacity:1" />
        <path
           style="fill:#dcdcdc;fill-opacity:1;stroke:#000000;stroke-width:0.02;stroke-miterlimit:4.0370369;stroke-dasharray:none;stroke-opacity:1"
           inkscape:connector-curvature="0"
           id="path6236"
           d="m 127.1381,57.598982 c 0,1.322476 -1.0722,2.394502 -2.39467,2.394502 -1.32247,0 -2.39467,-1.072202 -2.39467,-2.394502 0,-1.322828 1.0722,-2.394854 2.39467,-2.394854 1.32247,0 2.39467,1.072026 2.39467,2.394854 z"
           i:knockout="Off" />
        <path
           i:knockout="Off"
           d="m 135.11716,57.598982 c 0,1.322476 -1.0722,2.394502 -2.39467,2.394502 -1.32247,0 -2.39467,-1.072202 -2.39467,-2.394502 0,-1.322828 1.0722,-2.394854 2.39467,-2.394854 1.32247,0 2.39467,1.072026 2.39467,2.394854 z"
           id="path6240"
           inkscape:connector-curvature="0"
           style="fill:#dcdcdc;fill-opacity:1;stroke:#000000;stroke-width:0.02;stroke-miterlimit:4.0370369;stroke-dasharray:none;stroke-opacity:1" />
        <path
           i:knockout="Off"
           d="m 143.09621,57.598982 c 0,1.322476 -1.0722,2.394502 -2.39467,2.394502 -1.32247,0 -2.39467,-1.072202 -2.39467,-2.394502 0,-1.322828 1.0722,-2.394854 2.39467,-2.394854 1.32247,0 2.39467,1.072026 2.39467,2.394854 z"
           id="path6244"
           inkscape:connector-curvature="0"
           style="fill:#dcdcdc;fill-opacity:1;stroke:#000000;stroke-width:0.02;stroke-miterlimit:4.0370369;stroke-dasharray:none;stroke-opacity:1" />
        <path
           i:knockout="Off"
           d="m 23.41001,65.592821 c 0,1.322476 -1.0722,2.394502 -2.39468,2.394502 -1.32247,0 -2.39467,-1.072202 -2.39467,-2.394502 0,-1.322828 1.0722,-2.394854 2.39467,-2.394854 1.32248,0 2.39468,1.072026 2.39468,2.394854 z"
           id="path6246"
           inkscape:connector-curvature="0"
           style="fill:#dcdcdc;fill-opacity:1;stroke:#000000;stroke-width:0.02;stroke-miterlimit:4.0370369;stroke-dasharray:none;stroke-opacity:1" />
        <path
           i:knockout="Off"
           d="m 31.39254,65.592821 c 0,1.322476 -1.0722,2.394502 -2.39467,2.394502 -1.32247,0 -2.39467,-1.072202 -2.39467,-2.394502 0,-1.322828 1.0722,-2.394854 2.39467,-2.394854 1.32247,0 2.39467,1.072026 2.39467,2.394854 z"
           id="path6248"
           inkscape:connector-curvature="0"
           style="fill:#dcdcdc;fill-opacity:1;stroke:#000000;stroke-width:0.02;stroke-miterlimit:4.0370369;stroke-dasharray:none;stroke-opacity:1" />
        <path
           style="fill:#dcdcdc;fill-opacity:1;stroke:#000000;stroke-width:0.02;stroke-miterlimit:4.0370369;stroke-dasharray:none;stroke-opacity:1"
           inkscape:connector-curvature="0"
           id="path6250"
           d="m 39.3716,65.592821 c 0,1.322476 -1.0722,2.394502 -2.39467,2.394502 -1.32247,0 -2.39467,-1.072202 -2.39467,-2.394502 0,-1.322828 1.0722,-2.394854 2.39467,-2.394854 1.32247,0 2.39467,1.072026 2.39467,2.394854 z"
           i:knockout="Off" />
        <path
           style="fill:#dcdcdc;fill-opacity:1;stroke:#000000;stroke-width:0.02;stroke-miterlimit:4.0370369;stroke-dasharray:none;stroke-opacity:1"
           inkscape:connector-curvature="0"
           id="path6252"
           d="m 47.35065,65.592821 c 0,1.322476 -1.0722,2.394502 -2.39467,2.394502 -1.32247,0 -2.39467,-1.072202 -2.39467,-2.394502 0,-1.322828 1.0722,-2.394854 2.39467,-2.394854 1.32247,0 2.39467,1.072026 2.39467,2.394854 z"
           i:knockout="Off" />
        <path
           i:knockout="Off"
           d="m 55.32971,65.592821 c 0,1.322476 -1.0722,2.394502 -2.39467,2.394502 -1.32247,0 -2.39467,-1.072202 -2.39467,-2.394502 0,-1.322828 1.0722,-2.394854 2.39467,-2.394854 1.32247,0 2.39467,1.072026 2.39467,2.394854 z"
           id="path6254"
           inkscape:connector-curvature="0"
           style="fill:#dcdcdc;fill-opacity:1;stroke:#000000;stroke-width:0.02;stroke-miterlimit:4.0370369;stroke-dasharray:none;stroke-opacity:1" />
        <path
           style="fill:#dcdcdc;fill-opacity:1;stroke:#000000;stroke-width:0.02;stroke-miterlimit:4.0370369;stroke-dasharray:none;stroke-opacity:1"
           inkscape:connector-curvature="0"
           id="path6256"
           d="m 63.30877,65.592821 c 0,1.322476 -1.0722,2.394502 -2.39467,2.394502 -1.32247,0 -2.39467,-1.072202 -2.39467,-2.394502 0,-1.322828 1.0722,-2.394854 2.39467,-2.394854 1.32247,0 2.39467,1.072026 2.39467,2.394854 z"
           i:knockout="Off" />
        <path
           i:knockout="Off"
           d="m 71.28783,65.592821 c 0,1.322476 -1.0722,2.394502 -2.39467,2.394502 -1.32247,0 -2.39467,-1.072202 -2.39467,-2.394502 0,-1.322828 1.0722,-2.394854 2.39467,-2.394854 1.32247,0 2.39467,1.072026 2.39467,2.394854 z"
           id="path6258"
           inkscape:connector-curvature="0"
           style="fill:#dcdcdc;fill-opacity:1;stroke:#000000;stroke-width:0.02;stroke-miterlimit:4.0370369;stroke-dasharray:none;stroke-opacity:1" />
        <path
           i:knockout="Off"
           d="m 79.26688,65.592821 c 0,1.322476 -1.0722,2.394502 -2.39467,2.394502 -1.32247,0 -2.39467,-1.072202 -2.39467,-2.394502 0,-1.322828 1.0722,-2.394854 2.39467,-2.394854 1.32247,0 2.39467,1.072026 2.39467,2.394854 z"
           id="path6260"
           inkscape:connector-curvature="0"
           style="fill:#dcdcdc;fill-opacity:1;stroke:#000000;stroke-width:0.02;stroke-miterlimit:4.0370369;stroke-dasharray:none;stroke-opacity:1" />
        <path
           style="fill:#dcdcdc;fill-opacity:1;stroke:#000000;stroke-width:0.02;stroke-miterlimit:4.0370369;stroke-dasharray:none;stroke-opacity:1"
           inkscape:connector-curvature="0"
           id="path6262"
           d="m 87.24594,65.592821 c 0,1.322476 -1.0722,2.394502 -2.39467,2.394502 -1.32247,0 -2.39467,-1.072202 -2.39467,-2.394502 0,-1.322828 1.0722,-2.394854 2.39467,-2.394854 1.32247,0 2.39467,1.072026 2.39467,2.394854 z"
           i:knockout="Off" />
        <path
           style="fill:#dcdcdc;fill-opacity:1;stroke:#000000;stroke-width:0.02;stroke-miterlimit:4.0370369;stroke-dasharray:none;stroke-opacity:1"
           inkscape:connector-curvature="0"
           id="path6264"
           d="m 95.22187,65.592821 c 0,1.322476 -1.0722,2.394502 -2.39467,2.394502 -1.32247,0 -2.39467,-1.072202 -2.39467,-2.394502 0,-1.322828 1.0722,-2.394854 2.39467,-2.394854 1.32247,0 2.39467,1.072026 2.39467,2.394854 z"
           i:knockout="Off" />
        <path
           i:knockout="Off"
           d="m 103.20093,65.592821 c 0,1.322476 -1.0722,2.394502 -2.39467,2.394502 -1.32247,0 -2.39467,-1.072202 -2.39467,-2.394502 0,-1.322828 1.0722,-2.394854 2.39467,-2.394854 1.32247,0 2.39467,1.072026 2.39467,2.394854 z"
           id="path6266"
           inkscape:connector-curvature="0"
           style="fill:#dcdcdc;fill-opacity:1;stroke:#000000;stroke-width:0.02;stroke-miterlimit:4.0370369;stroke-dasharray:none;stroke-opacity:1" />
        <path
           i:knockout="Off"
           d="m 111.17998,65.592821 c 0,1.322476 -1.0722,2.394502 -2.39467,2.394502 -1.32247,0 -2.39467,-1.072202 -2.39467,-2.394502 0,-1.322828 1.0722,-2.394854 2.39467,-2.394854 1.32247,0 2.39467,1.072026 2.39467,2.394854 z"
           id="path6268"
           inkscape:connector-curvature="0"
           style="fill:#dcdcdc;fill-opacity:1;stroke:#000000;stroke-width:0.02;stroke-miterlimit:4.0370369;stroke-dasharray:none;stroke-opacity:1" />
        <path
           style="fill:#dcdcdc;fill-opacity:1;stroke:#000000;stroke-width:0.02;stroke-miterlimit:4.0370369;stroke-dasharray:none;stroke-opacity:1"
           inkscape:connector-curvature="0"
           id="path6270"
           d="m 119.15904,65.592821 c 0,1.322476 -1.0722,2.394502 -2.39467,2.394502 -1.32247,0 -2.39467,-1.072202 -2.39467,-2.394502 0,-1.322828 1.0722,-2.394854 2.39467,-2.394854 1.32247,0 2.39467,1.072026 2.39467,2.394854 z"
           i:knockout="Off" />
        <path
           i:knockout="Off"
           d="m 127.1381,65.592821 c 0,1.322476 -1.0722,2.394502 -2.39467,2.394502 -1.32247,0 -2.39467,-1.072202 -2.39467,-2.394502 0,-1.322828 1.0722,-2.394854 2.39467,-2.394854 1.32247,0 2.39467,1.072026 2.39467,2.394854 z"
           id="path6272"
           inkscape:connector-curvature="0"
           style="fill:#dcdcdc;fill-opacity:1;stroke:#000000;stroke-width:0.02;stroke-miterlimit:4.0370369;stroke-dasharray:none;stroke-opacity:1" />
        <path
           style="fill:#dcdcdc;fill-opacity:1;stroke:#000000;stroke-width:0.02;stroke-miterlimit:4.0370369;stroke-dasharray:none;stroke-opacity:1"
           inkscape:connector-curvature="0"
           id="path6274"
           d="m 135.11716,65.592821 c 0,1.322476 -1.0722,2.394502 -2.39467,2.394502 -1.32247,0 -2.39467,-1.072202 -2.39467,-2.394502 0,-1.322828 1.0722,-2.394854 2.39467,-2.394854 1.32247,0 2.39467,1.072026 2.39467,2.394854 z"
           i:knockout="Off" />
        <path
           style="fill:#dcdcdc;fill-opacity:1;stroke:#000000;stroke-width:0.02;stroke-miterlimit:4.0370369;stroke-dasharray:none;stroke-opacity:1"
           inkscape:connector-curvature="0"
           id="path6276"
           d="m 143.09621,65.592821 c 0,1.322476 -1.0722,2.394502 -2.39467,2.394502 -1.32247,0 -2.39467,-1.072202 -2.39467,-2.394502 0,-1.322828 1.0722,-2.394854 2.39467,-2.394854 1.32247,0 2.39467,1.072026 2.39467,2.394854 z"
           i:knockout="Off" />
        <path
           i:knockout="Off"
           d="m 23.41001,73.576441 c 0,1.322476 -1.0722,2.394502 -2.39468,2.394502 -1.32247,0 -2.39467,-1.072202 -2.39467,-2.394502 0,-1.322828 1.0722,-2.394854 2.39467,-2.394854 1.32248,0 2.39468,1.072026 2.39468,2.394854 z"
           id="path6278"
           inkscape:connector-curvature="0"
           style="fill:#dcdcdc;fill-opacity:1;stroke:#000000;stroke-width:0.02;stroke-miterlimit:4.0370369;stroke-dasharray:none;stroke-opacity:1" />
        <path
           i:knockout="Off"
           d="m 31.39254,73.576441 c 0,1.322476 -1.0722,2.394502 -2.39467,2.394502 -1.32247,0 -2.39467,-1.072202 -2.39467,-2.394502 0,-1.322828 1.0722,-2.394854 2.39467,-2.394854 1.32247,0 2.39467,1.072026 2.39467,2.394854 z"
           id="path6280"
           inkscape:connector-curvature="0"
           style="fill:#dcdcdc;fill-opacity:1;stroke:#000000;stroke-width:0.02;stroke-miterlimit:4.0370369;stroke-dasharray:none;stroke-opacity:1" />
        <path
           style="fill:#dcdcdc;fill-opacity:1;stroke:#000000;stroke-width:0.02;stroke-miterlimit:4.0370369;stroke-dasharray:none;stroke-opacity:1"
           inkscape:connector-curvature="0"
           id="path6282"
           d="m 39.3716,73.576441 c 0,1.322476 -1.0722,2.394502 -2.39467,2.394502 -1.32247,0 -2.39467,-1.072202 -2.39467,-2.394502 0,-1.322828 1.0722,-2.394854 2.39467,-2.394854 1.32247,0 2.39467,1.072026 2.39467,2.394854 z"
           i:knockout="Off" />
        <path
           style="fill:#dcdcdc;fill-opacity:1;stroke:#000000;stroke-width:0.02;stroke-miterlimit:4.0370369;stroke-dasharray:none;stroke-opacity:1"
           inkscape:connector-curvature="0"
           id="path6284"
           d="m 47.35065,73.576441 c 0,1.322476 -1.0722,2.394502 -2.39467,2.394502 -1.32247,0 -2.39467,-1.072202 -2.39467,-2.394502 0,-1.322828 1.0722,-2.394854 2.39467,-2.394854 1.32247,0 2.39467,1.072026 2.39467,2.394854 z"
           i:knockout="Off" />
        <path
           i:knockout="Off"
           d="m 55.32971,73.576441 c 0,1.322476 -1.0722,2.394502 -2.39467,2.394502 -1.32247,0 -2.39467,-1.072202 -2.39467,-2.394502 0,-1.322828 1.0722,-2.394854 2.39467,-2.394854 1.32247,0 2.39467,1.072026 2.39467,2.394854 z"
           id="path6286"
           inkscape:connector-curvature="0"
           style="fill:#dcdcdc;fill-opacity:1;stroke:#000000;stroke-width:0.02;stroke-miterlimit:4.0370369;stroke-dasharray:none;stroke-opacity:1" />
        <path
           style="fill:#dcdcdc;fill-opacity:1;stroke:#000000;stroke-width:0.02;stroke-miterlimit:4.0370369;stroke-dasharray:none;stroke-opacity:1"
           inkscape:connector-curvature="0"
           id="path6288"
           d="m 63.30877,73.576441 c 0,1.322476 -1.0722,2.394502 -2.39467,2.394502 -1.32247,0 -2.39467,-1.072202 -2.39467,-2.394502 0,-1.322828 1.0722,-2.394854 2.39467,-2.394854 1.32247,0 2.39467,1.072026 2.39467,2.394854 z"
           i:knockout="Off" />
        <path
           i:knockout="Off"
           d="m 71.28783,73.576441 c 0,1.322476 -1.0722,2.394502 -2.39467,2.394502 -1.32247,0 -2.39467,-1.072202 -2.39467,-2.394502 0,-1.322828 1.0722,-2.394854 2.39467,-2.394854 1.32247,0 2.39467,1.072026 2.39467,2.394854 z"
           id="path6290"
           inkscape:connector-curvature="0"
           style="fill:#dcdcdc;fill-opacity:1;stroke:#000000;stroke-width:0.02;stroke-miterlimit:4.0370369;stroke-dasharray:none;stroke-opacity:1" />
        <path
           i:knockout="Off"
           d="m 79.26688,73.576441 c 0,1.322476 -1.0722,2.394502 -2.39467,2.394502 -1.32247,0 -2.39467,-1.072202 -2.39467,-2.394502 0,-1.322828 1.0722,-2.394854 2.39467,-2.394854 1.32247,0 2.39467,1.072026 2.39467,2.394854 z"
           id="path6292"
           inkscape:connector-curvature="0"
           style="fill:#dcdcdc;fill-opacity:1;stroke:#000000;stroke-width:0.02;stroke-miterlimit:4.0370369;stroke-dasharray:none;stroke-opacity:1" />
        <path
           style="fill:#dcdcdc;fill-opacity:1;stroke:#000000;stroke-width:0.02;stroke-miterlimit:4.0370369;stroke-dasharray:none;stroke-opacity:1"
           inkscape:connector-curvature="0"
           id="path6294"
           d="m 87.24594,73.576441 c 0,1.322476 -1.0722,2.394502 -2.39467,2.394502 -1.32247,0 -2.39467,-1.072202 -2.39467,-2.394502 0,-1.322828 1.0722,-2.394854 2.39467,-2.394854 1.32247,0 2.39467,1.072026 2.39467,2.394854 z"
           i:knockout="Off" />
        <path
           style="fill:#dcdcdc;fill-opacity:1;stroke:#000000;stroke-width:0.02;stroke-miterlimit:4.0370369;stroke-dasharray:none;stroke-opacity:1"
           inkscape:connector-curvature="0"
           id="path6296"
           d="m 95.22187,73.576441 c 0,1.322476 -1.0722,2.394502 -2.39467,2.394502 -1.32247,0 -2.39467,-1.072202 -2.39467,-2.394502 0,-1.322828 1.0722,-2.394854 2.39467,-2.394854 1.32247,0 2.39467,1.072026 2.39467,2.394854 z"
           i:knockout="Off" />
        <path
           i:knockout="Off"
           d="m 103.20093,73.576441 c 0,1.322476 -1.0722,2.394502 -2.39467,2.394502 -1.32247,0 -2.39467,-1.072202 -2.39467,-2.394502 0,-1.322828 1.0722,-2.394854 2.39467,-2.394854 1.32247,0 2.39467,1.072026 2.39467,2.394854 z"
           id="path6298"
           inkscape:connector-curvature="0"
           style="fill:#dcdcdc;fill-opacity:1;stroke:#000000;stroke-width:0.02;stroke-miterlimit:4.0370369;stroke-dasharray:none;stroke-opacity:1" />
        <path
           i:knockout="Off"
           d="m 111.17998,73.576441 c 0,1.322476 -1.0722,2.394502 -2.39467,2.394502 -1.32247,0 -2.39467,-1.072202 -2.39467,-2.394502 0,-1.322828 1.0722,-2.394854 2.39467,-2.394854 1.32247,0 2.39467,1.072026 2.39467,2.394854 z"
           id="path6300"
           inkscape:connector-curvature="0"
           style="fill:#dcdcdc;fill-opacity:1;stroke:#000000;stroke-width:0.02;stroke-miterlimit:4.0370369;stroke-dasharray:none;stroke-opacity:1" />
        <path
           style="fill:#dcdcdc;fill-opacity:1;stroke:#000000;stroke-width:0.02;stroke-miterlimit:4.0370369;stroke-dasharray:none;stroke-opacity:1"
           inkscape:connector-curvature="0"
           id="path6302"
           d="m 119.15904,73.576441 c 0,1.322476 -1.0722,2.394502 -2.39467,2.394502 -1.32247,0 -2.39467,-1.072202 -2.39467,-2.394502 0,-1.322828 1.0722,-2.394854 2.39467,-2.394854 1.32247,0 2.39467,1.072026 2.39467,2.394854 z"
           i:knockout="Off" />
        <path
           i:knockout="Off"
           d="m 127.1381,73.576441 c 0,1.322476 -1.0722,2.394502 -2.39467,2.394502 -1.32247,0 -2.39467,-1.072202 -2.39467,-2.394502 0,-1.322828 1.0722,-2.394854 2.39467,-2.394854 1.32247,0 2.39467,1.072026 2.39467,2.394854 z"
           id="path6304"
           inkscape:connector-curvature="0"
           style="fill:#dcdcdc;fill-opacity:1;stroke:#000000;stroke-width:0.02;stroke-miterlimit:4.0370369;stroke-dasharray:none;stroke-opacity:1" />
        <path
           style="fill:#dcdcdc;fill-opacity:1;stroke:#000000;stroke-width:0.02;stroke-miterlimit:4.0370369;stroke-dasharray:none;stroke-opacity:1"
           inkscape:connector-curvature="0"
           id="path6306"
           d="m 135.11716,73.576441 c 0,1.322476 -1.0722,2.394502 -2.39467,2.394502 -1.32247,0 -2.39467,-1.072202 -2.39467,-2.394502 0,-1.322828 1.0722,-2.394854 2.39467,-2.394854 1.32247,0 2.39467,1.072026 2.39467,2.394854 z"
           i:knockout="Off" />
        <path
           style="fill:#dcdcdc;fill-opacity:1;stroke:#000000;stroke-width:0.02;stroke-miterlimit:4.0370369;stroke-dasharray:none;stroke-opacity:1"
           inkscape:connector-curvature="0"
           id="path6308"
           d="m 143.09621,73.576441 c 0,1.322476 -1.0722,2.394502 -2.39467,2.394502 -1.32247,0 -2.39467,-1.072202 -2.39467,-2.394502 0,-1.322828 1.0722,-2.394854 2.39467,-2.394854 1.32247,0 2.39467,1.072026 2.39467,2.394854 z"
           i:knockout="Off" />
      </g>
    </g>
  </g>
  <g
     inkscape:label="Layer 1"
     inkscape:groupmode="layer"
     id="layer1"
     transform="translate(0,-715.03941)"
     style="display:inline">
    <path
       id="path3133"
       style="fill:none;stroke:#0000ff;stroke-width:0.10629921;stroke-linecap:butt;stroke-linejoin:miter;stroke-miterlimit:4;stroke-dasharray:none;stroke-opacity:1"
       d="m 177.78456,900.57465 0.081,-0.004 0.1513,-0.0687 0.059,-0.0663 c 0.3388,-0.37375 0.585,-0.7025 0.7813,-1.0475 0.3687,0.24875 0.7687,0.45625 1.2375,0.6375 l 0.1637,0 0.082,-0.0338 0.115,-0.1125 0.036,-0.0712 c 0.1912,-0.385 0.3425,-0.8075 0.4425,-1.235 0.3925,0.1225 0.8462,0.205 1.3862,0.23875 l 0.1413,-0.0488 0.059,-0.0437 0.086,-0.13875 0.014,-0.0888 c 0.074,-0.49 0.089,-0.95125 0.035,-1.31 l 0.054,0 c 0.39,0 0.805,-0.0488 1.36,-0.17625 l 0.1287,-0.095 0.046,-0.0712 0.034,-0.15375 -0.011,-0.0775 c -0.069,-0.4475 -0.1788,-0.8725 -0.335,-1.2675 0.3962,-0.1225 0.8012,-0.3025 1.2837,-0.58375 l 0.087,-0.12375 0.025,-0.0788 -0.013,-0.16125 -0.037,-0.0725 c -0.1875,-0.40875 -0.4275,-0.78875 -0.6875,-1.11375 0.35,-0.23875 0.6875,-0.535 1.05,-0.9225 l 0.05,-0.15375 0,-0.0838 -0.05,-0.14625 -0.062,-0.0612 c -0.3125,-0.33875 -0.6375,-0.6275 -0.9887,-0.86125 0.2587,-0.3225 0.5012,-0.7225 0.7262,-1.20125 l 0.013,-0.15375 -0.025,-0.0762 -0.1,-0.12625 -0.075,-0.045 c -0.3925,-0.22625 -0.7962,-0.405 -1.1962,-0.52875 0.1562,-0.39375 0.2687,-0.8325 0.345,-1.3625 l -0.04,-0.15125 -0.041,-0.0638 -0.1312,-0.0925 -0.086,-0.02 c -0.4512,-0.1025 -0.8637,-0.15125 -1.2637,-0.15125 l -0.037,0 c 0.03,-0.43 0.01,-0.87125 -0.07,-1.40125 l -0.084,-0.13625 -0.064,-0.0525 -0.1538,-0.0462 -0.082,0.005 c -0.4462,0.0325 -0.8787,0.11 -1.2887,0.2375 -0.1,-0.425 -0.2513,-0.85 -0.4863,-1.32125 l -0.12,-0.1 -0.068,-0.0287 -0.1612,-0.003 -0.079,0.0312 c -0.4487,0.17375 -0.8662,0.3925 -1.1587,0.6175 -0.21,-0.36875 -0.4688,-0.715 -0.86,-1.13 l -0.1388,-0.0613 -0.074,-0.01 -0.1538,0.0438 -0.069,0.0562 c -0.3538,0.27875 -0.6613,0.58375 -0.935,0.92375 -0.3225,-0.29875 -0.6875,-0.5625 -1.14,-0.81625 l -0.1563,-0.0213 -0.075,0.0137 -0.135,0.0888 -0.051,0.0725 c -0.2775,0.415 -0.49,0.81875 -0.61,1.1625 -0.3938,-0.19 -0.82,-0.3375 -1.3288,-0.44875 l -0.16,0.0263 -0.071,0.0362 -0.1025,0.125 -0.027,0.0825 c -0.1288,0.425 -0.21,0.83 -0.2463,1.29 -0.2712,-0.0425 -0.5487,-0.0612 -0.8275,-0.0612 -0.1612,0 -0.325,0.008 -0.5737,0.0263 l -0.1413,0.0738 -0.056,0.0562 -0.059,0.15375 0,0.0825 c 0,0.455 0.044,0.89125 0.1363,1.30375 -0.415,0.0662 -0.8488,0.18375 -1.345,0.37625 l -0.12,0.1175 -0.034,0.08 -0.01,0.15375 0.023,0.0762 c 0.1313,0.4325 0.3125,0.85375 0.52,1.20875 -0.3862,0.1825 -0.7987,0.44625 -1.175,0.75625 l -0.077,0.13875 -0.015,0.0813 0.036,0.15625 0.047,0.0688 c 0.2512,0.375 0.5312,0.705 0.8487,1.0025 -0.3125,0.28875 -0.605,0.635 -0.9,1.0775 l -0.033,0.15625 0.015,0.0825 0.08,0.13375 0.064,0.05 c 0.3587,0.2925 0.7887,0.56125 1.1162,0.6875 -0.215,0.37125 -0.3987,0.79875 -0.5525,1.30875 l 0.015,0.15875 0.034,0.0738 0.1175,0.1075 0.079,0.0312 c 0.4075,0.16375 0.825,0.27875 1.2663,0.34625 -0.095,0.4125 -0.1413,0.8625 -0.1388,1.3925 l 0.064,0.15125 0.059,0.0612 0.1388,0.0625 0.078,0.007 c 0.1637,0.015 0.33,0.0225 0.4937,0.0225 0.2975,0 0.5963,-0.025 0.8225,-0.0712 0.033,0.43 0.115,0.8625 0.2738,1.3775 l 0.1075,0.12875 0.07,0.0412 0.1562,0.02 0.084,-0.0175 c 0.4612,-0.105 0.8862,-0.25125 1.235,-0.43875 0.1612,0.4075 0.3762,0.8075 0.6737,1.24 l 0.135,0.0875 0.082,0.02 0.1588,-0.025 0.071,-0.0412 c 0.4025,-0.22875 0.7438,-0.47875 1.0588,-0.77125 0.2887,0.35875 0.5912,0.65375 0.935,0.92 l 0.069,0.0538 0.1488,0.0462 z"
       inkscape:connector-curvature="0" />
    <path
       id="path3135"
       style="fill:none;stroke:#000000;stroke-width:0.10629921;stroke-linecap:butt;stroke-linejoin:miter;stroke-miterlimit:4;stroke-dasharray:none;stroke-opacity:1"
       d="m 175.23326,957.81215 3.3813,-0.05 0.2,-0.35125 c 0.7862,-1.37625 1.475,-2.92 2.0512,-4.5925 l 0.8088,-0.105 0.905,-0.0512 c 0.825,1.53375 1.7512,3.00125 2.6987,4.26375 l 0.25,0.33625 3.275,-0.46875 0.15,-0.38125 c 0.6125,-1.5475 1.05,-3.2025 1.275,-4.92125 l 0.9125,-0.1975 0.8625,-0.2 c 1,1.36625 2.1,2.61125 3.3375,3.79875 l 0.3,0.2875 3.175,-0.99125 0.075,-0.4175 c 0.3375,-1.7825 0.475,-3.4375 0.45,-5.04375 l 0.925,-0.35875 0.7625,-0.3475 c 1.25,1.28 2.5375,2.34375 3.9125,3.25 l 0.35,0.2325 2.925,-1.51875 0.025,-0.405 c 0.088,-1.62125 -0.025,-3.32125 -0.325,-5.05875 l 1.5125,-0.92375 c 1.4375,1.02375 2.9,1.905 4.3375,2.6275 l 0.375,0.1925 2.7125,-1.9575 -0.038,-0.4075 c -0.175,-1.72625 -0.55,-3.39375 -1.1,-4.97125 l 0.725,-0.56625 0.675,-0.57625 c 1.4375,0.7275 3.0125,1.3675 4.6625,1.9025 l 0.4125,0.13625 2.3875,-2.4125 -0.1125,-0.405 c -0.4875,-1.565 -1.1125,-3.15375 -1.8625,-4.73125 l 0.525,-0.6225 0.6,-0.69375 c 1.5125,0.48875 3.1375,0.85 4.9375,1.10625 l 0.4125,0.0588 2.0375,-2.68375 -0.2,-0.3925 c -0.8125,-1.63875 -1.6625,-3.06375 -2.6,-4.34875 l 0.525,-0.75375 0.4625,-0.7525 c 1.5625,0.2425 3.0625,0.36125 4.5375,0.36125 l 0.9375,-0.0137 1.475,-2.96 -0.2125,-0.33875 c -0.95,-1.46 -2.0375,-2.78625 -3.25,-3.945 l 0.375,-0.82125 0.325,-0.8175 c 1.9125,-0.0213 3.575,-0.18 5.0375,-0.48625 l 0.4,-0.0825 1.1,-3.13 -0.3,-0.315 c -1.2875,-1.30375 -2.5375,-2.41 -3.825,-3.36875 l 0.2375,-0.855 0.1875,-0.87875 c 1.5625,-0.205 3.15,-0.6075 4.8625,-1.23 l 0.4,-0.1425 0.525,-3.2975 -0.325,-0.25875 c -1.3125,-1.0475 -2.7,-1.93375 -4.225,-2.695 l 0.1,-0.94 0.037,-0.835 c 1.675,-0.51375 3.3,-1.20875 4.725,-2.0225 l 0.3625,-0.2075 -0.075,-3.2975 -0.3375,-0.2 c -1.425,-0.81375 -2.9875,-1.505 -4.65,-2.05875 l -0.05,-0.8275 -0.1,-0.935 c 1.3375,-0.6175 2.7125,-1.465 4.3,-2.63375 l 0.3375,-0.25 -0.45,-3.37125 -0.4125,-0.14125 c -1.7375,-0.59625 -3.3375,-1.00875 -4.9,-1.2575 l -0.2125,-0.88625 -0.2375,-0.84 c 1.3125,-0.9125 2.6,-2.02875 3.85,-3.325 l 0.3,-0.31 -1.0875,-3.17125 -0.4,-0.0788 c -1.5625,-0.315 -3.025,-0.46625 -4.4625,-0.46625 -0.2,0 -0.3875,0.002 -0.5875,0.007 l -0.65,-1.655 c 1.2125,-1.2425 2.3125,-2.55625 3.2625,-3.90625 l 0.2375,-0.35125 -1.5125,-2.94 -0.4,-0.025 c -0.4,-0.0263 -0.8125,-0.0388 -1.2125,-0.0388 -1.175,0 -2.45,0.1 -3.8625,0.305 l -0.975,-1.4625 c 1.025,-1.35 1.9,-2.815 2.625,-4.3575 l 0.1625,-0.36875 -1.9375,-2.8 -0.425,0.0637 c -1.4625,0.21 -3,0.56125 -4.95,1.13 l -1.1375,-1.3525 c 0.825,-1.53625 1.475,-3.115 1.9,-4.705 l 0.1125,-0.39 -2.3125,-2.36625 -0.4125,0.115 c -1.55,0.445 -3.1,1.0525 -4.725,1.855 l -0.6625,-0.6175 -0.7125,-0.54125 c 0.525,-1.53125 0.9125,-3.14 1.15,-4.9025 l 0.062,-0.41 -2.675,-2.02625 -0.3875,0.175 c -1.625,0.75 -3.1,1.62375 -4.375,2.6025 l -0.7625,-0.515 -0.7875,-0.46375 c 0.325,-1.70375 0.4375,-3.40875 0.3375,-5.0775 l -0.025,-0.40875 -2.9625,-1.47625 -0.3375,0.23625 c -1.225,0.8425 -2.475,1.865 -3.9,3.20125 l -0.8375,-0.335 -0.75,-0.31 c -0.025,-1.755 -0.1875,-3.45 -0.4875,-5.04625 l -0.075,-0.4 -3.2125,-1.11625 -0.3125,0.3 c -1.325,1.27 -2.4375,2.55875 -3.325,3.83875 l -0.825,-0.2325 -0.9,-0.1925 c -0.2375,-1.61875 -0.6375,-3.27375 -1.2,-4.925 l -0.1375,-0.405 -3.3125,-0.5375 -0.25,0.3325 c -1.1,1.40375 -2.0087,2.8125 -2.7725,4.295 l -0.8787,-0.0937 -0.84,-0.0412 c -0.4838,-1.49875 -1.155,-3.07625 -2,-4.695 l -0.2025,-0.3875 -3.3225,0.0638 -0.1975,0.35625 c -0.7963,1.4275 -1.485,2.98125 -2.0488,4.62625 l -1.7725,0.1025 c -0.8575,-1.67 -1.75,-3.07375 -2.725,-4.2825 l -0.2537,-0.3125 -3.2638,0.46875 -0.1462,0.39375 c -0.5788,1.5525 -0.9913,3.16375 -1.2625,4.91625 l -0.8888,0.205 -0.8425,0.2425 c -0.9087,-1.295 -2.0212,-2.58625 -3.315,-3.84375 l -0.31,-0.3025 -3.1762,1.08625 -0.079,0.40375 c -0.3387,1.7575 -0.5075,3.405 -0.5125,5.02125 l -0.8525,0.315 -0.7662,0.34875 c -1.3038,-1.27125 -2.5775,-2.33625 -3.8888,-3.24625 l -0.345,-0.24 -3.0412,1.50625 0,0.4325 c -0.025,1.76 0.088,3.45 0.3337,5.03 l -1.515,0.925 c -1.4512,-1.02125 -2.8712,-1.88 -4.3337,-2.625 l -0.3963,-0.2025 -2.7262,2.05625 0.054,0.41 c 0.2263,1.675 0.6025,3.34 1.1175,4.95875 l -0.6537,0.55375 -0.6738,0.53 c -1.7675,-0.8675 -3.2762,-1.4575 -4.715,-1.85375 l -0.39,-0.1075 -2.3687,2.3125 0.1125,0.4025 c 0.4487,1.61625 1.0712,3.20625 1.85,4.73125 l -0.59,0.64 -0.6038,0.73 c -1.5225,-0.56125 -3.1462,-0.9425 -4.9437,-1.16 l -0.415,-0.0487 -1.9338,2.68125 0.1713,0.37375 c 0.6962,1.535 1.5525,3.0075 2.5562,4.3825 l -0.9175,1.49125 c -1.4262,-0.2375 -2.9275,-0.35125 -4.5712,-0.35125 l -0.9125,0.009 -1.4913,3.0475 0.2338,0.33875 c 1.0375,1.51375 2.0825,2.77875 3.1862,3.84875 l -0.3912,0.88375 -0.31,0.74875 c -1.7088,0.007 -3.4538,0.17625 -5.0513,0.49125 l -0.41,0.08 -1.005,3.13 0.27,0.3025 c 1.0725,1.19625 2.31,2.3075 3.7725,3.38625 l -0.2375,0.8525 -0.19,0.89125 c -1.7362,0.26125 -3.3325,0.66125 -4.865,1.21625 l -0.3912,0.14375 -0.535,3.3 0.33,0.25875 c 1.4037,1.09875 2.7925,1.9825 4.2312,2.69375 l -0.1025,0.94 -0.041,0.85375 c -1.7213,0.59375 -3.2038,1.23625 -4.63,2.0025 l -0.3688,0.1975 -0.034,3.30125 0.3612,0.205 c 1.3363,0.76375 2.8538,1.435 4.6363,2.05 l 0.054,0.91875 0.095,0.86875 c -1.5912,0.77125 -2.99,1.6675 -4.2675,2.73 l -0.3025,0.25375 0.4688,3.26375 0.4025,0.14375 c 1.5537,0.555 3.1625,0.9675 4.905,1.255 l 0.4025,1.71875 c -1.4638,1.075 -2.7463,2.1975 -3.8075,3.345 l -0.2788,0.3025 0.9888,3.16125 0.4225,0.0788 c 1.8037,0.33 3.4537,0.495 5.0362,0.5075 l 0.3663,0.87 0.3437,0.75625 c -1.21,1.20875 -2.3012,2.52 -3.2462,3.90375 l -0.2325,0.3425 1.5087,3.04375 0.4425,-0.003 c 1.8038,-0.0125 3.45,-0.125 5.01,-0.34125 l 0.92,1.50875 c -1.0575,1.40625 -1.9387,2.875 -2.6275,4.3725 l -0.17,0.37625 1.955,2.71125 0.42,-0.055 c 1.6238,-0.2175 3.2888,-0.59375 4.9563,-1.12125 l 1.145,1.3525 c -0.73,1.42625 -1.37,2.99375 -1.905,4.66375 l -0.1313,0.4125 2.405,2.3825 0.395,-0.11 c 1.55,-0.425 3.1038,-1.0325 4.7338,-1.8525 l 0.625,0.5825 0.6912,0.60375 c -0.5,1.50125 -0.8612,3.125 -1.1037,4.94875 l -0.054,0.4175 2.6938,1.94 0.3775,-0.18 c 1.395,-0.66375 2.8562,-1.52375 4.3562,-2.55875 l 1.5038,0.9275 c -0.2938,1.74125 -0.4075,3.40125 -0.3488,5.06375 l 0.014,0.42 2.95,1.4725 0.3362,-0.2125 c 1.3363,-0.8425 2.6275,-1.895 3.9425,-3.21125 l 0.7938,0.3175 0.8425,0.38875 c 0.023,1.7475 0.1875,3.425 0.4962,4.9925 l 0.077,0.3975 3.125,1.10375 0.315,-0.2975 c 1.1963,-1.135 2.305,-2.375 3.3788,-3.78125 l 1.68,0.3675 c 0.2712,1.705 0.6975,3.3675 1.2712,4.94875 l 0.1425,0.39375 3.3075,0.5375 0.2588,-0.3375 c 1.0162,-1.3275 1.9187,-2.77375 2.6937,-4.29875 l 1.765,0.1875 c 0.5175,1.6475 1.1738,3.21 1.955,4.64875 l 0.205,0.37625 z"
       inkscape:connector-curvature="0" />
    <path
       inkscape:connector-curvature="0"
       id="path4317-2"
       d="m 174.08845,912.42997 0,4.97785 -4.97794,0 0,6.16808 4.97794,0 0,4.97608 6.16805,0 0,-4.97608 4.97606,0 0,-6.16808 -4.97606,0 0,-4.97785 -6.16805,0 z"
       style="display:inline;opacity:1;fill:none;fill-opacity:1;fill-rule:nonzero;stroke:#0000ff;stroke-width:0.10629921;stroke-linecap:round;stroke-miterlimit:4;stroke-dasharray:none;stroke-dashoffset:0;stroke-opacity:1" />
    <path
       style="display:inline;opacity:1;fill:none;fill-opacity:1;fill-rule:nonzero;stroke:#0000ff;stroke-width:0.10629921;stroke-linecap:round;stroke-miterlimit:4;stroke-dasharray:none;stroke-dashoffset:0;stroke-opacity:1"
       d="m 174.08845,855.81694 0,4.97785 -4.97794,0 0,6.16808 4.97794,0 0,4.97608 6.16805,0 0,-4.97608 4.97607,0 0,-6.16808 -4.97607,0 0,-4.97785 -6.16805,0 z"
       id="path5190"
       inkscape:connector-curvature="0" />
    <path
       inkscape:connector-curvature="0"
       id="path4289"
       d="m 149.35083,888.57135 3.51988,3.51987 -3.51994,3.51993 4.36149,4.3615 3.51994,-3.51994 3.51862,3.51862 4.36147,-4.36147 -3.51862,-3.51862 3.51861,-3.51861 -4.36149,-4.36149 -3.51861,3.51861 -3.51988,-3.51987 -4.36147,4.36147 z"
       style="display:inline;opacity:1;fill:none;fill-opacity:1;fill-rule:nonzero;stroke:#0000ff;stroke-width:0.10629921;stroke-linecap:round;stroke-miterlimit:4;stroke-dasharray:none;stroke-dashoffset:0;stroke-opacity:1" />
    <path
       style="display:inline;opacity:1;fill:none;fill-opacity:1;fill-rule:nonzero;stroke:#0000ff;stroke-width:0.10629921;stroke-linecap:round;stroke-miterlimit:4;stroke-dasharray:none;stroke-dashoffset:0;stroke-opacity:1"
       d="m 189.35097,888.57089 3.51987,3.51988 -3.51993,3.51993 4.36149,4.36149 3.51994,-3.51993 3.51862,3.51862 4.36147,-4.36147 -3.51862,-3.51862 3.5186,-3.51861 -4.36149,-4.36149 -3.51861,3.51861 -3.51987,-3.51988 -4.36147,4.36147 z"
       id="path4287"
       inkscape:connector-curvature="0" />
  </g>
</svg>
