G04 This is an RS-274x file exported by *
G04 gerbv version 2.6.0 *
G04 More information is available about gerbv at *
G04 http://gerbv.gpleda.org/ *
G04 --End of header info--*
%MOIN*%
%FSLAX34Y34*%
%IPPOS*%
G04 --Define apertures--*
%ADD10C,0.0138*%
%ADD11C,0.0020*%
%ADD12C,0.0059*%
G04 --Start main section--*
G54D11*
G01X0005122Y-013350D02*
G75*
G03X0005122Y-013350I-001047J0000000D01*
G01X0001003Y-014879D02*
G75*
G03X0002500Y-016371I0001574J0000083D01*
G01X0007146Y-011725D02*
G01X0007146Y-014875D01*
G01X0002500Y-010229D02*
G01X0005650Y-010229D01*
G01X0002500Y-016371D02*
G01X0005650Y-016371D01*
G01X0001004Y-011725D02*
G01X0001004Y-014875D01*
G01X0005654Y-016372D02*
G75*
G03X0007146Y-014875I-000083J0001574D01*
G01X0002496Y-010228D02*
G75*
G03X0001004Y-011725I0000083J-001574D01*
G01X0007147Y-011721D02*
G75*
G03X0005650Y-010229I-001574J-000083D01*
G54D12*
G01X0003616Y-013478D02*
G01X0003429Y-013478D01*
G01X0003429Y-013478D02*
G01X0003429Y-013084D01*
G01X0003747Y-013478D02*
G01X0003747Y-013084D01*
G01X0003747Y-013084D02*
G01X0003841Y-013084D01*
G01X0003841Y-013084D02*
G01X0003897Y-013103D01*
G01X0003897Y-013103D02*
G01X0003935Y-013140D01*
G01X0003935Y-013140D02*
G01X0003954Y-013178D01*
G01X0003954Y-013178D02*
G01X0003972Y-013253D01*
G01X0003972Y-013253D02*
G01X0003972Y-013309D01*
G01X0003972Y-013309D02*
G01X0003954Y-013384D01*
G01X0003954Y-013384D02*
G01X0003935Y-013421D01*
G01X0003935Y-013421D02*
G01X0003897Y-013459D01*
G01X0003897Y-013459D02*
G01X0003841Y-013478D01*
G01X0003841Y-013478D02*
G01X0003747Y-013478D01*
G01X0004366Y-013478D02*
G01X0004235Y-013290D01*
G01X0004141Y-013478D02*
G01X0004141Y-013084D01*
G01X0004141Y-013084D02*
G01X0004291Y-013084D01*
G01X0004291Y-013084D02*
G01X0004328Y-013103D01*
G01X0004328Y-013103D02*
G01X0004347Y-013122D01*
G01X0004347Y-013122D02*
G01X0004366Y-013159D01*
G01X0004366Y-013159D02*
G01X0004366Y-013215D01*
G01X0004366Y-013215D02*
G01X0004347Y-013253D01*
G01X0004347Y-013253D02*
G01X0004328Y-013271D01*
G01X0004328Y-013271D02*
G01X0004291Y-013290D01*
G01X0004291Y-013290D02*
G01X0004141Y-013290D01*
G01X0004741Y-013478D02*
G01X0004516Y-013478D01*
G01X0004628Y-013478D02*
G01X0004628Y-013084D01*
G01X0004628Y-013084D02*
G01X0004591Y-013140D01*
G01X0004591Y-013140D02*
G01X0004553Y-013178D01*
G01X0004553Y-013178D02*
G01X0004516Y-013196D01*
G01X0000000Y0000000D02*
G54D11*
G01X0001003Y-014879D02*
G75*
G03X0002500Y-016371I0001574J0000083D01*
G01X0007146Y-011725D02*
G01X0007146Y-014875D01*
G01X0002500Y-010229D02*
G01X0005650Y-010229D01*
G01X0002500Y-016371D02*
G01X0005650Y-016371D01*
G01X0001004Y-011725D02*
G01X0001004Y-014875D01*
G01X0005654Y-016372D02*
G75*
G03X0007146Y-014875I-000083J0001574D01*
G01X0002496Y-010228D02*
G75*
G03X0001004Y-011725I0000083J-001574D01*
G01X0007147Y-011721D02*
G75*
G03X0005650Y-010229I-001574J-000083D01*
M02*
