%TF.GenerationSoftware,KiCad,Pcbnew,4.0.5-e0-6337~49~ubuntu16.04.1*%
%TF.CreationDate,2017-03-21T10:33:23-07:00*%
%TF.ProjectId,2x2-CdS-Photocell-TH,3278322D4364532D50686F746F63656C,1.0*%
%TF.FileFunction,Soldermask,Bot*%
%FSLAX46Y46*%
G04 Gerber Fmt 4.6, Leading zero omitted, Abs format (unit mm)*
G04 Created by KiCad (PCBNEW 4.0.5-e0-6337~49~ubuntu16.04.1) date Tue Mar 21 10:33:23 2017*
%MOMM*%
%LPD*%
G01*
G04 APERTURE LIST*
%ADD10C,0.350000*%
%ADD11C,7.000000*%
G04 APERTURE END LIST*
D10*
D11*
X13929360Y-19858720D02*
X5929360Y-19858720D01*
X13929360Y-27858720D02*
X5929360Y-27858720D01*
D10*
G36*
X6252470Y-24784567D02*
X6843415Y-24905871D01*
X7399558Y-25139652D01*
X7899694Y-25476998D01*
X8324781Y-25905063D01*
X8658626Y-26407541D01*
X8888516Y-26965296D01*
X9005624Y-27556734D01*
X9005624Y-27556744D01*
X9005691Y-27557083D01*
X8996070Y-28246136D01*
X8995993Y-28246474D01*
X8995993Y-28246482D01*
X8862417Y-28834421D01*
X8617045Y-29385536D01*
X8269297Y-29878498D01*
X7832422Y-30294529D01*
X7323060Y-30617781D01*
X6760614Y-30835939D01*
X6166507Y-30940696D01*
X5563363Y-30928062D01*
X4974160Y-30798517D01*
X4421342Y-30556997D01*
X3925967Y-30212702D01*
X3506897Y-29778743D01*
X3180098Y-29271650D01*
X2958016Y-28710734D01*
X2849115Y-28117378D01*
X2857537Y-27514161D01*
X2982966Y-26924067D01*
X3220619Y-26369578D01*
X3561451Y-25871808D01*
X3992472Y-25449720D01*
X4497273Y-25119388D01*
X5056619Y-24893397D01*
X5649205Y-24780356D01*
X6252470Y-24784567D01*
X6252470Y-24784567D01*
G37*
G36*
X14252470Y-24784567D02*
X14843415Y-24905871D01*
X15399558Y-25139652D01*
X15899694Y-25476998D01*
X16324781Y-25905063D01*
X16658626Y-26407541D01*
X16888516Y-26965296D01*
X17005624Y-27556734D01*
X17005624Y-27556744D01*
X17005691Y-27557083D01*
X16996070Y-28246136D01*
X16995993Y-28246474D01*
X16995993Y-28246482D01*
X16862417Y-28834421D01*
X16617045Y-29385536D01*
X16269297Y-29878498D01*
X15832422Y-30294529D01*
X15323060Y-30617781D01*
X14760614Y-30835939D01*
X14166507Y-30940696D01*
X13563363Y-30928062D01*
X12974160Y-30798517D01*
X12421342Y-30556997D01*
X11925967Y-30212702D01*
X11506897Y-29778743D01*
X11180098Y-29271650D01*
X10958016Y-28710734D01*
X10849115Y-28117378D01*
X10857537Y-27514161D01*
X10982966Y-26924067D01*
X11220619Y-26369578D01*
X11561451Y-25871808D01*
X11992472Y-25449720D01*
X12497273Y-25119388D01*
X13056619Y-24893397D01*
X13649205Y-24780356D01*
X14252470Y-24784567D01*
X14252470Y-24784567D01*
G37*
G36*
X10009391Y-24846035D02*
X10158496Y-24876643D01*
X10298829Y-24935633D01*
X10425022Y-25020752D01*
X10532284Y-25128764D01*
X10616522Y-25255554D01*
X10674527Y-25396285D01*
X10701950Y-25534780D01*
X10704094Y-25545610D01*
X10701666Y-25719474D01*
X10701588Y-25719817D01*
X10701588Y-25719821D01*
X10667942Y-25867916D01*
X10606030Y-26006972D01*
X10518284Y-26131360D01*
X10408049Y-26236335D01*
X10279524Y-26317900D01*
X10137606Y-26372946D01*
X9987700Y-26399379D01*
X9835509Y-26396190D01*
X9686840Y-26363504D01*
X9547348Y-26302561D01*
X9422356Y-26215689D01*
X9316614Y-26106190D01*
X9234154Y-25978237D01*
X9178116Y-25836702D01*
X9150638Y-25686986D01*
X9152763Y-25534780D01*
X9184413Y-25385883D01*
X9244377Y-25245973D01*
X9330378Y-25120373D01*
X9439135Y-25013870D01*
X9566510Y-24930519D01*
X9707647Y-24873495D01*
X9857168Y-24844973D01*
X10009391Y-24846035D01*
X10009391Y-24846035D01*
G37*
G36*
X10009391Y-21446035D02*
X10158496Y-21476643D01*
X10298829Y-21535633D01*
X10425022Y-21620752D01*
X10532284Y-21728764D01*
X10616522Y-21855554D01*
X10674527Y-21996285D01*
X10701950Y-22134780D01*
X10704094Y-22145610D01*
X10701666Y-22319474D01*
X10701588Y-22319817D01*
X10701588Y-22319821D01*
X10667942Y-22467916D01*
X10606030Y-22606972D01*
X10518284Y-22731360D01*
X10408049Y-22836335D01*
X10279524Y-22917900D01*
X10137606Y-22972946D01*
X9987700Y-22999379D01*
X9835509Y-22996190D01*
X9686840Y-22963504D01*
X9547348Y-22902561D01*
X9422356Y-22815689D01*
X9316614Y-22706190D01*
X9234154Y-22578237D01*
X9178116Y-22436702D01*
X9150638Y-22286986D01*
X9152763Y-22134780D01*
X9184413Y-21985883D01*
X9244377Y-21845973D01*
X9330378Y-21720373D01*
X9439135Y-21613870D01*
X9566510Y-21530519D01*
X9707647Y-21473495D01*
X9857168Y-21444973D01*
X10009391Y-21446035D01*
X10009391Y-21446035D01*
G37*
G36*
X6252470Y-16784567D02*
X6843415Y-16905871D01*
X7399558Y-17139652D01*
X7899694Y-17476998D01*
X8324781Y-17905063D01*
X8658626Y-18407541D01*
X8888516Y-18965296D01*
X9005624Y-19556734D01*
X9005624Y-19556744D01*
X9005691Y-19557083D01*
X8996070Y-20246136D01*
X8995993Y-20246474D01*
X8995993Y-20246482D01*
X8862417Y-20834421D01*
X8617045Y-21385536D01*
X8269297Y-21878498D01*
X7832422Y-22294529D01*
X7323060Y-22617781D01*
X6760614Y-22835939D01*
X6166507Y-22940696D01*
X5563363Y-22928062D01*
X4974160Y-22798517D01*
X4421342Y-22556997D01*
X3925967Y-22212702D01*
X3506897Y-21778743D01*
X3180098Y-21271650D01*
X2958016Y-20710734D01*
X2849115Y-20117378D01*
X2857537Y-19514161D01*
X2982966Y-18924067D01*
X3220619Y-18369578D01*
X3561451Y-17871808D01*
X3992472Y-17449720D01*
X4497273Y-17119388D01*
X5056619Y-16893397D01*
X5649205Y-16780356D01*
X6252470Y-16784567D01*
X6252470Y-16784567D01*
G37*
G36*
X14252470Y-16784567D02*
X14843415Y-16905871D01*
X15399558Y-17139652D01*
X15899694Y-17476998D01*
X16324781Y-17905063D01*
X16658626Y-18407541D01*
X16888516Y-18965296D01*
X17005624Y-19556734D01*
X17005624Y-19556744D01*
X17005691Y-19557083D01*
X16996070Y-20246136D01*
X16995993Y-20246474D01*
X16995993Y-20246482D01*
X16862417Y-20834421D01*
X16617045Y-21385536D01*
X16269297Y-21878498D01*
X15832422Y-22294529D01*
X15323060Y-22617781D01*
X14760614Y-22835939D01*
X14166507Y-22940696D01*
X13563363Y-22928062D01*
X12974160Y-22798517D01*
X12421342Y-22556997D01*
X11925967Y-22212702D01*
X11506897Y-21778743D01*
X11180098Y-21271650D01*
X10958016Y-20710734D01*
X10849115Y-20117378D01*
X10857537Y-19514161D01*
X10982966Y-18924067D01*
X11220619Y-18369578D01*
X11561451Y-17871808D01*
X11992472Y-17449720D01*
X12497273Y-17119388D01*
X13056619Y-16893397D01*
X13649205Y-16780356D01*
X14252470Y-16784567D01*
X14252470Y-16784567D01*
G37*
M02*
