%TF.GenerationSoftware,KiCad,Pcbnew,4.0.5-e0-6337~49~ubuntu16.04.1*%
%TF.CreationDate,2017-03-21T10:33:23-07:00*%
%TF.ProjectId,2x2-CdS-Photocell-TH,3278322D4364532D50686F746F63656C,1.0*%
%TF.FileFunction,Legend,Top*%
%FSLAX46Y46*%
G04 Gerber Fmt 4.6, Leading zero omitted, Abs format (unit mm)*
G04 Created by KiCad (PCBNEW 4.0.5-e0-6337~49~ubuntu16.04.1) date Tue Mar 21 10:33:23 2017*
%MOMM*%
%LPD*%
G01*
G04 APERTURE LIST*
%ADD10C,0.350000*%
%ADD11C,7.400000*%
%ADD12C,0.150000*%
G04 APERTURE END LIST*
D10*
D11*
X5929360Y-19794220D02*
X13929360Y-19794220D01*
D12*
X12977979Y-24596363D02*
X12930360Y-24643982D01*
X12787503Y-24691601D01*
X12692265Y-24691601D01*
X12549407Y-24643982D01*
X12454169Y-24548744D01*
X12406550Y-24453506D01*
X12358931Y-24263030D01*
X12358931Y-24120172D01*
X12406550Y-23929696D01*
X12454169Y-23834458D01*
X12549407Y-23739220D01*
X12692265Y-23691601D01*
X12787503Y-23691601D01*
X12930360Y-23739220D01*
X12977979Y-23786839D01*
X13406550Y-24167791D02*
X13739884Y-24167791D01*
X13882741Y-24691601D02*
X13406550Y-24691601D01*
X13406550Y-23691601D01*
X13882741Y-23691601D01*
X14787503Y-24691601D02*
X14311312Y-24691601D01*
X14311312Y-23691601D01*
X15597027Y-24691601D02*
X15120836Y-24691601D01*
X15120836Y-23691601D01*
X3715074Y-24691601D02*
X3715074Y-23691601D01*
X4096027Y-23691601D01*
X4191265Y-23739220D01*
X4238884Y-23786839D01*
X4286503Y-23882077D01*
X4286503Y-24024934D01*
X4238884Y-24120172D01*
X4191265Y-24167791D01*
X4096027Y-24215410D01*
X3715074Y-24215410D01*
X4715074Y-24691601D02*
X4715074Y-23691601D01*
X4715074Y-24167791D02*
X5286503Y-24167791D01*
X5286503Y-24691601D02*
X5286503Y-23691601D01*
X5953169Y-23691601D02*
X6143646Y-23691601D01*
X6238884Y-23739220D01*
X6334122Y-23834458D01*
X6381741Y-24024934D01*
X6381741Y-24358268D01*
X6334122Y-24548744D01*
X6238884Y-24643982D01*
X6143646Y-24691601D01*
X5953169Y-24691601D01*
X5857931Y-24643982D01*
X5762693Y-24548744D01*
X5715074Y-24358268D01*
X5715074Y-24024934D01*
X5762693Y-23834458D01*
X5857931Y-23739220D01*
X5953169Y-23691601D01*
X6667455Y-23691601D02*
X7238884Y-23691601D01*
X6953169Y-24691601D02*
X6953169Y-23691601D01*
X7762693Y-23691601D02*
X7953170Y-23691601D01*
X8048408Y-23739220D01*
X8143646Y-23834458D01*
X8191265Y-24024934D01*
X8191265Y-24358268D01*
X8143646Y-24548744D01*
X8048408Y-24643982D01*
X7953170Y-24691601D01*
X7762693Y-24691601D01*
X7667455Y-24643982D01*
X7572217Y-24548744D01*
X7524598Y-24358268D01*
X7524598Y-24024934D01*
X7572217Y-23834458D01*
X7667455Y-23739220D01*
X7762693Y-23691601D01*
%LPC*%
M02*
