G04 #@! TF.FileFunction,Legend,Top*
%FSLAX46Y46*%
G04 Gerber Fmt 4.6, Leading zero omitted, Abs format (unit mm)*
G04 Created by KiCad (PCBNEW 4.0.1-3.201512221402+6198~38~ubuntu14.04.1-stable) date Thu 03 Mar 2016 09:20:13 PM PST*
%MOMM*%
G01*
G04 APERTURE LIST*
%ADD10C,0.100000*%
%ADD11C,8.000000*%
%ADD12C,5.000000*%
%ADD13C,0.500000*%
%ADD14C,6.000000*%
%ADD15C,0.150000*%
%ADD16C,9.000000*%
G04 APERTURE END LIST*
D10*
D11*
X130336000Y-95731000D02*
X138636000Y-95731000D01*
D12*
X186319214Y-60130000D02*
G75*
G03X186319214Y-60130000I-1414214J0D01*
G01*
X178319214Y-60130000D02*
G75*
G03X178319214Y-60130000I-1414214J0D01*
G01*
D11*
X149386000Y-56051000D02*
X157686000Y-56051000D01*
X111291000Y-114781000D02*
X119591000Y-114781000D01*
D13*
X191754000Y-113592000D02*
X193786000Y-113592000D01*
X191754000Y-105492000D02*
X193786000Y-105492000D01*
X191954000Y-97292000D02*
X193986000Y-97292000D01*
D11*
X111291000Y-55926000D02*
X119591000Y-55926000D01*
D14*
X206802000Y-113464000D02*
X206802000Y-97464000D01*
D11*
X138221000Y-47876000D02*
X130221000Y-47876000D01*
D15*
X78808614Y-110745200D02*
G75*
G03X78808614Y-110745200I-1414214J0D01*
G01*
X75394400Y-113745200D02*
X79394400Y-113745200D01*
X75394400Y-107745200D02*
X79394400Y-107745200D01*
D10*
X74394400Y-110745200D02*
X74394400Y-110745200D01*
X79394400Y-113745200D02*
X75394400Y-113745200D01*
X79394400Y-107745200D02*
X75394400Y-107745200D01*
X80394400Y-110745200D02*
X80394400Y-110745200D01*
X78808614Y-110745200D02*
G75*
G03X78808614Y-110745200I-1414214J0D01*
G01*
D15*
X78808614Y-71695200D02*
G75*
G03X78808614Y-71695200I-1414214J0D01*
G01*
X75394400Y-74695200D02*
X79394400Y-74695200D01*
X75394400Y-68695200D02*
X79394400Y-68695200D01*
D10*
X74394400Y-71695200D02*
X74394400Y-71695200D01*
X79394400Y-74695200D02*
X75394400Y-74695200D01*
X79394400Y-68695200D02*
X75394400Y-68695200D01*
X80394400Y-71695200D02*
X80394400Y-71695200D01*
X78808614Y-71695200D02*
G75*
G03X78808614Y-71695200I-1414214J0D01*
G01*
D11*
X91931000Y-114781000D02*
X100231000Y-114781000D01*
D12*
X204985214Y-60490000D02*
G75*
G03X204985214Y-60490000I-1414214J0D01*
G01*
D11*
X138983000Y-106731000D02*
X130983000Y-106731000D01*
X119496000Y-87681000D02*
X111496000Y-87681000D01*
D12*
X186319214Y-49400000D02*
G75*
G03X186319214Y-49400000I-1414214J0D01*
G01*
X178319214Y-49400000D02*
G75*
G03X178319214Y-49400000I-1414214J0D01*
G01*
D11*
X92761000Y-67431000D02*
X100761000Y-67431000D01*
D15*
X95261000Y-69201000D02*
X98261000Y-69201000D01*
D12*
X74810214Y-55876000D02*
G75*
G03X74810214Y-55876000I-1414214J0D01*
G01*
X82810214Y-55876000D02*
G75*
G03X82810214Y-55876000I-1414214J0D01*
G01*
X94175214Y-55876000D02*
G75*
G03X94175214Y-55876000I-1414214J0D01*
G01*
X102175214Y-55876000D02*
G75*
G03X102175214Y-55876000I-1414214J0D01*
G01*
D11*
X92761000Y-87621000D02*
X100761000Y-87621000D01*
D15*
X95261000Y-89391000D02*
X98261000Y-89391000D01*
D12*
X170319214Y-70860000D02*
G75*
G03X170319214Y-70860000I-1414214J0D01*
G01*
X186319214Y-78860000D02*
G75*
G03X186319214Y-78860000I-1414214J0D01*
G01*
X170319214Y-78860000D02*
G75*
G03X170319214Y-78860000I-1414214J0D01*
G01*
X178319214Y-86860000D02*
G75*
G03X178319214Y-86860000I-1414214J0D01*
G01*
X178319214Y-70860000D02*
G75*
G03X178319214Y-70860000I-1414214J0D01*
G01*
X186319213Y-86860000D02*
G75*
G03X186319213Y-86860000I-1414213J0D01*
G01*
D16*
X178319214Y-78860000D02*
G75*
G03X178319214Y-78860000I-1414214J0D01*
G01*
D12*
X197239214Y-70860000D02*
G75*
G03X197239214Y-70860000I-1414214J0D01*
G01*
X213239214Y-78860000D02*
G75*
G03X213239214Y-78860000I-1414214J0D01*
G01*
X197239214Y-78860000D02*
G75*
G03X197239214Y-78860000I-1414214J0D01*
G01*
X205239214Y-86860000D02*
G75*
G03X205239214Y-86860000I-1414214J0D01*
G01*
X205239214Y-70860000D02*
G75*
G03X205239214Y-70860000I-1414214J0D01*
G01*
X213239213Y-86860000D02*
G75*
G03X213239213Y-86860000I-1414213J0D01*
G01*
D16*
X205239214Y-78860000D02*
G75*
G03X205239214Y-78860000I-1414214J0D01*
G01*
D11*
X73716000Y-95366000D02*
X81616000Y-95366000D01*
D15*
X171848200Y-107594600D02*
X171848200Y-103594600D01*
X165848200Y-107594600D02*
X165848200Y-103594600D01*
D10*
X168848200Y-108594600D02*
X168848200Y-108594600D01*
X171848200Y-103594600D02*
X171848200Y-107594600D01*
X165848200Y-103594600D02*
X165848200Y-107594600D01*
X168848200Y-102594600D02*
X168848200Y-102594600D01*
X170262414Y-105594600D02*
G75*
G03X170262414Y-105594600I-1414214J0D01*
G01*
D15*
X181848200Y-107594600D02*
X181848200Y-103594600D01*
X175848200Y-107594600D02*
X175848200Y-103594600D01*
D10*
X178848200Y-108594600D02*
X178848200Y-108594600D01*
X181848200Y-103594600D02*
X181848200Y-107594600D01*
X175848200Y-103594600D02*
X175848200Y-107594600D01*
X178848200Y-102594600D02*
X178848200Y-102594600D01*
X180262414Y-105594600D02*
G75*
G03X180262414Y-105594600I-1414214J0D01*
G01*
D15*
X153705048Y-97437429D02*
X154466953Y-97437429D01*
X154086001Y-97818381D02*
X154086001Y-97056476D01*
X153205048Y-75437429D02*
X153966953Y-75437429D01*
X153586001Y-75818381D02*
X153586001Y-75056476D01*
X153205048Y-67437429D02*
X153966953Y-67437429D01*
X214421048Y-101535429D02*
X215182953Y-101535429D01*
X214802001Y-101916381D02*
X214802001Y-101154476D01*
X206873429Y-109844952D02*
X206873429Y-109083047D01*
X206873429Y-101844952D02*
X206873429Y-101083047D01*
X214421048Y-109535429D02*
X215182953Y-109535429D01*
X214802001Y-109916381D02*
X214802001Y-109154476D01*
X133840048Y-55947429D02*
X134601953Y-55947429D01*
X134221001Y-56328381D02*
X134221001Y-55566476D01*
X133840048Y-47947429D02*
X134601953Y-47947429D01*
X207190048Y-57561429D02*
X207951953Y-57561429D01*
X207190048Y-63661429D02*
X207951953Y-63661429D01*
X207571001Y-64042381D02*
X207571001Y-63280476D01*
X134602048Y-114802429D02*
X135363953Y-114802429D01*
X134983001Y-115183381D02*
X134983001Y-114421476D01*
X134602048Y-106802429D02*
X135363953Y-106802429D01*
X115115048Y-95752429D02*
X115876953Y-95752429D01*
X115496001Y-96133381D02*
X115496001Y-95371476D01*
X115115048Y-87752429D02*
X115876953Y-87752429D01*
X96380048Y-75702429D02*
X97141953Y-75702429D01*
X96761001Y-76083381D02*
X96761001Y-75321476D01*
X77015048Y-45947429D02*
X77776953Y-45947429D01*
X77396001Y-46328381D02*
X77396001Y-45566476D01*
X77015048Y-58947429D02*
X77776953Y-58947429D01*
X96380048Y-45947429D02*
X97141953Y-45947429D01*
X96761001Y-46328381D02*
X96761001Y-45566476D01*
X96380048Y-58947429D02*
X97141953Y-58947429D01*
X96380048Y-95892429D02*
X97141953Y-95892429D01*
X96761001Y-96273381D02*
X96761001Y-95511476D01*
X186924048Y-74331429D02*
X187685953Y-74331429D01*
X187305001Y-74712381D02*
X187305001Y-73950476D01*
X172124048Y-89331429D02*
X172885953Y-89331429D01*
X172505001Y-89712381D02*
X172505001Y-88950476D01*
X213844048Y-74331429D02*
X214605953Y-74331429D01*
X214225001Y-74712381D02*
X214225001Y-73950476D01*
X199044048Y-89331429D02*
X199805953Y-89331429D01*
X199425001Y-89712381D02*
X199425001Y-88950476D01*
X76335048Y-85437429D02*
X77096953Y-85437429D01*
X76716001Y-85818381D02*
X76716001Y-85056476D01*
X78335048Y-85437429D02*
X79096953Y-85437429D01*
X78716001Y-85818381D02*
X78716001Y-85056476D01*
X154234048Y-109613429D02*
X154995953Y-109613429D01*
X154615001Y-109994381D02*
X154615001Y-109232476D01*
X151234048Y-103413429D02*
X151995953Y-103413429D01*
X208580048Y-52098429D02*
X209341953Y-52098429D01*
X205880048Y-46998429D02*
X206641953Y-46998429D01*
X206261001Y-47379381D02*
X206261001Y-46617476D01*
M02*
