%TF.GenerationSoftware,KiCad,Pcbnew,4.0.5-e0-6337~49~ubuntu16.04.1*%
%TF.CreationDate,2017-05-27T13:47:07-07:00*%
%TF.ProjectId,1x2-Generic-1206-SMT,3178322D47656E657269632D31323036,v1.2*%
%TF.FileFunction,Soldermask,Bot*%
%FSLAX46Y46*%
G04 Gerber Fmt 4.6, Leading zero omitted, Abs format (unit mm)*
G04 Created by KiCad (PCBNEW 4.0.5-e0-6337~49~ubuntu16.04.1) date Sat May 27 13:47:07 2017*
%MOMM*%
%LPD*%
G01*
G04 APERTURE LIST*
%ADD10C,0.350000*%
%ADD11C,7.000000*%
G04 APERTURE END LIST*
D10*
D11*
X7684000Y-42359000D02*
X7785600Y-42359000D01*
X15456400Y-42333600D02*
X15558000Y-42333600D01*
D10*
G36*
X8007110Y-39284847D02*
X8598055Y-39406151D01*
X9154198Y-39639932D01*
X9654334Y-39977278D01*
X10079421Y-40405343D01*
X10413266Y-40907821D01*
X10643156Y-41465576D01*
X10760264Y-42057014D01*
X10760264Y-42057024D01*
X10760331Y-42057363D01*
X10750710Y-42746416D01*
X10750633Y-42746754D01*
X10750633Y-42746762D01*
X10617057Y-43334701D01*
X10371685Y-43885816D01*
X10023937Y-44378778D01*
X9587062Y-44794809D01*
X9077700Y-45118061D01*
X8515254Y-45336219D01*
X7921147Y-45440976D01*
X7318003Y-45428342D01*
X6728800Y-45298797D01*
X6175982Y-45057277D01*
X5680607Y-44712982D01*
X5261537Y-44279023D01*
X4934738Y-43771930D01*
X4712656Y-43211014D01*
X4603755Y-42617658D01*
X4612177Y-42014441D01*
X4737606Y-41424347D01*
X4975259Y-40869858D01*
X5316091Y-40372088D01*
X5747112Y-39950000D01*
X6251913Y-39619668D01*
X6811259Y-39393677D01*
X7403845Y-39280636D01*
X8007110Y-39284847D01*
X8007110Y-39284847D01*
G37*
G36*
X16007110Y-39284847D02*
X16598055Y-39406151D01*
X17154198Y-39639932D01*
X17654334Y-39977278D01*
X18079421Y-40405343D01*
X18413266Y-40907821D01*
X18643156Y-41465576D01*
X18760264Y-42057014D01*
X18760264Y-42057024D01*
X18760331Y-42057363D01*
X18750710Y-42746416D01*
X18750633Y-42746754D01*
X18750633Y-42746762D01*
X18617057Y-43334701D01*
X18371685Y-43885816D01*
X18023937Y-44378778D01*
X17587062Y-44794809D01*
X17077700Y-45118061D01*
X16515254Y-45336219D01*
X15921147Y-45440976D01*
X15318003Y-45428342D01*
X14728800Y-45298797D01*
X14175982Y-45057277D01*
X13680607Y-44712982D01*
X13261537Y-44279023D01*
X12934738Y-43771930D01*
X12712656Y-43211014D01*
X12603755Y-42617658D01*
X12612177Y-42014441D01*
X12737606Y-41424347D01*
X12975259Y-40869858D01*
X13316091Y-40372088D01*
X13747112Y-39950000D01*
X14251913Y-39619668D01*
X14811259Y-39393677D01*
X15403845Y-39280636D01*
X16007110Y-39284847D01*
X16007110Y-39284847D01*
G37*
M02*
