%TF.GenerationSoftware,KiCad,Pcbnew,4.0.5-e0-6337~49~ubuntu16.04.1*%
%TF.CreationDate,2017-02-13T10:09:09-08:00*%
%TF.ProjectId,1x2-Generic-1206-SMT,3178322D47656E657269632D31323036,1.0*%
%TF.FileFunction,Other,Fab,Top*%
%FSLAX46Y46*%
G04 Gerber Fmt 4.6, Leading zero omitted, Abs format (unit mm)*
G04 Created by KiCad (PCBNEW 4.0.5-e0-6337~49~ubuntu16.04.1) date Mon Feb 13 10:09:09 2017*
%MOMM*%
%LPD*%
G01*
G04 APERTURE LIST*
%ADD10C,0.350000*%
%ADD11C,0.127000*%
%ADD12C,0.046400*%
%ADD13C,0.040640*%
%ADD14C,0.150000*%
G04 APERTURE END LIST*
D10*
D11*
X143891000Y-93726000D02*
X144653000Y-93726000D01*
D12*
X143129000Y-98679000D02*
X143129000Y-92964000D01*
X145288000Y-98679000D02*
X143129000Y-98679000D01*
X145288000Y-92964000D02*
X145288000Y-98679000D01*
X143129000Y-92964000D02*
X145288000Y-92964000D01*
D13*
X148308000Y-91985000D02*
X140108000Y-91985000D01*
X148144169Y-99786114D02*
G75*
G03X148208000Y-91985000I-36169J3901114D01*
G01*
X140208000Y-91983718D02*
G75*
G03X140308000Y-99785000I0J-3901282D01*
G01*
X148208000Y-99785000D02*
X140308000Y-99785000D01*
D11*
X143891000Y-97917000D02*
X144653000Y-97917000D01*
X144272000Y-98298000D02*
X144272000Y-97536000D01*
D14*
X144660381Y-96527857D02*
X144660381Y-97004048D01*
X143660381Y-97004048D01*
X144136571Y-96194524D02*
X144136571Y-95861190D01*
X144660381Y-95718333D02*
X144660381Y-96194524D01*
X143660381Y-96194524D01*
X143660381Y-95718333D01*
X144660381Y-95289762D02*
X143660381Y-95289762D01*
X143660381Y-95051667D01*
X143708000Y-94908809D01*
X143803238Y-94813571D01*
X143898476Y-94765952D01*
X144088952Y-94718333D01*
X144231810Y-94718333D01*
X144422286Y-94765952D01*
X144517524Y-94813571D01*
X144612762Y-94908809D01*
X144660381Y-95051667D01*
X144660381Y-95289762D01*
M02*
