%TF.GenerationSoftware,KiCad,Pcbnew,4.0.5-e0-6337~49~ubuntu16.04.1*%
%TF.CreationDate,2017-02-13T22:05:10-08:00*%
%TF.ProjectId,1x2-Generic-1206-SMT,3178322D47656E657269632D31323036,1.0*%
%TF.FileFunction,Soldermask,Bot*%
%FSLAX46Y46*%
G04 Gerber Fmt 4.6, Leading zero omitted, Abs format (unit mm)*
G04 Created by KiCad (PCBNEW 4.0.5-e0-6337~49~ubuntu16.04.1) date Mon Feb 13 22:05:10 2017*
%MOMM*%
%LPD*%
G01*
G04 APERTURE LIST*
%ADD10C,0.350000*%
%ADD11C,7.000000*%
G04 APERTURE END LIST*
D10*
D11*
X30404800Y-31064200D02*
X30506400Y-31064200D01*
X38177200Y-31038800D02*
X38278800Y-31038800D01*
D10*
G36*
X30727910Y-27990047D02*
X31318855Y-28111351D01*
X31874998Y-28345132D01*
X32375134Y-28682478D01*
X32800221Y-29110543D01*
X33134066Y-29613021D01*
X33363956Y-30170776D01*
X33481064Y-30762214D01*
X33481064Y-30762224D01*
X33481131Y-30762563D01*
X33471510Y-31451616D01*
X33471433Y-31451954D01*
X33471433Y-31451962D01*
X33337857Y-32039901D01*
X33092485Y-32591016D01*
X32744737Y-33083978D01*
X32307862Y-33500009D01*
X31798500Y-33823261D01*
X31236054Y-34041419D01*
X30641947Y-34146176D01*
X30038803Y-34133542D01*
X29449600Y-34003997D01*
X28896782Y-33762477D01*
X28401407Y-33418182D01*
X27982337Y-32984223D01*
X27655538Y-32477130D01*
X27433456Y-31916214D01*
X27324555Y-31322858D01*
X27332977Y-30719641D01*
X27458406Y-30129547D01*
X27696059Y-29575058D01*
X28036891Y-29077288D01*
X28467912Y-28655200D01*
X28972713Y-28324868D01*
X29532059Y-28098877D01*
X30124645Y-27985836D01*
X30727910Y-27990047D01*
X30727910Y-27990047D01*
G37*
G36*
X38727910Y-27990047D02*
X39318855Y-28111351D01*
X39874998Y-28345132D01*
X40375134Y-28682478D01*
X40800221Y-29110543D01*
X41134066Y-29613021D01*
X41363956Y-30170776D01*
X41481064Y-30762214D01*
X41481064Y-30762224D01*
X41481131Y-30762563D01*
X41471510Y-31451616D01*
X41471433Y-31451954D01*
X41471433Y-31451962D01*
X41337857Y-32039901D01*
X41092485Y-32591016D01*
X40744737Y-33083978D01*
X40307862Y-33500009D01*
X39798500Y-33823261D01*
X39236054Y-34041419D01*
X38641947Y-34146176D01*
X38038803Y-34133542D01*
X37449600Y-34003997D01*
X36896782Y-33762477D01*
X36401407Y-33418182D01*
X35982337Y-32984223D01*
X35655538Y-32477130D01*
X35433456Y-31916214D01*
X35324555Y-31322858D01*
X35332977Y-30719641D01*
X35458406Y-30129547D01*
X35696059Y-29575058D01*
X36036891Y-29077288D01*
X36467912Y-28655200D01*
X36972713Y-28324868D01*
X37532059Y-28098877D01*
X38124645Y-27985836D01*
X38727910Y-27990047D01*
X38727910Y-27990047D01*
G37*
M02*
