%TF.GenerationSoftware,KiCad,Pcbnew,4.0.5-e0-6337~49~ubuntu16.04.1*%
%TF.CreationDate,2017-01-24T12:46:13-08:00*%
%TF.ProjectId,5x10-Teensy-LC-Breakout,357831302D5465656E73792D4C432D42,1.0*%
%TF.FileFunction,Soldermask,Bot*%
%FSLAX46Y46*%
G04 Gerber Fmt 4.6, Leading zero omitted, Abs format (unit mm)*
G04 Created by KiCad (PCBNEW 4.0.5-e0-6337~49~ubuntu16.04.1) date Tue Jan 24 12:46:13 2017*
%MOMM*%
%LPD*%
G01*
G04 APERTURE LIST*
%ADD10C,0.350000*%
G04 APERTURE END LIST*
D10*
G36*
X136707870Y-116214407D02*
X137298815Y-116335711D01*
X137854958Y-116569492D01*
X138355094Y-116906838D01*
X138780181Y-117334903D01*
X139114026Y-117837381D01*
X139343916Y-118395136D01*
X139461024Y-118986574D01*
X139461024Y-118986584D01*
X139461091Y-118986923D01*
X139451470Y-119675976D01*
X139451393Y-119676314D01*
X139451393Y-119676322D01*
X139317817Y-120264261D01*
X139072445Y-120815376D01*
X138724697Y-121308338D01*
X138287822Y-121724369D01*
X137778460Y-122047621D01*
X137216014Y-122265779D01*
X136621907Y-122370536D01*
X136018763Y-122357902D01*
X135429560Y-122228357D01*
X134876742Y-121986837D01*
X134381367Y-121642542D01*
X133962297Y-121208583D01*
X133635498Y-120701490D01*
X133413416Y-120140574D01*
X133304515Y-119547218D01*
X133312937Y-118944001D01*
X133438366Y-118353907D01*
X133676019Y-117799418D01*
X134016851Y-117301648D01*
X134447872Y-116879560D01*
X134952673Y-116549228D01*
X135512019Y-116323237D01*
X136104605Y-116210196D01*
X136707870Y-116214407D01*
X136707870Y-116214407D01*
G37*
G36*
X128707870Y-116214407D02*
X129298815Y-116335711D01*
X129854958Y-116569492D01*
X130355094Y-116906838D01*
X130780181Y-117334903D01*
X131114026Y-117837381D01*
X131343916Y-118395136D01*
X131461024Y-118986574D01*
X131461024Y-118986584D01*
X131461091Y-118986923D01*
X131451470Y-119675976D01*
X131451393Y-119676314D01*
X131451393Y-119676322D01*
X131317817Y-120264261D01*
X131072445Y-120815376D01*
X130724697Y-121308338D01*
X130287822Y-121724369D01*
X129778460Y-122047621D01*
X129216014Y-122265779D01*
X128621907Y-122370536D01*
X128018763Y-122357902D01*
X127429560Y-122228357D01*
X126876742Y-121986837D01*
X126381367Y-121642542D01*
X125962297Y-121208583D01*
X125635498Y-120701490D01*
X125413416Y-120140574D01*
X125304515Y-119547218D01*
X125312937Y-118944001D01*
X125438366Y-118353907D01*
X125676019Y-117799418D01*
X126016851Y-117301648D01*
X126447872Y-116879560D01*
X126952673Y-116549228D01*
X127512019Y-116323237D01*
X128104605Y-116210196D01*
X128707870Y-116214407D01*
X128707870Y-116214407D01*
G37*
G36*
X120708870Y-116214407D02*
X121299815Y-116335711D01*
X121855958Y-116569492D01*
X122356094Y-116906838D01*
X122781181Y-117334903D01*
X123115026Y-117837381D01*
X123344916Y-118395136D01*
X123462024Y-118986574D01*
X123462024Y-118986584D01*
X123462091Y-118986923D01*
X123452470Y-119675976D01*
X123452393Y-119676314D01*
X123452393Y-119676322D01*
X123318817Y-120264261D01*
X123073445Y-120815376D01*
X122725697Y-121308338D01*
X122288822Y-121724369D01*
X121779460Y-122047621D01*
X121217014Y-122265779D01*
X120622907Y-122370536D01*
X120019763Y-122357902D01*
X119430560Y-122228357D01*
X118877742Y-121986837D01*
X118382367Y-121642542D01*
X117963297Y-121208583D01*
X117636498Y-120701490D01*
X117414416Y-120140574D01*
X117305515Y-119547218D01*
X117313937Y-118944001D01*
X117439366Y-118353907D01*
X117677019Y-117799418D01*
X118017851Y-117301648D01*
X118448872Y-116879560D01*
X118953673Y-116549228D01*
X119513019Y-116323237D01*
X120105605Y-116210196D01*
X120708870Y-116214407D01*
X120708870Y-116214407D01*
G37*
G36*
X144707870Y-116214407D02*
X145298815Y-116335711D01*
X145854958Y-116569492D01*
X146355094Y-116906838D01*
X146780181Y-117334903D01*
X147114026Y-117837381D01*
X147343916Y-118395136D01*
X147461024Y-118986574D01*
X147461024Y-118986584D01*
X147461091Y-118986923D01*
X147451470Y-119675976D01*
X147451393Y-119676314D01*
X147451393Y-119676322D01*
X147317817Y-120264261D01*
X147072445Y-120815376D01*
X146724697Y-121308338D01*
X146287822Y-121724369D01*
X145778460Y-122047621D01*
X145216014Y-122265779D01*
X144621907Y-122370536D01*
X144018763Y-122357902D01*
X143429560Y-122228357D01*
X142876742Y-121986837D01*
X142381367Y-121642542D01*
X141962297Y-121208583D01*
X141635498Y-120701490D01*
X141413416Y-120140574D01*
X141304515Y-119547218D01*
X141312937Y-118944001D01*
X141438366Y-118353907D01*
X141676019Y-117799418D01*
X142016851Y-117301648D01*
X142447872Y-116879560D01*
X142952673Y-116549228D01*
X143512019Y-116323237D01*
X144104605Y-116210196D01*
X144707870Y-116214407D01*
X144707870Y-116214407D01*
G37*
G36*
X152707870Y-116214407D02*
X153298815Y-116335711D01*
X153854958Y-116569492D01*
X154355094Y-116906838D01*
X154780181Y-117334903D01*
X155114026Y-117837381D01*
X155343916Y-118395136D01*
X155461024Y-118986574D01*
X155461024Y-118986584D01*
X155461091Y-118986923D01*
X155451470Y-119675976D01*
X155451393Y-119676314D01*
X155451393Y-119676322D01*
X155317817Y-120264261D01*
X155072445Y-120815376D01*
X154724697Y-121308338D01*
X154287822Y-121724369D01*
X153778460Y-122047621D01*
X153216014Y-122265779D01*
X152621907Y-122370536D01*
X152018763Y-122357902D01*
X151429560Y-122228357D01*
X150876742Y-121986837D01*
X150381367Y-121642542D01*
X149962297Y-121208583D01*
X149635498Y-120701490D01*
X149413416Y-120140574D01*
X149304515Y-119547218D01*
X149312937Y-118944001D01*
X149438366Y-118353907D01*
X149676019Y-117799418D01*
X150016851Y-117301648D01*
X150447872Y-116879560D01*
X150952673Y-116549228D01*
X151512019Y-116323237D01*
X152104605Y-116210196D01*
X152707870Y-116214407D01*
X152707870Y-116214407D01*
G37*
G36*
X120708870Y-108214407D02*
X121299815Y-108335711D01*
X121855958Y-108569492D01*
X122356094Y-108906838D01*
X122781181Y-109334903D01*
X123115026Y-109837381D01*
X123344916Y-110395136D01*
X123462024Y-110986574D01*
X123462024Y-110986584D01*
X123462091Y-110986923D01*
X123452470Y-111675976D01*
X123452393Y-111676314D01*
X123452393Y-111676322D01*
X123318817Y-112264261D01*
X123073445Y-112815376D01*
X122725697Y-113308338D01*
X122288822Y-113724369D01*
X121779460Y-114047621D01*
X121217014Y-114265779D01*
X120622907Y-114370536D01*
X120019763Y-114357902D01*
X119430560Y-114228357D01*
X118877742Y-113986837D01*
X118382367Y-113642542D01*
X117963297Y-113208583D01*
X117636498Y-112701490D01*
X117414416Y-112140574D01*
X117305515Y-111547218D01*
X117313937Y-110944001D01*
X117439366Y-110353907D01*
X117677019Y-109799418D01*
X118017851Y-109301648D01*
X118448872Y-108879560D01*
X118953673Y-108549228D01*
X119513019Y-108323237D01*
X120105605Y-108210196D01*
X120708870Y-108214407D01*
X120708870Y-108214407D01*
G37*
G36*
X152707870Y-108214407D02*
X153298815Y-108335711D01*
X153854958Y-108569492D01*
X154355094Y-108906838D01*
X154780181Y-109334903D01*
X155114026Y-109837381D01*
X155343916Y-110395136D01*
X155461024Y-110986574D01*
X155461024Y-110986584D01*
X155461091Y-110986923D01*
X155451470Y-111675976D01*
X155451393Y-111676314D01*
X155451393Y-111676322D01*
X155317817Y-112264261D01*
X155072445Y-112815376D01*
X154724697Y-113308338D01*
X154287822Y-113724369D01*
X153778460Y-114047621D01*
X153216014Y-114265779D01*
X152621907Y-114370536D01*
X152018763Y-114357902D01*
X151429560Y-114228357D01*
X150876742Y-113986837D01*
X150381367Y-113642542D01*
X149962297Y-113208583D01*
X149635498Y-112701490D01*
X149413416Y-112140574D01*
X149304515Y-111547218D01*
X149312937Y-110944001D01*
X149438366Y-110353907D01*
X149676019Y-109799418D01*
X150016851Y-109301648D01*
X150447872Y-108879560D01*
X150952673Y-108549228D01*
X151512019Y-108323237D01*
X152104605Y-108210196D01*
X152707870Y-108214407D01*
X152707870Y-108214407D01*
G37*
G36*
X120708870Y-100214407D02*
X121299815Y-100335711D01*
X121855958Y-100569492D01*
X122356094Y-100906838D01*
X122781181Y-101334903D01*
X123115026Y-101837381D01*
X123344916Y-102395136D01*
X123462024Y-102986574D01*
X123462024Y-102986584D01*
X123462091Y-102986923D01*
X123452470Y-103675976D01*
X123452393Y-103676314D01*
X123452393Y-103676322D01*
X123318817Y-104264261D01*
X123073445Y-104815376D01*
X122725697Y-105308338D01*
X122288822Y-105724369D01*
X121779460Y-106047621D01*
X121217014Y-106265779D01*
X120622907Y-106370536D01*
X120019763Y-106357902D01*
X119430560Y-106228357D01*
X118877742Y-105986837D01*
X118382367Y-105642542D01*
X117963297Y-105208583D01*
X117636498Y-104701490D01*
X117414416Y-104140574D01*
X117305515Y-103547218D01*
X117313937Y-102944001D01*
X117439366Y-102353907D01*
X117677019Y-101799418D01*
X118017851Y-101301648D01*
X118448872Y-100879560D01*
X118953673Y-100549228D01*
X119513019Y-100323237D01*
X120105605Y-100210196D01*
X120708870Y-100214407D01*
X120708870Y-100214407D01*
G37*
G36*
X152707870Y-100214407D02*
X153298815Y-100335711D01*
X153854958Y-100569492D01*
X154355094Y-100906838D01*
X154780181Y-101334903D01*
X155114026Y-101837381D01*
X155343916Y-102395136D01*
X155461024Y-102986574D01*
X155461024Y-102986584D01*
X155461091Y-102986923D01*
X155451470Y-103675976D01*
X155451393Y-103676314D01*
X155451393Y-103676322D01*
X155317817Y-104264261D01*
X155072445Y-104815376D01*
X154724697Y-105308338D01*
X154287822Y-105724369D01*
X153778460Y-106047621D01*
X153216014Y-106265779D01*
X152621907Y-106370536D01*
X152018763Y-106357902D01*
X151429560Y-106228357D01*
X150876742Y-105986837D01*
X150381367Y-105642542D01*
X149962297Y-105208583D01*
X149635498Y-104701490D01*
X149413416Y-104140574D01*
X149304515Y-103547218D01*
X149312937Y-102944001D01*
X149438366Y-102353907D01*
X149676019Y-101799418D01*
X150016851Y-101301648D01*
X150447872Y-100879560D01*
X150952673Y-100549228D01*
X151512019Y-100323237D01*
X152104605Y-100210196D01*
X152707870Y-100214407D01*
X152707870Y-100214407D01*
G37*
G36*
X143930475Y-99219884D02*
X144111008Y-99256943D01*
X144280918Y-99328366D01*
X144433709Y-99431426D01*
X144563581Y-99562206D01*
X144665570Y-99715713D01*
X144735803Y-99886111D01*
X144771532Y-100066559D01*
X144771532Y-100066564D01*
X144771600Y-100066908D01*
X144768661Y-100277418D01*
X144768584Y-100277756D01*
X144768584Y-100277766D01*
X144727830Y-100457146D01*
X144652868Y-100625512D01*
X144546628Y-100776116D01*
X144413159Y-100903217D01*
X144257544Y-101001974D01*
X144085714Y-101068622D01*
X143904212Y-101100626D01*
X143719946Y-101096766D01*
X143539939Y-101057189D01*
X143371048Y-100983403D01*
X143219710Y-100878220D01*
X143091681Y-100745642D01*
X142991841Y-100590721D01*
X142923992Y-100419353D01*
X142890723Y-100238083D01*
X142893295Y-100053796D01*
X142931616Y-99873516D01*
X143004219Y-99704117D01*
X143108347Y-99552044D01*
X143240026Y-99423093D01*
X143394247Y-99322174D01*
X143565132Y-99253132D01*
X143746169Y-99218598D01*
X143930475Y-99219884D01*
X143930475Y-99219884D01*
G37*
G36*
X128690475Y-99219884D02*
X128871008Y-99256943D01*
X129040918Y-99328366D01*
X129193709Y-99431426D01*
X129323581Y-99562206D01*
X129425570Y-99715713D01*
X129495803Y-99886111D01*
X129531532Y-100066559D01*
X129531532Y-100066564D01*
X129531600Y-100066908D01*
X129528661Y-100277418D01*
X129528584Y-100277756D01*
X129528584Y-100277766D01*
X129487830Y-100457146D01*
X129412868Y-100625512D01*
X129306628Y-100776116D01*
X129173159Y-100903217D01*
X129017544Y-101001974D01*
X128845714Y-101068622D01*
X128664212Y-101100626D01*
X128479946Y-101096766D01*
X128299939Y-101057189D01*
X128131048Y-100983403D01*
X127979710Y-100878220D01*
X127851681Y-100745642D01*
X127751841Y-100590721D01*
X127683992Y-100419353D01*
X127650723Y-100238083D01*
X127653295Y-100053796D01*
X127691616Y-99873516D01*
X127764219Y-99704117D01*
X127868347Y-99552044D01*
X128000026Y-99423093D01*
X128154247Y-99322174D01*
X128325132Y-99253132D01*
X128506169Y-99218598D01*
X128690475Y-99219884D01*
X128690475Y-99219884D01*
G37*
G36*
X128690475Y-96679884D02*
X128871008Y-96716943D01*
X129040918Y-96788366D01*
X129193709Y-96891426D01*
X129323581Y-97022206D01*
X129425570Y-97175713D01*
X129495803Y-97346111D01*
X129531532Y-97526559D01*
X129531532Y-97526564D01*
X129531600Y-97526908D01*
X129528661Y-97737418D01*
X129528584Y-97737756D01*
X129528584Y-97737766D01*
X129487830Y-97917146D01*
X129412868Y-98085512D01*
X129306628Y-98236116D01*
X129173159Y-98363217D01*
X129017544Y-98461974D01*
X128845714Y-98528622D01*
X128664212Y-98560626D01*
X128479946Y-98556766D01*
X128299939Y-98517189D01*
X128131048Y-98443403D01*
X127979710Y-98338220D01*
X127851681Y-98205642D01*
X127751841Y-98050721D01*
X127683992Y-97879353D01*
X127650723Y-97698083D01*
X127653295Y-97513796D01*
X127691616Y-97333516D01*
X127764219Y-97164117D01*
X127868347Y-97012044D01*
X128000026Y-96883093D01*
X128154247Y-96782174D01*
X128325132Y-96713132D01*
X128506169Y-96678598D01*
X128690475Y-96679884D01*
X128690475Y-96679884D01*
G37*
G36*
X143930475Y-96679884D02*
X144111008Y-96716943D01*
X144280918Y-96788366D01*
X144433709Y-96891426D01*
X144563581Y-97022206D01*
X144665570Y-97175713D01*
X144735803Y-97346111D01*
X144771532Y-97526559D01*
X144771532Y-97526564D01*
X144771600Y-97526908D01*
X144768661Y-97737418D01*
X144768584Y-97737756D01*
X144768584Y-97737766D01*
X144727830Y-97917146D01*
X144652868Y-98085512D01*
X144546628Y-98236116D01*
X144413159Y-98363217D01*
X144257544Y-98461974D01*
X144085714Y-98528622D01*
X143904212Y-98560626D01*
X143719946Y-98556766D01*
X143539939Y-98517189D01*
X143371048Y-98443403D01*
X143219710Y-98338220D01*
X143091681Y-98205642D01*
X142991841Y-98050721D01*
X142923992Y-97879353D01*
X142890723Y-97698083D01*
X142893295Y-97513796D01*
X142931616Y-97333516D01*
X143004219Y-97164117D01*
X143108347Y-97012044D01*
X143240026Y-96883093D01*
X143394247Y-96782174D01*
X143565132Y-96713132D01*
X143746169Y-96678598D01*
X143930475Y-96679884D01*
X143930475Y-96679884D01*
G37*
G36*
X120708870Y-92214407D02*
X121299815Y-92335711D01*
X121855958Y-92569492D01*
X122356094Y-92906838D01*
X122781181Y-93334903D01*
X123115026Y-93837381D01*
X123344916Y-94395136D01*
X123462024Y-94986574D01*
X123462024Y-94986584D01*
X123462091Y-94986923D01*
X123452470Y-95675976D01*
X123452393Y-95676314D01*
X123452393Y-95676322D01*
X123318817Y-96264261D01*
X123073445Y-96815376D01*
X122725697Y-97308338D01*
X122288822Y-97724369D01*
X121779460Y-98047621D01*
X121217014Y-98265779D01*
X120622907Y-98370536D01*
X120019763Y-98357902D01*
X119430560Y-98228357D01*
X118877742Y-97986837D01*
X118382367Y-97642542D01*
X117963297Y-97208583D01*
X117636498Y-96701490D01*
X117414416Y-96140574D01*
X117305515Y-95547218D01*
X117313937Y-94944001D01*
X117439366Y-94353907D01*
X117677019Y-93799418D01*
X118017851Y-93301648D01*
X118448872Y-92879560D01*
X118953673Y-92549228D01*
X119513019Y-92323237D01*
X120105605Y-92210196D01*
X120708870Y-92214407D01*
X120708870Y-92214407D01*
G37*
G36*
X152707870Y-92214407D02*
X153298815Y-92335711D01*
X153854958Y-92569492D01*
X154355094Y-92906838D01*
X154780181Y-93334903D01*
X155114026Y-93837381D01*
X155343916Y-94395136D01*
X155461024Y-94986574D01*
X155461024Y-94986584D01*
X155461091Y-94986923D01*
X155451470Y-95675976D01*
X155451393Y-95676314D01*
X155451393Y-95676322D01*
X155317817Y-96264261D01*
X155072445Y-96815376D01*
X154724697Y-97308338D01*
X154287822Y-97724369D01*
X153778460Y-98047621D01*
X153216014Y-98265779D01*
X152621907Y-98370536D01*
X152018763Y-98357902D01*
X151429560Y-98228357D01*
X150876742Y-97986837D01*
X150381367Y-97642542D01*
X149962297Y-97208583D01*
X149635498Y-96701490D01*
X149413416Y-96140574D01*
X149304515Y-95547218D01*
X149312937Y-94944001D01*
X149438366Y-94353907D01*
X149676019Y-93799418D01*
X150016851Y-93301648D01*
X150447872Y-92879560D01*
X150952673Y-92549228D01*
X151512019Y-92323237D01*
X152104605Y-92210196D01*
X152707870Y-92214407D01*
X152707870Y-92214407D01*
G37*
G36*
X128690475Y-94139884D02*
X128871008Y-94176943D01*
X129040918Y-94248366D01*
X129193709Y-94351426D01*
X129323581Y-94482206D01*
X129425570Y-94635713D01*
X129495803Y-94806111D01*
X129531532Y-94986559D01*
X129531532Y-94986564D01*
X129531600Y-94986908D01*
X129528661Y-95197418D01*
X129528584Y-95197756D01*
X129528584Y-95197766D01*
X129487830Y-95377146D01*
X129412868Y-95545512D01*
X129306628Y-95696116D01*
X129173159Y-95823217D01*
X129017544Y-95921974D01*
X128845714Y-95988622D01*
X128664212Y-96020626D01*
X128479946Y-96016766D01*
X128299939Y-95977189D01*
X128131048Y-95903403D01*
X127979710Y-95798220D01*
X127851681Y-95665642D01*
X127751841Y-95510721D01*
X127683992Y-95339353D01*
X127650723Y-95158083D01*
X127653295Y-94973796D01*
X127691616Y-94793516D01*
X127764219Y-94624117D01*
X127868347Y-94472044D01*
X128000026Y-94343093D01*
X128154247Y-94242174D01*
X128325132Y-94173132D01*
X128506169Y-94138598D01*
X128690475Y-94139884D01*
X128690475Y-94139884D01*
G37*
G36*
X143930475Y-94139884D02*
X144111008Y-94176943D01*
X144280918Y-94248366D01*
X144433709Y-94351426D01*
X144563581Y-94482206D01*
X144665570Y-94635713D01*
X144735803Y-94806111D01*
X144771532Y-94986559D01*
X144771532Y-94986564D01*
X144771600Y-94986908D01*
X144768661Y-95197418D01*
X144768584Y-95197756D01*
X144768584Y-95197766D01*
X144727830Y-95377146D01*
X144652868Y-95545512D01*
X144546628Y-95696116D01*
X144413159Y-95823217D01*
X144257544Y-95921974D01*
X144085714Y-95988622D01*
X143904212Y-96020626D01*
X143719946Y-96016766D01*
X143539939Y-95977189D01*
X143371048Y-95903403D01*
X143219710Y-95798220D01*
X143091681Y-95665642D01*
X142991841Y-95510721D01*
X142923992Y-95339353D01*
X142890723Y-95158083D01*
X142893295Y-94973796D01*
X142931616Y-94793516D01*
X143004219Y-94624117D01*
X143108347Y-94472044D01*
X143240026Y-94343093D01*
X143394247Y-94242174D01*
X143565132Y-94173132D01*
X143746169Y-94138598D01*
X143930475Y-94139884D01*
X143930475Y-94139884D01*
G37*
G36*
X128690475Y-91599884D02*
X128871008Y-91636943D01*
X129040918Y-91708366D01*
X129193709Y-91811426D01*
X129323581Y-91942206D01*
X129425570Y-92095713D01*
X129495803Y-92266111D01*
X129531532Y-92446559D01*
X129531532Y-92446564D01*
X129531600Y-92446908D01*
X129528661Y-92657418D01*
X129528584Y-92657756D01*
X129528584Y-92657766D01*
X129487830Y-92837146D01*
X129412868Y-93005512D01*
X129306628Y-93156116D01*
X129173159Y-93283217D01*
X129017544Y-93381974D01*
X128845714Y-93448622D01*
X128664212Y-93480626D01*
X128479946Y-93476766D01*
X128299939Y-93437189D01*
X128131048Y-93363403D01*
X127979710Y-93258220D01*
X127851681Y-93125642D01*
X127751841Y-92970721D01*
X127683992Y-92799353D01*
X127650723Y-92618083D01*
X127653295Y-92433796D01*
X127691616Y-92253516D01*
X127764219Y-92084117D01*
X127868347Y-91932044D01*
X128000026Y-91803093D01*
X128154247Y-91702174D01*
X128325132Y-91633132D01*
X128506169Y-91598598D01*
X128690475Y-91599884D01*
X128690475Y-91599884D01*
G37*
G36*
X143930475Y-91599884D02*
X144111008Y-91636943D01*
X144280918Y-91708366D01*
X144433709Y-91811426D01*
X144563581Y-91942206D01*
X144665570Y-92095713D01*
X144735803Y-92266111D01*
X144771532Y-92446559D01*
X144771532Y-92446564D01*
X144771600Y-92446908D01*
X144768661Y-92657418D01*
X144768584Y-92657756D01*
X144768584Y-92657766D01*
X144727830Y-92837146D01*
X144652868Y-93005512D01*
X144546628Y-93156116D01*
X144413159Y-93283217D01*
X144257544Y-93381974D01*
X144085714Y-93448622D01*
X143904212Y-93480626D01*
X143719946Y-93476766D01*
X143539939Y-93437189D01*
X143371048Y-93363403D01*
X143219710Y-93258220D01*
X143091681Y-93125642D01*
X142991841Y-92970721D01*
X142923992Y-92799353D01*
X142890723Y-92618083D01*
X142893295Y-92433796D01*
X142931616Y-92253516D01*
X143004219Y-92084117D01*
X143108347Y-91932044D01*
X143240026Y-91803093D01*
X143394247Y-91702174D01*
X143565132Y-91633132D01*
X143746169Y-91598598D01*
X143930475Y-91599884D01*
X143930475Y-91599884D01*
G37*
G36*
X143930475Y-89059884D02*
X144111008Y-89096943D01*
X144280918Y-89168366D01*
X144433709Y-89271426D01*
X144563581Y-89402206D01*
X144665570Y-89555713D01*
X144735803Y-89726111D01*
X144771532Y-89906559D01*
X144771532Y-89906564D01*
X144771600Y-89906908D01*
X144768661Y-90117418D01*
X144768584Y-90117756D01*
X144768584Y-90117766D01*
X144727830Y-90297146D01*
X144652868Y-90465512D01*
X144546628Y-90616116D01*
X144413159Y-90743217D01*
X144257544Y-90841974D01*
X144085714Y-90908622D01*
X143904212Y-90940626D01*
X143719946Y-90936766D01*
X143539939Y-90897189D01*
X143371048Y-90823403D01*
X143219710Y-90718220D01*
X143091681Y-90585642D01*
X142991841Y-90430721D01*
X142923992Y-90259353D01*
X142890723Y-90078083D01*
X142893295Y-89893796D01*
X142931616Y-89713516D01*
X143004219Y-89544117D01*
X143108347Y-89392044D01*
X143240026Y-89263093D01*
X143394247Y-89162174D01*
X143565132Y-89093132D01*
X143746169Y-89058598D01*
X143930475Y-89059884D01*
X143930475Y-89059884D01*
G37*
G36*
X128690475Y-89059884D02*
X128871008Y-89096943D01*
X129040918Y-89168366D01*
X129193709Y-89271426D01*
X129323581Y-89402206D01*
X129425570Y-89555713D01*
X129495803Y-89726111D01*
X129531532Y-89906559D01*
X129531532Y-89906564D01*
X129531600Y-89906908D01*
X129528661Y-90117418D01*
X129528584Y-90117756D01*
X129528584Y-90117766D01*
X129487830Y-90297146D01*
X129412868Y-90465512D01*
X129306628Y-90616116D01*
X129173159Y-90743217D01*
X129017544Y-90841974D01*
X128845714Y-90908622D01*
X128664212Y-90940626D01*
X128479946Y-90936766D01*
X128299939Y-90897189D01*
X128131048Y-90823403D01*
X127979710Y-90718220D01*
X127851681Y-90585642D01*
X127751841Y-90430721D01*
X127683992Y-90259353D01*
X127650723Y-90078083D01*
X127653295Y-89893796D01*
X127691616Y-89713516D01*
X127764219Y-89544117D01*
X127868347Y-89392044D01*
X128000026Y-89263093D01*
X128154247Y-89162174D01*
X128325132Y-89093132D01*
X128506169Y-89058598D01*
X128690475Y-89059884D01*
X128690475Y-89059884D01*
G37*
G36*
X120708870Y-84214407D02*
X121299815Y-84335711D01*
X121855958Y-84569492D01*
X122356094Y-84906838D01*
X122781181Y-85334903D01*
X123115026Y-85837381D01*
X123344916Y-86395136D01*
X123462024Y-86986574D01*
X123462024Y-86986584D01*
X123462091Y-86986923D01*
X123452470Y-87675976D01*
X123452393Y-87676314D01*
X123452393Y-87676322D01*
X123318817Y-88264261D01*
X123073445Y-88815376D01*
X122725697Y-89308338D01*
X122288822Y-89724369D01*
X121779460Y-90047621D01*
X121217014Y-90265779D01*
X120622907Y-90370536D01*
X120019763Y-90357902D01*
X119430560Y-90228357D01*
X118877742Y-89986837D01*
X118382367Y-89642542D01*
X117963297Y-89208583D01*
X117636498Y-88701490D01*
X117414416Y-88140574D01*
X117305515Y-87547218D01*
X117313937Y-86944001D01*
X117439366Y-86353907D01*
X117677019Y-85799418D01*
X118017851Y-85301648D01*
X118448872Y-84879560D01*
X118953673Y-84549228D01*
X119513019Y-84323237D01*
X120105605Y-84210196D01*
X120708870Y-84214407D01*
X120708870Y-84214407D01*
G37*
G36*
X152707870Y-84214407D02*
X153298815Y-84335711D01*
X153854958Y-84569492D01*
X154355094Y-84906838D01*
X154780181Y-85334903D01*
X155114026Y-85837381D01*
X155343916Y-86395136D01*
X155461024Y-86986574D01*
X155461024Y-86986584D01*
X155461091Y-86986923D01*
X155451470Y-87675976D01*
X155451393Y-87676314D01*
X155451393Y-87676322D01*
X155317817Y-88264261D01*
X155072445Y-88815376D01*
X154724697Y-89308338D01*
X154287822Y-89724369D01*
X153778460Y-90047621D01*
X153216014Y-90265779D01*
X152621907Y-90370536D01*
X152018763Y-90357902D01*
X151429560Y-90228357D01*
X150876742Y-89986837D01*
X150381367Y-89642542D01*
X149962297Y-89208583D01*
X149635498Y-88701490D01*
X149413416Y-88140574D01*
X149304515Y-87547218D01*
X149312937Y-86944001D01*
X149438366Y-86353907D01*
X149676019Y-85799418D01*
X150016851Y-85301648D01*
X150447872Y-84879560D01*
X150952673Y-84549228D01*
X151512019Y-84323237D01*
X152104605Y-84210196D01*
X152707870Y-84214407D01*
X152707870Y-84214407D01*
G37*
G36*
X143930475Y-86519884D02*
X144111008Y-86556943D01*
X144280918Y-86628366D01*
X144433709Y-86731426D01*
X144563581Y-86862206D01*
X144665570Y-87015713D01*
X144735803Y-87186111D01*
X144771532Y-87366559D01*
X144771532Y-87366564D01*
X144771600Y-87366908D01*
X144768661Y-87577418D01*
X144768584Y-87577756D01*
X144768584Y-87577766D01*
X144727830Y-87757146D01*
X144652868Y-87925512D01*
X144546628Y-88076116D01*
X144413159Y-88203217D01*
X144257544Y-88301974D01*
X144085714Y-88368622D01*
X143904212Y-88400626D01*
X143719946Y-88396766D01*
X143539939Y-88357189D01*
X143371048Y-88283403D01*
X143219710Y-88178220D01*
X143091681Y-88045642D01*
X142991841Y-87890721D01*
X142923992Y-87719353D01*
X142890723Y-87538083D01*
X142893295Y-87353796D01*
X142931616Y-87173516D01*
X143004219Y-87004117D01*
X143108347Y-86852044D01*
X143240026Y-86723093D01*
X143394247Y-86622174D01*
X143565132Y-86553132D01*
X143746169Y-86518598D01*
X143930475Y-86519884D01*
X143930475Y-86519884D01*
G37*
G36*
X128690475Y-86519884D02*
X128871008Y-86556943D01*
X129040918Y-86628366D01*
X129193709Y-86731426D01*
X129323581Y-86862206D01*
X129425570Y-87015713D01*
X129495803Y-87186111D01*
X129531532Y-87366559D01*
X129531532Y-87366564D01*
X129531600Y-87366908D01*
X129528661Y-87577418D01*
X129528584Y-87577756D01*
X129528584Y-87577766D01*
X129487830Y-87757146D01*
X129412868Y-87925512D01*
X129306628Y-88076116D01*
X129173159Y-88203217D01*
X129017544Y-88301974D01*
X128845714Y-88368622D01*
X128664212Y-88400626D01*
X128479946Y-88396766D01*
X128299939Y-88357189D01*
X128131048Y-88283403D01*
X127979710Y-88178220D01*
X127851681Y-88045642D01*
X127751841Y-87890721D01*
X127683992Y-87719353D01*
X127650723Y-87538083D01*
X127653295Y-87353796D01*
X127691616Y-87173516D01*
X127764219Y-87004117D01*
X127868347Y-86852044D01*
X128000026Y-86723093D01*
X128154247Y-86622174D01*
X128325132Y-86553132D01*
X128506169Y-86518598D01*
X128690475Y-86519884D01*
X128690475Y-86519884D01*
G37*
G36*
X128690475Y-83979884D02*
X128871008Y-84016943D01*
X129040918Y-84088366D01*
X129193709Y-84191426D01*
X129323581Y-84322206D01*
X129425570Y-84475713D01*
X129495803Y-84646111D01*
X129531532Y-84826559D01*
X129531532Y-84826564D01*
X129531600Y-84826908D01*
X129528661Y-85037418D01*
X129528584Y-85037756D01*
X129528584Y-85037766D01*
X129487830Y-85217146D01*
X129412868Y-85385512D01*
X129306628Y-85536116D01*
X129173159Y-85663217D01*
X129017544Y-85761974D01*
X128845714Y-85828622D01*
X128664212Y-85860626D01*
X128479946Y-85856766D01*
X128299939Y-85817189D01*
X128131048Y-85743403D01*
X127979710Y-85638220D01*
X127851681Y-85505642D01*
X127751841Y-85350721D01*
X127683992Y-85179353D01*
X127650723Y-84998083D01*
X127653295Y-84813796D01*
X127691616Y-84633516D01*
X127764219Y-84464117D01*
X127868347Y-84312044D01*
X128000026Y-84183093D01*
X128154247Y-84082174D01*
X128325132Y-84013132D01*
X128506169Y-83978598D01*
X128690475Y-83979884D01*
X128690475Y-83979884D01*
G37*
G36*
X143930475Y-83979884D02*
X144111008Y-84016943D01*
X144280918Y-84088366D01*
X144433709Y-84191426D01*
X144563581Y-84322206D01*
X144665570Y-84475713D01*
X144735803Y-84646111D01*
X144771532Y-84826559D01*
X144771532Y-84826564D01*
X144771600Y-84826908D01*
X144768661Y-85037418D01*
X144768584Y-85037756D01*
X144768584Y-85037766D01*
X144727830Y-85217146D01*
X144652868Y-85385512D01*
X144546628Y-85536116D01*
X144413159Y-85663217D01*
X144257544Y-85761974D01*
X144085714Y-85828622D01*
X143904212Y-85860626D01*
X143719946Y-85856766D01*
X143539939Y-85817189D01*
X143371048Y-85743403D01*
X143219710Y-85638220D01*
X143091681Y-85505642D01*
X142991841Y-85350721D01*
X142923992Y-85179353D01*
X142890723Y-84998083D01*
X142893295Y-84813796D01*
X142931616Y-84633516D01*
X143004219Y-84464117D01*
X143108347Y-84312044D01*
X143240026Y-84183093D01*
X143394247Y-84082174D01*
X143565132Y-84013132D01*
X143746169Y-83978598D01*
X143930475Y-83979884D01*
X143930475Y-83979884D01*
G37*
G36*
X128690475Y-81439884D02*
X128871008Y-81476943D01*
X129040918Y-81548366D01*
X129193709Y-81651426D01*
X129323581Y-81782206D01*
X129425570Y-81935713D01*
X129495803Y-82106111D01*
X129531532Y-82286559D01*
X129531532Y-82286564D01*
X129531600Y-82286908D01*
X129528661Y-82497418D01*
X129528584Y-82497756D01*
X129528584Y-82497766D01*
X129487830Y-82677146D01*
X129412868Y-82845512D01*
X129306628Y-82996116D01*
X129173159Y-83123217D01*
X129017544Y-83221974D01*
X128845714Y-83288622D01*
X128664212Y-83320626D01*
X128479946Y-83316766D01*
X128299939Y-83277189D01*
X128131048Y-83203403D01*
X127979710Y-83098220D01*
X127851681Y-82965642D01*
X127751841Y-82810721D01*
X127683992Y-82639353D01*
X127650723Y-82458083D01*
X127653295Y-82273796D01*
X127691616Y-82093516D01*
X127764219Y-81924117D01*
X127868347Y-81772044D01*
X128000026Y-81643093D01*
X128154247Y-81542174D01*
X128325132Y-81473132D01*
X128506169Y-81438598D01*
X128690475Y-81439884D01*
X128690475Y-81439884D01*
G37*
G36*
X143930475Y-81439884D02*
X144111008Y-81476943D01*
X144280918Y-81548366D01*
X144433709Y-81651426D01*
X144563581Y-81782206D01*
X144665570Y-81935713D01*
X144735803Y-82106111D01*
X144771532Y-82286559D01*
X144771532Y-82286564D01*
X144771600Y-82286908D01*
X144768661Y-82497418D01*
X144768584Y-82497756D01*
X144768584Y-82497766D01*
X144727830Y-82677146D01*
X144652868Y-82845512D01*
X144546628Y-82996116D01*
X144413159Y-83123217D01*
X144257544Y-83221974D01*
X144085714Y-83288622D01*
X143904212Y-83320626D01*
X143719946Y-83316766D01*
X143539939Y-83277189D01*
X143371048Y-83203403D01*
X143219710Y-83098220D01*
X143091681Y-82965642D01*
X142991841Y-82810721D01*
X142923992Y-82639353D01*
X142890723Y-82458083D01*
X142893295Y-82273796D01*
X142931616Y-82093516D01*
X143004219Y-81924117D01*
X143108347Y-81772044D01*
X143240026Y-81643093D01*
X143394247Y-81542174D01*
X143565132Y-81473132D01*
X143746169Y-81438598D01*
X143930475Y-81439884D01*
X143930475Y-81439884D01*
G37*
G36*
X152707870Y-76214407D02*
X153298815Y-76335711D01*
X153854958Y-76569492D01*
X154355094Y-76906838D01*
X154780181Y-77334903D01*
X155114026Y-77837381D01*
X155343916Y-78395136D01*
X155461024Y-78986574D01*
X155461024Y-78986584D01*
X155461091Y-78986923D01*
X155451470Y-79675976D01*
X155451393Y-79676314D01*
X155451393Y-79676322D01*
X155317817Y-80264261D01*
X155072445Y-80815376D01*
X154724697Y-81308338D01*
X154287822Y-81724369D01*
X153778460Y-82047621D01*
X153216014Y-82265779D01*
X152621907Y-82370536D01*
X152018763Y-82357902D01*
X151429560Y-82228357D01*
X150876742Y-81986837D01*
X150381367Y-81642542D01*
X149962297Y-81208583D01*
X149635498Y-80701490D01*
X149413416Y-80140574D01*
X149304515Y-79547218D01*
X149312937Y-78944001D01*
X149438366Y-78353907D01*
X149676019Y-77799418D01*
X150016851Y-77301648D01*
X150447872Y-76879560D01*
X150952673Y-76549228D01*
X151512019Y-76323237D01*
X152104605Y-76210196D01*
X152707870Y-76214407D01*
X152707870Y-76214407D01*
G37*
G36*
X120707870Y-76214407D02*
X121298815Y-76335711D01*
X121854958Y-76569492D01*
X122355094Y-76906838D01*
X122780181Y-77334903D01*
X123114026Y-77837381D01*
X123343916Y-78395136D01*
X123461024Y-78986574D01*
X123461024Y-78986584D01*
X123461091Y-78986923D01*
X123451470Y-79675976D01*
X123451393Y-79676314D01*
X123451393Y-79676322D01*
X123317817Y-80264261D01*
X123072445Y-80815376D01*
X122724697Y-81308338D01*
X122287822Y-81724369D01*
X121778460Y-82047621D01*
X121216014Y-82265779D01*
X120621907Y-82370536D01*
X120018763Y-82357902D01*
X119429560Y-82228357D01*
X118876742Y-81986837D01*
X118381367Y-81642542D01*
X117962297Y-81208583D01*
X117635498Y-80701490D01*
X117413416Y-80140574D01*
X117304515Y-79547218D01*
X117312937Y-78944001D01*
X117438366Y-78353907D01*
X117676019Y-77799418D01*
X118016851Y-77301648D01*
X118447872Y-76879560D01*
X118952673Y-76549228D01*
X119512019Y-76323237D01*
X120104605Y-76210196D01*
X120707870Y-76214407D01*
X120707870Y-76214407D01*
G37*
G36*
X143930475Y-78899884D02*
X144111008Y-78936943D01*
X144280918Y-79008366D01*
X144433709Y-79111426D01*
X144563581Y-79242206D01*
X144665570Y-79395713D01*
X144735803Y-79566111D01*
X144771532Y-79746559D01*
X144771532Y-79746564D01*
X144771600Y-79746908D01*
X144768661Y-79957418D01*
X144768584Y-79957756D01*
X144768584Y-79957766D01*
X144727830Y-80137146D01*
X144652868Y-80305512D01*
X144546628Y-80456116D01*
X144413159Y-80583217D01*
X144257544Y-80681974D01*
X144085714Y-80748622D01*
X143904212Y-80780626D01*
X143719946Y-80776766D01*
X143539939Y-80737189D01*
X143371048Y-80663403D01*
X143219710Y-80558220D01*
X143091681Y-80425642D01*
X142991841Y-80270721D01*
X142923992Y-80099353D01*
X142890723Y-79918083D01*
X142893295Y-79733796D01*
X142931616Y-79553516D01*
X143004219Y-79384117D01*
X143108347Y-79232044D01*
X143240026Y-79103093D01*
X143394247Y-79002174D01*
X143565132Y-78933132D01*
X143746169Y-78898598D01*
X143930475Y-78899884D01*
X143930475Y-78899884D01*
G37*
G36*
X128690475Y-78899884D02*
X128871008Y-78936943D01*
X129040918Y-79008366D01*
X129193709Y-79111426D01*
X129323581Y-79242206D01*
X129425570Y-79395713D01*
X129495803Y-79566111D01*
X129531532Y-79746559D01*
X129531532Y-79746564D01*
X129531600Y-79746908D01*
X129528661Y-79957418D01*
X129528584Y-79957756D01*
X129528584Y-79957766D01*
X129487830Y-80137146D01*
X129412868Y-80305512D01*
X129306628Y-80456116D01*
X129173159Y-80583217D01*
X129017544Y-80681974D01*
X128845714Y-80748622D01*
X128664212Y-80780626D01*
X128479946Y-80776766D01*
X128299939Y-80737189D01*
X128131048Y-80663403D01*
X127979710Y-80558220D01*
X127851681Y-80425642D01*
X127751841Y-80270721D01*
X127683992Y-80099353D01*
X127650723Y-79918083D01*
X127653295Y-79733796D01*
X127691616Y-79553516D01*
X127764219Y-79384117D01*
X127868347Y-79232044D01*
X128000026Y-79103093D01*
X128154247Y-79002174D01*
X128325132Y-78933132D01*
X128506169Y-78898598D01*
X128690475Y-78899884D01*
X128690475Y-78899884D01*
G37*
G36*
X128690475Y-76359884D02*
X128871008Y-76396943D01*
X129040918Y-76468366D01*
X129193709Y-76571426D01*
X129323581Y-76702206D01*
X129425570Y-76855713D01*
X129495803Y-77026111D01*
X129531532Y-77206559D01*
X129531532Y-77206564D01*
X129531600Y-77206908D01*
X129528661Y-77417418D01*
X129528584Y-77417756D01*
X129528584Y-77417766D01*
X129487830Y-77597146D01*
X129412868Y-77765512D01*
X129306628Y-77916116D01*
X129173159Y-78043217D01*
X129017544Y-78141974D01*
X128845714Y-78208622D01*
X128664212Y-78240626D01*
X128479946Y-78236766D01*
X128299939Y-78197189D01*
X128131048Y-78123403D01*
X127979710Y-78018220D01*
X127851681Y-77885642D01*
X127751841Y-77730721D01*
X127683992Y-77559353D01*
X127650723Y-77378083D01*
X127653295Y-77193796D01*
X127691616Y-77013516D01*
X127764219Y-76844117D01*
X127868347Y-76692044D01*
X128000026Y-76563093D01*
X128154247Y-76462174D01*
X128325132Y-76393132D01*
X128506169Y-76358598D01*
X128690475Y-76359884D01*
X128690475Y-76359884D01*
G37*
G36*
X143930475Y-76359884D02*
X144111008Y-76396943D01*
X144280918Y-76468366D01*
X144433709Y-76571426D01*
X144563581Y-76702206D01*
X144665570Y-76855713D01*
X144735803Y-77026111D01*
X144771532Y-77206559D01*
X144771532Y-77206564D01*
X144771600Y-77206908D01*
X144768661Y-77417418D01*
X144768584Y-77417756D01*
X144768584Y-77417766D01*
X144727830Y-77597146D01*
X144652868Y-77765512D01*
X144546628Y-77916116D01*
X144413159Y-78043217D01*
X144257544Y-78141974D01*
X144085714Y-78208622D01*
X143904212Y-78240626D01*
X143719946Y-78236766D01*
X143539939Y-78197189D01*
X143371048Y-78123403D01*
X143219710Y-78018220D01*
X143091681Y-77885642D01*
X142991841Y-77730721D01*
X142923992Y-77559353D01*
X142890723Y-77378083D01*
X142893295Y-77193796D01*
X142931616Y-77013516D01*
X143004219Y-76844117D01*
X143108347Y-76692044D01*
X143240026Y-76563093D01*
X143394247Y-76462174D01*
X143565132Y-76393132D01*
X143746169Y-76358598D01*
X143930475Y-76359884D01*
X143930475Y-76359884D01*
G37*
G36*
X143930475Y-73819884D02*
X144111008Y-73856943D01*
X144280918Y-73928366D01*
X144433709Y-74031426D01*
X144563581Y-74162206D01*
X144665570Y-74315713D01*
X144735803Y-74486111D01*
X144771532Y-74666559D01*
X144771532Y-74666564D01*
X144771600Y-74666908D01*
X144768661Y-74877418D01*
X144768584Y-74877756D01*
X144768584Y-74877766D01*
X144727830Y-75057146D01*
X144652868Y-75225512D01*
X144546628Y-75376116D01*
X144413159Y-75503217D01*
X144257544Y-75601974D01*
X144085714Y-75668622D01*
X143904212Y-75700626D01*
X143719946Y-75696766D01*
X143539939Y-75657189D01*
X143371048Y-75583403D01*
X143219710Y-75478220D01*
X143091681Y-75345642D01*
X142991841Y-75190721D01*
X142923992Y-75019353D01*
X142890723Y-74838083D01*
X142893295Y-74653796D01*
X142931616Y-74473516D01*
X143004219Y-74304117D01*
X143108347Y-74152044D01*
X143240026Y-74023093D01*
X143394247Y-73922174D01*
X143565132Y-73853132D01*
X143746169Y-73818598D01*
X143930475Y-73819884D01*
X143930475Y-73819884D01*
G37*
G36*
X128690475Y-73819884D02*
X128871008Y-73856943D01*
X129040918Y-73928366D01*
X129193709Y-74031426D01*
X129323581Y-74162206D01*
X129425570Y-74315713D01*
X129495803Y-74486111D01*
X129531532Y-74666559D01*
X129531532Y-74666564D01*
X129531600Y-74666908D01*
X129528661Y-74877418D01*
X129528584Y-74877756D01*
X129528584Y-74877766D01*
X129487830Y-75057146D01*
X129412868Y-75225512D01*
X129306628Y-75376116D01*
X129173159Y-75503217D01*
X129017544Y-75601974D01*
X128845714Y-75668622D01*
X128664212Y-75700626D01*
X128479946Y-75696766D01*
X128299939Y-75657189D01*
X128131048Y-75583403D01*
X127979710Y-75478220D01*
X127851681Y-75345642D01*
X127751841Y-75190721D01*
X127683992Y-75019353D01*
X127650723Y-74838083D01*
X127653295Y-74653796D01*
X127691616Y-74473516D01*
X127764219Y-74304117D01*
X127868347Y-74152044D01*
X128000026Y-74023093D01*
X128154247Y-73922174D01*
X128325132Y-73853132D01*
X128506169Y-73818598D01*
X128690475Y-73819884D01*
X128690475Y-73819884D01*
G37*
G36*
X152707870Y-68214407D02*
X153298815Y-68335711D01*
X153854958Y-68569492D01*
X154355094Y-68906838D01*
X154780181Y-69334903D01*
X155114026Y-69837381D01*
X155343916Y-70395136D01*
X155461024Y-70986574D01*
X155461024Y-70986584D01*
X155461091Y-70986923D01*
X155451470Y-71675976D01*
X155451393Y-71676314D01*
X155451393Y-71676322D01*
X155317817Y-72264261D01*
X155072445Y-72815376D01*
X154724697Y-73308338D01*
X154287822Y-73724369D01*
X153778460Y-74047621D01*
X153216014Y-74265779D01*
X152621907Y-74370536D01*
X152018763Y-74357902D01*
X151429560Y-74228357D01*
X150876742Y-73986837D01*
X150381367Y-73642542D01*
X149962297Y-73208583D01*
X149635498Y-72701490D01*
X149413416Y-72140574D01*
X149304515Y-71547218D01*
X149312937Y-70944001D01*
X149438366Y-70353907D01*
X149676019Y-69799418D01*
X150016851Y-69301648D01*
X150447872Y-68879560D01*
X150952673Y-68549228D01*
X151512019Y-68323237D01*
X152104605Y-68210196D01*
X152707870Y-68214407D01*
X152707870Y-68214407D01*
G37*
G36*
X120708870Y-68214407D02*
X121299815Y-68335711D01*
X121855958Y-68569492D01*
X122356094Y-68906838D01*
X122781181Y-69334903D01*
X123115026Y-69837381D01*
X123344916Y-70395136D01*
X123462024Y-70986574D01*
X123462024Y-70986584D01*
X123462091Y-70986923D01*
X123452470Y-71675976D01*
X123452393Y-71676314D01*
X123452393Y-71676322D01*
X123318817Y-72264261D01*
X123073445Y-72815376D01*
X122725697Y-73308338D01*
X122288822Y-73724369D01*
X121779460Y-74047621D01*
X121217014Y-74265779D01*
X120622907Y-74370536D01*
X120019763Y-74357902D01*
X119430560Y-74228357D01*
X118877742Y-73986837D01*
X118382367Y-73642542D01*
X117963297Y-73208583D01*
X117636498Y-72701490D01*
X117414416Y-72140574D01*
X117305515Y-71547218D01*
X117313937Y-70944001D01*
X117439366Y-70353907D01*
X117677019Y-69799418D01*
X118017851Y-69301648D01*
X118448872Y-68879560D01*
X118953673Y-68549228D01*
X119513019Y-68323237D01*
X120105605Y-68210196D01*
X120708870Y-68214407D01*
X120708870Y-68214407D01*
G37*
G36*
X143930475Y-71279884D02*
X144111008Y-71316943D01*
X144280918Y-71388366D01*
X144433709Y-71491426D01*
X144563581Y-71622206D01*
X144665570Y-71775713D01*
X144735803Y-71946111D01*
X144771532Y-72126559D01*
X144771532Y-72126564D01*
X144771600Y-72126908D01*
X144768661Y-72337418D01*
X144768584Y-72337756D01*
X144768584Y-72337766D01*
X144727830Y-72517146D01*
X144652868Y-72685512D01*
X144546628Y-72836116D01*
X144413159Y-72963217D01*
X144257544Y-73061974D01*
X144085714Y-73128622D01*
X143904212Y-73160626D01*
X143719946Y-73156766D01*
X143539939Y-73117189D01*
X143371048Y-73043403D01*
X143219710Y-72938220D01*
X143091681Y-72805642D01*
X142991841Y-72650721D01*
X142923992Y-72479353D01*
X142890723Y-72298083D01*
X142893295Y-72113796D01*
X142931616Y-71933516D01*
X143004219Y-71764117D01*
X143108347Y-71612044D01*
X143240026Y-71483093D01*
X143394247Y-71382174D01*
X143565132Y-71313132D01*
X143746169Y-71278598D01*
X143930475Y-71279884D01*
X143930475Y-71279884D01*
G37*
G36*
X128690475Y-71279884D02*
X128871008Y-71316943D01*
X129040918Y-71388366D01*
X129193709Y-71491426D01*
X129323581Y-71622206D01*
X129425570Y-71775713D01*
X129495803Y-71946111D01*
X129531532Y-72126559D01*
X129531532Y-72126564D01*
X129531600Y-72126908D01*
X129528661Y-72337418D01*
X129528584Y-72337756D01*
X129528584Y-72337766D01*
X129487830Y-72517146D01*
X129412868Y-72685512D01*
X129306628Y-72836116D01*
X129173159Y-72963217D01*
X129017544Y-73061974D01*
X128845714Y-73128622D01*
X128664212Y-73160626D01*
X128479946Y-73156766D01*
X128299939Y-73117189D01*
X128131048Y-73043403D01*
X127979710Y-72938220D01*
X127851681Y-72805642D01*
X127751841Y-72650721D01*
X127683992Y-72479353D01*
X127650723Y-72298083D01*
X127653295Y-72113796D01*
X127691616Y-71933516D01*
X127764219Y-71764117D01*
X127868347Y-71612044D01*
X128000026Y-71483093D01*
X128154247Y-71382174D01*
X128325132Y-71313132D01*
X128506169Y-71278598D01*
X128690475Y-71279884D01*
X128690475Y-71279884D01*
G37*
G36*
X143930475Y-68739884D02*
X144111008Y-68776943D01*
X144280918Y-68848366D01*
X144433709Y-68951426D01*
X144563581Y-69082206D01*
X144665570Y-69235713D01*
X144735803Y-69406111D01*
X144771532Y-69586559D01*
X144771532Y-69586564D01*
X144771600Y-69586908D01*
X144768661Y-69797418D01*
X144768584Y-69797756D01*
X144768584Y-69797766D01*
X144727830Y-69977146D01*
X144652868Y-70145512D01*
X144546628Y-70296116D01*
X144413159Y-70423217D01*
X144257544Y-70521974D01*
X144085714Y-70588622D01*
X143904212Y-70620626D01*
X143719946Y-70616766D01*
X143539939Y-70577189D01*
X143371048Y-70503403D01*
X143219710Y-70398220D01*
X143091681Y-70265642D01*
X142991841Y-70110721D01*
X142923992Y-69939353D01*
X142890723Y-69758083D01*
X142893295Y-69573796D01*
X142931616Y-69393516D01*
X143004219Y-69224117D01*
X143108347Y-69072044D01*
X143240026Y-68943093D01*
X143394247Y-68842174D01*
X143565132Y-68773132D01*
X143746169Y-68738598D01*
X143930475Y-68739884D01*
X143930475Y-68739884D01*
G37*
G36*
X128690475Y-68739884D02*
X128871008Y-68776943D01*
X129040918Y-68848366D01*
X129193709Y-68951426D01*
X129323581Y-69082206D01*
X129425570Y-69235713D01*
X129495803Y-69406111D01*
X129531532Y-69586559D01*
X129531532Y-69586564D01*
X129531600Y-69586908D01*
X129528661Y-69797418D01*
X129528584Y-69797756D01*
X129528584Y-69797766D01*
X129487830Y-69977146D01*
X129412868Y-70145512D01*
X129306628Y-70296116D01*
X129173159Y-70423217D01*
X129017544Y-70521974D01*
X128845714Y-70588622D01*
X128664212Y-70620626D01*
X128479946Y-70616766D01*
X128299939Y-70577189D01*
X128131048Y-70503403D01*
X127979710Y-70398220D01*
X127851681Y-70265642D01*
X127751841Y-70110721D01*
X127683992Y-69939353D01*
X127650723Y-69758083D01*
X127653295Y-69573796D01*
X127691616Y-69393516D01*
X127764219Y-69224117D01*
X127868347Y-69072044D01*
X128000026Y-68943093D01*
X128154247Y-68842174D01*
X128325132Y-68773132D01*
X128506169Y-68738598D01*
X128690475Y-68739884D01*
X128690475Y-68739884D01*
G37*
G36*
X128690475Y-66199884D02*
X128871008Y-66236943D01*
X129040918Y-66308366D01*
X129193709Y-66411426D01*
X129323581Y-66542206D01*
X129425570Y-66695713D01*
X129495803Y-66866111D01*
X129531532Y-67046559D01*
X129531532Y-67046564D01*
X129531600Y-67046908D01*
X129528661Y-67257418D01*
X129528584Y-67257756D01*
X129528584Y-67257766D01*
X129487830Y-67437146D01*
X129412868Y-67605512D01*
X129306628Y-67756116D01*
X129173159Y-67883217D01*
X129017544Y-67981974D01*
X128845714Y-68048622D01*
X128664212Y-68080626D01*
X128479946Y-68076766D01*
X128299939Y-68037189D01*
X128131048Y-67963403D01*
X127979710Y-67858220D01*
X127851681Y-67725642D01*
X127751841Y-67570721D01*
X127683992Y-67399353D01*
X127650723Y-67218083D01*
X127653295Y-67033796D01*
X127691616Y-66853516D01*
X127764219Y-66684117D01*
X127868347Y-66532044D01*
X128000026Y-66403093D01*
X128154247Y-66302174D01*
X128325132Y-66233132D01*
X128506169Y-66198598D01*
X128690475Y-66199884D01*
X128690475Y-66199884D01*
G37*
G36*
X143930475Y-66199884D02*
X144111008Y-66236943D01*
X144280918Y-66308366D01*
X144433709Y-66411426D01*
X144563581Y-66542206D01*
X144665570Y-66695713D01*
X144735803Y-66866111D01*
X144771532Y-67046559D01*
X144771532Y-67046564D01*
X144771600Y-67046908D01*
X144768661Y-67257418D01*
X144768584Y-67257756D01*
X144768584Y-67257766D01*
X144727830Y-67437146D01*
X144652868Y-67605512D01*
X144546628Y-67756116D01*
X144413159Y-67883217D01*
X144257544Y-67981974D01*
X144085714Y-68048622D01*
X143904212Y-68080626D01*
X143719946Y-68076766D01*
X143539939Y-68037189D01*
X143371048Y-67963403D01*
X143219710Y-67858220D01*
X143091681Y-67725642D01*
X142991841Y-67570721D01*
X142923992Y-67399353D01*
X142890723Y-67218083D01*
X142893295Y-67033796D01*
X142931616Y-66853516D01*
X143004219Y-66684117D01*
X143108347Y-66532044D01*
X143240026Y-66403093D01*
X143394247Y-66302174D01*
X143565132Y-66233132D01*
X143746169Y-66198598D01*
X143930475Y-66199884D01*
X143930475Y-66199884D01*
G37*
G36*
X120707870Y-60214407D02*
X121298815Y-60335711D01*
X121854958Y-60569492D01*
X122355094Y-60906838D01*
X122780181Y-61334903D01*
X123114026Y-61837381D01*
X123343916Y-62395136D01*
X123461024Y-62986574D01*
X123461024Y-62986584D01*
X123461091Y-62986923D01*
X123451470Y-63675976D01*
X123451393Y-63676314D01*
X123451393Y-63676322D01*
X123317817Y-64264261D01*
X123072445Y-64815376D01*
X122724697Y-65308338D01*
X122287822Y-65724369D01*
X121778460Y-66047621D01*
X121216014Y-66265779D01*
X120621907Y-66370536D01*
X120018763Y-66357902D01*
X119429560Y-66228357D01*
X118876742Y-65986837D01*
X118381367Y-65642542D01*
X117962297Y-65208583D01*
X117635498Y-64701490D01*
X117413416Y-64140574D01*
X117304515Y-63547218D01*
X117312937Y-62944001D01*
X117438366Y-62353907D01*
X117676019Y-61799418D01*
X118016851Y-61301648D01*
X118447872Y-60879560D01*
X118952673Y-60549228D01*
X119512019Y-60323237D01*
X120104605Y-60210196D01*
X120707870Y-60214407D01*
X120707870Y-60214407D01*
G37*
G36*
X152707870Y-60214407D02*
X153298815Y-60335711D01*
X153854958Y-60569492D01*
X154355094Y-60906838D01*
X154780181Y-61334903D01*
X155114026Y-61837381D01*
X155343916Y-62395136D01*
X155461024Y-62986574D01*
X155461024Y-62986584D01*
X155461091Y-62986923D01*
X155451470Y-63675976D01*
X155451393Y-63676314D01*
X155451393Y-63676322D01*
X155317817Y-64264261D01*
X155072445Y-64815376D01*
X154724697Y-65308338D01*
X154287822Y-65724369D01*
X153778460Y-66047621D01*
X153216014Y-66265779D01*
X152621907Y-66370536D01*
X152018763Y-66357902D01*
X151429560Y-66228357D01*
X150876742Y-65986837D01*
X150381367Y-65642542D01*
X149962297Y-65208583D01*
X149635498Y-64701490D01*
X149413416Y-64140574D01*
X149304515Y-63547218D01*
X149312937Y-62944001D01*
X149438366Y-62353907D01*
X149676019Y-61799418D01*
X150016851Y-61301648D01*
X150447872Y-60879560D01*
X150952673Y-60549228D01*
X151512019Y-60323237D01*
X152104605Y-60210196D01*
X152707870Y-60214407D01*
X152707870Y-60214407D01*
G37*
G36*
X152707870Y-52214407D02*
X153298815Y-52335711D01*
X153854958Y-52569492D01*
X154355094Y-52906838D01*
X154780181Y-53334903D01*
X155114026Y-53837381D01*
X155343916Y-54395136D01*
X155461024Y-54986574D01*
X155461024Y-54986584D01*
X155461091Y-54986923D01*
X155451470Y-55675976D01*
X155451393Y-55676314D01*
X155451393Y-55676322D01*
X155317817Y-56264261D01*
X155072445Y-56815376D01*
X154724697Y-57308338D01*
X154287822Y-57724369D01*
X153778460Y-58047621D01*
X153216014Y-58265779D01*
X152621907Y-58370536D01*
X152018763Y-58357902D01*
X151429560Y-58228357D01*
X150876742Y-57986837D01*
X150381367Y-57642542D01*
X149962297Y-57208583D01*
X149635498Y-56701490D01*
X149413416Y-56140574D01*
X149304515Y-55547218D01*
X149312937Y-54944001D01*
X149438366Y-54353907D01*
X149676019Y-53799418D01*
X150016851Y-53301648D01*
X150447872Y-52879560D01*
X150952673Y-52549228D01*
X151512019Y-52323237D01*
X152104605Y-52210196D01*
X152707870Y-52214407D01*
X152707870Y-52214407D01*
G37*
G36*
X120707870Y-52214407D02*
X121298815Y-52335711D01*
X121854958Y-52569492D01*
X122355094Y-52906838D01*
X122780181Y-53334903D01*
X123114026Y-53837381D01*
X123343916Y-54395136D01*
X123461024Y-54986574D01*
X123461024Y-54986584D01*
X123461091Y-54986923D01*
X123451470Y-55675976D01*
X123451393Y-55676314D01*
X123451393Y-55676322D01*
X123317817Y-56264261D01*
X123072445Y-56815376D01*
X122724697Y-57308338D01*
X122287822Y-57724369D01*
X121778460Y-58047621D01*
X121216014Y-58265779D01*
X120621907Y-58370536D01*
X120018763Y-58357902D01*
X119429560Y-58228357D01*
X118876742Y-57986837D01*
X118381367Y-57642542D01*
X117962297Y-57208583D01*
X117635498Y-56701490D01*
X117413416Y-56140574D01*
X117304515Y-55547218D01*
X117312937Y-54944001D01*
X117438366Y-54353907D01*
X117676019Y-53799418D01*
X118016851Y-53301648D01*
X118447872Y-52879560D01*
X118952673Y-52549228D01*
X119512019Y-52323237D01*
X120104605Y-52210196D01*
X120707870Y-52214407D01*
X120707870Y-52214407D01*
G37*
G36*
X136707870Y-44214407D02*
X137298815Y-44335711D01*
X137854958Y-44569492D01*
X138355094Y-44906838D01*
X138780181Y-45334903D01*
X139114026Y-45837381D01*
X139343916Y-46395136D01*
X139461024Y-46986574D01*
X139461024Y-46986584D01*
X139461091Y-46986923D01*
X139451470Y-47675976D01*
X139451393Y-47676314D01*
X139451393Y-47676322D01*
X139317817Y-48264261D01*
X139072445Y-48815376D01*
X138724697Y-49308338D01*
X138287822Y-49724369D01*
X137778460Y-50047621D01*
X137216014Y-50265779D01*
X136621907Y-50370536D01*
X136018763Y-50357902D01*
X135429560Y-50228357D01*
X134876742Y-49986837D01*
X134381367Y-49642542D01*
X133962297Y-49208583D01*
X133635498Y-48701490D01*
X133413416Y-48140574D01*
X133304515Y-47547218D01*
X133312937Y-46944001D01*
X133438366Y-46353907D01*
X133676019Y-45799418D01*
X134016851Y-45301648D01*
X134447872Y-44879560D01*
X134952673Y-44549228D01*
X135512019Y-44323237D01*
X136104605Y-44210196D01*
X136707870Y-44214407D01*
X136707870Y-44214407D01*
G37*
G36*
X144707870Y-44214407D02*
X145298815Y-44335711D01*
X145854958Y-44569492D01*
X146355094Y-44906838D01*
X146780181Y-45334903D01*
X147114026Y-45837381D01*
X147343916Y-46395136D01*
X147461024Y-46986574D01*
X147461024Y-46986584D01*
X147461091Y-46986923D01*
X147451470Y-47675976D01*
X147451393Y-47676314D01*
X147451393Y-47676322D01*
X147317817Y-48264261D01*
X147072445Y-48815376D01*
X146724697Y-49308338D01*
X146287822Y-49724369D01*
X145778460Y-50047621D01*
X145216014Y-50265779D01*
X144621907Y-50370536D01*
X144018763Y-50357902D01*
X143429560Y-50228357D01*
X142876742Y-49986837D01*
X142381367Y-49642542D01*
X141962297Y-49208583D01*
X141635498Y-48701490D01*
X141413416Y-48140574D01*
X141304515Y-47547218D01*
X141312937Y-46944001D01*
X141438366Y-46353907D01*
X141676019Y-45799418D01*
X142016851Y-45301648D01*
X142447872Y-44879560D01*
X142952673Y-44549228D01*
X143512019Y-44323237D01*
X144104605Y-44210196D01*
X144707870Y-44214407D01*
X144707870Y-44214407D01*
G37*
G36*
X152707870Y-44214407D02*
X153298815Y-44335711D01*
X153854958Y-44569492D01*
X154355094Y-44906838D01*
X154780181Y-45334903D01*
X155114026Y-45837381D01*
X155343916Y-46395136D01*
X155461024Y-46986574D01*
X155461024Y-46986584D01*
X155461091Y-46986923D01*
X155451470Y-47675976D01*
X155451393Y-47676314D01*
X155451393Y-47676322D01*
X155317817Y-48264261D01*
X155072445Y-48815376D01*
X154724697Y-49308338D01*
X154287822Y-49724369D01*
X153778460Y-50047621D01*
X153216014Y-50265779D01*
X152621907Y-50370536D01*
X152018763Y-50357902D01*
X151429560Y-50228357D01*
X150876742Y-49986837D01*
X150381367Y-49642542D01*
X149962297Y-49208583D01*
X149635498Y-48701490D01*
X149413416Y-48140574D01*
X149304515Y-47547218D01*
X149312937Y-46944001D01*
X149438366Y-46353907D01*
X149676019Y-45799418D01*
X150016851Y-45301648D01*
X150447872Y-44879560D01*
X150952673Y-44549228D01*
X151512019Y-44323237D01*
X152104605Y-44210196D01*
X152707870Y-44214407D01*
X152707870Y-44214407D01*
G37*
G36*
X128707870Y-44214407D02*
X129298815Y-44335711D01*
X129854958Y-44569492D01*
X130355094Y-44906838D01*
X130780181Y-45334903D01*
X131114026Y-45837381D01*
X131343916Y-46395136D01*
X131461024Y-46986574D01*
X131461024Y-46986584D01*
X131461091Y-46986923D01*
X131451470Y-47675976D01*
X131451393Y-47676314D01*
X131451393Y-47676322D01*
X131317817Y-48264261D01*
X131072445Y-48815376D01*
X130724697Y-49308338D01*
X130287822Y-49724369D01*
X129778460Y-50047621D01*
X129216014Y-50265779D01*
X128621907Y-50370536D01*
X128018763Y-50357902D01*
X127429560Y-50228357D01*
X126876742Y-49986837D01*
X126381367Y-49642542D01*
X125962297Y-49208583D01*
X125635498Y-48701490D01*
X125413416Y-48140574D01*
X125304515Y-47547218D01*
X125312937Y-46944001D01*
X125438366Y-46353907D01*
X125676019Y-45799418D01*
X126016851Y-45301648D01*
X126447872Y-44879560D01*
X126952673Y-44549228D01*
X127512019Y-44323237D01*
X128104605Y-44210196D01*
X128707870Y-44214407D01*
X128707870Y-44214407D01*
G37*
G36*
X120708870Y-44214407D02*
X121299815Y-44335711D01*
X121855958Y-44569492D01*
X122356094Y-44906838D01*
X122781181Y-45334903D01*
X123115026Y-45837381D01*
X123344916Y-46395136D01*
X123462024Y-46986574D01*
X123462024Y-46986584D01*
X123462091Y-46986923D01*
X123452470Y-47675976D01*
X123452393Y-47676314D01*
X123452393Y-47676322D01*
X123318817Y-48264261D01*
X123073445Y-48815376D01*
X122725697Y-49308338D01*
X122288822Y-49724369D01*
X121779460Y-50047621D01*
X121217014Y-50265779D01*
X120622907Y-50370536D01*
X120019763Y-50357902D01*
X119430560Y-50228357D01*
X118877742Y-49986837D01*
X118382367Y-49642542D01*
X117963297Y-49208583D01*
X117636498Y-48701490D01*
X117414416Y-48140574D01*
X117305515Y-47547218D01*
X117313937Y-46944001D01*
X117439366Y-46353907D01*
X117677019Y-45799418D01*
X118017851Y-45301648D01*
X118448872Y-44879560D01*
X118953673Y-44549228D01*
X119513019Y-44323237D01*
X120105605Y-44210196D01*
X120708870Y-44214407D01*
X120708870Y-44214407D01*
G37*
M02*
