%TF.GenerationSoftware,KiCad,Pcbnew,4.0.5-e0-6337~49~ubuntu16.04.1*%
%TF.CreationDate,2017-01-20T22:39:39-08:00*%
%TF.ProjectId,5x10-Teensy-LC-Breakout,357831302D5465656E73792D4C432D42,1.0*%
%TF.FileFunction,Copper,L1,Top,Signal*%
%FSLAX46Y46*%
G04 Gerber Fmt 4.6, Leading zero omitted, Abs format (unit mm)*
G04 Created by KiCad (PCBNEW 4.0.5-e0-6337~49~ubuntu16.04.1) date Fri Jan 20 22:39:39 2017*
%MOMM*%
%LPD*%
G01*
G04 APERTURE LIST*
%ADD10C,0.350000*%
%ADD11C,1.727200*%
%ADD12C,6.000000*%
%ADD13C,0.685800*%
%ADD14C,0.508000*%
%ADD15C,0.330200*%
%ADD16C,0.350000*%
G04 APERTURE END LIST*
D10*
D11*
X143831760Y-100159060D03*
X143831760Y-97619060D03*
X143831760Y-95079060D03*
X143831760Y-92539060D03*
X143831760Y-89999060D03*
X143831760Y-87459060D03*
X143831760Y-84919060D03*
X143831760Y-82379060D03*
X143831760Y-79839060D03*
X143831760Y-77299060D03*
X143831760Y-74759060D03*
X143831760Y-72219060D03*
X143831760Y-69679060D03*
X143831760Y-67139060D03*
X128591760Y-67139060D03*
X128591760Y-74759060D03*
X128591760Y-95079060D03*
X128591760Y-79839060D03*
X128591760Y-77299060D03*
X128591760Y-97619060D03*
X128591760Y-89999060D03*
X128591760Y-100159060D03*
X128591760Y-87459060D03*
X128591760Y-84919060D03*
X128591760Y-82379060D03*
X128591760Y-92539060D03*
X128591760Y-69679060D03*
X128591760Y-72219060D03*
D12*
X120384760Y-79288560D03*
X120385760Y-87288560D03*
X120385760Y-103288560D03*
X120385760Y-71288560D03*
X120385760Y-111288560D03*
X120385760Y-95288560D03*
X120384760Y-63288560D03*
X120384760Y-55288560D03*
X120385760Y-119288560D03*
X128384760Y-119288560D03*
X136384760Y-119288560D03*
X144384760Y-119288560D03*
X136384760Y-47288560D03*
X144384760Y-47288560D03*
X120385760Y-47288560D03*
X128384760Y-47288560D03*
X152384760Y-47288560D03*
X152384760Y-55288560D03*
X152384760Y-63288560D03*
X152384760Y-71288560D03*
X152384760Y-79288560D03*
X152384760Y-87288560D03*
X152384760Y-95288560D03*
X152384760Y-103288560D03*
X152384760Y-111288560D03*
X152384760Y-119288560D03*
D13*
X137683240Y-97348040D03*
X125892560Y-102443280D03*
X133202680Y-102443280D03*
D14*
X143831760Y-67139060D02*
X143831760Y-47841560D01*
X143831760Y-47841560D02*
X144384760Y-47288560D01*
X145704560Y-53929280D02*
X145704560Y-67806260D01*
X145704560Y-67806260D02*
X143831760Y-69679060D01*
X149345281Y-50288559D02*
X145704560Y-53929280D01*
X152384760Y-47288560D02*
X149384761Y-50288559D01*
X149384761Y-50288559D02*
X149345281Y-50288559D01*
X143831760Y-72219060D02*
X145053074Y-72219060D01*
X147086320Y-70185814D02*
X147086320Y-60587000D01*
X145053074Y-72219060D02*
X147086320Y-70185814D01*
X147086320Y-60587000D02*
X152384760Y-55288560D01*
X148584920Y-71719440D02*
X148584920Y-67088400D01*
X148584920Y-67088400D02*
X152384760Y-63288560D01*
X145545300Y-74759060D02*
X148584920Y-71719440D01*
X143831760Y-74759060D02*
X145545300Y-74759060D01*
X152384760Y-71288560D02*
X146374260Y-77299060D01*
X146374260Y-77299060D02*
X143831760Y-77299060D01*
X143831760Y-79839060D02*
X151834260Y-79839060D01*
X151834260Y-79839060D02*
X152384760Y-79288560D01*
X152384760Y-87288560D02*
X147475260Y-82379060D01*
X147475260Y-82379060D02*
X143831760Y-82379060D01*
X152384760Y-93223080D02*
X152135780Y-93223080D01*
X152135780Y-93223080D02*
X143831760Y-84919060D01*
X152384760Y-95288560D02*
X152384760Y-93223080D01*
X148432520Y-99349560D02*
X148432520Y-92059820D01*
X148432520Y-92059820D02*
X143831760Y-87459060D01*
X149371521Y-100288561D02*
X148432520Y-99349560D01*
X152384760Y-103288560D02*
X149384761Y-100288561D01*
X149384761Y-100288561D02*
X149371521Y-100288561D01*
X147147280Y-106141520D02*
X147147280Y-93314580D01*
X147147280Y-93314580D02*
X143831760Y-89999060D01*
X149294321Y-108288561D02*
X147147280Y-106141520D01*
X152384760Y-111288560D02*
X149384761Y-108288561D01*
X149384761Y-108288561D02*
X149294321Y-108288561D01*
X145811240Y-112679480D02*
X145811240Y-94518540D01*
X145811240Y-94518540D02*
X143831760Y-92539060D01*
X149384761Y-116253001D02*
X145811240Y-112679480D01*
X152384760Y-119288560D02*
X149384761Y-116288561D01*
X149384761Y-116288561D02*
X149384761Y-116253001D01*
X140406120Y-96367600D02*
X140406120Y-115309920D01*
X140406120Y-115309920D02*
X144384760Y-119288560D01*
X141694660Y-95079060D02*
X140406120Y-96367600D01*
X143831760Y-95079060D02*
X141694660Y-95079060D01*
X136384760Y-98646520D02*
X137683240Y-97348040D01*
X136384760Y-119288560D02*
X136384760Y-98646520D01*
X124099320Y-101975920D02*
X124099320Y-107575000D01*
X124099320Y-107575000D02*
X120385760Y-111288560D01*
X126776480Y-99298760D02*
X124099320Y-101975920D01*
X126776480Y-89265760D02*
X126776480Y-99298760D01*
X127719581Y-88322659D02*
X126776480Y-89265760D01*
X128591760Y-87459060D02*
X127728161Y-88322659D01*
X127728161Y-88322659D02*
X127719581Y-88322659D01*
X125643640Y-97088960D02*
X125643640Y-87867180D01*
X125643640Y-87867180D02*
X128591760Y-84919060D01*
X123385759Y-99346841D02*
X125643640Y-97088960D01*
X120385760Y-103288560D02*
X123385759Y-100288561D01*
X123385759Y-100288561D02*
X123385759Y-99346841D01*
X124510800Y-86492080D02*
X124510800Y-91163520D01*
X124510800Y-91163520D02*
X120385760Y-95288560D01*
X127728161Y-83274719D02*
X124510800Y-86492080D01*
X128591760Y-82379060D02*
X127728161Y-83242659D01*
X127728161Y-83242659D02*
X127728161Y-83274719D01*
X128591760Y-79839060D02*
X121142260Y-87288560D01*
X121142260Y-87288560D02*
X120385760Y-87288560D01*
X120384760Y-79288560D02*
X126602260Y-79288560D01*
X126602260Y-79288560D02*
X128591760Y-77299060D01*
X128591760Y-74759060D02*
X125121260Y-71288560D01*
X125121260Y-71288560D02*
X120385760Y-71288560D01*
X128591760Y-72219060D02*
X120384760Y-64012060D01*
X120384760Y-64012060D02*
X120384760Y-63288560D01*
X126776480Y-61680280D02*
X126776480Y-67863780D01*
X126776480Y-67863780D02*
X128591760Y-69679060D01*
X120384760Y-55288560D02*
X126776480Y-61680280D01*
X125633480Y-102702360D02*
X125633480Y-114040840D01*
X133202680Y-102443280D02*
X125892560Y-102443280D01*
X125892560Y-102443280D02*
X125633480Y-102702360D01*
X130876040Y-112554640D02*
X130876040Y-95082360D01*
X128591760Y-95079060D02*
X129813074Y-95079060D01*
X130876040Y-95082360D02*
X130876040Y-54022480D01*
X129813074Y-95079060D02*
X129816374Y-95082360D01*
X129816374Y-95082360D02*
X130876040Y-95082360D01*
X128384760Y-119288560D02*
X128384760Y-115045920D01*
X128384760Y-115045920D02*
X130876040Y-112554640D01*
X130876040Y-54022480D02*
X128384760Y-51531200D01*
X128384760Y-51531200D02*
X128384760Y-47288560D01*
X125633480Y-114040840D02*
X120385760Y-119288560D01*
D15*
X137683240Y-97348040D03*
X125892560Y-102443280D03*
X133202680Y-102443280D03*
D16*
X143831760Y-100159060D03*
X143831760Y-97619060D03*
X143831760Y-95079060D03*
X143831760Y-92539060D03*
X143831760Y-89999060D03*
X143831760Y-87459060D03*
X143831760Y-84919060D03*
X143831760Y-82379060D03*
X143831760Y-79839060D03*
X143831760Y-77299060D03*
X143831760Y-74759060D03*
X143831760Y-72219060D03*
X143831760Y-69679060D03*
X143831760Y-67139060D03*
X128591760Y-67139060D03*
X128591760Y-74759060D03*
X128591760Y-95079060D03*
X128591760Y-79839060D03*
X128591760Y-77299060D03*
X128591760Y-97619060D03*
X128591760Y-89999060D03*
X128591760Y-100159060D03*
X128591760Y-87459060D03*
X128591760Y-84919060D03*
X128591760Y-82379060D03*
X128591760Y-92539060D03*
X128591760Y-69679060D03*
X128591760Y-72219060D03*
X120384760Y-79288560D03*
X120385760Y-87288560D03*
X120385760Y-103288560D03*
X120385760Y-71288560D03*
X120385760Y-111288560D03*
X120385760Y-95288560D03*
X120384760Y-63288560D03*
X120384760Y-55288560D03*
X120385760Y-119288560D03*
X128384760Y-119288560D03*
X136384760Y-119288560D03*
X144384760Y-119288560D03*
X136384760Y-47288560D03*
X144384760Y-47288560D03*
X120385760Y-47288560D03*
X128384760Y-47288560D03*
X152384760Y-47288560D03*
X152384760Y-55288560D03*
X152384760Y-63288560D03*
X152384760Y-71288560D03*
X152384760Y-79288560D03*
X152384760Y-87288560D03*
X152384760Y-95288560D03*
X152384760Y-103288560D03*
X152384760Y-111288560D03*
X152384760Y-119288560D03*
M02*
