%TF.GenerationSoftware,KiCad,Pcbnew,4.0.5-e0-6337~49~ubuntu16.04.1*%
%TF.CreationDate,2017-08-07T15:34:58-07:00*%
%TF.ProjectId,5x10-Teensy-LC-Breakout,357831302D5465656E73792D4C432D42,v1.2*%
%TF.FileFunction,Soldermask,Bot*%
%FSLAX46Y46*%
G04 Gerber Fmt 4.6, Leading zero omitted, Abs format (unit mm)*
G04 Created by KiCad (PCBNEW 4.0.5-e0-6337~49~ubuntu16.04.1) date Mon Aug  7 15:34:58 2017*
%MOMM*%
%LPD*%
G01*
G04 APERTURE LIST*
%ADD10C,0.350000*%
G04 APERTURE END LIST*
D10*
G36*
X40137070Y-131505207D02*
X40728015Y-131626511D01*
X41284158Y-131860292D01*
X41784294Y-132197638D01*
X42209381Y-132625703D01*
X42543226Y-133128181D01*
X42773116Y-133685936D01*
X42890224Y-134277374D01*
X42890224Y-134277384D01*
X42890291Y-134277723D01*
X42880670Y-134966776D01*
X42880593Y-134967114D01*
X42880593Y-134967122D01*
X42747017Y-135555061D01*
X42501645Y-136106176D01*
X42153897Y-136599138D01*
X41717022Y-137015169D01*
X41207660Y-137338421D01*
X40645214Y-137556579D01*
X40051107Y-137661336D01*
X39447963Y-137648702D01*
X38858760Y-137519157D01*
X38305942Y-137277637D01*
X37810567Y-136933342D01*
X37391497Y-136499383D01*
X37064698Y-135992290D01*
X36842616Y-135431374D01*
X36733715Y-134838018D01*
X36742137Y-134234801D01*
X36867566Y-133644707D01*
X37105219Y-133090218D01*
X37446051Y-132592448D01*
X37877072Y-132170360D01*
X38381873Y-131840028D01*
X38941219Y-131614037D01*
X39533805Y-131500996D01*
X40137070Y-131505207D01*
X40137070Y-131505207D01*
G37*
G36*
X32137070Y-131505207D02*
X32728015Y-131626511D01*
X33284158Y-131860292D01*
X33784294Y-132197638D01*
X34209381Y-132625703D01*
X34543226Y-133128181D01*
X34773116Y-133685936D01*
X34890224Y-134277374D01*
X34890224Y-134277384D01*
X34890291Y-134277723D01*
X34880670Y-134966776D01*
X34880593Y-134967114D01*
X34880593Y-134967122D01*
X34747017Y-135555061D01*
X34501645Y-136106176D01*
X34153897Y-136599138D01*
X33717022Y-137015169D01*
X33207660Y-137338421D01*
X32645214Y-137556579D01*
X32051107Y-137661336D01*
X31447963Y-137648702D01*
X30858760Y-137519157D01*
X30305942Y-137277637D01*
X29810567Y-136933342D01*
X29391497Y-136499383D01*
X29064698Y-135992290D01*
X28842616Y-135431374D01*
X28733715Y-134838018D01*
X28742137Y-134234801D01*
X28867566Y-133644707D01*
X29105219Y-133090218D01*
X29446051Y-132592448D01*
X29877072Y-132170360D01*
X30381873Y-131840028D01*
X30941219Y-131614037D01*
X31533805Y-131500996D01*
X32137070Y-131505207D01*
X32137070Y-131505207D01*
G37*
G36*
X24138070Y-131505207D02*
X24729015Y-131626511D01*
X25285158Y-131860292D01*
X25785294Y-132197638D01*
X26210381Y-132625703D01*
X26544226Y-133128181D01*
X26774116Y-133685936D01*
X26891224Y-134277374D01*
X26891224Y-134277384D01*
X26891291Y-134277723D01*
X26881670Y-134966776D01*
X26881593Y-134967114D01*
X26881593Y-134967122D01*
X26748017Y-135555061D01*
X26502645Y-136106176D01*
X26154897Y-136599138D01*
X25718022Y-137015169D01*
X25208660Y-137338421D01*
X24646214Y-137556579D01*
X24052107Y-137661336D01*
X23448963Y-137648702D01*
X22859760Y-137519157D01*
X22306942Y-137277637D01*
X21811567Y-136933342D01*
X21392497Y-136499383D01*
X21065698Y-135992290D01*
X20843616Y-135431374D01*
X20734715Y-134838018D01*
X20743137Y-134234801D01*
X20868566Y-133644707D01*
X21106219Y-133090218D01*
X21447051Y-132592448D01*
X21878072Y-132170360D01*
X22382873Y-131840028D01*
X22942219Y-131614037D01*
X23534805Y-131500996D01*
X24138070Y-131505207D01*
X24138070Y-131505207D01*
G37*
G36*
X48137070Y-131505207D02*
X48728015Y-131626511D01*
X49284158Y-131860292D01*
X49784294Y-132197638D01*
X50209381Y-132625703D01*
X50543226Y-133128181D01*
X50773116Y-133685936D01*
X50890224Y-134277374D01*
X50890224Y-134277384D01*
X50890291Y-134277723D01*
X50880670Y-134966776D01*
X50880593Y-134967114D01*
X50880593Y-134967122D01*
X50747017Y-135555061D01*
X50501645Y-136106176D01*
X50153897Y-136599138D01*
X49717022Y-137015169D01*
X49207660Y-137338421D01*
X48645214Y-137556579D01*
X48051107Y-137661336D01*
X47447963Y-137648702D01*
X46858760Y-137519157D01*
X46305942Y-137277637D01*
X45810567Y-136933342D01*
X45391497Y-136499383D01*
X45064698Y-135992290D01*
X44842616Y-135431374D01*
X44733715Y-134838018D01*
X44742137Y-134234801D01*
X44867566Y-133644707D01*
X45105219Y-133090218D01*
X45446051Y-132592448D01*
X45877072Y-132170360D01*
X46381873Y-131840028D01*
X46941219Y-131614037D01*
X47533805Y-131500996D01*
X48137070Y-131505207D01*
X48137070Y-131505207D01*
G37*
G36*
X56137070Y-131505207D02*
X56728015Y-131626511D01*
X57284158Y-131860292D01*
X57784294Y-132197638D01*
X58209381Y-132625703D01*
X58543226Y-133128181D01*
X58773116Y-133685936D01*
X58890224Y-134277374D01*
X58890224Y-134277384D01*
X58890291Y-134277723D01*
X58880670Y-134966776D01*
X58880593Y-134967114D01*
X58880593Y-134967122D01*
X58747017Y-135555061D01*
X58501645Y-136106176D01*
X58153897Y-136599138D01*
X57717022Y-137015169D01*
X57207660Y-137338421D01*
X56645214Y-137556579D01*
X56051107Y-137661336D01*
X55447963Y-137648702D01*
X54858760Y-137519157D01*
X54305942Y-137277637D01*
X53810567Y-136933342D01*
X53391497Y-136499383D01*
X53064698Y-135992290D01*
X52842616Y-135431374D01*
X52733715Y-134838018D01*
X52742137Y-134234801D01*
X52867566Y-133644707D01*
X53105219Y-133090218D01*
X53446051Y-132592448D01*
X53877072Y-132170360D01*
X54381873Y-131840028D01*
X54941219Y-131614037D01*
X55533805Y-131500996D01*
X56137070Y-131505207D01*
X56137070Y-131505207D01*
G37*
G36*
X24138070Y-123505207D02*
X24729015Y-123626511D01*
X25285158Y-123860292D01*
X25785294Y-124197638D01*
X26210381Y-124625703D01*
X26544226Y-125128181D01*
X26774116Y-125685936D01*
X26891224Y-126277374D01*
X26891224Y-126277384D01*
X26891291Y-126277723D01*
X26881670Y-126966776D01*
X26881593Y-126967114D01*
X26881593Y-126967122D01*
X26748017Y-127555061D01*
X26502645Y-128106176D01*
X26154897Y-128599138D01*
X25718022Y-129015169D01*
X25208660Y-129338421D01*
X24646214Y-129556579D01*
X24052107Y-129661336D01*
X23448963Y-129648702D01*
X22859760Y-129519157D01*
X22306942Y-129277637D01*
X21811567Y-128933342D01*
X21392497Y-128499383D01*
X21065698Y-127992290D01*
X20843616Y-127431374D01*
X20734715Y-126838018D01*
X20743137Y-126234801D01*
X20868566Y-125644707D01*
X21106219Y-125090218D01*
X21447051Y-124592448D01*
X21878072Y-124170360D01*
X22382873Y-123840028D01*
X22942219Y-123614037D01*
X23534805Y-123500996D01*
X24138070Y-123505207D01*
X24138070Y-123505207D01*
G37*
G36*
X56137070Y-123505207D02*
X56728015Y-123626511D01*
X57284158Y-123860292D01*
X57784294Y-124197638D01*
X58209381Y-124625703D01*
X58543226Y-125128181D01*
X58773116Y-125685936D01*
X58890224Y-126277374D01*
X58890224Y-126277384D01*
X58890291Y-126277723D01*
X58880670Y-126966776D01*
X58880593Y-126967114D01*
X58880593Y-126967122D01*
X58747017Y-127555061D01*
X58501645Y-128106176D01*
X58153897Y-128599138D01*
X57717022Y-129015169D01*
X57207660Y-129338421D01*
X56645214Y-129556579D01*
X56051107Y-129661336D01*
X55447963Y-129648702D01*
X54858760Y-129519157D01*
X54305942Y-129277637D01*
X53810567Y-128933342D01*
X53391497Y-128499383D01*
X53064698Y-127992290D01*
X52842616Y-127431374D01*
X52733715Y-126838018D01*
X52742137Y-126234801D01*
X52867566Y-125644707D01*
X53105219Y-125090218D01*
X53446051Y-124592448D01*
X53877072Y-124170360D01*
X54381873Y-123840028D01*
X54941219Y-123614037D01*
X55533805Y-123500996D01*
X56137070Y-123505207D01*
X56137070Y-123505207D01*
G37*
G36*
X24138070Y-115505207D02*
X24729015Y-115626511D01*
X25285158Y-115860292D01*
X25785294Y-116197638D01*
X26210381Y-116625703D01*
X26544226Y-117128181D01*
X26774116Y-117685936D01*
X26891224Y-118277374D01*
X26891224Y-118277384D01*
X26891291Y-118277723D01*
X26881670Y-118966776D01*
X26881593Y-118967114D01*
X26881593Y-118967122D01*
X26748017Y-119555061D01*
X26502645Y-120106176D01*
X26154897Y-120599138D01*
X25718022Y-121015169D01*
X25208660Y-121338421D01*
X24646214Y-121556579D01*
X24052107Y-121661336D01*
X23448963Y-121648702D01*
X22859760Y-121519157D01*
X22306942Y-121277637D01*
X21811567Y-120933342D01*
X21392497Y-120499383D01*
X21065698Y-119992290D01*
X20843616Y-119431374D01*
X20734715Y-118838018D01*
X20743137Y-118234801D01*
X20868566Y-117644707D01*
X21106219Y-117090218D01*
X21447051Y-116592448D01*
X21878072Y-116170360D01*
X22382873Y-115840028D01*
X22942219Y-115614037D01*
X23534805Y-115500996D01*
X24138070Y-115505207D01*
X24138070Y-115505207D01*
G37*
G36*
X56137070Y-115505207D02*
X56728015Y-115626511D01*
X57284158Y-115860292D01*
X57784294Y-116197638D01*
X58209381Y-116625703D01*
X58543226Y-117128181D01*
X58773116Y-117685936D01*
X58890224Y-118277374D01*
X58890224Y-118277384D01*
X58890291Y-118277723D01*
X58880670Y-118966776D01*
X58880593Y-118967114D01*
X58880593Y-118967122D01*
X58747017Y-119555061D01*
X58501645Y-120106176D01*
X58153897Y-120599138D01*
X57717022Y-121015169D01*
X57207660Y-121338421D01*
X56645214Y-121556579D01*
X56051107Y-121661336D01*
X55447963Y-121648702D01*
X54858760Y-121519157D01*
X54305942Y-121277637D01*
X53810567Y-120933342D01*
X53391497Y-120499383D01*
X53064698Y-119992290D01*
X52842616Y-119431374D01*
X52733715Y-118838018D01*
X52742137Y-118234801D01*
X52867566Y-117644707D01*
X53105219Y-117090218D01*
X53446051Y-116592448D01*
X53877072Y-116170360D01*
X54381873Y-115840028D01*
X54941219Y-115614037D01*
X55533805Y-115500996D01*
X56137070Y-115505207D01*
X56137070Y-115505207D01*
G37*
G36*
X47359675Y-114510684D02*
X47540208Y-114547743D01*
X47710118Y-114619166D01*
X47862909Y-114722226D01*
X47992781Y-114853006D01*
X48094770Y-115006513D01*
X48165003Y-115176911D01*
X48200732Y-115357359D01*
X48200732Y-115357364D01*
X48200800Y-115357708D01*
X48197861Y-115568218D01*
X48197784Y-115568556D01*
X48197784Y-115568566D01*
X48157030Y-115747946D01*
X48082068Y-115916312D01*
X47975828Y-116066916D01*
X47842359Y-116194017D01*
X47686744Y-116292774D01*
X47514914Y-116359422D01*
X47333412Y-116391426D01*
X47149146Y-116387566D01*
X46969139Y-116347989D01*
X46800248Y-116274203D01*
X46648910Y-116169020D01*
X46520881Y-116036442D01*
X46421041Y-115881521D01*
X46353192Y-115710153D01*
X46319923Y-115528883D01*
X46322495Y-115344596D01*
X46360816Y-115164316D01*
X46433419Y-114994917D01*
X46537547Y-114842844D01*
X46669226Y-114713893D01*
X46823447Y-114612974D01*
X46994332Y-114543932D01*
X47175369Y-114509398D01*
X47359675Y-114510684D01*
X47359675Y-114510684D01*
G37*
G36*
X32119675Y-114510684D02*
X32300208Y-114547743D01*
X32470118Y-114619166D01*
X32622909Y-114722226D01*
X32752781Y-114853006D01*
X32854770Y-115006513D01*
X32925003Y-115176911D01*
X32960732Y-115357359D01*
X32960732Y-115357364D01*
X32960800Y-115357708D01*
X32957861Y-115568218D01*
X32957784Y-115568556D01*
X32957784Y-115568566D01*
X32917030Y-115747946D01*
X32842068Y-115916312D01*
X32735828Y-116066916D01*
X32602359Y-116194017D01*
X32446744Y-116292774D01*
X32274914Y-116359422D01*
X32093412Y-116391426D01*
X31909146Y-116387566D01*
X31729139Y-116347989D01*
X31560248Y-116274203D01*
X31408910Y-116169020D01*
X31280881Y-116036442D01*
X31181041Y-115881521D01*
X31113192Y-115710153D01*
X31079923Y-115528883D01*
X31082495Y-115344596D01*
X31120816Y-115164316D01*
X31193419Y-114994917D01*
X31297547Y-114842844D01*
X31429226Y-114713893D01*
X31583447Y-114612974D01*
X31754332Y-114543932D01*
X31935369Y-114509398D01*
X32119675Y-114510684D01*
X32119675Y-114510684D01*
G37*
G36*
X32119675Y-111970684D02*
X32300208Y-112007743D01*
X32470118Y-112079166D01*
X32622909Y-112182226D01*
X32752781Y-112313006D01*
X32854770Y-112466513D01*
X32925003Y-112636911D01*
X32960732Y-112817359D01*
X32960732Y-112817364D01*
X32960800Y-112817708D01*
X32957861Y-113028218D01*
X32957784Y-113028556D01*
X32957784Y-113028566D01*
X32917030Y-113207946D01*
X32842068Y-113376312D01*
X32735828Y-113526916D01*
X32602359Y-113654017D01*
X32446744Y-113752774D01*
X32274914Y-113819422D01*
X32093412Y-113851426D01*
X31909146Y-113847566D01*
X31729139Y-113807989D01*
X31560248Y-113734203D01*
X31408910Y-113629020D01*
X31280881Y-113496442D01*
X31181041Y-113341521D01*
X31113192Y-113170153D01*
X31079923Y-112988883D01*
X31082495Y-112804596D01*
X31120816Y-112624316D01*
X31193419Y-112454917D01*
X31297547Y-112302844D01*
X31429226Y-112173893D01*
X31583447Y-112072974D01*
X31754332Y-112003932D01*
X31935369Y-111969398D01*
X32119675Y-111970684D01*
X32119675Y-111970684D01*
G37*
G36*
X47359675Y-111970684D02*
X47540208Y-112007743D01*
X47710118Y-112079166D01*
X47862909Y-112182226D01*
X47992781Y-112313006D01*
X48094770Y-112466513D01*
X48165003Y-112636911D01*
X48200732Y-112817359D01*
X48200732Y-112817364D01*
X48200800Y-112817708D01*
X48197861Y-113028218D01*
X48197784Y-113028556D01*
X48197784Y-113028566D01*
X48157030Y-113207946D01*
X48082068Y-113376312D01*
X47975828Y-113526916D01*
X47842359Y-113654017D01*
X47686744Y-113752774D01*
X47514914Y-113819422D01*
X47333412Y-113851426D01*
X47149146Y-113847566D01*
X46969139Y-113807989D01*
X46800248Y-113734203D01*
X46648910Y-113629020D01*
X46520881Y-113496442D01*
X46421041Y-113341521D01*
X46353192Y-113170153D01*
X46319923Y-112988883D01*
X46322495Y-112804596D01*
X46360816Y-112624316D01*
X46433419Y-112454917D01*
X46537547Y-112302844D01*
X46669226Y-112173893D01*
X46823447Y-112072974D01*
X46994332Y-112003932D01*
X47175369Y-111969398D01*
X47359675Y-111970684D01*
X47359675Y-111970684D01*
G37*
G36*
X24138070Y-107505207D02*
X24729015Y-107626511D01*
X25285158Y-107860292D01*
X25785294Y-108197638D01*
X26210381Y-108625703D01*
X26544226Y-109128181D01*
X26774116Y-109685936D01*
X26891224Y-110277374D01*
X26891224Y-110277384D01*
X26891291Y-110277723D01*
X26881670Y-110966776D01*
X26881593Y-110967114D01*
X26881593Y-110967122D01*
X26748017Y-111555061D01*
X26502645Y-112106176D01*
X26154897Y-112599138D01*
X25718022Y-113015169D01*
X25208660Y-113338421D01*
X24646214Y-113556579D01*
X24052107Y-113661336D01*
X23448963Y-113648702D01*
X22859760Y-113519157D01*
X22306942Y-113277637D01*
X21811567Y-112933342D01*
X21392497Y-112499383D01*
X21065698Y-111992290D01*
X20843616Y-111431374D01*
X20734715Y-110838018D01*
X20743137Y-110234801D01*
X20868566Y-109644707D01*
X21106219Y-109090218D01*
X21447051Y-108592448D01*
X21878072Y-108170360D01*
X22382873Y-107840028D01*
X22942219Y-107614037D01*
X23534805Y-107500996D01*
X24138070Y-107505207D01*
X24138070Y-107505207D01*
G37*
G36*
X56137070Y-107505207D02*
X56728015Y-107626511D01*
X57284158Y-107860292D01*
X57784294Y-108197638D01*
X58209381Y-108625703D01*
X58543226Y-109128181D01*
X58773116Y-109685936D01*
X58890224Y-110277374D01*
X58890224Y-110277384D01*
X58890291Y-110277723D01*
X58880670Y-110966776D01*
X58880593Y-110967114D01*
X58880593Y-110967122D01*
X58747017Y-111555061D01*
X58501645Y-112106176D01*
X58153897Y-112599138D01*
X57717022Y-113015169D01*
X57207660Y-113338421D01*
X56645214Y-113556579D01*
X56051107Y-113661336D01*
X55447963Y-113648702D01*
X54858760Y-113519157D01*
X54305942Y-113277637D01*
X53810567Y-112933342D01*
X53391497Y-112499383D01*
X53064698Y-111992290D01*
X52842616Y-111431374D01*
X52733715Y-110838018D01*
X52742137Y-110234801D01*
X52867566Y-109644707D01*
X53105219Y-109090218D01*
X53446051Y-108592448D01*
X53877072Y-108170360D01*
X54381873Y-107840028D01*
X54941219Y-107614037D01*
X55533805Y-107500996D01*
X56137070Y-107505207D01*
X56137070Y-107505207D01*
G37*
G36*
X32119675Y-109430684D02*
X32300208Y-109467743D01*
X32470118Y-109539166D01*
X32622909Y-109642226D01*
X32752781Y-109773006D01*
X32854770Y-109926513D01*
X32925003Y-110096911D01*
X32960732Y-110277359D01*
X32960732Y-110277364D01*
X32960800Y-110277708D01*
X32957861Y-110488218D01*
X32957784Y-110488556D01*
X32957784Y-110488566D01*
X32917030Y-110667946D01*
X32842068Y-110836312D01*
X32735828Y-110986916D01*
X32602359Y-111114017D01*
X32446744Y-111212774D01*
X32274914Y-111279422D01*
X32093412Y-111311426D01*
X31909146Y-111307566D01*
X31729139Y-111267989D01*
X31560248Y-111194203D01*
X31408910Y-111089020D01*
X31280881Y-110956442D01*
X31181041Y-110801521D01*
X31113192Y-110630153D01*
X31079923Y-110448883D01*
X31082495Y-110264596D01*
X31120816Y-110084316D01*
X31193419Y-109914917D01*
X31297547Y-109762844D01*
X31429226Y-109633893D01*
X31583447Y-109532974D01*
X31754332Y-109463932D01*
X31935369Y-109429398D01*
X32119675Y-109430684D01*
X32119675Y-109430684D01*
G37*
G36*
X47359675Y-109430684D02*
X47540208Y-109467743D01*
X47710118Y-109539166D01*
X47862909Y-109642226D01*
X47992781Y-109773006D01*
X48094770Y-109926513D01*
X48165003Y-110096911D01*
X48200732Y-110277359D01*
X48200732Y-110277364D01*
X48200800Y-110277708D01*
X48197861Y-110488218D01*
X48197784Y-110488556D01*
X48197784Y-110488566D01*
X48157030Y-110667946D01*
X48082068Y-110836312D01*
X47975828Y-110986916D01*
X47842359Y-111114017D01*
X47686744Y-111212774D01*
X47514914Y-111279422D01*
X47333412Y-111311426D01*
X47149146Y-111307566D01*
X46969139Y-111267989D01*
X46800248Y-111194203D01*
X46648910Y-111089020D01*
X46520881Y-110956442D01*
X46421041Y-110801521D01*
X46353192Y-110630153D01*
X46319923Y-110448883D01*
X46322495Y-110264596D01*
X46360816Y-110084316D01*
X46433419Y-109914917D01*
X46537547Y-109762844D01*
X46669226Y-109633893D01*
X46823447Y-109532974D01*
X46994332Y-109463932D01*
X47175369Y-109429398D01*
X47359675Y-109430684D01*
X47359675Y-109430684D01*
G37*
G36*
X32119675Y-106890684D02*
X32300208Y-106927743D01*
X32470118Y-106999166D01*
X32622909Y-107102226D01*
X32752781Y-107233006D01*
X32854770Y-107386513D01*
X32925003Y-107556911D01*
X32960732Y-107737359D01*
X32960732Y-107737364D01*
X32960800Y-107737708D01*
X32957861Y-107948218D01*
X32957784Y-107948556D01*
X32957784Y-107948566D01*
X32917030Y-108127946D01*
X32842068Y-108296312D01*
X32735828Y-108446916D01*
X32602359Y-108574017D01*
X32446744Y-108672774D01*
X32274914Y-108739422D01*
X32093412Y-108771426D01*
X31909146Y-108767566D01*
X31729139Y-108727989D01*
X31560248Y-108654203D01*
X31408910Y-108549020D01*
X31280881Y-108416442D01*
X31181041Y-108261521D01*
X31113192Y-108090153D01*
X31079923Y-107908883D01*
X31082495Y-107724596D01*
X31120816Y-107544316D01*
X31193419Y-107374917D01*
X31297547Y-107222844D01*
X31429226Y-107093893D01*
X31583447Y-106992974D01*
X31754332Y-106923932D01*
X31935369Y-106889398D01*
X32119675Y-106890684D01*
X32119675Y-106890684D01*
G37*
G36*
X47359675Y-106890684D02*
X47540208Y-106927743D01*
X47710118Y-106999166D01*
X47862909Y-107102226D01*
X47992781Y-107233006D01*
X48094770Y-107386513D01*
X48165003Y-107556911D01*
X48200732Y-107737359D01*
X48200732Y-107737364D01*
X48200800Y-107737708D01*
X48197861Y-107948218D01*
X48197784Y-107948556D01*
X48197784Y-107948566D01*
X48157030Y-108127946D01*
X48082068Y-108296312D01*
X47975828Y-108446916D01*
X47842359Y-108574017D01*
X47686744Y-108672774D01*
X47514914Y-108739422D01*
X47333412Y-108771426D01*
X47149146Y-108767566D01*
X46969139Y-108727989D01*
X46800248Y-108654203D01*
X46648910Y-108549020D01*
X46520881Y-108416442D01*
X46421041Y-108261521D01*
X46353192Y-108090153D01*
X46319923Y-107908883D01*
X46322495Y-107724596D01*
X46360816Y-107544316D01*
X46433419Y-107374917D01*
X46537547Y-107222844D01*
X46669226Y-107093893D01*
X46823447Y-106992974D01*
X46994332Y-106923932D01*
X47175369Y-106889398D01*
X47359675Y-106890684D01*
X47359675Y-106890684D01*
G37*
G36*
X47359675Y-104350684D02*
X47540208Y-104387743D01*
X47710118Y-104459166D01*
X47862909Y-104562226D01*
X47992781Y-104693006D01*
X48094770Y-104846513D01*
X48165003Y-105016911D01*
X48200732Y-105197359D01*
X48200732Y-105197364D01*
X48200800Y-105197708D01*
X48197861Y-105408218D01*
X48197784Y-105408556D01*
X48197784Y-105408566D01*
X48157030Y-105587946D01*
X48082068Y-105756312D01*
X47975828Y-105906916D01*
X47842359Y-106034017D01*
X47686744Y-106132774D01*
X47514914Y-106199422D01*
X47333412Y-106231426D01*
X47149146Y-106227566D01*
X46969139Y-106187989D01*
X46800248Y-106114203D01*
X46648910Y-106009020D01*
X46520881Y-105876442D01*
X46421041Y-105721521D01*
X46353192Y-105550153D01*
X46319923Y-105368883D01*
X46322495Y-105184596D01*
X46360816Y-105004316D01*
X46433419Y-104834917D01*
X46537547Y-104682844D01*
X46669226Y-104553893D01*
X46823447Y-104452974D01*
X46994332Y-104383932D01*
X47175369Y-104349398D01*
X47359675Y-104350684D01*
X47359675Y-104350684D01*
G37*
G36*
X32119675Y-104350684D02*
X32300208Y-104387743D01*
X32470118Y-104459166D01*
X32622909Y-104562226D01*
X32752781Y-104693006D01*
X32854770Y-104846513D01*
X32925003Y-105016911D01*
X32960732Y-105197359D01*
X32960732Y-105197364D01*
X32960800Y-105197708D01*
X32957861Y-105408218D01*
X32957784Y-105408556D01*
X32957784Y-105408566D01*
X32917030Y-105587946D01*
X32842068Y-105756312D01*
X32735828Y-105906916D01*
X32602359Y-106034017D01*
X32446744Y-106132774D01*
X32274914Y-106199422D01*
X32093412Y-106231426D01*
X31909146Y-106227566D01*
X31729139Y-106187989D01*
X31560248Y-106114203D01*
X31408910Y-106009020D01*
X31280881Y-105876442D01*
X31181041Y-105721521D01*
X31113192Y-105550153D01*
X31079923Y-105368883D01*
X31082495Y-105184596D01*
X31120816Y-105004316D01*
X31193419Y-104834917D01*
X31297547Y-104682844D01*
X31429226Y-104553893D01*
X31583447Y-104452974D01*
X31754332Y-104383932D01*
X31935369Y-104349398D01*
X32119675Y-104350684D01*
X32119675Y-104350684D01*
G37*
G36*
X24138070Y-99505207D02*
X24729015Y-99626511D01*
X25285158Y-99860292D01*
X25785294Y-100197638D01*
X26210381Y-100625703D01*
X26544226Y-101128181D01*
X26774116Y-101685936D01*
X26891224Y-102277374D01*
X26891224Y-102277384D01*
X26891291Y-102277723D01*
X26881670Y-102966776D01*
X26881593Y-102967114D01*
X26881593Y-102967122D01*
X26748017Y-103555061D01*
X26502645Y-104106176D01*
X26154897Y-104599138D01*
X25718022Y-105015169D01*
X25208660Y-105338421D01*
X24646214Y-105556579D01*
X24052107Y-105661336D01*
X23448963Y-105648702D01*
X22859760Y-105519157D01*
X22306942Y-105277637D01*
X21811567Y-104933342D01*
X21392497Y-104499383D01*
X21065698Y-103992290D01*
X20843616Y-103431374D01*
X20734715Y-102838018D01*
X20743137Y-102234801D01*
X20868566Y-101644707D01*
X21106219Y-101090218D01*
X21447051Y-100592448D01*
X21878072Y-100170360D01*
X22382873Y-99840028D01*
X22942219Y-99614037D01*
X23534805Y-99500996D01*
X24138070Y-99505207D01*
X24138070Y-99505207D01*
G37*
G36*
X56137070Y-99505207D02*
X56728015Y-99626511D01*
X57284158Y-99860292D01*
X57784294Y-100197638D01*
X58209381Y-100625703D01*
X58543226Y-101128181D01*
X58773116Y-101685936D01*
X58890224Y-102277374D01*
X58890224Y-102277384D01*
X58890291Y-102277723D01*
X58880670Y-102966776D01*
X58880593Y-102967114D01*
X58880593Y-102967122D01*
X58747017Y-103555061D01*
X58501645Y-104106176D01*
X58153897Y-104599138D01*
X57717022Y-105015169D01*
X57207660Y-105338421D01*
X56645214Y-105556579D01*
X56051107Y-105661336D01*
X55447963Y-105648702D01*
X54858760Y-105519157D01*
X54305942Y-105277637D01*
X53810567Y-104933342D01*
X53391497Y-104499383D01*
X53064698Y-103992290D01*
X52842616Y-103431374D01*
X52733715Y-102838018D01*
X52742137Y-102234801D01*
X52867566Y-101644707D01*
X53105219Y-101090218D01*
X53446051Y-100592448D01*
X53877072Y-100170360D01*
X54381873Y-99840028D01*
X54941219Y-99614037D01*
X55533805Y-99500996D01*
X56137070Y-99505207D01*
X56137070Y-99505207D01*
G37*
G36*
X47359675Y-101810684D02*
X47540208Y-101847743D01*
X47710118Y-101919166D01*
X47862909Y-102022226D01*
X47992781Y-102153006D01*
X48094770Y-102306513D01*
X48165003Y-102476911D01*
X48200732Y-102657359D01*
X48200732Y-102657364D01*
X48200800Y-102657708D01*
X48197861Y-102868218D01*
X48197784Y-102868556D01*
X48197784Y-102868566D01*
X48157030Y-103047946D01*
X48082068Y-103216312D01*
X47975828Y-103366916D01*
X47842359Y-103494017D01*
X47686744Y-103592774D01*
X47514914Y-103659422D01*
X47333412Y-103691426D01*
X47149146Y-103687566D01*
X46969139Y-103647989D01*
X46800248Y-103574203D01*
X46648910Y-103469020D01*
X46520881Y-103336442D01*
X46421041Y-103181521D01*
X46353192Y-103010153D01*
X46319923Y-102828883D01*
X46322495Y-102644596D01*
X46360816Y-102464316D01*
X46433419Y-102294917D01*
X46537547Y-102142844D01*
X46669226Y-102013893D01*
X46823447Y-101912974D01*
X46994332Y-101843932D01*
X47175369Y-101809398D01*
X47359675Y-101810684D01*
X47359675Y-101810684D01*
G37*
G36*
X32119675Y-101810684D02*
X32300208Y-101847743D01*
X32470118Y-101919166D01*
X32622909Y-102022226D01*
X32752781Y-102153006D01*
X32854770Y-102306513D01*
X32925003Y-102476911D01*
X32960732Y-102657359D01*
X32960732Y-102657364D01*
X32960800Y-102657708D01*
X32957861Y-102868218D01*
X32957784Y-102868556D01*
X32957784Y-102868566D01*
X32917030Y-103047946D01*
X32842068Y-103216312D01*
X32735828Y-103366916D01*
X32602359Y-103494017D01*
X32446744Y-103592774D01*
X32274914Y-103659422D01*
X32093412Y-103691426D01*
X31909146Y-103687566D01*
X31729139Y-103647989D01*
X31560248Y-103574203D01*
X31408910Y-103469020D01*
X31280881Y-103336442D01*
X31181041Y-103181521D01*
X31113192Y-103010153D01*
X31079923Y-102828883D01*
X31082495Y-102644596D01*
X31120816Y-102464316D01*
X31193419Y-102294917D01*
X31297547Y-102142844D01*
X31429226Y-102013893D01*
X31583447Y-101912974D01*
X31754332Y-101843932D01*
X31935369Y-101809398D01*
X32119675Y-101810684D01*
X32119675Y-101810684D01*
G37*
G36*
X32119675Y-99270684D02*
X32300208Y-99307743D01*
X32470118Y-99379166D01*
X32622909Y-99482226D01*
X32752781Y-99613006D01*
X32854770Y-99766513D01*
X32925003Y-99936911D01*
X32960732Y-100117359D01*
X32960732Y-100117364D01*
X32960800Y-100117708D01*
X32957861Y-100328218D01*
X32957784Y-100328556D01*
X32957784Y-100328566D01*
X32917030Y-100507946D01*
X32842068Y-100676312D01*
X32735828Y-100826916D01*
X32602359Y-100954017D01*
X32446744Y-101052774D01*
X32274914Y-101119422D01*
X32093412Y-101151426D01*
X31909146Y-101147566D01*
X31729139Y-101107989D01*
X31560248Y-101034203D01*
X31408910Y-100929020D01*
X31280881Y-100796442D01*
X31181041Y-100641521D01*
X31113192Y-100470153D01*
X31079923Y-100288883D01*
X31082495Y-100104596D01*
X31120816Y-99924316D01*
X31193419Y-99754917D01*
X31297547Y-99602844D01*
X31429226Y-99473893D01*
X31583447Y-99372974D01*
X31754332Y-99303932D01*
X31935369Y-99269398D01*
X32119675Y-99270684D01*
X32119675Y-99270684D01*
G37*
G36*
X47359675Y-99270684D02*
X47540208Y-99307743D01*
X47710118Y-99379166D01*
X47862909Y-99482226D01*
X47992781Y-99613006D01*
X48094770Y-99766513D01*
X48165003Y-99936911D01*
X48200732Y-100117359D01*
X48200732Y-100117364D01*
X48200800Y-100117708D01*
X48197861Y-100328218D01*
X48197784Y-100328556D01*
X48197784Y-100328566D01*
X48157030Y-100507946D01*
X48082068Y-100676312D01*
X47975828Y-100826916D01*
X47842359Y-100954017D01*
X47686744Y-101052774D01*
X47514914Y-101119422D01*
X47333412Y-101151426D01*
X47149146Y-101147566D01*
X46969139Y-101107989D01*
X46800248Y-101034203D01*
X46648910Y-100929020D01*
X46520881Y-100796442D01*
X46421041Y-100641521D01*
X46353192Y-100470153D01*
X46319923Y-100288883D01*
X46322495Y-100104596D01*
X46360816Y-99924316D01*
X46433419Y-99754917D01*
X46537547Y-99602844D01*
X46669226Y-99473893D01*
X46823447Y-99372974D01*
X46994332Y-99303932D01*
X47175369Y-99269398D01*
X47359675Y-99270684D01*
X47359675Y-99270684D01*
G37*
G36*
X32119675Y-96730684D02*
X32300208Y-96767743D01*
X32470118Y-96839166D01*
X32622909Y-96942226D01*
X32752781Y-97073006D01*
X32854770Y-97226513D01*
X32925003Y-97396911D01*
X32960732Y-97577359D01*
X32960732Y-97577364D01*
X32960800Y-97577708D01*
X32957861Y-97788218D01*
X32957784Y-97788556D01*
X32957784Y-97788566D01*
X32917030Y-97967946D01*
X32842068Y-98136312D01*
X32735828Y-98286916D01*
X32602359Y-98414017D01*
X32446744Y-98512774D01*
X32274914Y-98579422D01*
X32093412Y-98611426D01*
X31909146Y-98607566D01*
X31729139Y-98567989D01*
X31560248Y-98494203D01*
X31408910Y-98389020D01*
X31280881Y-98256442D01*
X31181041Y-98101521D01*
X31113192Y-97930153D01*
X31079923Y-97748883D01*
X31082495Y-97564596D01*
X31120816Y-97384316D01*
X31193419Y-97214917D01*
X31297547Y-97062844D01*
X31429226Y-96933893D01*
X31583447Y-96832974D01*
X31754332Y-96763932D01*
X31935369Y-96729398D01*
X32119675Y-96730684D01*
X32119675Y-96730684D01*
G37*
G36*
X47359675Y-96730684D02*
X47540208Y-96767743D01*
X47710118Y-96839166D01*
X47862909Y-96942226D01*
X47992781Y-97073006D01*
X48094770Y-97226513D01*
X48165003Y-97396911D01*
X48200732Y-97577359D01*
X48200732Y-97577364D01*
X48200800Y-97577708D01*
X48197861Y-97788218D01*
X48197784Y-97788556D01*
X48197784Y-97788566D01*
X48157030Y-97967946D01*
X48082068Y-98136312D01*
X47975828Y-98286916D01*
X47842359Y-98414017D01*
X47686744Y-98512774D01*
X47514914Y-98579422D01*
X47333412Y-98611426D01*
X47149146Y-98607566D01*
X46969139Y-98567989D01*
X46800248Y-98494203D01*
X46648910Y-98389020D01*
X46520881Y-98256442D01*
X46421041Y-98101521D01*
X46353192Y-97930153D01*
X46319923Y-97748883D01*
X46322495Y-97564596D01*
X46360816Y-97384316D01*
X46433419Y-97214917D01*
X46537547Y-97062844D01*
X46669226Y-96933893D01*
X46823447Y-96832974D01*
X46994332Y-96763932D01*
X47175369Y-96729398D01*
X47359675Y-96730684D01*
X47359675Y-96730684D01*
G37*
G36*
X56137070Y-91505207D02*
X56728015Y-91626511D01*
X57284158Y-91860292D01*
X57784294Y-92197638D01*
X58209381Y-92625703D01*
X58543226Y-93128181D01*
X58773116Y-93685936D01*
X58890224Y-94277374D01*
X58890224Y-94277384D01*
X58890291Y-94277723D01*
X58880670Y-94966776D01*
X58880593Y-94967114D01*
X58880593Y-94967122D01*
X58747017Y-95555061D01*
X58501645Y-96106176D01*
X58153897Y-96599138D01*
X57717022Y-97015169D01*
X57207660Y-97338421D01*
X56645214Y-97556579D01*
X56051107Y-97661336D01*
X55447963Y-97648702D01*
X54858760Y-97519157D01*
X54305942Y-97277637D01*
X53810567Y-96933342D01*
X53391497Y-96499383D01*
X53064698Y-95992290D01*
X52842616Y-95431374D01*
X52733715Y-94838018D01*
X52742137Y-94234801D01*
X52867566Y-93644707D01*
X53105219Y-93090218D01*
X53446051Y-92592448D01*
X53877072Y-92170360D01*
X54381873Y-91840028D01*
X54941219Y-91614037D01*
X55533805Y-91500996D01*
X56137070Y-91505207D01*
X56137070Y-91505207D01*
G37*
G36*
X24137070Y-91505207D02*
X24728015Y-91626511D01*
X25284158Y-91860292D01*
X25784294Y-92197638D01*
X26209381Y-92625703D01*
X26543226Y-93128181D01*
X26773116Y-93685936D01*
X26890224Y-94277374D01*
X26890224Y-94277384D01*
X26890291Y-94277723D01*
X26880670Y-94966776D01*
X26880593Y-94967114D01*
X26880593Y-94967122D01*
X26747017Y-95555061D01*
X26501645Y-96106176D01*
X26153897Y-96599138D01*
X25717022Y-97015169D01*
X25207660Y-97338421D01*
X24645214Y-97556579D01*
X24051107Y-97661336D01*
X23447963Y-97648702D01*
X22858760Y-97519157D01*
X22305942Y-97277637D01*
X21810567Y-96933342D01*
X21391497Y-96499383D01*
X21064698Y-95992290D01*
X20842616Y-95431374D01*
X20733715Y-94838018D01*
X20742137Y-94234801D01*
X20867566Y-93644707D01*
X21105219Y-93090218D01*
X21446051Y-92592448D01*
X21877072Y-92170360D01*
X22381873Y-91840028D01*
X22941219Y-91614037D01*
X23533805Y-91500996D01*
X24137070Y-91505207D01*
X24137070Y-91505207D01*
G37*
G36*
X47359675Y-94190684D02*
X47540208Y-94227743D01*
X47710118Y-94299166D01*
X47862909Y-94402226D01*
X47992781Y-94533006D01*
X48094770Y-94686513D01*
X48165003Y-94856911D01*
X48200732Y-95037359D01*
X48200732Y-95037364D01*
X48200800Y-95037708D01*
X48197861Y-95248218D01*
X48197784Y-95248556D01*
X48197784Y-95248566D01*
X48157030Y-95427946D01*
X48082068Y-95596312D01*
X47975828Y-95746916D01*
X47842359Y-95874017D01*
X47686744Y-95972774D01*
X47514914Y-96039422D01*
X47333412Y-96071426D01*
X47149146Y-96067566D01*
X46969139Y-96027989D01*
X46800248Y-95954203D01*
X46648910Y-95849020D01*
X46520881Y-95716442D01*
X46421041Y-95561521D01*
X46353192Y-95390153D01*
X46319923Y-95208883D01*
X46322495Y-95024596D01*
X46360816Y-94844316D01*
X46433419Y-94674917D01*
X46537547Y-94522844D01*
X46669226Y-94393893D01*
X46823447Y-94292974D01*
X46994332Y-94223932D01*
X47175369Y-94189398D01*
X47359675Y-94190684D01*
X47359675Y-94190684D01*
G37*
G36*
X32119675Y-94190684D02*
X32300208Y-94227743D01*
X32470118Y-94299166D01*
X32622909Y-94402226D01*
X32752781Y-94533006D01*
X32854770Y-94686513D01*
X32925003Y-94856911D01*
X32960732Y-95037359D01*
X32960732Y-95037364D01*
X32960800Y-95037708D01*
X32957861Y-95248218D01*
X32957784Y-95248556D01*
X32957784Y-95248566D01*
X32917030Y-95427946D01*
X32842068Y-95596312D01*
X32735828Y-95746916D01*
X32602359Y-95874017D01*
X32446744Y-95972774D01*
X32274914Y-96039422D01*
X32093412Y-96071426D01*
X31909146Y-96067566D01*
X31729139Y-96027989D01*
X31560248Y-95954203D01*
X31408910Y-95849020D01*
X31280881Y-95716442D01*
X31181041Y-95561521D01*
X31113192Y-95390153D01*
X31079923Y-95208883D01*
X31082495Y-95024596D01*
X31120816Y-94844316D01*
X31193419Y-94674917D01*
X31297547Y-94522844D01*
X31429226Y-94393893D01*
X31583447Y-94292974D01*
X31754332Y-94223932D01*
X31935369Y-94189398D01*
X32119675Y-94190684D01*
X32119675Y-94190684D01*
G37*
G36*
X32119675Y-91650684D02*
X32300208Y-91687743D01*
X32470118Y-91759166D01*
X32622909Y-91862226D01*
X32752781Y-91993006D01*
X32854770Y-92146513D01*
X32925003Y-92316911D01*
X32960732Y-92497359D01*
X32960732Y-92497364D01*
X32960800Y-92497708D01*
X32957861Y-92708218D01*
X32957784Y-92708556D01*
X32957784Y-92708566D01*
X32917030Y-92887946D01*
X32842068Y-93056312D01*
X32735828Y-93206916D01*
X32602359Y-93334017D01*
X32446744Y-93432774D01*
X32274914Y-93499422D01*
X32093412Y-93531426D01*
X31909146Y-93527566D01*
X31729139Y-93487989D01*
X31560248Y-93414203D01*
X31408910Y-93309020D01*
X31280881Y-93176442D01*
X31181041Y-93021521D01*
X31113192Y-92850153D01*
X31079923Y-92668883D01*
X31082495Y-92484596D01*
X31120816Y-92304316D01*
X31193419Y-92134917D01*
X31297547Y-91982844D01*
X31429226Y-91853893D01*
X31583447Y-91752974D01*
X31754332Y-91683932D01*
X31935369Y-91649398D01*
X32119675Y-91650684D01*
X32119675Y-91650684D01*
G37*
G36*
X47359675Y-91650684D02*
X47540208Y-91687743D01*
X47710118Y-91759166D01*
X47862909Y-91862226D01*
X47992781Y-91993006D01*
X48094770Y-92146513D01*
X48165003Y-92316911D01*
X48200732Y-92497359D01*
X48200732Y-92497364D01*
X48200800Y-92497708D01*
X48197861Y-92708218D01*
X48197784Y-92708556D01*
X48197784Y-92708566D01*
X48157030Y-92887946D01*
X48082068Y-93056312D01*
X47975828Y-93206916D01*
X47842359Y-93334017D01*
X47686744Y-93432774D01*
X47514914Y-93499422D01*
X47333412Y-93531426D01*
X47149146Y-93527566D01*
X46969139Y-93487989D01*
X46800248Y-93414203D01*
X46648910Y-93309020D01*
X46520881Y-93176442D01*
X46421041Y-93021521D01*
X46353192Y-92850153D01*
X46319923Y-92668883D01*
X46322495Y-92484596D01*
X46360816Y-92304316D01*
X46433419Y-92134917D01*
X46537547Y-91982844D01*
X46669226Y-91853893D01*
X46823447Y-91752974D01*
X46994332Y-91683932D01*
X47175369Y-91649398D01*
X47359675Y-91650684D01*
X47359675Y-91650684D01*
G37*
G36*
X47359675Y-89110684D02*
X47540208Y-89147743D01*
X47710118Y-89219166D01*
X47862909Y-89322226D01*
X47992781Y-89453006D01*
X48094770Y-89606513D01*
X48165003Y-89776911D01*
X48200732Y-89957359D01*
X48200732Y-89957364D01*
X48200800Y-89957708D01*
X48197861Y-90168218D01*
X48197784Y-90168556D01*
X48197784Y-90168566D01*
X48157030Y-90347946D01*
X48082068Y-90516312D01*
X47975828Y-90666916D01*
X47842359Y-90794017D01*
X47686744Y-90892774D01*
X47514914Y-90959422D01*
X47333412Y-90991426D01*
X47149146Y-90987566D01*
X46969139Y-90947989D01*
X46800248Y-90874203D01*
X46648910Y-90769020D01*
X46520881Y-90636442D01*
X46421041Y-90481521D01*
X46353192Y-90310153D01*
X46319923Y-90128883D01*
X46322495Y-89944596D01*
X46360816Y-89764316D01*
X46433419Y-89594917D01*
X46537547Y-89442844D01*
X46669226Y-89313893D01*
X46823447Y-89212974D01*
X46994332Y-89143932D01*
X47175369Y-89109398D01*
X47359675Y-89110684D01*
X47359675Y-89110684D01*
G37*
G36*
X32119675Y-89110684D02*
X32300208Y-89147743D01*
X32470118Y-89219166D01*
X32622909Y-89322226D01*
X32752781Y-89453006D01*
X32854770Y-89606513D01*
X32925003Y-89776911D01*
X32960732Y-89957359D01*
X32960732Y-89957364D01*
X32960800Y-89957708D01*
X32957861Y-90168218D01*
X32957784Y-90168556D01*
X32957784Y-90168566D01*
X32917030Y-90347946D01*
X32842068Y-90516312D01*
X32735828Y-90666916D01*
X32602359Y-90794017D01*
X32446744Y-90892774D01*
X32274914Y-90959422D01*
X32093412Y-90991426D01*
X31909146Y-90987566D01*
X31729139Y-90947989D01*
X31560248Y-90874203D01*
X31408910Y-90769020D01*
X31280881Y-90636442D01*
X31181041Y-90481521D01*
X31113192Y-90310153D01*
X31079923Y-90128883D01*
X31082495Y-89944596D01*
X31120816Y-89764316D01*
X31193419Y-89594917D01*
X31297547Y-89442844D01*
X31429226Y-89313893D01*
X31583447Y-89212974D01*
X31754332Y-89143932D01*
X31935369Y-89109398D01*
X32119675Y-89110684D01*
X32119675Y-89110684D01*
G37*
G36*
X56137070Y-83505207D02*
X56728015Y-83626511D01*
X57284158Y-83860292D01*
X57784294Y-84197638D01*
X58209381Y-84625703D01*
X58543226Y-85128181D01*
X58773116Y-85685936D01*
X58890224Y-86277374D01*
X58890224Y-86277384D01*
X58890291Y-86277723D01*
X58880670Y-86966776D01*
X58880593Y-86967114D01*
X58880593Y-86967122D01*
X58747017Y-87555061D01*
X58501645Y-88106176D01*
X58153897Y-88599138D01*
X57717022Y-89015169D01*
X57207660Y-89338421D01*
X56645214Y-89556579D01*
X56051107Y-89661336D01*
X55447963Y-89648702D01*
X54858760Y-89519157D01*
X54305942Y-89277637D01*
X53810567Y-88933342D01*
X53391497Y-88499383D01*
X53064698Y-87992290D01*
X52842616Y-87431374D01*
X52733715Y-86838018D01*
X52742137Y-86234801D01*
X52867566Y-85644707D01*
X53105219Y-85090218D01*
X53446051Y-84592448D01*
X53877072Y-84170360D01*
X54381873Y-83840028D01*
X54941219Y-83614037D01*
X55533805Y-83500996D01*
X56137070Y-83505207D01*
X56137070Y-83505207D01*
G37*
G36*
X24138070Y-83505207D02*
X24729015Y-83626511D01*
X25285158Y-83860292D01*
X25785294Y-84197638D01*
X26210381Y-84625703D01*
X26544226Y-85128181D01*
X26774116Y-85685936D01*
X26891224Y-86277374D01*
X26891224Y-86277384D01*
X26891291Y-86277723D01*
X26881670Y-86966776D01*
X26881593Y-86967114D01*
X26881593Y-86967122D01*
X26748017Y-87555061D01*
X26502645Y-88106176D01*
X26154897Y-88599138D01*
X25718022Y-89015169D01*
X25208660Y-89338421D01*
X24646214Y-89556579D01*
X24052107Y-89661336D01*
X23448963Y-89648702D01*
X22859760Y-89519157D01*
X22306942Y-89277637D01*
X21811567Y-88933342D01*
X21392497Y-88499383D01*
X21065698Y-87992290D01*
X20843616Y-87431374D01*
X20734715Y-86838018D01*
X20743137Y-86234801D01*
X20868566Y-85644707D01*
X21106219Y-85090218D01*
X21447051Y-84592448D01*
X21878072Y-84170360D01*
X22382873Y-83840028D01*
X22942219Y-83614037D01*
X23534805Y-83500996D01*
X24138070Y-83505207D01*
X24138070Y-83505207D01*
G37*
G36*
X47359675Y-86570684D02*
X47540208Y-86607743D01*
X47710118Y-86679166D01*
X47862909Y-86782226D01*
X47992781Y-86913006D01*
X48094770Y-87066513D01*
X48165003Y-87236911D01*
X48200732Y-87417359D01*
X48200732Y-87417364D01*
X48200800Y-87417708D01*
X48197861Y-87628218D01*
X48197784Y-87628556D01*
X48197784Y-87628566D01*
X48157030Y-87807946D01*
X48082068Y-87976312D01*
X47975828Y-88126916D01*
X47842359Y-88254017D01*
X47686744Y-88352774D01*
X47514914Y-88419422D01*
X47333412Y-88451426D01*
X47149146Y-88447566D01*
X46969139Y-88407989D01*
X46800248Y-88334203D01*
X46648910Y-88229020D01*
X46520881Y-88096442D01*
X46421041Y-87941521D01*
X46353192Y-87770153D01*
X46319923Y-87588883D01*
X46322495Y-87404596D01*
X46360816Y-87224316D01*
X46433419Y-87054917D01*
X46537547Y-86902844D01*
X46669226Y-86773893D01*
X46823447Y-86672974D01*
X46994332Y-86603932D01*
X47175369Y-86569398D01*
X47359675Y-86570684D01*
X47359675Y-86570684D01*
G37*
G36*
X32119675Y-86570684D02*
X32300208Y-86607743D01*
X32470118Y-86679166D01*
X32622909Y-86782226D01*
X32752781Y-86913006D01*
X32854770Y-87066513D01*
X32925003Y-87236911D01*
X32960732Y-87417359D01*
X32960732Y-87417364D01*
X32960800Y-87417708D01*
X32957861Y-87628218D01*
X32957784Y-87628556D01*
X32957784Y-87628566D01*
X32917030Y-87807946D01*
X32842068Y-87976312D01*
X32735828Y-88126916D01*
X32602359Y-88254017D01*
X32446744Y-88352774D01*
X32274914Y-88419422D01*
X32093412Y-88451426D01*
X31909146Y-88447566D01*
X31729139Y-88407989D01*
X31560248Y-88334203D01*
X31408910Y-88229020D01*
X31280881Y-88096442D01*
X31181041Y-87941521D01*
X31113192Y-87770153D01*
X31079923Y-87588883D01*
X31082495Y-87404596D01*
X31120816Y-87224316D01*
X31193419Y-87054917D01*
X31297547Y-86902844D01*
X31429226Y-86773893D01*
X31583447Y-86672974D01*
X31754332Y-86603932D01*
X31935369Y-86569398D01*
X32119675Y-86570684D01*
X32119675Y-86570684D01*
G37*
G36*
X47359675Y-84030684D02*
X47540208Y-84067743D01*
X47710118Y-84139166D01*
X47862909Y-84242226D01*
X47992781Y-84373006D01*
X48094770Y-84526513D01*
X48165003Y-84696911D01*
X48200732Y-84877359D01*
X48200732Y-84877364D01*
X48200800Y-84877708D01*
X48197861Y-85088218D01*
X48197784Y-85088556D01*
X48197784Y-85088566D01*
X48157030Y-85267946D01*
X48082068Y-85436312D01*
X47975828Y-85586916D01*
X47842359Y-85714017D01*
X47686744Y-85812774D01*
X47514914Y-85879422D01*
X47333412Y-85911426D01*
X47149146Y-85907566D01*
X46969139Y-85867989D01*
X46800248Y-85794203D01*
X46648910Y-85689020D01*
X46520881Y-85556442D01*
X46421041Y-85401521D01*
X46353192Y-85230153D01*
X46319923Y-85048883D01*
X46322495Y-84864596D01*
X46360816Y-84684316D01*
X46433419Y-84514917D01*
X46537547Y-84362844D01*
X46669226Y-84233893D01*
X46823447Y-84132974D01*
X46994332Y-84063932D01*
X47175369Y-84029398D01*
X47359675Y-84030684D01*
X47359675Y-84030684D01*
G37*
G36*
X32119675Y-84030684D02*
X32300208Y-84067743D01*
X32470118Y-84139166D01*
X32622909Y-84242226D01*
X32752781Y-84373006D01*
X32854770Y-84526513D01*
X32925003Y-84696911D01*
X32960732Y-84877359D01*
X32960732Y-84877364D01*
X32960800Y-84877708D01*
X32957861Y-85088218D01*
X32957784Y-85088556D01*
X32957784Y-85088566D01*
X32917030Y-85267946D01*
X32842068Y-85436312D01*
X32735828Y-85586916D01*
X32602359Y-85714017D01*
X32446744Y-85812774D01*
X32274914Y-85879422D01*
X32093412Y-85911426D01*
X31909146Y-85907566D01*
X31729139Y-85867989D01*
X31560248Y-85794203D01*
X31408910Y-85689020D01*
X31280881Y-85556442D01*
X31181041Y-85401521D01*
X31113192Y-85230153D01*
X31079923Y-85048883D01*
X31082495Y-84864596D01*
X31120816Y-84684316D01*
X31193419Y-84514917D01*
X31297547Y-84362844D01*
X31429226Y-84233893D01*
X31583447Y-84132974D01*
X31754332Y-84063932D01*
X31935369Y-84029398D01*
X32119675Y-84030684D01*
X32119675Y-84030684D01*
G37*
G36*
X32119675Y-81490684D02*
X32300208Y-81527743D01*
X32470118Y-81599166D01*
X32622909Y-81702226D01*
X32752781Y-81833006D01*
X32854770Y-81986513D01*
X32925003Y-82156911D01*
X32960732Y-82337359D01*
X32960732Y-82337364D01*
X32960800Y-82337708D01*
X32957861Y-82548218D01*
X32957784Y-82548556D01*
X32957784Y-82548566D01*
X32917030Y-82727946D01*
X32842068Y-82896312D01*
X32735828Y-83046916D01*
X32602359Y-83174017D01*
X32446744Y-83272774D01*
X32274914Y-83339422D01*
X32093412Y-83371426D01*
X31909146Y-83367566D01*
X31729139Y-83327989D01*
X31560248Y-83254203D01*
X31408910Y-83149020D01*
X31280881Y-83016442D01*
X31181041Y-82861521D01*
X31113192Y-82690153D01*
X31079923Y-82508883D01*
X31082495Y-82324596D01*
X31120816Y-82144316D01*
X31193419Y-81974917D01*
X31297547Y-81822844D01*
X31429226Y-81693893D01*
X31583447Y-81592974D01*
X31754332Y-81523932D01*
X31935369Y-81489398D01*
X32119675Y-81490684D01*
X32119675Y-81490684D01*
G37*
G36*
X47359675Y-81490684D02*
X47540208Y-81527743D01*
X47710118Y-81599166D01*
X47862909Y-81702226D01*
X47992781Y-81833006D01*
X48094770Y-81986513D01*
X48165003Y-82156911D01*
X48200732Y-82337359D01*
X48200732Y-82337364D01*
X48200800Y-82337708D01*
X48197861Y-82548218D01*
X48197784Y-82548556D01*
X48197784Y-82548566D01*
X48157030Y-82727946D01*
X48082068Y-82896312D01*
X47975828Y-83046916D01*
X47842359Y-83174017D01*
X47686744Y-83272774D01*
X47514914Y-83339422D01*
X47333412Y-83371426D01*
X47149146Y-83367566D01*
X46969139Y-83327989D01*
X46800248Y-83254203D01*
X46648910Y-83149020D01*
X46520881Y-83016442D01*
X46421041Y-82861521D01*
X46353192Y-82690153D01*
X46319923Y-82508883D01*
X46322495Y-82324596D01*
X46360816Y-82144316D01*
X46433419Y-81974917D01*
X46537547Y-81822844D01*
X46669226Y-81693893D01*
X46823447Y-81592974D01*
X46994332Y-81523932D01*
X47175369Y-81489398D01*
X47359675Y-81490684D01*
X47359675Y-81490684D01*
G37*
G36*
X24137070Y-75505207D02*
X24728015Y-75626511D01*
X25284158Y-75860292D01*
X25784294Y-76197638D01*
X26209381Y-76625703D01*
X26543226Y-77128181D01*
X26773116Y-77685936D01*
X26890224Y-78277374D01*
X26890224Y-78277384D01*
X26890291Y-78277723D01*
X26880670Y-78966776D01*
X26880593Y-78967114D01*
X26880593Y-78967122D01*
X26747017Y-79555061D01*
X26501645Y-80106176D01*
X26153897Y-80599138D01*
X25717022Y-81015169D01*
X25207660Y-81338421D01*
X24645214Y-81556579D01*
X24051107Y-81661336D01*
X23447963Y-81648702D01*
X22858760Y-81519157D01*
X22305942Y-81277637D01*
X21810567Y-80933342D01*
X21391497Y-80499383D01*
X21064698Y-79992290D01*
X20842616Y-79431374D01*
X20733715Y-78838018D01*
X20742137Y-78234801D01*
X20867566Y-77644707D01*
X21105219Y-77090218D01*
X21446051Y-76592448D01*
X21877072Y-76170360D01*
X22381873Y-75840028D01*
X22941219Y-75614037D01*
X23533805Y-75500996D01*
X24137070Y-75505207D01*
X24137070Y-75505207D01*
G37*
G36*
X56137070Y-75505207D02*
X56728015Y-75626511D01*
X57284158Y-75860292D01*
X57784294Y-76197638D01*
X58209381Y-76625703D01*
X58543226Y-77128181D01*
X58773116Y-77685936D01*
X58890224Y-78277374D01*
X58890224Y-78277384D01*
X58890291Y-78277723D01*
X58880670Y-78966776D01*
X58880593Y-78967114D01*
X58880593Y-78967122D01*
X58747017Y-79555061D01*
X58501645Y-80106176D01*
X58153897Y-80599138D01*
X57717022Y-81015169D01*
X57207660Y-81338421D01*
X56645214Y-81556579D01*
X56051107Y-81661336D01*
X55447963Y-81648702D01*
X54858760Y-81519157D01*
X54305942Y-81277637D01*
X53810567Y-80933342D01*
X53391497Y-80499383D01*
X53064698Y-79992290D01*
X52842616Y-79431374D01*
X52733715Y-78838018D01*
X52742137Y-78234801D01*
X52867566Y-77644707D01*
X53105219Y-77090218D01*
X53446051Y-76592448D01*
X53877072Y-76170360D01*
X54381873Y-75840028D01*
X54941219Y-75614037D01*
X55533805Y-75500996D01*
X56137070Y-75505207D01*
X56137070Y-75505207D01*
G37*
G36*
X56137070Y-67505207D02*
X56728015Y-67626511D01*
X57284158Y-67860292D01*
X57784294Y-68197638D01*
X58209381Y-68625703D01*
X58543226Y-69128181D01*
X58773116Y-69685936D01*
X58890224Y-70277374D01*
X58890224Y-70277384D01*
X58890291Y-70277723D01*
X58880670Y-70966776D01*
X58880593Y-70967114D01*
X58880593Y-70967122D01*
X58747017Y-71555061D01*
X58501645Y-72106176D01*
X58153897Y-72599138D01*
X57717022Y-73015169D01*
X57207660Y-73338421D01*
X56645214Y-73556579D01*
X56051107Y-73661336D01*
X55447963Y-73648702D01*
X54858760Y-73519157D01*
X54305942Y-73277637D01*
X53810567Y-72933342D01*
X53391497Y-72499383D01*
X53064698Y-71992290D01*
X52842616Y-71431374D01*
X52733715Y-70838018D01*
X52742137Y-70234801D01*
X52867566Y-69644707D01*
X53105219Y-69090218D01*
X53446051Y-68592448D01*
X53877072Y-68170360D01*
X54381873Y-67840028D01*
X54941219Y-67614037D01*
X55533805Y-67500996D01*
X56137070Y-67505207D01*
X56137070Y-67505207D01*
G37*
G36*
X24137070Y-67505207D02*
X24728015Y-67626511D01*
X25284158Y-67860292D01*
X25784294Y-68197638D01*
X26209381Y-68625703D01*
X26543226Y-69128181D01*
X26773116Y-69685936D01*
X26890224Y-70277374D01*
X26890224Y-70277384D01*
X26890291Y-70277723D01*
X26880670Y-70966776D01*
X26880593Y-70967114D01*
X26880593Y-70967122D01*
X26747017Y-71555061D01*
X26501645Y-72106176D01*
X26153897Y-72599138D01*
X25717022Y-73015169D01*
X25207660Y-73338421D01*
X24645214Y-73556579D01*
X24051107Y-73661336D01*
X23447963Y-73648702D01*
X22858760Y-73519157D01*
X22305942Y-73277637D01*
X21810567Y-72933342D01*
X21391497Y-72499383D01*
X21064698Y-71992290D01*
X20842616Y-71431374D01*
X20733715Y-70838018D01*
X20742137Y-70234801D01*
X20867566Y-69644707D01*
X21105219Y-69090218D01*
X21446051Y-68592448D01*
X21877072Y-68170360D01*
X22381873Y-67840028D01*
X22941219Y-67614037D01*
X23533805Y-67500996D01*
X24137070Y-67505207D01*
X24137070Y-67505207D01*
G37*
G36*
X40137070Y-59505207D02*
X40728015Y-59626511D01*
X41284158Y-59860292D01*
X41784294Y-60197638D01*
X42209381Y-60625703D01*
X42543226Y-61128181D01*
X42773116Y-61685936D01*
X42890224Y-62277374D01*
X42890224Y-62277384D01*
X42890291Y-62277723D01*
X42880670Y-62966776D01*
X42880593Y-62967114D01*
X42880593Y-62967122D01*
X42747017Y-63555061D01*
X42501645Y-64106176D01*
X42153897Y-64599138D01*
X41717022Y-65015169D01*
X41207660Y-65338421D01*
X40645214Y-65556579D01*
X40051107Y-65661336D01*
X39447963Y-65648702D01*
X38858760Y-65519157D01*
X38305942Y-65277637D01*
X37810567Y-64933342D01*
X37391497Y-64499383D01*
X37064698Y-63992290D01*
X36842616Y-63431374D01*
X36733715Y-62838018D01*
X36742137Y-62234801D01*
X36867566Y-61644707D01*
X37105219Y-61090218D01*
X37446051Y-60592448D01*
X37877072Y-60170360D01*
X38381873Y-59840028D01*
X38941219Y-59614037D01*
X39533805Y-59500996D01*
X40137070Y-59505207D01*
X40137070Y-59505207D01*
G37*
G36*
X48137070Y-59505207D02*
X48728015Y-59626511D01*
X49284158Y-59860292D01*
X49784294Y-60197638D01*
X50209381Y-60625703D01*
X50543226Y-61128181D01*
X50773116Y-61685936D01*
X50890224Y-62277374D01*
X50890224Y-62277384D01*
X50890291Y-62277723D01*
X50880670Y-62966776D01*
X50880593Y-62967114D01*
X50880593Y-62967122D01*
X50747017Y-63555061D01*
X50501645Y-64106176D01*
X50153897Y-64599138D01*
X49717022Y-65015169D01*
X49207660Y-65338421D01*
X48645214Y-65556579D01*
X48051107Y-65661336D01*
X47447963Y-65648702D01*
X46858760Y-65519157D01*
X46305942Y-65277637D01*
X45810567Y-64933342D01*
X45391497Y-64499383D01*
X45064698Y-63992290D01*
X44842616Y-63431374D01*
X44733715Y-62838018D01*
X44742137Y-62234801D01*
X44867566Y-61644707D01*
X45105219Y-61090218D01*
X45446051Y-60592448D01*
X45877072Y-60170360D01*
X46381873Y-59840028D01*
X46941219Y-59614037D01*
X47533805Y-59500996D01*
X48137070Y-59505207D01*
X48137070Y-59505207D01*
G37*
G36*
X56137070Y-59505207D02*
X56728015Y-59626511D01*
X57284158Y-59860292D01*
X57784294Y-60197638D01*
X58209381Y-60625703D01*
X58543226Y-61128181D01*
X58773116Y-61685936D01*
X58890224Y-62277374D01*
X58890224Y-62277384D01*
X58890291Y-62277723D01*
X58880670Y-62966776D01*
X58880593Y-62967114D01*
X58880593Y-62967122D01*
X58747017Y-63555061D01*
X58501645Y-64106176D01*
X58153897Y-64599138D01*
X57717022Y-65015169D01*
X57207660Y-65338421D01*
X56645214Y-65556579D01*
X56051107Y-65661336D01*
X55447963Y-65648702D01*
X54858760Y-65519157D01*
X54305942Y-65277637D01*
X53810567Y-64933342D01*
X53391497Y-64499383D01*
X53064698Y-63992290D01*
X52842616Y-63431374D01*
X52733715Y-62838018D01*
X52742137Y-62234801D01*
X52867566Y-61644707D01*
X53105219Y-61090218D01*
X53446051Y-60592448D01*
X53877072Y-60170360D01*
X54381873Y-59840028D01*
X54941219Y-59614037D01*
X55533805Y-59500996D01*
X56137070Y-59505207D01*
X56137070Y-59505207D01*
G37*
G36*
X32137070Y-59505207D02*
X32728015Y-59626511D01*
X33284158Y-59860292D01*
X33784294Y-60197638D01*
X34209381Y-60625703D01*
X34543226Y-61128181D01*
X34773116Y-61685936D01*
X34890224Y-62277374D01*
X34890224Y-62277384D01*
X34890291Y-62277723D01*
X34880670Y-62966776D01*
X34880593Y-62967114D01*
X34880593Y-62967122D01*
X34747017Y-63555061D01*
X34501645Y-64106176D01*
X34153897Y-64599138D01*
X33717022Y-65015169D01*
X33207660Y-65338421D01*
X32645214Y-65556579D01*
X32051107Y-65661336D01*
X31447963Y-65648702D01*
X30858760Y-65519157D01*
X30305942Y-65277637D01*
X29810567Y-64933342D01*
X29391497Y-64499383D01*
X29064698Y-63992290D01*
X28842616Y-63431374D01*
X28733715Y-62838018D01*
X28742137Y-62234801D01*
X28867566Y-61644707D01*
X29105219Y-61090218D01*
X29446051Y-60592448D01*
X29877072Y-60170360D01*
X30381873Y-59840028D01*
X30941219Y-59614037D01*
X31533805Y-59500996D01*
X32137070Y-59505207D01*
X32137070Y-59505207D01*
G37*
G36*
X24138070Y-59505207D02*
X24729015Y-59626511D01*
X25285158Y-59860292D01*
X25785294Y-60197638D01*
X26210381Y-60625703D01*
X26544226Y-61128181D01*
X26774116Y-61685936D01*
X26891224Y-62277374D01*
X26891224Y-62277384D01*
X26891291Y-62277723D01*
X26881670Y-62966776D01*
X26881593Y-62967114D01*
X26881593Y-62967122D01*
X26748017Y-63555061D01*
X26502645Y-64106176D01*
X26154897Y-64599138D01*
X25718022Y-65015169D01*
X25208660Y-65338421D01*
X24646214Y-65556579D01*
X24052107Y-65661336D01*
X23448963Y-65648702D01*
X22859760Y-65519157D01*
X22306942Y-65277637D01*
X21811567Y-64933342D01*
X21392497Y-64499383D01*
X21065698Y-63992290D01*
X20843616Y-63431374D01*
X20734715Y-62838018D01*
X20743137Y-62234801D01*
X20868566Y-61644707D01*
X21106219Y-61090218D01*
X21447051Y-60592448D01*
X21878072Y-60170360D01*
X22382873Y-59840028D01*
X22942219Y-59614037D01*
X23534805Y-59500996D01*
X24138070Y-59505207D01*
X24138070Y-59505207D01*
G37*
M02*
