%TF.GenerationSoftware,KiCad,Pcbnew,4.0.5-e0-6337~49~ubuntu16.04.1*%
%TF.CreationDate,2017-01-24T12:46:13-08:00*%
%TF.ProjectId,5x10-Teensy-LC-Breakout,357831302D5465656E73792D4C432D42,1.0*%
%TF.FileFunction,Copper,L1,Top,Signal*%
%FSLAX46Y46*%
G04 Gerber Fmt 4.6, Leading zero omitted, Abs format (unit mm)*
G04 Created by KiCad (PCBNEW 4.0.5-e0-6337~49~ubuntu16.04.1) date Tue Jan 24 12:46:13 2017*
%MOMM*%
%LPD*%
G01*
G04 APERTURE LIST*
%ADD10C,0.350000*%
%ADD11C,1.727200*%
%ADD12C,6.000000*%
%ADD13O,15.240000X7.620000*%
%ADD14C,0.685800*%
%ADD15C,0.508000*%
%ADD16C,0.330200*%
%ADD17C,0.350000*%
G04 APERTURE END LIST*
D10*
D11*
X143831760Y-100159060D03*
X143831760Y-97619060D03*
X143831760Y-95079060D03*
X143831760Y-92539060D03*
X143831760Y-89999060D03*
X143831760Y-87459060D03*
X143831760Y-84919060D03*
X143831760Y-82379060D03*
X143831760Y-79839060D03*
X143831760Y-77299060D03*
X143831760Y-74759060D03*
X143831760Y-72219060D03*
X143831760Y-69679060D03*
X143831760Y-67139060D03*
X128591760Y-67139060D03*
X128591760Y-74759060D03*
X128591760Y-95079060D03*
X128591760Y-79839060D03*
X128591760Y-77299060D03*
X128591760Y-97619060D03*
X128591760Y-89999060D03*
X128591760Y-100159060D03*
X128591760Y-87459060D03*
X128591760Y-84919060D03*
X128591760Y-82379060D03*
X128591760Y-92539060D03*
X128591760Y-69679060D03*
X128591760Y-72219060D03*
D12*
X120384760Y-79288560D03*
X120385760Y-87288560D03*
X120385760Y-103288560D03*
X120385760Y-71288560D03*
X120385760Y-111288560D03*
X120385760Y-95288560D03*
X120384760Y-63288560D03*
X120384760Y-55288560D03*
X120385760Y-119288560D03*
X128384760Y-119288560D03*
X136384760Y-119288560D03*
X144384760Y-119288560D03*
X136384760Y-47288560D03*
X144384760Y-47288560D03*
X120385760Y-47288560D03*
X128384760Y-47288560D03*
X152384760Y-47288560D03*
X152384760Y-55288560D03*
X152384760Y-63288560D03*
X152384760Y-71288560D03*
X152384760Y-79288560D03*
X152384760Y-87288560D03*
X152384760Y-95288560D03*
X152384760Y-103288560D03*
X152384760Y-111288560D03*
X152384760Y-119288560D03*
D13*
X136575800Y-57708800D03*
D14*
X131384759Y-92805801D03*
X136464040Y-95072200D03*
X125892560Y-102443280D03*
D15*
X128591760Y-67139060D02*
X128591760Y-60758520D01*
X128591760Y-60758520D02*
X127182880Y-59349640D01*
X127182880Y-54625240D02*
X127182880Y-59349640D01*
X128591760Y-53216360D02*
X127182880Y-54625240D01*
X128591760Y-53201120D02*
X128591760Y-53216360D01*
X128591760Y-53201120D02*
X130256280Y-51536600D01*
X130256280Y-51536600D02*
X140136720Y-51536600D01*
X140136720Y-51536600D02*
X144384760Y-47288560D01*
X131384759Y-92805801D02*
X131384759Y-94573641D01*
X131384759Y-94573641D02*
X130876040Y-95082360D01*
X143831760Y-84919060D02*
X150015260Y-84919060D01*
X150015260Y-84919060D02*
X152384760Y-87288560D01*
X145746979Y-90862659D02*
X148432520Y-93548200D01*
X148432520Y-93548200D02*
X148432520Y-99349560D01*
X143831760Y-89999060D02*
X144695359Y-90862659D01*
X144695359Y-90862659D02*
X145746979Y-90862659D01*
X152384760Y-95288560D02*
X144555260Y-87459060D01*
X144555260Y-87459060D02*
X143831760Y-87459060D01*
X148432520Y-99349560D02*
X148432520Y-99240800D01*
X152384760Y-119288560D02*
X149768560Y-116672360D01*
X149768560Y-116672360D02*
X149384761Y-116288561D01*
X145958560Y-112862360D02*
X149768560Y-116672360D01*
X143831760Y-95079060D02*
X145053074Y-95079060D01*
X145053074Y-95079060D02*
X145958560Y-95984546D01*
X145958560Y-95984546D02*
X145958560Y-112862360D01*
X145376140Y-92539060D02*
X147147280Y-94310200D01*
X147147280Y-94310200D02*
X147147280Y-106141520D01*
X143831760Y-92539060D02*
X145376140Y-92539060D01*
X143831760Y-77299060D02*
X150395260Y-77299060D01*
X150395260Y-77299060D02*
X152384760Y-79288560D01*
X143831760Y-74759060D02*
X148914260Y-74759060D01*
X148914260Y-74759060D02*
X152384760Y-71288560D01*
X148584920Y-71521320D02*
X148584920Y-67088400D01*
X143831760Y-72219060D02*
X147887180Y-72219060D01*
X147887180Y-72219060D02*
X148584920Y-71521320D01*
X147086320Y-60587000D02*
X147269200Y-60404120D01*
X147269200Y-60404120D02*
X152384760Y-55288560D01*
X146928840Y-68676520D02*
X146928840Y-60744480D01*
X146928840Y-60744480D02*
X147269200Y-60404120D01*
X145926300Y-69679060D02*
X146928840Y-68676520D01*
X143831760Y-69679060D02*
X145926300Y-69679060D01*
X136384760Y-94992920D02*
X136464040Y-95072200D01*
X136464040Y-95072200D02*
X136464040Y-98567240D01*
X136464040Y-98567240D02*
X136384760Y-98646520D01*
X144384760Y-119288560D02*
X141384761Y-116288561D01*
X141384761Y-116288561D02*
X141384761Y-98690959D01*
X141384761Y-98690959D02*
X142456660Y-97619060D01*
X143831760Y-97619060D02*
X142456660Y-97619060D01*
X130876040Y-112554640D02*
X130876040Y-100086160D01*
X130803140Y-100159060D02*
X130876040Y-100086160D01*
X130876040Y-100086160D02*
X130876040Y-95082360D01*
X128591760Y-100159060D02*
X130803140Y-100159060D01*
X126776480Y-99298760D02*
X126776480Y-94354340D01*
X126776480Y-94354340D02*
X128591760Y-92539060D01*
X128591760Y-89999060D02*
X127370446Y-89999060D01*
X127370446Y-89999060D02*
X125643640Y-91725866D01*
X125643640Y-91725866D02*
X125643640Y-97088960D01*
X143831760Y-47841560D02*
X144384760Y-47288560D01*
X148584920Y-67088400D02*
X152384760Y-63288560D01*
X151834260Y-79839060D02*
X152384760Y-79288560D01*
X152384760Y-95288560D02*
X152384760Y-93223080D01*
X149371521Y-100288561D02*
X148432520Y-99349560D01*
X152384760Y-103288560D02*
X149384761Y-100288561D01*
X149384761Y-100288561D02*
X149371521Y-100288561D01*
X149294321Y-108288561D02*
X147147280Y-106141520D01*
X152384760Y-111288560D02*
X149384761Y-108288561D01*
X149384761Y-108288561D02*
X149294321Y-108288561D01*
X149384761Y-116288561D02*
X149384761Y-116253001D01*
X136384760Y-119288560D02*
X136384760Y-98646520D01*
X124099320Y-101975920D02*
X124099320Y-107575000D01*
X124099320Y-107575000D02*
X120385760Y-111288560D01*
X126776480Y-99298760D02*
X124099320Y-101975920D01*
X123385759Y-99346841D02*
X125643640Y-97088960D01*
X120385760Y-103288560D02*
X123385759Y-100288561D01*
X123385759Y-100288561D02*
X123385759Y-99346841D01*
X124510800Y-86492080D02*
X124510800Y-91163520D01*
X124510800Y-91163520D02*
X120385760Y-95288560D01*
X127728161Y-83274719D02*
X124510800Y-86492080D01*
X128591760Y-82379060D02*
X127728161Y-83242659D01*
X127728161Y-83242659D02*
X127728161Y-83274719D01*
X128591760Y-79839060D02*
X121142260Y-87288560D01*
X121142260Y-87288560D02*
X120385760Y-87288560D01*
X120384760Y-79288560D02*
X126602260Y-79288560D01*
X126602260Y-79288560D02*
X128591760Y-77299060D01*
X128591760Y-74759060D02*
X125121260Y-71288560D01*
X125121260Y-71288560D02*
X120385760Y-71288560D01*
X128591760Y-72219060D02*
X120384760Y-64012060D01*
X120384760Y-64012060D02*
X120384760Y-63288560D01*
X126776480Y-61680280D02*
X126776480Y-67863780D01*
X126776480Y-67863780D02*
X128591760Y-69679060D01*
X120384760Y-55288560D02*
X126776480Y-61680280D01*
X125633480Y-102702360D02*
X125633480Y-114040840D01*
X125892560Y-102443280D02*
X125633480Y-102702360D01*
X128384760Y-119288560D02*
X128384760Y-115045920D01*
X128384760Y-115045920D02*
X130876040Y-112554640D01*
X125633480Y-114040840D02*
X120385760Y-119288560D01*
D16*
X131384759Y-92805801D03*
X136464040Y-95072200D03*
X125892560Y-102443280D03*
D17*
X143831760Y-100159060D03*
X143831760Y-97619060D03*
X143831760Y-95079060D03*
X143831760Y-92539060D03*
X143831760Y-89999060D03*
X143831760Y-87459060D03*
X143831760Y-84919060D03*
X143831760Y-82379060D03*
X143831760Y-79839060D03*
X143831760Y-77299060D03*
X143831760Y-74759060D03*
X143831760Y-72219060D03*
X143831760Y-69679060D03*
X143831760Y-67139060D03*
X128591760Y-67139060D03*
X128591760Y-74759060D03*
X128591760Y-95079060D03*
X128591760Y-79839060D03*
X128591760Y-77299060D03*
X128591760Y-97619060D03*
X128591760Y-89999060D03*
X128591760Y-100159060D03*
X128591760Y-87459060D03*
X128591760Y-84919060D03*
X128591760Y-82379060D03*
X128591760Y-92539060D03*
X128591760Y-69679060D03*
X128591760Y-72219060D03*
X120384760Y-79288560D03*
X120385760Y-87288560D03*
X120385760Y-103288560D03*
X120385760Y-71288560D03*
X120385760Y-111288560D03*
X120385760Y-95288560D03*
X120384760Y-63288560D03*
X120384760Y-55288560D03*
X120385760Y-119288560D03*
X128384760Y-119288560D03*
X136384760Y-119288560D03*
X144384760Y-119288560D03*
X136384760Y-47288560D03*
X144384760Y-47288560D03*
X120385760Y-47288560D03*
X128384760Y-47288560D03*
X152384760Y-47288560D03*
X152384760Y-55288560D03*
X152384760Y-63288560D03*
X152384760Y-71288560D03*
X152384760Y-79288560D03*
X152384760Y-87288560D03*
X152384760Y-95288560D03*
X152384760Y-103288560D03*
X152384760Y-111288560D03*
X152384760Y-119288560D03*
M02*
