%TF.GenerationSoftware,KiCad,Pcbnew,4.0.7-e2-6376~58~ubuntu16.04.1*%
%TF.CreationDate,2018-05-09T08:02:13-07:00*%
%TF.ProjectId,5x10-Teensy-LC-Breakout,357831302D5465656E73792D4C432D42,v1.4*%
%TF.FileFunction,Legend,Top*%
%FSLAX46Y46*%
G04 Gerber Fmt 4.6, Leading zero omitted, Abs format (unit mm)*
G04 Created by KiCad (PCBNEW 4.0.7-e2-6376~58~ubuntu16.04.1) date Wed May  9 08:02:13 2018*
%MOMM*%
%LPD*%
G01*
G04 APERTURE LIST*
%ADD10C,0.350000*%
%ADD11C,0.400000*%
%ADD12C,0.152400*%
%ADD13C,7.800000*%
%ADD14C,0.127000*%
%ADD15C,0.150000*%
%ADD16C,0.310000*%
%ADD17C,0.254000*%
%ADD18C,1.879600*%
%ADD19C,6.152400*%
G04 APERTURE END LIST*
D10*
D11*
X35635904Y-125297429D02*
X35993047Y-125416476D01*
X36112095Y-125535524D01*
X36231143Y-125773619D01*
X36231143Y-126130762D01*
X36112095Y-126368857D01*
X35993047Y-126487905D01*
X35754952Y-126606952D01*
X34802571Y-126606952D01*
X34802571Y-124106952D01*
X35635904Y-124106952D01*
X35874000Y-124226000D01*
X35993047Y-124345048D01*
X36112095Y-124583143D01*
X36112095Y-124821238D01*
X35993047Y-125059333D01*
X35874000Y-125178381D01*
X35635904Y-125297429D01*
X34802571Y-125297429D01*
X37659714Y-126606952D02*
X37421619Y-126487905D01*
X37302571Y-126368857D01*
X37183523Y-126130762D01*
X37183523Y-125416476D01*
X37302571Y-125178381D01*
X37421619Y-125059333D01*
X37659714Y-124940286D01*
X38016857Y-124940286D01*
X38254952Y-125059333D01*
X38374000Y-125178381D01*
X38493047Y-125416476D01*
X38493047Y-126130762D01*
X38374000Y-126368857D01*
X38254952Y-126487905D01*
X38016857Y-126606952D01*
X37659714Y-126606952D01*
X40635905Y-126606952D02*
X40635905Y-125297429D01*
X40516857Y-125059333D01*
X40278762Y-124940286D01*
X39802571Y-124940286D01*
X39564476Y-125059333D01*
X40635905Y-126487905D02*
X40397809Y-126606952D01*
X39802571Y-126606952D01*
X39564476Y-126487905D01*
X39445428Y-126249810D01*
X39445428Y-126011714D01*
X39564476Y-125773619D01*
X39802571Y-125654571D01*
X40397809Y-125654571D01*
X40635905Y-125535524D01*
X41826381Y-126606952D02*
X41826381Y-124940286D01*
X41826381Y-125416476D02*
X41945429Y-125178381D01*
X42064476Y-125059333D01*
X42302572Y-124940286D01*
X42540667Y-124940286D01*
X44445429Y-126606952D02*
X44445429Y-124106952D01*
X44445429Y-126487905D02*
X44207333Y-126606952D01*
X43731143Y-126606952D01*
X43493048Y-126487905D01*
X43374000Y-126368857D01*
X43254952Y-126130762D01*
X43254952Y-125416476D01*
X43374000Y-125178381D01*
X43493048Y-125059333D01*
X43731143Y-124940286D01*
X44207333Y-124940286D01*
X44445429Y-125059333D01*
X31766857Y-122796952D02*
X31766857Y-120296952D01*
X32957333Y-121130286D02*
X32957333Y-122796952D01*
X32957333Y-121368381D02*
X33076381Y-121249333D01*
X33314476Y-121130286D01*
X33671619Y-121130286D01*
X33909714Y-121249333D01*
X34028762Y-121487429D01*
X34028762Y-122796952D01*
X34981143Y-121130286D02*
X35576381Y-122796952D01*
X36171619Y-121130286D01*
X38076381Y-122677905D02*
X37838286Y-122796952D01*
X37362095Y-122796952D01*
X37124000Y-122677905D01*
X37004952Y-122439810D01*
X37004952Y-121487429D01*
X37124000Y-121249333D01*
X37362095Y-121130286D01*
X37838286Y-121130286D01*
X38076381Y-121249333D01*
X38195429Y-121487429D01*
X38195429Y-121725524D01*
X37004952Y-121963619D01*
X39266857Y-121130286D02*
X39266857Y-122796952D01*
X39266857Y-121368381D02*
X39385905Y-121249333D01*
X39624000Y-121130286D01*
X39981143Y-121130286D01*
X40219238Y-121249333D01*
X40338286Y-121487429D01*
X40338286Y-122796952D01*
X41171619Y-121130286D02*
X42124000Y-121130286D01*
X41528762Y-120296952D02*
X41528762Y-122439810D01*
X41647810Y-122677905D01*
X41885905Y-122796952D01*
X42124000Y-122796952D01*
X42957333Y-122796952D02*
X42957333Y-121130286D01*
X42957333Y-120296952D02*
X42838285Y-120416000D01*
X42957333Y-120535048D01*
X43076381Y-120416000D01*
X42957333Y-120296952D01*
X42957333Y-120535048D01*
X44504952Y-122796952D02*
X44266857Y-122677905D01*
X44147809Y-122558857D01*
X44028761Y-122320762D01*
X44028761Y-121606476D01*
X44147809Y-121368381D01*
X44266857Y-121249333D01*
X44504952Y-121130286D01*
X44862095Y-121130286D01*
X45100190Y-121249333D01*
X45219238Y-121368381D01*
X45338285Y-121606476D01*
X45338285Y-122320762D01*
X45219238Y-122558857D01*
X45100190Y-122677905D01*
X44862095Y-122796952D01*
X44504952Y-122796952D01*
X46409714Y-121130286D02*
X46409714Y-122796952D01*
X46409714Y-121368381D02*
X46528762Y-121249333D01*
X46766857Y-121130286D01*
X47124000Y-121130286D01*
X47362095Y-121249333D01*
X47481143Y-121487429D01*
X47481143Y-122796952D01*
D12*
X34417000Y-72872600D02*
X45085000Y-72872600D01*
X34354433Y-72872600D02*
G75*
G03X34354433Y-72872600I-508933J0D01*
G01*
D13*
X23686960Y-62576360D02*
X24067960Y-62576360D01*
D14*
X31400960Y-80388860D02*
X47400960Y-80388860D01*
X42100960Y-114289860D02*
X37100960Y-114289860D01*
X42100960Y-116289860D02*
X42100960Y-114289860D01*
X42100960Y-116289860D02*
X45100960Y-116289860D01*
X37100960Y-116289860D02*
X37100960Y-114289860D01*
X37100960Y-116289860D02*
X37100960Y-114289860D01*
X34100960Y-116289860D02*
X37100960Y-116289860D01*
X34100960Y-116289860D02*
X37100960Y-116289860D01*
D13*
X23686960Y-134585360D02*
X24067960Y-134585360D01*
D15*
X30718722Y-66531741D02*
X31052055Y-67531741D01*
X31385389Y-66531741D01*
X31718722Y-67531741D02*
X31718722Y-66531741D01*
X32194912Y-67531741D02*
X32194912Y-66531741D01*
X32766341Y-67531741D01*
X32766341Y-66531741D01*
X40124341Y-111733242D02*
X40124341Y-111542765D01*
X40171960Y-111447527D01*
X40267198Y-111352289D01*
X40457674Y-111304670D01*
X40791008Y-111304670D01*
X40981484Y-111352289D01*
X41076722Y-111447527D01*
X41124341Y-111542765D01*
X41124341Y-111733242D01*
X41076722Y-111828480D01*
X40981484Y-111923718D01*
X40791008Y-111971337D01*
X40457674Y-111971337D01*
X40267198Y-111923718D01*
X40171960Y-111828480D01*
X40124341Y-111733242D01*
X41124341Y-110304670D02*
X40648150Y-110638004D01*
X41124341Y-110876099D02*
X40124341Y-110876099D01*
X40124341Y-110495146D01*
X40171960Y-110399908D01*
X40219579Y-110352289D01*
X40314817Y-110304670D01*
X40457674Y-110304670D01*
X40552912Y-110352289D01*
X40600531Y-110399908D01*
X40648150Y-110495146D01*
X40648150Y-110876099D01*
X40124341Y-109257051D02*
X40124341Y-108685622D01*
X41124341Y-108971337D02*
X40124341Y-108971337D01*
X40600531Y-108352289D02*
X40600531Y-108018955D01*
X41124341Y-107876098D02*
X41124341Y-108352289D01*
X40124341Y-108352289D01*
X40124341Y-107876098D01*
X40600531Y-107447527D02*
X40600531Y-107114193D01*
X41124341Y-106971336D02*
X41124341Y-107447527D01*
X40124341Y-107447527D01*
X40124341Y-106971336D01*
X41124341Y-106542765D02*
X40124341Y-106542765D01*
X41124341Y-105971336D01*
X40124341Y-105971336D01*
X41076722Y-105542765D02*
X41124341Y-105399908D01*
X41124341Y-105161812D01*
X41076722Y-105066574D01*
X41029103Y-105018955D01*
X40933865Y-104971336D01*
X40838627Y-104971336D01*
X40743389Y-105018955D01*
X40695770Y-105066574D01*
X40648150Y-105161812D01*
X40600531Y-105352289D01*
X40552912Y-105447527D01*
X40505293Y-105495146D01*
X40410055Y-105542765D01*
X40314817Y-105542765D01*
X40219579Y-105495146D01*
X40171960Y-105447527D01*
X40124341Y-105352289D01*
X40124341Y-105114193D01*
X40171960Y-104971336D01*
X40648150Y-104352289D02*
X41124341Y-104352289D01*
X40124341Y-104685622D02*
X40648150Y-104352289D01*
X40124341Y-104018955D01*
X40124341Y-103018955D02*
X40124341Y-102399907D01*
X40505293Y-102733241D01*
X40505293Y-102590383D01*
X40552912Y-102495145D01*
X40600531Y-102447526D01*
X40695770Y-102399907D01*
X40933865Y-102399907D01*
X41029103Y-102447526D01*
X41076722Y-102495145D01*
X41124341Y-102590383D01*
X41124341Y-102876098D01*
X41076722Y-102971336D01*
X41029103Y-103018955D01*
X41029103Y-101971336D02*
X41076722Y-101923717D01*
X41124341Y-101971336D01*
X41076722Y-102018955D01*
X41029103Y-101971336D01*
X41124341Y-101971336D01*
X40219579Y-101542765D02*
X40171960Y-101495146D01*
X40124341Y-101399908D01*
X40124341Y-101161812D01*
X40171960Y-101066574D01*
X40219579Y-101018955D01*
X40314817Y-100971336D01*
X40410055Y-100971336D01*
X40552912Y-101018955D01*
X41124341Y-101590384D01*
X41124341Y-100971336D01*
X41029103Y-99209431D02*
X41076722Y-99257050D01*
X41124341Y-99399907D01*
X41124341Y-99495145D01*
X41076722Y-99638003D01*
X40981484Y-99733241D01*
X40886246Y-99780860D01*
X40695770Y-99828479D01*
X40552912Y-99828479D01*
X40362436Y-99780860D01*
X40267198Y-99733241D01*
X40171960Y-99638003D01*
X40124341Y-99495145D01*
X40124341Y-99399907D01*
X40171960Y-99257050D01*
X40219579Y-99209431D01*
X40124341Y-98590384D02*
X40124341Y-98399907D01*
X40171960Y-98304669D01*
X40267198Y-98209431D01*
X40457674Y-98161812D01*
X40791008Y-98161812D01*
X40981484Y-98209431D01*
X41076722Y-98304669D01*
X41124341Y-98399907D01*
X41124341Y-98590384D01*
X41076722Y-98685622D01*
X40981484Y-98780860D01*
X40791008Y-98828479D01*
X40457674Y-98828479D01*
X40267198Y-98780860D01*
X40171960Y-98685622D01*
X40124341Y-98590384D01*
X41124341Y-97733241D02*
X40124341Y-97733241D01*
X40838627Y-97399907D01*
X40124341Y-97066574D01*
X41124341Y-97066574D01*
X41124341Y-96590384D02*
X40124341Y-96590384D01*
X40124341Y-96209431D01*
X40171960Y-96114193D01*
X40219579Y-96066574D01*
X40314817Y-96018955D01*
X40457674Y-96018955D01*
X40552912Y-96066574D01*
X40600531Y-96114193D01*
X40648150Y-96209431D01*
X40648150Y-96590384D01*
X40838627Y-95638003D02*
X40838627Y-95161812D01*
X41124341Y-95733241D02*
X40124341Y-95399908D01*
X41124341Y-95066574D01*
X40124341Y-94876098D02*
X40124341Y-94304669D01*
X41124341Y-94590384D02*
X40124341Y-94590384D01*
X41124341Y-93971336D02*
X40124341Y-93971336D01*
X40600531Y-93161812D02*
X40648150Y-93018955D01*
X40695770Y-92971336D01*
X40791008Y-92923717D01*
X40933865Y-92923717D01*
X41029103Y-92971336D01*
X41076722Y-93018955D01*
X41124341Y-93114193D01*
X41124341Y-93495146D01*
X40124341Y-93495146D01*
X40124341Y-93161812D01*
X40171960Y-93066574D01*
X40219579Y-93018955D01*
X40314817Y-92971336D01*
X40410055Y-92971336D01*
X40505293Y-93018955D01*
X40552912Y-93066574D01*
X40600531Y-93161812D01*
X40600531Y-93495146D01*
X41124341Y-92018955D02*
X41124341Y-92495146D01*
X40124341Y-92495146D01*
X40600531Y-91685622D02*
X40600531Y-91352288D01*
X41124341Y-91209431D02*
X41124341Y-91685622D01*
X40124341Y-91685622D01*
X40124341Y-91209431D01*
X40600531Y-89685621D02*
X40648150Y-89542764D01*
X40695770Y-89495145D01*
X40791008Y-89447526D01*
X40933865Y-89447526D01*
X41029103Y-89495145D01*
X41076722Y-89542764D01*
X41124341Y-89638002D01*
X41124341Y-90018955D01*
X40124341Y-90018955D01*
X40124341Y-89685621D01*
X40171960Y-89590383D01*
X40219579Y-89542764D01*
X40314817Y-89495145D01*
X40410055Y-89495145D01*
X40505293Y-89542764D01*
X40552912Y-89590383D01*
X40600531Y-89685621D01*
X40600531Y-90018955D01*
X40124341Y-88828479D02*
X40124341Y-88638002D01*
X40171960Y-88542764D01*
X40267198Y-88447526D01*
X40457674Y-88399907D01*
X40791008Y-88399907D01*
X40981484Y-88447526D01*
X41076722Y-88542764D01*
X41124341Y-88638002D01*
X41124341Y-88828479D01*
X41076722Y-88923717D01*
X40981484Y-89018955D01*
X40791008Y-89066574D01*
X40457674Y-89066574D01*
X40267198Y-89018955D01*
X40171960Y-88923717D01*
X40124341Y-88828479D01*
X40838627Y-88018955D02*
X40838627Y-87542764D01*
X41124341Y-88114193D02*
X40124341Y-87780860D01*
X41124341Y-87447526D01*
X41124341Y-86542764D02*
X40648150Y-86876098D01*
X41124341Y-87114193D02*
X40124341Y-87114193D01*
X40124341Y-86733240D01*
X40171960Y-86638002D01*
X40219579Y-86590383D01*
X40314817Y-86542764D01*
X40457674Y-86542764D01*
X40552912Y-86590383D01*
X40600531Y-86638002D01*
X40648150Y-86733240D01*
X40648150Y-87114193D01*
X41124341Y-86114193D02*
X40124341Y-86114193D01*
X40124341Y-85876098D01*
X40171960Y-85733240D01*
X40267198Y-85638002D01*
X40362436Y-85590383D01*
X40552912Y-85542764D01*
X40695770Y-85542764D01*
X40886246Y-85590383D01*
X40981484Y-85638002D01*
X41076722Y-85733240D01*
X41124341Y-85876098D01*
X41124341Y-86114193D01*
X41076722Y-85161812D02*
X41124341Y-85018955D01*
X41124341Y-84780859D01*
X41076722Y-84685621D01*
X41029103Y-84638002D01*
X40933865Y-84590383D01*
X40838627Y-84590383D01*
X40743389Y-84638002D01*
X40695770Y-84685621D01*
X40648150Y-84780859D01*
X40600531Y-84971336D01*
X40552912Y-85066574D01*
X40505293Y-85114193D01*
X40410055Y-85161812D01*
X40314817Y-85161812D01*
X40219579Y-85114193D01*
X40171960Y-85066574D01*
X40124341Y-84971336D01*
X40124341Y-84733240D01*
X40171960Y-84590383D01*
X36822341Y-108233242D02*
X37631865Y-108233242D01*
X37727103Y-108185623D01*
X37774722Y-108138004D01*
X37822341Y-108042766D01*
X37822341Y-107852289D01*
X37774722Y-107757051D01*
X37727103Y-107709432D01*
X37631865Y-107661813D01*
X36822341Y-107661813D01*
X37774722Y-107233242D02*
X37822341Y-107090385D01*
X37822341Y-106852289D01*
X37774722Y-106757051D01*
X37727103Y-106709432D01*
X37631865Y-106661813D01*
X37536627Y-106661813D01*
X37441389Y-106709432D01*
X37393770Y-106757051D01*
X37346150Y-106852289D01*
X37298531Y-107042766D01*
X37250912Y-107138004D01*
X37203293Y-107185623D01*
X37108055Y-107233242D01*
X37012817Y-107233242D01*
X36917579Y-107185623D01*
X36869960Y-107138004D01*
X36822341Y-107042766D01*
X36822341Y-106804670D01*
X36869960Y-106661813D01*
X37298531Y-106233242D02*
X37298531Y-105899908D01*
X37822341Y-105757051D02*
X37822341Y-106233242D01*
X36822341Y-106233242D01*
X36822341Y-105757051D01*
X36822341Y-104376099D02*
X36822341Y-104185622D01*
X36869960Y-104090384D01*
X36965198Y-103995146D01*
X37155674Y-103947527D01*
X37489008Y-103947527D01*
X37679484Y-103995146D01*
X37774722Y-104090384D01*
X37822341Y-104185622D01*
X37822341Y-104376099D01*
X37774722Y-104471337D01*
X37679484Y-104566575D01*
X37489008Y-104614194D01*
X37155674Y-104614194D01*
X36965198Y-104566575D01*
X36869960Y-104471337D01*
X36822341Y-104376099D01*
X37822341Y-103518956D02*
X36822341Y-103518956D01*
X37822341Y-102947527D01*
X36822341Y-102947527D01*
X37822341Y-101995146D02*
X37822341Y-102471337D01*
X36822341Y-102471337D01*
X37346150Y-101471337D02*
X37822341Y-101471337D01*
X36822341Y-101804670D02*
X37346150Y-101471337D01*
X36822341Y-101138003D01*
X36822341Y-100138003D02*
X37822341Y-99899908D01*
X37108055Y-99709431D01*
X37822341Y-99518955D01*
X36822341Y-99280860D01*
X37822341Y-98899908D02*
X36822341Y-98899908D01*
X36822341Y-98566575D02*
X36822341Y-97995146D01*
X37822341Y-98280861D02*
X36822341Y-98280861D01*
X37822341Y-97661813D02*
X36822341Y-97661813D01*
X37298531Y-97661813D02*
X37298531Y-97090384D01*
X37822341Y-97090384D02*
X36822341Y-97090384D01*
X36822341Y-95995146D02*
X36822341Y-95423717D01*
X37822341Y-95709432D02*
X36822341Y-95709432D01*
X37298531Y-95090384D02*
X37298531Y-94757050D01*
X37822341Y-94614193D02*
X37822341Y-95090384D01*
X36822341Y-95090384D01*
X36822341Y-94614193D01*
X37298531Y-94185622D02*
X37298531Y-93852288D01*
X37822341Y-93709431D02*
X37822341Y-94185622D01*
X36822341Y-94185622D01*
X36822341Y-93709431D01*
X37822341Y-93280860D02*
X36822341Y-93280860D01*
X37822341Y-92709431D01*
X36822341Y-92709431D01*
X37774722Y-92280860D02*
X37822341Y-92138003D01*
X37822341Y-91899907D01*
X37774722Y-91804669D01*
X37727103Y-91757050D01*
X37631865Y-91709431D01*
X37536627Y-91709431D01*
X37441389Y-91757050D01*
X37393770Y-91804669D01*
X37346150Y-91899907D01*
X37298531Y-92090384D01*
X37250912Y-92185622D01*
X37203293Y-92233241D01*
X37108055Y-92280860D01*
X37012817Y-92280860D01*
X36917579Y-92233241D01*
X36869960Y-92185622D01*
X36822341Y-92090384D01*
X36822341Y-91852288D01*
X36869960Y-91709431D01*
X37346150Y-91090384D02*
X37822341Y-91090384D01*
X36822341Y-91423717D02*
X37346150Y-91090384D01*
X36822341Y-90757050D01*
X37822341Y-89185621D02*
X37822341Y-89661812D01*
X36822341Y-89661812D01*
X37727103Y-88280859D02*
X37774722Y-88328478D01*
X37822341Y-88471335D01*
X37822341Y-88566573D01*
X37774722Y-88709431D01*
X37679484Y-88804669D01*
X37584246Y-88852288D01*
X37393770Y-88899907D01*
X37250912Y-88899907D01*
X37060436Y-88852288D01*
X36965198Y-88804669D01*
X36869960Y-88709431D01*
X36822341Y-88566573D01*
X36822341Y-88471335D01*
X36869960Y-88328478D01*
X36917579Y-88280859D01*
X28163484Y-103221741D02*
X27592055Y-103221741D01*
X27877769Y-103221741D02*
X27877769Y-102221741D01*
X27782531Y-102364598D01*
X27687293Y-102459836D01*
X27592055Y-102507455D01*
X28734912Y-102650312D02*
X28639674Y-102602693D01*
X28592055Y-102555074D01*
X28544436Y-102459836D01*
X28544436Y-102412217D01*
X28592055Y-102316979D01*
X28639674Y-102269360D01*
X28734912Y-102221741D01*
X28925389Y-102221741D01*
X29020627Y-102269360D01*
X29068246Y-102316979D01*
X29115865Y-102412217D01*
X29115865Y-102459836D01*
X29068246Y-102555074D01*
X29020627Y-102602693D01*
X28925389Y-102650312D01*
X28734912Y-102650312D01*
X28639674Y-102697931D01*
X28592055Y-102745550D01*
X28544436Y-102840789D01*
X28544436Y-103031265D01*
X28592055Y-103126503D01*
X28639674Y-103174122D01*
X28734912Y-103221741D01*
X28925389Y-103221741D01*
X29020627Y-103174122D01*
X29068246Y-103126503D01*
X29115865Y-103031265D01*
X29115865Y-102840789D01*
X29068246Y-102745550D01*
X29020627Y-102697931D01*
X28925389Y-102650312D01*
X28163484Y-94971741D02*
X27592055Y-94971741D01*
X27877769Y-94971741D02*
X27877769Y-93971741D01*
X27782531Y-94114598D01*
X27687293Y-94209836D01*
X27592055Y-94257455D01*
X28496817Y-93971741D02*
X29163484Y-93971741D01*
X28734912Y-94971741D01*
X27842055Y-118316979D02*
X27889674Y-118269360D01*
X27984912Y-118221741D01*
X28223008Y-118221741D01*
X28318246Y-118269360D01*
X28365865Y-118316979D01*
X28413484Y-118412217D01*
X28413484Y-118507455D01*
X28365865Y-118650312D01*
X27794436Y-119221741D01*
X28413484Y-119221741D01*
X28794436Y-118316979D02*
X28842055Y-118269360D01*
X28937293Y-118221741D01*
X29175389Y-118221741D01*
X29270627Y-118269360D01*
X29318246Y-118316979D01*
X29365865Y-118412217D01*
X29365865Y-118507455D01*
X29318246Y-118650312D01*
X28746817Y-119221741D01*
X29365865Y-119221741D01*
X28413484Y-110971741D02*
X27842055Y-110971741D01*
X28127769Y-110971741D02*
X28127769Y-109971741D01*
X28032531Y-110114598D01*
X27937293Y-110209836D01*
X27842055Y-110257455D01*
X28889674Y-110971741D02*
X29080150Y-110971741D01*
X29175389Y-110924122D01*
X29223008Y-110876503D01*
X29318246Y-110733646D01*
X29365865Y-110543170D01*
X29365865Y-110162217D01*
X29318246Y-110066979D01*
X29270627Y-110019360D01*
X29175389Y-109971741D01*
X28984912Y-109971741D01*
X28889674Y-110019360D01*
X28842055Y-110066979D01*
X28794436Y-110162217D01*
X28794436Y-110400312D01*
X28842055Y-110495550D01*
X28889674Y-110543170D01*
X28984912Y-110590789D01*
X29175389Y-110590789D01*
X29270627Y-110543170D01*
X29318246Y-110495550D01*
X29365865Y-110400312D01*
X27752055Y-126126979D02*
X27799674Y-126079360D01*
X27894912Y-126031741D01*
X28133008Y-126031741D01*
X28228246Y-126079360D01*
X28275865Y-126126979D01*
X28323484Y-126222217D01*
X28323484Y-126317455D01*
X28275865Y-126460312D01*
X27704436Y-127031741D01*
X28323484Y-127031741D01*
X28656817Y-126031741D02*
X29275865Y-126031741D01*
X28942531Y-126412693D01*
X29085389Y-126412693D01*
X29180627Y-126460312D01*
X29228246Y-126507931D01*
X29275865Y-126603170D01*
X29275865Y-126841265D01*
X29228246Y-126936503D01*
X29180627Y-126984122D01*
X29085389Y-127031741D01*
X28799674Y-127031741D01*
X28704436Y-126984122D01*
X28656817Y-126936503D01*
X30618722Y-129831741D02*
X30952055Y-130831741D01*
X31285389Y-129831741D01*
X31618722Y-130831741D02*
X31618722Y-129831741D01*
X32094912Y-130831741D02*
X32094912Y-129831741D01*
X32666341Y-130831741D01*
X32666341Y-129831741D01*
X28163484Y-87031741D02*
X27592055Y-87031741D01*
X27877769Y-87031741D02*
X27877769Y-86031741D01*
X27782531Y-86174598D01*
X27687293Y-86269836D01*
X27592055Y-86317455D01*
X29020627Y-86031741D02*
X28830150Y-86031741D01*
X28734912Y-86079360D01*
X28687293Y-86126979D01*
X28592055Y-86269836D01*
X28544436Y-86460312D01*
X28544436Y-86841265D01*
X28592055Y-86936503D01*
X28639674Y-86984122D01*
X28734912Y-87031741D01*
X28925389Y-87031741D01*
X29020627Y-86984122D01*
X29068246Y-86936503D01*
X29115865Y-86841265D01*
X29115865Y-86603170D01*
X29068246Y-86507931D01*
X29020627Y-86460312D01*
X28925389Y-86412693D01*
X28734912Y-86412693D01*
X28639674Y-86460312D01*
X28592055Y-86507931D01*
X28544436Y-86603170D01*
X27927324Y-78633581D02*
X27355895Y-78633581D01*
X27641609Y-78633581D02*
X27641609Y-77633581D01*
X27546371Y-77776438D01*
X27451133Y-77871676D01*
X27355895Y-77919295D01*
X28832086Y-77633581D02*
X28355895Y-77633581D01*
X28308276Y-78109771D01*
X28355895Y-78062152D01*
X28451133Y-78014533D01*
X28689229Y-78014533D01*
X28784467Y-78062152D01*
X28832086Y-78109771D01*
X28879705Y-78205010D01*
X28879705Y-78443105D01*
X28832086Y-78538343D01*
X28784467Y-78585962D01*
X28689229Y-78633581D01*
X28451133Y-78633581D01*
X28355895Y-78585962D01*
X28308276Y-78538343D01*
X28323484Y-71031741D02*
X27752055Y-71031741D01*
X28037769Y-71031741D02*
X28037769Y-70031741D01*
X27942531Y-70174598D01*
X27847293Y-70269836D01*
X27752055Y-70317455D01*
X29180627Y-70365074D02*
X29180627Y-71031741D01*
X28942531Y-69984122D02*
X28704436Y-70698408D01*
X29323484Y-70698408D01*
X38037770Y-129831741D02*
X38656818Y-129831741D01*
X38323484Y-130212693D01*
X38466342Y-130212693D01*
X38561580Y-130260312D01*
X38609199Y-130307931D01*
X38656818Y-130403170D01*
X38656818Y-130641265D01*
X38609199Y-130736503D01*
X38561580Y-130784122D01*
X38466342Y-130831741D01*
X38180627Y-130831741D01*
X38085389Y-130784122D01*
X38037770Y-130736503D01*
X39085389Y-130736503D02*
X39133008Y-130784122D01*
X39085389Y-130831741D01*
X39037770Y-130784122D01*
X39085389Y-130736503D01*
X39085389Y-130831741D01*
X39466341Y-129831741D02*
X40085389Y-129831741D01*
X39752055Y-130212693D01*
X39894913Y-130212693D01*
X39990151Y-130260312D01*
X40037770Y-130307931D01*
X40085389Y-130403170D01*
X40085389Y-130641265D01*
X40037770Y-130736503D01*
X39990151Y-130784122D01*
X39894913Y-130831741D01*
X39609198Y-130831741D01*
X39513960Y-130784122D01*
X39466341Y-130736503D01*
X40371103Y-129831741D02*
X40704436Y-130831741D01*
X41037770Y-129831741D01*
X45966341Y-129831741D02*
X46061580Y-129831741D01*
X46156818Y-129879360D01*
X46204437Y-129926979D01*
X46252056Y-130022217D01*
X46299675Y-130212693D01*
X46299675Y-130450789D01*
X46252056Y-130641265D01*
X46204437Y-130736503D01*
X46156818Y-130784122D01*
X46061580Y-130831741D01*
X45966341Y-130831741D01*
X45871103Y-130784122D01*
X45823484Y-130736503D01*
X45775865Y-130641265D01*
X45728246Y-130450789D01*
X45728246Y-130212693D01*
X45775865Y-130022217D01*
X45823484Y-129926979D01*
X45871103Y-129879360D01*
X45966341Y-129831741D01*
X47442532Y-129784122D02*
X46585389Y-131069836D01*
X48347294Y-130831741D02*
X48013960Y-130355550D01*
X47775865Y-130831741D02*
X47775865Y-129831741D01*
X48156818Y-129831741D01*
X48252056Y-129879360D01*
X48299675Y-129926979D01*
X48347294Y-130022217D01*
X48347294Y-130165074D01*
X48299675Y-130260312D01*
X48252056Y-130307931D01*
X48156818Y-130355550D01*
X47775865Y-130355550D01*
X48680627Y-129831741D02*
X49347294Y-130831741D01*
X49347294Y-129831741D02*
X48680627Y-130831741D01*
X38337770Y-66531741D02*
X38956818Y-66531741D01*
X38623484Y-66912693D01*
X38766342Y-66912693D01*
X38861580Y-66960312D01*
X38909199Y-67007931D01*
X38956818Y-67103170D01*
X38956818Y-67341265D01*
X38909199Y-67436503D01*
X38861580Y-67484122D01*
X38766342Y-67531741D01*
X38480627Y-67531741D01*
X38385389Y-67484122D01*
X38337770Y-67436503D01*
X39385389Y-67436503D02*
X39433008Y-67484122D01*
X39385389Y-67531741D01*
X39337770Y-67484122D01*
X39385389Y-67436503D01*
X39385389Y-67531741D01*
X39766341Y-66531741D02*
X40385389Y-66531741D01*
X40052055Y-66912693D01*
X40194913Y-66912693D01*
X40290151Y-66960312D01*
X40337770Y-67007931D01*
X40385389Y-67103170D01*
X40385389Y-67341265D01*
X40337770Y-67436503D01*
X40290151Y-67484122D01*
X40194913Y-67531741D01*
X39909198Y-67531741D01*
X39813960Y-67484122D01*
X39766341Y-67436503D01*
X40671103Y-66531741D02*
X41004436Y-67531741D01*
X41337770Y-66531741D01*
X47623484Y-67531741D02*
X47052055Y-67531741D01*
X47337769Y-67531741D02*
X47337769Y-66531741D01*
X47242531Y-66674598D01*
X47147293Y-66769836D01*
X47052055Y-66817455D01*
X47956817Y-66531741D02*
X48575865Y-66531741D01*
X48242531Y-66912693D01*
X48385389Y-66912693D01*
X48480627Y-66960312D01*
X48528246Y-67007931D01*
X48575865Y-67103170D01*
X48575865Y-67341265D01*
X48528246Y-67436503D01*
X48480627Y-67484122D01*
X48385389Y-67531741D01*
X48099674Y-67531741D01*
X48004436Y-67484122D01*
X47956817Y-67436503D01*
X52325484Y-66457741D02*
X51754055Y-66457741D01*
X52039769Y-66457741D02*
X52039769Y-65457741D01*
X51944531Y-65600598D01*
X51849293Y-65695836D01*
X51754055Y-65743455D01*
X52706436Y-65552979D02*
X52754055Y-65505360D01*
X52849293Y-65457741D01*
X53087389Y-65457741D01*
X53182627Y-65505360D01*
X53230246Y-65552979D01*
X53277865Y-65648217D01*
X53277865Y-65743455D01*
X53230246Y-65886312D01*
X52658817Y-66457741D01*
X53277865Y-66457741D01*
X51118722Y-94400312D02*
X51023484Y-94352693D01*
X50975865Y-94305074D01*
X50928246Y-94209836D01*
X50928246Y-94162217D01*
X50975865Y-94066979D01*
X51023484Y-94019360D01*
X51118722Y-93971741D01*
X51309199Y-93971741D01*
X51404437Y-94019360D01*
X51452056Y-94066979D01*
X51499675Y-94162217D01*
X51499675Y-94209836D01*
X51452056Y-94305074D01*
X51404437Y-94352693D01*
X51309199Y-94400312D01*
X51118722Y-94400312D01*
X51023484Y-94447931D01*
X50975865Y-94495550D01*
X50928246Y-94590789D01*
X50928246Y-94781265D01*
X50975865Y-94876503D01*
X51023484Y-94924122D01*
X51118722Y-94971741D01*
X51309199Y-94971741D01*
X51404437Y-94924122D01*
X51452056Y-94876503D01*
X51499675Y-94781265D01*
X51499675Y-94590789D01*
X51452056Y-94495550D01*
X51404437Y-94447931D01*
X51309199Y-94400312D01*
X51023484Y-87031741D02*
X51213960Y-87031741D01*
X51309199Y-86984122D01*
X51356818Y-86936503D01*
X51452056Y-86793646D01*
X51499675Y-86603170D01*
X51499675Y-86222217D01*
X51452056Y-86126979D01*
X51404437Y-86079360D01*
X51309199Y-86031741D01*
X51118722Y-86031741D01*
X51023484Y-86079360D01*
X50975865Y-86126979D01*
X50928246Y-86222217D01*
X50928246Y-86460312D01*
X50975865Y-86555550D01*
X51023484Y-86603170D01*
X51118722Y-86650789D01*
X51309199Y-86650789D01*
X51404437Y-86603170D01*
X51452056Y-86555550D01*
X51499675Y-86460312D01*
X51023484Y-79031741D02*
X50452055Y-79031741D01*
X50737769Y-79031741D02*
X50737769Y-78031741D01*
X50642531Y-78174598D01*
X50547293Y-78269836D01*
X50452055Y-78317455D01*
X51642531Y-78031741D02*
X51737770Y-78031741D01*
X51833008Y-78079360D01*
X51880627Y-78126979D01*
X51928246Y-78222217D01*
X51975865Y-78412693D01*
X51975865Y-78650789D01*
X51928246Y-78841265D01*
X51880627Y-78936503D01*
X51833008Y-78984122D01*
X51737770Y-79031741D01*
X51642531Y-79031741D01*
X51547293Y-78984122D01*
X51499674Y-78936503D01*
X51452055Y-78841265D01*
X51404436Y-78650789D01*
X51404436Y-78412693D01*
X51452055Y-78222217D01*
X51499674Y-78126979D01*
X51547293Y-78079360D01*
X51642531Y-78031741D01*
X51023484Y-71031741D02*
X50452055Y-71031741D01*
X50737769Y-71031741D02*
X50737769Y-70031741D01*
X50642531Y-70174598D01*
X50547293Y-70269836D01*
X50452055Y-70317455D01*
X51975865Y-71031741D02*
X51404436Y-71031741D01*
X51690150Y-71031741D02*
X51690150Y-70031741D01*
X51594912Y-70174598D01*
X51499674Y-70269836D01*
X51404436Y-70317455D01*
X51452056Y-102221741D02*
X50975865Y-102221741D01*
X50928246Y-102697931D01*
X50975865Y-102650312D01*
X51071103Y-102602693D01*
X51309199Y-102602693D01*
X51404437Y-102650312D01*
X51452056Y-102697931D01*
X51499675Y-102793170D01*
X51499675Y-103031265D01*
X51452056Y-103126503D01*
X51404437Y-103174122D01*
X51309199Y-103221741D01*
X51071103Y-103221741D01*
X50975865Y-103174122D01*
X50928246Y-103126503D01*
X51130627Y-118221741D02*
X51749675Y-118221741D01*
X51416341Y-118602693D01*
X51559199Y-118602693D01*
X51654437Y-118650312D01*
X51702056Y-118697931D01*
X51749675Y-118793170D01*
X51749675Y-119031265D01*
X51702056Y-119126503D01*
X51654437Y-119174122D01*
X51559199Y-119221741D01*
X51273484Y-119221741D01*
X51178246Y-119174122D01*
X51130627Y-119126503D01*
X51654437Y-110305074D02*
X51654437Y-110971741D01*
X51416341Y-109924122D02*
X51178246Y-110638408D01*
X51797294Y-110638408D01*
X50833246Y-126131979D02*
X50880865Y-126084360D01*
X50976103Y-126036741D01*
X51214199Y-126036741D01*
X51309437Y-126084360D01*
X51357056Y-126131979D01*
X51404675Y-126227217D01*
X51404675Y-126322455D01*
X51357056Y-126465312D01*
X50785627Y-127036741D01*
X51404675Y-127036741D01*
X52118722Y-131031741D02*
X51547293Y-131031741D01*
X51833007Y-131031741D02*
X51833007Y-130031741D01*
X51737769Y-130174598D01*
X51642531Y-130269836D01*
X51547293Y-130317455D01*
X53261579Y-129984122D02*
X52404436Y-131269836D01*
X53452055Y-130031741D02*
X54023484Y-130031741D01*
X53737769Y-131031741D02*
X53737769Y-130031741D01*
X54261579Y-130031741D02*
X54928246Y-131031741D01*
X54928246Y-130031741D02*
X54261579Y-131031741D01*
%LPC*%
D16*
X36630612Y-74891674D02*
X36559183Y-74963103D01*
X36344897Y-75034531D01*
X36202040Y-75034531D01*
X35987755Y-74963103D01*
X35844897Y-74820246D01*
X35773469Y-74677389D01*
X35702040Y-74391674D01*
X35702040Y-74177389D01*
X35773469Y-73891674D01*
X35844897Y-73748817D01*
X35987755Y-73605960D01*
X36202040Y-73534531D01*
X36344897Y-73534531D01*
X36559183Y-73605960D01*
X36630612Y-73677389D01*
X37273469Y-75034531D02*
X37273469Y-73534531D01*
X38844898Y-75034531D02*
X38344898Y-74320246D01*
X37987755Y-75034531D02*
X37987755Y-73534531D01*
X38559183Y-73534531D01*
X38702041Y-73605960D01*
X38773469Y-73677389D01*
X38844898Y-73820246D01*
X38844898Y-74034531D01*
X38773469Y-74177389D01*
X38702041Y-74248817D01*
X38559183Y-74320246D01*
X37987755Y-74320246D01*
X40344898Y-74891674D02*
X40273469Y-74963103D01*
X40059183Y-75034531D01*
X39916326Y-75034531D01*
X39702041Y-74963103D01*
X39559183Y-74820246D01*
X39487755Y-74677389D01*
X39416326Y-74391674D01*
X39416326Y-74177389D01*
X39487755Y-73891674D01*
X39559183Y-73748817D01*
X39702041Y-73605960D01*
X39916326Y-73534531D01*
X40059183Y-73534531D01*
X40273469Y-73605960D01*
X40344898Y-73677389D01*
X40987755Y-73534531D02*
X40987755Y-74748817D01*
X41059183Y-74891674D01*
X41130612Y-74963103D01*
X41273469Y-75034531D01*
X41559183Y-75034531D01*
X41702041Y-74963103D01*
X41773469Y-74891674D01*
X41844898Y-74748817D01*
X41844898Y-73534531D01*
X42559184Y-75034531D02*
X42559184Y-73534531D01*
X43059184Y-73534531D02*
X43916327Y-73534531D01*
X43487756Y-75034531D02*
X43487756Y-73534531D01*
X44344898Y-74963103D02*
X44559184Y-75034531D01*
X44916327Y-75034531D01*
X45059184Y-74963103D01*
X45130613Y-74891674D01*
X45202041Y-74748817D01*
X45202041Y-74605960D01*
X45130613Y-74463103D01*
X45059184Y-74391674D01*
X44916327Y-74320246D01*
X44630613Y-74248817D01*
X44487755Y-74177389D01*
X44416327Y-74105960D01*
X44344898Y-73963103D01*
X44344898Y-73820246D01*
X44416327Y-73677389D01*
X44487755Y-73605960D01*
X44630613Y-73534531D01*
X44987755Y-73534531D01*
X45202041Y-73605960D01*
X35809207Y-72097674D02*
X35737778Y-72169103D01*
X35523492Y-72240531D01*
X35380635Y-72240531D01*
X35166350Y-72169103D01*
X35023492Y-72026246D01*
X34952064Y-71883389D01*
X34880635Y-71597674D01*
X34880635Y-71383389D01*
X34952064Y-71097674D01*
X35023492Y-70954817D01*
X35166350Y-70811960D01*
X35380635Y-70740531D01*
X35523492Y-70740531D01*
X35737778Y-70811960D01*
X35809207Y-70883389D01*
X37309207Y-72240531D02*
X36809207Y-71526246D01*
X36452064Y-72240531D02*
X36452064Y-70740531D01*
X37023492Y-70740531D01*
X37166350Y-70811960D01*
X37237778Y-70883389D01*
X37309207Y-71026246D01*
X37309207Y-71240531D01*
X37237778Y-71383389D01*
X37166350Y-71454817D01*
X37023492Y-71526246D01*
X36452064Y-71526246D01*
X37880635Y-71811960D02*
X38594921Y-71811960D01*
X37737778Y-72240531D02*
X38237778Y-70740531D01*
X38737778Y-72240531D01*
X39094921Y-70740531D02*
X40094921Y-70740531D01*
X39094921Y-72240531D01*
X40094921Y-72240531D01*
X40952063Y-71526246D02*
X40952063Y-72240531D01*
X40452063Y-70740531D02*
X40952063Y-71526246D01*
X41452063Y-70740531D01*
D12*
X46101000Y-71666100D02*
X44958000Y-72618600D01*
X44767500Y-72618600D02*
X46101000Y-71666100D01*
X45720000Y-71793100D02*
X44767500Y-72618600D01*
X44640500Y-72555100D02*
X45720000Y-71793100D01*
X45529500Y-71856600D02*
X44640500Y-72555100D01*
X44386500Y-72618600D02*
X45529500Y-71856600D01*
X45212000Y-71983600D02*
X44386500Y-72618600D01*
X44259500Y-72555100D02*
X45212000Y-71983600D01*
X45021500Y-71983600D02*
X44259500Y-72555100D01*
X44259500Y-72428100D02*
X45021500Y-71983600D01*
X44767500Y-71983600D02*
X44259500Y-72428100D01*
X44196000Y-72301100D02*
X44767500Y-71983600D01*
X44767500Y-71793100D02*
X44196000Y-72301100D01*
X44767500Y-71666100D02*
X44132500Y-72174100D01*
X44894500Y-71475600D02*
X44069000Y-72047100D01*
X44894500Y-71348600D02*
X44069000Y-71920100D01*
D17*
X43053000Y-72555100D02*
X42418000Y-71666100D01*
D12*
X44958000Y-72682100D02*
X42989500Y-72682100D01*
X46545500Y-71539100D02*
X44958000Y-72682100D01*
X44767500Y-71983600D02*
X46545500Y-71539100D01*
X45085000Y-71094600D02*
X44767500Y-71983600D01*
X44005500Y-71793100D02*
X45085000Y-71094600D01*
X43180000Y-70332600D02*
X44005500Y-71856600D01*
X43243500Y-71729600D02*
X43180000Y-70332600D01*
X42164000Y-71475600D02*
X43243500Y-71729600D01*
X42989500Y-72682100D02*
X42164000Y-71475600D01*
D17*
X43243500Y-72555100D02*
X42608500Y-71666100D01*
X43434000Y-72555100D02*
X42862500Y-71729600D01*
X43561000Y-72555100D02*
X43116500Y-71793100D01*
X43815000Y-72555100D02*
X43370500Y-71729600D01*
X44005500Y-72555100D02*
X43434000Y-71475600D01*
X44196000Y-72555100D02*
X43307000Y-70840600D01*
X43370500Y-71539100D02*
X43307000Y-70713600D01*
D18*
X47260960Y-115449860D03*
X47260960Y-112909860D03*
X47260960Y-110369860D03*
X47260960Y-107829860D03*
X47260960Y-105289860D03*
X47260960Y-102749860D03*
X47260960Y-100209860D03*
X47260960Y-97669860D03*
X47260960Y-95129860D03*
X47260960Y-92589860D03*
X47260960Y-90049860D03*
X47260960Y-87509860D03*
X47260960Y-84969860D03*
X47260960Y-82429860D03*
X32020960Y-82429860D03*
X32020960Y-90049860D03*
X32020960Y-110369860D03*
X32020960Y-95129860D03*
X32020960Y-92589860D03*
X32020960Y-112909860D03*
X32020960Y-105289860D03*
X32020960Y-115449860D03*
X32020960Y-102749860D03*
X32020960Y-100209860D03*
X32020960Y-97669860D03*
X32020960Y-107829860D03*
X32020960Y-84969860D03*
X32020960Y-87509860D03*
D19*
X23813960Y-94579360D03*
X23814960Y-102579360D03*
X23814960Y-118579360D03*
X23814960Y-86579360D03*
X23814960Y-126579360D03*
X23814960Y-110579360D03*
X23813960Y-78579360D03*
X23813960Y-70579360D03*
X23814960Y-134579360D03*
X31813960Y-134579360D03*
X39813960Y-134579360D03*
X47813960Y-134579360D03*
X39813960Y-62579360D03*
X47813960Y-62579360D03*
X23814960Y-62579360D03*
X31813960Y-62579360D03*
X55813960Y-62579360D03*
X55813960Y-70579360D03*
X55813960Y-78579360D03*
X55813960Y-86579360D03*
X55813960Y-94579360D03*
X55813960Y-102579360D03*
X55813960Y-110579360D03*
X55813960Y-118579360D03*
X55813960Y-126579360D03*
X55813960Y-134579360D03*
M02*
