%TF.GenerationSoftware,KiCad,Pcbnew,4.0.5-e0-6337~49~ubuntu16.04.1*%
%TF.CreationDate,2017-08-08T13:22:19-07:00*%
%TF.ProjectId,5x10-Teensy-LC-Breakout,357831302D5465656E73792D4C432D42,v1.3*%
%TF.FileFunction,Copper,L2,Bot,Signal*%
%FSLAX46Y46*%
G04 Gerber Fmt 4.6, Leading zero omitted, Abs format (unit mm)*
G04 Created by KiCad (PCBNEW 4.0.5-e0-6337~49~ubuntu16.04.1) date Tue Aug  8 13:22:19 2017*
%MOMM*%
%LPD*%
G01*
G04 APERTURE LIST*
%ADD10C,0.350000*%
%ADD11C,1.727200*%
%ADD12C,6.000000*%
%ADD13C,0.685800*%
%ADD14C,0.508000*%
%ADD15C,0.330200*%
%ADD16C,0.350000*%
G04 APERTURE END LIST*
D10*
D11*
X47260960Y-115449860D03*
X47260960Y-112909860D03*
X47260960Y-110369860D03*
X47260960Y-107829860D03*
X47260960Y-105289860D03*
X47260960Y-102749860D03*
X47260960Y-100209860D03*
X47260960Y-97669860D03*
X47260960Y-95129860D03*
X47260960Y-92589860D03*
X47260960Y-90049860D03*
X47260960Y-87509860D03*
X47260960Y-84969860D03*
X47260960Y-82429860D03*
X32020960Y-82429860D03*
X32020960Y-90049860D03*
X32020960Y-110369860D03*
X32020960Y-95129860D03*
X32020960Y-92589860D03*
X32020960Y-112909860D03*
X32020960Y-105289860D03*
X32020960Y-115449860D03*
X32020960Y-102749860D03*
X32020960Y-100209860D03*
X32020960Y-97669860D03*
X32020960Y-107829860D03*
X32020960Y-84969860D03*
X32020960Y-87509860D03*
D12*
X23813960Y-94579360D03*
X23814960Y-102579360D03*
X23814960Y-118579360D03*
X23814960Y-86579360D03*
X23814960Y-126579360D03*
X23814960Y-110579360D03*
X23813960Y-78579360D03*
X23813960Y-70579360D03*
X23814960Y-134579360D03*
X31813960Y-134579360D03*
X39813960Y-134579360D03*
X47813960Y-134579360D03*
X39813960Y-62579360D03*
X47813960Y-62579360D03*
X23814960Y-62579360D03*
X31813960Y-62579360D03*
X55813960Y-62579360D03*
X55813960Y-70579360D03*
X55813960Y-78579360D03*
X55813960Y-86579360D03*
X55813960Y-94579360D03*
X55813960Y-102579360D03*
X55813960Y-110579360D03*
X55813960Y-118579360D03*
X55813960Y-126579360D03*
X55813960Y-134579360D03*
D13*
X34813959Y-108096601D03*
X39893240Y-110363000D03*
X29321760Y-117734080D03*
D14*
X47260960Y-82429860D02*
X47260960Y-71132360D01*
X47260960Y-71132360D02*
X55813960Y-62579360D01*
X31813960Y-62579360D02*
X34813959Y-65579359D01*
X34813959Y-65579359D02*
X34813959Y-108096601D01*
X39813960Y-62579360D02*
X39813960Y-110283720D01*
X39813960Y-110283720D02*
X39893240Y-110363000D01*
X33249134Y-110363000D02*
X39893240Y-110363000D01*
X32020960Y-110369860D02*
X33242274Y-110369860D01*
X33242274Y-110369860D02*
X33249134Y-110363000D01*
X29321760Y-117734080D02*
X36631880Y-117734080D01*
X36631880Y-117734080D02*
X38916100Y-115449860D01*
X46989940Y-112638840D02*
X47260960Y-112909860D01*
X29321760Y-117734080D02*
X29321760Y-68086160D01*
X29321760Y-68086160D02*
X23814960Y-62579360D01*
X47260960Y-115449860D02*
X38916100Y-115449860D01*
D15*
X34813959Y-108096601D03*
X39893240Y-110363000D03*
X29321760Y-117734080D03*
D16*
X47260960Y-115449860D03*
X47260960Y-112909860D03*
X47260960Y-110369860D03*
X47260960Y-107829860D03*
X47260960Y-105289860D03*
X47260960Y-102749860D03*
X47260960Y-100209860D03*
X47260960Y-97669860D03*
X47260960Y-95129860D03*
X47260960Y-92589860D03*
X47260960Y-90049860D03*
X47260960Y-87509860D03*
X47260960Y-84969860D03*
X47260960Y-82429860D03*
X32020960Y-82429860D03*
X32020960Y-90049860D03*
X32020960Y-110369860D03*
X32020960Y-95129860D03*
X32020960Y-92589860D03*
X32020960Y-112909860D03*
X32020960Y-105289860D03*
X32020960Y-115449860D03*
X32020960Y-102749860D03*
X32020960Y-100209860D03*
X32020960Y-97669860D03*
X32020960Y-107829860D03*
X32020960Y-84969860D03*
X32020960Y-87509860D03*
X23813960Y-94579360D03*
X23814960Y-102579360D03*
X23814960Y-118579360D03*
X23814960Y-86579360D03*
X23814960Y-126579360D03*
X23814960Y-110579360D03*
X23813960Y-78579360D03*
X23813960Y-70579360D03*
X23814960Y-134579360D03*
X31813960Y-134579360D03*
X39813960Y-134579360D03*
X47813960Y-134579360D03*
X39813960Y-62579360D03*
X47813960Y-62579360D03*
X23814960Y-62579360D03*
X31813960Y-62579360D03*
X55813960Y-62579360D03*
X55813960Y-70579360D03*
X55813960Y-78579360D03*
X55813960Y-86579360D03*
X55813960Y-94579360D03*
X55813960Y-102579360D03*
X55813960Y-110579360D03*
X55813960Y-118579360D03*
X55813960Y-126579360D03*
X55813960Y-134579360D03*
M02*
