G04 This is an RS-274x file exported by *
G04 gerbv version 2.6.0 *
G04 More information is available about gerbv at *
G04 http://gerbv.gpleda.org/ *
G04 --End of header info--*
%MOIN*%
%FSLAX34Y34*%
%IPPOS*%
G04 --Define apertures--*
%ADD10C,0.0138*%
%ADD11C,0.0016*%
%ADD12C,0.0059*%
G04 --Start main section--*
G54D11*
G01X0004331Y-021731D02*
G01X0004331Y-019369D01*
G01X0005119Y-021731D02*
G01X0004331Y-021731D01*
G01X0005119Y-019369D02*
G01X0005119Y-021731D01*
G01X0004331Y-019369D02*
G01X0005119Y-019369D01*
G01X0006261Y-017479D02*
G01X0003190Y-017479D01*
G01X0006261Y-023621D02*
G01X0003190Y-023621D01*
G01X0007796Y-022086D02*
G01X0007796Y-019015D01*
G01X0001654Y-022086D02*
G01X0001654Y-019015D01*
G01X0007796Y-019015D02*
G75*
G03X0006261Y-017479I-001535J0000000D01*
G01X0006261Y-023621D02*
G75*
G03X0007796Y-022086I0000000J0001535D01*
G01X0001654Y-022086D02*
G75*
G03X0003190Y-023621I0001535J0000000D01*
G01X0003190Y-017479D02*
G75*
G03X0001654Y-019015I0000000J-001535D01*
G54D12*
G01X0004575Y-019004D02*
G01X0004875Y-019004D01*
G01X0004725Y-019153D02*
G01X0004725Y-018854D01*
G01X0004575Y-022153D02*
G01X0004875Y-022153D01*
G01X0000000Y0000000D02*
G54D11*
G01X0006261Y-017479D02*
G01X0003190Y-017479D01*
G01X0006261Y-023621D02*
G01X0003190Y-023621D01*
G01X0007796Y-022086D02*
G01X0007796Y-019015D01*
G01X0001654Y-022086D02*
G01X0001654Y-019015D01*
G01X0007796Y-019015D02*
G75*
G03X0006261Y-017479I-001535J0000000D01*
G01X0006261Y-023621D02*
G75*
G03X0007796Y-022086I0000000J0001535D01*
G01X0001654Y-022086D02*
G75*
G03X0003190Y-023621I0001535J0000000D01*
G01X0003190Y-017479D02*
G75*
G03X0001654Y-019015I0000000J-001535D01*
M02*
