%TF.GenerationSoftware,KiCad,Pcbnew,4.0.5-e0-6337~49~ubuntu16.04.1*%
%TF.CreationDate,2017-05-27T13:56:13-07:00*%
%TF.ProjectId,2x2-Generic-1206-SMT,3278322D47656E657269632D31323036,v1.1*%
%TF.FileFunction,Soldermask,Top*%
%FSLAX46Y46*%
G04 Gerber Fmt 4.6, Leading zero omitted, Abs format (unit mm)*
G04 Created by KiCad (PCBNEW 4.0.5-e0-6337~49~ubuntu16.04.1) date Sat May 27 13:56:13 2017*
%MOMM*%
%LPD*%
G01*
G04 APERTURE LIST*
%ADD10C,0.350000*%
G04 APERTURE END LIST*
D10*
G36*
X8325110Y-53123347D02*
X8916055Y-53244651D01*
X9472198Y-53478432D01*
X9972334Y-53815778D01*
X10397421Y-54243843D01*
X10731266Y-54746321D01*
X10961156Y-55304076D01*
X11078264Y-55895514D01*
X11078264Y-55895524D01*
X11078331Y-55895863D01*
X11068710Y-56584916D01*
X11068633Y-56585254D01*
X11068633Y-56585262D01*
X10935057Y-57173201D01*
X10689685Y-57724316D01*
X10341937Y-58217278D01*
X9905062Y-58633309D01*
X9395700Y-58956561D01*
X8833254Y-59174719D01*
X8239147Y-59279476D01*
X7636003Y-59266842D01*
X7046800Y-59137297D01*
X6493982Y-58895777D01*
X5998607Y-58551482D01*
X5579537Y-58117523D01*
X5252738Y-57610430D01*
X5030656Y-57049514D01*
X4921755Y-56456158D01*
X4930177Y-55852941D01*
X5055606Y-55262847D01*
X5293259Y-54708358D01*
X5634091Y-54210588D01*
X6065112Y-53788500D01*
X6569913Y-53458168D01*
X7129259Y-53232177D01*
X7721845Y-53119136D01*
X8325110Y-53123347D01*
X8325110Y-53123347D01*
G37*
G36*
X16325110Y-53123347D02*
X16916055Y-53244651D01*
X17472198Y-53478432D01*
X17972334Y-53815778D01*
X18397421Y-54243843D01*
X18731266Y-54746321D01*
X18961156Y-55304076D01*
X19078264Y-55895514D01*
X19078264Y-55895524D01*
X19078331Y-55895863D01*
X19068710Y-56584916D01*
X19068633Y-56585254D01*
X19068633Y-56585262D01*
X18935057Y-57173201D01*
X18689685Y-57724316D01*
X18341937Y-58217278D01*
X17905062Y-58633309D01*
X17395700Y-58956561D01*
X16833254Y-59174719D01*
X16239147Y-59279476D01*
X15636003Y-59266842D01*
X15046800Y-59137297D01*
X14493982Y-58895777D01*
X13998607Y-58551482D01*
X13579537Y-58117523D01*
X13252738Y-57610430D01*
X13030656Y-57049514D01*
X12921755Y-56456158D01*
X12930177Y-55852941D01*
X13055606Y-55262847D01*
X13293259Y-54708358D01*
X13634091Y-54210588D01*
X14065112Y-53788500D01*
X14569913Y-53458168D01*
X15129259Y-53232177D01*
X15721845Y-53119136D01*
X16325110Y-53123347D01*
X16325110Y-53123347D01*
G37*
G36*
X12878200Y-54733700D02*
X11125800Y-54733700D01*
X11125800Y-53081300D01*
X12878200Y-53081300D01*
X12878200Y-54733700D01*
X12878200Y-54733700D01*
G37*
G36*
X12878200Y-51313700D02*
X11125800Y-51313700D01*
X11125800Y-49661300D01*
X12878200Y-49661300D01*
X12878200Y-51313700D01*
X12878200Y-51313700D01*
G37*
G36*
X8325110Y-45123347D02*
X8916055Y-45244651D01*
X9472198Y-45478432D01*
X9972334Y-45815778D01*
X10397421Y-46243843D01*
X10731266Y-46746321D01*
X10961156Y-47304076D01*
X11078264Y-47895514D01*
X11078264Y-47895524D01*
X11078331Y-47895863D01*
X11068710Y-48584916D01*
X11068633Y-48585254D01*
X11068633Y-48585262D01*
X10935057Y-49173201D01*
X10689685Y-49724316D01*
X10341937Y-50217278D01*
X9905062Y-50633309D01*
X9395700Y-50956561D01*
X8833254Y-51174719D01*
X8239147Y-51279476D01*
X7636003Y-51266842D01*
X7046800Y-51137297D01*
X6493982Y-50895777D01*
X5998607Y-50551482D01*
X5579537Y-50117523D01*
X5252738Y-49610430D01*
X5030656Y-49049514D01*
X4921755Y-48456158D01*
X4930177Y-47852941D01*
X5055606Y-47262847D01*
X5293259Y-46708358D01*
X5634091Y-46210588D01*
X6065112Y-45788500D01*
X6569913Y-45458168D01*
X7129259Y-45232177D01*
X7721845Y-45119136D01*
X8325110Y-45123347D01*
X8325110Y-45123347D01*
G37*
G36*
X16325110Y-45123347D02*
X16916055Y-45244651D01*
X17472198Y-45478432D01*
X17972334Y-45815778D01*
X18397421Y-46243843D01*
X18731266Y-46746321D01*
X18961156Y-47304076D01*
X19078264Y-47895514D01*
X19078264Y-47895524D01*
X19078331Y-47895863D01*
X19068710Y-48584916D01*
X19068633Y-48585254D01*
X19068633Y-48585262D01*
X18935057Y-49173201D01*
X18689685Y-49724316D01*
X18341937Y-50217278D01*
X17905062Y-50633309D01*
X17395700Y-50956561D01*
X16833254Y-51174719D01*
X16239147Y-51279476D01*
X15636003Y-51266842D01*
X15046800Y-51137297D01*
X14493982Y-50895777D01*
X13998607Y-50551482D01*
X13579537Y-50117523D01*
X13252738Y-49610430D01*
X13030656Y-49049514D01*
X12921755Y-48456158D01*
X12930177Y-47852941D01*
X13055606Y-47262847D01*
X13293259Y-46708358D01*
X13634091Y-46210588D01*
X14065112Y-45788500D01*
X14569913Y-45458168D01*
X15129259Y-45232177D01*
X15721845Y-45119136D01*
X16325110Y-45123347D01*
X16325110Y-45123347D01*
G37*
M02*
