<?xml version="1.0" encoding="UTF-8" standalone="no"?>
<svg
   xmlns:dc="http://purl.org/dc/elements/1.1/"
   xmlns:cc="http://creativecommons.org/ns#"
   xmlns:rdf="http://www.w3.org/1999/02/22-rdf-syntax-ns#"
   xmlns:svg="http://www.w3.org/2000/svg"
   xmlns="http://www.w3.org/2000/svg"
   xmlns:sodipodi="http://sodipodi.sourceforge.net/DTD/sodipodi-0.dtd"
   xmlns:inkscape="http://www.inkscape.org/namespaces/inkscape"
   inkscape:version="1.0 (4035a4f, 2020-05-01)"
   sodipodi:docname="BDG Stud Stencil Laser.svg"
   viewBox="0 0 816 1056"
   height="11in"
   width="8.5in"
   xml:space="preserve"
   id="svg10"
   version="1.1"><metadata
     id="metadata16"><rdf:RDF><cc:Work
         rdf:about=""><dc:format>image/svg+xml</dc:format><dc:type
           rdf:resource="http://purl.org/dc/dcmitype/StillImage" /><dc:title></dc:title></cc:Work></rdf:RDF></metadata><defs
     id="defs14"><clipPath
       id="clipPath26"
       clipPathUnits="userSpaceOnUse"><path
         id="path24"
         d="M 0,595.276 H 841.89 V 0 H 0 Z" /></clipPath><clipPath
       id="clipPath152"
       clipPathUnits="userSpaceOnUse"><path
         id="path150"
         d="M 284.457,462.472 H 557.433 V 370.913 H 284.457 Z" /></clipPath><clipPath
       id="clipPath366"
       clipPathUnits="userSpaceOnUse"><path
         id="path364"
         d="M 284.457,343.417 H 557.433 V 251.858 H 284.457 Z" /></clipPath><clipPath
       id="clipPath580"
       clipPathUnits="userSpaceOnUse"><path
         id="path578"
         d="M 284.457,224.362 H 557.433 V 132.803 H 284.457 Z" /></clipPath></defs><sodipodi:namedview
     inkscape:document-units="mm"
     units="in"
     inkscape:current-layer="g18"
     inkscape:window-maximized="0"
     inkscape:window-y="23"
     inkscape:window-x="2569"
     inkscape:cy="535.35434"
     inkscape:cx="408"
     inkscape:zoom="2.7194842"
     showgrid="false"
     id="namedview12"
     inkscape:window-height="1395"
     inkscape:window-width="2515"
     inkscape:pageshadow="2"
     inkscape:pageopacity="0"
     guidetolerance="10"
     gridtolerance="10"
     objecttolerance="10"
     borderopacity="1"
     bordercolor="#666666"
     pagecolor="#ffffff"
     inkscape:document-rotation="0" /><g
     transform="matrix(1.33333,0,0,-1.33333,0,793.701)"
     inkscape:label="Layer 1"
     inkscape:groupmode="layer"
     id="g18"
     style="display:inline"><g
       style="opacity:0.300003;fill:none;fill-opacity:0.380567;stroke:#000000;stroke-width:0.215434;stroke-miterlimit:4;stroke-dasharray:none;stroke-opacity:0.882591"
       id="g919"
       transform="translate(181.2755,255.14933)"><path
         id="path917"
         style="fill:none;fill-opacity:0.380567;stroke:#000000;stroke-width:0.287245;stroke-linecap:butt;stroke-linejoin:miter;stroke-miterlimit:4;stroke-dasharray:none;stroke-opacity:0.882591"
         d="m 394.96094,317.63867 c -8.34934,0 -15.11719,6.76786 -15.11719,15.11719 v 28 62.70898 28 c 0,8.34934 6.76785,15.11914 15.11719,15.11914 h 8.00195 138.22852 l 5.12881,0.0476 c 8.34898,0.0775 14.68626,-6.77039 14.78593,-15.11914 l 0.15332,-12.84316 166.29912,-0.0853 c 8.34934,-0.004 15.11914,-6.7698 15.11914,-15.11914 v -26.04296 -36.66602 -28 c 0,-8.34933 -6.7698,-15.11719 -15.11914,-15.11719 z"
         transform="matrix(0.75000002,0,0,-0.75000002,-296.2203,238.22851)"
         sodipodi:nodetypes="ssccssccsscssccsss" /></g><circle
       r="8.1319838"
       transform="scale(1,-1)"
       cy="-243.81033"
       cx="203.95282"
       id="circle2075"
       style="fill:none;fill-opacity:1;stroke:#00ffff;stroke-width:0.215434;stroke-miterlimit:4;stroke-dasharray:none;stroke-opacity:1" /><circle
       r="8.1319838"
       transform="scale(1,-1)"
       cy="-243.81033"
       cx="226.63"
       id="circle2077"
       style="fill:none;fill-opacity:1;stroke:#00ffff;stroke-width:0.215434;stroke-miterlimit:4;stroke-dasharray:none;stroke-opacity:1" /><circle
       style="fill:none;fill-opacity:1;stroke:#00ffff;stroke-width:0.215434;stroke-miterlimit:4;stroke-dasharray:none;stroke-opacity:1"
       id="circle2081"
       cx="249.30722"
       cy="-243.81033"
       transform="scale(1,-1)"
       r="8.1319838" /><circle
       r="8.1319838"
       transform="scale(1,-1)"
       cy="-243.81033"
       cx="271.9845"
       id="circle2083"
       style="fill:none;fill-opacity:1;stroke:#00ffff;stroke-width:0.215434;stroke-miterlimit:4;stroke-dasharray:none;stroke-opacity:1" /><circle
       style="fill:none;fill-opacity:1;stroke:#00ffff;stroke-width:0.215434;stroke-miterlimit:4;stroke-dasharray:none;stroke-opacity:1"
       id="circle2085"
       cx="294.66119"
       cy="-243.81033"
       transform="scale(1,-1)"
       r="8.1319838" /><circle
       r="8.1319838"
       transform="scale(1,-1)"
       cy="-243.81033"
       cx="317.33844"
       id="circle2089"
       style="fill:none;fill-opacity:1;stroke:#00ffff;stroke-width:0.215434;stroke-miterlimit:4;stroke-dasharray:none;stroke-opacity:1" /><circle
       style="fill:none;fill-opacity:1;stroke:#00ffff;stroke-width:0.215434;stroke-miterlimit:4;stroke-dasharray:none;stroke-opacity:1"
       id="circle2091"
       cx="340.01575"
       cy="-243.81033"
       transform="scale(1,-1)"
       r="8.1319838" /><circle
       style="fill:none;fill-opacity:1;stroke:#00ffff;stroke-width:0.215434;stroke-miterlimit:4;stroke-dasharray:none;stroke-opacity:1"
       id="circle2093"
       cx="362.69293"
       cy="-243.81033"
       transform="scale(1,-1)"
       r="8.1319838" /><circle
       r="8.1319838"
       transform="scale(1,-1)"
       cy="-243.81033"
       cx="385.37015"
       id="circle2095"
       style="fill:none;fill-opacity:1;stroke:#00ffff;stroke-width:0.215434;stroke-miterlimit:4;stroke-dasharray:none;stroke-opacity:1" /><circle
       style="fill:none;fill-opacity:1;stroke:#00ffff;stroke-width:0.215434;stroke-miterlimit:4;stroke-dasharray:none;stroke-opacity:1"
       id="circle2097"
       cx="408.04745"
       cy="-243.81033"
       transform="scale(1,-1)"
       r="8.1319838" /><circle
       r="8.1319838"
       transform="scale(1,-1)"
       cy="-243.81033"
       cx="430.72415"
       id="circle2099"
       style="fill:none;fill-opacity:1;stroke:#00ffff;stroke-width:0.215434;stroke-miterlimit:4;stroke-dasharray:none;stroke-opacity:1" /><circle
       r="8.1319838"
       transform="scale(1,-1)"
       cy="-221.13297"
       cx="181.27551"
       id="circle2446"
       style="fill:none;fill-opacity:1;stroke:#00ffff;stroke-width:0.215434;stroke-miterlimit:4;stroke-dasharray:none;stroke-opacity:1" /><circle
       style="fill:none;fill-opacity:1;stroke:#ff0000;stroke-width:0.215434;stroke-miterlimit:4;stroke-dasharray:none;stroke-opacity:1"
       id="circle2448"
       cx="203.95282"
       cy="-221.13297"
       transform="scale(1,-1)"
       r="8.1319838" /><circle
       style="fill:none;fill-opacity:1;stroke:#ff0000;stroke-width:0.215434;stroke-miterlimit:4;stroke-dasharray:none;stroke-opacity:1"
       id="circle2450"
       cx="226.63"
       cy="-221.13297"
       transform="scale(1,-1)"
       r="8.1319838" /><circle
       r="8.1319838"
       transform="scale(1,-1)"
       cy="-221.13297"
       cx="249.30722"
       id="circle2452"
       style="fill:none;fill-opacity:1;stroke:#ff0000;stroke-width:0.215434;stroke-miterlimit:4;stroke-dasharray:none;stroke-opacity:1" /><circle
       style="fill:none;fill-opacity:1;stroke:#ff0000;stroke-width:0.215434;stroke-miterlimit:4;stroke-dasharray:none;stroke-opacity:1"
       id="circle2454"
       cx="271.9845"
       cy="-221.13297"
       transform="scale(1,-1)"
       r="8.1319838" /><circle
       r="8.1319838"
       transform="scale(1,-1)"
       cy="-221.13297"
       cx="294.66119"
       id="circle2456"
       style="fill:none;fill-opacity:1;stroke:#ff0000;stroke-width:0.215434;stroke-miterlimit:4;stroke-dasharray:none;stroke-opacity:1" /><circle
       style="fill:none;fill-opacity:1;stroke:#ff0000;stroke-width:0.215434;stroke-miterlimit:4;stroke-dasharray:none;stroke-opacity:1"
       id="circle2458"
       cx="317.33844"
       cy="-221.13297"
       transform="scale(1,-1)"
       r="8.1319838" /><circle
       r="8.1319838"
       transform="scale(1,-1)"
       cy="-221.13297"
       cx="340.01575"
       id="circle2460"
       style="fill:none;fill-opacity:1;stroke:#ff0000;stroke-width:0.215434;stroke-miterlimit:4;stroke-dasharray:none;stroke-opacity:1" /><circle
       r="8.1319838"
       transform="scale(1,-1)"
       cy="-221.13297"
       cx="362.69293"
       id="circle2462"
       style="fill:none;fill-opacity:1;stroke:#ff0000;stroke-width:0.215434;stroke-miterlimit:4;stroke-dasharray:none;stroke-opacity:1" /><circle
       style="fill:none;fill-opacity:1;stroke:#ff0000;stroke-width:0.215434;stroke-miterlimit:4;stroke-dasharray:none;stroke-opacity:1"
       id="circle2464"
       cx="385.37015"
       cy="-221.13297"
       transform="scale(1,-1)"
       r="8.1319838" /><circle
       r="8.1319838"
       transform="scale(1,-1)"
       cy="-221.13297"
       cx="408.04745"
       id="circle2466"
       style="fill:none;fill-opacity:1;stroke:#ff0000;stroke-width:0.215434;stroke-miterlimit:4;stroke-dasharray:none;stroke-opacity:1" /><circle
       style="fill:none;fill-opacity:1;stroke:#00ffff;stroke-width:0.215434;stroke-miterlimit:4;stroke-dasharray:none;stroke-opacity:1"
       id="circle2468"
       cx="430.72415"
       cy="-221.13297"
       transform="scale(1,-1)"
       r="8.1319838" /><circle
       r="8.1319838"
       transform="scale(1,-1)"
       cy="-198.45627"
       cx="203.95282"
       id="circle2474"
       style="fill:none;fill-opacity:1;stroke:#ff0000;stroke-width:0.215434;stroke-miterlimit:4;stroke-dasharray:none;stroke-opacity:1" /><circle
       r="8.1319838"
       transform="scale(1,-1)"
       cy="-198.45627"
       cx="226.63"
       id="circle2476"
       style="fill:none;fill-opacity:1;stroke:#ff0000;stroke-width:0.215434;stroke-miterlimit:4;stroke-dasharray:none;stroke-opacity:1" /><circle
       style="fill:none;fill-opacity:1;stroke:#ff0000;stroke-width:0.215434;stroke-miterlimit:4;stroke-dasharray:none;stroke-opacity:1"
       id="circle2478"
       cx="249.30722"
       cy="-198.45627"
       transform="scale(1,-1)"
       r="8.1319838" /><circle
       r="8.1319838"
       transform="scale(1,-1)"
       cy="-198.45627"
       cx="271.9845"
       id="circle2480"
       style="fill:none;fill-opacity:1;stroke:#ff0000;stroke-width:0.215434;stroke-miterlimit:4;stroke-dasharray:none;stroke-opacity:1" /><circle
       style="fill:none;fill-opacity:1;stroke:#ff0000;stroke-width:0.215434;stroke-miterlimit:4;stroke-dasharray:none;stroke-opacity:1"
       id="circle2482"
       cx="294.66119"
       cy="-198.45627"
       transform="scale(1,-1)"
       r="8.1319838" /><circle
       r="8.1319838"
       transform="scale(1,-1)"
       cy="-198.45627"
       cx="317.33844"
       id="circle2484"
       style="fill:none;fill-opacity:1;stroke:#ff0000;stroke-width:0.215434;stroke-miterlimit:4;stroke-dasharray:none;stroke-opacity:1" /><circle
       style="fill:none;fill-opacity:1;stroke:#ff0000;stroke-width:0.215434;stroke-miterlimit:4;stroke-dasharray:none;stroke-opacity:1"
       id="circle2486"
       cx="340.01575"
       cy="-198.45627"
       transform="scale(1,-1)"
       r="8.1319838" /><circle
       style="fill:none;fill-opacity:1;stroke:#ff0000;stroke-width:0.215434;stroke-miterlimit:4;stroke-dasharray:none;stroke-opacity:1"
       id="circle2488"
       cx="362.69293"
       cy="-198.45627"
       transform="scale(1,-1)"
       r="8.1319838" /><circle
       r="8.1319838"
       transform="scale(1,-1)"
       cy="-198.45627"
       cx="385.37015"
       id="circle2490"
       style="fill:none;fill-opacity:1;stroke:#ff0000;stroke-width:0.215434;stroke-miterlimit:4;stroke-dasharray:none;stroke-opacity:1" /><circle
       style="fill:none;fill-opacity:1;stroke:#ff0000;stroke-width:0.215434;stroke-miterlimit:4;stroke-dasharray:none;stroke-opacity:1"
       id="circle2492"
       cx="408.04745"
       cy="-198.45627"
       transform="scale(1,-1)"
       r="8.1319838" /><circle
       r="8.1319838"
       transform="scale(1,-1)"
       cy="-198.45627"
       cx="430.72415"
       id="circle2494"
       style="fill:none;fill-opacity:1;stroke:#00ffff;stroke-width:0.215434;stroke-miterlimit:4;stroke-dasharray:none;stroke-opacity:1" /><circle
       style="fill:none;fill-opacity:1;stroke:#00ffff;stroke-width:0.215434;stroke-miterlimit:4;stroke-dasharray:none;stroke-opacity:1"
       id="circle2472"
       cx="181.27551"
       cy="-198.45627"
       transform="scale(1,-1)"
       r="8.1319838" /><circle
       r="8.1319838"
       transform="scale(1,-1)"
       cy="-175.77896"
       cx="181.27551"
       id="circle2498"
       style="fill:none;fill-opacity:1;stroke:#00ffff;stroke-width:0.215434;stroke-miterlimit:4;stroke-dasharray:none;stroke-opacity:1" /><circle
       style="fill:none;fill-opacity:1;stroke:#00ffff;stroke-width:0.215434;stroke-miterlimit:4;stroke-dasharray:none;stroke-opacity:1"
       id="circle2500"
       cx="203.95282"
       cy="-175.77896"
       transform="scale(1,-1)"
       r="8.1319838" /><circle
       style="fill:none;fill-opacity:1;stroke:#00ffff;stroke-width:0.215434;stroke-miterlimit:4;stroke-dasharray:none;stroke-opacity:1"
       id="circle2502"
       cx="226.63"
       cy="-175.77896"
       transform="scale(1,-1)"
       r="8.1319838" /><circle
       r="8.1319838"
       transform="scale(1,-1)"
       cy="-175.77896"
       cx="249.30722"
       id="circle2504"
       style="fill:none;fill-opacity:1;stroke:#00ffff;stroke-width:0.215434;stroke-miterlimit:4;stroke-dasharray:none;stroke-opacity:1" /><circle
       style="fill:none;fill-opacity:1;stroke:#00ffff;stroke-width:0.215434;stroke-miterlimit:4;stroke-dasharray:none;stroke-opacity:1"
       id="circle2506"
       cx="271.9845"
       cy="-175.77896"
       transform="scale(1,-1)"
       r="8.1319838" /><circle
       r="8.1319838"
       transform="scale(1,-1)"
       cy="-175.77896"
       cx="294.66119"
       id="circle2508"
       style="fill:none;fill-opacity:1;stroke:#00ffff;stroke-width:0.215434;stroke-miterlimit:4;stroke-dasharray:none;stroke-opacity:1" /><circle
       style="fill:none;fill-opacity:1;stroke:#00ffff;stroke-width:0.215434;stroke-miterlimit:4;stroke-dasharray:none;stroke-opacity:1"
       id="circle2510"
       cx="317.33844"
       cy="-175.77896"
       transform="scale(1,-1)"
       r="8.1319838" /><circle
       r="8.1319838"
       transform="scale(1,-1)"
       cy="-175.77896"
       cx="340.01575"
       id="circle2512"
       style="fill:none;fill-opacity:1;stroke:#00ffff;stroke-width:0.215434;stroke-miterlimit:4;stroke-dasharray:none;stroke-opacity:1" /><circle
       r="8.1319838"
       transform="scale(1,-1)"
       cy="-175.77896"
       cx="362.69293"
       id="circle2514"
       style="fill:none;fill-opacity:1;stroke:#00ffff;stroke-width:0.215434;stroke-miterlimit:4;stroke-dasharray:none;stroke-opacity:1" /><circle
       style="fill:none;fill-opacity:1;stroke:#00ffff;stroke-width:0.215434;stroke-miterlimit:4;stroke-dasharray:none;stroke-opacity:1"
       id="circle2516"
       cx="385.37015"
       cy="-175.77896"
       transform="scale(1,-1)"
       r="8.1319838" /><circle
       r="8.1319838"
       transform="scale(1,-1)"
       cy="-175.77896"
       cx="408.04745"
       id="circle2518"
       style="fill:none;fill-opacity:1;stroke:#00ffff;stroke-width:0.215434;stroke-miterlimit:4;stroke-dasharray:none;stroke-opacity:1" /><circle
       style="fill:none;fill-opacity:1;stroke:#00ffff;stroke-width:0.215434;stroke-miterlimit:4;stroke-dasharray:none;stroke-opacity:1"
       id="circle2520"
       cx="430.72415"
       cy="-175.77896"
       transform="scale(1,-1)"
       r="8.1319838" /><path
       style="fill:none;stroke:#00ffff;stroke-width:0.215434;stroke-linecap:butt;stroke-linejoin:miter;stroke-miterlimit:4;stroke-dasharray:none;stroke-opacity:1"
       d="M 169.9371,187.11756 H 441.96211"
       id="path2543" /><path
       id="path2547"
       d="M 169.9371,209.79461 H 441.96211"
       style="fill:none;stroke:#00ffff;stroke-width:0.215434;stroke-linecap:butt;stroke-linejoin:miter;stroke-miterlimit:4;stroke-dasharray:none;stroke-opacity:1" /><path
       style="fill:none;stroke:#00ffff;stroke-width:0.215434;stroke-linecap:butt;stroke-linejoin:miter;stroke-miterlimit:4;stroke-dasharray:none;stroke-opacity:1"
       d="M 169.9371,232.4717 H 441.96211"
       id="path2549" /><path
       id="path2709"
       d="m 169.90521,164.37644 h 136.0875"
       style="fill:none;stroke:#00ffff;stroke-width:0.215434;stroke-linecap:butt;stroke-linejoin:miter;stroke-miterlimit:4;stroke-dasharray:none;stroke-opacity:1" /><path
       id="path2779"
       d="m 192.61442,255.12587 v -90.75"
       style="fill:none;stroke:#00ffff;stroke-width:0.215434;stroke-linecap:butt;stroke-linejoin:miter;stroke-miterlimit:4;stroke-dasharray:none;stroke-opacity:1" /><path
       style="fill:none;fill-opacity:1;stroke:#00ffff;stroke-width:0.215434;stroke-linecap:butt;stroke-linejoin:miter;stroke-miterlimit:4;stroke-dasharray:none;stroke-opacity:1"
       d="m 215.29162,255.12587 v -90.75"
       id="path2781" /><path
       id="path2783"
       d="m 237.96876,255.12587 v -90.75"
       style="fill:none;stroke:#00ffff;stroke-width:0.215434;stroke-linecap:butt;stroke-linejoin:miter;stroke-miterlimit:4;stroke-dasharray:none;stroke-opacity:1" /><path
       style="fill:none;stroke:#00ffff;stroke-width:0.215434;stroke-linecap:butt;stroke-linejoin:miter;stroke-miterlimit:4;stroke-dasharray:none;stroke-opacity:1"
       d="m 260.64596,255.12587 v -90.75"
       id="path2785" /><path
       id="path2787"
       d="m 283.32289,255.12587 v -90.75"
       style="fill:none;stroke:#00ffff;stroke-width:0.215434;stroke-linecap:butt;stroke-linejoin:miter;stroke-miterlimit:4;stroke-dasharray:none;stroke-opacity:1" /><path
       style="fill:none;stroke:#00ffff;stroke-width:0.215434;stroke-linecap:butt;stroke-linejoin:miter;stroke-miterlimit:4;stroke-dasharray:none;stroke-opacity:1"
       d="m 305.99981,255.12587 v -90.75"
       id="path2789" /><path
       id="path2791"
       d="m 328.67704,255.12587 v -90.75"
       style="fill:none;stroke:#00ffff;stroke-width:0.215434;stroke-linecap:butt;stroke-linejoin:miter;stroke-miterlimit:4;stroke-dasharray:none;stroke-opacity:1" /><path
       style="fill:none;stroke:#00ffff;stroke-width:0.215434;stroke-linecap:butt;stroke-linejoin:miter;stroke-miterlimit:4;stroke-dasharray:none;stroke-opacity:1"
       d="m 351.35422,255.12587 v -90.75"
       id="path2793" /><path
       id="path2795"
       d="m 374.03138,255.12587 v -90.75"
       style="fill:none;stroke:#00ffff;stroke-width:0.215434;stroke-linecap:butt;stroke-linejoin:miter;stroke-miterlimit:4;stroke-dasharray:none;stroke-opacity:1" /><path
       style="fill:none;stroke:#00ffff;stroke-width:0.215434;stroke-linecap:butt;stroke-linejoin:miter;stroke-miterlimit:4;stroke-dasharray:none;stroke-opacity:1"
       d="m 396.70858,255.12587 v -90.75"
       id="path2797" /><path
       id="path2799"
       d="m 419.38554,255.12587 v -90.75"
       style="fill:none;stroke:#00ffff;stroke-width:0.215434;stroke-linecap:butt;stroke-linejoin:miter;stroke-miterlimit:4;stroke-dasharray:none;stroke-opacity:1" /><circle
       style="fill:none;fill-opacity:1;stroke:#00ffff;stroke-width:0.215434;stroke-miterlimit:4;stroke-dasharray:none;stroke-opacity:1"
       id="path2073"
       cx="181.27551"
       cy="-243.81033"
       transform="scale(1,-1)"
       r="8.1319838" /><g
       id="g3686"
       transform="matrix(0.40716182,0,0,-0.47521863,43.20372,-35.16891)"
       style="fill:none;stroke:#0034ff;stroke-width:0.48976;stroke-linecap:round;stroke-linejoin:round;stroke-miterlimit:4;stroke-dasharray:none;stroke-opacity:1"
       inkscape:label="Hershey Text"><g
         id="g3684"
         transform="translate(326.503,-389.211)"
         style="fill:none;stroke:#0034ff;stroke-width:0.48976;stroke-miterlimit:4;stroke-dasharray:none;stroke-opacity:1"><path
           id="path3654"
           transform="scale(0.03,-0.03)"
           style="fill:none;stroke:#0034ff;stroke-width:16.3253;stroke-miterlimit:4;stroke-dasharray:none;stroke-opacity:1"
           d="M 129,28.4 V 646 h 183 l 53,-3 54,-22 44,-41 13,-48 V 476 L 454,425 406,391 365,372 309,362 H 135 312 l 53,-9 63,-16 51,-35 28,-31 10,-44 V 164 L 491,104 447,66.1 369,34.6 312,28.4 H 135" /><path
           id="path3656"
           transform="matrix(0.03,0,0,-0.03,18.06,0)"
           style="fill:none;stroke:#0034ff;stroke-width:16.3253;stroke-miterlimit:4;stroke-dasharray:none;stroke-opacity:1"
           d="M 129,18.9 V 649 h 211 l 51,-16 56,-28 41,-63 v -54 l -9,-60 -38,-53 -47,-29 -76,-18 H 132 312 L 495,18.9" /><path
           id="path3658"
           transform="matrix(0.03,0,0,-0.03,35.46,0)"
           style="fill:none;stroke:#0034ff;stroke-width:16.3253;stroke-miterlimit:4;stroke-dasharray:none;stroke-opacity:1"
           d="m 334,22.1 82,12.5 82,53.6 56,84.8 29,111 v 103 l -16,85 -31,70 -51,66 -69,41 -70,13 -59,-10 -67,-25 -62,-54 -48,-91 -15.5,-72 -3.1,-108 12.6,-82 31,-75 45,-59.9 50,-41 54,-18.9 50,-3.1" /><path
           id="path3660"
           transform="matrix(0.03,0,0,-0.03,55.77,0)"
           style="fill:none;stroke:#0034ff;stroke-width:16.3253;stroke-miterlimit:4;stroke-dasharray:none;stroke-opacity:1"
           d="M 66.1,655 214,18.9 227,22.1 391,652 h 12 L 570,18.9 h 13 L 724,655" /><path
           id="path3662"
           transform="matrix(0.03,0,0,-0.03,79.5,0)"
           style="fill:none;stroke:#0034ff;stroke-width:16.3253;stroke-miterlimit:4;stroke-dasharray:none;stroke-opacity:1"
           d="M 126,22.1 V 649 h 22 L 523,22.1 V 652" /><path
           id="path3664"
           transform="matrix(0.03,0,0,-0.03,110.49,0)"
           style="fill:none;stroke:#0034ff;stroke-width:16.3253;stroke-miterlimit:4;stroke-dasharray:none;stroke-opacity:1"
           d="M 132,31.5 V 646 h 177 l 72,-19 54,-29 37,-37 45,-73 15,-82 v -50 l -3,-66 -9,-76 -25,-53 -45,-66.5 -69,-40.9 -66,-19 -50,-3.1 H 135" /><path
           id="path3666"
           transform="matrix(0.03,0,0,-0.03,129.3,0)"
           style="fill:none;stroke:#0034ff;stroke-width:16.3253;stroke-miterlimit:4;stroke-dasharray:none;stroke-opacity:1"
           d="m 334,22.1 82,12.5 82,53.6 56,84.8 29,111 v 103 l -16,85 -31,70 -51,66 -69,41 -70,13 -59,-10 -67,-25 -62,-54 -48,-91 -15.5,-72 -3.1,-108 12.6,-82 31,-75 45,-59.9 50,-41 54,-18.9 50,-3.1" /><path
           id="path3668"
           transform="matrix(0.03,0,0,-0.03,149.61,0)"
           style="fill:none;stroke:#0034ff;stroke-width:16.3253;stroke-miterlimit:4;stroke-dasharray:none;stroke-opacity:1"
           d="M 346,315 H 520 V 81.9 L 479,53.6 391,22.1 328,18.9 265,31.5 208,63 l -66,76 -44.4,94 -9.4,110 12.8,107 41,95 66,72 66,32 76,13 82,-13 50,-28 35,-29" /><path
           id="path3670"
           transform="matrix(0.03,0,0,-0.03,179.67,0)"
           style="fill:none;stroke:#0034ff;stroke-width:16.3253;stroke-miterlimit:4;stroke-dasharray:none;stroke-opacity:1"
           d="M 346,315 H 520 V 81.9 L 479,53.6 391,22.1 328,18.9 265,31.5 208,63 l -66,76 -44.4,94 -9.4,110 12.8,107 41,95 66,72 66,32 76,13 82,-13 50,-28 35,-29" /><path
           id="path3672"
           transform="matrix(0.03,0,0,-0.03,198.39,0)"
           style="fill:none;stroke:#0034ff;stroke-width:16.3253;stroke-miterlimit:4;stroke-dasharray:none;stroke-opacity:1"
           d="M 41,15.8 277,662 416,255 H 132 416 L 501,15.8" /><path
           id="path3674"
           transform="matrix(0.03,0,0,-0.03,214.83,0)"
           style="fill:none;stroke:#0034ff;stroke-width:16.3253;stroke-miterlimit:4;stroke-dasharray:none;stroke-opacity:1"
           d="M 132,31.5 V 646 h 177 l 72,-19 54,-29 37,-37 45,-73 15,-82 v -50 l -3,-66 -9,-76 -25,-53 -45,-66.5 -69,-40.9 -66,-19 -50,-3.1 H 135" /><path
           id="path3676"
           transform="matrix(0.03,0,0,-0.03,233.64,0)"
           style="fill:none;stroke:#0034ff;stroke-width:16.3253;stroke-miterlimit:4;stroke-dasharray:none;stroke-opacity:1"
           d="M 346,315 H 520 V 81.9 L 479,53.6 391,22.1 328,18.9 265,31.5 208,63 l -66,76 -44.4,94 -9.4,110 12.8,107 41,95 66,72 66,32 76,13 82,-13 50,-28 35,-29" /><path
           id="path3678"
           transform="matrix(0.03,0,0,-0.03,252.36,0)"
           style="fill:none;stroke:#0034ff;stroke-width:16.3253;stroke-miterlimit:4;stroke-dasharray:none;stroke-opacity:1"
           d="M 466,31.5 H 132 V 356 H 410 132 v 287 h 322" /><path
           id="path3680"
           transform="matrix(0.03,0,0,-0.03,268.53,0)"
           style="fill:none;stroke:#0034ff;stroke-width:16.3253;stroke-miterlimit:4;stroke-dasharray:none;stroke-opacity:1"
           d="M 274,22.1 V 649 H 56.7 495" /><path
           id="path3682"
           transform="matrix(0.03,0,0,-0.03,284.97,0)"
           style="fill:none;stroke:#0034ff;stroke-width:16.3253;stroke-miterlimit:4;stroke-dasharray:none;stroke-opacity:1"
           d="m 78.8,107 53.2,-44 51,-25.2 63,-12.6 72,-3.1 79,31.5 53,47.4 19,63 -3,56 -34,57 -73,47 -129,57 -72,47 -38,51 -3,63 25,66 72,44 70,10 66,-7 50,-25 47,-35" /></g></g></g></svg>
