<?xml version="1.0" encoding="UTF-8" standalone="no"?>
<svg
   xmlns:dc="http://purl.org/dc/elements/1.1/"
   xmlns:cc="http://creativecommons.org/ns#"
   xmlns:rdf="http://www.w3.org/1999/02/22-rdf-syntax-ns#"
   xmlns:svg="http://www.w3.org/2000/svg"
   xmlns="http://www.w3.org/2000/svg"
   xmlns:sodipodi="http://sodipodi.sourceforge.net/DTD/sodipodi-0.dtd"
   xmlns:inkscape="http://www.inkscape.org/namespaces/inkscape"
   version="1.1"
   id="svg10"
   xml:space="preserve"
   width="8.5in"
   height="11in"
   viewBox="0 0 816 1056"
   sodipodi:docname="BDG Stud Stencil Laser Small.svg"
   inkscape:version="1.0 (4035a4f, 2020-05-01)"><metadata
     id="metadata16"><rdf:RDF><cc:Work
         rdf:about=""><dc:format>image/svg+xml</dc:format><dc:type
           rdf:resource="http://purl.org/dc/dcmitype/StillImage" /><dc:title /></cc:Work></rdf:RDF></metadata><defs
     id="defs14"><clipPath
       clipPathUnits="userSpaceOnUse"
       id="clipPath26"><path
         d="M 0,595.276 H 841.89 V 0 H 0 Z"
         id="path24" /></clipPath><clipPath
       clipPathUnits="userSpaceOnUse"
       id="clipPath152"><path
         d="M 284.457,462.472 H 557.433 V 370.913 H 284.457 Z"
         id="path150" /></clipPath><clipPath
       clipPathUnits="userSpaceOnUse"
       id="clipPath366"><path
         d="M 284.457,343.417 H 557.433 V 251.858 H 284.457 Z"
         id="path364" /></clipPath><clipPath
       clipPathUnits="userSpaceOnUse"
       id="clipPath580"><path
         d="M 284.457,224.362 H 557.433 V 132.803 H 284.457 Z"
         id="path578" /></clipPath></defs><sodipodi:namedview
     inkscape:document-rotation="0"
     pagecolor="#ffffff"
     bordercolor="#666666"
     borderopacity="1"
     objecttolerance="10"
     gridtolerance="10"
     guidetolerance="10"
     inkscape:pageopacity="0"
     inkscape:pageshadow="2"
     inkscape:window-width="2515"
     inkscape:window-height="1395"
     id="namedview12"
     showgrid="false"
     inkscape:zoom="1.2482922"
     inkscape:cx="319.32087"
     inkscape:cy="530.93993"
     inkscape:window-x="2569"
     inkscape:window-y="23"
     inkscape:window-maximized="0"
     inkscape:current-layer="g18"
     units="in"
     inkscape:document-units="mm" /><g
     style="display:inline"
     id="g18"
     inkscape:groupmode="layer"
     inkscape:label="Layer 1"
     transform="matrix(1.33333,0,0,-1.33333,0,793.701)"><circle
       style="fill:none;fill-opacity:1;stroke:#00ffff;stroke-width:0.215434;stroke-miterlimit:4;stroke-dasharray:none;stroke-opacity:1"
       id="circle2075"
       cx="203.95282"
       cy="-243.81033"
       transform="scale(1,-1)"
       r="8.1319838" /><circle
       style="fill:none;fill-opacity:1;stroke:#00ffff;stroke-width:0.215434;stroke-miterlimit:4;stroke-dasharray:none;stroke-opacity:1"
       id="circle2077"
       cx="226.63"
       cy="-243.81033"
       transform="scale(1,-1)"
       r="8.1319838" /><circle
       r="8.1319838"
       transform="scale(1,-1)"
       cy="-243.81033"
       cx="249.30722"
       id="circle2081"
       style="fill:none;fill-opacity:1;stroke:#00ffff;stroke-width:0.215434;stroke-miterlimit:4;stroke-dasharray:none;stroke-opacity:1" /><circle
       style="fill:none;fill-opacity:1;stroke:#00ffff;stroke-width:0.215434;stroke-miterlimit:4;stroke-dasharray:none;stroke-opacity:1"
       id="circle2083"
       cx="271.9845"
       cy="-243.81033"
       transform="scale(1,-1)"
       r="8.1319838" /><circle
       r="8.1319838"
       transform="scale(1,-1)"
       cy="-243.81033"
       cx="294.66119"
       id="circle2085"
       style="fill:none;fill-opacity:1;stroke:#00ffff;stroke-width:0.215434;stroke-miterlimit:4;stroke-dasharray:none;stroke-opacity:1" /><circle
       style="fill:none;fill-opacity:1;stroke:#00ffff;stroke-width:0.215434;stroke-miterlimit:4;stroke-dasharray:none;stroke-opacity:1"
       id="circle2446"
       cx="181.27551"
       cy="-221.13297"
       transform="scale(1,-1)"
       r="8.1319838" /><circle
       r="8.1319838"
       transform="scale(1,-1)"
       cy="-221.13297"
       cx="203.95282"
       id="circle2448"
       style="fill:none;fill-opacity:1;stroke:#ff0000;stroke-width:0.215434;stroke-miterlimit:4;stroke-dasharray:none;stroke-opacity:1" /><circle
       r="8.1319838"
       transform="scale(1,-1)"
       cy="-221.13297"
       cx="226.63"
       id="circle2450"
       style="fill:none;fill-opacity:1;stroke:#ff0000;stroke-width:0.215434;stroke-miterlimit:4;stroke-dasharray:none;stroke-opacity:1" /><circle
       style="fill:none;fill-opacity:1;stroke:#ff0000;stroke-width:0.215434;stroke-miterlimit:4;stroke-dasharray:none;stroke-opacity:1"
       id="circle2452"
       cx="249.30722"
       cy="-221.13297"
       transform="scale(1,-1)"
       r="8.1319838" /><circle
       r="8.1319838"
       transform="scale(1,-1)"
       cy="-221.13297"
       cx="271.9845"
       id="circle2454"
       style="fill:none;fill-opacity:1;stroke:#ff0000;stroke-width:0.215434;stroke-miterlimit:4;stroke-dasharray:none;stroke-opacity:1" /><circle
       style="fill:none;fill-opacity:1;stroke:#ff0000;stroke-width:0.215434;stroke-miterlimit:4;stroke-dasharray:none;stroke-opacity:1"
       id="circle2474"
       cx="203.95282"
       cy="-198.45627"
       transform="scale(1,-1)"
       r="8.1319838" /><circle
       style="fill:none;fill-opacity:1;stroke:#ff0000;stroke-width:0.215434;stroke-miterlimit:4;stroke-dasharray:none;stroke-opacity:1"
       id="circle2476"
       cx="226.63"
       cy="-198.45627"
       transform="scale(1,-1)"
       r="8.1319838" /><circle
       r="8.1319838"
       transform="scale(1,-1)"
       cy="-198.45627"
       cx="249.30722"
       id="circle2478"
       style="fill:none;fill-opacity:1;stroke:#ff0000;stroke-width:0.215434;stroke-miterlimit:4;stroke-dasharray:none;stroke-opacity:1" /><circle
       style="fill:none;fill-opacity:1;stroke:#ff0000;stroke-width:0.215434;stroke-miterlimit:4;stroke-dasharray:none;stroke-opacity:1"
       id="circle2480"
       cx="271.9845"
       cy="-198.45627"
       transform="scale(1,-1)"
       r="8.1319838" /><circle
       r="8.1319838"
       transform="scale(1,-1)"
       cy="-198.45627"
       cx="181.27551"
       id="circle2472"
       style="fill:none;fill-opacity:1;stroke:#00ffff;stroke-width:0.215434;stroke-miterlimit:4;stroke-dasharray:none;stroke-opacity:1" /><circle
       style="fill:none;fill-opacity:1;stroke:#00ffff;stroke-width:0.215434;stroke-miterlimit:4;stroke-dasharray:none;stroke-opacity:1"
       id="circle2498"
       cx="181.27551"
       cy="-175.77896"
       transform="scale(1,-1)"
       r="8.1319838" /><circle
       r="8.1319838"
       transform="scale(1,-1)"
       cy="-175.77896"
       cx="203.95282"
       id="circle2500"
       style="fill:none;fill-opacity:1;stroke:#00ffff;stroke-width:0.215434;stroke-miterlimit:4;stroke-dasharray:none;stroke-opacity:1" /><circle
       r="8.1319838"
       transform="scale(1,-1)"
       cy="-175.77896"
       cx="226.63"
       id="circle2502"
       style="fill:none;fill-opacity:1;stroke:#00ffff;stroke-width:0.215434;stroke-miterlimit:4;stroke-dasharray:none;stroke-opacity:1" /><circle
       style="fill:none;fill-opacity:1;stroke:#00ffff;stroke-width:0.215434;stroke-miterlimit:4;stroke-dasharray:none;stroke-opacity:1"
       id="circle2504"
       cx="249.30722"
       cy="-175.77896"
       transform="scale(1,-1)"
       r="8.1319838" /><circle
       r="8.1319838"
       transform="scale(1,-1)"
       cy="-175.77896"
       cx="271.9845"
       id="circle2506"
       style="fill:none;fill-opacity:1;stroke:#00ffff;stroke-width:0.215434;stroke-miterlimit:4;stroke-dasharray:none;stroke-opacity:1" /><circle
       style="fill:none;fill-opacity:1;stroke:#00ffff;stroke-width:0.215434;stroke-miterlimit:4;stroke-dasharray:none;stroke-opacity:1"
       id="circle2508"
       cx="294.66119"
       cy="-175.77896"
       transform="scale(1,-1)"
       r="8.1319838" /><path
       id="path2543"
       d="M 169.84734,187.08616 H 306.19697"
       style="fill:none;stroke:#00ffff;stroke-width:0.152629;stroke-linecap:butt;stroke-linejoin:miter;stroke-miterlimit:4;stroke-dasharray:none;stroke-opacity:1" /><path
       style="fill:none;stroke:#00ffff;stroke-width:0.152629;stroke-linecap:butt;stroke-linejoin:miter;stroke-miterlimit:4;stroke-dasharray:none;stroke-opacity:1"
       d="M 169.84734,209.79461 H 306.19697"
       id="path2547" /><path
       id="path2549"
       d="M 169.84734,232.5031 H 306.19697"
       style="fill:none;stroke:#00ffff;stroke-width:0.152629;stroke-linecap:butt;stroke-linejoin:miter;stroke-miterlimit:4;stroke-dasharray:none;stroke-opacity:1" /><path
       style="fill:none;stroke:#00ffff;stroke-width:0.215434;stroke-linecap:butt;stroke-linejoin:miter;stroke-miterlimit:4;stroke-dasharray:none;stroke-opacity:1"
       d="m 169.81545,164.37644 h 136.0875"
       id="path2709" /><path
       style="fill:none;stroke:#00ffff;stroke-width:0.215434;stroke-linecap:butt;stroke-linejoin:miter;stroke-miterlimit:4;stroke-dasharray:none;stroke-opacity:1"
       d="m 192.61442,255.12587 v -90.75"
       id="path2779" /><path
       id="path2781"
       d="m 215.29162,255.12587 v -90.75"
       style="fill:none;fill-opacity:1;stroke:#00ffff;stroke-width:0.215434;stroke-linecap:butt;stroke-linejoin:miter;stroke-miterlimit:4;stroke-dasharray:none;stroke-opacity:1" /><path
       style="fill:none;stroke:#00ffff;stroke-width:0.215434;stroke-linecap:butt;stroke-linejoin:miter;stroke-miterlimit:4;stroke-dasharray:none;stroke-opacity:1"
       d="m 237.96876,255.12587 v -90.75"
       id="path2783" /><path
       id="path2785"
       d="m 260.64596,255.12587 v -90.75"
       style="fill:none;stroke:#00ffff;stroke-width:0.215434;stroke-linecap:butt;stroke-linejoin:miter;stroke-miterlimit:4;stroke-dasharray:none;stroke-opacity:1" /><path
       style="fill:none;stroke:#00ffff;stroke-width:0.215434;stroke-linecap:butt;stroke-linejoin:miter;stroke-miterlimit:4;stroke-dasharray:none;stroke-opacity:1"
       d="m 283.32289,255.12587 v -90.75"
       id="path2787" /><circle
       r="8.1319838"
       transform="scale(1,-1)"
       cy="-243.81033"
       cx="181.27551"
       id="path2073"
       style="fill:none;fill-opacity:1;stroke:#00ffff;stroke-width:0.215434;stroke-miterlimit:4;stroke-dasharray:none;stroke-opacity:1" /><g
       inkscape:label="Hershey Text"
       style="fill:none;stroke:#0034ff;stroke-width:0.48976;stroke-linecap:round;stroke-linejoin:round;stroke-miterlimit:4;stroke-dasharray:none;stroke-opacity:1"
       transform="matrix(0.40716182,0,0,-0.47521863,43.20372,-35.16891)"
       id="g3686"><g
         style="fill:none;stroke:#0034ff;stroke-width:0.48976;stroke-miterlimit:4;stroke-dasharray:none;stroke-opacity:1"
         transform="translate(326.503,-389.211)"
         id="g3684"><path
           d="M 129,28.4 V 646 h 183 l 53,-3 54,-22 44,-41 13,-48 V 476 L 454,425 406,391 365,372 309,362 H 135 312 l 53,-9 63,-16 51,-35 28,-31 10,-44 V 164 L 491,104 447,66.1 369,34.6 312,28.4 H 135"
           style="fill:none;stroke:#0034ff;stroke-width:16.3253;stroke-miterlimit:4;stroke-dasharray:none;stroke-opacity:1"
           transform="scale(0.03,-0.03)"
           id="path3654" /><path
           d="M 129,18.9 V 649 h 211 l 51,-16 56,-28 41,-63 v -54 l -9,-60 -38,-53 -47,-29 -76,-18 H 132 312 L 495,18.9"
           style="fill:none;stroke:#0034ff;stroke-width:16.3253;stroke-miterlimit:4;stroke-dasharray:none;stroke-opacity:1"
           transform="matrix(0.03,0,0,-0.03,18.06,0)"
           id="path3656" /><path
           d="m 334,22.1 82,12.5 82,53.6 56,84.8 29,111 v 103 l -16,85 -31,70 -51,66 -69,41 -70,13 -59,-10 -67,-25 -62,-54 -48,-91 -15.5,-72 -3.1,-108 12.6,-82 31,-75 45,-59.9 50,-41 54,-18.9 50,-3.1"
           style="fill:none;stroke:#0034ff;stroke-width:16.3253;stroke-miterlimit:4;stroke-dasharray:none;stroke-opacity:1"
           transform="matrix(0.03,0,0,-0.03,35.46,0)"
           id="path3658" /><path
           d="M 66.1,655 214,18.9 227,22.1 391,652 h 12 L 570,18.9 h 13 L 724,655"
           style="fill:none;stroke:#0034ff;stroke-width:16.3253;stroke-miterlimit:4;stroke-dasharray:none;stroke-opacity:1"
           transform="matrix(0.03,0,0,-0.03,55.77,0)"
           id="path3660" /><path
           d="M 126,22.1 V 649 h 22 L 523,22.1 V 652"
           style="fill:none;stroke:#0034ff;stroke-width:16.3253;stroke-miterlimit:4;stroke-dasharray:none;stroke-opacity:1"
           transform="matrix(0.03,0,0,-0.03,79.5,0)"
           id="path3662" /><path
           d="M 132,31.5 V 646 h 177 l 72,-19 54,-29 37,-37 45,-73 15,-82 v -50 l -3,-66 -9,-76 -25,-53 -45,-66.5 -69,-40.9 -66,-19 -50,-3.1 H 135"
           style="fill:none;stroke:#0034ff;stroke-width:16.3253;stroke-miterlimit:4;stroke-dasharray:none;stroke-opacity:1"
           transform="matrix(0.03,0,0,-0.03,110.49,0)"
           id="path3664" /><path
           d="m 334,22.1 82,12.5 82,53.6 56,84.8 29,111 v 103 l -16,85 -31,70 -51,66 -69,41 -70,13 -59,-10 -67,-25 -62,-54 -48,-91 -15.5,-72 -3.1,-108 12.6,-82 31,-75 45,-59.9 50,-41 54,-18.9 50,-3.1"
           style="fill:none;stroke:#0034ff;stroke-width:16.3253;stroke-miterlimit:4;stroke-dasharray:none;stroke-opacity:1"
           transform="matrix(0.03,0,0,-0.03,129.3,0)"
           id="path3666" /><path
           d="M 346,315 H 520 V 81.9 L 479,53.6 391,22.1 328,18.9 265,31.5 208,63 l -66,76 -44.4,94 -9.4,110 12.8,107 41,95 66,72 66,32 76,13 82,-13 50,-28 35,-29"
           style="fill:none;stroke:#0034ff;stroke-width:16.3253;stroke-miterlimit:4;stroke-dasharray:none;stroke-opacity:1"
           transform="matrix(0.03,0,0,-0.03,149.61,0)"
           id="path3668" /><path
           d="M 346,315 H 520 V 81.9 L 479,53.6 391,22.1 328,18.9 265,31.5 208,63 l -66,76 -44.4,94 -9.4,110 12.8,107 41,95 66,72 66,32 76,13 82,-13 50,-28 35,-29"
           style="fill:none;stroke:#0034ff;stroke-width:16.3253;stroke-miterlimit:4;stroke-dasharray:none;stroke-opacity:1"
           transform="matrix(0.03,0,0,-0.03,179.67,0)"
           id="path3670" /><path
           d="M 41,15.8 277,662 416,255 H 132 416 L 501,15.8"
           style="fill:none;stroke:#0034ff;stroke-width:16.3253;stroke-miterlimit:4;stroke-dasharray:none;stroke-opacity:1"
           transform="matrix(0.03,0,0,-0.03,198.39,0)"
           id="path3672" /><path
           d="M 132,31.5 V 646 h 177 l 72,-19 54,-29 37,-37 45,-73 15,-82 v -50 l -3,-66 -9,-76 -25,-53 -45,-66.5 -69,-40.9 -66,-19 -50,-3.1 H 135"
           style="fill:none;stroke:#0034ff;stroke-width:16.3253;stroke-miterlimit:4;stroke-dasharray:none;stroke-opacity:1"
           transform="matrix(0.03,0,0,-0.03,214.83,0)"
           id="path3674" /><path
           d="M 346,315 H 520 V 81.9 L 479,53.6 391,22.1 328,18.9 265,31.5 208,63 l -66,76 -44.4,94 -9.4,110 12.8,107 41,95 66,72 66,32 76,13 82,-13 50,-28 35,-29"
           style="fill:none;stroke:#0034ff;stroke-width:16.3253;stroke-miterlimit:4;stroke-dasharray:none;stroke-opacity:1"
           transform="matrix(0.03,0,0,-0.03,233.64,0)"
           id="path3676" /><path
           d="M 466,31.5 H 132 V 356 H 410 132 v 287 h 322"
           style="fill:none;stroke:#0034ff;stroke-width:16.3253;stroke-miterlimit:4;stroke-dasharray:none;stroke-opacity:1"
           transform="matrix(0.03,0,0,-0.03,252.36,0)"
           id="path3678" /><path
           d="M 274,22.1 V 649 H 56.7 495"
           style="fill:none;stroke:#0034ff;stroke-width:16.3253;stroke-miterlimit:4;stroke-dasharray:none;stroke-opacity:1"
           transform="matrix(0.03,0,0,-0.03,268.53,0)"
           id="path3680" /><path
           d="m 78.8,107 53.2,-44 51,-25.2 63,-12.6 72,-3.1 79,31.5 53,47.4 19,63 -3,56 -34,57 -73,47 -129,57 -72,47 -38,51 -3,63 25,66 72,44 70,10 66,-7 50,-25 47,-35"
           style="fill:none;stroke:#0034ff;stroke-width:16.3253;stroke-miterlimit:4;stroke-dasharray:none;stroke-opacity:1"
           transform="matrix(0.03,0,0,-0.03,284.97,0)"
           id="path3682" /></g></g><path
       d="m 181.27633,255.14844 c -6.262,0 -11.33792,-5.07593 -11.33792,-11.33792 v -12.0264 -8.97365 -47.03186 -11.40237 -9.59768 c 0,-3.52764 1.61191,-6.67851 4.1382,-8.75832 1.90443,-1.6515 4.37434,-2.64189 7.14113,-2.61622 l 3.84522,0.0352 h 2.21485 101.4568 2.21485 l 3.84522,-0.0352 c 2.7668,-0.0256 5.2367,0.96472 7.14114,2.61622 2.52629,2.07981 4.13819,5.23068 4.13819,8.75832 v 9.59768 67.40788 12.0264 c 0,6.26199 -5.07592,11.33792 -11.33792,11.33792 h -14.67924 -84.10128 z"
       style="opacity:0.300003;fill:none;fill-opacity:0.380567;stroke:#000000;stroke-width:0.215434;stroke-linecap:butt;stroke-linejoin:miter;stroke-miterlimit:4;stroke-dasharray:none;stroke-opacity:0.882591"
       id="path928" /><circle
       r="8.1319838"
       transform="scale(1,-1)"
       cy="-198.45627"
       cx="294.66119"
       id="circle960"
       style="fill:none;fill-opacity:1;stroke:#00ffff;stroke-width:0.215434;stroke-miterlimit:4;stroke-dasharray:none;stroke-opacity:1" /><circle
       style="fill:none;fill-opacity:1;stroke:#00ffff;stroke-width:0.215434;stroke-miterlimit:4;stroke-dasharray:none;stroke-opacity:1"
       id="circle962"
       cx="294.66119"
       cy="-221.13297"
       transform="scale(1,-1)"
       r="8.1319838" /></g></svg>
