G04 This is an RS-274x file exported by *
G04 gerbv version 2.6.0 *
G04 More information is available about gerbv at *
G04 http://gerbv.gpleda.org/ *
G04 --End of header info--*
%MOIN*%
%FSLAX34Y34*%
%IPPOS*%
G04 --Define apertures--*
%ADD10C,0.0020*%
%ADD11C,0.0039*%
%ADD12C,0.0016*%
%ADD13C,0.0059*%
G04 --Start main section--*
G54D10*
G01X0011646Y-015508D02*
G01X0011646Y-014367D01*
G01X0012237Y-015508D02*
G01X0012237Y-014367D01*
G01X0011646Y-015508D02*
G01X0012237Y-015508D01*
G01X0011646Y-014367D02*
G01X0012237Y-014367D01*
G54D11*
G01X0014298Y-013481D02*
G01X0013550Y-012733D01*
G54D10*
G01X0010213Y-012290D02*
G01X0009071Y-012290D01*
G01X0009071Y-012880D02*
G01X0009071Y-012290D01*
G01X0010213Y-012880D02*
G01X0010213Y-012290D01*
G01X0010213Y-012880D02*
G01X0009071Y-012880D01*
G54D12*
G01X0010439Y-009504D02*
G75*
G03X0008904Y-011040I0000000J-001535D01*
G01X0008904Y-014111D02*
G75*
G03X0010439Y-015646I0001535J0000000D01*
G01X0016660Y-015646D02*
G75*
G03X0018195Y-014111I0000000J0001535D01*
G01X0018195Y-011040D02*
G75*
G03X0016660Y-009504I-001535J0000000D01*
G01X0008904Y-014111D02*
G01X0008904Y-011040D01*
G01X0018195Y-014111D02*
G01X0018195Y-011040D01*
G01X0016699Y-015646D02*
G01X0010439Y-015646D01*
G01X0016699Y-009504D02*
G01X0010439Y-009504D01*
G54D13*
G01X0010479Y-012615D02*
G01X0012093Y-011000D01*
G01X0012093Y-011000D02*
G01X0013274Y-012181D01*
G01X0013274Y-012181D02*
G01X0013274Y-012772D01*
G01X0013274Y-012772D02*
G01X0011857Y-014189D01*
G01X0011857Y-014189D02*
G01X0010361Y-012733D01*
G01X0010361Y-012733D02*
G01X0010479Y-012615D01*
G01X0011776Y-012988D02*
G01X0011644Y-013120D01*
G01X0011644Y-013120D02*
G01X0011366Y-012842D01*
G01X0011723Y-012749D02*
G01X0011816Y-012656D01*
G01X0012002Y-012762D02*
G01X0011869Y-012895D01*
G01X0011869Y-012895D02*
G01X0011591Y-012617D01*
G01X0011591Y-012617D02*
G01X0011723Y-012484D01*
G01X0012121Y-012643D02*
G01X0011843Y-012365D01*
G01X0011843Y-012365D02*
G01X0011909Y-012298D01*
G01X0011909Y-012298D02*
G01X0011962Y-012272D01*
G01X0011962Y-012272D02*
G01X0012015Y-012272D01*
G01X0012015Y-012272D02*
G01X0012055Y-012285D01*
G01X0012055Y-012285D02*
G01X0012121Y-012325D01*
G01X0012121Y-012325D02*
G01X0012161Y-012365D01*
G01X0012161Y-012365D02*
G01X0012201Y-012431D01*
G01X0012201Y-012431D02*
G01X0012214Y-012471D01*
G01X0012214Y-012471D02*
G01X0012214Y-012524D01*
G01X0012214Y-012524D02*
G01X0012187Y-012577D01*
G01X0012187Y-012577D02*
G01X0012121Y-012643D01*
G01X0012545Y-012219D02*
G01X0012386Y-012378D01*
G01X0012466Y-012298D02*
G01X0012187Y-012020D01*
G01X0012187Y-012020D02*
G01X0012201Y-012086D01*
G01X0012201Y-012086D02*
G01X0012201Y-012139D01*
G01X0012201Y-012139D02*
G01X0012187Y-012179D01*
G01X0012159Y-015003D02*
G01X0011972Y-015134D01*
G01X0012159Y-015228D02*
G01X0011765Y-015228D01*
G01X0011765Y-015228D02*
G01X0011765Y-015078D01*
G01X0011765Y-015078D02*
G01X0011784Y-015041D01*
G01X0011784Y-015041D02*
G01X0011803Y-015022D01*
G01X0011803Y-015022D02*
G01X0011840Y-015003D01*
G01X0011840Y-015003D02*
G01X0011897Y-015003D01*
G01X0011897Y-015003D02*
G01X0011934Y-015022D01*
G01X0011934Y-015022D02*
G01X0011953Y-015041D01*
G01X0011953Y-015041D02*
G01X0011972Y-015078D01*
G01X0011972Y-015078D02*
G01X0011972Y-015228D01*
G01X0012159Y-014628D02*
G01X0012159Y-014853D01*
G01X0012159Y-014741D02*
G01X0011765Y-014741D01*
G01X0011765Y-014741D02*
G01X0011822Y-014778D01*
G01X0011822Y-014778D02*
G01X0011859Y-014816D01*
G01X0011859Y-014816D02*
G01X0011878Y-014853D01*
G01X0011024Y-012871D02*
G01X0010799Y-012871D01*
G01X0010912Y-012871D02*
G01X0010912Y-012478D01*
G01X0010912Y-012478D02*
G01X0010874Y-012534D01*
G01X0010874Y-012534D02*
G01X0010837Y-012571D01*
G01X0010837Y-012571D02*
G01X0010799Y-012590D01*
G01X0012745Y-014013D02*
G01X0012745Y-013619D01*
G01X0012745Y-013619D02*
G01X0012895Y-013619D01*
G01X0012895Y-013619D02*
G01X0012933Y-013638D01*
G01X0012933Y-013638D02*
G01X0012952Y-013657D01*
G01X0012952Y-013657D02*
G01X0012970Y-013694D01*
G01X0012970Y-013694D02*
G01X0012970Y-013751D01*
G01X0012970Y-013751D02*
G01X0012952Y-013788D01*
G01X0012952Y-013788D02*
G01X0012933Y-013807D01*
G01X0012933Y-013807D02*
G01X0012895Y-013826D01*
G01X0012895Y-013826D02*
G01X0012745Y-013826D01*
G01X0013195Y-014013D02*
G01X0013158Y-013994D01*
G01X0013158Y-013994D02*
G01X0013139Y-013976D01*
G01X0013139Y-013976D02*
G01X0013120Y-013938D01*
G01X0013120Y-013938D02*
G01X0013120Y-013826D01*
G01X0013120Y-013826D02*
G01X0013139Y-013788D01*
G01X0013139Y-013788D02*
G01X0013158Y-013769D01*
G01X0013158Y-013769D02*
G01X0013195Y-013751D01*
G01X0013195Y-013751D02*
G01X0013252Y-013751D01*
G01X0013252Y-013751D02*
G01X0013289Y-013769D01*
G01X0013289Y-013769D02*
G01X0013308Y-013788D01*
G01X0013308Y-013788D02*
G01X0013327Y-013826D01*
G01X0013327Y-013826D02*
G01X0013327Y-013938D01*
G01X0013327Y-013938D02*
G01X0013308Y-013976D01*
G01X0013308Y-013976D02*
G01X0013289Y-013994D01*
G01X0013289Y-013994D02*
G01X0013252Y-014013D01*
G01X0013252Y-014013D02*
G01X0013195Y-014013D01*
G01X0013551Y-014013D02*
G01X0013514Y-013994D01*
G01X0013514Y-013994D02*
G01X0013495Y-013957D01*
G01X0013495Y-013957D02*
G01X0013495Y-013619D01*
G01X0013870Y-014013D02*
G01X0013870Y-013807D01*
G01X0013870Y-013807D02*
G01X0013851Y-013769D01*
G01X0013851Y-013769D02*
G01X0013814Y-013751D01*
G01X0013814Y-013751D02*
G01X0013739Y-013751D01*
G01X0013739Y-013751D02*
G01X0013701Y-013769D01*
G01X0013870Y-013994D02*
G01X0013833Y-014013D01*
G01X0013833Y-014013D02*
G01X0013739Y-014013D01*
G01X0013739Y-014013D02*
G01X0013701Y-013994D01*
G01X0013701Y-013994D02*
G01X0013683Y-013957D01*
G01X0013683Y-013957D02*
G01X0013683Y-013919D01*
G01X0013683Y-013919D02*
G01X0013701Y-013882D01*
G01X0013701Y-013882D02*
G01X0013739Y-013863D01*
G01X0013739Y-013863D02*
G01X0013833Y-013863D01*
G01X0013833Y-013863D02*
G01X0013870Y-013844D01*
G01X0014058Y-014013D02*
G01X0014058Y-013751D01*
G01X0014058Y-013826D02*
G01X0014076Y-013788D01*
G01X0014076Y-013788D02*
G01X0014095Y-013769D01*
G01X0014095Y-013769D02*
G01X0014133Y-013751D01*
G01X0014133Y-013751D02*
G01X0014170Y-013751D01*
G01X0014301Y-014013D02*
G01X0014301Y-013751D01*
G01X0014301Y-013619D02*
G01X0014283Y-013638D01*
G01X0014283Y-013638D02*
G01X0014301Y-013657D01*
G01X0014301Y-013657D02*
G01X0014320Y-013638D01*
G01X0014320Y-013638D02*
G01X0014301Y-013619D01*
G01X0014301Y-013619D02*
G01X0014301Y-013657D01*
G01X0014433Y-013751D02*
G01X0014583Y-013751D01*
G01X0014489Y-013619D02*
G01X0014489Y-013957D01*
G01X0014489Y-013957D02*
G01X0014508Y-013994D01*
G01X0014508Y-013994D02*
G01X0014545Y-014013D01*
G01X0014545Y-014013D02*
G01X0014583Y-014013D01*
G01X0014676Y-013751D02*
G01X0014770Y-014013D01*
G01X0014864Y-013751D02*
G01X0014770Y-014013D01*
G01X0014770Y-014013D02*
G01X0014733Y-014107D01*
G01X0014733Y-014107D02*
G01X0014714Y-014126D01*
G01X0014714Y-014126D02*
G01X0014676Y-014144D01*
G01X0013195Y-014623D02*
G01X0013195Y-014230D01*
G01X0013195Y-014230D02*
G01X0013327Y-014511D01*
G01X0013327Y-014511D02*
G01X0013458Y-014230D01*
G01X0013458Y-014230D02*
G01X0013458Y-014623D01*
G01X0013814Y-014623D02*
G01X0013814Y-014417D01*
G01X0013814Y-014417D02*
G01X0013795Y-014380D01*
G01X0013795Y-014380D02*
G01X0013758Y-014361D01*
G01X0013758Y-014361D02*
G01X0013683Y-014361D01*
G01X0013683Y-014361D02*
G01X0013645Y-014380D01*
G01X0013814Y-014605D02*
G01X0013776Y-014623D01*
G01X0013776Y-014623D02*
G01X0013683Y-014623D01*
G01X0013683Y-014623D02*
G01X0013645Y-014605D01*
G01X0013645Y-014605D02*
G01X0013626Y-014567D01*
G01X0013626Y-014567D02*
G01X0013626Y-014530D01*
G01X0013626Y-014530D02*
G01X0013645Y-014492D01*
G01X0013645Y-014492D02*
G01X0013683Y-014473D01*
G01X0013683Y-014473D02*
G01X0013776Y-014473D01*
G01X0013776Y-014473D02*
G01X0013814Y-014455D01*
G01X0014001Y-014623D02*
G01X0014001Y-014361D01*
G01X0014001Y-014436D02*
G01X0014020Y-014398D01*
G01X0014020Y-014398D02*
G01X0014039Y-014380D01*
G01X0014039Y-014380D02*
G01X0014076Y-014361D01*
G01X0014076Y-014361D02*
G01X0014114Y-014361D01*
G01X0014245Y-014623D02*
G01X0014245Y-014230D01*
G01X0014283Y-014473D02*
G01X0014395Y-014623D01*
G01X0014395Y-014361D02*
G01X0014245Y-014511D01*
G01X0009626Y-012735D02*
G01X0009607Y-012754D01*
G01X0009607Y-012754D02*
G01X0009551Y-012773D01*
G01X0009551Y-012773D02*
G01X0009513Y-012773D01*
G01X0009513Y-012773D02*
G01X0009457Y-012754D01*
G01X0009457Y-012754D02*
G01X0009419Y-012717D01*
G01X0009419Y-012717D02*
G01X0009401Y-012679D01*
G01X0009401Y-012679D02*
G01X0009382Y-012604D01*
G01X0009382Y-012604D02*
G01X0009382Y-012548D01*
G01X0009382Y-012548D02*
G01X0009401Y-012473D01*
G01X0009401Y-012473D02*
G01X0009419Y-012436D01*
G01X0009419Y-012436D02*
G01X0009457Y-012398D01*
G01X0009457Y-012398D02*
G01X0009513Y-012379D01*
G01X0009513Y-012379D02*
G01X0009551Y-012379D01*
G01X0009551Y-012379D02*
G01X0009607Y-012398D01*
G01X0009607Y-012398D02*
G01X0009626Y-012417D01*
G01X0010001Y-012773D02*
G01X0009776Y-012773D01*
G01X0009888Y-012773D02*
G01X0009888Y-012379D01*
G01X0009888Y-012379D02*
G01X0009851Y-012436D01*
G01X0009851Y-012436D02*
G01X0009813Y-012473D01*
G01X0009813Y-012473D02*
G01X0009776Y-012492D01*
G01X0000000Y0000000D02*
G54D12*
G01X0010439Y-009504D02*
G75*
G03X0008904Y-011040I0000000J-001535D01*
G01X0008904Y-014111D02*
G75*
G03X0010439Y-015646I0001535J0000000D01*
G01X0016660Y-015646D02*
G75*
G03X0018195Y-014111I0000000J0001535D01*
G01X0018195Y-011040D02*
G75*
G03X0016660Y-009504I-001535J0000000D01*
G01X0008904Y-014111D02*
G01X0008904Y-011040D01*
G01X0018195Y-014111D02*
G01X0018195Y-011040D01*
G01X0016660Y-015646D02*
G01X0010439Y-015646D01*
G01X0016660Y-009504D02*
G01X0010439Y-009504D01*
M02*
