%TF.GenerationSoftware,KiCad,Pcbnew,5.0.0-fee4fd1~66~ubuntu16.04.1*%
%TF.CreationDate,2018-09-24T21:54:23-07:00*%
%TF.ProjectId,2x3-LED-RGB-NeoPixel-SMT,3278332D4C45442D5247422D4E656F50,v1.1*%
%TF.SameCoordinates,Original*%
%TF.FileFunction,Legend,Bot*%
%TF.FilePolarity,Positive*%
%FSLAX46Y46*%
G04 Gerber Fmt 4.6, Leading zero omitted, Abs format (unit mm)*
G04 Created by KiCad (PCBNEW 5.0.0-fee4fd1~66~ubuntu16.04.1) date Mon Sep 24 21:54:23 2018*
%MOMM*%
%LPD*%
G01*
G04 APERTURE LIST*
%ADD10C,0.300000*%
%ADD11C,7.400000*%
%ADD12C,0.150000*%
%ADD13C,0.800000*%
%ADD14C,6.152400*%
G04 APERTURE END LIST*
D10*
X26416000Y-33841000D02*
X26416000Y-30341000D01*
D11*
X42516000Y-27816000D02*
X42516000Y-36041000D01*
D12*
X27796952Y-32012428D02*
X27035047Y-32012428D01*
X27416000Y-32393380D02*
X27416000Y-31631476D01*
X31616000Y-35093380D02*
X31616000Y-34093380D01*
X31377904Y-34093380D01*
X31235047Y-34141000D01*
X31139809Y-34236238D01*
X31092190Y-34331476D01*
X31044571Y-34521952D01*
X31044571Y-34664809D01*
X31092190Y-34855285D01*
X31139809Y-34950523D01*
X31235047Y-35045761D01*
X31377904Y-35093380D01*
X31616000Y-35093380D01*
X30616000Y-35093380D02*
X30616000Y-34093380D01*
X31601714Y-29793380D02*
X31601714Y-28793380D01*
X31363619Y-28793380D01*
X31220761Y-28841000D01*
X31125523Y-28936238D01*
X31077904Y-29031476D01*
X31030285Y-29221952D01*
X31030285Y-29364809D01*
X31077904Y-29555285D01*
X31125523Y-29650523D01*
X31220761Y-29745761D01*
X31363619Y-29793380D01*
X31601714Y-29793380D01*
X30411238Y-28793380D02*
X30220761Y-28793380D01*
X30125523Y-28841000D01*
X30030285Y-28936238D01*
X29982666Y-29126714D01*
X29982666Y-29460047D01*
X30030285Y-29650523D01*
X30125523Y-29745761D01*
X30220761Y-29793380D01*
X30411238Y-29793380D01*
X30506476Y-29745761D01*
X30601714Y-29650523D01*
X30649333Y-29460047D01*
X30649333Y-29126714D01*
X30601714Y-28936238D01*
X30506476Y-28841000D01*
X30411238Y-28793380D01*
X37625523Y-31373796D02*
X37387428Y-32373796D01*
X37196952Y-31659511D01*
X37006476Y-32373796D01*
X36768380Y-31373796D01*
X36435047Y-32326177D02*
X36292190Y-32373796D01*
X36054095Y-32373796D01*
X35958857Y-32326177D01*
X35911238Y-32278558D01*
X35863619Y-32183320D01*
X35863619Y-32088082D01*
X35911238Y-31992844D01*
X35958857Y-31945225D01*
X36054095Y-31897606D01*
X36244571Y-31849987D01*
X36339809Y-31802368D01*
X36387428Y-31754749D01*
X36435047Y-31659511D01*
X36435047Y-31564273D01*
X36387428Y-31469035D01*
X36339809Y-31421416D01*
X36244571Y-31373796D01*
X36006476Y-31373796D01*
X35863619Y-31421416D01*
X35482666Y-31469035D02*
X35435047Y-31421416D01*
X35339809Y-31373796D01*
X35101714Y-31373796D01*
X35006476Y-31421416D01*
X34958857Y-31469035D01*
X34911238Y-31564273D01*
X34911238Y-31659511D01*
X34958857Y-31802368D01*
X35530285Y-32373796D01*
X34911238Y-32373796D01*
X34339809Y-31802368D02*
X34435047Y-31754749D01*
X34482666Y-31707130D01*
X34530285Y-31611892D01*
X34530285Y-31564273D01*
X34482666Y-31469035D01*
X34435047Y-31421416D01*
X34339809Y-31373796D01*
X34149333Y-31373796D01*
X34054095Y-31421416D01*
X34006476Y-31469035D01*
X33958857Y-31564273D01*
X33958857Y-31611892D01*
X34006476Y-31707130D01*
X34054095Y-31754749D01*
X34149333Y-31802368D01*
X34339809Y-31802368D01*
X34435047Y-31849987D01*
X34482666Y-31897606D01*
X34530285Y-31992844D01*
X34530285Y-32183320D01*
X34482666Y-32278558D01*
X34435047Y-32326177D01*
X34339809Y-32373796D01*
X34149333Y-32373796D01*
X34054095Y-32326177D01*
X34006476Y-32278558D01*
X33958857Y-32183320D01*
X33958857Y-31992844D01*
X34006476Y-31897606D01*
X34054095Y-31849987D01*
X34149333Y-31802368D01*
X33006476Y-32373796D02*
X33577904Y-32373796D01*
X33292190Y-32373796D02*
X33292190Y-31373796D01*
X33387428Y-31516654D01*
X33482666Y-31611892D01*
X33577904Y-31659511D01*
X32625523Y-31469035D02*
X32577904Y-31421416D01*
X32482666Y-31373796D01*
X32244571Y-31373796D01*
X32149333Y-31421416D01*
X32101714Y-31469035D01*
X32054095Y-31564273D01*
X32054095Y-31659511D01*
X32101714Y-31802368D01*
X32673142Y-32373796D01*
X32054095Y-32373796D01*
X31292190Y-31849987D02*
X31149333Y-31897606D01*
X31101714Y-31945225D01*
X31054095Y-32040463D01*
X31054095Y-32183320D01*
X31101714Y-32278558D01*
X31149333Y-32326177D01*
X31244571Y-32373796D01*
X31625523Y-32373796D01*
X31625523Y-31373796D01*
X31292190Y-31373796D01*
X31196952Y-31421416D01*
X31149333Y-31469035D01*
X31101714Y-31564273D01*
X31101714Y-31659511D01*
X31149333Y-31754749D01*
X31196952Y-31802368D01*
X31292190Y-31849987D01*
X31625523Y-31849987D01*
%LPC*%
D13*
X25206936Y-33119205D02*
G75*
G03X29316000Y-36941000I1184064J-2846795D01*
G01*
X35936809Y-30577542D02*
G75*
G03X31516000Y-27041000I-1495809J2661542D01*
G01*
X31425882Y-36937761D02*
G75*
G03X35716000Y-33141000I2965118J971761D01*
G01*
D14*
X42416000Y-27941000D03*
X42416000Y-35941000D03*
X26416000Y-27941000D03*
M02*
