%TF.GenerationSoftware,KiCad,Pcbnew,5.0.0-fee4fd1~66~ubuntu16.04.1*%
%TF.CreationDate,2018-10-08T10:07:13-07:00*%
%TF.ProjectId,2x3-LED-RGB-NeoPixel-SMT,3278332D4C45442D5247422D4E656F50,v1.1*%
%TF.SameCoordinates,Original*%
%TF.FileFunction,Legend,Bot*%
%TF.FilePolarity,Positive*%
%FSLAX46Y46*%
G04 Gerber Fmt 4.6, Leading zero omitted, Abs format (unit mm)*
G04 Created by KiCad (PCBNEW 5.0.0-fee4fd1~66~ubuntu16.04.1) date Mon Oct  8 10:07:13 2018*
%MOMM*%
%LPD*%
G01*
G04 APERTURE LIST*
%ADD10C,0.300000*%
%ADD11C,7.400000*%
%ADD12C,0.150000*%
%ADD13C,0.800000*%
%ADD14C,6.752400*%
G04 APERTURE END LIST*
D10*
X8636000Y-33841000D02*
X8636000Y-30341000D01*
D11*
X24736000Y-27816000D02*
X24736000Y-36041000D01*
D12*
X10016952Y-32012428D02*
X9255047Y-32012428D01*
X9636000Y-32393380D02*
X9636000Y-31631476D01*
X13836000Y-35093380D02*
X13836000Y-34093380D01*
X13597904Y-34093380D01*
X13455047Y-34141000D01*
X13359809Y-34236238D01*
X13312190Y-34331476D01*
X13264571Y-34521952D01*
X13264571Y-34664809D01*
X13312190Y-34855285D01*
X13359809Y-34950523D01*
X13455047Y-35045761D01*
X13597904Y-35093380D01*
X13836000Y-35093380D01*
X12836000Y-35093380D02*
X12836000Y-34093380D01*
X13821714Y-29793380D02*
X13821714Y-28793380D01*
X13583619Y-28793380D01*
X13440761Y-28841000D01*
X13345523Y-28936238D01*
X13297904Y-29031476D01*
X13250285Y-29221952D01*
X13250285Y-29364809D01*
X13297904Y-29555285D01*
X13345523Y-29650523D01*
X13440761Y-29745761D01*
X13583619Y-29793380D01*
X13821714Y-29793380D01*
X12631238Y-28793380D02*
X12440761Y-28793380D01*
X12345523Y-28841000D01*
X12250285Y-28936238D01*
X12202666Y-29126714D01*
X12202666Y-29460047D01*
X12250285Y-29650523D01*
X12345523Y-29745761D01*
X12440761Y-29793380D01*
X12631238Y-29793380D01*
X12726476Y-29745761D01*
X12821714Y-29650523D01*
X12869333Y-29460047D01*
X12869333Y-29126714D01*
X12821714Y-28936238D01*
X12726476Y-28841000D01*
X12631238Y-28793380D01*
X19845523Y-31373796D02*
X19607428Y-32373796D01*
X19416952Y-31659511D01*
X19226476Y-32373796D01*
X18988380Y-31373796D01*
X18655047Y-32326177D02*
X18512190Y-32373796D01*
X18274095Y-32373796D01*
X18178857Y-32326177D01*
X18131238Y-32278558D01*
X18083619Y-32183320D01*
X18083619Y-32088082D01*
X18131238Y-31992844D01*
X18178857Y-31945225D01*
X18274095Y-31897606D01*
X18464571Y-31849987D01*
X18559809Y-31802368D01*
X18607428Y-31754749D01*
X18655047Y-31659511D01*
X18655047Y-31564273D01*
X18607428Y-31469035D01*
X18559809Y-31421416D01*
X18464571Y-31373796D01*
X18226476Y-31373796D01*
X18083619Y-31421416D01*
X17702666Y-31469035D02*
X17655047Y-31421416D01*
X17559809Y-31373796D01*
X17321714Y-31373796D01*
X17226476Y-31421416D01*
X17178857Y-31469035D01*
X17131238Y-31564273D01*
X17131238Y-31659511D01*
X17178857Y-31802368D01*
X17750285Y-32373796D01*
X17131238Y-32373796D01*
X16559809Y-31802368D02*
X16655047Y-31754749D01*
X16702666Y-31707130D01*
X16750285Y-31611892D01*
X16750285Y-31564273D01*
X16702666Y-31469035D01*
X16655047Y-31421416D01*
X16559809Y-31373796D01*
X16369333Y-31373796D01*
X16274095Y-31421416D01*
X16226476Y-31469035D01*
X16178857Y-31564273D01*
X16178857Y-31611892D01*
X16226476Y-31707130D01*
X16274095Y-31754749D01*
X16369333Y-31802368D01*
X16559809Y-31802368D01*
X16655047Y-31849987D01*
X16702666Y-31897606D01*
X16750285Y-31992844D01*
X16750285Y-32183320D01*
X16702666Y-32278558D01*
X16655047Y-32326177D01*
X16559809Y-32373796D01*
X16369333Y-32373796D01*
X16274095Y-32326177D01*
X16226476Y-32278558D01*
X16178857Y-32183320D01*
X16178857Y-31992844D01*
X16226476Y-31897606D01*
X16274095Y-31849987D01*
X16369333Y-31802368D01*
X15226476Y-32373796D02*
X15797904Y-32373796D01*
X15512190Y-32373796D02*
X15512190Y-31373796D01*
X15607428Y-31516654D01*
X15702666Y-31611892D01*
X15797904Y-31659511D01*
X14845523Y-31469035D02*
X14797904Y-31421416D01*
X14702666Y-31373796D01*
X14464571Y-31373796D01*
X14369333Y-31421416D01*
X14321714Y-31469035D01*
X14274095Y-31564273D01*
X14274095Y-31659511D01*
X14321714Y-31802368D01*
X14893142Y-32373796D01*
X14274095Y-32373796D01*
X13512190Y-31849987D02*
X13369333Y-31897606D01*
X13321714Y-31945225D01*
X13274095Y-32040463D01*
X13274095Y-32183320D01*
X13321714Y-32278558D01*
X13369333Y-32326177D01*
X13464571Y-32373796D01*
X13845523Y-32373796D01*
X13845523Y-31373796D01*
X13512190Y-31373796D01*
X13416952Y-31421416D01*
X13369333Y-31469035D01*
X13321714Y-31564273D01*
X13321714Y-31659511D01*
X13369333Y-31754749D01*
X13416952Y-31802368D01*
X13512190Y-31849987D01*
X13845523Y-31849987D01*
%LPC*%
D13*
X7426936Y-33119205D02*
G75*
G03X11536000Y-36941000I1184064J-2846795D01*
G01*
X18156809Y-30577542D02*
G75*
G03X13736000Y-27041000I-1495809J2661542D01*
G01*
X13645882Y-36937761D02*
G75*
G03X17936000Y-33141000I2965118J971761D01*
G01*
D14*
X24636000Y-27941000D03*
X24636000Y-35941000D03*
X8636000Y-27941000D03*
M02*
