%TF.GenerationSoftware,KiCad,Pcbnew,4.0.7-e2-6376~58~ubuntu16.04.1*%
%TF.CreationDate,2018-05-14T09:00:14-07:00*%
%TF.ProjectId,2x3-LED-RGB-NeoPixel-SMT,3278332D4C45442D5247422D4E656F50,v1.1*%
%TF.FileFunction,Copper,L1,Top,Signal*%
%FSLAX46Y46*%
G04 Gerber Fmt 4.6, Leading zero omitted, Abs format (unit mm)*
G04 Created by KiCad (PCBNEW 4.0.7-e2-6376~58~ubuntu16.04.1) date Mon May 14 09:00:14 2018*
%MOMM*%
%LPD*%
G01*
G04 APERTURE LIST*
%ADD10C,0.350000*%
%ADD11C,0.300000*%
%ADD12C,0.800000*%
%ADD13C,6.000000*%
%ADD14R,0.800000X0.750000*%
%ADD15R,0.750000X0.800000*%
%ADD16C,0.685800*%
%ADD17C,0.350000*%
%ADD18C,0.330200*%
G04 APERTURE END LIST*
D10*
D11*
X8007954Y-31355584D02*
X6707954Y-32655584D01*
D12*
X8717836Y-39052345D02*
G75*
G03X13007954Y-35255584I2965118J971761D01*
G01*
X2507954Y-34055584D02*
X3607954Y-34055584D01*
X4507954Y-34755584D02*
X3707954Y-34055584D01*
D11*
X7607954Y-39355584D02*
X7607954Y-38455584D01*
X7507954Y-35655584D02*
X7507954Y-36555584D01*
X7507954Y-35655584D02*
X8307954Y-34855584D01*
D12*
X8307954Y-29155584D02*
X8807954Y-29155584D01*
X1007954Y-34155584D02*
X1007954Y-32955584D01*
D11*
X8307954Y-34855584D02*
X8307954Y-32655584D01*
X6707954Y-35455584D02*
X6707954Y-32655584D01*
D12*
X13228761Y-32692127D02*
G75*
G03X8807954Y-29155584I-1495807J2661543D01*
G01*
X7807954Y-40855584D02*
X10207954Y-40855584D01*
X2551497Y-35212474D02*
G75*
G03X6607954Y-39055584I1131457J-2868110D01*
G01*
X2507954Y-35155584D02*
X2507954Y-31455584D01*
X10607954Y-33455584D02*
X9907954Y-32755584D01*
D13*
X3707954Y-30055584D03*
D14*
X2532954Y-34080584D03*
X1032954Y-34080584D03*
D10*
G36*
X5023480Y-33711440D02*
X5652098Y-34340058D01*
X4592428Y-35399728D01*
X3963810Y-34771110D01*
X5023480Y-33711440D01*
X5023480Y-33711440D01*
G37*
G36*
X7423480Y-36111440D02*
X8052098Y-36740058D01*
X6992428Y-37799728D01*
X6363810Y-37171110D01*
X7423480Y-36111440D01*
X7423480Y-36111440D01*
G37*
G36*
X10765122Y-32679664D02*
X11393740Y-33308282D01*
X10334070Y-34367952D01*
X9705452Y-33739334D01*
X10765122Y-32679664D01*
X10765122Y-32679664D01*
G37*
G36*
X8430256Y-30344798D02*
X9058874Y-30973416D01*
X7999204Y-32033086D01*
X7370586Y-31404468D01*
X8430256Y-30344798D01*
X8430256Y-30344798D01*
G37*
D15*
X7623538Y-40805630D03*
X7623538Y-39305630D03*
D16*
X6707954Y-35455584D03*
X7607954Y-38455584D03*
X8307954Y-32655584D03*
X8307954Y-29155584D03*
X1007954Y-32855584D03*
D13*
X19707954Y-38055584D03*
X19707954Y-30055584D03*
D16*
X8807954Y-40855584D03*
X9907954Y-32755584D03*
D17*
X11707954Y-38055584D03*
X3707954Y-30055584D03*
X3707954Y-38055584D03*
X11707954Y-30055584D03*
D18*
X6707954Y-35455584D03*
X7607954Y-38455584D03*
X8307954Y-32655584D03*
X8307954Y-29155584D03*
X1007954Y-32855584D03*
D17*
X19707954Y-38055584D03*
X19707954Y-30055584D03*
D18*
X8807954Y-40855584D03*
X9907954Y-32755584D03*
M02*
