%TF.GenerationSoftware,KiCad,Pcbnew,5.0.0-fee4fd1~66~ubuntu16.04.1*%
%TF.CreationDate,2018-08-21T17:19:53-07:00*%
%TF.ProjectId,2x3-LED-RGB-NeoPixel-SMT,3278332D4C45442D5247422D4E656F50,v1.1*%
%TF.SameCoordinates,Original*%
%TF.FileFunction,Legend,Top*%
%TF.FilePolarity,Positive*%
%FSLAX46Y46*%
G04 Gerber Fmt 4.6, Leading zero omitted, Abs format (unit mm)*
G04 Created by KiCad (PCBNEW 5.0.0-fee4fd1~66~ubuntu16.04.1) date Tue Aug 21 17:19:53 2018*
%MOMM*%
%LPD*%
G01*
G04 APERTURE LIST*
%ADD10C,0.152400*%
%ADD11C,0.150000*%
%ADD12C,7.400000*%
%ADD13C,0.800000*%
%ADD14C,6.152400*%
%ADD15R,0.952400X0.902400*%
%ADD16C,1.041400*%
%ADD17C,0.350000*%
%ADD18R,0.902400X0.952400*%
G04 APERTURE END LIST*
D10*
X3179954Y-34715584D02*
X3179954Y-33445584D01*
X449454Y-34715584D02*
X449454Y-33445584D01*
D11*
X3179954Y-34715584D02*
X449454Y-34715584D01*
X449454Y-33445584D02*
X3179954Y-33445584D01*
D10*
X10082623Y-32913151D02*
X8825387Y-31655915D01*
X4065852Y-34080584D02*
X7568151Y-30578284D01*
X11250056Y-34080584D02*
X7657954Y-37672686D01*
X6490521Y-36505253D02*
X5233285Y-35248017D01*
D12*
X19807954Y-29930584D02*
X19807954Y-38155584D01*
D11*
X6988538Y-41452630D02*
X6988538Y-38722130D01*
D10*
X6988538Y-41452630D02*
X8258538Y-41452630D01*
X6988538Y-38722130D02*
X8258538Y-38722130D01*
D11*
X8258538Y-38722130D02*
X8258538Y-41452630D01*
X14807954Y-41307964D02*
X14807954Y-40307964D01*
X15046049Y-40307964D01*
X15188906Y-40355584D01*
X15284144Y-40450822D01*
X15331763Y-40546060D01*
X15379382Y-40736536D01*
X15379382Y-40879393D01*
X15331763Y-41069869D01*
X15284144Y-41165107D01*
X15188906Y-41260345D01*
X15046049Y-41307964D01*
X14807954Y-41307964D01*
X15807954Y-41307964D02*
X15807954Y-40307964D01*
X227001Y-32027012D02*
X988906Y-32027012D01*
X607954Y-32407964D02*
X607954Y-31646060D01*
X227001Y-35427012D02*
X988906Y-35427012D01*
X607954Y-35807964D02*
X607954Y-35046060D01*
X14722239Y-27707964D02*
X14722239Y-26707964D01*
X14960334Y-26707964D01*
X15103192Y-26755584D01*
X15198430Y-26850822D01*
X15246049Y-26946060D01*
X15293668Y-27136536D01*
X15293668Y-27279393D01*
X15246049Y-27469869D01*
X15198430Y-27565107D01*
X15103192Y-27660345D01*
X14960334Y-27707964D01*
X14722239Y-27707964D01*
X15912715Y-26707964D02*
X16103192Y-26707964D01*
X16198430Y-26755584D01*
X16293668Y-26850822D01*
X16341287Y-27041298D01*
X16341287Y-27374631D01*
X16293668Y-27565107D01*
X16198430Y-27660345D01*
X16103192Y-27707964D01*
X15912715Y-27707964D01*
X15817477Y-27660345D01*
X15722239Y-27565107D01*
X15674620Y-27374631D01*
X15674620Y-27041298D01*
X15722239Y-26850822D01*
X15817477Y-26755584D01*
X15912715Y-26707964D01*
%LPC*%
D13*
X8717836Y-39052345D02*
G75*
G03X13007954Y-35255584I2965118J971761D01*
G01*
X13228551Y-32692245D02*
G75*
G03X8807954Y-29155584I-1495597J2661661D01*
G01*
X2551496Y-35212474D02*
G75*
G03X6607954Y-39055584I1131458J-2868110D01*
G01*
D14*
X3707954Y-30055584D03*
D15*
X2532954Y-34080584D03*
X1032954Y-34080584D03*
D16*
X4807954Y-34555584D03*
D17*
G36*
X5023480Y-33603677D02*
X5759861Y-34340058D01*
X4592428Y-35507491D01*
X3856047Y-34771110D01*
X5023480Y-33603677D01*
X5023480Y-33603677D01*
G37*
D16*
X7207954Y-36955584D03*
D17*
G36*
X7423480Y-36003677D02*
X8159861Y-36740058D01*
X6992428Y-37907491D01*
X6256047Y-37171110D01*
X7423480Y-36003677D01*
X7423480Y-36003677D01*
G37*
D16*
X10549596Y-33523808D03*
D17*
G36*
X10765122Y-32571901D02*
X11501503Y-33308282D01*
X10334070Y-34475715D01*
X9597689Y-33739334D01*
X10765122Y-32571901D01*
X10765122Y-32571901D01*
G37*
D16*
X8214730Y-31188942D03*
D17*
G36*
X8430256Y-30237035D02*
X9166637Y-30973416D01*
X7999204Y-32140849D01*
X7262823Y-31404468D01*
X8430256Y-30237035D01*
X8430256Y-30237035D01*
G37*
D18*
X7623538Y-40805630D03*
X7623538Y-39305630D03*
D14*
X19707954Y-38055584D03*
X19707954Y-30055584D03*
M02*
