%TF.GenerationSoftware,KiCad,Pcbnew,5.0.0-fee4fd1~66~ubuntu16.04.1*%
%TF.CreationDate,2018-10-08T10:07:13-07:00*%
%TF.ProjectId,2x3-LED-RGB-NeoPixel-SMT,3278332D4C45442D5247422D4E656F50,v1.1*%
%TF.SameCoordinates,Original*%
%TF.FileFunction,Copper,L1,Top,Signal*%
%TF.FilePolarity,Positive*%
%FSLAX46Y46*%
G04 Gerber Fmt 4.6, Leading zero omitted, Abs format (unit mm)*
G04 Created by KiCad (PCBNEW 5.0.0-fee4fd1~66~ubuntu16.04.1) date Mon Oct  8 10:07:13 2018*
%MOMM*%
%LPD*%
G01*
G04 APERTURE LIST*
%ADD10C,0.800000*%
%ADD11C,0.300000*%
%ADD12C,0.685800*%
%ADD13C,6.600000*%
%ADD14R,0.750000X0.800000*%
%ADD15C,0.889000*%
%ADD16C,0.350000*%
%ADD17R,0.800000X0.750000*%
%ADD18C,0.330200*%
%ADD19C,0.350000*%
G04 APERTURE END LIST*
D10*
X10136000Y-38741000D02*
X11086000Y-38741000D01*
X15536000Y-31341000D02*
X14836000Y-30641000D01*
X7436000Y-33041000D02*
X7436000Y-29341000D01*
X7479543Y-33097890D02*
G75*
G03X11536000Y-36941000I1131457J-2868110D01*
G01*
X12736000Y-38741000D02*
X15136000Y-38741000D01*
X18156807Y-30577543D02*
G75*
G03X13736000Y-27041000I-1495807J2661543D01*
G01*
D11*
X11636000Y-33341000D02*
X11636000Y-30541000D01*
X13236000Y-32741000D02*
X13236000Y-30541000D01*
D10*
X5936000Y-32041000D02*
X5936000Y-30991000D01*
X13236000Y-27041000D02*
X13736000Y-27041000D01*
D11*
X12436000Y-33541000D02*
X13236000Y-32741000D01*
X12436000Y-33541000D02*
X12436000Y-34441000D01*
X12536000Y-37241000D02*
X12536000Y-36341000D01*
D10*
X9436000Y-32641000D02*
X8636000Y-31941000D01*
X7436000Y-31941000D02*
X8536000Y-31941000D01*
X13645882Y-36937761D02*
G75*
G03X17936000Y-33141000I2965118J971761D01*
G01*
D11*
X12936000Y-29241000D02*
X11636000Y-30541000D01*
D12*
X14836000Y-30641000D03*
X13736000Y-38741000D03*
D13*
X24636000Y-27941000D03*
X24636000Y-35941000D03*
D12*
X5936000Y-30941000D03*
X13236000Y-27041000D03*
X13236000Y-30541000D03*
X12536000Y-36341000D03*
X11636000Y-33341000D03*
D14*
X12551584Y-37191046D03*
X12551584Y-38691046D03*
D15*
X13142776Y-29074358D03*
D16*
G36*
X13358302Y-28230214D02*
X13986920Y-28858832D01*
X12927250Y-29918502D01*
X12298632Y-29289884D01*
X13358302Y-28230214D01*
X13358302Y-28230214D01*
G37*
D15*
X15477642Y-31409224D03*
D16*
G36*
X15693168Y-30565080D02*
X16321786Y-31193698D01*
X15262116Y-32253368D01*
X14633498Y-31624750D01*
X15693168Y-30565080D01*
X15693168Y-30565080D01*
G37*
D15*
X12136000Y-34841000D03*
D16*
G36*
X12351526Y-33996856D02*
X12980144Y-34625474D01*
X11920474Y-35685144D01*
X11291856Y-35056526D01*
X12351526Y-33996856D01*
X12351526Y-33996856D01*
G37*
D15*
X9736000Y-32441000D03*
D16*
G36*
X9951526Y-31596856D02*
X10580144Y-32225474D01*
X9520474Y-33285144D01*
X8891856Y-32656526D01*
X9951526Y-31596856D01*
X9951526Y-31596856D01*
G37*
D17*
X5961000Y-31966000D03*
X7461000Y-31966000D03*
D13*
X8636000Y-27941000D03*
D12*
X11086000Y-38741000D03*
D18*
X14836000Y-30641000D03*
X13736000Y-38741000D03*
D19*
X24636000Y-27941000D03*
X24636000Y-35941000D03*
D18*
X5936000Y-30941000D03*
X13236000Y-27041000D03*
X13236000Y-30541000D03*
X12536000Y-36341000D03*
X11636000Y-33341000D03*
D19*
X16636000Y-27941000D03*
X8636000Y-35941000D03*
X8636000Y-27941000D03*
X16636000Y-35941000D03*
D18*
X11086000Y-38741000D03*
M02*
