%TF.GenerationSoftware,KiCad,Pcbnew,5.0.0-fee4fd1~66~ubuntu16.04.1*%
%TF.CreationDate,2018-08-21T17:19:53-07:00*%
%TF.ProjectId,2x3-LED-RGB-NeoPixel-SMT,3278332D4C45442D5247422D4E656F50,v1.1*%
%TF.SameCoordinates,Original*%
%TF.FileFunction,Soldermask,Top*%
%TF.FilePolarity,Negative*%
%FSLAX46Y46*%
G04 Gerber Fmt 4.6, Leading zero omitted, Abs format (unit mm)*
G04 Created by KiCad (PCBNEW 5.0.0-fee4fd1~66~ubuntu16.04.1) date Tue Aug 21 17:19:53 2018*
%MOMM*%
%LPD*%
G01*
G04 APERTURE LIST*
%ADD10C,0.800000*%
%ADD11C,0.350000*%
G04 APERTURE END LIST*
D10*
X8717836Y-39052345D02*
G75*
G03X13007954Y-35255584I2965118J971761D01*
G01*
X13228551Y-32692245D02*
G75*
G03X8807954Y-29155584I-1495597J2661661D01*
G01*
X2551496Y-35212474D02*
G75*
G03X6607954Y-39055584I1131458J-2868110D01*
G01*
D11*
G36*
X8074738Y-41281830D02*
X7172338Y-41281830D01*
X7172338Y-40329430D01*
X8074738Y-40329430D01*
X8074738Y-41281830D01*
X8074738Y-41281830D01*
G37*
G36*
X20605250Y-35097601D02*
X21165079Y-35329490D01*
X21165081Y-35329491D01*
X21431476Y-35507491D01*
X21668918Y-35666145D01*
X22097393Y-36094620D01*
X22434048Y-36598459D01*
X22665937Y-37158288D01*
X22784154Y-37752605D01*
X22784154Y-38358563D01*
X22665937Y-38952880D01*
X22434048Y-39512709D01*
X22434047Y-39512711D01*
X22097394Y-40016547D01*
X21668917Y-40445024D01*
X21165081Y-40781677D01*
X21165080Y-40781678D01*
X21165079Y-40781678D01*
X20605250Y-41013567D01*
X20010933Y-41131784D01*
X19404975Y-41131784D01*
X18810658Y-41013567D01*
X18250829Y-40781678D01*
X18250828Y-40781678D01*
X18250827Y-40781677D01*
X17746991Y-40445024D01*
X17318514Y-40016547D01*
X16981861Y-39512711D01*
X16981860Y-39512709D01*
X16749971Y-38952880D01*
X16631754Y-38358563D01*
X16631754Y-37752605D01*
X16749971Y-37158288D01*
X16981860Y-36598459D01*
X17318515Y-36094620D01*
X17746990Y-35666145D01*
X17984432Y-35507491D01*
X18250827Y-35329491D01*
X18250829Y-35329490D01*
X18810658Y-35097601D01*
X19404975Y-34979384D01*
X20010933Y-34979384D01*
X20605250Y-35097601D01*
X20605250Y-35097601D01*
G37*
G36*
X8074738Y-39781830D02*
X7172338Y-39781830D01*
X7172338Y-38829430D01*
X8074738Y-38829430D01*
X8074738Y-39781830D01*
X8074738Y-39781830D01*
G37*
G36*
X8159861Y-36740058D02*
X6992428Y-37907491D01*
X6256047Y-37171110D01*
X7423480Y-36003677D01*
X8159861Y-36740058D01*
X8159861Y-36740058D01*
G37*
G36*
X5759861Y-34340058D02*
X4592428Y-35507491D01*
X3856047Y-34771110D01*
X5023480Y-33603677D01*
X5759861Y-34340058D01*
X5759861Y-34340058D01*
G37*
G36*
X3009154Y-34531784D02*
X2056754Y-34531784D01*
X2056754Y-33629384D01*
X3009154Y-33629384D01*
X3009154Y-34531784D01*
X3009154Y-34531784D01*
G37*
G36*
X1509154Y-34531784D02*
X556754Y-34531784D01*
X556754Y-33629384D01*
X1509154Y-33629384D01*
X1509154Y-34531784D01*
X1509154Y-34531784D01*
G37*
G36*
X11501503Y-33308282D02*
X10334070Y-34475715D01*
X9597689Y-33739334D01*
X10765122Y-32571901D01*
X11501503Y-33308282D01*
X11501503Y-33308282D01*
G37*
G36*
X20605250Y-27097601D02*
X21165079Y-27329490D01*
X21165081Y-27329491D01*
X21668917Y-27666144D01*
X22097393Y-28094620D01*
X22434048Y-28598459D01*
X22665937Y-29158288D01*
X22784154Y-29752605D01*
X22784154Y-30358563D01*
X22665937Y-30952880D01*
X22478883Y-31404468D01*
X22434047Y-31512711D01*
X22097394Y-32016547D01*
X21668917Y-32445024D01*
X21165081Y-32781677D01*
X21165080Y-32781678D01*
X21165079Y-32781678D01*
X20605250Y-33013567D01*
X20010933Y-33131784D01*
X19404975Y-33131784D01*
X18810658Y-33013567D01*
X18250829Y-32781678D01*
X18250828Y-32781678D01*
X18250827Y-32781677D01*
X17746991Y-32445024D01*
X17318514Y-32016547D01*
X16981861Y-31512711D01*
X16937025Y-31404468D01*
X16749971Y-30952880D01*
X16631754Y-30358563D01*
X16631754Y-29752605D01*
X16749971Y-29158288D01*
X16981860Y-28598459D01*
X17318515Y-28094620D01*
X17746991Y-27666144D01*
X18250827Y-27329491D01*
X18250829Y-27329490D01*
X18810658Y-27097601D01*
X19404975Y-26979384D01*
X20010933Y-26979384D01*
X20605250Y-27097601D01*
X20605250Y-27097601D01*
G37*
G36*
X4605250Y-27097601D02*
X5165079Y-27329490D01*
X5165081Y-27329491D01*
X5668917Y-27666144D01*
X6097393Y-28094620D01*
X6434048Y-28598459D01*
X6665937Y-29158288D01*
X6784154Y-29752605D01*
X6784154Y-30358563D01*
X6665937Y-30952880D01*
X6478883Y-31404468D01*
X6434047Y-31512711D01*
X6097394Y-32016547D01*
X5668917Y-32445024D01*
X5165081Y-32781677D01*
X5165080Y-32781678D01*
X5165079Y-32781678D01*
X4605250Y-33013567D01*
X4010933Y-33131784D01*
X3404975Y-33131784D01*
X2810658Y-33013567D01*
X2250829Y-32781678D01*
X2250828Y-32781678D01*
X2250827Y-32781677D01*
X1746991Y-32445024D01*
X1318514Y-32016547D01*
X981861Y-31512711D01*
X937025Y-31404468D01*
X749971Y-30952880D01*
X631754Y-30358563D01*
X631754Y-29752605D01*
X749971Y-29158288D01*
X981860Y-28598459D01*
X1318515Y-28094620D01*
X1746991Y-27666144D01*
X2250827Y-27329491D01*
X2250829Y-27329490D01*
X2810658Y-27097601D01*
X3404975Y-26979384D01*
X4010933Y-26979384D01*
X4605250Y-27097601D01*
X4605250Y-27097601D01*
G37*
G36*
X9166637Y-30973416D02*
X7999204Y-32140849D01*
X7262823Y-31404468D01*
X8430256Y-30237035D01*
X9166637Y-30973416D01*
X9166637Y-30973416D01*
G37*
M02*
