G04 This is an RS-274x file exported by *
G04 gerbv version 2.6.0 *
G04 More information is available about gerbv at *
G04 http://gerbv.gpleda.org/ *
G04 --End of header info--*
%MOIN*%
%FSLAX34Y34*%
%IPPOS*%
G04 --Define apertures--*
%ADD10C,0.0020*%
%ADD11C,0.0039*%
%ADD12C,0.0016*%
%ADD13C,0.0059*%
G04 --Start main section--*
G54D10*
G01X0004646Y-015508D02*
G01X0004646Y-014367D01*
G01X0005237Y-015508D02*
G01X0005237Y-014367D01*
G01X0004646Y-015508D02*
G01X0005237Y-015508D01*
G01X0004646Y-014367D02*
G01X0005237Y-014367D01*
G54D11*
G01X0007298Y-013481D02*
G01X0006550Y-012733D01*
G54D10*
G01X0003213Y-012290D02*
G01X0002071Y-012290D01*
G01X0002071Y-012880D02*
G01X0002071Y-012290D01*
G01X0003213Y-012880D02*
G01X0003213Y-012290D01*
G01X0003213Y-012880D02*
G01X0002071Y-012880D01*
G54D12*
G01X0003439Y-009504D02*
G75*
G03X0001904Y-011040I0000000J-001535D01*
G01X0001904Y-014111D02*
G75*
G03X0003439Y-015646I0001535J0000000D01*
G01X0009660Y-015646D02*
G75*
G03X0011195Y-014111I0000000J0001535D01*
G01X0011195Y-011040D02*
G75*
G03X0009660Y-009504I-001535J0000000D01*
G01X0001904Y-014111D02*
G01X0001904Y-011040D01*
G01X0011195Y-014111D02*
G01X0011195Y-011040D01*
G01X0009699Y-015646D02*
G01X0003439Y-015646D01*
G01X0009699Y-009504D02*
G01X0003439Y-009504D01*
G54D13*
G01X0003479Y-012615D02*
G01X0005093Y-011000D01*
G01X0005093Y-011000D02*
G01X0006274Y-012181D01*
G01X0006274Y-012181D02*
G01X0006274Y-012772D01*
G01X0006274Y-012772D02*
G01X0004857Y-014189D01*
G01X0004857Y-014189D02*
G01X0003361Y-012733D01*
G01X0003361Y-012733D02*
G01X0003479Y-012615D01*
G01X0004776Y-012988D02*
G01X0004644Y-013120D01*
G01X0004644Y-013120D02*
G01X0004366Y-012842D01*
G01X0004723Y-012749D02*
G01X0004816Y-012656D01*
G01X0005002Y-012762D02*
G01X0004869Y-012895D01*
G01X0004869Y-012895D02*
G01X0004591Y-012617D01*
G01X0004591Y-012617D02*
G01X0004723Y-012484D01*
G01X0005121Y-012643D02*
G01X0004843Y-012365D01*
G01X0004843Y-012365D02*
G01X0004909Y-012298D01*
G01X0004909Y-012298D02*
G01X0004962Y-012272D01*
G01X0004962Y-012272D02*
G01X0005015Y-012272D01*
G01X0005015Y-012272D02*
G01X0005055Y-012285D01*
G01X0005055Y-012285D02*
G01X0005121Y-012325D01*
G01X0005121Y-012325D02*
G01X0005161Y-012365D01*
G01X0005161Y-012365D02*
G01X0005201Y-012431D01*
G01X0005201Y-012431D02*
G01X0005214Y-012471D01*
G01X0005214Y-012471D02*
G01X0005214Y-012524D01*
G01X0005214Y-012524D02*
G01X0005187Y-012577D01*
G01X0005187Y-012577D02*
G01X0005121Y-012643D01*
G01X0005545Y-012219D02*
G01X0005386Y-012378D01*
G01X0005466Y-012298D02*
G01X0005187Y-012020D01*
G01X0005187Y-012020D02*
G01X0005201Y-012086D01*
G01X0005201Y-012086D02*
G01X0005201Y-012139D01*
G01X0005201Y-012139D02*
G01X0005187Y-012179D01*
G01X0005159Y-015003D02*
G01X0004972Y-015134D01*
G01X0005159Y-015228D02*
G01X0004765Y-015228D01*
G01X0004765Y-015228D02*
G01X0004765Y-015078D01*
G01X0004765Y-015078D02*
G01X0004784Y-015041D01*
G01X0004784Y-015041D02*
G01X0004803Y-015022D01*
G01X0004803Y-015022D02*
G01X0004840Y-015003D01*
G01X0004840Y-015003D02*
G01X0004897Y-015003D01*
G01X0004897Y-015003D02*
G01X0004934Y-015022D01*
G01X0004934Y-015022D02*
G01X0004953Y-015041D01*
G01X0004953Y-015041D02*
G01X0004972Y-015078D01*
G01X0004972Y-015078D02*
G01X0004972Y-015228D01*
G01X0005159Y-014628D02*
G01X0005159Y-014853D01*
G01X0005159Y-014741D02*
G01X0004765Y-014741D01*
G01X0004765Y-014741D02*
G01X0004822Y-014778D01*
G01X0004822Y-014778D02*
G01X0004859Y-014816D01*
G01X0004859Y-014816D02*
G01X0004878Y-014853D01*
G01X0004024Y-012871D02*
G01X0003799Y-012871D01*
G01X0003912Y-012871D02*
G01X0003912Y-012478D01*
G01X0003912Y-012478D02*
G01X0003874Y-012534D01*
G01X0003874Y-012534D02*
G01X0003837Y-012571D01*
G01X0003837Y-012571D02*
G01X0003799Y-012590D01*
G01X0005745Y-014013D02*
G01X0005745Y-013619D01*
G01X0005745Y-013619D02*
G01X0005895Y-013619D01*
G01X0005895Y-013619D02*
G01X0005933Y-013638D01*
G01X0005933Y-013638D02*
G01X0005952Y-013657D01*
G01X0005952Y-013657D02*
G01X0005970Y-013694D01*
G01X0005970Y-013694D02*
G01X0005970Y-013751D01*
G01X0005970Y-013751D02*
G01X0005952Y-013788D01*
G01X0005952Y-013788D02*
G01X0005933Y-013807D01*
G01X0005933Y-013807D02*
G01X0005895Y-013826D01*
G01X0005895Y-013826D02*
G01X0005745Y-013826D01*
G01X0006195Y-014013D02*
G01X0006158Y-013994D01*
G01X0006158Y-013994D02*
G01X0006139Y-013976D01*
G01X0006139Y-013976D02*
G01X0006120Y-013938D01*
G01X0006120Y-013938D02*
G01X0006120Y-013826D01*
G01X0006120Y-013826D02*
G01X0006139Y-013788D01*
G01X0006139Y-013788D02*
G01X0006158Y-013769D01*
G01X0006158Y-013769D02*
G01X0006195Y-013751D01*
G01X0006195Y-013751D02*
G01X0006252Y-013751D01*
G01X0006252Y-013751D02*
G01X0006289Y-013769D01*
G01X0006289Y-013769D02*
G01X0006308Y-013788D01*
G01X0006308Y-013788D02*
G01X0006327Y-013826D01*
G01X0006327Y-013826D02*
G01X0006327Y-013938D01*
G01X0006327Y-013938D02*
G01X0006308Y-013976D01*
G01X0006308Y-013976D02*
G01X0006289Y-013994D01*
G01X0006289Y-013994D02*
G01X0006252Y-014013D01*
G01X0006252Y-014013D02*
G01X0006195Y-014013D01*
G01X0006551Y-014013D02*
G01X0006514Y-013994D01*
G01X0006514Y-013994D02*
G01X0006495Y-013957D01*
G01X0006495Y-013957D02*
G01X0006495Y-013619D01*
G01X0006870Y-014013D02*
G01X0006870Y-013807D01*
G01X0006870Y-013807D02*
G01X0006851Y-013769D01*
G01X0006851Y-013769D02*
G01X0006814Y-013751D01*
G01X0006814Y-013751D02*
G01X0006739Y-013751D01*
G01X0006739Y-013751D02*
G01X0006701Y-013769D01*
G01X0006870Y-013994D02*
G01X0006833Y-014013D01*
G01X0006833Y-014013D02*
G01X0006739Y-014013D01*
G01X0006739Y-014013D02*
G01X0006701Y-013994D01*
G01X0006701Y-013994D02*
G01X0006683Y-013957D01*
G01X0006683Y-013957D02*
G01X0006683Y-013919D01*
G01X0006683Y-013919D02*
G01X0006701Y-013882D01*
G01X0006701Y-013882D02*
G01X0006739Y-013863D01*
G01X0006739Y-013863D02*
G01X0006833Y-013863D01*
G01X0006833Y-013863D02*
G01X0006870Y-013844D01*
G01X0007058Y-014013D02*
G01X0007058Y-013751D01*
G01X0007058Y-013826D02*
G01X0007076Y-013788D01*
G01X0007076Y-013788D02*
G01X0007095Y-013769D01*
G01X0007095Y-013769D02*
G01X0007133Y-013751D01*
G01X0007133Y-013751D02*
G01X0007170Y-013751D01*
G01X0007301Y-014013D02*
G01X0007301Y-013751D01*
G01X0007301Y-013619D02*
G01X0007283Y-013638D01*
G01X0007283Y-013638D02*
G01X0007301Y-013657D01*
G01X0007301Y-013657D02*
G01X0007320Y-013638D01*
G01X0007320Y-013638D02*
G01X0007301Y-013619D01*
G01X0007301Y-013619D02*
G01X0007301Y-013657D01*
G01X0007433Y-013751D02*
G01X0007583Y-013751D01*
G01X0007489Y-013619D02*
G01X0007489Y-013957D01*
G01X0007489Y-013957D02*
G01X0007508Y-013994D01*
G01X0007508Y-013994D02*
G01X0007545Y-014013D01*
G01X0007545Y-014013D02*
G01X0007583Y-014013D01*
G01X0007676Y-013751D02*
G01X0007770Y-014013D01*
G01X0007864Y-013751D02*
G01X0007770Y-014013D01*
G01X0007770Y-014013D02*
G01X0007733Y-014107D01*
G01X0007733Y-014107D02*
G01X0007714Y-014126D01*
G01X0007714Y-014126D02*
G01X0007676Y-014144D01*
G01X0006195Y-014623D02*
G01X0006195Y-014230D01*
G01X0006195Y-014230D02*
G01X0006327Y-014511D01*
G01X0006327Y-014511D02*
G01X0006458Y-014230D01*
G01X0006458Y-014230D02*
G01X0006458Y-014623D01*
G01X0006814Y-014623D02*
G01X0006814Y-014417D01*
G01X0006814Y-014417D02*
G01X0006795Y-014380D01*
G01X0006795Y-014380D02*
G01X0006758Y-014361D01*
G01X0006758Y-014361D02*
G01X0006683Y-014361D01*
G01X0006683Y-014361D02*
G01X0006645Y-014380D01*
G01X0006814Y-014605D02*
G01X0006776Y-014623D01*
G01X0006776Y-014623D02*
G01X0006683Y-014623D01*
G01X0006683Y-014623D02*
G01X0006645Y-014605D01*
G01X0006645Y-014605D02*
G01X0006626Y-014567D01*
G01X0006626Y-014567D02*
G01X0006626Y-014530D01*
G01X0006626Y-014530D02*
G01X0006645Y-014492D01*
G01X0006645Y-014492D02*
G01X0006683Y-014473D01*
G01X0006683Y-014473D02*
G01X0006776Y-014473D01*
G01X0006776Y-014473D02*
G01X0006814Y-014455D01*
G01X0007001Y-014623D02*
G01X0007001Y-014361D01*
G01X0007001Y-014436D02*
G01X0007020Y-014398D01*
G01X0007020Y-014398D02*
G01X0007039Y-014380D01*
G01X0007039Y-014380D02*
G01X0007076Y-014361D01*
G01X0007076Y-014361D02*
G01X0007114Y-014361D01*
G01X0007245Y-014623D02*
G01X0007245Y-014230D01*
G01X0007283Y-014473D02*
G01X0007395Y-014623D01*
G01X0007395Y-014361D02*
G01X0007245Y-014511D01*
G01X0002626Y-012735D02*
G01X0002607Y-012754D01*
G01X0002607Y-012754D02*
G01X0002551Y-012773D01*
G01X0002551Y-012773D02*
G01X0002513Y-012773D01*
G01X0002513Y-012773D02*
G01X0002457Y-012754D01*
G01X0002457Y-012754D02*
G01X0002419Y-012717D01*
G01X0002419Y-012717D02*
G01X0002401Y-012679D01*
G01X0002401Y-012679D02*
G01X0002382Y-012604D01*
G01X0002382Y-012604D02*
G01X0002382Y-012548D01*
G01X0002382Y-012548D02*
G01X0002401Y-012473D01*
G01X0002401Y-012473D02*
G01X0002419Y-012436D01*
G01X0002419Y-012436D02*
G01X0002457Y-012398D01*
G01X0002457Y-012398D02*
G01X0002513Y-012379D01*
G01X0002513Y-012379D02*
G01X0002551Y-012379D01*
G01X0002551Y-012379D02*
G01X0002607Y-012398D01*
G01X0002607Y-012398D02*
G01X0002626Y-012417D01*
G01X0003001Y-012773D02*
G01X0002776Y-012773D01*
G01X0002888Y-012773D02*
G01X0002888Y-012379D01*
G01X0002888Y-012379D02*
G01X0002851Y-012436D01*
G01X0002851Y-012436D02*
G01X0002813Y-012473D01*
G01X0002813Y-012473D02*
G01X0002776Y-012492D01*
G01X0000000Y0000000D02*
G54D12*
G01X0003439Y-009504D02*
G75*
G03X0001904Y-011040I0000000J-001535D01*
G01X0001904Y-014111D02*
G75*
G03X0003439Y-015646I0001535J0000000D01*
G01X0009660Y-015646D02*
G75*
G03X0011195Y-014111I0000000J0001535D01*
G01X0011195Y-011040D02*
G75*
G03X0009660Y-009504I-001535J0000000D01*
G01X0001904Y-014111D02*
G01X0001904Y-011040D01*
G01X0011195Y-014111D02*
G01X0011195Y-011040D01*
G01X0009660Y-015646D02*
G01X0003439Y-015646D01*
G01X0009660Y-009504D02*
G01X0003439Y-009504D01*
M02*
