%TF.GenerationSoftware,KiCad,Pcbnew,4.0.5-e0-6337~49~ubuntu16.04.1*%
%TF.CreationDate,2017-01-20T21:28:30-08:00*%
%TF.ProjectId,3x4-555-Timer-8DIP-Breakout,3378342D3535352D54696D65722D3844,1.0*%
%TF.FileFunction,Copper,L1,Top,Signal*%
%FSLAX46Y46*%
G04 Gerber Fmt 4.6, Leading zero omitted, Abs format (unit mm)*
G04 Created by KiCad (PCBNEW 4.0.5-e0-6337~49~ubuntu16.04.1) date Fri Jan 20 21:28:30 2017*
%MOMM*%
%LPD*%
G01*
G04 APERTURE LIST*
%ADD10C,0.350000*%
%ADD11C,0.406400*%
%ADD12O,1.600000X1.600000*%
%ADD13C,7.000000*%
%ADD14C,6.000000*%
%ADD15C,0.350000*%
G04 APERTURE END LIST*
D10*
D11*
X134921720Y-107502960D02*
X142921720Y-107502960D01*
X138921720Y-96502960D02*
X134921720Y-99502960D01*
X134921720Y-92002960D02*
X138921720Y-94002960D01*
X138921720Y-87502960D02*
X134921720Y-83502960D01*
X138921720Y-91502960D02*
X138921720Y-87502960D01*
X142921720Y-83252960D02*
X150921720Y-83252960D01*
X146421720Y-90002960D02*
X146421720Y-83252960D01*
X146421720Y-94002960D02*
X150921720Y-91752960D01*
X146421720Y-96502960D02*
X150921720Y-99502960D01*
X146421720Y-103502960D02*
X151171720Y-107502960D01*
X146421720Y-99002960D02*
X146421720Y-103502960D01*
X138921720Y-99252960D02*
X138921720Y-107502960D01*
X146421720Y-90002960D02*
X146421720Y-91502960D01*
D12*
X138921720Y-91502960D03*
X138921720Y-94042960D03*
X138921720Y-96582960D03*
X138921720Y-99122960D03*
X146541720Y-99122960D03*
X146541720Y-96582960D03*
X146541720Y-94042960D03*
X146541720Y-91502960D03*
D13*
X134921720Y-107502960D03*
D14*
X134921720Y-91502960D03*
X134921720Y-99502960D03*
D13*
X142921720Y-107502960D03*
X134921720Y-83502960D03*
D14*
X150921720Y-91502960D03*
D13*
X150921720Y-107502960D03*
D14*
X150921720Y-99502960D03*
D13*
X150921720Y-83502960D03*
X142921720Y-83502960D03*
D15*
X138921720Y-91502960D03*
X138921720Y-94042960D03*
X138921720Y-96582960D03*
X138921720Y-99122960D03*
X146541720Y-99122960D03*
X146541720Y-96582960D03*
X146541720Y-94042960D03*
X146541720Y-91502960D03*
X134921720Y-107502960D03*
X142921720Y-91502960D03*
X134921720Y-91502960D03*
X134921720Y-99502960D03*
X142921720Y-99502960D03*
X142921720Y-107502960D03*
X134921720Y-83502960D03*
X150921720Y-91502960D03*
X150921720Y-107502960D03*
X150921720Y-99502960D03*
X150921720Y-83502960D03*
X142921720Y-83502960D03*
M02*
