%TF.GenerationSoftware,KiCad,Pcbnew,4.0.5-e0-6337~49~ubuntu16.04.1*%
%TF.CreationDate,2017-01-20T21:28:30-08:00*%
%TF.ProjectId,3x4-555-Timer-8DIP-Breakout,3378342D3535352D54696D65722D3844,1.0*%
%TF.FileFunction,Other,Fab,Top*%
%FSLAX46Y46*%
G04 Gerber Fmt 4.6, Leading zero omitted, Abs format (unit mm)*
G04 Created by KiCad (PCBNEW 4.0.5-e0-6337~49~ubuntu16.04.1) date Fri Jan 20 21:28:30 2017*
%MOMM*%
%LPD*%
G01*
G04 APERTURE LIST*
%ADD10C,0.350000*%
%ADD11C,0.100000*%
%ADD12C,0.050000*%
%ADD13C,0.150000*%
G04 APERTURE END LIST*
D10*
D11*
X141906720Y-89087960D02*
G75*
G03X144446720Y-89087960I1270000J0D01*
G01*
X146986720Y-89087960D02*
X138731720Y-89087960D01*
X146986720Y-101787960D02*
X146986720Y-89087960D01*
X138731720Y-101787960D02*
X146986720Y-101787960D01*
X138731720Y-89087960D02*
X138731720Y-101787960D01*
D12*
X134921720Y-111302960D02*
X150921720Y-111302960D01*
X131121720Y-83502960D02*
X131121720Y-107502960D01*
X154721720Y-83502960D02*
X154721720Y-107502960D01*
X134921720Y-79702960D02*
X150921720Y-79702960D01*
X134921720Y-79702960D02*
G75*
G03X131121720Y-83502960I0J-3800000D01*
G01*
X131121720Y-107502960D02*
G75*
G03X134921720Y-111302960I3800000J0D01*
G01*
X150921720Y-111302960D02*
G75*
G03X154721720Y-107502960I0J3800000D01*
G01*
X154721720Y-83502960D02*
G75*
G03X150921720Y-79702960I-3800000J0D01*
G01*
D13*
X142409815Y-94955341D02*
X142409815Y-95764865D01*
X142457434Y-95860103D01*
X142505053Y-95907722D01*
X142600291Y-95955341D01*
X142790768Y-95955341D01*
X142886006Y-95907722D01*
X142933625Y-95860103D01*
X142981244Y-95764865D01*
X142981244Y-94955341D01*
X143981244Y-95955341D02*
X143409815Y-95955341D01*
X143695529Y-95955341D02*
X143695529Y-94955341D01*
X143600291Y-95098198D01*
X143505053Y-95193436D01*
X143409815Y-95241055D01*
M02*
