%TF.GenerationSoftware,KiCad,Pcbnew,4.0.5-e0-6337~49~ubuntu16.04.1*%
%TF.CreationDate,2017-04-22T09:04:31-07:00*%
%TF.ProjectId,3x4-555-Timer-8DIP-Breakout,3378342D3535352D54696D65722D3844,v1.1*%
%TF.FileFunction,Copper,L2,Bot,Signal*%
%FSLAX46Y46*%
G04 Gerber Fmt 4.6, Leading zero omitted, Abs format (unit mm)*
G04 Created by KiCad (PCBNEW 4.0.5-e0-6337~49~ubuntu16.04.1) date Sat Apr 22 09:04:31 2017*
%MOMM*%
%LPD*%
G01*
G04 APERTURE LIST*
%ADD10C,0.350000*%
%ADD11C,6.800000*%
%ADD12C,7.000000*%
%ADD13O,1.600000X1.600000*%
%ADD14C,7.000000*%
%ADD15C,6.000000*%
%ADD16C,0.254000*%
%ADD17C,0.350000*%
G04 APERTURE END LIST*
D10*
D11*
X22243280Y-58072560D02*
X22243280Y-58580560D01*
X22243280Y-65997360D02*
X22243280Y-66505360D01*
X5530080Y-65997360D02*
X5530080Y-66505360D01*
X5377680Y-57970960D02*
X5377680Y-58478960D01*
D12*
X5936480Y-74277760D02*
X14186480Y-74277760D01*
X13810480Y-50274760D02*
X22060480Y-50274760D01*
D13*
X10063480Y-58277760D03*
X10063480Y-60817760D03*
X10063480Y-63357760D03*
X10063480Y-65897760D03*
X17683480Y-65897760D03*
X17683480Y-63357760D03*
X17683480Y-60817760D03*
X17683480Y-58277760D03*
D14*
X5936480Y-74277760D03*
D15*
X5936480Y-58277760D03*
X5936480Y-66277760D03*
D14*
X13936480Y-74277760D03*
X5936480Y-50277760D03*
D15*
X21936480Y-58277760D03*
D14*
X21936480Y-74277760D03*
D15*
X21936480Y-66277760D03*
D14*
X21936480Y-50277760D03*
X13936480Y-50277760D03*
D16*
X9936480Y-60817760D02*
X5936480Y-64817760D01*
X5936480Y-64817760D02*
X5936480Y-66277760D01*
X9936480Y-63357760D02*
X15808598Y-63357760D01*
X17167597Y-64716759D02*
X20375479Y-64716759D01*
X15808598Y-63357760D02*
X17167597Y-64716759D01*
X20375479Y-64716759D02*
X21936480Y-66277760D01*
X17556480Y-65897760D02*
X17556480Y-69897760D01*
X17556480Y-69897760D02*
X21936480Y-74277760D01*
X16756481Y-62557761D02*
X17556480Y-63357760D01*
X13967399Y-62557761D02*
X16756481Y-62557761D01*
X11046397Y-59636759D02*
X13967399Y-62557761D01*
X7295479Y-59636759D02*
X11046397Y-59636759D01*
X5936480Y-58277760D02*
X7295479Y-59636759D01*
X13936480Y-50277760D02*
X21936480Y-50277760D01*
X17556480Y-50337720D02*
X17496520Y-50277760D01*
X17496520Y-50277760D02*
X13936480Y-50277760D01*
X17556480Y-58277760D02*
X17556480Y-50337720D01*
D17*
X10063480Y-58277760D03*
X10063480Y-60817760D03*
X10063480Y-63357760D03*
X10063480Y-65897760D03*
X17683480Y-65897760D03*
X17683480Y-63357760D03*
X17683480Y-60817760D03*
X17683480Y-58277760D03*
X5936480Y-74277760D03*
X14063480Y-58277760D03*
X5936480Y-58277760D03*
X5936480Y-66277760D03*
X14063480Y-66277760D03*
X13936480Y-74277760D03*
X5936480Y-50277760D03*
X21936480Y-58277760D03*
X21936480Y-74277760D03*
X21936480Y-66277760D03*
X21936480Y-50277760D03*
X13936480Y-50277760D03*
M02*
