%TF.GenerationSoftware,KiCad,Pcbnew,4.0.5-e0-6337~49~ubuntu16.04.1*%
%TF.CreationDate,2017-02-14T00:29:16-08:00*%
%TF.ProjectId,3x4-555-Timer-8DIP-Breakout,3378342D3535352D54696D65722D3844,1.0*%
%TF.FileFunction,Legend,Top*%
%FSLAX46Y46*%
G04 Gerber Fmt 4.6, Leading zero omitted, Abs format (unit mm)*
G04 Created by KiCad (PCBNEW 4.0.5-e0-6337~49~ubuntu16.04.1) date Tue Feb 14 00:29:16 2017*
%MOMM*%
%LPD*%
G01*
G04 APERTURE LIST*
%ADD10C,0.350000*%
%ADD11C,0.200000*%
%ADD12C,0.400000*%
%ADD13C,0.406400*%
%ADD14C,0.150000*%
%ADD15O,1.752400X1.752400*%
%ADD16C,7.152400*%
%ADD17C,5.132400*%
%ADD18C,6.152400*%
G04 APERTURE END LIST*
D10*
D11*
X28383537Y-68903297D02*
X29069251Y-68903297D01*
X28726394Y-70103297D02*
X28726394Y-68903297D01*
X29469251Y-70103297D02*
X29469251Y-68903297D01*
X30040680Y-70103297D02*
X30040680Y-68903297D01*
X30440680Y-69760440D01*
X30840680Y-68903297D01*
X30840680Y-70103297D01*
X31412109Y-69474726D02*
X31812109Y-69474726D01*
X31983538Y-70103297D02*
X31412109Y-70103297D01*
X31412109Y-68903297D01*
X31983538Y-68903297D01*
X33183538Y-70103297D02*
X32783538Y-69531869D01*
X32497823Y-70103297D02*
X32497823Y-68903297D01*
X32954966Y-68903297D01*
X33069252Y-68960440D01*
X33126395Y-69017583D01*
X33183538Y-69131869D01*
X33183538Y-69303297D01*
X33126395Y-69417583D01*
X33069252Y-69474726D01*
X32954966Y-69531869D01*
X32497823Y-69531869D01*
D12*
X34769520Y-58099960D02*
X34769520Y-49921160D01*
X34617120Y-60589160D02*
X37817520Y-58760360D01*
X34363120Y-63230760D02*
X37106320Y-65059560D01*
X34312320Y-70088760D02*
X37969920Y-73136760D01*
X34312320Y-65872360D02*
X34312320Y-70088760D01*
X26692320Y-65821560D02*
X26692320Y-74051160D01*
X26692320Y-63027560D02*
X24507920Y-64957960D01*
X26692320Y-60589160D02*
X23695120Y-59166760D01*
X26692320Y-54188360D02*
X26692320Y-58303160D01*
X22780720Y-50327560D02*
X26692320Y-54137560D01*
D13*
X22780720Y-74152760D02*
X31030720Y-74152760D01*
D14*
X26915720Y-55857760D02*
X26915720Y-57127760D01*
X34265720Y-55857760D02*
X34265720Y-57127760D01*
X34265720Y-68067760D02*
X34265720Y-66797760D01*
X26915720Y-68067760D02*
X26915720Y-66797760D01*
X26915720Y-55857760D02*
X34265720Y-55857760D01*
X26915720Y-68067760D02*
X34265720Y-68067760D01*
D13*
X30780720Y-49902760D02*
X39030720Y-49902760D01*
D11*
X30100378Y-54084937D02*
X29528949Y-54084937D01*
X29471806Y-54656366D01*
X29528949Y-54599223D01*
X29643235Y-54542080D01*
X29928949Y-54542080D01*
X30043235Y-54599223D01*
X30100378Y-54656366D01*
X30157521Y-54770651D01*
X30157521Y-55056366D01*
X30100378Y-55170651D01*
X30043235Y-55227794D01*
X29928949Y-55284937D01*
X29643235Y-55284937D01*
X29528949Y-55227794D01*
X29471806Y-55170651D01*
X31243235Y-54084937D02*
X30671806Y-54084937D01*
X30614663Y-54656366D01*
X30671806Y-54599223D01*
X30786092Y-54542080D01*
X31071806Y-54542080D01*
X31186092Y-54599223D01*
X31243235Y-54656366D01*
X31300378Y-54770651D01*
X31300378Y-55056366D01*
X31243235Y-55170651D01*
X31186092Y-55227794D01*
X31071806Y-55284937D01*
X30786092Y-55284937D01*
X30671806Y-55227794D01*
X30614663Y-55170651D01*
X32386092Y-54084937D02*
X31814663Y-54084937D01*
X31757520Y-54656366D01*
X31814663Y-54599223D01*
X31928949Y-54542080D01*
X32214663Y-54542080D01*
X32328949Y-54599223D01*
X32386092Y-54656366D01*
X32443235Y-54770651D01*
X32443235Y-55056366D01*
X32386092Y-55170651D01*
X32328949Y-55227794D01*
X32214663Y-55284937D01*
X31928949Y-55284937D01*
X31814663Y-55227794D01*
X31757520Y-55170651D01*
D14*
X20374035Y-53929541D02*
X19802606Y-53929541D01*
X20088320Y-53929541D02*
X20088320Y-52929541D01*
X19993082Y-53072398D01*
X19897844Y-53167636D01*
X19802606Y-53215255D01*
X34775882Y-47922512D02*
X34680644Y-47874893D01*
X34633025Y-47827274D01*
X34585406Y-47732036D01*
X34585406Y-47684417D01*
X34633025Y-47589179D01*
X34680644Y-47541560D01*
X34775882Y-47493941D01*
X34966359Y-47493941D01*
X35061597Y-47541560D01*
X35109216Y-47589179D01*
X35156835Y-47684417D01*
X35156835Y-47732036D01*
X35109216Y-47827274D01*
X35061597Y-47874893D01*
X34966359Y-47922512D01*
X34775882Y-47922512D01*
X34680644Y-47970131D01*
X34633025Y-48017750D01*
X34585406Y-48112989D01*
X34585406Y-48303465D01*
X34633025Y-48398703D01*
X34680644Y-48446322D01*
X34775882Y-48493941D01*
X34966359Y-48493941D01*
X35061597Y-48446322D01*
X35109216Y-48398703D01*
X35156835Y-48303465D01*
X35156835Y-48112989D01*
X35109216Y-48017750D01*
X35061597Y-47970131D01*
X34966359Y-47922512D01*
X41243387Y-54047141D02*
X41910054Y-54047141D01*
X41481482Y-55047141D01*
X41817997Y-61971941D02*
X41627520Y-61971941D01*
X41532282Y-62019560D01*
X41484663Y-62067179D01*
X41389425Y-62210036D01*
X41341806Y-62400512D01*
X41341806Y-62781465D01*
X41389425Y-62876703D01*
X41437044Y-62924322D01*
X41532282Y-62971941D01*
X41722759Y-62971941D01*
X41817997Y-62924322D01*
X41865616Y-62876703D01*
X41913235Y-62781465D01*
X41913235Y-62543370D01*
X41865616Y-62448131D01*
X41817997Y-62400512D01*
X41722759Y-62352893D01*
X41532282Y-62352893D01*
X41437044Y-62400512D01*
X41389425Y-62448131D01*
X41341806Y-62543370D01*
X41967216Y-70303141D02*
X41491025Y-70303141D01*
X41443406Y-70779331D01*
X41491025Y-70731712D01*
X41586263Y-70684093D01*
X41824359Y-70684093D01*
X41919597Y-70731712D01*
X41967216Y-70779331D01*
X42014835Y-70874570D01*
X42014835Y-71112665D01*
X41967216Y-71207903D01*
X41919597Y-71255522D01*
X41824359Y-71303141D01*
X41586263Y-71303141D01*
X41491025Y-71255522D01*
X41443406Y-71207903D01*
X26971197Y-75665674D02*
X26971197Y-76332341D01*
X26733101Y-75284722D02*
X26495006Y-75999008D01*
X27114054Y-75999008D01*
X19701006Y-61457579D02*
X19748625Y-61409960D01*
X19843863Y-61362341D01*
X20081959Y-61362341D01*
X20177197Y-61409960D01*
X20224816Y-61457579D01*
X20272435Y-61552817D01*
X20272435Y-61648055D01*
X20224816Y-61790912D01*
X19653387Y-62362341D01*
X20272435Y-62362341D01*
X19653387Y-69337941D02*
X20272435Y-69337941D01*
X19939101Y-69718893D01*
X20081959Y-69718893D01*
X20177197Y-69766512D01*
X20224816Y-69814131D01*
X20272435Y-69909370D01*
X20272435Y-70147465D01*
X20224816Y-70242703D01*
X20177197Y-70290322D01*
X20081959Y-70337941D01*
X19796244Y-70337941D01*
X19701006Y-70290322D01*
X19653387Y-70242703D01*
%LPC*%
D15*
X26780720Y-58152760D03*
X26780720Y-60692760D03*
X26780720Y-63232760D03*
X26780720Y-65772760D03*
X34400720Y-65772760D03*
X34400720Y-63232760D03*
X34400720Y-60692760D03*
X34400720Y-58152760D03*
D16*
X22780720Y-74152760D03*
D17*
X30780720Y-58152760D03*
D18*
X22780720Y-58152760D03*
X22780720Y-66152760D03*
D17*
X30780720Y-66152760D03*
D16*
X30780720Y-74152760D03*
X22780720Y-50152760D03*
D18*
X38780720Y-58152760D03*
D16*
X38780720Y-74152760D03*
D18*
X38780720Y-66152760D03*
D16*
X38780720Y-50152760D03*
X30780720Y-50152760D03*
M02*
