M48
;DRILL file {KiCad 4.0.5-e0-6337~49~ubuntu16.04.1} date Tue Feb 14 00:29:16 2017
;FORMAT={-:-/ absolute / metric / decimal}
FMAT,2
METRIC,TZ
T1C0.800
T2C4.980
T3C4.980
%
G90
G05
M71
T1
X26.781Y-58.153
X26.781Y-60.693
X26.781Y-63.233
X26.781Y-65.773
X34.401Y-58.153
X34.401Y-60.693
X34.401Y-63.233
X34.401Y-65.773
T2
X22.781Y-50.153
X22.781Y-58.153
X22.781Y-66.153
X22.781Y-74.153
X30.781Y-50.153
X30.781Y-74.153
X38.781Y-50.153
X38.781Y-58.153
X38.781Y-66.153
X38.781Y-74.153
T3
X30.781Y-58.153
X30.781Y-66.153
T0
M30
