%TF.GenerationSoftware,KiCad,Pcbnew,4.0.5-e0-6337~49~ubuntu16.04.1*%
%TF.CreationDate,2017-02-14T00:29:16-08:00*%
%TF.ProjectId,3x4-555-Timer-8DIP-Breakout,3378342D3535352D54696D65722D3844,1.0*%
%TF.FileFunction,Soldermask,Top*%
%FSLAX46Y46*%
G04 Gerber Fmt 4.6, Leading zero omitted, Abs format (unit mm)*
G04 Created by KiCad (PCBNEW 4.0.5-e0-6337~49~ubuntu16.04.1) date Tue Feb 14 00:29:16 2017*
%MOMM*%
%LPD*%
G01*
G04 APERTURE LIST*
%ADD10C,0.350000*%
G04 APERTURE END LIST*
D10*
G36*
X39156347Y-70578939D02*
X39843345Y-70719960D01*
X40489881Y-70991739D01*
X41071309Y-71383917D01*
X41565489Y-71881559D01*
X41953597Y-72465709D01*
X42220853Y-73114120D01*
X42357006Y-73801746D01*
X42357006Y-73801751D01*
X42357074Y-73802095D01*
X42345888Y-74603145D01*
X42345812Y-74603479D01*
X42345812Y-74603492D01*
X42190511Y-75287050D01*
X41905257Y-75927742D01*
X41500986Y-76500830D01*
X40993103Y-76984482D01*
X40400950Y-77360274D01*
X39747085Y-77613891D01*
X39056412Y-77735676D01*
X38355235Y-77720987D01*
X37670264Y-77570387D01*
X37027591Y-77289610D01*
X36451699Y-76889354D01*
X35964514Y-76384860D01*
X35584598Y-75795344D01*
X35326419Y-75143260D01*
X35199817Y-74453459D01*
X35209608Y-73752197D01*
X35355424Y-73066191D01*
X35631705Y-72421576D01*
X36027935Y-71842898D01*
X36529014Y-71352205D01*
X37115863Y-70968182D01*
X37766125Y-70705458D01*
X38455029Y-70574044D01*
X39156347Y-70578939D01*
X39156347Y-70578939D01*
G37*
G36*
X23156347Y-70578939D02*
X23843345Y-70719960D01*
X24489881Y-70991739D01*
X25071309Y-71383917D01*
X25565489Y-71881559D01*
X25953597Y-72465709D01*
X26220853Y-73114120D01*
X26357006Y-73801746D01*
X26357006Y-73801751D01*
X26357074Y-73802095D01*
X26345888Y-74603145D01*
X26345812Y-74603479D01*
X26345812Y-74603492D01*
X26190511Y-75287050D01*
X25905257Y-75927742D01*
X25500986Y-76500830D01*
X24993103Y-76984482D01*
X24400950Y-77360274D01*
X23747085Y-77613891D01*
X23056412Y-77735676D01*
X22355235Y-77720987D01*
X21670264Y-77570387D01*
X21027591Y-77289610D01*
X20451699Y-76889354D01*
X19964514Y-76384860D01*
X19584598Y-75795344D01*
X19326419Y-75143260D01*
X19199817Y-74453459D01*
X19209608Y-73752197D01*
X19355424Y-73066191D01*
X19631705Y-72421576D01*
X20027935Y-71842898D01*
X20529014Y-71352205D01*
X21115863Y-70968182D01*
X21766125Y-70705458D01*
X22455029Y-70574044D01*
X23156347Y-70578939D01*
X23156347Y-70578939D01*
G37*
G36*
X31156347Y-70578939D02*
X31843345Y-70719960D01*
X32489881Y-70991739D01*
X33071309Y-71383917D01*
X33565489Y-71881559D01*
X33953597Y-72465709D01*
X34220853Y-73114120D01*
X34357006Y-73801746D01*
X34357006Y-73801751D01*
X34357074Y-73802095D01*
X34345888Y-74603145D01*
X34345812Y-74603479D01*
X34345812Y-74603492D01*
X34190511Y-75287050D01*
X33905257Y-75927742D01*
X33500986Y-76500830D01*
X32993103Y-76984482D01*
X32400950Y-77360274D01*
X31747085Y-77613891D01*
X31056412Y-77735676D01*
X30355235Y-77720987D01*
X29670264Y-77570387D01*
X29027591Y-77289610D01*
X28451699Y-76889354D01*
X27964514Y-76384860D01*
X27584598Y-75795344D01*
X27326419Y-75143260D01*
X27199817Y-74453459D01*
X27209608Y-73752197D01*
X27355424Y-73066191D01*
X27631705Y-72421576D01*
X28027935Y-71842898D01*
X28529014Y-71352205D01*
X29115863Y-70968182D01*
X29766125Y-70705458D01*
X30455029Y-70574044D01*
X31156347Y-70578939D01*
X31156347Y-70578939D01*
G37*
G36*
X23103830Y-63078607D02*
X23694775Y-63199911D01*
X24250918Y-63433692D01*
X24751054Y-63771038D01*
X25176141Y-64199103D01*
X25509986Y-64701581D01*
X25739876Y-65259336D01*
X25814261Y-65635004D01*
X25818983Y-65648497D01*
X25827277Y-65660139D01*
X25838486Y-65669010D01*
X25851723Y-65674408D01*
X25865939Y-65675903D01*
X25880009Y-65673380D01*
X25892819Y-65667036D01*
X25903355Y-65657374D01*
X25910781Y-65645160D01*
X25914616Y-65630446D01*
X25918170Y-65596623D01*
X25918172Y-65596618D01*
X25918176Y-65596576D01*
X25968744Y-65433219D01*
X26050077Y-65282795D01*
X26159080Y-65151034D01*
X26291598Y-65042954D01*
X26442586Y-64962673D01*
X26606292Y-64913247D01*
X26776480Y-64896560D01*
X26784996Y-64896560D01*
X26789677Y-64896593D01*
X26797194Y-64896645D01*
X26967132Y-64915707D01*
X27130132Y-64967414D01*
X27279984Y-65049796D01*
X27410981Y-65159715D01*
X27518133Y-65292985D01*
X27597358Y-65444530D01*
X27645640Y-65608576D01*
X27645644Y-65608618D01*
X27645645Y-65608622D01*
X27660026Y-65766643D01*
X27661139Y-65778877D01*
X27643264Y-65948944D01*
X27592696Y-66112301D01*
X27511363Y-66262725D01*
X27402360Y-66394486D01*
X27269842Y-66502566D01*
X27118854Y-66582847D01*
X26955148Y-66632273D01*
X26784960Y-66648960D01*
X26776444Y-66648960D01*
X26771763Y-66648927D01*
X26764246Y-66648875D01*
X26594308Y-66629813D01*
X26431308Y-66578106D01*
X26281456Y-66495724D01*
X26150459Y-66385805D01*
X26043307Y-66252535D01*
X25964082Y-66100990D01*
X25953317Y-66064413D01*
X25947413Y-66051451D01*
X25938098Y-66040608D01*
X25926131Y-66032789D01*
X25912460Y-66028614D01*
X25898166Y-66028413D01*
X25884383Y-66032201D01*
X25872201Y-66039680D01*
X25862584Y-66050257D01*
X25856295Y-66063094D01*
X25853889Y-66077620D01*
X25847430Y-66540176D01*
X25847353Y-66540514D01*
X25847353Y-66540522D01*
X25713777Y-67128461D01*
X25468405Y-67679576D01*
X25120657Y-68172538D01*
X24683782Y-68588569D01*
X24174420Y-68911821D01*
X23611974Y-69129979D01*
X23017867Y-69234736D01*
X22414723Y-69222102D01*
X21825520Y-69092557D01*
X21272702Y-68851037D01*
X20777327Y-68506742D01*
X20358257Y-68072783D01*
X20031458Y-67565690D01*
X19809376Y-67004774D01*
X19700475Y-66411418D01*
X19708897Y-65808201D01*
X19834326Y-65218107D01*
X20071979Y-64663618D01*
X20412811Y-64165848D01*
X20843832Y-63743760D01*
X21348633Y-63413428D01*
X21907979Y-63187437D01*
X22500565Y-63074396D01*
X23103830Y-63078607D01*
X23103830Y-63078607D01*
G37*
G36*
X39103830Y-63078607D02*
X39694775Y-63199911D01*
X40250918Y-63433692D01*
X40751054Y-63771038D01*
X41176141Y-64199103D01*
X41509986Y-64701581D01*
X41739876Y-65259336D01*
X41856984Y-65850774D01*
X41856984Y-65850784D01*
X41857051Y-65851123D01*
X41847430Y-66540176D01*
X41847353Y-66540514D01*
X41847353Y-66540522D01*
X41713777Y-67128461D01*
X41468405Y-67679576D01*
X41120657Y-68172538D01*
X40683782Y-68588569D01*
X40174420Y-68911821D01*
X39611974Y-69129979D01*
X39017867Y-69234736D01*
X38414723Y-69222102D01*
X37825520Y-69092557D01*
X37272702Y-68851037D01*
X36777327Y-68506742D01*
X36358257Y-68072783D01*
X36031458Y-67565690D01*
X35809376Y-67004774D01*
X35700475Y-66411418D01*
X35708897Y-65808201D01*
X35834326Y-65218107D01*
X36071979Y-64663618D01*
X36412811Y-64165848D01*
X36843832Y-63743760D01*
X37348633Y-63413428D01*
X37907979Y-63187437D01*
X38500565Y-63074396D01*
X39103830Y-63078607D01*
X39103830Y-63078607D01*
G37*
G36*
X31050263Y-63588267D02*
X31543235Y-63689460D01*
X32007176Y-63884483D01*
X32424395Y-64165901D01*
X32779008Y-64522997D01*
X33057505Y-64942170D01*
X33249282Y-65407455D01*
X33346963Y-65900782D01*
X33346963Y-65900792D01*
X33347030Y-65901131D01*
X33339004Y-66475946D01*
X33338927Y-66476284D01*
X33338927Y-66476293D01*
X33227509Y-66966702D01*
X33022818Y-67426447D01*
X32732722Y-67837682D01*
X32368276Y-68184740D01*
X31943362Y-68454399D01*
X31474160Y-68636390D01*
X30978551Y-68723780D01*
X30475401Y-68713240D01*
X29983881Y-68605172D01*
X29522714Y-68403693D01*
X29109467Y-68116479D01*
X28759874Y-67754465D01*
X28487255Y-67331442D01*
X28301991Y-66863519D01*
X28211145Y-66368536D01*
X28218170Y-65865325D01*
X28322805Y-65373062D01*
X28521058Y-64910501D01*
X28805383Y-64495255D01*
X29164946Y-64143145D01*
X29586057Y-63867578D01*
X30052670Y-63679054D01*
X30547011Y-63584754D01*
X31050263Y-63588267D01*
X31050263Y-63588267D01*
G37*
G36*
X34409677Y-64896593D02*
X34417194Y-64896645D01*
X34587132Y-64915707D01*
X34750132Y-64967414D01*
X34899984Y-65049796D01*
X35030981Y-65159715D01*
X35138133Y-65292985D01*
X35217358Y-65444530D01*
X35265640Y-65608576D01*
X35265644Y-65608618D01*
X35265645Y-65608622D01*
X35280026Y-65766643D01*
X35281139Y-65778877D01*
X35263264Y-65948944D01*
X35212696Y-66112301D01*
X35131363Y-66262725D01*
X35022360Y-66394486D01*
X34889842Y-66502566D01*
X34738854Y-66582847D01*
X34575148Y-66632273D01*
X34404960Y-66648960D01*
X34396444Y-66648960D01*
X34391763Y-66648927D01*
X34384246Y-66648875D01*
X34214308Y-66629813D01*
X34051308Y-66578106D01*
X33901456Y-66495724D01*
X33770459Y-66385805D01*
X33663307Y-66252535D01*
X33584082Y-66100990D01*
X33535800Y-65936944D01*
X33535796Y-65936902D01*
X33535795Y-65936898D01*
X33520301Y-65766645D01*
X33530104Y-65673380D01*
X33538176Y-65596576D01*
X33588744Y-65433219D01*
X33670077Y-65282795D01*
X33779080Y-65151034D01*
X33911598Y-65042954D01*
X34062586Y-64962673D01*
X34226292Y-64913247D01*
X34396480Y-64896560D01*
X34404996Y-64896560D01*
X34409677Y-64896593D01*
X34409677Y-64896593D01*
G37*
G36*
X34409677Y-62356593D02*
X34417194Y-62356645D01*
X34587132Y-62375707D01*
X34750132Y-62427414D01*
X34899984Y-62509796D01*
X35030981Y-62619715D01*
X35138133Y-62752985D01*
X35217358Y-62904530D01*
X35265640Y-63068576D01*
X35265644Y-63068618D01*
X35265645Y-63068622D01*
X35276458Y-63187440D01*
X35281139Y-63238877D01*
X35263264Y-63408944D01*
X35212696Y-63572301D01*
X35131363Y-63722725D01*
X35022360Y-63854486D01*
X34889842Y-63962566D01*
X34738854Y-64042847D01*
X34575148Y-64092273D01*
X34404960Y-64108960D01*
X34396444Y-64108960D01*
X34391763Y-64108927D01*
X34384246Y-64108875D01*
X34214308Y-64089813D01*
X34051308Y-64038106D01*
X33901456Y-63955724D01*
X33770459Y-63845805D01*
X33663307Y-63712535D01*
X33584082Y-63560990D01*
X33535800Y-63396944D01*
X33535796Y-63396902D01*
X33535795Y-63396898D01*
X33520301Y-63226645D01*
X33523111Y-63199914D01*
X33538176Y-63056576D01*
X33588744Y-62893219D01*
X33670077Y-62742795D01*
X33779080Y-62611034D01*
X33911598Y-62502954D01*
X34062586Y-62422673D01*
X34226292Y-62373247D01*
X34396480Y-62356560D01*
X34404996Y-62356560D01*
X34409677Y-62356593D01*
X34409677Y-62356593D01*
G37*
G36*
X26789677Y-62356593D02*
X26797194Y-62356645D01*
X26967132Y-62375707D01*
X27130132Y-62427414D01*
X27279984Y-62509796D01*
X27410981Y-62619715D01*
X27518133Y-62752985D01*
X27597358Y-62904530D01*
X27645640Y-63068576D01*
X27645644Y-63068618D01*
X27645645Y-63068622D01*
X27656458Y-63187440D01*
X27661139Y-63238877D01*
X27643264Y-63408944D01*
X27592696Y-63572301D01*
X27511363Y-63722725D01*
X27402360Y-63854486D01*
X27269842Y-63962566D01*
X27118854Y-64042847D01*
X26955148Y-64092273D01*
X26784960Y-64108960D01*
X26776444Y-64108960D01*
X26771763Y-64108927D01*
X26764246Y-64108875D01*
X26594308Y-64089813D01*
X26431308Y-64038106D01*
X26281456Y-63955724D01*
X26150459Y-63845805D01*
X26043307Y-63712535D01*
X25964082Y-63560990D01*
X25915800Y-63396944D01*
X25915796Y-63396902D01*
X25915795Y-63396898D01*
X25900301Y-63226645D01*
X25903111Y-63199914D01*
X25918176Y-63056576D01*
X25968744Y-62893219D01*
X26050077Y-62742795D01*
X26159080Y-62611034D01*
X26291598Y-62502954D01*
X26442586Y-62422673D01*
X26606292Y-62373247D01*
X26776480Y-62356560D01*
X26784996Y-62356560D01*
X26789677Y-62356593D01*
X26789677Y-62356593D01*
G37*
G36*
X34409677Y-59816593D02*
X34417194Y-59816645D01*
X34587132Y-59835707D01*
X34750132Y-59887414D01*
X34899984Y-59969796D01*
X35030981Y-60079715D01*
X35138133Y-60212985D01*
X35217358Y-60364530D01*
X35265640Y-60528576D01*
X35265644Y-60528618D01*
X35265645Y-60528622D01*
X35280026Y-60686643D01*
X35281139Y-60698877D01*
X35263264Y-60868944D01*
X35212696Y-61032301D01*
X35131363Y-61182725D01*
X35022360Y-61314486D01*
X34889842Y-61422566D01*
X34738854Y-61502847D01*
X34575148Y-61552273D01*
X34404960Y-61568960D01*
X34396444Y-61568960D01*
X34391763Y-61568927D01*
X34384246Y-61568875D01*
X34214308Y-61549813D01*
X34051308Y-61498106D01*
X33901456Y-61415724D01*
X33770459Y-61305805D01*
X33663307Y-61172535D01*
X33584082Y-61020990D01*
X33535800Y-60856944D01*
X33535796Y-60856902D01*
X33535795Y-60856898D01*
X33520301Y-60686645D01*
X33538171Y-60516623D01*
X33538176Y-60516576D01*
X33588744Y-60353219D01*
X33670077Y-60202795D01*
X33779080Y-60071034D01*
X33911598Y-59962954D01*
X34062586Y-59882673D01*
X34226292Y-59833247D01*
X34396480Y-59816560D01*
X34404996Y-59816560D01*
X34409677Y-59816593D01*
X34409677Y-59816593D01*
G37*
G36*
X26789677Y-59816593D02*
X26797194Y-59816645D01*
X26967132Y-59835707D01*
X27130132Y-59887414D01*
X27279984Y-59969796D01*
X27410981Y-60079715D01*
X27518133Y-60212985D01*
X27597358Y-60364530D01*
X27645640Y-60528576D01*
X27645644Y-60528618D01*
X27645645Y-60528622D01*
X27660026Y-60686643D01*
X27661139Y-60698877D01*
X27643264Y-60868944D01*
X27592696Y-61032301D01*
X27511363Y-61182725D01*
X27402360Y-61314486D01*
X27269842Y-61422566D01*
X27118854Y-61502847D01*
X26955148Y-61552273D01*
X26784960Y-61568960D01*
X26776444Y-61568960D01*
X26771763Y-61568927D01*
X26764246Y-61568875D01*
X26594308Y-61549813D01*
X26431308Y-61498106D01*
X26281456Y-61415724D01*
X26150459Y-61305805D01*
X26043307Y-61172535D01*
X25964082Y-61020990D01*
X25915800Y-60856944D01*
X25915796Y-60856902D01*
X25915795Y-60856898D01*
X25900301Y-60686645D01*
X25918171Y-60516623D01*
X25918176Y-60516576D01*
X25968744Y-60353219D01*
X26050077Y-60202795D01*
X26159080Y-60071034D01*
X26291598Y-59962954D01*
X26442586Y-59882673D01*
X26606292Y-59833247D01*
X26776480Y-59816560D01*
X26784996Y-59816560D01*
X26789677Y-59816593D01*
X26789677Y-59816593D01*
G37*
G36*
X39103830Y-55078607D02*
X39694775Y-55199911D01*
X40250918Y-55433692D01*
X40751054Y-55771038D01*
X41176141Y-56199103D01*
X41509986Y-56701581D01*
X41739876Y-57259336D01*
X41856984Y-57850774D01*
X41856984Y-57850784D01*
X41857051Y-57851123D01*
X41847430Y-58540176D01*
X41847353Y-58540514D01*
X41847353Y-58540522D01*
X41713777Y-59128461D01*
X41468405Y-59679576D01*
X41120657Y-60172538D01*
X40683782Y-60588569D01*
X40174420Y-60911821D01*
X39611974Y-61129979D01*
X39017867Y-61234736D01*
X38414723Y-61222102D01*
X37825520Y-61092557D01*
X37272702Y-60851037D01*
X36777327Y-60506742D01*
X36358257Y-60072783D01*
X36031458Y-59565690D01*
X35809376Y-59004774D01*
X35700475Y-58411418D01*
X35708897Y-57808201D01*
X35834326Y-57218107D01*
X36071979Y-56663618D01*
X36412811Y-56165848D01*
X36843832Y-55743760D01*
X37348633Y-55413428D01*
X37907979Y-55187437D01*
X38500565Y-55074396D01*
X39103830Y-55078607D01*
X39103830Y-55078607D01*
G37*
G36*
X23103830Y-55078607D02*
X23694775Y-55199911D01*
X24250918Y-55433692D01*
X24751054Y-55771038D01*
X25176141Y-56199103D01*
X25509986Y-56701581D01*
X25739876Y-57259336D01*
X25857057Y-57851140D01*
X25861779Y-57864633D01*
X25870073Y-57876275D01*
X25881282Y-57885146D01*
X25894519Y-57890544D01*
X25908735Y-57892039D01*
X25922805Y-57889516D01*
X25935615Y-57883172D01*
X25946151Y-57873510D01*
X25955398Y-57856332D01*
X25968744Y-57813219D01*
X26050077Y-57662795D01*
X26159080Y-57531034D01*
X26291598Y-57422954D01*
X26442586Y-57342673D01*
X26606292Y-57293247D01*
X26776480Y-57276560D01*
X26784996Y-57276560D01*
X26789677Y-57276593D01*
X26797194Y-57276645D01*
X26967132Y-57295707D01*
X27130132Y-57347414D01*
X27279984Y-57429796D01*
X27410981Y-57539715D01*
X27518133Y-57672985D01*
X27597358Y-57824530D01*
X27645640Y-57988576D01*
X27645644Y-57988618D01*
X27645645Y-57988622D01*
X27660026Y-58146643D01*
X27661139Y-58158877D01*
X27643264Y-58328944D01*
X27592696Y-58492301D01*
X27511363Y-58642725D01*
X27402360Y-58774486D01*
X27269842Y-58882566D01*
X27118854Y-58962847D01*
X26955148Y-59012273D01*
X26784960Y-59028960D01*
X26776444Y-59028960D01*
X26771763Y-59028927D01*
X26764246Y-59028875D01*
X26594308Y-59009813D01*
X26431308Y-58958106D01*
X26281456Y-58875724D01*
X26150459Y-58765805D01*
X26043307Y-58632535D01*
X25964082Y-58480990D01*
X25948250Y-58427200D01*
X25942347Y-58414238D01*
X25933032Y-58403395D01*
X25921065Y-58395576D01*
X25907394Y-58391401D01*
X25893100Y-58391200D01*
X25879317Y-58394988D01*
X25867135Y-58402467D01*
X25857518Y-58413044D01*
X25851229Y-58425881D01*
X25848823Y-58440404D01*
X25847430Y-58540176D01*
X25847353Y-58540514D01*
X25847353Y-58540522D01*
X25713777Y-59128461D01*
X25468405Y-59679576D01*
X25120657Y-60172538D01*
X24683782Y-60588569D01*
X24174420Y-60911821D01*
X23611974Y-61129979D01*
X23017867Y-61234736D01*
X22414723Y-61222102D01*
X21825520Y-61092557D01*
X21272702Y-60851037D01*
X20777327Y-60506742D01*
X20358257Y-60072783D01*
X20031458Y-59565690D01*
X19809376Y-59004774D01*
X19700475Y-58411418D01*
X19708897Y-57808201D01*
X19834326Y-57218107D01*
X20071979Y-56663618D01*
X20412811Y-56165848D01*
X20843832Y-55743760D01*
X21348633Y-55413428D01*
X21907979Y-55187437D01*
X22500565Y-55074396D01*
X23103830Y-55078607D01*
X23103830Y-55078607D01*
G37*
G36*
X31050263Y-55588267D02*
X31543235Y-55689460D01*
X32007176Y-55884483D01*
X32424395Y-56165901D01*
X32779008Y-56522997D01*
X33057505Y-56942170D01*
X33249282Y-57407455D01*
X33346963Y-57900782D01*
X33346963Y-57900792D01*
X33347030Y-57901131D01*
X33339004Y-58475946D01*
X33338927Y-58476284D01*
X33338927Y-58476293D01*
X33227509Y-58966702D01*
X33022818Y-59426447D01*
X32732722Y-59837682D01*
X32368276Y-60184740D01*
X31943362Y-60454399D01*
X31474160Y-60636390D01*
X30978551Y-60723780D01*
X30475401Y-60713240D01*
X29983881Y-60605172D01*
X29522714Y-60403693D01*
X29109467Y-60116479D01*
X28759874Y-59754465D01*
X28487255Y-59331442D01*
X28301991Y-58863519D01*
X28211145Y-58368536D01*
X28218170Y-57865325D01*
X28322805Y-57373062D01*
X28521058Y-56910501D01*
X28805383Y-56495255D01*
X29164946Y-56143145D01*
X29586057Y-55867578D01*
X30052670Y-55679054D01*
X30547011Y-55584754D01*
X31050263Y-55588267D01*
X31050263Y-55588267D01*
G37*
G36*
X34409677Y-57276593D02*
X34417194Y-57276645D01*
X34587132Y-57295707D01*
X34750132Y-57347414D01*
X34899984Y-57429796D01*
X35030981Y-57539715D01*
X35138133Y-57672985D01*
X35217358Y-57824530D01*
X35265640Y-57988576D01*
X35265644Y-57988618D01*
X35265645Y-57988622D01*
X35280026Y-58146643D01*
X35281139Y-58158877D01*
X35263264Y-58328944D01*
X35212696Y-58492301D01*
X35131363Y-58642725D01*
X35022360Y-58774486D01*
X34889842Y-58882566D01*
X34738854Y-58962847D01*
X34575148Y-59012273D01*
X34404960Y-59028960D01*
X34396444Y-59028960D01*
X34391763Y-59028927D01*
X34384246Y-59028875D01*
X34214308Y-59009813D01*
X34051308Y-58958106D01*
X33901456Y-58875724D01*
X33770459Y-58765805D01*
X33663307Y-58632535D01*
X33584082Y-58480990D01*
X33535800Y-58316944D01*
X33535796Y-58316902D01*
X33535795Y-58316898D01*
X33520301Y-58146645D01*
X33538171Y-57976623D01*
X33538176Y-57976576D01*
X33588744Y-57813219D01*
X33670077Y-57662795D01*
X33779080Y-57531034D01*
X33911598Y-57422954D01*
X34062586Y-57342673D01*
X34226292Y-57293247D01*
X34396480Y-57276560D01*
X34404996Y-57276560D01*
X34409677Y-57276593D01*
X34409677Y-57276593D01*
G37*
G36*
X39156347Y-46578939D02*
X39843345Y-46719960D01*
X40489881Y-46991739D01*
X41071309Y-47383917D01*
X41565489Y-47881559D01*
X41953597Y-48465709D01*
X42220853Y-49114120D01*
X42357006Y-49801746D01*
X42357006Y-49801751D01*
X42357074Y-49802095D01*
X42345888Y-50603145D01*
X42345812Y-50603479D01*
X42345812Y-50603492D01*
X42190511Y-51287050D01*
X41905257Y-51927742D01*
X41500986Y-52500830D01*
X40993103Y-52984482D01*
X40400950Y-53360274D01*
X39747085Y-53613891D01*
X39056412Y-53735676D01*
X38355235Y-53720987D01*
X37670264Y-53570387D01*
X37027591Y-53289610D01*
X36451699Y-52889354D01*
X35964514Y-52384860D01*
X35584598Y-51795344D01*
X35326419Y-51143260D01*
X35199817Y-50453459D01*
X35209608Y-49752197D01*
X35355424Y-49066191D01*
X35631705Y-48421576D01*
X36027935Y-47842898D01*
X36529014Y-47352205D01*
X37115863Y-46968182D01*
X37766125Y-46705458D01*
X38455029Y-46574044D01*
X39156347Y-46578939D01*
X39156347Y-46578939D01*
G37*
G36*
X31156347Y-46578939D02*
X31843345Y-46719960D01*
X32489881Y-46991739D01*
X33071309Y-47383917D01*
X33565489Y-47881559D01*
X33953597Y-48465709D01*
X34220853Y-49114120D01*
X34357006Y-49801746D01*
X34357006Y-49801751D01*
X34357074Y-49802095D01*
X34345888Y-50603145D01*
X34345812Y-50603479D01*
X34345812Y-50603492D01*
X34190511Y-51287050D01*
X33905257Y-51927742D01*
X33500986Y-52500830D01*
X32993103Y-52984482D01*
X32400950Y-53360274D01*
X31747085Y-53613891D01*
X31056412Y-53735676D01*
X30355235Y-53720987D01*
X29670264Y-53570387D01*
X29027591Y-53289610D01*
X28451699Y-52889354D01*
X27964514Y-52384860D01*
X27584598Y-51795344D01*
X27326419Y-51143260D01*
X27199817Y-50453459D01*
X27209608Y-49752197D01*
X27355424Y-49066191D01*
X27631705Y-48421576D01*
X28027935Y-47842898D01*
X28529014Y-47352205D01*
X29115863Y-46968182D01*
X29766125Y-46705458D01*
X30455029Y-46574044D01*
X31156347Y-46578939D01*
X31156347Y-46578939D01*
G37*
G36*
X23156347Y-46578939D02*
X23843345Y-46719960D01*
X24489881Y-46991739D01*
X25071309Y-47383917D01*
X25565489Y-47881559D01*
X25953597Y-48465709D01*
X26220853Y-49114120D01*
X26357006Y-49801746D01*
X26357006Y-49801751D01*
X26357074Y-49802095D01*
X26345888Y-50603145D01*
X26345812Y-50603479D01*
X26345812Y-50603492D01*
X26190511Y-51287050D01*
X25905257Y-51927742D01*
X25500986Y-52500830D01*
X24993103Y-52984482D01*
X24400950Y-53360274D01*
X23747085Y-53613891D01*
X23056412Y-53735676D01*
X22355235Y-53720987D01*
X21670264Y-53570387D01*
X21027591Y-53289610D01*
X20451699Y-52889354D01*
X19964514Y-52384860D01*
X19584598Y-51795344D01*
X19326419Y-51143260D01*
X19199817Y-50453459D01*
X19209608Y-49752197D01*
X19355424Y-49066191D01*
X19631705Y-48421576D01*
X20027935Y-47842898D01*
X20529014Y-47352205D01*
X21115863Y-46968182D01*
X21766125Y-46705458D01*
X22455029Y-46574044D01*
X23156347Y-46578939D01*
X23156347Y-46578939D01*
G37*
M02*
