M48
;DRILL file {KiCad 4.0.5-e0-6337~49~ubuntu16.04.1} date Fri Jan 20 21:28:30 2017
;FORMAT={-:-/ absolute / metric / decimal}
FMAT,2
METRIC,TZ
T1C0.800
T2C4.980
T3C4.980
%
G90
G05
M71
T1
X138.922Y-91.503
X138.922Y-94.043
X138.922Y-96.583
X138.922Y-99.123
X146.542Y-91.503
X146.542Y-94.043
X146.542Y-96.583
X146.542Y-99.123
T2
X134.922Y-83.503
X134.922Y-91.503
X134.922Y-99.503
X134.922Y-107.503
X142.922Y-83.503
X142.922Y-107.503
X150.922Y-83.503
X150.922Y-91.503
X150.922Y-99.503
X150.922Y-107.503
T3
X142.922Y-91.503
X142.922Y-99.503
T0
M30
