G04 This is an RS-274x file exported by *
G04 gerbv version 2.6.0 *
G04 More information is available about gerbv at *
G04 http://gerbv.gpleda.org/ *
G04 --End of header info--*
%MOIN*%
%FSLAX34Y34*%
%IPPOS*%
G04 --Define apertures--*
%ADD10C,0.0039*%
%ADD11C,0.0016*%
%ADD12C,0.0059*%
G04 --Start main section--*
G54D10*
G01X0023018Y-020809D02*
G01X0023018Y-019707D01*
G01X0026089Y-020809D02*
G01X0023018Y-020809D01*
G01X0026089Y-020730D02*
G01X0026089Y-020809D01*
G01X0026089Y-019707D02*
G01X0026089Y-020730D01*
G01X0023018Y-019707D02*
G01X0026089Y-019707D01*
G54D11*
G01X0027664Y-017226D02*
G01X0021443Y-017226D01*
G01X0027664Y-023368D02*
G01X0021443Y-023368D01*
G01X0019908Y-021833D02*
G01X0019908Y-018762D01*
G01X0019908Y-021833D02*
G75*
G03X0021443Y-023368I0001535J0000000D01*
G01X0021443Y-017226D02*
G75*
G03X0019908Y-018762I0000000J-001535D01*
G54D10*
G01X0027703Y-020770D02*
G01X0027703Y-020848D01*
G54D11*
G01X0029199Y-021833D02*
G01X0029199Y-018762D01*
G01X0029199Y-018762D02*
G75*
G03X0027664Y-017226I-001535J0000000D01*
G01X0027664Y-023368D02*
G75*
G03X0029199Y-021833I0000000J0001535D01*
G54D12*
G01X0024383Y-020042D02*
G01X0024383Y-020323D01*
G01X0024383Y-020323D02*
G01X0024364Y-020380D01*
G01X0024364Y-020380D02*
G01X0024327Y-020417D01*
G01X0024327Y-020417D02*
G01X0024271Y-020436D01*
G01X0024271Y-020436D02*
G01X0024233Y-020436D01*
G01X0024777Y-020436D02*
G01X0024552Y-020436D01*
G01X0024664Y-020436D02*
G01X0024664Y-020042D01*
G01X0024664Y-020042D02*
G01X0024627Y-020098D01*
G01X0024627Y-020098D02*
G01X0024589Y-020136D01*
G01X0024589Y-020136D02*
G01X0024552Y-020155D01*
G01X0024383Y-020023D02*
G01X0024383Y-020304D01*
G01X0024383Y-020304D02*
G01X0024364Y-020360D01*
G01X0024364Y-020360D02*
G01X0024327Y-020397D01*
G01X0024327Y-020397D02*
G01X0024271Y-020416D01*
G01X0024271Y-020416D02*
G01X0024233Y-020416D01*
G01X0024777Y-020416D02*
G01X0024552Y-020416D01*
G01X0024664Y-020416D02*
G01X0024664Y-020023D01*
G01X0024664Y-020023D02*
G01X0024627Y-020079D01*
G01X0024627Y-020079D02*
G01X0024589Y-020116D01*
G01X0024589Y-020116D02*
G01X0024552Y-020135D01*
G01X0000000Y0000000D02*
G54D11*
G01X0027703Y-017226D02*
G01X0021443Y-017226D01*
G01X0027703Y-023368D02*
G01X0021443Y-023368D01*
G01X0019908Y-021833D02*
G01X0019908Y-018762D01*
G01X0019908Y-021833D02*
G75*
G03X0021443Y-023368I0001535J0000000D01*
G01X0021443Y-017226D02*
G75*
G03X0019908Y-018762I0000000J-001535D01*
G01X0029199Y-021833D02*
G01X0029199Y-018762D01*
G01X0029199Y-018762D02*
G75*
G03X0027664Y-017226I-001535J0000000D01*
G01X0027664Y-023368D02*
G75*
G03X0029199Y-021833I0000000J0001535D01*
M02*
