%TF.GenerationSoftware,KiCad,Pcbnew,5.0.2-bee76a0~70~ubuntu16.04.1*%
%TF.CreationDate,2019-01-01T17:35:33-08:00*%
%TF.ProjectId,2x3-LED-RGB-Mini-Neopixel-SMT,3278332d-4c45-4442-9d52-47422d4d696e,1.0*%
%TF.SameCoordinates,Original*%
%TF.FileFunction,Copper,L1,Top*%
%TF.FilePolarity,Positive*%
%FSLAX46Y46*%
G04 Gerber Fmt 4.6, Leading zero omitted, Abs format (unit mm)*
G04 Created by KiCad (PCBNEW 5.0.2-bee76a0~70~ubuntu16.04.1) date Tue Jan  1 17:35:33 2019*
%MOMM*%
%LPD*%
G01*
G04 APERTURE LIST*
%ADD10C,0.800000*%
%ADD11C,0.600000*%
%ADD12C,0.300000*%
%ADD13C,0.850000*%
%ADD14C,0.350000*%
%ADD15C,6.000000*%
%ADD16C,0.685800*%
%ADD17R,0.750000X0.800000*%
%ADD18R,0.800000X0.750000*%
%ADD19C,0.350000*%
%ADD20C,0.330200*%
G04 APERTURE END LIST*
D10*
X14400000Y-37000000D02*
X14400000Y-31400000D01*
D11*
X19500000Y-40700000D02*
X23650000Y-40700000D01*
D10*
X12900000Y-34100000D02*
X12900000Y-33050000D01*
D12*
X21450000Y-34850000D02*
X21450000Y-33350000D01*
D10*
X17200000Y-29150000D02*
X20050000Y-32000000D01*
X19700000Y-35050000D02*
X18950000Y-35850000D01*
X18500000Y-33750000D02*
X17750000Y-34550000D01*
X18500000Y-33750000D02*
X18500000Y-32450000D01*
D12*
X21450000Y-34850000D02*
X19450000Y-36850000D01*
X19450000Y-39350000D02*
X19450000Y-36850000D01*
D13*
X21406155Y-33356282D03*
D14*
G36*
X21459188Y-34010356D02*
X20752081Y-33303249D01*
X21353122Y-32702208D01*
X22060229Y-33409315D01*
X21459188Y-34010356D01*
X21459188Y-34010356D01*
G37*
D13*
X18931282Y-35831155D03*
D14*
G36*
X18984315Y-36485229D02*
X18277208Y-35778122D01*
X18878249Y-35177081D01*
X19585356Y-35884188D01*
X18984315Y-36485229D01*
X18984315Y-36485229D01*
G37*
D13*
X20168718Y-32118845D03*
D14*
G36*
X20221751Y-32772919D02*
X19514644Y-32065812D01*
X20115685Y-31464771D01*
X20822792Y-32171878D01*
X20221751Y-32772919D01*
X20221751Y-32772919D01*
G37*
D13*
X17693845Y-34593718D03*
D14*
G36*
X17746878Y-35247792D02*
X17039771Y-34540685D01*
X17640812Y-33939644D01*
X18347919Y-34646751D01*
X17746878Y-35247792D01*
X17746878Y-35247792D01*
G37*
D15*
X31600000Y-30000000D03*
X31600000Y-38000000D03*
D16*
X12900000Y-33000000D03*
X19650000Y-35050000D03*
D15*
X23600000Y-30000000D03*
D17*
X19515584Y-39250046D03*
X19515584Y-40750046D03*
D18*
X12925000Y-34025000D03*
X14425000Y-34025000D03*
D15*
X15600000Y-38000000D03*
X15600000Y-30000000D03*
X23600000Y-38000000D03*
D16*
X18500000Y-32450000D03*
D19*
X31600000Y-30000000D03*
X31600000Y-38000000D03*
D20*
X12900000Y-33000000D03*
X19650000Y-35050000D03*
D19*
X23600000Y-30000000D03*
X15600000Y-38000000D03*
X15600000Y-30000000D03*
X23600000Y-38000000D03*
D20*
X18500000Y-32450000D03*
M02*
