%TF.GenerationSoftware,KiCad,Pcbnew,5.0.2-bee76a0~70~ubuntu16.04.1*%
%TF.CreationDate,2019-01-01T17:35:33-08:00*%
%TF.ProjectId,2x3-LED-RGB-Mini-Neopixel-SMT,3278332d-4c45-4442-9d52-47422d4d696e,1.0*%
%TF.SameCoordinates,Original*%
%TF.FileFunction,Soldermask,Top*%
%TF.FilePolarity,Negative*%
%FSLAX46Y46*%
G04 Gerber Fmt 4.6, Leading zero omitted, Abs format (unit mm)*
G04 Created by KiCad (PCBNEW 5.0.2-bee76a0~70~ubuntu16.04.1) date Tue Jan  1 17:35:33 2019*
%MOMM*%
%LPD*%
G01*
G04 APERTURE LIST*
%ADD10C,0.600000*%
%ADD11C,0.350000*%
G04 APERTURE END LIST*
D10*
X18307397Y-38000000D02*
G75*
G02X15800000Y-35300000I-2707397J0D01*
G01*
X20898149Y-30000000D02*
G75*
G02X23500000Y-32700000I2701851J0D01*
G01*
D11*
G36*
X19966784Y-41226246D02*
X19064384Y-41226246D01*
X19064384Y-40273846D01*
X19966784Y-40273846D01*
X19966784Y-41226246D01*
X19966784Y-41226246D01*
G37*
G36*
X32497296Y-35042017D02*
X33057125Y-35273906D01*
X33057127Y-35273907D01*
X33560963Y-35610560D01*
X33989439Y-36039036D01*
X34326094Y-36542875D01*
X34557983Y-37102704D01*
X34676200Y-37697021D01*
X34676200Y-38302979D01*
X34557983Y-38897296D01*
X34326094Y-39457125D01*
X34326093Y-39457127D01*
X33989440Y-39960963D01*
X33560963Y-40389440D01*
X33057127Y-40726093D01*
X33057126Y-40726094D01*
X33057125Y-40726094D01*
X32497296Y-40957983D01*
X31902979Y-41076200D01*
X31297021Y-41076200D01*
X30702704Y-40957983D01*
X30142875Y-40726094D01*
X30142874Y-40726094D01*
X30142873Y-40726093D01*
X29639037Y-40389440D01*
X29210560Y-39960963D01*
X28873907Y-39457127D01*
X28873906Y-39457125D01*
X28642017Y-38897296D01*
X28523800Y-38302979D01*
X28523800Y-37697021D01*
X28642017Y-37102704D01*
X28873906Y-36542875D01*
X29210561Y-36039036D01*
X29639037Y-35610560D01*
X30142873Y-35273907D01*
X30142875Y-35273906D01*
X30702704Y-35042017D01*
X31297021Y-34923800D01*
X31902979Y-34923800D01*
X32497296Y-35042017D01*
X32497296Y-35042017D01*
G37*
G36*
X24497296Y-35042017D02*
X25057125Y-35273906D01*
X25057127Y-35273907D01*
X25560963Y-35610560D01*
X25989439Y-36039036D01*
X26326094Y-36542875D01*
X26557983Y-37102704D01*
X26676200Y-37697021D01*
X26676200Y-38302979D01*
X26557983Y-38897296D01*
X26326094Y-39457125D01*
X26326093Y-39457127D01*
X25989440Y-39960963D01*
X25560963Y-40389440D01*
X25057127Y-40726093D01*
X25057126Y-40726094D01*
X25057125Y-40726094D01*
X24497296Y-40957983D01*
X23902979Y-41076200D01*
X23297021Y-41076200D01*
X22702704Y-40957983D01*
X22142875Y-40726094D01*
X22142874Y-40726094D01*
X22142873Y-40726093D01*
X21639037Y-40389440D01*
X21210560Y-39960963D01*
X20873907Y-39457127D01*
X20873906Y-39457125D01*
X20642017Y-38897296D01*
X20523800Y-38302979D01*
X20523800Y-37697021D01*
X20642017Y-37102704D01*
X20873906Y-36542875D01*
X21210561Y-36039036D01*
X21639037Y-35610560D01*
X22142873Y-35273907D01*
X22142875Y-35273906D01*
X22702704Y-35042017D01*
X23297021Y-34923800D01*
X23902979Y-34923800D01*
X24497296Y-35042017D01*
X24497296Y-35042017D01*
G37*
G36*
X19966784Y-39726246D02*
X19064384Y-39726246D01*
X19064384Y-38773846D01*
X19966784Y-38773846D01*
X19966784Y-39726246D01*
X19966784Y-39726246D01*
G37*
G36*
X19693119Y-35884188D02*
X18984315Y-36592992D01*
X18169445Y-35778122D01*
X18878249Y-35069318D01*
X19693119Y-35884188D01*
X19693119Y-35884188D01*
G37*
G36*
X18455682Y-34646751D02*
X17746878Y-35355555D01*
X16932008Y-34540685D01*
X17640812Y-33831881D01*
X18455682Y-34646751D01*
X18455682Y-34646751D01*
G37*
G36*
X14901200Y-34476200D02*
X13948800Y-34476200D01*
X13948800Y-33573800D01*
X14901200Y-33573800D01*
X14901200Y-34476200D01*
X14901200Y-34476200D01*
G37*
G36*
X13401200Y-34476200D02*
X12448800Y-34476200D01*
X12448800Y-33573800D01*
X13401200Y-33573800D01*
X13401200Y-34476200D01*
X13401200Y-34476200D01*
G37*
G36*
X22167992Y-33409315D02*
X21459188Y-34118119D01*
X20644318Y-33303249D01*
X21353122Y-32594445D01*
X22167992Y-33409315D01*
X22167992Y-33409315D01*
G37*
G36*
X32497296Y-27042017D02*
X33057125Y-27273906D01*
X33057127Y-27273907D01*
X33560963Y-27610560D01*
X33989439Y-28039036D01*
X34326094Y-28542875D01*
X34557983Y-29102704D01*
X34676200Y-29697021D01*
X34676200Y-30302979D01*
X34557983Y-30897296D01*
X34367564Y-31357008D01*
X34326093Y-31457127D01*
X33989440Y-31960963D01*
X33560963Y-32389440D01*
X33057127Y-32726093D01*
X33057126Y-32726094D01*
X33057125Y-32726094D01*
X32497296Y-32957983D01*
X31902979Y-33076200D01*
X31297021Y-33076200D01*
X30702704Y-32957983D01*
X30142875Y-32726094D01*
X30142874Y-32726094D01*
X30142873Y-32726093D01*
X29639037Y-32389440D01*
X29210560Y-31960963D01*
X28873907Y-31457127D01*
X28832436Y-31357008D01*
X28642017Y-30897296D01*
X28523800Y-30302979D01*
X28523800Y-29697021D01*
X28642017Y-29102704D01*
X28873906Y-28542875D01*
X29210561Y-28039036D01*
X29639037Y-27610560D01*
X30142873Y-27273907D01*
X30142875Y-27273906D01*
X30702704Y-27042017D01*
X31297021Y-26923800D01*
X31902979Y-26923800D01*
X32497296Y-27042017D01*
X32497296Y-27042017D01*
G37*
G36*
X16497296Y-27042017D02*
X17057125Y-27273906D01*
X17057127Y-27273907D01*
X17560963Y-27610560D01*
X17989439Y-28039036D01*
X18326094Y-28542875D01*
X18557983Y-29102704D01*
X18676200Y-29697021D01*
X18676200Y-30302979D01*
X18557983Y-30897296D01*
X18367564Y-31357008D01*
X18326093Y-31457127D01*
X17989440Y-31960963D01*
X17560963Y-32389440D01*
X17057127Y-32726093D01*
X17057126Y-32726094D01*
X17057125Y-32726094D01*
X16497296Y-32957983D01*
X15902979Y-33076200D01*
X15297021Y-33076200D01*
X14702704Y-32957983D01*
X14142875Y-32726094D01*
X14142874Y-32726094D01*
X14142873Y-32726093D01*
X13639037Y-32389440D01*
X13210560Y-31960963D01*
X12873907Y-31457127D01*
X12832436Y-31357008D01*
X12642017Y-30897296D01*
X12523800Y-30302979D01*
X12523800Y-29697021D01*
X12642017Y-29102704D01*
X12873906Y-28542875D01*
X13210561Y-28039036D01*
X13639037Y-27610560D01*
X14142873Y-27273907D01*
X14142875Y-27273906D01*
X14702704Y-27042017D01*
X15297021Y-26923800D01*
X15902979Y-26923800D01*
X16497296Y-27042017D01*
X16497296Y-27042017D01*
G37*
G36*
X20930555Y-32171878D02*
X20221751Y-32880682D01*
X19406881Y-32065812D01*
X20115685Y-31357008D01*
X20930555Y-32171878D01*
X20930555Y-32171878D01*
G37*
M02*
