%TF.GenerationSoftware,KiCad,Pcbnew,4.0.5-e0-6337~49~ubuntu16.04.1*%
%TF.CreationDate,2017-01-20T20:06:19-08:00*%
%TF.ProjectId,2x3-Potentiometer-P160K-TH,3278332D506F74656E74696F6D657465,1.0*%
%TF.FileFunction,Soldermask,Bot*%
%FSLAX46Y46*%
G04 Gerber Fmt 4.6, Leading zero omitted, Abs format (unit mm)*
G04 Created by KiCad (PCBNEW 4.0.5-e0-6337~49~ubuntu16.04.1) date Fri Jan 20 20:06:19 2017*
%MOMM*%
%LPD*%
G01*
G04 APERTURE LIST*
%ADD10C,0.350000*%
%ADD11C,7.400000*%
%ADD12C,7.000000*%
G04 APERTURE END LIST*
D10*
D11*
X142935960Y-94682040D02*
X142935960Y-102682040D01*
D12*
X134935960Y-94682040D02*
X134935960Y-102682040D01*
D11*
X126935960Y-94682040D02*
X126935960Y-102682040D01*
D10*
G36*
X127259070Y-99607887D02*
X127850015Y-99729191D01*
X128406158Y-99962972D01*
X128906294Y-100300318D01*
X129331381Y-100728383D01*
X129665226Y-101230861D01*
X129895116Y-101788616D01*
X130012224Y-102380054D01*
X130012224Y-102380064D01*
X130012291Y-102380403D01*
X130002670Y-103069456D01*
X130002593Y-103069794D01*
X130002593Y-103069802D01*
X129869017Y-103657741D01*
X129623645Y-104208856D01*
X129275897Y-104701818D01*
X128839022Y-105117849D01*
X128329660Y-105441101D01*
X127767214Y-105659259D01*
X127173107Y-105764016D01*
X126569963Y-105751382D01*
X125980760Y-105621837D01*
X125427942Y-105380317D01*
X124932567Y-105036022D01*
X124513497Y-104602063D01*
X124186698Y-104094970D01*
X123964616Y-103534054D01*
X123855715Y-102940698D01*
X123864137Y-102337481D01*
X123989566Y-101747387D01*
X124227219Y-101192898D01*
X124568051Y-100695128D01*
X124999072Y-100273040D01*
X125503873Y-99942708D01*
X126063219Y-99716717D01*
X126655805Y-99603676D01*
X127259070Y-99607887D01*
X127259070Y-99607887D01*
G37*
G36*
X135259070Y-91607887D02*
X135850015Y-91729191D01*
X136406158Y-91962972D01*
X136906294Y-92300318D01*
X137331381Y-92728383D01*
X137665226Y-93230861D01*
X137895116Y-93788616D01*
X138012224Y-94380054D01*
X138012224Y-94380064D01*
X138012291Y-94380403D01*
X138002670Y-95069456D01*
X138002593Y-95069794D01*
X138002593Y-95069802D01*
X137869017Y-95657741D01*
X137623645Y-96208856D01*
X137275897Y-96701818D01*
X136839022Y-97117849D01*
X136329660Y-97441101D01*
X135767214Y-97659259D01*
X135690053Y-97672864D01*
X135676465Y-97677302D01*
X135664651Y-97685350D01*
X135655547Y-97696371D01*
X135649873Y-97709491D01*
X135648080Y-97723673D01*
X135650309Y-97737793D01*
X135656383Y-97750733D01*
X135670467Y-97765007D01*
X135737303Y-97810089D01*
X135892928Y-97966803D01*
X136015148Y-98150760D01*
X136099311Y-98354955D01*
X136142140Y-98571261D01*
X136142140Y-98571266D01*
X136142208Y-98571610D01*
X136138686Y-98823873D01*
X136138609Y-98824211D01*
X136138609Y-98824220D01*
X136089756Y-99039248D01*
X135999926Y-99241009D01*
X135872614Y-99421483D01*
X135712674Y-99573794D01*
X135667380Y-99602538D01*
X135656508Y-99611820D01*
X135648653Y-99623763D01*
X135644435Y-99637421D01*
X135644190Y-99651714D01*
X135647936Y-99665509D01*
X135655378Y-99677714D01*
X135665925Y-99687363D01*
X135684385Y-99695192D01*
X135850015Y-99729191D01*
X136406158Y-99962972D01*
X136906294Y-100300318D01*
X137331381Y-100728383D01*
X137665226Y-101230861D01*
X137895116Y-101788616D01*
X138012224Y-102380054D01*
X138012224Y-102380064D01*
X138012291Y-102380403D01*
X138002670Y-103069456D01*
X138002593Y-103069794D01*
X138002593Y-103069802D01*
X137869017Y-103657741D01*
X137623645Y-104208856D01*
X137275897Y-104701818D01*
X136839022Y-105117849D01*
X136329660Y-105441101D01*
X135767214Y-105659259D01*
X135173107Y-105764016D01*
X134569963Y-105751382D01*
X133980760Y-105621837D01*
X133427942Y-105380317D01*
X132932567Y-105036022D01*
X132513497Y-104602063D01*
X132186698Y-104094970D01*
X131964616Y-103534054D01*
X131855715Y-102940698D01*
X131864137Y-102337481D01*
X131989566Y-101747387D01*
X132227219Y-101192898D01*
X132568051Y-100695128D01*
X132999072Y-100273040D01*
X133503873Y-99942708D01*
X134063219Y-99716717D01*
X134311754Y-99669307D01*
X134325279Y-99664680D01*
X134336979Y-99656467D01*
X134345929Y-99645321D01*
X134351418Y-99632122D01*
X134353013Y-99617917D01*
X134350588Y-99603829D01*
X134344333Y-99590975D01*
X134331227Y-99577693D01*
X134282519Y-99543840D01*
X134129092Y-99384961D01*
X134009452Y-99199315D01*
X133928146Y-98993961D01*
X133888278Y-98776736D01*
X133891361Y-98555897D01*
X133937281Y-98339862D01*
X134024285Y-98136863D01*
X134149065Y-97954628D01*
X134306862Y-97800102D01*
X134327635Y-97786509D01*
X134338376Y-97777077D01*
X134346064Y-97765025D01*
X134350091Y-97751309D01*
X134350136Y-97737015D01*
X134346198Y-97723273D01*
X134338587Y-97711173D01*
X134327907Y-97701672D01*
X134310728Y-97694386D01*
X133980760Y-97621837D01*
X133427942Y-97380317D01*
X132932567Y-97036022D01*
X132513497Y-96602063D01*
X132186698Y-96094970D01*
X131964616Y-95534054D01*
X131855715Y-94940698D01*
X131864137Y-94337481D01*
X131989566Y-93747387D01*
X132227219Y-93192898D01*
X132568051Y-92695128D01*
X132999072Y-92273040D01*
X133503873Y-91942708D01*
X134063219Y-91716717D01*
X134655805Y-91603676D01*
X135259070Y-91607887D01*
X135259070Y-91607887D01*
G37*
G36*
X143259070Y-99607887D02*
X143850015Y-99729191D01*
X144406158Y-99962972D01*
X144906294Y-100300318D01*
X145331381Y-100728383D01*
X145665226Y-101230861D01*
X145895116Y-101788616D01*
X146012224Y-102380054D01*
X146012224Y-102380064D01*
X146012291Y-102380403D01*
X146002670Y-103069456D01*
X146002593Y-103069794D01*
X146002593Y-103069802D01*
X145869017Y-103657741D01*
X145623645Y-104208856D01*
X145275897Y-104701818D01*
X144839022Y-105117849D01*
X144329660Y-105441101D01*
X143767214Y-105659259D01*
X143173107Y-105764016D01*
X142569963Y-105751382D01*
X141980760Y-105621837D01*
X141427942Y-105380317D01*
X140932567Y-105036022D01*
X140513497Y-104602063D01*
X140186698Y-104094970D01*
X139964616Y-103534054D01*
X139855715Y-102940698D01*
X139864137Y-102337481D01*
X139989566Y-101747387D01*
X140227219Y-101192898D01*
X140568051Y-100695128D01*
X140999072Y-100273040D01*
X141503873Y-99942708D01*
X142063219Y-99716717D01*
X142655805Y-99603676D01*
X143259070Y-99607887D01*
X143259070Y-99607887D01*
G37*
G36*
X130054253Y-97556588D02*
X130270594Y-97600997D01*
X130474203Y-97686586D01*
X130657303Y-97810089D01*
X130812928Y-97966803D01*
X130935148Y-98150760D01*
X131019311Y-98354955D01*
X131062140Y-98571261D01*
X131062140Y-98571266D01*
X131062208Y-98571610D01*
X131058686Y-98823873D01*
X131058609Y-98824211D01*
X131058609Y-98824220D01*
X131009756Y-99039248D01*
X130919926Y-99241009D01*
X130792614Y-99421483D01*
X130632674Y-99573793D01*
X130446196Y-99692136D01*
X130240281Y-99772005D01*
X130022781Y-99810356D01*
X129801967Y-99805730D01*
X129586260Y-99758305D01*
X129383871Y-99669883D01*
X129202519Y-99543840D01*
X129049092Y-99384961D01*
X128929452Y-99199315D01*
X128848146Y-98993961D01*
X128808278Y-98776736D01*
X128811361Y-98555897D01*
X128857281Y-98339862D01*
X128944285Y-98136863D01*
X129069065Y-97954628D01*
X129226862Y-97800102D01*
X129411671Y-97679166D01*
X129616449Y-97596430D01*
X129833393Y-97555047D01*
X130054253Y-97556588D01*
X130054253Y-97556588D01*
G37*
G36*
X140214253Y-97556588D02*
X140430594Y-97600997D01*
X140634203Y-97686586D01*
X140817303Y-97810089D01*
X140972928Y-97966803D01*
X141095148Y-98150760D01*
X141179311Y-98354955D01*
X141222140Y-98571261D01*
X141222140Y-98571266D01*
X141222208Y-98571610D01*
X141218686Y-98823873D01*
X141218609Y-98824211D01*
X141218609Y-98824220D01*
X141169756Y-99039248D01*
X141079926Y-99241009D01*
X140952614Y-99421483D01*
X140792674Y-99573793D01*
X140606196Y-99692136D01*
X140400281Y-99772005D01*
X140182781Y-99810356D01*
X139961967Y-99805730D01*
X139746260Y-99758305D01*
X139543871Y-99669883D01*
X139362519Y-99543840D01*
X139209092Y-99384961D01*
X139089452Y-99199315D01*
X139008146Y-98993961D01*
X138968278Y-98776736D01*
X138971361Y-98555897D01*
X139017281Y-98339862D01*
X139104285Y-98136863D01*
X139229065Y-97954628D01*
X139386862Y-97800102D01*
X139571671Y-97679166D01*
X139776449Y-97596430D01*
X139993393Y-97555047D01*
X140214253Y-97556588D01*
X140214253Y-97556588D01*
G37*
G36*
X127259070Y-91607887D02*
X127850015Y-91729191D01*
X128406158Y-91962972D01*
X128906294Y-92300318D01*
X129331381Y-92728383D01*
X129665226Y-93230861D01*
X129895116Y-93788616D01*
X130012224Y-94380054D01*
X130012224Y-94380064D01*
X130012291Y-94380403D01*
X130002670Y-95069456D01*
X130002593Y-95069794D01*
X130002593Y-95069802D01*
X129869017Y-95657741D01*
X129623645Y-96208856D01*
X129275897Y-96701818D01*
X128839022Y-97117849D01*
X128329660Y-97441101D01*
X127767214Y-97659259D01*
X127173107Y-97764016D01*
X126569963Y-97751382D01*
X125980760Y-97621837D01*
X125427942Y-97380317D01*
X124932567Y-97036022D01*
X124513497Y-96602063D01*
X124186698Y-96094970D01*
X123964616Y-95534054D01*
X123855715Y-94940698D01*
X123864137Y-94337481D01*
X123989566Y-93747387D01*
X124227219Y-93192898D01*
X124568051Y-92695128D01*
X124999072Y-92273040D01*
X125503873Y-91942708D01*
X126063219Y-91716717D01*
X126655805Y-91603676D01*
X127259070Y-91607887D01*
X127259070Y-91607887D01*
G37*
G36*
X143259070Y-91607887D02*
X143850015Y-91729191D01*
X144406158Y-91962972D01*
X144906294Y-92300318D01*
X145331381Y-92728383D01*
X145665226Y-93230861D01*
X145895116Y-93788616D01*
X146012224Y-94380054D01*
X146012224Y-94380064D01*
X146012291Y-94380403D01*
X146002670Y-95069456D01*
X146002593Y-95069794D01*
X146002593Y-95069802D01*
X145869017Y-95657741D01*
X145623645Y-96208856D01*
X145275897Y-96701818D01*
X144839022Y-97117849D01*
X144329660Y-97441101D01*
X143767214Y-97659259D01*
X143173107Y-97764016D01*
X142569963Y-97751382D01*
X141980760Y-97621837D01*
X141427942Y-97380317D01*
X140932567Y-97036022D01*
X140513497Y-96602063D01*
X140186698Y-96094970D01*
X139964616Y-95534054D01*
X139855715Y-94940698D01*
X139864137Y-94337481D01*
X139989566Y-93747387D01*
X140227219Y-93192898D01*
X140568051Y-92695128D01*
X140999072Y-92273040D01*
X141503873Y-91942708D01*
X142063219Y-91716717D01*
X142655805Y-91603676D01*
X143259070Y-91607887D01*
X143259070Y-91607887D01*
G37*
M02*
