%TF.GenerationSoftware,KiCad,Pcbnew,4.0.5-e0-6337~49~ubuntu16.04.1*%
%TF.CreationDate,2017-01-20T20:06:19-08:00*%
%TF.ProjectId,2x3-Potentiometer-P160K-TH,3278332D506F74656E74696F6D657465,1.0*%
%TF.FileFunction,Other,Fab,Top*%
%FSLAX46Y46*%
G04 Gerber Fmt 4.6, Leading zero omitted, Abs format (unit mm)*
G04 Created by KiCad (PCBNEW 4.0.5-e0-6337~49~ubuntu16.04.1) date Fri Jan 20 20:06:19 2017*
%MOMM*%
%LPD*%
G01*
G04 APERTURE LIST*
%ADD10C,0.350000*%
%ADD11C,0.040640*%
%ADD12C,0.254000*%
%ADD13C,0.050800*%
%ADD14C,0.150000*%
G04 APERTURE END LIST*
D10*
D11*
X126935960Y-90882040D02*
G75*
G03X123242592Y-94781860I106632J-3799820D01*
G01*
X123235960Y-102682040D02*
G75*
G03X127347784Y-106482040I3811824J0D01*
G01*
X142935960Y-106483356D02*
G75*
G03X146735960Y-102582040I0J3801316D01*
G01*
X146737276Y-94682040D02*
G75*
G03X142835960Y-90882040I-3801316J0D01*
G01*
X146735960Y-94682040D02*
X146735960Y-102682040D01*
X142935960Y-90882040D02*
X126935960Y-90882040D01*
X142935960Y-106482040D02*
X127235960Y-106482040D01*
X123135960Y-94682040D02*
X123135960Y-102682040D01*
X131942560Y-91671640D02*
X131942560Y-96675440D01*
D12*
X130159567Y-98682040D02*
G75*
G03X130159567Y-98682040I-223607J0D01*
G01*
D13*
X141935960Y-100482040D02*
X141935960Y-96882040D01*
X128135960Y-100482040D02*
X141935960Y-100482040D01*
X128135960Y-96882040D02*
X128135960Y-100482040D01*
D11*
X137962360Y-96700840D02*
X137962360Y-91671640D01*
X141924760Y-96878640D02*
X137962360Y-96878640D01*
X137962360Y-96878640D02*
X137962360Y-96675440D01*
X128132560Y-96878640D02*
X131942560Y-96878640D01*
X131942560Y-96878640D02*
X131942560Y-96675440D01*
X137962360Y-91671640D02*
X134990560Y-91671640D01*
X134990560Y-91671640D02*
X131942560Y-91671640D01*
D14*
X135069294Y-99134421D02*
X134735960Y-98658230D01*
X134497865Y-99134421D02*
X134497865Y-98134421D01*
X134878818Y-98134421D01*
X134974056Y-98182040D01*
X135021675Y-98229659D01*
X135069294Y-98324897D01*
X135069294Y-98467754D01*
X135021675Y-98562992D01*
X134974056Y-98610611D01*
X134878818Y-98658230D01*
X134497865Y-98658230D01*
X136021675Y-99134421D02*
X135450246Y-99134421D01*
X135735960Y-99134421D02*
X135735960Y-98134421D01*
X135640722Y-98277278D01*
X135545484Y-98372516D01*
X135450246Y-98420135D01*
M02*
