G04 This is an RS-274x file exported by *
G04 gerbv version 2.6.0 *
G04 More information is available about gerbv at *
G04 http://gerbv.gpleda.org/ *
G04 --End of header info--*
%MOIN*%
%FSLAX34Y34*%
%IPPOS*%
G04 --Define apertures--*
%ADD10C,0.0138*%
%ADD11C,0.0059*%
%ADD12C,0.0020*%
%ADD13C,0.0016*%
G04 --Start main section--*
G54D11*
G01X0032169Y-022570D02*
G75*
G03X0032169Y-022570I-000071J0000000D01*
G54D12*
G01X0031058Y-023930D02*
G01X0032198Y-023930D01*
G01X0035533Y-023928D02*
G01X0035533Y-021507D01*
G01X0035533Y-021507D02*
G01X0031064Y-021507D01*
G01X0031058Y-023928D02*
G01X0031058Y-021507D01*
G01X0034394Y-023928D02*
G01X0035528Y-023930D01*
G01X0032598Y-023930D02*
G01X0033988Y-023930D01*
G54D13*
G01X0036420Y-025646D02*
G75*
G03X0037874Y-024111I-000042J0001496D01*
G01X0037876Y-021000D02*
G75*
G03X0036410Y-019500I-001501J0000000D01*
G01X0026971Y-019504D02*
G75*
G03X0025475Y-021040I0000000J-001497D01*
G01X0025474Y-024150D02*
G75*
G03X0027010Y-025646I0001497J0000000D01*
G01X0025475Y-024150D02*
G01X0025475Y-021000D01*
G01X0026971Y-025646D02*
G01X0036420Y-025646D01*
G01X0026971Y-019504D02*
G01X0036420Y-019504D01*
G01X0037876Y-024150D02*
G01X0037876Y-021000D01*
G54D11*
G01X0032892Y-022701D02*
G01X0033173Y-022701D01*
G01X0033173Y-022701D02*
G01X0033230Y-022720D01*
G01X0033230Y-022720D02*
G01X0033267Y-022757D01*
G01X0033267Y-022757D02*
G01X0033286Y-022814D01*
G01X0033286Y-022814D02*
G01X0033286Y-022851D01*
G01X0033286Y-022308D02*
G01X0033286Y-022533D01*
G01X0033286Y-022420D02*
G01X0032892Y-022420D01*
G01X0032892Y-022420D02*
G01X0032948Y-022458D01*
G01X0032948Y-022458D02*
G01X0032986Y-022495D01*
G01X0032986Y-022495D02*
G01X0033005Y-022533D01*
G01X0000000Y0000000D02*
G54D13*
G01X0036420Y-025646D02*
G75*
G03X0037874Y-024111I-000042J0001496D01*
G01X0037876Y-021000D02*
G75*
G03X0036257Y-019504I-001501J0000000D01*
G01X0026971Y-019504D02*
G75*
G03X0025475Y-021040I0000000J-001497D01*
G01X0025474Y-024150D02*
G75*
G03X0027010Y-025646I0001497J0000000D01*
G01X0025475Y-024150D02*
G01X0025475Y-021000D01*
G01X0026971Y-025646D02*
G01X0036420Y-025646D01*
G01X0026971Y-019504D02*
G01X0036420Y-019504D01*
G01X0037876Y-024150D02*
G01X0037876Y-021000D01*
M02*
