%TF.GenerationSoftware,KiCad,Pcbnew,4.0.7-e2-6376~58~ubuntu16.04.1*%
%TF.CreationDate,2018-05-14T09:05:55-07:00*%
%TF.ProjectId,2x2-LED-RGB-NeoPixel-SMT,3278322D4C45442D5247422D4E656F50,1.0*%
%TF.FileFunction,Legend,Top*%
%FSLAX46Y46*%
G04 Gerber Fmt 4.6, Leading zero omitted, Abs format (unit mm)*
G04 Created by KiCad (PCBNEW 4.0.7-e2-6376~58~ubuntu16.04.1) date Mon May 14 09:05:55 2018*
%MOMM*%
%LPD*%
G01*
G04 APERTURE LIST*
%ADD10C,0.350000*%
%ADD11C,0.152400*%
%ADD12C,0.150000*%
%ADD13C,7.400000*%
%ADD14C,0.800000*%
%ADD15C,6.152400*%
%ADD16R,0.952400X0.902400*%
G04 APERTURE END LIST*
D10*
D11*
X9045954Y-48685584D02*
X9045954Y-47415584D01*
X6315454Y-48685584D02*
X6315454Y-47415584D01*
D12*
X9045954Y-48685584D02*
X6315454Y-48685584D01*
X6315454Y-47415584D02*
X9045954Y-47415584D01*
D11*
X15948623Y-46883151D02*
X14691387Y-45625915D01*
X9931852Y-48050584D02*
X13434151Y-44548284D01*
X17116056Y-48050584D02*
X13523954Y-51642686D01*
X12356521Y-50475253D02*
X11099285Y-49218017D01*
D13*
X17548954Y-52125584D02*
X17773954Y-52150584D01*
D12*
X14471000Y-55445000D02*
X11740500Y-55445000D01*
D11*
X14471000Y-55445000D02*
X14471000Y-54175000D01*
X11740500Y-55445000D02*
X11740500Y-54175000D01*
D12*
X11740500Y-54175000D02*
X14471000Y-54175000D01*
X12473954Y-53777965D02*
X12473954Y-52777965D01*
X12712049Y-52777965D01*
X12854907Y-52825584D01*
X12950145Y-52920822D01*
X12997764Y-53016060D01*
X13045383Y-53206536D01*
X13045383Y-53349394D01*
X12997764Y-53539870D01*
X12950145Y-53635108D01*
X12854907Y-53730346D01*
X12712049Y-53777965D01*
X12473954Y-53777965D01*
X13473954Y-53777965D02*
X13473954Y-52777965D01*
X13088240Y-43677965D02*
X13088240Y-42677965D01*
X13326335Y-42677965D01*
X13469193Y-42725584D01*
X13564431Y-42820822D01*
X13612050Y-42916060D01*
X13659669Y-43106536D01*
X13659669Y-43249394D01*
X13612050Y-43439870D01*
X13564431Y-43535108D01*
X13469193Y-43630346D01*
X13326335Y-43677965D01*
X13088240Y-43677965D01*
X14278716Y-42677965D02*
X14469193Y-42677965D01*
X14564431Y-42725584D01*
X14659669Y-42820822D01*
X14707288Y-43011298D01*
X14707288Y-43344632D01*
X14659669Y-43535108D01*
X14564431Y-43630346D01*
X14469193Y-43677965D01*
X14278716Y-43677965D01*
X14183478Y-43630346D01*
X14088240Y-43535108D01*
X14040621Y-43344632D01*
X14040621Y-43011298D01*
X14088240Y-42820822D01*
X14183478Y-42725584D01*
X14278716Y-42677965D01*
X6093002Y-45897013D02*
X6854907Y-45897013D01*
X6473955Y-46277965D02*
X6473955Y-45516060D01*
%LPC*%
D14*
X8051351Y-49385357D02*
G75*
G03X11473954Y-54425584I1497603J-2665227D01*
G01*
X19096557Y-46665811D02*
G75*
G03X15673954Y-41625584I-1497603J2665227D01*
G01*
D15*
X9573954Y-44025584D03*
X17573954Y-52025584D03*
D16*
X8398954Y-48050584D03*
X6898954Y-48050584D03*
D10*
G36*
X10889480Y-47573677D02*
X11625861Y-48310058D01*
X10458428Y-49477491D01*
X9722047Y-48741110D01*
X10889480Y-47573677D01*
X10889480Y-47573677D01*
G37*
G36*
X13289480Y-49973677D02*
X14025861Y-50710058D01*
X12858428Y-51877491D01*
X12122047Y-51141110D01*
X13289480Y-49973677D01*
X13289480Y-49973677D01*
G37*
G36*
X16631122Y-46541901D02*
X17367503Y-47278282D01*
X16200070Y-48445715D01*
X15463689Y-47709334D01*
X16631122Y-46541901D01*
X16631122Y-46541901D01*
G37*
G36*
X14296256Y-44207035D02*
X15032637Y-44943416D01*
X13865204Y-46110849D01*
X13128823Y-45374468D01*
X14296256Y-44207035D01*
X14296256Y-44207035D01*
G37*
D16*
X13824000Y-54810000D03*
X12324000Y-54810000D03*
M02*
