%TF.GenerationSoftware,KiCad,Pcbnew,5.0.0-fee4fd1~66~ubuntu16.04.1*%
%TF.CreationDate,2018-09-24T22:02:00-07:00*%
%TF.ProjectId,2x2-LED-RGB-NeoPixel-SMT,3278322D4C45442D5247422D4E656F50,v1.1*%
%TF.SameCoordinates,Original*%
%TF.FileFunction,Copper,L1,Top,Signal*%
%TF.FilePolarity,Positive*%
%FSLAX46Y46*%
G04 Gerber Fmt 4.6, Leading zero omitted, Abs format (unit mm)*
G04 Created by KiCad (PCBNEW 5.0.0-fee4fd1~66~ubuntu16.04.1) date Mon Sep 24 22:02:00 2018*
%MOMM*%
%LPD*%
G01*
G04 APERTURE LIST*
%ADD10C,0.300000*%
%ADD11C,0.800000*%
%ADD12C,0.685800*%
%ADD13R,0.800000X0.750000*%
%ADD14C,0.889000*%
%ADD15C,0.350000*%
%ADD16C,6.000000*%
%ADD17C,0.330200*%
%ADD18C,0.350000*%
G04 APERTURE END LIST*
D10*
X12973954Y-52625584D02*
X12973954Y-53125584D01*
D11*
X19096767Y-46665693D02*
G75*
G03X15673954Y-41625584I-1497813J2665109D01*
G01*
X6573954Y-49525584D02*
X7173954Y-50125584D01*
D10*
X12373954Y-49925584D02*
X12373954Y-46825584D01*
X14173954Y-48825584D02*
X14173954Y-46625584D01*
D11*
X6873954Y-48125584D02*
X6873954Y-46925584D01*
X14173954Y-41725584D02*
X15473954Y-41725584D01*
D10*
X13373954Y-49625584D02*
X14173954Y-48825584D01*
X13373954Y-49625584D02*
X13373954Y-50525584D01*
D11*
X16573954Y-50225584D02*
X16573954Y-47525584D01*
X10773954Y-54825584D02*
X12273954Y-54825584D01*
D10*
X13673954Y-54725584D02*
X12973954Y-53125584D01*
D11*
X10373954Y-48725584D02*
X9573954Y-48025584D01*
X8373954Y-48025584D02*
X9473954Y-48025584D01*
X8051141Y-49385475D02*
G75*
G03X11473954Y-54425584I1497813J-2665109D01*
G01*
X8373954Y-48125584D02*
X8373954Y-45425584D01*
D10*
X13873954Y-45325584D02*
X12373954Y-46825584D01*
D12*
X6873954Y-46825584D03*
X6573954Y-49525584D03*
X14173954Y-41725584D03*
X14173954Y-46625584D03*
X12973954Y-52625584D03*
X12373954Y-49925584D03*
D13*
X12324000Y-54810000D03*
X13824000Y-54810000D03*
D14*
X14080730Y-45158942D03*
D15*
G36*
X14296256Y-44314798D02*
X14924874Y-44943416D01*
X13865204Y-46003086D01*
X13236586Y-45374468D01*
X14296256Y-44314798D01*
X14296256Y-44314798D01*
G37*
D14*
X16415596Y-47493808D03*
D15*
G36*
X16631122Y-46649664D02*
X17259740Y-47278282D01*
X16200070Y-48337952D01*
X15571452Y-47709334D01*
X16631122Y-46649664D01*
X16631122Y-46649664D01*
G37*
D14*
X13073954Y-50925584D03*
D15*
G36*
X13289480Y-50081440D02*
X13918098Y-50710058D01*
X12858428Y-51769728D01*
X12229810Y-51141110D01*
X13289480Y-50081440D01*
X13289480Y-50081440D01*
G37*
D14*
X10673954Y-48525584D03*
D15*
G36*
X10889480Y-47681440D02*
X11518098Y-48310058D01*
X10458428Y-49369728D01*
X9829810Y-48741110D01*
X10889480Y-47681440D01*
X10889480Y-47681440D01*
G37*
D13*
X6898954Y-48050584D03*
X8398954Y-48050584D03*
D16*
X17573954Y-52025584D03*
X9573954Y-44025584D03*
D17*
X6873954Y-46825584D03*
X6573954Y-49525584D03*
X14173954Y-41725584D03*
X14173954Y-46625584D03*
X12973954Y-52625584D03*
X12373954Y-49925584D03*
D18*
X17573954Y-44025584D03*
X17573954Y-52025584D03*
X9573954Y-44025584D03*
X9573954Y-52025584D03*
M02*
