G04 This is an RS-274x file exported by *
G04 gerbv version 2.6.0 *
G04 More information is available about gerbv at *
G04 http://gerbv.gpleda.org/ *
G04 --End of header info--*
%MOIN*%
%FSLAX34Y34*%
%IPPOS*%
G04 --Define apertures--*
%ADD10C,0.0138*%
%ADD11C,0.0020*%
%ADD12C,0.0016*%
%ADD13C,0.0059*%
G04 --Start main section--*
G54D11*
G01X0002685Y-006493D02*
G01X0002710Y-006493D01*
G01X0002685Y-008668D02*
G01X0002685Y-006493D01*
G01X0003885Y-008668D02*
G01X0002685Y-008668D01*
G01X0003885Y-006493D02*
G01X0003885Y-008668D01*
G01X0002710Y-006493D02*
G01X0003885Y-006493D01*
G54D12*
G01X0004871Y-004522D02*
G01X0001800Y-004522D01*
G01X0004871Y-010664D02*
G01X0001800Y-010664D01*
G01X0006406Y-009129D02*
G01X0006406Y-006058D01*
G01X0000264Y-009129D02*
G01X0000264Y-006058D01*
G01X0006406Y-006058D02*
G75*
G03X0004871Y-004522I-001535J0000000D01*
G01X0004871Y-010664D02*
G75*
G03X0006406Y-009129I0000000J0001535D01*
G01X0000264Y-009129D02*
G75*
G03X0001800Y-010664I0001535J0000000D01*
G01X0001800Y-004522D02*
G75*
G03X0000264Y-006058I0000000J-001535D01*
G54D13*
G01X0002810Y-007753D02*
G01X0002867Y-007771D01*
G01X0002867Y-007771D02*
G01X0002960Y-007771D01*
G01X0002960Y-007771D02*
G01X0002998Y-007753D01*
G01X0002998Y-007753D02*
G01X0003016Y-007734D01*
G01X0003016Y-007734D02*
G01X0003035Y-007696D01*
G01X0003035Y-007696D02*
G01X0003035Y-007659D01*
G01X0003035Y-007659D02*
G01X0003016Y-007621D01*
G01X0003016Y-007621D02*
G01X0002998Y-007603D01*
G01X0002998Y-007603D02*
G01X0002960Y-007584D01*
G01X0002960Y-007584D02*
G01X0002885Y-007565D01*
G01X0002885Y-007565D02*
G01X0002848Y-007546D01*
G01X0002848Y-007546D02*
G01X0002829Y-007528D01*
G01X0002829Y-007528D02*
G01X0002810Y-007490D01*
G01X0002810Y-007490D02*
G01X0002810Y-007453D01*
G01X0002810Y-007453D02*
G01X0002829Y-007415D01*
G01X0002829Y-007415D02*
G01X0002848Y-007396D01*
G01X0002848Y-007396D02*
G01X0002885Y-007378D01*
G01X0002885Y-007378D02*
G01X0002979Y-007378D01*
G01X0002979Y-007378D02*
G01X0003035Y-007396D01*
G01X0003166Y-007378D02*
G01X0003260Y-007771D01*
G01X0003260Y-007771D02*
G01X0003335Y-007490D01*
G01X0003335Y-007490D02*
G01X0003410Y-007771D01*
G01X0003410Y-007771D02*
G01X0003504Y-007378D01*
G01X0003860Y-007771D02*
G01X0003635Y-007771D01*
G01X0003748Y-007771D02*
G01X0003748Y-007378D01*
G01X0003748Y-007378D02*
G01X0003710Y-007434D01*
G01X0003710Y-007434D02*
G01X0003673Y-007471D01*
G01X0003673Y-007471D02*
G01X0003635Y-007490D01*
G01X0000000Y0000000D02*
G54D12*
G01X0004871Y-004522D02*
G01X0001800Y-004522D01*
G01X0004871Y-010664D02*
G01X0001800Y-010664D01*
G01X0006406Y-009129D02*
G01X0006406Y-006058D01*
G01X0000264Y-009129D02*
G01X0000264Y-006058D01*
G01X0006406Y-006058D02*
G75*
G03X0004871Y-004522I-001535J0000000D01*
G01X0004871Y-010664D02*
G75*
G03X0006406Y-009129I0000000J0001535D01*
G01X0000264Y-009129D02*
G75*
G03X0001800Y-010664I0001535J0000000D01*
G01X0001800Y-004522D02*
G75*
G03X0000264Y-006058I0000000J-001535D01*
M02*
