%TF.GenerationSoftware,KiCad,Pcbnew,4.0.5-e0-6337~49~ubuntu16.04.1*%
%TF.CreationDate,2017-03-16T09:30:54-07:00*%
%TF.ProjectId,2x2-Tilt-Switch-1208-SMT,3278322D54696C742D5377697463682D,1.0*%
%TF.FileFunction,Soldermask,Bot*%
%FSLAX46Y46*%
G04 Gerber Fmt 4.6, Leading zero omitted, Abs format (unit mm)*
G04 Created by KiCad (PCBNEW 4.0.5-e0-6337~49~ubuntu16.04.1) date Thu Mar 16 09:30:54 2017*
%MOMM*%
%LPD*%
G01*
G04 APERTURE LIST*
%ADD10C,0.350000*%
%ADD11C,7.200000*%
G04 APERTURE END LIST*
D10*
D11*
X4471400Y-15286720D02*
X12471400Y-15286720D01*
X4471400Y-23286720D02*
X12471400Y-23286720D01*
D10*
G36*
X4794510Y-20212567D02*
X5385455Y-20333871D01*
X5941598Y-20567652D01*
X6441734Y-20904998D01*
X6866821Y-21333063D01*
X7200666Y-21835541D01*
X7430556Y-22393296D01*
X7547664Y-22984734D01*
X7547664Y-22984744D01*
X7547731Y-22985083D01*
X7538110Y-23674136D01*
X7538033Y-23674474D01*
X7538033Y-23674482D01*
X7404457Y-24262421D01*
X7159085Y-24813536D01*
X6811337Y-25306498D01*
X6374462Y-25722529D01*
X5865100Y-26045781D01*
X5302654Y-26263939D01*
X4708547Y-26368696D01*
X4105403Y-26356062D01*
X3516200Y-26226517D01*
X2963382Y-25984997D01*
X2468007Y-25640702D01*
X2048937Y-25206743D01*
X1722138Y-24699650D01*
X1500056Y-24138734D01*
X1391155Y-23545378D01*
X1399577Y-22942161D01*
X1525006Y-22352067D01*
X1762659Y-21797578D01*
X2103491Y-21299808D01*
X2534512Y-20877720D01*
X3039313Y-20547388D01*
X3598659Y-20321397D01*
X4191245Y-20208356D01*
X4794510Y-20212567D01*
X4794510Y-20212567D01*
G37*
G36*
X12794510Y-20212567D02*
X13385455Y-20333871D01*
X13941598Y-20567652D01*
X14441734Y-20904998D01*
X14866821Y-21333063D01*
X15200666Y-21835541D01*
X15430556Y-22393296D01*
X15547664Y-22984734D01*
X15547664Y-22984744D01*
X15547731Y-22985083D01*
X15538110Y-23674136D01*
X15538033Y-23674474D01*
X15538033Y-23674482D01*
X15404457Y-24262421D01*
X15159085Y-24813536D01*
X14811337Y-25306498D01*
X14374462Y-25722529D01*
X13865100Y-26045781D01*
X13302654Y-26263939D01*
X12708547Y-26368696D01*
X12105403Y-26356062D01*
X11516200Y-26226517D01*
X10963382Y-25984997D01*
X10468007Y-25640702D01*
X10048937Y-25206743D01*
X9722138Y-24699650D01*
X9500056Y-24138734D01*
X9391155Y-23545378D01*
X9399577Y-22942161D01*
X9525006Y-22352067D01*
X9762659Y-21797578D01*
X10103491Y-21299808D01*
X10534512Y-20877720D01*
X11039313Y-20547388D01*
X11598659Y-20321397D01*
X12191245Y-20208356D01*
X12794510Y-20212567D01*
X12794510Y-20212567D01*
G37*
G36*
X4794510Y-12212567D02*
X5385455Y-12333871D01*
X5941598Y-12567652D01*
X6441734Y-12904998D01*
X6866821Y-13333063D01*
X7200666Y-13835541D01*
X7430556Y-14393296D01*
X7547664Y-14984734D01*
X7547664Y-14984744D01*
X7547731Y-14985083D01*
X7538110Y-15674136D01*
X7538033Y-15674474D01*
X7538033Y-15674482D01*
X7404457Y-16262421D01*
X7159085Y-16813536D01*
X6811337Y-17306498D01*
X6374462Y-17722529D01*
X5865100Y-18045781D01*
X5302654Y-18263939D01*
X4708547Y-18368696D01*
X4105403Y-18356062D01*
X3516200Y-18226517D01*
X2963382Y-17984997D01*
X2468007Y-17640702D01*
X2048937Y-17206743D01*
X1722138Y-16699650D01*
X1500056Y-16138734D01*
X1391155Y-15545378D01*
X1399577Y-14942161D01*
X1525006Y-14352067D01*
X1762659Y-13797578D01*
X2103491Y-13299808D01*
X2534512Y-12877720D01*
X3039313Y-12547388D01*
X3598659Y-12321397D01*
X4191245Y-12208356D01*
X4794510Y-12212567D01*
X4794510Y-12212567D01*
G37*
G36*
X12794510Y-12212567D02*
X13385455Y-12333871D01*
X13941598Y-12567652D01*
X14441734Y-12904998D01*
X14866821Y-13333063D01*
X15200666Y-13835541D01*
X15430556Y-14393296D01*
X15547664Y-14984734D01*
X15547664Y-14984744D01*
X15547731Y-14985083D01*
X15538110Y-15674136D01*
X15538033Y-15674474D01*
X15538033Y-15674482D01*
X15404457Y-16262421D01*
X15159085Y-16813536D01*
X14811337Y-17306498D01*
X14374462Y-17722529D01*
X13865100Y-18045781D01*
X13302654Y-18263939D01*
X12708547Y-18368696D01*
X12105403Y-18356062D01*
X11516200Y-18226517D01*
X10963382Y-17984997D01*
X10468007Y-17640702D01*
X10048937Y-17206743D01*
X9722138Y-16699650D01*
X9500056Y-16138734D01*
X9391155Y-15545378D01*
X9399577Y-14942161D01*
X9525006Y-14352067D01*
X9762659Y-13797578D01*
X10103491Y-13299808D01*
X10534512Y-12877720D01*
X11039313Y-12547388D01*
X11598659Y-12321397D01*
X12191245Y-12208356D01*
X12794510Y-12212567D01*
X12794510Y-12212567D01*
G37*
M02*
