%TF.GenerationSoftware,KiCad,Pcbnew,4.0.7-e2-6376~58~ubuntu16.04.1*%
%TF.CreationDate,2018-02-09T09:37:37-08:00*%
%TF.ProjectId,6x11-Microbit-Breakout,367831312D4D6963726F6269742D4272,1.0*%
%TF.FileFunction,Soldermask,Bot*%
%FSLAX46Y46*%
G04 Gerber Fmt 4.6, Leading zero omitted, Abs format (unit mm)*
G04 Created by KiCad (PCBNEW 4.0.7-e2-6376~58~ubuntu16.04.1) date Fri Feb  9 09:37:37 2018*
%MOMM*%
%LPD*%
G01*
G04 APERTURE LIST*
%ADD10C,0.350000*%
G04 APERTURE END LIST*
D10*
G36*
X73538310Y-105183047D02*
X74129255Y-105304351D01*
X74685398Y-105538132D01*
X75185534Y-105875478D01*
X75610621Y-106303543D01*
X75944466Y-106806021D01*
X76174356Y-107363776D01*
X76291464Y-107955214D01*
X76291464Y-107955224D01*
X76291531Y-107955563D01*
X76281910Y-108644616D01*
X76281833Y-108644954D01*
X76281833Y-108644962D01*
X76148257Y-109232901D01*
X75902885Y-109784016D01*
X75555137Y-110276978D01*
X75118262Y-110693009D01*
X74608900Y-111016261D01*
X74046454Y-111234419D01*
X73452347Y-111339176D01*
X72849203Y-111326542D01*
X72260000Y-111196997D01*
X71707182Y-110955477D01*
X71211807Y-110611182D01*
X70792737Y-110177223D01*
X70465938Y-109670130D01*
X70243856Y-109109214D01*
X70134955Y-108515858D01*
X70143377Y-107912641D01*
X70268806Y-107322547D01*
X70506459Y-106768058D01*
X70847291Y-106270288D01*
X71278312Y-105848200D01*
X71783113Y-105517868D01*
X72342459Y-105291877D01*
X72935045Y-105178836D01*
X73538310Y-105183047D01*
X73538310Y-105183047D01*
G37*
G36*
X65538310Y-105183047D02*
X66129255Y-105304351D01*
X66685398Y-105538132D01*
X67185534Y-105875478D01*
X67610621Y-106303543D01*
X67944466Y-106806021D01*
X68174356Y-107363776D01*
X68291464Y-107955214D01*
X68291464Y-107955224D01*
X68291531Y-107955563D01*
X68281910Y-108644616D01*
X68281833Y-108644954D01*
X68281833Y-108644962D01*
X68148257Y-109232901D01*
X67902885Y-109784016D01*
X67555137Y-110276978D01*
X67118262Y-110693009D01*
X66608900Y-111016261D01*
X66046454Y-111234419D01*
X65452347Y-111339176D01*
X64849203Y-111326542D01*
X64260000Y-111196997D01*
X63707182Y-110955477D01*
X63211807Y-110611182D01*
X62792737Y-110177223D01*
X62465938Y-109670130D01*
X62243856Y-109109214D01*
X62134955Y-108515858D01*
X62143377Y-107912641D01*
X62268806Y-107322547D01*
X62506459Y-106768058D01*
X62847291Y-106270288D01*
X63278312Y-105848200D01*
X63783113Y-105517868D01*
X64342459Y-105291877D01*
X64935045Y-105178836D01*
X65538310Y-105183047D01*
X65538310Y-105183047D01*
G37*
G36*
X57538310Y-105183047D02*
X58129255Y-105304351D01*
X58685398Y-105538132D01*
X59185534Y-105875478D01*
X59610621Y-106303543D01*
X59944466Y-106806021D01*
X60174356Y-107363776D01*
X60291464Y-107955214D01*
X60291464Y-107955224D01*
X60291531Y-107955563D01*
X60281910Y-108644616D01*
X60281833Y-108644954D01*
X60281833Y-108644962D01*
X60148257Y-109232901D01*
X59902885Y-109784016D01*
X59555137Y-110276978D01*
X59118262Y-110693009D01*
X58608900Y-111016261D01*
X58046454Y-111234419D01*
X57452347Y-111339176D01*
X56849203Y-111326542D01*
X56260000Y-111196997D01*
X55707182Y-110955477D01*
X55211807Y-110611182D01*
X54792737Y-110177223D01*
X54465938Y-109670130D01*
X54243856Y-109109214D01*
X54134955Y-108515858D01*
X54143377Y-107912641D01*
X54268806Y-107322547D01*
X54506459Y-106768058D01*
X54847291Y-106270288D01*
X55278312Y-105848200D01*
X55783113Y-105517868D01*
X56342459Y-105291877D01*
X56935045Y-105178836D01*
X57538310Y-105183047D01*
X57538310Y-105183047D01*
G37*
G36*
X97537310Y-105183047D02*
X98128255Y-105304351D01*
X98684398Y-105538132D01*
X99184534Y-105875478D01*
X99609621Y-106303543D01*
X99943466Y-106806021D01*
X100173356Y-107363776D01*
X100290464Y-107955214D01*
X100290464Y-107955224D01*
X100290531Y-107955563D01*
X100280910Y-108644616D01*
X100280833Y-108644954D01*
X100280833Y-108644962D01*
X100147257Y-109232901D01*
X99901885Y-109784016D01*
X99554137Y-110276978D01*
X99117262Y-110693009D01*
X98607900Y-111016261D01*
X98045454Y-111234419D01*
X97451347Y-111339176D01*
X96848203Y-111326542D01*
X96259000Y-111196997D01*
X95706182Y-110955477D01*
X95210807Y-110611182D01*
X94791737Y-110177223D01*
X94464938Y-109670130D01*
X94242856Y-109109214D01*
X94133955Y-108515858D01*
X94142377Y-107912641D01*
X94267806Y-107322547D01*
X94505459Y-106768058D01*
X94846291Y-106270288D01*
X95277312Y-105848200D01*
X95782113Y-105517868D01*
X96341459Y-105291877D01*
X96934045Y-105178836D01*
X97537310Y-105183047D01*
X97537310Y-105183047D01*
G37*
G36*
X81538310Y-105183047D02*
X82129255Y-105304351D01*
X82685398Y-105538132D01*
X83185534Y-105875478D01*
X83610621Y-106303543D01*
X83944466Y-106806021D01*
X84174356Y-107363776D01*
X84291464Y-107955214D01*
X84291464Y-107955224D01*
X84291531Y-107955563D01*
X84281910Y-108644616D01*
X84281833Y-108644954D01*
X84281833Y-108644962D01*
X84148257Y-109232901D01*
X83902885Y-109784016D01*
X83555137Y-110276978D01*
X83118262Y-110693009D01*
X82608900Y-111016261D01*
X82046454Y-111234419D01*
X81452347Y-111339176D01*
X80849203Y-111326542D01*
X80260000Y-111196997D01*
X79707182Y-110955477D01*
X79211807Y-110611182D01*
X78792737Y-110177223D01*
X78465938Y-109670130D01*
X78243856Y-109109214D01*
X78134955Y-108515858D01*
X78143377Y-107912641D01*
X78268806Y-107322547D01*
X78506459Y-106768058D01*
X78847291Y-106270288D01*
X79278312Y-105848200D01*
X79783113Y-105517868D01*
X80342459Y-105291877D01*
X80935045Y-105178836D01*
X81538310Y-105183047D01*
X81538310Y-105183047D01*
G37*
G36*
X89538310Y-105183047D02*
X90129255Y-105304351D01*
X90685398Y-105538132D01*
X91185534Y-105875478D01*
X91610621Y-106303543D01*
X91944466Y-106806021D01*
X92174356Y-107363776D01*
X92291464Y-107955214D01*
X92291464Y-107955224D01*
X92291531Y-107955563D01*
X92281910Y-108644616D01*
X92281833Y-108644954D01*
X92281833Y-108644962D01*
X92148257Y-109232901D01*
X91902885Y-109784016D01*
X91555137Y-110276978D01*
X91118262Y-110693009D01*
X90608900Y-111016261D01*
X90046454Y-111234419D01*
X89452347Y-111339176D01*
X88849203Y-111326542D01*
X88260000Y-111196997D01*
X87707182Y-110955477D01*
X87211807Y-110611182D01*
X86792737Y-110177223D01*
X86465938Y-109670130D01*
X86243856Y-109109214D01*
X86134955Y-108515858D01*
X86143377Y-107912641D01*
X86268806Y-107322547D01*
X86506459Y-106768058D01*
X86847291Y-106270288D01*
X87278312Y-105848200D01*
X87783113Y-105517868D01*
X88342459Y-105291877D01*
X88935045Y-105178836D01*
X89538310Y-105183047D01*
X89538310Y-105183047D01*
G37*
G36*
X97538310Y-97183047D02*
X98129255Y-97304351D01*
X98685398Y-97538132D01*
X99185534Y-97875478D01*
X99610621Y-98303543D01*
X99944466Y-98806021D01*
X100174356Y-99363776D01*
X100291464Y-99955214D01*
X100291464Y-99955224D01*
X100291531Y-99955563D01*
X100281910Y-100644616D01*
X100281833Y-100644954D01*
X100281833Y-100644962D01*
X100148257Y-101232901D01*
X99902885Y-101784016D01*
X99555137Y-102276978D01*
X99118262Y-102693009D01*
X98608900Y-103016261D01*
X98046454Y-103234419D01*
X97452347Y-103339176D01*
X96849203Y-103326542D01*
X96260000Y-103196997D01*
X95707182Y-102955477D01*
X95211807Y-102611182D01*
X94792737Y-102177223D01*
X94465938Y-101670130D01*
X94243856Y-101109214D01*
X94134955Y-100515858D01*
X94143377Y-99912641D01*
X94268806Y-99322547D01*
X94506459Y-98768058D01*
X94847291Y-98270288D01*
X95278312Y-97848200D01*
X95783113Y-97517868D01*
X96342459Y-97291877D01*
X96935045Y-97178836D01*
X97538310Y-97183047D01*
X97538310Y-97183047D01*
G37*
G36*
X57538310Y-97183047D02*
X58129255Y-97304351D01*
X58685398Y-97538132D01*
X59185534Y-97875478D01*
X59610621Y-98303543D01*
X59944466Y-98806021D01*
X60174356Y-99363776D01*
X60291464Y-99955214D01*
X60291464Y-99955224D01*
X60291531Y-99955563D01*
X60281910Y-100644616D01*
X60281833Y-100644954D01*
X60281833Y-100644962D01*
X60148257Y-101232901D01*
X59902885Y-101784016D01*
X59555137Y-102276978D01*
X59118262Y-102693009D01*
X58608900Y-103016261D01*
X58046454Y-103234419D01*
X57452347Y-103339176D01*
X56849203Y-103326542D01*
X56260000Y-103196997D01*
X55707182Y-102955477D01*
X55211807Y-102611182D01*
X54792737Y-102177223D01*
X54465938Y-101670130D01*
X54243856Y-101109214D01*
X54134955Y-100515858D01*
X54143377Y-99912641D01*
X54268806Y-99322547D01*
X54506459Y-98768058D01*
X54847291Y-98270288D01*
X55278312Y-97848200D01*
X55783113Y-97517868D01*
X56342459Y-97291877D01*
X56935045Y-97178836D01*
X57538310Y-97183047D01*
X57538310Y-97183047D01*
G37*
G36*
X57538310Y-89183047D02*
X58129255Y-89304351D01*
X58685398Y-89538132D01*
X59185534Y-89875478D01*
X59610621Y-90303543D01*
X59944466Y-90806021D01*
X60174356Y-91363776D01*
X60291464Y-91955214D01*
X60291464Y-91955224D01*
X60291531Y-91955563D01*
X60281910Y-92644616D01*
X60281833Y-92644954D01*
X60281833Y-92644962D01*
X60148257Y-93232901D01*
X59902885Y-93784016D01*
X59555137Y-94276978D01*
X59118262Y-94693009D01*
X58608900Y-95016261D01*
X58046454Y-95234419D01*
X57452347Y-95339176D01*
X56849203Y-95326542D01*
X56260000Y-95196997D01*
X55707182Y-94955477D01*
X55211807Y-94611182D01*
X54792737Y-94177223D01*
X54465938Y-93670130D01*
X54243856Y-93109214D01*
X54134955Y-92515858D01*
X54143377Y-91912641D01*
X54268806Y-91322547D01*
X54506459Y-90768058D01*
X54847291Y-90270288D01*
X55278312Y-89848200D01*
X55783113Y-89517868D01*
X56342459Y-89291877D01*
X56935045Y-89178836D01*
X57538310Y-89183047D01*
X57538310Y-89183047D01*
G37*
G36*
X97538310Y-89183047D02*
X98129255Y-89304351D01*
X98685398Y-89538132D01*
X99185534Y-89875478D01*
X99610621Y-90303543D01*
X99944466Y-90806021D01*
X100174356Y-91363776D01*
X100291464Y-91955214D01*
X100291464Y-91955224D01*
X100291531Y-91955563D01*
X100281910Y-92644616D01*
X100281833Y-92644954D01*
X100281833Y-92644962D01*
X100148257Y-93232901D01*
X99902885Y-93784016D01*
X99555137Y-94276978D01*
X99118262Y-94693009D01*
X98608900Y-95016261D01*
X98046454Y-95234419D01*
X97452347Y-95339176D01*
X96849203Y-95326542D01*
X96260000Y-95196997D01*
X95707182Y-94955477D01*
X95211807Y-94611182D01*
X94792737Y-94177223D01*
X94465938Y-93670130D01*
X94243856Y-93109214D01*
X94134955Y-92515858D01*
X94143377Y-91912641D01*
X94268806Y-91322547D01*
X94506459Y-90768058D01*
X94847291Y-90270288D01*
X95278312Y-89848200D01*
X95783113Y-89517868D01*
X96342459Y-89291877D01*
X96935045Y-89178836D01*
X97538310Y-89183047D01*
X97538310Y-89183047D01*
G37*
G36*
X81073243Y-86714557D02*
X81234258Y-86747609D01*
X81385801Y-86811311D01*
X81522073Y-86903229D01*
X81637906Y-87019872D01*
X81728868Y-87156782D01*
X81791510Y-87308763D01*
X81823368Y-87469656D01*
X81823368Y-87469666D01*
X81823436Y-87470010D01*
X81820815Y-87657763D01*
X81820737Y-87658106D01*
X81820737Y-87658109D01*
X81784397Y-87818061D01*
X81717540Y-87968225D01*
X81622784Y-88102547D01*
X81503745Y-88215908D01*
X81364953Y-88303988D01*
X81211699Y-88363431D01*
X81049819Y-88391975D01*
X80885473Y-88388532D01*
X80724928Y-88353235D01*
X80574294Y-88287424D01*
X80439318Y-88193613D01*
X80325130Y-88075368D01*
X80236083Y-87937194D01*
X80175569Y-87784353D01*
X80145897Y-87622681D01*
X80148191Y-87458316D01*
X80182369Y-87297526D01*
X80247123Y-87146440D01*
X80339994Y-87010807D01*
X80457437Y-86895798D01*
X80594986Y-86805788D01*
X80747397Y-86744210D01*
X80908862Y-86713409D01*
X81073243Y-86714557D01*
X81073243Y-86714557D01*
G37*
G36*
X84873243Y-86714557D02*
X85034258Y-86747609D01*
X85185801Y-86811311D01*
X85322073Y-86903229D01*
X85437906Y-87019872D01*
X85528868Y-87156782D01*
X85591510Y-87308763D01*
X85623368Y-87469656D01*
X85623368Y-87469666D01*
X85623436Y-87470010D01*
X85620815Y-87657763D01*
X85620737Y-87658106D01*
X85620737Y-87658109D01*
X85584397Y-87818061D01*
X85517540Y-87968225D01*
X85422784Y-88102547D01*
X85303745Y-88215908D01*
X85164953Y-88303988D01*
X85011699Y-88363431D01*
X84849819Y-88391975D01*
X84685473Y-88388532D01*
X84524928Y-88353235D01*
X84374294Y-88287424D01*
X84239318Y-88193613D01*
X84125130Y-88075368D01*
X84036083Y-87937194D01*
X83975569Y-87784353D01*
X83945897Y-87622681D01*
X83948191Y-87458316D01*
X83982369Y-87297526D01*
X84047123Y-87146440D01*
X84139994Y-87010807D01*
X84257437Y-86895798D01*
X84394986Y-86805788D01*
X84547397Y-86744210D01*
X84708862Y-86713409D01*
X84873243Y-86714557D01*
X84873243Y-86714557D01*
G37*
G36*
X97538310Y-81183047D02*
X98129255Y-81304351D01*
X98685398Y-81538132D01*
X99185534Y-81875478D01*
X99610621Y-82303543D01*
X99944466Y-82806021D01*
X100174356Y-83363776D01*
X100291464Y-83955214D01*
X100291464Y-83955224D01*
X100291531Y-83955563D01*
X100281910Y-84644616D01*
X100281833Y-84644954D01*
X100281833Y-84644962D01*
X100148257Y-85232901D01*
X99902885Y-85784016D01*
X99555137Y-86276978D01*
X99118262Y-86693009D01*
X98608900Y-87016261D01*
X98046454Y-87234419D01*
X97452347Y-87339176D01*
X96849203Y-87326542D01*
X96260000Y-87196997D01*
X95707182Y-86955477D01*
X95211807Y-86611182D01*
X94792737Y-86177223D01*
X94465938Y-85670130D01*
X94243856Y-85109214D01*
X94134955Y-84515858D01*
X94143377Y-83912641D01*
X94268806Y-83322547D01*
X94506459Y-82768058D01*
X94847291Y-82270288D01*
X95278312Y-81848200D01*
X95783113Y-81517868D01*
X96342459Y-81291877D01*
X96935045Y-81178836D01*
X97538310Y-81183047D01*
X97538310Y-81183047D01*
G37*
G36*
X57538310Y-81183047D02*
X58129255Y-81304351D01*
X58685398Y-81538132D01*
X59185534Y-81875478D01*
X59610621Y-82303543D01*
X59944466Y-82806021D01*
X60174356Y-83363776D01*
X60291464Y-83955214D01*
X60291464Y-83955224D01*
X60291531Y-83955563D01*
X60281910Y-84644616D01*
X60281833Y-84644954D01*
X60281833Y-84644962D01*
X60148257Y-85232901D01*
X59902885Y-85784016D01*
X59555137Y-86276978D01*
X59118262Y-86693009D01*
X58608900Y-87016261D01*
X58046454Y-87234419D01*
X57452347Y-87339176D01*
X56849203Y-87326542D01*
X56260000Y-87196997D01*
X55707182Y-86955477D01*
X55211807Y-86611182D01*
X54792737Y-86177223D01*
X54465938Y-85670130D01*
X54243856Y-85109214D01*
X54134955Y-84515858D01*
X54143377Y-83912641D01*
X54268806Y-83322547D01*
X54506459Y-82768058D01*
X54847291Y-82270288D01*
X55278312Y-81848200D01*
X55783113Y-81517868D01*
X56342459Y-81291877D01*
X56935045Y-81178836D01*
X57538310Y-81183047D01*
X57538310Y-81183047D01*
G37*
G36*
X82973243Y-85444557D02*
X83134258Y-85477609D01*
X83285801Y-85541311D01*
X83422073Y-85633229D01*
X83537906Y-85749872D01*
X83628868Y-85886782D01*
X83691510Y-86038763D01*
X83723368Y-86199656D01*
X83723368Y-86199666D01*
X83723436Y-86200010D01*
X83720815Y-86387763D01*
X83720737Y-86388106D01*
X83720737Y-86388109D01*
X83684397Y-86548061D01*
X83617540Y-86698225D01*
X83522784Y-86832547D01*
X83403745Y-86945908D01*
X83264953Y-87033988D01*
X83111699Y-87093431D01*
X82949819Y-87121975D01*
X82785473Y-87118532D01*
X82624928Y-87083235D01*
X82474294Y-87017424D01*
X82339318Y-86923613D01*
X82225130Y-86805368D01*
X82136083Y-86667194D01*
X82075569Y-86514353D01*
X82045897Y-86352681D01*
X82048191Y-86188316D01*
X82082369Y-86027526D01*
X82147123Y-85876440D01*
X82239994Y-85740807D01*
X82357437Y-85625798D01*
X82494986Y-85535788D01*
X82647397Y-85474210D01*
X82808862Y-85443409D01*
X82973243Y-85444557D01*
X82973243Y-85444557D01*
G37*
G36*
X86773243Y-85394557D02*
X86934258Y-85427609D01*
X87085801Y-85491311D01*
X87222073Y-85583229D01*
X87337906Y-85699872D01*
X87428868Y-85836782D01*
X87491510Y-85988763D01*
X87523368Y-86149656D01*
X87523368Y-86149666D01*
X87523436Y-86150010D01*
X87520815Y-86337763D01*
X87520737Y-86338106D01*
X87520737Y-86338109D01*
X87484397Y-86498061D01*
X87417540Y-86648225D01*
X87322784Y-86782547D01*
X87203745Y-86895908D01*
X87064953Y-86983988D01*
X86911699Y-87043431D01*
X86749819Y-87071975D01*
X86585473Y-87068532D01*
X86424928Y-87033235D01*
X86274294Y-86967424D01*
X86139318Y-86873613D01*
X86025130Y-86755368D01*
X85936083Y-86617194D01*
X85875569Y-86464353D01*
X85845897Y-86302681D01*
X85848191Y-86138316D01*
X85882369Y-85977526D01*
X85947123Y-85826440D01*
X86039994Y-85690807D01*
X86157437Y-85575798D01*
X86294986Y-85485788D01*
X86447397Y-85424210D01*
X86608862Y-85393409D01*
X86773243Y-85394557D01*
X86773243Y-85394557D01*
G37*
G36*
X81073243Y-84174557D02*
X81234258Y-84207609D01*
X81385801Y-84271311D01*
X81522073Y-84363229D01*
X81637906Y-84479872D01*
X81728868Y-84616782D01*
X81791510Y-84768763D01*
X81823368Y-84929656D01*
X81823368Y-84929666D01*
X81823436Y-84930010D01*
X81820815Y-85117763D01*
X81820737Y-85118106D01*
X81820737Y-85118109D01*
X81784397Y-85278061D01*
X81717540Y-85428225D01*
X81622784Y-85562547D01*
X81503745Y-85675908D01*
X81364953Y-85763988D01*
X81211699Y-85823431D01*
X81049819Y-85851975D01*
X80885473Y-85848532D01*
X80724928Y-85813235D01*
X80574294Y-85747424D01*
X80439318Y-85653613D01*
X80325130Y-85535368D01*
X80236083Y-85397194D01*
X80175569Y-85244353D01*
X80145897Y-85082681D01*
X80148191Y-84918316D01*
X80182369Y-84757526D01*
X80247123Y-84606440D01*
X80339994Y-84470807D01*
X80457437Y-84355798D01*
X80594986Y-84265788D01*
X80747397Y-84204210D01*
X80908862Y-84173409D01*
X81073243Y-84174557D01*
X81073243Y-84174557D01*
G37*
G36*
X84873243Y-84174557D02*
X85034258Y-84207609D01*
X85185801Y-84271311D01*
X85322073Y-84363229D01*
X85437906Y-84479872D01*
X85528868Y-84616782D01*
X85591510Y-84768763D01*
X85623368Y-84929656D01*
X85623368Y-84929666D01*
X85623436Y-84930010D01*
X85620815Y-85117763D01*
X85620737Y-85118106D01*
X85620737Y-85118109D01*
X85584397Y-85278061D01*
X85517540Y-85428225D01*
X85422784Y-85562547D01*
X85303745Y-85675908D01*
X85164953Y-85763988D01*
X85011699Y-85823431D01*
X84849819Y-85851975D01*
X84685473Y-85848532D01*
X84524928Y-85813235D01*
X84374294Y-85747424D01*
X84239318Y-85653613D01*
X84125130Y-85535368D01*
X84036083Y-85397194D01*
X83975569Y-85244353D01*
X83945897Y-85082681D01*
X83948191Y-84918316D01*
X83982369Y-84757526D01*
X84047123Y-84606440D01*
X84139994Y-84470807D01*
X84257437Y-84355798D01*
X84394986Y-84265788D01*
X84547397Y-84204210D01*
X84708862Y-84173409D01*
X84873243Y-84174557D01*
X84873243Y-84174557D01*
G37*
G36*
X82973243Y-82904557D02*
X83134258Y-82937609D01*
X83285801Y-83001311D01*
X83422073Y-83093229D01*
X83537906Y-83209872D01*
X83628868Y-83346782D01*
X83691510Y-83498763D01*
X83723368Y-83659656D01*
X83723368Y-83659666D01*
X83723436Y-83660010D01*
X83720815Y-83847763D01*
X83720737Y-83848106D01*
X83720737Y-83848109D01*
X83684397Y-84008061D01*
X83617540Y-84158225D01*
X83522784Y-84292547D01*
X83403745Y-84405908D01*
X83264953Y-84493988D01*
X83111699Y-84553431D01*
X82949819Y-84581975D01*
X82785473Y-84578532D01*
X82624928Y-84543235D01*
X82474294Y-84477424D01*
X82339318Y-84383613D01*
X82225130Y-84265368D01*
X82136083Y-84127194D01*
X82075569Y-83974353D01*
X82045897Y-83812681D01*
X82048191Y-83648316D01*
X82082369Y-83487526D01*
X82147123Y-83336440D01*
X82239994Y-83200807D01*
X82357437Y-83085798D01*
X82494986Y-82995788D01*
X82647397Y-82934210D01*
X82808862Y-82903409D01*
X82973243Y-82904557D01*
X82973243Y-82904557D01*
G37*
G36*
X86773243Y-82854557D02*
X86934258Y-82887609D01*
X87085801Y-82951311D01*
X87222073Y-83043229D01*
X87337906Y-83159872D01*
X87428868Y-83296782D01*
X87491510Y-83448763D01*
X87523368Y-83609656D01*
X87523368Y-83609666D01*
X87523436Y-83610010D01*
X87520815Y-83797763D01*
X87520737Y-83798106D01*
X87520737Y-83798109D01*
X87484397Y-83958061D01*
X87417540Y-84108225D01*
X87322784Y-84242547D01*
X87203745Y-84355908D01*
X87064953Y-84443988D01*
X86911699Y-84503431D01*
X86749819Y-84531975D01*
X86585473Y-84528532D01*
X86424928Y-84493235D01*
X86274294Y-84427424D01*
X86139318Y-84333613D01*
X86025130Y-84215368D01*
X85936083Y-84077194D01*
X85875569Y-83924353D01*
X85845897Y-83762681D01*
X85848191Y-83598316D01*
X85882369Y-83437526D01*
X85947123Y-83286440D01*
X86039994Y-83150807D01*
X86157437Y-83035798D01*
X86294986Y-82945788D01*
X86447397Y-82884210D01*
X86608862Y-82853409D01*
X86773243Y-82854557D01*
X86773243Y-82854557D01*
G37*
G36*
X84873243Y-81634557D02*
X85034258Y-81667609D01*
X85185801Y-81731311D01*
X85322073Y-81823229D01*
X85437906Y-81939872D01*
X85528868Y-82076782D01*
X85591510Y-82228763D01*
X85623368Y-82389656D01*
X85623368Y-82389666D01*
X85623436Y-82390010D01*
X85620815Y-82577763D01*
X85620737Y-82578106D01*
X85620737Y-82578109D01*
X85584397Y-82738061D01*
X85517540Y-82888225D01*
X85422784Y-83022547D01*
X85303745Y-83135908D01*
X85164953Y-83223988D01*
X85011699Y-83283431D01*
X84849819Y-83311975D01*
X84685473Y-83308532D01*
X84524928Y-83273235D01*
X84374294Y-83207424D01*
X84239318Y-83113613D01*
X84125130Y-82995368D01*
X84036083Y-82857194D01*
X83975569Y-82704353D01*
X83945897Y-82542681D01*
X83948191Y-82378316D01*
X83982369Y-82217526D01*
X84047123Y-82066440D01*
X84139994Y-81930807D01*
X84257437Y-81815798D01*
X84394986Y-81725788D01*
X84547397Y-81664210D01*
X84708862Y-81633409D01*
X84873243Y-81634557D01*
X84873243Y-81634557D01*
G37*
G36*
X81073243Y-81634557D02*
X81234258Y-81667609D01*
X81385801Y-81731311D01*
X81522073Y-81823229D01*
X81637906Y-81939872D01*
X81728868Y-82076782D01*
X81791510Y-82228763D01*
X81823368Y-82389656D01*
X81823368Y-82389666D01*
X81823436Y-82390010D01*
X81820815Y-82577763D01*
X81820737Y-82578106D01*
X81820737Y-82578109D01*
X81784397Y-82738061D01*
X81717540Y-82888225D01*
X81622784Y-83022547D01*
X81503745Y-83135908D01*
X81364953Y-83223988D01*
X81211699Y-83283431D01*
X81049819Y-83311975D01*
X80885473Y-83308532D01*
X80724928Y-83273235D01*
X80574294Y-83207424D01*
X80439318Y-83113613D01*
X80325130Y-82995368D01*
X80236083Y-82857194D01*
X80175569Y-82704353D01*
X80145897Y-82542681D01*
X80148191Y-82378316D01*
X80182369Y-82217526D01*
X80247123Y-82066440D01*
X80339994Y-81930807D01*
X80457437Y-81815798D01*
X80594986Y-81725788D01*
X80747397Y-81664210D01*
X80908862Y-81633409D01*
X81073243Y-81634557D01*
X81073243Y-81634557D01*
G37*
G36*
X82973243Y-80364557D02*
X83134258Y-80397609D01*
X83285801Y-80461311D01*
X83422073Y-80553229D01*
X83537906Y-80669872D01*
X83628868Y-80806782D01*
X83691510Y-80958763D01*
X83723368Y-81119656D01*
X83723368Y-81119666D01*
X83723436Y-81120010D01*
X83720815Y-81307763D01*
X83720737Y-81308106D01*
X83720737Y-81308109D01*
X83684397Y-81468061D01*
X83617540Y-81618225D01*
X83522784Y-81752547D01*
X83403745Y-81865908D01*
X83264953Y-81953988D01*
X83111699Y-82013431D01*
X82949819Y-82041975D01*
X82785473Y-82038532D01*
X82624928Y-82003235D01*
X82474294Y-81937424D01*
X82339318Y-81843613D01*
X82225130Y-81725368D01*
X82136083Y-81587194D01*
X82075569Y-81434353D01*
X82045897Y-81272681D01*
X82048191Y-81108316D01*
X82082369Y-80947526D01*
X82147123Y-80796440D01*
X82239994Y-80660807D01*
X82357437Y-80545798D01*
X82494986Y-80455788D01*
X82647397Y-80394210D01*
X82808862Y-80363409D01*
X82973243Y-80364557D01*
X82973243Y-80364557D01*
G37*
G36*
X86773243Y-80314557D02*
X86934258Y-80347609D01*
X87085801Y-80411311D01*
X87222073Y-80503229D01*
X87337906Y-80619872D01*
X87428868Y-80756782D01*
X87491510Y-80908763D01*
X87523368Y-81069656D01*
X87523368Y-81069666D01*
X87523436Y-81070010D01*
X87520815Y-81257763D01*
X87520737Y-81258106D01*
X87520737Y-81258109D01*
X87484397Y-81418061D01*
X87417540Y-81568225D01*
X87322784Y-81702547D01*
X87203745Y-81815908D01*
X87064953Y-81903988D01*
X86911699Y-81963431D01*
X86749819Y-81991975D01*
X86585473Y-81988532D01*
X86424928Y-81953235D01*
X86274294Y-81887424D01*
X86139318Y-81793613D01*
X86025130Y-81675368D01*
X85936083Y-81537194D01*
X85875569Y-81384353D01*
X85845897Y-81222681D01*
X85848191Y-81058316D01*
X85882369Y-80897526D01*
X85947123Y-80746440D01*
X86039994Y-80610807D01*
X86157437Y-80495798D01*
X86294986Y-80405788D01*
X86447397Y-80344210D01*
X86608862Y-80313409D01*
X86773243Y-80314557D01*
X86773243Y-80314557D01*
G37*
G36*
X81073243Y-79094557D02*
X81234258Y-79127609D01*
X81385801Y-79191311D01*
X81522073Y-79283229D01*
X81637906Y-79399872D01*
X81728868Y-79536782D01*
X81791510Y-79688763D01*
X81823368Y-79849656D01*
X81823368Y-79849666D01*
X81823436Y-79850010D01*
X81820815Y-80037763D01*
X81820737Y-80038106D01*
X81820737Y-80038109D01*
X81784397Y-80198061D01*
X81717540Y-80348225D01*
X81622784Y-80482547D01*
X81503745Y-80595908D01*
X81364953Y-80683988D01*
X81211699Y-80743431D01*
X81049819Y-80771975D01*
X80885473Y-80768532D01*
X80724928Y-80733235D01*
X80574294Y-80667424D01*
X80439318Y-80573613D01*
X80325130Y-80455368D01*
X80236083Y-80317194D01*
X80175569Y-80164353D01*
X80145897Y-80002681D01*
X80148191Y-79838316D01*
X80182369Y-79677526D01*
X80247123Y-79526440D01*
X80339994Y-79390807D01*
X80457437Y-79275798D01*
X80594986Y-79185788D01*
X80747397Y-79124210D01*
X80908862Y-79093409D01*
X81073243Y-79094557D01*
X81073243Y-79094557D01*
G37*
G36*
X84873243Y-79094557D02*
X85034258Y-79127609D01*
X85185801Y-79191311D01*
X85322073Y-79283229D01*
X85437906Y-79399872D01*
X85528868Y-79536782D01*
X85591510Y-79688763D01*
X85623368Y-79849656D01*
X85623368Y-79849666D01*
X85623436Y-79850010D01*
X85620815Y-80037763D01*
X85620737Y-80038106D01*
X85620737Y-80038109D01*
X85584397Y-80198061D01*
X85517540Y-80348225D01*
X85422784Y-80482547D01*
X85303745Y-80595908D01*
X85164953Y-80683988D01*
X85011699Y-80743431D01*
X84849819Y-80771975D01*
X84685473Y-80768532D01*
X84524928Y-80733235D01*
X84374294Y-80667424D01*
X84239318Y-80573613D01*
X84125130Y-80455368D01*
X84036083Y-80317194D01*
X83975569Y-80164353D01*
X83945897Y-80002681D01*
X83948191Y-79838316D01*
X83982369Y-79677526D01*
X84047123Y-79526440D01*
X84139994Y-79390807D01*
X84257437Y-79275798D01*
X84394986Y-79185788D01*
X84547397Y-79124210D01*
X84708862Y-79093409D01*
X84873243Y-79094557D01*
X84873243Y-79094557D01*
G37*
G36*
X82973243Y-77824557D02*
X83134258Y-77857609D01*
X83285801Y-77921311D01*
X83422073Y-78013229D01*
X83537906Y-78129872D01*
X83628868Y-78266782D01*
X83691510Y-78418763D01*
X83723368Y-78579656D01*
X83723368Y-78579666D01*
X83723436Y-78580010D01*
X83720815Y-78767763D01*
X83720737Y-78768106D01*
X83720737Y-78768109D01*
X83684397Y-78928061D01*
X83617540Y-79078225D01*
X83522784Y-79212547D01*
X83403745Y-79325908D01*
X83264953Y-79413988D01*
X83111699Y-79473431D01*
X82949819Y-79501975D01*
X82785473Y-79498532D01*
X82624928Y-79463235D01*
X82474294Y-79397424D01*
X82339318Y-79303613D01*
X82225130Y-79185368D01*
X82136083Y-79047194D01*
X82075569Y-78894353D01*
X82045897Y-78732681D01*
X82048191Y-78568316D01*
X82082369Y-78407526D01*
X82147123Y-78256440D01*
X82239994Y-78120807D01*
X82357437Y-78005798D01*
X82494986Y-77915788D01*
X82647397Y-77854210D01*
X82808862Y-77823409D01*
X82973243Y-77824557D01*
X82973243Y-77824557D01*
G37*
G36*
X86773243Y-77774557D02*
X86934258Y-77807609D01*
X87085801Y-77871311D01*
X87222073Y-77963229D01*
X87337906Y-78079872D01*
X87428868Y-78216782D01*
X87491510Y-78368763D01*
X87523368Y-78529656D01*
X87523368Y-78529666D01*
X87523436Y-78530010D01*
X87520815Y-78717763D01*
X87520737Y-78718106D01*
X87520737Y-78718109D01*
X87484397Y-78878061D01*
X87417540Y-79028225D01*
X87322784Y-79162547D01*
X87203745Y-79275908D01*
X87064953Y-79363988D01*
X86911699Y-79423431D01*
X86749819Y-79451975D01*
X86585473Y-79448532D01*
X86424928Y-79413235D01*
X86274294Y-79347424D01*
X86139318Y-79253613D01*
X86025130Y-79135368D01*
X85936083Y-78997194D01*
X85875569Y-78844353D01*
X85845897Y-78682681D01*
X85848191Y-78518316D01*
X85882369Y-78357526D01*
X85947123Y-78206440D01*
X86039994Y-78070807D01*
X86157437Y-77955798D01*
X86294986Y-77865788D01*
X86447397Y-77804210D01*
X86608862Y-77773409D01*
X86773243Y-77774557D01*
X86773243Y-77774557D01*
G37*
G36*
X57538310Y-73183047D02*
X58129255Y-73304351D01*
X58685398Y-73538132D01*
X59185534Y-73875478D01*
X59610621Y-74303543D01*
X59944466Y-74806021D01*
X60174356Y-75363776D01*
X60291464Y-75955214D01*
X60291464Y-75955224D01*
X60291531Y-75955563D01*
X60281910Y-76644616D01*
X60281833Y-76644954D01*
X60281833Y-76644962D01*
X60148257Y-77232901D01*
X59902885Y-77784016D01*
X59555137Y-78276978D01*
X59118262Y-78693009D01*
X58608900Y-79016261D01*
X58046454Y-79234419D01*
X57452347Y-79339176D01*
X56849203Y-79326542D01*
X56260000Y-79196997D01*
X55707182Y-78955477D01*
X55211807Y-78611182D01*
X54792737Y-78177223D01*
X54465938Y-77670130D01*
X54243856Y-77109214D01*
X54134955Y-76515858D01*
X54143377Y-75912641D01*
X54268806Y-75322547D01*
X54506459Y-74768058D01*
X54847291Y-74270288D01*
X55278312Y-73848200D01*
X55783113Y-73517868D01*
X56342459Y-73291877D01*
X56935045Y-73178836D01*
X57538310Y-73183047D01*
X57538310Y-73183047D01*
G37*
G36*
X97537310Y-73183047D02*
X98128255Y-73304351D01*
X98684398Y-73538132D01*
X99184534Y-73875478D01*
X99609621Y-74303543D01*
X99943466Y-74806021D01*
X100173356Y-75363776D01*
X100290464Y-75955214D01*
X100290464Y-75955224D01*
X100290531Y-75955563D01*
X100280910Y-76644616D01*
X100280833Y-76644954D01*
X100280833Y-76644962D01*
X100147257Y-77232901D01*
X99901885Y-77784016D01*
X99554137Y-78276978D01*
X99117262Y-78693009D01*
X98607900Y-79016261D01*
X98045454Y-79234419D01*
X97451347Y-79339176D01*
X96848203Y-79326542D01*
X96259000Y-79196997D01*
X95706182Y-78955477D01*
X95210807Y-78611182D01*
X94791737Y-78177223D01*
X94464938Y-77670130D01*
X94242856Y-77109214D01*
X94133955Y-76515858D01*
X94142377Y-75912641D01*
X94267806Y-75322547D01*
X94505459Y-74768058D01*
X94846291Y-74270288D01*
X95277312Y-73848200D01*
X95782113Y-73517868D01*
X96341459Y-73291877D01*
X96934045Y-73178836D01*
X97537310Y-73183047D01*
X97537310Y-73183047D01*
G37*
G36*
X81073243Y-76554557D02*
X81234258Y-76587609D01*
X81385801Y-76651311D01*
X81522073Y-76743229D01*
X81637906Y-76859872D01*
X81728868Y-76996782D01*
X81791510Y-77148763D01*
X81823368Y-77309656D01*
X81823368Y-77309666D01*
X81823436Y-77310010D01*
X81820815Y-77497763D01*
X81820737Y-77498106D01*
X81820737Y-77498109D01*
X81784397Y-77658061D01*
X81717540Y-77808225D01*
X81622784Y-77942547D01*
X81503745Y-78055908D01*
X81364953Y-78143988D01*
X81211699Y-78203431D01*
X81049819Y-78231975D01*
X80885473Y-78228532D01*
X80724928Y-78193235D01*
X80574294Y-78127424D01*
X80439318Y-78033613D01*
X80325130Y-77915368D01*
X80236083Y-77777194D01*
X80175569Y-77624353D01*
X80145897Y-77462681D01*
X80148191Y-77298316D01*
X80182369Y-77137526D01*
X80247123Y-76986440D01*
X80339994Y-76850807D01*
X80457437Y-76735798D01*
X80594986Y-76645788D01*
X80747397Y-76584210D01*
X80908862Y-76553409D01*
X81073243Y-76554557D01*
X81073243Y-76554557D01*
G37*
G36*
X84873243Y-76554557D02*
X85034258Y-76587609D01*
X85185801Y-76651311D01*
X85322073Y-76743229D01*
X85437906Y-76859872D01*
X85528868Y-76996782D01*
X85591510Y-77148763D01*
X85623368Y-77309656D01*
X85623368Y-77309666D01*
X85623436Y-77310010D01*
X85620815Y-77497763D01*
X85620737Y-77498106D01*
X85620737Y-77498109D01*
X85584397Y-77658061D01*
X85517540Y-77808225D01*
X85422784Y-77942547D01*
X85303745Y-78055908D01*
X85164953Y-78143988D01*
X85011699Y-78203431D01*
X84849819Y-78231975D01*
X84685473Y-78228532D01*
X84524928Y-78193235D01*
X84374294Y-78127424D01*
X84239318Y-78033613D01*
X84125130Y-77915368D01*
X84036083Y-77777194D01*
X83975569Y-77624353D01*
X83945897Y-77462681D01*
X83948191Y-77298316D01*
X83982369Y-77137526D01*
X84047123Y-76986440D01*
X84139994Y-76850807D01*
X84257437Y-76735798D01*
X84394986Y-76645788D01*
X84547397Y-76584210D01*
X84708862Y-76553409D01*
X84873243Y-76554557D01*
X84873243Y-76554557D01*
G37*
G36*
X82973243Y-75284557D02*
X83134258Y-75317609D01*
X83285801Y-75381311D01*
X83422073Y-75473229D01*
X83537906Y-75589872D01*
X83628868Y-75726782D01*
X83691510Y-75878763D01*
X83723368Y-76039656D01*
X83723368Y-76039666D01*
X83723436Y-76040010D01*
X83720815Y-76227763D01*
X83720737Y-76228106D01*
X83720737Y-76228109D01*
X83684397Y-76388061D01*
X83617540Y-76538225D01*
X83522784Y-76672547D01*
X83403745Y-76785908D01*
X83264953Y-76873988D01*
X83111699Y-76933431D01*
X82949819Y-76961975D01*
X82785473Y-76958532D01*
X82624928Y-76923235D01*
X82474294Y-76857424D01*
X82339318Y-76763613D01*
X82225130Y-76645368D01*
X82136083Y-76507194D01*
X82075569Y-76354353D01*
X82045897Y-76192681D01*
X82048191Y-76028316D01*
X82082369Y-75867526D01*
X82147123Y-75716440D01*
X82239994Y-75580807D01*
X82357437Y-75465798D01*
X82494986Y-75375788D01*
X82647397Y-75314210D01*
X82808862Y-75283409D01*
X82973243Y-75284557D01*
X82973243Y-75284557D01*
G37*
G36*
X86773243Y-75234557D02*
X86934258Y-75267609D01*
X87085801Y-75331311D01*
X87222073Y-75423229D01*
X87337906Y-75539872D01*
X87428868Y-75676782D01*
X87491510Y-75828763D01*
X87523368Y-75989656D01*
X87523368Y-75989666D01*
X87523436Y-75990010D01*
X87520815Y-76177763D01*
X87520737Y-76178106D01*
X87520737Y-76178109D01*
X87484397Y-76338061D01*
X87417540Y-76488225D01*
X87322784Y-76622547D01*
X87203745Y-76735908D01*
X87064953Y-76823988D01*
X86911699Y-76883431D01*
X86749819Y-76911975D01*
X86585473Y-76908532D01*
X86424928Y-76873235D01*
X86274294Y-76807424D01*
X86139318Y-76713613D01*
X86025130Y-76595368D01*
X85936083Y-76457194D01*
X85875569Y-76304353D01*
X85845897Y-76142681D01*
X85848191Y-75978316D01*
X85882369Y-75817526D01*
X85947123Y-75666440D01*
X86039994Y-75530807D01*
X86157437Y-75415798D01*
X86294986Y-75325788D01*
X86447397Y-75264210D01*
X86608862Y-75233409D01*
X86773243Y-75234557D01*
X86773243Y-75234557D01*
G37*
G36*
X84873243Y-74014557D02*
X85034258Y-74047609D01*
X85185801Y-74111311D01*
X85322073Y-74203229D01*
X85437906Y-74319872D01*
X85528868Y-74456782D01*
X85591510Y-74608763D01*
X85623368Y-74769656D01*
X85623368Y-74769666D01*
X85623436Y-74770010D01*
X85620815Y-74957763D01*
X85620737Y-74958106D01*
X85620737Y-74958109D01*
X85584397Y-75118061D01*
X85517540Y-75268225D01*
X85422784Y-75402547D01*
X85303745Y-75515908D01*
X85164953Y-75603988D01*
X85011699Y-75663431D01*
X84849819Y-75691975D01*
X84685473Y-75688532D01*
X84524928Y-75653235D01*
X84374294Y-75587424D01*
X84239318Y-75493613D01*
X84125130Y-75375368D01*
X84036083Y-75237194D01*
X83975569Y-75084353D01*
X83945897Y-74922681D01*
X83948191Y-74758316D01*
X83982369Y-74597526D01*
X84047123Y-74446440D01*
X84139994Y-74310807D01*
X84257437Y-74195798D01*
X84394986Y-74105788D01*
X84547397Y-74044210D01*
X84708862Y-74013409D01*
X84873243Y-74014557D01*
X84873243Y-74014557D01*
G37*
G36*
X81073243Y-74014557D02*
X81234258Y-74047609D01*
X81385801Y-74111311D01*
X81522073Y-74203229D01*
X81637906Y-74319872D01*
X81728868Y-74456782D01*
X81791510Y-74608763D01*
X81823368Y-74769656D01*
X81823368Y-74769666D01*
X81823436Y-74770010D01*
X81820815Y-74957763D01*
X81820737Y-74958106D01*
X81820737Y-74958109D01*
X81784397Y-75118061D01*
X81717540Y-75268225D01*
X81622784Y-75402547D01*
X81503745Y-75515908D01*
X81364953Y-75603988D01*
X81211699Y-75663431D01*
X81049819Y-75691975D01*
X80885473Y-75688532D01*
X80724928Y-75653235D01*
X80574294Y-75587424D01*
X80439318Y-75493613D01*
X80325130Y-75375368D01*
X80236083Y-75237194D01*
X80175569Y-75084353D01*
X80145897Y-74922681D01*
X80148191Y-74758316D01*
X80182369Y-74597526D01*
X80247123Y-74446440D01*
X80339994Y-74310807D01*
X80457437Y-74195798D01*
X80594986Y-74105788D01*
X80747397Y-74044210D01*
X80908862Y-74013409D01*
X81073243Y-74014557D01*
X81073243Y-74014557D01*
G37*
G36*
X82973243Y-72744557D02*
X83134258Y-72777609D01*
X83285801Y-72841311D01*
X83422073Y-72933229D01*
X83537906Y-73049872D01*
X83628868Y-73186782D01*
X83691510Y-73338763D01*
X83723368Y-73499656D01*
X83723368Y-73499666D01*
X83723436Y-73500010D01*
X83720815Y-73687763D01*
X83720737Y-73688106D01*
X83720737Y-73688109D01*
X83684397Y-73848061D01*
X83617540Y-73998225D01*
X83522784Y-74132547D01*
X83403745Y-74245908D01*
X83264953Y-74333988D01*
X83111699Y-74393431D01*
X82949819Y-74421975D01*
X82785473Y-74418532D01*
X82624928Y-74383235D01*
X82474294Y-74317424D01*
X82339318Y-74223613D01*
X82225130Y-74105368D01*
X82136083Y-73967194D01*
X82075569Y-73814353D01*
X82045897Y-73652681D01*
X82048191Y-73488316D01*
X82082369Y-73327526D01*
X82147123Y-73176440D01*
X82239994Y-73040807D01*
X82357437Y-72925798D01*
X82494986Y-72835788D01*
X82647397Y-72774210D01*
X82808862Y-72743409D01*
X82973243Y-72744557D01*
X82973243Y-72744557D01*
G37*
G36*
X86773243Y-72694557D02*
X86934258Y-72727609D01*
X87085801Y-72791311D01*
X87222073Y-72883229D01*
X87337906Y-72999872D01*
X87428868Y-73136782D01*
X87491510Y-73288763D01*
X87523368Y-73449656D01*
X87523368Y-73449666D01*
X87523436Y-73450010D01*
X87520815Y-73637763D01*
X87520737Y-73638106D01*
X87520737Y-73638109D01*
X87484397Y-73798061D01*
X87417540Y-73948225D01*
X87322784Y-74082547D01*
X87203745Y-74195908D01*
X87064953Y-74283988D01*
X86911699Y-74343431D01*
X86749819Y-74371975D01*
X86585473Y-74368532D01*
X86424928Y-74333235D01*
X86274294Y-74267424D01*
X86139318Y-74173613D01*
X86025130Y-74055368D01*
X85936083Y-73917194D01*
X85875569Y-73764353D01*
X85845897Y-73602681D01*
X85848191Y-73438316D01*
X85882369Y-73277526D01*
X85947123Y-73126440D01*
X86039994Y-72990807D01*
X86157437Y-72875798D01*
X86294986Y-72785788D01*
X86447397Y-72724210D01*
X86608862Y-72693409D01*
X86773243Y-72694557D01*
X86773243Y-72694557D01*
G37*
G36*
X81073243Y-71474557D02*
X81234258Y-71507609D01*
X81385801Y-71571311D01*
X81522073Y-71663229D01*
X81637906Y-71779872D01*
X81728868Y-71916782D01*
X81791510Y-72068763D01*
X81823368Y-72229656D01*
X81823368Y-72229666D01*
X81823436Y-72230010D01*
X81820815Y-72417763D01*
X81820737Y-72418106D01*
X81820737Y-72418109D01*
X81784397Y-72578061D01*
X81717540Y-72728225D01*
X81622784Y-72862547D01*
X81503745Y-72975908D01*
X81364953Y-73063988D01*
X81211699Y-73123431D01*
X81049819Y-73151975D01*
X80885473Y-73148532D01*
X80724928Y-73113235D01*
X80574294Y-73047424D01*
X80439318Y-72953613D01*
X80325130Y-72835368D01*
X80236083Y-72697194D01*
X80175569Y-72544353D01*
X80145897Y-72382681D01*
X80148191Y-72218316D01*
X80182369Y-72057526D01*
X80247123Y-71906440D01*
X80339994Y-71770807D01*
X80457437Y-71655798D01*
X80594986Y-71565788D01*
X80747397Y-71504210D01*
X80908862Y-71473409D01*
X81073243Y-71474557D01*
X81073243Y-71474557D01*
G37*
G36*
X84873243Y-71474557D02*
X85034258Y-71507609D01*
X85185801Y-71571311D01*
X85322073Y-71663229D01*
X85437906Y-71779872D01*
X85528868Y-71916782D01*
X85591510Y-72068763D01*
X85623368Y-72229656D01*
X85623368Y-72229666D01*
X85623436Y-72230010D01*
X85620815Y-72417763D01*
X85620737Y-72418106D01*
X85620737Y-72418109D01*
X85584397Y-72578061D01*
X85517540Y-72728225D01*
X85422784Y-72862547D01*
X85303745Y-72975908D01*
X85164953Y-73063988D01*
X85011699Y-73123431D01*
X84849819Y-73151975D01*
X84685473Y-73148532D01*
X84524928Y-73113235D01*
X84374294Y-73047424D01*
X84239318Y-72953613D01*
X84125130Y-72835368D01*
X84036083Y-72697194D01*
X83975569Y-72544353D01*
X83945897Y-72382681D01*
X83948191Y-72218316D01*
X83982369Y-72057526D01*
X84047123Y-71906440D01*
X84139994Y-71770807D01*
X84257437Y-71655798D01*
X84394986Y-71565788D01*
X84547397Y-71504210D01*
X84708862Y-71473409D01*
X84873243Y-71474557D01*
X84873243Y-71474557D01*
G37*
G36*
X82973243Y-70204557D02*
X83134258Y-70237609D01*
X83285801Y-70301311D01*
X83422073Y-70393229D01*
X83537906Y-70509872D01*
X83628868Y-70646782D01*
X83691510Y-70798763D01*
X83723368Y-70959656D01*
X83723368Y-70959666D01*
X83723436Y-70960010D01*
X83720815Y-71147763D01*
X83720737Y-71148106D01*
X83720737Y-71148109D01*
X83684397Y-71308061D01*
X83617540Y-71458225D01*
X83522784Y-71592547D01*
X83403745Y-71705908D01*
X83264953Y-71793988D01*
X83111699Y-71853431D01*
X82949819Y-71881975D01*
X82785473Y-71878532D01*
X82624928Y-71843235D01*
X82474294Y-71777424D01*
X82339318Y-71683613D01*
X82225130Y-71565368D01*
X82136083Y-71427194D01*
X82075569Y-71274353D01*
X82045897Y-71112681D01*
X82048191Y-70948316D01*
X82082369Y-70787526D01*
X82147123Y-70636440D01*
X82239994Y-70500807D01*
X82357437Y-70385798D01*
X82494986Y-70295788D01*
X82647397Y-70234210D01*
X82808862Y-70203409D01*
X82973243Y-70204557D01*
X82973243Y-70204557D01*
G37*
G36*
X86773243Y-70154557D02*
X86934258Y-70187609D01*
X87085801Y-70251311D01*
X87222073Y-70343229D01*
X87337906Y-70459872D01*
X87428868Y-70596782D01*
X87491510Y-70748763D01*
X87523368Y-70909656D01*
X87523368Y-70909666D01*
X87523436Y-70910010D01*
X87520815Y-71097763D01*
X87520737Y-71098106D01*
X87520737Y-71098109D01*
X87484397Y-71258061D01*
X87417540Y-71408225D01*
X87322784Y-71542547D01*
X87203745Y-71655908D01*
X87064953Y-71743988D01*
X86911699Y-71803431D01*
X86749819Y-71831975D01*
X86585473Y-71828532D01*
X86424928Y-71793235D01*
X86274294Y-71727424D01*
X86139318Y-71633613D01*
X86025130Y-71515368D01*
X85936083Y-71377194D01*
X85875569Y-71224353D01*
X85845897Y-71062681D01*
X85848191Y-70898316D01*
X85882369Y-70737526D01*
X85947123Y-70586440D01*
X86039994Y-70450807D01*
X86157437Y-70335798D01*
X86294986Y-70245788D01*
X86447397Y-70184210D01*
X86608862Y-70153409D01*
X86773243Y-70154557D01*
X86773243Y-70154557D01*
G37*
G36*
X97538310Y-65183047D02*
X98129255Y-65304351D01*
X98685398Y-65538132D01*
X99185534Y-65875478D01*
X99610621Y-66303543D01*
X99944466Y-66806021D01*
X100174356Y-67363776D01*
X100291464Y-67955214D01*
X100291464Y-67955224D01*
X100291531Y-67955563D01*
X100281910Y-68644616D01*
X100281833Y-68644954D01*
X100281833Y-68644962D01*
X100148257Y-69232901D01*
X99902885Y-69784016D01*
X99555137Y-70276978D01*
X99118262Y-70693009D01*
X98608900Y-71016261D01*
X98046454Y-71234419D01*
X97452347Y-71339176D01*
X96849203Y-71326542D01*
X96260000Y-71196997D01*
X95707182Y-70955477D01*
X95211807Y-70611182D01*
X94792737Y-70177223D01*
X94465938Y-69670130D01*
X94243856Y-69109214D01*
X94134955Y-68515858D01*
X94143377Y-67912641D01*
X94268806Y-67322547D01*
X94506459Y-66768058D01*
X94847291Y-66270288D01*
X95278312Y-65848200D01*
X95783113Y-65517868D01*
X96342459Y-65291877D01*
X96935045Y-65178836D01*
X97538310Y-65183047D01*
X97538310Y-65183047D01*
G37*
G36*
X57538310Y-65183047D02*
X58129255Y-65304351D01*
X58685398Y-65538132D01*
X59185534Y-65875478D01*
X59610621Y-66303543D01*
X59944466Y-66806021D01*
X60174356Y-67363776D01*
X60291464Y-67955214D01*
X60291464Y-67955224D01*
X60291531Y-67955563D01*
X60281910Y-68644616D01*
X60281833Y-68644954D01*
X60281833Y-68644962D01*
X60148257Y-69232901D01*
X59902885Y-69784016D01*
X59555137Y-70276978D01*
X59118262Y-70693009D01*
X58608900Y-71016261D01*
X58046454Y-71234419D01*
X57452347Y-71339176D01*
X56849203Y-71326542D01*
X56260000Y-71196997D01*
X55707182Y-70955477D01*
X55211807Y-70611182D01*
X54792737Y-70177223D01*
X54465938Y-69670130D01*
X54243856Y-69109214D01*
X54134955Y-68515858D01*
X54143377Y-67912641D01*
X54268806Y-67322547D01*
X54506459Y-66768058D01*
X54847291Y-66270288D01*
X55278312Y-65848200D01*
X55783113Y-65517868D01*
X56342459Y-65291877D01*
X56935045Y-65178836D01*
X57538310Y-65183047D01*
X57538310Y-65183047D01*
G37*
G36*
X81073243Y-68934557D02*
X81234258Y-68967609D01*
X81385801Y-69031311D01*
X81522073Y-69123229D01*
X81637906Y-69239872D01*
X81728868Y-69376782D01*
X81791510Y-69528763D01*
X81823368Y-69689656D01*
X81823368Y-69689666D01*
X81823436Y-69690010D01*
X81820815Y-69877763D01*
X81820737Y-69878106D01*
X81820737Y-69878109D01*
X81784397Y-70038061D01*
X81717540Y-70188225D01*
X81622784Y-70322547D01*
X81503745Y-70435908D01*
X81364953Y-70523988D01*
X81211699Y-70583431D01*
X81049819Y-70611975D01*
X80885473Y-70608532D01*
X80724928Y-70573235D01*
X80574294Y-70507424D01*
X80439318Y-70413613D01*
X80325130Y-70295368D01*
X80236083Y-70157194D01*
X80175569Y-70004353D01*
X80145897Y-69842681D01*
X80148191Y-69678316D01*
X80182369Y-69517526D01*
X80247123Y-69366440D01*
X80339994Y-69230807D01*
X80457437Y-69115798D01*
X80594986Y-69025788D01*
X80747397Y-68964210D01*
X80908862Y-68933409D01*
X81073243Y-68934557D01*
X81073243Y-68934557D01*
G37*
G36*
X84873243Y-68934557D02*
X85034258Y-68967609D01*
X85185801Y-69031311D01*
X85322073Y-69123229D01*
X85437906Y-69239872D01*
X85528868Y-69376782D01*
X85591510Y-69528763D01*
X85623368Y-69689656D01*
X85623368Y-69689666D01*
X85623436Y-69690010D01*
X85620815Y-69877763D01*
X85620737Y-69878106D01*
X85620737Y-69878109D01*
X85584397Y-70038061D01*
X85517540Y-70188225D01*
X85422784Y-70322547D01*
X85303745Y-70435908D01*
X85164953Y-70523988D01*
X85011699Y-70583431D01*
X84849819Y-70611975D01*
X84685473Y-70608532D01*
X84524928Y-70573235D01*
X84374294Y-70507424D01*
X84239318Y-70413613D01*
X84125130Y-70295368D01*
X84036083Y-70157194D01*
X83975569Y-70004353D01*
X83945897Y-69842681D01*
X83948191Y-69678316D01*
X83982369Y-69517526D01*
X84047123Y-69366440D01*
X84139994Y-69230807D01*
X84257437Y-69115798D01*
X84394986Y-69025788D01*
X84547397Y-68964210D01*
X84708862Y-68933409D01*
X84873243Y-68934557D01*
X84873243Y-68934557D01*
G37*
G36*
X82973243Y-67664557D02*
X83134258Y-67697609D01*
X83285801Y-67761311D01*
X83422073Y-67853229D01*
X83537906Y-67969872D01*
X83628868Y-68106782D01*
X83691510Y-68258763D01*
X83723368Y-68419656D01*
X83723368Y-68419666D01*
X83723436Y-68420010D01*
X83720815Y-68607763D01*
X83720737Y-68608106D01*
X83720737Y-68608109D01*
X83684397Y-68768061D01*
X83617540Y-68918225D01*
X83522784Y-69052547D01*
X83403745Y-69165908D01*
X83264953Y-69253988D01*
X83111699Y-69313431D01*
X82949819Y-69341975D01*
X82785473Y-69338532D01*
X82624928Y-69303235D01*
X82474294Y-69237424D01*
X82339318Y-69143613D01*
X82225130Y-69025368D01*
X82136083Y-68887194D01*
X82075569Y-68734353D01*
X82045897Y-68572681D01*
X82048191Y-68408316D01*
X82082369Y-68247526D01*
X82147123Y-68096440D01*
X82239994Y-67960807D01*
X82357437Y-67845798D01*
X82494986Y-67755788D01*
X82647397Y-67694210D01*
X82808862Y-67663409D01*
X82973243Y-67664557D01*
X82973243Y-67664557D01*
G37*
G36*
X86773243Y-67614557D02*
X86934258Y-67647609D01*
X87085801Y-67711311D01*
X87222073Y-67803229D01*
X87337906Y-67919872D01*
X87428868Y-68056782D01*
X87491510Y-68208763D01*
X87523368Y-68369656D01*
X87523368Y-68369666D01*
X87523436Y-68370010D01*
X87520815Y-68557763D01*
X87520737Y-68558106D01*
X87520737Y-68558109D01*
X87484397Y-68718061D01*
X87417540Y-68868225D01*
X87322784Y-69002547D01*
X87203745Y-69115908D01*
X87064953Y-69203988D01*
X86911699Y-69263431D01*
X86749819Y-69291975D01*
X86585473Y-69288532D01*
X86424928Y-69253235D01*
X86274294Y-69187424D01*
X86139318Y-69093613D01*
X86025130Y-68975368D01*
X85936083Y-68837194D01*
X85875569Y-68684353D01*
X85845897Y-68522681D01*
X85848191Y-68358316D01*
X85882369Y-68197526D01*
X85947123Y-68046440D01*
X86039994Y-67910807D01*
X86157437Y-67795798D01*
X86294986Y-67705788D01*
X86447397Y-67644210D01*
X86608862Y-67613409D01*
X86773243Y-67614557D01*
X86773243Y-67614557D01*
G37*
G36*
X81073243Y-66394557D02*
X81234258Y-66427609D01*
X81385801Y-66491311D01*
X81522073Y-66583229D01*
X81637906Y-66699872D01*
X81728868Y-66836782D01*
X81791510Y-66988763D01*
X81823368Y-67149656D01*
X81823368Y-67149666D01*
X81823436Y-67150010D01*
X81820815Y-67337763D01*
X81820737Y-67338106D01*
X81820737Y-67338109D01*
X81784397Y-67498061D01*
X81717540Y-67648225D01*
X81622784Y-67782547D01*
X81503745Y-67895908D01*
X81364953Y-67983988D01*
X81211699Y-68043431D01*
X81049819Y-68071975D01*
X80885473Y-68068532D01*
X80724928Y-68033235D01*
X80574294Y-67967424D01*
X80439318Y-67873613D01*
X80325130Y-67755368D01*
X80236083Y-67617194D01*
X80175569Y-67464353D01*
X80145897Y-67302681D01*
X80148191Y-67138316D01*
X80182369Y-66977526D01*
X80247123Y-66826440D01*
X80339994Y-66690807D01*
X80457437Y-66575798D01*
X80594986Y-66485788D01*
X80747397Y-66424210D01*
X80908862Y-66393409D01*
X81073243Y-66394557D01*
X81073243Y-66394557D01*
G37*
G36*
X84873243Y-66394557D02*
X85034258Y-66427609D01*
X85185801Y-66491311D01*
X85322073Y-66583229D01*
X85437906Y-66699872D01*
X85528868Y-66836782D01*
X85591510Y-66988763D01*
X85623368Y-67149656D01*
X85623368Y-67149666D01*
X85623436Y-67150010D01*
X85620815Y-67337763D01*
X85620737Y-67338106D01*
X85620737Y-67338109D01*
X85584397Y-67498061D01*
X85517540Y-67648225D01*
X85422784Y-67782547D01*
X85303745Y-67895908D01*
X85164953Y-67983988D01*
X85011699Y-68043431D01*
X84849819Y-68071975D01*
X84685473Y-68068532D01*
X84524928Y-68033235D01*
X84374294Y-67967424D01*
X84239318Y-67873613D01*
X84125130Y-67755368D01*
X84036083Y-67617194D01*
X83975569Y-67464353D01*
X83945897Y-67302681D01*
X83948191Y-67138316D01*
X83982369Y-66977526D01*
X84047123Y-66826440D01*
X84139994Y-66690807D01*
X84257437Y-66575798D01*
X84394986Y-66485788D01*
X84547397Y-66424210D01*
X84708862Y-66393409D01*
X84873243Y-66394557D01*
X84873243Y-66394557D01*
G37*
G36*
X82973243Y-65124557D02*
X83134258Y-65157609D01*
X83285801Y-65221311D01*
X83422073Y-65313229D01*
X83537906Y-65429872D01*
X83628868Y-65566782D01*
X83691510Y-65718763D01*
X83723368Y-65879656D01*
X83723368Y-65879666D01*
X83723436Y-65880010D01*
X83720815Y-66067763D01*
X83720737Y-66068106D01*
X83720737Y-66068109D01*
X83684397Y-66228061D01*
X83617540Y-66378225D01*
X83522784Y-66512547D01*
X83403745Y-66625908D01*
X83264953Y-66713988D01*
X83111699Y-66773431D01*
X82949819Y-66801975D01*
X82785473Y-66798532D01*
X82624928Y-66763235D01*
X82474294Y-66697424D01*
X82339318Y-66603613D01*
X82225130Y-66485368D01*
X82136083Y-66347194D01*
X82075569Y-66194353D01*
X82045897Y-66032681D01*
X82048191Y-65868316D01*
X82082369Y-65707526D01*
X82147123Y-65556440D01*
X82239994Y-65420807D01*
X82357437Y-65305798D01*
X82494986Y-65215788D01*
X82647397Y-65154210D01*
X82808862Y-65123409D01*
X82973243Y-65124557D01*
X82973243Y-65124557D01*
G37*
G36*
X86773243Y-65074557D02*
X86934258Y-65107609D01*
X87085801Y-65171311D01*
X87222073Y-65263229D01*
X87337906Y-65379872D01*
X87428868Y-65516782D01*
X87491510Y-65668763D01*
X87523368Y-65829656D01*
X87523368Y-65829666D01*
X87523436Y-65830010D01*
X87520815Y-66017763D01*
X87520737Y-66018106D01*
X87520737Y-66018109D01*
X87484397Y-66178061D01*
X87417540Y-66328225D01*
X87322784Y-66462547D01*
X87203745Y-66575908D01*
X87064953Y-66663988D01*
X86911699Y-66723431D01*
X86749819Y-66751975D01*
X86585473Y-66748532D01*
X86424928Y-66713235D01*
X86274294Y-66647424D01*
X86139318Y-66553613D01*
X86025130Y-66435368D01*
X85936083Y-66297194D01*
X85875569Y-66144353D01*
X85845897Y-65982681D01*
X85848191Y-65818316D01*
X85882369Y-65657526D01*
X85947123Y-65506440D01*
X86039994Y-65370807D01*
X86157437Y-65255798D01*
X86294986Y-65165788D01*
X86447397Y-65104210D01*
X86608862Y-65073409D01*
X86773243Y-65074557D01*
X86773243Y-65074557D01*
G37*
G36*
X81073243Y-63854557D02*
X81234258Y-63887609D01*
X81385801Y-63951311D01*
X81522073Y-64043229D01*
X81637906Y-64159872D01*
X81728868Y-64296782D01*
X81791510Y-64448763D01*
X81823368Y-64609656D01*
X81823368Y-64609666D01*
X81823436Y-64610010D01*
X81820815Y-64797763D01*
X81820737Y-64798106D01*
X81820737Y-64798109D01*
X81784397Y-64958061D01*
X81717540Y-65108225D01*
X81622784Y-65242547D01*
X81503745Y-65355908D01*
X81364953Y-65443988D01*
X81211699Y-65503431D01*
X81049819Y-65531975D01*
X80885473Y-65528532D01*
X80724928Y-65493235D01*
X80574294Y-65427424D01*
X80439318Y-65333613D01*
X80325130Y-65215368D01*
X80236083Y-65077194D01*
X80175569Y-64924353D01*
X80145897Y-64762681D01*
X80148191Y-64598316D01*
X80182369Y-64437526D01*
X80247123Y-64286440D01*
X80339994Y-64150807D01*
X80457437Y-64035798D01*
X80594986Y-63945788D01*
X80747397Y-63884210D01*
X80908862Y-63853409D01*
X81073243Y-63854557D01*
X81073243Y-63854557D01*
G37*
G36*
X84873243Y-63854557D02*
X85034258Y-63887609D01*
X85185801Y-63951311D01*
X85322073Y-64043229D01*
X85437906Y-64159872D01*
X85528868Y-64296782D01*
X85591510Y-64448763D01*
X85623368Y-64609656D01*
X85623368Y-64609666D01*
X85623436Y-64610010D01*
X85620815Y-64797763D01*
X85620737Y-64798106D01*
X85620737Y-64798109D01*
X85584397Y-64958061D01*
X85517540Y-65108225D01*
X85422784Y-65242547D01*
X85303745Y-65355908D01*
X85164953Y-65443988D01*
X85011699Y-65503431D01*
X84849819Y-65531975D01*
X84685473Y-65528532D01*
X84524928Y-65493235D01*
X84374294Y-65427424D01*
X84239318Y-65333613D01*
X84125130Y-65215368D01*
X84036083Y-65077194D01*
X83975569Y-64924353D01*
X83945897Y-64762681D01*
X83948191Y-64598316D01*
X83982369Y-64437526D01*
X84047123Y-64286440D01*
X84139994Y-64150807D01*
X84257437Y-64035798D01*
X84394986Y-63945788D01*
X84547397Y-63884210D01*
X84708862Y-63853409D01*
X84873243Y-63854557D01*
X84873243Y-63854557D01*
G37*
G36*
X82973243Y-62584557D02*
X83134258Y-62617609D01*
X83285801Y-62681311D01*
X83422073Y-62773229D01*
X83537906Y-62889872D01*
X83628868Y-63026782D01*
X83691510Y-63178763D01*
X83723368Y-63339656D01*
X83723368Y-63339666D01*
X83723436Y-63340010D01*
X83720815Y-63527763D01*
X83720737Y-63528106D01*
X83720737Y-63528109D01*
X83684397Y-63688061D01*
X83617540Y-63838225D01*
X83522784Y-63972547D01*
X83403745Y-64085908D01*
X83264953Y-64173988D01*
X83111699Y-64233431D01*
X82949819Y-64261975D01*
X82785473Y-64258532D01*
X82624928Y-64223235D01*
X82474294Y-64157424D01*
X82339318Y-64063613D01*
X82225130Y-63945368D01*
X82136083Y-63807194D01*
X82075569Y-63654353D01*
X82045897Y-63492681D01*
X82048191Y-63328316D01*
X82082369Y-63167526D01*
X82147123Y-63016440D01*
X82239994Y-62880807D01*
X82357437Y-62765798D01*
X82494986Y-62675788D01*
X82647397Y-62614210D01*
X82808862Y-62583409D01*
X82973243Y-62584557D01*
X82973243Y-62584557D01*
G37*
G36*
X86773243Y-62534557D02*
X86934258Y-62567609D01*
X87085801Y-62631311D01*
X87222073Y-62723229D01*
X87337906Y-62839872D01*
X87428868Y-62976782D01*
X87491510Y-63128763D01*
X87523368Y-63289656D01*
X87523368Y-63289666D01*
X87523436Y-63290010D01*
X87520815Y-63477763D01*
X87520737Y-63478106D01*
X87520737Y-63478109D01*
X87484397Y-63638061D01*
X87417540Y-63788225D01*
X87322784Y-63922547D01*
X87203745Y-64035908D01*
X87064953Y-64123988D01*
X86911699Y-64183431D01*
X86749819Y-64211975D01*
X86585473Y-64208532D01*
X86424928Y-64173235D01*
X86274294Y-64107424D01*
X86139318Y-64013613D01*
X86025130Y-63895368D01*
X85936083Y-63757194D01*
X85875569Y-63604353D01*
X85845897Y-63442681D01*
X85848191Y-63278316D01*
X85882369Y-63117526D01*
X85947123Y-62966440D01*
X86039994Y-62830807D01*
X86157437Y-62715798D01*
X86294986Y-62625788D01*
X86447397Y-62564210D01*
X86608862Y-62533409D01*
X86773243Y-62534557D01*
X86773243Y-62534557D01*
G37*
G36*
X97537310Y-57183047D02*
X98128255Y-57304351D01*
X98684398Y-57538132D01*
X99184534Y-57875478D01*
X99609621Y-58303543D01*
X99943466Y-58806021D01*
X100173356Y-59363776D01*
X100290464Y-59955214D01*
X100290464Y-59955224D01*
X100290531Y-59955563D01*
X100280910Y-60644616D01*
X100280833Y-60644954D01*
X100280833Y-60644962D01*
X100147257Y-61232901D01*
X99901885Y-61784016D01*
X99554137Y-62276978D01*
X99117262Y-62693009D01*
X98607900Y-63016261D01*
X98045454Y-63234419D01*
X97451347Y-63339176D01*
X96848203Y-63326542D01*
X96259000Y-63196997D01*
X95706182Y-62955477D01*
X95210807Y-62611182D01*
X94791737Y-62177223D01*
X94464938Y-61670130D01*
X94242856Y-61109214D01*
X94133955Y-60515858D01*
X94142377Y-59912641D01*
X94267806Y-59322547D01*
X94505459Y-58768058D01*
X94846291Y-58270288D01*
X95277312Y-57848200D01*
X95782113Y-57517868D01*
X96341459Y-57291877D01*
X96934045Y-57178836D01*
X97537310Y-57183047D01*
X97537310Y-57183047D01*
G37*
G36*
X57538310Y-57183047D02*
X58129255Y-57304351D01*
X58685398Y-57538132D01*
X59185534Y-57875478D01*
X59610621Y-58303543D01*
X59944466Y-58806021D01*
X60174356Y-59363776D01*
X60291464Y-59955214D01*
X60291464Y-59955224D01*
X60291531Y-59955563D01*
X60281910Y-60644616D01*
X60281833Y-60644954D01*
X60281833Y-60644962D01*
X60148257Y-61232901D01*
X59902885Y-61784016D01*
X59555137Y-62276978D01*
X59118262Y-62693009D01*
X58608900Y-63016261D01*
X58046454Y-63234419D01*
X57452347Y-63339176D01*
X56849203Y-63326542D01*
X56260000Y-63196997D01*
X55707182Y-62955477D01*
X55211807Y-62611182D01*
X54792737Y-62177223D01*
X54465938Y-61670130D01*
X54243856Y-61109214D01*
X54134955Y-60515858D01*
X54143377Y-59912641D01*
X54268806Y-59322547D01*
X54506459Y-58768058D01*
X54847291Y-58270288D01*
X55278312Y-57848200D01*
X55783113Y-57517868D01*
X56342459Y-57291877D01*
X56935045Y-57178836D01*
X57538310Y-57183047D01*
X57538310Y-57183047D01*
G37*
G36*
X84873243Y-61314557D02*
X85034258Y-61347609D01*
X85185801Y-61411311D01*
X85322073Y-61503229D01*
X85437906Y-61619872D01*
X85528868Y-61756782D01*
X85591510Y-61908763D01*
X85623368Y-62069656D01*
X85623368Y-62069666D01*
X85623436Y-62070010D01*
X85620815Y-62257763D01*
X85620737Y-62258106D01*
X85620737Y-62258109D01*
X85584397Y-62418061D01*
X85517540Y-62568225D01*
X85422784Y-62702547D01*
X85303745Y-62815908D01*
X85164953Y-62903988D01*
X85011699Y-62963431D01*
X84849819Y-62991975D01*
X84685473Y-62988532D01*
X84524928Y-62953235D01*
X84374294Y-62887424D01*
X84239318Y-62793613D01*
X84125130Y-62675368D01*
X84036083Y-62537194D01*
X83975569Y-62384353D01*
X83945897Y-62222681D01*
X83948191Y-62058316D01*
X83982369Y-61897526D01*
X84047123Y-61746440D01*
X84139994Y-61610807D01*
X84257437Y-61495798D01*
X84394986Y-61405788D01*
X84547397Y-61344210D01*
X84708862Y-61313409D01*
X84873243Y-61314557D01*
X84873243Y-61314557D01*
G37*
G36*
X81073243Y-61314557D02*
X81234258Y-61347609D01*
X81385801Y-61411311D01*
X81522073Y-61503229D01*
X81637906Y-61619872D01*
X81728868Y-61756782D01*
X81791510Y-61908763D01*
X81823368Y-62069656D01*
X81823368Y-62069666D01*
X81823436Y-62070010D01*
X81820815Y-62257763D01*
X81820737Y-62258106D01*
X81820737Y-62258109D01*
X81784397Y-62418061D01*
X81717540Y-62568225D01*
X81622784Y-62702547D01*
X81503745Y-62815908D01*
X81364953Y-62903988D01*
X81211699Y-62963431D01*
X81049819Y-62991975D01*
X80885473Y-62988532D01*
X80724928Y-62953235D01*
X80574294Y-62887424D01*
X80439318Y-62793613D01*
X80325130Y-62675368D01*
X80236083Y-62537194D01*
X80175569Y-62384353D01*
X80145897Y-62222681D01*
X80148191Y-62058316D01*
X80182369Y-61897526D01*
X80247123Y-61746440D01*
X80339994Y-61610807D01*
X80457437Y-61495798D01*
X80594986Y-61405788D01*
X80747397Y-61344210D01*
X80908862Y-61313409D01*
X81073243Y-61314557D01*
X81073243Y-61314557D01*
G37*
G36*
X82973243Y-60044557D02*
X83134258Y-60077609D01*
X83285801Y-60141311D01*
X83422073Y-60233229D01*
X83537906Y-60349872D01*
X83628868Y-60486782D01*
X83691510Y-60638763D01*
X83723368Y-60799656D01*
X83723368Y-60799666D01*
X83723436Y-60800010D01*
X83720815Y-60987763D01*
X83720737Y-60988106D01*
X83720737Y-60988109D01*
X83684397Y-61148061D01*
X83617540Y-61298225D01*
X83522784Y-61432547D01*
X83403745Y-61545908D01*
X83264953Y-61633988D01*
X83111699Y-61693431D01*
X82949819Y-61721975D01*
X82785473Y-61718532D01*
X82624928Y-61683235D01*
X82474294Y-61617424D01*
X82339318Y-61523613D01*
X82225130Y-61405368D01*
X82136083Y-61267194D01*
X82075569Y-61114353D01*
X82045897Y-60952681D01*
X82048191Y-60788316D01*
X82082369Y-60627526D01*
X82147123Y-60476440D01*
X82239994Y-60340807D01*
X82357437Y-60225798D01*
X82494986Y-60135788D01*
X82647397Y-60074210D01*
X82808862Y-60043409D01*
X82973243Y-60044557D01*
X82973243Y-60044557D01*
G37*
G36*
X86773243Y-59994557D02*
X86934258Y-60027609D01*
X87085801Y-60091311D01*
X87222073Y-60183229D01*
X87337906Y-60299872D01*
X87428868Y-60436782D01*
X87491510Y-60588763D01*
X87523368Y-60749656D01*
X87523368Y-60749666D01*
X87523436Y-60750010D01*
X87520815Y-60937763D01*
X87520737Y-60938106D01*
X87520737Y-60938109D01*
X87484397Y-61098061D01*
X87417540Y-61248225D01*
X87322784Y-61382547D01*
X87203745Y-61495908D01*
X87064953Y-61583988D01*
X86911699Y-61643431D01*
X86749819Y-61671975D01*
X86585473Y-61668532D01*
X86424928Y-61633235D01*
X86274294Y-61567424D01*
X86139318Y-61473613D01*
X86025130Y-61355368D01*
X85936083Y-61217194D01*
X85875569Y-61064353D01*
X85845897Y-60902681D01*
X85848191Y-60738316D01*
X85882369Y-60577526D01*
X85947123Y-60426440D01*
X86039994Y-60290807D01*
X86157437Y-60175798D01*
X86294986Y-60085788D01*
X86447397Y-60024210D01*
X86608862Y-59993409D01*
X86773243Y-59994557D01*
X86773243Y-59994557D01*
G37*
G36*
X81073243Y-58774557D02*
X81234258Y-58807609D01*
X81385801Y-58871311D01*
X81522073Y-58963229D01*
X81637906Y-59079872D01*
X81728868Y-59216782D01*
X81791510Y-59368763D01*
X81823368Y-59529656D01*
X81823368Y-59529666D01*
X81823436Y-59530010D01*
X81820815Y-59717763D01*
X81820737Y-59718106D01*
X81820737Y-59718109D01*
X81784397Y-59878061D01*
X81717540Y-60028225D01*
X81622784Y-60162547D01*
X81503745Y-60275908D01*
X81364953Y-60363988D01*
X81211699Y-60423431D01*
X81049819Y-60451975D01*
X80885473Y-60448532D01*
X80724928Y-60413235D01*
X80574294Y-60347424D01*
X80439318Y-60253613D01*
X80325130Y-60135368D01*
X80236083Y-59997194D01*
X80175569Y-59844353D01*
X80145897Y-59682681D01*
X80148191Y-59518316D01*
X80182369Y-59357526D01*
X80247123Y-59206440D01*
X80339994Y-59070807D01*
X80457437Y-58955798D01*
X80594986Y-58865788D01*
X80747397Y-58804210D01*
X80908862Y-58773409D01*
X81073243Y-58774557D01*
X81073243Y-58774557D01*
G37*
G36*
X84873243Y-58774557D02*
X85034258Y-58807609D01*
X85185801Y-58871311D01*
X85322073Y-58963229D01*
X85437906Y-59079872D01*
X85528868Y-59216782D01*
X85591510Y-59368763D01*
X85623368Y-59529656D01*
X85623368Y-59529666D01*
X85623436Y-59530010D01*
X85620815Y-59717763D01*
X85620737Y-59718106D01*
X85620737Y-59718109D01*
X85584397Y-59878061D01*
X85517540Y-60028225D01*
X85422784Y-60162547D01*
X85303745Y-60275908D01*
X85164953Y-60363988D01*
X85011699Y-60423431D01*
X84849819Y-60451975D01*
X84685473Y-60448532D01*
X84524928Y-60413235D01*
X84374294Y-60347424D01*
X84239318Y-60253613D01*
X84125130Y-60135368D01*
X84036083Y-59997194D01*
X83975569Y-59844353D01*
X83945897Y-59682681D01*
X83948191Y-59518316D01*
X83982369Y-59357526D01*
X84047123Y-59206440D01*
X84139994Y-59070807D01*
X84257437Y-58955798D01*
X84394986Y-58865788D01*
X84547397Y-58804210D01*
X84708862Y-58773409D01*
X84873243Y-58774557D01*
X84873243Y-58774557D01*
G37*
G36*
X82973243Y-57504557D02*
X83134258Y-57537609D01*
X83285801Y-57601311D01*
X83422073Y-57693229D01*
X83537906Y-57809872D01*
X83628868Y-57946782D01*
X83691510Y-58098763D01*
X83723368Y-58259656D01*
X83723368Y-58259666D01*
X83723436Y-58260010D01*
X83720815Y-58447763D01*
X83720737Y-58448106D01*
X83720737Y-58448109D01*
X83684397Y-58608061D01*
X83617540Y-58758225D01*
X83522784Y-58892547D01*
X83403745Y-59005908D01*
X83264953Y-59093988D01*
X83111699Y-59153431D01*
X82949819Y-59181975D01*
X82785473Y-59178532D01*
X82624928Y-59143235D01*
X82474294Y-59077424D01*
X82339318Y-58983613D01*
X82225130Y-58865368D01*
X82136083Y-58727194D01*
X82075569Y-58574353D01*
X82045897Y-58412681D01*
X82048191Y-58248316D01*
X82082369Y-58087526D01*
X82147123Y-57936440D01*
X82239994Y-57800807D01*
X82357437Y-57685798D01*
X82494986Y-57595788D01*
X82647397Y-57534210D01*
X82808862Y-57503409D01*
X82973243Y-57504557D01*
X82973243Y-57504557D01*
G37*
G36*
X86773243Y-57454557D02*
X86934258Y-57487609D01*
X87085801Y-57551311D01*
X87222073Y-57643229D01*
X87337906Y-57759872D01*
X87428868Y-57896782D01*
X87491510Y-58048763D01*
X87523368Y-58209656D01*
X87523368Y-58209666D01*
X87523436Y-58210010D01*
X87520815Y-58397763D01*
X87520737Y-58398106D01*
X87520737Y-58398109D01*
X87484397Y-58558061D01*
X87417540Y-58708225D01*
X87322784Y-58842547D01*
X87203745Y-58955908D01*
X87064953Y-59043988D01*
X86911699Y-59103431D01*
X86749819Y-59131975D01*
X86585473Y-59128532D01*
X86424928Y-59093235D01*
X86274294Y-59027424D01*
X86139318Y-58933613D01*
X86025130Y-58815368D01*
X85936083Y-58677194D01*
X85875569Y-58524353D01*
X85845897Y-58362681D01*
X85848191Y-58198316D01*
X85882369Y-58037526D01*
X85947123Y-57886440D01*
X86039994Y-57750807D01*
X86157437Y-57635798D01*
X86294986Y-57545788D01*
X86447397Y-57484210D01*
X86608862Y-57453409D01*
X86773243Y-57454557D01*
X86773243Y-57454557D01*
G37*
G36*
X81073243Y-56234557D02*
X81234258Y-56267609D01*
X81385801Y-56331311D01*
X81522073Y-56423229D01*
X81637906Y-56539872D01*
X81728868Y-56676782D01*
X81791510Y-56828763D01*
X81823368Y-56989656D01*
X81823368Y-56989666D01*
X81823436Y-56990010D01*
X81820815Y-57177763D01*
X81820737Y-57178106D01*
X81820737Y-57178109D01*
X81784397Y-57338061D01*
X81717540Y-57488225D01*
X81622784Y-57622547D01*
X81503745Y-57735908D01*
X81364953Y-57823988D01*
X81211699Y-57883431D01*
X81049819Y-57911975D01*
X80885473Y-57908532D01*
X80724928Y-57873235D01*
X80574294Y-57807424D01*
X80439318Y-57713613D01*
X80325130Y-57595368D01*
X80236083Y-57457194D01*
X80175569Y-57304353D01*
X80145897Y-57142681D01*
X80148191Y-56978316D01*
X80182369Y-56817526D01*
X80247123Y-56666440D01*
X80339994Y-56530807D01*
X80457437Y-56415798D01*
X80594986Y-56325788D01*
X80747397Y-56264210D01*
X80908862Y-56233409D01*
X81073243Y-56234557D01*
X81073243Y-56234557D01*
G37*
G36*
X84873243Y-56234557D02*
X85034258Y-56267609D01*
X85185801Y-56331311D01*
X85322073Y-56423229D01*
X85437906Y-56539872D01*
X85528868Y-56676782D01*
X85591510Y-56828763D01*
X85623368Y-56989656D01*
X85623368Y-56989666D01*
X85623436Y-56990010D01*
X85620815Y-57177763D01*
X85620737Y-57178106D01*
X85620737Y-57178109D01*
X85584397Y-57338061D01*
X85517540Y-57488225D01*
X85422784Y-57622547D01*
X85303745Y-57735908D01*
X85164953Y-57823988D01*
X85011699Y-57883431D01*
X84849819Y-57911975D01*
X84685473Y-57908532D01*
X84524928Y-57873235D01*
X84374294Y-57807424D01*
X84239318Y-57713613D01*
X84125130Y-57595368D01*
X84036083Y-57457194D01*
X83975569Y-57304353D01*
X83945897Y-57142681D01*
X83948191Y-56978316D01*
X83982369Y-56817526D01*
X84047123Y-56666440D01*
X84139994Y-56530807D01*
X84257437Y-56415798D01*
X84394986Y-56325788D01*
X84547397Y-56264210D01*
X84708862Y-56233409D01*
X84873243Y-56234557D01*
X84873243Y-56234557D01*
G37*
G36*
X82973243Y-54964557D02*
X83134258Y-54997609D01*
X83285801Y-55061311D01*
X83422073Y-55153229D01*
X83537906Y-55269872D01*
X83628868Y-55406782D01*
X83691510Y-55558763D01*
X83723368Y-55719656D01*
X83723368Y-55719666D01*
X83723436Y-55720010D01*
X83720815Y-55907763D01*
X83720737Y-55908106D01*
X83720737Y-55908109D01*
X83684397Y-56068061D01*
X83617540Y-56218225D01*
X83522784Y-56352547D01*
X83403745Y-56465908D01*
X83264953Y-56553988D01*
X83111699Y-56613431D01*
X82949819Y-56641975D01*
X82785473Y-56638532D01*
X82624928Y-56603235D01*
X82474294Y-56537424D01*
X82339318Y-56443613D01*
X82225130Y-56325368D01*
X82136083Y-56187194D01*
X82075569Y-56034353D01*
X82045897Y-55872681D01*
X82048191Y-55708316D01*
X82082369Y-55547526D01*
X82147123Y-55396440D01*
X82239994Y-55260807D01*
X82357437Y-55145798D01*
X82494986Y-55055788D01*
X82647397Y-54994210D01*
X82808862Y-54963409D01*
X82973243Y-54964557D01*
X82973243Y-54964557D01*
G37*
G36*
X86773243Y-54914557D02*
X86934258Y-54947609D01*
X87085801Y-55011311D01*
X87222073Y-55103229D01*
X87337906Y-55219872D01*
X87428868Y-55356782D01*
X87491510Y-55508763D01*
X87523368Y-55669656D01*
X87523368Y-55669666D01*
X87523436Y-55670010D01*
X87520815Y-55857763D01*
X87520737Y-55858106D01*
X87520737Y-55858109D01*
X87484397Y-56018061D01*
X87417540Y-56168225D01*
X87322784Y-56302547D01*
X87203745Y-56415908D01*
X87064953Y-56503988D01*
X86911699Y-56563431D01*
X86749819Y-56591975D01*
X86585473Y-56588532D01*
X86424928Y-56553235D01*
X86274294Y-56487424D01*
X86139318Y-56393613D01*
X86025130Y-56275368D01*
X85936083Y-56137194D01*
X85875569Y-55984353D01*
X85845897Y-55822681D01*
X85848191Y-55658316D01*
X85882369Y-55497526D01*
X85947123Y-55346440D01*
X86039994Y-55210807D01*
X86157437Y-55095798D01*
X86294986Y-55005788D01*
X86447397Y-54944210D01*
X86608862Y-54913409D01*
X86773243Y-54914557D01*
X86773243Y-54914557D01*
G37*
G36*
X84873243Y-53694557D02*
X85034258Y-53727609D01*
X85185801Y-53791311D01*
X85322073Y-53883229D01*
X85437906Y-53999872D01*
X85528868Y-54136782D01*
X85591510Y-54288763D01*
X85623368Y-54449656D01*
X85623368Y-54449666D01*
X85623436Y-54450010D01*
X85620815Y-54637763D01*
X85620737Y-54638106D01*
X85620737Y-54638109D01*
X85584397Y-54798061D01*
X85517540Y-54948225D01*
X85422784Y-55082547D01*
X85303745Y-55195908D01*
X85164953Y-55283988D01*
X85011699Y-55343431D01*
X84849819Y-55371975D01*
X84685473Y-55368532D01*
X84524928Y-55333235D01*
X84374294Y-55267424D01*
X84239318Y-55173613D01*
X84125130Y-55055368D01*
X84036083Y-54917194D01*
X83975569Y-54764353D01*
X83945897Y-54602681D01*
X83948191Y-54438316D01*
X83982369Y-54277526D01*
X84047123Y-54126440D01*
X84139994Y-53990807D01*
X84257437Y-53875798D01*
X84394986Y-53785788D01*
X84547397Y-53724210D01*
X84708862Y-53693409D01*
X84873243Y-53694557D01*
X84873243Y-53694557D01*
G37*
G36*
X81073243Y-53694557D02*
X81234258Y-53727609D01*
X81385801Y-53791311D01*
X81522073Y-53883229D01*
X81637906Y-53999872D01*
X81728868Y-54136782D01*
X81791510Y-54288763D01*
X81823368Y-54449656D01*
X81823368Y-54449666D01*
X81823436Y-54450010D01*
X81820815Y-54637763D01*
X81820737Y-54638106D01*
X81820737Y-54638109D01*
X81784397Y-54798061D01*
X81717540Y-54948225D01*
X81622784Y-55082547D01*
X81503745Y-55195908D01*
X81364953Y-55283988D01*
X81211699Y-55343431D01*
X81049819Y-55371975D01*
X80885473Y-55368532D01*
X80724928Y-55333235D01*
X80574294Y-55267424D01*
X80439318Y-55173613D01*
X80325130Y-55055368D01*
X80236083Y-54917194D01*
X80175569Y-54764353D01*
X80145897Y-54602681D01*
X80148191Y-54438316D01*
X80182369Y-54277526D01*
X80247123Y-54126440D01*
X80339994Y-53990807D01*
X80457437Y-53875798D01*
X80594986Y-53785788D01*
X80747397Y-53724210D01*
X80908862Y-53693409D01*
X81073243Y-53694557D01*
X81073243Y-53694557D01*
G37*
G36*
X57538310Y-49183047D02*
X58129255Y-49304351D01*
X58685398Y-49538132D01*
X59185534Y-49875478D01*
X59610621Y-50303543D01*
X59944466Y-50806021D01*
X60174356Y-51363776D01*
X60291464Y-51955214D01*
X60291464Y-51955224D01*
X60291531Y-51955563D01*
X60281910Y-52644616D01*
X60281833Y-52644954D01*
X60281833Y-52644962D01*
X60148257Y-53232901D01*
X59902885Y-53784016D01*
X59555137Y-54276978D01*
X59118262Y-54693009D01*
X58608900Y-55016261D01*
X58046454Y-55234419D01*
X57452347Y-55339176D01*
X56849203Y-55326542D01*
X56260000Y-55196997D01*
X55707182Y-54955477D01*
X55211807Y-54611182D01*
X54792737Y-54177223D01*
X54465938Y-53670130D01*
X54243856Y-53109214D01*
X54134955Y-52515858D01*
X54143377Y-51912641D01*
X54268806Y-51322547D01*
X54506459Y-50768058D01*
X54847291Y-50270288D01*
X55278312Y-49848200D01*
X55783113Y-49517868D01*
X56342459Y-49291877D01*
X56935045Y-49178836D01*
X57538310Y-49183047D01*
X57538310Y-49183047D01*
G37*
G36*
X97537310Y-49183047D02*
X98128255Y-49304351D01*
X98684398Y-49538132D01*
X99184534Y-49875478D01*
X99609621Y-50303543D01*
X99943466Y-50806021D01*
X100173356Y-51363776D01*
X100290464Y-51955214D01*
X100290464Y-51955224D01*
X100290531Y-51955563D01*
X100280910Y-52644616D01*
X100280833Y-52644954D01*
X100280833Y-52644962D01*
X100147257Y-53232901D01*
X99901885Y-53784016D01*
X99554137Y-54276978D01*
X99117262Y-54693009D01*
X98607900Y-55016261D01*
X98045454Y-55234419D01*
X97451347Y-55339176D01*
X96848203Y-55326542D01*
X96259000Y-55196997D01*
X95706182Y-54955477D01*
X95210807Y-54611182D01*
X94791737Y-54177223D01*
X94464938Y-53670130D01*
X94242856Y-53109214D01*
X94133955Y-52515858D01*
X94142377Y-51912641D01*
X94267806Y-51322547D01*
X94505459Y-50768058D01*
X94846291Y-50270288D01*
X95277312Y-49848200D01*
X95782113Y-49517868D01*
X96341459Y-49291877D01*
X96934045Y-49178836D01*
X97537310Y-49183047D01*
X97537310Y-49183047D01*
G37*
G36*
X82973243Y-52424557D02*
X83134258Y-52457609D01*
X83285801Y-52521311D01*
X83422073Y-52613229D01*
X83537906Y-52729872D01*
X83628868Y-52866782D01*
X83691510Y-53018763D01*
X83723368Y-53179656D01*
X83723368Y-53179666D01*
X83723436Y-53180010D01*
X83720815Y-53367763D01*
X83720737Y-53368106D01*
X83720737Y-53368109D01*
X83684397Y-53528061D01*
X83617540Y-53678225D01*
X83522784Y-53812547D01*
X83403745Y-53925908D01*
X83264953Y-54013988D01*
X83111699Y-54073431D01*
X82949819Y-54101975D01*
X82785473Y-54098532D01*
X82624928Y-54063235D01*
X82474294Y-53997424D01*
X82339318Y-53903613D01*
X82225130Y-53785368D01*
X82136083Y-53647194D01*
X82075569Y-53494353D01*
X82045897Y-53332681D01*
X82048191Y-53168316D01*
X82082369Y-53007526D01*
X82147123Y-52856440D01*
X82239994Y-52720807D01*
X82357437Y-52605798D01*
X82494986Y-52515788D01*
X82647397Y-52454210D01*
X82808862Y-52423409D01*
X82973243Y-52424557D01*
X82973243Y-52424557D01*
G37*
G36*
X86773243Y-52374557D02*
X86934258Y-52407609D01*
X87085801Y-52471311D01*
X87222073Y-52563229D01*
X87337906Y-52679872D01*
X87428868Y-52816782D01*
X87491510Y-52968763D01*
X87523368Y-53129656D01*
X87523368Y-53129666D01*
X87523436Y-53130010D01*
X87520815Y-53317763D01*
X87520737Y-53318106D01*
X87520737Y-53318109D01*
X87484397Y-53478061D01*
X87417540Y-53628225D01*
X87322784Y-53762547D01*
X87203745Y-53875908D01*
X87064953Y-53963988D01*
X86911699Y-54023431D01*
X86749819Y-54051975D01*
X86585473Y-54048532D01*
X86424928Y-54013235D01*
X86274294Y-53947424D01*
X86139318Y-53853613D01*
X86025130Y-53735368D01*
X85936083Y-53597194D01*
X85875569Y-53444353D01*
X85845897Y-53282681D01*
X85848191Y-53118316D01*
X85882369Y-52957526D01*
X85947123Y-52806440D01*
X86039994Y-52670807D01*
X86157437Y-52555798D01*
X86294986Y-52465788D01*
X86447397Y-52404210D01*
X86608862Y-52373409D01*
X86773243Y-52374557D01*
X86773243Y-52374557D01*
G37*
G36*
X81073243Y-51154557D02*
X81234258Y-51187609D01*
X81385801Y-51251311D01*
X81522073Y-51343229D01*
X81637906Y-51459872D01*
X81728868Y-51596782D01*
X81791510Y-51748763D01*
X81823368Y-51909656D01*
X81823368Y-51909666D01*
X81823436Y-51910010D01*
X81820815Y-52097763D01*
X81820737Y-52098106D01*
X81820737Y-52098109D01*
X81784397Y-52258061D01*
X81717540Y-52408225D01*
X81622784Y-52542547D01*
X81503745Y-52655908D01*
X81364953Y-52743988D01*
X81211699Y-52803431D01*
X81049819Y-52831975D01*
X80885473Y-52828532D01*
X80724928Y-52793235D01*
X80574294Y-52727424D01*
X80439318Y-52633613D01*
X80325130Y-52515368D01*
X80236083Y-52377194D01*
X80175569Y-52224353D01*
X80145897Y-52062681D01*
X80148191Y-51898316D01*
X80182369Y-51737526D01*
X80247123Y-51586440D01*
X80339994Y-51450807D01*
X80457437Y-51335798D01*
X80594986Y-51245788D01*
X80747397Y-51184210D01*
X80908862Y-51153409D01*
X81073243Y-51154557D01*
X81073243Y-51154557D01*
G37*
G36*
X84873243Y-51154557D02*
X85034258Y-51187609D01*
X85185801Y-51251311D01*
X85322073Y-51343229D01*
X85437906Y-51459872D01*
X85528868Y-51596782D01*
X85591510Y-51748763D01*
X85623368Y-51909656D01*
X85623368Y-51909666D01*
X85623436Y-51910010D01*
X85620815Y-52097763D01*
X85620737Y-52098106D01*
X85620737Y-52098109D01*
X85584397Y-52258061D01*
X85517540Y-52408225D01*
X85422784Y-52542547D01*
X85303745Y-52655908D01*
X85164953Y-52743988D01*
X85011699Y-52803431D01*
X84849819Y-52831975D01*
X84685473Y-52828532D01*
X84524928Y-52793235D01*
X84374294Y-52727424D01*
X84239318Y-52633613D01*
X84125130Y-52515368D01*
X84036083Y-52377194D01*
X83975569Y-52224353D01*
X83945897Y-52062681D01*
X83948191Y-51898316D01*
X83982369Y-51737526D01*
X84047123Y-51586440D01*
X84139994Y-51450807D01*
X84257437Y-51335798D01*
X84394986Y-51245788D01*
X84547397Y-51184210D01*
X84708862Y-51153409D01*
X84873243Y-51154557D01*
X84873243Y-51154557D01*
G37*
G36*
X82973243Y-49884557D02*
X83134258Y-49917609D01*
X83285801Y-49981311D01*
X83422073Y-50073229D01*
X83537906Y-50189872D01*
X83628868Y-50326782D01*
X83691510Y-50478763D01*
X83723368Y-50639656D01*
X83723368Y-50639666D01*
X83723436Y-50640010D01*
X83720815Y-50827763D01*
X83720737Y-50828106D01*
X83720737Y-50828109D01*
X83684397Y-50988061D01*
X83617540Y-51138225D01*
X83522784Y-51272547D01*
X83403745Y-51385908D01*
X83264953Y-51473988D01*
X83111699Y-51533431D01*
X82949819Y-51561975D01*
X82785473Y-51558532D01*
X82624928Y-51523235D01*
X82474294Y-51457424D01*
X82339318Y-51363613D01*
X82225130Y-51245368D01*
X82136083Y-51107194D01*
X82075569Y-50954353D01*
X82045897Y-50792681D01*
X82048191Y-50628316D01*
X82082369Y-50467526D01*
X82147123Y-50316440D01*
X82239994Y-50180807D01*
X82357437Y-50065798D01*
X82494986Y-49975788D01*
X82647397Y-49914210D01*
X82808862Y-49883409D01*
X82973243Y-49884557D01*
X82973243Y-49884557D01*
G37*
G36*
X86773243Y-49834557D02*
X86934258Y-49867609D01*
X87085801Y-49931311D01*
X87222073Y-50023229D01*
X87337906Y-50139872D01*
X87428868Y-50276782D01*
X87491510Y-50428763D01*
X87523368Y-50589656D01*
X87523368Y-50589666D01*
X87523436Y-50590010D01*
X87520815Y-50777763D01*
X87520737Y-50778106D01*
X87520737Y-50778109D01*
X87484397Y-50938061D01*
X87417540Y-51088225D01*
X87322784Y-51222547D01*
X87203745Y-51335908D01*
X87064953Y-51423988D01*
X86911699Y-51483431D01*
X86749819Y-51511975D01*
X86585473Y-51508532D01*
X86424928Y-51473235D01*
X86274294Y-51407424D01*
X86139318Y-51313613D01*
X86025130Y-51195368D01*
X85936083Y-51057194D01*
X85875569Y-50904353D01*
X85845897Y-50742681D01*
X85848191Y-50578316D01*
X85882369Y-50417526D01*
X85947123Y-50266440D01*
X86039994Y-50130807D01*
X86157437Y-50015798D01*
X86294986Y-49925788D01*
X86447397Y-49864210D01*
X86608862Y-49833409D01*
X86773243Y-49834557D01*
X86773243Y-49834557D01*
G37*
G36*
X81073243Y-48614557D02*
X81234258Y-48647609D01*
X81385801Y-48711311D01*
X81522073Y-48803229D01*
X81637906Y-48919872D01*
X81728868Y-49056782D01*
X81791510Y-49208763D01*
X81823368Y-49369656D01*
X81823368Y-49369666D01*
X81823436Y-49370010D01*
X81820815Y-49557763D01*
X81820737Y-49558106D01*
X81820737Y-49558109D01*
X81784397Y-49718061D01*
X81717540Y-49868225D01*
X81622784Y-50002547D01*
X81503745Y-50115908D01*
X81364953Y-50203988D01*
X81211699Y-50263431D01*
X81049819Y-50291975D01*
X80885473Y-50288532D01*
X80724928Y-50253235D01*
X80574294Y-50187424D01*
X80439318Y-50093613D01*
X80325130Y-49975368D01*
X80236083Y-49837194D01*
X80175569Y-49684353D01*
X80145897Y-49522681D01*
X80148191Y-49358316D01*
X80182369Y-49197526D01*
X80247123Y-49046440D01*
X80339994Y-48910807D01*
X80457437Y-48795798D01*
X80594986Y-48705788D01*
X80747397Y-48644210D01*
X80908862Y-48613409D01*
X81073243Y-48614557D01*
X81073243Y-48614557D01*
G37*
G36*
X84873243Y-48614557D02*
X85034258Y-48647609D01*
X85185801Y-48711311D01*
X85322073Y-48803229D01*
X85437906Y-48919872D01*
X85528868Y-49056782D01*
X85591510Y-49208763D01*
X85623368Y-49369656D01*
X85623368Y-49369666D01*
X85623436Y-49370010D01*
X85620815Y-49557763D01*
X85620737Y-49558106D01*
X85620737Y-49558109D01*
X85584397Y-49718061D01*
X85517540Y-49868225D01*
X85422784Y-50002547D01*
X85303745Y-50115908D01*
X85164953Y-50203988D01*
X85011699Y-50263431D01*
X84849819Y-50291975D01*
X84685473Y-50288532D01*
X84524928Y-50253235D01*
X84374294Y-50187424D01*
X84239318Y-50093613D01*
X84125130Y-49975368D01*
X84036083Y-49837194D01*
X83975569Y-49684353D01*
X83945897Y-49522681D01*
X83948191Y-49358316D01*
X83982369Y-49197526D01*
X84047123Y-49046440D01*
X84139994Y-48910807D01*
X84257437Y-48795798D01*
X84394986Y-48705788D01*
X84547397Y-48644210D01*
X84708862Y-48613409D01*
X84873243Y-48614557D01*
X84873243Y-48614557D01*
G37*
G36*
X82973243Y-47344557D02*
X83134258Y-47377609D01*
X83285801Y-47441311D01*
X83422073Y-47533229D01*
X83537906Y-47649872D01*
X83628868Y-47786782D01*
X83691510Y-47938763D01*
X83723368Y-48099656D01*
X83723368Y-48099666D01*
X83723436Y-48100010D01*
X83720815Y-48287763D01*
X83720737Y-48288106D01*
X83720737Y-48288109D01*
X83684397Y-48448061D01*
X83617540Y-48598225D01*
X83522784Y-48732547D01*
X83403745Y-48845908D01*
X83264953Y-48933988D01*
X83111699Y-48993431D01*
X82949819Y-49021975D01*
X82785473Y-49018532D01*
X82624928Y-48983235D01*
X82474294Y-48917424D01*
X82339318Y-48823613D01*
X82225130Y-48705368D01*
X82136083Y-48567194D01*
X82075569Y-48414353D01*
X82045897Y-48252681D01*
X82048191Y-48088316D01*
X82082369Y-47927526D01*
X82147123Y-47776440D01*
X82239994Y-47640807D01*
X82357437Y-47525798D01*
X82494986Y-47435788D01*
X82647397Y-47374210D01*
X82808862Y-47343409D01*
X82973243Y-47344557D01*
X82973243Y-47344557D01*
G37*
G36*
X86773243Y-47294557D02*
X86934258Y-47327609D01*
X87085801Y-47391311D01*
X87222073Y-47483229D01*
X87337906Y-47599872D01*
X87428868Y-47736782D01*
X87491510Y-47888763D01*
X87523368Y-48049656D01*
X87523368Y-48049666D01*
X87523436Y-48050010D01*
X87520815Y-48237763D01*
X87520737Y-48238106D01*
X87520737Y-48238109D01*
X87484397Y-48398061D01*
X87417540Y-48548225D01*
X87322784Y-48682547D01*
X87203745Y-48795908D01*
X87064953Y-48883988D01*
X86911699Y-48943431D01*
X86749819Y-48971975D01*
X86585473Y-48968532D01*
X86424928Y-48933235D01*
X86274294Y-48867424D01*
X86139318Y-48773613D01*
X86025130Y-48655368D01*
X85936083Y-48517194D01*
X85875569Y-48364353D01*
X85845897Y-48202681D01*
X85848191Y-48038316D01*
X85882369Y-47877526D01*
X85947123Y-47726440D01*
X86039994Y-47590807D01*
X86157437Y-47475798D01*
X86294986Y-47385788D01*
X86447397Y-47324210D01*
X86608862Y-47293409D01*
X86773243Y-47294557D01*
X86773243Y-47294557D01*
G37*
G36*
X84873243Y-46074557D02*
X85034258Y-46107609D01*
X85185801Y-46171311D01*
X85322073Y-46263229D01*
X85437906Y-46379872D01*
X85528868Y-46516782D01*
X85591510Y-46668763D01*
X85623368Y-46829656D01*
X85623368Y-46829666D01*
X85623436Y-46830010D01*
X85620815Y-47017763D01*
X85620737Y-47018106D01*
X85620737Y-47018109D01*
X85584397Y-47178061D01*
X85517540Y-47328225D01*
X85422784Y-47462547D01*
X85303745Y-47575908D01*
X85164953Y-47663988D01*
X85011699Y-47723431D01*
X84849819Y-47751975D01*
X84685473Y-47748532D01*
X84524928Y-47713235D01*
X84374294Y-47647424D01*
X84239318Y-47553613D01*
X84125130Y-47435368D01*
X84036083Y-47297194D01*
X83975569Y-47144353D01*
X83945897Y-46982681D01*
X83948191Y-46818316D01*
X83982369Y-46657526D01*
X84047123Y-46506440D01*
X84139994Y-46370807D01*
X84257437Y-46255798D01*
X84394986Y-46165788D01*
X84547397Y-46104210D01*
X84708862Y-46073409D01*
X84873243Y-46074557D01*
X84873243Y-46074557D01*
G37*
G36*
X81073243Y-46074557D02*
X81234258Y-46107609D01*
X81385801Y-46171311D01*
X81522073Y-46263229D01*
X81637906Y-46379872D01*
X81728868Y-46516782D01*
X81791510Y-46668763D01*
X81823368Y-46829656D01*
X81823368Y-46829666D01*
X81823436Y-46830010D01*
X81820815Y-47017763D01*
X81820737Y-47018106D01*
X81820737Y-47018109D01*
X81784397Y-47178061D01*
X81717540Y-47328225D01*
X81622784Y-47462547D01*
X81503745Y-47575908D01*
X81364953Y-47663988D01*
X81211699Y-47723431D01*
X81049819Y-47751975D01*
X80885473Y-47748532D01*
X80724928Y-47713235D01*
X80574294Y-47647424D01*
X80439318Y-47553613D01*
X80325130Y-47435368D01*
X80236083Y-47297194D01*
X80175569Y-47144353D01*
X80145897Y-46982681D01*
X80148191Y-46818316D01*
X80182369Y-46657526D01*
X80247123Y-46506440D01*
X80339994Y-46370807D01*
X80457437Y-46255798D01*
X80594986Y-46165788D01*
X80747397Y-46104210D01*
X80908862Y-46073409D01*
X81073243Y-46074557D01*
X81073243Y-46074557D01*
G37*
G36*
X57538310Y-41183047D02*
X58129255Y-41304351D01*
X58685398Y-41538132D01*
X59185534Y-41875478D01*
X59610621Y-42303543D01*
X59944466Y-42806021D01*
X60174356Y-43363776D01*
X60291464Y-43955214D01*
X60291464Y-43955224D01*
X60291531Y-43955563D01*
X60281910Y-44644616D01*
X60281833Y-44644954D01*
X60281833Y-44644962D01*
X60148257Y-45232901D01*
X59902885Y-45784016D01*
X59555137Y-46276978D01*
X59118262Y-46693009D01*
X58608900Y-47016261D01*
X58046454Y-47234419D01*
X57452347Y-47339176D01*
X56849203Y-47326542D01*
X56260000Y-47196997D01*
X55707182Y-46955477D01*
X55211807Y-46611182D01*
X54792737Y-46177223D01*
X54465938Y-45670130D01*
X54243856Y-45109214D01*
X54134955Y-44515858D01*
X54143377Y-43912641D01*
X54268806Y-43322547D01*
X54506459Y-42768058D01*
X54847291Y-42270288D01*
X55278312Y-41848200D01*
X55783113Y-41517868D01*
X56342459Y-41291877D01*
X56935045Y-41178836D01*
X57538310Y-41183047D01*
X57538310Y-41183047D01*
G37*
G36*
X97537310Y-41183047D02*
X98128255Y-41304351D01*
X98684398Y-41538132D01*
X99184534Y-41875478D01*
X99609621Y-42303543D01*
X99943466Y-42806021D01*
X100173356Y-43363776D01*
X100290464Y-43955214D01*
X100290464Y-43955224D01*
X100290531Y-43955563D01*
X100280910Y-44644616D01*
X100280833Y-44644954D01*
X100280833Y-44644962D01*
X100147257Y-45232901D01*
X99901885Y-45784016D01*
X99554137Y-46276978D01*
X99117262Y-46693009D01*
X98607900Y-47016261D01*
X98045454Y-47234419D01*
X97451347Y-47339176D01*
X96848203Y-47326542D01*
X96259000Y-47196997D01*
X95706182Y-46955477D01*
X95210807Y-46611182D01*
X94791737Y-46177223D01*
X94464938Y-45670130D01*
X94242856Y-45109214D01*
X94133955Y-44515858D01*
X94142377Y-43912641D01*
X94267806Y-43322547D01*
X94505459Y-42768058D01*
X94846291Y-42270288D01*
X95277312Y-41848200D01*
X95782113Y-41517868D01*
X96341459Y-41291877D01*
X96934045Y-41178836D01*
X97537310Y-41183047D01*
X97537310Y-41183047D01*
G37*
G36*
X82973243Y-44804557D02*
X83134258Y-44837609D01*
X83285801Y-44901311D01*
X83422073Y-44993229D01*
X83537906Y-45109872D01*
X83628868Y-45246782D01*
X83691510Y-45398763D01*
X83723368Y-45559656D01*
X83723368Y-45559666D01*
X83723436Y-45560010D01*
X83720815Y-45747763D01*
X83720737Y-45748106D01*
X83720737Y-45748109D01*
X83684397Y-45908061D01*
X83617540Y-46058225D01*
X83522784Y-46192547D01*
X83403745Y-46305908D01*
X83264953Y-46393988D01*
X83111699Y-46453431D01*
X82949819Y-46481975D01*
X82785473Y-46478532D01*
X82624928Y-46443235D01*
X82474294Y-46377424D01*
X82339318Y-46283613D01*
X82225130Y-46165368D01*
X82136083Y-46027194D01*
X82075569Y-45874353D01*
X82045897Y-45712681D01*
X82048191Y-45548316D01*
X82082369Y-45387526D01*
X82147123Y-45236440D01*
X82239994Y-45100807D01*
X82357437Y-44985798D01*
X82494986Y-44895788D01*
X82647397Y-44834210D01*
X82808862Y-44803409D01*
X82973243Y-44804557D01*
X82973243Y-44804557D01*
G37*
G36*
X86773243Y-44754557D02*
X86934258Y-44787609D01*
X87085801Y-44851311D01*
X87222073Y-44943229D01*
X87337906Y-45059872D01*
X87428868Y-45196782D01*
X87491510Y-45348763D01*
X87523368Y-45509656D01*
X87523368Y-45509666D01*
X87523436Y-45510010D01*
X87520815Y-45697763D01*
X87520737Y-45698106D01*
X87520737Y-45698109D01*
X87484397Y-45858061D01*
X87417540Y-46008225D01*
X87322784Y-46142547D01*
X87203745Y-46255908D01*
X87064953Y-46343988D01*
X86911699Y-46403431D01*
X86749819Y-46431975D01*
X86585473Y-46428532D01*
X86424928Y-46393235D01*
X86274294Y-46327424D01*
X86139318Y-46233613D01*
X86025130Y-46115368D01*
X85936083Y-45977194D01*
X85875569Y-45824353D01*
X85845897Y-45662681D01*
X85848191Y-45498316D01*
X85882369Y-45337526D01*
X85947123Y-45186440D01*
X86039994Y-45050807D01*
X86157437Y-44935798D01*
X86294986Y-44845788D01*
X86447397Y-44784210D01*
X86608862Y-44753409D01*
X86773243Y-44754557D01*
X86773243Y-44754557D01*
G37*
G36*
X81073243Y-43534557D02*
X81234258Y-43567609D01*
X81385801Y-43631311D01*
X81522073Y-43723229D01*
X81637906Y-43839872D01*
X81728868Y-43976782D01*
X81791510Y-44128763D01*
X81823368Y-44289656D01*
X81823368Y-44289666D01*
X81823436Y-44290010D01*
X81820815Y-44477763D01*
X81820737Y-44478106D01*
X81820737Y-44478109D01*
X81784397Y-44638061D01*
X81717540Y-44788225D01*
X81622784Y-44922547D01*
X81503745Y-45035908D01*
X81364953Y-45123988D01*
X81211699Y-45183431D01*
X81049819Y-45211975D01*
X80885473Y-45208532D01*
X80724928Y-45173235D01*
X80574294Y-45107424D01*
X80439318Y-45013613D01*
X80325130Y-44895368D01*
X80236083Y-44757194D01*
X80175569Y-44604353D01*
X80145897Y-44442681D01*
X80148191Y-44278316D01*
X80182369Y-44117526D01*
X80247123Y-43966440D01*
X80339994Y-43830807D01*
X80457437Y-43715798D01*
X80594986Y-43625788D01*
X80747397Y-43564210D01*
X80908862Y-43533409D01*
X81073243Y-43534557D01*
X81073243Y-43534557D01*
G37*
G36*
X84873243Y-43534557D02*
X85034258Y-43567609D01*
X85185801Y-43631311D01*
X85322073Y-43723229D01*
X85437906Y-43839872D01*
X85528868Y-43976782D01*
X85591510Y-44128763D01*
X85623368Y-44289656D01*
X85623368Y-44289666D01*
X85623436Y-44290010D01*
X85620815Y-44477763D01*
X85620737Y-44478106D01*
X85620737Y-44478109D01*
X85584397Y-44638061D01*
X85517540Y-44788225D01*
X85422784Y-44922547D01*
X85303745Y-45035908D01*
X85164953Y-45123988D01*
X85011699Y-45183431D01*
X84849819Y-45211975D01*
X84685473Y-45208532D01*
X84524928Y-45173235D01*
X84374294Y-45107424D01*
X84239318Y-45013613D01*
X84125130Y-44895368D01*
X84036083Y-44757194D01*
X83975569Y-44604353D01*
X83945897Y-44442681D01*
X83948191Y-44278316D01*
X83982369Y-44117526D01*
X84047123Y-43966440D01*
X84139994Y-43830807D01*
X84257437Y-43715798D01*
X84394986Y-43625788D01*
X84547397Y-43564210D01*
X84708862Y-43533409D01*
X84873243Y-43534557D01*
X84873243Y-43534557D01*
G37*
G36*
X82973243Y-42264557D02*
X83134258Y-42297609D01*
X83285801Y-42361311D01*
X83422073Y-42453229D01*
X83537906Y-42569872D01*
X83628868Y-42706782D01*
X83691510Y-42858763D01*
X83723368Y-43019656D01*
X83723368Y-43019666D01*
X83723436Y-43020010D01*
X83720815Y-43207763D01*
X83720737Y-43208106D01*
X83720737Y-43208109D01*
X83684397Y-43368061D01*
X83617540Y-43518225D01*
X83522784Y-43652547D01*
X83403745Y-43765908D01*
X83264953Y-43853988D01*
X83111699Y-43913431D01*
X82949819Y-43941975D01*
X82785473Y-43938532D01*
X82624928Y-43903235D01*
X82474294Y-43837424D01*
X82339318Y-43743613D01*
X82225130Y-43625368D01*
X82136083Y-43487194D01*
X82075569Y-43334353D01*
X82045897Y-43172681D01*
X82048191Y-43008316D01*
X82082369Y-42847526D01*
X82147123Y-42696440D01*
X82239994Y-42560807D01*
X82357437Y-42445798D01*
X82494986Y-42355788D01*
X82647397Y-42294210D01*
X82808862Y-42263409D01*
X82973243Y-42264557D01*
X82973243Y-42264557D01*
G37*
G36*
X86773243Y-42214557D02*
X86934258Y-42247609D01*
X87085801Y-42311311D01*
X87222073Y-42403229D01*
X87337906Y-42519872D01*
X87428868Y-42656782D01*
X87491510Y-42808763D01*
X87523368Y-42969656D01*
X87523368Y-42969666D01*
X87523436Y-42970010D01*
X87520815Y-43157763D01*
X87520737Y-43158106D01*
X87520737Y-43158109D01*
X87484397Y-43318061D01*
X87417540Y-43468225D01*
X87322784Y-43602547D01*
X87203745Y-43715908D01*
X87064953Y-43803988D01*
X86911699Y-43863431D01*
X86749819Y-43891975D01*
X86585473Y-43888532D01*
X86424928Y-43853235D01*
X86274294Y-43787424D01*
X86139318Y-43693613D01*
X86025130Y-43575368D01*
X85936083Y-43437194D01*
X85875569Y-43284353D01*
X85845897Y-43122681D01*
X85848191Y-42958316D01*
X85882369Y-42797526D01*
X85947123Y-42646440D01*
X86039994Y-42510807D01*
X86157437Y-42395798D01*
X86294986Y-42305788D01*
X86447397Y-42244210D01*
X86608862Y-42213409D01*
X86773243Y-42214557D01*
X86773243Y-42214557D01*
G37*
G36*
X81073243Y-40994557D02*
X81234258Y-41027609D01*
X81385801Y-41091311D01*
X81522073Y-41183229D01*
X81637906Y-41299872D01*
X81728868Y-41436782D01*
X81791510Y-41588763D01*
X81823368Y-41749656D01*
X81823368Y-41749666D01*
X81823436Y-41750010D01*
X81820815Y-41937763D01*
X81820737Y-41938106D01*
X81820737Y-41938109D01*
X81784397Y-42098061D01*
X81717540Y-42248225D01*
X81622784Y-42382547D01*
X81503745Y-42495908D01*
X81364953Y-42583988D01*
X81211699Y-42643431D01*
X81049819Y-42671975D01*
X80885473Y-42668532D01*
X80724928Y-42633235D01*
X80574294Y-42567424D01*
X80439318Y-42473613D01*
X80325130Y-42355368D01*
X80236083Y-42217194D01*
X80175569Y-42064353D01*
X80145897Y-41902681D01*
X80148191Y-41738316D01*
X80182369Y-41577526D01*
X80247123Y-41426440D01*
X80339994Y-41290807D01*
X80457437Y-41175798D01*
X80594986Y-41085788D01*
X80747397Y-41024210D01*
X80908862Y-40993409D01*
X81073243Y-40994557D01*
X81073243Y-40994557D01*
G37*
G36*
X84873243Y-40994557D02*
X85034258Y-41027609D01*
X85185801Y-41091311D01*
X85322073Y-41183229D01*
X85437906Y-41299872D01*
X85528868Y-41436782D01*
X85591510Y-41588763D01*
X85623368Y-41749656D01*
X85623368Y-41749666D01*
X85623436Y-41750010D01*
X85620815Y-41937763D01*
X85620737Y-41938106D01*
X85620737Y-41938109D01*
X85584397Y-42098061D01*
X85517540Y-42248225D01*
X85422784Y-42382547D01*
X85303745Y-42495908D01*
X85164953Y-42583988D01*
X85011699Y-42643431D01*
X84849819Y-42671975D01*
X84685473Y-42668532D01*
X84524928Y-42633235D01*
X84374294Y-42567424D01*
X84239318Y-42473613D01*
X84125130Y-42355368D01*
X84036083Y-42217194D01*
X83975569Y-42064353D01*
X83945897Y-41902681D01*
X83948191Y-41738316D01*
X83982369Y-41577526D01*
X84047123Y-41426440D01*
X84139994Y-41290807D01*
X84257437Y-41175798D01*
X84394986Y-41085788D01*
X84547397Y-41024210D01*
X84708862Y-40993409D01*
X84873243Y-40994557D01*
X84873243Y-40994557D01*
G37*
G36*
X82973243Y-39724557D02*
X83134258Y-39757609D01*
X83285801Y-39821311D01*
X83422073Y-39913229D01*
X83537906Y-40029872D01*
X83628868Y-40166782D01*
X83691510Y-40318763D01*
X83723368Y-40479656D01*
X83723368Y-40479666D01*
X83723436Y-40480010D01*
X83720815Y-40667763D01*
X83720737Y-40668106D01*
X83720737Y-40668109D01*
X83684397Y-40828061D01*
X83617540Y-40978225D01*
X83522784Y-41112547D01*
X83403745Y-41225908D01*
X83264953Y-41313988D01*
X83111699Y-41373431D01*
X82949819Y-41401975D01*
X82785473Y-41398532D01*
X82624928Y-41363235D01*
X82474294Y-41297424D01*
X82339318Y-41203613D01*
X82225130Y-41085368D01*
X82136083Y-40947194D01*
X82075569Y-40794353D01*
X82045897Y-40632681D01*
X82048191Y-40468316D01*
X82082369Y-40307526D01*
X82147123Y-40156440D01*
X82239994Y-40020807D01*
X82357437Y-39905798D01*
X82494986Y-39815788D01*
X82647397Y-39754210D01*
X82808862Y-39723409D01*
X82973243Y-39724557D01*
X82973243Y-39724557D01*
G37*
G36*
X86773243Y-39674557D02*
X86934258Y-39707609D01*
X87085801Y-39771311D01*
X87222073Y-39863229D01*
X87337906Y-39979872D01*
X87428868Y-40116782D01*
X87491510Y-40268763D01*
X87523368Y-40429656D01*
X87523368Y-40429666D01*
X87523436Y-40430010D01*
X87520815Y-40617763D01*
X87520737Y-40618106D01*
X87520737Y-40618109D01*
X87484397Y-40778061D01*
X87417540Y-40928225D01*
X87322784Y-41062547D01*
X87203745Y-41175908D01*
X87064953Y-41263988D01*
X86911699Y-41323431D01*
X86749819Y-41351975D01*
X86585473Y-41348532D01*
X86424928Y-41313235D01*
X86274294Y-41247424D01*
X86139318Y-41153613D01*
X86025130Y-41035368D01*
X85936083Y-40897194D01*
X85875569Y-40744353D01*
X85845897Y-40582681D01*
X85848191Y-40418316D01*
X85882369Y-40257526D01*
X85947123Y-40106440D01*
X86039994Y-39970807D01*
X86157437Y-39855798D01*
X86294986Y-39765788D01*
X86447397Y-39704210D01*
X86608862Y-39673409D01*
X86773243Y-39674557D01*
X86773243Y-39674557D01*
G37*
G36*
X84873243Y-38454557D02*
X85034258Y-38487609D01*
X85185801Y-38551311D01*
X85322073Y-38643229D01*
X85437906Y-38759872D01*
X85528868Y-38896782D01*
X85591510Y-39048763D01*
X85623368Y-39209656D01*
X85623368Y-39209666D01*
X85623436Y-39210010D01*
X85620815Y-39397763D01*
X85620737Y-39398106D01*
X85620737Y-39398109D01*
X85584397Y-39558061D01*
X85517540Y-39708225D01*
X85422784Y-39842547D01*
X85303745Y-39955908D01*
X85164953Y-40043988D01*
X85011699Y-40103431D01*
X84849819Y-40131975D01*
X84685473Y-40128532D01*
X84524928Y-40093235D01*
X84374294Y-40027424D01*
X84239318Y-39933613D01*
X84125130Y-39815368D01*
X84036083Y-39677194D01*
X83975569Y-39524353D01*
X83945897Y-39362681D01*
X83948191Y-39198316D01*
X83982369Y-39037526D01*
X84047123Y-38886440D01*
X84139994Y-38750807D01*
X84257437Y-38635798D01*
X84394986Y-38545788D01*
X84547397Y-38484210D01*
X84708862Y-38453409D01*
X84873243Y-38454557D01*
X84873243Y-38454557D01*
G37*
G36*
X81073243Y-38454557D02*
X81234258Y-38487609D01*
X81385801Y-38551311D01*
X81522073Y-38643229D01*
X81637906Y-38759872D01*
X81728868Y-38896782D01*
X81791510Y-39048763D01*
X81823368Y-39209656D01*
X81823368Y-39209666D01*
X81823436Y-39210010D01*
X81820815Y-39397763D01*
X81820737Y-39398106D01*
X81820737Y-39398109D01*
X81784397Y-39558061D01*
X81717540Y-39708225D01*
X81622784Y-39842547D01*
X81503745Y-39955908D01*
X81364953Y-40043988D01*
X81211699Y-40103431D01*
X81049819Y-40131975D01*
X80885473Y-40128532D01*
X80724928Y-40093235D01*
X80574294Y-40027424D01*
X80439318Y-39933613D01*
X80325130Y-39815368D01*
X80236083Y-39677194D01*
X80175569Y-39524353D01*
X80145897Y-39362681D01*
X80148191Y-39198316D01*
X80182369Y-39037526D01*
X80247123Y-38886440D01*
X80339994Y-38750807D01*
X80457437Y-38635798D01*
X80594986Y-38545788D01*
X80747397Y-38484210D01*
X80908862Y-38453409D01*
X81073243Y-38454557D01*
X81073243Y-38454557D01*
G37*
G36*
X57538310Y-33183047D02*
X58129255Y-33304351D01*
X58685398Y-33538132D01*
X59185534Y-33875478D01*
X59610621Y-34303543D01*
X59944466Y-34806021D01*
X60174356Y-35363776D01*
X60291464Y-35955214D01*
X60291464Y-35955224D01*
X60291531Y-35955563D01*
X60281910Y-36644616D01*
X60281833Y-36644954D01*
X60281833Y-36644962D01*
X60148257Y-37232901D01*
X59902885Y-37784016D01*
X59555137Y-38276978D01*
X59118262Y-38693009D01*
X58608900Y-39016261D01*
X58046454Y-39234419D01*
X57452347Y-39339176D01*
X56849203Y-39326542D01*
X56260000Y-39196997D01*
X55707182Y-38955477D01*
X55211807Y-38611182D01*
X54792737Y-38177223D01*
X54465938Y-37670130D01*
X54243856Y-37109214D01*
X54134955Y-36515858D01*
X54143377Y-35912641D01*
X54268806Y-35322547D01*
X54506459Y-34768058D01*
X54847291Y-34270288D01*
X55278312Y-33848200D01*
X55783113Y-33517868D01*
X56342459Y-33291877D01*
X56935045Y-33178836D01*
X57538310Y-33183047D01*
X57538310Y-33183047D01*
G37*
G36*
X97537310Y-33183047D02*
X98128255Y-33304351D01*
X98684398Y-33538132D01*
X99184534Y-33875478D01*
X99609621Y-34303543D01*
X99943466Y-34806021D01*
X100173356Y-35363776D01*
X100290464Y-35955214D01*
X100290464Y-35955224D01*
X100290531Y-35955563D01*
X100280910Y-36644616D01*
X100280833Y-36644954D01*
X100280833Y-36644962D01*
X100147257Y-37232901D01*
X99901885Y-37784016D01*
X99554137Y-38276978D01*
X99117262Y-38693009D01*
X98607900Y-39016261D01*
X98045454Y-39234419D01*
X97451347Y-39339176D01*
X96848203Y-39326542D01*
X96259000Y-39196997D01*
X95706182Y-38955477D01*
X95210807Y-38611182D01*
X94791737Y-38177223D01*
X94464938Y-37670130D01*
X94242856Y-37109214D01*
X94133955Y-36515858D01*
X94142377Y-35912641D01*
X94267806Y-35322547D01*
X94505459Y-34768058D01*
X94846291Y-34270288D01*
X95277312Y-33848200D01*
X95782113Y-33517868D01*
X96341459Y-33291877D01*
X96934045Y-33178836D01*
X97537310Y-33183047D01*
X97537310Y-33183047D01*
G37*
G36*
X82973243Y-37184557D02*
X83134258Y-37217609D01*
X83285801Y-37281311D01*
X83422073Y-37373229D01*
X83537906Y-37489872D01*
X83628868Y-37626782D01*
X83691510Y-37778763D01*
X83723368Y-37939656D01*
X83723368Y-37939666D01*
X83723436Y-37940010D01*
X83720815Y-38127763D01*
X83720737Y-38128106D01*
X83720737Y-38128109D01*
X83684397Y-38288061D01*
X83617540Y-38438225D01*
X83522784Y-38572547D01*
X83403745Y-38685908D01*
X83264953Y-38773988D01*
X83111699Y-38833431D01*
X82949819Y-38861975D01*
X82785473Y-38858532D01*
X82624928Y-38823235D01*
X82474294Y-38757424D01*
X82339318Y-38663613D01*
X82225130Y-38545368D01*
X82136083Y-38407194D01*
X82075569Y-38254353D01*
X82045897Y-38092681D01*
X82048191Y-37928316D01*
X82082369Y-37767526D01*
X82147123Y-37616440D01*
X82239994Y-37480807D01*
X82357437Y-37365798D01*
X82494986Y-37275788D01*
X82647397Y-37214210D01*
X82808862Y-37183409D01*
X82973243Y-37184557D01*
X82973243Y-37184557D01*
G37*
G36*
X86773243Y-37134557D02*
X86934258Y-37167609D01*
X87085801Y-37231311D01*
X87222073Y-37323229D01*
X87337906Y-37439872D01*
X87428868Y-37576782D01*
X87491510Y-37728763D01*
X87523368Y-37889656D01*
X87523368Y-37889666D01*
X87523436Y-37890010D01*
X87520815Y-38077763D01*
X87520737Y-38078106D01*
X87520737Y-38078109D01*
X87484397Y-38238061D01*
X87417540Y-38388225D01*
X87322784Y-38522547D01*
X87203745Y-38635908D01*
X87064953Y-38723988D01*
X86911699Y-38783431D01*
X86749819Y-38811975D01*
X86585473Y-38808532D01*
X86424928Y-38773235D01*
X86274294Y-38707424D01*
X86139318Y-38613613D01*
X86025130Y-38495368D01*
X85936083Y-38357194D01*
X85875569Y-38204353D01*
X85845897Y-38042681D01*
X85848191Y-37878316D01*
X85882369Y-37717526D01*
X85947123Y-37566440D01*
X86039994Y-37430807D01*
X86157437Y-37315798D01*
X86294986Y-37225788D01*
X86447397Y-37164210D01*
X86608862Y-37133409D01*
X86773243Y-37134557D01*
X86773243Y-37134557D01*
G37*
G36*
X73538310Y-25183047D02*
X74129255Y-25304351D01*
X74685398Y-25538132D01*
X75185534Y-25875478D01*
X75610621Y-26303543D01*
X75944466Y-26806021D01*
X76174356Y-27363776D01*
X76291464Y-27955214D01*
X76291464Y-27955224D01*
X76291531Y-27955563D01*
X76281910Y-28644616D01*
X76281833Y-28644954D01*
X76281833Y-28644962D01*
X76148257Y-29232901D01*
X75902885Y-29784016D01*
X75555137Y-30276978D01*
X75118262Y-30693009D01*
X74608900Y-31016261D01*
X74046454Y-31234419D01*
X73452347Y-31339176D01*
X72849203Y-31326542D01*
X72260000Y-31196997D01*
X71707182Y-30955477D01*
X71211807Y-30611182D01*
X70792737Y-30177223D01*
X70465938Y-29670130D01*
X70243856Y-29109214D01*
X70134955Y-28515858D01*
X70143377Y-27912641D01*
X70268806Y-27322547D01*
X70506459Y-26768058D01*
X70847291Y-26270288D01*
X71278312Y-25848200D01*
X71783113Y-25517868D01*
X72342459Y-25291877D01*
X72935045Y-25178836D01*
X73538310Y-25183047D01*
X73538310Y-25183047D01*
G37*
G36*
X97537310Y-25183047D02*
X98128255Y-25304351D01*
X98684398Y-25538132D01*
X99184534Y-25875478D01*
X99609621Y-26303543D01*
X99943466Y-26806021D01*
X100173356Y-27363776D01*
X100290464Y-27955214D01*
X100290464Y-27955224D01*
X100290531Y-27955563D01*
X100280910Y-28644616D01*
X100280833Y-28644954D01*
X100280833Y-28644962D01*
X100147257Y-29232901D01*
X99901885Y-29784016D01*
X99554137Y-30276978D01*
X99117262Y-30693009D01*
X98607900Y-31016261D01*
X98045454Y-31234419D01*
X97451347Y-31339176D01*
X96848203Y-31326542D01*
X96259000Y-31196997D01*
X95706182Y-30955477D01*
X95210807Y-30611182D01*
X94791737Y-30177223D01*
X94464938Y-29670130D01*
X94242856Y-29109214D01*
X94133955Y-28515858D01*
X94142377Y-27912641D01*
X94267806Y-27322547D01*
X94505459Y-26768058D01*
X94846291Y-26270288D01*
X95277312Y-25848200D01*
X95782113Y-25517868D01*
X96341459Y-25291877D01*
X96934045Y-25178836D01*
X97537310Y-25183047D01*
X97537310Y-25183047D01*
G37*
G36*
X89538310Y-25183047D02*
X90129255Y-25304351D01*
X90685398Y-25538132D01*
X91185534Y-25875478D01*
X91610621Y-26303543D01*
X91944466Y-26806021D01*
X92174356Y-27363776D01*
X92291464Y-27955214D01*
X92291464Y-27955224D01*
X92291531Y-27955563D01*
X92281910Y-28644616D01*
X92281833Y-28644954D01*
X92281833Y-28644962D01*
X92148257Y-29232901D01*
X91902885Y-29784016D01*
X91555137Y-30276978D01*
X91118262Y-30693009D01*
X90608900Y-31016261D01*
X90046454Y-31234419D01*
X89452347Y-31339176D01*
X88849203Y-31326542D01*
X88260000Y-31196997D01*
X87707182Y-30955477D01*
X87211807Y-30611182D01*
X86792737Y-30177223D01*
X86465938Y-29670130D01*
X86243856Y-29109214D01*
X86134955Y-28515858D01*
X86143377Y-27912641D01*
X86268806Y-27322547D01*
X86506459Y-26768058D01*
X86847291Y-26270288D01*
X87278312Y-25848200D01*
X87783113Y-25517868D01*
X88342459Y-25291877D01*
X88935045Y-25178836D01*
X89538310Y-25183047D01*
X89538310Y-25183047D01*
G37*
G36*
X57538310Y-25183047D02*
X58129255Y-25304351D01*
X58685398Y-25538132D01*
X59185534Y-25875478D01*
X59610621Y-26303543D01*
X59944466Y-26806021D01*
X60174356Y-27363776D01*
X60291464Y-27955214D01*
X60291464Y-27955224D01*
X60291531Y-27955563D01*
X60281910Y-28644616D01*
X60281833Y-28644954D01*
X60281833Y-28644962D01*
X60148257Y-29232901D01*
X59902885Y-29784016D01*
X59555137Y-30276978D01*
X59118262Y-30693009D01*
X58608900Y-31016261D01*
X58046454Y-31234419D01*
X57452347Y-31339176D01*
X56849203Y-31326542D01*
X56260000Y-31196997D01*
X55707182Y-30955477D01*
X55211807Y-30611182D01*
X54792737Y-30177223D01*
X54465938Y-29670130D01*
X54243856Y-29109214D01*
X54134955Y-28515858D01*
X54143377Y-27912641D01*
X54268806Y-27322547D01*
X54506459Y-26768058D01*
X54847291Y-26270288D01*
X55278312Y-25848200D01*
X55783113Y-25517868D01*
X56342459Y-25291877D01*
X56935045Y-25178836D01*
X57538310Y-25183047D01*
X57538310Y-25183047D01*
G37*
G36*
X65538310Y-25183047D02*
X66129255Y-25304351D01*
X66685398Y-25538132D01*
X67185534Y-25875478D01*
X67610621Y-26303543D01*
X67944466Y-26806021D01*
X68174356Y-27363776D01*
X68291464Y-27955214D01*
X68291464Y-27955224D01*
X68291531Y-27955563D01*
X68281910Y-28644616D01*
X68281833Y-28644954D01*
X68281833Y-28644962D01*
X68148257Y-29232901D01*
X67902885Y-29784016D01*
X67555137Y-30276978D01*
X67118262Y-30693009D01*
X66608900Y-31016261D01*
X66046454Y-31234419D01*
X65452347Y-31339176D01*
X64849203Y-31326542D01*
X64260000Y-31196997D01*
X63707182Y-30955477D01*
X63211807Y-30611182D01*
X62792737Y-30177223D01*
X62465938Y-29670130D01*
X62243856Y-29109214D01*
X62134955Y-28515858D01*
X62143377Y-27912641D01*
X62268806Y-27322547D01*
X62506459Y-26768058D01*
X62847291Y-26270288D01*
X63278312Y-25848200D01*
X63783113Y-25517868D01*
X64342459Y-25291877D01*
X64935045Y-25178836D01*
X65538310Y-25183047D01*
X65538310Y-25183047D01*
G37*
G36*
X81538310Y-25183047D02*
X82129255Y-25304351D01*
X82685398Y-25538132D01*
X83185534Y-25875478D01*
X83610621Y-26303543D01*
X83944466Y-26806021D01*
X84174356Y-27363776D01*
X84291464Y-27955214D01*
X84291464Y-27955224D01*
X84291531Y-27955563D01*
X84281910Y-28644616D01*
X84281833Y-28644954D01*
X84281833Y-28644962D01*
X84148257Y-29232901D01*
X83902885Y-29784016D01*
X83555137Y-30276978D01*
X83118262Y-30693009D01*
X82608900Y-31016261D01*
X82046454Y-31234419D01*
X81452347Y-31339176D01*
X80849203Y-31326542D01*
X80260000Y-31196997D01*
X79707182Y-30955477D01*
X79211807Y-30611182D01*
X78792737Y-30177223D01*
X78465938Y-29670130D01*
X78243856Y-29109214D01*
X78134955Y-28515858D01*
X78143377Y-27912641D01*
X78268806Y-27322547D01*
X78506459Y-26768058D01*
X78847291Y-26270288D01*
X79278312Y-25848200D01*
X79783113Y-25517868D01*
X80342459Y-25291877D01*
X80935045Y-25178836D01*
X81538310Y-25183047D01*
X81538310Y-25183047D01*
G37*
M02*
