M48
;DRILL file {KiCad 4.0.7-e2-6376~58~ubuntu16.04.1} date Fri Feb  9 09:37:37 2018
;FORMAT={-:-/ absolute / metric / decimal}
FMAT,2
METRIC,TZ
T1C0.330
T2C1.016
T3C4.980
%
G90
G05
M71
T1
X78.842Y-89.764
X79.553Y-63.779
X82.855Y-90.348
X88.035Y-73.688
X88.417Y-36.399
X88.417Y-48.132
T2
X80.985Y-39.292
X80.985Y-41.832
X80.985Y-44.372
X80.985Y-46.912
X80.985Y-49.452
X80.985Y-51.992
X80.985Y-54.532
X80.985Y-57.072
X80.985Y-59.612
X80.985Y-62.152
X80.985Y-64.692
X80.985Y-67.232
X80.985Y-69.772
X80.985Y-72.312
X80.985Y-74.852
X80.985Y-77.392
X80.985Y-79.932
X80.985Y-82.472
X80.985Y-85.012
X80.985Y-87.552
X82.885Y-38.022
X82.885Y-40.562
X82.885Y-43.102
X82.885Y-45.642
X82.885Y-48.182
X82.885Y-50.722
X82.885Y-53.262
X82.885Y-55.802
X82.885Y-58.342
X82.885Y-60.882
X82.885Y-63.422
X82.885Y-65.962
X82.885Y-68.502
X82.885Y-71.042
X82.885Y-73.582
X82.885Y-76.122
X82.885Y-78.662
X82.885Y-81.202
X82.885Y-83.742
X82.885Y-86.282
X84.785Y-39.292
X84.785Y-41.832
X84.785Y-44.372
X84.785Y-46.912
X84.785Y-49.452
X84.785Y-51.992
X84.785Y-54.532
X84.785Y-57.072
X84.785Y-59.612
X84.785Y-62.152
X84.785Y-64.692
X84.785Y-67.232
X84.785Y-69.772
X84.785Y-72.312
X84.785Y-74.852
X84.785Y-77.392
X84.785Y-79.932
X84.785Y-82.472
X84.785Y-85.012
X84.785Y-87.552
X86.685Y-37.972
X86.685Y-40.512
X86.685Y-43.052
X86.685Y-45.592
X86.685Y-48.132
X86.685Y-50.672
X86.685Y-53.212
X86.685Y-55.752
X86.685Y-58.292
X86.685Y-60.832
X86.685Y-63.372
X86.685Y-65.912
X86.685Y-68.452
X86.685Y-70.992
X86.685Y-73.532
X86.685Y-76.072
X86.685Y-78.612
X86.685Y-81.152
X86.685Y-83.692
X86.685Y-86.232
T3
X57.215Y-28.257
X57.215Y-36.257
X57.215Y-44.257
X57.215Y-52.257
X57.215Y-60.257
X57.215Y-68.257
X57.215Y-76.257
X57.215Y-84.257
X57.215Y-92.257
X57.215Y-100.257
X57.215Y-108.257
X65.215Y-28.257
X65.215Y-108.257
X73.215Y-28.257
X73.215Y-108.257
X81.215Y-28.257
X81.215Y-108.257
X89.215Y-28.257
X89.215Y-108.257
X97.214Y-28.257
X97.214Y-36.257
X97.214Y-44.257
X97.214Y-52.257
X97.214Y-60.257
X97.214Y-76.257
X97.214Y-108.257
X97.215Y-68.257
X97.215Y-84.257
X97.215Y-92.257
X97.215Y-100.257
T0
M30
