%TF.GenerationSoftware,KiCad,Pcbnew,4.0.5-e0-6337~49~ubuntu16.04.1*%
%TF.CreationDate,2017-05-28T07:13:41-07:00*%
%TF.ProjectId,3x4-555-Timer-8SOIC-Breakout,3378342D3535352D54696D65722D3853,v1.1*%
%TF.FileFunction,Copper,L2,Bot,Signal*%
%FSLAX46Y46*%
G04 Gerber Fmt 4.6, Leading zero omitted, Abs format (unit mm)*
G04 Created by KiCad (PCBNEW 4.0.5-e0-6337~49~ubuntu16.04.1) date Sun May 28 07:13:41 2017*
%MOMM*%
%LPD*%
G01*
G04 APERTURE LIST*
%ADD10C,0.350000*%
%ADD11C,7.000000*%
%ADD12C,7.000000*%
%ADD13C,0.685800*%
%ADD14C,0.254000*%
%ADD15C,0.330200*%
%ADD16C,0.350000*%
G04 APERTURE END LIST*
D10*
D11*
X18531300Y-88709500D02*
X26531300Y-88709500D01*
X26608500Y-64630300D02*
X34608500Y-64630300D01*
D12*
X18531300Y-88709500D03*
X18531300Y-72709500D03*
X18531300Y-80709500D03*
X26531300Y-88709500D03*
X18531300Y-64709500D03*
X34531300Y-72709500D03*
X34531300Y-88709500D03*
X34531300Y-80709500D03*
X34531300Y-64709500D03*
X26531300Y-64709500D03*
D13*
X23136211Y-79880467D03*
X27495500Y-77660500D03*
X25149672Y-76645691D03*
X27814634Y-75516992D03*
X26098500Y-75819000D03*
D14*
X23479110Y-79537568D02*
X23136211Y-79880467D01*
X23479110Y-79517890D02*
X23479110Y-79537568D01*
X26756107Y-76240893D02*
X23479110Y-79517890D01*
X30999907Y-76240893D02*
X26756107Y-76240893D01*
X34531300Y-72709500D02*
X30999907Y-76240893D01*
X27495500Y-77660500D02*
X31482300Y-77660500D01*
X31482300Y-77660500D02*
X34531300Y-80709500D01*
X22412301Y-88579301D02*
X22412301Y-79422603D01*
X23088599Y-78701901D02*
X23093462Y-78701901D01*
X22390099Y-79400401D02*
X23088599Y-78701901D01*
X22282102Y-88709500D02*
X22412301Y-88579301D01*
X22412301Y-79422603D02*
X22390099Y-79400401D01*
X23093462Y-78701901D02*
X25149672Y-76645691D01*
X22282102Y-88709500D02*
X26531300Y-88709500D01*
X22282102Y-88709500D02*
X18531300Y-88709500D01*
X27622500Y-69024500D02*
X22846300Y-69024500D01*
X22846300Y-69024500D02*
X18531300Y-64709500D01*
X29608126Y-71010126D02*
X27622500Y-69024500D01*
X29608126Y-73723500D02*
X29608126Y-71010126D01*
X27814634Y-75516992D02*
X29608126Y-73723500D01*
X26098500Y-75819000D02*
X21640800Y-75819000D01*
X21640800Y-75819000D02*
X18531300Y-72709500D01*
D15*
X23136211Y-79880467D03*
X27495500Y-77660500D03*
X25149672Y-76645691D03*
X27814634Y-75516992D03*
X26098500Y-75819000D03*
D16*
X18531300Y-88709500D03*
X26531300Y-72709500D03*
X18531300Y-72709500D03*
X18531300Y-80709500D03*
X26531300Y-80709500D03*
X26531300Y-88709500D03*
X18531300Y-64709500D03*
X34531300Y-72709500D03*
X34531300Y-88709500D03*
X34531300Y-80709500D03*
X34531300Y-64709500D03*
X26531300Y-64709500D03*
M02*
