<?xml version="1.0" standalone="no"?>
 <!DOCTYPE svg PUBLIC "-//W3C//DTD SVG 1.1//EN" 
 "http://www.w3.org/Graphics/SVG/1.1/DTD/svg11.dtd"> 
<svg xmlns="http://www.w3.org/2000/svg" version="1.1" 
    width="27.94cm" height="21.59cm" viewBox="0 0 110000 85000 ">
<title>SVG Picture created as VibeMotor-Button-Battery-Assembly.svg date 2016/11/21 10:30:33 </title>
  <desc>Picture generated by PCBNEW </desc>
<g style="fill:#000000; fill-opacity:1;stroke:#000000; stroke-opacity:1;
stroke-linecap:round; stroke-linejoin:round; "
 transform="translate(0 0) scale(1 1)">
</g>
<g style="fill:#000000; fill-opacity:0.0; 
stroke:#000000; stroke-width:-0.000393701; stroke-opacity:1; 
stroke-linecap:round; stroke-linejoin:round;">
</g>
<g style="fill:#000000; fill-opacity:0.0; 
stroke:#000000; stroke-width:60; stroke-opacity:1; 
stroke-linecap:round; stroke-linejoin:round;">
<path d="M65935 49004
L65802 48814
" />
<path d="M65706 49004
L65706 48604
L65859 48604
L65897 48623
L65916 48642
L65935 48680
L65935 48737
L65916 48775
L65897 48794
L65859 48814
L65706 48814
" />
<path d="M66259 48985
L66221 49004
L66144 49004
L66106 48985
L66087 48947
L66087 48794
L66106 48756
L66144 48737
L66221 48737
L66259 48756
L66278 48794
L66278 48833
L66087 48871
" />
<path d="M66411 48737
L66487 49004
L66563 48814
L66640 49004
L66716 48737
" />
<path d="M66868 49004
L66868 48737
" />
<path d="M66868 48604
L66849 48623
L66868 48642
L66887 48623
L66868 48604
L66868 48642
" />
<path d="M67059 49004
L67059 48737
" />
<path d="M67059 48814
L67078 48775
L67097 48756
L67135 48737
L67173 48737
" />
<path d="M67459 48985
L67421 49004
L67344 49004
L67306 48985
L67287 48947
L67287 48794
L67306 48756
L67344 48737
L67421 48737
L67459 48756
L67478 48794
L67478 48833
L67287 48871
" />
<path d="M68182 48966
L68163 48985
L68106 49004
L68068 49004
L68011 48985
L67973 48947
L67954 48909
L67935 48833
L67935 48775
L67954 48699
L67973 48661
L68011 48623
L68068 48604
L68106 48604
L68163 48623
L68182 48642
" />
<path d="M68354 49004
L68354 48737
" />
<path d="M68354 48604
L68335 48623
L68354 48642
L68373 48623
L68354 48604
L68354 48642
" />
<path d="M68544 49004
L68544 48737
" />
<path d="M68544 48814
L68563 48775
L68582 48756
L68621 48737
L68659 48737
" />
<path d="M68963 48985
L68925 49004
L68849 49004
L68811 48985
L68792 48966
L68773 48928
L68773 48814
L68792 48775
L68811 48756
L68849 48737
L68925 48737
L68963 48756
" />
<path d="M69306 48737
L69306 49004
" />
<path d="M69135 48737
L69135 48947
L69154 48985
L69192 49004
L69249 49004
L69287 48985
L69306 48966
" />
<path d="M69497 49004
L69497 48737
" />
<path d="M69497 48604
L69478 48623
L69497 48642
L69516 48623
L69497 48604
L69497 48642
" />
<path d="M69630 48737
L69782 48737
" />
<path d="M69687 48604
L69687 48947
L69706 48985
L69744 49004
L69782 49004
" />
<path d="M70221 49004
L70221 48604
" />
<path d="M70449 49004
L70278 48775
" />
<path d="M70449 48604
L70221 48833
" />
<path d="M70621 49004
L70621 48737
" />
<path d="M70621 48604
L70602 48623
L70621 48642
L70640 48623
L70621 48604
L70621 48642
" />
<path d="M70754 48737
L70906 48737
" />
<path d="M70811 48604
L70811 48947
L70830 48985
L70868 49004
L70906 49004
" />
<path d="M68125 49664
L67897 49664
" />
<path d="M68011 49664
L68011 49264
L67973 49321
L67935 49359
L67897 49378
" />
<path d="M68506 49664
L68278 49664
" />
<path d="M68392 49664
L68392 49264
L68354 49321
L68316 49359
L68278 49378
" />
<path d="M68963 49245
L68621 49759
" />
<path d="M69306 49664
L69078 49664
" />
<path d="M69192 49664
L69192 49264
L69154 49321
L69116 49359
L69078 49378
" />
<path d="M69497 49664
L69573 49664
L69611 49645
L69630 49626
L69668 49569
L69687 49493
L69687 49340
L69668 49302
L69649 49283
L69611 49264
L69535 49264
L69497 49283
L69478 49302
L69459 49340
L69459 49435
L69478 49474
L69497 49493
L69535 49512
L69611 49512
L69649 49493
L69668 49474
L69687 49435
" />
<path d="M70144 49245
L69802 49759
" />
<path d="M70487 49664
L70259 49664
" />
<path d="M70373 49664
L70373 49264
L70335 49321
L70297 49359
L70259 49378
" />
<path d="M70830 49264
L70754 49264
L70716 49283
L70697 49302
L70659 49359
L70640 49435
L70640 49588
L70659 49626
L70678 49645
L70716 49664
L70792 49664
L70830 49645
L70849 49626
L70868 49588
L70868 49493
L70849 49454
L70830 49435
L70792 49416
L70716 49416
L70678 49435
L70659 49454
L70640 49493
" />
<path d="M64485 30287
L64676 30287
" />
<path d="M64447 30402
L64581 30002
L64714 30402
" />
<path d="M64828 30383
L64866 30402
L64942 30402
L64981 30383
L65000 30344
L65000 30325
L64981 30287
L64942 30268
L64885 30268
L64847 30249
L64828 30211
L64828 30192
L64847 30154
L64885 30135
L64942 30135
L64981 30154
" />
<path d="M65152 30383
L65190 30402
L65266 30402
L65304 30383
L65323 30344
L65323 30325
L65304 30287
L65266 30268
L65209 30268
L65171 30249
L65152 30211
L65152 30192
L65171 30154
L65209 30135
L65266 30135
L65304 30154
" />
<path d="M65647 30383
L65609 30402
L65533 30402
L65495 30383
L65476 30344
L65476 30192
L65495 30154
L65533 30135
L65609 30135
L65647 30154
L65666 30192
L65666 30230
L65476 30268
" />
<path d="M65838 30402
L65838 30135
" />
<path d="M65838 30173
L65857 30154
L65895 30135
L65952 30135
L65990 30154
L66009 30192
L66009 30402
" />
<path d="M66009 30192
L66028 30154
L66066 30135
L66123 30135
L66162 30154
L66181 30192
L66181 30402
" />
<path d="M66371 30402
L66371 30002
" />
<path d="M66371 30154
L66409 30135
L66485 30135
L66523 30154
L66542 30173
L66562 30211
L66562 30325
L66542 30364
L66523 30383
L66485 30402
L66409 30402
L66371 30383
" />
<path d="M66790 30402
L66752 30383
L66733 30344
L66733 30002
" />
<path d="M66904 30135
L67000 30402
" />
<path d="M67095 30135
L67000 30402
L66962 30497
L66942 30516
L66904 30535
" />
<path d="M67552 30402
L67552 30002
" />
<path d="M67742 30135
L67742 30402
" />
<path d="M67742 30173
L67762 30154
L67800 30135
L67857 30135
L67895 30154
L67914 30192
L67914 30402
" />
<path d="M68047 30135
L68200 30135
" />
<path d="M68104 30402
L68104 30059
L68123 30021
L68162 30002
L68200 30002
" />
<path d="M68390 30402
L68352 30383
L68333 30364
L68314 30325
L68314 30211
L68333 30173
L68352 30154
L68390 30135
L68447 30135
L68485 30154
L68504 30173
L68523 30211
L68523 30325
L68504 30364
L68485 30383
L68447 30402
L68390 30402
" />
<path d="M68695 30402
L68695 30135
" />
<path d="M68695 30211
L68714 30173
L68733 30154
L68771 30135
L68809 30135
" />
<path d="M68942 30402
L68942 30135
" />
<path d="M68942 30173
L68962 30154
L69000 30135
L69057 30135
L69095 30154
L69114 30192
L69114 30402
" />
<path d="M69114 30192
L69133 30154
L69171 30135
L69228 30135
L69266 30154
L69285 30192
L69285 30402
" />
<path d="M69647 30402
L69647 30192
L69628 30154
L69590 30135
L69514 30135
L69476 30154
" />
<path d="M69647 30383
L69609 30402
L69514 30402
L69476 30383
L69457 30344
L69457 30306
L69476 30268
L69514 30249
L69609 30249
L69647 30230
" />
<path d="M69781 30135
L69933 30135
" />
<path d="M69838 30002
L69838 30344
L69857 30383
L69895 30402
L69933 30402
" />
<path d="M70066 30402
L70066 30135
" />
<path d="M70066 30002
L70047 30021
L70066 30040
L70085 30021
L70066 30002
L70066 30040
" />
<path d="M70314 30402
L70276 30383
L70257 30364
L70238 30325
L70238 30211
L70257 30173
L70276 30154
L70314 30135
L70371 30135
L70409 30154
L70428 30173
L70447 30211
L70447 30325
L70428 30364
L70409 30383
L70371 30402
L70314 30402
" />
<path d="M70619 30135
L70619 30402
" />
<path d="M70619 30173
L70638 30154
L70676 30135
L70733 30135
L70771 30154
L70790 30192
L70790 30402
" />
<path d="M61419 30662
L61552 31062
L61685 30662
" />
<path d="M61819 31062
L61819 30795
" />
<path d="M61819 30662
L61800 30681
L61819 30700
L61838 30681
L61819 30662
L61819 30700
" />
<path d="M62009 31062
L62009 30662
" />
<path d="M62009 30814
L62047 30795
L62123 30795
L62162 30814
L62181 30833
L62200 30871
L62200 30985
L62181 31024
L62162 31043
L62123 31062
L62047 31062
L62009 31043
" />
<path d="M62523 31043
L62485 31062
L62409 31062
L62371 31043
L62352 31004
L62352 30852
L62371 30814
L62409 30795
L62485 30795
L62523 30814
L62542 30852
L62542 30890
L62352 30928
" />
<path d="M62714 31062
L62714 30662
L62847 30947
L62981 30662
L62981 31062
" />
<path d="M63228 31062
L63190 31043
L63171 31024
L63152 30985
L63152 30871
L63171 30833
L63190 30814
L63228 30795
L63285 30795
L63323 30814
L63342 30833
L63362 30871
L63362 30985
L63342 31024
L63323 31043
L63285 31062
L63228 31062
" />
<path d="M63476 30795
L63628 30795
" />
<path d="M63533 30662
L63533 31004
L63552 31043
L63590 31062
L63628 31062
" />
<path d="M63819 31062
L63781 31043
L63762 31024
L63742 30985
L63742 30871
L63762 30833
L63781 30814
L63819 30795
L63876 30795
L63914 30814
L63933 30833
L63952 30871
L63952 30985
L63933 31024
L63914 31043
L63876 31062
L63819 31062
" />
<path d="M64123 31062
L64123 30795
" />
<path d="M64123 30871
L64142 30833
L64162 30814
L64200 30795
L64238 30795
" />
<path d="M64371 30909
L64676 30909
" />
<path d="M65000 30852
L65057 30871
L65076 30890
L65095 30928
L65095 30985
L65076 31024
L65057 31043
L65019 31062
L64866 31062
L64866 30662
L65000 30662
L65038 30681
L65057 30700
L65076 30738
L65076 30776
L65057 30814
L65038 30833
L65000 30852
L64866 30852
" />
<path d="M65438 31062
L65438 30852
L65419 30814
L65381 30795
L65304 30795
L65266 30814
" />
<path d="M65438 31043
L65400 31062
L65304 31062
L65266 31043
L65247 31004
L65247 30966
L65266 30928
L65304 30909
L65400 30909
L65438 30890
" />
<path d="M65571 30795
L65723 30795
" />
<path d="M65628 30662
L65628 31004
L65647 31043
L65685 31062
L65723 31062
" />
<path d="M65800 30795
L65952 30795
" />
<path d="M65857 30662
L65857 31004
L65876 31043
L65914 31062
L65952 31062
" />
<path d="M66238 31043
L66200 31062
L66123 31062
L66085 31043
L66066 31004
L66066 30852
L66085 30814
L66123 30795
L66200 30795
L66238 30814
L66257 30852
L66257 30890
L66066 30928
" />
<path d="M66428 31062
L66428 30795
" />
<path d="M66428 30871
L66447 30833
L66466 30814
L66504 30795
L66542 30795
" />
<path d="M66638 30795
L66733 31062
" />
<path d="M66828 30795
L66733 31062
L66695 31157
L66676 31176
L66638 31195
" />
<path d="M66981 30909
L67285 30909
" />
<path d="M67609 30852
L67666 30871
L67685 30890
L67704 30928
L67704 30985
L67685 31024
L67666 31043
L67628 31062
L67476 31062
L67476 30662
L67609 30662
L67647 30681
L67666 30700
L67685 30738
L67685 30776
L67666 30814
L67647 30833
L67609 30852
L67476 30852
" />
<path d="M68047 30795
L68047 31062
" />
<path d="M67876 30795
L67876 31004
L67895 31043
L67933 31062
L67990 31062
L68028 31043
L68047 31024
" />
<path d="M68181 30795
L68333 30795
" />
<path d="M68238 30662
L68238 31004
L68257 31043
L68295 31062
L68333 31062
" />
<path d="M68409 30795
L68562 30795
" />
<path d="M68466 30662
L68466 31004
L68485 31043
L68523 31062
L68562 31062
" />
<path d="M68752 31062
L68714 31043
L68695 31024
L68676 30985
L68676 30871
L68695 30833
L68714 30814
L68752 30795
L68809 30795
L68847 30814
L68866 30833
L68885 30871
L68885 30985
L68866 31024
L68847 31043
L68809 31062
L68752 31062
" />
<path d="M69057 30795
L69057 31062
" />
<path d="M69057 30833
L69076 30814
L69114 30795
L69171 30795
L69209 30814
L69228 30852
L69228 31062
" />
<path d="M69685 30795
L69781 31062
L69876 30795
" />
<path d="M70238 31062
L70009 31062
" />
<path d="M70123 31062
L70123 30662
L70085 30719
L70047 30757
L70009 30776
" />
<path d="M70409 31024
L70428 31043
L70409 31062
L70390 31043
L70409 31024
L70409 31062
" />
<path d="M70676 30662
L70714 30662
L70752 30681
L70771 30700
L70790 30738
L70809 30814
L70809 30909
L70790 30985
L70771 31024
L70752 31043
L70714 31062
L70676 31062
L70638 31043
L70619 31024
L70600 30985
L70581 30909
L70581 30814
L70600 30738
L70619 30700
L70638 30681
L70676 30662
" />
</g>
<g style="fill:#000000; fill-opacity:0.0; 
stroke:#000000; stroke-width:16; stroke-opacity:1; 
stroke-linecap:round; stroke-linejoin:round;">
<path d="M67250 46200
L68250 46200
" />
<path d="M67250 46800
L68250 46800
" />
<path d="M70000 41000
L70000 42000
" />
<path d="M69400 41000
L69400 42000
" />
<path d="M62020 33685
L61020 33685
" />
<path d="M62020 33085
L61020 33085
" />
<path d="M65800 48145.7 A1496.58 1496.58 0.0 0 0 67254.1 46610.3 " />
<path d="M67256.7 43500 A1500.72 1500.72 0.0 0 0 65637.9 42003.9 " />
<path d="M59500.8 42003.4 A1496.58 1496.58 0.0 0 0 58004.7 43539.4 " />
<path d="M58004.2 46649.6 A1496.58 1496.58 0.0 0 0 59540.2 48145.7 " />
<path d="M58004 46649
L58004 43500
" />
<path d="M59500 48145
L65800 48145
" />
<path d="M59500 42003
L65681 42003
" />
<path d="M67256 46649
L67256 43500
" />
</g>
<g style="fill:#000000; fill-opacity:0.0; 
stroke:#000000; stroke-width:19.685; stroke-opacity:1; 
stroke-linecap:round; stroke-linejoin:round;">
<path d="M60996 33200
L60996 39500
" />
<path d="M58003 39500
L58003 33200
" />
<path d="M58003.9 39500 A1496.06 1496.06 0.0 0 0 60996.1 39500 " />
<path d="M60996.1 33200.8 A1496.06 1496.06 0.0 0 0 58003.9 33200.8 " />
</g>
<g style="fill:#000000; fill-opacity:0.0; 
stroke:#000000; stroke-width:16; stroke-opacity:1; 
stroke-linecap:round; stroke-linejoin:round;">
<path d="M59780 40990
L59780 41990
" />
<path d="M59180 40990
L59180 41990
" />
<path d="M68249 43514
L68249 46585
" />
<path d="M71320 43514
L71320 46585
" />
<path d="M69784.6 41979.1 A1535.43 1535.43 0.0 0 0 68249.1 43514.6 " />
<path d="M71320 43514.6 A1535.43 1535.43 0.0 0 0 69784.6 41979.1 " />
<path d="M69784.6 48120.9 A1535.43 1535.43 0.0 0 0 71320 46585.4 " />
<path d="M68249.1 46585.4 A1535.43 1535.43 0.0 0 0 69784.6 48120.9 " />
</g>
<g style="fill:#000000; fill-opacity:0.0; 
stroke:#000000; stroke-width:19.685; stroke-opacity:1; 
stroke-linecap:round; stroke-linejoin:round;">
<path d="M69835 31639
L63535 31639
" />
<path d="M71331 39434
L71331 33135
" />
<path d="M62039 39434
L62039 33135
" />
<path d="M69835 40930
L63535 40930
" />
<path d="M69835 40930.7 A1496.06 1496.06 0.0 0 0 71331.1 39434.6 " />
<path d="M71331.1 33135.4 A1496.06 1496.06 0.0 0 0 69835 31639.3 " />
<path d="M63535.8 31639.3 A1496.06 1496.06 0.0 0 0 62039.7 33135.4 " />
<path d="M62039.7 39434.6 A1496.06 1496.06 0.0 0 0 63535.8 40930.7 " />
</g>
<g style="fill:#000000; fill-opacity:0.0; 
stroke:#000000; stroke-width:59.0551; stroke-opacity:1; 
stroke-linecap:round; stroke-linejoin:round;">
<path d="M61759 45252
L61759 44859
L61891 45140
L62022 44859
L62022 45252
" />
<path d="M62284 44859
L62359 44859
L62397 44877
L62434 44915
L62453 44990
L62453 45121
L62434 45196
L62397 45234
L62359 45252
L62284 45252
L62247 45234
L62209 45196
L62191 45121
L62191 44990
L62209 44915
L62247 44877
L62284 44859
" />
<path d="M62566 44859
L62791 44859
" />
<path d="M62678 45252
L62678 44859
" />
<path d="M62997 44859
L63072 44859
L63109 44877
L63147 44915
L63165 44990
L63165 45121
L63147 45196
L63109 45234
L63072 45252
L62997 45252
L62959 45234
L62922 45196
L62903 45121
L62903 44990
L62922 44915
L62959 44877
L62997 44859
" />
<path d="M63559 45252
L63428 45065
" />
<path d="M63334 45252
L63334 44859
L63484 44859
L63522 44877
L63540 44896
L63559 44934
L63559 44990
L63540 45027
L63522 45046
L63484 45065
L63334 45065
" />
<path d="M59718 37314
L59737 37258
L59737 37164
L59718 37127
L59699 37108
L59662 37089
L59624 37089
L59587 37108
L59568 37127
L59549 37164
L59530 37239
L59512 37277
L59493 37296
L59455 37314
L59418 37314
L59380 37296
L59362 37277
L59343 37239
L59343 37146
L59362 37089
" />
<path d="M59343 36958
L59737 36865
L59455 36790
L59737 36715
L59343 36621
" />
<path d="M59737 36471
L59343 36471
" />
<path d="M59343 36340
L59343 36115
" />
<path d="M59737 36227
L59343 36227
" />
<path d="M59699 35758
L59718 35777
L59737 35833
L59737 35871
L59718 35927
L59680 35965
L59643 35983
L59568 36002
L59512 36002
L59437 35983
L59399 35965
L59362 35927
L59343 35871
L59343 35833
L59362 35777
L59380 35758
" />
<path d="M59737 35590
L59343 35590
" />
<path d="M59530 35590
L59530 35365
" />
<path d="M59737 35365
L59343 35365
" />
<path d="M69276 45217
L69088 45217
L69088 44823
" />
<path d="M69482 44823
L69557 44823
L69595 44842
L69632 44880
L69651 44955
L69651 45086
L69632 45161
L69595 45198
L69557 45217
L69482 45217
L69445 45198
L69407 45161
L69388 45086
L69388 44955
L69407 44880
L69445 44842
L69482 44823
" />
<path d="M70026 44842
L69988 44823
L69932 44823
L69876 44842
L69838 44880
L69820 44917
L69801 44992
L69801 45048
L69820 45123
L69838 45161
L69876 45198
L69932 45217
L69970 45217
L70026 45198
L70044 45179
L70044 45048
L69970 45048
" />
<path d="M70288 44823
L70363 44823
L70401 44842
L70438 44880
L70457 44955
L70457 45086
L70438 45161
L70401 45198
L70363 45217
L70288 45217
L70251 45198
L70213 45161
L70194 45086
L70194 44955
L70213 44880
L70251 44842
L70288 44823
" />
<path d="M65860 36425
L65841 36444
L65785 36463
L65748 36463
L65691 36444
L65654 36406
L65635 36369
L65616 36294
L65616 36238
L65635 36163
L65654 36125
L65691 36088
L65748 36069
L65785 36069
L65841 36088
L65860 36106
" />
<path d="M66254 36463
L66122 36275
" />
<path d="M66029 36463
L66029 36069
L66179 36069
L66216 36088
L66235 36106
L66254 36144
L66254 36200
L66235 36238
L66216 36256
L66179 36275
L66029 36275
" />
<path d="M66404 36106
L66422 36088
L66460 36069
L66554 36069
L66591 36088
L66610 36106
L66629 36144
L66629 36181
L66610 36238
L66385 36463
L66629 36463
" />
<path d="M66872 36069
L66910 36069
L66947 36088
L66966 36106
L66985 36144
L67004 36219
L67004 36313
L66985 36388
L66966 36425
L66947 36444
L66910 36463
L66872 36463
L66835 36444
L66816 36425
L66797 36388
L66779 36313
L66779 36219
L66797 36144
L66816 36106
L66835 36088
L66872 36069
" />
<path d="M67135 36069
L67379 36069
L67247 36219
L67304 36219
L67341 36238
L67360 36256
L67379 36294
L67379 36388
L67360 36425
L67341 36444
L67304 36463
L67191 36463
L67154 36444
L67135 36425
" />
<path d="M67529 36106
L67547 36088
L67585 36069
L67679 36069
L67716 36088
L67735 36106
L67754 36144
L67754 36181
L67735 36238
L67510 36463
L67754 36463
" />
</g> 
</svg>
