%TF.GenerationSoftware,KiCad,Pcbnew,4.0.5-e0-6337~49~ubuntu16.04.1*%
%TF.CreationDate,2017-03-19T10:55:10-07:00*%
%TF.ProjectId,2x3-Slide-Switch-CL-SB-SMT,3278332D536C6964652D537769746368,1.0*%
%TF.FileFunction,Soldermask,Top*%
%FSLAX46Y46*%
G04 Gerber Fmt 4.6, Leading zero omitted, Abs format (unit mm)*
G04 Created by KiCad (PCBNEW 4.0.5-e0-6337~49~ubuntu16.04.1) date Sun Mar 19 10:55:10 2017*
%MOMM*%
%LPD*%
G01*
G04 APERTURE LIST*
%ADD10C,0.350000*%
G04 APERTURE END LIST*
D10*
G36*
X6152720Y-52110917D02*
X6233237Y-52127444D01*
X6308997Y-52159292D01*
X6377137Y-52205253D01*
X6435053Y-52263573D01*
X6480537Y-52332033D01*
X6511857Y-52408022D01*
X6527751Y-52488292D01*
X6527751Y-52488306D01*
X6527818Y-52488645D01*
X6526507Y-52582521D01*
X6526431Y-52582855D01*
X6526431Y-52582868D01*
X6508300Y-52662672D01*
X6474872Y-52737753D01*
X6427494Y-52804914D01*
X6367973Y-52861596D01*
X6298577Y-52905636D01*
X6221950Y-52935357D01*
X6141011Y-52949629D01*
X6058836Y-52947907D01*
X5978563Y-52930259D01*
X5903245Y-52897353D01*
X5835759Y-52850449D01*
X5778664Y-52791326D01*
X5734141Y-52722238D01*
X5703882Y-52645815D01*
X5689047Y-52564982D01*
X5690194Y-52482798D01*
X5707283Y-52402402D01*
X5739660Y-52326859D01*
X5786096Y-52259042D01*
X5844817Y-52201538D01*
X5913593Y-52156533D01*
X5989799Y-52125743D01*
X6070530Y-52110343D01*
X6152720Y-52110917D01*
X6152720Y-52110917D01*
G37*
G36*
X6855460Y-51069240D02*
X5102860Y-51069240D01*
X5102860Y-49717960D01*
X6855460Y-49717960D01*
X6855460Y-51069240D01*
X6855460Y-51069240D01*
G37*
G36*
X9654540Y-48569880D02*
X7901940Y-48569880D01*
X7901940Y-47218600D01*
X9654540Y-47218600D01*
X9654540Y-48569880D01*
X9654540Y-48569880D01*
G37*
G36*
X17900220Y-47475417D02*
X17980737Y-47491944D01*
X18056497Y-47523792D01*
X18124637Y-47569753D01*
X18182553Y-47628073D01*
X18228037Y-47696533D01*
X18259357Y-47772522D01*
X18275251Y-47852792D01*
X18275251Y-47852806D01*
X18275318Y-47853145D01*
X18274007Y-47947021D01*
X18273931Y-47947355D01*
X18273931Y-47947368D01*
X18255800Y-48027172D01*
X18222372Y-48102253D01*
X18174994Y-48169414D01*
X18115473Y-48226096D01*
X18046077Y-48270136D01*
X17969450Y-48299857D01*
X17888511Y-48314129D01*
X17806336Y-48312407D01*
X17726063Y-48294759D01*
X17650745Y-48261853D01*
X17583259Y-48214949D01*
X17526164Y-48155826D01*
X17481641Y-48086738D01*
X17451382Y-48010315D01*
X17436547Y-47929482D01*
X17437694Y-47847298D01*
X17454783Y-47766902D01*
X17487160Y-47691359D01*
X17533596Y-47623542D01*
X17592317Y-47566038D01*
X17661093Y-47521033D01*
X17737299Y-47490243D01*
X17818030Y-47474843D01*
X17900220Y-47475417D01*
X17900220Y-47475417D01*
G37*
G36*
X6855460Y-46070520D02*
X5102860Y-46070520D01*
X5102860Y-44719240D01*
X6855460Y-44719240D01*
X6855460Y-46070520D01*
X6855460Y-46070520D01*
G37*
G36*
X6025720Y-43220917D02*
X6106237Y-43237444D01*
X6181997Y-43269292D01*
X6250137Y-43315253D01*
X6308053Y-43373573D01*
X6353537Y-43442033D01*
X6384857Y-43518022D01*
X6400751Y-43598292D01*
X6400751Y-43598306D01*
X6400818Y-43598645D01*
X6399507Y-43692521D01*
X6399431Y-43692855D01*
X6399431Y-43692868D01*
X6381300Y-43772672D01*
X6347872Y-43847753D01*
X6300494Y-43914914D01*
X6240973Y-43971596D01*
X6171577Y-44015636D01*
X6094950Y-44045357D01*
X6014011Y-44059629D01*
X5931836Y-44057907D01*
X5851563Y-44040259D01*
X5776245Y-44007353D01*
X5708759Y-43960449D01*
X5651664Y-43901326D01*
X5607141Y-43832238D01*
X5576882Y-43755815D01*
X5562047Y-43674982D01*
X5563194Y-43592798D01*
X5580283Y-43512402D01*
X5612660Y-43436859D01*
X5659096Y-43369042D01*
X5717817Y-43311538D01*
X5786593Y-43266533D01*
X5862799Y-43235743D01*
X5943530Y-43220343D01*
X6025720Y-43220917D01*
X6025720Y-43220917D01*
G37*
M02*
