G04 This is an RS-274x file exported by *
G04 gerbv version 2.6.0 *
G04 More information is available about gerbv at *
G04 http://gerbv.gpleda.org/ *
G04 --End of header info--*
%MOIN*%
%FSLAX34Y34*%
%IPPOS*%
G04 --Define apertures--*
%ADD10C,0.0138*%
%ADD11C,0.0016*%
%ADD12C,0.0060*%
%ADD13C,0.0059*%
G04 --Start main section--*
G54D11*
G01X0008620Y-012714D02*
G01X0002399Y-012714D01*
G01X0008620Y-018856D02*
G01X0002399Y-018856D01*
G01X0010155Y-017321D02*
G01X0010155Y-014250D01*
G01X0000864Y-017321D02*
G01X0000864Y-014250D01*
G01X0010155Y-014250D02*
G75*
G03X0008620Y-012714I-001535J0000000D01*
G01X0008620Y-018856D02*
G75*
G03X0010155Y-017321I0000000J0001535D01*
G01X0000864Y-017321D02*
G75*
G03X0002399Y-018856I0001535J0000000D01*
G01X0002399Y-012714D02*
G75*
G03X0000864Y-014250I0000000J-001535D01*
G54D12*
G01X0008060Y-016810D02*
G01X0008060Y-014810D01*
G54D11*
G01X0007460Y-013260D02*
G01X0003460Y-013260D01*
G01X0007460Y-018310D02*
G01X0007460Y-013310D01*
G01X0003460Y-018310D02*
G01X0007460Y-018310D01*
G01X0003460Y-018310D02*
G01X0003460Y-013310D01*
G54D12*
G01X0008060Y-014760D02*
G01X0007460Y-014760D01*
G01X0007460Y-016810D02*
G01X0008060Y-016810D01*
G54D13*
G01X0005428Y-015694D02*
G01X0005428Y-015976D01*
G01X0005428Y-015976D02*
G01X0005410Y-016032D01*
G01X0005410Y-016032D02*
G01X0005372Y-016069D01*
G01X0005372Y-016069D02*
G01X0005316Y-016088D01*
G01X0005316Y-016088D02*
G01X0005278Y-016088D01*
G01X0005822Y-016088D02*
G01X0005597Y-016088D01*
G01X0005710Y-016088D02*
G01X0005710Y-015694D01*
G01X0005710Y-015694D02*
G01X0005672Y-015751D01*
G01X0005672Y-015751D02*
G01X0005635Y-015788D01*
G01X0005635Y-015788D02*
G01X0005597Y-015807D01*
G01X0000000Y0000000D02*
G54D11*
G01X0008620Y-012714D02*
G01X0002399Y-012714D01*
G01X0008620Y-018856D02*
G01X0002399Y-018856D01*
G01X0010155Y-017321D02*
G01X0010155Y-014250D01*
G01X0000864Y-017321D02*
G01X0000864Y-014250D01*
G01X0010155Y-014250D02*
G75*
G03X0008620Y-012714I-001535J0000000D01*
G01X0008620Y-018856D02*
G75*
G03X0010155Y-017321I0000000J0001535D01*
G01X0000864Y-017321D02*
G75*
G03X0002399Y-018856I0001535J0000000D01*
G01X0002399Y-012714D02*
G75*
G03X0000864Y-014250I0000000J-001535D01*
M02*
